<svg width="46" height="57" viewBox="0 0 46 57" fill="none" xmlns="http://www.w3.org/2000/svg">
<path d="M24.5437 7.42045L28.0945 9.27159V4.03793L24.5437 5.16544C24.4428 5.03081 24.325 4.91301 24.2072 4.81204C24.0894 4.71107 25.6376 0.302002 25.6376 0.302002H20.5217L21.9521 4.79521C21.8175 4.91301 21.6997 5.03081 21.6156 5.14861C21.5314 5.26641 18.0648 4.03793 18.0648 4.03793V9.27159L21.6156 7.40363C21.7165 7.55508 21.8512 7.67288 21.9858 7.77385L19.9495 13.9331V13.9499C19.8486 14.2528 19.7981 14.5894 19.7981 14.926C19.7981 16.592 21.0266 17.9719 22.6253 18.2075H22.6926C22.8272 18.2243 22.9618 18.2412 23.1133 18.2412C23.2479 18.2412 23.3994 18.2412 23.534 18.2075H23.6013C25.2 17.9719 26.4285 16.592 26.4285 14.926C26.4285 14.5894 26.378 14.2697 26.2771 13.9499C26.1761 13.6302 26.2771 13.9499 26.2771 13.9331L24.2408 7.77385C24.3754 7.67288 24.5101 7.55508 24.611 7.40363M11.5521 14.8755C11.9021 15.0608 12.2859 15.1736 12.6804 15.2072C13.075 15.2408 13.4723 15.1944 13.8486 15.0709C14.2248 14.9474 14.5723 14.7493 14.8702 14.4885C15.1682 14.2276 15.4104 13.9093 15.5825 13.5527C15.7546 13.196 15.853 12.8083 15.8718 12.4128C15.8907 12.0172 15.8295 11.6219 15.6921 11.2505C15.5546 10.8792 15.3436 10.5393 15.0718 10.2513C14.8 9.96336 14.4729 9.73316 14.1101 9.5745C12.6628 8.88453 10.8958 9.50719 10.189 10.9713C9.48222 12.4353 10.1049 14.1855 11.5521 14.8755ZM4.24856 20.8833C5.76312 21.5059 7.47963 20.7991 8.10229 19.3014C8.72494 17.8036 8.01814 16.0703 6.50358 15.4476C5.02267 14.8418 3.28934 15.5654 2.66668 17.0632C2.04403 18.5609 2.76765 20.2774 4.24856 20.8833ZM34.6072 14.8755C34.2572 15.0608 33.8734 15.1736 33.4789 15.2072C33.0843 15.2408 32.687 15.1944 32.3107 15.0709C31.9345 14.9474 31.587 14.7493 31.2891 14.4885C30.9911 14.2276 30.7489 13.9093 30.5768 13.5527C30.4047 13.196 30.3063 12.8083 30.2874 12.4128C30.2686 12.0172 30.3298 11.6219 30.4672 11.2505C30.6047 10.8792 30.8156 10.5393 31.0875 10.2513C31.3593 9.96336 31.6864 9.73316 32.0492 9.5745C33.4965 8.88453 35.2635 9.50719 35.9703 10.9713C36.6771 12.4353 36.0544 14.1855 34.6072 14.8755ZM41.8771 20.8328C40.3625 21.4554 38.646 20.7486 38.0233 19.2509C37.4007 17.7532 38.1075 16.0198 39.6221 15.3972C41.103 14.7913 42.8363 15.515 43.459 17.0127C44.0816 18.5104 43.358 20.2269 41.8771 20.8328ZM23.0628 37.392C29.1042 37.392 34.8259 37.7959 39.925 38.5363C41.3722 32.4613 43.1392 28.9778 44.9567 26.4871L41.5405 25.2755C41.8771 27.0088 41.9276 27.8166 41.5405 28.9441C40.9683 28.3888 40.4467 27.379 40.0259 25.8308L38.3599 31.3506C39.3696 30.6606 40.1437 30.2062 41.0357 30.1894C39.4538 33.5888 37.4848 34.4638 36.2059 34.2282C34.6408 33.9422 33.934 32.5454 34.1696 31.3674C34.523 29.7014 36.2395 29.2638 37.0473 31.1991C38.5787 28.069 35.9871 27.093 34.3043 28.0185C36.879 25.4606 37.1651 23.1719 35.0952 20.4121C32.2007 22.6166 32.167 24.8043 33.4628 27.8839C31.78 25.9486 29.1547 26.992 30.0971 30.1053C31.3088 28.2205 32.9243 29.3985 32.6719 31.1991C32.4531 32.7642 30.4 34.0263 27.8421 33.7907C24.1735 33.4541 23.9547 30.913 23.8538 28.8263C24.7625 28.658 26.378 29.4994 27.7748 31.4515L28.2797 25.5952C26.7651 27.1603 25.402 27.4632 23.8706 27.5137C24.3754 25.9318 26.7146 23.3402 26.7146 23.3402H19.411C19.411 23.3402 21.7334 25.9318 22.2551 27.5137C20.7237 27.4632 19.3605 27.1603 17.846 25.5952L18.3508 31.4515C19.7308 29.4994 21.3631 28.658 22.2719 28.8263C22.1877 30.9299 21.969 33.4541 18.2835 33.7907C15.7256 34.0095 13.6557 32.7473 13.4537 31.1991C13.2013 29.4153 14.8169 28.2205 16.0285 30.1053C16.9709 26.992 14.3457 25.9486 12.6628 27.8839C13.9586 24.8043 13.9249 22.6166 11.0304 20.4121C8.96054 23.1719 9.24662 25.4438 11.8214 28.0185C10.1554 27.093 7.54694 28.069 9.07834 31.1991C9.88611 29.247 11.6026 29.6846 11.956 31.3674C12.1916 32.5454 11.4848 33.9422 9.91976 34.2282C8.6408 34.4638 6.67186 33.5888 5.08998 30.1894C5.9819 30.2062 6.75601 30.6606 7.76572 31.3506L6.09969 25.8308C5.67898 27.379 5.14047 28.3888 4.58513 28.9441C4.19807 27.8334 4.26539 27.0257 4.58513 25.2755L1.16895 26.4871C2.98642 28.9609 4.75341 32.4444 6.20067 38.5363C11.2997 37.8127 17.0046 37.392 23.046 37.392" fill="white"/>
<path d="M0.992169 54.7197C0.894538 54.8173 0.894538 54.9756 0.992169 55.0733L2.58316 56.6643C2.68079 56.7619 2.83908 56.7619 2.93671 56.6643C3.03434 56.5666 3.03434 56.4083 2.93671 56.3107L1.5225 54.8965L2.93671 53.4823C3.03434 53.3846 3.03434 53.2263 2.93671 53.1287C2.83908 53.0311 2.68079 53.0311 2.58316 53.1287L0.992169 54.7197ZM45.1333 55.0733C45.231 54.9756 45.231 54.8173 45.1333 54.7197L43.5423 53.1287C43.4447 53.0311 43.2864 53.0311 43.1888 53.1287C43.0911 53.2264 43.0911 53.3846 43.1888 53.4823L44.603 54.8965L43.1888 56.3107C43.0911 56.4083 43.0911 56.5666 43.1888 56.6643C43.2864 56.7619 43.4447 56.7619 43.5423 56.6643L45.1333 55.0733ZM1.16895 54.8965L1.16895 55.1465L44.9565 55.1465L44.9565 54.8965L44.9565 54.6465L1.16895 54.6465L1.16895 54.8965Z" fill="white"/>
</svg>
