<svg width="159" height="290" viewBox="0 0 159 290" fill="none" xmlns="http://www.w3.org/2000/svg">
<rect width="158.253" height="289.85" fill="#1D70B8"/>
<rect x="21.4771" y="21.8269" width="115.299" height="246.196" stroke="#8EB8DC" stroke-dasharray="2 2"/>
<path d="M74.3344 251.394C75.1617 251.394 75.8324 250.724 75.8324 249.896C75.8324 249.069 75.1617 248.399 74.3344 248.399C73.5071 248.399 72.8364 249.069 72.8364 249.896C72.8364 250.724 73.5071 251.394 74.3344 251.394Z" fill="white"/>
<path d="M70.3041 253.808C71.1314 253.808 71.8021 253.138 71.8021 252.31C71.8021 251.483 71.1314 250.812 70.3041 250.812C69.4768 250.812 68.8062 251.483 68.8062 252.31C68.8062 253.138 69.4768 253.808 70.3041 253.808Z" fill="white"/>
<path d="M67.6376 257.778C68.4649 257.778 69.1356 257.107 69.1356 256.28C69.1356 255.452 68.4649 254.782 67.6376 254.782C66.8103 254.782 66.1396 255.452 66.1396 256.28C66.1396 257.107 66.8103 257.778 67.6376 257.778Z" fill="white"/>
<path d="M79.1259 256.729C79.9532 256.729 80.6239 256.058 80.6239 255.231C80.6239 254.403 79.9532 253.733 79.1259 253.733C78.2986 253.733 77.6279 254.403 77.6279 255.231C77.6279 256.058 78.2986 256.729 79.1259 256.729Z" fill="white"/>
<path d="M83.912 251.394C84.7393 251.394 85.41 250.724 85.41 249.896C85.41 249.069 84.7393 248.398 83.912 248.398C83.0847 248.398 82.4141 249.069 82.4141 249.896C82.4141 250.724 83.0847 251.394 83.912 251.394Z" fill="white"/>
<path d="M87.9423 253.808C88.7696 253.808 89.4403 253.138 89.4403 252.31C89.4403 251.483 88.7696 250.812 87.9423 250.812C87.115 250.812 86.4443 251.483 86.4443 252.31C86.4443 253.138 87.115 253.808 87.9423 253.808Z" fill="white"/>
<path d="M90.6088 257.778C91.4361 257.778 92.1068 257.107 92.1068 256.28C92.1068 255.452 91.4361 254.782 90.6088 254.782C89.7815 254.782 89.1108 255.452 89.1108 256.28C89.1108 257.107 89.7815 257.778 90.6088 257.778Z" fill="white"/>
<path d="M79.1259 256.729C79.9532 256.729 80.6239 256.058 80.6239 255.231C80.6239 254.403 79.9532 253.733 79.1259 253.733C78.2986 253.733 77.6279 254.403 77.6279 255.231C77.6279 256.058 78.2986 256.729 79.1259 256.729Z" fill="white"/>
<path d="M79.7296 246.688C79.8053 246.631 79.8726 246.564 79.9296 246.488L81.8351 247.489V244.68L79.9323 245.284C79.8768 245.21 79.8111 245.143 79.7374 245.087L80.5032 242.675H77.7479L78.5137 245.087C78.4401 245.143 78.3746 245.21 78.3189 245.284L76.416 244.68V247.489L78.3216 246.488C78.3786 246.564 78.4458 246.631 78.5216 246.688L77.4361 249.962C77.0539 251.114 77.9119 252.302 79.1256 252.302C80.3393 252.302 81.1972 251.114 80.8151 249.962L79.7296 246.688Z" fill="white"/>
<path d="M81.3033 258.214C81.3033 258.214 79.912 259.762 79.6084 260.707C80.519 260.678 81.3372 260.501 82.2376 259.561L81.9324 263.058C81.1036 261.895 80.1317 261.394 79.5929 261.494C79.6474 262.748 79.7787 264.262 81.9733 264.461C83.5047 264.594 84.7341 263.842 84.862 262.912C85.0138 261.842 84.0504 261.135 83.324 262.261C82.7561 260.398 84.325 259.779 85.3326 260.932C84.5568 259.094 84.5774 257.788 86.303 256.468C87.541 258.114 87.3655 259.474 85.8309 261.006C86.83 260.453 88.3816 261.034 87.4676 262.902C86.9903 261.74 85.9654 262 85.7505 262.999C85.6072 263.705 86.0354 264.535 86.9664 264.705C87.7304 264.845 88.9068 264.323 89.8499 262.292C89.3196 262.306 88.8541 262.574 88.2522 262.988L89.2414 259.69C89.4905 260.616 89.8093 261.224 90.1469 261.552C90.3736 260.886 90.3411 260.403 90.1384 259.365L92.1831 260.093C91.0969 261.574 90.0448 263.654 89.182 267.285C86.14 266.851 82.7346 266.607 79.1262 266.607C75.5181 266.607 72.1124 266.851 69.0704 267.285C68.2076 263.653 67.1555 261.574 66.0693 260.093L68.114 259.365C67.911 260.403 67.8788 260.886 68.1055 261.552C68.4431 261.224 68.7619 260.616 69.011 259.69L70.0002 262.988C69.3983 262.573 68.9328 262.306 68.4025 262.292C69.3456 264.323 70.522 264.845 71.286 264.705C72.217 264.535 72.6449 263.705 72.5019 262.999C72.287 262 71.2624 261.74 70.7848 262.902C69.8708 261.034 71.4224 260.453 72.4215 261.006C70.8869 259.474 70.7111 258.113 71.9494 256.468C73.675 257.788 73.6956 259.094 72.9198 260.932C73.9274 259.779 75.4963 260.398 74.9284 262.261C74.202 261.135 73.2386 261.842 73.3904 262.912C73.5183 263.843 74.7478 264.595 76.2791 264.461C78.4737 264.262 78.605 262.748 78.6595 261.494C78.1207 261.394 77.1488 261.895 76.32 263.058L76.0148 259.561C76.9152 260.501 77.7337 260.678 78.6441 260.707C78.3404 259.762 76.9491 258.214 76.9491 258.214H81.3045H81.3033Z" fill="white"/>
<path d="M88.1448 138.794C89.7993 138.794 91.1406 137.453 91.1406 135.798C91.1406 134.144 89.7993 132.803 88.1448 132.803C86.4902 132.803 85.1489 134.144 85.1489 135.798C85.1489 137.453 86.4902 138.794 88.1448 138.794Z" fill="#00FFE0"/>
<path d="M33.9918 135.848C33.9918 136.607 34.0867 137.337 34.2765 138.038C34.466 138.74 34.7546 139.358 35.1427 139.895C35.5305 140.431 36.0253 140.862 36.6277 141.188C37.23 141.514 37.9479 141.677 38.7812 141.677C39.6144 141.677 40.2477 141.549 40.7799 141.293C41.3119 141.038 41.7368 140.718 42.0545 140.334C42.3718 139.951 42.5946 139.536 42.7227 139.091C42.8506 138.645 42.9144 138.233 42.9144 137.853V137.68H38.3728V134.945H46.4041V144.672H43.261V142.592C43.0383 142.939 42.7617 143.255 42.432 143.539C42.1019 143.824 41.7308 144.067 41.3179 144.269C40.9053 144.471 40.4535 144.63 39.9629 144.746C39.4721 144.861 38.9501 144.919 38.3976 144.919C37.1022 144.919 35.9515 144.684 34.9451 144.214C33.9386 143.743 33.0908 143.096 32.402 142.271C31.7132 141.446 31.1894 140.481 30.8303 139.375C30.4715 138.27 30.292 137.078 30.292 135.799C30.292 134.519 30.4921 133.338 30.8923 132.229C31.2924 131.119 31.8616 130.154 32.6002 129.333C33.3386 128.512 34.2293 127.865 35.273 127.39C36.3167 126.916 37.486 126.678 38.7815 126.678C39.6229 126.678 40.4211 126.775 41.1759 126.969C41.9309 127.163 42.6197 127.439 43.2426 127.798C43.8652 128.157 44.4159 128.59 44.8947 129.097C45.3728 129.605 45.7609 130.168 46.058 130.787L42.9147 132.556C42.7249 132.177 42.5021 131.824 42.2464 131.498C41.9904 131.172 41.6957 130.892 41.3617 130.656C41.0274 130.421 40.646 130.236 40.2171 130.1C39.7879 129.964 39.3095 129.895 38.7818 129.895C37.9485 129.895 37.2306 130.059 36.6283 130.384C36.0259 130.71 35.5311 131.141 35.1433 131.678C34.7556 132.214 34.4669 132.835 34.2771 133.54C34.0873 134.246 33.9924 134.974 33.9924 135.724V135.848H33.9918Z" fill="white"/>
<path d="M57.8332 126.678C59.1531 126.678 60.337 126.915 61.3849 127.39C62.4325 127.864 63.3217 128.512 64.0519 129.333C64.7818 130.153 65.3389 131.119 65.7224 132.228C66.106 133.338 66.2976 134.528 66.2976 135.798C66.2976 137.068 66.106 138.269 65.7224 139.375C65.3389 140.48 64.7818 141.446 64.0519 142.27C63.322 143.095 62.4328 143.743 61.3849 144.213C60.3373 144.684 59.1531 144.919 57.8332 144.919C56.5133 144.919 55.3188 144.684 54.2755 144.213C53.2318 143.743 52.345 143.096 51.6151 142.27C50.8849 141.446 50.3282 140.48 49.9446 139.375C49.5611 138.269 49.3691 137.077 49.3691 135.798C49.3691 134.519 49.5611 133.338 49.9446 132.228C50.3282 131.119 50.8849 130.153 51.6151 129.333C52.345 128.512 53.2318 127.864 54.2755 127.39C55.3191 126.915 56.5049 126.678 57.8332 126.678ZM57.8332 141.677C58.6088 141.677 59.2916 141.53 59.8812 141.237C60.4709 140.945 60.9684 140.538 61.3722 140.018C61.7766 139.499 62.0819 138.884 62.288 138.174C62.4941 137.465 62.5975 136.689 62.5975 135.848V135.749C62.5975 134.916 62.4941 134.142 62.288 133.429C62.0819 132.715 61.7766 132.098 61.3722 131.579C60.9681 131.059 60.4709 130.653 59.8812 130.36C59.2916 130.067 58.6088 129.92 57.8332 129.92C57.0577 129.92 56.3731 130.067 55.7789 130.36C55.1849 130.653 54.6881 131.059 54.2879 131.579C53.8877 132.098 53.5846 132.715 53.3784 133.429C53.1723 134.142 53.0689 134.916 53.0689 135.749V135.848C53.0689 136.689 53.1723 137.465 53.3784 138.174C53.5846 138.884 53.8877 139.498 54.2879 140.018C54.6881 140.538 55.1849 140.945 55.7789 141.237C56.3731 141.53 57.0577 141.677 57.8332 141.677Z" fill="white"/>
<path d="M72.6251 144.671L67.6133 126.926H71.6353L75.0633 140.266H75.1869L78.5407 126.926H82.5128L77.5009 144.671H72.6254H72.6251Z" fill="white"/>
<path d="M102.838 141.677C103.357 141.677 103.842 141.6 104.292 141.448C104.741 141.295 105.129 141.064 105.455 140.755C105.78 140.445 106.039 140.054 106.228 139.579C106.418 139.105 106.513 138.546 106.513 137.902V126.901H110.04V138.434C110.04 139.424 109.861 140.319 109.502 141.12C109.144 141.92 108.645 142.601 108.006 143.161C107.367 143.723 106.607 144.156 105.725 144.461C104.843 144.766 103.878 144.919 102.832 144.919C101.785 144.919 100.82 144.766 99.9387 144.461C99.0564 144.156 98.2942 143.722 97.651 143.161C97.0078 142.601 96.5073 141.92 96.1485 141.12C95.7901 140.319 95.6108 139.424 95.6108 138.434V126.901H99.1625V137.902C99.1625 138.546 99.2574 139.104 99.4469 139.579C99.6367 140.053 99.8946 140.445 100.22 140.754C100.546 141.064 100.934 141.295 101.384 141.447C101.833 141.6 102.318 141.676 102.838 141.676V141.677Z" fill="white"/>
<path d="M113.223 126.925H116.812V134.61L123.148 126.925H127.566L121.403 133.979L127.962 144.671H123.792L119.102 136.714L116.812 139.275V144.671H113.223V126.925Z" fill="white"/>
</svg>
