<svg width="44" height="39" viewBox="0 0 44 39" fill="none" xmlns="http://www.w3.org/2000/svg">
<path d="M23.3758 7.11846L26.9266 8.96959V3.73593L23.3758 4.86344C23.2748 4.72881 23.157 4.61101 23.0392 4.51004C22.9214 4.40907 24.4696 3.8147e-06 24.4696 3.8147e-06H19.3537L20.7842 4.49321C20.6495 4.61101 20.5317 4.72881 20.4476 4.84661C20.3635 4.96441 16.8968 3.73593 16.8968 3.73593V8.96959L20.4476 7.10163C20.5486 7.25309 20.6832 7.37088 20.8178 7.47186L18.7816 13.6311V13.6479C18.6806 13.9508 18.6301 14.2874 18.6301 14.624C18.6301 16.29 19.8586 17.6699 21.4573 17.9055H21.5246C21.6592 17.9224 21.7939 17.9392 21.9453 17.9392C22.08 17.9392 22.2314 17.9392 22.366 17.9055H22.4334C24.0321 17.6699 25.2605 16.29 25.2605 14.624C25.2605 14.2874 25.2101 13.9677 25.1091 13.6479C25.0081 13.3282 25.1091 13.6479 25.1091 13.6311L23.0728 7.47186C23.2075 7.37088 23.3421 7.25309 23.4431 7.10163M10.3842 14.5735C10.7341 14.7588 11.1179 14.8716 11.5125 14.9052C11.907 14.9388 12.3043 14.8924 12.6806 14.7689C13.0568 14.6455 13.4043 14.4473 13.7023 14.1865C14.0002 13.9256 14.2425 13.6073 14.4146 13.2507C14.5867 12.894 14.6851 12.5063 14.7039 12.1108C14.7227 11.7152 14.6615 11.3199 14.5241 10.9485C14.3866 10.5772 14.1757 10.2373 13.9039 9.94934C13.632 9.66136 13.3049 9.43116 12.9421 9.2725C11.4948 8.58254 9.72785 9.20519 9.02105 10.6693C8.31425 12.1333 8.93691 13.8835 10.3842 14.5735ZM3.08059 20.5813C4.59516 21.2039 6.31166 20.4971 6.93432 18.9994C7.55697 17.5016 6.85017 15.7683 5.33561 15.1456C3.8547 14.5398 2.12137 15.2634 1.49871 16.7612C0.876058 18.2589 1.59968 19.9754 3.08059 20.5813ZM33.4392 14.5735C33.0892 14.7588 32.7055 14.8716 32.3109 14.9052C31.9163 14.9388 31.519 14.8924 31.1428 14.7689C30.7665 14.6455 30.419 14.4473 30.1211 14.1865C29.8232 13.9256 29.5809 13.6073 29.4088 13.2507C29.2367 12.894 29.1383 12.5063 29.1195 12.1108C29.1007 11.7152 29.1618 11.3199 29.2993 10.9485C29.4367 10.5772 29.6477 10.2373 29.9195 9.94934C30.1913 9.66136 30.5184 9.43116 30.8813 9.2725C32.3285 8.58254 34.0955 9.20519 34.8023 10.6693C35.5091 12.1333 34.8864 13.8835 33.4392 14.5735ZM40.7091 20.5308C39.1945 21.1534 37.478 20.4466 36.8554 18.9489C36.2327 17.4512 36.9395 15.7178 38.4541 15.0952C39.935 14.4893 41.6683 15.213 42.291 16.7107C42.9136 18.2084 42.19 19.9249 40.7091 20.5308ZM21.8948 37.09C27.9363 37.09 33.658 37.4939 38.757 38.2343C40.2043 32.1593 41.9712 28.6758 43.7887 26.1851L40.3725 24.9735C40.7091 26.7068 40.7596 27.5146 40.3725 28.6421C39.8004 28.0868 39.2787 27.0771 38.858 25.5288L37.192 31.0486C38.2017 30.3586 38.9758 29.9042 39.8677 29.8874C38.2858 33.2868 36.3169 34.1618 35.0379 33.9263C33.4729 33.6402 32.7661 32.2434 33.0017 31.0654C33.3551 29.3994 35.0716 28.9618 35.8793 30.8971C37.4107 27.767 34.8191 26.791 33.1363 27.7165C35.711 25.1586 35.9971 22.8699 33.9272 20.1101C31.0327 22.3146 30.9991 24.5023 32.2949 27.5819C30.612 25.6466 27.9868 26.69 28.9292 29.8033C30.1408 27.9185 31.7563 29.0965 31.5039 30.8971C31.2851 32.4622 29.2321 33.7243 26.6741 33.4887C23.0055 33.1521 22.7868 30.611 22.6858 28.5243C23.5945 28.356 25.2101 29.1974 26.6068 31.1495L27.1117 25.2932C25.5971 26.8583 24.234 27.1612 22.7026 27.2117C23.2075 25.6298 25.5466 23.0382 25.5466 23.0382H18.2431C18.2431 23.0382 20.5654 25.6298 21.0871 27.2117C19.5557 27.1612 18.1926 26.8583 16.678 25.2932L17.1829 31.1495C18.5628 29.1974 20.1952 28.356 21.1039 28.5243C21.0198 30.6279 20.801 33.1521 17.1156 33.4887C14.5576 33.7075 12.4877 32.4453 12.2858 30.8971C12.0334 29.1133 13.6489 27.9185 14.8605 29.8033C15.8029 26.69 13.1777 25.6466 11.4948 27.5819C12.7906 24.5023 12.757 22.3146 9.86248 20.1101C7.79257 22.8699 8.07865 25.1418 10.6534 27.7165C8.98739 26.791 6.37898 27.767 7.91037 30.8971C8.71814 28.945 10.4346 29.3826 10.788 31.0654C11.0236 32.2434 10.3168 33.6402 8.75179 33.9263C7.47283 34.1618 5.50389 33.2868 3.92202 29.8874C4.81393 29.9042 5.58804 30.3586 6.59775 31.0486L4.93173 25.5288C4.51101 27.0771 3.9725 28.0868 3.41716 28.6421C3.03011 27.5314 3.09742 26.7237 3.41716 24.9735L0.000976562 26.1851C1.81845 28.6589 3.58545 32.1424 5.0327 38.2343C10.1317 37.5107 15.8366 37.09 21.878 37.09" fill="white"/>
</svg>
