<svg width="312" height="96" viewBox="0 0 312 96" fill="none" xmlns="http://www.w3.org/2000/svg">
<path d="M0.499005 93.72C0.401373 93.8176 0.401373 93.9759 0.499005 94.0735L2.08999 95.6645C2.18763 95.7621 2.34592 95.7621 2.44355 95.6645C2.54118 95.5669 2.54118 95.4086 2.44355 95.3109L1.02933 93.8967L2.44355 92.4825C2.54118 92.3849 2.54118 92.2266 2.44355 92.129C2.34592 92.0313 2.18763 92.0313 2.08999 92.129L0.499005 93.72ZM83.751 94.0735C83.8486 93.9759 83.8486 93.8176 83.751 93.72L82.16 92.129C82.0624 92.0313 81.9041 92.0313 81.8064 92.129C81.7088 92.2266 81.7088 92.3849 81.8064 92.4825L83.2207 93.8967L81.8064 95.3109C81.7088 95.4086 81.7088 95.5669 81.8064 95.6645C81.9041 95.7621 82.0624 95.7621 82.16 95.6645L83.751 94.0735ZM0.675781 93.8967L0.675781 94.1467L83.5742 94.1467L83.5742 93.8967L83.5742 93.6467L0.675781 93.6467L0.675781 93.8967Z" fill="white"/>
<path d="M26.9711 28.5584C29.6033 28.5584 31.7371 26.4245 31.7371 23.7924C31.7371 21.1602 29.6033 19.0264 26.9711 19.0264C24.3389 19.0264 22.2051 21.1602 22.2051 23.7924C22.2051 26.4245 24.3389 28.5584 26.9711 28.5584Z" fill="white"/>
<path d="M14.1498 36.238C16.782 36.238 18.9158 34.1042 18.9158 31.4721C18.9158 28.8399 16.782 26.7061 14.1498 26.7061C11.5176 26.7061 9.38379 28.8399 9.38379 31.4721C9.38379 34.1042 11.5176 36.238 14.1498 36.238Z" fill="white"/>
<path d="M5.66638 48.8672C8.29857 48.8672 10.4324 46.7334 10.4324 44.1012C10.4324 41.469 8.29857 39.3352 5.66638 39.3352C3.0342 39.3352 0.900391 41.469 0.900391 44.1012C0.900391 46.7334 3.0342 48.8672 5.66638 48.8672Z" fill="white"/>
<path d="M42.2162 45.53C44.8484 45.53 46.9822 43.3962 46.9822 40.764C46.9822 38.1319 44.8484 35.998 42.2162 35.998C39.584 35.998 37.4502 38.1319 37.4502 40.764C37.4502 43.3962 39.584 45.53 42.2162 45.53Z" fill="white"/>
<path d="M57.4457 28.5584C60.0779 28.5584 62.2117 26.4245 62.2117 23.7924C62.2117 21.1602 60.0779 19.0264 57.4457 19.0264C54.8135 19.0264 52.6797 21.1602 52.6797 23.7924C52.6797 26.4245 54.8135 28.5584 57.4457 28.5584Z" fill="white"/>
<path d="M70.2689 36.238C72.9011 36.238 75.0349 34.1042 75.0349 31.4721C75.0349 28.8399 72.9011 26.7061 70.2689 26.7061C67.6367 26.7061 65.5029 28.8399 65.5029 31.4721C65.5029 34.1042 67.6367 36.238 70.2689 36.238Z" fill="white"/>
<path d="M78.7513 48.8672C81.3835 48.8672 83.5173 46.7334 83.5173 44.1012C83.5173 41.469 81.3835 39.3352 78.7513 39.3352C76.1192 39.3352 73.9854 41.469 73.9854 44.1012C73.9854 46.7334 76.1192 48.8672 78.7513 48.8672Z" fill="white"/>
<path d="M42.2162 45.53C44.8484 45.53 46.9822 43.3962 46.9822 40.764C46.9822 38.1319 44.8484 35.998 42.2162 35.998C39.584 35.998 37.4502 38.1319 37.4502 40.764C37.4502 43.3962 39.584 45.53 42.2162 45.53Z" fill="white"/>
<path d="M44.1372 13.5854C44.3782 13.4041 44.5923 13.1901 44.7736 12.949L50.8364 16.1318V7.19572L44.7822 9.11736C44.6058 8.88113 44.3966 8.66997 44.1623 8.48967L46.5988 0.815674H37.8323L40.2689 8.48967C40.0346 8.66901 39.8263 8.88016 39.6489 9.11736L33.5947 7.19572V16.1318L39.6576 12.949C39.8388 13.1901 40.0529 13.4041 40.2939 13.5854L36.8402 23.9996C35.6243 27.6655 38.354 31.4461 42.2156 31.4461C46.0771 31.4461 48.8068 27.6655 47.5909 23.9996L44.1372 13.5854Z" fill="white"/>
<path d="M49.1447 50.2556C49.1447 50.2556 44.7181 55.1817 43.752 58.1871C46.6494 58.0955 49.2527 57.5314 52.1173 54.5405L51.1463 65.6682C48.5093 61.9686 45.4171 60.3738 43.7028 60.693C43.8763 64.6809 44.2938 69.498 51.2765 70.1324C56.1486 70.5557 60.0603 68.1626 60.4672 65.2015C60.9502 61.7999 57.8851 59.5494 55.5739 63.1305C53.767 57.2045 58.7586 55.2347 61.9646 58.9034C59.4962 53.0556 59.5618 48.9009 65.0519 44.7C68.9906 49.9365 68.4323 54.2647 63.5497 59.1377C66.7286 57.3791 71.6653 59.2293 68.7573 65.1697C67.2387 61.4749 63.9778 62.3003 63.2942 65.4792C62.8381 67.7248 64.2005 70.3667 67.1625 70.9086C69.5932 71.354 73.3362 69.6937 76.3368 63.2307C74.6494 63.2741 73.1685 64.1265 71.2536 65.4445L74.4007 54.9532C75.1933 57.8978 76.2076 59.831 77.2817 60.8762C78.0029 58.7569 77.8997 57.22 77.2547 53.9176L83.7601 56.2336C80.3044 60.9475 76.9568 67.5628 74.2117 79.1158C64.5332 77.7341 53.6986 76.9579 42.2179 76.9579C30.7383 76.9579 19.9027 77.7351 10.2242 79.1158C7.47911 67.5619 4.13144 60.9466 0.675781 56.2336L7.18118 53.9176C6.53517 57.22 6.43296 58.7569 7.15418 60.8762C8.22829 59.831 9.24262 57.8978 10.0352 54.9532L13.1823 65.4445C11.2674 64.1255 9.78642 63.2741 8.09909 63.2307C11.0996 69.6937 14.8426 71.3531 17.2734 70.9086C20.2354 70.3667 21.5968 67.7248 21.1417 65.4792C20.4581 62.3003 17.1982 61.4749 15.6786 65.1697C12.7706 59.2293 17.7072 57.3781 20.8862 59.1377C16.0035 54.2647 15.4443 49.9355 19.384 44.7C24.8741 48.9 24.9396 53.0547 22.4713 58.9034C25.6772 55.2357 30.6689 57.2045 28.862 63.1305C26.5508 59.5494 23.4856 61.7999 23.9687 65.2015C24.3756 68.1635 28.2873 70.5567 33.1594 70.1324C40.142 69.498 40.5595 64.6809 40.7331 60.693C39.0188 60.3738 35.9266 61.9676 33.2895 65.6682L32.3186 54.5405C35.1832 57.5314 37.7875 58.0945 40.6839 58.1871C39.7178 55.1817 35.2912 50.2556 35.2912 50.2556H49.1485H49.1447Z" fill="white"/>
</svg>
