<svg width="215" height="135" viewBox="0 0 215 135" fill="none" xmlns="http://www.w3.org/2000/svg">
<g clip-path="url(#clip0_127_10624)">
<rect width="215" height="135" fill="white"/>
<g filter="url(#filter0_d_127_10624)">
<path d="M50.3941 67.5613C50.3941 68.5178 50.5126 69.4393 50.7539 70.3234C50.993 71.2075 51.3572 71.9885 51.8464 72.6642C52.3356 73.3399 52.9587 73.884 53.7177 74.2942C54.4768 74.7045 55.3829 74.9107 56.4315 74.9107C57.4802 74.9107 58.2809 74.7505 58.9522 74.428C59.6236 74.1056 60.1589 73.7019 60.5603 73.2192C60.9596 72.7366 61.2404 72.2123 61.4028 71.6506C61.5629 71.089 61.6441 70.5691 61.6441 70.0908V69.8714H55.9182V66.4227H66.0449V78.6863H62.0829V76.0646C61.802 76.5012 61.4532 76.9005 61.0386 77.2581C60.6218 77.6179 60.1545 77.9228 59.6345 78.1795C59.1146 78.434 58.5442 78.6358 57.9255 78.7806C57.3069 78.9254 56.6487 79 55.9511 79C54.3189 79 52.8665 78.7038 51.5985 78.1115C50.3305 77.5192 49.2599 76.7031 48.3933 75.661C47.5245 74.6211 46.8642 73.4035 46.4123 72.0104C45.9603 70.6174 45.7344 69.1146 45.7344 67.5021C45.7344 65.8896 45.9867 64.4 46.4912 63.0003C46.9958 61.6007 47.7132 60.3853 48.6434 59.3498C49.5736 58.3143 50.6968 57.4982 52.0131 56.9015C53.3294 56.3026 54.8037 56.0042 56.4359 56.0042C57.4977 56.0042 58.5025 56.1271 59.4546 56.3706C60.4068 56.6141 61.2755 56.9629 62.0609 57.4148C62.8463 57.8668 63.5396 58.413 64.1429 59.0536C64.7462 59.6942 65.2354 60.4028 65.6084 61.1839L61.6463 63.415C61.4071 62.9367 61.1263 62.4914 60.8038 62.0811C60.4813 61.6709 60.1106 61.3177 59.6894 61.0193C59.2682 60.7231 58.7877 60.4884 58.2458 60.3173C57.704 60.1462 57.1006 60.0606 56.4359 60.0606C55.3851 60.0606 54.4812 60.2668 53.7221 60.6771C52.9631 61.0873 52.3378 61.6314 51.8508 62.3071C51.3616 62.9828 50.9974 63.766 50.7583 64.6545C50.5191 65.543 50.3985 66.4622 50.3985 67.4078V67.5635L50.3941 67.5613Z" fill="url(#paint0_linear_127_10624)"/>
<path d="M80.5122 56C82.1774 56 83.6692 56.2984 84.9899 56.8973C86.3106 57.4962 87.4316 58.3123 88.353 59.3456C89.2744 60.3811 89.9765 61.5987 90.4591 62.9961C90.9439 64.3958 91.1853 65.8964 91.1853 67.4979C91.1853 69.0994 90.9439 70.6131 90.4591 72.0062C89.9765 73.3993 89.2744 74.6169 88.353 75.6568C87.4316 76.6967 86.3106 77.5128 84.9899 78.1073C83.6692 78.6996 82.1752 78.9958 80.5122 78.9958C78.8493 78.9958 77.3422 78.6996 76.0259 78.1073C74.7096 77.515 73.5907 76.6988 72.6715 75.6568C71.7501 74.6169 71.048 73.3993 70.5654 72.0062C70.0806 70.6131 69.8392 69.1104 69.8392 67.4979C69.8392 65.8854 70.0806 64.3958 70.5654 62.9961C71.048 61.5965 71.7501 60.3811 72.6715 59.3456C73.5929 58.3101 74.7096 57.494 76.0259 56.8973C77.3422 56.2984 78.8362 56 80.5122 56ZM80.5122 74.9109C81.4907 74.9109 82.3507 74.7266 83.0944 74.358C83.8381 73.9895 84.4655 73.4761 84.9745 72.8201C85.4835 72.1642 85.8696 71.3898 86.1285 70.4947C86.3873 69.5996 86.519 68.6233 86.519 67.5615V67.4365C86.519 66.3856 86.3895 65.4116 86.1285 64.5099C85.8674 63.6104 85.4835 62.8338 84.9745 62.1778C84.4655 61.5219 83.8381 61.0107 83.0944 60.64C82.3507 60.2714 81.4907 60.0871 80.5122 60.0871C79.5338 60.0871 78.6716 60.2714 77.9213 60.64C77.1732 61.0085 76.5458 61.5219 76.0412 62.1778C75.5366 62.8338 75.1549 63.6104 74.8938 64.5099C74.6328 65.4094 74.5033 66.3856 74.5033 67.4365V67.5615C74.5033 68.6233 74.6328 69.5996 74.8938 70.4947C75.1527 71.3898 75.5366 72.1642 76.0412 72.8201C76.5458 73.4761 77.1732 73.9873 77.9213 74.358C78.6694 74.7266 79.5338 74.9109 80.5122 74.9109Z" fill="url(#paint1_linear_127_10624)"/>
<path d="M99.279 78.6864L92.9607 56.3136H98.0307L102.353 73.1338H102.508L106.736 56.3136H111.744L105.426 78.6864H99.279Z" fill="url(#paint2_linear_127_10624)"/>
<path d="M137.506 74.9108C138.162 74.9108 138.771 74.8143 139.34 74.6212C139.906 74.4282 140.395 74.1364 140.805 73.7481C141.215 73.3576 141.54 72.864 141.781 72.2651C142.02 71.6661 142.141 70.9619 142.141 70.1502V56.2808H146.588V70.8215C146.588 72.0698 146.362 73.1974 145.91 74.2066C145.458 75.2158 144.829 76.0736 144.023 76.78C143.218 77.4864 142.26 78.0327 141.147 78.4188C140.035 78.8027 138.82 78.9958 137.499 78.9958C136.178 78.9958 134.963 78.8027 133.851 78.4188C132.738 78.0349 131.777 77.4886 130.966 76.78C130.154 76.0736 129.524 75.2158 129.072 74.2066C128.621 73.1974 128.395 72.0698 128.395 70.8215V56.2808H132.872V70.1502C132.872 70.9619 132.991 71.6661 133.232 72.2651C133.471 72.864 133.796 73.3576 134.208 73.7481C134.618 74.1386 135.108 74.4304 135.674 74.6212C136.24 74.8143 136.852 74.9108 137.508 74.9108H137.506Z" fill="url(#paint3_linear_127_10624)"/>
<path d="M155.209 56.3115V66.0016L163.197 56.3115H168.767L160.997 65.2053L169.265 78.6864H164.007L158.094 68.654L155.207 71.8833V78.6864H150.683V56.3115H155.209Z" fill="url(#paint4_linear_127_10624)"/>
<path d="M120.376 71.0129C118.42 71.8209 116.202 70.8968 115.407 68.967C114.608 67.0415 115.523 64.798 117.479 63.9985C119.396 63.212 121.622 64.1533 122.417 66.0831C123.212 68.0043 122.292 70.2263 120.376 71.0129Z" fill="url(#paint5_linear_127_10624)"/>
</g>
<path d="M0 135L215 0.700684" stroke="#CA3535" stroke-width="3"/>
</g>
<rect x="0.5" y="0.5" width="214" height="134" stroke="#F3F3F3"/>
<defs>
<filter id="filter0_d_127_10624" x="41.7344" y="56" width="131.53" height="31" filterUnits="userSpaceOnUse" color-interpolation-filters="sRGB">
<feFlood flood-opacity="0" result="BackgroundImageFix"/>
<feColorMatrix in="SourceAlpha" type="matrix" values="0 0 0 0 0 0 0 0 0 0 0 0 0 0 0 0 0 0 127 0" result="hardAlpha"/>
<feOffset dy="4"/>
<feGaussianBlur stdDeviation="2"/>
<feComposite in2="hardAlpha" operator="out"/>
<feColorMatrix type="matrix" values="0 0 0 0 0 0 0 0 0 0 0 0 0 0 0 0 0 0 0.25 0"/>
<feBlend mode="normal" in2="BackgroundImageFix" result="effect1_dropShadow_127_10624"/>
<feBlend mode="normal" in="SourceGraphic" in2="effect1_dropShadow_127_10624" result="shape"/>
</filter>
<linearGradient id="paint0_linear_127_10624" x1="45.7344" y1="67.5" x2="169.265" y2="67.5" gradientUnits="userSpaceOnUse">
<stop offset="0.2" stop-color="#1D70B8"/>
<stop offset="0.8" stop-color="#CA357C"/>
</linearGradient>
<linearGradient id="paint1_linear_127_10624" x1="45.7344" y1="67.5" x2="169.265" y2="67.5" gradientUnits="userSpaceOnUse">
<stop offset="0.2" stop-color="#1D70B8"/>
<stop offset="0.8" stop-color="#CA357C"/>
</linearGradient>
<linearGradient id="paint2_linear_127_10624" x1="45.7344" y1="67.5" x2="169.265" y2="67.5" gradientUnits="userSpaceOnUse">
<stop offset="0.2" stop-color="#1D70B8"/>
<stop offset="0.8" stop-color="#CA357C"/>
</linearGradient>
<linearGradient id="paint3_linear_127_10624" x1="45.7344" y1="67.5" x2="169.265" y2="67.5" gradientUnits="userSpaceOnUse">
<stop offset="0.2" stop-color="#1D70B8"/>
<stop offset="0.8" stop-color="#CA357C"/>
</linearGradient>
<linearGradient id="paint4_linear_127_10624" x1="45.7344" y1="67.5" x2="169.265" y2="67.5" gradientUnits="userSpaceOnUse">
<stop offset="0.2" stop-color="#1D70B8"/>
<stop offset="0.8" stop-color="#CA357C"/>
</linearGradient>
<linearGradient id="paint5_linear_127_10624" x1="45.7344" y1="67.5" x2="169.265" y2="67.5" gradientUnits="userSpaceOnUse">
<stop offset="0.2" stop-color="#1D70B8"/>
<stop offset="0.8" stop-color="#CA357C"/>
</linearGradient>
<clipPath id="clip0_127_10624">
<rect width="215" height="135" fill="white"/>
</clipPath>
</defs>
</svg>
