<svg width="215" height="135" viewBox="0 0 215 135" fill="none" xmlns="http://www.w3.org/2000/svg">
<g clip-path="url(#clip0_127_10623)">
<rect width="215" height="135" fill="white"/>
<path d="M62.1488 67.5894C62.1488 68.9818 62.2429 70.3231 62.4345 71.6101C62.6244 72.8971 62.9137 74.034 63.3022 75.0176C63.6907 76.0012 64.1855 76.7932 64.7883 77.3904C65.3911 77.9876 66.1107 78.2878 66.9435 78.2878C67.7763 78.2878 68.4122 78.0547 68.9454 77.5852C69.4785 77.1158 69.9036 76.5281 70.2224 75.8256C70.5395 75.123 70.7625 74.3597 70.8915 73.5422C71.0186 72.7246 71.0831 71.9678 71.0831 71.2716V70.9522H66.5358V65.932H74.5781V83.7839H71.4316V79.9676C71.2085 80.6031 70.9315 81.1843 70.6022 81.7049C70.2712 82.2286 69.9001 82.6725 69.4872 83.0462C69.0743 83.4166 68.6213 83.7104 68.13 83.9212C67.6387 84.132 67.116 84.2405 66.5619 84.2405C65.2657 84.2405 64.1123 83.8094 63.1053 82.9472C62.0983 82.0849 61.2481 80.8969 60.5599 79.38C59.8699 77.8662 59.3455 76.0938 58.9866 74.0659C58.6277 72.038 58.4482 69.8504 58.4482 67.5032C58.4482 65.1559 58.6486 62.9875 59.0493 60.95C59.45 58.9126 60.0198 57.1433 60.7585 55.636C61.4972 54.1286 62.3892 52.9406 63.4346 52.072C64.4799 51.2002 65.6507 50.7658 66.947 50.7658C67.7902 50.7658 68.5882 50.9447 69.3443 51.2992C70.1005 51.6536 70.7904 52.1614 71.4141 52.8193C72.0379 53.4772 72.5884 54.2723 73.0675 55.2049C73.5467 56.1374 73.9352 57.1689 74.2314 58.3058L71.0848 61.5536C70.8949 60.8574 70.6719 60.2091 70.4158 59.612C70.1597 59.0148 69.8653 58.5006 69.5307 58.0663C69.1962 57.6351 68.8147 57.2934 68.3843 57.0443C67.954 56.7952 67.4749 56.6707 66.947 56.6707C66.1124 56.6707 65.3946 56.9709 64.7918 57.5681C64.189 58.1653 63.6924 58.9573 63.3057 59.9409C62.9171 60.9245 62.6279 62.0646 62.438 63.358C62.2481 64.6514 62.1523 65.9895 62.1523 67.3659V67.5926L62.1488 67.5894Z" fill="#0B0C0C"/>
<path d="M86.0669 50.7597C87.3893 50.7597 88.574 51.194 89.6229 52.0659C90.6717 52.9377 91.562 54.1257 92.2937 55.6299C93.0255 57.1372 93.583 58.9096 93.9663 60.9439C94.3513 62.9814 94.543 65.1658 94.543 67.4971C94.543 69.8283 94.3513 72.0319 93.9663 74.0598C93.583 76.0877 93.0255 77.8601 92.2937 79.3738C91.562 80.8876 90.6717 82.0756 89.6229 82.941C88.574 83.8033 87.3875 84.2344 86.0669 84.2344C84.7463 84.2344 83.5493 83.8033 82.504 82.941C81.4586 82.0788 80.5701 80.8908 79.8401 79.3738C79.1083 77.8601 78.5508 76.0877 78.1675 74.0598C77.7825 72.0319 77.5908 69.8443 77.5908 67.4971C77.5908 65.1498 77.7825 62.9814 78.1675 60.9439C78.5508 58.9064 79.1083 57.1372 79.8401 55.6299C80.5718 54.1225 81.4586 52.9345 82.504 52.0659C83.5493 51.194 84.7358 50.7597 86.0669 50.7597ZM86.0669 78.288C86.844 78.288 87.5269 78.0198 88.1175 77.4833C88.7082 76.9467 89.2065 76.1995 89.6107 75.2446C90.0149 74.2897 90.3215 73.1624 90.5271 71.8594C90.7327 70.5565 90.8372 69.1353 90.8372 67.5897V67.4076C90.8372 65.8779 90.7344 64.46 90.5271 63.1475C90.3198 61.8381 90.0149 60.7076 89.6107 59.7527C89.2065 58.7978 88.7082 58.0538 88.1175 57.514C87.5269 56.9775 86.844 56.7093 86.0669 56.7093C85.2899 56.7093 84.6052 56.9775 84.0093 57.514C83.4152 58.0506 82.9169 58.7978 82.5162 59.7527C82.1155 60.7076 81.8123 61.8381 81.605 63.1475C81.3977 64.4568 81.2949 65.8779 81.2949 67.4076V67.5897C81.2949 69.1353 81.3977 70.5565 81.605 71.8594C81.8106 73.1624 82.1155 74.2897 82.5162 75.2446C82.9169 76.1995 83.4152 76.9436 84.0093 77.4833C84.6034 78.0198 85.2899 78.288 86.0669 78.288Z" fill="#0B0C0C"/>
<path d="M100.972 83.784L95.9541 51.2162H99.9805L103.413 75.7011H103.536L106.894 51.2162H110.871L105.854 83.784H100.972Z" fill="#0B0C0C"/>
<path d="M131.33 78.288C131.851 78.288 132.336 78.1475 132.787 77.8665C133.236 77.5854 133.625 77.1607 133.951 76.5954C134.276 76.027 134.534 75.3084 134.726 74.4366C134.916 73.5647 135.012 72.5396 135.012 71.358V51.1684H138.543V72.3352C138.543 74.1524 138.364 75.7938 138.005 77.2629C137.646 78.7319 137.146 79.9806 136.507 81.0089C135.867 82.0372 135.106 82.8324 134.222 83.3945C133.339 83.9533 132.374 84.2344 131.325 84.2344C130.276 84.2344 129.311 83.9533 128.428 83.3945C127.544 82.8356 126.781 82.0404 126.137 81.0089C125.492 79.9806 124.992 78.7319 124.633 77.2629C124.274 75.7938 124.095 74.1524 124.095 72.3352V51.1684H127.651V71.358C127.651 72.5396 127.745 73.5647 127.936 74.4366C128.126 75.3084 128.384 76.027 128.712 76.5954C129.038 77.1639 129.426 77.5886 129.876 77.8665C130.325 78.1475 130.811 78.288 131.332 78.288H131.33Z" fill="#0B0C0C"/>
<path d="M141.796 51.2131H145.388V65.319L151.732 51.2131H156.155L149.984 64.1597L156.551 83.784H152.375L147.679 69.1799L145.386 73.8808V83.784H141.794V51.2131H141.796Z" fill="#0B0C0C"/>
<path d="M117.725 72.6138C116.172 73.79 114.411 72.4448 113.779 69.6357C113.144 66.8327 113.871 63.5668 115.424 62.4031C116.947 61.2582 118.715 62.6283 119.346 65.4375C119.978 68.2342 119.247 71.4688 117.725 72.6138Z" fill="#00FFE0"/>
<path d="M0 135L215 0.700684" stroke="#CA3535" stroke-width="3"/>
</g>
<rect x="0.5" y="0.5" width="214" height="134" stroke="#F3F3F3"/>
<defs>
<clipPath id="clip0_127_10623">
<rect width="215" height="135" fill="white"/>
</clipPath>
</defs>
</svg>
