<svg width="215" height="135" viewBox="0 0 215 135" fill="none" xmlns="http://www.w3.org/2000/svg">
<g clip-path="url(#clip0_127_10626)">
<rect width="215" height="135" fill="white"/>
<path d="M25.2333 85.6309C25.5201 86.2504 25.8732 86.8116 26.2947 87.3118C26.7147 87.8127 27.1848 88.2093 27.7043 88.5001C28.2237 88.791 28.7904 88.9565 29.4051 88.9945C30.0197 89.0326 30.6683 88.8944 31.3475 88.5799C32.0266 88.2654 32.4972 87.9215 32.8352 87.5113C33.1733 87.1011 33.3989 86.6792 33.5141 86.2462C33.628 85.8139 33.6526 85.3901 33.5893 84.9776C33.5246 84.5659 33.4212 84.2048 33.2778 83.8951L33.212 83.753L29.5037 85.4703L28.4694 83.2368L35.0278 80.1996L38.7058 88.1419L36.1398 89.3302L35.3535 87.6323C35.3026 87.9993 35.1965 88.3625 35.0352 88.7184C34.8731 89.0765 34.662 89.4141 34.4022 89.7363C34.1418 90.057 33.8329 90.3588 33.4757 90.6381C33.1184 90.9174 32.7146 91.1631 32.2628 91.3724C31.2057 91.8619 30.1763 92.1056 29.1774 92.1023C28.1786 92.099 27.2404 91.8916 26.3667 91.4766C25.4922 91.0637 24.6994 90.4732 23.9889 89.7065C23.2784 88.9398 22.6813 88.0344 22.1977 86.9901C21.7141 85.9458 21.4308 84.9054 21.3378 83.8476C21.2448 82.7898 21.3449 81.7875 21.6367 80.8379C21.9286 79.8883 22.4113 79.0229 23.0848 78.2417C23.7576 77.459 24.6229 76.8237 25.68 76.3341C26.3677 76.0157 27.0553 75.7939 27.7449 75.6661C28.4346 75.5382 29.1018 75.5036 29.746 75.5607C30.3902 75.6178 31.003 75.7637 31.5858 75.9976C32.1687 76.2316 32.6981 76.5438 33.1738 76.9377L31.277 79.5709C30.9787 79.3329 30.6633 79.1287 30.3314 78.9597C29.9995 78.7908 29.6534 78.6732 29.2912 78.6063C28.9295 78.5408 28.548 78.5329 28.1457 78.5846C27.7435 78.6363 27.3271 78.7618 26.8966 78.9612C26.216 79.2764 25.6925 79.681 25.3239 80.1743C24.9554 80.6677 24.7136 81.2076 24.6009 81.7912C24.4867 82.3756 24.4857 82.992 24.5973 83.6392C24.7089 84.2863 24.9065 84.9178 25.1901 85.5302L25.2368 85.631L25.2333 85.6309Z" fill="#0B0C0C"/>
<path d="M41.2714 69.1106C42.3497 68.6112 43.4054 68.357 44.4403 68.3488C45.4753 68.3406 46.446 68.5329 47.3527 68.9258C48.26 69.32 49.0798 69.898 49.8115 70.6583C50.5453 71.4194 51.1516 72.3188 51.6319 73.356C52.1122 74.3932 52.4099 75.4459 52.5137 76.4936C52.619 77.5405 52.5295 78.5396 52.2446 79.4894C51.9598 80.4392 51.4785 81.304 50.8015 82.0851C50.1238 82.8648 49.2451 83.5047 48.1681 84.0034C47.0911 84.5021 46.0262 84.7624 44.9961 84.7735C43.966 84.7847 42.9966 84.5917 42.0887 84.1925C41.1801 83.7954 40.3603 83.2174 39.6299 82.4599C38.8981 81.7031 38.2911 80.8023 37.8075 79.758C37.3239 78.7137 37.0335 77.6766 36.9277 76.6247C36.8205 75.5735 36.9106 74.5758 37.1968 73.6289C37.483 72.6819 37.9614 71.8185 38.6349 71.0372C39.3078 70.2546 40.1859 69.6133 41.2714 69.1106ZM46.943 81.3579C47.5767 81.0644 48.0783 80.6872 48.4494 80.2254C48.8206 79.7637 49.0729 79.243 49.2058 78.6656C49.3387 78.0881 49.3565 77.4708 49.2557 76.8134C49.1549 76.1561 48.9474 75.4844 48.6289 74.7967L48.5914 74.7157C48.2763 74.0352 47.9003 73.4432 47.4608 72.9375C47.022 72.4333 46.5404 72.0455 46.0141 71.7733C45.4877 71.5011 44.9281 71.3582 44.3352 71.3412C43.743 71.3255 43.1308 71.4641 42.4971 71.7575C41.8635 72.051 41.3604 72.4289 40.985 72.8926C40.611 73.3557 40.3586 73.8763 40.2286 74.4525C40.0985 75.0286 40.0842 75.6461 40.1849 76.3069C40.2856 76.9677 40.4946 77.6388 40.8097 78.3194L40.8472 78.4004C41.1657 79.088 41.5423 79.6815 41.9798 80.1829C42.4159 80.6849 42.8968 81.0713 43.4203 81.3448C43.9439 81.6183 44.5035 81.7611 45.0992 81.7769C45.6942 81.7912 46.3093 81.6513 46.943 81.3579Z" fill="#0B0C0C"/>
<path d="M60.2292 78.1746L49.4274 65.5803L52.7109 64.0597L60.5545 73.6568L60.6553 73.6101L58.3486 61.4489L61.5923 59.9468L64.2103 76.331L60.2292 78.1746Z" fill="#0B0C0C"/>
<path d="M83.8536 64.2648C84.2784 64.0681 84.6445 63.8226 84.9546 63.5272C85.2632 63.2324 85.4926 62.8967 85.6418 62.5222C85.7904 62.1463 85.8526 61.7292 85.8293 61.269C85.8045 60.8094 85.6714 60.3171 85.428 59.7914L81.2684 50.8091L84.1483 49.4754L88.5093 58.8925C88.8837 59.7009 89.0755 60.499 89.0855 61.2881C89.0955 62.0772 88.945 62.8216 88.6354 63.5205C88.3258 64.2195 87.8688 64.8608 87.2642 65.4444C86.659 66.0267 85.9298 66.5162 85.0745 66.9123C84.2192 67.3084 83.3742 67.5479 82.5387 67.6328C81.7032 67.7178 80.917 67.6522 80.1788 67.4367C79.4413 67.2227 78.7762 66.856 78.1809 66.3379C77.5855 65.8199 77.101 65.1574 76.7266 64.3489L72.3657 54.9319L75.2655 53.589L79.4251 62.5713C79.6686 63.097 79.9565 63.5175 80.2924 63.833C80.6269 64.1492 80.9852 64.3715 81.3695 64.5007C81.7523 64.6306 82.1566 64.6728 82.5804 64.6267C83.0049 64.5819 83.4302 64.4609 83.8551 64.2641L83.8536 64.2648Z" fill="#0B0C0C"/>
<path d="M89.7409 46.9097L92.6471 53.1854L94.914 44.5141L98.5214 42.8435L96.1563 50.9339L105.554 57.1849L102.149 58.762L95.3109 54.0379L94.4097 56.9952L96.45 61.4011L93.5203 62.7578L86.8098 48.2671L89.7409 46.9097Z" fill="#0B0C0C"/>
<path d="M71.5906 66.8779C70.5665 67.9877 68.853 68.0544 67.7593 67.043C66.6641 66.0358 66.5841 64.3082 67.6109 63.204C68.6164 62.1197 70.3406 62.0616 71.4343 63.0729C72.5254 64.0787 72.5962 65.7936 71.5906 66.8779Z" fill="#0B0C0C"/>
<path d="M189.767 85.6309C189.48 86.2504 189.127 86.8116 188.705 87.3118C188.285 87.8127 187.815 88.2093 187.296 88.5001C186.776 88.791 186.21 88.9565 185.595 88.9945C184.98 89.0326 184.332 88.8944 183.653 88.5799C182.973 88.2654 182.503 87.9215 182.165 87.5113C181.827 87.1011 181.601 86.6792 181.486 86.2462C181.372 85.8139 181.347 85.3901 181.411 84.9776C181.475 84.5659 181.579 84.2048 181.722 83.8951L181.788 83.753L185.496 85.4703L186.531 83.2368L179.972 80.1996L176.294 88.1419L178.86 89.3302L179.646 87.6323C179.697 87.9993 179.804 88.3625 179.965 88.7184C180.127 89.0765 180.338 89.4141 180.598 89.7363C180.858 90.057 181.167 90.3588 181.524 90.6381C181.882 90.9174 182.285 91.1631 182.737 91.3724C183.794 91.8619 184.824 92.1056 185.823 92.1023C186.821 92.099 187.76 91.8916 188.633 91.4766C189.508 91.0637 190.301 90.4732 191.011 89.7065C191.722 88.9398 192.319 88.0344 192.802 86.9901C193.286 85.9458 193.569 84.9054 193.662 83.8476C193.755 82.7898 193.655 81.7875 193.363 80.8379C193.071 79.8883 192.589 79.0229 191.915 78.2417C191.242 77.459 190.377 76.8237 189.32 76.3341C188.632 76.0157 187.945 75.7939 187.255 75.6661C186.565 75.5382 185.898 75.5036 185.254 75.5607C184.61 75.6178 183.997 75.7637 183.414 75.9976C182.831 76.2316 182.302 76.5438 181.826 76.9377L183.723 79.5709C184.021 79.3329 184.337 79.1287 184.669 78.9597C185.001 78.7908 185.347 78.6732 185.709 78.6063C186.07 78.5408 186.452 78.5329 186.854 78.5846C187.257 78.6363 187.673 78.7618 188.103 78.9612C188.784 79.2764 189.307 79.681 189.676 80.1743C190.045 80.6677 190.286 81.2076 190.399 81.7912C190.513 82.3756 190.514 82.992 190.403 83.6392C190.291 84.2863 190.094 84.9178 189.81 85.5302L189.763 85.631L189.767 85.6309Z" fill="#0B0C0C"/>
<path d="M173.729 69.1106C172.65 68.6112 171.595 68.357 170.56 68.3488C169.525 68.3406 168.554 68.5329 167.647 68.9258C166.74 69.32 165.92 69.898 165.189 70.6583C164.455 71.4194 163.848 72.3188 163.368 73.356C162.888 74.3932 162.59 75.4459 162.486 76.4936C162.381 77.5405 162.471 78.5396 162.755 79.4894C163.04 80.4392 163.522 81.304 164.199 82.0851C164.876 82.8648 165.755 83.5047 166.832 84.0034C167.909 84.5021 168.974 84.7624 170.004 84.7735C171.034 84.7847 172.003 84.5917 172.911 84.1925C173.82 83.7954 174.64 83.2174 175.37 82.4599C176.102 81.7031 176.709 80.8023 177.192 79.758C177.676 78.7137 177.967 77.6766 178.072 76.6247C178.18 75.5735 178.089 74.5758 177.803 73.6289C177.517 72.6819 177.039 71.8185 176.365 71.0372C175.692 70.2546 174.814 69.6133 173.729 69.1106ZM168.057 81.3579C167.423 81.0644 166.922 80.6872 166.551 80.2254C166.179 79.7637 165.927 79.243 165.794 78.6656C165.661 78.0881 165.643 77.4708 165.744 76.8134C165.845 76.1561 166.053 75.4844 166.371 74.7967L166.409 74.7157C166.724 74.0352 167.1 73.4432 167.539 72.9375C167.978 72.4333 168.46 72.0455 168.986 71.7733C169.512 71.5011 170.072 71.3582 170.665 71.3412C171.257 71.3255 171.869 71.4641 172.503 71.7575C173.137 72.051 173.64 72.4289 174.015 72.8926C174.389 73.3557 174.641 73.8763 174.771 74.4525C174.901 75.0286 174.916 75.6461 174.815 76.3069C174.714 76.9677 174.505 77.6388 174.19 78.3194L174.153 78.4004C173.834 79.088 173.458 79.6815 173.02 80.1829C172.584 80.6849 172.103 81.0713 171.58 81.3448C171.056 81.6183 170.496 81.7611 169.901 81.7769C169.306 81.7912 168.691 81.6513 168.057 81.3579Z" fill="#0B0C0C"/>
<path d="M154.771 78.1746L165.573 65.5803L162.289 64.0597L154.446 73.6568L154.345 73.6101L156.651 61.4489L153.408 59.9468L150.79 76.331L154.771 78.1746Z" fill="#0B0C0C"/>
<path d="M131.146 64.2648C130.722 64.0681 130.356 63.8226 130.045 63.5272C129.737 63.2324 129.507 62.8967 129.358 62.5222C129.21 62.1463 129.147 61.7292 129.171 61.269C129.195 60.8094 129.329 60.3171 129.572 59.7914L133.732 50.8091L130.852 49.4754L126.491 58.8925C126.116 59.7009 125.924 60.499 125.914 61.2881C125.905 62.0772 126.055 62.8216 126.365 63.5205C126.674 64.2195 127.131 64.8608 127.736 65.4444C128.341 66.0267 129.07 66.5162 129.926 66.9123C130.781 67.3084 131.626 67.5479 132.461 67.6328C133.297 67.7178 134.083 67.6522 134.821 67.4367C135.559 67.2227 136.224 66.856 136.819 66.3379C137.414 65.8199 137.899 65.1574 138.273 64.3489L142.634 54.9319L139.735 53.589L135.575 62.5713C135.331 63.097 135.043 63.5175 134.708 63.833C134.373 64.1492 134.015 64.3715 133.631 64.5007C133.248 64.6306 132.843 64.6728 132.42 64.6267C131.995 64.5819 131.57 64.4609 131.145 64.2641L131.146 64.2648Z" fill="#0B0C0C"/>
<path d="M125.259 46.9097L122.353 53.1854L120.086 44.5141L116.479 42.8435L118.844 50.9339L109.446 57.1849L112.851 58.762L119.689 54.0379L120.59 56.9952L118.55 61.4011L121.48 62.7578L128.19 48.2671L125.259 46.9097Z" fill="#0B0C0C"/>
<path d="M143.409 66.8779C144.434 67.9877 146.147 68.0544 147.241 67.043C148.336 66.0358 148.416 64.3082 147.389 63.204C146.384 62.1197 144.659 62.0616 143.566 63.0729C142.475 64.0787 142.404 65.7936 143.409 66.8779Z" fill="#0B0C0C"/>
<path d="M0 135L215 0.700684" stroke="#CA3535" stroke-width="3"/>
</g>
<rect x="0.5" y="0.5" width="214" height="134" stroke="#F3F3F3"/>
<defs>
<clipPath id="clip0_127_10626">
<rect width="215" height="135" fill="white"/>
</clipPath>
</defs>
</svg>
