<svg width="328" height="135" viewBox="0 0 328 135" fill="none" xmlns="http://www.w3.org/2000/svg">
<path d="M0 0H327.117V134.362H0V0Z" fill="#1D70B8"/>
<path d="M102.929 70.5452C102.929 71.5648 103.056 72.5458 103.311 73.4879C103.566 74.4299 103.954 75.2611 104.475 75.9814C104.996 76.7021 105.661 77.2811 106.47 77.7189C107.279 78.1566 108.243 78.3759 109.363 78.3759C110.482 78.3759 111.332 78.2041 112.047 77.8606C112.762 77.5171 113.333 77.0875 113.76 76.5718C114.186 76.0565 114.485 75.4998 114.657 74.9013C114.829 74.3028 114.915 73.7485 114.915 73.2385V73.0059H108.814V69.332H119.602V82.399H115.38V79.6058C115.081 80.0715 114.71 80.4954 114.267 80.8779C113.823 81.26 113.325 81.5873 112.77 81.8585C112.216 82.1302 111.609 82.3437 110.95 82.4989C110.291 82.654 109.59 82.7315 108.847 82.7315C107.107 82.7315 105.561 82.4156 104.209 81.7838C102.857 81.152 101.719 80.2822 100.793 79.1737C99.868 78.0656 99.1644 76.7687 98.6821 75.2834C98.2002 73.7985 97.959 72.197 97.959 70.4786C97.959 68.7602 98.2278 67.1734 98.7653 65.6828C99.3029 64.1922 100.067 62.8953 101.06 61.7925C102.052 60.6897 103.248 59.8199 104.65 59.1824C106.052 58.5449 107.623 58.2262 109.363 58.2262C110.493 58.2262 111.566 58.3565 112.579 58.6168C113.594 58.8775 114.519 59.2486 115.356 59.7306C116.192 60.2125 116.932 60.7948 117.575 61.4762C118.217 62.1575 118.739 62.9144 119.138 63.7456L114.915 66.1226C114.66 65.613 114.361 65.1391 114.017 64.701C113.674 64.2637 113.278 63.8865 112.829 63.5706C112.38 63.2547 111.868 63.0053 111.291 62.8226C110.715 62.6399 110.072 62.5481 109.363 62.5481C108.244 62.5481 107.28 62.7674 106.471 63.2051C105.661 63.6428 104.997 64.2219 104.476 64.9426C103.955 65.6629 103.567 66.4969 103.312 67.4447C103.057 68.3924 102.93 69.3709 102.93 70.3788V70.5452H102.929Z" fill="white"/>
<path d="M134.956 58.2261C136.729 58.2261 138.319 58.5448 139.727 59.1823C141.134 59.8198 142.329 60.6896 143.309 61.7924C144.29 62.8952 145.038 64.1921 145.553 65.6827C146.069 67.1733 146.326 68.7723 146.326 70.4785C146.326 72.1848 146.069 73.7984 145.553 75.2833C145.038 76.7686 144.29 78.0655 143.309 79.1736C142.329 80.2817 141.134 81.1519 139.727 81.7837C138.32 82.4155 136.729 82.7314 134.956 82.7314C133.183 82.7314 131.578 82.4155 130.177 81.7837C128.775 81.1519 127.583 80.2822 126.603 79.1736C125.622 78.0655 124.874 76.7686 124.359 75.2833C123.844 73.7984 123.586 72.1969 123.586 70.4785C123.586 68.7602 123.844 67.1733 124.359 65.6827C124.874 64.1921 125.622 62.8952 126.603 61.7924C127.583 60.6896 128.775 59.8198 130.177 59.1823C131.579 58.5448 133.171 58.2261 134.956 58.2261ZM134.956 78.3754C135.998 78.3754 136.915 78.1788 137.707 77.785C138.499 77.3919 139.167 76.8458 139.71 76.1478C140.253 75.4494 140.663 74.6239 140.94 73.6705C141.217 72.7175 141.356 71.6756 141.356 70.5451V70.412C141.356 69.2925 141.217 68.2534 140.94 67.2947C140.663 66.3361 140.253 65.5073 139.71 64.8093C139.167 64.1113 138.499 63.5656 137.707 63.1717C136.915 62.7787 135.998 62.5817 134.956 62.5817C133.914 62.5817 132.994 62.7787 132.196 63.1717C131.398 63.5656 130.731 64.1113 130.193 64.8093C129.656 65.5073 129.249 66.3365 128.972 67.2947C128.695 68.2534 128.556 69.2925 128.556 70.412V70.5451C128.556 71.6756 128.695 72.7175 128.972 73.6705C129.249 74.6239 129.656 75.449 130.193 76.1478C130.731 76.8458 131.398 77.3919 132.196 77.785C132.994 78.1788 133.914 78.3754 134.956 78.3754Z" fill="white"/>
<path d="M154.824 82.3984L148.092 58.5586H153.495L158.1 76.4799H158.266L162.771 58.5586H168.106L161.374 82.3984H154.825H154.824Z" fill="white"/>
<path d="M195.41 78.3754C196.108 78.3754 196.759 78.273 197.363 78.068C197.967 77.8629 198.488 77.5527 198.926 77.1369C199.363 76.7211 199.71 76.1953 199.965 75.5574C200.219 74.9203 200.347 74.1695 200.347 73.305V58.5253H205.085V74.0197C205.085 75.3499 204.844 76.5526 204.362 77.6274C203.881 78.7026 203.211 79.617 202.353 80.3707C201.494 81.1247 200.473 81.7062 199.288 82.1163C198.104 82.526 196.808 82.7314 195.402 82.7314C193.996 82.7314 192.7 82.526 191.516 82.1163C190.331 81.7062 189.307 81.1243 188.443 80.3707C187.579 79.617 186.906 78.703 186.424 77.6274C185.943 76.5526 185.702 75.3495 185.702 74.0197V58.5253H190.473V73.305C190.473 74.1695 190.601 74.9203 190.855 75.5574C191.11 76.1953 191.457 76.7211 191.894 77.1369C192.332 77.5527 192.853 77.8629 193.457 78.068C194.061 78.273 194.712 78.3754 195.41 78.3754Z" fill="white"/>
<path d="M209.36 58.5586H214.181V68.8823L222.692 58.5586H228.627L220.349 68.0345L229.159 82.3984H223.557L217.257 71.7084L214.181 75.1497V82.3984H209.36V58.5586Z" fill="white"/>
<path d="M175.674 74.5033C177.896 74.5033 179.698 72.7014 179.698 70.4786C179.698 68.2558 177.896 66.4539 175.674 66.4539C173.451 66.4539 171.649 68.2558 171.649 70.4786C171.649 72.7014 173.451 74.5033 175.674 74.5033Z" fill="#00FFE0"/>
</svg>
