<svg width="683" height="172" viewBox="0 0 683 172" fill="none" xmlns="http://www.w3.org/2000/svg">
<rect x="516.562" y="11.6774" width="154.217" height="148.106" stroke="#8EB8DC"/>
<path d="M504.885 36L682.458 36" stroke="#5694CA" stroke-dasharray="2 2"/>
<path d="M646.458 0L646.458 171.46" stroke="#5694CA" stroke-dasharray="2 2"/>
<path d="M540.885 0L540.885 171.46" stroke="#5694CA" stroke-dasharray="2 2"/>
<path d="M504.885 135.46L682.458 135.46" stroke="#5694CA" stroke-dasharray="2 2"/>
<rect x="11.6777" y="25.4073" width="443.537" height="122.646" stroke="#8EB8DC"/>
<path d="M0 49.73L466.893 49.73" stroke="#5694CA" stroke-dasharray="2 2"/>
<path d="M430.893 13.7305L430.893 159.73" stroke="#5694CA" stroke-dasharray="2 2"/>
<path d="M50.9587 86.986C50.9587 90.0545 51.3424 93.0068 52.1099 95.8419C52.8761 98.677 54.0431 101.178 55.6122 103.346C57.18 105.515 59.1805 107.258 61.6159 108.575C64.0514 109.893 66.9537 110.553 70.3228 110.553C73.6919 110.553 76.252 110.036 78.404 109.002C80.5548 107.968 82.2729 106.675 83.5573 105.123C84.8404 103.572 85.741 101.897 86.2591 100.096C86.7761 98.2945 87.0339 96.6265 87.0339 95.0916V94.3914H68.6719V83.3346H101.143V122.66H88.4356V114.254C87.5349 115.656 86.4168 116.932 85.0836 118.083C83.7491 119.233 82.2485 120.218 80.5792 121.034C78.9111 121.851 77.0842 122.494 75.1009 122.961C73.1163 123.428 71.0059 123.661 68.7721 123.661C63.5345 123.661 58.8823 122.71 54.813 120.809C50.7436 118.908 47.3159 116.29 44.5309 112.954C41.7459 109.619 39.6282 105.716 38.1764 101.246C36.7259 96.7768 36 91.9571 36 86.7856C36 81.614 36.809 76.8383 38.4269 72.3523C40.0449 67.8663 42.3459 63.9631 45.3325 60.6441C48.3179 57.3251 51.9192 54.7076 56.1389 52.789C60.3585 50.8704 65.0865 49.9112 70.324 49.9112C73.7261 49.9112 76.9535 50.3034 80.0049 51.0867C83.0575 51.8713 85.8424 52.9882 88.361 54.4387C90.8784 55.8893 93.1049 57.6416 95.0406 59.6922C96.9738 61.7427 98.5429 64.0206 99.7441 66.5221L87.0351 73.6757C86.2677 72.1421 85.3671 70.716 84.3332 69.3975C83.2982 68.0813 82.1067 66.9461 80.7564 65.9954C79.4048 65.0446 77.8627 64.2943 76.1286 63.7444C74.3934 63.1945 72.4589 62.9183 70.3253 62.9183C66.9562 62.9183 64.0539 63.5782 61.6184 64.8955C59.1829 66.2129 57.1825 67.9555 55.6146 70.1246C54.0468 72.2924 52.8797 74.8024 52.1123 77.6546C51.3449 80.5068 50.9612 83.4519 50.9612 86.4849V86.986H50.9587Z" fill="white"/>
<path d="M147.354 49.9111C152.691 49.9111 157.477 50.8704 161.714 52.7889C165.951 54.7075 169.545 57.3251 172.497 60.6441C175.448 63.9631 177.701 67.8662 179.251 72.3522C180.802 76.8382 181.577 81.6505 181.577 86.7855C181.577 91.9204 180.802 96.7767 179.251 101.246C177.701 105.716 175.448 109.619 172.497 112.954C169.546 116.289 165.951 118.907 161.714 120.809C157.479 122.71 152.691 123.661 147.354 123.661C142.018 123.661 137.188 122.71 132.97 120.809C128.75 118.907 125.165 116.29 122.214 112.954C119.261 109.619 117.01 105.716 115.46 101.246C113.909 96.7767 113.133 91.957 113.133 86.7855C113.133 81.6139 113.909 76.8382 115.46 72.3522C117.01 67.8662 119.261 63.9631 122.214 60.6441C125.165 57.3251 128.75 54.7075 132.97 52.7889C137.189 50.8704 141.983 49.9111 147.354 49.9111ZM147.354 110.551C150.49 110.551 153.25 109.96 155.635 108.774C158.019 107.592 160.03 105.948 161.663 103.847C163.298 101.745 164.532 99.261 165.366 96.3917C166.199 93.5237 166.617 90.388 166.617 86.9859V86.585C166.617 83.2159 166.199 80.0888 165.366 77.2036C164.532 74.3184 163.298 71.8243 161.663 69.7236C160.029 67.623 158.019 65.9806 155.635 64.7952C153.25 63.6123 150.49 63.0197 147.354 63.0197C144.218 63.0197 141.451 63.6123 139.048 64.7952C136.647 65.9806 134.638 67.623 133.02 69.7236C131.402 71.8243 130.176 74.3197 129.343 77.2036C128.509 80.0888 128.092 83.2159 128.092 86.585V86.9859C128.092 90.388 128.509 93.5237 129.343 96.3917C130.176 99.261 131.402 101.744 133.02 103.847C134.638 105.948 136.647 107.592 139.048 108.774C141.451 109.96 144.218 110.551 147.354 110.551Z" fill="white"/>
<path d="M207.157 122.659L186.894 50.912H203.155L217.015 104.847H217.515L231.074 50.912H247.134L226.871 122.659H207.158H207.157Z" fill="white"/>
<path d="M329.313 110.551C331.414 110.551 333.374 110.243 335.191 109.626C337.01 109.009 338.578 108.075 339.895 106.824C341.211 105.573 342.255 103.99 343.022 102.071C343.788 100.153 344.172 97.8936 344.172 95.292V50.8117H358.432V97.4427C358.432 101.446 357.707 105.066 356.258 108.3C354.808 111.536 352.792 114.288 350.209 116.556C347.625 118.826 344.551 120.576 340.986 121.81C337.42 123.043 333.521 123.661 329.289 123.661C325.057 123.661 321.156 123.043 317.592 121.81C314.025 120.576 310.943 118.824 308.342 116.556C305.742 114.288 303.718 111.537 302.268 108.3C300.818 105.066 300.094 101.445 300.094 97.4427V50.8117H314.454V95.292C314.454 97.8936 314.837 100.153 315.604 102.071C316.371 103.99 317.413 105.573 318.731 106.824C320.048 108.075 321.616 109.009 323.434 109.626C325.253 110.243 327.213 110.551 329.313 110.551Z" fill="white"/>
<path d="M371.302 50.912H385.812V81.9818L411.429 50.912H429.291L404.374 79.4302L430.892 122.659H414.032L395.069 90.487L385.812 100.844V122.659H371.302V50.912Z" fill="white"/>
<path d="M269.908 98.8982C276.597 98.8982 282.02 93.4752 282.02 86.7856C282.02 80.0959 276.597 74.6729 269.908 74.6729C263.218 74.6729 257.795 80.0959 257.795 86.7856C257.795 93.4752 263.218 98.8982 269.908 98.8982Z" fill="#00FFE0"/>
<path d="M36 13.7304L36 159.73" stroke="#5694CA" stroke-dasharray="2 2"/>
<path d="M0 123.73L466.893 123.73" stroke="#5694CA" stroke-dasharray="2 2"/>
<rect x="516.562" y="11.6774" width="154.217" height="148.106" stroke="#8EB8DC"/>
<path d="M504.886 36L682.458 36" stroke="#5694CA" stroke-dasharray="2 2"/>
<path d="M646.459 0L646.459 171.46" stroke="#5694CA" stroke-dasharray="2 2"/>
<path d="M540.885 0L540.885 171.46" stroke="#5694CA" stroke-dasharray="2 2"/>
<path d="M504.885 135.46L682.458 135.46" stroke="#5694CA" stroke-dasharray="2 2"/>
<rect x="11.6777" y="25.4073" width="443.537" height="122.646" stroke="#8EB8DC"/>
<path d="M0 49.73L466.893 49.73" stroke="#5694CA" stroke-dasharray="2 2"/>
<path d="M430.893 13.7305L430.893 159.73" stroke="#5694CA" stroke-dasharray="2 2"/>
<path d="M50.9587 86.986C50.9587 90.0545 51.3424 93.0068 52.1099 95.8419C52.8761 98.677 54.0431 101.178 55.6122 103.346C57.18 105.515 59.1805 107.258 61.6159 108.575C64.0514 109.893 66.9537 110.553 70.3228 110.553C73.6919 110.553 76.252 110.036 78.404 109.002C80.5548 107.968 82.2729 106.675 83.5573 105.123C84.8404 103.572 85.741 101.897 86.2591 100.096C86.7761 98.2945 87.0339 96.6265 87.0339 95.0916V94.3914H68.6719V83.3346H101.143V122.66H88.4356V114.254C87.5349 115.656 86.4168 116.932 85.0836 118.083C83.7491 119.233 82.2485 120.218 80.5792 121.034C78.9111 121.851 77.0842 122.494 75.1009 122.961C73.1163 123.428 71.0059 123.661 68.7721 123.661C63.5345 123.661 58.8823 122.71 54.813 120.809C50.7436 118.908 47.3159 116.29 44.5309 112.954C41.7459 109.619 39.6282 105.716 38.1764 101.246C36.7259 96.7768 36 91.9571 36 86.7856C36 81.614 36.809 76.8383 38.4269 72.3523C40.0449 67.8663 42.3459 63.9631 45.3325 60.6441C48.3179 57.3251 51.9192 54.7076 56.1389 52.789C60.3585 50.8704 65.0865 49.9112 70.324 49.9112C73.7261 49.9112 76.9535 50.3034 80.0049 51.0867C83.0575 51.8713 85.8424 52.9882 88.361 54.4387C90.8784 55.8893 93.1049 57.6416 95.0406 59.6922C96.9738 61.7427 98.5429 64.0206 99.7441 66.5221L87.0351 73.6757C86.2677 72.1421 85.3671 70.716 84.3332 69.3975C83.2982 68.0813 82.1067 66.9461 80.7564 65.9954C79.4048 65.0446 77.8627 64.2943 76.1286 63.7444C74.3934 63.1945 72.4589 62.9183 70.3253 62.9183C66.9562 62.9183 64.0539 63.5782 61.6184 64.8955C59.1829 66.2129 57.1825 67.9555 55.6146 70.1246C54.0468 72.2924 52.8797 74.8024 52.1123 77.6546C51.3449 80.5068 50.9612 83.4519 50.9612 86.4849V86.986H50.9587Z" fill="white"/>
<path d="M147.354 49.9111C152.691 49.9111 157.477 50.8704 161.714 52.7889C165.951 54.7075 169.545 57.3251 172.497 60.6441C175.448 63.9631 177.701 67.8662 179.251 72.3522C180.802 76.8382 181.577 81.6505 181.577 86.7855C181.577 91.9204 180.802 96.7767 179.251 101.246C177.701 105.716 175.448 109.619 172.497 112.954C169.546 116.289 165.951 118.907 161.714 120.809C157.479 122.71 152.691 123.661 147.354 123.661C142.018 123.661 137.188 122.71 132.97 120.809C128.75 118.907 125.165 116.29 122.214 112.954C119.261 109.619 117.01 105.716 115.46 101.246C113.909 96.7767 113.133 91.957 113.133 86.7855C113.133 81.6139 113.909 76.8382 115.46 72.3522C117.01 67.8662 119.261 63.9631 122.214 60.6441C125.165 57.3251 128.75 54.7075 132.97 52.7889C137.189 50.8704 141.983 49.9111 147.354 49.9111ZM147.354 110.551C150.49 110.551 153.25 109.96 155.635 108.774C158.019 107.592 160.03 105.948 161.663 103.847C163.298 101.745 164.532 99.261 165.366 96.3917C166.199 93.5237 166.617 90.388 166.617 86.9859V86.585C166.617 83.2159 166.199 80.0888 165.366 77.2036C164.532 74.3184 163.298 71.8243 161.663 69.7236C160.029 67.623 158.019 65.9806 155.635 64.7952C153.25 63.6123 150.49 63.0197 147.354 63.0197C144.218 63.0197 141.451 63.6123 139.048 64.7952C136.647 65.9806 134.638 67.623 133.02 69.7236C131.402 71.8243 130.176 74.3197 129.343 77.2036C128.509 80.0888 128.092 83.2159 128.092 86.585V86.9859C128.092 90.388 128.509 93.5237 129.343 96.3917C130.176 99.261 131.402 101.744 133.02 103.847C134.638 105.948 136.647 107.592 139.048 108.774C141.451 109.96 144.218 110.551 147.354 110.551Z" fill="white"/>
<path d="M207.157 122.659L186.894 50.912H203.155L217.015 104.847H217.515L231.074 50.912H247.134L226.871 122.659H207.158H207.157Z" fill="white"/>
<path d="M329.313 110.551C331.414 110.551 333.374 110.243 335.191 109.626C337.01 109.009 338.578 108.075 339.895 106.824C341.211 105.573 342.255 103.99 343.022 102.071C343.788 100.153 344.172 97.8936 344.172 95.292V50.8117H358.432V97.4427C358.432 101.446 357.707 105.066 356.258 108.3C354.808 111.536 352.792 114.288 350.209 116.556C347.625 118.826 344.551 120.576 340.986 121.81C337.42 123.043 333.521 123.661 329.289 123.661C325.057 123.661 321.156 123.043 317.592 121.81C314.025 120.576 310.943 118.824 308.342 116.556C305.742 114.288 303.718 111.537 302.268 108.3C300.818 105.066 300.094 101.445 300.094 97.4427V50.8117H314.454V95.292C314.454 97.8936 314.837 100.153 315.604 102.071C316.371 103.99 317.413 105.573 318.731 106.824C320.048 108.075 321.616 109.009 323.434 109.626C325.253 110.243 327.213 110.551 329.313 110.551Z" fill="white"/>
<path d="M371.302 50.912H385.812V81.9818L411.429 50.912H429.291L404.374 79.4302L430.892 122.659H414.032L395.069 90.487L385.812 100.844V122.659H371.302V50.912Z" fill="white"/>
<path d="M269.908 98.8982C276.597 98.8982 282.02 93.4752 282.02 86.7856C282.02 80.0959 276.597 74.6729 269.908 74.6729C263.218 74.6729 257.795 80.0959 257.795 86.7856C257.795 93.4752 263.218 98.8982 269.908 98.8982Z" fill="#00FFE0"/>
<path d="M36 13.7304L36 159.73" stroke="#5694CA" stroke-dasharray="2 2"/>
<path d="M0 123.73L466.893 123.73" stroke="#5694CA" stroke-dasharray="2 2"/>
<path d="M28.5358 48.7914C22.2649 51.3825 15.1532 48.4193 12.6035 42.231C10.04 36.0566 12.9756 28.8622 19.2466 26.2987C25.3935 23.7765 32.5327 26.7948 35.0825 32.9831C37.6322 39.1438 34.6828 46.2693 28.5358 48.7914Z" fill="#00FFE0"/>
<path d="M28.5358 48.7914C22.2649 51.3825 15.1532 48.4193 12.6035 42.231C10.04 36.0566 12.9756 28.8622 19.2466 26.2987C25.3935 23.7765 32.5327 26.7948 35.0825 32.9831C37.6322 39.1438 34.6828 46.2693 28.5358 48.7914Z" fill="#00FFE0"/>
<path d="M447.751 48.7914C441.48 51.3825 434.368 48.4193 431.818 42.231C429.255 36.0566 432.19 28.8622 438.461 26.2987C444.608 23.7765 451.748 26.7948 454.297 32.9831C456.847 39.1438 453.898 46.2693 447.751 48.7914Z" fill="#00FFE0"/>
<path d="M447.751 48.7914C441.48 51.3825 434.368 48.4193 431.818 42.231C429.255 36.0566 432.19 28.8622 438.461 26.2987C444.608 23.7765 451.748 26.7948 454.297 32.9831C456.847 39.1438 453.898 46.2693 447.751 48.7914Z" fill="#00FFE0"/>
<path d="M447.751 48.7914C441.48 51.3825 434.368 48.4193 431.818 42.231C429.255 36.0566 432.19 28.8622 438.461 26.2987C444.608 23.7765 451.748 26.7948 454.297 32.9831C456.847 39.1438 453.898 46.2693 447.751 48.7914Z" fill="#00FFE0"/>
<path d="M533.421 36.0614C527.15 38.6525 520.038 35.6893 517.488 29.5011C514.925 23.3266 517.86 16.1322 524.131 13.5687C530.278 11.0465 537.417 14.0649 539.967 20.2531C542.517 26.4138 539.568 33.5393 533.421 36.0614Z" fill="#00FFE0"/>
<path d="M533.421 36.0614C527.15 38.6525 520.038 35.6893 517.488 29.5011C514.925 23.3266 517.86 16.1322 524.131 13.5687C530.278 11.0465 537.417 14.0649 539.967 20.2531C542.517 26.4138 539.568 33.5393 533.421 36.0614Z" fill="#00FFE0"/>
<path d="M533.421 36.0614C527.15 38.6525 520.038 35.6893 517.488 29.5011C514.925 23.3266 517.86 16.1322 524.131 13.5687C530.278 11.0465 537.417 14.0649 539.967 20.2531C542.517 26.4138 539.568 33.5393 533.421 36.0614Z" fill="#00FFE0"/>
<path d="M533.421 159.844C527.15 162.435 520.038 159.472 517.488 153.284C514.925 147.109 517.86 139.915 524.131 137.352C530.278 134.829 537.417 137.848 539.967 144.036C542.517 150.197 539.568 157.322 533.421 159.844Z" fill="#00FFE0"/>
<path d="M533.421 159.844C527.15 162.435 520.038 159.472 517.488 153.284C514.925 147.109 517.86 139.915 524.131 137.352C530.278 134.829 537.417 137.848 539.967 144.036C542.517 150.197 539.568 157.322 533.421 159.844Z" fill="#00FFE0"/>
<path d="M533.421 159.844C527.15 162.435 520.038 159.472 517.488 153.284C514.925 147.109 517.86 139.915 524.131 137.352C530.278 134.829 537.417 137.848 539.967 144.036C542.517 150.197 539.568 157.322 533.421 159.844Z" fill="#00FFE0"/>
<path d="M663.047 36.0614C656.776 38.6525 649.664 35.6893 647.114 29.5011C644.551 23.3266 647.486 16.1322 653.757 13.5687C659.904 11.0465 667.043 14.0649 669.593 20.2531C672.143 26.4138 669.194 33.5393 663.047 36.0614Z" fill="#00FFE0"/>
<path d="M663.047 36.0614C656.776 38.6525 649.664 35.6893 647.114 29.5011C644.551 23.3266 647.486 16.1322 653.757 13.5687C659.904 11.0465 667.043 14.0649 669.593 20.2531C672.143 26.4138 669.194 33.5393 663.047 36.0614Z" fill="#00FFE0"/>
<path d="M663.047 36.0614C656.776 38.6525 649.664 35.6893 647.114 29.5011C644.551 23.3266 647.486 16.1322 653.757 13.5687C659.904 11.0465 667.043 14.0649 669.593 20.2531C672.143 26.4138 669.194 33.5393 663.047 36.0614Z" fill="#00FFE0"/>
<path d="M663.047 159.844C656.776 162.435 649.664 159.472 647.114 153.284C644.551 147.109 647.486 139.915 653.757 137.352C659.904 134.829 667.043 137.848 669.593 144.036C672.143 150.197 669.194 157.322 663.047 159.844Z" fill="#00FFE0"/>
<path d="M663.047 159.844C656.776 162.435 649.664 159.472 647.114 153.284C644.551 147.109 647.486 139.915 653.757 137.352C659.904 134.829 667.043 137.848 669.593 144.036C672.143 150.197 669.194 157.322 663.047 159.844Z" fill="#00FFE0"/>
<path d="M663.047 159.844C656.776 162.435 649.664 159.472 647.114 153.284C644.551 147.109 647.486 139.915 653.757 137.352C659.904 134.829 667.043 137.848 669.593 144.036C672.143 150.197 669.194 157.322 663.047 159.844Z" fill="#00FFE0"/>
<path d="M28.5358 147.031C22.2649 149.622 15.1532 146.658 12.6035 140.47C10.04 134.296 12.9756 127.101 19.2466 124.538C25.3935 122.016 32.5327 125.034 35.0825 131.222C37.6322 137.383 34.6828 144.508 28.5358 147.031Z" fill="#00FFE0"/>
<path d="M28.5358 147.031C22.2649 149.622 15.1532 146.658 12.6035 140.47C10.04 134.296 12.9756 127.101 19.2466 124.538C25.3935 122.016 32.5327 125.034 35.0825 131.222C37.6322 137.383 34.6828 144.508 28.5358 147.031Z" fill="#00FFE0"/>
<path d="M28.5358 147.031C22.2649 149.622 15.1532 146.658 12.6035 140.47C10.04 134.296 12.9756 127.101 19.2466 124.538C25.3935 122.016 32.5327 125.034 35.0825 131.222C37.6322 137.383 34.6828 144.508 28.5358 147.031Z" fill="#00FFE0"/>
<path d="M447.751 147.031C441.48 149.622 434.368 146.658 431.818 140.47C429.255 134.296 432.19 127.101 438.461 124.538C444.608 122.016 451.748 125.034 454.297 131.222C456.847 137.383 453.898 144.508 447.751 147.031Z" fill="#00FFE0"/>
<path d="M447.751 147.031C441.48 149.622 434.368 146.658 431.818 140.47C429.255 134.296 432.19 127.101 438.461 124.538C444.608 122.016 451.748 125.034 454.297 131.222C456.847 137.383 453.898 144.508 447.751 147.031Z" fill="#00FFE0"/>
<path d="M447.751 147.031C441.48 149.622 434.368 146.658 431.818 140.47C429.255 134.296 432.19 127.101 438.461 124.538C444.608 122.016 451.748 125.034 454.297 131.222C456.847 137.383 453.898 144.508 447.751 147.031Z" fill="#00FFE0"/>
<path d="M574.305 71.2402C577.648 71.2402 580.359 68.5297 580.359 65.1862C580.359 61.8427 577.648 59.1323 574.305 59.1323C570.961 59.1323 568.251 61.8427 568.251 65.1862C568.251 68.5297 570.961 71.2402 574.305 71.2402Z" fill="white"/>
<path d="M558.018 80.9953C561.361 80.9953 564.072 78.2849 564.072 74.9414C564.072 71.5978 561.361 68.8874 558.018 68.8874C554.674 68.8874 551.964 71.5978 551.964 74.9414C551.964 78.2849 554.674 80.9953 558.018 80.9953Z" fill="white"/>
<path d="M547.242 97.0373C550.586 97.0373 553.296 94.3268 553.296 90.9833C553.296 87.6398 550.586 84.9294 547.242 84.9294C543.899 84.9294 541.188 87.6398 541.188 90.9833C541.188 94.3268 543.899 97.0373 547.242 97.0373Z" fill="white"/>
<path d="M593.669 92.7984C597.013 92.7984 599.723 90.0879 599.723 86.7444C599.723 83.4009 597.013 80.6904 593.669 80.6904C590.326 80.6904 587.615 83.4009 587.615 86.7444C587.615 90.0879 590.326 92.7984 593.669 92.7984Z" fill="white"/>
<path d="M613.015 71.2402C616.358 71.2402 619.069 68.5297 619.069 65.1862C619.069 61.8427 616.358 59.1322 613.015 59.1322C609.671 59.1322 606.961 61.8427 606.961 65.1862C606.961 68.5297 609.671 71.2402 613.015 71.2402Z" fill="white"/>
<path d="M629.303 80.9953C632.647 80.9953 635.357 78.2849 635.357 74.9414C635.357 71.5978 632.647 68.8874 629.303 68.8874C625.959 68.8874 623.249 71.5978 623.249 74.9414C623.249 78.2849 625.959 80.9953 629.303 80.9953Z" fill="white"/>
<path d="M640.078 97.0373C643.422 97.0373 646.132 94.3268 646.132 90.9833C646.132 87.6398 643.422 84.9294 640.078 84.9294C636.735 84.9294 634.024 87.6398 634.024 90.9833C634.024 94.3268 636.735 97.0373 640.078 97.0373Z" fill="white"/>
<path d="M593.669 92.7984C597.013 92.7984 599.723 90.0879 599.723 86.7444C599.723 83.4009 597.013 80.6904 593.669 80.6904C590.326 80.6904 587.615 83.4009 587.615 86.7444C587.615 90.0879 590.326 92.7984 593.669 92.7984Z" fill="white"/>
<path d="M596.11 52.2209C596.416 51.9907 596.688 51.7188 596.919 51.4126L604.62 55.4555V44.1045L596.93 46.5454C596.705 46.2453 596.44 45.9771 596.142 45.7481L599.237 36.0002H588.102L591.197 45.7481C590.899 45.9759 590.634 46.2441 590.409 46.5454L582.719 44.1045V55.4555L590.42 51.4126C590.65 51.7188 590.922 51.9907 591.228 52.2209L586.841 65.4495C585.297 70.106 588.764 74.9083 593.669 74.9083C598.574 74.9083 602.042 70.106 600.497 65.4495L596.11 52.2209Z" fill="white"/>
<path d="M602.471 98.8008C602.471 98.8008 596.848 105.058 595.621 108.876C599.301 108.759 602.608 108.043 606.247 104.244L605.013 118.379C601.663 113.679 597.736 111.653 595.558 112.059C595.779 117.124 596.309 123.243 605.179 124.049C611.367 124.587 616.336 121.547 616.853 117.786C617.466 113.465 613.573 110.606 610.637 115.155C608.342 107.628 614.683 105.125 618.755 109.786C615.62 102.358 615.703 97.0801 622.677 91.7438C627.68 98.3955 626.971 103.893 620.768 110.083C624.806 107.849 631.077 110.2 627.383 117.745C625.454 113.052 621.312 114.101 620.444 118.139C619.865 120.991 621.595 124.347 625.358 125.035C628.445 125.601 633.2 123.492 637.011 115.282C634.868 115.338 632.987 116.42 630.554 118.094L634.552 104.768C635.559 108.508 636.847 110.964 638.211 112.292C639.128 109.6 638.996 107.647 638.177 103.452L646.441 106.394C642.051 112.382 637.799 120.785 634.312 135.46C622.018 133.705 608.255 132.719 593.672 132.719C579.09 132.719 565.326 133.706 553.032 135.46C549.545 120.784 545.293 112.381 540.903 106.394L549.167 103.452C548.346 107.647 548.216 109.6 549.132 112.292C550.497 110.964 551.785 108.508 552.792 104.768L556.79 118.094C554.357 116.419 552.476 115.338 550.333 115.282C554.144 123.492 558.899 125.6 561.986 125.035C565.749 124.347 567.478 120.991 566.9 118.139C566.032 114.101 561.891 113.052 559.961 117.745C556.267 110.2 562.537 107.848 566.575 110.083C560.373 103.893 559.663 98.3942 564.667 91.7438C571.641 97.0788 571.724 102.356 568.589 109.786C572.661 105.127 579.002 107.628 576.707 115.155C573.771 110.606 569.877 113.465 570.491 117.786C571.008 121.548 575.977 124.588 582.165 124.049C591.035 123.243 591.565 117.124 591.786 112.059C589.608 111.653 585.68 113.678 582.331 118.379L581.097 104.244C584.736 108.043 588.044 108.758 591.723 108.876C590.496 105.058 584.873 98.8008 584.873 98.8008H602.475H602.471Z" fill="white"/>
<path d="M574.305 71.2402C577.648 71.2402 580.359 68.5297 580.359 65.1862C580.359 61.8427 577.648 59.1323 574.305 59.1323C570.961 59.1323 568.251 61.8427 568.251 65.1862C568.251 68.5297 570.961 71.2402 574.305 71.2402Z" fill="white"/>
<path d="M558.018 80.9953C561.361 80.9953 564.072 78.2849 564.072 74.9414C564.072 71.5978 561.361 68.8874 558.018 68.8874C554.674 68.8874 551.964 71.5978 551.964 74.9414C551.964 78.2849 554.674 80.9953 558.018 80.9953Z" fill="white"/>
<path d="M547.242 97.0373C550.586 97.0373 553.296 94.3268 553.296 90.9833C553.296 87.6398 550.586 84.9294 547.242 84.9294C543.899 84.9294 541.188 87.6398 541.188 90.9833C541.188 94.3268 543.899 97.0373 547.242 97.0373Z" fill="white"/>
<path d="M593.669 92.7984C597.013 92.7984 599.723 90.0879 599.723 86.7444C599.723 83.4009 597.013 80.6904 593.669 80.6904C590.326 80.6904 587.615 83.4009 587.615 86.7444C587.615 90.0879 590.326 92.7984 593.669 92.7984Z" fill="white"/>
<path d="M613.015 71.2402C616.358 71.2402 619.069 68.5297 619.069 65.1862C619.069 61.8427 616.358 59.1322 613.015 59.1322C609.671 59.1322 606.961 61.8427 606.961 65.1862C606.961 68.5297 609.671 71.2402 613.015 71.2402Z" fill="white"/>
<path d="M629.303 80.9953C632.647 80.9953 635.357 78.2849 635.357 74.9414C635.357 71.5978 632.647 68.8874 629.303 68.8874C625.959 68.8874 623.249 71.5978 623.249 74.9414C623.249 78.2849 625.959 80.9953 629.303 80.9953Z" fill="white"/>
<path d="M640.078 97.0373C643.422 97.0373 646.132 94.3268 646.132 90.9833C646.132 87.6398 643.422 84.9294 640.078 84.9294C636.735 84.9294 634.024 87.6398 634.024 90.9833C634.024 94.3268 636.735 97.0373 640.078 97.0373Z" fill="white"/>
<path d="M593.669 92.7984C597.013 92.7984 599.723 90.0879 599.723 86.7444C599.723 83.4009 597.013 80.6904 593.669 80.6904C590.326 80.6904 587.615 83.4009 587.615 86.7444C587.615 90.0879 590.326 92.7984 593.669 92.7984Z" fill="white"/>
<path d="M596.11 52.2209C596.416 51.9907 596.688 51.7188 596.919 51.4126L604.62 55.4555V44.1045L596.93 46.5454C596.705 46.2453 596.44 45.9771 596.142 45.7481L599.237 36.0002H588.102L591.197 45.7481C590.899 45.9759 590.634 46.2441 590.409 46.5454L582.719 44.1045V55.4555L590.42 51.4126C590.65 51.7188 590.922 51.9907 591.228 52.2209L586.841 65.4495C585.297 70.106 588.764 74.9083 593.669 74.9083C598.574 74.9083 602.042 70.106 600.497 65.4495L596.11 52.2209Z" fill="white"/>
<path d="M602.471 98.8008C602.471 98.8008 596.848 105.058 595.621 108.876C599.301 108.759 602.608 108.043 606.247 104.244L605.013 118.379C601.663 113.679 597.736 111.653 595.558 112.059C595.779 117.124 596.309 123.243 605.179 124.049C611.367 124.587 616.336 121.547 616.853 117.786C617.466 113.465 613.573 110.606 610.637 115.155C608.342 107.628 614.683 105.125 618.755 109.786C615.62 102.358 615.703 97.0801 622.677 91.7438C627.68 98.3955 626.971 103.893 620.768 110.083C624.806 107.849 631.077 110.2 627.383 117.745C625.454 113.052 621.312 114.101 620.444 118.139C619.865 120.991 621.595 124.347 625.358 125.035C628.445 125.601 633.2 123.492 637.011 115.282C634.868 115.338 632.987 116.42 630.554 118.094L634.552 104.768C635.559 108.508 636.847 110.964 638.211 112.292C639.128 109.6 638.996 107.647 638.177 103.452L646.441 106.394C642.051 112.382 637.799 120.785 634.312 135.46C622.018 133.705 608.255 132.719 593.672 132.719C579.09 132.719 565.326 133.706 553.032 135.46C549.545 120.784 545.293 112.381 540.903 106.394L549.167 103.452C548.346 107.647 548.216 109.6 549.132 112.292C550.497 110.964 551.785 108.508 552.792 104.768L556.79 118.094C554.357 116.419 552.476 115.338 550.333 115.282C554.144 123.492 558.899 125.6 561.986 125.035C565.749 124.347 567.478 120.991 566.9 118.139C566.032 114.101 561.891 113.052 559.961 117.745C556.267 110.2 562.537 107.848 566.575 110.083C560.373 103.893 559.663 98.3942 564.667 91.7438C571.641 97.0788 571.724 102.356 568.589 109.786C572.661 105.127 579.002 107.628 576.707 115.155C573.771 110.606 569.877 113.465 570.491 117.786C571.008 121.548 575.977 124.588 582.165 124.049C591.035 123.243 591.565 117.124 591.786 112.059C589.608 111.653 585.68 113.678 582.331 118.379L581.097 104.244C584.736 108.043 588.044 108.758 591.723 108.876C590.496 105.058 584.873 98.8008 584.873 98.8008H602.475H602.471Z" fill="white"/>
<path d="M574.305 71.2402C577.648 71.2402 580.359 68.5297 580.359 65.1862C580.359 61.8427 577.648 59.1323 574.305 59.1323C570.961 59.1323 568.251 61.8427 568.251 65.1862C568.251 68.5297 570.961 71.2402 574.305 71.2402Z" fill="white"/>
<path d="M558.018 80.9953C561.361 80.9953 564.072 78.2849 564.072 74.9414C564.072 71.5978 561.361 68.8874 558.018 68.8874C554.674 68.8874 551.964 71.5978 551.964 74.9414C551.964 78.2849 554.674 80.9953 558.018 80.9953Z" fill="white"/>
<path d="M547.242 97.0373C550.586 97.0373 553.296 94.3268 553.296 90.9833C553.296 87.6398 550.586 84.9294 547.242 84.9294C543.899 84.9294 541.188 87.6398 541.188 90.9833C541.188 94.3268 543.899 97.0373 547.242 97.0373Z" fill="white"/>
<path d="M593.669 92.7984C597.013 92.7984 599.723 90.0879 599.723 86.7444C599.723 83.4009 597.013 80.6904 593.669 80.6904C590.326 80.6904 587.615 83.4009 587.615 86.7444C587.615 90.0879 590.326 92.7984 593.669 92.7984Z" fill="white"/>
<path d="M613.015 71.2402C616.358 71.2402 619.069 68.5297 619.069 65.1862C619.069 61.8427 616.358 59.1322 613.015 59.1322C609.671 59.1322 606.961 61.8427 606.961 65.1862C606.961 68.5297 609.671 71.2402 613.015 71.2402Z" fill="white"/>
<path d="M629.303 80.9953C632.647 80.9953 635.357 78.2849 635.357 74.9414C635.357 71.5978 632.647 68.8874 629.303 68.8874C625.959 68.8874 623.249 71.5978 623.249 74.9414C623.249 78.2849 625.959 80.9953 629.303 80.9953Z" fill="white"/>
<path d="M640.078 97.0373C643.422 97.0373 646.132 94.3268 646.132 90.9833C646.132 87.6398 643.422 84.9294 640.078 84.9294C636.735 84.9294 634.024 87.6398 634.024 90.9833C634.024 94.3268 636.735 97.0373 640.078 97.0373Z" fill="white"/>
<path d="M593.669 92.7984C597.013 92.7984 599.723 90.0879 599.723 86.7444C599.723 83.4009 597.013 80.6904 593.669 80.6904C590.326 80.6904 587.615 83.4009 587.615 86.7444C587.615 90.0879 590.326 92.7984 593.669 92.7984Z" fill="white"/>
<path d="M596.11 52.2209C596.416 51.9907 596.688 51.7188 596.919 51.4126L604.62 55.4555V44.1045L596.93 46.5454C596.705 46.2453 596.44 45.9771 596.142 45.7481L599.237 36.0002H588.102L591.197 45.7481C590.899 45.9759 590.634 46.2441 590.409 46.5454L582.719 44.1045V55.4555L590.42 51.4126C590.65 51.7188 590.922 51.9907 591.228 52.2209L586.841 65.4495C585.297 70.106 588.764 74.9083 593.669 74.9083C598.574 74.9083 602.042 70.106 600.497 65.4495L596.11 52.2209Z" fill="white"/>
<path d="M602.471 98.8008C602.471 98.8008 596.848 105.058 595.621 108.876C599.301 108.759 602.608 108.043 606.247 104.244L605.013 118.379C601.663 113.679 597.736 111.653 595.558 112.059C595.779 117.124 596.309 123.243 605.179 124.049C611.367 124.587 616.336 121.547 616.853 117.786C617.466 113.465 613.573 110.606 610.637 115.155C608.342 107.628 614.683 105.125 618.755 109.786C615.62 102.358 615.703 97.0801 622.677 91.7438C627.68 98.3955 626.971 103.893 620.768 110.083C624.806 107.849 631.077 110.2 627.383 117.745C625.454 113.052 621.312 114.101 620.444 118.139C619.865 120.991 621.595 124.347 625.358 125.035C628.445 125.601 633.2 123.492 637.011 115.282C634.868 115.338 632.987 116.42 630.554 118.094L634.552 104.768C635.559 108.508 636.847 110.964 638.211 112.292C639.128 109.6 638.996 107.647 638.177 103.452L646.441 106.394C642.051 112.382 637.799 120.785 634.312 135.46C622.018 133.705 608.255 132.719 593.672 132.719C579.09 132.719 565.326 133.706 553.032 135.46C549.545 120.784 545.293 112.381 540.903 106.394L549.167 103.452C548.346 107.647 548.216 109.6 549.132 112.292C550.497 110.964 551.785 108.508 552.792 104.768L556.79 118.094C554.357 116.419 552.476 115.338 550.333 115.282C554.144 123.492 558.899 125.6 561.986 125.035C565.749 124.347 567.478 120.991 566.9 118.139C566.032 114.101 561.891 113.052 559.961 117.745C556.267 110.2 562.537 107.848 566.575 110.083C560.373 103.893 559.663 98.3942 564.667 91.7438C571.641 97.0788 571.724 102.356 568.589 109.786C572.661 105.127 579.002 107.628 576.707 115.155C573.771 110.606 569.877 113.465 570.491 117.786C571.008 121.548 575.977 124.588 582.165 124.049C591.035 123.243 591.565 117.124 591.786 112.059C589.608 111.653 585.68 113.678 582.331 118.379L581.097 104.244C584.736 108.043 588.044 108.758 591.723 108.876C590.496 105.058 584.873 98.8008 584.873 98.8008H602.475H602.471Z" fill="white"/>
</svg>
