<svg width="312" height="80" viewBox="0 0 312 80" fill="none" xmlns="http://www.w3.org/2000/svg">
<path d="M12.1884 30.1192C12.1884 32.5349 12.4905 34.8591 13.0947 37.0911C13.6979 39.323 14.6166 41.2923 15.8519 42.999C17.0862 44.7066 18.661 46.0784 20.5784 47.1155C22.4957 48.1526 24.7805 48.6721 27.4329 48.6721C30.0852 48.6721 32.1007 48.2652 33.7948 47.4513C35.488 46.6374 36.8407 45.6195 37.8518 44.3978C38.8619 43.1769 39.5709 41.858 39.9788 40.4399C40.3858 39.0219 40.5888 37.7087 40.5888 36.5004V35.9491H26.1332V27.2446H51.6965V58.204H41.6922V51.5861C40.9832 52.6896 40.1029 53.6939 39.0533 54.6002C38.0028 55.5055 36.8214 56.2809 35.5073 56.9235C34.1941 57.5671 32.7558 58.0731 31.1945 58.4406C29.6321 58.8081 27.9707 58.9919 26.2121 58.9919C22.0888 58.9919 18.4263 58.2434 15.2227 56.7465C12.0191 55.2496 9.32059 53.1889 7.1281 50.5625C4.93562 47.9371 3.2684 44.8643 2.1255 41.3452C0.983562 37.827 0.412109 34.0328 0.412109 29.9614C0.412109 25.8901 1.04898 22.1304 2.32272 18.5988C3.59646 15.0671 5.40798 11.9944 7.7592 9.38147C10.1095 6.76857 12.9446 4.70789 16.2665 3.19749C19.5884 1.68709 23.3106 0.931885 27.4338 0.931885C30.1122 0.931885 32.6529 1.2407 35.0551 1.85737C37.4583 2.47499 39.6508 3.3543 41.6335 4.49624C43.6153 5.63818 45.3682 7.01774 46.892 8.63204C48.414 10.2463 49.6492 12.0396 50.5949 14.0089L40.5897 19.6407C39.9856 18.4333 39.2765 17.3106 38.4627 16.2726C37.6478 15.2364 36.7098 14.3427 35.6468 13.5942C34.5828 12.8458 33.3687 12.2551 32.0035 11.8222C30.6374 11.3892 29.1145 11.1718 27.4348 11.1718C24.7825 11.1718 22.4976 11.6913 20.5803 12.7284C18.6629 13.7655 17.0881 15.1373 15.8538 16.845C14.6195 18.5516 13.7007 20.5277 13.0966 22.773C12.4924 25.0184 12.1903 27.337 12.1903 29.7247V30.1192H12.1884Z" fill="white"/>
<path d="M88.0757 0.931885C92.2769 0.931885 96.0452 1.68709 99.3806 3.19749C102.716 4.70789 105.545 6.76857 107.87 9.38147C110.193 11.9944 111.966 15.0671 113.187 18.5988C114.408 22.1304 115.018 25.9189 115.018 29.9614C115.018 34.0039 114.408 37.827 113.187 41.3452C111.966 44.8643 110.193 47.9371 107.87 50.5625C105.546 53.1879 102.716 55.2496 99.3806 56.7465C96.0462 58.2434 92.2769 58.9919 88.0757 58.9919C83.8745 58.9919 80.0725 58.2434 76.7515 56.7465C73.4296 55.2496 70.607 53.1889 68.2837 50.5625C65.9594 47.9371 64.1873 44.8643 62.9665 41.3452C61.7457 37.827 61.1348 34.0328 61.1348 29.9614C61.1348 25.8901 61.7457 22.1304 62.9665 18.5988C64.1873 15.0671 65.9594 11.9944 68.2837 9.38147C70.607 6.76857 73.4296 4.70789 76.7515 3.19749C80.0735 1.68709 83.8475 0.931885 88.0757 0.931885ZM88.0757 48.6711C90.5443 48.6711 92.7175 48.2055 94.5945 47.2723C96.4714 46.3411 98.0549 45.0471 99.3402 43.3934C100.627 41.7387 101.599 39.7829 102.255 37.524C102.911 35.2661 103.24 32.7975 103.24 30.1192V29.8036C103.24 27.1513 102.911 24.6894 102.255 22.4181C101.599 20.1467 100.627 18.1832 99.3402 16.5294C98.054 14.8757 96.4714 13.5827 94.5945 12.6495C92.7175 11.7183 90.5443 11.2517 88.0757 11.2517C85.6071 11.2517 83.4281 11.7183 81.5367 12.6495C79.6463 13.5827 78.0647 14.8757 76.791 16.5294C75.5172 18.1832 74.5523 20.1476 73.8962 22.4181C73.2401 24.6894 72.9111 27.1513 72.9111 29.8036V30.1192C72.9111 32.7975 73.2401 35.2661 73.8962 37.524C74.5523 39.7829 75.5172 41.7377 76.791 43.3934C78.0647 45.0471 79.6463 46.3411 81.5367 47.2723C83.4281 48.2055 85.6071 48.6711 88.0757 48.6711Z" fill="white"/>
<path d="M135.157 58.2029L119.204 1.71973H132.006L142.917 44.1803H143.311L153.986 1.71973H166.629L150.676 58.2029H135.158H135.157Z" fill="white"/>
<path d="M231.325 48.6711C232.978 48.6711 234.521 48.4287 235.952 47.9428C237.384 47.457 238.618 46.722 239.655 45.7369C240.691 44.7517 241.513 43.5059 242.117 41.9945C242.72 40.4851 243.022 38.7063 243.022 36.6581V1.64087H254.248V38.3513C254.248 41.5029 253.678 44.3525 252.537 46.899C251.396 49.4465 249.808 51.613 247.775 53.3986C245.741 55.1851 243.32 56.5627 240.514 57.5344C237.707 58.5051 234.637 58.9918 231.305 58.9918C227.974 58.9918 224.903 58.5051 222.097 57.5344C219.289 56.5627 216.862 55.1841 214.815 53.3986C212.768 51.613 211.175 49.4475 210.033 46.899C208.892 44.3525 208.321 41.502 208.321 38.3513V1.64087H219.626V36.6581C219.626 38.7063 219.928 40.4851 220.532 41.9945C221.136 43.5059 221.956 44.7517 222.993 45.7369C224.03 46.722 225.265 47.457 226.696 47.9428C228.128 48.4287 229.671 48.6711 231.325 48.6711Z" fill="white"/>
<path d="M264.38 1.71973H275.803V26.1796L295.97 1.71973H310.032L290.416 24.1708L311.293 58.2029H298.019L283.091 32.8753L275.803 41.0286V58.2029H264.38V1.71973Z" fill="white"/>
<path d="M184.557 39.4972C189.824 39.4972 194.093 35.2279 194.093 29.9615C194.093 24.6951 189.824 20.4258 184.557 20.4258C179.291 20.4258 175.021 24.6951 175.021 29.9615C175.021 35.2279 179.291 39.4972 184.557 39.4972Z" fill="#00FFE0"/>
<path style="vector-effect: non-scaling-stroke" d="M2.2617 77.7197C2.16407 77.8173 2.16407 77.9756 2.2617 78.0733L3.85269 79.6643C3.95032 79.7619 4.10861 79.7619 4.20624 79.6643C4.30387 79.5666 4.30387 79.4083 4.20624 79.3107L2.79203 77.8965L4.20624 76.4823C4.30387 76.3846 4.30387 76.2263 4.20624 76.1287C4.10861 76.0311 3.95032 76.0311 3.85269 76.1287L2.2617 77.7197ZM311.47 78.0733C311.567 77.9756 311.567 77.8173 311.47 77.7197L309.879 76.1287C309.781 76.0311 309.623 76.0311 309.525 76.1287C309.428 76.2263 309.428 76.3846 309.525 76.4823L310.939 77.8965L309.525 79.3107C309.428 79.4083 309.428 79.5666 309.525 79.6643C309.623 79.7619 309.781 79.7619 309.879 79.6643L311.47 78.0733ZM2.43848 77.8965V78.1465H311.293V77.8965V77.6465H2.43848V77.8965Z" fill="white"/>
</svg>
