<svg width="536" height="100" viewBox="0 0 536 100" fill="none" xmlns="http://www.w3.org/2000/svg">
<path d="M317.158 66.4236C326.229 66.4236 333.582 59.0705 333.582 50C333.582 40.9294 326.229 33.5763 317.158 33.5763C308.087 33.5763 300.734 40.9294 300.734 50C300.734 59.0705 308.087 66.4236 317.158 66.4236Z" fill="#00FFE0"/>
<path d="M20.2827 50.2717C20.2827 54.4323 20.803 58.4355 21.8435 62.2796C22.8824 66.1237 24.4648 69.5155 26.5923 72.4549C28.7182 75.396 31.4306 77.7588 34.7329 79.545C38.0352 81.3312 41.9704 82.2259 46.5386 82.2259C51.1068 82.2259 54.5781 81.5251 57.496 80.1233C60.4122 78.7215 62.7419 76.9685 64.4834 74.8641C66.2232 72.7615 67.4443 70.4898 68.1469 68.0475C68.8478 65.6051 69.1974 63.3434 69.1974 61.2623V60.3128H44.3001V45.3208H88.3285V98.643H71.0979V87.2448C69.8767 89.1453 68.3606 90.8752 66.5529 92.436C64.7435 93.9952 62.7088 95.3307 60.4454 96.4376C58.1837 97.5461 55.7065 98.4176 53.0173 99.0506C50.3264 99.6835 47.4649 100 44.436 100C37.3343 100 31.0263 98.7109 25.5087 96.1327C19.9911 93.5545 15.3433 90.0053 11.5671 85.4818C7.79097 80.96 4.91948 75.6677 2.95103 69.6066C0.984236 63.5472 0 57.0122 0 50C0 42.9878 1.0969 36.5125 3.29069 30.4298C5.48449 24.3472 8.60452 19.0549 12.6541 14.5546C16.702 10.0543 21.585 6.50516 27.3065 3.90375C33.0279 1.30235 39.4386 0.00164795 46.5403 0.00164795C51.1532 0.00164795 55.5292 0.533527 59.6666 1.59563C63.8057 2.65939 67.5819 4.17384 70.9968 6.14063C74.4101 8.10743 77.4291 10.4835 80.0537 13.2638C82.675 16.0442 84.8025 19.1327 86.4313 22.5245L69.199 32.2243C68.1585 30.1448 66.9373 28.2112 65.5355 26.4233C64.1321 24.6388 62.5166 23.0995 60.6856 21.8104C58.8531 20.5213 56.762 19.5039 54.4108 18.7583C52.0579 18.0127 49.435 17.6382 46.542 17.6382C41.9738 17.6382 38.0385 18.5329 34.7362 20.3191C31.4339 22.1053 28.7215 24.4681 26.5956 27.4092C24.4698 30.3486 22.8874 33.752 21.8468 37.6193C20.8063 41.4866 20.286 45.4798 20.286 49.5924V50.2717H20.2827Z" fill="white"/>
<path d="M150.986 -2.28882e-05C158.221 -2.28882e-05 164.712 1.30068 170.456 3.90209C176.199 6.50349 181.074 10.0527 185.077 14.5529C189.079 19.0532 192.133 24.3455 194.235 30.4281C196.338 36.5108 197.388 43.0358 197.388 49.9983C197.388 56.9608 196.338 63.5455 194.235 69.605C192.133 75.6661 189.079 80.9584 185.077 85.4802C181.076 90.002 176.201 93.5528 170.456 96.131C164.713 98.7092 158.221 99.9983 150.986 99.9983C143.75 99.9983 137.201 98.7092 131.482 96.131C125.76 93.5528 120.899 90.0036 116.897 85.4802C112.894 80.9584 109.842 75.6661 107.739 69.605C105.637 63.5455 104.584 57.0105 104.584 49.9983C104.584 42.9861 105.637 36.5108 107.739 30.4281C109.842 24.3455 112.894 19.0532 116.897 14.5529C120.899 10.0527 125.76 6.50349 131.482 3.90209C137.203 1.30068 143.703 -2.28882e-05 150.986 -2.28882e-05ZM150.986 82.2243C155.237 82.2243 158.98 81.4223 162.213 79.8151C165.446 78.2111 168.173 75.9826 170.387 73.1343C172.604 70.2843 174.277 66.9157 175.407 63.0252C176.537 59.1364 177.104 54.8847 177.104 50.2717V49.7282C177.104 45.16 176.537 40.9199 175.407 37.0079C174.277 33.0958 172.604 29.714 170.387 26.8657C168.171 24.0174 165.446 21.7905 162.213 20.1832C158.98 18.5793 155.237 17.7757 150.986 17.7757C146.734 17.7757 142.981 18.5793 139.723 20.1832C136.467 21.7905 133.743 24.0174 131.55 26.8657C129.356 29.714 127.694 33.0975 126.564 37.0079C125.434 40.9199 124.867 45.16 124.867 49.7282V50.2717C124.867 54.8847 125.434 59.1364 126.564 63.0252C127.694 66.9157 129.356 70.2827 131.55 73.1343C133.743 75.9826 136.467 78.2111 139.723 79.8151C142.981 81.4223 146.734 82.2243 150.986 82.2243Z" fill="white"/>
<path d="M232.073 98.6413L204.598 1.35867H226.647L245.44 74.4896H246.117L264.503 1.35867H286.278L258.803 98.6413H232.075H232.073Z" fill="white"/>
<path d="M397.707 82.2243C400.555 82.2243 403.213 81.8067 405.677 80.97C408.142 80.1332 410.268 78.8673 412.054 77.1706C413.839 75.4739 415.254 73.3281 416.294 70.7251C417.333 68.1253 417.853 65.0616 417.853 61.534V1.22117H437.188V64.4486C437.188 69.8767 436.206 74.7846 434.241 79.1705C432.276 83.5581 429.542 87.2896 426.039 90.3649C422.536 93.4418 418.367 95.8146 413.534 97.4881C408.699 99.1599 403.412 99.9983 397.674 99.9983C391.936 99.9983 386.647 99.1599 381.813 97.4881C376.977 95.8146 372.798 93.4402 369.272 90.3649C365.746 87.2896 363.002 83.5598 361.035 79.1705C359.07 74.7846 358.087 69.8751 358.087 64.4486V1.22117H377.558V61.5323C377.558 65.06 378.078 68.1237 379.117 70.7234C380.158 73.3265 381.571 75.4722 383.357 77.1689C385.144 78.8657 387.27 80.1316 389.735 80.9683C392.201 81.8051 394.858 82.2226 397.707 82.2226V82.2243Z" fill="white"/>
<path d="M454.639 1.35701H474.314V43.4849L509.048 1.35701H533.268L499.483 40.0252L535.438 98.6396H512.578L486.865 55.0172L474.314 69.0598V98.6396H454.639V1.35701Z" fill="white"/>
</svg>
