<svg width="258" height="193" viewBox="0 0 258 193" fill="none" xmlns="http://www.w3.org/2000/svg">
<rect width="257.2" height="193" fill="#1D70B8"/>
<g clip-path="url(#clip0_97_9939)">
<path d="M118.623 88.44C118.623 87.1274 119.691 86.0589 121.004 86.0589C122.317 86.0589 123.385 87.1269 123.385 88.44C123.385 89.7531 122.317 90.8211 121.004 90.8211C119.691 90.8211 118.623 89.7531 118.623 88.44ZM114.615 94.648C115.927 94.648 116.996 93.58 116.996 92.2669C116.996 90.9538 115.928 89.8858 114.615 89.8858C113.301 89.8858 112.233 90.9538 112.233 92.2669C112.233 93.58 113.301 94.648 114.615 94.648ZM110.387 100.941C111.7 100.941 112.768 99.873 112.768 98.5599C112.768 97.2468 111.7 96.1788 110.387 96.1788C109.074 96.1788 108.006 97.2473 108.006 98.5599C108.006 99.8725 109.074 100.941 110.387 100.941ZM136.189 90.8211C137.502 90.8211 138.57 89.7531 138.57 88.44C138.57 87.1269 137.502 86.0589 136.189 86.0589C134.876 86.0589 133.808 87.1269 133.808 88.44C133.808 89.7531 134.876 90.8211 136.189 90.8211ZM142.579 94.648C143.891 94.648 144.96 93.58 144.96 92.2669C144.96 90.9538 143.892 89.8858 142.579 89.8858C141.266 89.8858 140.198 90.9538 140.198 92.2669C140.198 93.58 141.266 94.648 142.579 94.648ZM146.806 100.941C148.118 100.941 149.187 99.873 149.187 98.5599C149.187 97.2468 148.119 96.1788 146.806 96.1788C145.493 96.1788 144.425 97.2468 144.425 98.5599C144.425 99.873 145.493 100.941 146.806 100.941ZM128.6 94.5163C127.288 94.5163 126.219 95.5843 126.219 96.8974C126.219 98.2105 127.287 99.2785 128.6 99.2785C129.913 99.2785 130.981 98.2105 130.981 96.8974C130.981 95.5843 129.913 94.5163 128.6 94.5163ZM127.635 83.3568L125.916 88.5419C125.626 89.4143 125.769 90.3424 126.307 91.0874C126.845 91.8329 127.681 92.2602 128.6 92.2602C129.52 92.2602 130.355 91.8329 130.893 91.0874C131.432 90.3419 131.574 89.4143 131.285 88.5419L129.565 83.3568C129.683 83.2674 129.788 83.1626 129.877 83.0453L132.893 84.629L132.902 84.6338V80.1629L129.881 81.1213C129.795 81.006 129.692 80.9026 129.577 80.8137L130.79 76.9926L130.792 76.9849H126.408L127.623 80.8128C127.508 80.9017 127.406 81.005 127.319 81.1204L124.298 80.162V84.6329L127.324 83.0448C127.413 83.1621 127.517 83.2669 127.635 83.3563V83.3568ZM146.061 103.447L146.051 103.443L146.053 103.454C146.373 105.092 146.424 105.863 146.07 106.909C145.505 106.355 145.012 105.338 144.643 103.967L144.638 103.947L143.064 109.195L143.059 109.211L143.073 109.202C144.084 108.506 144.785 108.124 145.593 108.1C144.124 111.258 142.274 112.141 141.032 111.913C140.183 111.757 139.708 111.286 139.459 110.919C139.119 110.416 138.992 109.795 139.11 109.214C139.276 108.439 139.764 107.905 140.351 107.853C140.626 107.828 140.901 107.915 141.146 108.103C141.419 108.312 141.646 108.635 141.821 109.061L141.826 109.073L141.832 109.061C142.648 107.396 142.154 106.562 141.788 106.213C141.491 105.931 141.067 105.761 140.592 105.734C140.141 105.708 139.671 105.813 139.265 106.028C140.483 104.805 141.136 103.659 141.26 102.524C141.388 101.365 140.97 100.165 139.985 98.855L139.981 98.8502L139.976 98.8541C139.295 99.3756 138.782 99.8922 138.408 100.434C138.044 100.961 137.818 101.502 137.718 102.089C137.538 103.137 137.755 104.316 138.422 105.905C138.044 105.482 137.601 105.194 137.138 105.072C136.696 104.955 136.256 105 135.899 105.198C135.529 105.403 135.268 105.756 135.143 106.216C135.005 106.726 135.042 107.358 135.252 108.044L135.256 108.057L135.263 108.046C135.513 107.659 135.79 107.391 136.086 107.251C136.35 107.125 136.621 107.109 136.87 107.202C137.151 107.307 137.389 107.545 137.54 107.873C137.701 108.221 137.753 108.636 137.691 109.074C137.641 109.437 137.486 109.785 137.232 110.107C136.982 110.425 136.647 110.702 136.238 110.931C135.373 111.414 134.265 111.626 133.117 111.526C131.565 111.385 130.533 110.822 129.963 109.804C129.479 108.94 129.396 107.906 129.349 106.834C129.504 106.805 129.668 106.807 129.838 106.832C130.049 106.866 130.281 106.938 130.527 107.049C131.421 107.463 132.373 108.366 133.047 109.311L133.057 109.325L133.542 103.763L133.544 103.746L133.532 103.759C132.867 104.453 132.188 104.926 131.456 105.208C131.06 105.36 130.466 105.538 129.376 105.574C129.857 104.094 132.037 101.656 132.059 101.632L132.068 101.622H125.136L125.145 101.632C125.167 101.656 127.348 104.094 127.829 105.574C127.254 105.555 126.501 105.497 125.749 105.208C125.017 104.926 124.337 104.453 123.673 103.759L123.661 103.746L124.147 109.308L124.148 109.325L124.158 109.311C124.831 108.367 125.78 107.467 126.672 107.051C126.923 106.937 127.159 106.864 127.374 106.831C127.541 106.807 127.703 106.806 127.856 106.834C127.809 107.906 127.726 108.94 127.242 109.804C126.671 110.822 125.639 111.385 124.087 111.526C122.94 111.626 121.832 111.415 120.967 110.931C120.558 110.702 120.223 110.425 119.973 110.107C119.718 109.785 119.564 109.437 119.514 109.074C119.452 108.636 119.504 108.221 119.665 107.873C119.816 107.545 120.054 107.306 120.335 107.202C120.584 107.109 120.855 107.126 121.119 107.251C121.416 107.391 121.692 107.659 121.942 108.046L121.949 108.057L121.953 108.044C122.162 107.358 122.2 106.726 122.062 106.216C121.937 105.755 121.676 105.403 121.306 105.198C120.949 105 120.509 104.955 120.066 105.072C119.604 105.194 119.16 105.482 118.783 105.905C119.45 104.316 119.667 103.137 119.487 102.089C119.386 101.502 119.16 100.961 118.797 100.434C118.423 99.8922 117.91 99.3751 117.228 98.8541L117.223 98.8502L117.22 98.855C116.234 100.165 115.817 101.365 115.944 102.524C116.069 103.658 116.722 104.805 117.94 106.028C117.534 105.813 117.064 105.708 116.613 105.734C116.138 105.761 115.714 105.931 115.417 106.213C115.05 106.562 114.557 107.396 115.372 109.061L115.378 109.073L115.384 109.061C115.559 108.635 115.786 108.313 116.058 108.103C116.304 107.915 116.578 107.828 116.853 107.853C117.441 107.905 117.928 108.439 118.094 109.214C118.212 109.795 118.085 110.416 117.745 110.919C117.295 111.585 116.641 111.827 116.172 111.913C114.93 112.141 113.08 111.258 111.611 108.1C112.418 108.123 113.121 108.506 114.131 109.202L114.145 109.211L112.572 103.967L112.566 103.947L112.561 103.967C112.192 105.338 111.698 106.355 111.134 106.909C110.779 105.863 110.83 105.092 111.151 103.454L111.152 103.443L107.898 104.601L107.89 104.603L107.895 104.61C108.858 105.924 109.679 107.371 110.406 109.032C111.273 111.014 112.007 113.296 112.652 116.01L112.654 116.016L112.659 116.015C117.658 115.301 123.021 114.939 128.6 114.939C134.179 114.939 139.542 115.301 144.542 116.015L144.547 116.016L144.548 116.01C145.193 113.296 145.928 111.014 146.794 109.032C147.521 107.371 148.342 105.924 149.306 104.61L149.31 104.603L146.061 103.447V103.447Z" fill="white"/>
</g>
<defs>
<clipPath id="clip0_97_9939">
<rect width="41.4206" height="39.0304" fill="white" transform="translate(107.89 76.9849)"/>
</clipPath>
</defs>
</svg>
