<svg width="501" height="290" viewBox="0 0 501 290" fill="none" xmlns="http://www.w3.org/2000/svg">
<rect width="500.117" height="289.85" fill="#1D70B8"/>
<rect x="21.4771" y="21.8269" width="457.163" height="246.196" stroke="#8EB8DC" stroke-dasharray="2 2"/>
<path d="M243.758 246.624C244.846 246.624 245.727 245.742 245.727 244.654C245.727 243.566 244.846 242.684 243.758 242.684C242.67 242.684 241.788 243.566 241.788 244.654C241.788 245.742 242.67 246.624 243.758 246.624Z" fill="white"/>
<path d="M238.458 249.798C239.546 249.798 240.428 248.916 240.428 247.828C240.428 246.74 239.546 245.858 238.458 245.858C237.371 245.858 236.489 246.74 236.489 247.828C236.489 248.916 237.371 249.798 238.458 249.798Z" fill="white"/>
<path d="M234.953 255.017C236.04 255.017 236.922 254.135 236.922 253.047C236.922 251.96 236.04 251.078 234.953 251.078C233.865 251.078 232.983 251.96 232.983 253.047C232.983 254.135 233.865 255.017 234.953 255.017Z" fill="white"/>
<path d="M250.058 253.638C251.146 253.638 252.028 252.756 252.028 251.668C252.028 250.58 251.146 249.698 250.058 249.698C248.97 249.698 248.088 250.58 248.088 251.668C248.088 252.756 248.97 253.638 250.058 253.638Z" fill="white"/>
<path d="M256.352 246.624C257.44 246.624 258.322 245.742 258.322 244.654C258.322 243.566 257.44 242.684 256.352 242.684C255.264 242.684 254.382 243.566 254.382 244.654C254.382 245.742 255.264 246.624 256.352 246.624Z" fill="white"/>
<path d="M261.651 249.798C262.739 249.798 263.621 248.916 263.621 247.828C263.621 246.74 262.739 245.858 261.651 245.858C260.564 245.858 259.682 246.74 259.682 247.828C259.682 248.916 260.564 249.798 261.651 249.798Z" fill="white"/>
<path d="M265.157 255.017C266.245 255.017 267.127 254.135 267.127 253.047C267.127 251.96 266.245 251.078 265.157 251.078C264.069 251.078 263.188 251.96 263.188 253.047C263.188 254.135 264.069 255.017 265.157 255.017Z" fill="white"/>
<path d="M250.058 253.638C251.146 253.638 252.028 252.756 252.028 251.668C252.028 250.58 251.146 249.698 250.058 249.698C248.97 249.698 248.088 250.58 248.088 251.668C248.088 252.756 248.97 253.638 250.058 253.638Z" fill="white"/>
<path d="M250.852 240.436C250.952 240.361 251.04 240.272 251.115 240.173L253.621 241.488V237.795L251.119 238.589C251.046 238.492 250.959 238.404 250.862 238.33L251.869 235.158H248.246L249.253 238.33C249.157 238.404 249.071 238.491 248.997 238.589L246.495 237.795V241.488L249.001 240.173C249.076 240.272 249.164 240.361 249.264 240.436L247.836 244.74C247.334 246.255 248.462 247.817 250.058 247.817C251.654 247.817 252.782 246.255 252.279 244.74L250.852 240.436Z" fill="white"/>
<path d="M252.921 255.591C252.921 255.591 251.092 257.627 250.693 258.869C251.89 258.831 252.966 258.598 254.15 257.362L253.749 261.961C252.659 260.432 251.381 259.772 250.672 259.904C250.744 261.553 250.917 263.543 253.803 263.806C255.816 263.98 257.433 262.991 257.601 261.768C257.8 260.362 256.534 259.432 255.579 260.912C254.832 258.463 256.895 257.649 258.22 259.165C257.2 256.748 257.227 255.031 259.496 253.295C261.123 255.459 260.893 257.248 258.875 259.262C260.189 258.535 262.229 259.299 261.027 261.755C260.399 260.228 259.052 260.569 258.769 261.882C258.581 262.811 259.144 263.902 260.368 264.126C261.372 264.31 262.919 263.624 264.159 260.953C263.462 260.971 262.85 261.323 262.059 261.868L263.359 257.532C263.687 258.749 264.106 259.548 264.55 259.98C264.848 259.104 264.805 258.469 264.539 257.104L267.227 258.061C265.799 260.01 264.416 262.744 263.281 267.518C259.281 266.947 254.804 266.626 250.059 266.626C245.314 266.626 240.836 266.948 236.836 267.518C235.702 262.743 234.318 260.009 232.89 258.061L235.579 257.104C235.312 258.469 235.269 259.104 235.568 259.98C236.011 259.548 236.431 258.749 236.758 257.532L238.059 261.868C237.267 261.323 236.655 260.971 235.958 260.953C237.198 263.624 238.745 264.31 239.75 264.126C240.974 263.902 241.536 262.811 241.348 261.882C241.066 260.569 239.719 260.228 239.091 261.755C237.889 259.299 239.929 258.534 241.243 259.262C239.225 257.248 238.994 255.459 240.622 253.295C242.891 255.031 242.918 256.748 241.898 259.165C243.223 257.649 245.286 258.463 244.539 260.912C243.584 259.432 242.317 260.362 242.517 261.768C242.685 262.992 244.301 263.981 246.315 263.806C249.201 263.543 249.373 261.553 249.445 259.904C248.737 259.772 247.459 260.431 246.369 261.961L245.968 257.362C247.151 258.598 248.228 258.83 249.425 258.869C249.026 257.627 247.196 255.591 247.196 255.591H252.923H252.921Z" fill="white"/>
<path d="M261.918 136.869C264.094 136.869 265.858 135.105 265.858 132.929C265.858 130.753 264.094 128.989 261.918 128.989C259.742 128.989 257.979 130.753 257.979 132.929C257.979 135.105 259.742 136.869 261.918 136.869Z" fill="#00FFE0"/>
<path d="M190.699 132.994C190.699 133.993 190.824 134.953 191.074 135.875C191.323 136.797 191.703 137.611 192.213 138.316C192.723 139.022 193.374 139.589 194.166 140.017C194.958 140.446 195.902 140.66 196.998 140.66C198.094 140.66 198.927 140.492 199.627 140.156C200.326 139.819 200.885 139.399 201.303 138.894C201.72 138.39 202.013 137.845 202.182 137.259C202.35 136.673 202.434 136.13 202.434 135.631V135.403H196.461V131.807H207.023V144.599H202.89V141.864C202.597 142.32 202.233 142.735 201.799 143.11C201.365 143.484 200.877 143.804 200.334 144.069C199.792 144.335 199.197 144.544 198.552 144.696C197.907 144.848 197.22 144.924 196.494 144.924C194.79 144.924 193.277 144.615 191.953 143.996C190.629 143.378 189.514 142.526 188.608 141.441C187.703 140.356 187.014 139.087 186.541 137.633C186.07 136.179 185.833 134.611 185.833 132.929C185.833 131.247 186.097 129.694 186.623 128.234C187.149 126.775 187.898 125.506 188.869 124.426C189.84 123.346 191.012 122.495 192.384 121.871C193.757 121.247 195.295 120.935 196.998 120.935C198.105 120.935 199.155 121.062 200.147 121.317C201.14 121.572 202.046 121.936 202.865 122.408C203.684 122.879 204.408 123.449 205.038 124.116C205.667 124.783 206.177 125.524 206.568 126.338L202.434 128.665C202.184 128.166 201.892 127.702 201.555 127.273C201.219 126.845 200.831 126.476 200.392 126.167C199.952 125.857 199.451 125.613 198.886 125.434C198.322 125.256 197.693 125.166 196.999 125.166C195.903 125.166 194.959 125.38 194.167 125.809C193.374 126.237 192.724 126.804 192.214 127.51C191.704 128.215 191.324 129.031 191.074 129.959C190.825 130.887 190.7 131.845 190.7 132.831V132.994H190.699Z" fill="white"/>
<path d="M222.054 120.934C223.79 120.934 225.347 121.246 226.725 121.871C228.103 122.495 229.272 123.346 230.233 124.426C231.193 125.505 231.925 126.775 232.43 128.234C232.934 129.693 233.186 131.259 233.186 132.929C233.186 134.599 232.934 136.179 232.43 137.632C231.925 139.086 231.193 140.356 230.233 141.441C229.273 142.526 228.103 143.377 226.725 143.996C225.348 144.614 223.79 144.924 222.054 144.924C220.318 144.924 218.748 144.614 217.375 143.996C216.003 143.377 214.837 142.526 213.877 141.441C212.916 140.356 212.184 139.086 211.68 137.632C211.175 136.179 210.923 134.611 210.923 132.929C210.923 131.247 211.175 129.693 211.68 128.234C212.184 126.775 212.916 125.505 213.877 124.426C214.837 123.346 216.003 122.495 217.375 121.871C218.748 121.246 220.307 120.934 222.054 120.934ZM222.054 140.66C223.074 140.66 223.972 140.467 224.748 140.082C225.523 139.697 226.178 139.162 226.709 138.479C227.24 137.795 227.642 136.987 227.913 136.054C228.184 135.121 228.32 134.101 228.32 132.994V132.864C228.32 131.768 228.184 130.751 227.913 129.813C227.642 128.874 227.24 128.063 226.709 127.379C226.177 126.696 225.523 126.162 224.748 125.776C223.972 125.392 223.074 125.199 222.054 125.199C221.034 125.199 220.134 125.392 219.353 125.776C218.571 126.162 217.918 126.696 217.392 127.379C216.865 128.063 216.467 128.874 216.196 129.813C215.925 130.751 215.789 131.768 215.789 132.864V132.994C215.789 134.101 215.925 135.121 216.196 136.054C216.467 136.987 216.865 137.795 217.392 138.479C217.918 139.162 218.571 139.697 219.353 140.082C220.134 140.467 221.034 140.66 222.054 140.66Z" fill="white"/>
<path d="M241.507 144.598L234.916 121.26H240.205L244.714 138.804H244.876L249.287 121.26H254.511L247.92 144.598H241.508H241.507Z" fill="white"/>
<path d="M281.242 140.66C281.925 140.66 282.563 140.56 283.154 140.359C283.745 140.158 284.255 139.854 284.684 139.447C285.112 139.04 285.451 138.526 285.701 137.901C285.95 137.278 286.075 136.543 286.075 135.696V121.227H290.713V136.395C290.713 137.698 290.478 138.875 290.006 139.927C289.535 140.98 288.879 141.875 288.039 142.613C287.198 143.351 286.198 143.92 285.039 144.322C283.879 144.723 282.61 144.924 281.234 144.924C279.857 144.924 278.589 144.723 277.429 144.322C276.269 143.92 275.266 143.35 274.42 142.613C273.575 141.875 272.916 140.98 272.444 139.927C271.973 138.875 271.737 137.697 271.737 136.395V121.227H276.408V135.696C276.408 136.542 276.533 137.277 276.782 137.901C277.032 138.525 277.371 139.04 277.8 139.447C278.228 139.854 278.738 140.158 279.329 140.358C279.921 140.559 280.559 140.659 281.242 140.659V140.66Z" fill="white"/>
<path d="M294.9 121.26H299.62V131.366L307.952 121.26H313.763L305.658 130.536L314.283 144.598H308.799L302.631 134.133L299.62 137.502V144.598H294.9V121.26Z" fill="white"/>
</svg>
