<svg width="215" height="135" viewBox="0 0 215 135" fill="none" xmlns="http://www.w3.org/2000/svg">
<g clip-path="url(#clip0_127_10622)">
<rect width="215" height="135" fill="#F47738"/>
<path d="M118.871 71.2773C120.958 71.2773 122.649 69.586 122.649 67.4998C122.649 65.4135 120.958 63.7223 118.871 63.7223C116.785 63.7223 115.094 65.4135 115.094 67.4998C115.094 69.586 116.785 71.2773 118.871 71.2773Z" fill="#00FFE0"/>
<path d="M50.5889 67.5623C50.5889 68.5193 50.7086 69.44 50.9479 70.3242C51.1869 71.2084 51.5508 71.9885 52.0402 72.6646C52.5291 73.341 53.153 73.8845 53.9125 74.2953C54.6721 74.7061 55.5772 74.9119 56.6279 74.9119C57.6786 74.9119 58.477 74.7507 59.1481 74.4283C59.8189 74.1059 60.3547 73.7027 60.7552 73.2187C61.1554 72.7351 61.4363 72.2126 61.5979 71.6508C61.7591 71.0891 61.8395 70.5689 61.8395 70.0902V69.8718H56.113V66.4236H66.2397V78.6879H62.2766V76.0663C61.9957 76.5034 61.647 76.9013 61.2312 77.2603C60.8151 77.6189 60.3471 77.9261 59.8265 78.1807C59.3063 78.4356 58.7365 78.6361 58.118 78.7817C57.4991 78.9272 56.8409 79 56.1443 79C54.5109 79 53.06 78.7035 51.7909 78.1105C50.5218 77.5175 49.4529 76.7012 48.5843 75.6608C47.7158 74.6208 47.0553 73.4035 46.6026 72.0094C46.1502 70.6157 45.9238 69.1127 45.9238 67.4998C45.9238 65.887 46.1761 64.3977 46.6807 62.9986C47.1853 61.5996 47.9029 60.3823 48.8343 59.3473C49.7654 58.3122 50.8885 57.4959 52.2044 56.8975C53.5204 56.2992 54.9949 56 56.6283 56C57.6893 56 58.6958 56.1224 59.6474 56.3667C60.5994 56.6113 61.4679 56.9597 62.2534 57.412C63.0384 57.8644 63.7328 58.4109 64.3365 59.0504C64.9394 59.6899 65.4287 60.4003 65.8033 61.1804L61.8399 63.4114C61.6005 62.9331 61.3197 62.4883 60.9972 62.0771C60.6745 61.6667 60.3029 61.3126 59.8818 61.0161C59.4603 60.7196 58.9793 60.4856 58.4385 60.3141C57.8973 60.1426 57.2941 60.0565 56.6287 60.0565C55.578 60.0565 54.6728 60.2623 53.9133 60.6731C53.1537 61.084 52.5299 61.6274 52.0409 62.3039C51.552 62.9799 51.188 63.7627 50.9487 64.6522C50.7093 65.5417 50.5897 66.4602 50.5897 67.4061V67.5623H50.5889Z" fill="white"/>
<path d="M80.6519 56C82.3162 56 83.809 56.2992 85.1303 56.8975C86.4516 57.4958 87.5724 58.3122 88.4931 59.3472C89.4135 60.3823 90.1159 61.5996 90.5995 62.9986C91.0831 64.3976 91.3247 65.8984 91.3247 67.4998C91.3247 69.1012 91.0831 70.6157 90.5995 72.0094C90.1159 73.4035 89.4135 74.6207 88.4931 75.6608C87.5728 76.7008 86.4516 77.5175 85.1303 78.1105C83.8094 78.7035 82.3162 79 80.6519 79C78.9876 79 77.4815 78.7035 76.166 78.1105C74.85 77.5175 73.7318 76.7012 72.8115 75.6608C71.8907 74.6207 71.1887 73.4035 70.7051 72.0094C70.2215 70.6157 69.9795 69.1126 69.9795 67.4998C69.9795 65.887 70.2215 64.3976 70.7051 62.9986C71.1887 61.5996 71.8907 60.3823 72.8115 59.3472C73.7318 58.3122 74.85 57.4958 76.166 56.8975C77.4819 56.2992 78.977 56 80.6519 56ZM80.6519 74.9115C81.6298 74.9115 82.4908 74.7271 83.2343 74.3574C83.9778 73.9885 84.6051 73.4759 85.1143 72.8208C85.6242 72.1653 86.0091 71.3905 86.269 70.4957C86.5289 69.6012 86.6593 68.6233 86.6593 67.5623V67.4373C86.6593 66.3866 86.5289 65.4114 86.269 64.5116C86.0091 63.6118 85.6242 62.834 85.1143 62.1788C84.6047 61.5237 83.9778 61.0115 83.2343 60.6418C82.4908 60.2729 81.6298 60.0881 80.6519 60.0881C79.674 60.0881 78.8108 60.2729 78.0616 60.6418C77.3127 61.0115 76.6862 61.5237 76.1816 62.1788C75.677 62.834 75.2947 63.6122 75.0348 64.5116C74.7749 65.4114 74.6446 66.3866 74.6446 67.4373V67.5623C74.6446 68.6233 74.7749 69.6012 75.0348 70.4957C75.2947 71.3905 75.677 72.1649 76.1816 72.8208C76.6862 73.4759 77.3127 73.9885 78.0616 74.3574C78.8108 74.7271 79.674 74.9115 80.6519 74.9115Z" fill="white"/>
<path d="M99.3019 78.6875L92.9824 56.3121H98.0538L102.376 73.1325H102.532L106.761 56.3121H111.769L105.45 78.6875H99.3023H99.3019Z" fill="white"/>
<path d="M137.398 74.9115C138.053 74.9115 138.664 74.8155 139.231 74.623C139.798 74.4305 140.287 74.1394 140.698 73.7491C141.108 73.3589 141.434 72.8654 141.673 72.2666C141.912 71.6687 142.032 70.964 142.032 70.1527V56.2809H146.479V70.8234C146.479 72.0719 146.253 73.2007 145.801 74.2095C145.349 75.2187 144.72 76.0769 143.914 76.7842C143.109 77.492 142.15 78.0377 141.038 78.4226C139.926 78.8071 138.71 79 137.39 79C136.07 79 134.854 78.8071 133.742 78.4226C132.63 78.0377 131.669 77.4916 130.858 76.7842C130.047 76.0769 129.416 75.219 128.963 74.2095C128.511 73.2007 128.285 72.0715 128.285 70.8234V56.2809H132.764V70.1527C132.764 70.964 132.883 71.6687 133.122 72.2666C133.361 72.8654 133.687 73.3589 134.097 73.7491C134.508 74.1394 134.997 74.4305 135.564 74.623C136.131 74.8155 136.743 74.9115 137.398 74.9115Z" fill="#0B0C0C"/>
<path d="M150.492 56.3121H155.017V66.0017L163.006 56.3121H168.577L160.806 65.2059L169.076 78.6875H163.818L157.904 68.6542L155.017 71.884V78.6875H150.492V56.3121Z" fill="#0B0C0C"/>
<path d="M0 135L215 0" stroke="#CA3535" stroke-width="3"/>
</g>
<defs>
<clipPath id="clip0_127_10622">
<rect width="215" height="135" fill="white"/>
</clipPath>
</defs>
</svg>
