<svg width="167" height="157" viewBox="0 0 167 157" fill="none" xmlns="http://www.w3.org/2000/svg">
<path d="M52.7253 55.627C58.0031 55.627 62.2816 51.3485 62.2816 46.0707C62.2816 40.7929 58.0031 36.5143 52.7253 36.5143C47.4475 36.5143 43.1689 40.7929 43.1689 46.0707C43.1689 51.3485 47.4475 55.627 52.7253 55.627Z" fill="white"/>
<path d="M27.0163 71.0258C32.2941 71.0258 36.5726 66.7472 36.5726 61.4694C36.5726 56.1916 32.2941 51.9131 27.0163 51.9131C21.7385 51.9131 17.46 56.1916 17.46 61.4694C17.46 66.7472 21.7385 71.0258 27.0163 71.0258Z" fill="white"/>
<path d="M10.0065 96.3483C15.2844 96.3483 19.5629 92.0698 19.5629 86.792C19.5629 81.5142 15.2844 77.2356 10.0065 77.2356C4.72871 77.2356 0.450195 81.5142 0.450195 86.792C0.450195 92.0698 4.72871 96.3483 10.0065 96.3483Z" fill="white"/>
<path d="M83.2927 89.6572C88.5705 89.6572 92.849 85.3787 92.849 80.1009C92.849 74.823 88.5705 70.5445 83.2927 70.5445C78.0148 70.5445 73.7363 74.823 73.7363 80.1009C73.7363 85.3787 78.0148 89.6572 83.2927 89.6572Z" fill="white"/>
<path d="M113.829 55.6271C119.107 55.6271 123.386 51.3485 123.386 46.0707C123.386 40.7929 119.107 36.5144 113.829 36.5144C108.551 36.5144 104.273 40.7929 104.273 46.0707C104.273 51.3485 108.551 55.6271 113.829 55.6271Z" fill="white"/>
<path d="M139.541 71.0258C144.819 71.0258 149.097 66.7472 149.097 61.4694C149.097 56.1916 144.819 51.9131 139.541 51.9131C134.263 51.9131 129.984 56.1916 129.984 61.4694C129.984 66.7472 134.263 71.0258 139.541 71.0258Z" fill="white"/>
<path d="M156.549 96.3483C161.827 96.3483 166.106 92.0698 166.106 86.792C166.106 81.5142 161.827 77.2356 156.549 77.2356C151.272 77.2356 146.993 81.5142 146.993 86.792C146.993 92.0698 151.272 96.3483 156.549 96.3483Z" fill="white"/>
<path d="M83.2927 89.6572C88.5705 89.6572 92.849 85.3787 92.849 80.1009C92.849 74.823 88.5705 70.5445 83.2927 70.5445C78.0148 70.5445 73.7363 74.823 73.7363 80.1009C73.7363 85.3787 78.0148 89.6572 83.2927 89.6572Z" fill="white"/>
<path d="M87.1461 25.6047C87.6294 25.2413 88.0586 24.8121 88.4221 24.3287L100.579 30.7106V12.7927L88.4395 16.6458C88.0857 16.1721 87.6662 15.7487 87.1964 15.3872L92.0818 0H74.5042L79.3897 15.3872C78.9199 15.7468 78.5023 16.1702 78.1466 16.6458L66.0073 12.7927V30.7106L78.164 24.3287C78.5274 24.8121 78.9566 25.2413 79.4399 25.6047L72.5148 46.4864C70.0769 53.8368 75.5501 61.4173 83.293 61.4173C91.0359 61.4173 96.5091 53.8368 94.0712 46.4864L87.1461 25.6047Z" fill="white"/>
<path d="M97.1854 99.1322C97.1854 99.1322 88.3096 109.009 86.3724 115.036C92.182 114.852 97.4019 113.721 103.146 107.724L101.199 130.036C95.9114 122.618 89.7112 119.42 86.2738 120.06C86.6218 128.056 87.4589 137.715 101.46 138.987C111.229 139.836 119.072 135.038 119.888 129.1C120.857 122.28 114.711 117.767 110.077 124.948C106.454 113.066 116.462 109.116 122.891 116.472C117.941 104.747 118.073 96.4159 129.081 87.9925C136.979 98.4923 135.859 107.171 126.069 116.942C132.443 113.416 142.342 117.126 136.511 129.037C133.466 121.628 126.927 123.283 125.557 129.657C124.642 134.16 127.374 139.457 133.313 140.544C138.187 141.437 145.692 138.108 151.709 125.149C148.325 125.236 145.356 126.945 141.516 129.588L147.826 108.551C149.416 114.456 151.449 118.332 153.603 120.428C155.049 116.178 154.842 113.097 153.549 106.475L166.593 111.119C159.664 120.571 152.952 133.835 147.448 157C128.041 154.23 106.316 152.673 83.2965 152.673C60.2786 152.673 38.5521 154.231 19.1455 157C13.6414 133.833 6.92897 120.569 0 111.119L13.044 106.475C11.7487 113.097 11.5438 116.178 12.9899 120.428C15.1436 118.332 17.1774 114.456 18.7666 108.551L25.0769 129.588C21.2374 126.943 18.2678 125.236 14.8845 125.149C20.901 138.108 28.4061 141.435 33.2799 140.544C39.2191 139.457 41.9489 134.16 41.0364 129.657C39.6657 123.283 33.1291 121.628 30.0823 129.037C24.2514 117.126 34.1499 113.414 40.524 116.942C30.7338 107.171 29.6125 98.4904 37.512 87.9925C48.5202 96.414 48.6517 104.745 43.7024 116.472C50.1307 109.118 60.1394 113.066 56.5164 124.948C51.8822 117.767 45.7362 122.28 46.7048 129.1C47.5207 135.04 55.3641 139.838 65.1331 138.987C79.1341 137.715 79.9712 128.056 80.3192 120.06C76.8818 119.42 70.6817 122.616 65.3941 130.036L63.4473 107.724C69.1911 113.721 74.413 114.85 80.2206 115.036C78.2835 109.009 69.4077 99.1322 69.4077 99.1322H97.1931H97.1854Z" fill="white"/>
</svg>
