<svg width="160" height="135" viewBox="0 0 160 135" fill="none" xmlns="http://www.w3.org/2000/svg">
<path d="M159.746 0.234375V134.128H0.234375V0.234375H159.746Z" fill="white" stroke="#F3F3F3" stroke-width="0.468532"/>
<path d="M38.5413 67.2266C38.5413 67.9236 38.6284 68.5942 38.8027 69.2381C38.9768 69.8821 39.2418 70.4502 39.5982 70.9426C39.9544 71.4353 40.4087 71.8311 40.9619 72.1303C41.5151 72.4295 42.1743 72.5794 42.9396 72.5794C43.7049 72.5794 44.2864 72.462 44.7752 72.2272C45.2637 71.9924 45.6539 71.6987 45.9457 71.3462C46.2371 70.994 46.4417 70.6134 46.5594 70.2043C46.6768 69.7952 46.7353 69.4163 46.7353 69.0677V68.9086H42.5646V66.3972H49.9401V75.3295H47.0537V73.4202C46.8491 73.7385 46.5952 74.0283 46.2923 74.2898C45.9892 74.551 45.6484 74.7747 45.2692 74.9601C44.8904 75.1458 44.4754 75.2918 44.0249 75.3978C43.5741 75.5038 43.0948 75.5569 42.5874 75.5569C41.3977 75.5569 40.341 75.3409 39.4167 74.909C38.4924 74.4771 37.7138 73.8826 37.0813 73.1248C36.4487 72.3674 35.9677 71.4808 35.6379 70.4655C35.3084 69.4504 35.1436 68.3557 35.1436 67.1811C35.1436 66.0064 35.3273 64.9217 35.6948 63.9028C36.0623 62.8838 36.585 61.9973 37.2633 61.2434C37.9414 60.4896 38.7594 59.895 39.7179 59.4592C40.6763 59.0235 41.7502 58.8056 42.9399 58.8056C43.7126 58.8056 44.4457 58.8947 45.1388 59.0726C45.8321 59.2508 46.4647 59.5045 47.0368 59.8339C47.6086 60.1634 48.1143 60.5614 48.554 61.0272C48.9931 61.4929 49.3495 62.0103 49.6223 62.5785L46.7356 64.2034C46.5613 63.855 46.3567 63.5311 46.1219 63.2316C45.8868 62.9327 45.6162 62.6748 45.3095 62.4589C45.0025 62.2429 44.6522 62.0725 44.2583 61.9476C43.8642 61.8227 43.4248 61.76 42.9402 61.76C42.1749 61.76 41.5157 61.9098 40.9625 62.2091C40.4093 62.5083 39.9549 62.9041 39.5988 63.3968C39.2427 63.8892 38.9776 64.4593 38.8033 65.1071C38.629 65.7549 38.5418 66.4239 38.5418 67.1128V67.2266H38.5413Z" fill="#0B0C0C"/>
<path d="M60.4371 58.8054C61.6492 58.8054 62.7364 59.0233 63.6988 59.4591C64.6611 59.8949 65.4774 60.4894 66.148 61.2433C66.8184 61.9972 67.3299 62.8837 67.6822 63.9026C68.0344 64.9216 68.2104 66.0146 68.2104 67.1809C68.2104 68.3473 68.0344 69.4503 67.6822 70.4654C67.3299 71.4807 66.8184 72.3672 66.148 73.1247C65.4777 73.8822 64.6611 74.477 63.6988 74.9089C62.7367 75.3408 61.6492 75.5567 60.4371 75.5567C59.2249 75.5567 58.128 75.3408 57.1698 74.9089C56.2114 74.477 55.397 73.8825 54.7267 73.1247C54.0561 72.3672 53.5448 71.4807 53.1926 70.4654C52.8403 69.4503 52.6641 68.3556 52.6641 67.1809C52.6641 66.0063 52.8403 64.9216 53.1926 63.9026C53.5448 62.8837 54.0561 61.9972 54.7267 61.2433C55.397 60.4894 56.2114 59.8949 57.1698 59.4591C58.1283 59.0233 59.2172 58.8054 60.4371 58.8054ZM60.4371 72.579C61.1493 72.579 61.7763 72.4447 62.3179 72.1754C62.8594 71.9068 63.3163 71.5334 63.6871 71.0563C64.0585 70.5789 64.3388 70.0146 64.5281 69.3629C64.7174 68.7114 64.8124 67.9992 64.8124 67.2265V67.1354C64.8124 66.3702 64.7174 65.6599 64.5281 65.0046C64.3388 64.3492 64.0585 63.7827 63.6871 63.3056C63.316 62.8285 62.8594 62.4554 62.3179 62.1862C61.7763 61.9175 61.1493 61.7829 60.4371 61.7829C59.7248 61.7829 59.0961 61.9175 58.5504 62.1862C58.005 62.4554 57.5487 62.8285 57.1812 63.3056C56.8137 63.7827 56.5353 64.3495 56.346 65.0046C56.1567 65.6599 56.0618 66.3702 56.0618 67.1354V67.2265C56.0618 67.9992 56.1567 68.7114 56.346 69.3629C56.5353 70.0146 56.8137 70.5786 57.1812 71.0563C57.5487 71.5334 58.005 71.9068 58.5504 72.1754C59.0961 72.4447 59.7248 72.579 60.4371 72.579Z" fill="#0B0C0C"/>
<path d="M74.0186 75.3291L69.416 59.0327H73.1096L76.2578 71.2833H76.3713L79.4512 59.0327H83.099L78.4964 75.3291H74.0189H74.0186Z" fill="#0B0C0C"/>
<path d="M101.766 72.5791C102.243 72.5791 102.688 72.5091 103.101 72.369C103.514 72.2288 103.87 72.0167 104.169 71.7325C104.468 71.4483 104.705 71.0888 104.88 70.6528C105.054 70.2173 105.141 69.7041 105.141 69.1131V59.0101H108.38V69.6017C108.38 70.511 108.215 71.3331 107.886 72.0678C107.557 72.8028 107.099 73.4279 106.512 73.943C105.925 74.4585 105.227 74.8559 104.417 75.1363C103.607 75.4163 102.722 75.5568 101.76 75.5568C100.799 75.5568 99.9131 75.4163 99.1034 75.1363C98.2932 74.8559 97.5932 74.4582 97.0025 73.943C96.4118 73.4279 95.9522 72.8031 95.6227 72.0678C95.2935 71.3331 95.1289 70.5107 95.1289 69.6017V59.0101H98.3906V69.1131C98.3906 69.7041 98.4778 70.2173 98.6518 70.6528C98.8261 71.0888 99.0629 71.4483 99.3621 71.7325C99.6613 72.0167 100.017 72.2288 100.43 72.369C100.843 72.5091 101.289 72.5791 101.766 72.5791Z" fill="#0B0C0C"/>
<path d="M111.303 59.0327H114.599V66.0898L120.417 59.0327H124.474L118.815 65.5102L124.838 75.3291H121.008L116.701 68.0216L114.599 70.374V75.3291H111.303V59.0327Z" fill="#0B0C0C"/>
<path d="M88.2727 69.9322C89.7922 69.9322 91.024 68.7004 91.024 67.181C91.024 65.6615 89.7922 64.4297 88.2727 64.4297C86.7533 64.4297 85.5215 65.6615 85.5215 67.181C85.5215 68.7004 86.7533 69.9322 88.2727 69.9322Z" fill="#0B0C0C"/>
</svg>
