<svg width="328" height="135" viewBox="0 0 328 135" fill="none" xmlns="http://www.w3.org/2000/svg">
<path d="M0 0H327.117V134.362H0V0Z" fill="#F4F8FB"/>
<path d="M102.929 67.2477C102.929 68.2673 103.056 69.2483 103.311 70.1903C103.566 71.1324 103.954 71.9635 104.475 72.6839C104.996 73.4046 105.661 73.9836 106.47 74.4213C107.279 74.8591 108.243 75.0783 109.363 75.0783C110.482 75.0783 111.332 74.9066 112.047 74.563C112.762 74.2195 113.333 73.7899 113.76 73.2743C114.186 72.759 114.485 72.2023 114.657 71.6038C114.829 71.0053 114.915 70.451 114.915 69.941V69.7083H108.814V66.0344H119.602V79.1014H115.38V76.3082C115.081 76.774 114.71 77.1979 114.267 77.5804C113.823 77.9625 113.325 78.2897 112.77 78.561C112.216 78.8326 111.609 79.0462 110.95 79.2013C110.291 79.3564 109.59 79.434 108.847 79.434C107.107 79.434 105.561 79.1181 104.209 78.4863C102.857 77.8545 101.719 76.9847 100.793 75.8762C99.868 74.7681 99.1644 73.4712 98.6821 71.9859C98.2002 70.501 97.959 68.8995 97.959 67.1811C97.959 65.4627 98.2278 63.8759 98.7653 62.3853C99.3029 60.8947 100.067 59.5978 101.06 58.4949C102.052 57.3921 103.248 56.5224 104.65 55.8849C106.052 55.2474 107.623 54.9286 109.363 54.9286C110.493 54.9286 111.566 55.059 112.579 55.3193C113.594 55.5799 114.519 55.9511 115.356 56.433C116.192 56.915 116.932 57.4973 117.575 58.1786C118.217 58.86 118.738 59.6169 119.138 60.448L114.915 62.825C114.66 62.3154 114.361 61.8416 114.017 61.4035C113.674 60.9661 113.278 60.5889 112.829 60.273C112.38 59.9571 111.868 59.7078 111.291 59.5251C110.715 59.3424 110.072 59.2506 109.363 59.2506C108.244 59.2506 107.28 59.4699 106.471 59.9076C105.661 60.3453 104.997 60.9243 104.476 61.6451C103.955 62.3654 103.567 63.1994 103.312 64.1471C103.057 65.0948 102.93 66.0734 102.93 67.0812V67.2477H102.929Z" fill="#0B0C0C"/>
<path d="M134.956 54.9285C136.729 54.9285 138.319 55.2473 139.727 55.8848C141.134 56.5223 142.329 57.392 143.309 58.4948C144.29 59.5977 145.038 60.8946 145.553 62.3852C146.069 63.8758 146.326 65.4748 146.326 67.181C146.326 68.8872 146.069 70.5008 145.553 71.9858C145.038 73.4711 144.29 74.768 143.309 75.8761C142.329 76.9842 141.134 77.8544 139.727 78.4862C138.32 79.118 136.729 79.4339 134.956 79.4339C133.183 79.4339 131.578 79.118 130.177 78.4862C128.775 77.8544 127.583 76.9846 126.603 75.8761C125.622 74.768 124.874 73.4711 124.359 71.9858C123.844 70.5008 123.586 68.8994 123.586 67.181C123.586 65.4626 123.844 63.8758 124.359 62.3852C124.874 60.8946 125.622 59.5977 126.603 58.4948C127.583 57.392 128.775 56.5223 130.177 55.8848C131.579 55.2473 133.171 54.9285 134.956 54.9285ZM134.956 75.0778C135.998 75.0778 136.915 74.8813 137.707 74.4874C138.499 74.0944 139.167 73.5482 139.71 72.8502C140.253 72.1518 140.663 71.3263 140.94 70.3729C141.217 69.4199 141.356 68.378 141.356 67.2476V67.1144C141.356 65.9949 141.217 64.9559 140.94 63.9972C140.663 63.0385 140.253 62.2098 139.71 61.5118C139.167 60.8138 138.499 60.268 137.707 59.8742C136.915 59.4811 135.998 59.2842 134.956 59.2842C133.914 59.2842 132.994 59.4811 132.196 59.8742C131.398 60.268 130.731 60.8138 130.193 61.5118C129.656 62.2098 129.249 63.0389 128.972 63.9972C128.695 64.9559 128.556 65.9949 128.556 67.1144V67.2476C128.556 68.378 128.695 69.4199 128.972 70.3729C129.249 71.3263 129.656 72.1514 130.193 72.8502C130.731 73.5482 131.398 74.0944 132.196 74.4874C132.994 74.8813 133.914 75.0778 134.956 75.0778Z" fill="#0B0C0C"/>
<path d="M154.824 79.1009L148.092 55.2611H153.495L158.1 73.1824H158.266L162.771 55.2611H168.106L161.374 79.1009H154.825H154.824Z" fill="#0B0C0C"/>
<path d="M195.41 75.0778C196.108 75.0778 196.759 74.9755 197.363 74.7704C197.967 74.5654 198.488 74.2551 198.926 73.8393C199.363 73.4236 199.71 72.8977 199.965 72.2598C200.219 71.6227 200.347 70.872 200.347 70.0075V55.2278H205.085V70.7221C205.085 72.0523 204.844 73.255 204.362 74.3299C203.881 75.4051 203.211 76.3195 202.353 77.0731C201.494 77.8271 200.473 78.4086 199.288 78.8187C198.104 79.2284 196.808 79.4339 195.402 79.4339C193.996 79.4339 192.7 79.2284 191.516 78.8187C190.331 78.4086 189.307 77.8267 188.443 77.0731C187.579 76.3195 186.906 75.4055 186.424 74.3299C185.943 73.255 185.702 72.0519 185.702 70.7221V55.2278H190.473V70.0075C190.473 70.872 190.601 71.6227 190.855 72.2598C191.11 72.8977 191.457 73.4236 191.894 73.8393C192.332 74.2551 192.853 74.5654 193.457 74.7704C194.061 74.9755 194.712 75.0778 195.41 75.0778Z" fill="#0B0C0C"/>
<path d="M209.36 55.2611H214.181V65.5848L222.692 55.2611H228.627L220.349 64.737L229.159 79.1009H223.557L217.257 68.4109L214.181 71.8521V79.1009H209.36V55.2611Z" fill="#0B0C0C"/>
<path d="M175.674 71.2057C177.896 71.2057 179.698 69.4038 179.698 67.181C179.698 64.9582 177.896 63.1563 175.674 63.1563C173.451 63.1563 171.649 64.9582 171.649 67.181C171.649 69.4038 173.451 71.2057 175.674 71.2057Z" fill="#1D70B8"/>
</svg>
