<svg width="747" height="134" viewBox="0 0 747 134" fill="none" xmlns="http://www.w3.org/2000/svg">
<rect x="0.476562" y="0.413086" width="745.587" height="132.966" fill="#1D70B8"/>
<path d="M71.8288 47.5246C76.2986 47.5246 79.9222 43.9011 79.9222 39.4313C79.9222 34.9614 76.2986 31.3379 71.8288 31.3379C67.3589 31.3379 63.7354 34.9614 63.7354 39.4313C63.7354 43.9011 67.3589 47.5246 71.8288 47.5246Z" fill="white"/>
<path d="M50.0563 60.5657C54.5262 60.5657 58.1497 56.9421 58.1497 52.4723C58.1497 48.0024 54.5262 44.3789 50.0563 44.3789C45.5864 44.3789 41.9629 48.0024 41.9629 52.4723C41.9629 56.9421 45.5864 60.5657 50.0563 60.5657Z" fill="white"/>
<path d="M35.6501 82.011C40.1199 82.011 43.7435 78.3874 43.7435 73.9176C43.7435 69.4477 40.1199 65.8242 35.6501 65.8242C31.1802 65.8242 27.5566 69.4477 27.5566 73.9176C27.5566 78.3874 31.1802 82.011 35.6501 82.011Z" fill="white"/>
<path d="M97.7184 76.343C102.188 76.343 105.812 72.7195 105.812 68.2496C105.812 63.7798 102.188 60.1562 97.7184 60.1562C93.2485 60.1562 89.625 63.7798 89.625 68.2496C89.625 72.7195 93.2485 76.343 97.7184 76.343Z" fill="white"/>
<path d="M123.581 47.5246C128.051 47.5246 131.674 43.9011 131.674 39.4313C131.674 34.9614 128.051 31.3379 123.581 31.3379C119.111 31.3379 115.487 34.9614 115.487 39.4313C115.487 43.9011 119.111 47.5246 123.581 47.5246Z" fill="white"/>
<path d="M145.356 60.5657C149.826 60.5657 153.45 56.9421 153.45 52.4723C153.45 48.0024 149.826 44.3789 145.356 44.3789C140.886 44.3789 137.263 48.0024 137.263 52.4723C137.263 56.9421 140.886 60.5657 145.356 60.5657Z" fill="white"/>
<path d="M159.762 82.011C164.232 82.011 167.856 78.3874 167.856 73.9176C167.856 69.4477 164.232 65.8242 159.762 65.8242C155.292 65.8242 151.669 69.4477 151.669 73.9176C151.669 78.3874 155.292 82.011 159.762 82.011Z" fill="white"/>
<path d="M97.7184 76.343C102.188 76.343 105.812 72.7195 105.812 68.2496C105.812 63.7798 102.188 60.1562 97.7184 60.1562C93.2485 60.1562 89.625 63.7798 89.625 68.2496C89.625 72.7195 93.2485 76.343 97.7184 76.343Z" fill="white"/>
<path d="M100.982 22.098C101.391 21.7902 101.755 21.4267 102.063 21.0174L112.358 26.4222V11.2474L102.077 14.5106C101.778 14.1094 101.422 13.7509 101.024 13.4447L105.162 0.413086H90.2753L94.4128 13.4447C94.015 13.7492 93.6613 14.1078 93.36 14.5106L83.0791 11.2474V26.4222L93.3748 21.0174C93.6826 21.4267 94.0461 21.7902 94.4554 22.098L88.5904 39.7829C86.5257 46.0081 91.1611 52.4281 97.7187 52.4281C104.276 52.4281 108.912 46.0081 106.847 39.7829L100.982 22.098Z" fill="white"/>
<path d="M109.486 84.3699C109.486 84.3699 101.969 92.7351 100.328 97.8387C105.248 97.6831 109.669 96.7253 114.534 91.6462L112.885 110.543C108.407 104.26 103.156 101.552 100.244 102.094C100.539 108.866 101.248 117.046 113.106 118.124C121.379 118.842 128.022 114.779 128.713 109.75C129.533 103.974 124.328 100.152 120.404 106.233C117.335 96.1702 125.812 92.8251 131.256 99.0552C127.064 89.1247 127.176 82.0694 136.499 74.9355C143.187 83.8279 142.239 91.178 133.948 99.4531C139.346 96.4666 147.729 99.6086 142.791 109.696C140.212 103.422 134.675 104.824 133.514 110.222C132.739 114.035 135.053 118.522 140.083 119.442C144.211 120.198 150.567 117.379 155.662 106.404C152.797 106.477 150.282 107.925 147.03 110.163L152.374 92.347C153.72 97.3475 155.443 100.63 157.267 102.405C158.492 98.8063 158.316 96.1964 157.221 90.5885L168.268 94.5214C162.4 102.526 156.715 113.76 152.054 133.379C135.618 131.032 117.219 129.714 97.723 129.714C78.2287 129.714 59.8281 131.034 43.3924 133.379C38.7309 113.759 33.046 102.525 27.1777 94.5214L38.2249 90.5885C37.1279 96.1964 36.9544 98.8063 38.1791 102.405C40.0031 100.63 41.7256 97.3475 43.0715 92.347L48.4158 110.163C45.164 107.923 42.6491 106.477 39.7837 106.404C44.8791 117.379 51.2353 120.197 55.3631 119.442C60.393 118.522 62.705 114.035 61.9321 110.222C60.7712 104.824 55.2354 103.422 52.6549 109.696C47.7167 99.6086 56.0999 96.4649 61.4982 99.4531C53.2067 91.178 52.257 83.8263 58.9472 74.9355C68.2703 82.0678 68.3817 89.1231 64.19 99.0552C69.6342 92.8268 78.1108 96.1702 75.0424 106.233C71.1177 100.152 65.9125 103.974 66.7328 109.75C67.4238 114.78 74.0665 118.844 82.3401 118.124C94.1978 117.046 94.9067 108.866 95.2014 102.094C92.2902 101.552 87.0393 104.259 82.5611 110.543L80.9123 91.6462C85.7769 96.7253 90.1993 97.6815 95.1179 97.8387C93.4773 92.7351 85.9602 84.3699 85.9602 84.3699H109.492H109.486Z" fill="white"/>
</svg>
