<svg width="480" height="320" viewBox="0 0 480 320" fill="none" xmlns="http://www.w3.org/2000/svg">
<g clip-path="url(#clip0_1108_1065)">
<rect width="480" height="320" fill="white"/>
<path d="M480 0H0V320H480V0Z" fill="#1D70B8"/>
<path d="M225.488 149.14C228.014 149.14 230.062 147.091 230.062 144.563C230.062 142.036 228.014 139.987 225.488 139.987C222.961 139.987 220.913 142.036 220.913 144.563C220.913 147.091 222.961 149.14 225.488 149.14Z" fill="white"/>
<path d="M213.182 156.514C215.709 156.514 217.757 154.465 217.757 151.938C217.757 149.41 215.709 147.361 213.182 147.361C210.656 147.361 208.607 149.41 208.607 151.938C208.607 154.465 210.656 156.514 213.182 156.514Z" fill="white"/>
<path d="M205.039 168.641C207.565 168.641 209.613 166.592 209.613 164.064C209.613 161.537 207.565 159.488 205.039 159.488C202.512 159.488 200.464 161.537 200.464 164.064C200.464 166.592 202.512 168.641 205.039 168.641Z" fill="white"/>
<path d="M240.121 165.436C242.648 165.436 244.696 163.387 244.696 160.859C244.696 158.332 242.648 156.283 240.121 156.283C237.595 156.283 235.547 158.332 235.547 160.859C235.547 163.387 237.595 165.436 240.121 165.436Z" fill="white"/>
<path d="M254.74 149.14C257.267 149.14 259.314 147.091 259.314 144.563C259.314 142.036 257.267 139.987 254.74 139.987C252.213 139.987 250.165 142.036 250.165 144.563C250.165 147.091 252.213 149.14 254.74 149.14Z" fill="white"/>
<path d="M267.048 156.514C269.575 156.514 271.623 154.465 271.623 151.938C271.623 149.41 269.575 147.361 267.048 147.361C264.521 147.361 262.474 149.41 262.474 151.938C262.474 154.465 264.521 156.514 267.048 156.514Z" fill="white"/>
<path d="M275.191 168.641C277.717 168.641 279.766 166.592 279.766 164.064C279.766 161.537 277.717 159.488 275.191 159.488C272.664 159.488 270.616 161.537 270.616 164.064C270.616 166.592 272.664 168.641 275.191 168.641Z" fill="white"/>
<path d="M240.121 165.436C242.648 165.436 244.696 163.387 244.696 160.859C244.696 158.332 242.648 156.283 240.121 156.283C237.595 156.283 235.547 158.332 235.547 160.859C235.547 163.387 237.595 165.436 240.121 165.436Z" fill="white"/>
<path d="M241.966 134.762C242.197 134.588 242.403 134.382 242.577 134.151L248.396 137.207V128.626L242.585 130.472C242.416 130.245 242.215 130.042 241.99 129.869L244.329 122.5H235.914L238.253 129.869C238.028 130.041 237.828 130.244 237.658 130.472L231.847 128.626V137.207L237.666 134.151C237.84 134.382 238.046 134.588 238.277 134.762L234.962 144.762C233.795 148.282 236.415 151.913 240.121 151.913C243.828 151.913 246.448 148.282 245.281 144.762L241.966 134.762Z" fill="white"/>
<path d="M246.773 169.975C246.773 169.975 242.524 174.705 241.597 177.591C244.378 177.503 246.876 176.961 249.626 174.089L248.694 184.775C246.163 181.222 243.195 179.69 241.549 179.997C241.716 183.826 242.117 188.452 248.819 189.061C253.495 189.468 257.25 187.17 257.641 184.326C258.104 181.06 255.162 178.899 252.944 182.337C251.209 176.647 256.001 174.756 259.078 178.279C256.709 172.663 256.772 168.674 262.041 164.64C265.822 169.668 265.286 173.824 260.6 178.504C263.651 176.815 268.389 178.592 265.598 184.296C264.14 180.748 261.01 181.541 260.354 184.593C259.916 186.749 261.224 189.286 264.067 189.807C266.4 190.234 269.993 188.64 272.873 182.434C271.254 182.475 269.832 183.294 267.994 184.56L271.014 174.485C271.775 177.313 272.749 179.169 273.78 180.173C274.472 178.138 274.373 176.662 273.754 173.491L279.998 175.715C276.681 180.241 273.468 186.594 270.834 197.688C261.543 196.361 251.144 195.615 240.124 195.615C229.105 195.615 218.705 196.361 209.415 197.688C206.78 186.593 203.567 180.241 200.25 175.715L206.494 173.491C205.874 176.662 205.776 178.138 206.468 180.173C207.499 179.169 208.473 177.313 209.234 174.485L212.254 184.56C210.416 183.293 208.995 182.475 207.375 182.434C210.255 188.64 213.848 190.234 216.181 189.807C219.024 189.286 220.331 186.749 219.894 184.593C219.238 181.541 216.109 180.748 214.65 184.296C211.859 178.592 216.598 176.814 219.649 178.504C214.962 173.824 214.426 169.667 218.207 164.64C223.477 168.673 223.54 172.662 221.17 178.279C224.248 174.757 229.039 176.647 227.304 182.337C225.086 178.899 222.144 181.06 222.608 184.326C222.998 187.17 226.753 189.468 231.429 189.061C238.132 188.452 238.532 183.826 238.699 179.997C237.053 179.69 234.085 181.221 231.554 184.775L230.622 174.089C233.372 176.961 235.872 177.502 238.652 177.591C237.724 174.705 233.476 169.975 233.476 169.975H246.776H246.773Z" fill="white"/>
</g>
<defs>
<clipPath id="clip0_1108_1065">
<rect width="480" height="320" fill="white"/>
</clipPath>
</defs>
</svg>
