<svg width="842" height="570" viewBox="0 0 842 570" fill="none" xmlns="http://www.w3.org/2000/svg">
<path d="M687.236 484.207C725.268 484.207 756.1 453.376 756.1 415.343C756.1 377.311 725.268 346.479 687.236 346.479C649.204 346.479 618.372 377.311 618.372 415.343C618.372 453.376 649.204 484.207 687.236 484.207Z" fill="#00FFE0"/>
<path d="M-9.51774 205.701C20.8221 205.701 48.0355 211.155 72.1226 222.063C96.2097 232.97 116.642 247.852 133.428 266.721C150.206 285.591 163.01 307.781 171.827 333.285C180.643 358.79 185.048 386.149 185.048 415.342C185.048 444.536 180.643 472.145 171.827 497.552C163.01 522.966 150.206 545.157 133.428 564.116C116.649 583.076 96.2097 597.965 72.1226 608.775C48.0425 619.585 20.8221 624.99 -9.51774 624.99C-39.8576 624.99 -67.3142 619.585 -91.297 608.775C-115.287 597.965 -135.671 583.083 -152.449 564.116C-169.234 545.157 -182.032 522.966 -190.848 497.552C-199.665 472.145 -204.076 444.744 -204.076 415.342C-204.076 385.94 -199.665 358.79 -190.848 333.285C-182.032 307.781 -169.234 285.591 -152.449 266.721C-135.671 247.852 -115.287 232.97 -91.297 222.063C-67.3072 211.155 -40.0521 205.701 -9.51774 205.701ZM-9.51774 550.457C8.3096 550.457 24.0041 547.095 37.5587 540.356C51.1133 533.631 62.5489 524.286 71.8308 512.343C81.1266 500.394 88.1436 486.269 92.8818 469.957C97.62 453.651 99.9961 435.824 99.9961 416.482V414.203C99.9961 395.049 97.62 377.27 92.8818 360.867C88.1436 344.464 81.1266 330.284 71.8308 318.341C62.5419 306.398 51.1133 297.061 37.5587 290.322C24.0041 283.597 8.3096 280.227 -9.51774 280.227C-27.3451 280.227 -43.0812 283.597 -56.74 290.322C-70.3919 297.061 -81.8137 306.398 -91.0122 318.341C-100.211 330.284 -107.179 344.471 -111.917 360.867C-116.656 377.27 -119.032 395.049 -119.032 414.203V416.482C-119.032 435.824 -116.656 453.651 -111.917 469.957C-107.179 486.269 -100.211 500.387 -91.0122 512.343C-81.8137 524.286 -70.3919 533.631 -56.74 540.356C-43.0812 547.095 -27.3451 550.457 -9.51774 550.457Z" fill="white"/>
<path d="M330.48 619.294L215.276 211.392H307.727L386.526 518.027H389.367L466.457 211.392H557.761L442.557 619.294H330.487H330.48Z" fill="white"/>
<path d="M-884.557 345.886H1810.46" stroke="#4DA583" stroke-width="2"/>
<path d="M-884.557 484.158H1810.46" stroke="#4DA583" stroke-width="2"/>
<path d="M-884.557 415.022H1810.46" stroke="#4DA583" stroke-width="2"/>
<rect opacity="0.2" x="184.994" y="211.419" width="29.3815" height="482.599" fill="#CFE7DE"/>
<rect opacity="0.2" x="558.625" y="211.419" width="60.0493" height="482.599" fill="#CFE7DE"/>
<path d="M756.1 210.819L756.1 830.022" stroke="#4DA583" stroke-width="2"/>
<path d="M685.769 210.819L685.769 830.022" stroke="#4DA583" stroke-width="2"/>
<path d="M558.625 210.679L558.625 829.881" stroke="#4DA583" stroke-width="2"/>
<path d="M184.994 211.419L184.994 830.022" stroke="#4DA583" stroke-width="2"/>
<path d="M214.376 210.679L214.376 829.282" stroke="#4DA583" stroke-width="2"/>
<path d="M-884.557 210.679H1810.46" stroke="#4DA583" stroke-width="2"/>
<path d="M618.372 210.819L618.372 830.022" stroke="#4DA583" stroke-width="2"/>
</svg>
