<svg width="961" height="641" viewBox="0 0 961 641" fill="none" xmlns="http://www.w3.org/2000/svg">
<rect x="0.284668" y="0.426941" width="960.176" height="640.117" fill="#11875A"/>
<mask id="mask0_489_2407" style="mask-type:alpha" maskUnits="userSpaceOnUse" x="0" y="0" width="961" height="641">
<rect x="0.284668" y="0.426941" width="960.176" height="640.117" fill="#11875A"/>
</mask>
<g mask="url(#mask0_489_2407)">
<path d="M891.597 455.083C929.629 455.083 960.461 424.252 960.461 386.22C960.461 348.187 929.629 317.356 891.597 317.356C853.564 317.356 822.733 348.187 822.733 386.22C822.733 424.252 853.564 455.083 891.597 455.083Z" fill="#00FFE0"/>
<path d="M194.843 176.578C225.183 176.578 252.396 182.032 276.483 192.939C300.571 203.847 321.003 218.728 337.788 237.598C354.567 256.467 367.371 278.658 376.187 304.162C385.004 329.666 389.409 357.025 389.409 386.219C389.409 415.412 385.004 443.022 376.187 468.429C367.371 493.843 354.567 516.033 337.788 534.993C321.01 553.953 300.571 568.841 276.483 579.651C252.403 590.462 225.183 595.867 194.843 595.867C164.503 595.867 137.047 590.462 113.064 579.651C89.074 568.841 68.69 553.96 51.9117 534.993C35.1265 516.033 22.3291 493.843 13.5127 468.429C4.69633 443.022 0.284668 415.621 0.284668 386.219C0.284668 356.817 4.69633 329.666 13.5127 304.162C22.3291 278.658 35.1265 256.467 51.9117 237.598C68.69 218.728 89.074 203.847 113.064 192.939C137.054 182.032 164.309 176.578 194.843 176.578ZM194.843 521.334C212.67 521.334 228.365 517.971 241.92 511.232C255.474 504.507 266.91 495.163 276.192 483.22C285.487 471.27 292.504 457.146 297.243 440.833C301.981 424.527 304.357 406.7 304.357 387.358V385.079C304.357 365.925 301.981 348.147 297.243 331.743C292.504 315.34 285.487 301.161 276.192 289.218C266.903 277.275 255.474 267.938 241.92 261.198C228.365 254.473 212.67 251.104 194.843 251.104C177.016 251.104 161.28 254.473 147.621 261.198C133.969 267.938 122.547 277.275 113.349 289.218C104.15 301.161 97.1818 315.347 92.4435 331.743C87.7053 348.147 85.3293 365.925 85.3293 385.079V387.358C85.3293 406.7 87.7053 424.527 92.4435 440.833C97.1818 457.146 104.15 471.263 113.349 483.22C122.547 495.163 133.969 504.507 147.621 511.232C161.28 517.971 177.016 521.334 194.843 521.334Z" fill="white"/>
<path d="M534.841 590.17L419.637 182.268H512.088L590.886 488.904H593.728L670.818 182.268H762.122L646.918 590.17H534.848H534.841Z" fill="white"/>
<path d="M-680.197 316.762H2014.83" stroke="#4DA583" stroke-width="2"/>
<path d="M-680.197 455.035H2014.83" stroke="#4DA583" stroke-width="2"/>
<path d="M-680.197 385.899H2014.83" stroke="#4DA583" stroke-width="2"/>
<rect opacity="0.2" x="389.355" y="182.296" width="29.3815" height="482.599" fill="#CFE7DE"/>
<rect opacity="0.2" x="762.986" y="182.295" width="60.0493" height="482.599" fill="#CFE7DE"/>
<path d="M960.46 181.696L960.46 800.899" stroke="#4DA583" stroke-width="2"/>
<path d="M890.13 181.696L890.13 800.899" stroke="#4DA583" stroke-width="2"/>
<path d="M762.986 181.555L762.986 800.758" stroke="#4DA583" stroke-width="2"/>
<path d="M0.284668 -29.1027L0.284695 800.898" stroke="#4DA583" stroke-width="2.84247"/>
<path d="M389.355 182.295L389.355 800.898" stroke="#4DA583" stroke-width="2"/>
<path d="M418.737 181.555L418.737 800.158" stroke="#4DA583" stroke-width="2"/>
<path d="M-680.197 181.555H2014.83" stroke="#4DA583" stroke-width="2"/>
<path d="M-680.197 590.847H2014.83" stroke="#4DA583" stroke-width="2"/>
<path d="M822.733 181.696L822.733 800.898" stroke="#4DA583" stroke-width="2"/>
</g>
</svg>
