<svg width="1920" height="1280" viewBox="0 0 1920 1280" fill="none" xmlns="http://www.w3.org/2000/svg">
<g clip-path="url(#clip0_966_1953)">
<rect width="1920" height="1280" fill="white"/>
<path d="M1920 0H0V1280H1920V0Z" fill="#1D70B8"/>
<path d="M1285.13 707.418C1305.41 707.418 1321.84 690.984 1321.84 670.71C1321.84 650.436 1305.41 634.002 1285.13 634.002C1264.86 634.002 1248.43 650.436 1248.43 670.71C1248.43 690.984 1264.86 707.418 1285.13 707.418Z" fill="#00FFE0"/>
<path d="M621.589 671.326C621.589 680.625 622.752 689.572 625.077 698.164C627.4 706.757 630.938 714.337 635.692 720.907C640.444 727.482 646.506 732.761 653.887 736.755C661.267 740.748 670.063 742.747 680.273 742.747C690.483 742.747 698.244 741.18 704.765 738.047C711.284 734.914 716.49 730.994 720.383 726.292C724.271 721.592 727.001 716.514 728.571 711.056C730.138 705.597 730.919 700.542 730.919 695.891V693.768H675.27V660.26H773.679V779.439H735.167V753.964C732.436 758.211 729.048 762.079 725.009 765.567C720.964 769.053 716.416 772.036 711.358 774.51C706.303 776.989 700.766 778.937 694.754 780.351C688.74 781.766 682.345 782.472 675.576 782.472C659.702 782.472 645.601 779.593 633.27 773.83C620.938 768.066 610.549 760.134 602.108 750.023C593.669 739.917 587.25 728.088 582.85 714.541C578.456 700.998 576.255 686.391 576.255 670.718C576.255 655.045 578.707 640.572 583.61 626.977C588.514 613.382 595.487 601.553 604.537 591.494C613.587 581.436 624.5 573.503 637.289 567.689C650.075 561.874 664.404 558.967 680.278 558.967C690.588 558.967 700.37 560.156 709.617 562.53C718.868 564.907 727.309 568.292 734.94 572.688C742.57 577.084 749.317 582.395 755.184 588.609C761.042 594.824 765.799 601.727 769.438 609.308L730.923 630.988C728.596 626.34 725.868 622.018 722.735 618.022C719.598 614.034 715.986 610.593 711.894 607.712C707.798 604.83 703.125 602.557 697.868 600.89C692.61 599.223 686.747 598.386 680.282 598.386C670.07 598.386 661.276 600.386 653.893 604.379C646.513 608.371 640.451 613.652 635.699 620.226C630.947 626.795 627.411 634.402 625.086 643.046C622.759 651.69 621.596 660.615 621.596 669.807V671.326H621.589Z" fill="white"/>
<path d="M913.725 558.96C929.897 558.96 944.405 561.867 957.245 567.682C970.081 573.496 980.977 581.429 989.925 591.488C998.868 601.546 1005.69 613.375 1010.39 626.97C1015.09 640.566 1017.44 655.15 1017.44 670.712C1017.44 686.274 1015.09 700.991 1010.39 714.534C1005.69 728.081 998.868 739.911 989.925 750.017C980.979 760.123 970.084 768.06 957.245 773.823C944.407 779.586 929.897 782.468 913.725 782.468C897.552 782.468 882.916 779.586 870.132 773.823C857.343 768.06 846.477 760.127 837.534 750.017C828.586 739.911 821.764 728.081 817.064 714.534C812.364 700.991 810.014 686.385 810.014 670.712C810.014 655.039 812.364 640.566 817.064 626.97C821.764 613.375 828.586 601.546 837.534 591.488C846.477 581.429 857.343 573.496 870.132 567.682C882.92 561.867 897.448 558.96 913.725 558.96ZM913.725 742.74C923.227 742.74 931.593 740.947 938.82 737.355C946.045 733.77 952.14 728.789 957.089 722.422C962.045 716.053 965.784 708.524 968.31 699.828C970.837 691.136 972.103 681.633 972.103 671.323V670.108C972.103 659.897 970.837 650.42 968.31 641.677C965.784 632.933 962.045 625.374 957.089 619.008C952.138 612.642 946.045 607.664 938.82 604.072C931.593 600.487 923.227 598.691 913.725 598.691C904.223 598.691 895.833 600.487 888.553 604.072C881.276 607.664 875.187 612.642 870.283 619.008C865.38 625.374 861.666 632.937 859.139 641.677C856.613 650.42 855.346 659.897 855.346 670.108V671.323C855.346 681.633 856.613 691.136 859.139 699.828C861.666 708.524 865.38 716.048 870.283 722.422C875.187 728.789 881.276 733.77 888.553 737.355C895.833 740.947 904.223 742.74 913.725 742.74Z" fill="white"/>
<path d="M1094.97 779.432L1033.56 561.995H1082.84L1124.84 725.451H1126.36L1167.45 561.995H1216.12L1154.71 779.432H1094.97H1094.97Z" fill="white"/>
<path d="M1465.18 742.74C1471.54 742.74 1477.48 741.806 1482.99 739.938C1488.5 738.067 1493.25 735.238 1497.24 731.444C1501.23 727.654 1504.4 722.856 1506.72 717.039C1509.04 711.228 1510.21 704.38 1510.21 696.496V561.691H1553.42V703.01C1553.42 715.143 1551.23 726.111 1546.83 735.914C1542.44 745.721 1536.33 754.061 1528.5 760.935C1520.67 767.813 1511.35 773.117 1500.55 776.856C1489.74 780.592 1477.93 782.468 1465.1 782.468C1452.28 782.468 1440.46 780.592 1429.65 776.856C1418.84 773.117 1409.5 767.808 1401.62 760.935C1393.74 754.061 1387.61 745.726 1383.21 735.914C1378.82 726.111 1376.62 715.139 1376.62 703.01V561.691H1420.14V696.492C1420.14 704.377 1421.3 711.224 1423.63 717.034C1425.95 722.854 1429.11 727.649 1433.11 731.442C1437.1 735.233 1441.85 738.063 1447.36 739.933C1452.87 741.804 1458.81 742.736 1465.18 742.736V742.74Z" fill="white"/>
<path d="M1592.43 561.995H1636.4V656.155L1714.03 561.995H1768.17L1692.66 648.422L1773.02 779.432H1721.92L1664.45 681.931L1636.4 713.318V779.432H1592.43V561.995Z" fill="white"/>
<path d="M247.995 596.56C258.105 596.56 266.301 588.364 266.301 578.254C266.301 568.144 258.105 559.948 247.995 559.948C237.884 559.948 229.689 568.144 229.689 578.254C229.689 588.364 237.884 596.56 247.995 596.56Z" fill="white"/>
<path d="M198.748 626.057C208.859 626.057 217.054 617.861 217.054 607.751C217.054 597.641 208.859 589.445 198.748 589.445C188.638 589.445 180.442 597.641 180.442 607.751C180.442 617.861 188.638 626.057 198.748 626.057Z" fill="white"/>
<path d="M166.163 674.563C176.273 674.563 184.47 666.367 184.47 656.257C184.47 646.147 176.273 637.951 166.163 637.951C156.053 637.951 147.857 646.147 147.857 656.257C147.857 666.367 156.053 674.563 166.163 674.563Z" fill="white"/>
<path d="M306.553 661.743C316.663 661.743 324.86 653.547 324.86 643.437C324.86 633.327 316.663 625.131 306.553 625.131C296.443 625.131 288.247 633.327 288.247 643.437C288.247 653.547 296.443 661.743 306.553 661.743Z" fill="white"/>
<path d="M365.051 596.56C375.162 596.56 383.356 588.364 383.356 578.254C383.356 568.144 375.162 559.948 365.051 559.948C354.941 559.948 346.744 568.144 346.744 578.254C346.744 588.364 354.941 596.56 365.051 596.56Z" fill="white"/>
<path d="M414.303 626.057C424.414 626.057 432.611 617.861 432.611 607.751C432.611 597.641 424.414 589.445 414.303 589.445C404.193 589.445 395.998 597.641 395.998 607.751C395.998 617.861 404.193 626.057 414.303 626.057Z" fill="white"/>
<path d="M446.887 674.563C456.998 674.563 465.195 666.367 465.195 656.257C465.195 646.147 456.998 637.951 446.887 637.951C436.777 637.951 428.582 646.147 428.582 656.257C428.582 666.367 436.777 674.563 446.887 674.563Z" fill="white"/>
<path d="M306.553 661.743C316.663 661.743 324.86 653.547 324.86 643.437C324.86 633.327 316.663 625.131 306.553 625.131C296.443 625.131 288.247 633.327 288.247 643.437C288.247 653.547 296.443 661.743 306.553 661.743Z" fill="white"/>
<path d="M313.935 539.048C314.86 538.352 315.684 537.53 316.38 536.604L339.666 548.829V514.506L316.412 521.886C315.736 520.979 314.93 520.168 314.03 519.476L323.39 490H289.718L299.077 519.476C298.177 520.165 297.377 520.976 296.695 521.886L273.441 514.506V548.829L296.729 536.604C297.425 537.53 298.247 538.352 299.173 539.048L285.907 579.049C281.237 593.13 291.722 607.651 306.554 607.651C321.386 607.651 331.872 593.13 327.201 579.049L313.935 539.048Z" fill="white"/>
<path d="M333.17 679.899C333.17 679.899 316.168 698.82 312.456 710.363C323.584 710.012 333.584 707.845 344.588 696.357L340.858 739.099C330.73 724.887 318.852 718.762 312.266 719.988C312.933 735.305 314.537 753.808 341.358 756.246C360.07 757.872 375.096 748.68 376.659 737.305C378.514 724.24 366.741 715.596 357.865 729.35C350.923 706.59 370.097 699.023 382.411 713.115C372.929 690.654 373.182 674.695 394.27 658.56C409.397 678.673 407.253 695.298 388.5 714.015C400.709 707.26 419.671 714.367 408.501 737.183C402.668 722.992 390.144 726.163 387.518 738.373C385.765 746.997 390.999 757.146 402.376 759.227C411.713 760.937 426.09 754.561 437.614 729.737C431.134 729.902 425.445 733.177 418.089 738.239L430.177 697.942C433.221 709.252 437.118 716.677 441.244 720.692C444.015 712.552 443.617 706.649 441.14 693.965L466.127 702.86C452.854 720.965 439.996 746.375 429.453 790.751C392.277 785.444 350.661 782.461 306.564 782.461C262.47 782.461 220.851 785.446 183.675 790.751C173.132 746.373 160.273 720.963 147 702.86L171.987 693.965C169.506 706.649 169.114 712.552 171.884 720.692C176.009 716.677 179.905 709.252 182.95 697.942L195.038 738.239C187.683 733.173 181.994 729.902 175.513 729.737C187.038 754.561 201.415 760.935 210.752 759.227C222.128 757.146 227.358 746.997 225.61 738.373C222.984 726.163 210.463 722.992 204.626 737.183C193.456 714.367 212.418 707.256 224.628 714.015C205.874 695.298 203.726 678.669 218.858 658.56C239.946 674.692 240.198 690.65 230.717 713.115C243.031 699.027 262.204 706.59 255.263 729.35C246.386 715.596 234.613 724.24 236.468 737.305C238.031 748.682 253.056 757.874 271.77 756.246C298.59 753.808 300.194 735.305 300.86 719.988C294.276 718.762 282.399 724.885 272.27 739.099L268.54 696.357C279.543 707.845 289.546 710.008 300.671 710.363C296.961 698.82 279.958 679.899 279.958 679.899H333.184H333.17Z" fill="white"/>
</g>
<defs>
<clipPath id="clip0_966_1953">
<rect width="1920" height="1280" fill="white"/>
</clipPath>
</defs>
</svg>
