<svg width="747" height="134" viewBox="0 0 747 134" fill="none" xmlns="http://www.w3.org/2000/svg">
<rect x="0.476562" y="0.577148" width="745.587" height="132.966" fill="#1D70B8"/>
<path d="M530.362 96.7008C539.325 96.7008 546.592 89.4347 546.592 80.4715C546.592 71.5083 539.325 64.2422 530.362 64.2422C521.399 64.2422 514.133 71.5083 514.133 80.4715C514.133 89.4347 521.399 96.7008 530.362 96.7008Z" fill="#00FFE0"/>
<path d="M237 80.7436C237 84.855 237.514 88.8108 238.542 92.6094C239.569 96.4081 241.133 99.7597 243.235 102.664C245.336 105.571 248.016 107.905 251.279 109.671C254.542 111.436 258.431 112.32 262.945 112.32C267.459 112.32 270.89 111.627 273.773 110.242C276.655 108.857 278.957 107.124 280.678 105.045C282.397 102.967 283.604 100.722 284.298 98.309C284.991 95.8956 285.336 93.6606 285.336 91.6041V90.6659H260.733V75.8513H304.241V128.542H287.214V117.279C286.007 119.157 284.509 120.867 282.723 122.409C280.935 123.95 278.924 125.269 276.688 126.363C274.453 127.459 272.005 128.32 269.347 128.945C266.688 129.571 263.861 129.883 260.868 129.883C253.85 129.883 247.616 128.61 242.164 126.062C236.712 123.514 232.119 120.007 228.387 115.537C224.656 111.069 221.818 105.839 219.873 99.8497C217.93 93.862 216.957 87.4043 216.957 80.4751C216.957 73.5459 218.041 67.1472 220.209 61.1365C222.377 55.1258 225.46 49.8961 229.461 45.4491C233.462 41.0021 238.287 37.4949 243.941 34.9243C249.594 32.3537 255.929 31.0684 262.947 31.0684C267.505 31.0684 271.83 31.5939 275.918 32.6435C280.008 33.6947 283.74 35.1912 287.114 37.1347C290.487 39.0782 293.47 41.4262 296.064 44.1736C298.654 46.9211 300.757 49.9731 302.366 53.3247L285.338 62.9097C284.309 60.8548 283.103 58.9441 281.718 57.1774C280.331 55.414 278.734 53.8929 276.925 52.619C275.114 51.3452 273.048 50.3399 270.724 49.603C268.399 48.8662 265.807 48.4962 262.949 48.4962C258.434 48.4962 254.546 49.3804 251.282 51.1454C248.019 52.9105 245.339 55.2453 243.238 58.1516C241.137 61.0562 239.574 64.4193 238.546 68.2409C237.517 72.0624 237.003 76.0084 237.003 80.0723V80.7436H237Z" fill="white"/>
<path d="M366.157 31.0654C373.307 31.0654 379.721 32.3507 385.398 34.9214C391.073 37.492 395.89 40.9992 399.846 45.4462C403.8 49.8932 406.817 55.1229 408.895 61.1335C410.973 67.1442 412.011 73.5921 412.011 80.4722C412.011 87.3523 410.973 93.8591 408.895 99.8468C406.817 105.836 403.8 111.066 399.846 115.534C395.891 120.002 391.074 123.511 385.398 126.059C379.722 128.607 373.307 129.881 366.157 129.881C359.007 129.881 352.536 128.607 346.884 126.059C341.23 123.511 336.426 120.004 332.472 115.534C328.516 111.066 325.5 105.836 323.422 99.8468C321.344 93.8591 320.305 87.4014 320.305 80.4722C320.305 73.543 321.344 67.1442 323.422 61.1335C325.5 55.1229 328.516 49.8932 332.472 45.4462C336.426 40.9992 341.23 37.492 346.884 34.9214C352.538 32.3507 358.961 31.0654 366.157 31.0654ZM366.157 112.317C370.358 112.317 374.057 111.524 377.252 109.936C380.446 108.351 383.141 106.149 385.329 103.334C387.52 100.518 389.173 97.1894 390.29 93.3449C391.407 89.5021 391.967 85.3007 391.967 80.7423V80.2053C391.967 75.6911 391.407 71.5012 390.29 67.6354C389.173 63.7697 387.52 60.4279 385.329 57.6133C383.14 54.7987 380.446 52.5981 377.252 51.0099C374.057 49.4249 370.358 48.6308 366.157 48.6308C361.956 48.6308 358.247 49.4249 355.028 51.0099C351.811 52.5981 349.119 54.7987 346.951 57.6133C344.783 60.4279 343.141 63.7713 342.024 67.6354C340.907 71.5012 340.347 75.6911 340.347 80.2053V80.7423C340.347 85.3007 340.907 89.5021 342.024 93.3449C343.141 97.1894 344.783 100.516 346.951 103.334C349.119 106.149 351.811 108.351 355.028 109.936C358.247 111.524 361.956 112.317 366.157 112.317Z" fill="white"/>
<path d="M446.286 128.539L419.136 32.4072H440.924L459.495 104.673H460.164L478.332 32.4072H499.851L472.7 128.539H446.288H446.286Z" fill="white"/>
<path d="M609.961 112.317C612.776 112.317 615.402 111.904 617.837 111.078C620.273 110.251 622.374 109 624.139 107.323C625.902 105.647 627.301 103.526 628.329 100.954C629.356 98.385 629.87 95.3575 629.87 91.8716V32.2725H648.976V94.7517C648.976 100.116 648.005 104.965 646.063 109.299C644.121 113.635 641.42 117.322 637.958 120.361C634.497 123.402 630.377 125.747 625.601 127.4C620.823 129.052 615.599 129.881 609.929 129.881C604.258 129.881 599.032 129.052 594.256 127.4C589.476 125.747 585.347 123.4 581.863 120.361C578.378 117.322 575.667 113.637 573.723 109.299C571.782 104.965 570.811 100.114 570.811 94.7517V32.2725H590.051V91.87C590.051 95.3559 590.565 98.3833 591.592 100.952C592.62 103.525 594.017 105.645 595.782 107.322C597.547 108.998 599.648 110.249 602.084 111.076C604.52 111.903 607.147 112.315 609.961 112.315V112.317Z" fill="white"/>
<path d="M666.22 32.4072H685.662V74.0366L719.985 32.4072H743.919L710.533 70.6178L746.063 128.539H723.473L698.065 85.4325L685.662 99.3089V128.539H666.22V32.4072Z" fill="white"/>
<path d="M71.8288 47.6887C76.2986 47.6887 79.9222 44.0652 79.9222 39.5953C79.9222 35.1255 76.2986 31.502 71.8288 31.502C67.3589 31.502 63.7354 35.1255 63.7354 39.5953C63.7354 44.0652 67.3589 47.6887 71.8288 47.6887Z" fill="white"/>
<path d="M50.0563 60.7297C54.5262 60.7297 58.1497 57.1062 58.1497 52.6363C58.1497 48.1665 54.5262 44.543 50.0563 44.543C45.5864 44.543 41.9629 48.1665 41.9629 52.6363C41.9629 57.1062 45.5864 60.7297 50.0563 60.7297Z" fill="white"/>
<path d="M35.6501 82.175C40.1199 82.175 43.7435 78.5515 43.7435 74.0817C43.7435 69.6118 40.1199 65.9883 35.6501 65.9883C31.1802 65.9883 27.5566 69.6118 27.5566 74.0817C27.5566 78.5515 31.1802 82.175 35.6501 82.175Z" fill="white"/>
<path d="M97.7184 76.5071C102.188 76.5071 105.812 72.8835 105.812 68.4137C105.812 63.9438 102.188 60.3203 97.7184 60.3203C93.2485 60.3203 89.625 63.9438 89.625 68.4137C89.625 72.8835 93.2485 76.5071 97.7184 76.5071Z" fill="white"/>
<path d="M123.581 47.6887C128.051 47.6887 131.674 44.0652 131.674 39.5953C131.674 35.1255 128.051 31.502 123.581 31.502C119.111 31.502 115.487 35.1255 115.487 39.5953C115.487 44.0652 119.111 47.6887 123.581 47.6887Z" fill="white"/>
<path d="M145.356 60.7297C149.826 60.7297 153.45 57.1062 153.45 52.6363C153.45 48.1665 149.826 44.543 145.356 44.543C140.886 44.543 137.263 48.1665 137.263 52.6363C137.263 57.1062 140.886 60.7297 145.356 60.7297Z" fill="white"/>
<path d="M159.762 82.175C164.232 82.175 167.856 78.5515 167.856 74.0817C167.856 69.6118 164.232 65.9883 159.762 65.9883C155.292 65.9883 151.669 69.6118 151.669 74.0817C151.669 78.5515 155.292 82.175 159.762 82.175Z" fill="white"/>
<path d="M97.7184 76.5071C102.188 76.5071 105.812 72.8835 105.812 68.4137C105.812 63.9438 102.188 60.3203 97.7184 60.3203C93.2485 60.3203 89.625 63.9438 89.625 68.4137C89.625 72.8835 93.2485 76.5071 97.7184 76.5071Z" fill="white"/>
<path d="M100.982 22.2621C101.391 21.9543 101.755 21.5908 102.063 21.1814L112.358 26.5863V11.4114L102.077 14.6746C101.778 14.2735 101.422 13.9149 101.024 13.6087L105.162 0.577148H90.2753L94.4128 13.6087C94.015 13.9133 93.6613 14.2719 93.36 14.6746L83.0791 11.4114V26.5863L93.3748 21.1814C93.6826 21.5908 94.0461 21.9543 94.4554 22.2621L88.5904 39.947C86.5257 46.1722 91.1611 52.5922 97.7187 52.5922C104.276 52.5922 108.912 46.1722 106.847 39.947L100.982 22.2621Z" fill="white"/>
<path d="M109.486 84.534C109.486 84.534 101.969 92.8991 100.328 98.0027C105.248 97.8472 109.669 96.8893 114.534 91.8103L112.885 110.707C108.407 104.424 103.156 101.716 100.244 102.258C100.539 109.03 101.248 117.21 113.106 118.288C121.379 119.007 128.022 114.943 128.713 109.914C129.533 104.138 124.328 100.316 120.404 106.397C117.335 96.3343 125.812 92.9892 131.256 99.2193C127.064 89.2888 127.176 82.2335 136.499 75.0996C143.187 83.992 142.239 91.342 133.948 99.6171C139.346 96.6306 147.729 99.7727 142.791 109.86C140.212 103.586 134.675 104.988 133.514 110.386C132.739 114.199 135.053 118.686 140.083 119.606C144.211 120.362 150.567 117.543 155.662 106.568C152.797 106.641 150.282 108.089 147.03 110.327L152.374 92.5111C153.72 97.5115 155.443 100.794 157.267 102.569C158.492 98.9704 158.316 96.3605 157.221 90.7526L168.268 94.6855C162.4 102.69 156.715 113.924 152.054 133.543C135.618 131.197 117.219 129.878 97.723 129.878C78.2287 129.878 59.8281 131.198 43.3924 133.543C38.7309 113.923 33.046 102.689 27.1777 94.6855L38.2249 90.7526C37.1279 96.3605 36.9544 98.9704 38.1791 102.569C40.0031 100.794 41.7256 97.5115 43.0715 92.5111L48.4158 110.327C45.164 108.087 42.6491 106.641 39.7837 106.568C44.8791 117.543 51.2353 120.361 55.3631 119.606C60.393 118.686 62.705 114.199 61.9321 110.386C60.7712 104.988 55.2354 103.586 52.6549 109.86C47.7167 99.7727 56.0999 96.629 61.4982 99.6171C53.2067 91.342 52.257 83.9904 58.9472 75.0996C68.2703 82.2319 68.3817 89.2872 64.19 99.2193C69.6342 92.9908 78.1108 96.3343 75.0424 106.397C71.1177 100.316 65.9125 104.138 66.7328 109.914C67.4238 114.944 74.0665 119.008 82.3401 118.288C94.1978 117.21 94.9067 109.03 95.2014 102.258C92.2902 101.716 87.0393 104.423 82.5611 110.707L80.9123 91.8103C85.7769 96.8893 90.1993 97.8455 95.1179 98.0027C93.4773 92.8991 85.9602 84.534 85.9602 84.534H109.492H109.486Z" fill="white"/>
</svg>
