<svg width="480" height="320" viewBox="0 0 480 320" fill="none" xmlns="http://www.w3.org/2000/svg">
<g clip-path="url(#clip0_1108_1040)">
<rect width="480" height="320" fill="white"/>
<path d="M480 0H0V320H480V0Z" fill="#1D70B8"/>
<path d="M321.283 176.855C326.352 176.855 330.461 172.746 330.461 167.677C330.461 162.609 326.352 158.5 321.283 158.5C316.215 158.5 312.106 162.609 312.106 167.677C312.106 172.746 316.215 176.855 321.283 176.855Z" fill="#00FFE0"/>
<path d="M155.397 167.831C155.397 170.156 155.688 172.393 156.269 174.541C156.85 176.689 157.734 178.584 158.923 180.227C160.111 181.87 161.626 183.19 163.471 184.189C165.317 185.187 167.516 185.687 170.068 185.687C172.621 185.687 174.561 185.295 176.191 184.512C177.821 183.729 179.122 182.749 180.096 181.573C181.068 180.398 181.75 179.128 182.143 177.764C182.534 176.399 182.729 175.136 182.729 173.973V173.442H168.817V165.065H193.42V194.86H183.791V188.491C183.109 189.553 182.262 190.52 181.252 191.392C180.241 192.263 179.104 193.009 177.839 193.628C176.575 194.247 175.191 194.734 173.688 195.088C172.185 195.442 170.586 195.618 168.894 195.618C164.925 195.618 161.4 194.898 158.317 193.457C155.234 192.017 152.637 190.033 150.527 187.506C148.417 184.979 146.812 182.022 145.712 178.635C144.614 175.249 144.063 171.598 144.063 167.68C144.063 163.761 144.676 160.143 145.902 156.744C147.128 153.345 148.872 150.388 151.134 147.874C153.396 145.359 156.125 143.376 159.322 141.922C162.519 140.469 166.101 139.742 170.069 139.742C172.647 139.742 175.092 140.039 177.404 140.632C179.717 141.227 181.827 142.073 183.735 143.172C185.642 144.271 187.329 145.599 188.796 147.152C190.26 148.706 191.45 150.432 192.359 152.327L182.731 157.747C182.149 156.585 181.467 155.505 180.684 154.506C179.899 153.508 178.996 152.648 177.973 151.928C176.949 151.208 175.781 150.639 174.467 150.222C173.152 149.806 171.686 149.597 170.07 149.597C167.517 149.597 165.319 150.097 163.473 151.095C161.628 152.093 160.113 153.413 158.924 155.056C157.736 156.699 156.853 158.601 156.271 160.762C155.689 162.922 155.399 165.154 155.399 167.452V167.831H155.397Z" fill="white"/>
<path d="M228.432 139.74C232.475 139.74 236.102 140.467 239.312 141.92C242.521 143.374 245.245 145.357 247.482 147.872C249.717 150.387 251.423 153.344 252.599 156.743C253.774 160.141 254.361 163.787 254.361 167.678C254.361 171.568 253.774 175.248 252.599 178.634C251.423 182.02 249.717 184.978 247.482 187.504C245.245 190.031 242.521 192.015 239.312 193.456C236.102 194.896 232.475 195.617 228.432 195.617C224.389 195.617 220.729 194.896 217.533 193.456C214.336 192.015 211.62 190.032 209.384 187.504C207.147 184.978 205.442 182.02 204.266 178.634C203.091 175.248 202.504 171.596 202.504 167.678C202.504 163.76 203.091 160.141 204.266 156.743C205.442 153.344 207.147 150.387 209.384 147.872C211.62 145.357 214.336 143.374 217.533 141.92C220.731 140.467 224.363 139.74 228.432 139.74ZM228.432 185.685C230.807 185.685 232.899 185.237 234.705 184.339C236.512 183.442 238.036 182.197 239.273 180.605C240.512 179.013 241.446 177.131 242.078 174.957C242.71 172.784 243.026 170.408 243.026 167.831V167.527C243.026 164.974 242.71 162.605 242.078 160.419C241.446 158.233 240.512 156.344 239.273 154.752C238.035 153.16 236.512 151.916 234.705 151.018C232.899 150.122 230.807 149.673 228.432 149.673C226.056 149.673 223.959 150.122 222.139 151.018C220.319 151.916 218.797 153.16 217.571 154.752C216.345 156.344 215.417 158.234 214.785 160.419C214.154 162.605 213.837 164.974 213.837 167.527V167.831C213.837 170.408 214.154 172.784 214.785 174.957C215.417 177.131 216.345 179.012 217.571 180.605C218.797 182.197 220.319 183.442 222.139 184.339C223.959 185.237 226.056 185.685 228.432 185.685Z" fill="white"/>
<path d="M273.741 194.858L258.389 140.499H270.709L281.21 181.363H281.589L291.862 140.499H304.03L288.677 194.858H273.742H273.741Z" fill="white"/>
<path d="M366.294 185.685C367.886 185.685 369.371 185.451 370.748 184.984C372.125 184.517 373.313 183.809 374.311 182.861C375.308 181.913 376.099 180.714 376.681 179.26C377.261 177.807 377.552 176.095 377.552 174.124V140.423H388.356V175.752C388.356 178.786 387.807 181.528 386.709 183.978C385.611 186.43 384.083 188.515 382.126 190.234C380.169 191.953 377.839 193.279 375.138 194.214C372.436 195.148 369.482 195.617 366.276 195.617C363.069 195.617 360.114 195.148 357.414 194.214C354.711 193.279 352.376 191.952 350.406 190.234C348.435 188.515 346.902 186.431 345.803 183.978C344.705 181.528 344.156 178.785 344.156 175.752V140.423H355.036V174.123C355.036 176.094 355.326 177.806 355.907 179.259C356.488 180.713 357.278 181.912 358.276 182.861C359.275 183.808 360.463 184.516 361.84 184.983C363.218 185.451 364.703 185.684 366.294 185.684V185.685Z" fill="white"/>
<path d="M398.106 140.499H409.1V164.039L428.509 140.499H442.043L423.164 162.106L443.255 194.858H430.481L416.114 170.483L409.1 178.329V194.858H398.106V140.499Z" fill="white"/>
<path d="M61.9984 149.14C64.5259 149.14 66.575 147.091 66.575 144.563C66.575 142.036 64.5259 139.987 61.9984 139.987C59.4708 139.987 57.4219 142.036 57.4219 144.563C57.4219 147.091 59.4708 149.14 61.9984 149.14Z" fill="white"/>
<path d="M76.6381 165.436C79.1655 165.436 81.2147 163.387 81.2147 160.859C81.2147 158.332 79.1655 156.283 76.6381 156.283C74.1105 156.283 72.0615 158.332 72.0615 160.859C72.0615 163.387 74.1105 165.436 76.6381 165.436Z" fill="white"/>
<path d="M49.6869 156.514C52.2145 156.514 54.2634 154.465 54.2634 151.938C54.2634 149.41 52.2145 147.361 49.6869 147.361C47.1593 147.361 45.1104 149.41 45.1104 151.938C45.1104 154.465 47.1593 156.514 49.6869 156.514Z" fill="white"/>
<path d="M41.5414 168.641C44.069 168.641 46.118 166.592 46.118 164.064C46.118 161.537 44.069 159.488 41.5414 159.488C39.0139 159.488 36.9648 161.537 36.9648 164.064C36.9648 166.592 39.0139 168.641 41.5414 168.641Z" fill="white"/>
<path d="M91.2624 149.14C93.7901 149.14 95.8387 147.091 95.8387 144.563C95.8387 142.036 93.7901 139.987 91.2624 139.987C88.7348 139.987 86.6855 142.036 86.6855 144.563C86.6855 147.091 88.7348 149.14 91.2624 149.14Z" fill="white"/>
<path d="M103.576 156.514C106.104 156.514 108.153 154.465 108.153 151.938C108.153 149.41 106.104 147.361 103.576 147.361C101.049 147.361 99 149.41 99 151.938C99 154.465 101.049 156.514 103.576 156.514Z" fill="white"/>
<path d="M111.722 168.641C114.249 168.641 116.299 166.592 116.299 164.064C116.299 161.537 114.249 159.488 111.722 159.488C109.194 159.488 107.146 161.537 107.146 164.064C107.146 166.592 109.194 168.641 111.722 168.641Z" fill="white"/>
<path d="M76.6381 165.436C79.1655 165.436 81.2147 163.387 81.2147 160.859C81.2147 158.332 79.1655 156.283 76.6381 156.283C74.1105 156.283 72.0615 158.332 72.0615 160.859C72.0615 163.387 74.1105 165.436 76.6381 165.436Z" fill="white"/>
<path d="M78.4838 134.762C78.7151 134.588 78.9209 134.382 79.0951 134.151L84.9166 137.207V128.626L79.103 130.472C78.9339 130.245 78.7326 130.042 78.5076 129.869L80.8475 122.5H72.4296L74.7692 129.869C74.5442 130.041 74.3442 130.244 74.1738 130.472L68.3604 128.626V137.207L74.1822 134.151C74.3563 134.382 74.5618 134.588 74.7933 134.762L71.4768 144.762C70.3093 148.282 72.9304 151.913 76.6385 151.913C80.3465 151.913 82.968 148.282 81.8003 144.762L78.4838 134.762Z" fill="white"/>
<path d="M83.2925 169.975C83.2925 169.975 79.0419 174.705 78.114 177.591C80.8961 177.503 83.396 176.961 86.147 174.089L85.2145 184.775C82.6824 181.222 79.7131 179.691 78.0665 179.997C78.2333 183.826 78.6342 188.452 85.3395 189.061C90.0176 189.468 93.774 187.17 94.1647 184.326C94.6284 181.06 91.6852 178.899 89.4663 182.337C87.7309 176.647 92.5243 174.756 95.6027 178.279C93.2323 172.663 93.2956 168.674 98.5674 164.64C102.349 169.668 101.813 173.824 97.1249 178.504C100.177 176.815 104.918 178.592 102.125 184.296C100.667 180.748 97.536 181.541 96.8795 184.593C96.4413 186.749 97.7498 189.287 100.594 189.807C102.928 190.234 106.522 188.64 109.403 182.434C107.783 182.475 106.361 183.294 104.522 184.56L107.544 174.485C108.305 177.313 109.28 179.169 110.311 180.173C111.004 178.138 110.904 176.662 110.285 173.491L116.532 175.715C113.214 180.241 109.999 186.594 107.363 197.688C98.0693 196.361 87.6653 195.615 76.6409 195.615C65.6176 195.615 55.2127 196.362 45.9189 197.688C43.2829 186.593 40.0683 180.241 36.75 175.715L42.9968 173.491C42.3765 176.662 42.2784 178.138 42.9709 180.173C44.0023 179.169 44.9763 177.313 45.7374 174.485L48.7594 184.56C46.9206 183.293 45.4985 182.475 43.8783 182.434C46.7595 188.64 50.3537 190.234 52.6879 189.807C55.5321 189.287 56.8395 186.749 56.4024 184.593C55.746 181.541 52.6157 180.748 51.1565 184.296C48.3641 178.592 53.1045 176.814 56.1571 178.504C51.4685 173.824 50.9315 169.667 54.7146 164.64C59.9865 168.673 60.0494 172.662 57.6792 178.279C60.7577 174.757 65.5509 176.647 63.8158 182.337C61.5966 178.899 58.6532 181.06 59.1171 184.326C59.5078 187.171 63.264 189.469 67.9424 189.061C74.6476 188.452 75.0484 183.826 75.2151 179.997C73.5689 179.691 70.5997 181.221 68.0674 184.775L67.1351 174.089C69.8858 176.961 72.3866 177.502 75.1679 177.591C74.2402 174.705 69.9895 169.975 69.9895 169.975H83.2959H83.2925Z" fill="white"/>
</g>
<defs>
<clipPath id="clip0_1108_1040">
<rect width="480" height="320" fill="white"/>
</clipPath>
</defs>
</svg>
