<svg width="747" height="134" viewBox="0 0 747 134" fill="none" xmlns="http://www.w3.org/2000/svg">
<rect x="0.476562" y="0.655273" width="745.587" height="132.966" fill="#1D70B8"/>
<path d="M340.76 96.7789C349.723 96.7789 356.989 89.5128 356.989 80.5496C356.989 71.5864 349.723 64.3203 340.76 64.3203C331.796 64.3203 324.53 71.5864 324.53 80.5496C324.53 89.5128 331.796 96.7789 340.76 96.7789Z" fill="#00FFE0"/>
<path d="M47.3973 80.8218C47.3973 84.9331 47.9114 88.8889 48.9397 92.6876C49.9663 96.4862 51.53 99.8378 53.6323 102.742C55.733 105.649 58.4134 107.984 61.6766 109.749C64.9399 111.514 68.8286 112.398 73.3427 112.398C77.8569 112.398 81.2872 111.705 84.1705 110.32C87.0523 108.935 89.3544 107.203 91.0753 105.123C92.7945 103.045 94.0012 100.801 94.6954 98.3871C95.388 95.9737 95.7335 93.7387 95.7335 91.6822V90.744H71.1307V75.9294H114.638V128.621H97.6116V117.357C96.4048 119.235 94.9067 120.945 93.1203 122.487C91.3323 124.028 89.3217 125.348 87.085 126.441C84.8501 127.537 82.4022 128.398 79.7448 129.023C77.0857 129.649 74.258 129.962 71.265 129.962C64.2473 129.962 58.0139 128.688 52.5615 126.14C47.1091 123.592 42.5164 120.085 38.7848 115.615C35.0533 111.147 32.2158 105.917 30.2706 99.9279C28.3271 93.9401 27.3545 87.4824 27.3545 80.5532C27.3545 73.624 28.4384 67.2253 30.6063 61.2146C32.7741 55.2039 35.8573 49.9743 39.8589 45.5272C43.859 41.0802 48.6843 37.573 54.338 35.0024C59.9918 32.4318 66.3267 31.1465 73.3444 31.1465C77.9028 31.1465 82.227 31.6721 86.3155 32.7216C90.4056 33.7728 94.1371 35.2693 97.5117 37.2128C100.885 39.1564 103.868 41.5043 106.461 44.2518C109.052 46.9992 111.154 50.0512 112.764 53.4029L95.7352 62.9878C94.7069 60.933 93.5002 59.0222 92.115 57.2555C90.7281 55.4921 89.1317 53.971 87.3224 52.6972C85.5115 51.4233 83.4452 50.418 81.1218 49.6812C78.7968 48.9444 76.2048 48.5743 73.346 48.5743C68.8319 48.5743 64.9431 49.4585 61.6799 51.2235C58.4167 52.9886 55.7363 55.3234 53.6356 58.2297C51.5349 61.1344 49.9712 64.4975 48.943 68.319C47.9147 72.1406 47.4006 76.0866 47.4006 80.1504V80.8218H47.3973Z" fill="white"/>
<path d="M176.555 31.1436C183.705 31.1436 190.118 32.4289 195.795 34.9995C201.47 37.5701 206.287 41.0773 210.243 45.5243C214.197 49.9713 217.215 55.201 219.293 61.2117C221.37 67.2223 222.409 73.6702 222.409 80.5503C222.409 87.4304 221.37 93.9372 219.293 99.925C217.215 105.914 214.197 111.144 210.243 115.612C206.289 120.081 201.472 123.589 195.795 126.137C190.12 128.685 183.705 129.959 176.555 129.959C169.404 129.959 162.933 128.685 157.281 126.137C151.627 123.589 146.823 120.082 142.869 115.612C138.913 111.144 135.897 105.914 133.82 99.925C131.742 93.9372 130.702 87.4795 130.702 80.5503C130.702 73.6211 131.742 67.2223 133.82 61.2117C135.897 55.201 138.913 49.9713 142.869 45.5243C146.823 41.0773 151.627 37.5701 157.281 34.9995C162.935 32.4289 169.358 31.1436 176.555 31.1436ZM176.555 112.395C180.756 112.395 184.455 111.602 187.649 110.014C190.844 108.429 193.539 106.227 195.726 103.412C197.917 100.596 199.571 97.2675 200.687 93.4231C201.804 89.5802 202.364 85.3788 202.364 80.8205V80.2834C202.364 75.7693 201.804 71.5793 200.687 67.7135C199.571 63.8478 197.917 60.506 195.726 57.6914C193.537 54.8768 190.844 52.6762 187.649 51.088C184.455 49.5031 180.756 48.7089 176.555 48.7089C172.353 48.7089 168.644 49.5031 165.425 51.088C162.208 52.6762 159.516 54.8768 157.348 57.6914C155.181 60.506 153.538 63.8494 152.422 67.7135C151.305 71.5793 150.745 75.7693 150.745 80.2834V80.8205C150.745 85.3788 151.305 89.5802 152.422 93.4231C153.538 97.2675 155.181 100.595 157.348 103.412C159.516 106.227 162.208 108.429 165.425 110.014C168.644 111.602 172.353 112.395 176.555 112.395Z" fill="white"/>
<path d="M256.684 128.617L229.533 32.4854H251.321L269.892 104.751H270.562L288.73 32.4854H310.248L283.097 128.617H256.685H256.684Z" fill="white"/>
<path d="M420.359 112.395C423.173 112.395 425.8 111.983 428.234 111.156C430.671 110.329 432.771 109.078 434.536 107.401C436.3 105.725 437.698 103.604 438.726 101.032C439.753 98.4631 440.267 95.4357 440.267 91.9498V32.3506H459.373V94.8298C459.373 100.194 458.403 105.044 456.461 109.378C454.519 113.713 451.817 117.401 448.356 120.439C444.894 123.48 440.775 125.825 435.999 127.478C431.221 129.13 425.996 129.959 420.326 129.959C414.656 129.959 409.429 129.13 404.653 127.478C399.874 125.825 395.744 123.478 392.26 120.439C388.776 117.401 386.064 113.715 384.121 109.378C382.179 105.044 381.208 100.192 381.208 94.8298V32.3506H400.449V91.9481C400.449 95.434 400.963 98.4615 401.989 101.03C403.018 103.603 404.414 105.723 406.179 107.4C407.944 109.076 410.045 110.327 412.481 111.154C414.918 111.981 417.544 112.394 420.359 112.394V112.395Z" fill="white"/>
<path d="M476.617 32.4854H496.059V74.1147L530.383 32.4854H554.316L520.93 70.696L556.461 128.617H533.87L508.462 85.5106L496.059 99.3871V128.617H476.617V32.4854Z" fill="white"/>
</svg>
