<svg width="961" height="641" viewBox="0 0 961 641" fill="none" xmlns="http://www.w3.org/2000/svg">
<rect x="0.814941" y="0.0888672" width="960.176" height="640.117" fill="#54319F"/>
<circle cx="108.362" cy="532.658" r="107.548" transform="rotate(90 108.362 532.658)" fill="#2A1950"/>
<circle cx="108.362" cy="317.563" r="107.548" transform="rotate(90 108.362 317.563)" fill="#3F2577"/>
<circle cx="323.458" cy="532.658" r="107.548" transform="rotate(90 323.458 532.658)" fill="#3F2577"/>
<circle cx="323.458" cy="317.563" r="107.548" transform="rotate(90 323.458 317.563)" fill="#2A1950"/>
<circle cx="538.553" cy="532.658" r="107.548" transform="rotate(90 538.553 532.658)" fill="#2A1950"/>
<circle cx="538.553" cy="317.563" r="107.548" transform="rotate(90 538.553 317.563)" fill="#2A1950"/>
<circle cx="753.649" cy="532.658" r="107.548" transform="rotate(90 753.649 532.658)" fill="#2A1950"/>
<circle cx="753.649" cy="317.563" r="107.548" transform="rotate(90 753.649 317.563)" fill="#BA4AFF"/>
<path d="M779.079 183.448L794.884 199.253C795.773 200.141 795.773 201.581 794.884 202.47L789.082 208.271C788.194 209.16 786.754 209.16 785.865 208.271L770.061 192.467C769.172 191.578 769.172 190.138 770.061 189.25L775.862 183.448C776.751 182.559 778.191 182.559 779.079 183.448Z" fill="white"/>
<path d="M798.736 182.273L796.062 179.599C794.175 177.712 791.108 177.712 789.221 179.599L774.882 193.937L784.397 203.452L798.736 189.114C800.623 187.226 800.623 184.16 798.736 182.273Z" fill="white"/>
<path fill-rule="evenodd" clip-rule="evenodd" d="M789.357 202.77L775.565 188.978L749.634 215.323C749.634 215.323 749.634 215.323 749.634 215.323C748.894 216.074 748.389 217.023 748.179 218.052L747.246 222.635C747.246 222.635 747.246 222.635 747.246 222.635C747.16 223.055 746.96 223.438 746.67 223.742L746.664 223.749L742.844 227.85C741.343 229.438 741.375 231.937 742.924 233.486L744.849 235.411C746.396 236.958 748.894 236.994 750.484 235.491L754.586 231.671L754.592 231.665C754.897 231.375 755.279 231.175 755.699 231.089C755.699 231.089 755.699 231.089 755.699 231.089L760.281 230.156L760.286 230.155C761.314 229.943 762.261 229.44 763.012 228.701C763.012 228.701 763.012 228.701 763.012 228.701L789.357 202.77ZM784.848 202.752L760.784 226.438C760.473 226.744 760.078 226.955 759.645 227.045C759.644 227.045 759.644 227.045 759.643 227.045L755.063 227.978C754.069 228.181 753.148 228.656 752.409 229.359L748.31 233.176L748.304 233.181C747.963 233.505 747.427 233.498 747.094 233.165L745.169 231.24C744.837 230.908 744.831 230.37 745.153 230.03L745.159 230.025L748.976 225.926C749.678 225.186 750.154 224.265 750.357 223.272L751.29 218.688C751.29 218.688 751.29 218.688 751.29 218.688C751.378 218.26 751.588 217.865 751.897 217.551L775.583 193.487L784.848 202.752Z" fill="white"/>
<rect x="646.101" y="132.12" width="215.089" height="14.3259" rx="7.16295" fill="url(#paint0_linear_493_2481)"/>
<circle cx="770.641" cy="139.283" r="11.4338" fill="#BA4AFF" stroke="white" stroke-width="3.52856"/>
<defs>
<linearGradient id="paint0_linear_493_2481" x1="646.101" y1="139.283" x2="861.191" y2="139.283" gradientUnits="userSpaceOnUse">
<stop stop-color="#F6F5FA"/>
<stop offset="0.18" stop-color="#AA98CF"/>
<stop offset="0.365" stop-color="#A96DE9"/>
<stop offset="0.58" stop-color="#BA4AFF"/>
<stop offset="0.795" stop-color="#5C1C98"/>
<stop offset="1" stop-color="#1B0B3F"/>
</linearGradient>
</defs>
</svg>
