<svg width="732" height="438" viewBox="0 0 732 438" fill="none" xmlns="http://www.w3.org/2000/svg">
<circle cx="91.4375" cy="346.562" r="91.4375" transform="rotate(90 91.4375 346.562)" fill="#2A1950"/>
<circle cx="91.4375" cy="163.687" r="91.4375" transform="rotate(90 91.4375 163.687)" fill="#3F2577"/>
<circle cx="274.312" cy="346.562" r="91.4375" transform="rotate(90 274.312 346.562)" fill="#3F2577"/>
<circle cx="274.312" cy="163.687" r="91.4375" transform="rotate(90 274.312 163.687)" fill="#2A1950"/>
<circle cx="457.188" cy="346.562" r="91.4375" transform="rotate(90 457.188 346.562)" fill="#2A1950"/>
<circle cx="457.188" cy="163.687" r="91.4375" transform="rotate(90 457.188 163.687)" fill="#2A1950"/>
<circle cx="640.062" cy="346.562" r="91.4375" transform="rotate(90 640.062 346.562)" fill="#2A1950"/>
<circle cx="640.062" cy="163.687" r="91.4375" transform="rotate(90 640.062 163.687)" fill="#BA4AFF"/>
<path d="M661.684 49.6624L675.121 63.0996C675.877 63.8549 675.877 65.0794 675.121 65.8347L670.188 70.7675C669.433 71.5227 668.209 71.5227 667.453 70.7675L654.016 57.3303C653.261 56.575 653.261 55.3505 654.016 54.5952L658.949 49.6624C659.704 48.9071 660.929 48.9071 661.684 49.6624Z" fill="white"/>
<path d="M678.396 48.6631L676.122 46.3897C674.518 44.7853 671.911 44.7853 670.306 46.3897L658.115 58.5805L666.205 66.67L678.396 54.4792C680 52.8748 680 50.2676 678.396 48.6631Z" fill="white"/>
<path fill-rule="evenodd" clip-rule="evenodd" d="M670.422 66.0896L658.696 54.3637L636.649 76.7622C636.649 76.7623 636.649 76.7621 636.649 76.7622C636.02 77.4013 635.591 78.2075 635.412 79.0827L634.619 82.9792C634.619 82.9793 634.619 82.979 634.619 82.9792C634.546 83.336 634.376 83.6619 634.129 83.9204L634.124 83.926L630.877 87.413C629.601 88.7629 629.628 90.888 630.944 92.2044L632.581 93.8412C633.897 95.1568 636.02 95.1874 637.372 93.9088L640.859 90.6615L640.865 90.6561C641.124 90.4097 641.449 90.2397 641.806 90.1666C641.806 90.1666 641.806 90.1666 641.806 90.1666L645.702 89.3736L645.706 89.3728C646.579 89.1922 647.385 88.7645 648.023 88.1364C648.023 88.1363 648.023 88.1364 648.023 88.1364L670.422 66.0896ZM666.588 66.0744L646.129 86.212C645.865 86.4721 645.529 86.6519 645.16 86.7283C645.16 86.7284 645.159 86.7285 645.159 86.7286L641.265 87.5213C640.42 87.6941 639.637 88.0983 639.008 88.6957L635.523 91.9411L635.519 91.9456C635.229 92.2206 634.773 92.2149 634.49 91.9319L632.854 90.2951C632.571 90.013 632.566 89.5555 632.84 89.2667L632.844 89.262L636.09 85.7772C636.687 85.1481 637.091 84.3652 637.264 83.5204L638.057 79.6236C638.057 79.6235 638.057 79.6237 638.057 79.6236C638.132 79.2596 638.31 78.9236 638.573 78.6567L658.711 58.1974L666.588 66.0744Z" fill="white"/>
<rect x="548.625" y="6.02319" width="182.87" height="12.1799" rx="6.08997" fill="url(#paint0_linear_464_2394)"/>
<circle cx="654.51" cy="12.1131" r="9.72101" fill="#BA4AFF" stroke="white" stroke-width="3"/>
<defs>
<linearGradient id="paint0_linear_464_2394" x1="548.625" y1="12.1132" x2="731.495" y2="12.1132" gradientUnits="userSpaceOnUse">
<stop stop-color="#F6F5FA"/>
<stop offset="0.18" stop-color="#AA98CF"/>
<stop offset="0.365" stop-color="#A96DE9"/>
<stop offset="0.58" stop-color="#BA4AFF"/>
<stop offset="0.795" stop-color="#5C1C98"/>
<stop offset="1" stop-color="#1B0B3F"/>
</linearGradient>
</defs>
</svg>
