<svg width="212" height="135" viewBox="0 0 212 135" fill="none" xmlns="http://www.w3.org/2000/svg">
<rect y="0.232666" width="211.094" height="134.233" fill="#0F385C"/>
<path d="M117.828 71.4286C120.081 71.4286 121.907 69.6021 121.907 67.349C121.907 65.096 120.081 63.2695 117.828 63.2695C115.575 63.2695 113.748 65.096 113.748 67.349C113.748 69.6021 115.575 71.4286 117.828 71.4286Z" fill="#11E0F1"/>
<path d="M44.085 67.4165C44.085 68.45 44.2142 69.4444 44.4727 70.3992C44.7307 71.3541 45.1238 72.1966 45.6523 72.9267C46.1803 73.6573 46.8541 74.2442 47.6743 74.6879C48.4946 75.1315 49.4721 75.3538 50.6068 75.3538C51.7415 75.3538 52.6038 75.1797 53.3286 74.8315C54.053 74.4833 54.6316 74.0479 55.0642 73.5252C55.4964 73.0029 55.7997 72.4386 55.9742 71.8319C56.1483 71.2253 56.2351 70.6635 56.2351 70.1465V69.9107H50.0508V66.1867H60.9872V79.4317H56.7072V76.6005C56.4039 77.0725 56.0273 77.5022 55.5783 77.8899C55.1288 78.2772 54.6234 78.6089 54.0612 78.8839C53.4994 79.1592 52.8841 79.3757 52.2161 79.5329C51.5477 79.6902 50.8369 79.7688 50.0845 79.7688C48.3205 79.7688 46.7536 79.4486 45.3831 78.8082C44.0125 78.1677 42.8581 77.2861 41.9201 76.1625C40.9821 75.0393 40.2688 73.7248 39.7799 72.2192C39.2914 70.7141 39.0469 69.0908 39.0469 67.349C39.0469 65.6072 39.3193 63.9988 39.8643 62.4879C40.4092 60.977 41.1842 59.6624 42.1901 58.5446C43.1956 57.4268 44.4085 56.5452 45.8297 55.899C47.2508 55.2528 48.8432 54.9297 50.6072 54.9297C51.7531 54.9297 52.84 55.0618 53.8677 55.3257C54.8959 55.5899 55.8339 55.9661 56.6821 56.4546C57.53 56.9432 58.2798 57.5334 58.9318 58.224C59.5829 58.9146 60.1114 59.6818 60.5159 60.5243L56.2355 62.9336C55.9771 62.4171 55.6737 61.9368 55.3256 61.4927C54.9769 61.0495 54.5757 60.6671 54.1209 60.3469C53.6657 60.0267 53.1463 59.774 52.5622 59.5888C51.9778 59.4036 51.3263 59.3105 50.6076 59.3105C49.4729 59.3105 48.4954 59.5328 47.6752 59.9765C46.8549 60.4201 46.1811 61.0071 45.6531 61.7376C45.125 62.4677 44.732 63.3131 44.4735 64.2737C44.215 65.2344 44.0858 66.2263 44.0858 67.2478V67.4165H44.085Z" fill="white"/>
<path d="M76.5512 54.9293C78.3485 54.9293 79.9607 55.2524 81.3876 55.8986C82.8141 56.5448 84.025 57.4264 85.0194 58.5442C86.0133 59.662 86.7719 60.9766 87.2942 62.4875C87.8164 63.9984 88.0774 65.6192 88.0774 67.3486C88.0774 69.0781 87.8164 70.7137 87.2942 72.2188C86.7719 73.7244 86.0133 75.039 85.0194 76.1621C84.0254 77.2853 82.8146 78.1673 81.3876 78.8078C79.9611 79.4482 78.3485 79.7684 76.5512 79.7684C74.7538 79.7684 73.1273 79.4482 71.7065 78.8078C70.2853 78.1673 69.0778 77.2857 68.0838 76.1621C67.0894 75.039 66.3313 73.7244 65.809 72.2188C65.2867 70.7137 65.0254 69.0904 65.0254 67.3486C65.0254 65.6069 65.2867 63.9984 65.809 62.4875C66.3313 60.9766 67.0894 59.662 68.0838 58.5442C69.0778 57.4264 70.2853 56.5448 71.7065 55.8986C73.1277 55.2524 74.7423 54.9293 76.5512 54.9293ZM76.5512 75.3534C77.6073 75.3534 78.537 75.1542 79.34 74.755C80.143 74.3566 80.8205 73.803 81.3703 73.0955C81.921 72.3876 82.3367 71.5508 82.6174 70.5845C82.8981 69.6185 83.0389 68.5624 83.0389 67.4166V67.2816C83.0389 66.1468 82.8981 65.0936 82.6174 64.1219C82.3367 63.1502 81.921 62.3101 81.3703 61.6026C80.82 60.8951 80.143 60.342 79.34 59.9427C78.537 59.5443 77.6073 59.3447 76.5512 59.3447C75.4951 59.3447 74.5629 59.5443 73.7537 59.9427C72.9449 60.342 72.2683 60.8951 71.7234 61.6026C71.1785 62.3101 70.7656 63.1506 70.485 64.1219C70.2043 65.0936 70.0635 66.1468 70.0635 67.2816V67.4166C70.0635 68.5624 70.2043 69.6185 70.485 70.5845C70.7656 71.5508 71.1785 72.3872 71.7234 73.0955C72.2683 73.803 72.9449 74.3566 73.7537 74.755C74.5629 75.1542 75.4951 75.3534 76.5512 75.3534Z" fill="white"/>
<path d="M96.6919 79.4313L89.8672 55.2668H95.344L100.012 73.4322H100.18L104.747 55.2668H110.156L103.331 79.4313H96.6924H96.6919Z" fill="white"/>
<path d="M137.835 75.3534C138.543 75.3534 139.203 75.2497 139.815 75.0418C140.427 74.834 140.956 74.5196 141.399 74.0981C141.842 73.6766 142.194 73.1437 142.452 72.4971C142.71 71.8513 142.84 71.0903 142.84 70.2141V55.2327H147.642V70.938C147.642 72.2863 147.398 73.5054 146.91 74.5949C146.422 75.6847 145.743 76.6116 144.873 77.3755C144.003 78.1398 142.967 78.7292 141.767 79.1449C140.566 79.5601 139.252 79.7684 137.827 79.7684C136.402 79.7684 135.088 79.5601 133.888 79.1449C132.686 78.7292 131.648 78.1394 130.772 77.3755C129.896 76.6116 129.215 75.6851 128.726 74.5949C128.238 73.5054 127.994 72.2859 127.994 70.938V55.2327H132.831V70.2136C132.831 71.0899 132.96 71.8509 133.218 72.4967C133.476 73.1432 133.827 73.6762 134.271 74.0977C134.715 74.5191 135.243 74.8336 135.855 75.0414C136.468 75.2493 137.128 75.353 137.835 75.353V75.3534Z" fill="white"/>
<path d="M151.977 55.2664H156.864V65.7307L165.492 55.2664H171.508L163.115 64.8714L172.047 79.4309H166.368L159.981 68.5953L156.864 72.0834V79.4309H151.977V55.2664Z" fill="white"/>
</svg>
