<svg width="1920" height="1280" viewBox="0 0 1920 1280" fill="none" xmlns="http://www.w3.org/2000/svg">
<g clip-path="url(#clip0_1115_1066)">
<rect width="1920" height="1280" fill="white"/>
<path d="M1920 0H0V1280H1920V0Z" fill="#1D70B8"/>
<path d="M901.953 596.56C912.059 596.56 920.251 588.364 920.251 578.254C920.251 568.143 912.059 559.948 901.953 559.948C891.847 559.948 883.654 568.143 883.654 578.254C883.654 588.364 891.847 596.56 901.953 596.56Z" fill="white"/>
<path d="M852.726 626.056C862.832 626.056 871.025 617.861 871.025 607.75C871.025 597.64 862.832 589.444 852.726 589.444C842.62 589.444 834.428 597.64 834.428 607.75C834.428 617.861 842.62 626.056 852.726 626.056Z" fill="white"/>
<path d="M820.156 674.563C830.262 674.563 838.455 666.367 838.455 656.257C838.455 646.147 830.262 637.951 820.156 637.951C810.05 637.951 801.857 646.147 801.857 656.257C801.857 666.367 810.05 674.563 820.156 674.563Z" fill="white"/>
<path d="M960.486 661.743C970.591 661.743 978.785 653.547 978.785 643.437C978.785 633.326 970.591 625.131 960.486 625.131C950.38 625.131 942.188 633.326 942.188 643.437C942.188 653.547 950.38 661.743 960.486 661.743Z" fill="white"/>
<path d="M1018.96 596.56C1029.07 596.56 1037.26 588.364 1037.26 578.254C1037.26 568.143 1029.07 559.948 1018.96 559.948C1008.85 559.948 1000.66 568.143 1000.66 578.254C1000.66 588.364 1008.85 596.56 1018.96 596.56Z" fill="white"/>
<path d="M1068.19 626.056C1078.3 626.056 1086.49 617.861 1086.49 607.75C1086.49 597.64 1078.3 589.444 1068.19 589.444C1058.08 589.444 1049.89 597.64 1049.89 607.75C1049.89 617.861 1058.08 626.056 1068.19 626.056Z" fill="white"/>
<path d="M1100.76 674.563C1110.87 674.563 1119.06 666.367 1119.06 656.257C1119.06 646.147 1110.87 637.951 1100.76 637.951C1090.65 637.951 1082.46 646.147 1082.46 656.257C1082.46 666.367 1090.65 674.563 1100.76 674.563Z" fill="white"/>
<path d="M960.486 661.743C970.591 661.743 978.785 653.547 978.785 643.437C978.785 633.326 970.591 625.131 960.486 625.131C950.38 625.131 942.188 633.326 942.188 643.437C942.188 653.547 950.38 661.743 960.486 661.743Z" fill="white"/>
<path d="M967.866 539.048C968.79 538.352 969.613 537.53 970.31 536.604L993.586 548.829V514.506L970.341 521.886C969.665 520.979 968.86 520.168 967.96 519.476L977.316 490H943.659L953.013 519.476C952.114 520.164 951.314 520.976 950.633 521.886L927.389 514.506V548.829L950.666 536.604C951.362 537.53 952.184 538.352 953.109 539.048L939.849 579.049C935.181 593.13 945.661 607.651 960.487 607.651C975.313 607.651 985.795 593.13 981.126 579.049L967.866 539.048Z" fill="white"/>
<path d="M987.092 679.899C987.092 679.899 970.096 698.819 966.386 710.363C977.51 710.011 987.505 707.845 998.505 696.357L994.777 739.098C984.652 724.887 972.78 718.762 966.196 719.988C966.863 735.305 968.466 753.807 995.276 756.245C1013.98 757.872 1029 748.679 1030.56 737.305C1032.42 724.24 1020.65 715.595 1011.78 729.35C1004.84 706.589 1024 699.023 1036.31 713.115C1026.83 690.653 1027.09 674.695 1048.17 658.559C1063.29 678.673 1061.14 695.297 1042.4 714.014C1054.6 707.259 1073.56 714.366 1062.39 737.182C1056.56 722.992 1044.04 726.163 1041.42 738.372C1039.66 746.997 1044.9 757.146 1056.27 759.227C1065.6 760.936 1079.97 754.56 1091.49 729.736C1085.01 729.902 1079.33 733.177 1071.98 738.239L1084.06 697.942C1087.1 709.252 1091 716.676 1095.12 720.691C1097.89 712.552 1097.49 706.648 1095.02 693.964L1119.99 702.86C1106.73 720.965 1093.87 746.375 1083.33 790.75C1046.17 785.444 1004.58 782.46 960.497 782.46C916.422 782.46 874.82 785.446 837.66 790.75C827.121 746.372 814.268 720.963 801 702.86L825.977 693.964C823.497 706.648 823.104 712.552 825.873 720.691C829.997 716.676 833.892 709.252 836.934 697.942L849.017 738.239C841.665 733.172 835.979 729.902 829.501 729.736C841.021 754.56 855.392 760.934 864.725 759.227C876.097 757.146 881.324 746.997 879.577 738.372C876.952 726.163 864.436 722.992 858.602 737.182C847.437 714.366 866.391 707.256 878.596 714.014C859.849 695.297 857.702 678.669 872.828 658.559C893.907 674.692 894.159 690.65 884.682 713.115C896.99 699.027 916.155 706.589 909.218 729.35C900.344 715.595 888.576 724.24 890.431 737.305C891.993 748.682 907.011 757.874 925.717 756.245C952.527 753.807 954.129 735.305 954.796 719.988C948.214 718.762 936.342 724.885 926.217 739.098L922.489 696.357C933.488 707.845 943.486 710.007 954.607 710.363C950.898 698.819 933.902 679.899 933.902 679.899H987.105H987.092Z" fill="white"/>
</g>
<defs>
<clipPath id="clip0_1115_1066">
<rect width="1920" height="1280" fill="white"/>
</clipPath>
</defs>
</svg>
