<svg width="1920" height="1280" viewBox="0 0 1920 1280" fill="none" xmlns="http://www.w3.org/2000/svg">
<g clip-path="url(#clip0_1117_1646)">
<rect width="1920" height="1280" fill="white"/>
<path d="M1920 0H0V1280H1920V0Z" fill="#1D70B8"/>
<path d="M1070.58 676.457C1090.84 676.457 1107.27 660.023 1107.27 639.749C1107.27 619.476 1090.84 603.041 1070.58 603.041C1050.31 603.041 1033.88 619.476 1033.88 639.749C1033.88 660.023 1050.31 676.457 1070.58 676.457Z" fill="#16548A"/>
<path d="M407.315 640.364C407.315 649.664 408.477 658.611 410.802 667.203C413.123 675.795 416.659 683.376 421.412 689.945C426.162 696.52 432.221 701.799 439.599 705.794C446.976 709.786 455.769 711.785 465.974 711.785C476.18 711.785 483.937 710.218 490.455 707.085C496.971 703.953 502.176 700.033 506.067 695.33C509.953 690.63 512.682 685.553 514.251 680.095C515.818 674.636 516.598 669.581 516.598 664.929V662.807H460.973V629.299H559.34V748.477H520.844V723.002C518.115 727.25 514.728 731.117 510.69 734.605C506.648 738.091 502.101 741.074 497.046 743.548C491.993 746.027 486.458 747.975 480.448 749.389C474.437 750.805 468.045 751.51 461.278 751.51C445.411 751.51 431.317 748.631 418.99 742.868C406.664 737.104 396.28 729.172 387.842 719.062C379.407 708.956 372.99 697.126 368.593 683.58C364.2 670.036 362 655.43 362 639.757C362 624.084 364.451 609.612 369.352 596.016C374.254 582.421 381.224 570.592 390.27 560.534C399.316 550.475 410.225 542.543 423.008 536.728C435.789 530.914 450.112 528.007 465.979 528.007C476.284 528.007 486.062 529.195 495.305 531.569C504.552 533.947 512.99 537.332 520.618 541.728C528.244 546.124 534.988 551.435 540.853 557.649C546.709 563.863 551.463 570.766 555.101 578.347L516.603 600.027C514.276 595.379 511.549 591.057 508.418 587.061C505.282 583.073 501.671 579.632 497.582 576.751C493.487 573.87 488.816 571.596 483.562 569.929C478.305 568.263 472.445 567.426 465.983 567.426C455.775 567.426 446.985 569.426 439.605 573.418C432.228 577.41 426.169 582.691 421.419 589.265C416.669 595.835 413.135 603.441 410.811 612.085C408.484 620.729 407.322 629.654 407.322 638.846V640.364H407.315Z" fill="white"/>
<path d="M699.327 528C715.492 528 729.994 530.907 742.829 536.722C755.659 542.536 766.55 550.469 775.494 560.527C784.434 570.586 791.255 582.414 795.953 596.009C800.651 609.605 802.998 624.189 802.998 639.751C802.998 655.312 800.651 670.03 795.953 683.573C791.255 697.12 784.434 708.949 775.494 719.055C766.552 729.161 755.662 737.098 742.829 742.861C729.996 748.624 715.492 751.506 699.327 751.506C683.161 751.506 668.531 748.624 655.753 742.861C642.969 737.098 632.108 729.165 623.168 719.055C614.224 708.949 607.406 697.12 602.707 683.573C598.009 670.03 595.66 655.423 595.66 639.751C595.66 624.078 598.009 609.605 602.707 596.009C607.406 582.414 614.224 570.586 623.168 560.527C632.108 550.469 642.969 542.536 655.753 536.722C668.536 530.907 683.057 528 699.327 528ZM699.327 711.779C708.825 711.779 717.188 709.985 724.412 706.393C731.633 702.808 737.726 697.828 742.673 691.46C747.626 685.091 751.364 677.562 753.889 668.867C756.415 660.175 757.681 650.672 757.681 640.361V639.147C757.681 628.936 756.415 619.46 753.889 610.716C751.364 601.972 747.626 594.413 742.673 588.047C737.724 581.681 731.633 576.704 724.412 573.111C717.188 569.526 708.825 567.73 699.327 567.73C689.829 567.73 681.443 569.526 674.165 573.111C666.892 576.704 660.806 581.681 655.904 588.047C651.002 594.413 647.29 601.976 644.765 610.716C642.239 619.46 640.973 628.936 640.973 639.147V640.361C640.973 650.672 642.239 660.175 644.765 668.867C647.29 677.562 651.002 685.087 655.904 691.46C660.806 697.828 666.892 702.808 674.165 706.393C681.443 709.985 689.829 711.779 699.327 711.779Z" fill="white"/>
<path d="M880.489 748.47L819.105 531.035H868.366L910.353 694.489H911.866L952.942 531.035H1001.59L940.208 748.47H880.493H880.489Z" fill="white"/>
<path d="M1250.54 711.779C1256.91 711.779 1262.84 710.845 1268.35 708.976C1273.86 707.106 1278.61 704.276 1282.6 700.483C1286.58 696.692 1289.75 691.895 1292.07 686.077C1294.39 680.267 1295.55 673.419 1295.55 665.534V530.73H1338.75V672.049C1338.75 684.182 1336.56 695.15 1332.16 704.953C1327.77 714.76 1321.67 723.099 1313.84 729.973C1306.01 736.851 1296.7 742.155 1285.9 745.894C1275.1 749.631 1263.29 751.506 1250.47 751.506C1237.65 751.506 1225.83 749.631 1215.03 745.894C1204.23 742.155 1194.89 736.847 1187.01 729.973C1179.14 723.099 1173.01 714.764 1168.61 704.953C1164.22 695.15 1162.03 684.177 1162.03 672.049V530.73H1205.53V665.531C1205.53 673.415 1206.69 680.263 1209.01 686.073C1211.34 691.893 1214.49 696.688 1218.48 700.481C1222.47 704.272 1227.22 707.101 1232.73 708.972C1238.24 710.842 1244.18 711.774 1250.54 711.774V711.779Z" fill="white"/>
<path d="M1377.74 531.035H1421.69V625.194L1499.29 531.035H1553.41L1477.92 617.462L1558.25 748.47H1507.18L1449.73 650.97L1421.69 682.356V748.47H1377.74V531.035Z" fill="white"/>
<path d="M0 1280L1920 0" stroke="#CA3535" stroke-width="30"/>
</g>
<defs>
<clipPath id="clip0_1117_1646">
<rect width="1920" height="1280" fill="white"/>
</clipPath>
</defs>
</svg>
