<svg width="640" height="119" viewBox="0 0 640 119" fill="none" xmlns="http://www.w3.org/2000/svg">
<rect width="638.999" height="118.19" transform="translate(0.794922)" fill="#1D70B8"/>
<path d="M448.064 85.4436C456.031 85.4436 462.49 78.9849 462.49 71.0177C462.49 63.0505 456.031 56.5918 448.064 56.5918C440.096 56.5918 433.638 63.0505 433.638 71.0177C433.638 78.9849 440.096 85.4436 448.064 85.4436Z" fill="#00FFE0"/>
<path d="M187.3 71.2564C187.3 74.9109 187.757 78.4272 188.671 81.8037C189.583 85.1802 190.973 88.1594 192.842 90.7413C194.709 93.3246 197.092 95.4 199.992 96.9689C202.893 98.5379 206.35 99.3238 210.362 99.3238C214.375 99.3238 217.424 98.7081 219.987 97.4769C222.548 96.2456 224.595 94.7058 226.124 92.8574C227.652 91.0105 228.725 89.0152 229.342 86.8699C229.958 84.7247 230.265 82.738 230.265 80.9101V80.0761H208.396V66.9077H247.069V113.744H231.934V103.732C230.861 105.402 229.53 106.921 227.942 108.292C226.353 109.661 224.565 110.835 222.577 111.807C220.591 112.78 218.415 113.546 216.053 114.102C213.689 114.658 211.176 114.936 208.515 114.936C202.277 114.936 196.737 113.804 191.89 111.539C187.044 109.274 182.961 106.157 179.645 102.184C176.328 98.2118 173.805 93.5633 172.076 88.2394C170.349 82.9171 169.484 77.177 169.484 71.0177C169.484 64.8585 170.448 59.1708 172.375 53.828C174.302 48.4852 177.042 43.8367 180.599 39.8838C184.155 35.931 188.444 32.8135 193.469 30.5285C198.495 28.2436 204.126 27.1011 210.364 27.1011C214.415 27.1011 218.259 27.5683 221.893 28.5012C225.529 29.4355 228.846 30.7658 231.845 32.4933C234.843 34.2209 237.495 36.3079 239.801 38.7501C242.103 41.1922 243.972 43.9051 245.402 46.8843L230.266 55.4042C229.352 53.5777 228.28 51.8792 227.048 50.3089C225.816 48.7414 224.397 47.3893 222.788 46.257C221.179 45.1247 219.342 44.2311 217.277 43.5762C215.21 42.9213 212.906 42.5923 210.365 42.5923C206.353 42.5923 202.896 43.3782 199.995 44.9472C197.095 46.5161 194.712 48.5915 192.845 51.1748C190.978 53.7567 189.588 56.7461 188.674 60.143C187.76 63.5399 187.303 67.0474 187.303 70.6597V71.2564H187.3Z" fill="white"/>
<path d="M302.105 27.0996C308.46 27.0996 314.161 28.2421 319.207 30.5271C324.251 32.812 328.533 35.9295 332.049 39.8824C335.564 43.8352 338.247 48.4838 340.093 53.8265C341.94 59.1693 342.863 64.9007 342.863 71.0163C342.863 77.1318 341.94 82.9156 340.093 88.238C338.247 93.5618 335.564 98.2104 332.049 102.182C328.535 106.154 324.253 109.273 319.207 111.537C314.163 113.802 308.46 114.934 302.105 114.934C295.749 114.934 289.997 113.802 284.973 111.537C279.948 109.273 275.678 106.155 272.163 102.182C268.646 98.2104 265.966 93.5618 264.119 88.238C262.272 82.9156 261.348 77.1755 261.348 71.0163C261.348 64.857 262.272 59.1693 264.119 53.8265C265.966 48.4838 268.646 43.8352 272.163 39.8824C275.678 35.9295 279.948 32.812 284.973 30.5271C289.999 28.2421 295.708 27.0996 302.105 27.0996ZM302.105 99.3223C305.839 99.3223 309.127 98.6179 311.966 97.2062C314.806 95.7973 317.201 93.8398 319.146 91.338C321.093 88.8347 322.563 85.8759 323.556 82.4586C324.548 79.0428 325.046 75.3082 325.046 71.2564V70.779C325.046 66.7665 324.548 63.0421 323.556 59.6059C322.563 56.1697 321.093 53.1993 319.146 50.6974C317.2 48.1956 314.806 46.2396 311.966 44.8278C309.127 43.419 305.839 42.7131 302.105 42.7131C298.37 42.7131 295.074 43.419 292.212 44.8278C289.352 46.2396 286.96 48.1956 285.033 50.6974C283.106 53.1993 281.646 56.1712 280.654 59.6059C279.661 63.0421 279.163 66.7665 279.163 70.779V71.2564C279.163 75.3082 279.661 79.0428 280.654 82.4586C281.646 85.8759 283.106 88.8332 285.033 91.338C286.96 93.8398 289.352 95.7973 292.212 97.2062C295.074 98.6179 298.37 99.3223 302.105 99.3223Z" fill="white"/>
<path d="M373.329 113.742L349.196 28.293H368.563L385.07 92.5284H385.665L401.814 28.293H420.941L396.808 113.742H373.331H373.329Z" fill="white"/>
<path d="M518.815 99.3224C521.317 99.3224 523.651 98.9557 525.815 98.2207C527.981 97.4857 529.848 96.3738 531.417 94.8835C532.985 93.3931 534.228 91.5084 535.142 89.222C536.054 86.9384 536.511 84.2474 536.511 81.1489V28.1724H553.494V83.7089C553.494 88.4768 552.631 92.7877 550.905 96.6401C549.179 100.494 546.778 103.772 543.701 106.473C540.624 109.175 536.962 111.26 532.717 112.73C528.47 114.198 523.826 114.934 518.786 114.934C513.746 114.934 509.1 114.198 504.855 112.73C500.606 111.26 496.936 109.174 493.839 106.473C490.742 103.772 488.332 100.495 486.604 96.6401C484.878 92.7877 484.015 88.4753 484.015 83.7089V28.1724H501.117V81.1474C501.117 84.246 501.574 86.937 502.487 89.2205C503.401 91.5069 504.642 93.3917 506.211 94.882C507.78 96.3723 509.647 97.4843 511.813 98.2192C513.979 98.9542 516.313 99.321 518.815 99.321V99.3224Z" fill="white"/>
<path d="M568.823 28.2915H586.104V65.295L616.613 28.2915H637.887L608.211 62.2561L639.794 113.741H619.713L597.129 75.4246L586.104 87.7591V113.741H568.823V28.2915Z" fill="white"/>
<path d="M40.486 41.8764C44.4592 41.8764 47.6801 38.6555 47.6801 34.6823C47.6801 30.7092 44.4592 27.4883 40.486 27.4883C36.5129 27.4883 33.292 30.7092 33.292 34.6823C33.292 38.6555 36.5129 41.8764 40.486 41.8764Z" fill="white"/>
<path d="M21.132 53.4686C25.1052 53.4686 28.3261 50.2478 28.3261 46.2746C28.3261 42.3014 25.1052 39.0806 21.132 39.0806C17.1589 39.0806 13.938 42.3014 13.938 46.2746C13.938 50.2478 17.1589 53.4686 21.132 53.4686Z" fill="white"/>
<path d="M8.32734 72.5316C12.3005 72.5316 15.5214 69.3107 15.5214 65.3376C15.5214 61.3644 12.3005 58.1436 8.32734 58.1436C4.35418 58.1436 1.1333 61.3644 1.1333 65.3376C1.1333 69.3107 4.35418 72.5316 8.32734 72.5316Z" fill="white"/>
<path d="M63.498 67.494C67.4711 67.494 70.692 64.2731 70.692 60.3C70.692 56.3268 67.4711 53.106 63.498 53.106C59.5248 53.106 56.304 56.3268 56.304 60.3C56.304 64.2731 59.5248 67.494 63.498 67.494Z" fill="white"/>
<path d="M86.4865 41.8764C90.4597 41.8764 93.6805 38.6555 93.6805 34.6823C93.6805 30.7092 90.4597 27.4883 86.4865 27.4883C82.5134 27.4883 79.2925 30.7092 79.2925 34.6823C79.2925 38.6555 82.5134 41.8764 86.4865 41.8764Z" fill="white"/>
<path d="M105.842 53.4686C109.815 53.4686 113.036 50.2478 113.036 46.2746C113.036 42.3014 109.815 39.0806 105.842 39.0806C101.869 39.0806 98.6479 42.3014 98.6479 46.2746C98.6479 50.2478 101.869 53.4686 105.842 53.4686Z" fill="white"/>
<path d="M118.647 72.5316C122.62 72.5316 125.841 69.3107 125.841 65.3376C125.841 61.3644 122.62 58.1436 118.647 58.1436C114.674 58.1436 111.453 61.3644 111.453 65.3376C111.453 69.3107 114.674 72.5316 118.647 72.5316Z" fill="white"/>
<path d="M63.498 67.494C67.4711 67.494 70.692 64.2731 70.692 60.3C70.692 56.3268 67.4711 53.106 63.498 53.106C59.5248 53.106 56.304 56.3268 56.304 60.3C56.304 64.2731 59.5248 67.494 63.498 67.494Z" fill="white"/>
<path d="M66.3984 19.2753C66.7623 19.0017 67.0854 18.6786 67.359 18.3147L76.5105 23.119V9.63037L67.3721 12.531C67.1058 12.1744 66.7899 11.8557 66.4363 11.5835L70.1141 0H56.8816L60.5594 11.5835C60.2057 11.8542 59.8913 12.173 59.6236 12.531L50.4851 9.63037V23.119L59.6367 18.3147C59.9103 18.6786 60.2334 19.0017 60.5972 19.2753L55.384 34.9951C53.5487 40.5285 57.669 46.2351 63.4978 46.2351C69.3267 46.2351 73.4469 40.5285 71.6117 34.9951L66.3984 19.2753Z" fill="white"/>
<path d="M73.9563 74.6272C73.9563 74.6272 67.2746 82.0628 65.8163 86.5993C70.1898 86.4611 74.1193 85.6097 78.4433 81.095L76.9777 97.8918C72.9972 92.3074 68.3298 89.9002 65.7421 90.3819C66.0041 96.4014 66.6342 103.673 77.1742 104.63C84.5284 105.269 90.4329 101.657 91.0471 97.1873C91.7762 92.0527 87.1495 88.6558 83.6609 94.0611C80.9335 85.1163 88.4681 82.1429 93.3073 87.6807C89.5815 78.8537 89.6805 72.5824 97.9675 66.2412C103.913 74.1455 103.07 80.6788 95.7 88.0343C100.498 85.3797 107.95 88.1726 103.561 97.1393C101.268 91.5622 96.3462 92.8081 95.3143 97.6065C94.6259 100.996 96.6824 104.984 101.153 105.802C104.822 106.474 110.472 103.968 115.001 94.2125C112.455 94.278 110.219 95.5646 107.329 97.5541L112.079 81.7179C113.275 86.1627 114.806 89.0808 116.428 90.6584C117.516 87.4595 117.361 85.1396 116.387 80.1548L126.207 83.6507C120.99 90.7661 115.937 100.752 111.794 118.19C97.1845 116.105 80.8302 114.933 63.5008 114.933C46.1728 114.933 29.817 116.106 15.2077 118.19C11.0642 100.75 6.01107 90.7647 0.794922 83.6507L10.6145 80.1548C9.63938 85.1396 9.48511 87.4595 10.5737 90.6584C12.1951 89.0808 13.7261 86.1627 14.9225 81.7179L19.6729 97.5541C16.7825 95.5631 14.547 94.278 12 94.2125C16.5292 103.968 22.1791 106.473 25.8482 105.802C30.3191 104.984 32.3742 100.996 31.6872 97.6065C30.6553 92.8081 25.7346 91.5622 23.4409 97.1393C19.0514 88.1726 26.5031 85.3782 31.3015 88.0343C23.9314 80.6788 23.0873 74.144 29.034 66.2412C37.3211 72.5809 37.42 78.8522 33.6942 87.6807C38.5334 82.1443 46.068 85.1163 43.3406 94.0611C39.852 88.6558 35.2253 92.0527 35.9544 97.1873C36.5686 101.658 42.4732 105.271 49.8273 104.63C60.3673 103.673 60.9975 96.4014 61.2595 90.3819C58.6718 89.9002 54.0043 92.3059 50.0238 97.8918L48.5582 81.095C52.8822 85.6097 56.8132 86.4596 61.1852 86.5993C59.7269 82.0628 53.0452 74.6272 53.0452 74.6272H73.9622H73.9563Z" fill="white"/>
</svg>
