<svg width="330" height="119" viewBox="0 0 330 119" fill="none" xmlns="http://www.w3.org/2000/svg">
<path d="M51.8417 0.794959C56.6788 0.794959 61.1665 1.52052 65.3049 2.97164C69.4432 4.36901 73.0442 6.38445 76.1076 9.01797C79.1711 11.6515 81.5628 14.8493 83.2826 18.6115C85.0024 22.3199 85.8624 26.4583 85.8624 31.0266C85.8624 33.3914 85.513 35.7293 84.8143 38.0403C84.1694 40.3514 83.202 42.5281 81.9121 44.5704C80.6222 46.5589 79.0636 48.3863 77.2363 50.0524C75.4089 51.7185 73.3398 53.089 71.0287 54.1639C72.9098 54.8088 75.0865 55.7762 77.5587 57.0661C80.0848 58.356 82.4764 60.1296 84.7337 62.3869C86.991 64.6442 88.899 67.4389 90.4576 70.7711C92.0162 74.0496 92.7955 78.0267 92.7955 82.7026C92.7955 88.5608 91.6668 93.6128 89.4096 97.8587C87.206 102.105 84.1963 105.598 80.3804 108.339C76.6182 111.08 72.1842 113.122 67.0784 114.466C62.0264 115.756 56.6788 116.401 51.0355 116.401H0.407598V0.794959H51.8417ZM68.852 81.8964C68.852 78.7792 68.2877 76.2263 67.1591 74.2377C66.0304 72.2491 64.5256 70.6636 62.6445 69.4812C60.8171 68.2989 58.7211 67.4927 56.3563 67.0627C53.9915 66.579 51.573 66.3372 49.1007 66.3372H23.7867V97.9393H49.1007C51.573 97.9393 53.9915 97.6974 56.3563 97.2137C58.7211 96.73 60.8171 95.8701 62.6445 94.634C64.5256 93.3978 66.0304 91.7586 67.1591 89.7163C68.2877 87.674 68.852 85.0673 68.852 81.8964ZM62.322 33.3645C62.322 28.9574 60.9246 25.5177 58.1299 23.0454C55.3351 20.5732 50.8205 19.337 44.5861 19.337H23.7867V46.5858H44.5861C50.713 46.5858 55.2008 45.4303 58.0493 43.1193C60.8978 40.7545 62.322 37.5029 62.322 33.3645ZM145.842 28.3662C152.238 28.3662 158.042 29.5217 163.255 31.8328C168.469 34.0901 172.929 37.2342 176.638 41.2651C180.346 45.2959 183.195 50.0524 185.183 55.5344C187.226 61.0164 188.247 66.9284 188.247 73.2703C188.247 79.666 187.226 85.6048 185.183 91.0868C183.141 96.5151 180.266 101.218 176.557 105.195C172.849 109.172 168.388 112.316 163.175 114.627C157.961 116.884 152.184 118.013 145.842 118.013C139.446 118.013 133.642 116.884 128.429 114.627C123.215 112.316 118.754 109.172 115.046 105.195C111.338 101.218 108.462 96.5151 106.42 91.0868C104.378 85.6048 103.356 79.666 103.356 73.2703C103.356 66.9284 104.351 61.0164 106.339 55.5344C108.382 50.0524 111.257 45.2959 114.965 41.2651C118.674 37.2342 123.135 34.0901 128.348 31.8328C133.615 29.5217 139.446 28.3662 145.842 28.3662ZM145.842 97.375C149.013 97.375 151.808 96.7838 154.226 95.6014C156.698 94.419 158.768 92.7798 160.434 90.6837C162.1 88.5876 163.363 86.0885 164.223 83.1863C165.083 80.2303 165.513 77.0056 165.513 73.5121V72.9478C165.513 69.4544 165.083 66.2565 164.223 63.3543C163.363 60.3983 162.1 57.8723 160.434 55.7762C158.768 53.6264 156.698 51.9603 154.226 50.7779C151.808 49.5955 149.013 49.0044 145.842 49.0044C142.671 49.0044 139.849 49.5955 137.377 50.7779C134.959 51.9603 132.916 53.6264 131.25 55.7762C129.584 57.8723 128.321 60.3983 127.461 63.3543C126.601 66.2565 126.171 69.4544 126.171 72.9478V73.5121C126.171 77.0056 126.601 80.2303 127.461 83.1863C128.321 86.0885 129.584 88.5876 131.25 90.6837C132.916 92.7798 134.959 94.419 137.377 95.6014C139.849 96.7838 142.671 97.375 145.842 97.375ZM202.677 0.794959H224.928V92.941C224.928 94.7683 225.439 96.1657 226.46 97.1331C227.535 98.1005 229.228 98.5842 231.539 98.5842C232.613 98.5842 233.527 98.5305 234.28 98.423C235.086 98.2618 236.107 98.0468 237.343 97.7781L239.117 116.723C237.612 116.938 235.999 117.153 234.28 117.368C232.828 117.529 231.135 117.664 229.201 117.771C227.32 117.932 225.358 118.013 223.316 118.013C220.145 118.013 217.296 117.61 214.77 116.804C212.244 115.998 210.067 114.815 208.24 113.257C206.466 111.644 205.096 109.656 204.129 107.291C203.161 104.926 202.677 102.185 202.677 99.0679V0.794959ZM306.836 116.401V108.984C305.653 110.274 304.336 111.483 302.885 112.612C301.488 113.687 299.902 114.627 298.129 115.433C296.409 116.24 294.501 116.858 292.405 117.288C290.363 117.771 288.078 118.013 285.552 118.013C279.855 118.013 274.642 116.884 269.913 114.627C265.183 112.37 261.125 109.253 257.739 105.276C254.353 101.298 251.72 96.5688 249.839 91.0868C248.011 85.6048 247.098 79.666 247.098 73.2703C247.098 66.8746 248.011 60.9358 249.839 55.4538C251.666 49.9718 254.219 45.2422 257.497 41.2651C260.83 37.2342 264.834 34.0901 269.51 31.8328C274.185 29.5217 279.372 28.3662 285.069 28.3662C290.121 28.3662 294.394 29.253 297.887 31.0266C301.434 32.7464 304.417 34.8963 306.836 37.476V0.794959H329.086V116.401H306.836ZM307.48 65.2085C307.48 62.8975 307.05 60.7477 306.191 58.7591C305.384 56.7705 304.202 55.0507 302.643 53.5996C301.085 52.1484 299.204 51.0198 297 50.2136C294.85 49.4074 292.405 49.0044 289.664 49.0044C286.493 49.0044 283.671 49.5955 281.199 50.7779C278.781 51.9603 276.738 53.6264 275.072 55.7762C273.406 57.8723 272.143 60.3714 271.283 63.2737C270.423 66.1759 269.993 69.3469 269.993 72.7866V73.8346C269.993 77.2743 270.423 80.4453 271.283 83.3475C272.143 86.196 273.406 88.6683 275.072 90.7643C276.738 92.8604 278.781 94.4996 281.199 95.682C283.671 96.8107 286.493 97.375 289.664 97.375C292.405 97.375 294.85 96.9719 297 96.1657C299.204 95.3595 301.085 94.2309 302.643 92.7798C304.202 91.3286 305.384 89.6357 306.191 87.7009C307.05 85.7123 307.48 83.5625 307.48 81.2514V65.2085Z" fill="#0B0C0C"/>
</svg>
