<svg width="585" height="265" viewBox="0 0 585 265" fill="none" xmlns="http://www.w3.org/2000/svg">
<path d="M315.948 95.5229C315.948 96.9203 316.028 98.2371 316.19 99.4732C316.405 100.656 316.861 101.704 317.56 102.617C318.312 103.531 319.387 104.257 320.785 104.794C322.182 105.331 324.09 105.6 326.509 105.6C327.154 105.6 327.906 105.573 328.766 105.52C329.68 105.466 330.62 105.412 331.588 105.358C332.555 105.251 333.496 105.143 334.409 105.036C335.323 104.875 336.102 104.74 336.747 104.633L338.198 116.484C336.64 116.699 335.027 116.887 333.361 117.048C331.964 117.209 330.405 117.343 328.685 117.451C326.965 117.558 325.246 117.612 323.526 117.612C320.247 117.612 317.291 117.263 314.658 116.564C312.078 115.919 309.875 114.844 308.047 113.339C306.22 111.835 304.822 109.873 303.855 107.454C302.888 104.982 302.404 101.999 302.404 98.5058V45.54H286.845V33.6085H302.404V6.68222L315.948 1.92578V33.6085H338.843V45.54H315.948V95.5229Z" fill="#0B0C0C"/>
<path d="M205.341 0.394043H218.885V43.0408C221.679 39.2249 225.119 36.4302 229.204 34.6566C233.342 32.883 237.937 31.9962 242.989 31.9962C247.558 31.9962 251.562 32.7486 255.001 34.2535C258.441 35.7583 261.316 37.8007 263.627 40.3804C265.938 42.9602 267.658 45.9431 268.787 49.329C269.969 52.7149 270.561 56.289 270.561 60.0511V116H257.017V64.3239C257.017 60.723 256.56 57.6595 255.646 55.1335C254.786 52.5537 253.577 50.4845 252.018 48.9259C250.514 47.3135 248.713 46.158 246.617 45.4593C244.575 44.7069 242.371 44.3307 240.006 44.3307C237.427 44.3307 234.874 44.8144 232.348 45.7818C229.822 46.6955 227.564 48.0929 225.576 49.9739C223.587 51.855 221.975 54.2198 220.739 57.0683C219.503 59.9168 218.885 63.2759 218.885 67.1455V116H205.341V0.394043Z" fill="#0B0C0C"/>
<path d="M110.373 70.29C110.373 64.8617 111.152 59.8097 112.711 55.1339C114.27 50.458 116.5 46.4272 119.402 43.0412C122.304 39.6015 125.798 36.9143 129.883 34.9794C134.021 32.9909 138.643 31.9966 143.749 31.9966C148.263 31.9966 152.563 32.8834 156.648 34.657C160.732 36.3768 164.199 39.1716 167.047 43.0412V33.6089H180.591V116C180.591 121.106 179.543 125.379 177.447 128.818C175.405 132.312 172.717 135.107 169.385 137.203C166.053 139.299 162.264 140.804 158.018 141.717C153.826 142.631 149.553 143.088 145.2 143.088C142.781 143.088 140.255 142.953 137.622 142.685C135.042 142.416 132.435 142.013 129.802 141.475C127.168 140.938 124.562 140.239 121.982 139.379C119.456 138.573 117.037 137.606 114.726 136.477L119.644 125.11C121.256 125.862 122.949 126.588 124.723 127.287C126.497 128.039 128.405 128.711 130.447 129.302C132.543 129.893 134.773 130.377 137.138 130.753C139.503 131.129 142.083 131.318 144.877 131.318C148.317 131.318 151.407 130.968 154.148 130.27C156.943 129.571 159.281 128.469 161.162 126.964C163.043 125.513 164.494 123.632 165.516 121.321C166.537 119.064 167.047 116.35 167.047 113.179V97.5388C164.199 101.408 160.732 104.23 156.648 106.004C152.563 107.723 148.263 108.583 143.749 108.583C138.643 108.583 134.021 107.616 129.883 105.681C125.798 103.693 122.304 100.978 119.402 97.5388C116.5 94.0991 114.27 90.0682 112.711 85.4461C111.152 80.7703 110.373 75.7183 110.373 70.29ZM167.37 69.9675C167.37 66.2591 166.967 62.8463 166.16 59.7291C165.354 56.5581 164.091 53.8171 162.371 51.5061C160.652 49.1413 158.448 47.3139 155.761 46.0241C153.127 44.6804 149.956 44.0086 146.248 44.0086C142.486 44.0086 139.234 44.6804 136.493 46.0241C133.752 47.3677 131.468 49.2219 129.641 51.5867C127.867 53.8977 126.55 56.6387 125.69 59.8097C124.83 62.9807 124.401 66.3666 124.401 69.9675V70.6125C124.401 74.2134 124.83 77.5993 125.69 80.7703C126.55 83.8875 127.867 86.6285 129.641 88.9933C131.468 91.3044 133.752 93.1317 136.493 94.4753C139.234 95.8189 142.486 96.4907 146.248 96.4907C149.956 96.4907 153.127 95.8458 155.761 94.5559C158.448 93.2123 160.652 91.385 162.371 89.0739C164.091 86.7629 165.354 84.0219 166.16 80.8509C166.967 77.68 167.37 74.2671 167.37 70.6125V69.9675Z" fill="#0B0C0C"/>
<path d="M90.2182 116H76.6744V33.6085H90.2182V116ZM74.1753 9.82632C74.1753 8.53643 74.4171 7.32716 74.9009 6.19852C75.4383 5.06987 76.1101 4.07558 76.9163 3.21566C77.7762 2.35574 78.7705 1.68392 79.8992 1.20022C81.0815 0.662767 82.3177 0.394043 83.6076 0.394043C84.8975 0.394043 86.1067 0.662767 87.2354 1.20022C88.364 1.68392 89.3314 2.35574 90.1376 3.21566C90.9975 4.07558 91.6693 5.06987 92.153 6.19852C92.6905 7.32716 92.9592 8.53643 92.9592 9.82632C92.9592 11.1162 92.6905 12.3523 92.153 13.5347C91.6693 14.6634 90.9975 15.6577 90.1376 16.5176C89.3314 17.3238 88.364 17.9956 87.2354 18.533C86.1067 19.0167 84.8975 19.2586 83.6076 19.2586C82.3177 19.2586 81.0815 19.0167 79.8992 18.533C78.7705 17.9956 77.7762 17.3238 76.9163 16.5176C76.1101 15.6577 75.4383 14.6634 74.9009 13.5347C74.4171 12.3523 74.1753 11.1162 74.1753 9.82632Z" fill="#0B0C0C"/>
<path d="M0.32959 0.394043H14.5183V103.262H60.7122V116H0.32959V0.394043Z" fill="#0B0C0C"/>
<path d="M562.428 262.401V254.984C561.246 256.274 559.929 257.483 558.478 258.612C557.081 259.687 555.495 260.627 553.721 261.433C552.002 262.239 550.094 262.858 547.998 263.288C545.955 263.771 543.671 264.013 541.145 264.013C535.448 264.013 530.235 262.884 525.505 260.627C520.776 258.37 516.718 255.253 513.332 251.275C509.946 247.298 507.313 242.569 505.431 237.087C503.604 231.605 502.69 225.666 502.69 219.27C502.69 212.875 503.604 206.936 505.431 201.454C507.259 195.972 509.812 191.242 513.09 187.265C516.422 183.234 520.426 180.09 525.102 177.833C529.778 175.522 534.964 174.366 540.661 174.366C545.713 174.366 549.986 175.253 553.48 177.027C557.027 178.746 560.01 180.896 562.428 183.476V146.795H584.679V262.401H562.428ZM563.073 211.208C563.073 208.897 562.643 206.748 561.783 204.759C560.977 202.77 559.795 201.051 558.236 199.6C556.677 198.148 554.796 197.02 552.593 196.214C550.443 195.407 547.998 195.004 545.257 195.004C542.086 195.004 539.264 195.596 536.792 196.778C534.373 197.96 532.331 199.626 530.665 201.776C528.999 203.872 527.736 206.371 526.876 209.274C526.016 212.176 525.586 215.347 525.586 218.787V219.835C525.586 223.274 526.016 226.445 526.876 229.347C527.736 232.196 528.999 234.668 530.665 236.764C532.331 238.86 534.373 240.5 536.792 241.682C539.264 242.811 542.086 243.375 545.257 243.375C547.998 243.375 550.443 242.972 552.593 242.166C554.796 241.359 556.677 240.231 558.236 238.78C559.795 237.329 560.977 235.636 561.783 233.701C562.643 231.712 563.073 229.562 563.073 227.251V211.208Z" fill="#0B0C0C"/>
<path d="M458.271 146.795H480.521V238.941C480.521 240.768 481.032 242.166 482.053 243.133C483.128 244.1 484.821 244.584 487.132 244.584C488.207 244.584 489.12 244.53 489.873 244.423C490.679 244.262 491.7 244.047 492.936 243.778L494.71 262.723C493.205 262.938 491.592 263.153 489.873 263.368C488.422 263.529 486.729 263.664 484.794 263.771C482.913 263.932 480.951 264.013 478.909 264.013C475.738 264.013 472.889 263.61 470.363 262.804C467.837 261.998 465.66 260.815 463.833 259.257C462.06 257.644 460.689 255.656 459.722 253.291C458.754 250.926 458.271 248.185 458.271 245.068V146.795Z" fill="#0B0C0C"/>
<path d="M401.435 174.366C407.83 174.366 413.635 175.522 418.848 177.833C424.061 180.09 428.522 183.234 432.231 187.265C435.939 191.296 438.788 196.052 440.776 201.534C442.819 207.016 443.84 212.928 443.84 219.27C443.84 225.666 442.819 231.605 440.776 237.087C438.734 242.515 435.859 247.218 432.15 251.195C428.442 255.172 423.981 258.316 418.768 260.627C413.554 262.884 407.777 264.013 401.435 264.013C395.039 264.013 389.235 262.884 384.021 260.627C378.808 258.316 374.347 255.172 370.639 251.195C366.93 247.218 364.055 242.515 362.013 237.087C359.97 231.605 358.949 225.666 358.949 219.27C358.949 212.928 359.943 207.016 361.932 201.534C363.974 196.052 366.85 191.296 370.558 187.265C374.267 183.234 378.727 180.09 383.941 177.833C389.208 175.522 395.039 174.366 401.435 174.366ZM401.435 243.375C404.606 243.375 407.4 242.784 409.819 241.601C412.291 240.419 414.36 238.78 416.027 236.684C417.693 234.588 418.956 232.088 419.816 229.186C420.676 226.23 421.105 223.006 421.105 219.512V218.948C421.105 215.454 420.676 212.257 419.816 209.354C418.956 206.398 417.693 203.872 416.027 201.776C414.36 199.626 412.291 197.96 409.819 196.778C407.4 195.596 404.606 195.004 401.435 195.004C398.264 195.004 395.442 195.596 392.97 196.778C390.551 197.96 388.509 199.626 386.843 201.776C385.177 203.872 383.914 206.398 383.054 209.354C382.194 212.257 381.764 215.454 381.764 218.948V219.512C381.764 223.006 382.194 226.23 383.054 229.186C383.914 232.088 385.177 234.588 386.843 236.684C388.509 238.78 390.551 240.419 392.97 241.601C395.442 242.784 398.264 243.375 401.435 243.375Z" fill="#0B0C0C"/>
<path d="M307.434 146.795C312.271 146.795 316.759 147.52 320.897 148.972C325.036 150.369 328.637 152.384 331.7 155.018C334.764 157.651 337.155 160.849 338.875 164.611C340.595 168.32 341.455 172.458 341.455 177.027C341.455 179.391 341.105 181.729 340.407 184.04C339.762 186.351 338.794 188.528 337.505 190.57C336.215 192.559 334.656 194.386 332.829 196.052C331.001 197.718 328.932 199.089 326.621 200.164C328.502 200.809 330.679 201.776 333.151 203.066C335.677 204.356 338.069 206.13 340.326 208.387C342.583 210.644 344.491 213.439 346.05 216.771C347.609 220.05 348.388 224.027 348.388 228.703C348.388 234.561 347.259 239.613 345.002 243.859C342.798 248.105 339.789 251.598 335.973 254.339C332.211 257.08 327.777 259.122 322.671 260.466C317.619 261.756 312.271 262.401 306.628 262.401H256V146.795H307.434ZM324.444 227.896C324.444 224.779 323.88 222.226 322.751 220.238C321.623 218.249 320.118 216.664 318.237 215.481C316.41 214.299 314.313 213.493 311.949 213.063C309.584 212.579 307.165 212.337 304.693 212.337H279.379V243.939H304.693C307.165 243.939 309.584 243.697 311.949 243.214C314.313 242.73 316.41 241.87 318.237 240.634C320.118 239.398 321.623 237.759 322.751 235.716C323.88 233.674 324.444 231.067 324.444 227.896ZM317.914 179.364C317.914 174.957 316.517 171.518 313.722 169.045C310.928 166.573 306.413 165.337 300.179 165.337H279.379V192.586H300.179C306.305 192.586 310.793 191.43 313.642 189.119C316.49 186.754 317.914 183.503 317.914 179.364Z" fill="#0B0C0C"/>
</svg>
