<svg width="480" height="320" viewBox="0 0 480 320" fill="none" xmlns="http://www.w3.org/2000/svg">
<rect width="480" height="320" fill="white"/>
<rect opacity="0.8" width="480" height="320" fill="white"/>
<path d="M18.8832 90.9395H8.78132L7.24035 96H1.38086L10.3033 68.7191H17.5515L26.6071 96H20.4432L18.8832 90.9395ZM10.2652 86.0693H17.3993L13.8608 74.5406H13.7847L10.2652 86.0693Z" fill="black"/>
<path d="M35.7958 87.7244C35.149 87.8259 34.629 88.0542 34.2358 88.4093C33.8427 88.7517 33.6461 89.221 33.6461 89.8171C33.6461 90.4766 33.8871 91.0473 34.369 91.5293C34.851 91.9985 35.5612 92.2332 36.4997 92.2332C37.489 92.2332 38.269 91.9478 38.8397 91.3771C39.4105 90.8064 39.6958 90.0517 39.6958 89.1132V87.0586L35.7958 87.7244ZM40.5519 94.0785C40.3363 94.3195 40.07 94.5795 39.7529 94.8585C39.4485 95.1249 39.0807 95.3722 38.6495 95.6005C38.2309 95.8161 37.7363 96 37.1656 96.1522C36.5949 96.3044 35.9544 96.3805 35.2441 96.3805C34.2295 96.3805 33.291 96.2219 32.4285 95.9049C31.5788 95.5751 30.8305 95.1185 30.1837 94.5351C29.5368 93.9517 29.0295 93.2795 28.6617 92.5185C28.2939 91.7449 28.11 90.9078 28.11 90.0073C28.11 88.3712 28.6173 87.0332 29.632 85.9932C30.6466 84.9532 32.048 84.3 33.8363 84.0337L39.6958 83.1776V82.7971C39.6958 81.884 39.4168 81.161 38.8587 80.6284C38.3007 80.0957 37.3939 79.8293 36.1383 79.8293C35.6183 79.8293 35.0919 79.8927 34.5593 80.0196C34.0266 80.1337 33.5129 80.2669 33.0183 80.4191C32.5363 80.5713 32.0861 80.7488 31.6676 80.9518C31.249 81.142 30.8812 81.3132 30.5641 81.4654L28.5095 77.4513C29.6763 76.8045 30.97 76.2718 32.3905 75.8533C33.8236 75.4347 35.3075 75.2254 36.8422 75.2254C37.7807 75.2254 38.7256 75.3269 39.6768 75.5298C40.6407 75.7201 41.5095 76.0752 42.2831 76.5952C43.0695 77.1152 43.7099 77.8254 44.2046 78.7259C44.6992 79.6137 44.9465 80.7488 44.9465 82.1313V90.502C44.9465 91.0981 45.0987 91.542 45.4031 91.8337C45.7202 92.1127 46.1514 92.3727 46.6968 92.6137L44.3187 96.3805C43.3548 96.279 42.5812 96.0317 41.9978 95.6385C41.4143 95.2327 40.9324 94.7127 40.5519 94.0785Z" fill="black"/>
<path d="M69.1074 68.7191C70.2489 68.7191 71.3079 68.8904 72.2845 69.2328C73.261 69.5625 74.1108 70.0382 74.8337 70.6596C75.5566 71.2811 76.121 72.0357 76.5269 72.9235C76.9327 73.7986 77.1357 74.7752 77.1357 75.8533C77.1357 76.4113 77.0532 76.963 76.8883 77.5084C76.7362 78.0537 76.5079 78.5674 76.2035 79.0493C75.8991 79.5186 75.5313 79.9498 75.1001 80.343C74.6688 80.7362 74.1805 81.0596 73.6352 81.3132C74.0791 81.4654 74.5927 81.6937 75.1762 81.9981C75.7722 82.3025 76.3366 82.721 76.8693 83.2537C77.402 83.7864 77.8522 84.4459 78.22 85.2322C78.5879 86.0059 78.7718 86.9444 78.7718 88.0478C78.7718 89.4303 78.5054 90.6225 77.9727 91.6244C77.4527 92.6264 76.7425 93.4507 75.842 94.0976C74.9542 94.7444 73.9079 95.2263 72.703 95.5434C71.5108 95.8478 70.2489 96 68.9172 96H56.9699V68.7191H69.1074ZM73.1215 87.8576C73.1215 87.122 72.9884 86.5195 72.722 86.0503C72.4557 85.581 72.1006 85.2069 71.6567 84.9278C71.2254 84.6488 70.7308 84.4586 70.1728 84.3571C69.6147 84.243 69.044 84.1859 68.4606 84.1859H62.4869V91.6434H68.4606C69.044 91.6434 69.6147 91.5864 70.1728 91.4722C70.7308 91.3581 71.2254 91.1551 71.6567 90.8634C72.1006 90.5717 72.4557 90.1849 72.722 89.7029C72.9884 89.221 73.1215 88.6059 73.1215 87.8576ZM71.5806 76.405C71.5806 75.365 71.2508 74.5533 70.5913 73.9698C69.9318 73.3864 68.8664 73.0947 67.3952 73.0947H62.4869V79.5249H67.3952C68.8411 79.5249 69.9001 79.2523 70.5723 78.7069C71.2445 78.1489 71.5806 77.3815 71.5806 76.405Z" fill="black"/>
<path d="M101.696 85.822C101.696 87.3313 101.474 88.7327 101.03 90.0264C100.586 91.32 99.9648 92.4361 99.1658 93.3746C98.3668 94.3132 97.4092 95.0488 96.2931 95.5815C95.177 96.1141 93.9468 96.3805 92.6024 96.3805C92.0063 96.3805 91.461 96.3234 90.9663 96.2093C90.4844 96.1078 90.0405 95.9619 89.6346 95.7717C89.2288 95.5815 88.8546 95.3595 88.5122 95.1059C88.1698 94.8395 87.859 94.5541 87.58 94.2498V96H82.3293V68.7191H87.58V77.3752C88.1507 76.7791 88.8546 76.2718 89.6917 75.8533C90.5288 75.4347 91.5434 75.2254 92.7356 75.2254C94.08 75.2254 95.2975 75.4981 96.3883 76.0435C97.4917 76.5762 98.4365 77.3181 99.2229 78.2693C100.009 79.2079 100.618 80.324 101.049 81.6176C101.48 82.9113 101.696 84.3127 101.696 85.822ZM87.4278 87.7054C87.4278 88.2508 87.5229 88.7581 87.7132 89.2273C87.9161 89.6839 88.2015 90.0834 88.5693 90.4259C88.9371 90.7683 89.3746 91.0347 89.8819 91.2249C90.4019 91.4151 90.9854 91.5103 91.6322 91.5103C92.3805 91.5103 93.04 91.3771 93.6107 91.1107C94.1941 90.8317 94.6824 90.4449 95.0756 89.9503C95.4687 89.4556 95.7668 88.8722 95.9697 88.2C96.1726 87.5152 96.2741 86.7669 96.2741 85.9552V85.7078C96.2741 84.8961 96.1726 84.1479 95.9697 83.463C95.7668 82.7781 95.4687 82.1883 95.0756 81.6937C94.6824 81.1864 94.1941 80.7932 93.6107 80.5142C93.04 80.2352 92.3805 80.0957 91.6322 80.0957C90.9854 80.0957 90.4019 80.1908 89.8819 80.381C89.3746 80.5713 88.9371 80.8376 88.5693 81.1801C88.2015 81.5225 87.9161 81.9283 87.7132 82.3976C87.5229 82.8669 87.4278 83.3742 87.4278 83.9196V87.7054Z" fill="black"/>
<path d="M111.456 82.3596C111.456 80.4064 111.747 78.5801 112.331 76.8806C112.927 75.1684 113.776 73.6845 114.88 72.4289C115.983 71.1606 117.321 70.165 118.894 69.4421C120.467 68.7065 122.236 68.3386 124.202 68.3386C125.622 68.3386 126.935 68.5226 128.14 68.8904C129.357 69.2582 130.448 69.7782 131.412 70.4503C132.389 71.1225 133.226 71.9342 133.923 72.8855C134.621 73.8367 135.172 74.902 135.578 76.0815L130.271 77.8508C130.118 77.3435 129.877 76.8235 129.548 76.2908C129.218 75.7454 128.799 75.2572 128.292 74.8259C127.785 74.382 127.189 74.0206 126.504 73.7416C125.832 73.4625 125.077 73.323 124.24 73.323C122.984 73.323 121.906 73.583 121.006 74.103C120.118 74.6103 119.389 75.2889 118.818 76.1386C118.247 76.9757 117.822 77.9332 117.543 79.0113C117.277 80.0766 117.144 81.1674 117.144 82.2835V82.4357C117.144 83.5644 117.277 84.6678 117.543 85.7459C117.822 86.8113 118.247 87.7625 118.818 88.5995C119.389 89.4366 120.118 90.1151 121.006 90.6351C121.906 91.1425 122.984 91.3961 124.24 91.3961C125.077 91.3961 125.832 91.2566 126.504 90.9776C127.189 90.6986 127.785 90.3434 128.292 89.9122C128.799 89.4683 129.218 88.98 129.548 88.4473C129.877 87.9147 130.118 87.3947 130.271 86.8874L135.578 88.6376C135.172 89.8171 134.621 90.8825 133.923 91.8337C133.226 92.7849 132.389 93.6029 131.412 94.2878C130.448 94.96 129.357 95.48 128.14 95.8478C126.935 96.2029 125.622 96.3805 124.202 96.3805C122.236 96.3805 120.467 96.019 118.894 95.2961C117.321 94.5732 115.983 93.5776 114.88 92.3093C113.776 91.041 112.927 89.5571 112.331 87.8576C111.747 86.1581 111.456 84.3254 111.456 82.3596Z" fill="black"/>
<path d="M143.34 85.9171C143.34 86.5766 143.429 87.2425 143.607 87.9147C143.784 88.5742 144.057 89.1703 144.425 89.7029C144.792 90.2356 145.262 90.6732 145.832 91.0156C146.416 91.3454 147.107 91.5103 147.906 91.5103C148.426 91.5103 148.895 91.4405 149.314 91.301C149.745 91.1615 150.126 90.9712 150.455 90.7303C150.798 90.4766 151.096 90.1849 151.349 89.8551C151.616 89.5127 151.844 89.1449 152.034 88.7517L156.638 91.1298C156.308 91.9288 155.852 92.6517 155.268 93.2985C154.698 93.9454 154.032 94.4971 153.271 94.9537C152.51 95.4102 151.667 95.759 150.741 96C149.815 96.2537 148.832 96.3805 147.792 96.3805C146.359 96.3805 145.04 96.1141 143.835 95.5815C142.63 95.0361 141.59 94.2941 140.715 93.3556C139.84 92.4171 139.155 91.3073 138.66 90.0264C138.166 88.7327 137.918 87.3313 137.918 85.822C137.918 84.3254 138.166 82.9303 138.66 81.6366C139.155 80.343 139.84 79.2206 140.715 78.2693C141.59 77.3181 142.63 76.5762 143.835 76.0435C145.04 75.4981 146.359 75.2254 147.792 75.2254C148.832 75.2254 149.815 75.3523 150.741 75.6059C151.667 75.8469 152.51 76.202 153.271 76.6713C154.032 77.1279 154.698 77.6796 155.268 78.3264C155.852 78.9732 156.308 79.6962 156.638 80.4952L152.034 82.8732C151.844 82.4801 151.616 82.1186 151.349 81.7888C151.096 81.4464 150.798 81.1547 150.455 80.9137C150.126 80.6601 149.745 80.4635 149.314 80.324C148.895 80.1718 148.426 80.0957 147.906 80.0957C147.107 80.0957 146.416 80.2669 145.832 80.6093C145.262 80.9391 144.792 81.3766 144.425 81.922C144.057 82.4547 143.784 83.0571 143.607 83.7293C143.429 84.4015 143.34 85.0737 143.34 85.7459V85.9171Z" fill="black"/>
<path d="M190.749 82.3596C190.749 84.4015 190.47 86.2659 189.912 87.9527C189.366 89.6269 188.542 91.06 187.439 92.2522C186.348 93.4444 184.978 94.3702 183.329 95.0298C181.681 95.6766 179.753 96 177.546 96H167.501V68.7191H177.546C179.753 68.7191 181.681 69.0489 183.329 69.7084C184.978 70.3552 186.348 71.2747 187.439 72.4669C188.542 73.6591 189.366 75.0986 189.912 76.7854C190.47 78.4596 190.749 80.3176 190.749 82.3596ZM185.023 81.8269C185.023 80.6727 184.877 79.601 184.585 78.6118C184.306 77.6098 183.849 76.7411 183.215 76.0054C182.594 75.2698 181.782 74.6928 180.78 74.2742C179.778 73.843 178.567 73.6274 177.146 73.6274H173.018V91.0917H177.146C178.554 91.0917 179.759 90.8825 180.761 90.4639C181.763 90.0327 182.575 89.4493 183.196 88.7137C183.83 87.9654 184.293 87.0903 184.585 86.0883C184.877 85.0864 185.023 84.0147 185.023 82.8732V81.8269Z" fill="black"/>
<path d="M207.699 96V94.2498C207.42 94.5541 207.11 94.8395 206.767 95.1059C206.438 95.3595 206.063 95.5815 205.645 95.7717C205.239 95.9619 204.789 96.1078 204.294 96.2093C203.812 96.3234 203.273 96.3805 202.677 96.3805C201.333 96.3805 200.102 96.1141 198.986 95.5815C197.87 95.0488 196.913 94.3132 196.114 93.3746C195.315 92.4361 194.693 91.32 194.249 90.0264C193.818 88.7327 193.602 87.3313 193.602 85.822C193.602 84.3127 193.818 82.9113 194.249 81.6176C194.681 80.324 195.283 79.2079 196.057 78.2693C196.843 77.3181 197.788 76.5762 198.891 76.0435C199.995 75.4981 201.219 75.2254 202.563 75.2254C203.755 75.2254 204.763 75.4347 205.588 75.8533C206.425 76.2591 207.129 76.7664 207.699 77.3752V68.7191H212.95V96H207.699ZM207.852 83.9196C207.852 83.3742 207.75 82.8669 207.547 82.3976C207.357 81.9283 207.078 81.5225 206.71 81.1801C206.342 80.8376 205.899 80.5713 205.379 80.381C204.871 80.1908 204.294 80.0957 203.647 80.0957C202.899 80.0957 202.233 80.2352 201.65 80.5142C201.079 80.7932 200.597 81.1864 200.204 81.6937C199.811 82.1883 199.513 82.7781 199.31 83.463C199.107 84.1479 199.005 84.8961 199.005 85.7078V85.9552C199.005 86.7669 199.107 87.5152 199.31 88.2C199.513 88.8722 199.811 89.4556 200.204 89.9503C200.597 90.4449 201.079 90.8317 201.65 91.1107C202.233 91.3771 202.899 91.5103 203.647 91.5103C204.294 91.5103 204.871 91.4151 205.379 91.2249C205.899 91.0347 206.342 90.7683 206.71 90.4259C207.078 90.0834 207.357 89.6839 207.547 89.2273C207.75 88.7581 207.852 88.2508 207.852 87.7054V83.9196Z" fill="black"/>
<path d="M225.107 68.7191H243.484V73.7225H230.624V79.5249H242.476V84.5093H230.624V91.0156H244.226V96H225.107V68.7191Z" fill="black"/>
<path d="M252.388 87.6293C252.476 88.2381 252.667 88.7961 252.958 89.3034C253.263 89.8108 253.643 90.2483 254.1 90.6161C254.556 90.9712 255.083 91.2503 255.679 91.4532C256.275 91.6561 256.909 91.7576 257.581 91.7576C258.355 91.7576 259.192 91.6117 260.092 91.32C260.993 91.0156 261.817 90.5781 262.566 90.0073L265.096 93.6981C264.145 94.4971 262.978 95.1439 261.595 95.6385C260.213 96.1332 258.742 96.3805 257.182 96.3805C255.774 96.3805 254.449 96.1395 253.206 95.6576C251.963 95.1756 250.872 94.478 249.933 93.5649C249.008 92.6517 248.272 91.542 247.727 90.2356C247.194 88.9293 246.928 87.4581 246.928 85.822C246.928 84.3254 247.162 82.9303 247.632 81.6366C248.113 80.343 248.779 79.2206 249.629 78.2693C250.492 77.3181 251.519 76.5762 252.711 76.0435C253.903 75.4981 255.222 75.2254 256.668 75.2254C258.012 75.2254 259.262 75.4728 260.416 75.9674C261.57 76.4493 262.572 77.1342 263.422 78.022C264.271 78.8971 264.937 79.9498 265.419 81.1801C265.901 82.4103 266.142 83.7674 266.142 85.2513V87.6293H252.388ZM256.649 79.7913C255.52 79.7913 254.563 80.1718 253.776 80.9327C253.003 81.681 252.552 82.5879 252.426 83.6532H260.644C260.619 82.5752 260.226 81.662 259.465 80.9137C258.704 80.1654 257.765 79.7913 256.649 79.7913Z" fill="black"/>
<path d="M277.119 68.7191H295.497V73.7225H282.636V79.5249H294.488V84.5093H282.636V96H277.119V68.7191Z" fill="black"/>
<path d="M305.979 75.625H309.879V80.1908H305.979V96H300.728V80.1908H297.494V75.625H300.728V73.1328C300.728 72.245 300.881 71.4777 301.185 70.8308C301.489 70.1713 301.908 69.6323 302.441 69.2138C302.986 68.7826 303.633 68.4655 304.381 68.2626C305.142 68.0469 305.979 67.9391 306.892 67.9391C307.349 67.9391 307.793 67.9518 308.224 67.9772C308.655 68.0026 309.055 68.0279 309.422 68.0533C309.79 68.0787 310.114 68.1104 310.393 68.1484C310.684 68.1865 310.906 68.2118 311.059 68.2245L310.621 72.6952C310.469 72.6699 310.279 72.6445 310.05 72.6191C309.835 72.5938 309.606 72.5747 309.365 72.562C309.124 72.5367 308.89 72.524 308.661 72.524C308.433 72.5113 308.23 72.505 308.053 72.505C307.304 72.505 306.772 72.6508 306.455 72.9425C306.138 73.2216 305.979 73.583 305.979 74.0269V75.625Z" fill="black"/>
<path d="M324.851 82.4357C324.851 83.6025 324.997 84.7249 325.289 85.803C325.58 86.881 326.024 87.8322 326.62 88.6566C327.217 89.481 327.978 90.1468 328.903 90.6542C329.829 91.1488 330.933 91.3961 332.214 91.3961C333.444 91.3961 334.465 91.1995 335.277 90.8064C336.101 90.4132 336.754 89.9249 337.236 89.3415C337.731 88.7454 338.073 88.1049 338.263 87.42C338.466 86.7352 338.568 86.101 338.568 85.5176V85.2513H331.586V81.0469H343.933V96H339.1V92.8039C338.758 93.3366 338.333 93.8249 337.826 94.2688C337.318 94.7 336.748 95.0741 336.114 95.3912C335.479 95.6956 334.782 95.9366 334.021 96.1141C333.273 96.2917 332.474 96.3805 331.624 96.3805C329.633 96.3805 327.863 96.019 326.316 95.2961C324.769 94.5732 323.462 93.5776 322.397 92.3093C321.344 91.041 320.539 89.5571 319.981 87.8576C319.436 86.1581 319.163 84.3254 319.163 82.3596C319.163 80.4064 319.467 78.5801 320.076 76.8806C320.698 75.1684 321.573 73.6845 322.701 72.4289C323.843 71.1606 325.213 70.165 326.811 69.4421C328.421 68.7065 330.222 68.3386 332.214 68.3386C333.507 68.3386 334.731 68.4908 335.885 68.7952C337.052 69.0869 338.111 69.5118 339.062 70.0699C340.026 70.6152 340.876 71.2811 341.612 72.0674C342.347 72.8411 342.943 73.7035 343.4 74.6547L338.568 77.3752C338.276 76.7918 337.934 76.2528 337.54 75.7581C337.147 75.2508 336.691 74.8196 336.171 74.4645C335.663 74.0967 335.08 73.8113 334.42 73.6084C333.761 73.3928 333.025 73.285 332.214 73.285C330.933 73.285 329.829 73.5386 328.903 74.0459C327.978 74.5406 327.217 75.2001 326.62 76.0245C326.024 76.8489 325.58 77.8064 325.289 78.8971C324.997 79.9752 324.851 81.0913 324.851 82.2454V82.4357Z" fill="black"/>
<path d="M360.598 92.3854C360.129 92.9561 359.469 93.4127 358.619 93.7551C357.782 94.0849 356.869 94.2498 355.88 94.2498C354.51 94.2498 353.293 94.0088 352.227 93.5268C351.162 93.0449 350.261 92.3854 349.526 91.5483C348.803 90.6986 348.245 89.6966 347.852 88.5425C347.471 87.3883 347.281 86.12 347.281 84.7376C347.281 83.3932 347.471 82.1376 347.852 80.9708C348.245 79.7913 348.803 78.783 349.526 77.9459C350.261 77.0962 351.162 76.4303 352.227 75.9484C353.293 75.4664 354.51 75.2254 355.88 75.2254C356.869 75.2254 357.782 75.3967 358.619 75.7391C359.469 76.0815 360.129 76.5381 360.598 77.1089V75.625H365.868V95.8098C365.868 97.0527 365.633 98.118 365.164 99.0058C364.694 99.9063 364.048 100.642 363.223 101.213C362.411 101.783 361.467 102.196 360.389 102.449C359.311 102.716 358.163 102.849 356.945 102.849C355.461 102.849 353.914 102.671 352.303 102.316C350.693 101.974 349.304 101.542 348.137 101.022L349.621 96.78C349.976 96.9322 350.414 97.0971 350.934 97.2746C351.453 97.4649 352.012 97.6297 352.608 97.7693C353.204 97.9088 353.825 98.0229 354.472 98.1117C355.132 98.2132 355.772 98.2639 356.393 98.2639C356.939 98.2639 357.465 98.2068 357.973 98.0927C358.48 97.9912 358.924 97.8136 359.304 97.56C359.697 97.319 360.008 96.9956 360.236 96.5897C360.477 96.1966 360.598 95.6893 360.598 95.0678V92.3854ZM352.684 84.8137C352.684 85.4859 352.753 86.12 352.893 86.7161C353.045 87.2995 353.28 87.8005 353.597 88.2191C353.927 88.6249 354.345 88.9483 354.853 89.1893C355.36 89.4176 355.975 89.5317 356.698 89.5317C358.131 89.5317 359.152 89.0815 359.761 88.181C360.37 87.2678 360.674 86.1454 360.674 84.8137V84.6615C360.674 83.9893 360.604 83.3615 360.465 82.7781C360.325 82.1947 360.097 81.6937 359.78 81.2752C359.463 80.8566 359.051 80.5332 358.543 80.3049C358.049 80.064 357.433 79.9435 356.698 79.9435C355.277 79.9435 354.25 80.3937 353.616 81.2942C352.994 82.1947 352.684 83.3171 352.684 84.6615V84.8137Z" fill="black"/>
<path d="M395.546 84.5093H383.541V96H378.024V68.7191H383.541V79.5249H395.546V68.7191H401.082V96H395.546V84.5093Z" fill="black"/>
<path d="M406.199 68.7191H411.45V77.3752C411.729 77.0962 412.04 76.8298 412.382 76.5762C412.737 76.3098 413.124 76.0815 413.543 75.8913C413.961 75.6884 414.424 75.5298 414.931 75.4157C415.451 75.2889 416.022 75.2254 416.643 75.2254C417.747 75.2254 418.736 75.4094 419.611 75.7772C420.486 76.1323 421.222 76.6269 421.818 77.2611C422.427 77.8952 422.89 78.6371 423.207 79.4869C423.524 80.3366 423.682 81.2562 423.682 82.2454V96H418.432V84.1479C418.432 83.4249 418.349 82.8161 418.184 82.3215C418.02 81.8142 417.791 81.4083 417.5 81.104C417.221 80.7869 416.884 80.5586 416.491 80.4191C416.111 80.2669 415.692 80.1908 415.236 80.1908C414.703 80.1908 414.202 80.2859 413.733 80.4762C413.276 80.6664 412.877 80.9581 412.534 81.3513C412.192 81.7318 411.925 82.2137 411.735 82.7971C411.545 83.3805 411.45 84.0654 411.45 84.8517V96H406.199V68.7191Z" fill="black"/>
<path d="M435.706 68.7191H441.223V96H435.706V68.7191Z" fill="black"/>
<path d="M451.591 96H446.34V75.625H451.591V96ZM445.789 70.2791C445.789 69.8479 445.871 69.4421 446.036 69.0616C446.201 68.6684 446.423 68.3323 446.702 68.0533C446.994 67.7616 447.33 67.5333 447.71 67.3684C448.091 67.2035 448.503 67.1211 448.947 67.1211C449.378 67.1211 449.784 67.2035 450.164 67.3684C450.557 67.5333 450.894 67.7616 451.173 68.0533C451.464 68.3323 451.693 68.6684 451.857 69.0616C452.022 69.4421 452.105 69.8479 452.105 70.2791C452.105 70.723 452.022 71.1352 451.857 71.5157C451.693 71.8962 451.464 72.2323 451.173 72.524C450.894 72.803 450.557 73.025 450.164 73.1898C449.784 73.3547 449.378 73.4372 448.947 73.4372C448.503 73.4372 448.091 73.3547 447.71 73.1898C447.33 73.025 446.994 72.803 446.702 72.524C446.423 72.2323 446.201 71.8962 446.036 71.5157C445.871 71.1352 445.789 70.723 445.789 70.2791Z" fill="black"/>
<path d="M2.86476 131.54C3.32134 131.68 3.79061 131.806 4.27255 131.921C4.67841 132.022 5.11597 132.111 5.58523 132.187C6.06718 132.25 6.51108 132.282 6.91693 132.282C7.77937 132.282 8.44522 132.2 8.91449 132.035C9.39643 131.857 9.75156 131.591 9.97985 131.236C10.2081 130.881 10.3477 130.43 10.3984 129.885C10.4491 129.327 10.4745 128.661 10.4745 127.887V109.719H15.9915V130.836C15.9915 131.838 15.833 132.745 15.5159 133.557C15.1988 134.356 14.7106 135.04 14.051 135.611C13.4042 136.182 12.5862 136.62 11.5969 136.924C10.6203 137.228 9.46619 137.38 8.13449 137.38C7.53839 137.38 6.93596 137.361 6.32718 137.323C5.73108 137.285 5.14767 137.222 4.57694 137.133C4.00621 137.057 3.46085 136.956 2.94085 136.829C2.43354 136.702 1.9833 136.55 1.59013 136.372L2.86476 131.54Z" fill="black"/>
<path d="M25.8271 139.568C25.8271 140.24 25.7003 140.83 25.4466 141.338C25.2056 141.845 24.8695 142.27 24.4383 142.612C24.0198 142.955 23.5252 143.215 22.9544 143.392C22.3837 143.57 21.7686 143.659 21.1091 143.659C20.6652 143.659 20.2276 143.646 19.7964 143.62C19.3779 143.608 18.991 143.589 18.6359 143.563C18.2935 143.538 18.0018 143.513 17.7608 143.487C17.5071 143.462 17.3423 143.443 17.2662 143.43L17.7988 138.94C18.0525 138.979 18.2871 139.01 18.5027 139.036C18.731 139.061 18.9403 139.074 19.1305 139.074C19.6759 139.074 20.05 138.979 20.253 138.788C20.4686 138.611 20.5764 138.376 20.5764 138.084V116.625H25.8271V139.568ZM19.9866 111.317C19.9866 110.873 20.0691 110.455 20.2339 110.062C20.3988 109.668 20.6208 109.332 20.8998 109.053C21.1915 108.762 21.5276 108.533 21.9081 108.368C22.2886 108.204 22.7008 108.121 23.1447 108.121C23.5886 108.121 24.0071 108.204 24.4003 108.368C24.7934 108.533 25.1295 108.762 25.4086 109.053C25.7003 109.332 25.9286 109.668 26.0934 110.062C26.2583 110.455 26.3408 110.873 26.3408 111.317C26.3408 111.761 26.2583 112.173 26.0934 112.554C25.9286 112.934 25.7003 113.27 25.4086 113.562C25.1295 113.841 24.7934 114.063 24.4003 114.228C24.0071 114.393 23.5886 114.475 23.1447 114.475C22.7008 114.475 22.2886 114.393 21.9081 114.228C21.5276 114.063 21.1915 113.841 20.8998 113.562C20.6208 113.27 20.3988 112.934 20.2339 112.554C20.0691 112.173 19.9866 111.761 19.9866 111.317Z" fill="black"/>
<path d="M37.9836 109.719H43.5007V121.533L53.2411 109.719H60.0328L50.5587 120.563L60.6416 137H54.2304L47.0202 124.767L43.5007 128.705V137H37.9836V109.719Z" fill="black"/>
<path d="M68.0611 124.615L74.8527 116.625H81.3971L74.0347 124.958L81.6064 137H75.2903L70.2108 128.705L68.0611 131.045V137H62.8104V109.719H68.0611V124.615Z" fill="black"/>
<path d="M91.518 109.719H97.0351V131.901H107.841V137H91.518V109.719Z" fill="black"/>
<path d="M110.599 109.719H115.85V131.464C115.85 131.895 115.971 132.225 116.212 132.453C116.465 132.681 116.865 132.796 117.41 132.796C117.664 132.796 117.879 132.783 118.057 132.758C118.247 132.72 118.488 132.669 118.78 132.605L119.198 137.076C118.843 137.127 118.463 137.178 118.057 137.228C117.715 137.266 117.315 137.298 116.858 137.323C116.415 137.361 115.952 137.38 115.47 137.38C114.721 137.38 114.049 137.285 113.453 137.095C112.857 136.905 112.343 136.626 111.912 136.258C111.494 135.878 111.17 135.408 110.942 134.85C110.714 134.292 110.599 133.645 110.599 132.91V109.719Z" fill="black"/>
<path d="M142.351 128.192L134.285 118.109V137H128.768V109.719H134.361L142.427 120.373L150.741 109.719H156.106V137H150.569V118.109L142.541 128.192H142.351Z" fill="black"/>
<path d="M178.421 137H173.151V125.148C173.151 124.425 173.069 123.816 172.904 123.322C172.752 122.814 172.536 122.408 172.257 122.104C171.978 121.787 171.655 121.565 171.287 121.438C170.919 121.299 170.52 121.229 170.088 121.229C169.581 121.229 169.105 121.318 168.662 121.495C168.23 121.673 167.85 121.952 167.52 122.332C167.203 122.713 166.949 123.201 166.759 123.797C166.582 124.381 166.493 125.078 166.493 125.89V137H161.242V116.625H166.493V118.413C167.165 117.665 167.945 117.113 168.833 116.758C169.733 116.403 170.697 116.225 171.725 116.225C172.777 116.225 173.76 116.441 174.673 116.872C175.599 117.303 176.366 118.014 176.975 119.003C177.33 118.496 177.736 118.064 178.193 117.709C178.662 117.354 179.163 117.069 179.696 116.853C180.228 116.638 180.78 116.479 181.351 116.378C181.934 116.276 182.53 116.225 183.139 116.225C184.281 116.225 185.295 116.416 186.183 116.796C187.083 117.164 187.844 117.665 188.466 118.299C189.087 118.933 189.563 119.663 189.893 120.487C190.222 121.311 190.387 122.18 190.387 123.093V137H185.08V125.148C185.08 124.425 184.997 123.816 184.832 123.322C184.68 122.814 184.464 122.408 184.185 122.104C183.906 121.787 183.577 121.565 183.196 121.438C182.828 121.299 182.429 121.229 181.998 121.229C181.49 121.229 181.021 121.318 180.59 121.495C180.159 121.673 179.778 121.952 179.448 122.332C179.131 122.713 178.878 123.201 178.687 123.797C178.51 124.381 178.421 125.078 178.421 125.89V137Z" fill="black"/>
<path d="M207.909 116.111V137H202.392V109.719H210.173L221.093 128.04V109.719H226.61V137H220.541L207.909 116.111Z" fill="black"/>
<path d="M231.746 116.625H236.997V118.375C237.276 118.096 237.587 117.83 237.929 117.576C238.284 117.31 238.671 117.082 239.09 116.891C239.508 116.688 239.971 116.53 240.478 116.416C240.998 116.289 241.569 116.225 242.191 116.225C243.294 116.225 244.283 116.409 245.158 116.777C246.033 117.132 246.769 117.627 247.365 118.261C247.974 118.895 248.437 119.637 248.754 120.487C249.071 121.337 249.23 122.256 249.23 123.245V137H243.979V125.148C243.979 124.425 243.896 123.816 243.732 123.322C243.567 122.814 243.338 122.408 243.047 122.104C242.768 121.787 242.432 121.559 242.038 121.419C241.658 121.267 241.239 121.191 240.783 121.191C240.25 121.191 239.749 121.286 239.28 121.476C238.823 121.666 238.424 121.958 238.081 122.351C237.739 122.732 237.473 123.214 237.282 123.797C237.092 124.381 236.997 125.065 236.997 125.852V137H231.746V116.625Z" fill="black"/>
<path d="M272.896 109.339C274.925 109.339 276.745 109.706 278.356 110.442C279.966 111.165 281.33 112.161 282.446 113.429C283.575 114.684 284.431 116.168 285.014 117.881C285.61 119.58 285.908 121.406 285.908 123.36C285.908 125.325 285.61 127.158 285.014 128.858C284.431 130.557 283.575 132.041 282.446 133.309C281.33 134.578 279.966 135.573 278.356 136.296C276.745 137.019 274.925 137.38 272.896 137.38C270.854 137.38 269.027 137.019 267.417 136.296C265.819 135.573 264.455 134.578 263.327 133.309C262.21 132.041 261.354 130.557 260.758 128.858C260.175 127.158 259.883 125.325 259.883 123.36C259.883 121.406 260.175 119.58 260.758 117.881C261.354 116.168 262.21 114.684 263.327 113.429C264.455 112.161 265.819 111.165 267.417 110.442C269.027 109.706 270.854 109.339 272.896 109.339ZM272.896 132.396C274.088 132.396 275.134 132.174 276.035 131.73C276.948 131.274 277.715 130.646 278.337 129.847C278.958 129.048 279.427 128.103 279.745 127.012C280.062 125.922 280.22 124.729 280.22 123.436V123.283C280.22 122.002 280.062 120.817 279.745 119.726C279.427 118.623 278.958 117.671 278.337 116.872C277.715 116.073 276.948 115.452 276.035 115.008C275.134 114.551 274.088 114.323 272.896 114.323C271.704 114.323 270.651 114.551 269.738 115.008C268.825 115.452 268.057 116.073 267.436 116.872C266.827 117.671 266.364 118.623 266.047 119.726C265.73 120.817 265.571 122.002 265.571 123.283V123.436C265.571 124.729 265.73 125.922 266.047 127.012C266.364 128.103 266.827 129.048 267.436 129.847C268.057 130.646 268.825 131.274 269.738 131.73C270.651 132.174 271.704 132.396 272.896 132.396Z" fill="black"/>
<path d="M298.579 116.225C300.088 116.225 301.458 116.498 302.688 117.043C303.918 117.576 304.971 118.318 305.846 119.269C306.721 120.221 307.393 121.343 307.862 122.637C308.344 123.93 308.585 125.325 308.585 126.822C308.585 128.331 308.344 129.733 307.862 131.026C307.38 132.307 306.702 133.417 305.827 134.356C304.952 135.294 303.899 136.036 302.669 136.581C301.439 137.114 300.075 137.38 298.579 137.38C297.069 137.38 295.7 137.114 294.469 136.581C293.239 136.036 292.186 135.294 291.311 134.356C290.436 133.417 289.758 132.307 289.276 131.026C288.794 129.733 288.553 128.331 288.553 126.822C288.553 125.325 288.787 123.93 289.257 122.637C289.739 121.343 290.417 120.221 291.292 119.269C292.167 118.318 293.22 117.576 294.45 117.043C295.693 116.498 297.069 116.225 298.579 116.225ZM298.579 132.51C299.327 132.51 299.986 132.371 300.557 132.092C301.141 131.813 301.629 131.426 302.022 130.931C302.415 130.437 302.713 129.847 302.916 129.162C303.119 128.464 303.221 127.703 303.221 126.879V126.746C303.221 125.922 303.119 125.167 302.916 124.482C302.713 123.784 302.415 123.188 302.022 122.694C301.629 122.186 301.141 121.793 300.557 121.514C299.986 121.235 299.327 121.096 298.579 121.096C297.83 121.096 297.164 121.235 296.581 121.514C296.01 121.793 295.528 122.186 295.135 122.694C294.742 123.188 294.444 123.784 294.241 124.482C294.038 125.167 293.937 125.922 293.937 126.746V126.879C293.937 127.703 294.038 128.464 294.241 129.162C294.444 129.847 294.742 130.437 295.135 130.931C295.528 131.426 296.01 131.813 296.581 132.092C297.164 132.371 297.83 132.51 298.579 132.51Z" fill="black"/>
<path d="M319.696 109.719H330.597C332.004 109.719 333.273 109.954 334.401 110.423C335.543 110.88 336.507 111.514 337.293 112.325C338.079 113.124 338.682 114.076 339.1 115.179C339.532 116.283 339.747 117.481 339.747 118.775C339.747 120.068 339.513 121.267 339.043 122.37C338.587 123.474 337.934 124.431 337.084 125.243C336.247 126.042 335.238 126.67 334.059 127.126C332.879 127.583 331.579 127.811 330.159 127.811H325.213V137H319.696V109.719ZM334.059 118.68C334.059 118.033 333.945 117.462 333.717 116.967C333.488 116.46 333.158 116.029 332.727 115.674C332.296 115.319 331.776 115.052 331.167 114.875C330.559 114.684 329.874 114.589 329.113 114.589H325.213V122.941H329.113C329.874 122.941 330.559 122.852 331.167 122.675C331.776 122.484 332.296 122.212 332.727 121.857C333.158 121.502 333.488 121.077 333.717 120.582C333.945 120.075 334.059 119.498 334.059 118.851V118.68Z" fill="black"/>
<path d="M347.947 143.43H342.696V116.625H347.947V118.375C348.517 117.779 349.221 117.272 350.058 116.853C350.895 116.435 351.91 116.225 353.102 116.225C354.447 116.225 355.664 116.498 356.755 117.043C357.858 117.576 358.803 118.318 359.59 119.269C360.376 120.208 360.985 121.324 361.416 122.618C361.847 123.911 362.063 125.313 362.063 126.822C362.063 128.331 361.841 129.733 361.397 131.026C360.953 132.32 360.331 133.436 359.532 134.375C358.733 135.313 357.776 136.049 356.66 136.581C355.544 137.114 354.313 137.38 352.969 137.38C352.373 137.38 351.828 137.323 351.333 137.209C350.851 137.108 350.407 136.962 350.001 136.772C349.595 136.581 349.221 136.36 348.879 136.106C348.536 135.84 348.226 135.554 347.947 135.25V143.43ZM347.794 128.705C347.794 129.251 347.89 129.758 348.08 130.227C348.283 130.684 348.568 131.083 348.936 131.426C349.304 131.768 349.741 132.035 350.249 132.225C350.769 132.415 351.352 132.51 351.999 132.51C352.747 132.51 353.407 132.377 353.977 132.111C354.561 131.832 355.049 131.445 355.442 130.95C355.835 130.456 356.133 129.872 356.336 129.2C356.539 128.515 356.641 127.767 356.641 126.955V126.708C356.641 125.896 356.539 125.148 356.336 124.463C356.133 123.778 355.835 123.188 355.442 122.694C355.049 122.186 354.561 121.793 353.977 121.514C353.407 121.235 352.747 121.096 351.999 121.096C351.352 121.096 350.769 121.191 350.249 121.381C349.741 121.571 349.304 121.838 348.936 122.18C348.568 122.522 348.283 122.928 348.08 123.398C347.89 123.867 347.794 124.374 347.794 124.92V128.705Z" fill="black"/>
<path d="M384.835 109.339C386.864 109.339 388.684 109.706 390.295 110.442C391.906 111.165 393.269 112.161 394.385 113.429C395.514 114.684 396.37 116.168 396.953 117.881C397.549 119.58 397.847 121.406 397.847 123.36C397.847 125.325 397.549 127.158 396.953 128.858C396.37 130.557 395.514 132.041 394.385 133.309C394.296 133.411 394.207 133.512 394.119 133.614L396.516 136.562L392.616 139.759L389.952 136.448C388.43 137.07 386.725 137.38 384.835 137.38C382.793 137.38 380.967 137.019 379.356 136.296C377.758 135.573 376.394 134.578 375.266 133.309C374.15 132.041 373.293 130.557 372.697 128.858C372.114 127.158 371.822 125.325 371.822 123.36C371.822 121.406 372.114 119.58 372.697 117.881C373.293 116.168 374.15 114.684 375.266 113.429C376.394 112.161 377.758 111.165 379.356 110.442C380.967 109.706 382.793 109.339 384.835 109.339ZM384.835 132.396C385.444 132.396 386.014 132.339 386.547 132.225L383.465 128.382L387.365 125.186L390.656 129.295C391.087 128.623 391.43 127.862 391.684 127.012C392.001 125.922 392.159 124.729 392.159 123.436V123.283C392.159 122.002 392.001 120.817 391.684 119.726C391.366 118.623 390.897 117.671 390.276 116.872C389.654 116.073 388.887 115.452 387.974 115.008C387.073 114.551 386.027 114.323 384.835 114.323C383.643 114.323 382.59 114.551 381.677 115.008C380.764 115.452 379.996 116.073 379.375 116.872C378.766 117.671 378.303 118.623 377.986 119.726C377.669 120.817 377.51 122.002 377.51 123.283V123.436C377.51 124.729 377.669 125.922 377.986 127.012C378.303 128.103 378.766 129.048 379.375 129.847C379.996 130.646 380.764 131.274 381.677 131.73C382.59 132.174 383.643 132.396 384.835 132.396Z" fill="black"/>
<path d="M414.646 135.25C414.367 135.554 414.056 135.84 413.714 136.106C413.384 136.36 413.01 136.581 412.591 136.772C412.185 136.962 411.735 137.108 411.241 137.209C410.759 137.323 410.22 137.38 409.624 137.38C408.279 137.38 407.049 137.114 405.933 136.581C404.817 136.049 403.859 135.313 403.06 134.375C402.261 133.436 401.64 132.32 401.196 131.026C400.765 129.733 400.549 128.331 400.549 126.822C400.549 125.313 400.765 123.911 401.196 122.618C401.627 121.324 402.229 120.208 403.003 119.269C403.789 118.318 404.734 117.576 405.838 117.043C406.941 116.498 408.165 116.225 409.509 116.225C410.702 116.225 411.71 116.435 412.534 116.853C413.371 117.259 414.075 117.766 414.646 118.375V116.625H419.897V143.43H414.646V135.25ZM414.798 124.92C414.798 124.374 414.697 123.867 414.494 123.398C414.303 122.928 414.024 122.522 413.657 122.18C413.289 121.838 412.845 121.571 412.325 121.381C411.818 121.191 411.241 121.096 410.594 121.096C409.845 121.096 409.18 121.235 408.596 121.514C408.025 121.793 407.544 122.186 407.15 122.694C406.757 123.188 406.459 123.778 406.256 124.463C406.053 125.148 405.952 125.896 405.952 126.708V126.955C405.952 127.767 406.053 128.515 406.256 129.2C406.459 129.872 406.757 130.456 407.15 130.95C407.544 131.445 408.025 131.832 408.596 132.111C409.18 132.377 409.845 132.51 410.594 132.51C411.241 132.51 411.818 132.415 412.325 132.225C412.845 132.035 413.289 131.768 413.657 131.426C414.024 131.083 414.303 130.684 414.494 130.227C414.697 129.758 414.798 129.251 414.798 128.705V124.92Z" fill="black"/>
<path d="M432.053 109.719H442.612C444.235 109.719 445.668 109.954 446.911 110.423C448.154 110.892 449.194 111.52 450.031 112.306C450.868 113.093 451.502 114 451.934 115.027C452.365 116.042 452.58 117.107 452.58 118.223C452.58 119.123 452.441 119.98 452.162 120.791C451.896 121.59 451.521 122.32 451.039 122.979C450.57 123.626 450.012 124.19 449.365 124.672C448.718 125.142 448.021 125.509 447.273 125.776L453.246 137H446.892L441.946 127.183H437.57V137H432.053V109.719ZM446.816 118.413C446.816 117.868 446.715 117.361 446.512 116.891C446.321 116.422 446.023 116.016 445.617 115.674C445.224 115.331 444.73 115.065 444.134 114.875C443.537 114.684 442.846 114.589 442.06 114.589H437.57V122.275H442.06C442.846 122.275 443.537 122.18 444.134 121.99C444.73 121.787 445.224 121.514 445.617 121.172C446.023 120.817 446.321 120.404 446.512 119.935C446.715 119.466 446.816 118.959 446.816 118.413Z" fill="black"/>
<path d="M467.99 121.723H467.438C466.69 121.723 465.974 121.8 465.289 121.952C464.616 122.104 464.02 122.383 463.5 122.789C462.98 123.182 462.562 123.727 462.245 124.425C461.94 125.122 461.788 126.017 461.788 127.107V137H456.537V116.625H461.788V118.927C462.004 118.584 462.283 118.255 462.625 117.938C462.968 117.621 463.367 117.342 463.824 117.101C464.28 116.847 464.794 116.644 465.365 116.492C465.935 116.34 466.551 116.263 467.21 116.263H467.99V121.723Z" fill="black"/>
<path d="M5.68035 169.333C6.03547 169.739 6.46669 170.139 6.97401 170.532C7.48132 170.925 8.03937 171.28 8.64815 171.597C9.26961 171.901 9.9418 172.149 10.6647 172.339C11.3876 172.517 12.1676 172.605 13.0047 172.605C14.5647 172.605 15.7569 172.282 16.5813 171.635C17.4184 170.976 17.8369 170.177 17.8369 169.238C17.8369 168.261 17.4691 167.52 16.7335 167.012C16.0106 166.505 14.8564 166.105 13.2711 165.814L12.415 165.662C11.2735 165.459 10.1384 165.192 9.00961 164.862C7.88083 164.533 6.85986 164.057 5.94669 163.436C5.03353 162.814 4.29158 162.022 3.72085 161.058C3.15012 160.081 2.86476 158.851 2.86476 157.367C2.86476 156.504 3.055 155.604 3.43548 154.665C3.81597 153.714 4.41841 152.845 5.24279 152.059C6.07986 151.26 7.15157 150.607 8.4579 150.1C9.77692 149.592 11.3686 149.339 13.233 149.339C15.4398 149.339 17.4057 149.706 19.1305 150.442C20.8681 151.165 22.2696 152.123 23.3349 153.315L19.6632 156.739C18.9149 155.915 17.951 155.268 16.7715 154.799C15.6047 154.329 14.3998 154.095 13.1569 154.095C11.7237 154.095 10.6013 154.367 9.7896 154.913C8.99058 155.458 8.59107 156.168 8.59107 157.043C8.59107 157.614 8.7179 158.09 8.97156 158.47C9.2379 158.851 9.6057 159.168 10.075 159.422C10.5442 159.663 11.1086 159.865 11.7681 160.03C12.4276 160.195 13.1632 160.36 13.975 160.525L14.4125 160.601C15.5032 160.804 16.5876 161.064 17.6657 161.381C18.7437 161.685 19.7203 162.142 20.5954 162.751C21.4832 163.347 22.1998 164.133 22.7452 165.11C23.2905 166.074 23.5632 167.31 23.5632 168.82C23.5632 170.189 23.2778 171.401 22.7071 172.453C22.1364 173.506 21.3817 174.406 20.4432 175.155C19.5047 175.89 18.4203 176.448 17.1901 176.829C15.9598 177.197 14.6789 177.38 13.3471 177.38C12.0028 177.38 10.7535 177.266 9.59936 177.038C8.4579 176.81 7.41791 176.486 6.47937 176.068C5.55352 175.649 4.7228 175.18 3.98719 174.66C3.26427 174.14 2.63012 173.582 2.08476 172.986L5.68035 169.333Z" fill="black"/>
<path d="M29.0993 170.494C29.8476 171.166 30.7417 171.743 31.7817 172.225C32.8217 172.707 33.8744 172.948 34.9397 172.948C35.7134 172.948 36.3222 172.802 36.7661 172.51C37.21 172.206 37.4319 171.819 37.4319 171.35C37.4319 170.551 36.5758 169.929 34.8636 169.485L33.3797 169.086C32.6441 168.908 31.9022 168.667 31.1539 168.363C30.4056 168.046 29.7144 167.634 29.0803 167.126C28.4588 166.619 27.9515 166.004 27.5583 165.281C27.1778 164.545 26.9876 163.645 26.9876 162.58C26.9876 161.73 27.1715 160.924 27.5393 160.163C27.9198 159.39 28.4524 158.711 29.1373 158.128C29.8349 157.544 30.6783 157.082 31.6676 156.739C32.6568 156.397 33.7602 156.225 34.9778 156.225C36.7153 156.225 38.2627 156.498 39.6197 157.043C40.9895 157.589 42.0675 158.204 42.8539 158.889L40.1144 162.389C39.4675 161.92 38.7002 161.521 37.8124 161.191C36.9373 160.848 36.0558 160.677 35.168 160.677C34.3436 160.677 33.7032 160.829 33.2466 161.134C32.79 161.425 32.5617 161.781 32.5617 162.199C32.5617 162.643 32.7583 163.004 33.1515 163.283C33.5573 163.55 34.1407 163.784 34.9017 163.987L37.1085 164.615C39.2139 165.211 40.7231 166.017 41.6363 167.031C42.5495 168.046 43.006 169.327 43.006 170.874C43.006 171.737 42.8285 172.561 42.4734 173.347C42.1182 174.121 41.5982 174.812 40.9134 175.421C40.2285 176.03 39.3787 176.512 38.3641 176.867C37.3495 177.209 36.1953 177.38 34.9017 177.38C33.9124 177.38 32.9802 177.292 32.1051 177.114C31.2427 176.937 30.4373 176.696 29.689 176.391C28.9534 176.074 28.2876 175.719 27.6915 175.326C27.0954 174.933 26.5881 174.54 26.1695 174.146L29.0993 170.494Z" fill="black"/>
<path d="M50.7109 149.719H71.5045V154.837H63.8757V177H58.3396V154.837H50.7109V149.719Z" fill="black"/>
<path d="M80.7883 170.931C80.7883 171.172 80.82 171.401 80.8835 171.616C80.9469 171.832 81.0547 172.022 81.2069 172.187C81.3717 172.339 81.6 172.46 81.8917 172.548C82.1834 172.637 82.5576 172.681 83.0142 172.681C83.2044 172.681 83.42 172.675 83.661 172.662C83.902 172.637 84.143 172.612 84.3839 172.586C84.6249 172.561 84.8468 172.529 85.0498 172.491C85.2654 172.453 85.4429 172.421 85.5825 172.396L86.0581 177.038C85.5634 177.101 85.0498 177.159 84.5171 177.209C84.0605 177.26 83.5532 177.298 82.9951 177.323C82.4371 177.361 81.8727 177.38 81.302 177.38C79.4883 177.38 78.0742 176.968 77.0596 176.144C76.0449 175.32 75.5376 174.007 75.5376 172.206V161.191H71.8659V156.625H75.5376V150.861L80.7883 149.453V156.625H86.1342V161.191H80.7883V170.931Z" fill="black"/>
<path d="M107.86 172.396C108.659 172.396 109.401 172.282 110.086 172.054C110.783 171.813 111.379 171.458 111.874 170.988C112.381 170.506 112.781 169.904 113.073 169.181C113.364 168.445 113.51 167.583 113.51 166.594V149.681H118.951V167.412C118.951 168.934 118.672 170.31 118.114 171.54C117.569 172.77 116.801 173.817 115.812 174.679C114.836 175.541 113.669 176.207 112.312 176.677C110.955 177.146 109.471 177.38 107.86 177.38C106.249 177.38 104.765 177.146 103.408 176.677C102.051 176.207 100.878 175.541 99.8887 174.679C98.8995 173.817 98.1258 172.77 97.5678 171.54C97.0224 170.31 96.7497 168.934 96.7497 167.412V149.681H102.21V166.594C102.21 167.583 102.356 168.445 102.647 169.181C102.939 169.904 103.332 170.506 103.827 170.988C104.334 171.458 104.93 171.813 105.615 172.054C106.313 172.282 107.061 172.396 107.86 172.396Z" fill="black"/>
<path d="M141.095 177H135.845V175.25C135.553 175.529 135.236 175.801 134.893 176.068C134.551 176.321 134.171 176.55 133.752 176.753C133.333 176.943 132.864 177.095 132.344 177.209C131.837 177.323 131.272 177.38 130.651 177.38C129.548 177.38 128.558 177.203 127.683 176.848C126.808 176.48 126.066 175.985 125.457 175.364C124.861 174.73 124.405 173.988 124.088 173.138C123.771 172.288 123.612 171.369 123.612 170.38V156.625H128.863V168.458C128.863 169.181 128.939 169.796 129.091 170.303C129.256 170.811 129.478 171.223 129.757 171.54C130.049 171.844 130.391 172.073 130.784 172.225C131.177 172.364 131.602 172.434 132.059 172.434C132.592 172.434 133.086 172.339 133.543 172.149C134.012 171.959 134.418 171.673 134.76 171.293C135.103 170.9 135.369 170.411 135.559 169.828C135.75 169.244 135.845 168.56 135.845 167.773V156.625H141.095V177Z" fill="black"/>
<path d="M157.608 177L149.904 149.719H156.087L161.356 170.227H161.547L166.702 149.719H172.809L165.104 177H157.608Z" fill="black"/>
<path d="M180.057 177L173.817 156.625H179.677L183.329 170.646L187.077 156.625H192.842L186.64 177H180.057Z" fill="black"/>
<path d="M223.299 168.553H223.376L227.085 149.719H233.078L226.99 177H220.217L216.089 157.443L212.037 177H205.302L199.215 149.719H205.226L208.803 168.553H208.879L213.045 149.719H219.247L223.299 168.553Z" fill="black"/>
<path d="M254.785 170.341L257.277 156.625H262.832L258.133 177H251.893L248.849 163.759L245.615 177H239.47L234.752 156.625H240.478L242.894 170.341L246.433 156.625H251.455L254.785 170.341Z" fill="black"/>
<path d="M293.442 149.719L285.775 162.427L294.736 177H288.496L282.541 167.069L276.815 177H270.499L279.459 162.465L271.545 149.719H277.709L282.579 158.147L287.449 149.719H293.442Z" fill="black"/>
<path d="M301.565 166.327L295.363 156.625H301.432L304.552 162.123L307.824 156.625H313.95L307.634 166.365L314.654 177H308.452L304.438 170.76L300.785 177H294.66L301.565 166.327Z" fill="black"/>
<path d="M326.811 149.719L332.347 160.24H332.423L338.073 149.719H344.256L335.143 165.89V177H329.569V165.89L320.457 149.719H326.811Z" fill="black"/>
<path d="M348.27 179.378C348.866 179.378 349.304 179.27 349.583 179.055C349.874 178.839 350.103 178.49 350.268 178.008L350.458 177.38L343.4 156.625H349.24L353.293 170.684L356.66 156.625H362.424L355.556 179.53C355.328 180.291 355.011 180.944 354.605 181.49C354.199 182.035 353.717 182.479 353.159 182.821C352.601 183.177 351.98 183.437 351.295 183.601C350.623 183.766 349.9 183.849 349.126 183.849C348.809 183.849 348.441 183.836 348.023 183.811C347.617 183.785 347.192 183.747 346.748 183.697C346.317 183.659 345.886 183.608 345.454 183.544C345.036 183.481 344.649 183.405 344.294 183.316L345.283 179.017C345.588 179.093 345.905 179.156 346.234 179.207C346.526 179.258 346.843 179.296 347.186 179.321C347.541 179.359 347.902 179.378 348.27 179.378Z" fill="black"/>
<path d="M383.941 154.837H370.833V149.719H390.2V154.875L376.54 171.901H390.371V177H370.262V171.863L383.941 154.837Z" fill="black"/>
<path d="M393.282 172.206L403.326 161.457H394.1V156.625H409.528V161.495L399.426 172.244H410.023V177H393.282V172.206Z" fill="black"/>
<path d="M12.5672 190.719V218H6.91693V199.965H1.97061V194.981H3.18817C3.99987 194.981 4.65938 194.911 5.1667 194.771C5.68669 194.619 6.09255 194.391 6.38425 194.086C6.67596 193.782 6.87254 193.395 6.97401 192.926C7.07547 192.444 7.1262 191.867 7.1262 191.195V190.719H12.5672Z" fill="black"/>
<path d="M26.8734 195.437C26.1251 195.437 25.472 195.558 24.9139 195.799C24.3559 196.04 23.893 196.376 23.5252 196.807C23.1574 197.238 22.8847 197.745 22.7071 198.329C22.5295 198.9 22.4408 199.521 22.4408 200.193L16.7905 199.68C16.8032 198.183 17.0696 196.858 17.5896 195.704C18.1096 194.537 18.8198 193.56 19.7203 192.774C20.6208 191.975 21.6798 191.372 22.8974 190.966C24.1276 190.548 25.4656 190.339 26.9115 190.339C28.4207 190.339 29.7968 190.567 31.0398 191.024C32.2954 191.467 33.3671 192.095 34.2549 192.907C35.1427 193.719 35.8275 194.695 36.3095 195.837C36.8041 196.965 37.0514 198.208 37.0514 199.565C37.0514 201.049 36.7534 202.438 36.1573 203.732C35.5739 205.013 34.7939 206.205 33.8173 207.308C32.8407 208.399 31.7183 209.401 30.45 210.314C29.1817 211.215 27.8754 212.026 26.531 212.749L26.0173 213.016H37.3939V218H17.4944V213.054C18.5218 212.496 19.5681 211.9 20.6335 211.265C21.7115 210.631 22.7515 209.972 23.7534 209.287C24.7681 208.589 25.7256 207.866 26.6261 207.118C27.5266 206.37 28.3066 205.596 28.9661 204.797C29.6383 203.985 30.171 203.155 30.5641 202.305C30.9573 201.443 31.1539 200.555 31.1539 199.642C31.1539 199.122 31.0651 198.608 30.8876 198.101C30.71 197.593 30.4437 197.143 30.0885 196.75C29.7461 196.357 29.3022 196.04 28.7568 195.799C28.2242 195.558 27.5964 195.437 26.8734 195.437Z" fill="black"/>
<path d="M45.8597 209.667C46.0626 210.314 46.348 210.879 46.7158 211.361C47.0836 211.83 47.5085 212.223 47.9904 212.54C48.485 212.844 49.0177 213.073 49.5885 213.225C50.1719 213.364 50.7743 213.434 51.3958 213.434C52.2582 213.434 52.9875 213.333 53.5836 213.13C54.1923 212.914 54.6806 212.641 55.0484 212.312C55.4289 211.969 55.7016 211.589 55.8665 211.17C56.0314 210.739 56.1138 210.301 56.1138 209.858C56.1138 208.78 55.6636 207.93 54.7631 207.308C53.8753 206.674 52.5055 206.357 50.6538 206.357H49.1319V201.753H50.2924C51.9665 201.753 53.2728 201.481 54.2114 200.935C55.1626 200.39 55.6382 199.559 55.6382 198.443C55.6382 197.961 55.5304 197.53 55.3148 197.149C55.0992 196.756 54.8011 196.426 54.4206 196.16C54.0528 195.894 53.6089 195.691 53.0889 195.551C52.5816 195.399 52.0299 195.323 51.4338 195.323C50.7489 195.323 50.1211 195.418 49.5504 195.608C48.9924 195.799 48.4914 196.059 48.0475 196.388C47.6036 196.718 47.2168 197.105 46.887 197.549C46.5699 197.993 46.3163 198.462 46.126 198.957L41.2558 196.997C41.5475 195.932 42.0295 194.987 42.7017 194.163C43.3738 193.338 44.1602 192.647 45.0607 192.089C45.9738 191.518 46.9758 191.087 48.0665 190.795C49.1572 190.491 50.267 190.339 51.3958 190.339C52.8036 190.339 54.1099 190.51 55.3148 190.852C56.5196 191.195 57.566 191.696 58.4538 192.355C59.3543 193.002 60.0582 193.801 60.5655 194.752C61.0728 195.704 61.3265 196.788 61.3265 198.005C61.3265 198.728 61.206 199.407 60.965 200.041C60.7367 200.663 60.4196 201.227 60.0138 201.734C59.6206 202.229 59.1513 202.654 58.606 203.009C58.0606 203.364 57.4772 203.637 56.8557 203.827C57.5533 203.979 58.2065 204.233 58.8152 204.588C59.424 204.943 59.9567 205.387 60.4133 205.92C60.8699 206.452 61.225 207.067 61.4786 207.765C61.745 208.462 61.8782 209.223 61.8782 210.048C61.8782 211.303 61.6055 212.445 61.0601 213.472C60.5274 214.5 59.7918 215.375 58.8533 216.098C57.9148 216.82 56.805 217.385 55.524 217.791C54.2558 218.184 52.8797 218.38 51.3958 218.38C50.0894 218.38 48.8338 218.216 47.629 217.886C46.4241 217.543 45.3397 217.061 44.3758 216.44C43.4119 215.806 42.6002 215.039 41.9407 214.138C41.2812 213.225 40.8373 212.198 40.609 211.056L45.8597 209.667Z" fill="black"/>
<path d="M78.0869 218V211.836H64.4845V205.958L76.5649 190.719H83.6229V206.852H87.599V211.836H83.6229V218H78.0869ZM78.0869 206.852V196.141L69.602 206.852H78.0869Z" fill="black"/>
<path d="M90.681 205.615L92.2029 190.719H109.705V195.723H96.8448L96.2931 200.783C96.5975 200.529 96.9526 200.301 97.3585 200.098C97.7644 199.895 98.2019 199.724 98.6712 199.584C99.1404 199.445 99.6161 199.337 100.098 199.261C100.593 199.185 101.081 199.147 101.563 199.147C102.933 199.147 104.201 199.369 105.368 199.813C106.535 200.257 107.543 200.884 108.393 201.696C109.242 202.508 109.908 203.484 110.39 204.626C110.872 205.767 111.113 207.029 111.113 208.412C111.113 209.921 110.834 211.291 110.276 212.521C109.731 213.739 108.97 214.785 107.993 215.66C107.029 216.522 105.888 217.195 104.569 217.677C103.262 218.146 101.855 218.38 100.345 218.38C99.1278 218.38 97.9546 218.222 96.8258 217.905C95.7097 217.588 94.6888 217.131 93.7629 216.535C92.8371 215.939 92.0317 215.203 91.3468 214.328C90.6746 213.453 90.18 212.458 89.8629 211.341L95.0946 209.629C95.4878 210.809 96.1029 211.735 96.94 212.407C97.777 213.066 98.8868 213.396 100.269 213.396C101.094 213.396 101.823 213.257 102.457 212.978C103.091 212.699 103.618 212.337 104.036 211.893C104.467 211.437 104.791 210.923 105.006 210.352C105.235 209.769 105.349 209.173 105.349 208.564C105.349 207.968 105.235 207.391 105.006 206.833C104.778 206.262 104.442 205.761 103.998 205.33C103.567 204.886 103.034 204.531 102.4 204.264C101.778 203.998 101.068 203.865 100.269 203.865C99.7746 203.865 99.3053 203.935 98.8614 204.074C98.4175 204.201 98.0117 204.372 97.6439 204.588C97.2761 204.791 96.959 205.032 96.6926 205.311C96.4263 205.577 96.217 205.843 96.0648 206.11L90.681 205.615Z" fill="black"/>
<path d="M113.929 204.645C113.929 203.415 114.024 202.21 114.214 201.03C114.417 199.838 114.721 198.716 115.127 197.663C115.546 196.598 116.072 195.621 116.706 194.733C117.34 193.833 118.101 193.059 118.989 192.412C119.877 191.765 120.892 191.258 122.033 190.89C123.187 190.523 124.474 190.339 125.895 190.339C127.049 190.339 128.121 190.485 129.11 190.776C130.112 191.055 131.006 191.448 131.792 191.956C132.592 192.45 133.283 193.04 133.866 193.725C134.45 194.397 134.906 195.126 135.236 195.913L130.137 197.891C129.693 197.029 129.085 196.382 128.311 195.951C127.55 195.507 126.688 195.285 125.724 195.285C124.785 195.285 123.954 195.475 123.232 195.856C122.509 196.223 121.894 196.731 121.386 197.378C120.892 198.024 120.511 198.779 120.245 199.642C119.978 200.504 119.833 201.417 119.807 202.381C120.124 202.064 120.498 201.76 120.93 201.468C121.361 201.163 121.836 200.903 122.356 200.688C122.889 200.472 123.46 200.301 124.069 200.174C124.69 200.035 125.337 199.965 126.009 199.965C127.341 199.965 128.577 200.181 129.719 200.612C130.873 201.043 131.869 201.652 132.706 202.438C133.555 203.212 134.221 204.138 134.703 205.216C135.185 206.294 135.426 207.48 135.426 208.773C135.426 210.143 135.179 211.418 134.684 212.597C134.202 213.764 133.511 214.779 132.611 215.641C131.723 216.491 130.651 217.163 129.395 217.658C128.14 218.14 126.738 218.38 125.191 218.38C123.492 218.38 121.951 218.082 120.568 217.486C119.186 216.878 118 216.009 117.011 214.88C116.034 213.751 115.273 212.375 114.728 210.752C114.195 209.128 113.929 207.296 113.929 205.254V204.645ZM120.074 209.078C120.074 209.724 120.188 210.327 120.416 210.885C120.644 211.443 120.968 211.931 121.386 212.35C121.817 212.756 122.331 213.079 122.927 213.32C123.523 213.561 124.183 213.681 124.906 213.681C125.654 213.681 126.326 213.561 126.922 213.32C127.518 213.079 128.019 212.756 128.425 212.35C128.844 211.931 129.161 211.443 129.376 210.885C129.592 210.327 129.7 209.724 129.7 209.078C129.7 208.443 129.592 207.854 129.376 207.308C129.161 206.75 128.844 206.268 128.425 205.862C128.019 205.444 127.518 205.114 126.922 204.873C126.326 204.632 125.654 204.512 124.906 204.512C124.183 204.512 123.523 204.632 122.927 204.873C122.331 205.114 121.817 205.444 121.386 205.862C120.968 206.268 120.644 206.75 120.416 207.308C120.188 207.854 120.074 208.443 120.074 209.078Z" fill="black"/>
<path d="M151.483 195.951H137.728V190.719H157.171V196.027L146.612 218H140.144L151.483 195.951Z" fill="black"/>
<path d="M170.26 190.339C171.109 190.339 171.946 190.408 172.771 190.548C173.595 190.675 174.375 190.878 175.111 191.157C175.846 191.436 176.525 191.791 177.146 192.222C177.781 192.641 178.326 193.142 178.783 193.725C179.239 194.296 179.594 194.949 179.848 195.684C180.102 196.42 180.228 197.238 180.228 198.139C180.228 198.621 180.165 199.128 180.038 199.661C179.911 200.181 179.696 200.694 179.391 201.202C179.1 201.709 178.713 202.191 178.231 202.647C177.762 203.091 177.184 203.465 176.5 203.77C177.286 204.087 177.964 204.48 178.535 204.949C179.106 205.406 179.575 205.92 179.943 206.49C180.311 207.048 180.577 207.638 180.742 208.26C180.92 208.881 181.008 209.502 181.008 210.124C181.008 211.557 180.704 212.794 180.095 213.834C179.499 214.874 178.7 215.73 177.698 216.402C176.696 217.074 175.548 217.575 174.255 217.905C172.961 218.222 171.629 218.38 170.26 218.38C168.89 218.38 167.558 218.222 166.265 217.905C164.984 217.575 163.842 217.074 162.84 216.402C161.838 215.73 161.033 214.874 160.424 213.834C159.815 212.794 159.511 211.557 159.511 210.124C159.511 209.502 159.6 208.881 159.777 208.26C159.955 207.638 160.227 207.048 160.595 206.49C160.976 205.92 161.445 205.406 162.003 204.949C162.574 204.48 163.246 204.087 164.02 203.77C163.335 203.465 162.758 203.091 162.288 202.647C161.819 202.191 161.432 201.709 161.128 201.202C160.836 200.694 160.621 200.181 160.481 199.661C160.354 199.128 160.291 198.621 160.291 198.139C160.291 196.832 160.57 195.691 161.128 194.714C161.686 193.738 162.428 192.926 163.354 192.279C164.292 191.632 165.358 191.15 166.55 190.833C167.742 190.504 168.979 190.339 170.26 190.339ZM170.26 201.677C170.906 201.677 171.49 201.607 172.01 201.468C172.543 201.316 172.993 201.1 173.361 200.821C173.741 200.529 174.033 200.181 174.236 199.775C174.439 199.356 174.54 198.874 174.54 198.329C174.54 197.809 174.432 197.346 174.217 196.94C174.014 196.534 173.722 196.192 173.342 195.913C172.961 195.621 172.505 195.399 171.972 195.247C171.452 195.095 170.881 195.019 170.26 195.019C169.638 195.019 169.061 195.095 168.528 195.247C168.008 195.399 167.558 195.621 167.178 195.913C166.797 196.192 166.499 196.534 166.284 196.94C166.081 197.346 165.979 197.809 165.979 198.329C165.979 198.874 166.081 199.356 166.284 199.775C166.486 200.181 166.772 200.529 167.14 200.821C167.52 201.1 167.97 201.316 168.49 201.468C169.023 201.607 169.613 201.677 170.26 201.677ZM170.26 213.72C170.983 213.72 171.642 213.631 172.238 213.453C172.847 213.276 173.367 213.022 173.798 212.692C174.229 212.362 174.565 211.969 174.806 211.513C175.047 211.056 175.168 210.542 175.168 209.972C175.168 209.414 175.047 208.906 174.806 208.45C174.565 207.981 174.229 207.581 173.798 207.251C173.367 206.909 172.847 206.649 172.238 206.471C171.642 206.281 170.983 206.186 170.26 206.186C169.537 206.186 168.877 206.281 168.281 206.471C167.685 206.649 167.165 206.909 166.721 207.251C166.29 207.581 165.954 207.981 165.713 208.45C165.472 208.906 165.351 209.414 165.351 209.972C165.351 210.542 165.472 211.056 165.713 211.513C165.954 211.969 166.29 212.362 166.721 212.692C167.165 213.022 167.685 213.276 168.281 213.453C168.877 213.631 169.537 213.72 170.26 213.72Z" fill="black"/>
<path d="M205.474 204.093C205.474 205.323 205.379 206.528 205.188 207.708C204.998 208.887 204.7 210.01 204.294 211.075C203.901 212.128 203.394 213.104 202.772 214.005C202.151 214.893 201.402 215.66 200.527 216.307C199.652 216.954 198.644 217.461 197.502 217.829C196.374 218.197 195.099 218.38 193.679 218.38C192.512 218.38 191.434 218.241 190.444 217.962C189.455 217.67 188.561 217.277 187.762 216.782C186.963 216.288 186.272 215.704 185.688 215.032C185.105 214.347 184.648 213.612 184.319 212.825L189.417 210.828C189.874 211.69 190.482 212.343 191.243 212.787C192.017 213.219 192.892 213.434 193.869 213.434C194.82 213.434 195.657 213.25 196.38 212.882C197.103 212.502 197.699 211.988 198.168 211.341C198.65 210.695 199.012 209.946 199.253 209.097C199.494 208.234 199.608 207.321 199.595 206.357C199.278 206.674 198.904 206.979 198.473 207.27C198.041 207.562 197.56 207.822 197.027 208.05C196.507 208.266 195.936 208.443 195.315 208.583C194.706 208.71 194.065 208.773 193.393 208.773C192.062 208.773 190.819 208.558 189.664 208.126C188.523 207.682 187.527 207.074 186.678 206.3C185.841 205.514 185.181 204.582 184.699 203.503C184.217 202.425 183.976 201.246 183.976 199.965C183.976 198.595 184.217 197.321 184.699 196.141C185.194 194.962 185.885 193.947 186.773 193.097C187.673 192.235 188.751 191.563 190.007 191.081C191.262 190.586 192.664 190.339 194.211 190.339C195.911 190.339 197.452 190.643 198.834 191.252C200.217 191.848 201.396 192.71 202.373 193.839C203.362 194.968 204.123 196.344 204.656 197.967C205.201 199.591 205.474 201.423 205.474 203.465V204.093ZM199.329 199.642C199.329 198.995 199.215 198.392 198.986 197.834C198.758 197.276 198.428 196.794 197.997 196.388C197.579 195.97 197.071 195.646 196.475 195.418C195.879 195.177 195.22 195.057 194.497 195.057C193.748 195.057 193.076 195.177 192.48 195.418C191.884 195.646 191.377 195.97 190.958 196.388C190.54 196.794 190.216 197.276 189.988 197.834C189.772 198.392 189.664 198.995 189.664 199.642C189.664 200.276 189.772 200.872 189.988 201.43C190.216 201.988 190.54 202.476 190.958 202.895C191.377 203.301 191.884 203.624 192.48 203.865C193.076 204.093 193.748 204.207 194.497 204.207C195.22 204.207 195.879 204.093 196.475 203.865C197.071 203.624 197.579 203.301 197.997 202.895C198.428 202.476 198.758 201.988 198.986 201.43C199.215 200.872 199.329 200.276 199.329 199.642Z" fill="black"/>
<path d="M214.282 204.759C214.282 205.913 214.371 207.017 214.548 208.069C214.726 209.109 215.011 210.029 215.404 210.828C215.81 211.627 216.343 212.261 217.002 212.73C217.662 213.2 218.48 213.434 219.457 213.434C220.433 213.434 221.251 213.2 221.911 212.73C222.57 212.261 223.096 211.627 223.49 210.828C223.896 210.029 224.181 209.109 224.346 208.069C224.523 207.017 224.612 205.913 224.612 204.759V204.017C224.612 202.863 224.523 201.76 224.346 200.707C224.181 199.654 223.896 198.728 223.49 197.929C223.096 197.13 222.57 196.496 221.911 196.027C221.251 195.558 220.433 195.323 219.457 195.323C218.48 195.323 217.662 195.558 217.002 196.027C216.343 196.496 215.81 197.13 215.404 197.929C215.011 198.728 214.726 199.654 214.548 200.707C214.371 201.76 214.282 202.863 214.282 204.017V204.759ZM230.376 204.398C230.376 205.514 230.294 206.636 230.129 207.765C229.977 208.894 229.723 209.978 229.368 211.018C229.026 212.058 228.576 213.035 228.017 213.948C227.459 214.848 226.775 215.635 225.963 216.307C225.151 216.966 224.206 217.486 223.128 217.867C222.063 218.247 220.839 218.438 219.457 218.438C218.087 218.438 216.863 218.247 215.785 217.867C214.707 217.486 213.762 216.966 212.95 216.307C212.151 215.635 211.473 214.848 210.915 213.948C210.357 213.047 209.9 212.077 209.545 211.037C209.202 209.997 208.949 208.913 208.784 207.784C208.632 206.655 208.556 205.526 208.556 204.398C208.556 203.282 208.632 202.159 208.784 201.03C208.949 199.902 209.202 198.817 209.545 197.777C209.9 196.737 210.357 195.767 210.915 194.866C211.473 193.953 212.151 193.167 212.95 192.507C213.762 191.835 214.7 191.309 215.766 190.928C216.844 190.535 218.074 190.339 219.457 190.339C220.839 190.339 222.063 190.535 223.128 190.928C224.206 191.309 225.151 191.835 225.963 192.507C226.775 193.167 227.459 193.953 228.017 194.866C228.576 195.767 229.026 196.737 229.368 197.777C229.723 198.817 229.977 199.902 230.129 201.03C230.294 202.159 230.376 203.282 230.376 204.398Z" fill="black"/>
<path d="M3.45451 231.719H9.21887L8.72424 249.773H3.96817L3.45451 231.719ZM2.71256 255.728C2.71256 255.233 2.80768 254.77 2.99793 254.339C3.18817 253.895 3.44817 253.508 3.77792 253.179C4.12036 252.849 4.51353 252.589 4.95743 252.399C5.40133 252.208 5.87694 252.113 6.38425 252.113C6.87888 252.113 7.34181 252.208 7.77303 252.399C8.21693 252.589 8.60375 252.849 8.93351 253.179C9.26326 253.508 9.52326 253.895 9.71351 254.339C9.90375 254.77 9.99887 255.233 9.99887 255.728C9.99887 256.235 9.90375 256.711 9.71351 257.155C9.52326 257.599 9.26326 257.985 8.93351 258.315C8.60375 258.645 8.21693 258.905 7.77303 259.095C7.34181 259.285 6.87888 259.38 6.38425 259.38C5.87694 259.38 5.40133 259.285 4.95743 259.095C4.51353 258.905 4.12036 258.645 3.77792 258.315C3.44817 257.985 3.18817 257.599 2.99793 257.155C2.80768 256.711 2.71256 256.235 2.71256 255.728Z" fill="black"/>
<path d="M35.6056 257.06C35.3773 257.364 35.0983 257.662 34.7685 257.954C34.4388 258.233 34.0583 258.48 33.6271 258.696C33.1958 258.899 32.7202 259.063 32.2002 259.19C31.6802 259.317 31.1159 259.38 30.5071 259.38C29.1627 259.38 27.9388 259.114 26.8354 258.581C25.7447 258.049 24.8061 257.313 24.0198 256.375C23.2461 255.436 22.6437 254.32 22.2125 253.026C21.7939 251.733 21.5847 250.331 21.5847 248.822C21.5847 247.313 21.7876 245.911 22.1935 244.618C22.612 243.324 23.2017 242.208 23.9627 241.269C24.7364 240.318 25.6622 239.576 26.7403 239.043C27.831 238.498 29.0485 238.225 30.3929 238.225C30.989 238.225 31.528 238.283 32.01 238.397C32.4919 238.511 32.9295 238.663 33.3227 238.853C33.7285 239.044 34.0963 239.272 34.4261 239.538C34.7558 239.792 35.0602 240.071 35.3393 240.375V238.625H40.609V255.385C40.609 255.601 40.6724 255.81 40.7992 256.013C40.9261 256.216 41.1734 256.318 41.5412 256.318C42.2387 256.318 42.8729 256.083 43.4436 255.614C44.0143 255.144 44.4963 254.517 44.8895 253.73C45.2953 252.931 45.606 252.005 45.8216 250.953C46.0499 249.9 46.1641 248.79 46.1641 247.623C46.1641 246.469 46.0436 245.309 45.8026 244.142C45.5743 242.975 45.2129 241.859 44.7182 240.794C44.2236 239.716 43.5895 238.714 42.8158 237.788C42.0421 236.862 41.11 236.057 40.0192 235.372C38.9412 234.687 37.7046 234.148 36.3095 233.755C34.9144 233.362 33.3417 233.165 31.5915 233.165C29.4607 233.165 27.4759 233.558 25.6369 234.344C23.7978 235.131 22.1998 236.228 20.8427 237.636C19.4857 239.044 18.4203 240.718 17.6466 242.658C16.873 244.586 16.4862 246.698 16.4862 248.993C16.4862 250.515 16.6574 251.961 16.9998 253.331C17.3549 254.701 17.8559 255.969 18.5027 257.136C19.1496 258.302 19.9296 259.355 20.8427 260.294C21.7559 261.232 22.7705 262.031 23.8866 262.691C25.0027 263.363 26.2076 263.877 27.5012 264.232C28.8076 264.587 30.171 264.764 31.5915 264.764C32.8344 264.764 34.0583 264.612 35.2632 264.308C36.4807 264.003 37.6475 263.559 38.7636 262.976L40.9514 265.24C39.4168 266.077 37.8251 266.667 36.1763 267.009C34.5402 267.364 32.9485 267.542 31.4012 267.542C29.6763 267.542 28.0339 267.32 26.4739 266.876C24.9139 266.445 23.4617 265.83 22.1174 265.031C20.7857 264.232 19.5744 263.268 18.4837 262.139C17.393 261.023 16.4608 259.78 15.6871 258.41C14.9262 257.028 14.3364 255.544 13.9179 253.959C13.4993 252.373 13.2901 250.718 13.2901 248.993C13.2901 247.268 13.5057 245.613 13.9369 244.028C14.3681 242.43 14.9769 240.94 15.7632 239.557C16.5623 238.175 17.5198 236.919 18.6359 235.79C19.752 234.662 20.9886 233.698 22.3456 232.899C23.7154 232.087 25.1866 231.465 26.7593 231.034C28.3446 230.59 29.9998 230.368 31.7246 230.368C33.4495 230.368 35.0793 230.559 36.6139 230.939C38.1612 231.32 39.588 231.865 40.8943 232.575C42.2007 233.285 43.3738 234.154 44.4138 235.182C45.4665 236.209 46.3543 237.369 47.0772 238.663C47.8129 239.944 48.3772 241.352 48.7704 242.886C49.1636 244.421 49.3602 246.051 49.3602 247.776C49.3602 248.663 49.2777 249.57 49.1129 250.496C48.9607 251.409 48.7197 252.297 48.3899 253.16C48.0729 254.022 47.667 254.834 47.1724 255.595C46.6777 256.343 46.1007 257.002 45.4412 257.573C44.7943 258.131 44.0524 258.575 43.2153 258.905C42.3909 259.222 41.4778 259.38 40.4758 259.38C39.6895 259.38 39.0109 259.292 38.4402 259.114C37.8822 258.949 37.4066 258.746 37.0134 258.505C36.6202 258.252 36.3095 257.998 36.0812 257.744C35.8656 257.478 35.7071 257.25 35.6056 257.06ZM35.4914 246.92C35.4914 246.374 35.4027 245.867 35.2251 245.398C35.0475 244.928 34.7875 244.522 34.4451 244.18C34.1154 243.838 33.6968 243.571 33.1895 243.381C32.6949 243.191 32.1241 243.096 31.4773 243.096C30.729 243.096 30.0759 243.235 29.5178 243.514C28.9598 243.793 28.4905 244.186 28.11 244.694C27.7422 245.188 27.4632 245.778 27.2729 246.463C27.0954 247.148 27.0066 247.896 27.0066 248.708V248.955C27.0066 249.767 27.0954 250.515 27.2729 251.2C27.4632 251.872 27.7422 252.456 28.11 252.95C28.4905 253.445 28.9598 253.832 29.5178 254.111C30.0759 254.377 30.729 254.51 31.4773 254.51C32.1241 254.51 32.6949 254.415 33.1895 254.225C33.6968 254.035 34.1154 253.768 34.4451 253.426C34.7875 253.083 35.0475 252.684 35.2251 252.227C35.4027 251.758 35.4914 251.251 35.4914 250.705V246.92Z" fill="black"/>
<path d="M67.8328 238.663C67.5537 238.016 67.0845 237.477 66.425 237.046C65.7781 236.615 64.9855 236.399 64.0469 236.399C63.4762 236.399 62.9625 236.501 62.506 236.704C62.0621 236.906 61.6816 237.192 61.3645 237.56C61.0474 237.927 60.8001 238.371 60.6226 238.891C60.4577 239.411 60.3816 239.995 60.3943 240.642L60.4323 243.381H65.9113V248.175H60.4323V254.016H71.8849V259H52.6323V254.016H54.8962V248.175H52.6323V243.381H54.8962V240.299C54.8962 238.891 55.1182 237.636 55.5621 236.532C56.0187 235.429 56.6465 234.49 57.4455 233.717C58.2572 232.943 59.2148 232.353 60.3182 231.947C61.4343 231.542 62.6518 231.339 63.9708 231.339C64.884 231.339 65.7591 231.427 66.5962 231.605C67.4459 231.783 68.2259 232.043 68.9362 232.385C69.6591 232.727 70.3059 233.146 70.8767 233.641C71.4474 234.135 71.923 234.706 72.3035 235.353L67.8328 238.663Z" fill="black"/>
<path d="M88.0556 237.921C88.0556 238.834 87.8844 239.697 87.542 240.508C87.1995 241.307 86.7302 242.005 86.1342 242.601C85.5507 243.184 84.8595 243.647 84.0605 243.99C83.2615 244.332 82.399 244.503 81.4732 244.503C80.5347 244.503 79.6595 244.332 78.8478 243.99C78.0488 243.647 77.3513 243.184 76.7552 242.601C76.1591 242.005 75.6898 241.307 75.3474 240.508C75.0049 239.697 74.8337 238.834 74.8337 237.921C74.8337 237.008 75.0049 236.152 75.3474 235.353C75.6898 234.554 76.1591 233.856 76.7552 233.26C77.3513 232.664 78.0488 232.195 78.8478 231.852C79.6595 231.51 80.5347 231.339 81.4732 231.339C82.399 231.339 83.2615 231.51 84.0605 231.852C84.8595 232.195 85.5507 232.664 86.1342 233.26C86.7302 233.856 87.1995 234.554 87.542 235.353C87.8844 236.152 88.0556 237.008 88.0556 237.921ZM78.8098 237.921C78.8098 238.314 78.8732 238.682 79 239.024C79.1269 239.354 79.3044 239.646 79.5327 239.9C79.761 240.153 80.0337 240.356 80.3508 240.508C80.6805 240.648 81.0356 240.718 81.4161 240.718C81.8093 240.718 82.1708 240.648 82.5005 240.508C82.8303 240.356 83.1093 240.153 83.3376 239.9C83.5786 239.646 83.7625 239.354 83.8893 239.024C84.0161 238.682 84.0795 238.314 84.0795 237.921C84.0795 237.528 84.0161 237.166 83.8893 236.837C83.7625 236.494 83.5786 236.196 83.3376 235.943C83.1093 235.689 82.8303 235.492 82.5005 235.353C82.1708 235.201 81.8093 235.124 81.4161 235.124C81.0356 235.124 80.6805 235.201 80.3508 235.353C80.0337 235.492 79.761 235.689 79.5327 235.943C79.3044 236.196 79.1269 236.494 79 236.837C78.8732 237.166 78.8098 237.528 78.8098 237.921ZM95.4941 231.719H100.003L83.0522 259H78.5054L95.4941 231.719ZM103.713 252.798C103.713 253.711 103.541 254.574 103.199 255.385C102.857 256.184 102.387 256.882 101.791 257.478C101.208 258.061 100.517 258.524 99.7175 258.867C98.9185 259.209 98.0561 259.38 97.1302 259.38C96.1917 259.38 95.3166 259.209 94.5049 258.867C93.7058 258.524 93.0083 258.061 92.4122 257.478C91.8161 256.882 91.3468 256.184 91.0044 255.385C90.6746 254.574 90.5097 253.711 90.5097 252.798C90.5097 251.885 90.6746 251.029 91.0044 250.23C91.3468 249.431 91.8161 248.733 92.4122 248.137C93.0083 247.541 93.7058 247.072 94.5049 246.729C95.3166 246.387 96.1917 246.216 97.1302 246.216C98.0561 246.216 98.9185 246.387 99.7175 246.729C100.517 247.072 101.208 247.541 101.791 248.137C102.387 248.733 102.857 249.431 103.199 250.23C103.541 251.029 103.713 251.885 103.713 252.798ZM94.4858 252.798C94.4858 253.191 94.5492 253.559 94.6761 253.901C94.8029 254.244 94.9805 254.542 95.2087 254.796C95.437 255.049 95.7097 255.252 96.0268 255.404C96.3439 255.544 96.699 255.614 97.0922 255.614C97.4853 255.614 97.8468 255.544 98.1765 255.404C98.5063 255.252 98.7853 255.049 99.0136 254.796C99.2419 254.542 99.4195 254.244 99.5463 253.901C99.6731 253.559 99.7365 253.191 99.7365 252.798C99.7365 252.405 99.6731 252.043 99.5463 251.714C99.4195 251.371 99.2419 251.073 99.0136 250.82C98.7853 250.566 98.5063 250.369 98.1765 250.23C97.8468 250.078 97.4853 250.001 97.0922 250.001C96.699 250.001 96.3439 250.078 96.0268 250.23C95.7097 250.369 95.437 250.566 95.2087 250.82C94.9805 251.073 94.8029 251.371 94.6761 251.714C94.5492 252.043 94.4858 252.405 94.4858 252.798Z" fill="black"/>
<path d="M114.499 237.959C114.499 238.454 114.633 238.955 114.899 239.462C115.178 239.969 115.501 240.47 115.869 240.965C116.617 240.521 117.239 240.02 117.734 239.462C118.228 238.904 118.475 238.352 118.475 237.807C118.475 237.185 118.279 236.704 117.886 236.361C117.493 236.019 117.049 235.847 116.554 235.847C115.958 235.847 115.463 236.05 115.07 236.456C114.69 236.862 114.499 237.363 114.499 237.959ZM113.872 247.11C113.225 247.503 112.66 248.055 112.178 248.765C111.696 249.462 111.456 250.211 111.456 251.01C111.456 251.53 111.551 252.005 111.741 252.437C111.944 252.868 112.21 253.236 112.54 253.54C112.882 253.832 113.282 254.06 113.738 254.225C114.195 254.39 114.671 254.472 115.165 254.472C115.964 254.472 116.643 254.339 117.201 254.073C117.759 253.794 118.184 253.502 118.475 253.198L113.872 247.11ZM105.691 251.162C105.691 250.541 105.774 249.887 105.938 249.202C106.116 248.518 106.408 247.826 106.814 247.129C107.232 246.419 107.803 245.727 108.526 245.055C109.261 244.383 110.175 243.743 111.265 243.134C110.568 242.157 110.054 241.263 109.724 240.451C109.395 239.627 109.23 238.784 109.23 237.921C109.23 237.008 109.414 236.152 109.781 235.353C110.149 234.541 110.65 233.837 111.284 233.241C111.918 232.645 112.692 232.182 113.605 231.852C114.518 231.51 115.52 231.339 116.611 231.339C117.613 231.339 118.545 231.504 119.408 231.833C120.27 232.15 121.012 232.594 121.634 233.165C122.255 233.736 122.737 234.414 123.079 235.201C123.434 235.974 123.612 236.818 123.612 237.731C123.612 239.075 123.232 240.312 122.471 241.441C121.722 242.569 120.416 243.641 118.552 244.656L121.938 249.031C122.154 248.638 122.388 248.036 122.642 247.224C122.895 246.4 123.105 245.417 123.27 244.275H128.996C128.945 245.074 128.799 245.924 128.558 246.824C128.33 247.725 128.051 248.594 127.721 249.431C127.404 250.255 127.043 251.022 126.637 251.733C126.231 252.443 125.844 253.007 125.476 253.426L125.8 253.749C126.104 254.054 126.428 254.257 126.77 254.358C127.113 254.46 127.506 254.51 127.95 254.51C128.153 254.51 128.336 254.504 128.501 254.491C128.679 254.479 128.831 254.46 128.958 254.434C129.085 254.409 129.212 254.383 129.338 254.358L129.414 259.038C128.92 259.114 128.4 259.19 127.854 259.266C127.309 259.342 126.821 259.38 126.39 259.38C125.476 259.38 124.696 259.266 124.05 259.038C123.403 258.81 122.807 258.398 122.261 257.801L121.557 257.021C120.695 257.77 119.693 258.353 118.552 258.772C117.41 259.178 116.097 259.38 114.614 259.38C113.497 259.38 112.407 259.19 111.341 258.81C110.276 258.417 109.318 257.865 108.469 257.155C107.632 256.432 106.959 255.569 106.452 254.567C105.945 253.553 105.691 252.418 105.691 251.162Z" fill="black"/>
<path d="M147.659 235.353L149.143 239.957L143.492 240.965L148.096 245.436L143.93 248.365L140.411 243.134L136.986 248.365L132.82 245.436L137.462 240.965L131.773 239.957L133.276 235.353L138.432 237.617L137.842 231.719H143.074L142.522 237.617L147.659 235.353Z" fill="black"/>
<path d="M157.076 249.773V248.594C157.076 247.744 157.203 246.977 157.456 246.292C157.723 245.607 158.046 244.985 158.427 244.427C158.82 243.857 159.238 243.337 159.682 242.867C160.139 242.385 160.557 241.929 160.938 241.498C161.331 241.066 161.654 240.642 161.908 240.223C162.174 239.804 162.307 239.361 162.307 238.891C162.307 238.536 162.231 238.219 162.079 237.94C161.94 237.648 161.743 237.401 161.489 237.198C161.248 236.995 160.957 236.843 160.614 236.742C160.285 236.64 159.923 236.589 159.53 236.589C158.959 236.589 158.427 236.665 157.932 236.818C157.45 236.957 157 237.141 156.581 237.369C156.163 237.598 155.776 237.858 155.421 238.149C155.078 238.441 154.774 238.739 154.508 239.043L151.388 235.124C151.882 234.592 152.44 234.097 153.062 233.641C153.683 233.171 154.362 232.765 155.097 232.423C155.833 232.081 156.619 231.814 157.456 231.624C158.293 231.434 159.181 231.339 160.12 231.339C161.363 231.339 162.498 231.529 163.525 231.909C164.552 232.277 165.434 232.785 166.169 233.431C166.905 234.065 167.476 234.807 167.882 235.657C168.287 236.494 168.49 237.382 168.49 238.321C168.49 239.005 168.408 239.64 168.243 240.223C168.091 240.794 167.863 241.339 167.558 241.859C167.254 242.379 166.88 242.893 166.436 243.4C165.992 243.895 165.485 244.408 164.914 244.941C164.584 245.245 164.267 245.55 163.963 245.854C163.671 246.159 163.411 246.488 163.183 246.843C162.967 247.186 162.789 247.56 162.65 247.966C162.523 248.372 162.46 248.828 162.46 249.336V249.773H157.076ZM156.144 255.766C156.144 255.271 156.239 254.802 156.429 254.358C156.632 253.914 156.898 253.527 157.228 253.198C157.558 252.868 157.945 252.608 158.388 252.418C158.845 252.215 159.321 252.113 159.815 252.113C160.31 252.113 160.773 252.215 161.204 252.418C161.648 252.608 162.035 252.868 162.365 253.198C162.694 253.527 162.954 253.914 163.145 254.358C163.335 254.802 163.43 255.271 163.43 255.766C163.43 256.26 163.335 256.73 163.145 257.174C162.954 257.605 162.694 257.985 162.365 258.315C162.035 258.645 161.648 258.905 161.204 259.095C160.773 259.285 160.31 259.38 159.815 259.38C159.321 259.38 158.845 259.285 158.388 259.095C157.945 258.905 157.558 258.645 157.228 258.315C156.898 257.985 156.632 257.605 156.429 257.174C156.239 256.73 156.144 256.26 156.144 255.766Z" fill="black"/>
<path d="M176.671 248.67C176.671 250.331 176.88 251.904 177.299 253.388C177.73 254.859 178.313 256.235 179.049 257.516C179.784 258.797 180.647 259.989 181.636 261.093C182.638 262.196 183.703 263.211 184.832 264.137L181.541 267.409L180.076 266.248C178.63 265.069 177.337 263.813 176.195 262.481C175.054 261.162 174.084 259.767 173.285 258.296C172.498 256.825 171.896 255.278 171.477 253.654C171.071 252.031 170.868 250.331 170.868 248.556C170.868 246.767 171.071 245.068 171.477 243.457C171.896 241.834 172.498 240.293 173.285 238.834C174.084 237.363 175.054 235.968 176.195 234.649C177.337 233.33 178.63 232.081 180.076 230.901L181.541 229.703L184.832 233.013C183.703 233.926 182.638 234.934 181.636 236.038C180.647 237.128 179.784 238.321 179.049 239.614C178.313 240.895 177.73 242.271 177.299 243.742C176.88 245.214 176.671 246.78 176.671 248.441V248.67Z" fill="black"/>
<path d="M193.774 248.441C193.774 246.78 193.558 245.214 193.127 243.742C192.708 242.271 192.131 240.895 191.396 239.614C190.66 238.321 189.791 237.128 188.789 236.038C187.8 234.934 186.741 233.926 185.612 233.013L188.903 229.703L190.368 230.901C191.814 232.081 193.108 233.33 194.249 234.649C195.391 235.968 196.355 237.363 197.141 238.834C197.94 240.293 198.542 241.834 198.948 243.457C199.367 245.068 199.576 246.767 199.576 248.556C199.576 250.331 199.367 252.031 198.948 253.654C198.542 255.278 197.94 256.825 197.141 258.296C196.355 259.767 195.391 261.162 194.249 262.481C193.108 263.813 191.814 265.069 190.368 266.248L188.903 267.409L185.612 264.137C186.741 263.211 187.8 262.196 188.789 261.093C189.791 259.989 190.66 258.797 191.396 257.516C192.131 256.235 192.708 254.859 193.127 253.388C193.558 251.904 193.774 250.331 193.774 248.67V248.441Z" fill="black"/>
<path d="M215.176 231.339C215.772 231.339 216.305 231.453 216.774 231.681C217.256 231.909 217.662 232.22 217.992 232.613C218.334 233.006 218.594 233.469 218.772 234.002C218.962 234.522 219.057 235.086 219.057 235.695C219.057 236.38 218.949 237.09 218.734 237.826C218.531 238.549 218.176 239.227 217.668 239.862C217.174 240.483 216.514 241.022 215.69 241.479C214.878 241.935 213.863 242.233 212.646 242.373L211.98 240.375L212.513 240.223C213.172 240.033 213.711 239.817 214.13 239.576C214.561 239.335 214.903 239.082 215.157 238.815C215.411 238.549 215.595 238.289 215.709 238.035C215.836 237.769 215.918 237.522 215.956 237.293C215.817 237.42 215.639 237.515 215.423 237.579C215.208 237.629 214.979 237.655 214.738 237.655C214.333 237.655 213.946 237.591 213.578 237.464C213.223 237.325 212.906 237.128 212.627 236.875C212.36 236.621 212.145 236.304 211.98 235.924C211.815 235.543 211.733 235.105 211.733 234.611C211.733 234.154 211.821 233.729 211.999 233.336C212.189 232.93 212.443 232.582 212.76 232.29C213.077 231.998 213.445 231.77 213.863 231.605C214.282 231.427 214.719 231.339 215.176 231.339ZM206.178 231.339C206.774 231.339 207.306 231.453 207.776 231.681C208.258 231.909 208.663 232.22 208.993 232.613C209.336 233.006 209.596 233.469 209.773 234.002C209.963 234.522 210.059 235.086 210.059 235.695C210.059 236.38 209.951 237.09 209.735 237.826C209.532 238.549 209.177 239.227 208.67 239.862C208.175 240.483 207.516 241.022 206.691 241.479C205.879 241.935 204.865 242.233 203.647 242.373L202.981 240.375L203.514 240.223C204.174 240.033 204.713 239.817 205.131 239.576C205.562 239.335 205.905 239.082 206.159 238.815C206.412 238.549 206.596 238.289 206.71 238.035C206.837 237.769 206.919 237.522 206.958 237.293C206.818 237.42 206.64 237.515 206.425 237.579C206.209 237.629 205.981 237.655 205.74 237.655C205.334 237.655 204.947 237.591 204.579 237.464C204.224 237.325 203.907 237.128 203.628 236.875C203.362 236.621 203.146 236.304 202.981 235.924C202.817 235.543 202.734 235.105 202.734 234.611C202.734 234.154 202.823 233.729 203 233.336C203.191 232.93 203.444 232.582 203.761 232.29C204.079 231.998 204.446 231.77 204.865 231.605C205.283 231.427 205.721 231.339 206.178 231.339Z" fill="black"/>
<path d="M223.109 255.728C223.109 255.246 223.204 254.789 223.395 254.358C223.597 253.914 223.864 253.527 224.194 253.198C224.523 252.868 224.91 252.608 225.354 252.418C225.798 252.215 226.267 252.113 226.762 252.113C227.256 252.113 227.726 252.215 228.17 252.418C228.626 252.608 229.019 252.868 229.349 253.198C229.679 253.527 229.939 253.914 230.129 254.358C230.332 254.789 230.434 255.246 230.434 255.728C230.434 256.235 230.332 256.711 230.129 257.155C229.939 257.599 229.679 257.985 229.349 258.315C229.019 258.645 228.626 258.905 228.17 259.095C227.726 259.285 227.256 259.38 226.762 259.38C226.267 259.38 225.798 259.285 225.354 259.095C224.91 258.905 224.523 258.645 224.194 258.315C223.864 257.985 223.597 257.599 223.395 257.155C223.204 256.711 223.109 256.235 223.109 255.728ZM223.109 242.278C223.109 241.77 223.204 241.295 223.395 240.851C223.597 240.407 223.864 240.02 224.194 239.69C224.523 239.361 224.91 239.101 225.354 238.91C225.798 238.72 226.267 238.625 226.762 238.625C227.256 238.625 227.726 238.72 228.17 238.91C228.626 239.101 229.019 239.361 229.349 239.69C229.679 240.02 229.939 240.407 230.129 240.851C230.332 241.295 230.434 241.77 230.434 242.278C230.434 242.772 230.332 243.242 230.129 243.685C229.939 244.129 229.679 244.522 229.349 244.865C229.019 245.195 228.626 245.461 228.17 245.664C227.726 245.854 227.256 245.949 226.762 245.949C226.267 245.949 225.798 245.854 225.354 245.664C224.91 245.461 224.523 245.195 224.194 244.865C223.864 244.522 223.597 244.129 223.395 243.685C223.204 243.242 223.109 242.772 223.109 242.278Z" fill="black"/>
<path d="M235.171 242.278C235.171 241.77 235.266 241.295 235.456 240.851C235.659 240.407 235.925 240.02 236.255 239.69C236.585 239.361 236.972 239.101 237.415 238.91C237.859 238.72 238.329 238.625 238.823 238.625C239.318 238.625 239.781 238.72 240.212 238.91C240.656 239.101 241.043 239.361 241.373 239.69C241.702 240.02 241.962 240.407 242.153 240.851C242.355 241.295 242.457 241.77 242.457 242.278C242.457 242.772 242.355 243.242 242.153 243.685C241.962 244.129 241.702 244.522 241.373 244.865C241.043 245.195 240.656 245.461 240.212 245.664C239.781 245.854 239.318 245.949 238.823 245.949C238.329 245.949 237.859 245.854 237.415 245.664C236.972 245.461 236.585 245.195 236.255 244.865C235.925 244.522 235.659 244.129 235.456 243.685C235.266 243.242 235.171 242.772 235.171 242.278ZM238.804 252.532C239.4 252.532 239.933 252.646 240.402 252.874C240.884 253.102 241.29 253.413 241.62 253.806C241.962 254.2 242.222 254.662 242.4 255.195C242.59 255.715 242.685 256.28 242.685 256.888C242.685 257.573 242.577 258.277 242.362 259C242.159 259.736 241.804 260.414 241.296 261.036C240.802 261.67 240.142 262.215 239.318 262.672C238.506 263.128 237.492 263.426 236.274 263.566L235.608 261.568L236.141 261.416C236.8 261.226 237.339 261.01 237.758 260.769C238.189 260.528 238.532 260.275 238.785 260.008C239.039 259.742 239.223 259.476 239.337 259.209C239.464 258.956 239.546 258.715 239.584 258.486C239.445 258.613 239.267 258.708 239.052 258.772C238.836 258.822 238.608 258.848 238.367 258.848C237.961 258.848 237.574 258.784 237.206 258.658C236.851 258.518 236.534 258.321 236.255 258.068C235.989 257.814 235.773 257.497 235.608 257.117C235.443 256.736 235.361 256.299 235.361 255.804C235.361 255.347 235.45 254.922 235.627 254.529C235.817 254.123 236.071 253.775 236.388 253.483C236.705 253.191 237.073 252.963 237.492 252.798C237.91 252.62 238.348 252.532 238.804 252.532Z" fill="black"/>
<path d="M250.466 252.494C251.062 252.494 251.595 252.608 252.064 252.836C252.546 253.064 252.952 253.375 253.282 253.768C253.624 254.161 253.884 254.624 254.062 255.157C254.252 255.677 254.347 256.241 254.347 256.85C254.347 257.535 254.239 258.245 254.024 258.981C253.821 259.704 253.466 260.376 252.958 260.998C252.464 261.632 251.804 262.177 250.98 262.634C250.168 263.09 249.153 263.388 247.936 263.528L247.27 261.53L247.803 261.378C248.462 261.188 249.001 260.972 249.42 260.731C249.851 260.49 250.193 260.237 250.447 259.97C250.701 259.704 250.885 259.438 250.999 259.171C251.126 258.918 251.208 258.677 251.246 258.448C251.107 258.575 250.929 258.67 250.713 258.734C250.498 258.784 250.27 258.81 250.029 258.81C249.623 258.81 249.236 258.746 248.868 258.62C248.513 258.48 248.196 258.283 247.917 258.03C247.651 257.776 247.435 257.459 247.27 257.079C247.105 256.698 247.023 256.26 247.023 255.766C247.023 255.309 247.112 254.884 247.289 254.491C247.479 254.085 247.733 253.737 248.05 253.445C248.367 253.153 248.735 252.925 249.153 252.76C249.572 252.582 250.01 252.494 250.466 252.494Z" fill="black"/>
<path d="M258.133 255.918C258.133 255.449 258.222 255.011 258.399 254.605C258.59 254.187 258.843 253.825 259.16 253.521C259.477 253.204 259.845 252.957 260.264 252.779C260.695 252.589 261.145 252.494 261.614 252.494C262.084 252.494 262.528 252.589 262.946 252.779C263.365 252.957 263.732 253.204 264.049 253.521C264.367 253.825 264.614 254.187 264.791 254.605C264.982 255.011 265.077 255.449 265.077 255.918C265.077 256.4 264.982 256.85 264.791 257.269C264.614 257.687 264.367 258.055 264.049 258.372C263.732 258.689 263.365 258.937 262.946 259.114C262.528 259.292 262.084 259.38 261.614 259.38C261.145 259.38 260.695 259.292 260.264 259.114C259.845 258.937 259.477 258.689 259.16 258.372C258.843 258.055 258.59 257.687 258.399 257.269C258.222 256.85 258.133 256.4 258.133 255.918Z" fill="black"/>
</svg>
