<svg width="563" height="112" viewBox="0 0 563 112" fill="none" xmlns="http://www.w3.org/2000/svg">
<path d="M13.7557 17.9403H4.65664L3.04046 23.5H0.018195L7.21021 0.323942H11.3153L18.5558 23.5H15.4204L13.7557 17.9403ZM5.3516 15.5161H13.0608L9.32741 2.87751H9.06882L5.3516 15.5161ZM31.3075 21.8515C30.8226 22.4118 30.1654 22.8805 29.3357 23.2576C28.5169 23.6347 27.5526 23.8232 26.4428 23.8232C25.6239 23.8232 24.8643 23.7101 24.164 23.4838C23.4636 23.2468 22.8549 22.9128 22.3377 22.4818C21.8205 22.0508 21.4165 21.5283 21.1255 20.9141C20.8346 20.3 20.6892 19.605 20.6892 18.8292C20.6892 18.1828 20.7915 17.5955 20.9962 17.0676C21.2117 16.5289 21.508 16.0602 21.8851 15.6615C22.273 15.2629 22.7363 14.9396 23.2751 14.6918C23.8138 14.4332 24.4172 14.2554 25.0852 14.1585L30.9196 13.3665V12.316C30.9196 11.6911 30.8226 11.1685 30.6287 10.7483C30.4348 10.3173 30.1708 9.97794 29.8368 9.73012C29.5135 9.48231 29.1256 9.30453 28.6731 9.19678C28.2314 9.08904 27.7519 9.03517 27.2347 9.03517C26.3081 9.03517 25.4407 9.16446 24.6327 9.42305C23.8353 9.68164 23.1134 9.98333 22.467 10.3281L21.4488 8.17859C22.3969 7.63986 23.3882 7.25198 24.4226 7.01494C25.4677 6.7779 26.4967 6.65938 27.5095 6.65938C29.5243 6.65938 31.0489 7.1173 32.0833 8.03313C33.1176 8.9382 33.6348 10.2635 33.6348 12.0089V19.6212C33.6348 20.1707 33.7425 20.634 33.958 21.0111C34.1735 21.3774 34.5183 21.6683 34.9924 21.8838L33.457 23.8232C32.9398 23.6939 32.4927 23.4677 32.1156 23.1444C31.7492 22.8104 31.4907 22.4118 31.3398 21.9485L31.3075 21.8515ZM26.4751 16.1464C26.0226 16.211 25.6078 16.3026 25.2306 16.4211C24.8643 16.5396 24.5518 16.7013 24.2933 16.906C24.0347 17.0999 23.83 17.3423 23.6791 17.6333C23.539 17.9242 23.469 18.2797 23.469 18.6999C23.469 19.1848 23.5606 19.6158 23.7438 19.9929C23.9269 20.37 24.1747 20.6878 24.4872 20.9464C24.7997 21.205 25.1606 21.4043 25.57 21.5444C25.9902 21.6737 26.4266 21.7384 26.8791 21.7384C27.3856 21.7384 27.8812 21.6683 28.366 21.5283C28.8509 21.3882 29.2819 21.1889 29.659 20.9303C30.0361 20.6609 30.3378 20.3377 30.564 19.9606C30.8011 19.5835 30.9196 19.1525 30.9196 18.6676V15.4837L26.4751 16.1464ZM54.6452 0.323942C55.561 0.323942 56.423 0.464011 57.2311 0.74415C58.0391 1.01351 58.7449 1.4014 59.3483 1.9078C59.9516 2.4142 60.4257 3.02835 60.7705 3.75025C61.1261 4.46137 61.3038 5.2533 61.3038 6.12604C61.3038 6.69709 61.2069 7.25198 61.0129 7.79071C60.8298 8.32943 60.5766 8.83045 60.2533 9.29376C59.9301 9.74629 59.5476 10.1503 59.1058 10.5059C58.6641 10.8507 58.1846 11.12 57.6674 11.314C58.2493 11.4002 58.8365 11.5887 59.4291 11.8796C60.0324 12.1598 60.5712 12.5423 61.0452 13.0271C61.5193 13.5012 61.9072 14.0669 62.2089 14.7241C62.5106 15.3814 62.6614 16.1194 62.6614 16.9383C62.6614 18.0696 62.4459 19.0501 62.015 19.8798C61.5948 20.7094 61.0237 21.3936 60.3018 21.9323C59.5799 22.4603 58.7341 22.8535 57.7644 23.1121C56.8055 23.3707 55.7873 23.5 54.7098 23.5H45.8855V0.323942H54.6452ZM59.72 16.906C59.72 16.2056 59.5853 15.5969 59.3159 15.0797C59.0573 14.5517 58.6964 14.1208 58.2331 13.7867C57.7806 13.442 57.2418 13.1888 56.6169 13.0271C56.0028 12.8547 55.3455 12.7685 54.6452 12.7685H48.7299V21.1242H54.7421C55.4209 21.1242 56.062 21.0434 56.6654 20.8818C57.2688 20.7202 57.7967 20.4724 58.2493 20.1383C58.7018 19.7936 59.0573 19.3572 59.3159 18.8292C59.5853 18.2905 59.72 17.6494 59.72 16.906ZM58.427 6.51392C58.427 5.99674 58.3408 5.51189 58.1684 5.05936C58.0068 4.59605 57.7375 4.19201 57.3604 3.84722C56.994 3.50243 56.5199 3.22768 55.9381 3.02297C55.3563 2.81825 54.6506 2.71589 53.8209 2.71589H48.7299V10.4251H53.8209C54.6506 10.4251 55.3563 10.3227 55.9381 10.118C56.5199 9.90252 56.994 9.61699 57.3604 9.26143C57.7375 8.90587 58.0068 8.49105 58.1684 8.01697C58.3408 7.54289 58.427 7.04187 58.427 6.51392ZM69.3686 23.5H66.6534V0.323942H69.3686V8.87355C69.8534 8.19475 70.5107 7.65602 71.3403 7.25737C72.17 6.85871 73.1235 6.65938 74.201 6.65938C75.2677 6.65938 76.232 6.87487 77.0939 7.30585C77.9559 7.72606 78.694 8.31866 79.3081 9.08365C79.9223 9.84864 80.391 10.7591 80.7142 11.815C81.0482 12.8601 81.2152 14.0076 81.2152 15.2575C81.2152 16.5073 81.0482 17.6548 80.7142 18.6999C80.391 19.7451 79.9223 20.6501 79.3081 21.4151C78.694 22.1693 77.9559 22.7619 77.0939 23.1929C76.232 23.6131 75.2677 23.8232 74.201 23.8232C73.1235 23.8232 72.17 23.6239 71.3403 23.2252C70.5107 22.8266 69.8534 22.2879 69.3686 21.6091V23.5ZM78.4031 15.1605C78.4031 14.2985 78.3007 13.4958 78.096 12.7524C77.8913 12.0089 77.5896 11.3679 77.1909 10.8291C76.7923 10.2796 76.2966 9.84864 75.704 9.53618C75.1222 9.22372 74.4542 9.06749 73.7 9.06749C72.9781 9.06749 72.3424 9.1914 71.7929 9.43921C71.2541 9.68703 70.8016 10.0264 70.4353 10.4574C70.0689 10.8884 69.7888 11.4002 69.5949 11.9928C69.4117 12.5746 69.3201 13.2103 69.3201 13.8999V16.5827C69.3201 17.2723 69.4117 17.9134 69.5949 18.506C69.7888 19.0878 70.0689 19.5942 70.4353 20.0252C70.8016 20.4562 71.2541 20.7956 71.7929 21.0434C72.3424 21.2912 72.9781 21.4151 73.7 21.4151C74.4542 21.4151 75.1222 21.2589 75.704 20.9464C76.2966 20.634 76.7923 20.2084 77.1909 19.6696C77.5896 19.1201 77.8913 18.4737 78.096 17.7302C78.3007 16.9868 78.4031 16.1841 78.4031 15.3221V15.1605ZM91.2032 11.9443C91.2032 10.285 91.4349 8.73348 91.8982 7.28969C92.3615 5.83512 93.0295 4.5745 93.9022 3.50782C94.775 2.43037 95.8309 1.58456 97.07 0.970415C98.3198 0.345491 99.7259 0.0330294 101.288 0.0330294C102.376 0.0330294 103.373 0.178486 104.278 0.469399C105.194 0.749537 106.013 1.15358 106.735 1.68154C107.457 2.19871 108.082 2.82903 108.61 3.57247C109.148 4.30514 109.59 5.124 109.935 6.02907L107.22 6.95029C107.047 6.42234 106.794 5.89438 106.46 5.36643C106.126 4.83848 105.711 4.3644 105.216 3.94419C104.72 3.52398 104.143 3.18459 103.486 2.926C102.829 2.65663 102.096 2.52195 101.288 2.52195C100.081 2.52195 99.0309 2.78054 98.1366 3.29772C97.2531 3.80412 96.5205 4.48292 95.9386 5.33411C95.3568 6.1853 94.9204 7.17117 94.6295 8.29172C94.3494 9.4015 94.2093 10.5544 94.2093 11.7504V12.1544C94.2093 13.3504 94.3494 14.5033 94.6295 15.613C94.9204 16.7228 95.3568 17.7033 95.9386 18.5545C96.5205 19.3949 97.2531 20.0737 98.1366 20.5909C99.0309 21.0973 100.081 21.3505 101.288 21.3505C102.096 21.3505 102.829 21.2212 103.486 20.9626C104.143 20.6932 104.72 20.3484 105.216 19.9282C105.711 19.508 106.126 19.0339 106.46 18.506C106.794 17.978 107.047 17.4447 107.22 16.906L109.935 17.8434C109.59 18.7484 109.148 19.5673 108.61 20.3C108.082 21.0326 107.457 21.6629 106.735 22.1909C106.013 22.7081 105.194 23.1121 104.278 23.403C103.373 23.6832 102.376 23.8232 101.288 23.8232C99.7259 23.8232 98.3198 23.5162 97.07 22.902C95.8309 22.2879 94.775 21.4474 93.9022 20.3808C93.0295 19.3141 92.3615 18.0589 91.8982 16.6151C91.4349 15.1713 91.2032 13.6144 91.2032 11.9443ZM115.688 15.3221C115.688 16.1518 115.791 16.9383 115.995 17.6817C116.2 18.4252 116.502 19.077 116.901 19.6373C117.299 20.1868 117.795 20.6286 118.387 20.9626C118.991 21.2858 119.691 21.4474 120.488 21.4474C121.006 21.4474 121.48 21.3774 121.911 21.2373C122.352 21.0865 122.746 20.8872 123.09 20.6394C123.446 20.3915 123.759 20.1006 124.028 19.7666C124.308 19.4218 124.55 19.0555 124.755 18.6676L127.018 19.9606C126.738 20.5424 126.377 21.0757 125.935 21.5606C125.504 22.0347 125.008 22.4387 124.448 22.7727C123.888 23.1067 123.274 23.3653 122.606 23.5485C121.938 23.7317 121.232 23.8232 120.488 23.8232C119.346 23.8232 118.307 23.6131 117.369 23.1929C116.443 22.7619 115.645 22.1693 114.977 21.4151C114.309 20.6501 113.792 19.7451 113.426 18.6999C113.059 17.6548 112.876 16.5073 112.876 15.2575C112.876 13.9968 113.059 12.844 113.426 11.7988C113.792 10.7429 114.309 9.83787 114.977 9.08365C115.645 8.31866 116.443 7.72606 117.369 7.30585C118.307 6.87487 119.346 6.65938 120.488 6.65938C121.232 6.65938 121.938 6.75096 122.606 6.93413C123.274 7.1173 123.888 7.37589 124.448 7.7099C125.008 8.04391 125.504 8.45334 125.935 8.9382C126.377 9.41228 126.738 9.94023 127.018 10.5221L124.755 11.815C124.55 11.4271 124.308 11.0662 124.028 10.7322C123.759 10.3874 123.446 10.0911 123.09 9.84326C122.746 9.59544 122.352 9.4015 121.911 9.26143C121.48 9.11059 121.006 9.03517 120.488 9.03517C119.691 9.03517 118.991 9.20217 118.387 9.53618C117.795 9.85942 117.299 10.3012 116.901 10.8615C116.502 11.411 116.2 12.0574 115.995 12.8009C115.791 13.5443 115.688 14.3309 115.688 15.1605V15.3221ZM156.206 11.912C156.206 13.6467 155.991 15.2305 155.56 16.6635C155.129 18.0858 154.471 19.3033 153.588 20.3161C152.704 21.3289 151.595 22.1155 150.259 22.6757C148.933 23.2252 147.371 23.5 145.572 23.5H138.137V0.323942H145.572C147.371 0.323942 148.933 0.604081 150.259 1.16436C151.595 1.71386 152.704 2.49501 153.588 3.50782C154.471 4.52063 155.129 5.74354 155.56 7.17656C155.991 8.5988 156.206 10.1773 156.206 11.912ZM153.151 11.4594C153.151 10.2527 153.001 9.12136 152.699 8.06546C152.397 7.00955 151.934 6.09371 151.309 5.31795C150.695 4.5314 149.903 3.91187 148.933 3.45934C147.974 3.00681 146.832 2.78054 145.507 2.78054H140.982V21.0434H145.507C146.832 21.0434 147.974 20.8225 148.933 20.3808C149.903 19.9282 150.695 19.3141 151.309 18.5383C151.934 17.7518 152.397 16.8306 152.699 15.7746C153.001 14.7187 153.151 13.5874 153.151 12.3807V11.4594ZM171.495 21.6091C171.01 22.2879 170.348 22.8266 169.507 23.2252C168.678 23.6239 167.729 23.8232 166.663 23.8232C165.596 23.8232 164.632 23.6131 163.77 23.1929C162.908 22.7619 162.17 22.1693 161.556 21.4151C160.941 20.6501 160.467 19.7451 160.133 18.6999C159.81 17.6548 159.649 16.5073 159.649 15.2575C159.649 14.0076 159.81 12.8601 160.133 11.815C160.467 10.7591 160.941 9.84864 161.556 9.08365C162.17 8.31866 162.908 7.72606 163.77 7.30585C164.632 6.87487 165.596 6.65938 166.663 6.65938C167.729 6.65938 168.678 6.85871 169.507 7.25737C170.348 7.65602 171.01 8.19475 171.495 8.87355V0.323942H174.21V23.5H171.495V21.6091ZM162.461 15.3221C162.461 16.1841 162.563 16.9868 162.768 17.7302C162.972 18.4737 163.274 19.1201 163.673 19.6696C164.071 20.2084 164.562 20.634 165.144 20.9464C165.725 21.2589 166.399 21.4151 167.164 21.4151C167.886 21.4151 168.516 21.2912 169.055 21.0434C169.604 20.7956 170.062 20.4562 170.428 20.0252C170.795 19.5942 171.07 19.0878 171.253 18.506C171.436 17.9134 171.527 17.2723 171.527 16.5827V13.8999C171.527 13.2103 171.436 12.5746 171.253 11.9928C171.07 11.4002 170.795 10.8884 170.428 10.4574C170.062 10.0264 169.604 9.68703 169.055 9.43921C168.516 9.1914 167.886 9.06749 167.164 9.06749C166.399 9.06749 165.725 9.22372 165.144 9.53618C164.562 9.84864 164.071 10.2796 163.673 10.8291C163.274 11.3679 162.972 12.0089 162.768 12.7524C162.563 13.4958 162.461 14.2985 162.461 15.1605V15.3221ZM186.526 0.323942H200.393V2.78054H189.37V10.3928H199.487V12.8494H189.37V21.0434H201.023V23.5H186.526V0.323942ZM206.679 16.0817C206.733 16.8575 206.89 17.574 207.148 18.2312C207.407 18.8885 207.757 19.4595 208.199 19.9444C208.651 20.4185 209.179 20.7902 209.783 21.0596C210.397 21.3182 211.075 21.4474 211.819 21.4474C212.735 21.4474 213.537 21.2966 214.227 20.9949C214.927 20.6825 215.568 20.2946 216.15 19.8313L217.54 21.7868C216.797 22.3794 215.935 22.8697 214.954 23.2576C213.985 23.6347 212.896 23.8232 211.69 23.8232C210.494 23.8232 209.411 23.6131 208.441 23.1929C207.471 22.7619 206.642 22.1693 205.952 21.4151C205.273 20.6501 204.751 19.7451 204.384 18.6999C204.018 17.644 203.835 16.4965 203.835 15.2575C203.835 13.9968 204.013 12.844 204.368 11.7988C204.735 10.7429 205.246 9.83787 205.904 9.08365C206.561 8.31866 207.347 7.72606 208.263 7.30585C209.179 6.87487 210.197 6.65938 211.318 6.65938C212.406 6.65938 213.387 6.87487 214.259 7.30585C215.132 7.72606 215.876 8.31866 216.49 9.08365C217.104 9.83787 217.573 10.7429 217.896 11.7988C218.23 12.844 218.397 13.9861 218.397 15.2251V16.0817H206.679ZM211.221 9.03517C210.531 9.03517 209.917 9.16985 209.378 9.43921C208.84 9.70858 208.376 10.0695 207.989 10.5221C207.611 10.9746 207.31 11.4972 207.083 12.0898C206.868 12.6716 206.744 13.275 206.712 13.8999H215.455C215.434 13.2642 215.321 12.6554 215.116 12.0736C214.922 11.481 214.642 10.9638 214.276 10.5221C213.92 10.0695 213.484 9.70858 212.966 9.43921C212.46 9.16985 211.878 9.03517 211.221 9.03517ZM229.516 0.323942H243.383V2.78054H232.361V10.3928H242.478V12.8494H232.361V23.5H229.516V0.323942ZM250.947 6.98261H254.228V9.37456H250.947V23.5H248.232V9.37456H245.484V6.98261H248.232V3.91187C248.232 3.20075 248.345 2.59737 248.571 2.10174C248.797 1.60611 249.11 1.20746 249.508 0.905768C249.918 0.593306 250.397 0.372428 250.947 0.243133C251.507 0.103064 252.116 0.0330294 252.773 0.0330294C253.441 0.0330294 253.996 0.065353 254.438 0.13C254.879 0.183873 255.208 0.226971 255.424 0.259295L255.213 2.5866C255.052 2.57582 254.863 2.55966 254.648 2.53811C254.443 2.51656 254.228 2.5004 254.001 2.48963C253.786 2.47885 253.576 2.46808 253.371 2.4573C253.166 2.44653 252.999 2.44114 252.87 2.44114C252.482 2.44114 252.164 2.5004 251.916 2.61892C251.669 2.72667 251.469 2.87212 251.318 3.05529C251.178 3.23846 251.081 3.44856 251.028 3.6856C250.974 3.92264 250.947 4.17046 250.947 4.42905V6.98261ZM273.056 21.3505C273.896 21.3505 274.64 21.2427 275.286 21.0272C275.944 20.8117 276.509 20.5262 276.983 20.1707C277.468 19.8151 277.878 19.4057 278.212 18.9424C278.546 18.4791 278.81 17.9996 279.004 17.504C279.208 16.9976 279.354 16.4965 279.44 16.0009C279.537 15.4945 279.585 15.0258 279.585 14.5948V13.6413H273.088V11.2493H282.123V23.5H279.553V20.3808C279.154 21.0165 278.702 21.5552 278.196 21.997C277.689 22.4387 277.15 22.7943 276.579 23.0636C276.008 23.333 275.405 23.5269 274.769 23.6455C274.144 23.764 273.509 23.8232 272.862 23.8232C271.278 23.8232 269.872 23.5162 268.644 22.902C267.416 22.2879 266.376 21.4474 265.525 20.3808C264.684 19.3141 264.043 18.0589 263.601 16.6151C263.16 15.1713 262.939 13.6144 262.939 11.9443C262.939 10.285 263.181 8.73348 263.666 7.28969C264.151 5.83512 264.84 4.5745 265.735 3.50782C266.629 2.43037 267.707 1.58456 268.967 0.970415C270.239 0.345491 271.661 0.0330294 273.234 0.0330294C274.204 0.0330294 275.119 0.151549 275.981 0.38859C276.854 0.614855 277.657 0.943479 278.389 1.37446C279.122 1.79467 279.779 2.30107 280.361 2.89367C280.943 3.4755 281.433 4.12197 281.832 4.83309L279.424 6.09371C279.144 5.55499 278.81 5.07013 278.422 4.63915C278.034 4.19739 277.587 3.82028 277.08 3.50782C276.574 3.19536 276.003 2.95293 275.367 2.78054C274.742 2.60815 274.053 2.52195 273.299 2.52195C272.092 2.52195 271.03 2.78054 270.115 3.29772C269.199 3.80412 268.428 4.48292 267.803 5.33411C267.189 6.1853 266.726 7.17117 266.414 8.29172C266.101 9.4015 265.945 10.5544 265.945 11.7504V12.1544C265.945 13.3504 266.085 14.5033 266.365 15.613C266.656 16.7228 267.092 17.7033 267.674 18.5545C268.267 19.3949 269.01 20.0737 269.905 20.5909C270.799 21.0973 271.849 21.3505 273.056 21.3505ZM285.775 14.3362C285.775 13.248 285.932 12.2352 286.244 11.2978C286.557 10.3604 287.004 9.55234 287.586 8.87355C288.167 8.18398 288.868 7.64525 289.687 7.25737C290.516 6.85871 291.443 6.65938 292.466 6.65938C293.372 6.65938 294.233 6.83716 295.052 7.19272C295.871 7.5375 296.566 8.09778 297.137 8.87355V6.98261H299.852V23.5C299.852 24.5236 299.642 25.3802 299.222 26.0697C298.813 26.7701 298.274 27.3304 297.606 27.7506C296.938 28.1708 296.178 28.4725 295.327 28.6556C294.487 28.8388 293.63 28.9304 292.757 28.9304C292.272 28.9304 291.766 28.9034 291.238 28.8496C290.721 28.7957 290.198 28.7149 289.67 28.6071C289.142 28.4994 288.62 28.3593 288.103 28.1869C287.596 28.0253 287.111 27.8314 286.648 27.6051L287.634 25.3263C287.957 25.4771 288.297 25.6226 288.652 25.7627C289.008 25.9135 289.39 26.0482 289.8 26.1667C290.22 26.2852 290.667 26.3822 291.141 26.4576C291.615 26.533 292.132 26.5707 292.693 26.5707C293.382 26.5707 294.002 26.5007 294.551 26.3606C295.112 26.2206 295.58 25.9997 295.957 25.698C296.335 25.4071 296.625 25.03 296.83 24.5667C297.035 24.1141 297.137 23.57 297.137 22.9343V19.7989C296.566 20.5747 295.871 21.1404 295.052 21.4959C294.233 21.8407 293.372 22.0131 292.466 22.0131C291.443 22.0131 290.516 21.8192 289.687 21.4313C288.868 21.0326 288.167 20.4885 287.586 19.7989C287.004 19.1094 286.557 18.3013 286.244 17.3747C285.932 16.4373 285.775 15.4245 285.775 14.3362ZM297.202 14.2716C297.202 13.5282 297.121 12.844 296.959 12.219C296.798 11.5833 296.545 11.0338 296.2 10.5705C295.855 10.0965 295.413 9.73012 294.875 9.47154C294.347 9.20217 293.711 9.06749 292.967 9.06749C292.213 9.06749 291.561 9.20217 291.012 9.47154C290.462 9.7409 290.004 10.1126 289.638 10.5867C289.283 11.05 289.019 11.5995 288.846 12.2352C288.674 12.8709 288.588 13.5497 288.588 14.2716V14.4009C288.588 15.1228 288.674 15.8016 288.846 16.4373C289.019 17.0622 289.283 17.6117 289.638 18.0858C290.004 18.5491 290.462 18.9154 291.012 19.1848C291.561 19.4542 292.213 19.5888 292.967 19.5888C293.711 19.5888 294.347 19.4595 294.875 19.201C295.413 18.9316 295.855 18.5653 296.2 18.102C296.545 17.6386 296.798 17.0891 296.959 16.4534C297.121 15.8177 297.202 15.1336 297.202 14.4009V14.2716ZM327.182 12.8494H314.98V23.5H312.135V0.323942H314.98V10.3928H327.182V0.323942H330.043V23.5H327.182V12.8494ZM335.489 0.323942H338.204V8.87355C338.765 8.10855 339.454 7.54828 340.273 7.19272C341.103 6.83716 342.024 6.65938 343.037 6.65938C343.953 6.65938 344.755 6.81022 345.445 7.11191C346.134 7.4136 346.711 7.82303 347.174 8.34021C347.638 8.85739 347.982 9.45537 348.209 10.1342C348.446 10.813 348.564 11.5295 348.564 12.2837V23.5H345.849V13.1403C345.849 12.4184 345.757 11.8042 345.574 11.2978C345.402 10.7806 345.159 10.3658 344.847 10.0534C344.545 9.73012 344.184 9.49847 343.764 9.3584C343.355 9.20756 342.913 9.13214 342.439 9.13214C341.922 9.13214 341.41 9.22911 340.903 9.42305C340.397 9.60622 339.944 9.88636 339.546 10.2635C339.147 10.6406 338.824 11.1147 338.576 11.6857C338.328 12.2568 338.204 12.9302 338.204 13.7059V23.5H335.489V0.323942ZM360.718 0.323942H363.562V23.5H360.718V0.323942ZM371.756 23.5H369.041V6.98261H371.756V23.5ZM368.54 2.21488C368.54 1.95629 368.589 1.71386 368.686 1.48759C368.793 1.26133 368.928 1.062 369.09 0.889606C369.262 0.717213 369.461 0.582531 369.688 0.48556C369.925 0.377815 370.172 0.323942 370.431 0.323942C370.69 0.323942 370.932 0.377815 371.158 0.48556C371.385 0.582531 371.579 0.717213 371.74 0.889606C371.913 1.062 372.047 1.26133 372.144 1.48759C372.252 1.71386 372.306 1.95629 372.306 2.21488C372.306 2.47347 372.252 2.72128 372.144 2.95832C372.047 3.18459 371.913 3.38391 371.74 3.55631C371.579 3.71793 371.385 3.85261 371.158 3.96035C370.932 4.05732 370.69 4.10581 370.431 4.10581C370.172 4.10581 369.925 4.05732 369.688 3.96035C369.461 3.85261 369.262 3.71793 369.09 3.55631C368.928 3.38391 368.793 3.18459 368.686 2.95832C368.589 2.72128 368.54 2.47347 368.54 2.21488ZM381.001 20.7848C381.367 20.9033 381.728 21.0057 382.084 21.0919C382.396 21.1673 382.725 21.2373 383.07 21.302C383.425 21.3559 383.748 21.3828 384.039 21.3828C384.869 21.3828 385.521 21.2912 385.995 21.108C386.48 20.9249 386.846 20.6447 387.094 20.2676C387.342 19.8905 387.498 19.4218 387.563 18.8616C387.638 18.2905 387.676 17.6171 387.676 16.8413V0.323942H390.52V18.7646C390.52 19.7235 390.348 20.5262 390.003 21.1727C389.658 21.8084 389.2 22.3256 388.629 22.7242C388.058 23.1229 387.401 23.403 386.658 23.5646C385.925 23.737 385.16 23.8232 384.363 23.8232C383.651 23.8232 382.935 23.764 382.213 23.6455C381.502 23.5269 380.829 23.3707 380.193 23.1768L381.001 20.7848ZM398.553 26.1182C398.553 26.6677 398.456 27.1202 398.262 27.4758C398.079 27.8421 397.836 28.1331 397.534 28.3485C397.244 28.564 396.91 28.7149 396.532 28.8011C396.155 28.8873 395.778 28.9304 395.401 28.9304C394.884 28.9304 394.399 28.898 393.947 28.8334C393.494 28.7795 393.187 28.7364 393.025 28.7041L393.381 26.4738C393.532 26.5061 393.726 26.5276 393.963 26.5384C394.211 26.56 394.404 26.5707 394.545 26.5707C394.846 26.5707 395.083 26.5384 395.256 26.4738C395.439 26.4091 395.568 26.3175 395.644 26.199C395.73 26.0805 395.784 25.935 395.805 25.7627C395.827 25.601 395.837 25.4179 395.837 25.2132V6.98261H398.553V26.1182ZM395.336 2.21488C395.336 1.95629 395.385 1.71386 395.482 1.48759C395.59 1.26133 395.724 1.062 395.886 0.889606C396.058 0.717213 396.258 0.582531 396.484 0.48556C396.721 0.377815 396.969 0.323942 397.227 0.323942C397.486 0.323942 397.728 0.377815 397.955 0.48556C398.181 0.582531 398.375 0.717213 398.536 0.889606C398.709 1.062 398.844 1.26133 398.941 1.48759C399.048 1.71386 399.102 1.95629 399.102 2.21488C399.102 2.47347 399.048 2.72128 398.941 2.95832C398.844 3.18459 398.709 3.38391 398.536 3.55631C398.375 3.71793 398.181 3.85261 397.955 3.96035C397.728 4.05732 397.486 4.10581 397.227 4.10581C396.969 4.10581 396.721 4.05732 396.484 3.96035C396.258 3.85261 396.058 3.71793 395.886 3.55631C395.724 3.38391 395.59 3.18459 395.482 2.95832C395.385 2.72128 395.336 2.47347 395.336 2.21488ZM410.852 0.323942H413.696V12.7362L423.717 0.323942H427.191L419.611 9.47154L427.951 23.5H424.622L417.704 11.5564L413.696 16.5181V23.5H410.852V0.323942ZM433.624 15.0959L441.398 6.98261H444.808L438.521 13.5443L445.099 23.5H441.786L436.598 15.3544L433.624 18.409V23.5H430.909V0.323942H433.624V15.0959ZM455.491 0.323942H458.335V20.9464H467.596V23.5H455.491V0.323942ZM470.683 0.323942H473.398V19.7989C473.398 20.0683 473.42 20.3053 473.463 20.5101C473.517 20.7148 473.603 20.8872 473.721 21.0272C473.84 21.1673 474.001 21.2751 474.206 21.3505C474.422 21.4151 474.686 21.4474 474.998 21.4474C475.343 21.4474 475.655 21.4367 475.935 21.4151C476.216 21.3936 476.463 21.372 476.679 21.3505L476.954 23.6293C476.641 23.6616 476.329 23.6939 476.016 23.7263C475.747 23.7478 475.451 23.7694 475.127 23.7909C474.804 23.8125 474.497 23.8232 474.206 23.8232C473.721 23.8232 473.263 23.764 472.832 23.6455C472.401 23.5377 472.024 23.3545 471.701 23.096C471.389 22.8374 471.141 22.5034 470.958 22.0939C470.774 21.6845 470.683 21.1835 470.683 20.5909V0.323942ZM504.041 0.323942H507.548V23.5H504.671V3.6856L496.752 14.4979H496.72L488.752 3.70176V23.5H485.972V0.323942H489.592L496.8 10.1827L504.041 0.323942ZM525.391 23.5H522.675V13.1079C522.675 12.3753 522.584 11.7557 522.401 11.2493C522.228 10.7429 521.991 10.3335 521.69 10.021C521.399 9.70858 521.049 9.48231 520.639 9.34224C520.24 9.20217 519.815 9.13214 519.362 9.13214C518.91 9.13214 518.463 9.22372 518.021 9.40689C517.59 9.57928 517.202 9.85403 516.857 10.2311C516.523 10.6083 516.248 11.0877 516.033 11.6695C515.828 12.2406 515.726 12.9302 515.726 13.7383V23.5H513.011V6.98261H515.726V8.87355C516.275 8.10855 516.911 7.54828 517.633 7.19272C518.366 6.83716 519.174 6.65938 520.057 6.65938C520.424 6.65938 520.822 6.71325 521.253 6.821C521.684 6.91797 522.104 7.0742 522.514 7.28969C522.934 7.50518 523.317 7.79071 523.661 8.14627C524.017 8.49105 524.302 8.91126 524.518 9.40689C524.82 8.90048 525.164 8.47489 525.552 8.1301C525.951 7.77454 526.366 7.48902 526.797 7.27353C527.239 7.05804 527.691 6.90181 528.154 6.80483C528.628 6.70786 529.097 6.65938 529.56 6.65938C530.455 6.65938 531.247 6.81022 531.936 7.11191C532.626 7.4136 533.208 7.81764 533.682 8.32405C534.156 8.83045 534.511 9.41766 534.748 10.0857C534.996 10.7537 535.12 11.4541 535.12 12.1867V23.5H532.405V13.1079C532.405 12.3753 532.313 11.7557 532.13 11.2493C531.947 10.7429 531.699 10.3335 531.387 10.021C531.074 9.70858 530.713 9.48231 530.304 9.34224C529.894 9.20217 529.469 9.13214 529.027 9.13214C528.575 9.13214 528.127 9.22372 527.686 9.40689C527.255 9.57928 526.867 9.85403 526.522 10.2311C526.188 10.6083 525.913 11.0877 525.698 11.6695C525.493 12.2406 525.391 12.9302 525.391 13.7383V23.5ZM4.96371 43.7018V63.5H2.18388V40.3239H6.07888L18.2972 60.1222V40.3239H21.0771V63.5H17.1659L4.96371 43.7018ZM26.5398 46.9826H29.2549V48.8735C29.8152 48.1086 30.5048 47.5483 31.3237 47.1927C32.1533 46.8372 33.0745 46.6594 34.0873 46.6594C35.0032 46.6594 35.8059 46.8102 36.4954 47.1119C37.185 47.4136 37.7614 47.823 38.2247 48.3402C38.6881 48.8574 39.0328 49.4554 39.2591 50.1342C39.4961 50.813 39.6147 51.5295 39.6147 52.2837V63.5H36.8995V53.1403C36.8995 52.4184 36.8079 51.8042 36.6247 51.2978C36.4523 50.7806 36.2099 50.3658 35.8974 50.0534C35.5958 49.7301 35.2348 49.4985 34.8146 49.3584C34.4052 49.2076 33.9634 49.1321 33.4893 49.1321C32.9722 49.1321 32.4604 49.2291 31.954 49.423C31.4583 49.6062 31.0058 49.8864 30.5964 50.2635C30.1977 50.6406 29.8745 51.1147 29.6267 51.6857C29.3788 52.2568 29.2549 52.9302 29.2549 53.7059V63.5H26.5398V46.9826ZM50.4108 51.9443C50.4108 50.285 50.6424 48.7335 51.1057 47.2897C51.5798 45.8351 52.2532 44.5745 53.126 43.5078C53.9987 42.4304 55.06 41.5846 56.3098 40.9704C57.5597 40.3455 58.9658 40.033 60.5281 40.033C62.0904 40.033 63.4965 40.3455 64.7463 40.9704C65.9962 41.5846 67.0574 42.4304 67.9302 43.5078C68.8137 44.5745 69.4871 45.8351 69.9504 47.2897C70.4245 48.7335 70.6615 50.285 70.6615 51.9443C70.6615 53.6144 70.4245 55.1713 69.9504 56.6151C69.4871 58.0589 68.8137 59.3141 67.9302 60.3808C67.0574 61.4474 65.9962 62.2879 64.7463 62.902C63.4965 63.5162 62.0904 63.8232 60.5281 63.8232C58.9658 63.8232 57.5597 63.5162 56.3098 62.902C55.06 62.2879 53.9987 61.4474 53.126 60.3808C52.2532 59.3141 51.5798 58.0589 51.1057 56.6151C50.6424 55.1713 50.4108 53.6144 50.4108 51.9443ZM67.6554 51.718C67.6554 50.5221 67.5154 49.3692 67.2352 48.2594C66.9659 47.1496 66.5403 46.1691 65.9584 45.3179C65.3766 44.4668 64.6332 43.788 63.7281 43.2816C62.8338 42.7752 61.7671 42.522 60.5281 42.522C59.289 42.522 58.2223 42.7752 57.328 43.2816C56.4337 43.788 55.6957 44.4668 55.1139 45.3179C54.532 46.1691 54.1011 47.1496 53.8209 48.2594C53.5515 49.3692 53.4169 50.5221 53.4169 51.718V52.1544C53.4169 53.3504 53.5515 54.5033 53.8209 55.613C54.1011 56.7228 54.532 57.7033 55.1139 58.5545C55.6957 59.3949 56.4337 60.0737 57.328 60.5909C58.2223 61.0973 59.289 61.3505 60.5281 61.3505C61.7671 61.3505 62.8338 61.0973 63.7281 60.5909C64.6332 60.0737 65.3766 59.3949 65.9584 58.5545C66.5403 57.7033 66.9659 56.7228 67.2352 55.613C67.5154 54.5033 67.6554 53.3504 67.6554 52.1544V51.718ZM81.6031 46.6594C82.7452 46.6594 83.7849 46.8749 84.7223 47.3059C85.6597 47.7261 86.457 48.3187 87.1143 49.0837C87.7823 49.8379 88.2995 50.7429 88.6658 51.7988C89.0321 52.844 89.2153 53.9968 89.2153 55.2575C89.2153 56.4965 89.0321 57.644 88.6658 58.6999C88.2995 59.7451 87.7823 60.6501 87.1143 61.4151C86.457 62.1693 85.6597 62.7619 84.7223 63.1929C83.7849 63.6131 82.7452 63.8232 81.6031 63.8232C80.461 63.8232 79.4212 63.6131 78.4839 63.1929C77.5572 62.7619 76.7599 62.1693 76.0919 61.4151C75.4239 60.6501 74.9067 59.7451 74.5404 58.6999C74.174 57.644 73.9909 56.4965 73.9909 55.2575C73.9909 53.9968 74.174 52.844 74.5404 51.7988C74.9067 50.7429 75.4239 49.8379 76.0919 49.0837C76.7599 48.3187 77.5572 47.7261 78.4839 47.3059C79.4212 46.8749 80.461 46.6594 81.6031 46.6594ZM81.6031 61.4474C82.3896 61.4474 83.0792 61.2858 83.6718 60.9626C84.2752 60.6286 84.7762 60.1814 85.1749 59.6212C85.5843 59.0609 85.8914 58.4144 86.0961 57.6817C86.3008 56.9383 86.4032 56.1625 86.4032 55.3544V55.1605C86.4032 54.3309 86.3008 53.5443 86.0961 52.8009C85.8914 52.0574 85.5843 51.411 85.1749 50.8615C84.7762 50.3012 84.2752 49.8594 83.6718 49.5362C83.0792 49.2022 82.3896 49.0352 81.6031 49.0352C80.8165 49.0352 80.1216 49.2022 79.5182 49.5362C78.9256 49.8594 78.4246 50.3012 78.0152 50.8615C77.6165 51.411 77.3148 52.0574 77.1101 52.8009C76.9054 53.5443 76.803 54.3309 76.803 55.1605V55.3544C76.803 56.1625 76.9054 56.9383 77.1101 57.6817C77.3148 58.4144 77.6165 59.0609 78.0152 59.6212C78.4246 60.1814 78.9256 60.6286 79.5182 60.9626C80.1216 61.2858 80.8165 61.4474 81.6031 61.4474ZM100.512 40.3239H108.642C109.73 40.3239 110.716 40.5071 111.599 40.8734C112.483 41.229 113.237 41.73 113.862 42.3765C114.498 43.0122 114.983 43.7772 115.317 44.6715C115.661 45.5658 115.834 46.5462 115.834 47.6129C115.834 48.6904 115.645 49.6763 115.268 50.5705C114.902 51.4541 114.385 52.2137 113.717 52.8494C113.049 53.4851 112.251 53.9807 111.325 54.3362C110.409 54.681 109.407 54.8534 108.319 54.8534H103.357V63.5H100.512V40.3239ZM112.812 47.5483C112.812 46.8695 112.704 46.2392 112.488 45.6573C112.273 45.0755 111.96 44.5745 111.551 44.1543C111.142 43.7233 110.641 43.3893 110.048 43.1523C109.466 42.9044 108.803 42.7805 108.06 42.7805H103.357V52.413H108.06C108.803 52.413 109.466 52.2945 110.048 52.0574C110.641 51.8204 111.142 51.4972 111.551 51.0877C111.96 50.6675 112.273 50.1719 112.488 49.6008C112.704 49.019 112.812 48.3887 112.812 47.7099V47.5483ZM121.927 46.9826V48.8735C122.412 48.1948 123.069 47.656 123.899 47.2574C124.728 46.8587 125.682 46.6594 126.759 46.6594C127.826 46.6594 128.79 46.8749 129.652 47.3059C130.514 47.7261 131.252 48.3187 131.866 49.0837C132.481 49.8486 132.949 50.7591 133.272 51.815C133.606 52.8601 133.773 54.0076 133.773 55.2575C133.773 56.5073 133.606 57.6548 133.272 58.6999C132.949 59.7451 132.481 60.6501 131.866 61.4151C131.252 62.1693 130.514 62.7619 129.652 63.1929C128.79 63.6131 127.826 63.8232 126.759 63.8232C125.682 63.8232 124.728 63.6239 123.899 63.2252C123.069 62.8266 122.412 62.2879 121.927 61.6091V68.5263H119.212V46.9826H121.927ZM130.961 55.1605C130.961 54.2985 130.859 53.4958 130.654 52.7524C130.45 52.0089 130.148 51.3679 129.749 50.8291C129.351 50.2796 128.855 49.8486 128.262 49.5362C127.68 49.2237 127.012 49.0675 126.258 49.0675C125.536 49.0675 124.901 49.1914 124.351 49.4392C123.812 49.687 123.36 50.0264 122.994 50.4574C122.627 50.8884 122.347 51.4002 122.153 51.9928C121.97 52.5746 121.878 53.2103 121.878 53.8999V56.5827C121.878 57.2723 121.97 57.9134 122.153 58.506C122.347 59.0878 122.627 59.5942 122.994 60.0252C123.36 60.4562 123.812 60.7956 124.351 61.0434C124.901 61.2912 125.536 61.4151 126.258 61.4151C127.012 61.4151 127.68 61.2589 128.262 60.9464C128.855 60.634 129.351 60.2084 129.749 59.6696C130.148 59.1201 130.45 58.4737 130.654 57.7302C130.859 56.9868 130.961 56.1841 130.961 55.3221V55.1605ZM143.761 51.9443C143.761 50.285 143.993 48.7335 144.456 47.2897C144.931 45.8351 145.604 44.5745 146.477 43.5078C147.349 42.4304 148.411 41.5846 149.661 40.9704C150.91 40.3455 152.316 40.033 153.879 40.033C155.441 40.033 156.847 40.3455 158.097 40.9704C159.347 41.5846 160.408 42.4304 161.281 43.5078C162.164 44.5745 162.838 45.8351 163.301 47.2897C163.775 48.7335 164.012 50.285 164.012 51.9443C164.012 53.6144 163.775 55.1713 163.301 56.6151C162.838 58.0589 162.164 59.3141 161.281 60.3808C161.022 60.704 160.742 61.0057 160.44 61.2858L162.849 64.2596L160.861 65.8435L158.372 62.7566C158.286 62.8104 158.194 62.8589 158.097 62.902C156.847 63.5162 155.441 63.8232 153.879 63.8232C152.316 63.8232 150.91 63.5162 149.661 62.902C148.411 62.2879 147.349 61.4474 146.477 60.3808C145.604 59.3141 144.931 58.0589 144.456 56.6151C143.993 55.1713 143.761 53.6144 143.761 51.9443ZM161.006 51.718C161.006 50.5221 160.866 49.3692 160.586 48.2594C160.317 47.1496 159.891 46.1691 159.309 45.3179C158.727 44.4668 157.984 43.788 157.079 43.2816C156.185 42.7752 155.118 42.522 153.879 42.522C152.64 42.522 151.573 42.7752 150.679 43.2816C149.784 43.788 149.046 44.4668 148.465 45.3179C147.883 46.1691 147.452 47.1496 147.172 48.2594C146.902 49.3692 146.768 50.5221 146.768 51.718V52.1544C146.768 53.3504 146.902 54.5033 147.172 55.613C147.452 56.7228 147.883 57.7033 148.465 58.5545C149.046 59.3949 149.784 60.0737 150.679 60.5909C151.573 61.0973 152.64 61.3505 153.879 61.3505C154.967 61.3505 155.926 61.1511 156.756 60.7525L153.087 56.1787L155.075 54.5948L158.792 59.2171C158.975 59.0016 159.148 58.7807 159.309 58.5545C159.891 57.7033 160.317 56.7228 160.586 55.613C160.866 54.5033 161.006 53.3504 161.006 52.1544V51.718ZM181.936 46.9826V68.5263H179.221V61.6091C178.736 62.2879 178.073 62.8266 177.233 63.2252C176.403 63.6239 175.455 63.8232 174.388 63.8232C173.321 63.8232 172.357 63.6131 171.495 63.1929C170.633 62.7619 169.895 62.1693 169.281 61.4151C168.667 60.6501 168.193 59.7451 167.859 58.6999C167.536 57.6548 167.374 56.5073 167.374 55.2575C167.374 54.0076 167.536 52.8601 167.859 51.815C168.193 50.7591 168.667 49.8486 169.281 49.0837C169.895 48.3187 170.633 47.7261 171.495 47.3059C172.357 46.8749 173.321 46.6594 174.388 46.6594C175.455 46.6594 176.403 46.8587 177.233 47.2574C178.073 47.656 178.736 48.1948 179.221 48.8735V46.9826H181.936ZM170.186 55.3221C170.186 56.1841 170.288 56.9868 170.493 57.7302C170.698 58.4737 171 59.1201 171.398 59.6696C171.797 60.2084 172.287 60.634 172.869 60.9464C173.451 61.2589 174.124 61.4151 174.889 61.4151C175.611 61.4151 176.241 61.2912 176.78 61.0434C177.33 60.7956 177.788 60.4562 178.154 60.0252C178.52 59.5942 178.795 59.0878 178.978 58.506C179.161 57.9134 179.253 57.2723 179.253 56.5827V53.8999C179.253 53.2103 179.161 52.5746 178.978 51.9928C178.795 51.4002 178.52 50.8884 178.154 50.4574C177.788 50.0264 177.33 49.687 176.78 49.4392C176.241 49.1914 175.611 49.0675 174.889 49.0675C174.124 49.0675 173.451 49.2237 172.869 49.5362C172.287 49.8486 171.797 50.2796 171.398 50.8291C171 51.3679 170.698 52.0089 170.493 52.7524C170.288 53.4958 170.186 54.2985 170.186 55.1605V55.3221ZM194.251 40.3239H202.154C203.232 40.3239 204.239 40.4586 205.176 40.728C206.114 40.9974 206.927 41.4176 207.617 41.9886C208.317 42.5489 208.867 43.2654 209.265 44.1381C209.664 45.0109 209.863 46.0452 209.863 47.2412C209.863 47.9739 209.761 48.6742 209.556 49.3422C209.352 49.9995 209.055 50.6083 208.667 51.1685C208.279 51.718 207.795 52.2083 207.213 52.6393C206.642 53.0595 205.985 53.4042 205.241 53.6736L210.3 63.5H207.116L202.494 54.2393H197.095V63.5H194.251V40.3239ZM202.316 51.7504C202.973 51.7504 203.582 51.6534 204.142 51.4594C204.702 51.2547 205.187 50.9638 205.597 50.5867C206.006 50.2096 206.324 49.7463 206.55 49.1968C206.776 48.6473 206.89 48.0224 206.89 47.322C206.89 46.6001 206.776 45.959 206.55 45.3988C206.324 44.8277 206.006 44.3482 205.597 43.9604C205.187 43.5725 204.702 43.2816 204.142 43.0876C203.582 42.8829 202.973 42.7805 202.316 42.7805H197.095V51.7504H202.316ZM222.453 49.4069H222.017C221.317 49.4069 220.649 49.4877 220.013 49.6493C219.377 49.8109 218.817 50.1018 218.332 50.5221C217.847 50.9423 217.459 51.5187 217.168 52.2514C216.878 52.9733 216.732 53.8999 216.732 55.0312V63.5H214.017V46.9826H216.732V49.6008C216.937 49.116 217.212 48.6904 217.556 48.324C217.901 47.9577 218.289 47.656 218.72 47.419C219.162 47.1712 219.63 46.988 220.126 46.8695C220.632 46.751 221.144 46.6917 221.661 46.6917H222.453V49.4069ZM232.167 58.1343C233.179 59.2656 234.268 60.0845 235.431 60.5909C236.606 61.0973 237.834 61.3505 239.116 61.3505C240 61.3505 240.786 61.2427 241.476 61.0272C242.176 60.801 242.763 60.4939 243.238 60.106C243.712 59.7181 244.067 59.2764 244.304 58.7807C244.552 58.2851 244.676 57.7626 244.676 57.213C244.676 56.4373 244.514 55.8124 244.191 55.3383C243.868 54.8642 243.442 54.4817 242.914 54.1908C242.386 53.8891 241.772 53.6574 241.072 53.4958C240.382 53.3234 239.66 53.1618 238.906 53.011L238.583 52.9463C238.076 52.8494 237.549 52.747 236.999 52.6393C236.46 52.5315 235.927 52.3914 235.399 52.219C234.871 52.0359 234.359 51.8204 233.864 51.5726C233.368 51.314 232.932 50.9961 232.555 50.619C232.048 50.1557 231.628 49.5901 231.294 48.922C230.971 48.2432 230.809 47.4082 230.809 46.417C230.809 45.7166 230.96 44.9893 231.262 44.2351C231.574 43.4809 232.064 42.7913 232.732 42.1664C233.411 41.5415 234.273 41.0297 235.318 40.631C236.363 40.2324 237.629 40.033 239.116 40.033C240.765 40.033 242.284 40.3293 243.674 40.9219C244.245 41.1697 244.789 41.466 245.306 41.8108C245.834 42.1448 246.351 42.565 246.858 43.0715L244.708 44.8331C243.911 44.0358 243 43.4539 241.977 43.0876C240.953 42.7105 239.908 42.522 238.841 42.522C238.076 42.522 237.376 42.6135 236.74 42.7967C236.116 42.9799 235.577 43.2438 235.124 43.5886C234.672 43.9334 234.322 44.3321 234.074 44.7846C233.837 45.2371 233.718 45.7274 233.718 46.2553C233.718 46.988 233.874 47.5806 234.187 48.0331C234.51 48.4857 234.93 48.852 235.448 49.1321C235.965 49.4015 236.547 49.6116 237.193 49.7624C237.85 49.9133 238.513 50.0587 239.181 50.1988L239.343 50.2311C240.42 50.4466 241.46 50.6998 242.462 50.9907C243.475 51.2709 244.353 51.6642 245.096 52.1706C245.85 52.6662 246.454 53.2965 246.906 54.0615C247.359 54.8157 247.585 55.7908 247.585 56.9868C247.585 57.838 247.407 58.6784 247.052 59.508C246.696 60.3377 246.163 61.0757 245.452 61.7222C244.751 62.3579 243.868 62.8697 242.801 63.2576C241.734 63.6347 240.479 63.8232 239.035 63.8232C237.915 63.8232 236.881 63.7047 235.932 63.4677C234.984 63.2199 234.111 62.902 233.314 62.5141C232.722 62.2017 232.145 61.8407 231.585 61.4313C231.035 61.0219 230.486 60.5316 229.936 59.9606L232.167 58.1343ZM262.211 58.9262C262.211 59.702 262.039 60.3969 261.694 61.0111C261.36 61.6145 260.913 62.1262 260.353 62.5465C259.793 62.9667 259.146 63.2845 258.413 63.5C257.692 63.7155 256.948 63.8232 256.183 63.8232C254.976 63.8232 253.813 63.6185 252.692 63.2091C251.582 62.7889 250.597 62.1909 249.735 61.4151L251.221 59.4919C251.48 59.7181 251.776 59.9552 252.11 60.203C252.455 60.4508 252.838 60.6825 253.258 60.8979C253.678 61.1027 254.131 61.2751 254.615 61.4151C255.1 61.5444 255.612 61.6091 256.151 61.6091C256.593 61.6091 257.013 61.5552 257.411 61.4474C257.821 61.3289 258.176 61.1619 258.478 60.9464C258.78 60.7202 259.017 60.4562 259.189 60.1545C259.372 59.842 259.464 59.4919 259.464 59.104C259.464 58.673 259.367 58.3121 259.173 58.0211C258.99 57.7302 258.737 57.4824 258.413 57.2777C258.09 57.073 257.713 56.8952 257.282 56.7444C256.851 56.5935 256.399 56.4427 255.925 56.2918L254.89 55.9524C254.308 55.7585 253.748 55.5376 253.209 55.2898C252.671 55.042 252.191 54.7403 251.771 54.3847C251.362 54.0184 251.033 53.5874 250.785 53.0918C250.548 52.5962 250.43 52.0036 250.43 51.314C250.43 50.7537 250.548 50.1988 250.785 49.6493C251.022 49.089 251.383 48.588 251.868 48.1463C252.364 47.7045 252.988 47.3489 253.743 47.0796C254.497 46.7994 255.386 46.6594 256.409 46.6594C257.541 46.6594 258.586 46.8479 259.545 47.225C260.514 47.6022 261.333 48.0708 262.001 48.6311L260.579 50.5867C260.342 50.3604 260.062 50.1449 259.739 49.9402C259.415 49.7355 259.071 49.5577 258.704 49.4069C258.338 49.2453 257.956 49.116 257.557 49.019C257.158 48.922 256.765 48.8735 256.377 48.8735C255.784 48.8735 255.283 48.9436 254.874 49.0837C254.465 49.2129 254.136 49.3853 253.888 49.6008C253.64 49.8163 253.457 50.0587 253.339 50.3281C253.231 50.5975 253.177 50.8615 253.177 51.12C253.177 51.4972 253.258 51.815 253.419 52.0736C253.581 52.3214 253.791 52.5369 254.05 52.7201C254.319 52.9032 254.621 53.0595 254.955 53.1888C255.3 53.318 255.655 53.4473 256.022 53.5766L257.379 54.0292C258.026 54.2447 258.618 54.4763 259.157 54.7241C259.696 54.9612 260.17 55.2359 260.579 55.5484C261.096 55.9578 261.495 56.4319 261.775 56.9706C262.066 57.5094 262.211 58.1612 262.211 58.9262ZM270.309 40.3239H286.196V42.8775H279.682V63.5H276.822V42.8775H270.309V40.3239ZM292.531 59.3949C292.531 59.675 292.547 59.939 292.58 60.1868C292.623 60.4239 292.714 60.634 292.854 60.8171C293.005 61.0003 293.221 61.1458 293.501 61.2535C293.781 61.3613 294.163 61.4151 294.648 61.4151C294.778 61.4151 294.928 61.4097 295.101 61.399C295.284 61.3882 295.473 61.3774 295.666 61.3666C295.86 61.3451 296.049 61.3235 296.232 61.302C296.415 61.2697 296.572 61.2427 296.701 61.2212L296.992 63.597C296.679 63.6401 296.356 63.6778 296.022 63.7101C295.742 63.7424 295.429 63.7694 295.085 63.7909C294.74 63.8125 294.395 63.8232 294.05 63.8232C293.393 63.8232 292.8 63.7532 292.272 63.6131C291.755 63.4838 291.314 63.2683 290.947 62.9667C290.581 62.665 290.301 62.2717 290.107 61.7868C289.913 61.2912 289.816 60.6932 289.816 59.9929V49.3746H286.697V46.9826H289.816V41.5846L292.531 40.631V46.9826H297.121V49.3746H292.531V59.3949ZM316.111 61.3505C316.865 61.3505 317.587 61.232 318.277 60.9949C318.977 60.7471 319.591 60.37 320.119 59.8636C320.658 59.3572 321.089 58.7161 321.412 57.9403C321.735 57.1538 321.897 56.2164 321.897 55.1282V40.3239H324.677V55.5161C324.677 56.7875 324.456 57.9349 324.014 58.9585C323.573 59.9821 322.969 60.8548 322.204 61.5767C321.439 62.2986 320.534 62.8535 319.489 63.2414C318.444 63.6293 317.318 63.8232 316.111 63.8232C314.915 63.8232 313.795 63.6293 312.75 63.2414C311.715 62.8535 310.81 62.2986 310.034 61.5767C309.269 60.8548 308.666 59.9821 308.224 58.9585C307.782 57.9349 307.562 56.7875 307.562 55.5161V40.3239H310.374V55.1282C310.374 56.2164 310.53 57.1538 310.842 57.9403C311.166 58.7161 311.591 59.3572 312.119 59.8636C312.647 60.37 313.256 60.7471 313.945 60.9949C314.646 61.232 315.368 61.3505 316.111 61.3505ZM342.665 63.5H339.95V61.6091C339.39 62.3741 338.695 62.9343 337.865 63.2899C337.046 63.6455 336.13 63.8232 335.117 63.8232C334.202 63.8232 333.399 63.6724 332.709 63.3707C332.02 63.069 331.443 62.6596 330.98 62.1424C330.517 61.6252 330.167 61.0272 329.93 60.3484C329.703 59.6696 329.59 58.9531 329.59 58.1989V46.9826H332.305V57.3423C332.305 58.075 332.392 58.6946 332.564 59.201C332.747 59.7074 332.99 60.1222 333.291 60.4454C333.604 60.7579 333.965 60.9895 334.374 61.1404C334.794 61.2804 335.241 61.3505 335.715 61.3505C336.276 61.3505 336.809 61.2589 337.315 61.0757C337.833 60.8818 338.285 60.5963 338.673 60.2191C339.061 59.842 339.368 59.368 339.594 58.7969C339.831 58.2259 339.95 57.5524 339.95 56.7767V46.9826H342.665V63.5ZM366.892 40.3239H369.914L362.722 63.5H358.617L351.376 40.3239H354.512L360.605 61.0434H360.879L366.892 40.3239ZM376.33 63.5L371.094 46.9826H374.181L378.14 60.9788L382.084 46.9826H385.171L379.934 63.5H376.33ZM412.274 59.3949H412.436L416.379 40.3239H419.288L414.133 63.5H410.755L405.825 44.5745L400.912 63.5H397.518L392.379 40.3239H395.256L399.264 59.3949H399.458L404.5 40.3239H407.248L412.274 59.3949ZM437.179 60.2838L440.169 46.9826H443.046L439.006 63.5H435.531L432.185 50.2635L428.775 63.5H425.43L421.422 46.9826H424.347L427.224 60.2838L430.699 46.9826H433.769L437.179 60.2838ZM468.76 40.3239L461.842 51.3463L469.325 63.5H466.077L460.226 53.8352L454.262 63.5H451.224L458.707 51.5241L451.854 40.3239H455.087L460.355 49.0352L465.721 40.3239H468.76ZM475.984 54.7888L470.925 46.9826H474.028L477.568 52.6716L480.946 46.9826H484.097L479.055 54.7888L484.792 63.5H481.544L477.406 57.0838L473.64 63.5H470.424L475.984 54.7888ZM494.909 40.3239L500.598 51.314H500.663L506.336 40.3239H509.439L501.988 54.0292V63.5H499.144V54.0292L491.661 40.3239H494.909ZM509.665 46.9826H512.736L516.809 60.6232L520.688 46.9826H523.726L517.714 65.9889C517.531 66.5707 517.294 67.0448 517.003 67.4112C516.712 67.7883 516.378 68.0846 516.001 68.3001C515.634 68.5263 515.225 68.6826 514.772 68.7688C514.32 68.855 513.84 68.898 513.334 68.898C512.881 68.898 512.413 68.8711 511.928 68.8172C511.443 68.7741 510.931 68.7095 510.392 68.6233L510.797 66.2475C511.012 66.2906 511.244 66.3283 511.491 66.3606C511.696 66.393 511.928 66.4199 512.186 66.4415C512.445 66.463 512.709 66.4738 512.978 66.4738C513.571 66.4738 514.029 66.3445 514.352 66.0859C514.686 65.8273 514.923 65.4071 515.063 64.8253L515.225 64.0657L509.665 46.9826ZM544.009 42.8775H532.324V40.3239H547.015V43.2816L534.797 60.9464H547.144V63.5H531.823V60.5585L544.009 42.8775ZM550.086 61.0434L559.088 49.3746H550.619V46.9826H562.094V49.5039L553.124 61.1565H562.531V63.5H550.086V61.0434ZM1.02023 85.0735C1.77445 85.0735 2.3886 85.0142 2.86268 84.8957C3.33676 84.7664 3.70309 84.5671 3.96168 84.2977C4.22027 84.0284 4.39266 83.6836 4.47886 83.2634C4.57583 82.8324 4.62432 82.3098 4.62432 81.6957V81.3239H7.37183V104.5H4.52734V87.4816H0.018195V85.0735H1.02023ZM17.279 102.011H28.8347V104.5H13.4002V101.785C14.8763 100.794 16.207 99.8777 17.3922 99.0373C18.5774 98.1969 19.6225 97.405 20.5276 96.6615C21.4326 95.9073 22.2084 95.1908 22.8549 94.512C23.5121 93.8332 24.0508 93.1598 24.471 92.4918C24.8912 91.8237 25.1983 91.1503 25.3923 90.4715C25.5862 89.7927 25.6832 89.0762 25.6832 88.322C25.6832 87.6755 25.57 87.0614 25.3438 86.4796C25.1283 85.8977 24.8104 85.3913 24.3902 84.9604C23.9808 84.5186 23.469 84.1684 22.8549 83.9098C22.2515 83.6512 21.5619 83.522 20.7861 83.522C20.1612 83.522 19.5578 83.6135 18.976 83.7967C18.405 83.9691 17.8932 84.2492 17.4406 84.6371C16.9989 85.025 16.6379 85.526 16.3578 86.1402C16.0777 86.7435 15.9214 87.4708 15.8891 88.322L13.2062 88.0149C13.2493 86.9375 13.4594 85.9678 13.8366 85.1058C14.2137 84.2438 14.7308 83.5112 15.3881 82.9078C16.0561 82.3044 16.848 81.8411 17.7639 81.5179C18.6905 81.1946 19.7195 81.033 20.8508 81.033C21.9498 81.033 22.968 81.2162 23.9054 81.5825C24.8535 81.9381 25.6724 82.4391 26.362 83.0856C27.0623 83.7321 27.6064 84.497 27.9943 85.3806C28.393 86.2641 28.5923 87.2284 28.5923 88.2735C28.5923 89.5126 28.3768 90.6763 27.9458 91.7645C27.5256 92.8527 26.8791 93.9248 26.0064 94.9807C25.1337 96.0258 24.0239 97.0817 22.6771 98.1484C21.341 99.2151 19.7626 100.341 17.9417 101.526L17.279 101.946V102.011ZM34.5883 98.5686C35.0301 99.6784 35.7035 100.589 36.6086 101.3C37.5136 102 38.715 102.35 40.2127 102.35C41.0315 102.35 41.748 102.243 42.3622 102.027C42.9871 101.801 43.5097 101.494 43.9299 101.106C44.3501 100.718 44.6625 100.271 44.8673 99.7646C45.0828 99.2582 45.1905 98.7087 45.1905 98.1161C45.1905 96.8124 44.6787 95.8049 43.6551 95.0938C42.6423 94.3719 41.3332 94.011 39.7278 94.011H38.7258V91.5221H39.6308C40.5143 91.5221 41.2793 91.4035 41.9258 91.1665C42.5723 90.9187 43.111 90.5954 43.542 90.1968C43.973 89.7981 44.2908 89.351 44.4955 88.8554C44.711 88.3597 44.8188 87.8587 44.8188 87.3523C44.8188 86.8674 44.7164 86.3934 44.5117 85.9301C44.3178 85.4668 44.0322 85.0519 43.6551 84.6856C43.2888 84.3193 42.8147 84.0337 42.2329 83.829C41.6618 83.6243 41.0154 83.522 40.2935 83.522C39.0113 83.522 37.9231 83.8506 37.0288 84.5078C36.1345 85.1651 35.4772 85.9839 35.057 86.9644L32.6812 85.8008C33.3385 84.2816 34.3459 83.1071 35.7035 82.2775C37.0611 81.4478 38.5911 81.033 40.2935 81.033C41.3709 81.033 42.3622 81.1893 43.2672 81.5017C44.1723 81.8034 44.9535 82.2398 45.6107 82.8108C46.2787 83.3711 46.7959 84.0337 47.1622 84.7987C47.5393 85.553 47.7279 86.3718 47.7279 87.2553C47.7279 87.9665 47.6148 88.6129 47.3885 89.1948C47.173 89.7766 46.8713 90.2991 46.4834 90.7624C46.1063 91.2258 45.6484 91.6136 45.1097 91.9261C44.5817 92.2278 44.0215 92.4379 43.4289 92.5564C44.1184 92.6642 44.7541 92.885 45.336 93.219C45.9178 93.5423 46.4188 93.9463 46.839 94.4312C47.2592 94.916 47.5878 95.4763 47.8249 96.112C48.0727 96.7369 48.1966 97.3942 48.1966 98.0838C48.1966 99.1828 47.9811 100.152 47.5501 100.993C47.1191 101.833 46.5319 102.539 45.7885 103.11C45.0558 103.681 44.21 104.112 43.2511 104.403C42.2921 104.683 41.2793 104.823 40.2127 104.823C38.3163 104.823 36.6193 104.387 35.1217 103.514C33.624 102.631 32.5627 101.37 31.9378 99.7323L34.5883 98.5686ZM63.0816 96.1282V83.7805L54.1441 96.1282H63.0816ZM63.0816 104.5V98.504H51.429V95.6918L61.918 81.3239H65.9261V96.1282H69.7241V98.504H65.9261V104.5H63.0816ZM73.4737 92.718L74.6858 81.3239H87.9224V83.8129H76.9808L76.2858 90.4069C76.9108 89.8035 77.6596 89.351 78.5323 89.0493C79.4051 88.7368 80.2994 88.5806 81.2152 88.5806C82.3142 88.5806 83.327 88.7853 84.2536 89.1948C85.191 89.5934 85.9991 90.1483 86.6779 90.8594C87.3675 91.5705 87.9008 92.411 88.2779 93.3807C88.6658 94.3504 88.8597 95.3955 88.8597 96.5161C88.8597 97.7659 88.655 98.9026 88.2456 99.9262C87.8469 100.95 87.2813 101.828 86.5486 102.561C85.8159 103.282 84.9432 103.843 83.9304 104.241C82.9176 104.629 81.8024 104.823 80.5849 104.823C79.626 104.823 78.7155 104.715 77.8535 104.5C77.0024 104.274 76.232 103.94 75.5424 103.498C74.8528 103.045 74.2602 102.491 73.7646 101.833C73.2797 101.165 72.935 100.39 72.7302 99.506L75.5586 98.908C75.6771 99.3713 75.8764 99.8131 76.1566 100.233C76.4367 100.643 76.7923 101.009 77.2232 101.332C77.6542 101.645 78.1498 101.893 78.7101 102.076C79.2704 102.259 79.8953 102.35 80.5849 102.35C81.4145 102.35 82.158 102.21 82.8152 101.93C83.4725 101.65 84.0274 101.262 84.4799 100.767C84.9324 100.26 85.2772 99.6622 85.5142 98.9727C85.7621 98.2831 85.886 97.5343 85.886 96.7262C85.886 95.8857 85.7621 95.1208 85.5142 94.4312C85.2772 93.7416 84.927 93.149 84.4637 92.6534C84.0112 92.147 83.4563 91.7591 82.7991 91.4897C82.1418 91.2096 81.393 91.0695 80.5526 91.0695C80.1539 91.0695 79.7445 91.118 79.3243 91.215C78.9148 91.312 78.5162 91.4466 78.1283 91.619C77.7512 91.7914 77.3956 92.0015 77.0616 92.2493C76.7276 92.4972 76.4421 92.7719 76.205 93.0736L73.4737 92.718ZM92.5931 93.6069C92.5931 92.5618 92.6632 91.5274 92.8032 90.5039C92.9541 89.4695 93.1803 88.4836 93.482 87.5462C93.7945 86.6089 94.1878 85.7415 94.6618 84.9442C95.1467 84.1469 95.7285 83.4573 96.4073 82.8755C97.0969 82.2937 97.8834 81.8357 98.7669 81.5017C99.6612 81.1677 100.669 81.0007 101.789 81.0007C102.597 81.0007 103.352 81.0977 104.052 81.2916C104.752 81.4748 105.388 81.7334 105.959 82.0674C106.541 82.3906 107.058 82.7785 107.51 83.231C107.963 83.6836 108.351 84.1738 108.674 84.7018L105.894 85.5745C104.86 84.0876 103.492 83.3442 101.789 83.3442C100.679 83.3442 99.7259 83.6081 98.9286 84.1361C98.142 84.6641 97.4902 85.3644 96.973 86.2371C96.4558 87.0991 96.0679 88.0904 95.8093 89.2109C95.5615 90.3207 95.4268 91.4682 95.4053 92.6534H95.4699C95.6639 92.2547 95.9494 91.8615 96.3265 91.4736C96.7144 91.0857 97.1723 90.7355 97.7003 90.423C98.239 90.1106 98.8424 89.8574 99.5104 89.6634C100.189 89.4695 100.916 89.3725 101.692 89.3725C102.791 89.3725 103.799 89.5665 104.714 89.9544C105.641 90.3315 106.438 90.8594 107.106 91.5382C107.785 92.217 108.308 93.0197 108.674 93.9463C109.051 94.8729 109.24 95.875 109.24 96.9524C109.24 98.0622 109.04 99.102 108.642 100.072C108.254 101.031 107.704 101.866 106.993 102.577C106.293 103.288 105.453 103.848 104.472 104.258C103.492 104.667 102.42 104.872 101.256 104.872C100.028 104.872 98.8855 104.64 97.8296 104.177C96.7737 103.713 95.8578 103.029 95.0821 102.124C94.3063 101.219 93.6975 100.104 93.2558 98.7787C92.814 97.4427 92.5931 95.9073 92.5931 94.1726V93.6069ZM95.9063 97.0494C95.9063 97.8575 96.0356 98.5955 96.2942 99.2636C96.5636 99.9208 96.9299 100.492 97.3932 100.977C97.8565 101.451 98.406 101.823 99.0417 102.092C99.6882 102.35 100.394 102.48 101.159 102.48C101.902 102.48 102.592 102.356 103.228 102.108C103.863 101.849 104.413 101.489 104.876 101.025C105.339 100.562 105.7 100.002 105.959 99.3444C106.228 98.6871 106.363 97.9545 106.363 97.1464C106.363 96.3275 106.234 95.5894 105.975 94.9322C105.717 94.2642 105.356 93.6985 104.892 93.2352C104.429 92.7611 103.874 92.4002 103.228 92.1524C102.592 91.8938 101.892 91.7645 101.127 91.7645C100.362 91.7645 99.6558 91.8938 99.0094 92.1524C98.3737 92.4002 97.8242 92.7557 97.3609 93.219C96.8976 93.6824 96.5366 94.2426 96.278 94.8999C96.0302 95.5463 95.9063 96.2629 95.9063 97.0494ZM124.545 83.9098H112.262V81.3239H127.454V83.9098L118.84 104.5H115.672L124.545 83.9098ZM138.622 81.033C139.602 81.033 140.551 81.1731 141.466 81.4532C142.393 81.7226 143.212 82.1213 143.923 82.6492C144.645 83.1664 145.221 83.8129 145.652 84.5886C146.083 85.3644 146.299 86.2533 146.299 87.2553C146.299 87.7725 146.229 88.2951 146.089 88.823C145.959 89.3402 145.739 89.8358 145.426 90.3099C145.124 90.7732 144.72 91.1934 144.214 91.5705C143.708 91.9476 143.088 92.2547 142.355 92.4918C143.174 92.718 143.875 93.0413 144.456 93.4615C145.049 93.8709 145.534 94.3396 145.911 94.8676C146.299 95.3955 146.579 95.9612 146.751 96.5645C146.935 97.1571 147.026 97.7605 147.026 98.3747C147.026 99.4306 146.789 100.363 146.315 101.171C145.841 101.979 145.211 102.652 144.424 103.191C143.638 103.73 142.738 104.139 141.725 104.419C140.723 104.689 139.689 104.823 138.622 104.823C137.555 104.823 136.516 104.689 135.503 104.419C134.49 104.139 133.59 103.73 132.804 103.191C132.017 102.652 131.387 101.979 130.913 101.171C130.439 100.363 130.202 99.4306 130.202 98.3747C130.202 97.7605 130.288 97.1571 130.46 96.5645C130.643 95.9612 130.924 95.3955 131.301 94.8676C131.689 94.3396 132.173 93.8709 132.755 93.4615C133.348 93.0413 134.054 92.718 134.872 92.4918C134.14 92.2547 133.52 91.9476 133.014 91.5705C132.518 91.1934 132.114 90.7732 131.802 90.3099C131.5 89.8358 131.279 89.3402 131.139 88.823C131.01 88.2951 130.945 87.7725 130.945 87.2553C130.945 86.2533 131.161 85.3644 131.592 84.5886C132.023 83.8129 132.594 83.1664 133.305 82.6492C134.016 82.1213 134.829 81.7226 135.745 81.4532C136.672 81.1731 137.631 81.033 138.622 81.033ZM133.79 87.4816C133.79 88.1173 133.924 88.6883 134.194 89.1948C134.463 89.6904 134.819 90.1106 135.26 90.4554C135.702 90.7894 136.214 91.048 136.796 91.2311C137.378 91.4035 137.986 91.4897 138.622 91.4897C139.247 91.4897 139.85 91.4035 140.432 91.2311C141.014 91.048 141.526 90.7894 141.968 90.4554C142.42 90.1106 142.781 89.6904 143.05 89.1948C143.32 88.6883 143.454 88.1173 143.454 87.4816C143.454 86.8459 143.32 86.2802 143.05 85.7846C142.781 85.289 142.42 84.8742 141.968 84.5401C141.526 84.1954 141.014 83.9368 140.432 83.7644C139.85 83.5812 139.247 83.4896 138.622 83.4896C137.986 83.4896 137.378 83.5812 136.796 83.7644C136.214 83.9368 135.702 84.1954 135.26 84.5401C134.819 84.8742 134.463 85.289 134.194 85.7846C133.924 86.2802 133.79 86.8459 133.79 87.4816ZM133.095 98.1484C133.095 98.8703 133.246 99.4952 133.547 100.023C133.849 100.551 134.253 100.993 134.759 101.348C135.266 101.693 135.853 101.952 136.521 102.124C137.189 102.297 137.889 102.383 138.622 102.383C139.344 102.383 140.039 102.297 140.707 102.124C141.375 101.952 141.962 101.693 142.469 101.348C142.986 100.993 143.395 100.551 143.697 100.023C143.999 99.4952 144.149 98.8703 144.149 98.1484C144.149 97.4265 143.999 96.8016 143.697 96.2736C143.395 95.7457 142.986 95.3093 142.469 94.9645C141.962 94.609 141.375 94.345 140.707 94.1726C140.039 94.0002 139.344 93.914 138.622 93.914C137.889 93.914 137.189 94.0002 136.521 94.1726C135.853 94.345 135.266 94.609 134.759 94.9645C134.253 95.3093 133.849 95.7457 133.547 96.2736C133.246 96.8016 133.095 97.4265 133.095 98.1484ZM167.131 92.2493C167.131 93.2945 167.056 94.3342 166.905 95.3686C166.765 96.4029 166.539 97.3888 166.226 98.3262C165.925 99.2528 165.531 100.12 165.047 100.928C164.562 101.726 163.975 102.415 163.285 102.997C162.606 103.579 161.82 104.037 160.925 104.371C160.042 104.705 159.04 104.872 157.919 104.872C157.111 104.872 156.357 104.775 155.657 104.581C154.967 104.398 154.331 104.139 153.749 103.805C153.168 103.471 152.65 103.078 152.198 102.625C151.745 102.173 151.358 101.682 151.034 101.155L153.814 100.298C154.353 101.041 154.956 101.596 155.624 101.963C156.292 102.329 157.057 102.512 157.919 102.512C158.663 102.512 159.331 102.394 159.923 102.157C160.527 101.909 161.06 101.575 161.523 101.155C161.997 100.724 162.401 100.217 162.735 99.6353C163.08 99.0535 163.366 98.4178 163.592 97.7282C163.818 97.0386 163.991 96.3113 164.109 95.5463C164.228 94.7814 164.298 94.0056 164.319 93.219H164.255C164.05 93.6177 163.754 94.011 163.366 94.3989C162.989 94.7867 162.531 95.1369 161.992 95.4494C161.464 95.7511 160.861 95.9989 160.182 96.1928C159.514 96.3868 158.792 96.4837 158.016 96.4837C156.917 96.4837 155.904 96.2952 154.978 95.9181C154.062 95.5302 153.27 95.0022 152.602 94.3342C151.934 93.6554 151.411 92.8527 151.034 91.9261C150.668 90.9995 150.485 89.9921 150.485 88.9038C150.485 87.7941 150.679 86.7597 151.067 85.8008C151.465 84.8418 152.015 84.0068 152.715 83.2957C153.415 82.5846 154.256 82.0243 155.236 81.6149C156.217 81.2054 157.289 81.0007 158.453 81.0007C159.681 81.0007 160.823 81.2324 161.879 81.6957C162.935 82.159 163.851 82.8432 164.626 83.7482C165.402 84.6533 166.011 85.7738 166.453 87.1099C166.905 88.4351 167.131 89.9597 167.131 91.6837V92.2493ZM163.818 88.8069C163.818 88.0096 163.684 87.2769 163.414 86.6089C163.156 85.9408 162.789 85.3698 162.315 84.8957C161.852 84.4109 161.297 84.0391 160.651 83.7805C160.015 83.5112 159.315 83.3765 158.55 83.3765C157.806 83.3765 157.117 83.5058 156.481 83.7644C155.845 84.0122 155.296 84.3678 154.832 84.8311C154.38 85.2944 154.019 85.8546 153.749 86.5119C153.491 87.1691 153.362 87.9018 153.362 88.7099C153.362 89.5288 153.491 90.2722 153.749 90.9402C154.008 91.6083 154.369 92.1793 154.832 92.6534C155.296 93.1167 155.845 93.4776 156.481 93.7362C157.117 93.984 157.817 94.1079 158.582 94.1079C159.358 94.1079 160.063 93.984 160.699 93.7362C161.346 93.4776 161.895 93.1167 162.348 92.6534C162.811 92.1901 163.172 91.6352 163.43 90.9887C163.689 90.3315 163.818 89.6042 163.818 88.8069ZM179.511 102.318C180.266 102.318 180.966 102.119 181.612 101.72C182.27 101.322 182.83 100.75 183.293 100.007C183.767 99.2528 184.139 98.3316 184.408 97.2433C184.678 96.1443 184.813 94.8999 184.813 93.51V92.3463C184.813 90.9564 184.678 89.7173 184.408 88.6291C184.139 87.5409 183.767 86.6196 183.293 85.8654C182.83 85.1112 182.27 84.5401 181.612 84.1523C180.966 83.7536 180.266 83.5543 179.511 83.5543C178.746 83.5543 178.041 83.7536 177.394 84.1523C176.748 84.5401 176.187 85.1112 175.713 85.8654C175.25 86.6196 174.884 87.5409 174.614 88.6291C174.345 89.7173 174.21 90.9564 174.21 92.3463V93.51C174.21 94.8999 174.345 96.1443 174.614 97.2433C174.884 98.3316 175.25 99.2528 175.713 100.007C176.187 100.75 176.748 101.322 177.394 101.72C178.041 102.119 178.746 102.318 179.511 102.318ZM179.511 81.033C180.503 81.033 181.397 81.1893 182.194 81.5017C182.992 81.8142 183.692 82.2452 184.295 82.7947C184.909 83.3334 185.432 83.9799 185.863 84.7341C186.305 85.4883 186.666 86.3072 186.946 87.1907C187.226 88.0634 187.431 88.99 187.56 89.9705C187.689 90.951 187.754 91.9423 187.754 92.9443C187.754 93.9463 187.689 94.9376 187.56 95.9181C187.431 96.8878 187.226 97.8144 186.946 98.6979C186.666 99.5706 186.305 100.384 185.863 101.138C185.432 101.882 184.909 102.528 184.295 103.078C183.692 103.627 182.992 104.058 182.194 104.371C181.397 104.672 180.503 104.823 179.511 104.823C178.52 104.823 177.626 104.672 176.829 104.371C176.031 104.058 175.326 103.627 174.711 103.078C174.108 102.528 173.585 101.882 173.144 101.138C172.713 100.384 172.357 99.5706 172.077 98.6979C171.797 97.8144 171.592 96.8878 171.463 95.9181C171.334 94.9376 171.269 93.9463 171.269 92.9443C171.269 91.9423 171.334 90.951 171.463 89.9705C171.592 88.99 171.797 88.0634 172.077 87.1907C172.357 86.3072 172.713 85.4883 173.144 84.7341C173.585 83.9799 174.108 83.3334 174.711 82.7947C175.326 82.2452 176.031 81.8142 176.829 81.5017C177.626 81.1893 178.52 81.033 179.511 81.033ZM199.504 81.3239H202.494L202.122 96.6615H199.811L199.504 81.3239ZM199.083 102.948C199.083 102.69 199.132 102.447 199.229 102.221C199.326 101.984 199.455 101.785 199.617 101.623C199.789 101.451 199.988 101.316 200.215 101.219C200.452 101.111 200.7 101.058 200.958 101.058C201.217 101.058 201.459 101.111 201.685 101.219C201.922 101.316 202.122 101.451 202.283 101.623C202.456 101.785 202.591 101.984 202.687 102.221C202.795 102.447 202.849 102.69 202.849 102.948C202.849 103.207 202.795 103.455 202.687 103.692C202.591 103.918 202.456 104.118 202.283 104.29C202.122 104.452 201.922 104.581 201.685 104.678C201.459 104.775 201.217 104.823 200.958 104.823C200.7 104.823 200.452 104.775 200.215 104.678C199.988 104.581 199.789 104.452 199.617 104.29C199.455 104.118 199.326 103.918 199.229 103.692C199.132 103.455 199.083 103.207 199.083 102.948ZM226.542 102.286C226.295 102.631 226.02 102.954 225.718 103.256C225.427 103.557 225.077 103.827 224.668 104.064C224.269 104.301 223.8 104.484 223.261 104.613C222.723 104.753 222.092 104.823 221.371 104.823C220.304 104.823 219.329 104.613 218.445 104.193C217.562 103.762 216.802 103.169 216.166 102.415C215.542 101.65 215.057 100.745 214.712 99.6999C214.367 98.6548 214.195 97.5073 214.195 96.2575C214.195 95.0076 214.356 93.8601 214.68 92.815C215.014 91.7591 215.488 90.8486 216.102 90.0837C216.716 89.3187 217.454 88.7261 218.316 88.3059C219.178 87.8749 220.142 87.6594 221.209 87.6594C222.276 87.6594 223.224 87.8587 224.053 88.2574C224.894 88.656 225.556 89.1948 226.041 89.8735V87.9826H228.757V100.395C228.757 100.664 228.789 100.939 228.853 101.219C228.929 101.499 229.047 101.758 229.209 101.995C229.371 102.221 229.581 102.41 229.839 102.561C230.109 102.711 230.432 102.787 230.809 102.787C231.326 102.787 231.816 102.62 232.28 102.286C232.743 101.952 233.147 101.478 233.492 100.864C233.837 100.239 234.106 99.4898 234.3 98.6171C234.505 97.7444 234.607 96.7693 234.607 95.6918C234.607 93.8278 234.289 92.1308 233.654 90.6008C233.029 89.0601 232.156 87.7402 231.035 86.6412C229.926 85.5422 228.611 84.691 227.092 84.0876C225.583 83.4842 223.94 83.1826 222.162 83.1826C220.977 83.1826 219.841 83.3388 218.752 83.6512C217.675 83.9529 216.662 84.3839 215.714 84.9442C214.777 85.4937 213.92 86.1617 213.144 86.9483C212.379 87.724 211.722 88.5914 211.172 89.5503C210.634 90.4985 210.214 91.5221 209.912 92.6211C209.61 93.7093 209.459 94.846 209.459 96.0312C209.459 97.2056 209.61 98.3423 209.912 99.4413C210.214 100.54 210.634 101.564 211.172 102.512C211.722 103.46 212.379 104.328 213.144 105.114C213.92 105.901 214.777 106.574 215.714 107.134C216.662 107.695 217.675 108.126 218.752 108.427C219.841 108.74 220.977 108.896 222.162 108.896C223.197 108.896 224.188 108.777 225.136 108.54C226.084 108.314 226.989 107.991 227.851 107.571L229.29 109.3C228.212 109.871 227.06 110.291 225.831 110.561C224.614 110.841 223.348 110.981 222.033 110.981C220.643 110.981 219.307 110.803 218.025 110.448C216.754 110.103 215.563 109.607 214.453 108.961C213.344 108.314 212.336 107.538 211.431 106.633C210.537 105.728 209.766 104.721 209.12 103.611C208.473 102.501 207.972 101.311 207.617 100.039C207.272 98.7572 207.1 97.4211 207.1 96.0312C207.1 94.6413 207.283 93.3052 207.649 92.0231C208.015 90.7409 208.527 89.5449 209.185 88.4351C209.842 87.3254 210.634 86.3179 211.56 85.4129C212.487 84.497 213.511 83.7159 214.631 83.0694C215.762 82.4229 216.969 81.9219 218.251 81.5664C219.533 81.2108 220.87 81.033 222.259 81.033C223.649 81.033 224.975 81.1946 226.235 81.5179C227.507 81.8411 228.686 82.3044 229.775 82.9078C230.863 83.5112 231.849 84.2438 232.732 85.1058C233.627 85.9678 234.386 86.9429 235.011 88.0311C235.636 89.1193 236.116 90.3099 236.45 91.6029C236.794 92.885 236.967 94.248 236.967 95.6918C236.967 96.4137 236.913 97.141 236.805 97.8737C236.697 98.5955 236.525 99.2959 236.288 99.9747C236.062 100.643 235.776 101.273 235.431 101.866C235.087 102.458 234.677 102.975 234.203 103.417C233.74 103.848 233.206 104.193 232.603 104.452C232 104.699 231.332 104.823 230.599 104.823C229.888 104.823 229.284 104.726 228.789 104.532C228.304 104.338 227.9 104.107 227.577 103.837C227.264 103.557 227.027 103.277 226.866 102.997C226.704 102.706 226.596 102.469 226.542 102.286ZM217.007 96.3221C217.007 97.1841 217.109 97.9868 217.314 98.7302C217.519 99.4737 217.815 100.12 218.203 100.67C218.601 101.208 219.092 101.634 219.674 101.946C220.266 102.259 220.945 102.415 221.71 102.415C222.432 102.415 223.062 102.291 223.601 102.043C224.15 101.796 224.608 101.456 224.975 101.025C225.341 100.594 225.616 100.088 225.799 99.506C225.982 98.9134 226.074 98.2723 226.074 97.5827V94.8999C226.074 94.2103 225.982 93.5746 225.799 92.9928C225.616 92.4002 225.341 91.8884 224.975 91.4574C224.608 91.0264 224.15 90.687 223.601 90.4392C223.062 90.1914 222.432 90.0675 221.71 90.0675C220.945 90.0675 220.266 90.2237 219.674 90.5362C219.092 90.8486 218.601 91.2796 218.203 91.8291C217.815 92.3679 217.519 93.0089 217.314 93.7524C217.109 94.4958 217.007 95.2985 217.007 96.1605V96.3221ZM253.371 85.5745C252.994 84.9711 252.45 84.4809 251.739 84.1038C251.028 83.7159 250.203 83.522 249.266 83.522C248.598 83.522 248.005 83.6405 247.488 83.8775C246.971 84.1146 246.535 84.4539 246.179 84.8957C245.823 85.3267 245.554 85.8493 245.371 86.4634C245.188 87.0668 245.096 87.7402 245.096 88.4836V92.0554L250.462 92.0231V94.3989H245.096V102.043H255.424V104.5H240.538V102.043H242.252V94.3989H240.538V92.0231H242.252V88.3543C242.252 87.1907 242.419 86.1563 242.753 85.2513C243.087 84.3462 243.561 83.5812 244.175 82.9563C244.789 82.3314 245.527 81.8573 246.389 81.534C247.251 81.2 248.21 81.033 249.266 81.033C250.688 81.033 251.916 81.297 252.951 81.825C253.985 82.3421 254.831 83.0479 255.488 83.9422L253.371 85.5745ZM276.628 81.3239H279.278L265.169 104.5H262.519L276.628 81.3239ZM264.668 91.9261C263.903 91.9261 263.187 91.786 262.519 91.5059C261.861 91.2258 261.279 90.8433 260.773 90.3584C260.277 89.8628 259.884 89.2809 259.593 88.6129C259.313 87.9449 259.173 87.2284 259.173 86.4634C259.173 85.6984 259.313 84.9873 259.593 84.33C259.884 83.662 260.277 83.0856 260.773 82.6007C261.279 82.1159 261.861 81.7334 262.519 81.4532C263.187 81.1731 263.903 81.033 264.668 81.033C265.444 81.033 266.166 81.1731 266.834 81.4532C267.502 81.7334 268.084 82.1159 268.579 82.6007C269.086 83.0856 269.479 83.662 269.759 84.33C270.05 84.9873 270.195 85.6984 270.195 86.4634C270.195 87.2284 270.05 87.9449 269.759 88.6129C269.479 89.2809 269.086 89.8628 268.579 90.3584C268.084 90.8433 267.502 91.2258 266.834 91.5059C266.166 91.786 265.444 91.9261 264.668 91.9261ZM264.668 83.3765C264.226 83.3765 263.822 83.4519 263.456 83.6028C263.1 83.7536 262.793 83.9691 262.535 84.2492C262.276 84.5186 262.077 84.8418 261.937 85.2189C261.797 85.5961 261.727 86.0109 261.727 86.4634C261.727 86.9052 261.797 87.32 261.937 87.7079C262.077 88.085 262.276 88.4136 262.535 88.6937C262.793 88.9631 263.1 89.1786 263.456 89.3402C263.822 89.4911 264.226 89.5665 264.668 89.5665C265.121 89.5665 265.53 89.4911 265.896 89.3402C266.274 89.1786 266.591 88.9631 266.85 88.6937C267.109 88.4136 267.308 88.085 267.448 87.7079C267.588 87.32 267.658 86.9052 267.658 86.4634C267.658 86.0109 267.588 85.5961 267.448 85.2189C267.308 84.8418 267.109 84.5186 266.85 84.2492C266.591 83.9691 266.274 83.7536 265.896 83.6028C265.53 83.4519 265.121 83.3765 264.668 83.3765ZM277.29 104.823C276.525 104.823 275.809 104.683 275.141 104.403C274.473 104.123 273.891 103.74 273.395 103.256C272.9 102.76 272.507 102.183 272.216 101.526C271.936 100.858 271.795 100.142 271.795 99.3767C271.795 98.6117 271.936 97.9006 272.216 97.2433C272.507 96.5753 272.9 95.9989 273.395 95.514C273.891 95.0292 274.473 94.6467 275.141 94.3665C275.809 94.0864 276.525 93.9463 277.29 93.9463C278.055 93.9463 278.772 94.0864 279.44 94.3665C280.119 94.6467 280.706 95.0292 281.202 95.514C281.708 95.9989 282.101 96.5753 282.381 97.2433C282.672 97.9006 282.818 98.6117 282.818 99.3767C282.818 100.142 282.672 100.858 282.381 101.526C282.101 102.183 281.708 102.76 281.202 103.256C280.706 103.74 280.119 104.123 279.44 104.403C278.772 104.683 278.055 104.823 277.29 104.823ZM277.29 96.2898C276.838 96.2898 276.429 96.3652 276.062 96.5161C275.707 96.6669 275.4 96.8824 275.141 97.1625C274.882 97.4319 274.683 97.7551 274.543 98.1322C274.403 98.5094 274.333 98.9242 274.333 99.3767C274.333 99.8185 274.403 100.233 274.543 100.621C274.683 100.998 274.882 101.327 275.141 101.607C275.4 101.876 275.707 102.092 276.062 102.254C276.429 102.404 276.838 102.48 277.29 102.48C277.743 102.48 278.152 102.404 278.519 102.254C278.885 102.092 279.198 101.876 279.456 101.607C279.715 101.327 279.914 100.998 280.054 100.621C280.194 100.233 280.264 99.8185 280.264 99.3767C280.264 98.9242 280.194 98.5094 280.054 98.1322C279.914 97.7551 279.715 97.4319 279.456 97.1625C279.198 96.8824 278.885 96.6669 278.519 96.5161C278.152 96.3652 277.743 96.2898 277.29 96.2898ZM288.749 98.1161C288.749 98.7087 288.857 99.2636 289.072 99.7807C289.299 100.298 289.606 100.745 289.994 101.122C290.392 101.499 290.861 101.801 291.4 102.027C291.949 102.243 292.547 102.35 293.194 102.35C293.786 102.35 294.32 102.275 294.794 102.124C295.279 101.973 295.688 101.806 296.022 101.623C296.367 101.44 296.636 101.268 296.83 101.106C297.035 100.944 297.153 100.853 297.186 100.831L291.933 93.1544C291.513 93.4345 291.109 93.7416 290.721 94.0756C290.333 94.3989 289.994 94.7652 289.703 95.1746C289.412 95.5733 289.18 96.015 289.008 96.4999C288.835 96.9848 288.749 97.5235 288.749 98.1161ZM291.367 86.0594C291.367 86.6412 291.497 87.2338 291.755 87.8372C292.014 88.4405 292.391 89.1086 292.887 89.8412C293.501 89.4964 294.034 89.1678 294.487 88.8554C294.939 88.5321 295.311 88.2143 295.602 87.9018C295.904 87.5786 296.124 87.2499 296.264 86.9159C296.415 86.5819 296.491 86.221 296.491 85.8331C296.491 85.4344 296.421 85.0843 296.281 84.7826C296.141 84.4809 295.952 84.2277 295.715 84.023C295.489 83.8075 295.225 83.6459 294.923 83.5381C294.621 83.4304 294.309 83.3765 293.986 83.3765C293.641 83.3765 293.312 83.4358 293 83.5543C292.687 83.6728 292.407 83.8452 292.159 84.0715C291.922 84.2977 291.728 84.5779 291.578 84.9119C291.437 85.2459 291.367 85.6284 291.367 86.0594ZM285.872 98.0514C285.872 97.308 285.969 96.6184 286.163 95.9827C286.368 95.3362 286.67 94.7329 287.068 94.1726C287.467 93.6123 287.963 93.079 288.555 92.5726C289.148 92.0662 289.832 91.5759 290.608 91.1018L289.881 89.8735C289.482 89.2055 289.18 88.5698 288.975 87.9665C288.782 87.3523 288.685 86.7382 288.685 86.124C288.685 85.4237 288.814 84.7664 289.072 84.1523C289.342 83.5273 289.708 82.9886 290.171 82.5361C290.646 82.0728 291.211 81.7064 291.868 81.4371C292.526 81.1677 293.242 81.033 294.018 81.033C294.718 81.033 295.381 81.1462 296.006 81.3724C296.631 81.5987 297.175 81.9219 297.638 82.3421C298.102 82.7516 298.468 83.258 298.737 83.8613C299.007 84.4539 299.141 85.122 299.141 85.8654C299.141 86.5981 299.007 87.2446 298.737 87.8048C298.479 88.3651 298.128 88.8769 297.687 89.3402C297.245 89.8035 296.722 90.2345 296.119 90.6332C295.526 91.021 294.901 91.4089 294.244 91.7968L299.077 98.811C299.368 98.4447 299.637 98.0029 299.885 97.4858C300.143 96.9578 300.37 96.4245 300.563 95.8857C300.768 95.347 300.941 94.8406 301.081 94.3665C301.232 93.8817 301.339 93.4992 301.404 93.219H304.248C304.184 93.7147 304.049 94.2965 303.844 94.9645C303.65 95.6325 303.397 96.3221 303.085 97.0332C302.783 97.7444 302.433 98.4501 302.034 99.1504C301.636 99.8508 301.205 100.476 300.741 101.025L300.838 101.155C301 101.381 301.156 101.569 301.307 101.72C301.458 101.871 301.609 101.995 301.759 102.092C301.921 102.178 302.088 102.243 302.26 102.286C302.444 102.329 302.643 102.35 302.858 102.35C302.966 102.35 303.085 102.345 303.214 102.334C303.354 102.313 303.489 102.297 303.618 102.286C303.747 102.264 303.861 102.248 303.957 102.237C304.065 102.216 304.141 102.2 304.184 102.189L304.248 104.629C303.882 104.683 303.537 104.726 303.214 104.759C302.902 104.802 302.573 104.823 302.228 104.823C301.582 104.823 300.978 104.721 300.418 104.516C299.869 104.322 299.378 103.95 298.947 103.401L298.543 102.916C297.046 104.188 295.192 104.823 292.984 104.823C292.057 104.823 291.163 104.667 290.301 104.355C289.45 104.031 288.695 103.579 288.038 102.997C287.381 102.404 286.853 101.693 286.454 100.864C286.066 100.023 285.872 99.0858 285.872 98.0514ZM315.222 81.3239L314.818 86.4957L319.392 84.3462L320.378 86.9321L315.384 88.2089L319.198 92.2493L317.21 93.9463L313.865 89.4695L310.552 93.9463L308.564 92.2493L312.378 88.2089L307.351 86.9321L308.37 84.3462L312.911 86.4957L312.507 81.3239H315.222ZM328.103 96.6615V96.3221C328.103 95.3847 328.222 94.582 328.459 93.914C328.707 93.2352 329.008 92.648 329.364 92.1524C329.73 91.646 330.123 91.1988 330.544 90.8109C330.975 90.4123 331.368 90.019 331.723 89.6311C332.09 89.2325 332.392 88.8123 332.629 88.3705C332.876 87.9287 333 87.4008 333 86.7866C333 86.3557 332.919 85.9462 332.758 85.5583C332.607 85.1705 332.381 84.8364 332.079 84.5563C331.788 84.2654 331.427 84.0391 330.996 83.8775C330.576 83.7051 330.097 83.6189 329.558 83.6189C329.105 83.6189 328.669 83.6728 328.249 83.7805C327.839 83.8775 327.446 84.0122 327.069 84.1846C326.703 84.357 326.358 84.5563 326.035 84.7826C325.711 85.0088 325.426 85.2459 325.178 85.4937L323.303 83.5866C323.67 83.1664 324.09 82.8001 324.564 82.4876C325.049 82.1644 325.571 81.895 326.131 81.6795C326.692 81.464 327.274 81.3024 327.877 81.1946C328.48 81.0869 329.084 81.033 329.687 81.033C330.56 81.033 331.384 81.1677 332.16 81.4371C332.936 81.6957 333.614 82.0728 334.196 82.5684C334.778 83.0533 335.236 83.6512 335.57 84.3624C335.904 85.0627 336.071 85.8493 336.071 86.722C336.071 87.4116 335.985 88.0149 335.812 88.5321C335.651 89.0493 335.441 89.5126 335.182 89.922C334.924 90.3207 334.633 90.687 334.309 91.021C333.986 91.355 333.668 91.6783 333.356 91.9907C333.011 92.3355 332.693 92.6588 332.402 92.9605C332.111 93.2621 331.858 93.58 331.643 93.914C331.427 94.2372 331.255 94.5982 331.126 94.9968C331.007 95.3955 330.948 95.8588 330.948 96.3868V96.6615H328.103ZM327.538 102.948C327.538 102.69 327.586 102.447 327.683 102.221C327.78 101.984 327.909 101.785 328.071 101.623C328.243 101.451 328.443 101.316 328.669 101.219C328.906 101.111 329.159 101.058 329.429 101.058C329.687 101.058 329.93 101.111 330.156 101.219C330.382 101.316 330.576 101.451 330.738 101.623C330.91 101.785 331.045 101.984 331.142 102.221C331.249 102.447 331.303 102.69 331.303 102.948C331.303 103.207 331.249 103.455 331.142 103.692C331.045 103.918 330.91 104.118 330.738 104.29C330.576 104.452 330.382 104.581 330.156 104.678C329.93 104.775 329.687 104.823 329.429 104.823C329.159 104.823 328.906 104.775 328.669 104.678C328.443 104.581 328.243 104.452 328.071 104.29C327.909 104.118 327.78 103.918 327.683 103.692C327.586 103.455 327.538 103.207 327.538 102.948ZM342.002 95.7565C342.002 97.211 342.169 98.5902 342.503 99.8939C342.848 101.187 343.338 102.404 343.974 103.546C344.61 104.689 345.386 105.75 346.301 106.73C347.217 107.722 348.252 108.621 349.405 109.429L348.015 111.32L347.19 110.722C345.714 109.666 344.454 108.551 343.408 107.377C342.374 106.213 341.523 105.001 340.855 103.74C340.198 102.48 339.713 101.176 339.4 99.8292C339.099 98.4716 338.948 97.0817 338.948 95.6595C338.948 94.2372 339.099 92.8527 339.4 91.5059C339.713 90.1483 340.198 88.8392 340.855 87.5786C341.523 86.3179 342.374 85.1058 343.408 83.9422C344.454 82.7677 345.714 81.6526 347.19 80.5967L348.015 79.9987L349.405 81.8896C348.252 82.6977 347.217 83.5974 346.301 84.5886C345.386 85.5691 344.61 86.6304 343.974 87.7725C343.338 88.9146 342.848 90.1375 342.503 91.4412C342.169 92.745 342.002 94.1187 342.002 95.5625V95.7565ZM358.568 95.5625C358.568 94.1187 358.396 92.745 358.051 91.4412C357.717 90.1375 357.232 88.9146 356.597 87.7725C355.961 86.6304 355.185 85.5691 354.269 84.5886C353.353 83.5974 352.314 82.6977 351.15 81.8896L352.54 79.9987L353.364 80.5967C354.84 81.6526 356.096 82.7677 357.13 83.9422C358.175 85.1058 359.026 86.3179 359.683 87.5786C360.351 88.8392 360.836 90.1483 361.138 91.5059C361.45 92.8527 361.607 94.2372 361.607 95.6595C361.607 97.0817 361.45 98.4716 361.138 99.8292C360.836 101.176 360.351 102.48 359.683 103.74C359.026 105.001 358.175 106.213 357.13 107.377C356.096 108.551 354.84 109.666 353.364 110.722L352.54 111.32L351.15 109.429C352.314 108.621 353.353 107.722 354.269 106.73C355.185 105.75 355.961 104.689 356.597 103.546C357.232 102.404 357.717 101.187 358.051 99.8939C358.396 98.5902 358.568 97.211 358.568 95.7565V95.5625ZM373.421 81.0007C373.723 81.0007 374.008 81.06 374.278 81.1785C374.558 81.297 374.795 81.464 374.989 81.6795C375.193 81.8842 375.355 82.1374 375.474 82.4391C375.592 82.7408 375.651 83.0694 375.651 83.425C375.651 83.8129 375.581 84.2115 375.441 84.621C375.301 85.0304 375.086 85.4183 374.795 85.7846C374.504 86.1509 374.138 86.485 373.696 86.7866C373.254 87.0883 372.731 87.32 372.128 87.4816L371.772 87.5947L371.433 86.4957L371.643 86.4311C372.139 86.2587 372.575 86.0163 372.952 85.7038C373.329 85.3913 373.588 85.0465 373.728 84.6694H373.389C373.13 84.6694 372.888 84.6263 372.661 84.5401C372.446 84.4432 372.252 84.3139 372.08 84.1523C371.918 83.9906 371.789 83.8021 371.692 83.5866C371.595 83.3603 371.546 83.1179 371.546 82.8593C371.546 82.6007 371.595 82.3583 371.692 82.132C371.789 81.9058 371.918 81.7118 372.08 81.5502C372.252 81.3778 372.451 81.2431 372.678 81.1462C372.915 81.0492 373.162 81.0007 373.421 81.0007ZM367.49 81.0007C367.791 81.0007 368.077 81.06 368.346 81.1785C368.626 81.297 368.863 81.464 369.057 81.6795C369.262 81.8842 369.424 82.1374 369.542 82.4391C369.661 82.7408 369.72 83.0694 369.72 83.425C369.72 83.8129 369.65 84.2115 369.51 84.621C369.37 85.0304 369.154 85.4183 368.863 85.7846C368.572 86.1509 368.206 86.485 367.764 86.7866C367.323 87.0883 366.8 87.32 366.197 87.4816L365.841 87.5947L365.502 86.4957L365.712 86.4311C366.207 86.2587 366.644 86.0163 367.021 85.7038C367.398 85.3913 367.657 85.0465 367.797 84.6694H367.457C367.199 84.6694 366.956 84.6263 366.73 84.5401C366.515 84.4432 366.321 84.3139 366.148 84.1523C365.987 83.9906 365.857 83.8021 365.76 83.5866C365.663 83.3603 365.615 83.1179 365.615 82.8593C365.615 82.6007 365.663 82.3583 365.76 82.132C365.857 81.9058 365.987 81.7118 366.148 81.5502C366.321 81.3778 366.52 81.2431 366.746 81.1462C366.983 81.0492 367.231 81.0007 367.49 81.0007ZM380.548 102.948C380.548 102.69 380.597 102.447 380.694 102.221C380.802 101.984 380.936 101.785 381.098 101.623C381.27 101.451 381.47 101.316 381.696 101.219C381.922 101.111 382.165 101.058 382.423 101.058C382.682 101.058 382.924 101.111 383.15 101.219C383.387 101.316 383.587 101.451 383.748 101.623C383.921 101.785 384.055 101.984 384.152 102.221C384.26 102.447 384.314 102.69 384.314 102.948C384.314 103.207 384.26 103.449 384.152 103.676C384.055 103.902 383.921 104.101 383.748 104.274C383.587 104.435 383.387 104.565 383.15 104.662C382.924 104.769 382.682 104.823 382.423 104.823C382.165 104.823 381.922 104.769 381.696 104.662C381.47 104.565 381.27 104.435 381.098 104.274C380.936 104.101 380.802 103.902 380.694 103.676C380.597 103.449 380.548 103.207 380.548 102.948ZM380.548 89.8735C380.548 89.615 380.597 89.3725 380.694 89.1463C380.802 88.9092 380.936 88.7099 381.098 88.5483C381.27 88.3759 381.47 88.2412 381.696 88.1442C381.922 88.0365 382.165 87.9826 382.423 87.9826C382.682 87.9826 382.924 88.0365 383.15 88.1442C383.387 88.2412 383.587 88.3759 383.748 88.5483C383.921 88.7099 384.055 88.9092 384.152 89.1463C384.26 89.3725 384.314 89.615 384.314 89.8735C384.314 90.1321 384.26 90.3746 384.152 90.6008C384.055 90.8271 383.921 91.0264 383.748 91.1988C383.587 91.3712 383.387 91.5113 383.15 91.619C382.924 91.716 382.682 91.7645 382.423 91.7645C382.165 91.7645 381.922 91.716 381.696 91.619C381.47 91.5113 381.27 91.3712 381.098 91.1988C380.936 91.0264 380.802 90.8271 380.694 90.6008C380.597 90.3746 380.548 90.1321 380.548 89.8735ZM389.308 89.8735C389.308 89.615 389.357 89.3725 389.454 89.1463C389.561 88.9092 389.696 88.7099 389.858 88.5483C390.03 88.3759 390.229 88.2412 390.456 88.1442C390.682 88.0365 390.924 87.9826 391.183 87.9826C391.441 87.9826 391.684 88.0365 391.91 88.1442C392.147 88.2412 392.346 88.3759 392.508 88.5483C392.681 88.7099 392.815 88.9092 392.912 89.1463C393.02 89.3725 393.074 89.615 393.074 89.8735C393.074 90.1321 393.02 90.3746 392.912 90.6008C392.815 90.8271 392.681 91.0264 392.508 91.1988C392.346 91.3712 392.147 91.5113 391.91 91.619C391.684 91.716 391.441 91.7645 391.183 91.7645C390.924 91.7645 390.682 91.716 390.456 91.619C390.229 91.5113 390.03 91.3712 389.858 91.1988C389.696 91.0264 389.561 90.8271 389.454 90.6008C389.357 90.3746 389.308 90.1321 389.308 89.8735ZM391.183 101.058C391.485 101.058 391.77 101.117 392.039 101.235C392.32 101.354 392.557 101.521 392.751 101.736C392.955 101.941 393.117 102.194 393.235 102.496C393.354 102.798 393.413 103.126 393.413 103.482C393.413 103.87 393.343 104.268 393.203 104.678C393.063 105.087 392.848 105.475 392.557 105.841C392.266 106.208 391.899 106.542 391.458 106.843C391.016 107.145 390.493 107.377 389.89 107.538L389.534 107.652L389.195 106.553L389.405 106.488C389.901 106.316 390.337 106.073 390.714 105.761C391.091 105.448 391.35 105.103 391.49 104.726H391.151C390.892 104.726 390.65 104.678 390.423 104.581C390.208 104.495 390.014 104.371 389.841 104.209C389.68 104.047 389.551 103.859 389.454 103.643C389.357 103.417 389.308 103.175 389.308 102.916C389.308 102.658 389.357 102.415 389.454 102.189C389.551 101.963 389.68 101.769 389.841 101.607C390.014 101.435 390.213 101.3 390.439 101.203C390.676 101.106 390.924 101.058 391.183 101.058ZM400.201 101.058C400.503 101.058 400.788 101.117 401.058 101.235C401.338 101.354 401.575 101.521 401.769 101.736C401.974 101.941 402.135 102.194 402.254 102.496C402.372 102.798 402.431 103.126 402.431 103.482C402.431 103.87 402.361 104.268 402.221 104.678C402.081 105.087 401.866 105.475 401.575 105.841C401.284 106.208 400.918 106.542 400.476 106.843C400.034 107.145 399.512 107.377 398.908 107.538L398.553 107.652L398.213 106.553L398.423 106.488C398.919 106.316 399.355 106.073 399.732 105.761C400.11 105.448 400.368 105.103 400.508 104.726H400.169C399.91 104.726 399.668 104.678 399.442 104.581C399.226 104.495 399.032 104.371 398.86 104.209C398.698 104.047 398.569 103.859 398.472 103.643C398.375 103.417 398.326 103.175 398.326 102.916C398.326 102.658 398.375 102.415 398.472 102.189C398.569 101.963 398.698 101.769 398.86 101.607C399.032 101.435 399.231 101.3 399.458 101.203C399.695 101.106 399.943 101.058 400.201 101.058ZM407.345 102.948C407.345 102.69 407.393 102.447 407.49 102.221C407.598 101.984 407.733 101.785 407.894 101.623C408.067 101.451 408.266 101.316 408.492 101.219C408.718 101.111 408.961 101.058 409.219 101.058C409.478 101.058 409.72 101.111 409.947 101.219C410.184 101.316 410.383 101.451 410.545 101.623C410.717 101.785 410.852 101.984 410.949 102.221C411.057 102.447 411.11 102.69 411.11 102.948C411.11 103.207 411.057 103.449 410.949 103.676C410.852 103.902 410.717 104.101 410.545 104.274C410.383 104.435 410.184 104.565 409.947 104.662C409.72 104.769 409.478 104.823 409.219 104.823C408.961 104.823 408.718 104.769 408.492 104.662C408.266 104.565 408.067 104.435 407.894 104.274C407.733 104.101 407.598 103.902 407.49 103.676C407.393 103.449 407.345 103.207 407.345 102.948Z" fill="#0B0C0C"/>
</svg>
