<svg width="582" height="113" viewBox="0 0 582 113" fill="none" xmlns="http://www.w3.org/2000/svg">
<path d="M15.1921 20.2991H6.61019L5.30108 24.5981H0.323237L7.90313 1.42209H14.0608L21.7538 24.5981H16.5174L15.1921 20.2991ZM7.87081 16.1617H13.9315L10.9254 6.36761H10.8607L7.87081 16.1617ZM29.56 17.5678C29.0105 17.6539 28.5687 17.8479 28.2347 18.1496C27.9007 18.4405 27.7337 18.8391 27.7337 19.3456C27.7337 19.9058 27.9384 20.3907 28.3478 20.8001C28.7573 21.1988 29.3606 21.3981 30.158 21.3981C30.9984 21.3981 31.661 21.1557 32.1459 20.6708C32.6307 20.186 32.8732 19.5449 32.8732 18.7476V17.0021L29.56 17.5678ZM33.6004 22.9658C33.4173 23.1705 33.191 23.3914 32.9216 23.6284C32.663 23.8547 32.3506 24.0648 31.9843 24.2587C31.6287 24.4419 31.2085 24.5981 30.7236 24.7274C30.2388 24.8567 29.6947 24.9214 29.0913 24.9214C28.2293 24.9214 27.432 24.7867 26.6993 24.5173C25.9774 24.2372 25.3417 23.8493 24.7922 23.3537C24.2427 22.8581 23.8118 22.287 23.4993 21.6405C23.1868 20.9833 23.0306 20.2722 23.0306 19.5072C23.0306 18.1173 23.4616 16.9805 24.3235 16.097C25.1855 15.2135 26.3761 14.6586 27.8953 14.4324L32.8732 13.7051V13.3818C32.8732 12.6061 32.6361 11.9919 32.162 11.5394C31.688 11.0869 30.9176 10.8606 29.8509 10.8606C29.4091 10.8606 28.962 10.9145 28.5095 11.0222C28.0569 11.1192 27.6206 11.2323 27.2004 11.3616C26.7909 11.4909 26.4084 11.6417 26.0529 11.8141C25.6973 11.9758 25.3848 12.1212 25.1155 12.2505L23.37 8.84036C24.3613 8.29086 25.4603 7.83833 26.667 7.48277C27.8845 7.12721 29.1452 6.94943 30.4489 6.94943C31.2462 6.94943 32.0489 7.03563 32.857 7.20802C33.6759 7.36964 34.4139 7.67133 35.0712 8.11308C35.7392 8.55484 36.2833 9.15821 36.7035 9.92321C37.1237 10.6774 37.3338 11.6417 37.3338 12.8162V19.9274C37.3338 20.4338 37.4631 20.8109 37.7217 21.0587C37.9911 21.2957 38.3574 21.5166 38.8207 21.7213L36.8005 24.9214C35.9816 24.8352 35.3244 24.6251 34.8287 24.2911C34.3331 23.9463 33.9237 23.5045 33.6004 22.9658ZM57.8593 1.42209C58.829 1.42209 59.7287 1.56754 60.5584 1.85846C61.388 2.13859 62.1099 2.54264 62.724 3.07059C63.3382 3.59855 63.8177 4.23963 64.1624 4.99385C64.5072 5.73729 64.6796 6.56693 64.6796 7.48277C64.6796 7.95685 64.6096 8.42554 64.4695 8.88885C64.3402 9.35216 64.1463 9.78853 63.8877 10.198C63.6291 10.5966 63.3166 10.963 62.9503 11.297C62.584 11.631 62.1692 11.9057 61.7059 12.1212C62.083 12.2505 62.5193 12.4445 63.015 12.703C63.5214 12.9616 64.0008 13.3172 64.4534 13.7697C64.9059 14.2223 65.2884 14.7825 65.6009 15.4506C65.9133 16.1078 66.0695 16.9051 66.0695 17.8425C66.0695 19.0169 65.8433 20.0297 65.3907 20.8809C64.949 21.7321 64.3456 22.4325 63.5806 22.982C62.8264 23.5315 61.9375 23.9409 60.9139 24.2103C59.9011 24.4688 58.829 24.5981 57.6977 24.5981H47.5481V1.42209H57.8593ZM61.2695 17.6809C61.2695 17.056 61.1563 16.5442 60.9301 16.1455C60.7038 15.7469 60.4021 15.429 60.025 15.192C59.6587 14.9549 59.2385 14.7933 58.7644 14.7071C58.2903 14.6101 57.8055 14.5617 57.3098 14.5617H52.235V20.8971H57.3098C57.8055 20.8971 58.2903 20.8486 58.7644 20.7516C59.2385 20.6547 59.6587 20.4823 60.025 20.2345C60.4021 19.9866 60.7038 19.658 60.9301 19.2486C61.1563 18.8391 61.2695 18.3166 61.2695 17.6809ZM59.9604 7.95146C59.9604 7.06795 59.6802 6.37838 59.12 5.88275C58.5597 5.38712 57.6546 5.13931 56.4048 5.13931H52.235V10.602H56.4048C57.6331 10.602 58.5327 10.3704 59.1038 9.90705C59.6748 9.43296 59.9604 8.7811 59.9604 7.95146ZM85.5445 15.9516C85.5445 17.2337 85.356 18.4243 84.9789 19.5233C84.6018 20.6223 84.0738 21.5705 83.395 22.3678C82.7162 23.1651 81.9027 23.7901 80.9546 24.2426C80.0064 24.6951 78.9613 24.9214 77.8192 24.9214C77.3128 24.9214 76.8495 24.8729 76.4293 24.7759C76.0198 24.6897 75.6427 24.5658 75.2979 24.4042C74.9532 24.2426 74.6353 24.054 74.3444 23.8385C74.0535 23.6123 73.7895 23.3698 73.5525 23.1113V24.5981H69.0918V1.42209H73.5525V8.77572C74.0373 8.26931 74.6353 7.83833 75.3464 7.48277C76.0576 7.12721 76.9195 6.94943 77.9323 6.94943C79.0744 6.94943 80.1088 7.18108 81.0354 7.64439C81.9728 8.09692 82.7755 8.72723 83.4435 9.53532C84.1115 10.3326 84.6287 11.2808 84.995 12.3798C85.3614 13.4788 85.5445 14.6694 85.5445 15.9516ZM73.4232 17.5516C73.4232 18.0149 73.504 18.4459 73.6656 18.8445C73.838 19.2324 74.0804 19.5718 74.3929 19.8627C74.7053 20.1536 75.0771 20.3799 75.5081 20.5415C75.9498 20.7031 76.4454 20.784 76.9949 20.784C77.6306 20.784 78.1909 20.6708 78.6758 20.4446C79.1714 20.2075 79.5862 19.8789 79.9202 19.4587C80.2542 19.0385 80.5074 18.5428 80.6798 17.9718C80.8522 17.39 80.9384 16.7543 80.9384 16.0647V15.8546C80.9384 15.165 80.8522 14.5293 80.6798 13.9475C80.5074 13.3657 80.2542 12.8647 79.9202 12.4445C79.5862 12.0135 79.1714 11.6795 78.6758 11.4424C78.1909 11.2054 77.6306 11.0869 76.9949 11.0869C76.4454 11.0869 75.9498 11.1677 75.5081 11.3293C75.0771 11.4909 74.7053 11.7172 74.3929 12.0081C74.0804 12.299 73.838 12.6438 73.6656 13.0424C73.504 13.4411 73.4232 13.8721 73.4232 14.3354V17.5516ZM93.8356 13.0101C93.8356 11.3508 94.0834 9.7993 94.579 8.35551C95.0854 6.90095 95.8073 5.64032 96.7447 4.57364C97.6821 3.49619 98.8188 2.65039 100.155 2.03624C101.491 1.41131 102.994 1.09885 104.664 1.09885C105.871 1.09885 106.986 1.25508 108.009 1.56754C109.044 1.88001 109.97 2.32176 110.789 2.89281C111.619 3.46386 112.33 4.15344 112.923 4.96153C113.515 5.76962 113.984 6.67468 114.329 7.67671L109.82 9.17976C109.69 8.74878 109.486 8.30702 109.205 7.85449C108.925 7.39119 108.57 6.97637 108.139 6.61003C107.708 6.23292 107.201 5.92585 106.62 5.68881C106.049 5.45177 105.407 5.33325 104.696 5.33325C103.63 5.33325 102.714 5.55413 101.949 5.99588C101.195 6.42687 100.575 7.0033 100.09 7.7252C99.6053 8.43632 99.2444 9.2498 99.0073 10.1656C98.7811 11.0707 98.6679 11.9973 98.6679 12.9455V13.0748C98.6679 14.0337 98.7811 14.9711 99.0073 15.8869C99.2444 16.792 99.6053 17.6001 100.09 18.3112C100.575 19.0223 101.195 19.5988 101.949 20.0405C102.714 20.4715 103.63 20.687 104.696 20.687C105.407 20.687 106.049 20.5685 106.62 20.3314C107.201 20.0944 107.708 19.7927 108.139 19.4264C108.57 19.0493 108.925 18.6344 109.205 18.1819C109.486 17.7294 109.69 17.2876 109.82 16.8566L114.329 18.3435C113.984 19.3456 113.515 20.2506 112.923 21.0587C112.33 21.8668 111.619 22.5618 110.789 23.1436C109.97 23.7146 109.044 24.1564 108.009 24.4688C106.986 24.7705 105.871 24.9214 104.664 24.9214C102.994 24.9214 101.491 24.6143 100.155 24.0002C98.8188 23.386 97.6821 22.5402 96.7447 21.4628C95.8073 20.3853 95.0854 19.1247 94.579 17.6809C94.0834 16.2371 93.8356 14.6802 93.8356 13.0101ZM120.923 16.0324C120.923 16.5927 120.998 17.1583 121.149 17.7294C121.3 18.2896 121.532 18.796 121.844 19.2486C122.156 19.7011 122.555 20.0728 123.04 20.3637C123.536 20.6439 124.123 20.784 124.802 20.784C125.243 20.784 125.642 20.7247 125.998 20.6062C126.364 20.4877 126.687 20.326 126.967 20.1213C127.258 19.9058 127.511 19.658 127.727 19.3779C127.953 19.087 128.147 18.7745 128.309 18.4405L132.22 20.4607C131.94 21.1395 131.552 21.7537 131.056 22.3032C130.571 22.8527 130.006 23.3214 129.359 23.7092C128.713 24.0971 127.996 24.3934 127.21 24.5981C126.423 24.8136 125.588 24.9214 124.705 24.9214C123.487 24.9214 122.367 24.6951 121.343 24.2426C120.319 23.7793 119.436 23.149 118.692 22.3517C117.949 21.5543 117.367 20.6116 116.947 19.5233C116.527 18.4243 116.317 17.2337 116.317 15.9516C116.317 14.6802 116.527 13.495 116.947 12.396C117.367 11.297 117.949 10.3434 118.692 9.53532C119.436 8.72723 120.319 8.09692 121.343 7.64439C122.367 7.18108 123.487 6.94943 124.705 6.94943C125.588 6.94943 126.423 7.05718 127.21 7.27267C127.996 7.47738 128.713 7.77907 129.359 8.17773C130.006 8.56561 130.571 9.03431 131.056 9.58381C131.552 10.1333 131.94 10.7475 132.22 11.4263L128.309 13.4465C128.147 13.1125 127.953 12.8054 127.727 12.5253C127.511 12.2343 127.258 11.9865 126.967 11.7818C126.687 11.5663 126.364 11.3993 125.998 11.2808C125.642 11.1515 125.243 11.0869 124.802 11.0869C124.123 11.0869 123.536 11.2323 123.04 11.5232C122.555 11.8034 122.156 12.1751 121.844 12.6384C121.532 13.0909 121.3 13.6027 121.149 14.1738C120.998 14.7448 120.923 15.3159 120.923 15.8869V16.0324ZM161.198 13.0101C161.198 14.7448 160.961 16.3287 160.487 17.7617C160.024 19.1839 159.323 20.4015 158.386 21.4143C157.459 22.4271 156.296 23.2136 154.895 23.7739C153.494 24.3234 151.857 24.5981 149.982 24.5981H141.448V1.42209H149.982C151.857 1.42209 153.494 1.70223 154.895 2.2625C156.296 2.812 157.459 3.59316 158.386 4.60597C159.323 5.61877 160.024 6.84169 160.487 8.2747C160.961 9.69694 161.198 11.2754 161.198 13.0101ZM156.333 12.5576C156.333 11.5771 156.209 10.6667 155.962 9.82624C155.725 8.97505 155.337 8.23699 154.798 7.61207C154.27 6.98714 153.58 6.4969 152.729 6.14134C151.878 5.77501 150.849 5.59184 149.642 5.59184H146.135V20.4284H149.642C150.838 20.4284 151.862 20.2506 152.713 19.8951C153.564 19.5287 154.254 19.0331 154.782 18.4082C155.321 17.7725 155.714 17.029 155.962 16.1778C156.209 15.3266 156.333 14.4162 156.333 13.4465V12.5576ZM175.598 24.5981V23.1113C175.361 23.3698 175.097 23.6123 174.806 23.8385C174.526 24.054 174.208 24.2426 173.853 24.4042C173.508 24.5658 173.125 24.6897 172.705 24.7759C172.296 24.8729 171.838 24.9214 171.332 24.9214C170.189 24.9214 169.144 24.6951 168.196 24.2426C167.248 23.7901 166.434 23.1651 165.756 22.3678C165.077 21.5705 164.549 20.6223 164.172 19.5233C163.805 18.4243 163.622 17.2337 163.622 15.9516C163.622 14.6694 163.805 13.4788 164.172 12.3798C164.538 11.2808 165.05 10.3326 165.707 9.53532C166.375 8.72723 167.178 8.09692 168.115 7.64439C169.053 7.18108 170.092 6.94943 171.235 6.94943C172.247 6.94943 173.104 7.12721 173.804 7.48277C174.515 7.82756 175.113 8.25854 175.598 8.77572V1.42209H180.059V24.5981H175.598ZM175.728 14.3354C175.728 13.8721 175.641 13.4411 175.469 13.0424C175.307 12.6438 175.07 12.299 174.758 12.0081C174.445 11.7172 174.068 11.4909 173.626 11.3293C173.196 11.1677 172.705 11.0869 172.156 11.0869C171.52 11.0869 170.954 11.2054 170.459 11.4424C169.974 11.6795 169.564 12.0135 169.23 12.4445C168.896 12.8647 168.643 13.3657 168.471 13.9475C168.298 14.5293 168.212 15.165 168.212 15.8546V16.0647C168.212 16.7543 168.298 17.39 168.471 17.9718C168.643 18.5428 168.896 19.0385 169.23 19.4587C169.564 19.8789 169.974 20.2075 170.459 20.4446C170.954 20.6708 171.52 20.784 172.156 20.784C172.705 20.784 173.196 20.7031 173.626 20.5415C174.068 20.3799 174.445 20.1536 174.758 19.8627C175.07 19.5718 175.307 19.2324 175.469 18.8445C175.641 18.4459 175.728 18.0149 175.728 17.5516V14.3354ZM190.386 1.42209H205.999V5.67265H195.073V10.602H205.142V14.8364H195.073V20.3637H206.629V24.5981H190.386V1.42209ZM213.562 17.4869C213.638 18.0041 213.799 18.4782 214.047 18.9092C214.306 19.3402 214.629 19.7119 215.017 20.0243C215.405 20.326 215.852 20.5631 216.358 20.7355C216.865 20.9079 217.403 20.9941 217.975 20.9941C218.632 20.9941 219.343 20.8702 220.108 20.6223C220.873 20.3637 221.573 19.992 222.209 19.5072L224.358 22.6426C223.55 23.3214 222.559 23.8709 221.385 24.2911C220.21 24.7113 218.96 24.9214 217.635 24.9214C216.439 24.9214 215.313 24.7167 214.257 24.3072C213.201 23.8978 212.275 23.3052 211.477 22.5294C210.691 21.7537 210.066 20.8109 209.603 19.7011C209.15 18.5913 208.924 17.3415 208.924 15.9516C208.924 14.6802 209.123 13.495 209.522 12.396C209.931 11.297 210.497 10.3434 211.219 9.53532C211.952 8.72723 212.824 8.09692 213.837 7.64439C214.85 7.18108 215.97 6.94943 217.199 6.94943C218.341 6.94943 219.402 7.15953 220.383 7.57974C221.363 7.98918 222.214 8.571 222.936 9.32522C223.658 10.0687 224.224 10.963 224.633 12.0081C225.043 13.0532 225.247 14.2061 225.247 15.4667V17.4869H213.562ZM217.183 10.8283C216.224 10.8283 215.41 11.1515 214.742 11.798C214.085 12.4337 213.702 13.2041 213.595 14.1091H220.577C220.555 13.1933 220.221 12.4175 219.575 11.7818C218.928 11.1461 218.131 10.8283 217.183 10.8283ZM234.573 1.42209H250.185V5.67265H239.26V10.602H249.328V14.8364H239.26V24.5981H234.573V1.42209ZM259.09 7.28883H262.403V11.1677H259.09V24.5981H254.63V11.1677H251.882V7.28883H254.63V5.17163C254.63 4.41741 254.759 3.76555 255.017 3.21605C255.276 2.65577 255.632 2.19785 256.084 1.84229C256.547 1.47596 257.097 1.2066 257.733 1.0342C258.379 0.851036 259.09 0.759452 259.866 0.759452C260.254 0.759452 260.631 0.770226 260.997 0.791776C261.364 0.813325 261.703 0.834874 262.016 0.856423C262.328 0.877972 262.603 0.904908 262.84 0.937232C263.088 0.969556 263.276 0.991105 263.405 1.00188L263.034 4.79991C262.904 4.77836 262.743 4.75681 262.549 4.73526C262.366 4.71371 262.172 4.69755 261.967 4.68678C261.762 4.66523 261.563 4.65445 261.369 4.65445C261.175 4.64368 261.003 4.63829 260.852 4.63829C260.216 4.63829 259.764 4.7622 259.494 5.01001C259.225 5.24705 259.09 5.55413 259.09 5.93124V7.28883ZM275.123 13.0748C275.123 14.066 275.247 15.0196 275.494 15.9354C275.742 16.8512 276.119 17.6593 276.626 18.3597C277.132 19.06 277.779 19.6257 278.565 20.0567C279.352 20.4769 280.289 20.687 281.377 20.687C282.423 20.687 283.29 20.52 283.979 20.186C284.68 19.852 285.235 19.4371 285.644 18.9415C286.064 18.4351 286.355 17.891 286.517 17.3092C286.689 16.7273 286.775 16.1886 286.775 15.693V15.4667H280.844V11.8949H291.333V24.5981H287.228V21.883C286.937 22.3355 286.576 22.7503 286.145 23.1274C285.714 23.4938 285.229 23.8116 284.691 24.081C284.152 24.3396 283.559 24.5443 282.913 24.6951C282.277 24.846 281.598 24.9214 280.876 24.9214C279.185 24.9214 277.682 24.6143 276.367 24.0002C275.053 23.386 273.943 22.5402 273.038 21.4628C272.144 20.3853 271.459 19.1247 270.985 17.6809C270.522 16.2371 270.29 14.6802 270.29 13.0101C270.29 11.3508 270.549 9.7993 271.066 8.35551C271.594 6.90095 272.338 5.64032 273.296 4.57364C274.266 3.49619 275.43 2.65039 276.787 2.03624C278.156 1.41131 279.686 1.09885 281.377 1.09885C282.476 1.09885 283.516 1.22814 284.497 1.48673C285.488 1.73455 286.388 2.0955 287.196 2.56958C288.015 3.03288 288.736 3.59855 289.361 4.26657C289.986 4.92382 290.493 5.65649 290.881 6.46458L286.775 8.77572C286.528 8.28009 286.237 7.82217 285.903 7.40196C285.569 6.97098 285.181 6.60465 284.739 6.30296C284.308 5.9905 283.812 5.74807 283.252 5.57568C282.692 5.39251 282.067 5.30092 281.377 5.30092C280.289 5.30092 279.352 5.51642 278.565 5.9474C277.779 6.36761 277.132 6.92788 276.626 7.62823C276.119 8.32857 275.742 9.14205 275.494 10.0687C275.247 10.9845 275.123 11.9327 275.123 12.9131V13.0748ZM305.491 21.5274C305.092 22.0123 304.532 22.4001 303.81 22.691C303.099 22.9712 302.323 23.1113 301.483 23.1113C300.319 23.1113 299.285 22.9065 298.38 22.4971C297.475 22.0877 296.71 21.5274 296.085 20.8163C295.47 20.0944 294.996 19.2432 294.662 18.2627C294.339 17.2822 294.178 16.2048 294.178 15.0303C294.178 13.8882 294.339 12.8216 294.662 11.8303C294.996 10.8283 295.47 9.97169 296.085 9.26057C296.71 8.53868 297.475 7.97301 298.38 7.56358C299.285 7.15415 300.319 6.94943 301.483 6.94943C302.323 6.94943 303.099 7.09489 303.81 7.3858C304.532 7.67671 305.092 8.0646 305.491 8.54945V7.28883H309.968V24.4365C309.968 25.4924 309.768 26.3975 309.37 27.1517C308.971 27.9167 308.421 28.5416 307.721 29.0265C307.032 29.5113 306.229 29.8615 305.313 30.077C304.397 30.3033 303.422 30.4164 302.388 30.4164C301.127 30.4164 299.813 30.2656 298.444 29.9639C297.076 29.673 295.896 29.3066 294.905 28.8649L296.165 25.2608C296.467 25.3901 296.839 25.5301 297.281 25.681C297.722 25.8426 298.196 25.9827 298.703 26.1012C299.209 26.2197 299.737 26.3167 300.287 26.3921C300.847 26.4783 301.391 26.5214 301.919 26.5214C302.382 26.5214 302.829 26.4729 303.26 26.3759C303.691 26.2897 304.069 26.1389 304.392 25.9234C304.726 25.7187 304.99 25.4439 305.184 25.0992C305.388 24.7652 305.491 24.3342 305.491 23.8062V21.5274ZM298.767 15.095C298.767 15.666 298.827 16.2048 298.945 16.7112C299.075 17.2068 299.274 17.6324 299.543 17.988C299.823 18.3327 300.179 18.6075 300.61 18.8122C301.041 19.0062 301.563 19.1031 302.178 19.1031C303.395 19.1031 304.263 18.7206 304.78 17.9556C305.297 17.1799 305.555 16.2263 305.555 15.095V14.9657C305.555 14.3946 305.496 13.8613 305.378 13.3657C305.259 12.87 305.065 12.4445 304.796 12.0889C304.526 11.7333 304.176 11.4586 303.745 11.2646C303.325 11.0599 302.803 10.9576 302.178 10.9576C300.971 10.9576 300.098 11.3401 299.559 12.1051C299.031 12.87 298.767 13.8236 298.767 14.9657V15.095ZM335.18 14.8364H324.982V24.5981H320.295V1.42209H324.982V10.602H335.18V1.42209H339.883V24.5981H335.18V14.8364ZM344.231 1.42209H348.691V8.77572C348.928 8.53868 349.192 8.31241 349.483 8.09692C349.785 7.87066 350.114 7.67671 350.469 7.51509C350.825 7.3427 351.218 7.20802 351.649 7.11105C352.091 7.0033 352.576 6.94943 353.104 6.94943C354.041 6.94943 354.881 7.10566 355.625 7.41812C356.368 7.71981 356.993 8.14002 357.5 8.67875C358.017 9.21747 358.41 9.84779 358.679 10.5697C358.949 11.2916 359.083 12.0727 359.083 12.9131V24.5981H354.623V14.5293C354.623 13.9152 354.553 13.398 354.413 12.9778C354.273 12.5468 354.079 12.202 353.831 11.9434C353.594 11.6741 353.308 11.4801 352.974 11.3616C352.651 11.2323 352.295 11.1677 351.908 11.1677C351.455 11.1677 351.029 11.2485 350.631 11.4101C350.243 11.5717 349.904 11.8195 349.613 12.1535C349.322 12.4768 349.095 12.8862 348.934 13.3818C348.772 13.8775 348.691 14.4593 348.691 15.1273V24.5981H344.231V1.42209ZM369.298 1.42209H373.985V24.5981H369.298V1.42209ZM382.793 24.5981H378.332V7.28883H382.793V24.5981ZM377.863 2.74736C377.863 2.38102 377.934 2.03624 378.074 1.713C378.214 1.37899 378.402 1.09346 378.639 0.856423C378.887 0.608608 379.173 0.414666 379.496 0.274597C379.819 0.134528 380.169 0.0644934 380.546 0.0644934C380.913 0.0644934 381.257 0.134528 381.581 0.274597C381.915 0.414666 382.2 0.608608 382.437 0.856423C382.685 1.09346 382.879 1.37899 383.019 1.713C383.159 2.03624 383.229 2.38102 383.229 2.74736C383.229 3.12447 383.159 3.47464 383.019 3.79788C382.879 4.12111 382.685 4.40664 382.437 4.65445C382.2 4.89149 381.915 5.08005 381.581 5.22012C381.257 5.36018 380.913 5.43022 380.546 5.43022C380.169 5.43022 379.819 5.36018 379.496 5.22012C379.173 5.08005 378.887 4.89149 378.639 4.65445C378.402 4.40664 378.214 4.12111 378.074 3.79788C377.934 3.47464 377.863 3.12447 377.863 2.74736ZM391.31 19.9597C391.698 20.0782 392.097 20.186 392.506 20.2829C392.851 20.3691 393.223 20.4446 393.621 20.5092C394.031 20.5631 394.408 20.59 394.753 20.59C395.485 20.59 396.051 20.52 396.45 20.3799C396.859 20.2291 397.161 20.0028 397.355 19.7011C397.549 19.3994 397.667 19.0169 397.71 18.5536C397.753 18.0795 397.775 17.5139 397.775 16.8566V1.42209H402.462V19.3617C402.462 20.2129 402.327 20.9833 402.058 21.6729C401.788 22.3517 401.374 22.9335 400.813 23.4183C400.264 23.9032 399.569 24.2749 398.728 24.5335C397.899 24.7921 396.918 24.9214 395.787 24.9214C395.281 24.9214 394.769 24.9052 394.252 24.8729C393.745 24.8406 393.25 24.7867 392.765 24.7113C392.28 24.6466 391.817 24.5604 391.375 24.4527C390.944 24.3449 390.561 24.2156 390.227 24.0648L391.31 19.9597ZM410.817 26.78C410.817 27.351 410.71 27.8521 410.494 28.283C410.289 28.714 410.004 29.075 409.638 29.3659C409.282 29.6568 408.862 29.8777 408.377 30.0285C407.892 30.1794 407.37 30.2548 406.809 30.2548C406.432 30.2548 406.06 30.244 405.694 30.2225C405.339 30.2117 405.01 30.1955 404.708 30.174C404.417 30.1524 404.17 30.1309 403.965 30.1093C403.749 30.0878 403.609 30.0716 403.545 30.0608L403.997 26.2467C404.213 26.279 404.412 26.3059 404.595 26.3275C404.789 26.349 404.967 26.3598 405.128 26.3598C405.592 26.3598 405.91 26.279 406.082 26.1174C406.265 25.9665 406.357 25.7672 406.357 25.5194V7.28883H410.817V26.78ZM405.856 2.77968C405.856 2.40257 405.926 2.04701 406.066 1.713C406.206 1.37899 406.394 1.09346 406.632 0.856423C406.879 0.608608 407.165 0.414666 407.488 0.274597C407.811 0.134528 408.161 0.0644934 408.539 0.0644934C408.916 0.0644934 409.271 0.134528 409.605 0.274597C409.939 0.414666 410.225 0.608608 410.462 0.856423C410.71 1.09346 410.904 1.37899 411.044 1.713C411.184 2.04701 411.254 2.40257 411.254 2.77968C411.254 3.15679 411.184 3.50696 411.044 3.8302C410.904 4.15344 410.71 4.43896 410.462 4.68678C410.225 4.92382 409.939 5.11237 409.605 5.25244C409.271 5.39251 408.916 5.46254 408.539 5.46254C408.161 5.46254 407.811 5.39251 407.488 5.25244C407.165 5.11237 406.879 4.92382 406.632 4.68678C406.394 4.43896 406.206 4.15344 406.066 3.8302C405.926 3.50696 405.856 3.15679 405.856 2.77968ZM421.145 1.42209H425.832V11.4586L434.107 1.42209H439.876L431.828 10.6343L440.394 24.5981H434.947L428.822 14.2061L425.832 17.5516V24.5981H421.145V1.42209ZM446.697 14.0768L452.466 7.28883H458.026L451.772 14.3677L458.204 24.5981H452.838L448.523 17.5516L446.697 19.5395V24.5981H442.236V1.42209H446.697V14.0768ZM466.624 1.42209H471.311V20.2668H480.491V24.5981H466.624V1.42209ZM482.835 1.42209H487.295V19.8951C487.295 20.2614 487.398 20.5415 487.602 20.7355C487.818 20.9294 488.157 21.0264 488.62 21.0264C488.836 21.0264 489.019 21.0156 489.17 20.9941C489.332 20.9617 489.536 20.9186 489.784 20.8648L490.14 24.6628C489.838 24.7059 489.515 24.749 489.17 24.7921C488.879 24.8244 488.54 24.8513 488.152 24.8729C487.775 24.9052 487.381 24.9214 486.972 24.9214C486.336 24.9214 485.765 24.8406 485.259 24.679C484.752 24.5173 484.316 24.2803 483.95 23.9678C483.594 23.6446 483.319 23.2459 483.125 22.7719C482.932 22.2978 482.835 21.7483 482.835 21.1234V1.42209ZM509.809 17.1152L502.956 8.54945V24.5981H498.269V1.42209H503.021L509.873 10.4727L516.936 1.42209H521.494V24.5981H516.791V8.54945L509.97 17.1152H509.809ZM540.451 24.5981H535.975V14.5293C535.975 13.9152 535.905 13.398 535.765 12.9778C535.635 12.5468 535.452 12.202 535.215 11.9434C534.978 11.6741 534.703 11.4855 534.391 11.3778C534.078 11.2593 533.739 11.2 533.373 11.2C532.942 11.2 532.538 11.2754 532.16 11.4263C531.794 11.5771 531.471 11.8141 531.191 12.1374C530.921 12.4606 530.706 12.8754 530.544 13.3818C530.393 13.8775 530.318 14.4701 530.318 15.1596V24.5981H525.857V7.28883H530.318V8.80804C530.889 8.17234 531.552 7.70365 532.306 7.40196C533.071 7.10027 533.89 6.94943 534.763 6.94943C535.657 6.94943 536.492 7.1326 537.268 7.49893C538.054 7.86527 538.706 8.46864 539.223 9.30906C539.525 8.87808 539.87 8.51174 540.258 8.21005C540.656 7.90837 541.082 7.66594 541.534 7.48277C541.987 7.2996 542.456 7.16492 542.94 7.07873C543.436 6.99253 543.942 6.94943 544.46 6.94943C545.429 6.94943 546.291 7.11105 547.045 7.43429C547.81 7.74675 548.457 8.17234 548.985 8.71107C549.513 9.2498 549.917 9.86933 550.197 10.5697C550.477 11.27 550.617 12.0081 550.617 12.7839V24.5981H546.108V14.5293C546.108 13.9152 546.038 13.398 545.898 12.9778C545.769 12.5468 545.586 12.202 545.349 11.9434C545.111 11.6741 544.831 11.4855 544.508 11.3778C544.196 11.2593 543.856 11.2 543.49 11.2C543.059 11.2 542.66 11.2754 542.294 11.4263C541.928 11.5771 541.604 11.8141 541.324 12.1374C541.055 12.4606 540.839 12.8754 540.678 13.3818C540.527 13.8775 540.451 14.4701 540.451 15.1596V24.5981ZM7.1112 46.8525V64.5981H2.42427V41.4221H9.03446L18.3113 56.9859V41.4221H22.9983V64.5981H17.8427L7.1112 46.8525ZM27.362 47.2888H31.8226V48.7757C32.0597 48.5387 32.3237 48.3124 32.6146 48.0969C32.9163 47.8707 33.2449 47.6767 33.6004 47.5151C33.956 47.3427 34.3493 47.208 34.7802 47.111C35.222 47.0033 35.7069 46.9494 36.2348 46.9494C37.1722 46.9494 38.0126 47.1057 38.7561 47.4181C39.4995 47.7198 40.1244 48.14 40.6308 48.6787C41.148 49.2175 41.5413 49.8478 41.8106 50.5697C42.08 51.2916 42.2147 52.0727 42.2147 52.9131V64.5981H37.754V54.5293C37.754 53.9152 37.684 53.398 37.5439 52.9778C37.4039 52.5468 37.2099 52.202 36.9621 51.9434C36.7251 51.6741 36.4395 51.4801 36.1055 51.3616C35.7823 51.2323 35.4267 51.1677 35.0388 51.1677C34.5863 51.1677 34.1607 51.2485 33.7621 51.4101C33.3742 51.5717 33.0348 51.8195 32.7439 52.1535C32.4529 52.4768 32.2267 52.8862 32.0651 53.3818C31.9034 53.8775 31.8226 54.4593 31.8226 55.1273V64.5981H27.362V47.2888ZM62.32 41.0989C64.0439 41.0989 65.5901 41.4113 66.9584 42.0362C68.3268 42.6504 69.4851 43.4962 70.4332 44.5736C71.3922 45.6403 72.1195 46.9009 72.6151 48.3555C73.1215 49.7993 73.3747 51.3508 73.3747 53.0101C73.3747 54.6802 73.1215 56.2371 72.6151 57.6809C72.1195 59.1247 71.3922 60.3853 70.4332 61.4628C69.4851 62.5402 68.3268 63.386 66.9584 64.0002C65.5901 64.6143 64.0439 64.9214 62.32 64.9214C60.5853 64.9214 59.0338 64.6143 57.6654 64.0002C56.3078 63.386 55.1495 62.5402 54.1906 61.4628C53.2424 60.3853 52.5152 59.1247 52.0088 57.6809C51.5131 56.2371 51.2653 54.6802 51.2653 53.0101C51.2653 51.3508 51.5131 49.7993 52.0088 48.3555C52.5152 46.9009 53.2424 45.6403 54.1906 44.5736C55.1495 43.4962 56.3078 42.6504 57.6654 42.0362C59.0338 41.4113 60.5853 41.0989 62.32 41.0989ZM62.32 60.687C63.3328 60.687 64.2217 60.4984 64.9867 60.1213C65.7625 59.7334 66.4143 59.2001 66.9423 58.5213C67.4702 57.8425 67.8689 57.0398 68.1383 56.1132C68.4076 55.1866 68.5423 54.1738 68.5423 53.0748V52.9455C68.5423 51.8572 68.4076 50.8498 68.1383 49.9232C67.8689 48.9858 67.4702 48.1777 66.9423 47.4989C66.4143 46.8201 65.7625 46.2922 64.9867 45.9151C64.2217 45.5272 63.3328 45.3332 62.32 45.3332C61.3072 45.3332 60.4129 45.5272 59.6371 45.9151C58.8614 46.2922 58.2095 46.8201 57.6816 47.4989C57.1644 48.1777 56.7711 48.9858 56.5017 49.9232C56.2324 50.8498 56.0977 51.8572 56.0977 52.9455V53.0748C56.0977 54.1738 56.2324 55.1866 56.5017 56.1132C56.7711 57.0398 57.1644 57.8425 57.6816 58.5213C58.2095 59.2001 58.8614 59.7334 59.6371 60.1213C60.4129 60.4984 61.3072 60.687 62.32 60.687ZM84.1385 46.9494C85.4206 46.9494 86.5843 47.1811 87.6294 47.6444C88.6746 48.0969 89.5688 48.7272 90.3123 49.5353C91.0557 50.3434 91.6268 51.297 92.0254 52.396C92.4349 53.495 92.6396 54.6802 92.6396 55.9516C92.6396 57.2337 92.4349 58.4243 92.0254 59.5233C91.616 60.6116 91.0396 61.5543 90.2961 62.3517C89.5527 63.149 88.6584 63.7793 87.6133 64.2426C86.5681 64.6951 85.4099 64.9214 84.1385 64.9214C82.8563 64.9214 81.6926 64.6951 80.6475 64.2426C79.6024 63.7793 78.7081 63.149 77.9646 62.3517C77.2212 61.5543 76.6448 60.6116 76.2353 59.5233C75.8259 58.4243 75.6212 57.2337 75.6212 55.9516C75.6212 54.6802 75.8205 53.495 76.2192 52.396C76.6286 51.297 77.205 50.3434 77.9485 49.5353C78.6919 48.7272 79.5862 48.0969 80.6314 47.6444C81.6873 47.1811 82.8563 46.9494 84.1385 46.9494ZM84.1385 60.784C84.7742 60.784 85.3344 60.6654 85.8193 60.4284C86.3149 60.1914 86.7297 59.8627 87.0638 59.4425C87.3978 59.0223 87.651 58.5213 87.8234 57.9395C87.9958 57.3469 88.082 56.7004 88.082 56.0001V55.8869C88.082 55.1866 87.9958 54.5455 87.8234 53.9637C87.651 53.3711 87.3978 52.8647 87.0638 52.4445C86.7297 52.0135 86.3149 51.6795 85.8193 51.4424C85.3344 51.2054 84.7742 51.0869 84.1385 51.0869C83.5028 51.0869 82.9371 51.2054 82.4415 51.4424C81.9566 51.6795 81.5472 52.0135 81.2132 52.4445C80.8792 52.8647 80.626 53.3711 80.4536 53.9637C80.2812 54.5455 80.195 55.1866 80.195 55.8869V56.0001C80.195 56.7004 80.2812 57.3469 80.4536 57.9395C80.626 58.5213 80.8792 59.0223 81.2132 59.4425C81.5472 59.8627 81.9566 60.1914 82.4415 60.4284C82.9371 60.6654 83.5028 60.784 84.1385 60.784ZM102.078 41.4221H111.339C112.535 41.4221 113.612 41.6214 114.571 42.0201C115.541 42.408 116.36 42.9467 117.028 43.6363C117.696 44.3151 118.208 45.1231 118.563 46.0605C118.929 46.9979 119.113 48.0161 119.113 49.1151C119.113 50.2141 118.913 51.2323 118.515 52.1697C118.127 53.1071 117.572 53.9206 116.85 54.6101C116.139 55.2889 115.282 55.8223 114.28 56.2102C113.278 56.598 112.174 56.792 110.967 56.792H106.765V64.5981H102.078V41.4221ZM114.28 49.0343C114.28 48.4848 114.183 47.9999 113.989 47.5797C113.795 47.1488 113.515 46.7824 113.149 46.4807C112.783 46.1791 112.341 45.9528 111.824 45.8019C111.306 45.6403 110.725 45.5595 110.078 45.5595H106.765V52.6546H110.078C110.725 52.6546 111.306 52.5791 111.824 52.4283C112.341 52.2667 112.783 52.035 113.149 51.7333C113.515 51.4316 113.795 51.0707 113.989 50.6505C114.183 50.2195 114.28 49.7293 114.28 49.1798V49.0343ZM126.078 70.0608H121.618V47.2888H126.078V48.7757C126.563 48.2693 127.161 47.8383 127.872 47.4828C128.583 47.1272 129.445 46.9494 130.458 46.9494C131.6 46.9494 132.635 47.1811 133.561 47.6444C134.499 48.0969 135.301 48.7272 135.969 49.5353C136.637 50.3326 137.155 51.2808 137.521 52.3798C137.887 53.4788 138.07 54.6694 138.07 55.9516C138.07 57.2337 137.882 58.4243 137.505 59.5233C137.128 60.6223 136.6 61.5705 135.921 62.3678C135.242 63.1651 134.429 63.7901 133.481 64.2426C132.532 64.6951 131.487 64.9214 130.345 64.9214C129.839 64.9214 129.375 64.8729 128.955 64.7759C128.546 64.6897 128.169 64.5658 127.824 64.4042C127.479 64.2426 127.161 64.054 126.87 63.8385C126.579 63.6123 126.315 63.3698 126.078 63.1113V70.0608ZM125.949 57.5516C125.949 58.0149 126.03 58.4459 126.192 58.8445C126.364 59.2324 126.606 59.5718 126.919 59.8627C127.231 60.1536 127.603 60.3799 128.034 60.5415C128.476 60.7031 128.971 60.784 129.521 60.784C130.157 60.784 130.717 60.6708 131.202 60.4446C131.697 60.2075 132.112 59.8789 132.446 59.4587C132.78 59.0385 133.033 58.5428 133.206 57.9718C133.378 57.39 133.464 56.7543 133.464 56.0647V55.8546C133.464 55.165 133.378 54.5293 133.206 53.9475C133.033 53.3657 132.78 52.8647 132.446 52.4445C132.112 52.0135 131.697 51.6795 131.202 51.4424C130.717 51.2054 130.157 51.0869 129.521 51.0869C128.971 51.0869 128.476 51.1677 128.034 51.3293C127.603 51.4909 127.231 51.7172 126.919 52.0081C126.606 52.299 126.364 52.6438 126.192 53.0424C126.03 53.4411 125.949 53.8721 125.949 54.3354V57.5516ZM157.416 41.0989C159.14 41.0989 160.686 41.4113 162.055 42.0362C163.423 42.6504 164.581 43.4962 165.529 44.5736C166.488 45.6403 167.216 46.9009 167.711 48.3555C168.218 49.7993 168.471 51.3508 168.471 53.0101C168.471 54.6802 168.218 56.2371 167.711 57.6809C167.216 59.1247 166.488 60.3853 165.529 61.4628C165.454 61.5489 165.379 61.6351 165.303 61.7213L167.34 64.2264L164.026 66.9416L161.764 64.1295C160.471 64.6574 159.022 64.9214 157.416 64.9214C155.681 64.9214 154.13 64.6143 152.762 64.0002C151.404 63.386 150.246 62.5402 149.287 61.4628C148.339 60.3853 147.611 59.1247 147.105 57.6809C146.609 56.2371 146.361 54.6802 146.361 53.0101C146.361 51.3508 146.609 49.7993 147.105 48.3555C147.611 46.9009 148.339 45.6403 149.287 44.5736C150.246 43.4962 151.404 42.6504 152.762 42.0362C154.13 41.4113 155.681 41.0989 157.416 41.0989ZM157.416 60.687C157.933 60.687 158.418 60.6385 158.871 60.5415L156.253 57.2768L159.566 54.5617L162.362 58.0526C162.728 57.4816 163.019 56.8351 163.234 56.1132C163.504 55.1866 163.638 54.1738 163.638 53.0748V52.9455C163.638 51.8572 163.504 50.8498 163.234 49.9232C162.965 48.9858 162.566 48.1777 162.038 47.4989C161.511 46.8201 160.859 46.2922 160.083 45.9151C159.318 45.5272 158.429 45.3332 157.416 45.3332C156.403 45.3332 155.509 45.5272 154.733 45.9151C153.958 46.2922 153.306 46.8201 152.778 47.4989C152.261 48.1777 151.867 48.9858 151.598 49.9232C151.329 50.8498 151.194 51.8572 151.194 52.9455V53.0748C151.194 54.1738 151.329 55.1866 151.598 56.1132C151.867 57.0398 152.261 57.8425 152.778 58.5213C153.306 59.2001 153.958 59.7334 154.733 60.1213C155.509 60.4984 156.403 60.687 157.416 60.687ZM182.742 63.1113C182.505 63.3698 182.241 63.6123 181.95 63.8385C181.67 64.054 181.352 64.2426 180.996 64.4042C180.652 64.5658 180.269 64.6897 179.849 64.7759C179.439 64.8729 178.981 64.9214 178.475 64.9214C177.333 64.9214 176.288 64.6951 175.34 64.2426C174.391 63.7901 173.578 63.1651 172.899 62.3678C172.22 61.5705 171.692 60.6223 171.315 59.5233C170.949 58.4243 170.766 57.2337 170.766 55.9516C170.766 54.6694 170.949 53.4788 171.315 52.3798C171.682 51.2808 172.193 50.3326 172.851 49.5353C173.519 48.7272 174.321 48.0969 175.259 47.6444C176.196 47.1811 177.236 46.9494 178.378 46.9494C179.391 46.9494 180.247 47.1272 180.948 47.4828C181.659 47.8276 182.257 48.2585 182.742 48.7757V47.2888H187.202V70.0608H182.742V63.1113ZM182.871 54.3354C182.871 53.8721 182.785 53.4411 182.612 53.0424C182.451 52.6438 182.214 52.299 181.901 52.0081C181.589 51.7172 181.212 51.4909 180.77 51.3293C180.339 51.1677 179.849 51.0869 179.299 51.0869C178.664 51.0869 178.098 51.2054 177.602 51.4424C177.117 51.6795 176.708 52.0135 176.374 52.4445C176.04 52.8647 175.787 53.3657 175.614 53.9475C175.442 54.5293 175.356 55.165 175.356 55.8546V56.0647C175.356 56.7543 175.442 57.39 175.614 57.9718C175.787 58.5428 176.04 59.0385 176.374 59.4587C176.708 59.8789 177.117 60.2075 177.602 60.4446C178.098 60.6708 178.664 60.784 179.299 60.784C179.849 60.784 180.339 60.7031 180.77 60.5415C181.212 60.3799 181.589 60.1536 181.901 59.8627C182.214 59.5718 182.451 59.2324 182.612 58.8445C182.785 58.4459 182.871 58.0149 182.871 57.5516V54.3354ZM197.53 41.4221H206.5C207.879 41.4221 209.096 41.6214 210.152 42.0201C211.208 42.4187 212.092 42.9521 212.803 43.6201C213.514 44.2881 214.053 45.0585 214.419 45.9312C214.785 46.7932 214.968 47.6983 214.968 48.6464C214.968 49.4114 214.85 50.1387 214.613 50.8283C214.387 51.5071 214.069 52.1266 213.659 52.6869C213.261 53.2364 212.787 53.7158 212.237 54.1253C211.688 54.5239 211.095 54.8364 210.459 55.0627L215.534 64.5981H210.136L205.934 56.2586H202.217V64.5981H197.53V41.4221ZM210.071 48.808C210.071 48.3447 209.985 47.9138 209.813 47.5151C209.651 47.1164 209.398 46.7717 209.053 46.4807C208.719 46.1898 208.299 45.9636 207.793 45.8019C207.286 45.6403 206.699 45.5595 206.031 45.5595H202.217V52.0889H206.031C206.699 52.0889 207.286 52.0081 207.793 51.8465C208.299 51.6741 208.719 51.4424 209.053 51.1515C209.398 50.8498 209.651 50.4996 209.813 50.101C209.985 49.7023 210.071 49.2713 210.071 48.808ZM228.06 51.6202H227.591C226.955 51.6202 226.346 51.6848 225.765 51.8141C225.193 51.9434 224.687 52.1805 224.245 52.5253C223.804 52.8593 223.448 53.3226 223.179 53.9152C222.92 54.5078 222.791 55.2674 222.791 56.194V64.5981H218.33V47.2888H222.791V49.2444C222.974 48.9535 223.211 48.6734 223.502 48.404C223.793 48.1346 224.132 47.8976 224.52 47.6929C224.908 47.4774 225.344 47.305 225.829 47.1757C226.314 47.0464 226.837 46.9818 227.397 46.9818H228.06V51.6202ZM238.161 58.0849C238.462 58.4297 238.829 58.7691 239.26 59.1031C239.691 59.4371 240.165 59.7388 240.682 60.0082C241.21 60.2668 241.781 60.4769 242.395 60.6385C243.009 60.7893 243.672 60.8648 244.383 60.8648C245.708 60.8648 246.721 60.59 247.421 60.0405C248.133 59.4802 248.488 58.8014 248.488 58.0041C248.488 57.1745 248.176 56.5442 247.551 56.1132C246.937 55.6822 245.956 55.3428 244.609 55.095L243.882 54.9657C242.912 54.7933 241.948 54.567 240.989 54.2869C240.03 54.0068 239.163 53.6027 238.387 53.0748C237.611 52.5468 236.981 51.8734 236.496 51.0545C236.011 50.2249 235.769 49.1798 235.769 47.9191C235.769 47.1865 235.93 46.4215 236.254 45.6242C236.577 44.8161 237.089 44.078 237.789 43.41C238.5 42.7312 239.411 42.1763 240.52 41.7453C241.641 41.3143 242.993 41.0989 244.577 41.0989C246.452 41.0989 248.122 41.4113 249.587 42.0362C251.063 42.6504 252.254 43.4639 253.159 44.4767L250.04 47.3858C249.404 46.6855 248.585 46.136 247.583 45.7373C246.592 45.3386 245.568 45.1393 244.512 45.1393C243.295 45.1393 242.341 45.371 241.652 45.8343C240.973 46.2976 240.633 46.9009 240.633 47.6444C240.633 48.1292 240.741 48.5333 240.957 48.8565C241.183 49.1798 241.495 49.4491 241.894 49.6646C242.293 49.8693 242.772 50.0417 243.332 50.1818C243.893 50.3219 244.518 50.4619 245.207 50.602L245.579 50.6667C246.506 50.839 247.427 51.0599 248.343 51.3293C249.258 51.5879 250.088 51.9758 250.832 52.4929C251.586 52.9993 252.195 53.6674 252.658 54.497C253.121 55.3159 253.353 56.3664 253.353 57.6486C253.353 58.8122 253.11 59.8412 252.625 60.7355C252.141 61.6298 251.5 62.3947 250.702 63.0304C249.905 63.6554 248.984 64.1295 247.939 64.4527C246.893 64.7652 245.805 64.9214 244.674 64.9214C243.532 64.9214 242.47 64.8244 241.49 64.6305C240.52 64.4365 239.637 64.1618 238.839 63.8062C238.053 63.4507 237.347 63.052 236.722 62.6102C236.108 62.1685 235.569 61.6944 235.106 61.188L238.161 58.0849ZM258.056 59.0708C258.692 59.6419 259.451 60.1321 260.335 60.5415C261.218 60.951 262.112 61.1557 263.018 61.1557C263.675 61.1557 264.192 61.0318 264.569 60.784C264.946 60.5254 265.135 60.1967 265.135 59.7981C265.135 59.1193 264.407 58.5913 262.953 58.2142L261.692 57.8748C261.067 57.724 260.437 57.5193 259.801 57.2607C259.166 56.9913 258.578 56.6411 258.04 56.2102C257.512 55.7792 257.081 55.2566 256.747 54.6425C256.424 54.0175 256.262 53.2525 256.262 52.3475C256.262 51.6256 256.418 50.9414 256.731 50.2949C257.054 49.6377 257.506 49.0612 258.088 48.5656C258.681 48.07 259.397 47.6767 260.238 47.3858C261.078 47.0949 262.016 46.9494 263.05 46.9494C264.526 46.9494 265.84 47.1811 266.993 47.6444C268.157 48.1077 269.073 48.6303 269.741 49.2121L267.414 52.1859C266.864 51.7872 266.212 51.4478 265.458 51.1677C264.715 50.8768 263.966 50.7313 263.211 50.7313C262.511 50.7313 261.967 50.8606 261.579 51.1192C261.191 51.367 260.997 51.6687 260.997 52.0242C260.997 52.4014 261.164 52.7084 261.498 52.9455C261.843 53.1717 262.339 53.3711 262.985 53.5435L264.86 54.0768C266.649 54.5832 267.931 55.2674 268.707 56.1293C269.482 56.9913 269.87 58.0795 269.87 59.394C269.87 60.1267 269.719 60.8271 269.418 61.4951C269.116 62.1523 268.674 62.7395 268.092 63.2567C267.511 63.7739 266.789 64.1833 265.927 64.485C265.065 64.7759 264.084 64.9214 262.985 64.9214C262.145 64.9214 261.353 64.846 260.609 64.6951C259.877 64.5443 259.193 64.3396 258.557 64.081C257.932 63.8116 257.366 63.5099 256.86 63.1759C256.353 62.8419 255.923 62.5079 255.567 62.1739L258.056 59.0708ZM276.416 41.4221H294.081V45.7696H287.6V64.5981H282.897V45.7696H276.416V41.4221ZM301.968 59.4425C301.968 59.6472 301.994 59.8412 302.048 60.0243C302.102 60.2075 302.194 60.3691 302.323 60.5092C302.463 60.6385 302.657 60.7409 302.905 60.8163C303.153 60.8917 303.471 60.9294 303.858 60.9294C304.02 60.9294 304.203 60.924 304.408 60.9132C304.613 60.8917 304.817 60.8702 305.022 60.8486C305.227 60.8271 305.415 60.8001 305.588 60.7678C305.771 60.7355 305.922 60.7085 306.04 60.687L306.444 64.6305C306.024 64.6843 305.588 64.7328 305.135 64.7759C304.747 64.819 304.316 64.8513 303.842 64.8729C303.368 64.9052 302.889 64.9214 302.404 64.9214C300.863 64.9214 299.662 64.5712 298.8 63.8709C297.938 63.1705 297.507 62.0554 297.507 60.5254V51.1677H294.388V47.2888H297.507V42.3918L301.968 41.1958V47.2888H306.509V51.1677H301.968V59.4425ZM324.966 60.687C325.645 60.687 326.275 60.59 326.857 60.3961C327.449 60.1914 327.956 59.8897 328.376 59.491C328.807 59.0816 329.146 58.5698 329.394 57.9556C329.642 57.3307 329.766 56.598 329.766 55.7576V41.3898H334.388V56.4526C334.388 57.7455 334.151 58.9146 333.677 59.9597C333.214 61.0048 332.562 61.8937 331.721 62.6264C330.892 63.3591 329.901 63.9247 328.748 64.3234C327.595 64.7221 326.334 64.9214 324.966 64.9214C323.597 64.9214 322.337 64.7221 321.184 64.3234C320.031 63.9247 319.034 63.3591 318.194 62.6264C317.354 61.8937 316.696 61.0048 316.222 59.9597C315.759 58.9146 315.527 57.7455 315.527 56.4526V41.3898H320.166V55.7576C320.166 56.598 320.29 57.3307 320.537 57.9556C320.785 58.5698 321.119 59.0816 321.54 59.491C321.971 59.8897 322.477 60.1914 323.059 60.3961C323.651 60.59 324.287 60.687 324.966 60.687ZM353.201 64.5981H348.74V63.1113C348.492 63.3483 348.223 63.5799 347.932 63.8062C347.641 64.0217 347.318 64.2156 346.962 64.388C346.607 64.5497 346.208 64.679 345.766 64.7759C345.335 64.8729 344.856 64.9214 344.328 64.9214C343.39 64.9214 342.55 64.7705 341.806 64.4688C341.063 64.1564 340.433 63.7362 339.916 63.2082C339.409 62.6695 339.021 62.0392 338.752 61.3173C338.483 60.5954 338.348 59.8142 338.348 58.9738V47.2888H342.808V57.3415C342.808 57.9556 342.873 58.4782 343.002 58.9092C343.143 59.3402 343.331 59.6903 343.568 59.9597C343.816 60.2183 344.107 60.4122 344.441 60.5415C344.775 60.66 345.136 60.7193 345.524 60.7193C345.976 60.7193 346.396 60.6385 346.784 60.4769C347.183 60.3153 347.528 60.0728 347.819 59.7496C348.11 59.4156 348.336 59.0008 348.497 58.5051C348.659 58.0095 348.74 57.4277 348.74 56.7597V47.2888H353.201V64.5981ZM367.229 64.5981L360.683 41.4221H365.936L370.413 58.8445H370.574L374.954 41.4221H380.142L373.597 64.5981H367.229ZM386.3 64.5981L380.999 47.2888H385.977L389.08 59.2001L392.264 47.2888H397.161L391.892 64.5981H386.3ZM423.036 57.4223H423.1L426.252 41.4221H431.343L426.171 64.5981H420.418L416.91 47.9838L413.468 64.5981H407.747L402.575 41.4221H407.682L410.72 57.4223H410.785L414.325 41.4221H419.593L423.036 57.4223ZM449.784 58.9415L451.901 47.2888H456.62L452.628 64.5981H447.327L444.741 53.3495L441.994 64.5981H436.773L432.765 47.2888H437.63L439.682 58.9415L442.689 47.2888H446.955L449.784 58.9415ZM482.624 41.4221L476.111 52.2182L483.723 64.5981H478.422L473.364 56.1617L468.499 64.5981H463.133L470.745 52.2505L464.022 41.4221H469.259L473.396 48.5818L477.533 41.4221H482.624ZM489.526 55.5314L484.257 47.2888H489.412L492.063 51.9596L494.843 47.2888H500.047L494.681 55.5637L500.645 64.5981H495.376L491.966 59.2971L488.863 64.5981H483.659L489.526 55.5314ZM510.972 41.4221L515.675 50.3596H515.74L520.54 41.4221H525.793L518.051 55.1596V64.5981H513.316V55.1596L505.574 41.4221H510.972ZM529.203 66.6184C529.709 66.6184 530.081 66.5268 530.318 66.3436C530.566 66.1605 530.76 65.8642 530.9 65.4547L531.061 64.9214L525.065 47.2888H530.027L533.47 59.2324L536.33 47.2888H541.227L535.393 66.7477C535.199 67.3941 534.929 67.949 534.585 68.4123C534.24 68.8756 533.83 69.2528 533.356 69.5437C532.882 69.8454 532.354 70.0662 531.773 70.2063C531.201 70.3464 530.587 70.4164 529.93 70.4164C529.661 70.4164 529.348 70.4056 528.993 70.3841C528.648 70.3625 528.287 70.3302 527.91 70.2871C527.544 70.2548 527.177 70.2117 526.811 70.1578C526.455 70.1039 526.127 70.0393 525.825 69.9639L526.665 66.3113C526.924 66.3759 527.193 66.4298 527.473 66.4729C527.721 66.516 527.991 66.5483 528.282 66.5699C528.583 66.6022 528.89 66.6184 529.203 66.6184ZM559.506 45.7696H548.371V41.4221H564.823V45.8019L553.219 60.2668H564.969V64.5981H547.886V60.2345L559.506 45.7696ZM567.442 60.5254L575.975 51.3939H568.137V47.2888H581.244V51.4263L572.662 60.5577H581.664V64.5981H567.442V60.5254ZM9.82639 82.4221V105.598H5.02633V90.2767H0.824253V86.0423H1.85861C2.54818 86.0423 3.10846 85.9831 3.53944 85.8646C3.9812 85.7353 4.32598 85.5413 4.5738 85.2827C4.82161 85.0241 4.98862 84.6955 5.07481 84.2969C5.16101 83.8874 5.20411 83.3972 5.20411 82.8261V82.4221H9.82639ZM21.9801 86.4302C21.3444 86.4302 20.7895 86.5326 20.3154 86.7373C19.8413 86.942 19.4481 87.2275 19.1356 87.5939C18.8231 87.9602 18.5915 88.3912 18.4406 88.8868C18.2898 89.3717 18.2144 89.8996 18.2144 90.4707L13.4143 90.0343C13.4251 88.7629 13.6514 87.637 14.0931 86.6565C14.5349 85.6652 15.1382 84.8356 15.9032 84.1676C16.6682 83.4888 17.5679 82.977 18.6023 82.6322C19.6474 82.2766 20.7841 82.0989 22.0124 82.0989C23.2946 82.0989 24.4636 82.2928 25.5195 82.6807C26.5862 83.0578 27.4967 83.5911 28.2509 84.2807C29.0051 84.9703 29.5869 85.7999 29.9963 86.7696C30.4166 87.7286 30.6267 88.7845 30.6267 89.9373C30.6267 91.198 30.3735 92.3778 29.8671 93.4768C29.3714 94.565 28.7088 95.5778 27.8791 96.5152C27.0495 97.4418 26.096 98.293 25.0185 99.0688C23.9411 99.8338 22.8313 100.523 21.6892 101.137L21.2528 101.364H30.9176V105.598H14.0123V101.396C14.885 100.922 15.7739 100.416 16.679 99.8769C17.5948 99.3381 18.4784 98.7779 19.3295 98.196C20.1915 97.6034 21.005 96.9893 21.77 96.3536C22.535 95.7179 23.1976 95.0606 23.7579 94.3818C24.3289 93.6923 24.7815 92.9865 25.1155 92.2646C25.4495 91.532 25.6165 90.7778 25.6165 90.002C25.6165 89.5602 25.5411 89.1239 25.3902 88.6929C25.2394 88.2619 25.0131 87.8794 24.7114 87.5454C24.4205 87.2114 24.0434 86.942 23.5801 86.7373C23.1276 86.5326 22.5942 86.4302 21.9801 86.4302ZM38.1096 98.5193C38.282 99.0688 38.5244 99.5482 38.8369 99.9577C39.1493 100.356 39.5103 100.69 39.9197 100.96C40.3399 101.218 40.7924 101.412 41.2773 101.542C41.7729 101.66 42.2847 101.719 42.8127 101.719C43.5453 101.719 44.1649 101.633 44.6713 101.461C45.1885 101.278 45.6033 101.046 45.9157 100.766C46.239 100.475 46.4706 100.152 46.6107 99.796C46.7508 99.4297 46.8208 99.058 46.8208 98.6809C46.8208 97.765 46.4383 97.0432 45.6733 96.5152C44.9191 95.9765 43.7554 95.7071 42.1824 95.7071H40.8894V91.7959H41.8753C43.2975 91.7959 44.4073 91.5643 45.2046 91.101C46.0127 90.6377 46.4168 89.9319 46.4168 88.9838C46.4168 88.5744 46.3252 88.208 46.142 87.8848C45.9588 87.5508 45.7056 87.2706 45.3824 87.0444C45.0699 86.8181 44.6928 86.6457 44.2511 86.5272C43.8201 86.3979 43.3514 86.3332 42.845 86.3332C42.2632 86.3332 41.7298 86.4141 41.245 86.5757C40.7709 86.7373 40.3453 86.9582 39.9682 87.2383C39.5911 87.5184 39.2625 87.8471 38.9823 88.2242C38.713 88.6013 38.4975 88.9999 38.3358 89.4202L34.1984 87.7555C34.4462 86.8504 34.8557 86.0477 35.4267 85.3474C35.9978 84.647 36.6658 84.0598 37.4308 83.5857C38.2066 83.1009 39.0577 82.7345 39.9844 82.4867C40.911 82.2281 41.8537 82.0989 42.8127 82.0989C44.0086 82.0989 45.1184 82.2443 46.142 82.5352C47.1656 82.8261 48.0545 83.2517 48.8087 83.812C49.5737 84.3615 50.1717 85.0403 50.6027 85.8484C51.0337 86.6565 51.2491 87.5777 51.2491 88.6121C51.2491 89.2262 51.1468 89.8027 50.9421 90.3414C50.7481 90.8693 50.4788 91.3488 50.134 91.7798C49.8 92.2 49.4013 92.5609 48.938 92.8626C48.4747 93.1643 47.9791 93.396 47.4511 93.5576C48.0437 93.6869 48.5986 93.9024 49.1158 94.2041C49.633 94.5057 50.0855 94.8829 50.4734 95.3354C50.8613 95.7879 51.1629 96.3105 51.3784 96.9031C51.6047 97.4957 51.7178 98.1422 51.7178 98.8425C51.7178 99.9092 51.4862 100.879 51.0229 101.752C50.5703 102.624 49.9454 103.368 49.1481 103.982C48.3508 104.596 47.408 105.076 46.3198 105.42C45.2423 105.754 44.0733 105.921 42.8127 105.921C41.7029 105.921 40.6362 105.781 39.6126 105.501C38.589 105.21 37.6678 104.801 36.849 104.273C36.0301 103.734 35.3405 103.082 34.7802 102.317C34.22 101.542 33.8429 100.669 33.6489 99.6991L38.1096 98.5193ZM65.4877 105.598V100.362H53.932V95.3677L64.1948 82.4221H70.1908V96.1273H73.5686V100.362H70.1908V105.598H65.4877ZM65.4877 96.1273V87.0282L58.2795 96.1273H65.4877ZM76.1868 95.0768L77.4798 82.4221H92.3487V86.6726H81.4233L80.9546 90.9717C81.2132 90.7562 81.5149 90.5623 81.8596 90.3899C82.2044 90.2175 82.5762 90.072 82.9748 89.9535C83.3735 89.835 83.7775 89.7434 84.187 89.6787C84.6072 89.6141 85.022 89.5818 85.4314 89.5818C86.5951 89.5818 87.6725 89.7703 88.6638 90.1474C89.655 90.5245 90.5116 91.0579 91.2335 91.7475C91.9554 92.437 92.5211 93.2667 92.9305 94.2364C93.3399 95.2061 93.5446 96.2782 93.5446 97.4526C93.5446 98.7348 93.3076 99.8984 92.8335 100.944C92.3702 101.978 91.7237 102.867 90.8941 103.61C90.0752 104.343 89.1055 104.914 87.985 105.323C86.8752 105.722 85.6792 105.921 84.3971 105.921C83.3627 105.921 82.3661 105.787 81.4071 105.517C80.459 105.248 79.5916 104.86 78.8051 104.354C78.0185 103.847 77.3343 103.222 76.7525 102.479C76.1815 101.735 75.7613 100.89 75.4919 99.9415L79.9364 98.4869C80.2704 99.489 80.793 100.276 81.5041 100.847C82.2152 101.407 83.158 101.687 84.3324 101.687C85.0328 101.687 85.6523 101.568 86.191 101.331C86.7297 101.094 87.1769 100.787 87.5324 100.41C87.8988 100.022 88.1735 99.5859 88.3567 99.1011C88.5506 98.6055 88.6476 98.0991 88.6476 97.5819C88.6476 97.0755 88.5506 96.5852 88.3567 96.1112C88.1628 95.6263 87.8772 95.2007 87.5001 94.8344C87.1338 94.4573 86.6813 94.1556 86.1425 93.9293C85.6146 93.703 85.0112 93.5899 84.3324 93.5899C83.9122 93.5899 83.5135 93.6492 83.1364 93.7677C82.7593 93.8754 82.4145 94.0209 82.1021 94.2041C81.7896 94.3765 81.5202 94.5812 81.294 94.8182C81.0677 95.0445 80.8899 95.2707 80.7606 95.497L76.1868 95.0768ZM95.9366 94.2525C95.9366 93.2074 96.0174 92.1838 96.179 91.1818C96.3514 90.169 96.61 89.2154 96.9548 88.3212C97.3103 87.4161 97.7575 86.5865 98.2962 85.8322C98.8349 85.0672 99.4814 84.41 100.236 83.8605C100.99 83.311 101.852 82.88 102.822 82.5675C103.802 82.2551 104.896 82.0989 106.102 82.0989C107.083 82.0989 107.993 82.2228 108.834 82.4706C109.685 82.7076 110.445 83.0416 111.113 83.4726C111.791 83.8928 112.379 84.3938 112.874 84.9757C113.37 85.5467 113.758 86.1662 114.038 86.8343L109.706 88.5151C109.329 87.7824 108.812 87.2329 108.155 86.8666C107.508 86.4895 106.776 86.3009 105.957 86.3009C105.16 86.3009 104.454 86.4625 103.84 86.7858C103.226 87.0982 102.703 87.5292 102.272 88.0787C101.852 88.6282 101.529 89.2693 101.302 90.002C101.076 90.7347 100.952 91.5104 100.931 92.3293C101.2 92.0599 101.518 91.8013 101.884 91.5535C102.25 91.2949 102.655 91.0741 103.096 90.8909C103.549 90.7077 104.034 90.5623 104.551 90.4545C105.079 90.336 105.628 90.2767 106.199 90.2767C107.331 90.2767 108.381 90.4599 109.351 90.8262C110.331 91.1926 111.177 91.7097 111.888 92.3778C112.61 93.035 113.176 93.8216 113.585 94.7374C113.995 95.6532 114.199 96.6607 114.199 97.7597C114.199 98.9233 113.989 100.006 113.569 101.008C113.16 101.999 112.573 102.861 111.808 103.594C111.053 104.316 110.143 104.887 109.076 105.307C108.009 105.717 106.819 105.921 105.504 105.921C104.061 105.921 102.751 105.668 101.577 105.162C100.403 104.645 99.3952 103.907 98.5548 102.948C97.7252 101.989 97.0787 100.82 96.6154 99.4405C96.1629 98.0613 95.9366 96.5044 95.9366 94.7697V94.2525ZM101.157 98.0182C101.157 98.5678 101.254 99.0795 101.448 99.5536C101.642 100.028 101.916 100.443 102.272 100.798C102.638 101.143 103.075 101.418 103.581 101.622C104.088 101.827 104.648 101.929 105.262 101.929C105.898 101.929 106.469 101.827 106.975 101.622C107.482 101.418 107.907 101.143 108.252 100.798C108.607 100.443 108.877 100.028 109.06 99.5536C109.243 99.0795 109.335 98.5678 109.335 98.0182C109.335 97.4795 109.243 96.9785 109.06 96.5152C108.877 96.0411 108.607 95.6317 108.252 95.2869C107.907 94.9313 107.482 94.6512 106.975 94.4465C106.469 94.2418 105.898 94.1394 105.262 94.1394C104.648 94.1394 104.088 94.2418 103.581 94.4465C103.075 94.6512 102.638 94.9313 102.272 95.2869C101.916 95.6317 101.642 96.0411 101.448 96.5152C101.254 96.9785 101.157 97.4795 101.157 98.0182ZM127.84 86.8666H116.155V82.4221H132.672V86.9312L123.703 105.598H118.208L127.84 86.8666ZM143.792 82.0989C144.514 82.0989 145.225 82.1581 145.925 82.2766C146.625 82.3844 147.288 82.5568 147.913 82.7938C148.538 83.0308 149.114 83.3325 149.642 83.6989C150.181 84.0544 150.644 84.48 151.032 84.9757C151.42 85.4605 151.722 86.0154 151.937 86.6403C152.153 87.2652 152.261 87.9602 152.261 88.7252C152.261 89.1346 152.207 89.5656 152.099 90.0181C151.991 90.4599 151.808 90.8963 151.549 91.3273C151.302 91.7582 150.973 92.1677 150.564 92.5556C150.165 92.9327 149.675 93.2505 149.093 93.5091C149.761 93.7785 150.337 94.1125 150.822 94.5111C151.307 94.899 151.706 95.3354 152.018 95.8202C152.331 96.2943 152.557 96.7953 152.697 97.3233C152.848 97.8512 152.923 98.3792 152.923 98.9071C152.923 100.125 152.665 101.175 152.147 102.059C151.641 102.942 150.962 103.67 150.111 104.241C149.26 104.812 148.285 105.237 147.186 105.517C146.087 105.787 144.955 105.921 143.792 105.921C142.628 105.921 141.497 105.787 140.398 105.517C139.31 105.237 138.34 104.812 137.489 104.241C136.637 103.67 135.953 102.942 135.436 102.059C134.919 101.175 134.66 100.125 134.66 98.9071C134.66 98.3792 134.736 97.8512 134.887 97.3233C135.037 96.7953 135.269 96.2943 135.582 95.8202C135.905 95.3354 136.303 94.899 136.778 94.5111C137.262 94.1125 137.833 93.7785 138.491 93.5091C137.909 93.2505 137.419 92.9327 137.02 92.5556C136.621 92.1677 136.293 91.7582 136.034 91.3273C135.786 90.8963 135.603 90.4599 135.485 90.0181C135.377 89.5656 135.323 89.1346 135.323 88.7252C135.323 87.6154 135.56 86.6457 136.034 85.8161C136.508 84.9864 137.138 84.2969 137.925 83.7474C138.722 83.1979 139.627 82.7884 140.64 82.5191C141.653 82.2389 142.704 82.0989 143.792 82.0989ZM143.792 91.7313C144.341 91.7313 144.837 91.672 145.279 91.5535C145.731 91.4242 146.114 91.2411 146.426 91.004C146.749 90.7562 146.997 90.4599 147.17 90.1151C147.342 89.7596 147.428 89.3501 147.428 88.8868C147.428 88.4451 147.337 88.0518 147.153 87.707C146.981 87.3622 146.733 87.0713 146.41 86.8343C146.087 86.5865 145.699 86.3979 145.246 86.2686C144.805 86.1393 144.32 86.0747 143.792 86.0747C143.264 86.0747 142.774 86.1393 142.321 86.2686C141.879 86.3979 141.497 86.5865 141.174 86.8343C140.85 87.0713 140.597 87.3622 140.414 87.707C140.242 88.0518 140.155 88.4451 140.155 88.8868C140.155 89.3501 140.242 89.7596 140.414 90.1151C140.586 90.4599 140.829 90.7562 141.141 91.004C141.464 91.2411 141.847 91.4242 142.289 91.5535C142.741 91.672 143.242 91.7313 143.792 91.7313ZM143.792 101.962C144.406 101.962 144.966 101.886 145.473 101.735C145.99 101.585 146.432 101.369 146.798 101.089C147.164 100.809 147.45 100.475 147.654 100.087C147.859 99.6991 147.962 99.2627 147.962 98.7779C147.962 98.3038 147.859 97.8728 147.654 97.4849C147.45 97.0862 147.164 96.7469 146.798 96.4667C146.432 96.1758 145.99 95.9549 145.473 95.8041C144.966 95.6425 144.406 95.5617 143.792 95.5617C143.178 95.5617 142.617 95.6425 142.111 95.8041C141.605 95.9549 141.163 96.1758 140.786 96.4667C140.419 96.7469 140.134 97.0862 139.929 97.4849C139.724 97.8728 139.622 98.3038 139.622 98.7779C139.622 99.2627 139.724 99.6991 139.929 100.087C140.134 100.475 140.419 100.809 140.786 101.089C141.163 101.369 141.605 101.585 142.111 101.735C142.617 101.886 143.178 101.962 143.792 101.962ZM173.707 93.7839C173.707 94.829 173.626 95.8526 173.465 96.8546C173.303 97.8566 173.05 98.8102 172.705 99.7152C172.371 100.61 171.94 101.439 171.412 102.204C170.884 102.958 170.249 103.61 169.505 104.16C168.762 104.709 167.905 105.14 166.935 105.453C165.977 105.765 164.894 105.921 163.687 105.921C162.696 105.921 161.78 105.803 160.939 105.566C160.099 105.318 159.339 104.984 158.661 104.564C157.982 104.144 157.395 103.648 156.899 103.077C156.403 102.495 156.015 101.87 155.735 101.202L160.067 99.5051C160.455 100.238 160.972 100.793 161.618 101.17C162.275 101.536 163.019 101.719 163.849 101.719C164.657 101.719 165.368 101.563 165.982 101.251C166.596 100.927 167.102 100.491 167.501 99.9415C167.911 99.392 168.218 98.7563 168.422 98.0344C168.627 97.3017 168.724 96.526 168.713 95.7071C168.444 95.9765 168.126 96.2351 167.76 96.4829C167.393 96.7307 166.984 96.9516 166.531 97.1455C166.09 97.3287 165.605 97.4795 165.077 97.598C164.56 97.7058 164.016 97.7597 163.445 97.7597C162.313 97.7597 161.257 97.5765 160.277 97.2102C159.307 96.833 158.461 96.3159 157.739 95.6586C157.028 94.9906 156.468 94.1987 156.059 93.2828C155.649 92.367 155.444 91.365 155.444 90.2767C155.444 89.1131 155.649 88.0302 156.059 87.0282C156.479 86.0262 157.066 85.1642 157.82 84.4423C158.585 83.7096 159.501 83.1386 160.568 82.7292C161.634 82.309 162.825 82.0989 164.139 82.0989C165.583 82.0989 166.892 82.3574 168.067 82.8746C169.241 83.381 170.243 84.1137 171.073 85.0726C171.913 86.0316 172.56 87.2006 173.012 88.5797C173.476 89.9589 173.707 91.5158 173.707 93.2505V93.7839ZM168.487 90.002C168.487 89.4525 168.39 88.9407 168.196 88.4666C168.002 87.9925 167.722 87.5831 167.356 87.2383C167 86.8828 166.569 86.608 166.063 86.4141C165.556 86.2093 164.996 86.107 164.382 86.107C163.746 86.107 163.175 86.2093 162.669 86.4141C162.162 86.608 161.731 86.8828 161.376 87.2383C161.02 87.5831 160.746 87.9925 160.552 88.4666C160.368 88.9407 160.277 89.4525 160.277 90.002C160.277 90.5407 160.368 91.0471 160.552 91.5212C160.746 91.9953 161.02 92.4101 161.376 92.7657C161.731 93.1104 162.162 93.3852 162.669 93.5899C163.175 93.7839 163.746 93.8808 164.382 93.8808C164.996 93.8808 165.556 93.7839 166.063 93.5899C166.569 93.3852 167 93.1104 167.356 92.7657C167.722 92.4101 168.002 91.9953 168.196 91.5212C168.39 91.0471 168.487 90.5407 168.487 90.002ZM181.19 94.3495C181.19 95.33 181.266 96.2674 181.416 97.1617C181.567 98.0452 181.81 98.8263 182.144 99.5051C182.489 100.184 182.941 100.723 183.501 101.121C184.062 101.52 184.757 101.719 185.586 101.719C186.416 101.719 187.111 101.52 187.671 101.121C188.231 100.723 188.679 100.184 189.013 99.5051C189.357 98.8263 189.6 98.0452 189.74 97.1617C189.891 96.2674 189.966 95.33 189.966 94.3495V93.7192C189.966 92.7387 189.891 91.8013 189.74 90.907C189.6 90.0128 189.357 89.2262 189.013 88.5474C188.679 87.8686 188.231 87.3299 187.671 86.9312C187.111 86.5326 186.416 86.3332 185.586 86.3332C184.757 86.3332 184.062 86.5326 183.501 86.9312C182.941 87.3299 182.489 87.8686 182.144 88.5474C181.81 89.2262 181.567 90.0128 181.416 90.907C181.266 91.8013 181.19 92.7387 181.19 93.7192V94.3495ZM194.863 94.0424C194.863 94.9906 194.793 95.9441 194.653 96.9031C194.524 97.862 194.308 98.7832 194.007 99.6668C193.716 100.55 193.333 101.38 192.859 102.156C192.385 102.921 191.803 103.589 191.114 104.16C190.424 104.72 189.621 105.162 188.705 105.485C187.8 105.808 186.761 105.97 185.586 105.97C184.423 105.97 183.383 105.808 182.467 105.485C181.551 105.162 180.748 104.72 180.059 104.16C179.38 103.589 178.804 102.921 178.33 102.156C177.855 101.391 177.468 100.566 177.166 99.6829C176.875 98.7994 176.66 97.8782 176.519 96.9192C176.39 95.9603 176.326 95.0014 176.326 94.0424C176.326 93.0943 176.39 92.1407 176.519 91.1818C176.66 90.2229 176.875 89.3016 177.166 88.4181C177.468 87.5346 177.855 86.7104 178.33 85.9454C178.804 85.1696 179.38 84.5016 180.059 83.9413C180.748 83.3702 181.546 82.9231 182.451 82.5999C183.367 82.2659 184.412 82.0989 185.586 82.0989C186.761 82.0989 187.8 82.2659 188.705 82.5999C189.621 82.9231 190.424 83.3702 191.114 83.9413C191.803 84.5016 192.385 85.1696 192.859 85.9454C193.333 86.7104 193.716 87.5346 194.007 88.4181C194.308 89.3016 194.524 90.2229 194.653 91.1818C194.793 92.1407 194.863 93.0943 194.863 94.0424ZM204.334 82.4221H209.231L208.811 97.7597H204.77L204.334 82.4221ZM203.704 102.818C203.704 102.398 203.784 102.005 203.946 101.638C204.108 101.261 204.329 100.933 204.609 100.653C204.9 100.372 205.234 100.152 205.611 99.99C205.988 99.8284 206.392 99.7476 206.823 99.7476C207.243 99.7476 207.636 99.8284 208.003 99.99C208.38 100.152 208.708 100.372 208.989 100.653C209.269 100.933 209.49 101.261 209.651 101.638C209.813 102.005 209.894 102.398 209.894 102.818C209.894 103.249 209.813 103.653 209.651 104.03C209.49 104.408 209.269 104.736 208.989 105.016C208.708 105.296 208.38 105.517 208.003 105.679C207.636 105.841 207.243 105.921 206.823 105.921C206.392 105.921 205.988 105.841 205.611 105.679C205.234 105.517 204.9 105.296 204.609 105.016C204.329 104.736 204.108 104.408 203.946 104.03C203.784 103.653 203.704 103.249 203.704 102.818ZM231.647 103.95C231.453 104.208 231.216 104.461 230.936 104.709C230.656 104.946 230.333 105.156 229.967 105.34C229.6 105.512 229.196 105.652 228.754 105.76C228.313 105.868 227.833 105.921 227.316 105.921C226.174 105.921 225.134 105.695 224.197 105.243C223.27 104.79 222.473 104.165 221.805 103.368C221.148 102.57 220.636 101.622 220.27 100.523C219.914 99.4243 219.736 98.2337 219.736 96.9516C219.736 95.6694 219.909 94.4788 220.253 93.3798C220.609 92.2808 221.11 91.3326 221.756 90.5353C222.414 89.7272 223.2 89.0969 224.116 88.6444C225.043 88.1811 226.077 87.9494 227.219 87.9494C227.726 87.9494 228.183 87.9979 228.593 88.0949C229.002 88.1919 229.374 88.3212 229.708 88.4828C230.053 88.6444 230.365 88.8383 230.645 89.0646C230.926 89.2801 231.184 89.5171 231.421 89.7757V88.2888H235.898V102.527C235.898 102.711 235.952 102.888 236.06 103.061C236.167 103.233 236.377 103.319 236.69 103.319C237.283 103.319 237.821 103.12 238.306 102.721C238.791 102.323 239.2 101.789 239.534 101.121C239.879 100.443 240.143 99.656 240.326 98.7617C240.52 97.8674 240.617 96.9246 240.617 95.9334C240.617 94.9529 240.515 93.967 240.31 92.9758C240.116 91.9845 239.809 91.0363 239.389 90.1313C238.969 89.2154 238.43 88.3643 237.773 87.5777C237.116 86.7912 236.324 86.107 235.397 85.5252C234.481 84.9433 233.431 84.4854 232.245 84.1514C231.06 83.8174 229.724 83.6504 228.237 83.6504C226.427 83.6504 224.741 83.9844 223.179 84.6524C221.616 85.3204 220.259 86.2524 219.106 87.4484C217.953 88.6444 217.048 90.0666 216.391 91.7151C215.733 93.3529 215.405 95.1468 215.405 97.097C215.405 98.39 215.55 99.6183 215.841 100.782C216.143 101.946 216.568 103.023 217.118 104.014C217.667 105.006 218.33 105.9 219.106 106.697C219.882 107.494 220.744 108.173 221.692 108.734C222.64 109.305 223.663 109.741 224.763 110.043C225.872 110.344 227.031 110.495 228.237 110.495C229.293 110.495 230.333 110.366 231.357 110.107C232.391 109.849 233.382 109.472 234.33 108.976L236.189 110.899C234.885 111.61 233.533 112.111 232.132 112.402C230.742 112.704 229.39 112.855 228.076 112.855C226.61 112.855 225.215 112.666 223.89 112.289C222.564 111.923 221.331 111.4 220.189 110.721C219.057 110.043 218.028 109.224 217.102 108.265C216.175 107.317 215.383 106.261 214.726 105.097C214.08 103.923 213.579 102.662 213.223 101.315C212.867 99.9684 212.69 98.5624 212.69 97.097C212.69 95.6317 212.873 94.2256 213.239 92.8788C213.605 91.5212 214.123 90.2552 214.791 89.0808C215.469 87.9063 216.283 86.8397 217.231 85.8807C218.179 84.9218 219.23 84.1029 220.383 83.4241C221.546 82.7345 222.796 82.2066 224.132 81.8403C225.479 81.4632 226.885 81.2746 228.35 81.2746C229.816 81.2746 231.2 81.4362 232.504 81.7595C233.819 82.0827 235.031 82.546 236.14 83.1494C237.25 83.7527 238.247 84.4908 239.13 85.3635C240.025 86.2363 240.779 87.2221 241.393 88.3212C242.018 89.4094 242.497 90.6054 242.831 91.9091C243.165 93.2128 243.332 94.5973 243.332 96.0627C243.332 96.8169 243.262 97.5873 243.122 98.3738C242.993 99.1496 242.788 99.9038 242.508 100.636C242.239 101.369 241.894 102.059 241.474 102.705C241.054 103.341 240.563 103.901 240.003 104.386C239.454 104.86 238.823 105.237 238.112 105.517C237.412 105.787 236.636 105.921 235.785 105.921C235.117 105.921 234.54 105.846 234.056 105.695C233.581 105.555 233.177 105.383 232.843 105.178C232.509 104.962 232.245 104.747 232.051 104.531C231.868 104.305 231.734 104.111 231.647 103.95ZM231.55 95.3354C231.55 94.8721 231.475 94.4411 231.324 94.0424C231.173 93.6438 230.952 93.299 230.662 93.0081C230.381 92.7172 230.026 92.4909 229.595 92.3293C229.175 92.1677 228.69 92.0869 228.14 92.0869C227.505 92.0869 226.95 92.2054 226.476 92.4424C226.002 92.6795 225.603 93.0135 225.28 93.4445C224.967 93.8647 224.73 94.3657 224.569 94.9475C224.418 95.5293 224.342 96.165 224.342 96.8546V97.0647C224.342 97.7543 224.418 98.39 224.569 98.9718C224.73 99.5428 224.967 100.038 225.28 100.459C225.603 100.879 226.002 101.208 226.476 101.445C226.95 101.671 227.505 101.784 228.14 101.784C228.69 101.784 229.175 101.703 229.595 101.542C230.026 101.38 230.381 101.154 230.662 100.863C230.952 100.572 231.173 100.232 231.324 99.8445C231.475 99.4459 231.55 99.0149 231.55 98.5516V95.3354ZM259.026 88.3212C258.789 87.7717 258.39 87.3137 257.83 86.9474C257.28 86.5811 256.607 86.3979 255.809 86.3979C255.325 86.3979 254.888 86.4841 254.5 86.6565C254.123 86.8289 253.8 87.0713 253.531 87.3838C253.261 87.6962 253.051 88.0733 252.9 88.5151C252.76 88.9569 252.696 89.4525 252.706 90.002L252.739 92.3293H257.393V96.4021H252.739V101.364H262.468V105.598H246.112V101.364H248.036V96.4021H246.112V92.3293H248.036V89.7111C248.036 88.5151 248.224 87.4484 248.601 86.511C248.989 85.5736 249.522 84.7763 250.201 84.1191C250.891 83.4618 251.704 82.9608 252.642 82.616C253.59 82.2712 254.624 82.0989 255.745 82.0989C256.52 82.0989 257.264 82.1743 257.975 82.3251C258.697 82.476 259.36 82.6968 259.963 82.9878C260.577 83.2787 261.127 83.6342 261.611 84.0544C262.096 84.4746 262.5 84.9595 262.824 85.509L259.026 88.3212ZM276.206 87.6908C276.206 88.4666 276.06 89.1993 275.769 89.8889C275.478 90.5676 275.08 91.1602 274.573 91.6667C274.078 92.1623 273.49 92.5556 272.812 92.8465C272.133 93.1374 271.4 93.2828 270.614 93.2828C269.816 93.2828 269.073 93.1374 268.383 92.8465C267.704 92.5556 267.112 92.1623 266.605 91.6667C266.099 91.1602 265.7 90.5676 265.41 89.8889C265.119 89.1993 264.973 88.4666 264.973 87.6908C264.973 86.9151 265.119 86.1878 265.41 85.509C265.7 84.8302 266.099 84.2376 266.605 83.7312C267.112 83.2248 267.704 82.8261 268.383 82.5352C269.073 82.2443 269.816 82.0989 270.614 82.0989C271.4 82.0989 272.133 82.2443 272.812 82.5352C273.49 82.8261 274.078 83.2248 274.573 83.7312C275.08 84.2376 275.478 84.8302 275.769 85.509C276.06 86.1878 276.206 86.9151 276.206 87.6908ZM268.351 87.6908C268.351 88.0249 268.405 88.3373 268.513 88.6282C268.62 88.9084 268.771 89.1562 268.965 89.3717C269.159 89.5872 269.391 89.7596 269.66 89.8889C269.94 90.0074 270.242 90.0666 270.565 90.0666C270.899 90.0666 271.206 90.0074 271.486 89.8889C271.766 89.7596 272.004 89.5872 272.197 89.3717C272.402 89.1562 272.558 88.9084 272.666 88.6282C272.774 88.3373 272.828 88.0249 272.828 87.6908C272.828 87.3568 272.774 87.0498 272.666 86.7696C272.558 86.4787 272.402 86.2255 272.197 86.01C272.004 85.7945 271.766 85.6275 271.486 85.509C271.206 85.3797 270.899 85.3151 270.565 85.3151C270.242 85.3151 269.94 85.3797 269.66 85.509C269.391 85.6275 269.159 85.7945 268.965 86.01C268.771 86.2255 268.62 86.4787 268.513 86.7696C268.405 87.0498 268.351 87.3568 268.351 87.6908ZM282.525 82.4221H286.355L271.955 105.598H268.092L282.525 82.4221ZM289.507 100.329C289.507 101.105 289.361 101.838 289.07 102.527C288.78 103.206 288.381 103.799 287.874 104.305C287.379 104.801 286.792 105.194 286.113 105.485C285.434 105.776 284.701 105.921 283.915 105.921C283.117 105.921 282.374 105.776 281.684 105.485C281.006 105.194 280.413 104.801 279.907 104.305C279.4 103.799 279.002 103.206 278.711 102.527C278.431 101.838 278.29 101.105 278.29 100.329C278.29 99.5536 278.431 98.8263 278.711 98.1475C279.002 97.4687 279.4 96.8761 279.907 96.3697C280.413 95.8633 281.006 95.4647 281.684 95.1738C282.374 94.8829 283.117 94.7374 283.915 94.7374C284.701 94.7374 285.434 94.8829 286.113 95.1738C286.792 95.4647 287.379 95.8633 287.874 96.3697C288.381 96.8761 288.78 97.4687 289.07 98.1475C289.361 98.8263 289.507 99.5536 289.507 100.329ZM281.668 100.329C281.668 100.663 281.722 100.976 281.83 101.267C281.938 101.558 282.089 101.811 282.282 102.026C282.476 102.242 282.708 102.414 282.977 102.544C283.247 102.662 283.548 102.721 283.882 102.721C284.216 102.721 284.524 102.662 284.804 102.544C285.084 102.414 285.321 102.242 285.515 102.026C285.709 101.811 285.86 101.558 285.967 101.267C286.075 100.976 286.129 100.663 286.129 100.329C286.129 99.9954 286.075 99.6883 285.967 99.4082C285.86 99.1173 285.709 98.8641 285.515 98.6486C285.321 98.4331 285.084 98.2661 284.804 98.1475C284.524 98.0182 284.216 97.9536 283.882 97.9536C283.548 97.9536 283.247 98.0182 282.977 98.1475C282.708 98.2661 282.476 98.4331 282.282 98.6486C282.089 98.8641 281.938 99.1173 281.83 99.4082C281.722 99.6883 281.668 99.9954 281.668 100.329ZM298.671 87.7232C298.671 88.1434 298.784 88.569 299.01 88.9999C299.247 89.4309 299.522 89.8565 299.834 90.2767C300.47 89.8996 300.998 89.474 301.418 88.9999C301.838 88.5259 302.048 88.0572 302.048 87.5939C302.048 87.0659 301.881 86.6565 301.547 86.3656C301.213 86.0747 300.836 85.9292 300.416 85.9292C299.91 85.9292 299.489 86.1016 299.155 86.4464C298.832 86.7912 298.671 87.2168 298.671 87.7232ZM298.137 95.497C297.588 95.831 297.108 96.2997 296.699 96.9031C296.289 97.4957 296.085 98.1314 296.085 98.8102C296.085 99.2519 296.165 99.656 296.327 100.022C296.499 100.389 296.726 100.701 297.006 100.96C297.297 101.208 297.636 101.401 298.024 101.542C298.412 101.682 298.816 101.752 299.236 101.752C299.915 101.752 300.491 101.638 300.966 101.412C301.44 101.175 301.801 100.927 302.048 100.669L298.137 95.497ZM291.188 98.9395C291.188 98.4115 291.258 97.8566 291.398 97.2748C291.549 96.693 291.796 96.1058 292.141 95.5132C292.497 94.9098 292.982 94.3226 293.596 93.7515C294.221 93.1805 294.996 92.6364 295.923 92.1192C295.33 91.2895 294.894 90.5299 294.614 89.8404C294.334 89.14 294.194 88.4235 294.194 87.6908C294.194 86.9151 294.35 86.1878 294.662 85.509C294.975 84.8194 295.4 84.2214 295.939 83.715C296.478 83.2086 297.135 82.8154 297.911 82.5352C298.687 82.2443 299.538 82.0989 300.465 82.0989C301.316 82.0989 302.108 82.2389 302.84 82.5191C303.573 82.7884 304.203 83.1655 304.731 83.6504C305.259 84.1352 305.669 84.7117 305.96 85.3797C306.261 86.0369 306.412 86.7535 306.412 87.5292C306.412 88.6713 306.089 89.7218 305.442 90.6808C304.807 91.6397 303.697 92.5502 302.113 93.4121L304.99 97.1293C305.173 96.7953 305.372 96.2835 305.588 95.594C305.803 94.8936 305.981 94.0586 306.121 93.0889H310.986C310.943 93.7677 310.819 94.4896 310.614 95.2546C310.42 96.0196 310.183 96.7576 309.903 97.4687C309.634 98.1691 309.327 98.821 308.982 99.4243C308.637 100.028 308.308 100.507 307.996 100.863L308.271 101.137C308.529 101.396 308.804 101.568 309.095 101.655C309.386 101.741 309.72 101.784 310.097 101.784C310.269 101.784 310.426 101.779 310.566 101.768C310.716 101.757 310.846 101.741 310.954 101.719C311.061 101.698 311.169 101.676 311.277 101.655L311.341 105.63C310.921 105.695 310.479 105.76 310.016 105.824C309.553 105.889 309.138 105.921 308.772 105.921C307.996 105.921 307.333 105.824 306.784 105.63C306.234 105.437 305.728 105.086 305.265 104.58L304.667 103.917C303.934 104.553 303.083 105.049 302.113 105.404C301.143 105.749 300.028 105.921 298.768 105.921C297.819 105.921 296.893 105.76 295.988 105.437C295.083 105.103 294.269 104.634 293.547 104.03C292.836 103.416 292.265 102.684 291.834 101.832C291.403 100.97 291.188 100.006 291.188 98.9395ZM326.841 85.509L328.101 89.4202L323.301 90.2767L327.212 94.0748L323.673 96.5637L320.683 92.1192L317.774 96.5637L314.234 94.0748L318.178 90.2767L313.345 89.4202L314.622 85.509L319.002 87.4323L318.501 82.4221H322.946L322.477 87.4323L326.841 85.509ZM334.841 97.7597V96.7576C334.841 96.0357 334.948 95.3839 335.164 94.802C335.39 94.2202 335.665 93.6923 335.988 93.2182C336.322 92.7333 336.678 92.2916 337.055 91.8929C337.443 91.4835 337.798 91.0956 338.122 90.7293C338.456 90.3629 338.73 90.002 338.946 89.6464C339.172 89.2909 339.285 88.9138 339.285 88.5151C339.285 88.2134 339.221 87.944 339.091 87.707C338.973 87.4592 338.806 87.2491 338.59 87.0767C338.386 86.9043 338.138 86.775 337.847 86.6888C337.567 86.6026 337.26 86.5595 336.926 86.5595C336.441 86.5595 335.988 86.6242 335.568 86.7535C335.159 86.872 334.776 87.0282 334.421 87.2221C334.065 87.4161 333.736 87.637 333.435 87.8848C333.144 88.1326 332.885 88.3858 332.659 88.6444L330.008 85.3151C330.429 84.8625 330.903 84.4423 331.431 84.0544C331.959 83.6558 332.535 83.311 333.16 83.0201C333.785 82.7292 334.453 82.5029 335.164 82.3413C335.875 82.1797 336.629 82.0989 337.427 82.0989C338.483 82.0989 339.447 82.2605 340.32 82.5837C341.192 82.8962 341.941 83.3271 342.566 83.8767C343.191 84.4154 343.676 85.0457 344.021 85.7676C344.365 86.4787 344.538 87.2329 344.538 88.0302C344.538 88.6121 344.468 89.1508 344.328 89.6464C344.198 90.1313 344.004 90.5946 343.746 91.0363C343.487 91.4781 343.169 91.9145 342.792 92.3454C342.415 92.7657 341.984 93.202 341.499 93.6546C341.219 93.9131 340.95 94.1717 340.691 94.4303C340.443 94.6889 340.223 94.9691 340.029 95.2707C339.845 95.5617 339.695 95.8795 339.576 96.2243C339.468 96.5691 339.415 96.957 339.415 97.3879V97.7597H334.841ZM334.049 102.851C334.049 102.43 334.13 102.032 334.291 101.655C334.464 101.278 334.69 100.949 334.97 100.669C335.25 100.389 335.579 100.168 335.956 100.006C336.344 99.8338 336.748 99.7476 337.168 99.7476C337.588 99.7476 337.981 99.8338 338.348 100.006C338.725 100.168 339.054 100.389 339.334 100.669C339.614 100.949 339.835 101.278 339.996 101.655C340.158 102.032 340.239 102.43 340.239 102.851C340.239 103.271 340.158 103.67 339.996 104.047C339.835 104.413 339.614 104.736 339.334 105.016C339.054 105.296 338.725 105.517 338.348 105.679C337.981 105.841 337.588 105.921 337.168 105.921C336.748 105.921 336.344 105.841 335.956 105.679C335.579 105.517 335.25 105.296 334.97 105.016C334.69 104.736 334.464 104.413 334.291 104.047C334.13 103.67 334.049 103.271 334.049 102.851ZM351.487 96.8223C351.487 98.2337 351.665 99.5698 352.021 100.83C352.387 102.08 352.883 103.249 353.508 104.338C354.133 105.426 354.865 106.439 355.706 107.376C356.557 108.313 357.462 109.175 358.421 109.962L355.625 112.742L354.38 111.756C353.152 110.754 352.053 109.687 351.083 108.556C350.114 107.435 349.289 106.25 348.611 105C347.943 103.75 347.431 102.436 347.075 101.057C346.73 99.6775 346.558 98.2337 346.558 96.7253C346.558 95.2061 346.73 93.7623 347.075 92.3939C347.431 91.0148 347.943 89.7057 348.611 88.4666C349.289 87.2168 350.114 86.0316 351.083 84.911C352.053 83.7905 353.152 82.7292 354.38 81.7271L355.625 80.7089L358.421 83.5211C357.462 84.2969 356.557 85.1534 355.706 86.0908C354.865 87.0174 354.133 88.0302 353.508 89.1292C352.883 90.2175 352.387 91.3865 352.021 92.6364C351.665 93.8862 351.487 95.2169 351.487 96.6283V96.8223ZM366.017 96.6283C366.017 95.2169 365.834 93.8862 365.467 92.6364C365.112 91.3865 364.622 90.2175 363.997 89.1292C363.372 88.0302 362.634 87.0174 361.782 86.0908C360.942 85.1534 360.042 84.2969 359.083 83.5211L361.879 80.7089L363.124 81.7271C364.352 82.7292 365.451 83.7905 366.421 84.911C367.391 86.0316 368.209 87.2168 368.877 88.4666C369.556 89.7057 370.068 91.0148 370.413 92.3939C370.768 93.7623 370.946 95.2061 370.946 96.7253C370.946 98.2337 370.768 99.6775 370.413 101.057C370.068 102.436 369.556 103.75 368.877 105C368.209 106.25 367.391 107.435 366.421 108.556C365.451 109.687 364.352 110.754 363.124 111.756L361.879 112.742L359.083 109.962C360.042 109.175 360.942 108.313 361.782 107.376C362.634 106.439 363.372 105.426 363.997 104.338C364.622 103.249 365.112 102.08 365.467 100.83C365.834 99.5698 366.017 98.2337 366.017 96.8223V96.6283ZM384.199 82.0989C384.705 82.0989 385.158 82.1958 385.557 82.3898C385.966 82.5837 386.311 82.8477 386.591 83.1817C386.882 83.5157 387.103 83.909 387.254 84.3615C387.415 84.8033 387.496 85.2827 387.496 85.7999C387.496 86.3817 387.404 86.9851 387.221 87.61C387.049 88.2242 386.747 88.8006 386.316 89.3393C385.896 89.8673 385.336 90.3252 384.635 90.7131C383.946 91.101 383.084 91.3542 382.049 91.4727L381.484 89.7757L381.936 89.6464C382.497 89.4848 382.954 89.3016 383.31 89.0969C383.676 88.8922 383.967 88.6767 384.183 88.4504C384.398 88.2242 384.554 88.0033 384.651 87.7878C384.759 87.5615 384.829 87.3514 384.862 87.1575C384.743 87.2652 384.592 87.3461 384.409 87.3999C384.226 87.443 384.032 87.4646 383.827 87.4646C383.482 87.4646 383.154 87.4107 382.841 87.303C382.54 87.1844 382.27 87.0174 382.033 86.8019C381.807 86.5865 381.624 86.3171 381.484 85.9939C381.344 85.6706 381.274 85.2989 381.274 84.8787C381.274 84.4908 381.349 84.1299 381.5 83.7958C381.662 83.4511 381.877 83.1548 382.146 82.9069C382.416 82.6591 382.728 82.4652 383.084 82.3251C383.439 82.1743 383.811 82.0989 384.199 82.0989ZM376.554 82.0989C377.061 82.0989 377.513 82.1958 377.912 82.3898C378.321 82.5837 378.666 82.8477 378.946 83.1817C379.237 83.5157 379.458 83.909 379.609 84.3615C379.771 84.8033 379.851 85.2827 379.851 85.7999C379.851 86.3817 379.76 86.9851 379.577 87.61C379.404 88.2242 379.103 88.8006 378.672 89.3393C378.251 89.8673 377.691 90.3252 376.991 90.7131C376.301 91.101 375.439 91.3542 374.405 91.4727L373.839 89.7757L374.292 89.6464C374.852 89.4848 375.31 89.3016 375.665 89.0969C376.032 88.8922 376.323 88.6767 376.538 88.4504C376.754 88.2242 376.91 88.0033 377.007 87.7878C377.115 87.5615 377.185 87.3514 377.217 87.1575C377.098 87.2652 376.948 87.3461 376.764 87.3999C376.581 87.443 376.387 87.4646 376.183 87.4646C375.838 87.4646 375.509 87.4107 375.197 87.303C374.895 87.1844 374.626 87.0174 374.389 86.8019C374.162 86.5865 373.979 86.3171 373.839 85.9939C373.699 85.6706 373.629 85.2989 373.629 84.8787C373.629 84.4908 373.705 84.1299 373.855 83.7958C374.017 83.4511 374.232 83.1548 374.502 82.9069C374.771 82.6591 375.084 82.4652 375.439 82.3251C375.795 82.1743 376.166 82.0989 376.554 82.0989ZM390.938 102.818C390.938 102.409 391.019 102.021 391.181 101.655C391.353 101.278 391.579 100.949 391.86 100.669C392.14 100.389 392.468 100.168 392.846 100.006C393.223 99.8338 393.621 99.7476 394.041 99.7476C394.462 99.7476 394.86 99.8338 395.237 100.006C395.625 100.168 395.959 100.389 396.239 100.669C396.52 100.949 396.741 101.278 396.902 101.655C397.075 102.021 397.161 102.409 397.161 102.818C397.161 103.249 397.075 103.653 396.902 104.03C396.741 104.408 396.52 104.736 396.239 105.016C395.959 105.296 395.625 105.517 395.237 105.679C394.86 105.841 394.462 105.921 394.041 105.921C393.621 105.921 393.223 105.841 392.846 105.679C392.468 105.517 392.14 105.296 391.86 105.016C391.579 104.736 391.353 104.408 391.181 104.03C391.019 103.653 390.938 103.249 390.938 102.818ZM390.938 91.3919C390.938 90.9609 391.019 90.5569 391.181 90.1798C391.353 89.8027 391.579 89.474 391.86 89.1939C392.14 88.9138 392.468 88.6929 392.846 88.5313C393.223 88.3696 393.621 88.2888 394.041 88.2888C394.462 88.2888 394.86 88.3696 395.237 88.5313C395.625 88.6929 395.959 88.9138 396.239 89.1939C396.52 89.474 396.741 89.8027 396.902 90.1798C397.075 90.5569 397.161 90.9609 397.161 91.3919C397.161 91.8121 397.075 92.2108 396.902 92.5879C396.741 92.965 396.52 93.299 396.239 93.5899C395.959 93.87 395.625 94.0963 395.237 94.2687C394.86 94.4303 394.462 94.5111 394.041 94.5111C393.621 94.5111 393.223 94.4303 392.846 94.2687C392.468 94.0963 392.14 93.87 391.86 93.5899C391.579 93.299 391.353 92.965 391.181 92.5879C391.019 92.2108 390.938 91.8121 390.938 91.3919ZM401.185 91.3919C401.185 90.9609 401.266 90.5569 401.427 90.1798C401.6 89.8027 401.826 89.474 402.106 89.1939C402.386 88.9138 402.715 88.6929 403.092 88.5313C403.469 88.3696 403.868 88.2888 404.288 88.2888C404.708 88.2888 405.102 88.3696 405.468 88.5313C405.845 88.6929 406.174 88.9138 406.454 89.1939C406.734 89.474 406.955 89.8027 407.116 90.1798C407.289 90.5569 407.375 90.9609 407.375 91.3919C407.375 91.8121 407.289 92.2108 407.116 92.5879C406.955 92.965 406.734 93.299 406.454 93.5899C406.174 93.87 405.845 94.0963 405.468 94.2687C405.102 94.4303 404.708 94.5111 404.288 94.5111C403.868 94.5111 403.469 94.4303 403.092 94.2687C402.715 94.0963 402.386 93.87 402.106 93.5899C401.826 93.299 401.6 92.965 401.427 92.5879C401.266 92.2108 401.185 91.8121 401.185 91.3919ZM404.272 100.103C404.778 100.103 405.231 100.2 405.629 100.394C406.039 100.588 406.384 100.852 406.664 101.186C406.955 101.52 407.176 101.913 407.326 102.366C407.488 102.808 407.569 103.287 407.569 103.804C407.569 104.386 407.477 104.984 407.294 105.598C407.122 106.223 406.82 106.8 406.389 107.327C405.969 107.866 405.409 108.329 404.708 108.717C404.019 109.105 403.157 109.358 402.122 109.477L401.557 107.78L402.009 107.651C402.57 107.489 403.027 107.306 403.383 107.101C403.749 106.896 404.04 106.681 404.256 106.455C404.471 106.228 404.627 106.002 404.724 105.776C404.832 105.56 404.902 105.356 404.935 105.162C404.816 105.27 404.665 105.35 404.482 105.404C404.299 105.447 404.105 105.469 403.9 105.469C403.555 105.469 403.227 105.415 402.914 105.307C402.613 105.189 402.343 105.022 402.106 104.806C401.88 104.591 401.697 104.321 401.557 103.998C401.417 103.675 401.347 103.303 401.347 102.883C401.347 102.495 401.422 102.134 401.573 101.8C401.734 101.455 401.95 101.159 402.219 100.911C402.489 100.663 402.801 100.469 403.157 100.329C403.512 100.179 403.884 100.103 404.272 100.103ZM414.179 100.071C414.686 100.071 415.138 100.168 415.537 100.362C415.946 100.556 416.291 100.82 416.571 101.154C416.862 101.488 417.083 101.881 417.234 102.333C417.395 102.775 417.476 103.255 417.476 103.772C417.476 104.354 417.385 104.957 417.201 105.582C417.029 106.196 416.727 106.767 416.296 107.295C415.876 107.834 415.316 108.297 414.615 108.685C413.926 109.073 413.064 109.326 412.03 109.445L411.464 107.748L411.916 107.618C412.477 107.457 412.935 107.274 413.29 107.069C413.657 106.864 413.947 106.649 414.163 106.422C414.378 106.196 414.535 105.97 414.632 105.744C414.739 105.528 414.809 105.323 414.842 105.129C414.723 105.237 414.572 105.318 414.389 105.372C414.206 105.415 414.012 105.437 413.807 105.437C413.463 105.437 413.134 105.383 412.822 105.275C412.52 105.156 412.25 104.989 412.013 104.774C411.787 104.558 411.604 104.289 411.464 103.966C411.324 103.643 411.254 103.271 411.254 102.851C411.254 102.463 411.329 102.102 411.48 101.768C411.642 101.423 411.857 101.127 412.127 100.879C412.396 100.631 412.708 100.437 413.064 100.297C413.42 100.146 413.791 100.071 414.179 100.071ZM420.692 102.98C420.692 102.581 420.768 102.21 420.919 101.865C421.08 101.509 421.296 101.202 421.565 100.944C421.834 100.674 422.147 100.464 422.502 100.313C422.869 100.152 423.251 100.071 423.65 100.071C424.049 100.071 424.426 100.152 424.781 100.313C425.137 100.464 425.449 100.674 425.719 100.944C425.988 101.202 426.198 101.509 426.349 101.865C426.511 102.21 426.591 102.581 426.591 102.98C426.591 103.389 426.511 103.772 426.349 104.127C426.198 104.483 425.988 104.795 425.719 105.065C425.449 105.334 425.137 105.544 424.781 105.695C424.426 105.846 424.049 105.921 423.65 105.921C423.251 105.921 422.869 105.846 422.502 105.695C422.147 105.544 421.834 105.334 421.565 105.065C421.296 104.795 421.08 104.483 420.919 104.127C420.768 103.772 420.692 103.389 420.692 102.98Z" fill="#0B0C0C"/>
</svg>
