<svg width="480" height="320" viewBox="0 0 480 320" fill="none" xmlns="http://www.w3.org/2000/svg">
<rect opacity="0.8" width="480" height="320" fill="white"/>
<path d="M20.8309 45.4737H8.35818L6.14279 53.072H2L11.8585 21.3976H17.4856L27.4106 53.072H23.1127L20.8309 45.4737ZM9.3108 42.1604H19.8782L14.7607 24.8875H14.4062L9.3108 42.1604Z" fill="black"/>
<path d="M44.89 50.819C44.2254 51.5847 43.3245 52.2253 42.1873 52.7407C41.0648 53.256 39.7429 53.5137 38.2217 53.5137C37.0992 53.5137 36.058 53.3591 35.098 53.0499C34.138 52.7259 33.3035 52.2694 32.5946 51.6804C31.8857 51.0914 31.3318 50.3772 30.9331 49.5379C30.5343 48.6985 30.3349 47.7487 30.3349 46.6885C30.3349 45.805 30.4752 45.0024 30.7558 44.2809C31.0512 43.5446 31.4574 42.9041 31.9743 42.3592C32.506 41.8144 33.1411 41.3726 33.8795 41.0339C34.618 40.6805 35.4451 40.4376 36.3608 40.305L44.3583 39.2227V37.787C44.3583 36.9329 44.2254 36.2187 43.9596 35.6444C43.6937 35.0554 43.3319 34.5916 42.874 34.2529C42.431 33.9142 41.8993 33.6712 41.2789 33.524C40.6734 33.3767 40.0162 33.3031 39.3072 33.3031C38.0371 33.3031 36.8482 33.4798 35.7405 33.8332C34.6475 34.1866 33.658 34.5989 32.7718 35.0701L31.3761 32.1324C32.6758 31.3962 34.0346 30.866 35.4525 30.5421C36.8851 30.2181 38.2955 30.0561 39.6839 30.0561C42.4457 30.0561 44.5356 30.682 45.9534 31.9336C47.3713 33.1706 48.0802 34.9818 48.0802 37.3673V47.7708C48.0802 48.5218 48.2279 49.155 48.5233 49.6704C48.8187 50.1711 49.2913 50.5687 49.9411 50.8632L47.8365 53.5137C47.1276 53.337 46.5147 53.0278 45.9977 52.586C45.4956 52.1296 45.1411 51.5847 44.9343 50.9515L44.89 50.819ZM38.266 43.0219C37.6457 43.1102 37.0771 43.2354 36.5602 43.3974C36.058 43.5594 35.6297 43.7802 35.2752 44.06C34.9208 44.3251 34.6401 44.6564 34.4334 45.054C34.2414 45.4516 34.1454 45.9375 34.1454 46.5118C34.1454 47.1744 34.2709 47.7635 34.522 48.2789C34.7731 48.7942 35.1128 49.2286 35.5411 49.5821C35.9694 49.9355 36.4642 50.2079 37.0254 50.3993C37.6014 50.576 38.1995 50.6644 38.8199 50.6644C39.514 50.6644 40.1934 50.5687 40.858 50.3772C41.5226 50.1858 42.1134 49.9134 42.6303 49.56C43.1473 49.1918 43.5608 48.7501 43.871 48.2347C44.1959 47.7193 44.3583 47.1303 44.3583 46.4676V42.1163L38.266 43.0219Z" fill="black"/>
<path d="M76.8803 21.3976C78.1357 21.3976 79.3173 21.589 80.425 21.9719C81.5327 22.34 82.5001 22.8701 83.3271 23.5622C84.1542 24.2543 84.8041 25.0937 85.2767 26.0803C85.7641 27.0522 86.0078 28.1345 86.0078 29.3272C86.0078 30.1077 85.8748 30.866 85.609 31.6023C85.3579 32.3386 85.0108 33.0233 84.5678 33.6565C84.1247 34.275 83.6004 34.8272 82.9948 35.3131C82.3893 35.7843 81.7321 36.1525 81.0231 36.4175C81.8207 36.5353 82.6256 36.793 83.4379 37.1906C84.265 37.5735 85.0034 38.0962 85.6533 38.7589C86.3031 39.4068 86.8348 40.1799 87.2484 41.0781C87.6619 41.9764 87.8687 42.9851 87.8687 44.1042C87.8687 45.6504 87.5733 46.9904 86.9825 48.1242C86.4065 49.2581 85.6238 50.1932 84.6342 50.9294C83.6447 51.651 82.4853 52.1885 81.156 52.5419C79.8416 52.8953 78.4459 53.072 76.969 53.072H64.8729V21.3976H76.8803ZM83.8367 44.06C83.8367 43.1029 83.6521 42.2709 83.2828 41.5641C82.9284 40.8425 82.4336 40.2535 81.7985 39.797C81.1782 39.3258 80.4397 38.9797 79.5831 38.7589C78.7413 38.5233 77.8403 38.4055 76.8803 38.4055H68.772V49.825H77.0133C77.9437 49.825 78.8225 49.7146 79.6496 49.4937C80.4767 49.2728 81.2004 48.9341 81.8207 48.4776C82.441 48.0064 82.9284 47.4101 83.2828 46.6885C83.6521 45.9522 83.8367 45.0761 83.8367 44.06ZM82.0644 29.8573C82.0644 29.1505 81.9462 28.4879 81.7099 27.8694C81.4884 27.2362 81.1191 26.684 80.6022 26.2128C80.1 25.7416 79.4502 25.3661 78.6527 25.0863C77.8551 24.8065 76.8877 24.6666 75.7505 24.6666H68.772V35.2027H75.7505C76.8877 35.2027 77.8551 35.0628 78.6527 34.783C79.4502 34.4885 80.1 34.0983 80.6022 33.6123C81.1191 33.1264 81.4884 32.5595 81.7099 31.9115C81.9462 31.2636 82.0644 30.5789 82.0644 29.8573Z" fill="black"/>
<path d="M97.0626 53.072H93.3407V21.3976H97.0626V33.0822C97.7272 32.1545 98.6281 31.4182 99.7654 30.8734C100.903 30.3286 102.21 30.0561 103.687 30.0561C105.149 30.0561 106.471 30.3506 107.652 30.9397C108.834 31.514 109.845 32.3239 110.687 33.3694C111.529 34.4149 112.172 35.6592 112.615 37.1023C113.072 38.5306 113.301 40.0989 113.301 41.807C113.301 43.5152 113.072 45.0834 112.615 46.5118C112.172 47.9402 111.529 49.1771 110.687 50.2226C109.845 51.2534 108.834 52.0633 107.652 52.6523C106.471 53.2266 105.149 53.5137 103.687 53.5137C102.21 53.5137 100.903 53.2413 99.7654 52.6965C98.6281 52.1516 97.7272 51.4154 97.0626 50.4877V53.072ZM109.447 41.6745C109.447 40.4965 109.306 39.3994 109.026 38.3834C108.745 37.3673 108.332 36.4911 107.785 35.7549C107.239 35.0039 106.559 34.4149 105.747 33.9878C104.949 33.5608 104.034 33.3473 103 33.3473C102.01 33.3473 101.139 33.5166 100.386 33.8553C99.6472 34.194 99.0269 34.6578 98.5247 35.2468C98.0226 35.8359 97.6386 36.5353 97.3727 37.3452C97.1217 38.1404 96.9961 39.0092 96.9961 39.9516V43.6183C96.9961 44.5607 97.1217 45.4368 97.3727 46.2467C97.6386 47.0419 98.0226 47.734 98.5247 48.323C99.0269 48.912 99.6472 49.3759 100.386 49.7146C101.139 50.0533 102.01 50.2226 103 50.2226C104.034 50.2226 104.949 50.0091 105.747 49.5821C106.559 49.155 107.239 48.5734 107.785 47.8371C108.332 47.0861 108.745 46.2026 109.026 45.1865C109.306 44.1705 109.447 43.0734 109.447 41.8954V41.6745Z" fill="black"/>
<path d="M126.993 37.279C126.993 35.0112 127.31 32.8908 127.945 30.9176C128.58 28.9296 129.496 27.2068 130.692 25.7489C131.889 24.2764 133.336 23.1205 135.034 22.2811C136.748 21.427 138.675 21 140.817 21C142.308 21 143.674 21.1988 144.915 21.5964C146.17 21.9792 147.293 22.5314 148.283 23.253C149.272 23.9598 150.129 24.8212 150.852 25.8373C151.591 26.8386 152.196 27.9578 152.669 29.1947L148.947 30.4537C148.711 29.7322 148.364 29.0106 147.906 28.2891C147.448 27.5675 146.879 26.9196 146.2 26.3453C145.521 25.771 144.73 25.3072 143.83 24.9538C142.929 24.5856 141.924 24.4016 140.817 24.4016C139.162 24.4016 137.722 24.755 136.497 25.4618C135.286 26.1539 134.281 27.0816 133.484 28.2449C132.686 29.4082 132.088 30.7556 131.689 32.287C131.305 33.8038 131.113 35.3794 131.113 37.0139V37.5661C131.113 39.2006 131.305 40.7762 131.689 42.293C132.088 43.8097 132.686 45.1497 133.484 46.313C134.281 47.4616 135.286 48.3893 136.497 49.0961C137.722 49.7882 139.162 50.1343 140.817 50.1343C141.924 50.1343 142.929 49.9576 143.83 49.6041C144.73 49.236 145.521 48.7648 146.2 48.1905C146.879 47.6162 147.448 46.9683 147.906 46.2467C148.364 45.5252 148.711 44.7963 148.947 44.06L152.669 45.3411C152.196 46.5781 151.591 47.6972 150.852 48.6985C150.129 49.6999 149.272 50.5613 148.283 51.2828C147.293 51.9897 146.17 52.5419 144.915 52.9394C143.674 53.3223 142.308 53.5137 140.817 53.5137C138.675 53.5137 136.748 53.0941 135.034 52.2547C133.336 51.4154 131.889 50.2668 130.692 48.809C129.496 47.3512 128.58 45.6356 127.945 43.6624C127.31 41.6892 126.993 39.5614 126.993 37.279Z" fill="black"/>
<path d="M160.556 41.8954C160.556 43.0292 160.696 44.1042 160.977 45.1202C161.257 46.1363 161.671 47.0272 162.217 47.7929C162.764 48.5439 163.443 49.1477 164.255 49.6041C165.083 50.0459 166.043 50.2668 167.136 50.2668C167.844 50.2668 168.494 50.1711 169.085 49.9796C169.691 49.7735 170.23 49.5011 170.702 49.1624C171.19 48.8237 171.618 48.4261 171.987 47.9696C172.371 47.4984 172.704 46.9977 172.984 46.4676L176.086 48.2347C175.702 49.0298 175.207 49.7588 174.601 50.4214C174.011 51.0693 173.331 51.6215 172.563 52.078C171.795 52.5345 170.953 52.8879 170.038 53.1382C169.122 53.3886 168.155 53.5137 167.136 53.5137C165.57 53.5137 164.145 53.2266 162.86 52.6523C161.59 52.0633 160.497 51.2534 159.581 50.2226C158.665 49.1771 157.956 47.9402 157.454 46.5118C156.952 45.0834 156.701 43.5152 156.701 41.807C156.701 40.0842 156.952 38.5085 157.454 37.0802C157.956 35.6371 158.665 34.4001 159.581 33.3694C160.497 32.3239 161.59 31.514 162.86 30.9397C164.145 30.3506 165.57 30.0561 167.136 30.0561C168.155 30.0561 169.122 30.1813 170.038 30.4316C170.953 30.682 171.795 31.0354 172.563 31.4919C173.331 31.9484 174.011 32.5079 174.601 33.1706C175.207 33.8185 175.702 34.54 176.086 35.3352L172.984 37.1023C172.704 36.5721 172.371 36.0788 171.987 35.6223C171.618 35.1511 171.19 34.7462 170.702 34.4075C170.23 34.0688 169.691 33.8038 169.085 33.6123C168.494 33.4062 167.844 33.3031 167.136 33.3031C166.043 33.3031 165.083 33.5313 164.255 33.9878C163.443 34.4296 162.764 35.0333 162.217 35.7991C161.671 36.5501 161.257 37.4336 160.977 38.4496C160.696 39.4657 160.556 40.5406 160.556 41.6745V41.8954Z" fill="black"/>
<path d="M216.096 37.2348C216.096 39.6056 215.8 41.7702 215.21 43.7287C214.619 45.6725 213.718 47.3364 212.507 48.7206C211.296 50.1048 209.774 51.1798 207.943 51.9455C206.126 52.6965 203.985 53.072 201.518 53.072H191.328V21.3976H201.518C203.985 21.3976 206.126 21.7804 207.943 22.5462C209.774 23.2972 211.296 24.3648 212.507 25.7489C213.718 27.1331 214.619 28.8045 215.21 30.763C215.8 32.7067 216.096 34.864 216.096 37.2348ZM211.909 36.6163C211.909 34.9671 211.702 33.4209 211.288 31.9778C210.875 30.5347 210.24 29.2831 209.383 28.2228C208.541 27.1479 207.456 26.3012 206.126 25.6827C204.812 25.0642 203.246 24.755 201.43 24.755H195.227V49.7146H201.43C203.246 49.7146 204.812 49.4127 206.126 48.809C207.456 48.1905 208.541 47.3512 209.383 46.2909C210.24 45.216 210.875 43.9569 211.288 42.5138C211.702 41.0708 211.909 39.5246 211.909 37.8753V36.6163Z" fill="black"/>
<path d="M237.053 50.4877C236.389 51.4154 235.48 52.1516 234.328 52.6965C233.191 53.2413 231.891 53.5137 230.429 53.5137C228.967 53.5137 227.645 53.2266 226.464 52.6523C225.282 52.0633 224.271 51.2534 223.429 50.2226C222.587 49.1771 221.937 47.9402 221.479 46.5118C221.036 45.0834 220.815 43.5152 220.815 41.807C220.815 40.0989 221.036 38.5306 221.479 37.1023C221.937 35.6592 222.587 34.4149 223.429 33.3694C224.271 32.3239 225.282 31.514 226.464 30.9397C227.645 30.3506 228.967 30.0561 230.429 30.0561C231.891 30.0561 233.191 30.3286 234.328 30.8734C235.48 31.4182 236.389 32.1545 237.053 33.0822V21.3976H240.775V53.072H237.053V50.4877ZM224.669 41.8954C224.669 43.0734 224.81 44.1705 225.09 45.1865C225.371 46.2026 225.784 47.0861 226.331 47.8371C226.877 48.5734 227.549 49.155 228.347 49.5821C229.144 50.0091 230.067 50.2226 231.116 50.2226C232.106 50.2226 232.97 50.0533 233.708 49.7146C234.461 49.3759 235.089 48.912 235.591 48.323C236.093 47.734 236.47 47.0419 236.721 46.2467C236.972 45.4368 237.098 44.5607 237.098 43.6183V39.9516C237.098 39.0092 236.972 38.1404 236.721 37.3452C236.47 36.5353 236.093 35.8359 235.591 35.2468C235.089 34.6578 234.461 34.194 233.708 33.8553C232.97 33.5166 232.106 33.3473 231.116 33.3473C230.067 33.3473 229.144 33.5608 228.347 33.9878C227.549 34.4149 226.877 35.0039 226.331 35.7549C225.784 36.4911 225.371 37.3673 225.09 38.3834C224.81 39.3994 224.669 40.4965 224.669 41.6745V41.8954Z" fill="black"/>
<path d="M257.657 21.3976H276.665V24.755H261.556V35.1585H275.424V38.5159H261.556V49.7146H277.529V53.072H257.657V21.3976Z" fill="black"/>
<path d="M285.283 42.9335C285.356 43.9938 285.571 44.973 285.925 45.8712C286.279 46.7695 286.759 47.5499 287.365 48.2126C287.985 48.8605 288.709 49.3685 289.536 49.7367C290.378 50.0901 291.308 50.2668 292.327 50.2668C293.583 50.2668 294.683 50.0606 295.628 49.6483C296.588 49.2213 297.467 48.6912 298.265 48.058L300.17 50.7306C299.151 51.5405 297.969 52.2105 296.625 52.7407C295.296 53.256 293.804 53.5137 292.15 53.5137C290.511 53.5137 289.027 53.2266 287.697 52.6523C286.368 52.0633 285.231 51.2534 284.286 50.2226C283.355 49.1771 282.639 47.9402 282.137 46.5118C281.634 45.0687 281.383 43.5005 281.383 41.807C281.383 40.0842 281.627 38.5085 282.114 37.0802C282.617 35.6371 283.318 34.4001 284.219 33.3694C285.12 32.3239 286.198 31.514 287.454 30.9397C288.709 30.3506 290.105 30.0561 291.641 30.0561C293.132 30.0561 294.476 30.3506 295.673 30.9397C296.869 31.514 297.888 32.3239 298.73 33.3694C299.572 34.4001 300.214 35.6371 300.657 37.0802C301.115 38.5085 301.344 40.0694 301.344 41.7629V42.9335H285.283ZM291.508 33.3031C290.563 33.3031 289.721 33.4872 288.982 33.8553C288.244 34.2234 287.609 34.7167 287.077 35.3352C286.56 35.9537 286.147 36.6679 285.836 37.4778C285.541 38.2729 285.371 39.0975 285.327 39.9516H297.312C297.283 39.0828 297.127 38.2508 296.847 37.4557C296.581 36.6458 296.197 35.9389 295.695 35.3352C295.207 34.7167 294.609 34.2234 293.9 33.8553C293.206 33.4872 292.409 33.3031 291.508 33.3031Z" fill="black"/>
<path d="M316.586 21.3976H335.594V24.755H320.485V35.1585H334.353V38.5159H320.485V53.072H316.586V21.3976Z" fill="black"/>
<path d="M345.962 30.4979H350.459V33.7669H345.962V53.072H342.24V33.7669H338.474V30.4979H342.24V26.3012C342.24 25.3293 342.395 24.5047 342.706 23.8273C343.016 23.1499 343.444 22.6051 343.99 22.1928C344.552 21.7657 345.209 21.4639 345.962 21.2871C346.73 21.0957 347.565 21 348.466 21C349.381 21 350.142 21.0442 350.747 21.1325C351.353 21.2062 351.803 21.2651 352.099 21.3092L351.811 24.4899C351.589 24.4752 351.331 24.4531 351.035 24.4237C350.755 24.3942 350.459 24.3721 350.149 24.3574C349.854 24.3427 349.566 24.3279 349.285 24.3132C349.005 24.2985 348.776 24.2911 348.598 24.2911C348.067 24.2911 347.631 24.3721 347.291 24.5341C346.952 24.6814 346.678 24.8801 346.472 25.1305C346.28 25.3808 346.147 25.668 346.073 25.9919C345.999 26.3159 345.962 26.6546 345.962 27.008V30.4979Z" fill="black"/>
<path d="M376.269 50.1343C377.421 50.1343 378.44 49.987 379.326 49.6925C380.227 49.398 381.002 49.0078 381.652 48.5218C382.317 48.0359 382.878 47.4763 383.336 46.8431C383.794 46.2099 384.156 45.5546 384.421 44.8773C384.702 44.1852 384.901 43.5005 385.02 42.8231C385.152 42.131 385.219 41.4904 385.219 40.9014V39.5982H376.313V36.3292H388.697V53.072H385.175V48.809C384.628 49.6778 384.008 50.414 383.314 51.0178C382.62 51.6215 381.881 52.1075 381.098 52.4756C380.316 52.8437 379.488 53.1088 378.617 53.2708C377.76 53.4328 376.889 53.5137 376.003 53.5137C373.832 53.5137 371.904 53.0941 370.221 52.2547C368.537 51.4154 367.112 50.2668 365.945 48.809C364.793 47.3512 363.914 45.6356 363.309 43.6624C362.703 41.6892 362.4 39.5614 362.4 37.279C362.4 35.0112 362.733 32.8908 363.397 30.9176C364.062 28.9296 365.007 27.2068 366.233 25.7489C367.459 24.2764 368.936 23.1205 370.664 22.2811C372.407 21.427 374.356 21 376.512 21C377.842 21 379.097 21.162 380.279 21.4859C381.475 21.7952 382.575 22.2443 383.58 22.8333C384.584 23.4076 385.485 24.0997 386.282 24.9096C387.08 25.7048 387.752 26.5883 388.298 27.5602L384.997 29.2831C384.613 28.5468 384.156 27.8841 383.624 27.2951C383.092 26.6914 382.479 26.176 381.785 25.7489C381.091 25.3219 380.308 24.9906 379.437 24.755C378.58 24.5194 377.635 24.4016 376.601 24.4016C374.947 24.4016 373.492 24.755 372.237 25.4618C370.981 26.1539 369.925 27.0816 369.069 28.2449C368.227 29.4082 367.592 30.7556 367.163 32.287C366.735 33.8038 366.521 35.3794 366.521 37.0139V37.5661C366.521 39.2006 366.713 40.7762 367.097 42.293C367.496 43.8097 368.094 45.1497 368.891 46.313C369.704 47.4616 370.723 48.3893 371.949 49.0961C373.175 49.7882 374.615 50.1343 376.269 50.1343Z" fill="black"/>
<path d="M393.704 40.548C393.704 39.0607 393.918 37.6765 394.346 36.3954C394.775 35.1143 395.388 34.0099 396.185 33.0822C396.983 32.1398 397.943 31.4035 399.065 30.8734C400.202 30.3286 401.473 30.0561 402.876 30.0561C404.116 30.0561 405.298 30.2991 406.42 30.785C407.543 31.2563 408.495 32.022 409.278 33.0822V30.4979H413V53.072C413 54.4709 412.712 55.6416 412.136 56.584C411.575 57.5411 410.836 58.3069 409.921 58.8812C409.005 59.4555 407.964 59.8678 406.797 60.1181C405.645 60.3684 404.471 60.4936 403.274 60.4936C402.61 60.4936 401.916 60.4568 401.192 60.3832C400.483 60.3095 399.767 60.1991 399.043 60.0518C398.319 59.9046 397.603 59.7131 396.894 59.4775C396.2 59.2567 395.535 58.9916 394.9 58.6824L396.252 55.5679C396.695 55.7741 397.16 55.9729 397.647 56.1643C398.135 56.3705 398.659 56.5545 399.22 56.7165C399.796 56.8785 400.409 57.011 401.059 57.1141C401.709 57.2172 402.418 57.2687 403.186 57.2687C404.131 57.2687 404.98 57.173 405.734 56.9816C406.502 56.7901 407.144 56.4883 407.661 56.076C408.178 55.6784 408.577 55.163 408.857 54.5298C409.138 53.9113 409.278 53.1677 409.278 52.2989V48.0138C408.495 49.074 407.543 49.8471 406.42 50.333C405.298 50.8043 404.116 51.0399 402.876 51.0399C401.473 51.0399 400.202 50.7748 399.065 50.2447C397.943 49.6999 396.983 48.9562 396.185 48.0138C395.388 47.0714 394.775 45.967 394.346 44.7006C393.918 43.4195 393.704 42.0353 393.704 40.548ZM409.367 40.4597C409.367 39.4436 409.256 38.5085 409.034 37.6545C408.813 36.7857 408.466 36.0347 407.993 35.4015C407.521 34.7535 406.915 34.2529 406.177 33.8995C405.453 33.5313 404.582 33.3473 403.562 33.3473C402.529 33.3473 401.635 33.5313 400.882 33.8995C400.129 34.2676 399.501 34.7756 398.999 35.4236C398.511 36.0567 398.149 36.8077 397.913 37.6765C397.677 38.5453 397.559 39.473 397.559 40.4597V40.6364C397.559 41.623 397.677 42.5507 397.913 43.4195C398.149 44.2735 398.511 45.0245 398.999 45.6725C399.501 46.3056 400.129 46.8063 400.882 47.1744C401.635 47.5426 402.529 47.7266 403.562 47.7266C404.582 47.7266 405.453 47.5499 406.177 47.1965C406.915 46.8284 407.521 46.3277 407.993 45.6945C408.466 45.0613 408.813 44.3103 409.034 43.4415C409.256 42.5727 409.367 41.6377 409.367 40.6364V40.4597Z" fill="black"/>
<path d="M25.594 85.6373H8.86772V100.193H4.96863V68.519H8.86772V82.2799H25.594V68.519H29.5152V100.193H25.594V85.6373Z" fill="black"/>
<path d="M36.9811 68.519H40.7029V80.2036C41.4709 79.1581 42.4162 78.3923 43.5386 77.9064C44.6759 77.4205 45.9387 77.1775 47.327 77.1775C48.5824 77.1775 49.6827 77.3837 50.6279 77.796C51.5731 78.2083 52.3633 78.7678 52.9984 79.4747C53.6335 80.1815 54.1061 80.9987 54.4162 81.9265C54.7412 82.8542 54.9036 83.8334 54.9036 84.8642V100.193H51.1818V86.0348C51.1818 85.0482 51.0562 84.2089 50.8051 83.5168C50.5688 82.81 50.2365 82.243 49.8082 81.816C49.3947 81.3742 48.8999 81.0577 48.3239 80.8662C47.7627 80.6601 47.1571 80.557 46.5073 80.557C45.7984 80.557 45.0968 80.6895 44.4027 80.9546C43.7085 81.2049 43.0882 81.5878 42.5417 82.1032C41.9953 82.6185 41.5522 83.2665 41.2125 84.0469C40.8728 84.8274 40.7029 85.7477 40.7029 86.8079V100.193H36.9811V68.519Z" fill="black"/>
<path d="M71.5634 68.519H75.4625V100.193H71.5634V68.519Z" fill="black"/>
<path d="M86.6945 100.193H82.9727V77.6193H86.6945V100.193ZM82.2859 71.1033C82.2859 70.7499 82.3524 70.4185 82.4853 70.1093C82.633 69.8001 82.8176 69.5276 83.0391 69.292C83.2754 69.0564 83.5487 68.8724 83.8588 68.7398C84.1838 68.5926 84.5234 68.519 84.8779 68.519C85.2324 68.519 85.5647 68.5926 85.8748 68.7398C86.185 68.8724 86.4508 69.0564 86.6724 69.292C86.9087 69.5276 87.0933 69.8001 87.2262 70.1093C87.3739 70.4185 87.4478 70.7499 87.4478 71.1033C87.4478 71.4567 87.3739 71.7954 87.2262 72.1193C87.0933 72.4286 86.9087 72.701 86.6724 72.9366C86.4508 73.1575 86.185 73.3415 85.8748 73.4888C85.5647 73.6213 85.2324 73.6876 84.8779 73.6876C84.5234 73.6876 84.1838 73.6213 83.8588 73.4888C83.5487 73.3415 83.2754 73.1575 83.0391 72.9366C82.8176 72.701 82.633 72.4286 82.4853 72.1193C82.3524 71.7954 82.2859 71.4567 82.2859 71.1033Z" fill="black"/>
<path d="M99.3666 96.4825C99.8687 96.6445 100.364 96.7844 100.851 96.9022C101.279 97.0053 101.73 97.101 102.202 97.1894C102.69 97.263 103.133 97.2998 103.532 97.2998C104.669 97.2998 105.562 97.1746 106.212 96.9243C106.877 96.674 107.379 96.2911 107.719 95.7757C108.058 95.2603 108.272 94.6198 108.361 93.854C108.464 93.0736 108.516 92.1533 108.516 91.093V68.519H112.415V93.7215C112.415 95.0321 112.179 96.1291 111.706 97.0127C111.234 97.8815 110.606 98.5883 109.823 99.1331C109.04 99.678 108.14 100.061 107.12 100.282C106.116 100.517 105.068 100.635 103.975 100.635C103 100.635 102.018 100.554 101.028 100.392C100.053 100.23 99.1303 100.017 98.2589 99.7516L99.3666 96.4825Z" fill="black"/>
<path d="M123.426 103.772C123.426 104.523 123.293 105.141 123.027 105.627C122.776 106.128 122.444 106.525 122.03 106.82C121.631 107.114 121.173 107.32 120.657 107.438C120.14 107.556 119.623 107.615 119.106 107.615C118.397 107.615 117.732 107.571 117.112 107.482C116.492 107.409 116.071 107.35 115.849 107.306L116.337 104.258C116.543 104.302 116.809 104.331 117.134 104.346C117.474 104.375 117.74 104.39 117.932 104.39C118.345 104.39 118.67 104.346 118.906 104.258C119.157 104.169 119.335 104.044 119.438 103.882C119.556 103.72 119.63 103.521 119.66 103.286C119.689 103.065 119.704 102.814 119.704 102.535V77.6193H123.426V103.772ZM119.017 71.1033C119.017 70.7499 119.084 70.4185 119.217 70.1093C119.364 69.8001 119.549 69.5276 119.77 69.292C120.007 69.0564 120.28 68.8724 120.59 68.7398C120.915 68.5926 121.255 68.519 121.609 68.519C121.964 68.519 122.296 68.5926 122.606 68.7398C122.916 68.8724 123.182 69.0564 123.404 69.292C123.64 69.5276 123.825 69.8001 123.957 70.1093C124.105 70.4185 124.179 70.7499 124.179 71.1033C124.179 71.4567 124.105 71.7954 123.957 72.1193C123.825 72.4286 123.64 72.701 123.404 72.9366C123.182 73.1575 122.916 73.3415 122.606 73.4888C122.296 73.6213 121.964 73.6876 121.609 73.6876C121.255 73.6876 120.915 73.6213 120.59 73.4888C120.28 73.3415 120.007 73.1575 119.77 72.9366C119.549 72.701 119.364 72.4286 119.217 72.1193C119.084 71.7954 119.017 71.4567 119.017 71.1033Z" fill="black"/>
<path d="M140.285 68.519H144.184V85.4826L157.919 68.519H162.683L152.292 81.0208L163.724 100.193H159.16L149.678 83.8702L144.184 90.6513V100.193H140.285V68.519Z" fill="black"/>
<path d="M171.5 88.7075L182.156 77.6193H186.83L178.212 86.587L187.229 100.193H182.688L175.576 89.0609L171.5 93.2356V100.193H167.778V68.519H171.5V88.7075Z" fill="black"/>
<path d="M201.474 68.519H205.373V96.7034H218.067V100.193H201.474V68.519Z" fill="black"/>
<path d="M222.299 68.519H226.021V95.1352C226.021 95.5033 226.05 95.8273 226.109 96.107C226.183 96.3868 226.301 96.6224 226.464 96.8139C226.626 97.0053 226.848 97.1525 227.128 97.2556C227.424 97.344 227.786 97.3881 228.214 97.3881C228.687 97.3881 229.115 97.3734 229.499 97.344C229.883 97.3145 230.223 97.2851 230.518 97.2556L230.895 100.37C230.466 100.414 230.038 100.458 229.61 100.503C229.24 100.532 228.834 100.561 228.391 100.591C227.948 100.62 227.527 100.635 227.128 100.635C226.464 100.635 225.836 100.554 225.245 100.392C224.655 100.245 224.138 99.9945 223.695 99.6411C223.266 99.2877 222.927 98.8312 222.675 98.2717C222.424 97.7121 222.299 97.0274 222.299 96.2175V68.519Z" fill="black"/>
<path d="M268.025 68.519H272.832V100.193H268.889V73.1133L258.033 87.8902H257.989L247.067 73.1354V100.193H243.256V68.519H248.219L258.1 81.9927L268.025 68.519Z" fill="black"/>
<path d="M297.29 100.193H293.568V85.9907C293.568 84.9893 293.443 84.1426 293.191 83.4505C292.955 82.7584 292.63 82.1989 292.217 81.7718C291.818 81.3448 291.338 81.0356 290.777 80.8441C290.23 80.6527 289.647 80.557 289.027 80.557C288.406 80.557 287.793 80.6822 287.188 80.9325C286.597 81.1681 286.065 81.5436 285.593 82.059C285.135 82.5744 284.758 83.2297 284.463 84.0248C284.182 84.8053 284.042 85.7477 284.042 86.8521V100.193H280.32V77.6193H284.042V80.2036C284.795 79.1581 285.667 78.3923 286.656 77.9064C287.66 77.4205 288.768 77.1775 289.979 77.1775C290.481 77.1775 291.028 77.2511 291.619 77.3984C292.209 77.5309 292.785 77.7444 293.347 78.0389C293.923 78.3334 294.447 78.7237 294.919 79.2096C295.407 79.6808 295.798 80.2551 296.094 80.9325C296.507 80.2404 296.98 79.6587 297.511 79.1875C298.058 78.7016 298.627 78.3114 299.217 78.0169C299.823 77.7223 300.443 77.5088 301.078 77.3763C301.728 77.2438 302.371 77.1775 303.006 77.1775C304.232 77.1775 305.317 77.3837 306.262 77.796C307.208 78.2083 308.005 78.7605 308.655 79.4526C309.305 80.1447 309.792 80.9472 310.117 81.8602C310.457 82.7732 310.627 83.7303 310.627 84.7316V100.193H306.905V85.9907C306.905 84.9893 306.779 84.1426 306.528 83.4505C306.277 82.7584 305.937 82.1989 305.509 81.7718C305.081 81.3448 304.586 81.0356 304.025 80.8441C303.464 80.6527 302.88 80.557 302.275 80.557C301.654 80.557 301.041 80.6822 300.436 80.9325C299.845 81.1681 299.313 81.5436 298.841 82.059C298.383 82.5744 298.006 83.2297 297.711 84.0248C297.43 84.8053 297.29 85.7477 297.29 86.8521V100.193Z" fill="black"/>
<path d="M331.119 73.1354V100.193H327.309V68.519H332.648L349.396 95.5769V68.519H353.207V100.193H347.845L331.119 73.1354Z" fill="black"/>
<path d="M360.695 77.6193H364.416V80.2036C365.184 79.1581 366.13 78.3923 367.252 77.9064C368.389 77.4205 369.652 77.1775 371.04 77.1775C372.296 77.1775 373.396 77.3837 374.341 77.796C375.287 78.2083 376.077 78.7678 376.712 79.4747C377.347 80.1815 377.82 80.9987 378.13 81.9265C378.455 82.8542 378.617 83.8334 378.617 84.8642V100.193H374.895V86.0348C374.895 85.0482 374.77 84.2089 374.519 83.5168C374.282 82.81 373.95 82.243 373.522 81.816C373.108 81.3742 372.613 81.0577 372.037 80.8662C371.476 80.6601 370.871 80.557 370.221 80.557C369.512 80.557 368.81 80.6895 368.116 80.9546C367.437 81.2049 366.816 81.5878 366.255 82.1032C365.709 82.6185 365.266 83.2665 364.926 84.0469C364.586 84.8274 364.416 85.7477 364.416 86.8079V100.193H360.695V77.6193Z" fill="black"/>
<path d="M3.1077 131.522C3.1077 129.254 3.42524 127.134 4.06032 125.16C4.71017 123.172 5.63325 121.449 6.82956 119.992C8.02587 118.519 9.48065 117.363 11.1939 116.524C12.9071 115.67 14.8345 115.243 16.9761 115.243C19.1176 115.243 21.045 115.67 22.7582 116.524C24.4715 117.363 25.9263 118.519 27.1226 119.992C28.3337 121.449 29.2567 123.172 29.8918 125.16C30.5417 127.134 30.8666 129.254 30.8666 131.522C30.8666 133.804 30.5417 135.932 29.8918 137.905C29.2567 139.878 28.3337 141.594 27.1226 143.052C25.9263 144.51 24.4715 145.658 22.7582 146.497C21.045 147.337 19.1176 147.756 16.9761 147.756C14.8345 147.756 12.9071 147.337 11.1939 146.497C9.48065 145.658 8.02587 144.51 6.82956 143.052C5.63325 141.594 4.71017 139.878 4.06032 137.905C3.42524 135.932 3.1077 133.804 3.1077 131.522ZM26.746 131.212C26.746 129.578 26.554 128.002 26.17 126.486C25.8007 124.969 25.2173 123.629 24.4198 122.466C23.6223 121.302 22.6032 120.375 21.3625 119.682C20.1367 118.99 18.6745 118.644 16.9761 118.644C15.2776 118.644 13.8154 118.99 12.5896 119.682C11.3637 120.375 10.352 121.302 9.5545 122.466C8.75695 123.629 8.16618 124.969 7.78218 126.486C7.41295 128.002 7.22833 129.578 7.22833 131.212V131.809C7.22833 133.443 7.41295 135.019 7.78218 136.536C8.16618 138.052 8.75695 139.392 9.5545 140.556C10.352 141.704 11.3637 142.632 12.5896 143.339C13.8154 144.031 15.2776 144.377 16.9761 144.377C18.6745 144.377 20.1367 144.031 21.3625 143.339C22.6032 142.632 23.6223 141.704 24.4198 140.556C25.2173 139.392 25.8007 138.052 26.17 136.536C26.554 135.019 26.746 133.443 26.746 131.809V131.212Z" fill="black"/>
<path d="M45.8648 124.299C47.4304 124.299 48.8556 124.593 50.1405 125.182C51.4255 125.757 52.5184 126.567 53.4193 127.612C54.335 128.643 55.0439 129.88 55.5461 131.323C56.0482 132.751 56.2993 134.327 56.2993 136.05C56.2993 137.743 56.0482 139.311 55.5461 140.755C55.0439 142.183 54.335 143.42 53.4193 144.465C52.5184 145.496 51.4255 146.306 50.1405 146.895C48.8556 147.469 47.4304 147.756 45.8648 147.756C44.2993 147.756 42.874 147.469 41.5891 146.895C40.3189 146.306 39.226 145.496 38.3103 144.465C37.3946 143.42 36.6857 142.183 36.1835 140.755C35.6814 139.311 35.4303 137.743 35.4303 136.05C35.4303 134.327 35.6814 132.751 36.1835 131.323C36.6857 129.88 37.3946 128.643 38.3103 127.612C39.226 126.567 40.3189 125.757 41.5891 125.182C42.874 124.593 44.2993 124.299 45.8648 124.299ZM45.8648 144.51C46.943 144.51 47.8882 144.289 48.7005 143.847C49.5276 143.39 50.2144 142.779 50.7608 142.014C51.3221 141.248 51.743 140.364 52.0236 139.363C52.3042 138.347 52.4445 137.287 52.4445 136.182V135.917C52.4445 134.783 52.3042 133.708 52.0236 132.692C51.743 131.676 51.3221 130.793 50.7608 130.042C50.2144 129.276 49.5276 128.672 48.7005 128.231C47.8882 127.774 46.943 127.546 45.8648 127.546C44.7867 127.546 43.834 127.774 43.007 128.231C42.1946 128.672 41.5079 129.276 40.9466 130.042C40.4002 130.793 39.9866 131.676 39.706 132.692C39.4254 133.708 39.2851 134.783 39.2851 135.917V136.182C39.2851 137.287 39.4254 138.347 39.706 139.363C39.9866 140.364 40.4002 141.248 40.9466 142.014C41.5079 142.779 42.1946 143.39 43.007 143.847C43.834 144.289 44.7867 144.51 45.8648 144.51Z" fill="black"/>
<path d="M71.7849 115.64H82.9284C84.4201 115.64 85.7715 115.891 86.9825 116.391C88.1936 116.877 89.2275 117.562 90.0841 118.446C90.9555 119.314 91.6201 120.36 92.0779 121.582C92.5506 122.804 92.7869 124.144 92.7869 125.602C92.7869 127.075 92.5284 128.422 92.0115 129.644C91.5093 130.852 90.8004 131.89 89.8847 132.759C88.969 133.627 87.8761 134.305 86.6059 134.791C85.3505 135.262 83.977 135.498 82.4853 135.498H75.684V147.315H71.7849V115.64ZM88.6441 125.514C88.6441 124.586 88.4964 123.725 88.201 122.929C87.9056 122.134 87.4773 121.449 86.9161 120.875C86.3548 120.286 85.6681 119.83 84.8558 119.506C84.0582 119.167 83.1499 118.998 82.1308 118.998H75.684V132.162H82.1308C83.1499 132.162 84.0582 132 84.8558 131.676C85.6681 131.352 86.3548 130.911 86.9161 130.351C87.4773 129.777 87.9056 129.099 88.201 128.319C88.4964 127.524 88.6441 126.662 88.6441 125.735V125.514Z" fill="black"/>
<path d="M101.139 124.741V127.325C101.804 126.397 102.704 125.661 103.842 125.116C104.979 124.571 106.286 124.299 107.763 124.299C109.225 124.299 110.547 124.593 111.728 125.182C112.91 125.757 113.922 126.567 114.764 127.612C115.605 128.658 116.248 129.902 116.691 131.345C117.149 132.773 117.378 134.342 117.378 136.05C117.378 137.758 117.149 139.326 116.691 140.755C116.248 142.183 115.605 143.42 114.764 144.465C113.922 145.496 112.91 146.306 111.728 146.895C110.547 147.469 109.225 147.756 107.763 147.756C106.286 147.756 104.979 147.484 103.842 146.939C102.704 146.394 101.804 145.658 101.139 144.73V154.184H97.417V124.741H101.139ZM113.523 135.917C113.523 134.739 113.383 133.642 113.102 132.626C112.821 131.61 112.408 130.734 111.861 129.998C111.315 129.247 110.636 128.658 109.823 128.231C109.026 127.804 108.11 127.59 107.076 127.59C106.087 127.59 105.215 127.759 104.462 128.098C103.724 128.437 103.103 128.901 102.601 129.49C102.099 130.079 101.715 130.778 101.449 131.588C101.198 132.383 101.072 133.252 101.072 134.194V137.861C101.072 138.803 101.198 139.68 101.449 140.489C101.715 141.285 102.099 141.977 102.601 142.566C103.103 143.155 103.724 143.619 104.462 143.957C105.215 144.296 106.087 144.465 107.076 144.465C108.11 144.465 109.026 144.252 109.823 143.825C110.636 143.398 111.315 142.816 111.861 142.08C112.408 141.329 112.821 140.445 113.102 139.429C113.383 138.413 113.523 137.316 113.523 136.138V135.917Z" fill="black"/>
<path d="M131.069 131.522C131.069 129.254 131.386 127.134 132.022 125.16C132.671 123.172 133.594 121.449 134.791 119.992C135.987 118.519 137.442 117.363 139.155 116.524C140.868 115.67 142.796 115.243 144.937 115.243C147.079 115.243 149.006 115.67 150.719 116.524C152.433 117.363 153.887 118.519 155.084 119.992C156.295 121.449 157.218 123.172 157.853 125.16C158.503 127.134 158.828 129.254 158.828 131.522C158.828 133.804 158.503 135.932 157.853 137.905C157.218 139.878 156.295 141.594 155.084 143.052C154.729 143.493 154.345 143.906 153.932 144.289L157.233 148.353L154.508 150.517L151.096 146.299C150.978 146.372 150.852 146.439 150.719 146.497C149.006 147.337 147.079 147.756 144.937 147.756C142.796 147.756 140.868 147.337 139.155 146.497C137.442 145.658 135.987 144.51 134.791 143.052C133.594 141.594 132.671 139.878 132.022 137.905C131.386 135.932 131.069 133.804 131.069 131.522ZM154.707 131.212C154.707 129.578 154.515 128.002 154.131 126.486C153.762 124.969 153.179 123.629 152.381 122.466C151.583 121.302 150.564 120.375 149.324 119.682C148.098 118.99 146.636 118.644 144.937 118.644C143.239 118.644 141.777 118.99 140.551 119.682C139.325 120.375 138.313 121.302 137.516 122.466C136.718 123.629 136.127 124.969 135.743 126.486C135.374 128.002 135.19 129.578 135.19 131.212V131.809C135.19 133.443 135.374 135.019 135.743 136.536C136.127 138.052 136.718 139.392 137.516 140.556C138.313 141.704 139.325 142.632 140.551 143.339C141.777 144.031 143.239 144.377 144.937 144.377C146.429 144.377 147.743 144.105 148.881 143.56L143.852 137.309L146.577 135.144L151.672 141.461C151.923 141.167 152.159 140.865 152.381 140.556C153.179 139.392 153.762 138.052 154.131 136.536C154.515 135.019 154.707 133.443 154.707 131.809V131.212Z" fill="black"/>
<path d="M183.397 124.741V154.184H179.675V144.73C179.01 145.658 178.102 146.394 176.95 146.939C175.812 147.484 174.513 147.756 173.051 147.756C171.588 147.756 170.267 147.469 169.085 146.895C167.904 146.306 166.892 145.496 166.05 144.465C165.208 143.42 164.558 142.183 164.1 140.755C163.657 139.326 163.436 137.758 163.436 136.05C163.436 134.342 163.657 132.773 164.1 131.345C164.558 129.902 165.208 128.658 166.05 127.612C166.892 126.567 167.904 125.757 169.085 125.182C170.267 124.593 171.588 124.299 173.051 124.299C174.513 124.299 175.812 124.571 176.95 125.116C178.102 125.661 179.01 126.397 179.675 127.325V124.741H183.397ZM167.291 136.138C167.291 137.316 167.431 138.413 167.712 139.429C167.992 140.445 168.406 141.329 168.952 142.08C169.499 142.816 170.171 143.398 170.968 143.825C171.766 144.252 172.689 144.465 173.737 144.465C174.727 144.465 175.591 144.296 176.329 143.957C177.083 143.619 177.71 143.155 178.212 142.566C178.715 141.977 179.091 141.285 179.342 140.489C179.593 139.68 179.719 138.803 179.719 137.861V134.194C179.719 133.252 179.593 132.383 179.342 131.588C179.091 130.778 178.715 130.079 178.212 129.49C177.71 128.901 177.083 128.437 176.329 128.098C175.591 127.759 174.727 127.59 173.737 127.59C172.689 127.59 171.766 127.804 170.968 128.231C170.171 128.658 169.499 129.247 168.952 129.998C168.406 130.734 167.992 131.61 167.712 132.626C167.431 133.642 167.291 134.739 167.291 135.917V136.138Z" fill="black"/>
<path d="M200.278 115.64H211.111C212.588 115.64 213.969 115.824 215.254 116.193C216.539 116.561 217.654 117.135 218.599 117.915C219.559 118.681 220.312 119.66 220.859 120.853C221.405 122.046 221.679 123.46 221.679 125.094C221.679 126.095 221.538 127.053 221.258 127.965C220.977 128.864 220.571 129.696 220.039 130.461C219.507 131.212 218.843 131.882 218.045 132.471C217.263 133.046 216.362 133.517 215.342 133.885L222.277 147.315H217.912L211.576 134.658H204.177V147.315H200.278V115.64ZM211.333 131.257C212.234 131.257 213.068 131.124 213.836 130.859C214.604 130.579 215.269 130.182 215.83 129.666C216.391 129.151 216.827 128.518 217.137 127.767C217.447 127.016 217.602 126.162 217.602 125.204C217.602 124.218 217.447 123.342 217.137 122.576C216.827 121.796 216.391 121.14 215.83 120.61C215.269 120.08 214.604 119.682 213.836 119.417C213.068 119.138 212.234 118.998 211.333 118.998H204.177V131.257H211.333Z" fill="black"/>
<path d="M238.936 128.054H238.338C237.378 128.054 236.463 128.164 235.591 128.385C234.72 128.606 233.952 129.004 233.287 129.578C232.623 130.152 232.091 130.94 231.692 131.941C231.293 132.928 231.094 134.194 231.094 135.741V147.315H227.372V124.741H231.094V128.319C231.375 127.656 231.751 127.075 232.224 126.574C232.696 126.073 233.228 125.661 233.819 125.337C234.424 124.998 235.067 124.748 235.746 124.586C236.44 124.424 237.142 124.343 237.851 124.343H238.936V128.054Z" fill="black"/>
<path d="M252.251 139.981C253.639 141.528 255.131 142.647 256.726 143.339C258.336 144.031 260.02 144.377 261.777 144.377C262.988 144.377 264.066 144.23 265.012 143.935C265.972 143.626 266.777 143.206 267.426 142.676C268.076 142.146 268.564 141.542 268.889 140.865C269.228 140.188 269.398 139.473 269.398 138.722C269.398 137.662 269.177 136.808 268.734 136.16C268.29 135.512 267.707 134.99 266.983 134.592C266.26 134.18 265.418 133.863 264.458 133.642C263.513 133.407 262.523 133.186 261.489 132.98L261.046 132.891C260.352 132.759 259.628 132.619 258.875 132.471C258.137 132.324 257.405 132.133 256.682 131.897C255.958 131.647 255.257 131.352 254.577 131.014C253.898 130.66 253.3 130.226 252.783 129.71C252.089 129.077 251.513 128.304 251.055 127.391C250.612 126.464 250.39 125.322 250.39 123.968C250.39 123.01 250.597 122.016 251.01 120.986C251.439 119.955 252.111 119.012 253.026 118.158C253.957 117.304 255.138 116.605 256.571 116.06C258.004 115.515 259.739 115.243 261.777 115.243C264.037 115.243 266.119 115.648 268.025 116.458C268.807 116.796 269.553 117.201 270.262 117.672C270.986 118.129 271.695 118.703 272.389 119.395L269.442 121.803C268.35 120.713 267.101 119.918 265.698 119.417C264.295 118.902 262.863 118.644 261.401 118.644C260.352 118.644 259.392 118.769 258.521 119.02C257.664 119.27 256.925 119.631 256.305 120.102C255.685 120.573 255.205 121.118 254.865 121.737C254.54 122.355 254.378 123.025 254.378 123.747C254.378 124.748 254.592 125.558 255.02 126.176C255.463 126.795 256.039 127.295 256.748 127.678C257.457 128.046 258.255 128.334 259.141 128.54C260.042 128.746 260.95 128.945 261.866 129.136L262.087 129.18C263.564 129.475 264.989 129.821 266.363 130.218C267.751 130.601 268.955 131.139 269.974 131.831C271.008 132.508 271.835 133.37 272.455 134.415C273.076 135.446 273.386 136.779 273.386 138.413C273.386 139.576 273.142 140.725 272.655 141.859C272.167 142.993 271.436 144.001 270.462 144.885C269.502 145.754 268.29 146.453 266.828 146.983C265.366 147.499 263.645 147.756 261.666 147.756C260.13 147.756 258.713 147.594 257.413 147.271C256.113 146.932 254.917 146.497 253.824 145.967C253.012 145.54 252.221 145.047 251.453 144.487C250.7 143.928 249.947 143.258 249.194 142.477L252.251 139.981Z" fill="black"/>
<path d="M293.435 141.064C293.435 142.124 293.199 143.074 292.726 143.913C292.268 144.738 291.655 145.437 290.887 146.012C290.119 146.586 289.233 147.02 288.229 147.315C287.239 147.609 286.22 147.756 285.172 147.756C283.518 147.756 281.922 147.477 280.386 146.917C278.865 146.343 277.514 145.526 276.332 144.465L278.37 141.837C278.725 142.146 279.131 142.47 279.589 142.809C280.062 143.147 280.586 143.464 281.162 143.759C281.738 144.038 282.358 144.274 283.023 144.465C283.687 144.642 284.389 144.73 285.127 144.73C285.733 144.73 286.309 144.657 286.855 144.51C287.417 144.348 287.904 144.119 288.318 143.825C288.731 143.516 289.056 143.155 289.292 142.742C289.543 142.315 289.669 141.837 289.669 141.307C289.669 140.718 289.536 140.224 289.27 139.827C289.019 139.429 288.672 139.091 288.229 138.811C287.786 138.531 287.269 138.288 286.678 138.082C286.087 137.876 285.467 137.67 284.817 137.463L283.399 137C282.602 136.734 281.834 136.433 281.095 136.094C280.357 135.755 279.7 135.343 279.124 134.857C278.562 134.356 278.112 133.767 277.772 133.09C277.447 132.413 277.285 131.603 277.285 130.66C277.285 129.895 277.447 129.136 277.772 128.385C278.097 127.619 278.592 126.935 279.257 126.331C279.936 125.727 280.793 125.241 281.826 124.873C282.86 124.49 284.079 124.299 285.482 124.299C287.033 124.299 288.465 124.557 289.78 125.072C291.109 125.587 292.231 126.228 293.147 126.994L291.198 129.666C290.873 129.357 290.489 129.063 290.046 128.783C289.603 128.503 289.13 128.26 288.628 128.054C288.126 127.833 287.601 127.656 287.055 127.524C286.508 127.391 285.969 127.325 285.438 127.325C284.625 127.325 283.938 127.421 283.377 127.612C282.816 127.789 282.366 128.024 282.026 128.319C281.686 128.613 281.435 128.945 281.273 129.313C281.125 129.681 281.051 130.042 281.051 130.395C281.051 130.911 281.162 131.345 281.383 131.698C281.605 132.037 281.893 132.332 282.247 132.582C282.617 132.832 283.03 133.046 283.488 133.222C283.961 133.399 284.448 133.576 284.95 133.753L286.811 134.371C287.697 134.666 288.51 134.982 289.248 135.321C289.987 135.645 290.636 136.02 291.198 136.447C291.907 137.007 292.453 137.655 292.837 138.391C293.236 139.127 293.435 140.018 293.435 141.064Z" fill="black"/>
<path d="M304.534 115.64H326.312V119.13H317.384V147.315H313.462V119.13H304.534V115.64Z" fill="black"/>
<path d="M334.996 141.704C334.996 142.087 335.018 142.448 335.062 142.787C335.121 143.111 335.247 143.398 335.439 143.648C335.646 143.898 335.941 144.097 336.325 144.244C336.709 144.392 337.234 144.465 337.898 144.465C338.075 144.465 338.282 144.458 338.518 144.443C338.77 144.429 339.028 144.414 339.294 144.399C339.56 144.37 339.818 144.34 340.069 144.311C340.32 144.267 340.534 144.23 340.712 144.2L341.11 147.447C340.682 147.506 340.239 147.558 339.781 147.602C339.397 147.646 338.969 147.683 338.496 147.712C338.024 147.742 337.551 147.756 337.078 147.756C336.178 147.756 335.365 147.661 334.641 147.469C333.933 147.293 333.327 146.998 332.825 146.586C332.323 146.173 331.939 145.636 331.673 144.973C331.407 144.296 331.274 143.479 331.274 142.522V128.01H326.998V124.741H331.274V117.363L334.996 116.06V124.741H341.288V128.01H334.996V141.704Z" fill="black"/>
<path d="M16.3558 191.498C17.3896 191.498 18.3792 191.336 19.3244 191.012C20.2844 190.674 21.1262 190.158 21.8499 189.466C22.5884 188.774 23.1792 187.898 23.6223 186.838C24.0653 185.763 24.2869 184.482 24.2869 182.994V162.762H28.0973V183.525C28.0973 185.262 27.7946 186.83 27.189 188.229C26.5835 189.628 25.7564 190.821 24.7078 191.808C23.6592 192.794 22.4186 193.553 20.9859 194.083C19.5533 194.613 18.0099 194.878 16.3558 194.878C14.7164 194.878 13.1804 194.613 11.7477 194.083C10.3299 193.553 9.08926 192.794 8.02587 191.808C6.97725 190.821 6.15017 189.628 5.54463 188.229C4.93909 186.83 4.63632 185.262 4.63632 183.525V162.762H8.49111V182.994C8.49111 184.482 8.70526 185.763 9.13357 186.838C9.57665 187.898 10.16 188.774 10.8837 189.466C11.6074 190.158 12.4419 190.674 13.3871 191.012C14.3471 191.336 15.3367 191.498 16.3558 191.498Z" fill="black"/>
<path d="M52.7547 194.436H49.0328V191.852C48.2648 192.897 47.3122 193.663 46.175 194.149C45.0525 194.635 43.7971 194.878 42.4088 194.878C41.1534 194.878 40.0531 194.672 39.1079 194.259C38.1626 193.847 37.3725 193.287 36.7374 192.581C36.1023 191.874 35.6223 191.057 35.2974 190.129C34.9872 189.201 34.8321 188.222 34.8321 187.191V171.862H38.554V186.02C38.554 187.022 38.6722 187.869 38.9085 188.561C39.1596 189.253 39.4919 189.82 39.9054 190.261C40.3337 190.688 40.8285 191.005 41.3897 191.211C41.9657 191.403 42.5786 191.498 43.2285 191.498C43.9965 191.498 44.7276 191.373 45.4217 191.123C46.1307 190.858 46.751 190.468 47.2827 189.952C47.8144 189.437 48.2353 188.789 48.5454 188.008C48.8704 187.228 49.0328 186.308 49.0328 185.247V171.862H52.7547V194.436Z" fill="black"/>
<path d="M85.9635 162.762H90.1062L80.2477 194.436H74.6206L64.6957 162.762H68.9935L77.3456 191.079H77.7222L85.9635 162.762Z" fill="black"/>
<path d="M98.9014 194.436L91.7235 171.862H95.9549L101.383 190.99L106.788 171.862H111.02L103.842 194.436H98.9014Z" fill="black"/>
<path d="M148.172 188.826H148.393L153.799 162.762H157.787L150.719 194.436H146.089L139.332 168.571L132.598 194.436H127.945L120.9 162.762H124.844L130.338 188.826H130.604L137.516 162.762H141.282L148.172 188.826Z" fill="black"/>
<path d="M182.311 190.041L186.409 171.862H190.353L184.814 194.436H180.051L175.465 176.346L170.791 194.436H166.205L160.711 171.862H164.721L168.664 190.041L173.427 171.862H177.636L182.311 190.041Z" fill="black"/>
<path d="M225.6 162.762L216.118 177.826L226.375 194.436H221.922L213.902 181.227L205.728 194.436H201.563L211.82 178.069L202.427 162.762H206.858L214.08 174.667L221.435 162.762H225.6Z" fill="black"/>
<path d="M235.503 182.531L228.568 171.862H232.822L237.674 179.637L242.304 171.862H246.624L239.712 182.531L247.576 194.436H243.124L237.452 185.667L232.29 194.436H227.882L235.503 182.531Z" fill="black"/>
<path d="M261.445 162.762L269.243 177.782H269.332L277.108 162.762H281.361L271.148 181.492V194.436H267.249V181.492L256.992 162.762H261.445Z" fill="black"/>
<path d="M281.671 171.862H285.881L291.463 190.504L296.78 171.862H300.945L292.704 197.838C292.453 198.633 292.128 199.281 291.729 199.781C291.331 200.297 290.873 200.702 290.356 200.996C289.854 201.305 289.292 201.519 288.672 201.637C288.052 201.755 287.395 201.814 286.7 201.814C286.08 201.814 285.438 201.777 284.773 201.703C284.108 201.644 283.407 201.556 282.668 201.438L283.222 198.191C283.518 198.25 283.835 198.301 284.175 198.346C284.455 198.39 284.773 198.427 285.127 198.456C285.482 198.486 285.844 198.5 286.213 198.5C287.025 198.5 287.653 198.324 288.096 197.97C288.554 197.617 288.879 197.042 289.071 196.247L289.292 195.209L281.671 171.862Z" fill="black"/>
<path d="M328.749 166.252H312.731V162.762H332.869V166.804L316.121 190.946H333.046V194.436H312.044V190.416L328.749 166.252Z" fill="black"/>
<path d="M337.078 191.079L349.418 175.131H337.81V171.862H353.539V175.308L341.243 191.233H354.137V194.436H337.078V191.079Z" fill="black"/>
<path d="M3.37354 215.007C4.4074 215.007 5.24925 214.927 5.89909 214.765C6.54894 214.588 7.0511 214.315 7.40556 213.947C7.76003 213.579 7.99633 213.108 8.11449 212.534C8.24741 211.945 8.31387 211.23 8.31387 210.391V209.883H12.08V241.557H8.18095V218.299H2V215.007H3.37354Z" fill="black"/>
<path d="M25.6604 238.156H41.5005V241.557H20.3435V237.847C22.3669 236.492 24.1909 235.24 25.8155 234.092C27.4401 232.943 28.8727 231.861 30.1134 230.845C31.354 229.814 32.4174 228.835 33.3035 227.907C34.2045 226.979 34.9429 226.059 35.5189 225.146C36.0949 224.233 36.5158 223.313 36.7817 222.385C37.0475 221.457 37.1805 220.478 37.1805 219.447C37.1805 218.564 37.0254 217.724 36.7152 216.929C36.4198 216.134 35.9842 215.442 35.4082 214.853C34.8469 214.249 34.1454 213.771 33.3035 213.417C32.4764 213.064 31.5312 212.887 30.4678 212.887C29.6112 212.887 28.7841 213.012 27.9866 213.263C27.2038 213.498 26.5023 213.881 25.882 214.411C25.2764 214.941 24.7816 215.626 24.3976 216.465C24.0136 217.29 23.7995 218.284 23.7552 219.447L20.0776 219.028C20.1367 217.555 20.4247 216.23 20.9416 215.052C21.4585 213.874 22.1675 212.872 23.0684 212.048C23.9841 211.223 25.0696 210.59 26.325 210.148C27.5952 209.706 29.0057 209.485 30.5564 209.485C32.0629 209.485 33.4586 209.736 34.7435 210.236C36.0432 210.722 37.1657 211.407 38.1109 212.291C39.0709 213.174 39.8168 214.22 40.3485 215.427C40.8949 216.635 41.1682 217.953 41.1682 219.381C41.1682 221.074 40.8728 222.665 40.282 224.152C39.706 225.639 38.8199 227.104 37.6235 228.548C36.4272 229.976 34.906 231.419 33.0598 232.877C31.2284 234.335 29.0647 235.873 26.5687 237.493L25.6604 238.068V238.156Z" fill="black"/>
<path d="M49.3873 233.451C49.9928 234.968 50.9159 236.212 52.1565 237.184C53.3972 238.141 55.0439 238.62 57.0969 238.62C58.2193 238.62 59.2015 238.472 60.0433 238.178C60.9 237.869 61.6163 237.449 62.1923 236.919C62.7683 236.389 63.1966 235.778 63.4772 235.086C63.7726 234.394 63.9203 233.643 63.9203 232.833C63.9203 231.051 63.2187 229.674 61.8157 228.702C60.4273 227.716 58.6329 227.222 56.4322 227.222H55.0587V223.821H56.2993C57.5104 223.821 58.559 223.659 59.4452 223.335C60.3313 222.996 61.0698 222.554 61.6606 222.009C62.2513 221.465 62.687 220.853 62.9677 220.176C63.263 219.499 63.4107 218.814 63.4107 218.122C63.4107 217.459 63.2704 216.811 62.9898 216.178C62.724 215.545 62.3326 214.978 61.8157 214.477C61.3135 213.977 60.6636 213.586 59.8661 213.307C59.0833 213.027 58.1972 212.887 57.2076 212.887C55.4501 212.887 53.9584 213.336 52.7325 214.234C51.5067 215.133 50.6058 216.252 50.0298 217.592L46.7731 216.001C47.6741 213.925 49.055 212.32 50.9159 211.186C52.7768 210.052 54.8741 209.485 57.2076 209.485C58.6846 209.485 60.0433 209.699 61.284 210.126C62.5246 210.538 63.5954 211.135 64.4963 211.915C65.412 212.681 66.1209 213.586 66.6231 214.632C67.14 215.663 67.3984 216.782 67.3984 217.989C67.3984 218.961 67.2434 219.845 66.9332 220.64C66.6378 221.435 66.2243 222.149 65.6926 222.783C65.1757 223.416 64.548 223.946 63.8095 224.373C63.0858 224.785 62.3178 225.072 61.5055 225.234C62.4507 225.382 63.3221 225.683 64.1197 226.14C64.9172 226.582 65.604 227.134 66.18 227.797C66.756 228.459 67.2064 229.225 67.5314 230.094C67.8711 230.948 68.0409 231.846 68.0409 232.788C68.0409 234.29 67.7455 235.616 67.1548 236.764C66.564 237.913 65.7591 238.877 64.74 239.658C63.7357 240.438 62.5763 241.027 61.2618 241.425C59.9473 241.808 58.559 241.999 57.0969 241.999C54.4975 241.999 52.1713 241.403 50.1184 240.21C48.0654 239.003 46.6107 237.28 45.754 235.041L49.3873 233.451Z" fill="black"/>
<path d="M88.4447 230.116V213.24L76.1936 230.116H88.4447ZM88.4447 241.557V233.363H72.4717V229.519L86.8496 209.883H92.3438V230.116H97.55V233.363H92.3438V241.557H88.4447Z" fill="black"/>
<path d="M102.69 225.455L104.351 209.883H122.495V213.285H107.497L106.544 222.297C107.401 221.472 108.428 220.853 109.624 220.441C110.82 220.014 112.046 219.801 113.301 219.801C114.808 219.801 116.196 220.08 117.466 220.64C118.751 221.185 119.859 221.943 120.789 222.915C121.735 223.887 122.466 225.036 122.983 226.361C123.514 227.686 123.78 229.114 123.78 230.646C123.78 232.354 123.5 233.908 122.938 235.306C122.392 236.705 121.617 237.906 120.612 238.907C119.608 239.893 118.412 240.659 117.023 241.204C115.635 241.734 114.106 241.999 112.437 241.999C111.123 241.999 109.875 241.852 108.693 241.557C107.527 241.248 106.471 240.792 105.525 240.188C104.58 239.57 103.768 238.811 103.088 237.913C102.424 237 101.951 235.94 101.671 234.732L105.548 233.915C105.71 234.548 105.983 235.152 106.367 235.726C106.751 236.286 107.239 236.786 107.829 237.228C108.42 237.655 109.1 237.994 109.868 238.244C110.636 238.495 111.492 238.62 112.437 238.62C113.575 238.62 114.594 238.428 115.495 238.045C116.396 237.663 117.156 237.132 117.777 236.455C118.397 235.763 118.869 234.946 119.194 234.003C119.534 233.061 119.704 232.037 119.704 230.933C119.704 229.784 119.534 228.739 119.194 227.797C118.869 226.854 118.389 226.044 117.754 225.367C117.134 224.675 116.373 224.145 115.473 223.776C114.572 223.394 113.545 223.202 112.393 223.202C111.847 223.202 111.285 223.268 110.709 223.401C110.148 223.534 109.602 223.718 109.07 223.953C108.553 224.189 108.066 224.476 107.608 224.815C107.15 225.153 106.759 225.529 106.434 225.941L102.69 225.455Z" fill="black"/>
<path d="M128.898 226.67C128.898 225.242 128.994 223.828 129.186 222.429C129.393 221.015 129.703 219.668 130.116 218.387C130.545 217.106 131.084 215.92 131.734 214.831C132.398 213.741 133.196 212.799 134.126 212.004C135.071 211.208 136.15 210.582 137.361 210.126C138.586 209.67 139.967 209.441 141.503 209.441C142.611 209.441 143.645 209.574 144.605 209.839C145.565 210.089 146.436 210.443 147.219 210.899C148.017 211.341 148.726 211.871 149.346 212.489C149.966 213.108 150.498 213.778 150.941 214.499L147.13 215.692C145.713 213.66 143.837 212.644 141.503 212.644C139.982 212.644 138.675 213.005 137.582 213.726C136.504 214.448 135.61 215.405 134.902 216.598C134.193 217.776 133.661 219.131 133.306 220.662C132.967 222.179 132.782 223.747 132.753 225.367H132.841C133.107 224.822 133.498 224.285 134.015 223.754C134.547 223.224 135.175 222.746 135.898 222.319C136.637 221.892 137.464 221.546 138.38 221.281C139.31 221.015 140.307 220.883 141.37 220.883C142.877 220.883 144.258 221.148 145.513 221.678C146.783 222.193 147.876 222.915 148.792 223.843C149.723 224.77 150.439 225.867 150.941 227.134C151.458 228.4 151.716 229.77 151.716 231.242C151.716 232.759 151.443 234.18 150.897 235.505C150.365 236.816 149.612 237.957 148.637 238.929C147.677 239.901 146.525 240.667 145.181 241.226C143.837 241.786 142.367 242.065 140.772 242.065C139.089 242.065 137.523 241.749 136.076 241.116C134.628 240.482 133.373 239.547 132.31 238.31C131.246 237.074 130.412 235.549 129.806 233.738C129.201 231.912 128.898 229.814 128.898 227.443V226.67ZM133.439 231.375C133.439 232.479 133.617 233.488 133.971 234.401C134.34 235.299 134.842 236.08 135.478 236.742C136.113 237.39 136.866 237.898 137.737 238.266C138.623 238.62 139.591 238.796 140.639 238.796C141.658 238.796 142.604 238.627 143.475 238.288C144.346 237.935 145.1 237.442 145.735 236.808C146.37 236.175 146.865 235.41 147.219 234.511C147.588 233.613 147.773 232.612 147.773 231.507C147.773 230.388 147.596 229.38 147.241 228.481C146.887 227.568 146.392 226.795 145.757 226.162C145.122 225.514 144.361 225.021 143.475 224.682C142.604 224.329 141.644 224.152 140.595 224.152C139.546 224.152 138.579 224.329 137.693 224.682C136.822 225.021 136.068 225.507 135.433 226.14C134.798 226.773 134.303 227.539 133.949 228.437C133.609 229.321 133.439 230.3 133.439 231.375Z" fill="black"/>
<path d="M172.696 213.417H155.859V209.883H176.684V213.417L164.876 241.557H160.534L172.696 213.417Z" fill="black"/>
<path d="M191.992 209.485C193.336 209.485 194.636 209.677 195.891 210.06C197.161 210.428 198.284 210.973 199.259 211.694C200.248 212.401 201.038 213.285 201.629 214.345C202.22 215.405 202.515 216.62 202.515 217.989C202.515 218.696 202.419 219.41 202.227 220.132C202.05 220.839 201.747 221.516 201.319 222.164C200.906 222.797 200.352 223.372 199.658 223.887C198.963 224.402 198.114 224.822 197.11 225.146C198.232 225.455 199.192 225.897 199.99 226.471C200.802 227.031 201.467 227.671 201.984 228.393C202.515 229.114 202.899 229.888 203.136 230.712C203.387 231.522 203.512 232.347 203.512 233.186C203.512 234.629 203.187 235.903 202.538 237.007C201.888 238.112 201.024 239.032 199.946 239.768C198.867 240.505 197.634 241.064 196.246 241.447C194.872 241.815 193.454 241.999 191.992 241.999C190.53 241.999 189.105 241.815 187.717 241.447C186.328 241.064 185.095 240.505 184.017 239.768C182.939 239.032 182.075 238.112 181.425 237.007C180.775 235.903 180.45 234.629 180.45 233.186C180.45 232.347 180.568 231.522 180.804 230.712C181.056 229.888 181.44 229.114 181.957 228.393C182.488 227.671 183.153 227.031 183.95 226.471C184.763 225.897 185.73 225.455 186.853 225.146C185.848 224.822 184.999 224.402 184.305 223.887C183.625 223.372 183.072 222.797 182.643 222.164C182.23 221.516 181.927 220.839 181.735 220.132C181.558 219.41 181.469 218.696 181.469 217.989C181.469 216.62 181.764 215.405 182.355 214.345C182.946 213.285 183.729 212.401 184.704 211.694C185.678 210.973 186.793 210.428 188.049 210.06C189.319 209.677 190.633 209.485 191.992 209.485ZM185.368 218.299C185.368 219.167 185.553 219.948 185.922 220.64C186.291 221.317 186.779 221.892 187.384 222.363C187.99 222.819 188.691 223.173 189.489 223.423C190.286 223.659 191.121 223.776 191.992 223.776C192.849 223.776 193.676 223.659 194.473 223.423C195.271 223.173 195.973 222.819 196.578 222.363C197.198 221.892 197.693 221.317 198.062 220.64C198.432 219.948 198.616 219.167 198.616 218.299C198.616 217.43 198.432 216.657 198.062 215.979C197.693 215.302 197.198 214.735 196.578 214.279C195.973 213.807 195.271 213.454 194.473 213.218C193.676 212.968 192.849 212.843 191.992 212.843C191.121 212.843 190.286 212.968 189.489 213.218C188.691 213.454 187.99 213.807 187.384 214.279C186.779 214.735 186.291 215.302 185.922 215.979C185.553 216.657 185.368 217.43 185.368 218.299ZM184.416 232.877C184.416 233.863 184.622 234.717 185.036 235.439C185.449 236.161 186.003 236.764 186.697 237.25C187.392 237.721 188.197 238.075 189.112 238.31C190.028 238.546 190.988 238.664 191.992 238.664C192.982 238.664 193.934 238.546 194.85 238.31C195.766 238.075 196.571 237.721 197.265 237.25C197.974 236.764 198.535 236.161 198.949 235.439C199.362 234.717 199.569 233.863 199.569 232.877C199.569 231.89 199.362 231.036 198.949 230.315C198.535 229.593 197.974 228.997 197.265 228.525C196.571 228.039 195.766 227.679 194.85 227.443C193.934 227.208 192.982 227.09 191.992 227.09C190.988 227.09 190.028 227.208 189.112 227.443C188.197 227.679 187.392 228.039 186.697 228.525C186.003 228.997 185.449 229.593 185.036 230.315C184.622 231.036 184.416 231.89 184.416 232.877Z" fill="black"/>
<path d="M231.072 224.815C231.072 226.243 230.968 227.664 230.762 229.078C230.57 230.491 230.259 231.839 229.831 233.12C229.418 234.386 228.879 235.572 228.214 236.676C227.549 237.766 226.744 238.708 225.799 239.503C224.869 240.298 223.791 240.924 222.565 241.381C221.354 241.837 219.98 242.065 218.444 242.065C217.336 242.065 216.303 241.933 215.342 241.668C214.397 241.418 213.526 241.064 212.728 240.608C211.931 240.151 211.222 239.614 210.602 238.995C209.981 238.377 209.45 237.707 209.006 236.985L212.817 235.815C213.555 236.831 214.382 237.589 215.298 238.09C216.214 238.59 217.263 238.841 218.444 238.841C219.463 238.841 220.379 238.679 221.191 238.355C222.018 238.016 222.749 237.559 223.384 236.985C224.034 236.396 224.588 235.704 225.046 234.909C225.519 234.114 225.91 233.245 226.22 232.303C226.53 231.36 226.767 230.366 226.929 229.321C227.091 228.275 227.187 227.215 227.217 226.14H227.128C226.848 226.685 226.442 227.222 225.91 227.752C225.393 228.282 224.765 228.761 224.027 229.188C223.303 229.6 222.476 229.939 221.546 230.204C220.63 230.469 219.64 230.602 218.577 230.602C217.071 230.602 215.682 230.344 214.412 229.829C213.157 229.299 212.071 228.577 211.155 227.664C210.24 226.736 209.523 225.639 209.006 224.373C208.504 223.106 208.253 221.73 208.253 220.242C208.253 218.726 208.519 217.312 209.051 216.001C209.597 214.691 210.35 213.55 211.31 212.578C212.27 211.606 213.422 210.84 214.766 210.281C216.11 209.721 217.58 209.441 219.175 209.441C220.859 209.441 222.424 209.758 223.872 210.391C225.319 211.024 226.575 211.959 227.638 213.196C228.701 214.433 229.536 215.965 230.141 217.791C230.762 219.602 231.072 221.685 231.072 224.042V224.815ZM226.53 220.11C226.53 219.02 226.346 218.019 225.976 217.106C225.622 216.193 225.12 215.412 224.47 214.765C223.835 214.102 223.074 213.594 222.188 213.24C221.317 212.872 220.357 212.688 219.308 212.688C218.289 212.688 217.344 212.865 216.472 213.218C215.601 213.557 214.848 214.043 214.213 214.676C213.592 215.309 213.098 216.075 212.728 216.973C212.374 217.872 212.197 218.873 212.197 219.977C212.197 221.096 212.374 222.113 212.728 223.025C213.083 223.938 213.578 224.719 214.213 225.367C214.848 226 215.601 226.493 216.472 226.847C217.344 227.185 218.304 227.355 219.352 227.355C220.416 227.355 221.383 227.185 222.255 226.847C223.141 226.493 223.894 226 224.514 225.367C225.149 224.734 225.644 223.975 225.999 223.092C226.353 222.193 226.53 221.2 226.53 220.11Z" fill="black"/>
<path d="M248.042 238.576C249.076 238.576 250.036 238.303 250.922 237.758C251.823 237.213 252.591 236.433 253.226 235.417C253.876 234.386 254.385 233.127 254.754 231.64C255.124 230.138 255.308 228.437 255.308 226.537V224.947C255.308 223.048 255.124 221.354 254.754 219.867C254.385 218.38 253.876 217.121 253.226 216.09C252.591 215.059 251.823 214.279 250.922 213.748C250.036 213.204 249.076 212.931 248.042 212.931C246.993 212.931 246.026 213.204 245.14 213.748C244.253 214.279 243.485 215.059 242.836 216.09C242.2 217.121 241.698 218.38 241.329 219.867C240.96 221.354 240.775 223.048 240.775 224.947V226.537C240.775 228.437 240.96 230.138 241.329 231.64C241.698 233.127 242.2 234.386 242.836 235.417C243.485 236.433 244.253 237.213 245.14 237.758C246.026 238.303 246.993 238.576 248.042 238.576ZM248.042 209.485C249.4 209.485 250.626 209.699 251.719 210.126C252.812 210.553 253.772 211.142 254.599 211.893C255.441 212.629 256.157 213.513 256.748 214.544C257.354 215.574 257.849 216.694 258.233 217.901C258.617 219.094 258.897 220.36 259.074 221.7C259.252 223.04 259.34 224.395 259.34 225.764C259.34 227.134 259.252 228.489 259.074 229.829C258.897 231.154 258.617 232.42 258.233 233.628C257.849 234.821 257.354 235.932 256.748 236.963C256.157 237.979 255.441 238.863 254.599 239.614C253.772 240.365 252.812 240.954 251.719 241.381C250.626 241.793 249.4 241.999 248.042 241.999C246.683 241.999 245.457 241.793 244.364 241.381C243.271 240.954 242.304 240.365 241.462 239.614C240.635 238.863 239.919 237.979 239.313 236.963C238.722 235.932 238.235 234.821 237.851 233.628C237.467 232.42 237.186 231.154 237.009 229.829C236.832 228.489 236.743 227.134 236.743 225.764C236.743 224.395 236.832 223.04 237.009 221.7C237.186 220.36 237.467 219.094 237.851 217.901C238.235 216.694 238.722 215.574 239.313 214.544C239.919 213.513 240.635 212.629 241.462 211.893C242.304 211.142 243.271 210.553 244.364 210.126C245.457 209.699 246.683 209.485 248.042 209.485Z" fill="black"/>
<path d="M4.68063 257.004H8.77911L8.26957 277.966H5.10155L4.68063 257.004ZM4.10462 286.558C4.10462 286.205 4.17109 285.874 4.30401 285.564C4.43693 285.24 4.61417 284.968 4.83571 284.747C5.07201 284.512 5.34525 284.327 5.6554 284.195C5.98033 284.048 6.32002 283.974 6.67448 283.974C7.02895 283.974 7.36125 284.048 7.67141 284.195C7.99633 284.327 8.26957 284.512 8.49111 284.747C8.72741 284.968 8.91203 285.24 9.04495 285.564C9.19265 285.874 9.26649 286.205 9.26649 286.558C9.26649 286.912 9.19265 287.25 9.04495 287.574C8.91203 287.884 8.72741 288.156 8.49111 288.392C8.26957 288.613 7.99633 288.789 7.67141 288.922C7.36125 289.054 7.02895 289.121 6.67448 289.121C6.32002 289.121 5.98033 289.054 5.6554 288.922C5.34525 288.789 5.07201 288.613 4.83571 288.392C4.61417 288.156 4.43693 287.884 4.30401 287.574C4.17109 287.25 4.10462 286.912 4.10462 286.558Z" fill="black"/>
<path d="M41.7442 285.653C41.4045 286.124 41.0279 286.566 40.6143 286.978C40.2156 287.39 39.7356 287.758 39.1743 288.082C38.6279 288.406 37.9854 288.657 37.2469 288.833C36.5085 289.025 35.6445 289.121 34.6549 289.121C33.1928 289.121 31.8561 288.833 30.6451 288.259C29.434 287.67 28.3927 286.86 27.5213 285.829C26.6647 284.784 26.0001 283.547 25.5275 282.119C25.0549 280.69 24.8186 279.122 24.8186 277.414C24.8186 275.706 25.0401 274.137 25.4832 272.709C25.941 271.266 26.5909 270.022 27.4327 268.976C28.2746 267.931 29.2863 267.121 30.4678 266.546C31.6494 265.957 32.9712 265.663 34.4334 265.663C35.8955 265.663 37.1952 265.935 38.3325 266.48C39.4845 267.025 40.3928 267.761 41.0574 268.689V266.105H44.7793V283.068C44.7793 283.437 44.8236 283.812 44.9122 284.195C45.0156 284.578 45.178 284.931 45.3996 285.255C45.6211 285.564 45.9091 285.822 46.2636 286.028C46.6328 286.234 47.0759 286.337 47.5928 286.337C48.3017 286.337 48.9737 286.109 49.6088 285.653C50.2439 285.196 50.7978 284.548 51.2704 283.709C51.743 282.855 52.1122 281.831 52.3781 280.639C52.6587 279.446 52.799 278.113 52.799 276.641C52.799 274.093 52.3633 271.774 51.4919 269.683C50.6353 267.577 49.439 265.773 47.903 264.271C46.3817 262.769 44.5799 261.606 42.4974 260.781C40.4297 259.957 38.1774 259.545 35.7405 259.545C34.1158 259.545 32.5577 259.758 31.066 260.185C29.589 260.597 28.2007 261.186 26.901 261.952C25.6161 262.703 24.4419 263.616 23.3786 264.691C22.3299 265.751 21.429 266.937 20.6758 268.247C19.9373 269.543 19.3613 270.942 18.9478 272.444C18.5342 273.931 18.3275 275.485 18.3275 277.105C18.3275 278.71 18.5342 280.263 18.9478 281.765C19.3613 283.267 19.9373 284.666 20.6758 285.962C21.429 287.258 22.3299 288.443 23.3786 289.518C24.4419 290.593 25.6161 291.513 26.901 292.279C28.2007 293.045 29.589 293.634 31.066 294.046C32.5577 294.473 34.1158 294.687 35.7405 294.687C37.1583 294.687 38.5171 294.525 39.8168 294.201C41.1165 293.892 42.3571 293.45 43.5386 292.876L45.5103 295.239C44.0334 296.019 42.4531 296.594 40.7694 296.962C39.1005 297.345 37.3651 297.536 35.5632 297.536C33.658 297.536 31.8266 297.293 30.069 296.807C28.3263 296.336 26.6943 295.659 25.173 294.775C23.6518 293.892 22.2709 292.831 21.0302 291.594C19.8044 290.357 18.7484 288.981 17.8622 287.464C16.9761 285.947 16.2893 284.32 15.8019 282.582C15.3293 280.83 15.093 279.004 15.093 277.105C15.093 275.205 15.3441 273.379 15.8462 271.627C16.3484 269.874 17.0499 268.24 17.9508 266.723C18.8518 265.206 19.9373 263.83 21.2075 262.593C22.4776 261.341 23.8807 260.273 25.4167 259.39C26.9675 258.506 28.6217 257.822 30.3792 257.336C32.1368 256.85 33.9681 256.607 35.8734 256.607C37.7786 256.607 39.5952 256.828 41.3233 257.269C43.066 257.711 44.6833 258.344 46.175 259.169C47.6667 259.994 49.0181 260.995 50.2291 262.173C51.455 263.351 52.4962 264.684 53.3528 266.171C54.2095 267.658 54.8667 269.285 55.3245 271.052C55.7972 272.805 56.0335 274.668 56.0335 276.641C56.0335 277.627 55.9596 278.621 55.8119 279.623C55.6642 280.609 55.4279 281.566 55.103 282.494C54.7929 283.407 54.4015 284.269 53.9288 285.078C53.4562 285.888 52.895 286.595 52.2451 287.199C51.6101 287.788 50.879 288.259 50.0519 288.613C49.2248 288.951 48.3091 289.121 47.3048 289.121C46.33 289.121 45.503 288.988 44.8236 288.723C44.159 288.458 43.6051 288.141 43.162 287.773C42.7337 287.39 42.4088 287.007 42.1873 286.625C41.9657 286.227 41.818 285.903 41.7442 285.653ZM28.6734 277.502C28.6734 278.68 28.8137 279.777 29.0943 280.793C29.3749 281.809 29.781 282.693 30.3127 283.444C30.8592 284.18 31.5312 284.762 32.3288 285.189C33.1411 285.616 34.0715 285.829 35.1201 285.829C36.1097 285.829 36.9737 285.66 37.7122 285.321C38.4654 284.983 39.0931 284.519 39.5952 283.93C40.0974 283.341 40.474 282.649 40.7251 281.854C40.9762 281.044 41.1017 280.168 41.1017 279.225V275.558C41.1017 274.616 40.9762 273.747 40.7251 272.952C40.474 272.142 40.0974 271.443 39.5952 270.854C39.0931 270.265 38.4654 269.801 37.7122 269.462C36.9737 269.123 36.1097 268.954 35.1201 268.954C34.0715 268.954 33.1411 269.168 32.3288 269.595C31.5312 270.022 30.8592 270.611 30.3127 271.362C29.781 272.098 29.3749 272.974 29.0943 273.99C28.8137 275.006 28.6734 276.103 28.6734 277.281V277.502Z" fill="black"/>
<path d="M78.5197 262.814C78.0028 261.989 77.257 261.319 76.2822 260.804C75.3074 260.273 74.1776 260.008 72.8926 260.008C71.9769 260.008 71.1646 260.17 70.4557 260.494C69.7468 260.818 69.1486 261.282 68.6612 261.886C68.1738 262.475 67.8046 263.189 67.5535 264.028C67.3024 264.853 67.1769 265.773 67.1769 266.789V271.671L74.532 271.627V274.874H67.1769V285.321H81.3333V288.679H60.9295V285.321H63.2778V274.874H60.9295V271.627H63.2778V266.613C63.2778 265.022 63.5067 263.609 63.9646 262.372C64.4224 261.135 65.0723 260.089 65.9141 259.235C66.756 258.381 67.7677 257.733 68.9492 257.292C70.1308 256.835 71.4452 256.607 72.8926 256.607C74.8422 256.607 76.5259 256.968 77.9437 257.689C79.3616 258.396 80.521 259.36 81.4219 260.583L78.5197 262.814Z" fill="black"/>
<path d="M110.399 257.004H114.033L94.6921 288.679H91.0589L110.399 257.004ZM94.0053 271.494C92.9567 271.494 91.9746 271.303 91.0589 270.92C90.1579 270.537 89.3604 270.014 88.6662 269.352C87.9868 268.674 87.4478 267.879 87.049 266.966C86.665 266.053 86.473 265.074 86.473 264.028C86.473 262.983 86.665 262.011 87.049 261.113C87.4478 260.2 87.9868 259.412 88.6662 258.749C89.3604 258.087 90.1579 257.564 91.0589 257.181C91.9746 256.798 92.9567 256.607 94.0053 256.607C95.0687 256.607 96.0583 256.798 96.974 257.181C97.8897 257.564 98.6872 258.087 99.3666 258.749C100.061 259.412 100.6 260.2 100.984 261.113C101.383 262.011 101.582 262.983 101.582 264.028C101.582 265.074 101.383 266.053 100.984 266.966C100.6 267.879 100.061 268.674 99.3666 269.352C98.6872 270.014 97.8897 270.537 96.974 270.92C96.0583 271.303 95.0687 271.494 94.0053 271.494ZM94.0053 259.81C93.3998 259.81 92.8459 259.913 92.3438 260.119C91.8564 260.325 91.4355 260.619 91.081 261.002C90.7266 261.37 90.4533 261.812 90.2613 262.328C90.0693 262.843 89.9733 263.41 89.9733 264.028C89.9733 264.632 90.0693 265.199 90.2613 265.729C90.4533 266.245 90.7266 266.694 91.081 267.077C91.4355 267.445 91.8564 267.739 92.3438 267.96C92.8459 268.166 93.3998 268.269 94.0053 268.269C94.6256 268.269 95.1869 268.166 95.689 267.96C96.206 267.739 96.6417 267.445 96.9961 267.077C97.3506 266.694 97.6238 266.245 97.8158 265.729C98.0078 265.199 98.1038 264.632 98.1038 264.028C98.1038 263.41 98.0078 262.843 97.8158 262.328C97.6238 261.812 97.3506 261.37 96.9961 261.002C96.6417 260.619 96.206 260.325 95.689 260.119C95.1869 259.913 94.6256 259.81 94.0053 259.81ZM111.308 289.121C110.259 289.121 109.277 288.929 108.361 288.546C107.445 288.163 106.648 287.641 105.968 286.978C105.289 286.301 104.75 285.513 104.351 284.615C103.967 283.702 103.775 282.722 103.775 281.677C103.775 280.631 103.967 279.659 104.351 278.761C104.75 277.848 105.289 277.06 105.968 276.398C106.648 275.735 107.445 275.212 108.361 274.83C109.277 274.447 110.259 274.255 111.308 274.255C112.356 274.255 113.338 274.447 114.254 274.83C115.185 275.212 115.989 275.735 116.669 276.398C117.363 277.06 117.902 277.848 118.286 278.761C118.685 279.659 118.884 280.631 118.884 281.677C118.884 282.722 118.685 283.702 118.286 284.615C117.902 285.513 117.363 286.301 116.669 286.978C115.989 287.641 115.185 288.163 114.254 288.546C113.338 288.929 112.356 289.121 111.308 289.121ZM111.308 277.458C110.687 277.458 110.126 277.561 109.624 277.767C109.136 277.973 108.716 278.268 108.361 278.651C108.007 279.019 107.733 279.461 107.541 279.976C107.349 280.491 107.253 281.058 107.253 281.677C107.253 282.281 107.349 282.848 107.541 283.378C107.733 283.893 108.007 284.342 108.361 284.725C108.716 285.093 109.136 285.388 109.624 285.609C110.126 285.815 110.687 285.918 111.308 285.918C111.928 285.918 112.489 285.815 112.991 285.609C113.493 285.388 113.922 285.093 114.276 284.725C114.631 284.342 114.904 283.893 115.096 283.378C115.288 282.848 115.384 282.281 115.384 281.677C115.384 281.058 115.288 280.491 115.096 279.976C114.904 279.461 114.631 279.019 114.276 278.651C113.922 278.268 113.493 277.973 112.991 277.767C112.489 277.561 111.928 277.458 111.308 277.458Z" fill="black"/>
<path d="M127.015 279.954C127.015 280.764 127.162 281.522 127.458 282.229C127.768 282.936 128.189 283.547 128.721 284.062C129.267 284.578 129.909 284.99 130.648 285.299C131.401 285.594 132.221 285.741 133.107 285.741C133.919 285.741 134.65 285.638 135.3 285.432C135.965 285.226 136.526 284.997 136.984 284.747C137.457 284.497 137.826 284.261 138.092 284.04C138.372 283.819 138.535 283.694 138.579 283.665L131.379 273.173C130.803 273.556 130.249 273.975 129.717 274.432C129.186 274.874 128.721 275.374 128.322 275.934C127.923 276.479 127.605 277.083 127.369 277.745C127.133 278.408 127.015 279.144 127.015 279.954ZM130.604 263.476C130.604 264.271 130.781 265.081 131.135 265.906C131.49 266.731 132.007 267.644 132.686 268.645C133.528 268.174 134.259 267.725 134.879 267.297C135.5 266.856 136.009 266.421 136.408 265.994C136.822 265.553 137.124 265.103 137.316 264.647C137.523 264.19 137.626 263.697 137.626 263.167C137.626 262.622 137.53 262.144 137.338 261.731C137.146 261.319 136.888 260.973 136.563 260.693C136.253 260.399 135.891 260.178 135.478 260.03C135.064 259.883 134.636 259.81 134.193 259.81C133.72 259.81 133.27 259.891 132.841 260.053C132.413 260.215 132.029 260.45 131.689 260.759C131.364 261.069 131.098 261.451 130.892 261.908C130.7 262.364 130.604 262.887 130.604 263.476ZM123.071 279.866C123.071 278.85 123.204 277.907 123.47 277.038C123.751 276.155 124.164 275.33 124.711 274.564C125.257 273.799 125.937 273.07 126.749 272.378C127.561 271.686 128.499 271.016 129.562 270.368L128.565 268.689C128.019 267.776 127.605 266.907 127.325 266.083C127.059 265.243 126.926 264.404 126.926 263.565C126.926 262.607 127.103 261.709 127.458 260.87C127.827 260.016 128.329 259.279 128.964 258.661C129.614 258.028 130.389 257.527 131.29 257.159C132.191 256.791 133.174 256.607 134.237 256.607C135.197 256.607 136.105 256.761 136.962 257.071C137.818 257.38 138.564 257.822 139.199 258.396C139.834 258.956 140.337 259.648 140.706 260.472C141.075 261.282 141.26 262.195 141.26 263.211C141.26 264.213 141.075 265.096 140.706 265.862C140.351 266.627 139.871 267.327 139.266 267.96C138.66 268.593 137.944 269.182 137.117 269.727C136.305 270.257 135.448 270.787 134.547 271.318L141.171 280.904C141.57 280.403 141.939 279.799 142.279 279.093C142.633 278.371 142.943 277.642 143.209 276.906C143.49 276.17 143.726 275.477 143.918 274.83C144.125 274.167 144.273 273.644 144.361 273.261H148.26C148.172 273.939 147.987 274.734 147.707 275.647C147.441 276.56 147.094 277.502 146.665 278.474C146.252 279.446 145.772 280.41 145.225 281.368C144.679 282.325 144.088 283.179 143.453 283.93L143.586 284.107C143.807 284.416 144.022 284.673 144.228 284.88C144.435 285.086 144.642 285.255 144.849 285.388C145.07 285.505 145.299 285.594 145.535 285.653C145.786 285.712 146.06 285.741 146.355 285.741C146.503 285.741 146.665 285.734 146.842 285.719C147.034 285.69 147.219 285.667 147.396 285.653C147.574 285.623 147.729 285.601 147.862 285.586C148.009 285.557 148.113 285.535 148.172 285.52L148.26 288.856C147.758 288.929 147.286 288.988 146.842 289.032C146.414 289.091 145.964 289.121 145.491 289.121C144.605 289.121 143.778 288.981 143.01 288.701C142.257 288.436 141.585 287.928 140.994 287.177L140.44 286.514C138.387 288.252 135.847 289.121 132.819 289.121C131.549 289.121 130.323 288.907 129.141 288.48C127.975 288.038 126.941 287.42 126.04 286.625C125.139 285.815 124.415 284.843 123.869 283.709C123.337 282.56 123.071 281.279 123.071 279.866Z" fill="black"/>
<path d="M163.303 257.004L162.749 264.073L169.019 261.135L170.37 264.669L163.524 266.414L168.753 271.936L166.028 274.255L161.442 268.137L156.9 274.255L154.175 271.936L159.404 266.414L152.514 264.669L153.91 261.135L160.135 264.073L159.581 257.004H163.303Z" fill="black"/>
<path d="M180.96 277.966V277.502C180.96 276.221 181.122 275.124 181.447 274.211C181.787 273.283 182.2 272.481 182.688 271.803C183.19 271.111 183.729 270.5 184.305 269.97C184.896 269.425 185.435 268.888 185.922 268.358C186.424 267.813 186.838 267.239 187.163 266.635C187.502 266.031 187.672 265.31 187.672 264.47C187.672 263.881 187.561 263.322 187.34 262.791C187.133 262.261 186.823 261.805 186.409 261.422C186.011 261.024 185.516 260.715 184.925 260.494C184.349 260.259 183.692 260.141 182.953 260.141C182.333 260.141 181.735 260.215 181.159 260.362C180.598 260.494 180.059 260.678 179.542 260.914C179.04 261.15 178.567 261.422 178.124 261.731C177.681 262.041 177.289 262.364 176.95 262.703L174.38 260.097C174.882 259.522 175.458 259.022 176.108 258.595C176.772 258.153 177.489 257.785 178.257 257.49C179.025 257.196 179.822 256.975 180.649 256.828C181.476 256.68 182.304 256.607 183.131 256.607C184.327 256.607 185.457 256.791 186.52 257.159C187.584 257.512 188.514 258.028 189.312 258.705C190.109 259.368 190.737 260.185 191.195 261.157C191.653 262.114 191.881 263.189 191.881 264.382C191.881 265.324 191.763 266.149 191.527 266.856C191.305 267.563 191.017 268.196 190.663 268.755C190.309 269.3 189.91 269.801 189.467 270.257C189.024 270.714 188.588 271.156 188.16 271.583C187.687 272.054 187.251 272.496 186.853 272.908C186.454 273.32 186.107 273.755 185.811 274.211C185.516 274.653 185.28 275.146 185.102 275.691C184.94 276.236 184.859 276.869 184.859 277.591V277.966H180.96ZM180.184 286.558C180.184 286.205 180.251 285.874 180.384 285.564C180.516 285.24 180.694 284.968 180.915 284.747C181.152 284.512 181.425 284.327 181.735 284.195C182.06 284.048 182.407 283.974 182.776 283.974C183.131 283.974 183.463 284.048 183.773 284.195C184.083 284.327 184.349 284.512 184.571 284.747C184.807 284.968 184.992 285.24 185.125 285.564C185.272 285.874 185.346 286.205 185.346 286.558C185.346 286.912 185.272 287.25 185.125 287.574C184.992 287.884 184.807 288.156 184.571 288.392C184.349 288.613 184.083 288.789 183.773 288.922C183.463 289.054 183.131 289.121 182.776 289.121C182.407 289.121 182.06 289.054 181.735 288.922C181.425 288.789 181.152 288.613 180.915 288.392C180.694 288.156 180.516 287.884 180.384 287.574C180.251 287.25 180.184 286.912 180.184 286.558Z" fill="black"/>
<path d="M200.012 276.729C200.012 278.717 200.241 280.602 200.699 282.384C201.171 284.151 201.843 285.815 202.715 287.376C203.586 288.936 204.65 290.387 205.905 291.727C207.16 293.082 208.578 294.311 210.158 295.416L208.253 298L207.123 297.183C205.1 295.74 203.372 294.216 201.939 292.61C200.522 291.02 199.355 289.364 198.439 287.641C197.538 285.918 196.873 284.136 196.445 282.295C196.032 280.44 195.825 278.54 195.825 276.597C195.825 274.653 196.032 272.761 196.445 270.92C196.873 269.065 197.538 267.275 198.439 265.553C199.355 263.83 200.522 262.173 201.939 260.583C203.372 258.978 205.1 257.454 207.123 256.01L208.253 255.193L210.158 257.777C208.578 258.882 207.16 260.111 205.905 261.466C204.65 262.806 203.586 264.257 202.715 265.818C201.843 267.378 201.171 269.05 200.699 270.832C200.241 272.613 200.012 274.491 200.012 276.464V276.729Z" fill="black"/>
<path d="M222.72 276.464C222.72 274.491 222.483 272.613 222.011 270.832C221.553 269.05 220.888 267.378 220.017 265.818C219.146 264.257 218.082 262.806 216.827 261.466C215.571 260.111 214.146 258.882 212.551 257.777L214.456 255.193L215.586 256.01C217.61 257.454 219.33 258.978 220.748 260.583C222.181 262.173 223.347 263.83 224.248 265.553C225.164 267.275 225.829 269.065 226.242 270.92C226.671 272.761 226.885 274.653 226.885 276.597C226.885 278.54 226.671 280.44 226.242 282.295C225.829 284.136 225.164 285.918 224.248 287.641C223.347 289.364 222.181 291.02 220.748 292.61C219.33 294.216 217.61 295.74 215.586 297.183L214.456 298L212.551 295.416C214.146 294.311 215.571 293.082 216.827 291.727C218.082 290.387 219.146 288.936 220.017 287.376C220.888 285.815 221.553 284.151 222.011 282.384C222.483 280.602 222.72 278.717 222.72 276.729V276.464Z" fill="black"/>
<path d="M243.079 256.563C243.493 256.563 243.884 256.644 244.253 256.806C244.637 256.968 244.962 257.196 245.228 257.49C245.509 257.77 245.73 258.116 245.893 258.528C246.055 258.941 246.136 259.39 246.136 259.876C246.136 260.406 246.04 260.951 245.848 261.51C245.656 262.07 245.361 262.6 244.962 263.101C244.564 263.601 244.061 264.058 243.456 264.47C242.85 264.883 242.134 265.199 241.307 265.42L240.82 265.575L240.354 264.073L240.642 263.984C241.322 263.749 241.92 263.417 242.437 262.99C242.954 262.563 243.308 262.092 243.5 261.577H243.035C242.68 261.577 242.348 261.518 242.038 261.4C241.743 261.267 241.477 261.091 241.24 260.87C241.019 260.649 240.842 260.391 240.709 260.097C240.576 259.788 240.509 259.456 240.509 259.103C240.509 258.749 240.576 258.418 240.709 258.109C240.842 257.8 241.019 257.535 241.24 257.314C241.477 257.078 241.75 256.894 242.06 256.761C242.385 256.629 242.725 256.563 243.079 256.563ZM234.949 256.563C235.362 256.563 235.754 256.644 236.123 256.806C236.507 256.968 236.832 257.196 237.098 257.49C237.378 257.77 237.6 258.116 237.762 258.528C237.925 258.941 238.006 259.39 238.006 259.876C238.006 260.406 237.91 260.951 237.718 261.51C237.526 262.07 237.231 262.6 236.832 263.101C236.433 263.601 235.931 264.058 235.325 264.47C234.72 264.883 234.004 265.199 233.176 265.42L232.689 265.575L232.224 264.073L232.512 263.984C233.191 263.749 233.789 263.417 234.306 262.99C234.823 262.563 235.178 262.092 235.37 261.577H234.904C234.55 261.577 234.218 261.518 233.908 261.4C233.612 261.267 233.346 261.091 233.11 260.87C232.888 260.649 232.711 260.391 232.578 260.097C232.445 259.788 232.379 259.456 232.379 259.103C232.379 258.749 232.445 258.418 232.578 258.109C232.711 257.8 232.888 257.535 233.11 257.314C233.346 257.078 233.62 256.894 233.93 256.761C234.255 256.629 234.594 256.563 234.949 256.563Z" fill="black"/>
<path d="M252.849 286.558C252.849 286.205 252.916 285.874 253.049 285.564C253.196 285.24 253.381 284.968 253.602 284.747C253.839 284.512 254.112 284.327 254.422 284.195C254.732 284.048 255.065 283.974 255.419 283.974C255.773 283.974 256.106 284.048 256.416 284.195C256.741 284.327 257.014 284.512 257.236 284.747C257.472 284.968 257.657 285.24 257.789 285.564C257.937 285.874 258.011 286.205 258.011 286.558C258.011 286.912 257.937 287.243 257.789 287.552C257.657 287.862 257.472 288.134 257.236 288.37C257.014 288.59 256.741 288.767 256.416 288.9C256.106 289.047 255.773 289.121 255.419 289.121C255.065 289.121 254.732 289.047 254.422 288.9C254.112 288.767 253.839 288.59 253.602 288.37C253.381 288.134 253.196 287.862 253.049 287.552C252.916 287.243 252.849 286.912 252.849 286.558ZM252.849 268.689C252.849 268.336 252.916 268.004 253.049 267.695C253.196 267.371 253.381 267.099 253.602 266.878C253.839 266.642 254.112 266.458 254.422 266.326C254.732 266.178 255.065 266.105 255.419 266.105C255.773 266.105 256.106 266.178 256.416 266.326C256.741 266.458 257.014 266.642 257.236 266.878C257.472 267.099 257.657 267.371 257.789 267.695C257.937 268.004 258.011 268.336 258.011 268.689C258.011 269.042 257.937 269.374 257.789 269.683C257.657 269.992 257.472 270.265 257.236 270.5C257.014 270.736 256.741 270.927 256.416 271.075C256.106 271.207 255.773 271.273 255.419 271.273C255.065 271.273 254.732 271.207 254.422 271.075C254.112 270.927 253.839 270.736 253.602 270.5C253.381 270.265 253.196 269.992 253.049 269.683C252.916 269.374 252.849 269.042 252.849 268.689Z" fill="black"/>
<path d="M264.857 268.689C264.857 268.336 264.923 268.004 265.056 267.695C265.204 267.371 265.388 267.099 265.61 266.878C265.846 266.642 266.119 266.458 266.429 266.326C266.74 266.178 267.072 266.105 267.426 266.105C267.781 266.105 268.113 266.178 268.423 266.326C268.748 266.458 269.022 266.642 269.243 266.878C269.479 267.099 269.664 267.371 269.797 267.695C269.945 268.004 270.018 268.336 270.018 268.689C270.018 269.042 269.945 269.374 269.797 269.683C269.664 269.992 269.479 270.265 269.243 270.5C269.022 270.736 268.748 270.927 268.423 271.075C268.113 271.207 267.781 271.273 267.426 271.273C267.072 271.273 266.74 271.207 266.429 271.075C266.119 270.927 265.846 270.736 265.61 270.5C265.388 270.265 265.204 269.992 265.056 269.683C264.923 269.374 264.857 269.042 264.857 268.689ZM267.426 283.974C267.84 283.974 268.231 284.055 268.601 284.217C268.985 284.379 269.31 284.607 269.575 284.902C269.856 285.182 270.078 285.528 270.24 285.94C270.402 286.352 270.484 286.801 270.484 287.287C270.484 287.817 270.388 288.362 270.196 288.922C270.004 289.481 269.708 290.011 269.31 290.512C268.911 291.013 268.409 291.469 267.803 291.882C267.197 292.294 266.481 292.61 265.654 292.831L265.167 292.986L264.701 291.484L264.989 291.396C265.669 291.16 266.267 290.829 266.784 290.402C267.301 289.975 267.655 289.503 267.847 288.988H267.382C267.028 288.988 266.695 288.922 266.385 288.789C266.09 288.671 265.824 288.502 265.588 288.281C265.366 288.06 265.189 287.803 265.056 287.508C264.923 287.199 264.857 286.868 264.857 286.514C264.857 286.161 264.923 285.829 265.056 285.52C265.189 285.211 265.366 284.946 265.588 284.725C265.824 284.489 266.097 284.305 266.407 284.173C266.732 284.04 267.072 283.974 267.426 283.974Z" fill="black"/>
<path d="M279.788 283.974C280.202 283.974 280.593 284.055 280.962 284.217C281.346 284.379 281.671 284.607 281.937 284.902C282.218 285.182 282.439 285.528 282.602 285.94C282.764 286.352 282.846 286.801 282.846 287.287C282.846 287.817 282.75 288.362 282.558 288.922C282.366 289.481 282.07 290.011 281.671 290.512C281.273 291.013 280.77 291.469 280.165 291.882C279.559 292.294 278.843 292.61 278.016 292.831L277.529 292.986L277.063 291.484L277.351 291.396C278.031 291.16 278.629 290.829 279.146 290.402C279.663 289.975 280.017 289.503 280.209 288.988H279.744C279.39 288.988 279.057 288.922 278.747 288.789C278.452 288.671 278.186 288.502 277.95 288.281C277.728 288.06 277.551 287.803 277.418 287.508C277.285 287.199 277.218 286.868 277.218 286.514C277.218 286.161 277.285 285.829 277.418 285.52C277.551 285.211 277.728 284.946 277.95 284.725C278.186 284.489 278.459 284.305 278.769 284.173C279.094 284.04 279.434 283.974 279.788 283.974Z" fill="black"/>
<path d="M289.58 286.558C289.58 286.205 289.647 285.874 289.78 285.564C289.927 285.24 290.112 284.968 290.334 284.747C290.57 284.512 290.843 284.327 291.153 284.195C291.463 284.048 291.796 283.974 292.15 283.974C292.505 283.974 292.837 284.048 293.147 284.195C293.472 284.327 293.745 284.512 293.967 284.747C294.203 284.968 294.388 285.24 294.521 285.564C294.668 285.874 294.742 286.205 294.742 286.558C294.742 286.912 294.668 287.243 294.521 287.552C294.388 287.862 294.203 288.134 293.967 288.37C293.745 288.59 293.472 288.767 293.147 288.9C292.837 289.047 292.505 289.121 292.15 289.121C291.796 289.121 291.463 289.047 291.153 288.9C290.843 288.767 290.57 288.59 290.334 288.37C290.112 288.134 289.927 287.862 289.78 287.552C289.647 287.243 289.58 286.912 289.58 286.558Z" fill="black"/>
</svg>
