<svg width="480" height="320" viewBox="0 0 480 320" fill="none" xmlns="http://www.w3.org/2000/svg">
<rect opacity="0.8" width="480" height="320" fill="white"/>
<path d="M18.3695 89.4556H7.65882L5.75639 96H2.19885L10.6647 68.7191H15.4968L24.0197 96H20.329L18.3695 89.4556ZM8.47687 86.602H17.5515L13.1568 71.725H12.8525L8.47687 86.602Z" fill="black"/>
<path d="M39.0299 94.0595C38.4592 94.719 37.6855 95.2707 36.7089 95.7146C35.745 96.1585 34.6099 96.3805 33.3036 96.3805C32.3397 96.3805 31.4455 96.2473 30.6212 95.981C29.7968 95.702 29.0802 95.3088 28.4714 94.8015C27.8626 94.2942 27.387 93.679 27.0446 92.9561C26.7022 92.2332 26.5309 91.4151 26.5309 90.502C26.5309 89.741 26.6514 89.0498 26.8924 88.4283C27.1461 87.7942 27.4948 87.2425 27.9387 86.7732C28.3953 86.3039 28.9407 85.9235 29.5748 85.6318C30.209 85.3274 30.9192 85.1181 31.7055 85.004L38.5733 84.0718V82.8352C38.5733 82.0996 38.4592 81.4845 38.2309 80.9898C38.0026 80.4825 37.6919 80.083 37.2987 79.7913C36.9182 79.4996 36.4616 79.2903 35.9289 79.1635C35.4089 79.0367 34.8446 78.9732 34.2358 78.9732C33.1451 78.9732 32.1241 79.1254 31.1729 79.4298C30.2343 79.7342 29.3846 80.0893 28.6236 80.4952L27.4251 77.965C28.5412 77.3308 29.708 76.8742 30.9256 76.5952C32.1558 76.3162 33.367 76.1767 34.5592 76.1767C36.9309 76.1767 38.7255 76.7157 39.9431 77.7937C41.1606 78.8591 41.7694 80.4191 41.7694 82.4737V91.4342C41.7694 92.081 41.8962 92.6264 42.1499 93.0703C42.4036 93.5015 42.8094 93.8439 43.3675 94.0976L41.5601 96.3805C40.9514 96.2283 40.425 95.962 39.9811 95.5815C39.5499 95.1883 39.2455 94.719 39.068 94.1737L39.0299 94.0595ZM33.3416 87.3439C32.809 87.42 32.3207 87.5278 31.8768 87.6674C31.4456 87.8069 31.0777 87.9971 30.7734 88.2381C30.469 88.4664 30.228 88.7517 30.0504 89.0942C29.8856 89.4366 29.8031 89.8552 29.8031 90.3498C29.8031 90.9205 29.9109 91.4278 30.1265 91.8717C30.3421 92.3156 30.6338 92.6898 31.0016 92.9942C31.3695 93.2986 31.7943 93.5332 32.2763 93.6981C32.7709 93.8503 33.2846 93.9264 33.8172 93.9264C34.4133 93.9264 34.9968 93.8439 35.5675 93.679C36.1382 93.5142 36.6455 93.2795 37.0894 92.9751C37.5333 92.6581 37.8884 92.2776 38.1548 91.8337C38.4338 91.3898 38.5733 90.8825 38.5733 90.3117V86.5639L33.3416 87.3439Z" fill="black"/>
<path d="M66.501 68.7191C67.5791 68.7191 68.5937 68.884 69.5449 69.2138C70.4961 69.5309 71.3268 69.9874 72.0371 70.5835C72.7473 71.1796 73.3054 71.9025 73.7112 72.7523C74.1298 73.5894 74.339 74.5216 74.339 75.5489C74.339 76.2211 74.2249 76.8742 73.9966 77.5084C73.781 78.1425 73.4829 78.7323 73.1024 79.2776C72.722 79.8103 72.2717 80.2859 71.7517 80.7045C71.2317 81.1103 70.6673 81.4274 70.0586 81.6557C70.7434 81.7571 71.4346 81.9791 72.1322 82.3215C72.8424 82.6513 73.4766 83.1015 74.0346 83.6723C74.5927 84.2303 75.0493 84.8962 75.4044 85.6698C75.7595 86.4435 75.9371 87.3122 75.9371 88.2761C75.9371 89.6078 75.6834 90.762 75.1761 91.7386C74.6815 92.7151 74.0093 93.5205 73.1595 94.1546C72.3098 94.7761 71.3142 95.239 70.1727 95.5434C69.0439 95.8478 67.8454 96 66.5771 96H56.1898V68.7191H66.501ZM72.4746 88.2381C72.4746 87.4137 72.3161 86.6971 71.999 86.0883C71.6946 85.4669 71.2698 84.9596 70.7244 84.5664C70.1917 84.1605 69.5576 83.8625 68.822 83.6723C68.0991 83.4693 67.3254 83.3679 66.501 83.3679H59.5381V93.2034H66.6152C67.4142 93.2034 68.1688 93.1083 68.879 92.9181C69.5893 92.7278 70.2108 92.4361 70.7434 92.0429C71.2761 91.6371 71.6946 91.1234 71.999 90.502C72.3161 89.8678 72.4746 89.1132 72.4746 88.2381ZM70.9527 76.0055C70.9527 75.3967 70.8512 74.8259 70.6483 74.2933C70.4581 73.7479 70.141 73.2723 69.6971 72.8664C69.2659 72.4606 68.7078 72.1372 68.023 71.8962C67.3381 71.6552 66.5074 71.5347 65.5308 71.5347H59.5381V80.6093H65.5308C66.5074 80.6093 67.3381 80.4889 68.023 80.2479C68.7078 79.9942 69.2659 79.6581 69.6971 79.2396C70.141 78.8211 70.4581 78.3328 70.6483 77.7747C70.8512 77.2167 70.9527 76.6269 70.9527 76.0055Z" fill="black"/>
<path d="M83.8322 96H80.6361V68.7191H83.8322V78.783C84.4029 77.984 85.1765 77.3498 86.1531 76.8806C87.1297 76.4113 88.2521 76.1767 89.5204 76.1767C90.776 76.1767 91.9111 76.4303 92.9258 76.9376C93.9404 77.4323 94.8092 78.1298 95.5321 79.0303C96.255 79.9308 96.8067 81.0025 97.1872 82.2454C97.5804 83.4757 97.777 84.8264 97.777 86.2976C97.777 87.7688 97.5804 89.1195 97.1872 90.3498C96.8067 91.58 96.255 92.6454 95.5321 93.5459C94.8092 94.4337 93.9404 95.1312 92.9258 95.6385C91.9111 96.1332 90.776 96.3805 89.5204 96.3805C88.2521 96.3805 87.1297 96.1459 86.1531 95.6766C85.1765 95.2073 84.4029 94.5732 83.8322 93.7742V96ZM94.4667 86.1835C94.4667 85.1688 94.3463 84.224 94.1053 83.3488C93.8643 82.4737 93.5092 81.7191 93.0399 81.0849C92.5707 80.4381 91.9872 79.9308 91.2897 79.563C90.6048 79.1952 89.8185 79.0113 88.9307 79.0113C88.0809 79.0113 87.3326 79.1572 86.6858 79.4489C86.0517 79.7406 85.519 80.1401 85.0878 80.6474C84.6565 81.1547 84.3268 81.7571 84.0985 82.4547C83.8829 83.1396 83.7751 83.8879 83.7751 84.6996V87.8576C83.7751 88.6693 83.8829 89.4239 84.0985 90.1215C84.3268 90.8064 84.6565 91.4025 85.0878 91.9098C85.519 92.4171 86.0517 92.8166 86.6858 93.1083C87.3326 93.4 88.0809 93.5459 88.9307 93.5459C89.8185 93.5459 90.6048 93.362 91.2897 92.9942C91.9872 92.6264 92.5707 92.1254 93.0399 91.4912C93.5092 90.8444 93.8643 90.0834 94.1053 89.2083C94.3463 88.3332 94.4667 87.3883 94.4667 86.3737V86.1835Z" fill="black"/>
<path d="M109.534 82.3976C109.534 80.4445 109.807 78.6181 110.352 76.9186C110.897 75.2064 111.684 73.7225 112.711 72.4669C113.738 71.1986 114.981 70.203 116.44 69.4801C117.911 68.7445 119.566 68.3767 121.405 68.3767C122.686 68.3767 123.859 68.5479 124.925 68.8904C126.003 69.2201 126.967 69.6957 127.816 70.3172C128.666 70.926 129.402 71.6679 130.023 72.543C130.657 73.4055 131.177 74.3694 131.583 75.4347L128.387 76.5191C128.184 75.8977 127.886 75.2762 127.493 74.6547C127.1 74.0333 126.611 73.4752 126.028 72.9806C125.445 72.486 124.766 72.0864 123.992 71.7821C123.219 71.465 122.356 71.3065 121.405 71.3065C119.985 71.3065 118.748 71.6108 117.695 72.2196C116.655 72.8157 115.793 73.6147 115.108 74.6167C114.423 75.6186 113.91 76.7791 113.567 78.0981C113.237 79.4045 113.073 80.7615 113.073 82.1693V82.6449C113.073 84.0527 113.237 85.4098 113.567 86.7161C113.91 88.0225 114.423 89.1766 115.108 90.1786C115.793 91.1678 116.655 91.9669 117.695 92.5756C118.748 93.1717 119.985 93.4698 121.405 93.4698C122.356 93.4698 123.219 93.3176 123.992 93.0132C124.766 92.6961 125.445 92.2903 126.028 91.7956C126.611 91.301 127.1 90.743 127.493 90.1215C127.886 89.5 128.184 88.8722 128.387 88.2381L131.583 89.3415C131.177 90.4069 130.657 91.3708 130.023 92.2332C129.402 93.0956 128.666 93.8376 127.816 94.459C126.967 95.0678 126.003 95.5434 124.925 95.8859C123.859 96.2156 122.686 96.3805 121.405 96.3805C119.566 96.3805 117.911 96.019 116.44 95.2961C114.981 94.5732 113.738 93.5839 112.711 92.3283C111.684 91.0727 110.897 89.5952 110.352 87.8956C109.807 86.1961 109.534 84.3635 109.534 82.3976Z" fill="black"/>
<path d="M138.356 86.3737C138.356 87.3503 138.476 88.2761 138.717 89.1513C138.958 90.0264 139.313 90.7937 139.783 91.4532C140.252 92.1 140.835 92.62 141.533 93.0132C142.243 93.3937 143.068 93.5839 144.006 93.5839C144.615 93.5839 145.173 93.5015 145.68 93.3366C146.2 93.159 146.663 92.9244 147.069 92.6327C147.487 92.341 147.855 91.9986 148.172 91.6054C148.502 91.1995 148.787 90.7683 149.028 90.3117L151.692 91.8337C151.362 92.5186 150.937 93.1464 150.417 93.7171C149.91 94.2751 149.327 94.7507 148.667 95.1439C148.007 95.5371 147.285 95.8415 146.498 96.0571C145.712 96.2727 144.881 96.3805 144.006 96.3805C142.662 96.3805 141.438 96.1332 140.334 95.6385C139.244 95.1312 138.305 94.4337 137.519 93.5459C136.732 92.6454 136.124 91.58 135.692 90.3498C135.261 89.1195 135.046 87.7688 135.046 86.2976C135.046 84.8137 135.261 83.4566 135.692 82.2264C136.124 80.9835 136.732 79.9181 137.519 79.0303C138.305 78.1298 139.244 77.4323 140.334 76.9376C141.438 76.4303 142.662 76.1767 144.006 76.1767C144.881 76.1767 145.712 76.2845 146.498 76.5001C147.285 76.7157 148.007 77.0201 148.667 77.4133C149.327 77.8064 149.91 78.2884 150.417 78.8591C150.937 79.4171 151.362 80.0386 151.692 80.7235L149.028 82.2454C148.787 81.7888 148.502 81.364 148.172 80.9708C147.855 80.5649 147.487 80.2162 147.069 79.9245C146.663 79.6328 146.2 79.4045 145.68 79.2396C145.173 79.062 144.615 78.9732 144.006 78.9732C143.068 78.9732 142.243 79.1698 141.533 79.563C140.835 79.9435 140.252 80.4635 139.783 81.123C139.313 81.7698 138.958 82.5308 138.717 83.4059C138.476 84.281 138.356 85.2069 138.356 86.1835V86.3737Z" fill="black"/>
<path d="M186.05 82.3596C186.05 84.4015 185.796 86.2659 185.289 87.9527C184.781 89.6269 184.008 91.06 182.968 92.2522C181.928 93.4444 180.621 94.3703 179.049 95.0298C177.489 95.6766 175.65 96 173.532 96H164.781V68.7191H173.532C175.65 68.7191 177.489 69.0489 179.049 69.7084C180.621 70.3552 181.928 71.2747 182.968 72.4669C184.008 73.6591 184.781 75.0986 185.289 76.7855C185.796 78.4596 186.05 80.3176 186.05 82.3596ZM182.454 81.8269C182.454 80.4064 182.277 79.0747 181.921 77.8318C181.566 76.5889 181.021 75.5108 180.285 74.5977C179.562 73.6718 178.63 72.9425 177.489 72.4099C176.36 71.8772 175.016 71.6108 173.456 71.6108H168.129V93.1083H173.456C175.016 93.1083 176.36 92.8483 177.489 92.3283C178.63 91.7956 179.562 91.0727 180.285 90.1595C181.021 89.2337 181.566 88.1493 181.921 86.9064C182.277 85.6635 182.454 84.3318 182.454 82.9113V81.8269Z" fill="black"/>
<path d="M204.047 93.7742C203.476 94.5732 202.696 95.2073 201.707 95.6766C200.73 96.1459 199.614 96.3805 198.358 96.3805C197.103 96.3805 195.968 96.1332 194.953 95.6385C193.939 95.1312 193.07 94.4337 192.347 93.5459C191.624 92.6454 191.066 91.58 190.673 90.3498C190.292 89.1195 190.102 87.7688 190.102 86.2976C190.102 84.8264 190.292 83.4757 190.673 82.2454C191.066 81.0025 191.624 79.9308 192.347 79.0303C193.07 78.1298 193.939 77.4323 194.953 76.9376C195.968 76.4303 197.103 76.1767 198.358 76.1767C199.614 76.1767 200.73 76.4113 201.707 76.8806C202.696 77.3498 203.476 77.984 204.047 78.783V68.7191H207.243V96H204.047V93.7742ZM193.412 86.3737C193.412 87.3883 193.533 88.3332 193.774 89.2083C194.015 90.0834 194.37 90.8444 194.839 91.4912C195.308 92.1254 195.885 92.6264 196.57 92.9942C197.255 93.362 198.048 93.5459 198.948 93.5459C199.798 93.5459 200.54 93.4 201.174 93.1083C201.821 92.8166 202.36 92.4171 202.791 91.9098C203.222 91.4025 203.546 90.8064 203.761 90.1215C203.977 89.4239 204.085 88.6693 204.085 87.8576V84.6996C204.085 83.8879 203.977 83.1396 203.761 82.4547C203.546 81.7571 203.222 81.1547 202.791 80.6474C202.36 80.1401 201.821 79.7406 201.174 79.4489C200.54 79.1572 199.798 79.0113 198.948 79.0113C198.048 79.0113 197.255 79.1952 196.57 79.563C195.885 79.9308 195.308 80.4381 194.839 81.0849C194.37 81.7191 194.015 82.4737 193.774 83.3488C193.533 84.224 193.412 85.1688 193.412 86.1835V86.3737Z" fill="black"/>
<path d="M221.739 68.7191H238.062V71.6108H225.088V80.5713H236.997V83.463H225.088V93.1083H238.804V96H221.739V68.7191Z" fill="black"/>
<path d="M245.463 87.2678C245.526 88.181 245.71 89.0244 246.014 89.7981C246.319 90.5717 246.731 91.2439 247.251 91.8147C247.784 92.3727 248.405 92.8103 249.115 93.1273C249.838 93.4317 250.637 93.5839 251.512 93.5839C252.59 93.5839 253.535 93.4064 254.347 93.0512C255.171 92.6834 255.926 92.2269 256.611 91.6815L258.247 93.9834C257.372 94.681 256.357 95.2581 255.203 95.7146C254.062 96.1585 252.781 96.3805 251.36 96.3805C249.952 96.3805 248.678 96.1332 247.536 95.6385C246.395 95.1312 245.418 94.4337 244.607 93.5459C243.808 92.6454 243.192 91.58 242.761 90.3498C242.33 89.1069 242.114 87.7561 242.114 86.2976C242.114 84.8137 242.324 83.4566 242.742 82.2264C243.173 80.9835 243.776 79.9181 244.55 79.0303C245.323 78.1298 246.249 77.4323 247.327 76.9376C248.405 76.4303 249.604 76.1767 250.923 76.1767C252.204 76.1767 253.358 76.4303 254.385 76.9376C255.412 77.4323 256.288 78.1298 257.01 79.0303C257.733 79.9181 258.285 80.9835 258.666 82.2264C259.059 83.4566 259.255 84.801 259.255 86.2596V87.2678H245.463ZM250.809 78.9732C249.997 78.9732 249.274 79.1318 248.64 79.4489C248.006 79.7659 247.46 80.1908 247.004 80.7235C246.56 81.2562 246.205 81.8713 245.938 82.5688C245.685 83.2537 245.539 83.964 245.501 84.6996H255.793C255.768 83.9513 255.634 83.2347 255.393 82.5498C255.165 81.8523 254.835 81.2435 254.404 80.7235C253.986 80.1908 253.472 79.7659 252.863 79.4489C252.267 79.1318 251.582 78.9732 250.809 78.9732Z" fill="black"/>
<path d="M272.344 68.7191H288.667V71.6108H275.692V80.5713H287.602V83.463H275.692V96H272.344V68.7191Z" fill="black"/>
<path d="M297.57 76.5572H301.432V79.3728H297.57V96H294.374V79.3728H291.14V76.5572H294.374V72.9425C294.374 72.1055 294.507 71.3952 294.774 70.8118C295.04 70.2284 295.408 69.7591 295.877 69.404C296.359 69.0362 296.923 68.7762 297.57 68.624C298.23 68.4591 298.946 68.3767 299.72 68.3767C300.506 68.3767 301.16 68.4148 301.68 68.4909C302.2 68.5543 302.586 68.605 302.84 68.643L302.593 71.3825C302.402 71.3699 302.18 71.3508 301.927 71.3255C301.686 71.3001 301.432 71.2811 301.166 71.2684C300.912 71.2557 300.665 71.243 300.424 71.2304C300.183 71.2177 299.986 71.2113 299.834 71.2113C299.378 71.2113 299.003 71.2811 298.712 71.4206C298.42 71.5474 298.185 71.7186 298.008 71.9343C297.843 72.1499 297.729 72.3972 297.665 72.6762C297.602 72.9552 297.57 73.2469 297.57 73.5513V76.5572Z" fill="black"/>
<path d="M323.595 93.4698C324.585 93.4698 325.46 93.3429 326.221 93.0893C326.995 92.8356 327.66 92.4995 328.218 92.081C328.789 91.6625 329.271 91.1805 329.664 90.6352C330.057 90.0898 330.368 89.5254 330.596 88.942C330.837 88.3459 331.009 87.7561 331.11 87.1727C331.224 86.5766 331.281 86.0249 331.281 85.5176V84.3952H323.634V81.5796H334.268V96H331.243V92.3283C330.774 93.0766 330.241 93.7107 329.645 94.2307C329.049 94.7507 328.415 95.1693 327.743 95.4863C327.071 95.8034 326.36 96.0317 325.612 96.1712C324.876 96.3107 324.128 96.3805 323.367 96.3805C321.503 96.3805 319.848 96.019 318.402 95.2961C316.956 94.5732 315.732 93.5839 314.73 92.3283C313.741 91.0727 312.986 89.5952 312.466 87.8956C311.946 86.1961 311.686 84.3635 311.686 82.3976C311.686 80.4445 311.972 78.6181 312.542 76.9186C313.113 75.2064 313.925 73.7225 314.977 72.4669C316.03 71.1986 317.298 70.203 318.782 69.4801C320.279 68.7445 321.953 68.3767 323.805 68.3767C324.946 68.3767 326.024 68.5162 327.039 68.7952C328.066 69.0616 329.011 69.4484 329.874 69.9557C330.736 70.4504 331.51 71.0465 332.194 71.744C332.879 72.4289 333.456 73.1899 333.926 74.0269L331.091 75.5108C330.761 74.8767 330.368 74.306 329.912 73.7986C329.455 73.2786 328.929 72.8347 328.333 72.4669C327.736 72.0991 327.064 71.8138 326.316 71.6108C325.58 71.4079 324.769 71.3065 323.881 71.3065C322.46 71.3065 321.211 71.6108 320.133 72.2196C319.055 72.8157 318.148 73.6147 317.413 74.6167C316.69 75.6186 316.144 76.7791 315.777 78.0981C315.409 79.4045 315.225 80.7615 315.225 82.1693V82.6449C315.225 84.0527 315.39 85.4098 315.719 86.7161C316.062 88.0225 316.576 89.1766 317.26 90.1786C317.958 91.1678 318.833 91.9669 319.886 92.5756C320.938 93.1717 322.175 93.4698 323.595 93.4698Z" fill="black"/>
<path d="M338.568 85.2132C338.568 83.9323 338.752 82.7401 339.119 81.6367C339.487 80.5332 340.013 79.582 340.698 78.783C341.383 77.9713 342.208 77.3372 343.172 76.8806C344.148 76.4113 345.239 76.1767 346.444 76.1767C347.509 76.1767 348.524 76.3859 349.488 76.8045C350.452 77.2103 351.27 77.8698 351.942 78.783V76.5572H355.138V96C355.138 97.2049 354.891 98.2132 354.396 99.0249C353.914 99.8493 353.28 100.509 352.493 101.003C351.707 101.498 350.813 101.853 349.811 102.069C348.822 102.284 347.813 102.392 346.786 102.392C346.215 102.392 345.619 102.36 344.998 102.297C344.389 102.234 343.774 102.139 343.152 102.012C342.531 101.885 341.916 101.72 341.307 101.517C340.711 101.327 340.14 101.099 339.595 100.832L340.755 98.1498C341.136 98.3273 341.535 98.4985 341.954 98.6634C342.373 98.841 342.823 98.9995 343.305 99.139C343.799 99.2785 344.326 99.3927 344.884 99.4815C345.442 99.5702 346.051 99.6146 346.71 99.6146C347.522 99.6146 348.251 99.5322 348.898 99.3673C349.557 99.2024 350.109 98.9424 350.553 98.5873C350.997 98.2449 351.339 97.801 351.58 97.2556C351.821 96.7229 351.942 96.0824 351.942 95.3342V91.6434C351.27 92.5566 350.452 93.2225 349.488 93.641C348.524 94.0468 347.509 94.2498 346.444 94.2498C345.239 94.2498 344.148 94.0215 343.172 93.5649C342.208 93.0956 341.383 92.4551 340.698 91.6434C340.013 90.8317 339.487 89.8805 339.119 88.7898C338.752 87.6864 338.568 86.4942 338.568 85.2132ZM352.018 85.1371C352.018 84.262 351.923 83.4566 351.732 82.721C351.542 81.9727 351.244 81.3259 350.838 80.7806C350.432 80.2225 349.912 79.7913 349.278 79.4869C348.657 79.1698 347.909 79.0113 347.033 79.0113C346.146 79.0113 345.378 79.1698 344.732 79.4869C344.085 79.804 343.546 80.2415 343.114 80.7996C342.696 81.3449 342.385 81.9918 342.182 82.7401C341.979 83.4884 341.878 84.2874 341.878 85.1371V85.2893C341.878 86.1391 341.979 86.9381 342.182 87.6864C342.385 88.422 342.696 89.0688 343.114 89.6269C343.546 90.1722 344.085 90.6034 344.732 90.9205C345.378 91.2376 346.146 91.3961 347.033 91.3961C347.909 91.3961 348.657 91.2439 349.278 90.9395C349.912 90.6225 350.432 90.1912 350.838 89.6459C351.244 89.1005 351.542 88.4537 351.732 87.7054C351.923 86.9571 352.018 86.1518 352.018 85.2893V85.1371Z" fill="black"/>
<path d="M387.308 83.463H372.945V96H369.596V68.7191H372.945V80.5713H387.308V68.7191H390.675V96H387.308V83.463Z" fill="black"/>
<path d="M397.086 68.7191H400.283V78.783C400.942 77.8825 401.754 77.223 402.718 76.8045C403.694 76.3859 404.779 76.1767 405.971 76.1767C407.049 76.1767 407.994 76.3542 408.805 76.7094C409.617 77.0645 410.296 77.5464 410.841 78.1552C411.386 78.764 411.792 79.4679 412.059 80.2669C412.338 81.0659 412.477 81.9093 412.477 82.7971V96H409.281V83.8054C409.281 82.9557 409.173 82.2327 408.958 81.6367C408.755 81.0279 408.469 80.5396 408.102 80.1718C407.746 79.7913 407.322 79.5186 406.827 79.3537C406.345 79.1762 405.825 79.0874 405.267 79.0874C404.658 79.0874 404.056 79.2015 403.46 79.4298C402.863 79.6454 402.331 79.9752 401.862 80.4191C401.392 80.863 401.012 81.421 400.72 82.0932C400.428 82.7654 400.283 83.5581 400.283 84.4713V96H397.086V68.7191Z" fill="black"/>
<path d="M426.783 68.7191H430.132V96H426.783V68.7191Z" fill="black"/>
<path d="M439.777 96H436.581V76.5572H439.777V96ZM435.991 70.945C435.991 70.6406 436.048 70.3552 436.162 70.0889C436.289 69.8226 436.448 69.5879 436.638 69.385C436.841 69.1821 437.076 69.0235 437.342 68.9094C437.621 68.7826 437.913 68.7191 438.217 68.7191C438.521 68.7191 438.807 68.7826 439.073 68.9094C439.339 69.0235 439.568 69.1821 439.758 69.385C439.961 69.5879 440.119 69.8226 440.234 70.0889C440.36 70.3552 440.424 70.6406 440.424 70.945C440.424 71.2494 440.36 71.5411 440.234 71.8201C440.119 72.0864 439.961 72.3211 439.758 72.524C439.568 72.7143 439.339 72.8728 439.073 72.9996C438.807 73.1138 438.521 73.1708 438.217 73.1708C437.913 73.1708 437.621 73.1138 437.342 72.9996C437.076 72.8728 436.841 72.7143 436.638 72.524C436.448 72.3211 436.289 72.0864 436.162 71.8201C436.048 71.5411 435.991 71.2494 435.991 70.945Z" fill="black"/>
<path d="M450.659 92.8039C451.09 92.9434 451.515 93.0639 451.934 93.1654C452.301 93.2542 452.688 93.3366 453.094 93.4127C453.512 93.4761 453.893 93.5078 454.235 93.5078C455.212 93.5078 455.979 93.4 456.537 93.1844C457.108 92.9688 457.539 92.639 457.831 92.1951C458.123 91.7512 458.307 91.1995 458.383 90.54C458.472 89.8678 458.516 89.0752 458.516 88.162V68.7191H461.864V90.4259C461.864 91.5547 461.661 92.4995 461.255 93.2605C460.85 94.0088 460.311 94.6176 459.638 95.0868C458.966 95.5561 458.193 95.8859 457.317 96.0761C456.455 96.279 455.554 96.3805 454.616 96.3805C453.779 96.3805 452.935 96.3107 452.086 96.1712C451.249 96.0317 450.456 95.8478 449.708 95.6195L450.659 92.8039Z" fill="black"/>
<path d="M471.319 99.0819C471.319 99.7288 471.205 100.261 470.977 100.68C470.761 101.111 470.476 101.454 470.121 101.707C469.778 101.961 469.385 102.139 468.941 102.24C468.497 102.341 468.053 102.392 467.61 102.392C467.001 102.392 466.43 102.354 465.897 102.278C465.365 102.215 465.003 102.164 464.813 102.126L465.232 99.5005C465.409 99.5385 465.637 99.5639 465.916 99.5766C466.208 99.6019 466.436 99.6146 466.601 99.6146C466.956 99.6146 467.235 99.5766 467.438 99.5005C467.654 99.4244 467.806 99.3166 467.895 99.1771C467.996 99.0376 468.06 98.8663 468.085 98.6634C468.111 98.4732 468.123 98.2576 468.123 98.0166V76.5572H471.319V99.0819ZM467.533 70.945C467.533 70.6406 467.591 70.3552 467.705 70.0889C467.832 69.8226 467.99 69.5879 468.18 69.385C468.383 69.1821 468.618 69.0235 468.884 68.9094C469.163 68.7826 469.455 68.7191 469.759 68.7191C470.064 68.7191 470.349 68.7826 470.615 68.9094C470.882 69.0235 471.11 69.1821 471.3 69.385C471.503 69.5879 471.662 69.8226 471.776 70.0889C471.903 70.3552 471.966 70.6406 471.966 70.945C471.966 71.2494 471.903 71.5411 471.776 71.8201C471.662 72.0864 471.503 72.3211 471.3 72.524C471.11 72.7143 470.882 72.8728 470.615 72.9996C470.349 73.1138 470.064 73.1708 469.759 73.1708C469.455 73.1708 469.163 73.1138 468.884 72.9996C468.618 72.8728 468.383 72.7143 468.18 72.524C467.99 72.3211 467.832 72.0864 467.705 71.8201C467.591 71.5411 467.533 71.2494 467.533 70.945Z" fill="black"/>
<path d="M4.7481 109.719H8.09638V124.33L19.8915 109.719H23.9817L15.0593 120.487L24.8758 137H20.9568L12.8144 122.941L8.09638 128.782V137H4.7481V109.719Z" fill="black"/>
<path d="M31.5534 127.107L40.704 117.557H44.7182L37.3177 125.281L45.0606 137H41.1606L35.0538 127.412L31.5534 131.007V137H28.3573V109.719H31.5534V127.107Z" fill="black"/>
<path d="M57.2932 109.719H60.6415V133.994H71.5424V137H57.2932V109.719Z" fill="black"/>
<path d="M75.1761 109.719H78.3722V132.643C78.3722 132.961 78.3975 133.24 78.4483 133.481C78.5117 133.721 78.6132 133.924 78.7527 134.089C78.8922 134.254 79.0824 134.381 79.3234 134.47C79.5771 134.546 79.8878 134.584 80.2556 134.584C80.6614 134.584 81.0292 134.571 81.359 134.546C81.6888 134.521 81.9805 134.495 82.2341 134.47L82.5575 137.152C82.1897 137.19 81.8219 137.228 81.4541 137.266C81.1371 137.292 80.7883 137.317 80.4078 137.342C80.0273 137.368 79.6658 137.38 79.3234 137.38C78.7527 137.38 78.2136 137.311 77.7063 137.171C77.199 137.044 76.7551 136.829 76.3746 136.524C76.0068 136.22 75.7151 135.827 75.4995 135.345C75.2839 134.863 75.1761 134.273 75.1761 133.576V109.719Z" fill="black"/>
<path d="M114.442 109.719H118.571V137H115.184V113.676L105.862 126.403H105.824L96.4453 113.695V137H93.1731V109.719H97.4345L105.919 121.324L114.442 109.719Z" fill="black"/>
<path d="M139.573 137H136.377V124.767C136.377 123.905 136.269 123.176 136.054 122.58C135.851 121.983 135.572 121.502 135.217 121.134C134.874 120.766 134.462 120.5 133.98 120.335C133.511 120.17 133.01 120.087 132.477 120.087C131.945 120.087 131.418 120.195 130.898 120.411C130.391 120.614 129.934 120.937 129.529 121.381C129.135 121.825 128.812 122.389 128.558 123.074C128.317 123.746 128.197 124.558 128.197 125.509V137H125.001V117.557H128.197V119.783C128.844 118.883 129.592 118.223 130.442 117.804C131.304 117.386 132.255 117.177 133.295 117.177C133.727 117.177 134.196 117.24 134.703 117.367C135.21 117.481 135.705 117.665 136.187 117.919C136.682 118.172 137.132 118.508 137.538 118.927C137.956 119.333 138.292 119.827 138.546 120.411C138.901 119.815 139.307 119.314 139.764 118.908C140.233 118.489 140.721 118.153 141.229 117.9C141.748 117.646 142.281 117.462 142.827 117.348C143.385 117.234 143.936 117.177 144.482 117.177C145.534 117.177 146.467 117.354 147.278 117.709C148.09 118.064 148.775 118.54 149.333 119.136C149.891 119.732 150.309 120.423 150.588 121.21C150.88 121.996 151.026 122.821 151.026 123.683V137H147.83V124.767C147.83 123.905 147.722 123.176 147.507 122.58C147.291 121.983 146.999 121.502 146.631 121.134C146.264 120.766 145.839 120.5 145.357 120.335C144.875 120.17 144.374 120.087 143.854 120.087C143.321 120.087 142.795 120.195 142.275 120.411C141.768 120.614 141.311 120.937 140.905 121.381C140.512 121.825 140.189 122.389 139.935 123.074C139.694 123.746 139.573 124.558 139.573 125.509V137Z" fill="black"/>
<path d="M168.623 113.695V137H165.351V109.719H169.936L184.319 133.024V109.719H187.591V137H182.987L168.623 113.695Z" fill="black"/>
<path d="M194.021 117.557H197.217V119.783C197.877 118.883 198.688 118.223 199.652 117.804C200.629 117.386 201.713 117.177 202.905 117.177C203.983 117.177 204.928 117.354 205.74 117.709C206.552 118.064 207.23 118.546 207.776 119.155C208.321 119.764 208.727 120.468 208.993 121.267C209.272 122.066 209.412 122.909 209.412 123.797V137H206.216V124.805C206.216 123.956 206.108 123.233 205.892 122.637C205.689 122.028 205.404 121.54 205.036 121.172C204.681 120.791 204.256 120.519 203.761 120.354C203.279 120.176 202.759 120.087 202.201 120.087C201.593 120.087 200.99 120.202 200.394 120.43C199.811 120.645 199.278 120.975 198.796 121.419C198.327 121.863 197.946 122.421 197.655 123.093C197.363 123.765 197.217 124.558 197.217 125.471V137H194.021V117.557Z" fill="black"/>
<path d="M222.12 123.398C222.12 121.444 222.393 119.618 222.938 117.919C223.496 116.206 224.289 114.723 225.316 113.467C226.343 112.199 227.593 111.203 229.064 110.48C230.535 109.745 232.19 109.377 234.029 109.377C235.868 109.377 237.523 109.745 238.994 110.48C240.466 111.203 241.715 112.199 242.742 113.467C243.782 114.723 244.575 116.206 245.12 117.919C245.678 119.618 245.957 121.444 245.957 123.398C245.957 125.363 245.678 127.196 245.12 128.896C244.575 130.595 243.782 132.073 242.742 133.328C241.715 134.584 240.466 135.573 238.994 136.296C237.523 137.019 235.868 137.38 234.029 137.38C232.19 137.38 230.535 137.019 229.064 136.296C227.593 135.573 226.343 134.584 225.316 133.328C224.289 132.073 223.496 130.595 222.938 128.896C222.393 127.196 222.12 125.363 222.12 123.398ZM242.419 123.131C242.419 121.723 242.254 120.366 241.924 119.06C241.607 117.754 241.106 116.6 240.421 115.598C239.736 114.596 238.861 113.797 237.796 113.201C236.743 112.605 235.488 112.306 234.029 112.306C232.571 112.306 231.315 112.605 230.262 113.201C229.21 113.797 228.341 114.596 227.656 115.598C226.971 116.6 226.464 117.754 226.134 119.06C225.817 120.366 225.658 121.723 225.658 123.131V123.645C225.658 125.053 225.817 126.41 226.134 127.716C226.464 129.022 226.971 130.177 227.656 131.179C228.341 132.168 229.21 132.967 230.262 133.576C231.315 134.172 232.571 134.47 234.029 134.47C235.488 134.47 236.743 134.172 237.796 133.576C238.861 132.967 239.736 132.168 240.421 131.179C241.106 130.177 241.607 129.022 241.924 127.716C242.254 126.41 242.419 125.053 242.419 123.645V123.131Z" fill="black"/>
<path d="M258.837 117.177C260.181 117.177 261.405 117.43 262.508 117.938C263.612 118.432 264.55 119.13 265.324 120.03C266.11 120.918 266.719 121.983 267.15 123.226C267.582 124.457 267.797 125.814 267.797 127.298C267.797 128.756 267.582 130.107 267.15 131.35C266.719 132.58 266.11 133.645 265.324 134.546C264.55 135.434 263.612 136.131 262.508 136.639C261.405 137.133 260.181 137.38 258.837 137.38C257.492 137.38 256.268 137.133 255.165 136.639C254.074 136.131 253.136 135.434 252.349 134.546C251.563 133.645 250.954 132.58 250.523 131.35C250.092 130.107 249.876 128.756 249.876 127.298C249.876 125.814 250.092 124.457 250.523 123.226C250.954 121.983 251.563 120.918 252.349 120.03C253.136 119.13 254.074 118.432 255.165 117.938C256.268 117.43 257.492 117.177 258.837 117.177ZM258.837 134.584C259.763 134.584 260.574 134.394 261.272 134.013C261.982 133.62 262.572 133.094 263.041 132.434C263.523 131.775 263.885 131.014 264.126 130.151C264.367 129.276 264.487 128.363 264.487 127.412V127.183C264.487 126.207 264.367 125.281 264.126 124.406C263.885 123.531 263.523 122.77 263.041 122.123C262.572 121.463 261.982 120.943 261.272 120.563C260.574 120.17 259.763 119.973 258.837 119.973C257.911 119.973 257.093 120.17 256.383 120.563C255.685 120.943 255.095 121.463 254.613 122.123C254.144 122.77 253.789 123.531 253.548 124.406C253.307 125.281 253.187 126.207 253.187 127.183V127.412C253.187 128.363 253.307 129.276 253.548 130.151C253.789 131.014 254.144 131.775 254.613 132.434C255.095 133.094 255.685 133.62 256.383 134.013C257.093 134.394 257.911 134.584 258.837 134.584Z" fill="black"/>
<path d="M281.095 109.719H290.664C291.945 109.719 293.106 109.935 294.146 110.366C295.186 110.785 296.074 111.374 296.809 112.135C297.558 112.884 298.128 113.784 298.521 114.837C298.927 115.889 299.13 117.044 299.13 118.299C299.13 119.567 298.908 120.728 298.464 121.781C298.033 122.821 297.424 123.715 296.638 124.463C295.852 125.211 294.913 125.795 293.822 126.213C292.744 126.619 291.565 126.822 290.284 126.822H284.443V137H281.095V109.719ZM295.573 118.223C295.573 117.424 295.446 116.682 295.192 115.997C294.939 115.312 294.571 114.723 294.089 114.228C293.607 113.721 293.017 113.327 292.32 113.048C291.635 112.757 290.855 112.611 289.98 112.611H284.443V123.949H289.98C290.855 123.949 291.635 123.81 292.32 123.531C293.017 123.252 293.607 122.871 294.089 122.389C294.571 121.895 294.939 121.311 295.192 120.639C295.446 119.954 295.573 119.212 295.573 118.413V118.223Z" fill="black"/>
<path d="M306.302 117.557V119.783C306.873 118.984 307.647 118.35 308.623 117.881C309.6 117.411 310.722 117.177 311.991 117.177C313.246 117.177 314.381 117.43 315.396 117.938C316.411 118.432 317.279 119.13 318.002 120.03C318.725 120.931 319.277 122.003 319.657 123.245C320.051 124.476 320.247 125.826 320.247 127.298C320.247 128.769 320.051 130.12 319.657 131.35C319.277 132.58 318.725 133.645 318.002 134.546C317.279 135.434 316.411 136.131 315.396 136.639C314.381 137.133 313.246 137.38 311.991 137.38C310.722 137.38 309.6 137.146 308.623 136.677C307.647 136.207 306.873 135.573 306.302 134.774V142.917H303.106V117.557H306.302ZM316.937 127.183C316.937 126.169 316.817 125.224 316.576 124.349C316.335 123.474 315.979 122.719 315.51 122.085C315.041 121.438 314.458 120.931 313.76 120.563C313.075 120.195 312.289 120.011 311.401 120.011C310.551 120.011 309.803 120.157 309.156 120.449C308.522 120.741 307.989 121.14 307.558 121.647C307.127 122.155 306.797 122.757 306.569 123.455C306.353 124.14 306.245 124.888 306.245 125.7V128.858C306.245 129.669 306.353 130.424 306.569 131.121C306.797 131.806 307.127 132.402 307.558 132.91C307.989 133.417 308.522 133.817 309.156 134.108C309.803 134.4 310.551 134.546 311.401 134.546C312.289 134.546 313.075 134.362 313.76 133.994C314.458 133.626 315.041 133.125 315.51 132.491C315.979 131.844 316.335 131.083 316.576 130.208C316.817 129.333 316.937 128.388 316.937 127.374V127.183Z" fill="black"/>
<path d="M332.004 123.398C332.004 121.444 332.277 119.618 332.822 117.919C333.38 116.206 334.173 114.723 335.2 113.467C336.228 112.199 337.477 111.203 338.948 110.48C340.419 109.745 342.074 109.377 343.913 109.377C345.752 109.377 347.408 109.745 348.879 110.48C350.35 111.203 351.599 112.199 352.627 113.467C353.667 114.723 354.459 116.206 355.005 117.919C355.563 119.618 355.842 121.444 355.842 123.398C355.842 125.363 355.563 127.196 355.005 128.896C354.459 130.595 353.667 132.073 352.627 133.328C352.322 133.709 351.992 134.064 351.637 134.394L354.472 137.894L352.132 139.759L349.202 136.125C349.101 136.188 348.993 136.245 348.879 136.296C347.408 137.019 345.752 137.38 343.913 137.38C342.074 137.38 340.419 137.019 338.948 136.296C337.477 135.573 336.228 134.584 335.2 133.328C334.173 132.073 333.38 130.595 332.822 128.896C332.277 127.196 332.004 125.363 332.004 123.398ZM352.303 123.131C352.303 121.723 352.138 120.366 351.809 119.06C351.492 117.754 350.991 116.6 350.306 115.598C349.621 114.596 348.746 113.797 347.68 113.201C346.628 112.605 345.372 112.306 343.913 112.306C342.455 112.306 341.199 112.605 340.147 113.201C339.094 113.797 338.225 114.596 337.54 115.598C336.855 116.6 336.348 117.754 336.018 119.06C335.701 120.366 335.543 121.723 335.543 123.131V123.645C335.543 125.053 335.701 126.41 336.018 127.716C336.348 129.022 336.855 130.177 337.54 131.179C338.225 132.168 339.094 132.967 340.147 133.576C341.199 134.172 342.455 134.47 343.913 134.47C345.194 134.47 346.323 134.235 347.3 133.766L342.981 128.382L345.321 126.518L349.697 131.959C349.913 131.705 350.115 131.445 350.306 131.179C350.991 130.177 351.492 129.022 351.809 127.716C352.138 126.41 352.303 125.053 352.303 123.645V123.131Z" fill="black"/>
<path d="M376.94 117.557V142.917H373.744V134.774C373.173 135.573 372.393 136.207 371.404 136.677C370.427 137.146 369.311 137.38 368.055 137.38C366.8 137.38 365.665 137.133 364.65 136.639C363.635 136.131 362.767 135.434 362.044 134.546C361.321 133.645 360.763 132.58 360.37 131.35C359.989 130.12 359.799 128.769 359.799 127.298C359.799 125.826 359.989 124.476 360.37 123.245C360.763 122.003 361.321 120.931 362.044 120.03C362.767 119.13 363.635 118.432 364.65 117.938C365.665 117.43 366.8 117.177 368.055 117.177C369.311 117.177 370.427 117.411 371.404 117.881C372.393 118.35 373.173 118.984 373.744 119.783V117.557H376.94ZM363.109 127.374C363.109 128.388 363.23 129.333 363.47 130.208C363.711 131.083 364.067 131.844 364.536 132.491C365.005 133.125 365.582 133.626 366.267 133.994C366.952 134.362 367.745 134.546 368.645 134.546C369.495 134.546 370.237 134.4 370.871 134.108C371.518 133.817 372.057 133.417 372.488 132.91C372.919 132.402 373.243 131.806 373.458 131.121C373.674 130.424 373.782 129.669 373.782 128.858V125.7C373.782 124.888 373.674 124.14 373.458 123.455C373.243 122.757 372.919 122.155 372.488 121.647C372.057 121.14 371.518 120.741 370.871 120.449C370.237 120.157 369.495 120.011 368.645 120.011C367.745 120.011 366.952 120.195 366.267 120.563C365.582 120.931 365.005 121.438 364.536 122.085C364.067 122.719 363.711 123.474 363.47 124.349C363.23 125.224 363.109 126.169 363.109 127.183V127.374Z" fill="black"/>
<path d="M391.436 109.719H400.739C402.007 109.719 403.193 109.878 404.297 110.195C405.4 110.512 406.358 111.006 407.169 111.679C407.994 112.338 408.641 113.182 409.11 114.209C409.579 115.236 409.814 116.454 409.814 117.862C409.814 118.724 409.693 119.548 409.452 120.335C409.211 121.108 408.862 121.825 408.406 122.484C407.949 123.131 407.379 123.708 406.694 124.216C406.022 124.71 405.248 125.116 404.373 125.433L410.327 137H406.58L401.139 126.099H394.784V137H391.436V109.719ZM400.929 123.169C401.703 123.169 402.42 123.055 403.079 122.827C403.739 122.586 404.309 122.243 404.791 121.8C405.273 121.356 405.647 120.81 405.914 120.163C406.18 119.517 406.313 118.781 406.313 117.957C406.313 117.107 406.18 116.352 405.914 115.693C405.647 115.021 405.273 114.456 404.791 114C404.309 113.543 403.739 113.201 403.079 112.972C402.42 112.731 401.703 112.611 400.929 112.611H394.784V123.169H400.929Z" fill="black"/>
<path d="M424.634 120.411H424.12C423.296 120.411 422.509 120.506 421.761 120.696C421.013 120.886 420.353 121.229 419.782 121.723C419.212 122.218 418.755 122.897 418.413 123.759C418.07 124.609 417.899 125.7 417.899 127.031V137H414.703V117.557H417.899V120.639C418.14 120.068 418.463 119.567 418.869 119.136C419.275 118.705 419.732 118.35 420.239 118.071C420.759 117.779 421.311 117.564 421.894 117.424C422.49 117.284 423.093 117.215 423.701 117.215H424.634V120.411Z" fill="black"/>
<path d="M436.067 130.684C437.259 132.016 438.54 132.98 439.91 133.576C441.293 134.172 442.738 134.47 444.248 134.47C445.288 134.47 446.214 134.343 447.025 134.089C447.85 133.823 448.541 133.461 449.099 133.005C449.657 132.548 450.075 132.028 450.354 131.445C450.646 130.861 450.792 130.246 450.792 129.6C450.792 128.686 450.602 127.951 450.221 127.393C449.841 126.835 449.34 126.384 448.718 126.042C448.097 125.687 447.374 125.414 446.55 125.224C445.738 125.021 444.888 124.831 444 124.653L443.62 124.577C443.024 124.463 442.402 124.343 441.755 124.216C441.121 124.089 440.494 123.924 439.872 123.721C439.251 123.505 438.648 123.252 438.065 122.96C437.481 122.656 436.968 122.282 436.524 121.838C435.928 121.292 435.433 120.626 435.04 119.84C434.659 119.041 434.469 118.058 434.469 116.891C434.469 116.067 434.647 115.211 435.002 114.323C435.37 113.435 435.947 112.624 436.733 111.888C437.532 111.152 438.547 110.55 439.777 110.081C441.007 109.611 442.497 109.377 444.248 109.377C446.188 109.377 447.976 109.725 449.613 110.423C450.285 110.715 450.925 111.064 451.534 111.469C452.155 111.863 452.764 112.357 453.36 112.953L450.83 115.027C449.892 114.088 448.82 113.404 447.615 112.972C446.41 112.528 445.18 112.306 443.924 112.306C443.024 112.306 442.199 112.414 441.451 112.63C440.716 112.845 440.081 113.156 439.549 113.562C439.016 113.968 438.604 114.437 438.312 114.97C438.033 115.503 437.894 116.08 437.894 116.701C437.894 117.564 438.077 118.261 438.445 118.794C438.826 119.326 439.32 119.758 439.929 120.087C440.538 120.404 441.223 120.652 441.984 120.829C442.757 121.007 443.537 121.178 444.324 121.343L444.514 121.381C445.782 121.635 447.006 121.933 448.186 122.275C449.378 122.605 450.412 123.068 451.287 123.664C452.174 124.247 452.885 124.989 453.417 125.89C453.95 126.778 454.216 127.925 454.216 129.333C454.216 130.335 454.007 131.324 453.589 132.301C453.17 133.278 452.542 134.146 451.705 134.907C450.881 135.656 449.841 136.258 448.585 136.715C447.33 137.159 445.852 137.38 444.153 137.38C442.834 137.38 441.616 137.241 440.5 136.962C439.384 136.67 438.357 136.296 437.418 135.84C436.72 135.472 436.042 135.047 435.382 134.565C434.736 134.083 434.089 133.506 433.442 132.834L436.067 130.684Z" fill="black"/>
<path d="M471.433 131.616C471.433 132.529 471.23 133.347 470.825 134.07C470.431 134.78 469.905 135.383 469.246 135.878C468.586 136.372 467.825 136.746 466.963 137C466.113 137.254 465.238 137.38 464.337 137.38C462.917 137.38 461.547 137.14 460.228 136.658C458.922 136.163 457.761 135.459 456.747 134.546L458.497 132.282C458.801 132.548 459.15 132.827 459.543 133.119C459.949 133.411 460.399 133.683 460.894 133.937C461.389 134.178 461.921 134.381 462.492 134.546C463.063 134.698 463.665 134.774 464.299 134.774C464.819 134.774 465.314 134.711 465.783 134.584C466.265 134.444 466.684 134.248 467.039 133.994C467.394 133.728 467.673 133.417 467.876 133.062C468.091 132.694 468.199 132.282 468.199 131.825C468.199 131.318 468.085 130.893 467.857 130.551C467.641 130.208 467.343 129.917 466.963 129.676C466.582 129.435 466.138 129.225 465.631 129.048C465.124 128.87 464.591 128.693 464.033 128.515L462.815 128.116C462.131 127.887 461.471 127.627 460.837 127.336C460.203 127.044 459.638 126.689 459.144 126.27C458.662 125.839 458.275 125.332 457.983 124.748C457.704 124.165 457.565 123.467 457.565 122.656C457.565 121.996 457.704 121.343 457.983 120.696C458.262 120.037 458.687 119.447 459.258 118.927C459.841 118.407 460.577 117.988 461.465 117.671C462.352 117.342 463.399 117.177 464.604 117.177C465.935 117.177 467.166 117.399 468.294 117.843C469.436 118.286 470.4 118.838 471.186 119.498L469.512 121.8C469.233 121.533 468.903 121.28 468.523 121.039C468.142 120.798 467.736 120.588 467.305 120.411C466.874 120.221 466.424 120.068 465.954 119.954C465.485 119.84 465.022 119.783 464.566 119.783C463.868 119.783 463.278 119.865 462.796 120.03C462.314 120.183 461.928 120.385 461.636 120.639C461.344 120.893 461.129 121.178 460.989 121.495C460.862 121.812 460.799 122.123 460.799 122.427C460.799 122.871 460.894 123.245 461.084 123.55C461.274 123.842 461.522 124.095 461.826 124.311C462.143 124.526 462.498 124.71 462.891 124.862C463.297 125.015 463.716 125.167 464.147 125.319L465.745 125.852C466.506 126.105 467.204 126.378 467.838 126.67C468.472 126.949 469.03 127.272 469.512 127.64C470.121 128.122 470.59 128.68 470.92 129.314C471.262 129.948 471.433 130.716 471.433 131.616Z" fill="black"/>
<path d="M1.81836 149.719H20.5193V152.725H12.8525V177H9.48516V152.725H1.81836V149.719Z" fill="black"/>
<path d="M27.9768 172.168C27.9768 172.498 27.9958 172.808 28.0339 173.1C28.0846 173.379 28.1924 173.626 28.3573 173.842C28.5348 174.058 28.7885 174.229 29.1182 174.356C29.448 174.482 29.8982 174.546 30.469 174.546C30.6212 174.546 30.7987 174.54 31.0016 174.527C31.2173 174.514 31.4392 174.501 31.6675 174.489C31.8958 174.463 32.1177 174.438 32.3334 174.413C32.549 174.375 32.7329 174.343 32.8851 174.318L33.2275 177.114C32.8597 177.165 32.4792 177.209 32.086 177.247C31.7563 177.285 31.3885 177.317 30.9826 177.342C30.5768 177.368 30.1709 177.38 29.7651 177.38C28.9914 177.38 28.2939 177.298 27.6724 177.133C27.0636 176.981 26.5436 176.727 26.1124 176.372C25.6812 176.017 25.3514 175.554 25.1231 174.983C24.8948 174.4 24.7807 173.696 24.7807 172.872V160.373H21.109V157.557H24.7807V151.203L27.9768 150.081V157.557H33.3797V160.373H27.9768V172.168Z" fill="black"/>
<path d="M55.7332 174.47C56.6211 174.47 57.4708 174.33 58.2825 174.051C59.1069 173.76 59.8298 173.316 60.4513 172.72C61.0854 172.123 61.5927 171.369 61.9732 170.456C62.3537 169.53 62.544 168.426 62.544 167.145V149.719H65.8161V167.602C65.8161 169.099 65.5561 170.449 65.0361 171.654C64.5161 172.859 63.8059 173.886 62.9054 174.736C62.0049 175.586 60.9396 176.239 59.7093 176.696C58.4791 177.152 57.1537 177.38 55.7332 177.38C54.3255 177.38 53.0064 177.152 51.7762 176.696C50.5586 176.239 49.4933 175.586 48.5801 174.736C47.6796 173.886 46.9694 172.859 46.4494 171.654C45.9294 170.449 45.6694 169.099 45.6694 167.602V149.719H48.9796V167.145C48.9796 168.426 49.1635 169.53 49.5313 170.456C49.9118 171.369 50.4128 172.123 51.0342 172.72C51.6557 173.316 52.3723 173.76 53.184 174.051C54.0084 174.33 54.8581 174.47 55.7332 174.47Z" fill="black"/>
<path d="M86.9902 177H83.7941V174.774C83.1346 175.675 82.3165 176.334 81.34 176.753C80.3761 177.171 79.298 177.38 78.1058 177.38C77.0278 177.38 76.0829 177.203 75.2712 176.848C74.4595 176.493 73.781 176.011 73.2356 175.402C72.6902 174.793 72.2781 174.089 71.999 173.29C71.7327 172.491 71.5995 171.648 71.5995 170.76V157.557H74.7956V169.752C74.7956 170.614 74.8971 171.343 75.1 171.94C75.3156 172.536 75.601 173.024 75.9561 173.404C76.3239 173.772 76.7488 174.045 77.2307 174.222C77.7254 174.387 78.2517 174.47 78.8097 174.47C79.4692 174.47 80.097 174.362 80.6931 174.146C81.3019 173.918 81.8346 173.582 82.2912 173.138C82.7478 172.694 83.1092 172.136 83.3756 171.464C83.6546 170.792 83.7941 169.999 83.7941 169.086V157.557H86.9902V177Z" fill="black"/>
<path d="M115.508 149.719H119.065L110.599 177H105.767L97.2443 149.719H100.935L108.107 174.108H108.431L115.508 149.719Z" fill="black"/>
<path d="M126.618 177L120.454 157.557H124.088L128.749 174.032L133.39 157.557H137.024L130.86 177H126.618Z" fill="black"/>
<path d="M168.928 172.168H169.118L173.76 149.719H177.184L171.116 177H167.14L161.337 154.723L155.554 177H151.559L145.509 149.719H148.895L153.613 172.168H153.842L159.777 149.719H163.011L168.928 172.168Z" fill="black"/>
<path d="M198.244 173.214L201.764 157.557H205.15L200.394 177H196.304L192.366 161.419L188.352 177H184.414L179.696 157.557H183.139L186.525 173.214L190.616 157.557H194.23L198.244 173.214Z" fill="black"/>
<path d="M235.418 149.719L227.275 162.694L236.084 177H232.26L225.373 165.623L218.353 177H214.776L223.585 162.903L215.518 149.719H219.323L225.525 159.973L231.841 149.719H235.418Z" fill="black"/>
<path d="M243.922 166.746L237.967 157.557H241.62L245.786 164.254L249.762 157.557H253.472L247.536 166.746L254.29 177H250.466L245.596 169.447L241.163 177H237.377L243.922 166.746Z" fill="black"/>
<path d="M266.199 149.719L272.896 162.656H272.972L279.649 149.719H283.302L274.532 165.852V177H271.184V165.852L262.375 149.719H266.199Z" fill="black"/>
<path d="M283.568 157.557H287.183L291.977 173.614L296.543 157.557H300.12L293.042 179.93C292.827 180.615 292.548 181.173 292.205 181.604C291.863 182.048 291.47 182.397 291.026 182.65C290.595 182.917 290.113 183.1 289.58 183.202C289.047 183.303 288.483 183.354 287.887 183.354C287.354 183.354 286.803 183.322 286.232 183.259C285.661 183.208 285.059 183.132 284.424 183.031L284.9 180.234C285.154 180.285 285.426 180.329 285.718 180.367C285.959 180.405 286.232 180.437 286.536 180.462C286.841 180.488 287.151 180.5 287.468 180.5C288.166 180.5 288.705 180.348 289.085 180.044C289.479 179.74 289.758 179.245 289.922 178.56L290.113 177.666L283.568 157.557Z" fill="black"/>
<path d="M323.995 152.725H310.24V149.719H327.534V153.201L313.151 173.994H327.686V177H309.651V173.538L323.995 152.725Z" fill="black"/>
<path d="M331.148 174.108L341.745 160.373H331.776V157.557H345.283V160.525L334.725 174.241H345.797V177H331.148V174.108Z" fill="black"/>
<path d="M3.37835 195.133C4.26615 195.133 4.98908 195.063 5.54712 194.924C6.10517 194.771 6.53639 194.537 6.84078 194.22C7.14517 193.903 7.34809 193.497 7.44955 193.002C7.5637 192.495 7.62077 191.88 7.62077 191.157V190.719H10.8549V218H7.50663V197.967H2.19885V195.133H3.37835Z" fill="black"/>
<path d="M22.5168 215.07H36.1192V218H17.951V214.804C19.6885 213.637 21.2549 212.559 22.65 211.57C24.0451 210.581 25.2753 209.648 26.3407 208.773C27.4061 207.885 28.3192 207.042 29.0802 206.243C29.8538 205.444 30.488 204.651 30.9826 203.865C31.4773 203.079 31.8387 202.286 32.067 201.487C32.2953 200.688 32.4094 199.844 32.4094 198.957C32.4094 198.196 32.2763 197.473 32.0099 196.788C31.7563 196.103 31.3821 195.507 30.8875 195C30.4056 194.48 29.8031 194.067 29.0802 193.763C28.37 193.459 27.5582 193.306 26.6451 193.306C25.9095 193.306 25.1992 193.414 24.5144 193.63C23.8422 193.833 23.2397 194.163 22.7071 194.619C22.1871 195.076 21.7622 195.665 21.4324 196.388C21.1027 197.099 20.9188 197.955 20.8807 198.957L17.7227 198.595C17.7734 197.327 18.0207 196.185 18.4646 195.171C18.9085 194.156 19.5173 193.294 20.291 192.584C21.0773 191.873 22.0095 191.328 23.0875 190.947C24.1783 190.567 25.3895 190.377 26.7212 190.377C28.0148 190.377 29.2134 190.592 30.3168 191.024C31.4329 191.442 32.3968 192.032 33.2085 192.793C34.0329 193.554 34.6733 194.454 35.1299 195.494C35.5992 196.534 35.8338 197.669 35.8338 198.9C35.8338 200.358 35.5802 201.728 35.0729 203.009C34.5782 204.29 33.8172 205.552 32.7899 206.795C31.7626 208.025 30.4563 209.268 28.8709 210.523C27.2982 211.779 25.4402 213.104 23.2968 214.5L22.5168 214.994V215.07Z" fill="black"/>
<path d="M42.8918 211.018C43.4118 212.324 44.2045 213.396 45.2699 214.233C46.3352 215.058 47.7494 215.47 49.5123 215.47C50.4762 215.47 51.3196 215.343 52.0425 215.089C52.7781 214.823 53.3933 214.461 53.8879 214.005C54.3825 213.548 54.7503 213.022 54.9913 212.426C55.245 211.83 55.3718 211.183 55.3718 210.485C55.3718 208.951 54.7694 207.765 53.5645 206.928C52.3723 206.078 50.8313 205.653 48.9416 205.653H47.7621V202.723H48.8274C49.8674 202.723 50.7679 202.584 51.5289 202.305C52.2899 202.013 52.924 201.633 53.4313 201.163C53.9386 200.694 54.3128 200.168 54.5537 199.584C54.8074 199.001 54.9342 198.411 54.9342 197.815C54.9342 197.244 54.8137 196.686 54.5728 196.141C54.3445 195.596 54.0084 195.107 53.5645 194.676C53.1333 194.245 52.5752 193.909 51.8903 193.668C51.2182 193.427 50.4572 193.306 49.6074 193.306C48.0982 193.306 46.8172 193.693 45.7645 194.467C44.7118 195.241 43.9382 196.204 43.4436 197.359L40.647 195.989C41.4206 194.201 42.6065 192.818 44.2045 191.842C45.8026 190.865 47.6035 190.377 49.6074 190.377C50.8757 190.377 52.0425 190.561 53.1079 190.928C54.1733 191.284 55.0928 191.797 55.8664 192.469C56.6528 193.129 57.2615 193.909 57.6928 194.809C58.1367 195.697 58.3586 196.661 58.3586 197.701C58.3586 198.538 58.2254 199.299 57.9591 199.984C57.7054 200.669 57.3503 201.284 56.8937 201.829C56.4498 202.375 55.9108 202.831 55.2767 203.199C54.6552 203.554 53.9957 203.802 53.2981 203.941C54.1098 204.068 54.8581 204.328 55.543 204.721C56.2279 205.102 56.8176 205.577 57.3123 206.148C57.8069 206.719 58.1937 207.378 58.4728 208.126C58.7645 208.862 58.9103 209.636 58.9103 210.447C58.9103 211.741 58.6567 212.882 58.1493 213.872C57.642 214.861 56.9508 215.692 56.0757 216.364C55.2133 217.036 54.2176 217.543 53.0889 217.886C51.9601 218.216 50.7679 218.38 49.5123 218.38C47.2801 218.38 45.2826 217.867 43.5196 216.84C41.7567 215.8 40.5075 214.316 39.7719 212.388L42.8918 211.018Z" fill="black"/>
<path d="M76.4317 208.145V193.611L65.9113 208.145H76.4317ZM76.4317 218V210.942H62.7152V207.632L75.0619 190.719H79.78V208.145H84.2507V210.942H79.78V218H76.4317Z" fill="black"/>
<path d="M88.6643 204.131L90.0911 190.719H105.672V193.649H92.7926L91.9746 201.411C92.7102 200.701 93.5916 200.168 94.6189 199.813C95.6462 199.445 96.6989 199.261 97.777 199.261C99.0706 199.261 100.263 199.502 101.354 199.984C102.457 200.453 103.408 201.106 104.207 201.943C105.019 202.781 105.647 203.77 106.091 204.911C106.547 206.053 106.775 207.283 106.775 208.602C106.775 210.073 106.534 211.411 106.053 212.616C105.583 213.821 104.917 214.855 104.055 215.717C103.193 216.567 102.165 217.226 100.973 217.696C99.7809 218.152 98.4682 218.38 97.035 218.38C95.9062 218.38 94.8345 218.254 93.8199 218C92.818 217.734 91.9111 217.34 91.0994 216.82C90.2877 216.288 89.5902 215.635 89.0068 214.861C88.436 214.075 88.0302 213.161 87.7892 212.121L91.1185 211.418C91.258 211.963 91.4926 212.483 91.8224 212.978C92.1521 213.46 92.5706 213.891 93.078 214.271C93.5853 214.639 94.1687 214.931 94.8282 215.146C95.4877 215.362 96.2233 215.47 97.035 215.47C98.0116 215.47 98.8867 215.305 99.6604 214.975C100.434 214.645 101.087 214.189 101.62 213.605C102.153 213.009 102.558 212.305 102.837 211.494C103.129 210.682 103.275 209.801 103.275 208.849C103.275 207.86 103.129 206.96 102.837 206.148C102.558 205.336 102.146 204.639 101.601 204.055C101.068 203.459 100.415 203.003 99.6413 202.685C98.8677 202.356 97.9862 202.191 96.997 202.191C96.5277 202.191 96.0458 202.248 95.5511 202.362C95.0692 202.476 94.5999 202.635 94.1433 202.838C93.6994 203.041 93.2809 203.288 92.8877 203.58C92.4945 203.871 92.1585 204.195 91.8794 204.55L88.6643 204.131Z" fill="black"/>
<path d="M111.17 205.178C111.17 203.947 111.253 202.73 111.417 201.525C111.595 200.307 111.861 199.147 112.216 198.044C112.584 196.94 113.047 195.919 113.605 194.981C114.176 194.042 114.861 193.23 115.66 192.545C116.472 191.861 117.397 191.322 118.437 190.928C119.49 190.535 120.676 190.339 121.995 190.339C122.946 190.339 123.834 190.453 124.658 190.681C125.483 190.897 126.231 191.201 126.903 191.594C127.588 191.975 128.197 192.431 128.73 192.964C129.262 193.497 129.719 194.074 130.099 194.695L126.827 195.723C125.61 193.972 123.999 193.097 121.995 193.097C120.689 193.097 119.566 193.408 118.628 194.029C117.702 194.651 116.934 195.475 116.326 196.503C115.717 197.517 115.26 198.684 114.956 200.003C114.664 201.309 114.506 202.66 114.48 204.055H114.556C114.785 203.586 115.121 203.123 115.565 202.666C116.021 202.21 116.56 201.798 117.182 201.43C117.816 201.062 118.526 200.764 119.312 200.536C120.112 200.307 120.968 200.193 121.881 200.193C123.174 200.193 124.36 200.422 125.438 200.878C126.529 201.322 127.468 201.943 128.254 202.743C129.053 203.542 129.668 204.486 130.099 205.577C130.543 206.668 130.765 207.847 130.765 209.116C130.765 210.422 130.53 211.646 130.061 212.787C129.605 213.916 128.958 214.899 128.121 215.736C127.296 216.573 126.307 217.233 125.153 217.715C123.999 218.197 122.737 218.438 121.367 218.438C119.921 218.438 118.577 218.165 117.334 217.62C116.091 217.074 115.013 216.269 114.1 215.203C113.187 214.138 112.47 212.825 111.95 211.265C111.43 209.693 111.17 207.885 111.17 205.843V205.178ZM115.07 209.23C115.07 210.181 115.222 211.05 115.527 211.836C115.844 212.61 116.275 213.282 116.82 213.853C117.366 214.411 118.012 214.848 118.761 215.165C119.522 215.47 120.352 215.622 121.253 215.622C122.128 215.622 122.94 215.476 123.688 215.184C124.436 214.88 125.083 214.455 125.629 213.91C126.174 213.364 126.599 212.705 126.903 211.931C127.22 211.158 127.379 210.295 127.379 209.344C127.379 208.38 127.227 207.511 126.922 206.738C126.618 205.951 126.193 205.285 125.648 204.74C125.102 204.182 124.449 203.757 123.688 203.465C122.94 203.161 122.115 203.009 121.215 203.009C120.314 203.009 119.484 203.161 118.723 203.465C117.974 203.757 117.328 204.176 116.782 204.721C116.237 205.266 115.812 205.926 115.508 206.7C115.216 207.461 115.07 208.304 115.07 209.23Z" fill="black"/>
<path d="M148.781 193.763H134.323V190.719H152.206V193.763L142.066 218H138.337L148.781 193.763Z" fill="black"/>
<path d="M165.351 190.377C166.505 190.377 167.622 190.542 168.7 190.871C169.79 191.188 170.754 191.658 171.591 192.279C172.441 192.888 173.12 193.649 173.627 194.562C174.134 195.475 174.388 196.522 174.388 197.701C174.388 198.31 174.305 198.925 174.141 199.546C173.988 200.155 173.728 200.739 173.361 201.297C173.005 201.842 172.53 202.337 171.934 202.781C171.338 203.224 170.608 203.586 169.746 203.865C170.71 204.131 171.534 204.512 172.219 205.006C172.917 205.488 173.487 206.04 173.931 206.662C174.388 207.283 174.718 207.949 174.921 208.659C175.136 209.357 175.244 210.067 175.244 210.79C175.244 212.033 174.965 213.13 174.407 214.081C173.849 215.032 173.107 215.825 172.181 216.459C171.255 217.093 170.196 217.575 169.004 217.905C167.824 218.222 166.607 218.38 165.351 218.38C164.096 218.38 162.872 218.222 161.68 217.905C160.487 217.575 159.428 217.093 158.503 216.459C157.577 215.825 156.835 215.032 156.277 214.081C155.719 213.13 155.44 212.033 155.44 210.79C155.44 210.067 155.541 209.357 155.744 208.659C155.96 207.949 156.289 207.283 156.733 206.662C157.19 206.04 157.761 205.488 158.445 205.006C159.143 204.512 159.974 204.131 160.938 203.865C160.075 203.586 159.346 203.224 158.75 202.781C158.166 202.337 157.691 201.842 157.323 201.297C156.968 200.739 156.708 200.155 156.543 199.546C156.391 198.925 156.315 198.31 156.315 197.701C156.315 196.522 156.568 195.475 157.076 194.562C157.583 193.649 158.255 192.888 159.092 192.279C159.929 191.658 160.887 191.188 161.965 190.871C163.056 190.542 164.184 190.377 165.351 190.377ZM159.663 197.967C159.663 198.716 159.822 199.388 160.139 199.984C160.456 200.567 160.874 201.062 161.394 201.468C161.914 201.861 162.517 202.165 163.202 202.381C163.886 202.584 164.603 202.685 165.351 202.685C166.087 202.685 166.797 202.584 167.482 202.381C168.167 202.165 168.769 201.861 169.289 201.468C169.822 201.062 170.247 200.567 170.564 199.984C170.881 199.388 171.04 198.716 171.04 197.967C171.04 197.219 170.881 196.553 170.564 195.97C170.247 195.386 169.822 194.898 169.289 194.505C168.769 194.099 168.167 193.795 167.482 193.592C166.797 193.376 166.087 193.268 165.351 193.268C164.603 193.268 163.886 193.376 163.202 193.592C162.517 193.795 161.914 194.099 161.394 194.505C160.874 194.898 160.456 195.386 160.139 195.97C159.822 196.553 159.663 197.219 159.663 197.967ZM158.845 210.523C158.845 211.373 159.023 212.109 159.378 212.73C159.733 213.352 160.208 213.872 160.805 214.29C161.401 214.696 162.092 215.001 162.878 215.203C163.664 215.406 164.489 215.508 165.351 215.508C166.201 215.508 167.019 215.406 167.805 215.203C168.592 215.001 169.283 214.696 169.879 214.29C170.488 213.872 170.97 213.352 171.325 212.73C171.68 212.109 171.858 211.373 171.858 210.523C171.858 209.674 171.68 208.938 171.325 208.317C170.97 207.695 170.488 207.182 169.879 206.776C169.283 206.357 168.592 206.046 167.805 205.843C167.019 205.641 166.201 205.539 165.351 205.539C164.489 205.539 163.664 205.641 162.878 205.843C162.092 206.046 161.401 206.357 160.805 206.776C160.208 207.182 159.733 207.695 159.378 208.317C159.023 208.938 158.845 209.674 158.845 210.523Z" fill="black"/>
<path d="M198.91 203.58C198.91 204.81 198.821 206.034 198.644 207.251C198.479 208.469 198.213 209.629 197.845 210.733C197.49 211.823 197.027 212.844 196.456 213.796C195.885 214.734 195.194 215.546 194.382 216.231C193.583 216.916 192.658 217.455 191.605 217.848C190.565 218.241 189.385 218.438 188.066 218.438C187.115 218.438 186.227 218.323 185.403 218.095C184.591 217.88 183.843 217.575 183.158 217.182C182.473 216.789 181.864 216.326 181.332 215.793C180.799 215.261 180.342 214.683 179.962 214.062L183.234 213.054C183.868 213.929 184.579 214.582 185.365 215.013C186.151 215.444 187.052 215.66 188.066 215.66C188.941 215.66 189.728 215.521 190.425 215.241C191.136 214.95 191.763 214.557 192.309 214.062C192.867 213.555 193.342 212.959 193.736 212.274C194.141 211.589 194.478 210.841 194.744 210.029C195.01 209.217 195.213 208.361 195.353 207.461C195.492 206.56 195.575 205.647 195.6 204.721H195.524C195.283 205.19 194.934 205.653 194.478 206.11C194.034 206.566 193.495 206.979 192.86 207.346C192.239 207.702 191.529 207.993 190.73 208.222C189.943 208.45 189.094 208.564 188.18 208.564C186.887 208.564 185.695 208.342 184.604 207.898C183.526 207.442 182.594 206.82 181.807 206.034C181.021 205.235 180.406 204.29 179.962 203.199C179.531 202.108 179.315 200.923 179.315 199.642C179.315 198.335 179.543 197.118 180 195.989C180.469 194.86 181.116 193.877 181.941 193.04C182.765 192.203 183.754 191.544 184.908 191.062C186.062 190.58 187.324 190.339 188.694 190.339C190.14 190.339 191.484 190.611 192.727 191.157C193.97 191.702 195.048 192.507 195.961 193.573C196.875 194.638 197.591 195.957 198.111 197.53C198.644 199.09 198.91 200.884 198.91 202.914V203.58ZM195.01 199.527C195.01 198.589 194.852 197.726 194.535 196.94C194.23 196.154 193.799 195.482 193.241 194.924C192.696 194.353 192.042 193.915 191.281 193.611C190.533 193.294 189.709 193.135 188.808 193.135C187.933 193.135 187.121 193.287 186.373 193.592C185.625 193.884 184.978 194.302 184.433 194.847C183.9 195.393 183.475 196.052 183.158 196.826C182.854 197.6 182.701 198.462 182.701 199.413C182.701 200.377 182.854 201.252 183.158 202.039C183.462 202.825 183.887 203.497 184.433 204.055C184.978 204.601 185.625 205.025 186.373 205.33C187.121 205.622 187.946 205.767 188.846 205.767C189.76 205.767 190.59 205.622 191.339 205.33C192.099 205.025 192.746 204.601 193.279 204.055C193.824 203.51 194.249 202.857 194.554 202.096C194.858 201.322 195.01 200.466 195.01 199.527Z" fill="black"/>
<path d="M213.483 215.432C214.371 215.432 215.195 215.197 215.956 214.728C216.73 214.259 217.389 213.586 217.935 212.711C218.493 211.823 218.93 210.739 219.247 209.458C219.564 208.164 219.723 206.7 219.723 205.063V203.694C219.723 202.058 219.564 200.599 219.247 199.318C218.93 198.037 218.493 196.953 217.935 196.065C217.389 195.177 216.73 194.505 215.956 194.048C215.195 193.579 214.371 193.344 213.483 193.344C212.582 193.344 211.752 193.579 210.991 194.048C210.23 194.505 209.57 195.177 209.012 196.065C208.467 196.953 208.036 198.037 207.718 199.318C207.401 200.599 207.243 202.058 207.243 203.694V205.063C207.243 206.7 207.401 208.164 207.718 209.458C208.036 210.739 208.467 211.823 209.012 212.711C209.57 213.586 210.23 214.259 210.991 214.728C211.752 215.197 212.582 215.432 213.483 215.432ZM213.483 190.377C214.65 190.377 215.702 190.561 216.641 190.928C217.579 191.296 218.404 191.804 219.114 192.45C219.837 193.084 220.452 193.845 220.959 194.733C221.479 195.621 221.904 196.585 222.234 197.625C222.564 198.652 222.805 199.743 222.957 200.897C223.109 202.051 223.185 203.218 223.185 204.398C223.185 205.577 223.109 206.744 222.957 207.898C222.805 209.04 222.564 210.13 222.234 211.17C221.904 212.198 221.479 213.155 220.959 214.043C220.452 214.918 219.837 215.679 219.114 216.326C218.404 216.973 217.579 217.48 216.641 217.848C215.702 218.203 214.65 218.38 213.483 218.38C212.316 218.38 211.263 218.203 210.325 217.848C209.386 217.48 208.556 216.973 207.833 216.326C207.122 215.679 206.507 214.918 205.987 214.043C205.48 213.155 205.061 212.198 204.732 211.17C204.402 210.13 204.161 209.04 204.009 207.898C203.857 206.744 203.78 205.577 203.78 204.398C203.78 203.218 203.857 202.051 204.009 200.897C204.161 199.743 204.402 198.652 204.732 197.625C205.061 196.585 205.48 195.621 205.987 194.733C206.507 193.845 207.122 193.084 207.833 192.45C208.556 191.804 209.386 191.296 210.325 190.928C211.263 190.561 212.316 190.377 213.483 190.377Z" fill="black"/>
<path d="M4.50079 231.719H8.02028L7.58273 249.773H4.86225L4.50079 231.719ZM4.00615 257.174C4.00615 256.869 4.06323 256.584 4.17737 256.318C4.29152 256.039 4.44371 255.804 4.63396 255.614C4.83688 255.411 5.07152 255.252 5.33786 255.138C5.61688 255.011 5.90859 254.948 6.21297 254.948C6.51736 254.948 6.80273 255.011 7.06907 255.138C7.34809 255.252 7.58272 255.411 7.77297 255.614C7.97589 255.804 8.13443 256.039 8.24858 256.318C8.3754 256.584 8.43882 256.869 8.43882 257.174C8.43882 257.478 8.3754 257.77 8.24858 258.049C8.13443 258.315 7.97589 258.55 7.77297 258.753C7.58272 258.943 7.34809 259.095 7.06907 259.209C6.80273 259.323 6.51736 259.38 6.21297 259.38C5.90859 259.38 5.61688 259.323 5.33786 259.209C5.07152 259.095 4.83688 258.943 4.63396 258.753C4.44371 258.55 4.29152 258.315 4.17737 258.049C4.06323 257.77 4.00615 257.478 4.00615 257.174Z" fill="black"/>
<path d="M36.3285 256.394C36.0368 256.8 35.7133 257.18 35.3582 257.535C35.0158 257.89 34.6036 258.207 34.1216 258.486C33.6524 258.765 33.1007 258.981 32.4665 259.133C31.8324 259.298 31.0904 259.38 30.2407 259.38C28.9851 259.38 27.8373 259.133 26.7973 258.639C25.7573 258.131 24.8631 257.434 24.1148 256.546C23.3792 255.645 22.8085 254.58 22.4027 253.35C21.9968 252.12 21.7939 250.769 21.7939 249.298C21.7939 247.826 21.9841 246.476 22.3646 245.245C22.7578 244.003 23.3158 242.931 24.0388 242.03C24.7617 241.13 25.6305 240.432 26.6451 239.938C27.6597 239.43 28.7948 239.177 30.0504 239.177C31.306 239.177 32.4221 239.411 33.3987 239.881C34.388 240.35 35.168 240.984 35.7387 241.783V239.557H38.9348V254.168C38.9348 254.485 38.9728 254.808 39.0489 255.138C39.1377 255.468 39.2772 255.772 39.4675 256.051C39.6577 256.318 39.905 256.54 40.2094 256.717C40.5265 256.895 40.907 256.983 41.3509 256.983C41.9596 256.983 42.5367 256.787 43.0821 256.394C43.6274 256.001 44.1031 255.442 44.5089 254.72C44.9148 253.984 45.2318 253.102 45.4601 252.075C45.7011 251.048 45.8216 249.9 45.8216 248.632C45.8216 246.438 45.4474 244.44 44.6992 242.639C43.9635 240.825 42.9362 239.272 41.6172 237.978C40.3109 236.684 38.7636 235.683 36.9753 234.972C35.1997 234.262 33.2655 233.907 31.1729 233.907C29.7778 233.907 28.4397 234.091 27.1587 234.459C25.8905 234.814 24.6983 235.321 23.5822 235.981C22.4788 236.627 21.4705 237.414 20.5573 238.34C19.6568 239.253 18.8832 240.274 18.2363 241.403C17.6022 242.519 17.1076 243.723 16.7524 245.017C16.3973 246.298 16.2198 247.636 16.2198 249.031C16.2198 250.414 16.3973 251.752 16.7524 253.045C17.1076 254.339 17.6022 255.544 18.2363 256.66C18.8832 257.776 19.6568 258.797 20.5573 259.723C21.4705 260.649 22.4788 261.441 23.5822 262.101C24.6983 262.76 25.8905 263.268 27.1587 263.623C28.4397 263.991 29.7778 264.175 31.1729 264.175C32.3904 264.175 33.5572 264.035 34.6733 263.756C35.7894 263.49 36.8548 263.109 37.8694 262.615L39.5626 264.65C38.2943 265.322 36.9372 265.817 35.4914 266.134C34.0582 266.464 32.568 266.629 31.0207 266.629C29.3846 266.629 27.8119 266.419 26.3026 266.001C24.8061 265.595 23.4046 265.012 22.0983 264.251C20.7919 263.49 19.6061 262.577 18.5407 261.511C17.488 260.446 16.5812 259.26 15.8203 257.954C15.0593 256.647 14.4695 255.246 14.051 253.749C13.6451 252.24 13.4422 250.667 13.4422 249.031C13.4422 247.395 13.6578 245.822 14.089 244.313C14.5203 242.804 15.1227 241.396 15.8963 240.09C16.67 238.784 17.6022 237.598 18.6929 236.532C19.7836 235.454 20.9885 234.535 22.3075 233.774C23.6392 233.013 25.0597 232.423 26.569 232.005C28.0782 231.586 29.6509 231.377 31.287 231.377C32.9231 231.377 34.4831 231.567 35.967 231.947C37.4636 232.328 38.8523 232.873 40.1333 233.584C41.4143 234.294 42.5748 235.156 43.6148 236.171C44.6674 237.185 45.5616 238.333 46.2972 239.614C47.0328 240.895 47.5972 242.297 47.9904 243.819C48.3962 245.328 48.5991 246.932 48.5991 248.632C48.5991 249.482 48.5357 250.338 48.4089 251.2C48.2821 252.05 48.0791 252.874 47.8001 253.673C47.5338 254.46 47.1977 255.201 46.7918 255.899C46.386 256.597 45.904 257.205 45.346 257.725C44.8006 258.233 44.1728 258.639 43.4626 258.943C42.7523 259.235 41.966 259.38 41.1036 259.38C40.2665 259.38 39.5562 259.266 38.9728 259.038C38.4021 258.81 37.9265 258.537 37.546 258.22C37.1782 257.89 36.8992 257.56 36.7089 257.231C36.5187 256.888 36.3919 256.609 36.3285 256.394ZM25.1041 249.374C25.1041 250.388 25.2246 251.333 25.4656 252.208C25.7065 253.083 26.0553 253.844 26.5119 254.491C26.9812 255.125 27.5582 255.626 28.2431 255.994C28.9407 256.362 29.7397 256.546 30.6402 256.546C31.4899 256.546 32.2319 256.4 32.866 256.108C33.5129 255.817 34.0519 255.417 34.4831 254.91C34.9143 254.402 35.2377 253.806 35.4533 253.121C35.6689 252.424 35.7767 251.669 35.7767 250.858V247.7C35.7767 246.888 35.6689 246.14 35.4533 245.455C35.2377 244.757 34.9143 244.155 34.4831 243.647C34.0519 243.14 33.5129 242.741 32.866 242.449C32.2319 242.157 31.4899 242.011 30.6402 242.011C29.7397 242.011 28.9407 242.195 28.2431 242.563C27.5582 242.931 26.9812 243.438 26.5119 244.085C26.0553 244.719 25.7065 245.474 25.4656 246.349C25.2246 247.224 25.1041 248.169 25.1041 249.183V249.374Z" fill="black"/>
<path d="M67.9088 236.723C67.4649 236.012 66.8244 235.435 65.9874 234.991C65.1503 234.535 64.18 234.306 63.0766 234.306C62.2903 234.306 61.5927 234.446 60.984 234.725C60.3752 235.004 59.8615 235.404 59.443 235.924C59.0245 236.431 58.7074 237.046 58.4918 237.769C58.2762 238.479 58.1684 239.272 58.1684 240.147V244.351L64.4844 244.313V247.11H58.1684V256.108H70.3249V259H52.8035V256.108H54.8201V247.11H52.8035V244.313H54.8201V239.995C54.8201 238.625 55.0167 237.407 55.4098 236.342C55.803 235.277 56.3611 234.376 57.084 233.641C57.8069 232.905 58.6757 232.347 59.6903 231.966C60.7049 231.573 61.8337 231.377 63.0766 231.377C64.7508 231.377 66.1966 231.687 67.4142 232.309C68.6317 232.918 69.6273 233.748 70.401 234.801L67.9088 236.723Z" fill="black"/>
<path d="M95.2848 231.719H98.4048L81.7965 259H78.6766L95.2848 231.719ZM81.2068 244.199C80.3063 244.199 79.4629 244.034 78.6766 243.704C77.9029 243.375 77.218 242.924 76.6219 242.354C76.0385 241.77 75.5756 241.085 75.2332 240.299C74.9034 239.513 74.7385 238.669 74.7385 237.769C74.7385 236.868 74.9034 236.031 75.2332 235.258C75.5756 234.471 76.0385 233.793 76.6219 233.222C77.218 232.651 77.9029 232.201 78.6766 231.871C79.4629 231.542 80.3063 231.377 81.2068 231.377C82.12 231.377 82.9697 231.542 83.7561 231.871C84.5424 232.201 85.2273 232.651 85.8107 233.222C86.4068 233.793 86.8697 234.471 87.1995 235.258C87.5419 236.031 87.7131 236.868 87.7131 237.769C87.7131 238.669 87.5419 239.513 87.1995 240.299C86.8697 241.085 86.4068 241.77 85.8107 242.354C85.2273 242.924 84.5424 243.375 83.7561 243.704C82.9697 244.034 82.12 244.199 81.2068 244.199ZM81.2068 234.135C80.6868 234.135 80.2112 234.224 79.78 234.402C79.3614 234.579 79 234.833 78.6956 235.163C78.3912 235.48 78.1566 235.86 77.9917 236.304C77.8268 236.748 77.7444 237.236 77.7444 237.769C77.7444 238.289 77.8268 238.777 77.9917 239.234C78.1566 239.678 78.3912 240.064 78.6956 240.394C79 240.711 79.3614 240.965 79.78 241.155C80.2112 241.333 80.6868 241.422 81.2068 241.422C81.7395 241.422 82.2214 241.333 82.6526 241.155C83.0965 240.965 83.4707 240.711 83.7751 240.394C84.0795 240.064 84.3141 239.678 84.479 239.234C84.6439 238.777 84.7263 238.289 84.7263 237.769C84.7263 237.236 84.6439 236.748 84.479 236.304C84.3141 235.86 84.0795 235.48 83.7751 235.163C83.4707 234.833 83.0965 234.579 82.6526 234.402C82.2214 234.224 81.7395 234.135 81.2068 234.135ZM96.0648 259.38C95.1643 259.38 94.3209 259.216 93.5345 258.886C92.7482 258.556 92.0633 258.106 91.4799 257.535C90.8965 256.952 90.4336 256.273 90.0911 255.5C89.7614 254.713 89.5965 253.87 89.5965 252.969C89.5965 252.069 89.7614 251.232 90.0911 250.458C90.4336 249.672 90.8965 248.993 91.4799 248.422C92.0633 247.852 92.7482 247.402 93.5345 247.072C94.3209 246.742 95.1643 246.577 96.0648 246.577C96.9653 246.577 97.8087 246.742 98.595 247.072C99.394 247.402 100.085 247.852 100.669 248.422C101.265 248.993 101.728 249.672 102.057 250.458C102.4 251.232 102.571 252.069 102.571 252.969C102.571 253.87 102.4 254.713 102.057 255.5C101.728 256.273 101.265 256.952 100.669 257.535C100.085 258.106 99.394 258.556 98.595 258.886C97.8087 259.216 96.9653 259.38 96.0648 259.38ZM96.0648 249.336C95.5321 249.336 95.0502 249.424 94.6189 249.602C94.2004 249.78 93.8389 250.033 93.5345 250.363C93.2302 250.68 92.9955 251.061 92.8307 251.504C92.6658 251.948 92.5833 252.437 92.5833 252.969C92.5833 253.489 92.6658 253.978 92.8307 254.434C92.9955 254.878 93.2302 255.265 93.5345 255.595C93.8389 255.912 94.2004 256.165 94.6189 256.356C95.0502 256.533 95.5321 256.622 96.0648 256.622C96.5975 256.622 97.0794 256.533 97.5106 256.356C97.9418 256.165 98.3096 255.912 98.614 255.595C98.9184 255.265 99.1531 254.878 99.3179 254.434C99.4828 253.978 99.5653 253.489 99.5653 252.969C99.5653 252.437 99.4828 251.948 99.3179 251.504C99.1531 251.061 98.9184 250.68 98.614 250.363C98.3096 250.033 97.9418 249.78 97.5106 249.602C97.0794 249.424 96.5975 249.336 96.0648 249.336Z" fill="black"/>
<path d="M109.553 251.485C109.553 252.183 109.68 252.836 109.934 253.445C110.2 254.054 110.561 254.58 111.018 255.024C111.487 255.468 112.039 255.823 112.673 256.089C113.32 256.343 114.024 256.47 114.785 256.47C115.482 256.47 116.11 256.381 116.668 256.203C117.239 256.026 117.721 255.829 118.114 255.614C118.52 255.398 118.837 255.195 119.065 255.005C119.306 254.815 119.446 254.707 119.484 254.681L113.301 245.645C112.806 245.975 112.331 246.336 111.874 246.729C111.417 247.11 111.018 247.541 110.675 248.023C110.333 248.492 110.06 249.012 109.857 249.583C109.654 250.154 109.553 250.788 109.553 251.485ZM112.635 237.293C112.635 237.978 112.787 238.676 113.092 239.386C113.396 240.096 113.84 240.883 114.423 241.745C115.146 241.339 115.774 240.952 116.307 240.584C116.839 240.204 117.277 239.83 117.619 239.462C117.974 239.082 118.234 238.695 118.399 238.302C118.577 237.908 118.666 237.484 118.666 237.027C118.666 236.558 118.583 236.145 118.418 235.79C118.253 235.435 118.032 235.137 117.752 234.896C117.486 234.643 117.175 234.452 116.82 234.325C116.465 234.199 116.097 234.135 115.717 234.135C115.311 234.135 114.924 234.205 114.556 234.344C114.189 234.484 113.859 234.687 113.567 234.953C113.288 235.22 113.06 235.549 112.882 235.943C112.717 236.336 112.635 236.786 112.635 237.293ZM106.167 251.409C106.167 250.534 106.281 249.722 106.509 248.974C106.75 248.213 107.105 247.503 107.574 246.843C108.044 246.184 108.627 245.556 109.325 244.96C110.022 244.364 110.828 243.787 111.741 243.229L110.885 241.783C110.415 240.997 110.06 240.248 109.819 239.538C109.591 238.815 109.477 238.092 109.477 237.369C109.477 236.545 109.629 235.771 109.934 235.048C110.251 234.313 110.682 233.679 111.227 233.146C111.785 232.601 112.451 232.169 113.225 231.852C113.998 231.535 114.842 231.377 115.755 231.377C116.579 231.377 117.359 231.51 118.095 231.776C118.831 232.043 119.471 232.423 120.016 232.918C120.562 233.4 120.993 233.996 121.31 234.706C121.627 235.404 121.786 236.19 121.786 237.065C121.786 237.927 121.627 238.688 121.31 239.348C121.006 240.007 120.593 240.61 120.073 241.155C119.553 241.701 118.938 242.208 118.228 242.677C117.531 243.134 116.795 243.59 116.021 244.047L121.71 252.303C122.052 251.872 122.369 251.352 122.661 250.743C122.965 250.122 123.232 249.494 123.46 248.86C123.701 248.226 123.904 247.63 124.069 247.072C124.246 246.501 124.373 246.051 124.449 245.721H127.797C127.721 246.304 127.563 246.989 127.322 247.776C127.093 248.562 126.795 249.374 126.428 250.211C126.072 251.048 125.66 251.879 125.191 252.703C124.722 253.527 124.214 254.263 123.669 254.91L123.783 255.062C123.973 255.328 124.157 255.55 124.335 255.728C124.512 255.905 124.69 256.051 124.868 256.165C125.058 256.267 125.254 256.343 125.457 256.394C125.673 256.444 125.908 256.47 126.161 256.47C126.288 256.47 126.428 256.463 126.58 256.451C126.745 256.425 126.903 256.406 127.055 256.394C127.208 256.368 127.341 256.349 127.455 256.337C127.582 256.311 127.671 256.292 127.721 256.28L127.797 259.152C127.366 259.216 126.96 259.266 126.58 259.304C126.212 259.355 125.825 259.38 125.419 259.38C124.658 259.38 123.948 259.26 123.289 259.019C122.642 258.791 122.065 258.353 121.557 257.706L121.082 257.136C119.319 258.632 117.137 259.38 114.537 259.38C113.447 259.38 112.394 259.197 111.379 258.829C110.377 258.448 109.49 257.916 108.716 257.231C107.942 256.533 107.321 255.696 106.852 254.72C106.395 253.73 106.167 252.627 106.167 251.409Z" fill="black"/>
<path d="M140.715 231.719L140.239 237.807L145.623 235.277L146.784 238.321L140.905 239.824L145.395 244.58L143.055 246.577L139.117 241.307L135.217 246.577L132.877 244.58L137.367 239.824L131.45 238.321L132.649 235.277L137.994 237.807L137.519 231.719H140.715Z" fill="black"/>
<path d="M155.877 249.773V249.374C155.877 248.27 156.017 247.325 156.296 246.539C156.587 245.74 156.943 245.049 157.361 244.465C157.792 243.869 158.255 243.343 158.75 242.886C159.257 242.417 159.72 241.954 160.139 241.498C160.57 241.028 160.925 240.534 161.204 240.014C161.496 239.494 161.642 238.872 161.642 238.149C161.642 237.642 161.546 237.16 161.356 236.704C161.179 236.247 160.912 235.854 160.557 235.524C160.215 235.182 159.79 234.915 159.283 234.725C158.788 234.522 158.224 234.421 157.589 234.421C157.057 234.421 156.543 234.484 156.048 234.611C155.566 234.725 155.104 234.884 154.66 235.086C154.228 235.289 153.823 235.524 153.442 235.79C153.062 236.057 152.726 236.336 152.434 236.627L150.227 234.383C150.658 233.888 151.153 233.457 151.711 233.089C152.282 232.708 152.897 232.391 153.556 232.138C154.216 231.884 154.901 231.694 155.611 231.567C156.321 231.44 157.031 231.377 157.742 231.377C158.769 231.377 159.739 231.535 160.652 231.852C161.565 232.157 162.365 232.601 163.049 233.184C163.734 233.755 164.273 234.459 164.666 235.296C165.06 236.12 165.256 237.046 165.256 238.073C165.256 238.885 165.155 239.595 164.952 240.204C164.762 240.813 164.514 241.358 164.21 241.84C163.905 242.309 163.563 242.741 163.183 243.134C162.802 243.527 162.428 243.907 162.06 244.275C161.654 244.681 161.28 245.062 160.938 245.417C160.595 245.772 160.297 246.146 160.044 246.539C159.79 246.92 159.587 247.344 159.435 247.814C159.295 248.283 159.225 248.828 159.225 249.45V249.773H155.877ZM155.211 257.174C155.211 256.869 155.268 256.584 155.383 256.318C155.497 256.039 155.649 255.804 155.839 255.614C156.042 255.411 156.277 255.252 156.543 255.138C156.822 255.011 157.12 254.948 157.437 254.948C157.742 254.948 158.027 255.011 158.293 255.138C158.56 255.252 158.788 255.411 158.978 255.614C159.181 255.804 159.34 256.039 159.454 256.318C159.581 256.584 159.644 256.869 159.644 257.174C159.644 257.478 159.581 257.77 159.454 258.049C159.34 258.315 159.181 258.55 158.978 258.753C158.788 258.943 158.56 259.095 158.293 259.209C158.027 259.323 157.742 259.38 157.437 259.38C157.12 259.38 156.822 259.323 156.543 259.209C156.277 259.095 156.042 258.943 155.839 258.753C155.649 258.55 155.497 258.315 155.383 258.049C155.268 257.77 155.211 257.478 155.211 257.174Z" fill="black"/>
<path d="M172.238 248.708C172.238 250.42 172.435 252.043 172.828 253.578C173.234 255.1 173.811 256.533 174.559 257.878C175.307 259.222 176.221 260.471 177.299 261.625C178.377 262.792 179.594 263.851 180.951 264.802L179.315 267.028L178.345 266.324C176.607 265.081 175.123 263.769 173.893 262.386C172.676 261.017 171.674 259.59 170.887 258.106C170.114 256.622 169.543 255.087 169.175 253.502C168.82 251.904 168.643 250.268 168.643 248.594C168.643 246.92 168.82 245.29 169.175 243.704C169.543 242.106 170.114 240.565 170.887 239.082C171.674 237.598 172.676 236.171 173.893 234.801C175.123 233.419 176.607 232.106 178.345 230.863L179.315 230.159L180.951 232.385C179.594 233.336 178.377 234.395 177.299 235.562C176.221 236.716 175.307 237.965 174.559 239.31C173.811 240.654 173.234 242.094 172.828 243.628C172.435 245.163 172.238 246.78 172.238 248.48V248.708Z" fill="black"/>
<path d="M191.738 248.48C191.738 246.78 191.535 245.163 191.129 243.628C190.736 242.094 190.165 240.654 189.417 239.31C188.669 237.965 187.756 236.716 186.678 235.562C185.6 234.395 184.376 233.336 183.006 232.385L184.642 230.159L185.612 230.863C187.35 232.106 188.827 233.419 190.045 234.801C191.275 236.171 192.277 237.598 193.051 239.082C193.837 240.565 194.408 242.106 194.763 243.704C195.131 245.29 195.315 246.92 195.315 248.594C195.315 250.268 195.131 251.904 194.763 253.502C194.408 255.087 193.837 256.622 193.051 258.106C192.277 259.59 191.275 261.017 190.045 262.386C188.827 263.769 187.35 265.081 185.612 266.324L184.642 267.028L183.006 264.802C184.376 263.851 185.6 262.792 186.678 261.625C187.756 260.471 188.669 259.222 189.417 257.878C190.165 256.533 190.736 255.1 191.129 253.578C191.535 252.043 191.738 250.42 191.738 248.708V248.48Z" fill="black"/>
<path d="M209.221 231.339C209.576 231.339 209.913 231.408 210.23 231.548C210.559 231.687 210.838 231.884 211.067 232.138C211.308 232.379 211.498 232.677 211.637 233.032C211.777 233.387 211.847 233.774 211.847 234.192C211.847 234.649 211.764 235.118 211.599 235.6C211.435 236.082 211.181 236.539 210.838 236.97C210.496 237.401 210.065 237.794 209.545 238.149C209.025 238.504 208.41 238.777 207.699 238.967L207.281 239.101L206.881 237.807L207.129 237.731C207.712 237.528 208.226 237.243 208.67 236.875C209.114 236.507 209.418 236.101 209.583 235.657H209.183C208.879 235.657 208.594 235.606 208.327 235.505C208.074 235.391 207.845 235.239 207.642 235.048C207.452 234.858 207.3 234.636 207.186 234.383C207.072 234.116 207.015 233.831 207.015 233.526C207.015 233.222 207.072 232.937 207.186 232.67C207.3 232.404 207.452 232.176 207.642 231.985C207.845 231.783 208.08 231.624 208.346 231.51C208.625 231.396 208.917 231.339 209.221 231.339ZM202.239 231.339C202.595 231.339 202.931 231.408 203.248 231.548C203.577 231.687 203.857 231.884 204.085 232.138C204.326 232.379 204.516 232.677 204.656 233.032C204.795 233.387 204.865 233.774 204.865 234.192C204.865 234.649 204.782 235.118 204.617 235.6C204.453 236.082 204.199 236.539 203.857 236.97C203.514 237.401 203.083 237.794 202.563 238.149C202.043 238.504 201.428 238.777 200.717 238.967L200.299 239.101L199.899 237.807L200.147 237.731C200.73 237.528 201.244 237.243 201.688 236.875C202.132 236.507 202.436 236.101 202.601 235.657H202.201C201.897 235.657 201.612 235.606 201.345 235.505C201.092 235.391 200.863 235.239 200.66 235.048C200.47 234.858 200.318 234.636 200.204 234.383C200.09 234.116 200.033 233.831 200.033 233.526C200.033 233.222 200.09 232.937 200.204 232.67C200.318 232.404 200.47 232.176 200.66 231.985C200.863 231.783 201.098 231.624 201.364 231.51C201.643 231.396 201.935 231.339 202.239 231.339Z" fill="black"/>
<path d="M217.611 257.174C217.611 256.869 217.668 256.584 217.782 256.318C217.909 256.039 218.068 255.804 218.258 255.614C218.461 255.411 218.695 255.252 218.962 255.138C219.228 255.011 219.514 254.948 219.818 254.948C220.122 254.948 220.408 255.011 220.674 255.138C220.953 255.252 221.188 255.411 221.378 255.614C221.581 255.804 221.739 256.039 221.854 256.318C221.98 256.584 222.044 256.869 222.044 257.174C222.044 257.478 221.98 257.763 221.854 258.03C221.739 258.296 221.581 258.531 221.378 258.734C221.188 258.924 220.953 259.076 220.674 259.19C220.408 259.317 220.122 259.38 219.818 259.38C219.514 259.38 219.228 259.317 218.962 259.19C218.695 259.076 218.461 258.924 218.258 258.734C218.068 258.531 217.909 258.296 217.782 258.03C217.668 257.763 217.611 257.478 217.611 257.174ZM217.611 241.783C217.611 241.479 217.668 241.193 217.782 240.927C217.909 240.648 218.068 240.413 218.258 240.223C218.461 240.02 218.695 239.862 218.962 239.747C219.228 239.621 219.514 239.557 219.818 239.557C220.122 239.557 220.408 239.621 220.674 239.747C220.953 239.862 221.188 240.02 221.378 240.223C221.581 240.413 221.739 240.648 221.854 240.927C221.98 241.193 222.044 241.479 222.044 241.783C222.044 242.087 221.98 242.373 221.854 242.639C221.739 242.905 221.581 243.14 221.378 243.343C221.188 243.546 220.953 243.711 220.674 243.838C220.408 243.952 220.122 244.009 219.818 244.009C219.514 244.009 219.228 243.952 218.962 243.838C218.695 243.711 218.461 243.546 218.258 243.343C218.068 243.14 217.909 242.905 217.782 242.639C217.668 242.373 217.611 242.087 217.611 241.783Z" fill="black"/>
<path d="M227.922 241.783C227.922 241.479 227.979 241.193 228.093 240.927C228.22 240.648 228.379 240.413 228.569 240.223C228.772 240.02 229.007 239.862 229.273 239.747C229.539 239.621 229.825 239.557 230.129 239.557C230.433 239.557 230.719 239.621 230.985 239.747C231.264 239.862 231.499 240.02 231.689 240.223C231.892 240.413 232.051 240.648 232.165 240.927C232.292 241.193 232.355 241.479 232.355 241.783C232.355 242.087 232.292 242.373 232.165 242.639C232.051 242.905 231.892 243.14 231.689 243.343C231.499 243.546 231.264 243.711 230.985 243.838C230.719 243.952 230.433 244.009 230.129 244.009C229.825 244.009 229.539 243.952 229.273 243.838C229.007 243.711 228.772 243.546 228.569 243.343C228.379 243.14 228.22 242.905 228.093 242.639C227.979 242.373 227.922 242.087 227.922 241.783ZM230.129 254.948C230.484 254.948 230.82 255.018 231.137 255.157C231.467 255.297 231.746 255.493 231.974 255.747C232.215 255.988 232.406 256.286 232.545 256.641C232.685 256.996 232.754 257.383 232.754 257.801C232.754 258.258 232.672 258.727 232.507 259.209C232.342 259.691 232.089 260.148 231.746 260.579C231.404 261.01 230.973 261.403 230.453 261.759C229.933 262.114 229.317 262.386 228.607 262.577L228.189 262.71L227.789 261.416L228.036 261.34C228.62 261.137 229.133 260.852 229.577 260.484C230.021 260.116 230.326 259.71 230.491 259.266H230.091C229.787 259.266 229.501 259.209 229.235 259.095C228.981 258.994 228.753 258.848 228.55 258.658C228.36 258.467 228.208 258.245 228.093 257.992C227.979 257.725 227.922 257.44 227.922 257.136C227.922 256.831 227.979 256.546 228.093 256.28C228.208 256.013 228.36 255.785 228.55 255.595C228.753 255.392 228.988 255.233 229.254 255.119C229.533 255.005 229.825 254.948 230.129 254.948Z" fill="black"/>
<path d="M240.745 254.948C241.1 254.948 241.436 255.018 241.753 255.157C242.083 255.297 242.362 255.493 242.59 255.747C242.831 255.988 243.021 256.286 243.161 256.641C243.3 256.996 243.37 257.383 243.37 257.801C243.37 258.258 243.288 258.727 243.123 259.209C242.958 259.691 242.704 260.148 242.362 260.579C242.019 261.01 241.588 261.403 241.068 261.759C240.548 262.114 239.933 262.386 239.223 262.577L238.804 262.71L238.405 261.416L238.652 261.34C239.235 261.137 239.749 260.852 240.193 260.484C240.637 260.116 240.941 259.71 241.106 259.266H240.707C240.402 259.266 240.117 259.209 239.851 259.095C239.597 258.994 239.369 258.848 239.166 258.658C238.975 258.467 238.823 258.245 238.709 257.992C238.595 257.725 238.538 257.44 238.538 257.136C238.538 256.831 238.595 256.546 238.709 256.28C238.823 256.013 238.975 255.785 239.166 255.595C239.369 255.392 239.603 255.233 239.87 255.119C240.149 255.005 240.44 254.948 240.745 254.948Z" fill="black"/>
<path d="M249.153 257.174C249.153 256.869 249.21 256.584 249.325 256.318C249.451 256.039 249.61 255.804 249.8 255.614C250.003 255.411 250.238 255.252 250.504 255.138C250.77 255.011 251.056 254.948 251.36 254.948C251.665 254.948 251.95 255.011 252.216 255.138C252.495 255.252 252.73 255.411 252.92 255.614C253.123 255.804 253.282 256.039 253.396 256.318C253.523 256.584 253.586 256.869 253.586 257.174C253.586 257.478 253.523 257.763 253.396 258.03C253.282 258.296 253.123 258.531 252.92 258.734C252.73 258.924 252.495 259.076 252.216 259.19C251.95 259.317 251.665 259.38 251.36 259.38C251.056 259.38 250.77 259.317 250.504 259.19C250.238 259.076 250.003 258.924 249.8 258.734C249.61 258.531 249.451 258.296 249.325 258.03C249.21 257.763 249.153 257.478 249.153 257.174Z" fill="black"/>
</svg>
