<svg width="480" height="320" viewBox="0 0 480 320" fill="none" xmlns="http://www.w3.org/2000/svg">
<rect opacity="0.8" width="480" height="320" fill="white"/>
<path d="M21.3601 46.7906H9.6088L7.81622 52.6849H1L11.3792 20.9085H19.811L30.3452 52.6849H23.1749L21.3601 46.7906ZM11.335 41.1178H19.634L15.5177 27.6893H15.4291L11.335 41.1178Z" fill="black"/>
<path d="M41.0342 43.0456C40.2818 43.1638 39.6769 43.4297 39.2195 43.8434C38.7622 44.2422 38.5335 44.7888 38.5335 45.4832C38.5335 46.2513 38.8138 46.9161 39.3744 47.4775C39.9351 48.0241 40.7613 48.2974 41.8531 48.2974C43.0039 48.2974 43.9112 47.965 44.5751 47.3002C45.2391 46.6354 45.571 45.7565 45.571 44.6633V42.2701L41.0342 43.0456ZM46.5669 50.4468C46.3161 50.7275 46.0062 51.0304 45.6374 51.3554C45.2833 51.6656 44.8555 51.9537 44.3538 52.2196C43.867 52.4707 43.2916 52.6849 42.6276 52.8622C41.9637 53.0395 41.2187 53.1281 40.3925 53.1281C39.2122 53.1281 38.1204 52.9434 37.1171 52.5741C36.1286 52.19 35.2582 51.6582 34.5057 50.9787C33.7533 50.2991 33.1631 49.5161 32.7353 48.6298C32.3074 47.7286 32.0935 46.7536 32.0935 45.7048C32.0935 43.7991 32.6836 42.2405 33.8639 41.0291C35.0442 39.8178 36.6745 39.057 38.7548 38.7467L45.571 37.7496V37.3064C45.571 36.2427 45.2464 35.4007 44.5973 34.7802C43.9481 34.1598 42.8932 33.8495 41.4326 33.8495C40.8277 33.8495 40.2154 33.9234 39.5958 34.0711C38.9761 34.2041 38.3786 34.3592 37.8032 34.5365C37.2425 34.7138 36.7188 34.9206 36.2319 35.1569C35.745 35.3785 35.3172 35.578 34.9483 35.7552L32.5582 31.0796C33.9156 30.3262 35.4204 29.7058 37.0729 29.2183C38.74 28.7308 40.4662 28.487 42.2514 28.487C43.3432 28.487 44.4423 28.6052 45.5489 28.8415C46.6702 29.0631 47.6808 29.4768 48.5808 30.0825C49.4955 30.6882 50.2406 31.5154 50.816 32.5643C51.3914 33.5984 51.6791 34.9206 51.6791 36.5308V46.2809C51.6791 46.9752 51.8561 47.4923 52.2102 47.832C52.579 48.157 53.0807 48.4599 53.7151 48.7406L50.9487 53.1281C49.8275 53.0099 48.9275 52.7219 48.2488 52.2639C47.5701 51.7912 47.0095 51.1855 46.5669 50.4468Z" fill="black"/>
<path d="M79.7849 20.9085C81.1127 20.9085 82.3447 21.108 83.4807 21.5068C84.6167 21.8909 85.6052 22.4449 86.4462 23.1688C87.2872 23.8926 87.9437 24.7716 88.4158 25.8057C88.888 26.8251 89.124 27.9626 89.124 29.2183C89.124 29.8683 89.0281 30.5109 88.8363 31.1461C88.6593 31.7813 88.3937 32.3796 88.0396 32.941C87.6855 33.4876 87.2577 33.9899 86.756 34.4478C86.2544 34.9058 85.6864 35.2825 85.052 35.578C85.5684 35.7552 86.1659 36.0212 86.8446 36.3757C87.538 36.7302 88.1945 37.2178 88.8142 37.8382C89.4338 38.4587 89.9576 39.2269 90.3855 40.1428C90.8133 41.0439 91.0272 42.1371 91.0272 43.4223C91.0272 45.0326 90.7174 46.4212 90.0978 47.5883C89.4929 48.7553 88.6666 49.7156 87.6191 50.469C86.5864 51.2224 85.3692 51.7838 83.9676 52.1531C82.5807 52.5077 81.1127 52.6849 79.5636 52.6849H65.6656V20.9085H79.7849ZM84.4545 43.2008C84.4545 42.3439 84.2995 41.6422 83.9897 41.0956C83.6799 40.549 83.2668 40.1132 82.7504 39.7882C82.2488 39.4632 81.6734 39.2416 81.0242 39.1235C80.3751 38.9905 79.7111 38.924 79.0325 38.924H72.0835V47.6105H79.0325C79.7111 47.6105 80.3751 47.544 81.0242 47.411C81.6734 47.2781 82.2488 47.0417 82.7504 46.7019C83.2668 46.3621 83.6799 45.9116 83.9897 45.3502C84.2995 44.7888 84.4545 44.0724 84.4545 43.2008ZM82.6619 29.8609C82.6619 28.6495 82.2783 27.704 81.5111 27.0245C80.7439 26.3449 79.5046 26.0052 77.7932 26.0052H72.0835V33.495H77.7932C79.4751 33.495 80.707 33.1774 81.489 32.5421C82.2709 31.8921 82.6619 30.9984 82.6619 29.8609Z" fill="black"/>
<path d="M117.695 40.8297C117.695 42.5877 117.436 44.2201 116.92 45.7269C116.404 47.2337 115.681 48.5338 114.751 49.6269C113.822 50.7201 112.708 51.577 111.41 52.1974C110.111 52.8179 108.68 53.1281 107.116 53.1281C106.423 53.1281 105.788 53.0616 105.213 52.9287C104.652 52.8105 104.136 52.6406 103.664 52.419C103.192 52.1974 102.756 51.9389 102.358 51.6434C101.96 51.3332 101.598 51.0008 101.274 50.6463V52.6849H95.1657V20.9085H101.274V30.991C101.938 30.2967 102.756 29.7058 103.73 29.2183C104.704 28.7308 105.884 28.487 107.271 28.487C108.835 28.487 110.251 28.8046 111.52 29.4398C112.804 30.0603 113.903 30.9245 114.818 32.0325C115.732 33.1257 116.441 34.4257 116.942 35.9325C117.444 37.4393 117.695 39.0717 117.695 40.8297ZM101.097 43.0235C101.097 43.6587 101.207 44.2496 101.429 44.7962C101.665 45.328 101.997 45.7934 102.424 46.1923C102.852 46.5911 103.361 46.9014 103.952 47.1229C104.556 47.3445 105.235 47.4553 105.988 47.4553C106.858 47.4553 107.625 47.3002 108.289 46.99C108.968 46.665 109.536 46.2144 109.993 45.6383C110.451 45.0621 110.797 44.3826 111.033 43.5996C111.269 42.8019 111.387 41.9303 111.387 40.9848V40.6968C111.387 39.7513 111.269 38.8797 111.033 38.082C110.797 37.2842 110.451 36.5973 109.993 36.0212C109.536 35.4302 108.968 34.9723 108.289 34.6473C107.625 34.3223 106.858 34.1598 105.988 34.1598C105.235 34.1598 104.556 34.2706 103.952 34.4922C103.361 34.7138 102.852 35.024 102.424 35.4229C101.997 35.8217 101.665 36.2945 101.429 36.841C101.207 37.3876 101.097 37.9786 101.097 38.6138V43.0235Z" fill="black"/>
<path d="M129.048 36.7967C129.048 34.5217 129.387 32.3944 130.066 30.4149C130.759 28.4205 131.748 26.6921 133.031 25.2296C134.315 23.7523 135.871 22.5926 137.701 21.7506C139.53 20.8938 141.588 20.4653 143.875 20.4653C145.528 20.4653 147.055 20.6796 148.456 21.108C149.872 21.5364 151.141 22.1421 152.263 22.925C153.399 23.708 154.372 24.6534 155.184 25.7614C155.995 26.8694 156.637 28.1103 157.109 29.4842L150.935 31.545C150.758 30.9541 150.477 30.3484 150.094 29.7279C149.71 29.0927 149.223 28.5239 148.633 28.0217C148.043 27.5046 147.35 27.0836 146.553 26.7586C145.771 26.4336 144.893 26.2711 143.919 26.2711C142.459 26.2711 141.205 26.5739 140.157 27.1796C139.124 27.7705 138.276 28.5609 137.612 29.5506C136.948 30.5257 136.454 31.641 136.129 32.8967C135.82 34.1376 135.665 35.4081 135.665 36.7081V36.8854C135.665 38.2001 135.82 39.4854 136.129 40.7411C136.454 41.982 136.948 43.09 137.612 44.065C138.276 45.04 139.124 45.8303 140.157 46.436C141.205 47.0269 142.459 47.3224 143.919 47.3224C144.893 47.3224 145.771 47.1599 146.553 46.8349C147.35 46.5099 148.043 46.0962 148.633 45.594C149.223 45.0769 149.71 44.5082 150.094 43.8877C150.477 43.2672 150.758 42.6615 150.935 42.0706L157.109 44.1093C156.637 45.4832 155.995 46.7241 155.184 47.832C154.372 48.94 153.399 49.8929 152.263 50.6906C151.141 51.4736 149.872 52.0792 148.456 52.5077C147.055 52.9213 145.528 53.1281 143.875 53.1281C141.588 53.1281 139.53 52.7071 137.701 51.865C135.871 51.023 134.315 49.8633 133.031 48.386C131.748 46.9087 130.759 45.1803 130.066 43.2008C129.387 41.2212 129.048 39.0865 129.048 36.7967Z" fill="black"/>
<path d="M166.138 40.9405C166.138 41.7087 166.242 42.4843 166.448 43.2672C166.655 44.0354 166.972 44.7297 167.4 45.3502C167.828 45.9707 168.374 46.4803 169.038 46.8792C169.716 47.2633 170.52 47.4553 171.45 47.4553C172.055 47.4553 172.601 47.3741 173.087 47.2116C173.589 47.0491 174.032 46.8275 174.415 46.5468C174.814 46.2513 175.16 45.9116 175.455 45.5275C175.765 45.1286 176.031 44.7002 176.252 44.2422L181.608 47.0122C181.224 47.9428 180.693 48.7849 180.014 49.5383C179.35 50.2917 178.576 50.9343 177.691 51.4662C176.805 51.998 175.824 52.4042 174.747 52.6849C173.67 52.9804 172.527 53.1281 171.317 53.1281C169.65 53.1281 168.115 52.8179 166.714 52.1974C165.312 51.5622 164.102 50.698 163.084 49.6048C162.066 48.5116 161.27 47.219 160.694 45.7269C160.119 44.2201 159.831 42.5877 159.831 40.8297C159.831 39.0865 160.119 37.4615 160.694 35.9547C161.27 34.4478 162.066 33.1404 163.084 32.0325C164.102 30.9245 165.312 30.0603 166.714 29.4398C168.115 28.8046 169.65 28.487 171.317 28.487C172.527 28.487 173.67 28.6347 174.747 28.9302C175.824 29.2109 176.805 29.6245 177.691 30.1711C178.576 30.7029 179.35 31.3455 180.014 32.099C180.693 32.8524 181.224 33.6944 181.608 34.6251L176.252 37.395C176.031 36.9371 175.765 36.516 175.455 36.1319C175.16 35.7331 174.814 35.3933 174.415 35.1126C174.032 34.8172 173.589 34.5882 173.087 34.4257C172.601 34.2484 172.055 34.1598 171.45 34.1598C170.52 34.1598 169.716 34.3592 169.038 34.7581C168.374 35.1422 167.828 35.6518 167.4 36.2871C166.972 36.9075 166.655 37.6092 166.448 38.3922C166.242 39.1752 166.138 39.9581 166.138 40.7411V40.9405Z" fill="black"/>
<path d="M221.288 36.7967C221.288 39.1752 220.963 41.3468 220.314 43.3116C219.68 45.2616 218.721 46.9309 217.437 48.3195C216.168 49.7082 214.575 50.7866 212.657 51.5548C210.739 52.3082 208.496 52.6849 205.929 52.6849H194.244V20.9085H205.929C208.496 20.9085 210.739 21.2926 212.657 22.0608C214.575 22.8142 216.168 23.8853 217.437 25.2739C218.721 26.6626 219.68 28.3393 220.314 30.3041C220.963 32.2541 221.288 34.4183 221.288 36.7967ZM214.627 36.1763C214.627 34.8319 214.457 33.5836 214.118 32.4314C213.793 31.2643 213.262 30.2524 212.524 29.3955C211.801 28.5387 210.857 27.8665 209.691 27.379C208.526 26.8768 207.117 26.6256 205.465 26.6256H200.662V46.9678H205.465C207.102 46.9678 208.504 46.7241 209.669 46.2366C210.835 45.7343 211.779 45.0547 212.502 44.1979C213.24 43.3263 213.778 42.307 214.118 41.1399C214.457 39.9729 214.627 38.7246 214.627 37.395V36.1763Z" fill="black"/>
<path d="M241.006 52.6849V50.6463C240.682 51.0008 240.32 51.3332 239.922 51.6434C239.538 51.9389 239.103 52.1974 238.616 52.419C238.144 52.6406 237.62 52.8105 237.045 52.9287C236.484 53.0616 235.857 53.1281 235.164 53.1281C233.6 53.1281 232.169 52.8179 230.87 52.1974C229.572 51.577 228.458 50.7201 227.529 49.6269C226.599 48.5338 225.876 47.2337 225.36 45.7269C224.858 44.2201 224.607 42.5877 224.607 40.8297C224.607 39.0717 224.858 37.4393 225.36 35.9325C225.862 34.4257 226.562 33.1257 227.462 32.0325C228.377 30.9245 229.476 30.0603 230.76 29.4398C232.043 28.8046 233.467 28.487 235.031 28.487C236.418 28.487 237.591 28.7308 238.55 29.2183C239.524 29.691 240.342 30.2819 241.006 30.991V20.9085H247.114V52.6849H241.006ZM241.183 38.6138C241.183 37.9786 241.065 37.3876 240.829 36.841C240.608 36.2945 240.283 35.8217 239.855 35.4229C239.428 35.024 238.911 34.7138 238.306 34.4922C237.716 34.2706 237.045 34.1598 236.292 34.1598C235.422 34.1598 234.647 34.3223 233.969 34.6473C233.305 34.9723 232.744 35.4302 232.287 36.0212C231.829 36.5973 231.483 37.2842 231.247 38.082C231.011 38.8797 230.893 39.7513 230.893 40.6968V40.9848C230.893 41.9303 231.011 42.8019 231.247 43.5996C231.483 44.3826 231.829 45.0621 232.287 45.6383C232.744 46.2144 233.305 46.665 233.969 46.99C234.647 47.3002 235.422 47.4553 236.292 47.4553C237.045 47.4553 237.716 47.3445 238.306 47.1229C238.911 46.9014 239.428 46.5911 239.855 46.1923C240.283 45.7934 240.608 45.328 240.829 44.7962C241.065 44.2496 241.183 43.6587 241.183 43.0235V38.6138Z" fill="black"/>
<path d="M261.256 20.9085H282.634V26.7364H267.674V33.495H281.461V39.3007H267.674V46.8792H283.497V52.6849H261.256V20.9085Z" fill="black"/>
<path d="M292.991 42.9348C293.094 43.6439 293.316 44.2939 293.655 44.8849C294.009 45.4758 294.452 45.9854 294.983 46.4139C295.514 46.8275 296.126 47.1525 296.82 47.3889C297.513 47.6252 298.251 47.7434 299.033 47.7434C299.933 47.7434 300.906 47.5735 301.954 47.2337C303.001 46.8792 303.96 46.3695 304.831 45.7048L307.774 50.0037C306.668 50.9343 305.31 51.6878 303.702 52.2639C302.094 52.84 300.383 53.1281 298.568 53.1281C296.93 53.1281 295.388 52.8474 293.943 52.2861C292.497 51.7247 291.228 50.9122 290.136 49.8485C289.059 48.7849 288.203 47.4923 287.569 45.9707C286.949 44.4491 286.64 42.7354 286.64 40.8297C286.64 39.0865 286.912 37.4615 287.458 35.9547C288.019 34.4478 288.794 33.1404 289.782 32.0325C290.785 30.9245 291.98 30.0603 293.367 29.4398C294.754 28.8046 296.288 28.487 297.97 28.487C299.534 28.487 300.988 28.7751 302.33 29.3512C303.673 29.9126 304.838 30.7103 305.827 31.7444C306.815 32.7637 307.59 33.9899 308.15 35.4229C308.711 36.8558 308.991 38.4365 308.991 40.1649V42.9348H292.991ZM297.948 33.8052C296.635 33.8052 295.521 34.2484 294.607 35.1348C293.707 36.0064 293.183 37.0626 293.035 38.3036H302.596C302.566 37.0479 302.109 35.9842 301.224 35.1126C300.338 34.241 299.247 33.8052 297.948 33.8052Z" fill="black"/>
<path d="M321.761 20.9085H343.139V26.7364H328.179V33.495H341.966V39.3007H328.179V52.6849H321.761V20.9085Z" fill="black"/>
<path d="M355.333 28.9523H359.87V34.2706H355.333V52.6849H349.225V34.2706H345.463V28.9523H349.225V26.0495C349.225 25.0154 349.402 24.1216 349.756 23.3682C350.11 22.6 350.597 21.9722 351.217 21.4847C351.851 20.9824 352.603 20.6131 353.474 20.3767C354.359 20.1256 355.333 20 356.395 20C356.926 20 357.443 20.0148 357.944 20.0443C358.446 20.0739 358.911 20.1034 359.339 20.133C359.766 20.1625 360.143 20.1994 360.467 20.2438C360.807 20.2881 361.065 20.3176 361.242 20.3324L360.733 25.5398C360.556 25.5103 360.334 25.4807 360.069 25.4512C359.818 25.4216 359.552 25.3995 359.272 25.3847C358.992 25.3552 358.719 25.3404 358.453 25.3404C358.188 25.3256 357.952 25.3182 357.745 25.3182C356.875 25.3182 356.255 25.4881 355.886 25.8279C355.517 26.1529 355.333 26.5739 355.333 27.091V28.9523Z" fill="black"/>
<path d="M377.286 36.8854C377.286 38.2445 377.456 39.5519 377.795 40.8076C378.135 42.0632 378.651 43.1712 379.345 44.1314C380.038 45.0917 380.923 45.8673 382 46.4582C383.077 47.0343 384.361 47.3224 385.851 47.3224C387.282 47.3224 388.47 47.0934 389.414 46.6354C390.373 46.1775 391.133 45.6087 391.693 44.9292C392.269 44.2349 392.667 43.4888 392.889 42.6911C393.125 41.8934 393.243 41.1547 393.243 40.4752V40.1649H385.121V35.2677H399.483V52.6849H393.862V48.9622C393.464 49.5826 392.97 50.1514 392.379 50.6684C391.789 51.1707 391.125 51.6065 390.388 51.9758C389.65 52.3304 388.839 52.6111 387.953 52.8179C387.083 53.0247 386.153 53.1281 385.165 53.1281C382.849 53.1281 380.79 52.7071 378.99 51.865C377.191 51.023 375.671 49.8633 374.432 48.386C373.207 46.9087 372.27 45.1803 371.621 43.2008C370.987 41.2212 370.669 39.0865 370.669 36.7967C370.669 34.5217 371.023 32.3944 371.732 30.4149C372.455 28.4205 373.473 26.6921 374.786 25.2296C376.114 23.7523 377.707 22.5926 379.566 21.7506C381.44 20.8938 383.535 20.4653 385.851 20.4653C387.356 20.4653 388.78 20.6426 390.122 20.9972C391.48 21.3369 392.711 21.8318 393.818 22.4818C394.939 23.1171 395.928 23.8926 396.783 24.8086C397.639 25.7097 398.333 26.7143 398.864 27.8222L393.243 30.991C392.903 30.3114 392.505 29.6836 392.048 29.1075C391.59 28.5165 391.059 28.0143 390.454 27.6006C389.864 27.1722 389.185 26.8398 388.418 26.6035C387.651 26.3523 386.795 26.2268 385.851 26.2268C384.361 26.2268 383.077 26.5222 382 27.1131C380.923 27.6893 380.038 28.4575 379.345 29.4177C378.651 30.3779 378.135 31.4933 377.795 32.7637C377.456 34.0194 377.286 35.3194 377.286 36.6638V36.8854Z" fill="black"/>
<path d="M418.87 48.4747C418.324 49.1394 417.557 49.6713 416.568 50.0701C415.594 50.4542 414.532 50.6463 413.381 50.6463C411.788 50.6463 410.372 50.3656 409.132 49.8042C407.893 49.2429 406.846 48.4747 405.99 47.4997C405.149 46.5099 404.5 45.3428 404.042 43.9985C403.6 42.6542 403.378 41.1769 403.378 39.5666C403.378 38.0007 403.6 36.5382 404.042 35.1791C404.5 33.8052 405.149 32.6308 405.99 31.6558C406.846 30.666 407.893 29.8904 409.132 29.3291C410.372 28.7677 411.788 28.487 413.381 28.487C414.532 28.487 415.594 28.6864 416.568 29.0853C417.557 29.4842 418.324 30.016 418.87 30.6808V28.9523H425V52.4633C425 53.9111 424.727 55.152 424.181 56.1861C423.635 57.235 422.883 58.0918 421.924 58.7566C420.98 59.4213 419.88 59.9015 418.626 60.1969C417.372 60.5071 416.037 60.6623 414.621 60.6623C412.895 60.6623 411.095 60.4554 409.221 60.0418C407.347 59.6429 405.732 59.1407 404.374 58.535L406.1 53.5935C406.514 53.7707 407.023 53.9628 407.627 54.1696C408.232 54.3912 408.882 54.5832 409.575 54.7457C410.268 54.9082 410.991 55.0412 411.744 55.1446C412.511 55.2628 413.256 55.3219 413.979 55.3219C414.613 55.3219 415.226 55.2554 415.816 55.1224C416.406 55.0043 416.922 54.7974 417.365 54.502C417.822 54.2213 418.184 53.8446 418.449 53.3719C418.73 52.9139 418.87 52.323 418.87 51.5991V48.4747ZM409.663 39.6553C409.663 40.4382 409.745 41.1769 409.907 41.8712C410.084 42.5508 410.357 43.1343 410.726 43.6218C411.109 44.0945 411.596 44.4712 412.186 44.7519C412.777 45.0178 413.492 45.1508 414.333 45.1508C416 45.1508 417.188 44.6263 417.896 43.5775C418.604 42.5138 418.958 41.2064 418.958 39.6553V39.478C418.958 38.695 418.877 37.9638 418.715 37.2842C418.553 36.6047 418.287 36.0212 417.918 35.5336C417.549 35.0461 417.07 34.6694 416.48 34.4035C415.904 34.1228 415.189 33.9825 414.333 33.9825C412.681 33.9825 411.486 34.5069 410.748 35.5558C410.025 36.6047 409.663 37.9121 409.663 39.478V39.6553Z" fill="black"/>
<path d="M24.2593 86.5738H10.2948V99.958H3.87698V68.1816H10.2948V80.7681H24.2593V68.1816H30.6993V99.958H24.2593V86.5738Z" fill="black"/>
<path d="M36.6524 68.1816H42.7604V78.2641C43.085 77.9391 43.4465 77.6289 43.8448 77.3334C44.2579 77.0232 44.7079 76.7573 45.1948 76.5357C45.6817 76.2993 46.2202 76.1147 46.8103 75.9817C47.4152 75.834 48.0791 75.7601 48.8021 75.7601C50.0857 75.7601 51.2364 75.9743 52.2544 76.4027C53.2725 76.8164 54.1282 77.3925 54.8216 78.1312C55.5298 78.8698 56.0683 79.734 56.4371 80.7238C56.806 81.7136 56.9904 82.7846 56.9904 83.9369V99.958H50.8824V86.1528C50.8824 85.3108 50.7865 84.6017 50.5947 84.0255C50.4029 83.4346 50.1373 82.9619 49.798 82.6073C49.4734 82.238 49.0824 81.9721 48.625 81.8096C48.1824 81.6323 47.6955 81.5437 47.1644 81.5437C46.5448 81.5437 45.962 81.6545 45.4161 81.8761C44.885 82.0977 44.4202 82.4374 44.0219 82.8954C43.6235 83.3386 43.3137 83.9 43.0924 84.5795C42.8711 85.2591 42.7604 86.0568 42.7604 86.9727V99.958H36.6524V68.1816Z" fill="black"/>
<path d="M70.9769 68.1816H77.3948V99.958H70.9769V68.1816Z" fill="black"/>
<path d="M89.456 99.958H83.3479V76.2255H89.456V99.958ZM82.7061 69.9987C82.7061 69.4964 82.802 69.0237 82.9938 68.5805C83.1856 68.1226 83.4438 67.7311 83.7684 67.4061C84.1077 67.0663 84.4987 66.8004 84.9413 66.6083C85.3839 66.4163 85.8634 66.3203 86.3798 66.3203C86.8814 66.3203 87.3536 66.4163 87.7962 66.6083C88.2535 66.8004 88.6445 67.0663 88.9691 67.4061C89.3084 67.7311 89.574 68.1226 89.7658 68.5805C89.9576 69.0237 90.0535 69.4964 90.0535 69.9987C90.0535 70.5158 89.9576 70.9959 89.7658 71.4391C89.574 71.8822 89.3084 72.2737 88.9691 72.6135C88.6445 72.9385 88.2535 73.197 87.7962 73.3891C87.3536 73.5811 86.8814 73.6771 86.3798 73.6771C85.8634 73.6771 85.3839 73.5811 84.9413 73.3891C84.4987 73.197 84.1077 72.9385 83.7684 72.6135C83.4438 72.2737 83.1856 71.8822 82.9938 71.4391C82.802 70.9959 82.7061 70.5158 82.7061 69.9987Z" fill="black"/>
<path d="M101.119 93.5983C101.65 93.7608 102.196 93.9086 102.756 94.0415C103.229 94.1597 103.738 94.2631 104.283 94.3517C104.844 94.4256 105.36 94.4625 105.833 94.4625C106.836 94.4625 107.61 94.3665 108.156 94.1745C108.717 93.9676 109.13 93.6574 109.396 93.2438C109.661 92.8301 109.823 92.3057 109.883 91.6705C109.942 91.0205 109.971 90.2449 109.971 89.3437V68.1816H116.389V92.7784C116.389 93.9455 116.204 95.0017 115.836 95.9472C115.467 96.8779 114.899 97.6756 114.132 98.3404C113.379 99.0052 112.428 99.5149 111.277 99.8694C110.141 100.224 108.798 100.401 107.249 100.401C106.556 100.401 105.855 100.379 105.147 100.335C104.453 100.29 103.774 100.217 103.111 100.113C102.447 100.025 101.812 99.9063 101.207 99.7586C100.617 99.6109 100.093 99.4336 99.636 99.2268L101.119 93.5983Z" fill="black"/>
<path d="M127.83 102.95C127.83 103.732 127.683 104.419 127.388 105.01C127.107 105.601 126.717 106.096 126.215 106.495C125.728 106.894 125.153 107.197 124.489 107.404C123.825 107.61 123.109 107.714 122.342 107.714C121.826 107.714 121.317 107.699 120.815 107.669C120.328 107.655 119.878 107.633 119.465 107.603C119.067 107.573 118.727 107.544 118.447 107.514C118.152 107.485 117.96 107.463 117.872 107.448L118.491 102.218C118.786 102.263 119.059 102.3 119.31 102.329C119.576 102.359 119.819 102.373 120.04 102.373C120.675 102.373 121.11 102.263 121.346 102.041C121.597 101.834 121.722 101.561 121.722 101.221V76.2255H127.83V102.95ZM121.036 70.043C121.036 69.526 121.132 69.0385 121.324 68.5805C121.516 68.1226 121.774 67.7311 122.099 67.4061C122.438 67.0663 122.829 66.8004 123.272 66.6083C123.714 66.4163 124.194 66.3203 124.71 66.3203C125.226 66.3203 125.713 66.4163 126.171 66.6083C126.628 66.8004 127.019 67.0663 127.344 67.4061C127.683 67.7311 127.948 68.1226 128.14 68.5805C128.332 69.0385 128.428 69.526 128.428 70.043C128.428 70.5601 128.332 71.0402 128.14 71.4834C127.948 71.9266 127.683 72.318 127.344 72.6578C127.019 72.9828 126.628 73.2413 126.171 73.4334C125.713 73.6254 125.226 73.7215 124.71 73.7215C124.194 73.7215 123.714 73.6254 123.272 73.4334C122.829 73.2413 122.438 72.9828 122.099 72.6578C121.774 72.318 121.516 71.9266 121.324 71.4834C121.132 71.0402 121.036 70.5601 121.036 70.043Z" fill="black"/>
<path d="M141.972 68.1816H148.39V81.9425L159.721 68.1816H167.621L156.6 80.8124L168.329 99.958H160.871L152.484 85.7096L148.39 90.2966V99.958H141.972V68.1816Z" fill="black"/>
<path d="M176.96 85.5324L184.861 76.2255H192.474L183.909 85.9312L192.717 99.958H185.37L179.461 90.2966L176.96 93.0222V99.958H170.852V68.1816H176.96V85.5324Z" fill="black"/>
<path d="M204.247 68.1816H210.665V94.0194H223.235V99.958H204.247V68.1816Z" fill="black"/>
<path d="M226.444 68.1816H232.552V93.5097C232.552 94.012 232.693 94.3961 232.973 94.662C233.268 94.9279 233.733 95.0608 234.367 95.0608C234.662 95.0608 234.913 95.0461 235.12 95.0165C235.341 94.9722 235.621 94.9131 235.96 94.8392L236.447 100.047C236.034 100.106 235.592 100.165 235.12 100.224C234.721 100.268 234.256 100.305 233.725 100.335C233.209 100.379 232.67 100.401 232.11 100.401C231.239 100.401 230.457 100.29 229.764 100.069C229.07 99.8472 228.473 99.5222 227.971 99.0938C227.484 98.6506 227.108 98.104 226.843 97.454C226.577 96.804 226.444 96.0506 226.444 95.1938V68.1816Z" fill="black"/>
<path d="M263.38 89.6983L253.997 77.9539V99.958H247.579V68.1816H254.085L263.469 80.5908L273.14 68.1816H279.381V99.958H272.941V77.9539L263.602 89.6983H263.38Z" fill="black"/>
<path d="M305.34 99.958H299.21V86.1528C299.21 85.3108 299.114 84.6017 298.922 84.0255C298.745 83.4346 298.494 82.9619 298.17 82.6073C297.845 82.238 297.469 81.9795 297.041 81.8318C296.613 81.6693 296.148 81.588 295.647 81.588C295.057 81.588 294.503 81.6914 293.987 81.8982C293.485 82.1051 293.043 82.4301 292.659 82.8732C292.29 83.3164 291.995 83.8852 291.774 84.5795C291.567 85.2591 291.464 86.0716 291.464 87.017V99.958H285.356V76.2255H291.464V78.3084C292.246 77.4368 293.153 76.7942 294.186 76.3806C295.234 75.9669 296.355 75.7601 297.55 75.7601C298.774 75.7601 299.918 76.0113 300.98 76.5135C302.057 77.0158 302.95 77.8431 303.658 78.9954C304.071 78.4045 304.543 77.9022 305.074 77.4885C305.62 77.0749 306.203 76.7425 306.823 76.4914C307.442 76.2402 308.084 76.0556 308.748 75.9374C309.427 75.8192 310.12 75.7601 310.828 75.7601C312.156 75.7601 313.336 75.9817 314.369 76.4249C315.417 76.8533 316.302 77.4368 317.025 78.1755C317.748 78.9141 318.301 79.7636 318.685 80.7238C319.068 81.684 319.26 82.696 319.26 83.7596V99.958H313.086V86.1528C313.086 85.3108 312.99 84.6017 312.798 84.0255C312.621 83.4346 312.37 82.9619 312.045 82.6073C311.721 82.238 311.337 81.9795 310.895 81.8318C310.467 81.6693 310.002 81.588 309.5 81.588C308.91 81.588 308.364 81.6914 307.863 81.8982C307.361 82.1051 306.919 82.4301 306.535 82.8732C306.166 83.3164 305.871 83.8852 305.65 84.5795C305.443 85.2591 305.34 86.0716 305.34 87.017V99.958Z" fill="black"/>
<path d="M339.642 75.6272V99.958H333.224V68.1816H342.276L354.979 89.521V68.1816H361.397V99.958H354.337L339.642 75.6272Z" fill="black"/>
<path d="M367.372 76.2255H373.48V78.2641C373.805 77.9391 374.166 77.6289 374.564 77.3334C374.977 77.0232 375.427 76.7573 375.914 76.5357C376.401 76.2993 376.94 76.1147 377.53 75.9817C378.135 75.834 378.799 75.7601 379.522 75.7601C380.805 75.7601 381.956 75.9743 382.974 76.4027C383.992 76.8164 384.848 77.3925 385.541 78.1312C386.249 78.8698 386.788 79.734 387.157 80.7238C387.526 81.7136 387.71 82.7846 387.71 83.9369V99.958H381.602V86.1528C381.602 85.3108 381.506 84.6017 381.314 84.0255C381.122 83.4346 380.857 82.9619 380.518 82.6073C380.193 82.238 379.802 81.9721 379.345 81.8096C378.902 81.6323 378.415 81.5437 377.884 81.5437C377.264 81.5437 376.682 81.6545 376.136 81.8761C375.605 82.0977 375.14 82.4374 374.741 82.8954C374.343 83.3386 374.033 83.9 373.812 84.5795C373.591 85.2591 373.48 86.0568 373.48 86.9727V99.958H367.372V76.2255Z" fill="black"/>
<path d="M17.4209 115.012C19.7815 115.012 21.8987 115.44 23.7724 116.297C25.6461 117.139 27.2321 118.299 28.5305 119.776C29.8435 121.238 30.8394 122.967 31.5181 124.961C32.2115 126.941 32.5582 129.068 32.5582 131.343C32.5582 133.633 32.2115 135.767 31.5181 137.747C30.8394 139.727 29.8435 141.455 28.5305 142.932C27.2321 144.41 25.6461 145.569 23.7724 146.411C21.8987 147.253 19.7815 147.674 17.4209 147.674C15.0455 147.674 12.921 147.253 11.0473 146.411C9.18832 145.569 7.60229 144.41 6.28921 142.932C4.99088 141.455 3.99501 139.727 3.30158 137.747C2.62291 135.767 2.28357 133.633 2.28357 131.343C2.28357 129.068 2.62291 126.941 3.30158 124.961C3.99501 122.967 4.99088 121.238 6.28921 119.776C7.60229 118.299 9.18832 117.139 11.0473 116.297C12.921 115.44 15.0455 115.012 17.4209 115.012ZM17.4209 141.869C18.8077 141.869 20.0249 141.61 21.0724 141.093C22.1347 140.561 23.0273 139.83 23.7502 138.899C24.4732 137.969 25.0191 136.868 25.3879 135.598C25.7568 134.327 25.9412 132.938 25.9412 131.432V131.254C25.9412 129.762 25.7568 128.381 25.3879 127.111C25.0191 125.825 24.4732 124.717 23.7502 123.787C23.0273 122.856 22.1347 122.132 21.0724 121.615C20.0249 121.083 18.8077 120.817 17.4209 120.817C16.034 120.817 14.8095 121.083 13.7472 121.615C12.685 122.132 11.7924 122.856 11.0694 123.787C10.3612 124.717 9.82273 125.825 9.45389 127.111C9.08504 128.381 8.90062 129.762 8.90062 131.254V131.432C8.90062 132.938 9.08504 134.327 9.45389 135.598C9.82273 136.868 10.3612 137.969 11.0694 138.899C11.7924 139.83 12.685 140.561 13.7472 141.093C14.8095 141.61 16.034 141.869 17.4209 141.869Z" fill="black"/>
<path d="M47.2972 123.033C49.0529 123.033 50.6463 123.351 52.0774 123.986C53.5085 124.607 54.7331 125.471 55.7511 126.579C56.7691 127.687 57.551 128.994 58.0969 130.501C58.6576 132.008 58.9379 133.633 58.9379 135.376C58.9379 137.134 58.6576 138.766 58.0969 140.273C57.5363 141.765 56.747 143.058 55.729 144.151C54.7109 145.244 53.4864 146.108 52.0553 146.744C50.6242 147.364 49.0381 147.674 47.2972 147.674C45.5415 147.674 43.9481 147.364 42.517 146.744C41.0859 146.108 39.8613 145.244 38.8433 144.151C37.8253 143.058 37.036 141.765 36.4753 140.273C35.9147 138.766 35.6344 137.134 35.6344 135.376C35.6344 133.633 35.9073 132.008 36.4532 130.501C37.0138 128.994 37.8032 127.687 38.8212 126.579C39.8392 125.471 41.0637 124.607 42.4949 123.986C43.9407 123.351 45.5415 123.033 47.2972 123.033ZM47.2972 142.002C48.1677 142.002 48.9349 141.839 49.5988 141.514C50.2774 141.189 50.8455 140.738 51.3028 140.162C51.7602 139.586 52.1069 138.899 52.343 138.102C52.579 137.289 52.6971 136.403 52.6971 135.442V135.287C52.6971 134.327 52.579 133.448 52.343 132.65C52.1069 131.838 51.7602 131.144 51.3028 130.567C50.8455 129.976 50.2774 129.519 49.5988 129.194C48.9349 128.868 48.1677 128.706 47.2972 128.706C46.4267 128.706 45.6522 128.868 44.9735 129.194C44.3096 129.519 43.7489 129.976 43.2916 130.567C42.8342 131.144 42.4875 131.838 42.2514 132.65C42.0154 133.448 41.8973 134.327 41.8973 135.287V135.442C41.8973 136.403 42.0154 137.289 42.2514 138.102C42.4875 138.899 42.8342 139.586 43.2916 140.162C43.7489 140.738 44.3096 141.189 44.9735 141.514C45.6522 141.839 46.4267 142.002 47.2972 142.002Z" fill="black"/>
<path d="M71.8622 115.455H84.543C86.1806 115.455 87.656 115.728 88.9691 116.275C90.2969 116.806 91.4182 117.545 92.3329 118.491C93.2477 119.421 93.9485 120.529 94.4354 121.814C94.937 123.1 95.1878 124.496 95.1878 126.003C95.1878 127.509 94.9149 128.905 94.369 130.191C93.8378 131.476 93.078 132.591 92.0895 133.537C91.1158 134.467 89.9428 135.199 88.5707 135.73C87.1987 136.262 85.6864 136.528 84.034 136.528H78.28V147.231H71.8622V115.455ZM88.5707 125.892C88.5707 125.138 88.438 124.474 88.1724 123.897C87.9068 123.307 87.5232 122.804 87.0216 122.391C86.52 121.977 85.9151 121.667 85.2069 121.46C84.4987 121.238 83.702 121.128 82.8168 121.128H78.28V130.855H82.8168C83.702 130.855 84.4987 130.752 85.2069 130.545C85.9151 130.324 86.52 130.006 87.0216 129.592C87.5232 129.179 87.9068 128.684 88.1724 128.108C88.438 127.517 88.5707 126.845 88.5707 126.091V125.892Z" fill="black"/>
<path d="M104.726 154.721H98.618V123.499H104.726V125.537C105.39 124.843 106.209 124.252 107.183 123.764C108.156 123.277 109.337 123.033 110.723 123.033C112.287 123.033 113.704 123.351 114.973 123.986C116.256 124.607 117.355 125.471 118.27 126.579C119.185 127.672 119.893 128.972 120.395 130.479C120.896 131.986 121.147 133.618 121.147 135.376C121.147 137.134 120.889 138.766 120.372 140.273C119.856 141.78 119.133 143.08 118.204 144.173C117.274 145.266 116.16 146.123 114.862 146.744C113.564 147.364 112.132 147.674 110.569 147.674C109.875 147.674 109.241 147.608 108.665 147.475C108.105 147.357 107.588 147.187 107.116 146.965C106.644 146.744 106.209 146.485 105.81 146.19C105.412 145.879 105.051 145.547 104.726 145.192V154.721ZM104.549 137.57C104.549 138.205 104.66 138.796 104.881 139.342C105.117 139.874 105.449 140.34 105.877 140.738C106.305 141.137 106.814 141.448 107.404 141.669C108.009 141.891 108.687 142.002 109.44 142.002C110.31 142.002 111.078 141.846 111.741 141.536C112.42 141.211 112.988 140.761 113.446 140.184C113.903 139.608 114.25 138.929 114.486 138.146C114.722 137.348 114.84 136.477 114.84 135.531V135.243C114.84 134.298 114.722 133.426 114.486 132.628C114.25 131.83 113.903 131.144 113.446 130.567C112.988 129.976 112.42 129.519 111.741 129.194C111.078 128.868 110.31 128.706 109.44 128.706C108.687 128.706 108.009 128.817 107.404 129.038C106.814 129.26 106.305 129.57 105.877 129.969C105.449 130.368 105.117 130.841 104.881 131.387C104.66 131.934 104.549 132.525 104.549 133.16V137.57Z" fill="black"/>
<path d="M147.637 115.012C149.998 115.012 152.115 115.44 153.989 116.297C155.862 117.139 157.449 118.299 158.747 119.776C160.06 121.238 161.056 122.967 161.734 124.961C162.428 126.941 162.775 129.068 162.775 131.343C162.775 133.633 162.428 135.767 161.734 137.747C161.056 139.727 160.06 141.455 158.747 142.932C158.644 143.05 158.54 143.169 158.437 143.287L161.225 146.721L156.689 150.444L153.59 146.589C151.82 147.312 149.836 147.674 147.637 147.674C145.262 147.674 143.137 147.253 141.264 146.411C139.405 145.569 137.819 144.41 136.506 142.932C135.207 141.455 134.211 139.727 133.518 137.747C132.839 135.767 132.5 133.633 132.5 131.343C132.5 129.068 132.839 126.941 133.518 124.961C134.211 122.967 135.207 121.238 136.506 119.776C137.819 118.299 139.405 117.139 141.264 116.297C143.137 115.44 145.262 115.012 147.637 115.012ZM147.637 141.869C148.345 141.869 149.009 141.802 149.629 141.669L146.044 137.193L150.581 133.47L154.409 138.257C154.911 137.474 155.309 136.587 155.604 135.598C155.973 134.327 156.158 132.938 156.158 131.432V131.254C156.158 129.762 155.973 128.381 155.604 127.111C155.235 125.825 154.69 124.717 153.967 123.787C153.244 122.856 152.351 122.132 151.289 121.615C150.241 121.083 149.024 120.817 147.637 120.817C146.25 120.817 145.026 121.083 143.964 121.615C142.901 122.132 142.009 122.856 141.286 123.787C140.578 124.717 140.039 125.825 139.67 127.111C139.301 128.381 139.117 129.762 139.117 131.254V131.432C139.117 132.938 139.301 134.327 139.67 135.598C140.039 136.868 140.578 137.969 141.286 138.899C142.009 139.83 142.901 140.561 143.964 141.093C145.026 141.61 146.25 141.869 147.637 141.869Z" fill="black"/>
<path d="M182.316 145.192C181.991 145.547 181.63 145.879 181.232 146.19C180.848 146.485 180.413 146.744 179.926 146.965C179.454 147.187 178.93 147.357 178.355 147.475C177.794 147.608 177.167 147.674 176.473 147.674C174.91 147.674 173.478 147.364 172.18 146.744C170.882 146.123 169.768 145.266 168.838 144.173C167.909 143.08 167.186 141.78 166.67 140.273C166.168 138.766 165.917 137.134 165.917 135.376C165.917 133.618 166.168 131.986 166.67 130.479C167.171 128.972 167.872 127.672 168.772 126.579C169.687 125.471 170.786 124.607 172.069 123.986C173.353 123.351 174.777 123.033 176.341 123.033C177.728 123.033 178.9 123.277 179.859 123.764C180.833 124.237 181.652 124.828 182.316 125.537V123.499H188.424V154.721H182.316V145.192ZM182.493 133.16C182.493 132.525 182.375 131.934 182.139 131.387C181.918 130.841 181.593 130.368 181.165 129.969C180.737 129.57 180.221 129.26 179.616 129.038C179.026 128.817 178.355 128.706 177.602 128.706C176.732 128.706 175.957 128.868 175.278 129.194C174.614 129.519 174.054 129.976 173.596 130.567C173.139 131.144 172.792 131.83 172.556 132.628C172.32 133.426 172.202 134.298 172.202 135.243V135.531C172.202 136.477 172.32 137.348 172.556 138.146C172.792 138.929 173.139 139.608 173.596 140.184C174.054 140.761 174.614 141.211 175.278 141.536C175.957 141.846 176.732 142.002 177.602 142.002C178.355 142.002 179.026 141.891 179.616 141.669C180.221 141.448 180.737 141.137 181.165 140.738C181.593 140.34 181.918 139.874 182.139 139.342C182.375 138.796 182.493 138.205 182.493 137.57V133.16Z" fill="black"/>
<path d="M202.565 115.455H214.848C216.736 115.455 218.404 115.728 219.849 116.275C221.295 116.821 222.505 117.552 223.479 118.468C224.453 119.384 225.19 120.441 225.692 121.637C226.194 122.819 226.444 124.06 226.444 125.36C226.444 126.409 226.282 127.406 225.957 128.351C225.648 129.282 225.212 130.132 224.652 130.9C224.106 131.653 223.457 132.311 222.704 132.872C221.952 133.419 221.14 133.847 220.27 134.157L227.219 147.231H219.827L214.073 135.797H208.983V147.231H202.565V115.455ZM219.739 125.582C219.739 124.946 219.621 124.355 219.385 123.809C219.163 123.262 218.817 122.789 218.345 122.391C217.887 121.992 217.312 121.682 216.618 121.46C215.925 121.238 215.121 121.128 214.206 121.128H208.983V130.08H214.206C215.121 130.08 215.925 129.969 216.618 129.747C217.312 129.511 217.887 129.194 218.345 128.795C218.817 128.381 219.163 127.901 219.385 127.354C219.621 126.808 219.739 126.217 219.739 125.582Z" fill="black"/>
<path d="M244.37 129.437H243.728C242.858 129.437 242.024 129.526 241.228 129.703C240.446 129.88 239.752 130.205 239.147 130.678C238.542 131.136 238.056 131.771 237.687 132.584C237.333 133.396 237.156 134.438 237.156 135.708V147.231H231.047V123.499H237.156V126.18C237.406 125.781 237.731 125.397 238.129 125.028C238.528 124.658 238.992 124.333 239.524 124.053C240.055 123.757 240.652 123.521 241.316 123.343C241.98 123.166 242.696 123.078 243.463 123.078H244.37V129.437Z" fill="black"/>
<path d="M258.202 138.301C258.615 138.774 259.116 139.239 259.707 139.697C260.297 140.155 260.946 140.569 261.654 140.938C262.377 141.292 263.159 141.581 264 141.802C264.841 142.009 265.748 142.112 266.722 142.112C268.537 142.112 269.924 141.736 270.883 140.982C271.856 140.214 272.343 139.283 272.343 138.19C272.343 137.053 271.915 136.188 271.06 135.598C270.219 135.007 268.876 134.541 267.032 134.201L266.036 134.024C264.708 133.788 263.388 133.478 262.075 133.094C260.761 132.709 259.574 132.155 258.512 131.432C257.449 130.708 256.586 129.784 255.922 128.662C255.258 127.524 254.926 126.091 254.926 124.363C254.926 123.358 255.148 122.309 255.59 121.216C256.033 120.108 256.734 119.096 257.693 118.18C258.666 117.25 259.913 116.489 261.433 115.898C262.967 115.307 264.819 115.012 266.988 115.012C269.555 115.012 271.842 115.44 273.848 116.297C275.869 117.139 277.5 118.254 278.739 119.643L274.468 123.632C273.597 122.671 272.476 121.918 271.104 121.371C269.747 120.825 268.345 120.551 266.899 120.551C265.232 120.551 263.926 120.869 262.982 121.504C262.052 122.139 261.588 122.967 261.588 123.986C261.588 124.651 261.735 125.205 262.03 125.648C262.34 126.091 262.768 126.461 263.314 126.756C263.86 127.037 264.516 127.273 265.284 127.465C266.051 127.657 266.906 127.849 267.851 128.041L268.36 128.13C269.628 128.366 270.89 128.669 272.144 129.038C273.398 129.393 274.534 129.925 275.552 130.634C276.585 131.328 277.418 132.244 278.053 133.382C278.687 134.504 279.004 135.945 279.004 137.703C279.004 139.298 278.673 140.709 278.009 141.935C277.345 143.161 276.467 144.21 275.375 145.082C274.283 145.939 273.022 146.589 271.591 147.032C270.16 147.46 268.669 147.674 267.12 147.674C265.556 147.674 264.103 147.541 262.761 147.275C261.433 147.01 260.223 146.633 259.131 146.145C258.054 145.658 257.088 145.111 256.232 144.506C255.391 143.9 254.653 143.25 254.019 142.556L258.202 138.301Z" fill="black"/>
<path d="M285.444 139.653C286.315 140.436 287.355 141.108 288.565 141.669C289.775 142.231 290.999 142.511 292.239 142.511C293.139 142.511 293.847 142.341 294.363 142.002C294.879 141.647 295.138 141.196 295.138 140.65C295.138 139.719 294.142 138.995 292.15 138.478L290.424 138.013C289.568 137.806 288.705 137.525 287.835 137.171C286.964 136.802 286.16 136.321 285.422 135.73C284.699 135.14 284.109 134.423 283.652 133.581C283.209 132.724 282.988 131.675 282.988 130.434C282.988 129.445 283.202 128.507 283.63 127.62C284.072 126.719 284.692 125.929 285.489 125.249C286.3 124.57 287.281 124.03 288.432 123.632C289.583 123.233 290.866 123.033 292.283 123.033C294.304 123.033 296.104 123.351 297.683 123.986C299.276 124.621 300.53 125.338 301.445 126.136L298.258 130.213C297.506 129.666 296.613 129.201 295.58 128.817C294.562 128.418 293.537 128.218 292.504 128.218C291.545 128.218 290.8 128.396 290.269 128.75C289.738 129.09 289.472 129.504 289.472 129.991C289.472 130.508 289.701 130.929 290.158 131.254C290.63 131.565 291.309 131.838 292.194 132.074L294.761 132.805C297.211 133.5 298.966 134.438 300.029 135.62C301.091 136.802 301.622 138.294 301.622 140.096C301.622 141.1 301.415 142.061 301.002 142.977C300.589 143.878 299.984 144.683 299.188 145.392C298.391 146.101 297.402 146.662 296.222 147.076C295.042 147.475 293.699 147.674 292.194 147.674C291.044 147.674 289.959 147.571 288.941 147.364C287.938 147.157 287.001 146.877 286.131 146.522C285.275 146.153 284.5 145.739 283.807 145.281C283.113 144.823 282.523 144.365 282.036 143.907L285.444 139.653Z" fill="black"/>
<path d="M310.585 115.455H334.774V121.416H325.899V147.231H319.459V121.416H310.585V115.455Z" fill="black"/>
<path d="M345.573 140.162C345.573 140.443 345.61 140.709 345.684 140.96C345.758 141.211 345.883 141.433 346.06 141.625C346.252 141.802 346.518 141.942 346.857 142.046C347.196 142.149 347.631 142.201 348.163 142.201C348.384 142.201 348.635 142.194 348.915 142.179C349.195 142.149 349.476 142.12 349.756 142.09C350.036 142.061 350.294 142.024 350.531 141.979C350.781 141.935 350.988 141.898 351.15 141.869L351.703 147.275C351.128 147.349 350.531 147.416 349.911 147.475C349.38 147.534 348.79 147.578 348.14 147.608C347.491 147.652 346.835 147.674 346.171 147.674C344.061 147.674 342.416 147.194 341.236 146.234C340.055 145.274 339.465 143.745 339.465 141.647V128.817H335.194V123.499H339.465V116.784L345.573 115.145V123.499H351.792V128.817H345.573V140.162Z" fill="black"/>
<path d="M16.425 189.142C17.3545 189.142 18.2176 189.009 19.0143 188.743C19.8258 188.462 20.5192 188.049 21.0946 187.502C21.6847 186.941 22.1495 186.239 22.4888 185.397C22.8281 184.54 22.9978 183.535 22.9978 182.383V162.684H29.3272V183.336C29.3272 185.109 29.0026 186.712 28.3534 188.145C27.719 189.578 26.8264 190.796 25.6756 191.801C24.5396 192.805 23.1822 193.581 21.6036 194.128C20.0249 194.674 18.2987 194.947 16.425 194.947C14.5513 194.947 12.8251 194.674 11.2465 194.128C9.66781 193.581 8.30309 192.805 7.1523 191.801C6.00151 190.796 5.10154 189.578 4.45237 188.145C3.81796 186.712 3.50076 185.109 3.50076 183.336V162.684H9.85224V182.383C9.85224 183.535 10.0219 184.54 10.3612 185.397C10.7006 186.239 11.1579 186.941 11.7333 187.502C12.3235 188.049 13.0169 188.462 13.8136 188.743C14.6251 189.009 15.4955 189.142 16.425 189.142Z" fill="black"/>
<path d="M55.0872 194.504H48.9791V192.466C48.6398 192.791 48.2709 193.108 47.8726 193.418C47.4742 193.714 47.0316 193.98 46.5448 194.216C46.0579 194.438 45.512 194.615 44.9071 194.748C44.3169 194.881 43.6604 194.947 42.9375 194.947C41.6539 194.947 40.5031 194.741 39.4851 194.327C38.4671 193.899 37.604 193.322 36.8958 192.599C36.2024 191.86 35.6713 190.996 35.3024 190.006C34.9336 189.016 34.7492 187.945 34.7492 186.793V170.772H40.8572V184.555C40.8572 185.397 40.9457 186.113 41.1228 186.704C41.3146 187.295 41.5727 187.775 41.8973 188.145C42.2367 188.499 42.635 188.765 43.0924 188.942C43.5497 189.105 44.044 189.186 44.5751 189.186C45.1948 189.186 45.7702 189.075 46.3013 188.854C46.8472 188.632 47.3193 188.3 47.7177 187.856C48.116 187.399 48.4259 186.83 48.6472 186.15C48.8685 185.471 48.9791 184.673 48.9791 183.757V170.772H55.0872V194.504Z" fill="black"/>
<path d="M74.2965 194.504L65.3336 162.728H72.5261L78.6562 186.616H78.8775L84.8749 162.728H91.9789L83.016 194.504H74.2965Z" fill="black"/>
<path d="M100.411 194.504L93.1518 170.772H99.968L104.217 187.103L108.577 170.772H115.282L108.068 194.504H100.411Z" fill="black"/>
<path d="M150.713 184.666H150.802L155.117 162.728H162.089L155.007 194.504H147.128L142.326 171.725L137.612 194.504H129.778L122.696 162.728H129.689L133.85 184.666H133.938L138.785 162.728H146L150.713 184.666Z" fill="black"/>
<path d="M187.34 186.749L190.239 170.772H196.701L191.235 194.504H183.976L180.435 179.081L176.673 194.504H169.524L164.036 170.772H170.697L173.508 186.749L177.624 170.772H183.467L187.34 186.749Z" fill="black"/>
<path d="M232.309 162.728L223.39 177.53L233.814 194.504H226.555L219.628 182.937L212.967 194.504H205.619L216.043 177.575L206.837 162.728H214.007L219.672 172.544L225.338 162.728H232.309Z" fill="black"/>
<path d="M241.759 182.073L234.544 170.772H241.604L245.233 177.176L249.04 170.772H256.166L248.818 182.117L256.985 194.504H249.77L245.1 187.236L240.851 194.504H233.725L241.759 182.073Z" fill="black"/>
<path d="M271.126 162.728L277.566 174.982H277.655L284.227 162.728H291.42L280.819 181.563V194.504H274.335V181.563L263.734 162.728H271.126Z" fill="black"/>
<path d="M296.089 197.274C296.783 197.274 297.292 197.149 297.616 196.897C297.956 196.646 298.221 196.24 298.413 195.679L298.634 194.947L290.424 170.772H297.218L301.932 187.147L305.849 170.772H312.554L304.565 197.451C304.3 198.338 303.931 199.099 303.459 199.734C302.987 200.369 302.426 200.886 301.777 201.285C301.128 201.699 300.405 202.001 299.608 202.194C298.826 202.386 297.985 202.482 297.085 202.482C296.716 202.482 296.288 202.467 295.802 202.437C295.329 202.408 294.835 202.363 294.319 202.304C293.817 202.26 293.316 202.201 292.814 202.127C292.327 202.053 291.877 201.965 291.464 201.861L292.615 196.853C292.969 196.942 293.338 197.016 293.721 197.075C294.061 197.134 294.43 197.178 294.828 197.208C295.241 197.252 295.661 197.274 296.089 197.274Z" fill="black"/>
<path d="M337.584 168.689H322.336V162.728H344.865V168.733L328.975 188.566H345.064V194.504H321.672V188.521L337.584 168.689Z" fill="black"/>
<path d="M348.45 188.92L360.135 176.4H349.402V170.772H367.35V176.444L355.598 188.964H367.925V194.504H348.45V188.92Z" fill="black"/>
<path d="M14.0128 210.001V241.777H7.44V220.77H1.68605V214.965H3.10241C4.04664 214.965 4.81384 214.883 5.40399 214.721C6.00889 214.544 6.48101 214.278 6.82035 213.923C7.15968 213.569 7.38836 213.118 7.50639 212.571C7.62442 212.01 7.68344 211.338 7.68344 210.555V210.001H14.0128Z" fill="black"/>
<path d="M30.655 215.496C29.7845 215.496 29.0247 215.637 28.3755 215.918C27.7264 216.198 27.1879 216.59 26.76 217.092C26.3321 217.594 26.0149 218.185 25.8084 218.865C25.6018 219.529 25.4986 220.253 25.4986 221.036L18.9258 220.438C18.9405 218.695 19.2504 217.151 19.8553 215.807C20.4602 214.448 21.2864 213.31 22.3339 212.394C23.3814 211.463 24.6133 210.762 26.0297 210.289C27.4608 209.802 29.0173 209.558 30.6993 209.558C32.4549 209.558 34.0557 209.824 35.5016 210.356C36.9622 210.873 38.2089 211.604 39.2417 212.549C40.2744 213.495 41.0711 214.632 41.6318 215.962C42.2072 217.277 42.4949 218.724 42.4949 220.305C42.4949 222.033 42.1481 223.651 41.4547 225.158C40.776 226.65 39.8687 228.039 38.7327 229.324C37.5966 230.594 36.2909 231.761 34.8155 232.825C33.3402 233.874 31.8205 234.819 30.2566 235.661L29.6591 235.972H42.8932V241.777H19.7446V236.016C20.9397 235.366 22.1568 234.672 23.3962 233.933C24.6502 233.194 25.86 232.426 27.0256 231.628C28.2059 230.816 29.3198 229.974 30.3673 229.102C31.4148 228.231 32.3222 227.33 33.0894 226.399C33.8713 225.453 34.491 224.486 34.9483 223.496C35.4057 222.491 35.6344 221.457 35.6344 220.394C35.6344 219.788 35.5311 219.19 35.3245 218.599C35.118 218.008 34.8082 217.483 34.3951 217.025C33.9967 216.568 33.4803 216.198 32.8459 215.918C32.2263 215.637 31.496 215.496 30.655 215.496Z" fill="black"/>
<path d="M52.7413 232.072C52.9774 232.825 53.3093 233.482 53.7372 234.044C54.1651 234.59 54.6593 235.048 55.2199 235.418C55.7953 235.772 56.415 236.038 57.0789 236.215C57.7576 236.378 58.4584 236.459 59.1813 236.459C60.1846 236.459 61.0329 236.341 61.7263 236.105C62.4345 235.853 63.0025 235.536 63.4304 235.152C63.873 234.753 64.1902 234.31 64.382 233.822C64.5738 233.32 64.6697 232.81 64.6697 232.293C64.6697 231.038 64.146 230.048 63.0984 229.324C62.0657 228.585 60.4723 228.216 58.3182 228.216H56.5478V222.853H57.8977C59.8452 222.853 61.3649 222.536 62.4567 221.901C63.5632 221.265 64.1164 220.298 64.1164 218.998C64.1164 218.436 63.991 217.934 63.7402 217.491C63.4894 217.033 63.1427 216.649 62.7001 216.339C62.2722 216.028 61.7558 215.792 61.1509 215.629C60.5608 215.452 59.919 215.364 59.2256 215.364C58.4289 215.364 57.6986 215.474 57.0347 215.696C56.3855 215.918 55.8027 216.22 55.2863 216.604C54.77 216.989 54.32 217.439 53.9364 217.956C53.5675 218.473 53.2725 219.02 53.0511 219.596L47.3857 217.314C47.7251 216.073 48.2857 214.972 49.0676 214.012C49.8496 213.052 50.7643 212.246 51.8118 211.596C52.8741 210.932 54.0396 210.429 55.3085 210.09C56.5773 209.735 57.8682 209.558 59.1813 209.558C60.819 209.558 62.3386 209.757 63.7402 210.156C65.1418 210.555 66.359 211.138 67.3918 211.907C68.4393 212.66 69.2581 213.591 69.8483 214.699C70.4384 215.807 70.7335 217.07 70.7335 218.488C70.7335 219.33 70.5933 220.12 70.313 220.859C70.0474 221.583 69.6786 222.24 69.2065 222.831C68.7491 223.407 68.2032 223.902 67.5688 224.316C66.9344 224.73 66.2557 225.047 65.5328 225.269C66.3443 225.446 67.1041 225.741 67.8123 226.155C68.5204 226.569 69.1401 227.086 69.6712 227.706C70.2024 228.327 70.6155 229.043 70.9105 229.856C71.2204 230.668 71.3753 231.555 71.3753 232.515C71.3753 233.977 71.0581 235.307 70.4237 236.503C69.804 237.7 68.9483 238.719 67.8565 239.561C66.7647 240.403 65.4738 241.061 63.9837 241.534C62.5083 241.992 60.9075 242.221 59.1813 242.221C57.6617 242.221 56.2011 242.029 54.7995 241.644C53.3979 241.246 52.1364 240.684 51.0151 239.96C49.8939 239.222 48.9496 238.328 48.1824 237.279C47.4152 236.215 46.8988 235.019 46.6333 233.689L52.7413 232.072Z" fill="black"/>
<path d="M90.2305 241.777V234.598H74.4072V227.751L88.4601 210.001H96.6705V228.792H101.296V234.598H96.6705V241.777H90.2305ZM90.2305 228.792V216.316L80.3603 228.792H90.2305Z" fill="black"/>
<path d="M104.881 227.352L106.651 210.001H127.012V215.829H112.051L111.41 221.723C111.764 221.428 112.177 221.162 112.649 220.925C113.121 220.689 113.63 220.49 114.176 220.327C114.722 220.165 115.275 220.039 115.836 219.95C116.411 219.862 116.979 219.818 117.54 219.818C119.133 219.818 120.608 220.076 121.966 220.593C123.323 221.11 124.496 221.841 125.485 222.787C126.473 223.732 127.248 224.87 127.808 226.199C128.369 227.529 128.649 228.999 128.649 230.609C128.649 232.367 128.325 233.963 127.676 235.395C127.041 236.814 126.156 238.032 125.02 239.052C123.899 240.056 122.571 240.839 121.036 241.401C119.517 241.947 117.879 242.221 116.123 242.221C114.707 242.221 113.342 242.036 112.029 241.667C110.731 241.297 109.543 240.765 108.466 240.071C107.389 239.377 106.452 238.52 105.656 237.501C104.874 236.481 104.298 235.322 103.929 234.022L110.015 232.027C110.473 233.401 111.188 234.48 112.162 235.263C113.136 236.031 114.427 236.415 116.035 236.415C116.994 236.415 117.842 236.252 118.58 235.927C119.318 235.602 119.93 235.181 120.417 234.664C120.918 234.132 121.295 233.534 121.545 232.869C121.811 232.19 121.944 231.495 121.944 230.786C121.944 230.092 121.811 229.42 121.545 228.77C121.28 228.105 120.889 227.522 120.372 227.019C119.871 226.502 119.251 226.089 118.513 225.778C117.791 225.468 116.964 225.313 116.035 225.313C115.459 225.313 114.914 225.394 114.397 225.557C113.881 225.705 113.409 225.904 112.981 226.155C112.553 226.391 112.184 226.672 111.874 226.997C111.564 227.307 111.321 227.618 111.144 227.928L104.881 227.352Z" fill="black"/>
<path d="M131.925 226.222C131.925 224.789 132.035 223.385 132.257 222.011C132.493 220.623 132.847 219.315 133.319 218.089C133.806 216.848 134.418 215.711 135.156 214.677C135.893 213.628 136.779 212.727 137.811 211.973C138.844 211.22 140.024 210.629 141.352 210.2C142.695 209.772 144.192 209.558 145.845 209.558C147.187 209.558 148.434 209.728 149.585 210.067C150.75 210.392 151.79 210.85 152.705 211.441C153.635 212.017 154.439 212.704 155.117 213.502C155.796 214.285 156.327 215.135 156.711 216.05L150.78 218.355C150.263 217.35 149.555 216.597 148.655 216.095C147.77 215.578 146.767 215.319 145.646 215.319C144.554 215.319 143.587 215.541 142.746 215.984C141.905 216.412 141.19 217.003 140.6 217.757C140.024 218.51 139.582 219.389 139.272 220.394C138.962 221.398 138.792 222.462 138.763 223.585C139.132 223.215 139.567 222.861 140.069 222.521C140.57 222.166 141.124 221.864 141.728 221.612C142.348 221.361 143.012 221.162 143.72 221.014C144.443 220.852 145.196 220.77 145.978 220.77C147.527 220.77 148.965 221.022 150.293 221.524C151.636 222.026 152.794 222.735 153.767 223.651C154.756 224.552 155.531 225.631 156.091 226.886C156.652 228.142 156.932 229.523 156.932 231.03C156.932 232.626 156.644 234.11 156.069 235.484C155.508 236.843 154.704 238.025 153.657 239.03C152.624 240.019 151.377 240.802 149.917 241.379C148.456 241.94 146.826 242.221 145.026 242.221C143.049 242.221 141.256 241.873 139.648 241.179C138.04 240.47 136.661 239.458 135.51 238.143C134.374 236.828 133.488 235.226 132.854 233.335C132.234 231.444 131.925 229.309 131.925 226.931V226.222ZM139.073 231.385C139.073 232.138 139.206 232.84 139.471 233.49C139.737 234.14 140.113 234.709 140.6 235.196C141.101 235.669 141.699 236.046 142.392 236.326C143.086 236.607 143.853 236.747 144.694 236.747C145.564 236.747 146.346 236.607 147.04 236.326C147.733 236.046 148.316 235.669 148.788 235.196C149.275 234.709 149.644 234.14 149.895 233.49C150.145 232.84 150.271 232.138 150.271 231.385C150.271 230.646 150.145 229.959 149.895 229.324C149.644 228.674 149.275 228.112 148.788 227.64C148.316 227.152 147.733 226.768 147.04 226.487C146.346 226.207 145.564 226.066 144.694 226.066C143.853 226.066 143.086 226.207 142.392 226.487C141.699 226.768 141.101 227.152 140.6 227.64C140.113 228.112 139.737 228.674 139.471 229.324C139.206 229.959 139.073 230.646 139.073 231.385Z" fill="black"/>
<path d="M175.61 216.095H159.61V210.001H182.227V216.183L169.945 241.777H162.421L175.61 216.095Z" fill="black"/>
<path d="M197.453 209.558C198.442 209.558 199.416 209.639 200.374 209.802C201.333 209.949 202.241 210.186 203.097 210.511C203.952 210.836 204.742 211.249 205.465 211.752C206.202 212.239 206.837 212.823 207.368 213.502C207.899 214.167 208.312 214.928 208.607 215.785C208.902 216.641 209.05 217.594 209.05 218.643C209.05 219.204 208.976 219.795 208.828 220.416C208.681 221.022 208.43 221.62 208.076 222.211C207.737 222.802 207.287 223.363 206.726 223.895C206.18 224.412 205.509 224.848 204.712 225.202C205.627 225.572 206.416 226.03 207.08 226.576C207.744 227.108 208.29 227.706 208.718 228.371C209.146 229.021 209.455 229.708 209.647 230.432C209.854 231.156 209.957 231.88 209.957 232.603C209.957 234.273 209.603 235.713 208.895 236.924C208.201 238.136 207.272 239.133 206.106 239.916C204.941 240.699 203.606 241.282 202.101 241.667C200.596 242.036 199.047 242.221 197.453 242.221C195.86 242.221 194.311 242.036 192.806 241.667C191.316 241.282 189.988 240.699 188.822 239.916C187.657 239.133 186.72 238.136 186.012 236.924C185.304 235.713 184.949 234.273 184.949 232.603C184.949 231.88 185.053 231.156 185.259 230.432C185.466 229.708 185.783 229.021 186.211 228.371C186.654 227.706 187.199 227.108 187.849 226.576C188.512 226.03 189.294 225.572 190.194 225.202C189.398 224.848 188.726 224.412 188.181 223.895C187.635 223.363 187.185 222.802 186.831 222.211C186.491 221.62 186.24 221.022 186.078 220.416C185.931 219.795 185.857 219.204 185.857 218.643C185.857 217.121 186.181 215.792 186.831 214.654C187.48 213.517 188.343 212.571 189.42 211.818C190.512 211.065 191.751 210.503 193.138 210.134C194.525 209.75 195.963 209.558 197.453 209.558ZM197.453 222.765C198.206 222.765 198.884 222.683 199.489 222.521C200.109 222.344 200.633 222.093 201.061 221.768C201.503 221.428 201.842 221.022 202.079 220.549C202.315 220.061 202.433 219.5 202.433 218.865C202.433 218.259 202.307 217.72 202.056 217.247C201.82 216.774 201.481 216.375 201.038 216.05C200.596 215.711 200.065 215.452 199.445 215.275C198.84 215.098 198.176 215.009 197.453 215.009C196.73 215.009 196.059 215.098 195.439 215.275C194.834 215.452 194.311 215.711 193.868 216.05C193.425 216.375 193.079 216.774 192.828 217.247C192.592 217.72 192.474 218.259 192.474 218.865C192.474 219.5 192.592 220.061 192.828 220.549C193.064 221.022 193.396 221.428 193.824 221.768C194.266 222.093 194.79 222.344 195.395 222.521C196.015 222.683 196.701 222.765 197.453 222.765ZM197.453 236.792C198.294 236.792 199.061 236.688 199.755 236.481C200.463 236.274 201.068 235.979 201.57 235.595C202.071 235.211 202.462 234.753 202.742 234.221C203.023 233.689 203.163 233.091 203.163 232.426C203.163 231.776 203.023 231.185 202.742 230.653C202.462 230.107 202.071 229.641 201.57 229.257C201.068 228.859 200.463 228.556 199.755 228.349C199.061 228.127 198.294 228.016 197.453 228.016C196.612 228.016 195.845 228.127 195.152 228.349C194.458 228.556 193.853 228.859 193.337 229.257C192.835 229.641 192.444 230.107 192.164 230.653C191.884 231.185 191.744 231.776 191.744 232.426C191.744 233.091 191.884 233.689 192.164 234.221C192.444 234.753 192.835 235.211 193.337 235.595C193.853 235.979 194.458 236.274 195.152 236.481C195.845 236.688 196.612 236.792 197.453 236.792Z" fill="black"/>
<path d="M238.417 225.579C238.417 227.012 238.306 228.415 238.085 229.789C237.864 231.163 237.517 232.47 237.045 233.711C236.588 234.938 235.997 236.075 235.274 237.124C234.552 238.158 233.681 239.052 232.663 239.805C231.645 240.559 230.472 241.15 229.144 241.578C227.831 242.006 226.348 242.221 224.696 242.221C223.339 242.221 222.085 242.058 220.934 241.733C219.783 241.393 218.743 240.935 217.813 240.359C216.884 239.783 216.08 239.103 215.401 238.321C214.722 237.523 214.191 236.666 213.808 235.75L219.739 233.423C220.27 234.428 220.978 235.189 221.863 235.706C222.763 236.208 223.781 236.459 224.917 236.459C226.024 236.459 226.998 236.245 227.839 235.817C228.68 235.373 229.373 234.775 229.919 234.022C230.479 233.268 230.9 232.397 231.18 231.407C231.461 230.402 231.593 229.339 231.579 228.216C231.21 228.585 230.775 228.94 230.273 229.28C229.771 229.619 229.211 229.922 228.591 230.188C227.986 230.439 227.322 230.646 226.599 230.809C225.891 230.956 225.146 231.03 224.364 231.03C222.815 231.03 221.369 230.779 220.026 230.277C218.699 229.76 217.54 229.051 216.552 228.149C215.578 227.234 214.811 226.148 214.25 224.892C213.69 223.636 213.409 222.262 213.409 220.77C213.409 219.175 213.69 217.69 214.25 216.316C214.826 214.942 215.63 213.761 216.663 212.771C217.71 211.766 218.964 210.983 220.425 210.422C221.885 209.846 223.516 209.558 225.316 209.558C227.293 209.558 229.085 209.912 230.693 210.621C232.302 211.316 233.674 212.32 234.81 213.635C235.96 214.95 236.846 216.553 237.465 218.444C238.1 220.335 238.417 222.469 238.417 224.848V225.579ZM231.269 220.394C231.269 219.64 231.136 218.939 230.87 218.289C230.605 217.639 230.221 217.077 229.72 216.604C229.233 216.117 228.643 215.74 227.949 215.474C227.256 215.194 226.489 215.053 225.648 215.053C224.777 215.053 223.995 215.194 223.302 215.474C222.608 215.74 222.018 216.117 221.531 216.604C221.044 217.077 220.668 217.639 220.403 218.289C220.152 218.939 220.026 219.64 220.026 220.394C220.026 221.132 220.152 221.827 220.403 222.477C220.668 223.127 221.044 223.695 221.531 224.183C222.018 224.656 222.608 225.032 223.302 225.313C223.995 225.579 224.777 225.712 225.648 225.712C226.489 225.712 227.256 225.579 227.949 225.313C228.643 225.032 229.233 224.656 229.72 224.183C230.221 223.695 230.605 223.127 230.87 222.477C231.136 221.827 231.269 221.132 231.269 220.394Z" fill="black"/>
<path d="M248.663 226.355C248.663 227.699 248.767 228.984 248.973 230.21C249.18 231.422 249.512 232.493 249.969 233.423C250.441 234.354 251.061 235.093 251.828 235.639C252.595 236.186 253.547 236.459 254.683 236.459C255.819 236.459 256.771 236.186 257.538 235.639C258.305 235.093 258.917 234.354 259.375 233.423C259.847 232.493 260.179 231.422 260.371 230.21C260.577 228.984 260.68 227.699 260.68 226.355V225.49C260.68 224.146 260.577 222.861 260.371 221.635C260.179 220.408 259.847 219.33 259.375 218.399C258.917 217.469 258.305 216.73 257.538 216.183C256.771 215.637 255.819 215.364 254.683 215.364C253.547 215.364 252.595 215.637 251.828 216.183C251.061 216.73 250.441 217.469 249.969 218.399C249.512 219.33 249.18 220.408 248.973 221.635C248.767 222.861 248.663 224.146 248.663 225.49V226.355ZM267.386 225.933C267.386 227.234 267.29 228.541 267.098 229.856C266.921 231.17 266.626 232.434 266.213 233.645C265.815 234.856 265.291 235.994 264.642 237.057C263.993 238.106 263.196 239.022 262.252 239.805C261.307 240.573 260.208 241.179 258.954 241.622C257.715 242.065 256.291 242.287 254.683 242.287C253.09 242.287 251.666 242.065 250.412 241.622C249.158 241.179 248.059 240.573 247.114 239.805C246.185 239.022 245.395 238.106 244.746 237.057C244.097 236.009 243.566 234.878 243.153 233.667C242.755 232.456 242.46 231.193 242.268 229.878C242.091 228.563 242.002 227.248 242.002 225.933C242.002 224.633 242.091 223.326 242.268 222.011C242.46 220.697 242.755 219.433 243.153 218.222C243.566 217.011 244.097 215.881 244.746 214.832C245.395 213.768 246.185 212.852 247.114 212.084C248.059 211.301 249.15 210.688 250.39 210.245C251.644 209.787 253.075 209.558 254.683 209.558C256.291 209.558 257.715 209.787 258.954 210.245C260.208 210.688 261.307 211.301 262.252 212.084C263.196 212.852 263.993 213.768 264.642 214.832C265.291 215.881 265.815 217.011 266.213 218.222C266.626 219.433 266.921 220.697 267.098 222.011C267.29 223.326 267.386 224.633 267.386 225.933Z" fill="black"/>
<path d="M3.41223 257.274H10.1178L9.54241 278.303H4.00976L3.41223 257.274ZM2.54914 285.239C2.54914 284.663 2.65979 284.124 2.8811 283.621C3.10241 283.104 3.40486 282.654 3.78845 282.27C4.18681 281.886 4.64417 281.583 5.16055 281.361C5.67693 281.14 6.2302 281.029 6.82035 281.029C7.39574 281.029 7.93425 281.14 8.43588 281.361C8.95226 281.583 9.40225 281.886 9.78584 282.27C10.1694 282.654 10.4719 283.104 10.6932 283.621C10.9145 284.124 11.0252 284.663 11.0252 285.239C11.0252 285.83 10.9145 286.384 10.6932 286.901C10.4719 287.418 10.1694 287.869 9.78584 288.253C9.40225 288.637 8.95226 288.94 8.43588 289.161C7.93425 289.383 7.39574 289.494 6.82035 289.494C6.2302 289.494 5.67693 289.383 5.16055 289.161C4.64417 288.94 4.18681 288.637 3.78845 288.253C3.40486 287.869 3.10241 287.418 2.8811 286.901C2.65979 286.384 2.54914 285.83 2.54914 285.239Z" fill="black"/>
<path d="M40.8129 286.79C40.5474 287.145 40.2228 287.492 39.8392 287.832C39.4556 288.157 39.013 288.445 38.5114 288.696C38.0097 288.932 37.4565 289.124 36.8516 289.272C36.2467 289.42 35.5901 289.494 34.8819 289.494C33.318 289.494 31.8943 289.183 30.6107 288.563C29.3419 287.943 28.2501 287.086 27.3354 285.993C26.4354 284.899 25.7346 283.599 25.233 282.092C24.7461 280.586 24.5027 278.953 24.5027 277.195C24.5027 275.437 24.7387 273.805 25.2109 272.298C25.6977 270.791 26.3838 269.491 27.269 268.398C28.169 267.29 29.246 266.426 30.5001 265.805C31.7689 265.17 33.1853 264.853 34.7492 264.853C35.4426 264.853 36.0696 264.919 36.6303 265.052C37.1909 265.185 37.6999 265.362 38.1573 265.584C38.6294 265.805 39.0572 266.071 39.4408 266.382C39.8244 266.677 40.1785 267.002 40.5031 267.357V265.318H46.6333V284.84C46.6333 285.091 46.707 285.335 46.8546 285.571C47.0021 285.808 47.2898 285.926 47.7177 285.926C48.5291 285.926 49.2668 285.653 49.9307 285.106C50.5947 284.56 51.1553 283.828 51.6127 282.912C52.0848 281.982 52.4462 280.903 52.6971 279.677C52.9626 278.451 53.0954 277.158 53.0954 275.799C53.0954 274.455 52.9553 273.103 52.6749 271.744C52.4094 270.385 51.9889 269.085 51.4135 267.844C50.8381 266.588 50.1004 265.421 49.2004 264.343C48.3004 263.264 47.2161 262.326 45.9472 261.529C44.6932 260.731 43.2547 260.103 41.6318 259.645C40.0089 259.187 38.1794 258.958 36.1434 258.958C33.6648 258.958 31.3558 259.416 29.2165 260.332C27.0772 261.248 25.2182 262.526 23.6396 264.166C22.0609 265.805 20.8216 267.755 19.9217 270.016C19.0217 272.261 18.5717 274.721 18.5717 277.395C18.5717 279.167 18.7709 280.852 19.1692 282.447C19.5823 284.042 20.1651 285.52 20.9175 286.879C21.67 288.238 22.5773 289.464 23.6396 290.557C24.7019 291.651 25.8822 292.581 27.1805 293.349C28.4788 294.132 29.8804 294.731 31.3853 295.144C32.9049 295.558 34.491 295.765 36.1434 295.765C37.5892 295.765 39.013 295.587 40.4146 295.233C41.8309 294.878 43.1883 294.361 44.4866 293.682L47.0316 296.319C45.2464 297.294 43.3948 297.981 41.4769 298.38C39.5736 298.793 37.722 299 35.9221 299C33.9156 299 32.005 298.741 30.1902 298.224C28.3755 297.722 26.6862 297.006 25.1223 296.075C23.5732 295.144 22.1642 294.022 20.8954 292.707C19.6266 291.407 18.5422 289.959 17.6422 288.364C16.757 286.753 16.0709 285.025 15.5841 283.178C15.0972 281.332 14.8537 279.404 14.8537 277.395C14.8537 275.386 15.1046 273.458 15.6062 271.611C16.1078 269.75 16.816 268.014 17.7307 266.404C18.6602 264.793 19.7741 263.331 21.0724 262.016C22.3708 260.701 23.8093 259.579 25.3879 258.648C26.9813 257.702 28.6927 256.979 30.5222 256.476C32.3664 255.959 34.2918 255.701 36.2983 255.701C38.3048 255.701 40.2007 255.922 41.9859 256.366C43.7858 256.809 45.4456 257.444 46.9652 258.271C48.4849 259.099 49.8496 260.11 51.0594 261.307C52.284 262.504 53.3167 263.855 54.1577 265.362C55.0134 266.854 55.6699 268.494 56.1273 270.282C56.5847 272.069 56.8134 273.967 56.8134 275.977C56.8134 277.011 56.7175 278.067 56.5257 279.145C56.3486 280.209 56.0683 281.243 55.6847 282.248C55.3158 283.252 54.8437 284.198 54.2683 285.084C53.6929 285.956 53.0216 286.724 52.2544 287.389C51.502 288.039 50.6389 288.556 49.6652 288.94C48.7062 289.309 47.6439 289.494 46.4784 289.494C45.5636 289.494 44.7743 289.39 44.1104 289.183C43.4612 288.991 42.908 288.755 42.4506 288.474C41.9932 288.179 41.6318 287.883 41.3662 287.588C41.1154 287.278 40.931 287.012 40.8129 286.79ZM40.6801 274.979C40.6801 274.344 40.5769 273.753 40.3703 273.207C40.1638 272.66 39.8613 272.187 39.463 271.788C39.0794 271.39 38.5925 271.079 38.0023 270.858C37.427 270.636 36.763 270.525 36.0106 270.525C35.1401 270.525 34.3803 270.688 33.7311 271.013C33.082 271.338 32.5361 271.796 32.0935 272.387C31.6656 272.963 31.341 273.65 31.1197 274.448C30.9132 275.245 30.8099 276.117 30.8099 277.062V277.35C30.8099 278.296 30.9132 279.167 31.1197 279.965C31.341 280.748 31.6656 281.428 32.0935 282.004C32.5361 282.58 33.082 283.031 33.7311 283.356C34.3803 283.666 35.1401 283.821 36.0106 283.821C36.763 283.821 37.427 283.71 38.0023 283.489C38.5925 283.267 39.0794 282.957 39.463 282.558C39.8613 282.159 40.1638 281.694 40.3703 281.162C40.5769 280.615 40.6801 280.024 40.6801 279.389V274.979Z" fill="black"/>
<path d="M78.3022 265.362C77.9776 264.609 77.4317 263.981 76.6645 263.479C75.9121 262.976 74.9899 262.725 73.8982 262.725C73.2342 262.725 72.6367 262.843 72.1056 263.08C71.5892 263.316 71.1466 263.649 70.7778 264.077C70.4089 264.505 70.1212 265.022 69.9147 265.628C69.7229 266.234 69.6343 266.913 69.6491 267.667L69.6934 270.858H76.067V276.442H69.6934V283.245H83.016V289.05H60.6198V283.245H63.2534V276.442H60.6198V270.858H63.2534V267.268C63.2534 265.628 63.5115 264.166 64.0279 262.88C64.5591 261.595 65.2894 260.502 66.2189 259.601C67.1631 258.7 68.277 258.013 69.5606 257.54C70.8589 257.067 72.2753 256.831 73.8096 256.831C74.8719 256.831 75.8899 256.934 76.8637 257.141C77.8522 257.348 78.7595 257.651 79.5857 258.05C80.4267 258.449 81.1791 258.936 81.843 259.512C82.507 260.088 83.0602 260.753 83.5028 261.507L78.3022 265.362Z" fill="black"/>
<path d="M101.827 264.498C101.827 265.562 101.628 266.566 101.229 267.512C100.831 268.442 100.285 269.255 99.5918 269.949C98.9131 270.629 98.109 271.168 97.1795 271.567C96.2501 271.966 95.2468 272.165 94.1698 272.165C93.078 272.165 92.06 271.966 91.1158 271.567C90.1863 271.168 89.3748 270.629 88.6814 269.949C87.988 269.255 87.4421 268.442 87.0437 267.512C86.6454 266.566 86.4462 265.562 86.4462 264.498C86.4462 263.434 86.6454 262.437 87.0437 261.507C87.4421 260.576 87.988 259.763 88.6814 259.069C89.3748 258.375 90.1863 257.828 91.1158 257.429C92.06 257.03 93.078 256.831 94.1698 256.831C95.2468 256.831 96.2501 257.03 97.1795 257.429C98.109 257.828 98.9131 258.375 99.5918 259.069C100.285 259.763 100.831 260.576 101.229 261.507C101.628 262.437 101.827 263.434 101.827 264.498ZM91.0715 264.498C91.0715 264.956 91.1453 265.384 91.2928 265.783C91.4403 266.167 91.6469 266.507 91.9125 266.803C92.178 267.098 92.4952 267.334 92.8641 267.512C93.2477 267.674 93.6608 267.755 94.1034 267.755C94.5608 267.755 94.9812 267.674 95.3648 267.512C95.7484 267.334 96.073 267.098 96.3386 266.803C96.6189 266.507 96.8328 266.167 96.9804 265.783C97.1279 265.384 97.2017 264.956 97.2017 264.498C97.2017 264.04 97.1279 263.619 96.9804 263.235C96.8328 262.836 96.6189 262.489 96.3386 262.193C96.073 261.898 95.7484 261.669 95.3648 261.507C94.9812 261.329 94.5608 261.241 94.1034 261.241C93.6608 261.241 93.2477 261.329 92.8641 261.507C92.4952 261.669 92.178 261.898 91.9125 262.193C91.6469 262.489 91.4403 262.836 91.2928 263.235C91.1453 263.619 91.0715 264.04 91.0715 264.498ZM110.48 257.274H115.725L96.0066 289.05H90.7174L110.48 257.274ZM120.04 281.827C120.04 282.89 119.841 283.895 119.443 284.84C119.045 285.771 118.499 286.583 117.805 287.278C117.127 287.957 116.323 288.496 115.393 288.895C114.464 289.294 113.46 289.494 112.383 289.494C111.291 289.494 110.273 289.294 109.329 288.895C108.4 288.496 107.588 287.957 106.895 287.278C106.201 286.583 105.656 285.771 105.257 284.84C104.874 283.895 104.682 282.89 104.682 281.827C104.682 280.763 104.874 279.766 105.257 278.835C105.656 277.904 106.201 277.092 106.895 276.398C107.588 275.703 108.4 275.157 109.329 274.758C110.273 274.359 111.291 274.159 112.383 274.159C113.46 274.159 114.464 274.359 115.393 274.758C116.323 275.157 117.127 275.703 117.805 276.398C118.499 277.092 119.045 277.904 119.443 278.835C119.841 279.766 120.04 280.763 120.04 281.827ZM109.307 281.827C109.307 282.285 109.381 282.713 109.528 283.112C109.676 283.511 109.883 283.858 110.148 284.153C110.414 284.449 110.731 284.685 111.1 284.862C111.469 285.025 111.882 285.106 112.339 285.106C112.796 285.106 113.217 285.025 113.6 284.862C113.984 284.685 114.309 284.449 114.574 284.153C114.84 283.858 115.046 283.511 115.194 283.112C115.341 282.713 115.415 282.285 115.415 281.827C115.415 281.369 115.341 280.948 115.194 280.563C115.046 280.165 114.84 279.817 114.574 279.522C114.309 279.227 113.984 278.998 113.6 278.835C113.217 278.658 112.796 278.569 112.339 278.569C111.882 278.569 111.469 278.658 111.1 278.835C110.731 278.998 110.414 279.227 110.148 279.522C109.883 279.817 109.676 280.165 109.528 280.563C109.381 280.948 109.307 281.369 109.307 281.827Z" fill="black"/>
<path d="M132.588 264.542C132.588 265.118 132.743 265.702 133.053 266.293C133.378 266.884 133.754 267.467 134.182 268.043C135.052 267.526 135.775 266.943 136.351 266.293C136.926 265.643 137.214 265 137.214 264.365C137.214 263.641 136.985 263.08 136.528 262.681C136.07 262.282 135.554 262.083 134.979 262.083C134.285 262.083 133.71 262.319 133.252 262.792C132.81 263.264 132.588 263.848 132.588 264.542ZM131.858 275.201C131.106 275.659 130.449 276.302 129.889 277.129C129.328 277.941 129.048 278.813 129.048 279.744C129.048 280.349 129.158 280.903 129.38 281.406C129.616 281.908 129.925 282.336 130.309 282.691C130.707 283.031 131.172 283.296 131.703 283.489C132.234 283.681 132.788 283.777 133.363 283.777C134.293 283.777 135.082 283.621 135.731 283.311C136.38 282.986 136.874 282.646 137.214 282.292L131.858 275.201ZM122.342 279.921C122.342 279.197 122.438 278.436 122.63 277.638C122.836 276.841 123.176 276.036 123.648 275.223C124.135 274.396 124.799 273.591 125.639 272.808C126.495 272.025 127.557 271.279 128.826 270.57C128.015 269.432 127.417 268.391 127.034 267.445C126.65 266.485 126.458 265.503 126.458 264.498C126.458 263.434 126.672 262.437 127.1 261.507C127.528 260.561 128.111 259.741 128.848 259.047C129.586 258.353 130.486 257.813 131.548 257.429C132.611 257.03 133.776 256.831 135.045 256.831C136.211 256.831 137.295 257.023 138.298 257.407C139.301 257.776 140.165 258.293 140.887 258.958C141.61 259.623 142.171 260.413 142.569 261.329C142.982 262.23 143.189 263.213 143.189 264.276C143.189 265.842 142.746 267.283 141.861 268.597C140.991 269.912 139.471 271.161 137.302 272.342L141.242 277.439C141.492 276.981 141.765 276.279 142.06 275.334C142.355 274.374 142.599 273.229 142.791 271.899H149.452C149.393 272.83 149.223 273.82 148.943 274.869C148.677 275.917 148.353 276.929 147.969 277.904C147.6 278.865 147.18 279.758 146.708 280.586C146.236 281.413 145.786 282.07 145.358 282.558L145.734 282.935C146.088 283.289 146.464 283.525 146.863 283.644C147.261 283.762 147.718 283.821 148.235 283.821C148.471 283.821 148.685 283.814 148.877 283.799C149.083 283.784 149.26 283.762 149.408 283.732C149.555 283.703 149.703 283.673 149.85 283.644L149.939 289.095C149.363 289.183 148.759 289.272 148.124 289.361C147.49 289.449 146.922 289.494 146.42 289.494C145.358 289.494 144.45 289.361 143.698 289.095C142.946 288.829 142.252 288.349 141.618 287.654L140.799 286.746C139.796 287.618 138.63 288.297 137.302 288.785C135.974 289.257 134.447 289.494 132.721 289.494C131.423 289.494 130.154 289.272 128.915 288.829C127.676 288.371 126.562 287.728 125.573 286.901C124.599 286.059 123.817 285.054 123.227 283.887C122.637 282.706 122.342 281.383 122.342 279.921Z" fill="black"/>
<path d="M171.162 261.507L172.888 266.869L166.316 268.043L171.671 273.251L166.825 276.663L162.73 270.57L158.747 276.663L153.9 273.251L159.3 268.043L152.683 266.869L154.431 261.507L160.429 264.143L159.743 257.274H165.829L165.187 264.143L171.162 261.507Z" fill="black"/>
<path d="M182.117 278.303V276.929C182.117 275.94 182.264 275.046 182.559 274.248C182.869 273.45 183.245 272.726 183.688 272.076C184.145 271.412 184.632 270.806 185.149 270.259C185.68 269.698 186.167 269.166 186.609 268.664C187.067 268.162 187.443 267.667 187.738 267.179C188.048 266.692 188.203 266.175 188.203 265.628C188.203 265.214 188.114 264.845 187.937 264.52C187.775 264.18 187.546 263.892 187.251 263.656C186.971 263.42 186.631 263.242 186.233 263.124C185.849 263.006 185.429 262.947 184.972 262.947C184.308 262.947 183.688 263.035 183.113 263.213C182.552 263.375 182.028 263.589 181.541 263.855C181.054 264.121 180.604 264.424 180.191 264.764C179.793 265.104 179.439 265.451 179.129 265.805L175.5 261.241C176.075 260.62 176.724 260.044 177.447 259.512C178.17 258.966 178.959 258.493 179.815 258.094C180.671 257.695 181.586 257.385 182.559 257.163C183.533 256.942 184.566 256.831 185.658 256.831C187.104 256.831 188.424 257.052 189.619 257.496C190.814 257.924 191.839 258.515 192.695 259.268C193.551 260.007 194.215 260.871 194.687 261.861C195.159 262.836 195.395 263.87 195.395 264.963C195.395 265.761 195.299 266.5 195.107 267.179C194.93 267.844 194.665 268.479 194.311 269.085C193.957 269.691 193.521 270.289 193.005 270.88C192.489 271.456 191.898 272.054 191.235 272.675C190.851 273.029 190.482 273.384 190.128 273.738C189.789 274.093 189.486 274.477 189.221 274.891C188.97 275.29 188.763 275.725 188.601 276.198C188.453 276.671 188.38 277.203 188.38 277.794V278.303H182.117ZM181.032 285.283C181.032 284.707 181.143 284.161 181.364 283.644C181.6 283.127 181.91 282.676 182.294 282.292C182.677 281.908 183.127 281.605 183.644 281.383C184.175 281.147 184.728 281.029 185.304 281.029C185.879 281.029 186.417 281.147 186.919 281.383C187.435 281.605 187.885 281.908 188.269 282.292C188.653 282.676 188.955 283.127 189.176 283.644C189.398 284.161 189.508 284.707 189.508 285.283C189.508 285.86 189.398 286.406 189.176 286.923C188.955 287.425 188.653 287.869 188.269 288.253C187.885 288.637 187.435 288.94 186.919 289.161C186.417 289.383 185.879 289.494 185.304 289.494C184.728 289.494 184.175 289.383 183.644 289.161C183.127 288.94 182.677 288.637 182.294 288.253C181.91 287.869 181.6 287.425 181.364 286.923C181.143 286.406 181.032 285.86 181.032 285.283Z" fill="black"/>
<path d="M204.911 277.018C204.911 278.953 205.155 280.785 205.642 282.513C206.143 284.227 206.822 285.83 207.678 287.322C208.533 288.814 209.537 290.203 210.687 291.488C211.853 292.773 213.092 293.955 214.405 295.033L210.577 298.845L208.873 297.493C207.191 296.119 205.686 294.657 204.358 293.106C203.03 291.569 201.902 289.944 200.972 288.231C200.057 286.517 199.356 284.715 198.87 282.824C198.397 280.933 198.161 278.953 198.161 276.885C198.161 274.802 198.397 272.823 198.87 270.946C199.356 269.055 200.057 267.261 200.972 265.562C201.902 263.848 203.03 262.223 204.358 260.687C205.686 259.15 207.191 257.695 208.873 256.321L210.577 254.925L214.405 258.781C213.092 259.845 211.853 261.019 210.687 262.304C209.537 263.575 208.533 264.963 207.678 266.47C206.822 267.962 206.143 269.565 205.642 271.279C205.155 272.992 204.911 274.817 204.911 276.752V277.018Z" fill="black"/>
<path d="M224.807 276.752C224.807 274.817 224.556 272.992 224.054 271.279C223.567 269.565 222.896 267.962 222.04 266.47C221.185 264.963 220.174 263.575 219.008 262.304C217.858 261.019 216.626 259.845 215.313 258.781L219.141 254.925L220.845 256.321C222.527 257.695 224.032 259.15 225.36 260.687C226.688 262.223 227.809 263.848 228.724 265.562C229.653 267.261 230.354 269.055 230.826 270.946C231.313 272.823 231.556 274.802 231.556 276.885C231.556 278.953 231.313 280.933 230.826 282.824C230.354 284.715 229.653 286.517 228.724 288.231C227.809 289.944 226.688 291.569 225.36 293.106C224.032 294.657 222.527 296.119 220.845 297.493L219.141 298.845L215.313 295.033C216.626 293.955 217.858 292.773 219.008 291.488C220.174 290.203 221.185 288.814 222.04 287.322C222.896 285.83 223.567 284.227 224.054 282.513C224.556 280.785 224.807 278.953 224.807 277.018V276.752Z" fill="black"/>
<path d="M249.704 256.831C250.397 256.831 251.017 256.964 251.563 257.23C252.123 257.496 252.595 257.858 252.979 258.316C253.377 258.774 253.68 259.313 253.886 259.933C254.108 260.539 254.218 261.196 254.218 261.905C254.218 262.703 254.093 263.53 253.842 264.387C253.606 265.229 253.193 266.02 252.603 266.758C252.027 267.482 251.26 268.11 250.301 268.642C249.357 269.174 248.177 269.521 246.76 269.683L245.986 267.357L246.605 267.179C247.372 266.958 248 266.707 248.486 266.426C248.988 266.145 249.386 265.85 249.681 265.539C249.977 265.229 250.19 264.926 250.323 264.631C250.471 264.321 250.567 264.033 250.611 263.767C250.449 263.914 250.242 264.025 249.991 264.099C249.74 264.158 249.475 264.188 249.195 264.188C248.722 264.188 248.272 264.114 247.845 263.966C247.432 263.804 247.063 263.575 246.738 263.279C246.428 262.984 246.177 262.614 245.986 262.171C245.794 261.728 245.698 261.218 245.698 260.642C245.698 260.11 245.801 259.616 246.008 259.158C246.229 258.685 246.524 258.279 246.893 257.939C247.262 257.599 247.69 257.333 248.177 257.141C248.663 256.934 249.172 256.831 249.704 256.831ZM239.236 256.831C239.929 256.831 240.549 256.964 241.095 257.23C241.655 257.496 242.128 257.858 242.511 258.316C242.909 258.774 243.212 259.313 243.418 259.933C243.64 260.539 243.75 261.196 243.75 261.905C243.75 262.703 243.625 263.53 243.374 264.387C243.138 265.229 242.725 266.02 242.135 266.758C241.56 267.482 240.792 268.11 239.833 268.642C238.889 269.174 237.709 269.521 236.292 269.683L235.518 267.357L236.138 267.179C236.905 266.958 237.532 266.707 238.019 266.426C238.52 266.145 238.919 265.85 239.214 265.539C239.509 265.229 239.723 264.926 239.855 264.631C240.003 264.321 240.099 264.033 240.143 263.767C239.981 263.914 239.774 264.025 239.524 264.099C239.273 264.158 239.007 264.188 238.727 264.188C238.255 264.188 237.805 264.114 237.377 263.966C236.964 263.804 236.595 263.575 236.27 263.279C235.96 262.984 235.71 262.614 235.518 262.171C235.326 261.728 235.23 261.218 235.23 260.642C235.23 260.11 235.333 259.616 235.54 259.158C235.761 258.685 236.056 258.279 236.425 257.939C236.794 257.599 237.222 257.333 237.709 257.141C238.196 256.934 238.705 256.831 239.236 256.831Z" fill="black"/>
<path d="M258.932 285.239C258.932 284.678 259.043 284.146 259.264 283.644C259.5 283.127 259.81 282.676 260.193 282.292C260.577 281.908 261.027 281.605 261.543 281.383C262.06 281.147 262.606 281.029 263.181 281.029C263.757 281.029 264.302 281.147 264.819 281.383C265.35 281.605 265.807 281.908 266.191 282.292C266.574 282.676 266.877 283.127 267.098 283.644C267.334 284.146 267.452 284.678 267.452 285.239C267.452 285.83 267.334 286.384 267.098 286.901C266.877 287.418 266.574 287.869 266.191 288.253C265.807 288.637 265.35 288.94 264.819 289.161C264.302 289.383 263.757 289.494 263.181 289.494C262.606 289.494 262.06 289.383 261.543 289.161C261.027 288.94 260.577 288.637 260.193 288.253C259.81 287.869 259.5 287.418 259.264 286.901C259.043 286.384 258.932 285.83 258.932 285.239ZM258.932 269.572C258.932 268.982 259.043 268.428 259.264 267.911C259.5 267.393 259.81 266.943 260.193 266.559C260.577 266.175 261.027 265.872 261.543 265.65C262.06 265.429 262.606 265.318 263.181 265.318C263.757 265.318 264.302 265.429 264.819 265.65C265.35 265.872 265.807 266.175 266.191 266.559C266.574 266.943 266.877 267.393 267.098 267.911C267.334 268.428 267.452 268.982 267.452 269.572C267.452 270.149 267.334 270.695 267.098 271.212C266.877 271.729 266.574 272.187 266.191 272.586C265.807 272.97 265.35 273.28 264.819 273.517C264.302 273.738 263.757 273.849 263.181 273.849C262.606 273.849 262.06 273.738 261.543 273.517C261.027 273.28 260.577 272.97 260.193 272.586C259.81 272.187 259.5 271.729 259.264 271.212C259.043 270.695 258.932 270.149 258.932 269.572Z" fill="black"/>
<path d="M272.963 269.572C272.963 268.982 273.073 268.428 273.295 267.911C273.531 267.393 273.841 266.943 274.224 266.559C274.608 266.175 275.058 265.872 275.574 265.65C276.091 265.429 276.637 265.318 277.212 265.318C277.787 265.318 278.326 265.429 278.827 265.65C279.344 265.872 279.794 266.175 280.177 266.559C280.561 266.943 280.863 267.393 281.085 267.911C281.321 268.428 281.439 268.982 281.439 269.572C281.439 270.149 281.321 270.695 281.085 271.212C280.863 271.729 280.561 272.187 280.177 272.586C279.794 272.97 279.344 273.28 278.827 273.517C278.326 273.738 277.787 273.849 277.212 273.849C276.637 273.849 276.091 273.738 275.574 273.517C275.058 273.28 274.608 272.97 274.224 272.586C273.841 272.187 273.531 271.729 273.295 271.212C273.073 270.695 272.963 270.149 272.963 269.572ZM277.19 281.516C277.883 281.516 278.503 281.649 279.049 281.915C279.609 282.181 280.082 282.543 280.465 283.001C280.863 283.459 281.166 283.998 281.372 284.619C281.594 285.224 281.704 285.882 281.704 286.591C281.704 287.389 281.579 288.208 281.328 289.05C281.092 289.907 280.679 290.698 280.089 291.422C279.513 292.16 278.746 292.795 277.787 293.327C276.843 293.859 275.663 294.206 274.246 294.369L273.472 292.042L274.091 291.865C274.859 291.643 275.486 291.392 275.973 291.111C276.474 290.831 276.873 290.535 277.168 290.225C277.463 289.915 277.677 289.604 277.809 289.294C277.957 288.999 278.053 288.718 278.097 288.452C277.935 288.6 277.728 288.711 277.477 288.785C277.227 288.844 276.961 288.873 276.681 288.873C276.209 288.873 275.759 288.799 275.331 288.652C274.918 288.489 274.549 288.26 274.224 287.965C273.914 287.669 273.664 287.3 273.472 286.857C273.28 286.414 273.184 285.904 273.184 285.328C273.184 284.796 273.287 284.301 273.494 283.843C273.715 283.37 274.01 282.964 274.379 282.624C274.748 282.285 275.176 282.019 275.663 281.827C276.15 281.62 276.659 281.516 277.19 281.516Z" fill="black"/>
<path d="M290.756 281.472C291.449 281.472 292.069 281.605 292.615 281.871C293.175 282.137 293.648 282.499 294.031 282.957C294.43 283.415 294.732 283.954 294.939 284.574C295.16 285.18 295.27 285.837 295.27 286.546C295.27 287.344 295.145 288.171 294.894 289.028C294.658 289.87 294.245 290.653 293.655 291.377C293.08 292.116 292.312 292.751 291.353 293.283C290.409 293.815 289.229 294.162 287.812 294.324L287.038 291.998L287.658 291.82C288.425 291.599 289.052 291.348 289.539 291.067C290.04 290.786 290.439 290.491 290.734 290.181C291.029 289.87 291.243 289.56 291.375 289.25C291.523 288.954 291.619 288.674 291.663 288.408C291.501 288.556 291.294 288.666 291.044 288.74C290.793 288.799 290.527 288.829 290.247 288.829C289.775 288.829 289.325 288.755 288.897 288.607C288.484 288.445 288.115 288.216 287.79 287.92C287.48 287.625 287.23 287.256 287.038 286.812C286.846 286.369 286.75 285.86 286.75 285.283C286.75 284.752 286.853 284.257 287.06 283.799C287.281 283.326 287.576 282.92 287.945 282.58C288.314 282.24 288.742 281.974 289.229 281.782C289.716 281.575 290.225 281.472 290.756 281.472Z" fill="black"/>
<path d="M299.674 285.461C299.674 284.914 299.778 284.404 299.984 283.932C300.206 283.444 300.501 283.023 300.87 282.669C301.238 282.299 301.666 282.011 302.153 281.804C302.655 281.583 303.178 281.472 303.724 281.472C304.27 281.472 304.787 281.583 305.273 281.804C305.76 282.011 306.188 282.299 306.557 282.669C306.926 283.023 307.214 283.444 307.42 283.932C307.641 284.404 307.752 284.914 307.752 285.461C307.752 286.022 307.641 286.546 307.42 287.034C307.214 287.521 306.926 287.95 306.557 288.319C306.188 288.689 305.76 288.977 305.273 289.183C304.787 289.39 304.27 289.494 303.724 289.494C303.178 289.494 302.655 289.39 302.153 289.183C301.666 288.977 301.238 288.689 300.87 288.319C300.501 287.95 300.206 287.521 299.984 287.034C299.778 286.546 299.674 286.022 299.674 285.461Z" fill="black"/>
</svg>
