<svg width="601" height="150" viewBox="0 0 601 150" fill="none" xmlns="http://www.w3.org/2000/svg">
<path d="M5.77344 14.059C6.17969 14.059 6.53906 14.0069 6.85156 13.9027C7.16927 13.7985 7.44271 13.6605 7.67188 13.4886C7.90625 13.3168 8.10417 13.1189 8.26562 12.8949C8.42708 12.6709 8.55469 12.4392 8.64844 12.1996C8.7474 11.9548 8.81771 11.7126 8.85938 11.473C8.90625 11.2282 8.92969 11.0017 8.92969 10.7933V10.3324H5.78906V9.17615H10.1562V15.098H8.91406V13.5902C8.72135 13.8975 8.5026 14.1579 8.25781 14.3715C8.01302 14.585 7.7526 14.7569 7.47656 14.8871C7.20052 15.0173 6.90885 15.111 6.60156 15.1683C6.29948 15.2256 5.99219 15.2543 5.67969 15.2543C4.91406 15.2543 4.23438 15.1058 3.64062 14.809C3.04688 14.5121 2.54427 14.1058 2.13281 13.5902C1.72656 13.0746 1.41667 12.4678 1.20312 11.7699C0.989583 11.072 0.882812 10.3194 0.882812 9.51208C0.882812 8.71 1 7.96 1.23438 7.26208C1.46875 6.55896 1.80208 5.94958 2.23438 5.43396C2.66667 4.91313 3.1875 4.50427 3.79688 4.2074C4.41146 3.90531 5.09896 3.75427 5.85938 3.75427C6.32812 3.75427 6.77083 3.81156 7.1875 3.92615C7.60938 4.03552 7.9974 4.19438 8.35156 4.40271C8.70573 4.60583 9.02344 4.85063 9.30469 5.13708C9.58594 5.41833 9.82292 5.73083 10.0156 6.07458L8.85156 6.68396C8.71615 6.42354 8.55469 6.18917 8.36719 5.98083C8.17969 5.76729 7.96354 5.585 7.71875 5.43396C7.47396 5.28292 7.19792 5.16573 6.89062 5.0824C6.58854 4.99906 6.25521 4.9574 5.89062 4.9574C5.30729 4.9574 4.79427 5.0824 4.35156 5.3324C3.90885 5.57719 3.53646 5.90531 3.23438 6.31677C2.9375 6.72823 2.71354 7.20479 2.5625 7.74646C2.41146 8.28292 2.33594 8.84021 2.33594 9.41833V9.61365C2.33594 10.1918 2.40365 10.7491 2.53906 11.2855C2.67969 11.822 2.89062 12.2959 3.17188 12.7074C3.45833 13.1136 3.81771 13.4418 4.25 13.6918C4.68229 13.9366 5.1901 14.059 5.77344 14.059ZM21.5234 9.49646C21.5234 10.335 21.4193 11.1006 21.2109 11.7933C21.0026 12.4808 20.6849 13.0694 20.2578 13.559C19.8307 14.0485 19.2943 14.4288 18.6484 14.6996C18.0078 14.9652 17.2526 15.098 16.3828 15.098H12.7891V3.8949H16.3828C17.2526 3.8949 18.0078 4.03031 18.6484 4.30115C19.2943 4.56677 19.8307 4.94438 20.2578 5.43396C20.6849 5.92354 21.0026 6.51469 21.2109 7.2074C21.4193 7.8949 21.5234 8.65792 21.5234 9.49646ZM20.0469 9.27771C20.0469 8.69438 19.974 8.1475 19.8281 7.63708C19.6823 7.12667 19.4583 6.68396 19.1562 6.30896C18.8594 5.92875 18.4766 5.62927 18.0078 5.41052C17.5443 5.19177 16.9922 5.0824 16.3516 5.0824H14.1641V13.9105H16.3516C16.9922 13.9105 17.5443 13.8038 18.0078 13.5902C18.4766 13.3715 18.8594 13.0746 19.1562 12.6996C19.4583 12.3194 19.6823 11.8741 19.8281 11.3636C19.974 10.8532 20.0469 10.3064 20.0469 9.72302V9.27771ZM23.9609 12.5043C24.4505 13.0511 24.9766 13.447 25.5391 13.6918C26.1068 13.9366 26.7005 14.059 27.3203 14.059C27.7474 14.059 28.1276 14.0069 28.4609 13.9027C28.7995 13.7933 29.0833 13.6449 29.3125 13.4574C29.5417 13.2699 29.7135 13.0564 29.8281 12.8168C29.9479 12.5772 30.0078 12.3246 30.0078 12.059C30.0078 11.684 29.9297 11.3819 29.7734 11.1527C29.6172 10.9235 29.4115 10.7386 29.1562 10.598C28.901 10.4522 28.6042 10.3402 28.2656 10.2621C27.9323 10.1788 27.5833 10.1006 27.2188 10.0277L27.0625 9.99646C26.8177 9.94958 26.5625 9.90011 26.2969 9.84802C26.0365 9.79594 25.7786 9.72823 25.5234 9.6449C25.2682 9.55636 25.0208 9.45219 24.7812 9.3324C24.5417 9.2074 24.3307 9.05375 24.1484 8.87146C23.9036 8.6475 23.7005 8.37406 23.5391 8.05115C23.3828 7.72302 23.3047 7.31938 23.3047 6.84021C23.3047 6.50167 23.3776 6.15011 23.5234 5.78552C23.6745 5.42094 23.9115 5.08761 24.2344 4.78552C24.5625 4.48344 24.9792 4.23604 25.4844 4.04333C25.9896 3.85063 26.6016 3.75427 27.3203 3.75427C28.1172 3.75427 28.8516 3.8975 29.5234 4.18396C29.7995 4.30375 30.0625 4.44698 30.3125 4.61365C30.5677 4.77511 30.8177 4.97823 31.0625 5.22302L30.0234 6.07458C29.638 5.68917 29.1979 5.40792 28.7031 5.23083C28.2083 5.04854 27.7031 4.9574 27.1875 4.9574C26.8177 4.9574 26.4792 5.00167 26.1719 5.09021C25.8698 5.17875 25.6094 5.30636 25.3906 5.47302C25.1719 5.63969 25.0026 5.8324 24.8828 6.05115C24.7682 6.2699 24.7109 6.50688 24.7109 6.76208C24.7109 7.11625 24.7865 7.40271 24.9375 7.62146C25.0938 7.84021 25.2969 8.01729 25.5469 8.15271C25.7969 8.28292 26.0781 8.38448 26.3906 8.4574C26.7083 8.53031 27.0286 8.60063 27.3516 8.66833L27.4297 8.68396C27.9505 8.78813 28.4531 8.91052 28.9375 9.05115C29.4271 9.18656 29.8516 9.37667 30.2109 9.62146C30.5755 9.86104 30.8672 10.1657 31.0859 10.5355C31.3047 10.9001 31.4141 11.3715 31.4141 11.9496C31.4141 12.361 31.3281 12.7673 31.1562 13.1683C30.9844 13.5694 30.7266 13.9261 30.3828 14.2386C30.0443 14.5459 29.6172 14.7933 29.1016 14.9808C28.5859 15.1631 27.9792 15.2543 27.2812 15.2543C26.7396 15.2543 26.2396 15.197 25.7812 15.0824C25.3229 14.9626 24.901 14.809 24.5156 14.6215C24.2292 14.4704 23.9505 14.2959 23.6797 14.098C23.4141 13.9001 23.1484 13.6631 22.8828 13.3871L23.9609 12.5043ZM35.1797 3.8949H42.8594V5.12927H39.7109V15.098H38.3281V5.12927H35.1797V3.8949ZM47.2656 8.28552H47.0547C46.7161 8.28552 46.3932 8.32458 46.0859 8.40271C45.7786 8.48083 45.5078 8.62146 45.2734 8.82458C45.0391 9.02771 44.8516 9.30636 44.7109 9.66052C44.5703 10.0095 44.5 10.4574 44.5 11.0043V15.098H43.1875V7.11365H44.5V8.37927C44.599 8.1449 44.7318 7.93917 44.8984 7.76208C45.0651 7.585 45.2526 7.43917 45.4609 7.32458C45.6745 7.20479 45.901 7.11625 46.1406 7.05896C46.3854 7.00167 46.6328 6.97302 46.8828 6.97302H47.2656V8.28552ZM53.3516 14.3011C53.1172 14.572 52.7995 14.7985 52.3984 14.9808C52.0026 15.1631 51.5365 15.2543 51 15.2543C50.6042 15.2543 50.237 15.1996 49.8984 15.0902C49.5599 14.9756 49.2656 14.8142 49.0156 14.6058C48.7656 14.3975 48.5703 14.1449 48.4297 13.848C48.2891 13.5511 48.2188 13.2152 48.2188 12.8402C48.2188 12.5277 48.2682 12.2439 48.3672 11.9886C48.4714 11.7282 48.6146 11.5017 48.7969 11.309C48.9844 11.1163 49.2083 10.96 49.4688 10.8402C49.7292 10.7152 50.0208 10.6293 50.3438 10.5824L53.1641 10.1996V9.69177C53.1641 9.38969 53.1172 9.13708 53.0234 8.93396C52.9297 8.72563 52.8021 8.56156 52.6406 8.44177C52.4844 8.32198 52.2969 8.23604 52.0781 8.18396C51.8646 8.13188 51.6328 8.10583 51.3828 8.10583C50.9349 8.10583 50.5156 8.16833 50.125 8.29333C49.7396 8.41833 49.3906 8.56417 49.0781 8.73083L48.5859 7.69177C49.0443 7.43136 49.5234 7.24386 50.0234 7.12927C50.5286 7.01469 51.026 6.9574 51.5156 6.9574C52.4896 6.9574 53.2266 7.17875 53.7266 7.62146C54.2266 8.05896 54.4766 8.69958 54.4766 9.54333V13.223C54.4766 13.4886 54.5286 13.7126 54.6328 13.8949C54.737 14.072 54.9036 14.2126 55.1328 14.3168L54.3906 15.2543C54.1406 15.1918 53.9245 15.0824 53.7422 14.9261C53.5651 14.7647 53.4401 14.572 53.3672 14.348L53.3516 14.3011ZM51.0156 11.5433C50.7969 11.5746 50.5964 11.6189 50.4141 11.6761C50.237 11.7334 50.0859 11.8116 49.9609 11.9105C49.8359 12.0043 49.737 12.1215 49.6641 12.2621C49.5964 12.4027 49.5625 12.5746 49.5625 12.7777C49.5625 13.0121 49.6068 13.2204 49.6953 13.4027C49.7839 13.585 49.9036 13.7386 50.0547 13.8636C50.2057 13.9886 50.3802 14.085 50.5781 14.1527C50.7812 14.2152 50.9922 14.2465 51.2109 14.2465C51.4557 14.2465 51.6953 14.2126 51.9297 14.1449C52.1641 14.0772 52.3724 13.9808 52.5547 13.8558C52.737 13.7256 52.8828 13.5694 52.9922 13.3871C53.1068 13.2048 53.1641 12.9965 53.1641 12.7621V11.223L51.0156 11.5433ZM56.8594 7.11365H58.1719V8.02771C58.4427 7.65792 58.776 7.38708 59.1719 7.21521C59.5729 7.04333 60.0182 6.9574 60.5078 6.9574C60.9505 6.9574 61.3385 7.03031 61.6719 7.17615C62.0052 7.32198 62.2839 7.5199 62.5078 7.7699C62.7318 8.0199 62.8984 8.30896 63.0078 8.63708C63.1224 8.96521 63.1797 9.31156 63.1797 9.67615V15.098H61.8672V10.0902C61.8672 9.74125 61.8229 9.44438 61.7344 9.19958C61.651 8.94958 61.5339 8.74906 61.3828 8.59802C61.237 8.44177 61.0625 8.32979 60.8594 8.26208C60.6615 8.18917 60.4479 8.15271 60.2188 8.15271C59.9688 8.15271 59.7214 8.19958 59.4766 8.29333C59.237 8.38188 59.0182 8.51729 58.8203 8.69958C58.6276 8.88188 58.4714 9.11104 58.3516 9.38708C58.2318 9.66313 58.1719 9.98865 58.1719 10.3636V15.098H56.8594V7.11365ZM70.8594 12.8871C70.8594 13.2621 70.776 13.598 70.6094 13.8949C70.4479 14.1866 70.2318 14.434 69.9609 14.6371C69.6901 14.8402 69.3776 14.9939 69.0234 15.098C68.6745 15.2022 68.3151 15.2543 67.9453 15.2543C67.362 15.2543 66.7995 15.1553 66.2578 14.9574C65.7214 14.7543 65.2448 14.4652 64.8281 14.0902L65.5469 13.1605C65.6719 13.2699 65.8151 13.3845 65.9766 13.5043C66.1432 13.6241 66.3281 13.736 66.5312 13.8402C66.7344 13.9392 66.9531 14.0225 67.1875 14.0902C67.4219 14.1527 67.6693 14.184 67.9297 14.184C68.1432 14.184 68.3464 14.1579 68.5391 14.1058C68.737 14.0485 68.9089 13.9678 69.0547 13.8636C69.2005 13.7543 69.3151 13.6267 69.3984 13.4808C69.487 13.3298 69.5312 13.1605 69.5312 12.973C69.5312 12.7647 69.4844 12.5902 69.3906 12.4496C69.3021 12.309 69.1797 12.1892 69.0234 12.0902C68.8672 11.9913 68.6849 11.9053 68.4766 11.8324C68.2682 11.7595 68.0495 11.6866 67.8203 11.6136L67.3203 11.4496C67.0391 11.3558 66.7682 11.2491 66.5078 11.1293C66.2474 11.0095 66.0156 10.8636 65.8125 10.6918C65.6146 10.5147 65.4557 10.3064 65.3359 10.0668C65.2214 9.82719 65.1641 9.54073 65.1641 9.2074C65.1641 8.93656 65.2214 8.66833 65.3359 8.40271C65.4505 8.13188 65.625 7.88969 65.8594 7.67615C66.099 7.46261 66.401 7.29073 66.7656 7.16052C67.1302 7.02511 67.5599 6.9574 68.0547 6.9574C68.6016 6.9574 69.1068 7.04854 69.5703 7.23083C70.0391 7.41313 70.4349 7.63969 70.7578 7.91052L70.0703 8.85583C69.9557 8.74646 69.8203 8.64229 69.6641 8.54333C69.5078 8.44438 69.3411 8.35844 69.1641 8.28552C68.987 8.2074 68.8021 8.1449 68.6094 8.09802C68.4167 8.05115 68.2266 8.02771 68.0391 8.02771C67.7526 8.02771 67.5104 8.06156 67.3125 8.12927C67.1146 8.19177 66.9557 8.27511 66.8359 8.37927C66.7161 8.48344 66.6276 8.60063 66.5703 8.73083C66.5182 8.86104 66.4922 8.98865 66.4922 9.11365C66.4922 9.29594 66.5312 9.44958 66.6094 9.57458C66.6875 9.69438 66.7891 9.79854 66.9141 9.88708C67.0443 9.97563 67.1901 10.0511 67.3516 10.1136C67.5182 10.1761 67.6901 10.2386 67.8672 10.3011L68.5234 10.5199C68.8359 10.6241 69.1224 10.736 69.3828 10.8558C69.6432 10.9704 69.8724 11.1032 70.0703 11.2543C70.3203 11.4522 70.513 11.6814 70.6484 11.9418C70.7891 12.2022 70.8594 12.5173 70.8594 12.8871ZM74.1875 7.11365V8.02771C74.4219 7.69958 74.7396 7.43917 75.1406 7.24646C75.5417 7.05375 76.0026 6.9574 76.5234 6.9574C77.0391 6.9574 77.5052 7.06156 77.9219 7.2699C78.3385 7.47302 78.6953 7.75948 78.9922 8.12927C79.2891 8.49906 79.5156 8.93917 79.6719 9.44958C79.8333 9.95479 79.9141 10.5095 79.9141 11.1136C79.9141 11.7178 79.8333 12.2725 79.6719 12.7777C79.5156 13.2829 79.2891 13.7204 78.9922 14.0902C78.6953 14.4548 78.3385 14.7413 77.9219 14.9496C77.5052 15.1527 77.0391 15.2543 76.5234 15.2543C76.0026 15.2543 75.5417 15.1579 75.1406 14.9652C74.7396 14.7725 74.4219 14.5121 74.1875 14.184V17.5277H72.875V7.11365H74.1875ZM78.5547 11.0668C78.5547 10.6501 78.5052 10.2621 78.4062 9.90271C78.3073 9.54333 78.1615 9.23344 77.9688 8.97302C77.776 8.7074 77.5365 8.49906 77.25 8.34802C76.9688 8.19698 76.6458 8.12146 76.2812 8.12146C75.9323 8.12146 75.625 8.18136 75.3594 8.30115C75.099 8.42094 74.8802 8.585 74.7031 8.79333C74.526 9.00167 74.3906 9.24906 74.2969 9.53552C74.2083 9.81677 74.1641 10.1241 74.1641 10.4574V11.7543C74.1641 12.0876 74.2083 12.3975 74.2969 12.684C74.3906 12.9652 74.526 13.21 74.7031 13.4183C74.8802 13.6267 75.099 13.7907 75.3594 13.9105C75.625 14.0303 75.9323 14.0902 76.2812 14.0902C76.6458 14.0902 76.9688 14.0147 77.25 13.8636C77.5365 13.7126 77.776 13.5069 77.9688 13.2465C78.1615 12.9808 78.3073 12.6683 78.4062 12.309C78.5052 11.9496 78.5547 11.5616 78.5547 11.1449V11.0668ZM85.0547 6.9574C85.6068 6.9574 86.1094 7.06156 86.5625 7.2699C87.0156 7.47302 87.401 7.75948 87.7188 8.12927C88.0417 8.49386 88.2917 8.93136 88.4688 9.44177C88.6458 9.94698 88.7344 10.5043 88.7344 11.1136C88.7344 11.7126 88.6458 12.2673 88.4688 12.7777C88.2917 13.2829 88.0417 13.7204 87.7188 14.0902C87.401 14.4548 87.0156 14.7413 86.5625 14.9496C86.1094 15.1527 85.6068 15.2543 85.0547 15.2543C84.5026 15.2543 84 15.1527 83.5469 14.9496C83.099 14.7413 82.7135 14.4548 82.3906 14.0902C82.0677 13.7204 81.8177 13.2829 81.6406 12.7777C81.4635 12.2673 81.375 11.7126 81.375 11.1136C81.375 10.5043 81.4635 9.94698 81.6406 9.44177C81.8177 8.93136 82.0677 8.49386 82.3906 8.12927C82.7135 7.75948 83.099 7.47302 83.5469 7.2699C84 7.06156 84.5026 6.9574 85.0547 6.9574ZM85.0547 14.1058C85.4349 14.1058 85.7682 14.0277 86.0547 13.8715C86.3464 13.71 86.5885 13.4939 86.7812 13.223C86.9792 12.9522 87.1276 12.6397 87.2266 12.2855C87.3255 11.9261 87.375 11.5511 87.375 11.1605V11.0668C87.375 10.6657 87.3255 10.2855 87.2266 9.92615C87.1276 9.56677 86.9792 9.25427 86.7812 8.98865C86.5885 8.71781 86.3464 8.50427 86.0547 8.34802C85.7682 8.18656 85.4349 8.10583 85.0547 8.10583C84.6745 8.10583 84.3385 8.18656 84.0469 8.34802C83.7604 8.50427 83.5182 8.71781 83.3203 8.98865C83.1276 9.25427 82.9818 9.56677 82.8828 9.92615C82.7839 10.2855 82.7344 10.6657 82.7344 11.0668V11.1605C82.7344 11.5511 82.7839 11.9261 82.8828 12.2855C82.9818 12.6397 83.1276 12.9522 83.3203 13.223C83.5182 13.4939 83.7604 13.71 84.0469 13.8715C84.3385 14.0277 84.6745 14.1058 85.0547 14.1058ZM94.7344 8.28552H94.5234C94.1849 8.28552 93.862 8.32458 93.5547 8.40271C93.2474 8.48083 92.9766 8.62146 92.7422 8.82458C92.5078 9.02771 92.3203 9.30636 92.1797 9.66052C92.0391 10.0095 91.9688 10.4574 91.9688 11.0043V15.098H90.6562V7.11365H91.9688V8.37927C92.0677 8.1449 92.2005 7.93917 92.3672 7.76208C92.5339 7.585 92.7214 7.43917 92.9297 7.32458C93.1432 7.20479 93.3698 7.11625 93.6094 7.05896C93.8542 7.00167 94.1016 6.97302 94.3516 6.97302H94.7344V8.28552ZM98.3438 13.1136C98.3438 13.2491 98.3516 13.3767 98.3672 13.4965C98.388 13.611 98.4323 13.7126 98.5 13.8011C98.5729 13.8897 98.6771 13.96 98.8125 14.0121C98.9479 14.0642 99.1328 14.0902 99.3672 14.0902C99.4297 14.0902 99.5026 14.0876 99.5859 14.0824C99.6745 14.0772 99.7656 14.072 99.8594 14.0668C99.9531 14.0564 100.044 14.0459 100.133 14.0355C100.221 14.0199 100.297 14.0069 100.359 13.9965L100.5 15.1449C100.349 15.1657 100.193 15.184 100.031 15.1996C99.8958 15.2152 99.7448 15.2282 99.5781 15.2386C99.4115 15.2491 99.2448 15.2543 99.0781 15.2543C98.7604 15.2543 98.474 15.2204 98.2188 15.1527C97.9688 15.0902 97.7552 14.986 97.5781 14.8402C97.401 14.6944 97.2656 14.5043 97.1719 14.2699C97.0781 14.0303 97.0312 13.7413 97.0312 13.4027V8.2699H95.5234V7.11365H97.0312V4.50427L98.3438 4.04333V7.11365H100.562V8.2699H98.3438V13.1136ZM109.961 3.8949C110.404 3.8949 110.82 3.96261 111.211 4.09802C111.602 4.22823 111.943 4.41573 112.234 4.66052C112.526 4.90531 112.755 5.20219 112.922 5.55115C113.094 5.8949 113.18 6.27771 113.18 6.69958C113.18 6.97563 113.133 7.24386 113.039 7.50427C112.951 7.76469 112.828 8.00688 112.672 8.23083C112.516 8.44958 112.331 8.6449 112.117 8.81677C111.904 8.98344 111.672 9.11365 111.422 9.2074C111.703 9.24906 111.987 9.34021 112.273 9.48083C112.565 9.61625 112.826 9.80115 113.055 10.0355C113.284 10.2647 113.471 10.5381 113.617 10.8558C113.763 11.1735 113.836 11.5303 113.836 11.9261C113.836 12.473 113.732 12.947 113.523 13.348C113.32 13.7491 113.044 14.0798 112.695 14.3402C112.346 14.5954 111.938 14.7855 111.469 14.9105C111.005 15.0355 110.513 15.098 109.992 15.098H105.727V3.8949H109.961ZM112.414 11.9105C112.414 11.572 112.349 11.2777 112.219 11.0277C112.094 10.7725 111.919 10.5642 111.695 10.4027C111.477 10.236 111.216 10.1136 110.914 10.0355C110.617 9.95219 110.299 9.91052 109.961 9.91052H107.102V13.9496H110.008C110.336 13.9496 110.646 13.9105 110.938 13.8324C111.229 13.7543 111.484 13.6345 111.703 13.473C111.922 13.3064 112.094 13.0954 112.219 12.8402C112.349 12.5798 112.414 12.2699 112.414 11.9105ZM111.789 6.88708C111.789 6.63708 111.747 6.40271 111.664 6.18396C111.586 5.96 111.456 5.76469 111.273 5.59802C111.096 5.43136 110.867 5.29854 110.586 5.19958C110.305 5.10063 109.964 5.05115 109.562 5.05115H107.102V8.77771H109.562C109.964 8.77771 110.305 8.72823 110.586 8.62927C110.867 8.52511 111.096 8.38708 111.273 8.21521C111.456 8.04333 111.586 7.84281 111.664 7.61365C111.747 7.38448 111.789 7.14229 111.789 6.88708ZM119.039 6.9574C119.591 6.9574 120.094 7.06156 120.547 7.2699C121 7.47302 121.385 7.75948 121.703 8.12927C122.026 8.49386 122.276 8.93136 122.453 9.44177C122.63 9.94698 122.719 10.5043 122.719 11.1136C122.719 11.7126 122.63 12.2673 122.453 12.7777C122.276 13.2829 122.026 13.7204 121.703 14.0902C121.385 14.4548 121 14.7413 120.547 14.9496C120.094 15.1527 119.591 15.2543 119.039 15.2543C118.487 15.2543 117.984 15.1527 117.531 14.9496C117.083 14.7413 116.698 14.4548 116.375 14.0902C116.052 13.7204 115.802 13.2829 115.625 12.7777C115.448 12.2673 115.359 11.7126 115.359 11.1136C115.359 10.5043 115.448 9.94698 115.625 9.44177C115.802 8.93136 116.052 8.49386 116.375 8.12927C116.698 7.75948 117.083 7.47302 117.531 7.2699C117.984 7.06156 118.487 6.9574 119.039 6.9574ZM119.039 14.1058C119.419 14.1058 119.753 14.0277 120.039 13.8715C120.331 13.71 120.573 13.4939 120.766 13.223C120.964 12.9522 121.112 12.6397 121.211 12.2855C121.31 11.9261 121.359 11.5511 121.359 11.1605V11.0668C121.359 10.6657 121.31 10.2855 121.211 9.92615C121.112 9.56677 120.964 9.25427 120.766 8.98865C120.573 8.71781 120.331 8.50427 120.039 8.34802C119.753 8.18656 119.419 8.10583 119.039 8.10583C118.659 8.10583 118.323 8.18656 118.031 8.34802C117.745 8.50427 117.503 8.71781 117.305 8.98865C117.112 9.25427 116.966 9.56677 116.867 9.92615C116.768 10.2855 116.719 10.6657 116.719 11.0668V11.1605C116.719 11.5511 116.768 11.9261 116.867 12.2855C116.966 12.6397 117.112 12.9522 117.305 13.223C117.503 13.4939 117.745 13.71 118.031 13.8715C118.323 14.0277 118.659 14.1058 119.039 14.1058ZM124.586 3.8949H125.898V13.309C125.898 13.4392 125.909 13.5538 125.93 13.6527C125.956 13.7517 125.997 13.835 126.055 13.9027C126.112 13.9704 126.19 14.0225 126.289 14.059C126.393 14.0902 126.521 14.1058 126.672 14.1058C126.839 14.1058 126.99 14.1006 127.125 14.0902C127.26 14.0798 127.38 14.0694 127.484 14.059L127.617 15.1605C127.466 15.1761 127.315 15.1918 127.164 15.2074C127.034 15.2178 126.891 15.2282 126.734 15.2386C126.578 15.2491 126.43 15.2543 126.289 15.2543C126.055 15.2543 125.833 15.2256 125.625 15.1683C125.417 15.1163 125.234 15.0277 125.078 14.9027C124.927 14.7777 124.807 14.6163 124.719 14.4183C124.63 14.2204 124.586 13.9782 124.586 13.6918V3.8949ZM134.133 14.184C133.898 14.5121 133.578 14.7725 133.172 14.9652C132.771 15.1579 132.312 15.2543 131.797 15.2543C131.281 15.2543 130.815 15.1527 130.398 14.9496C129.982 14.7413 129.625 14.4548 129.328 14.0902C129.031 13.7204 128.802 13.2829 128.641 12.7777C128.484 12.2725 128.406 11.7178 128.406 11.1136C128.406 10.5095 128.484 9.95479 128.641 9.44958C128.802 8.93917 129.031 8.49906 129.328 8.12927C129.625 7.75948 129.982 7.47302 130.398 7.2699C130.815 7.06156 131.281 6.9574 131.797 6.9574C132.312 6.9574 132.771 7.05375 133.172 7.24646C133.578 7.43917 133.898 7.69958 134.133 8.02771V3.8949H135.445V15.098H134.133V14.184ZM129.766 11.1449C129.766 11.5616 129.815 11.9496 129.914 12.309C130.013 12.6683 130.159 12.9808 130.352 13.2465C130.544 13.5069 130.781 13.7126 131.062 13.8636C131.344 14.0147 131.669 14.0902 132.039 14.0902C132.388 14.0902 132.693 14.0303 132.953 13.9105C133.219 13.7907 133.44 13.6267 133.617 13.4183C133.794 13.21 133.927 12.9652 134.016 12.684C134.104 12.3975 134.148 12.0876 134.148 11.7543V10.4574C134.148 10.1241 134.104 9.81677 134.016 9.53552C133.927 9.24906 133.794 9.00167 133.617 8.79333C133.44 8.585 133.219 8.42094 132.953 8.30115C132.693 8.18136 132.388 8.12146 132.039 8.12146C131.669 8.12146 131.344 8.19698 131.062 8.34802C130.781 8.49906 130.544 8.7074 130.352 8.97302C130.159 9.23344 130.013 9.54333 129.914 9.90271C129.815 10.2621 129.766 10.6501 129.766 11.0668V11.1449Z" fill="#0B0C0C"/>
<path d="M15.1921 52.799H6.61019L5.30108 57.098H0.323237L7.90313 33.922H14.0608L21.7538 57.098H16.5174L15.1921 52.799ZM7.87081 48.6615H13.9315L10.9254 38.8675H10.8607L7.87081 48.6615ZM29.56 50.0676C29.0105 50.1538 28.5687 50.3478 28.2347 50.6495C27.9007 50.9404 27.7337 51.339 27.7337 51.8454C27.7337 52.4057 27.9384 52.8906 28.3478 53.3C28.7573 53.6987 29.3606 53.898 30.158 53.898C30.9984 53.898 31.661 53.6556 32.1459 53.1707C32.6307 52.6858 32.8732 52.0448 32.8732 51.2474V49.502L29.56 50.0676ZM33.6004 55.4657C33.4173 55.6704 33.191 55.8913 32.9216 56.1283C32.663 56.3546 32.3506 56.5647 31.9843 56.7586C31.6287 56.9418 31.2085 57.098 30.7236 57.2273C30.2388 57.3566 29.6947 57.4213 29.0913 57.4213C28.2293 57.4213 27.432 57.2866 26.6993 57.0172C25.9774 56.7371 25.3417 56.3492 24.7922 55.8536C24.2427 55.3579 23.8118 54.7869 23.4993 54.1404C23.1868 53.4832 23.0306 52.772 23.0306 52.007C23.0306 50.6171 23.4616 49.4804 24.3235 48.5969C25.1855 47.7134 26.3761 47.1585 27.8953 46.9322L32.8732 46.205V45.8817C32.8732 45.1059 32.6361 44.4918 32.162 44.0393C31.688 43.5867 30.9176 43.3605 29.8509 43.3605C29.4091 43.3605 28.962 43.4143 28.5095 43.5221C28.0569 43.6191 27.6206 43.7322 27.2004 43.8615C26.7909 43.9908 26.4084 44.1416 26.0529 44.314C25.6973 44.4756 25.3848 44.6211 25.1155 44.7504L23.37 41.3402C24.3613 40.7907 25.4603 40.3382 26.667 39.9826C27.8845 39.6271 29.1452 39.4493 30.4489 39.4493C31.2462 39.4493 32.0489 39.5355 32.857 39.7079C33.6759 39.8695 34.4139 40.1712 35.0712 40.613C35.7392 41.0547 36.2833 41.6581 36.7035 42.4231C37.1237 43.1773 37.3338 44.1416 37.3338 45.3161V52.4273C37.3338 52.9337 37.4631 53.3108 37.7217 53.5586C37.9911 53.7956 38.3574 54.0165 38.8207 54.2212L36.8005 57.4213C35.9816 57.3351 35.3244 57.125 34.8287 56.7909C34.3331 56.4462 33.9237 56.0044 33.6004 55.4657ZM57.8593 33.922C58.829 33.922 59.7287 34.0674 60.5584 34.3583C61.388 34.6385 62.1099 35.0425 62.724 35.5705C63.3382 36.0984 63.8177 36.7395 64.1624 37.4937C64.5072 38.2372 64.6796 39.0668 64.6796 39.9826C64.6796 40.4567 64.6096 40.9254 64.4695 41.3887C64.3402 41.852 64.1463 42.2884 63.8877 42.6978C63.6291 43.0965 63.3166 43.4628 62.9503 43.7968C62.584 44.1309 62.1692 44.4056 61.7059 44.6211C62.083 44.7504 62.5193 44.9443 63.015 45.2029C63.5214 45.4615 64.0008 45.8171 64.4534 46.2696C64.9059 46.7221 65.2884 47.2824 65.6009 47.9504C65.9133 48.6077 66.0695 49.405 66.0695 50.3424C66.0695 51.5168 65.8433 52.5296 65.3907 53.3808C64.949 54.232 64.3456 54.9323 63.5806 55.4818C62.8264 56.0313 61.9375 56.4408 60.9139 56.7101C59.9011 56.9687 58.829 57.098 57.6977 57.098H47.5481V33.922H57.8593ZM61.2695 50.1808C61.2695 49.5558 61.1563 49.044 60.9301 48.6454C60.7038 48.2467 60.4021 47.9289 60.025 47.6918C59.6587 47.4548 59.2385 47.2932 58.7644 47.207C58.2903 47.11 57.8055 47.0615 57.3098 47.0615H52.235V53.397H57.3098C57.8055 53.397 58.2903 53.3485 58.7644 53.2515C59.2385 53.1545 59.6587 52.9821 60.025 52.7343C60.4021 52.4865 60.7038 52.1579 60.9301 51.7485C61.1563 51.339 61.2695 50.8165 61.2695 50.1808ZM59.9604 40.4513C59.9604 39.5678 59.6802 38.8783 59.12 38.3826C58.5597 37.887 57.6546 37.6392 56.4048 37.6392H52.235V43.1019H56.4048C57.6331 43.1019 58.5327 42.8702 59.1038 42.4069C59.6748 41.9328 59.9604 41.281 59.9604 40.4513ZM85.5445 48.4514C85.5445 49.7336 85.356 50.9242 84.9789 52.0232C84.6018 53.1222 84.0738 54.0704 83.395 54.8677C82.7162 55.665 81.9027 56.2899 80.9546 56.7425C80.0064 57.195 78.9613 57.4213 77.8192 57.4213C77.3128 57.4213 76.8495 57.3728 76.4293 57.2758C76.0198 57.1896 75.6427 57.0657 75.2979 56.9041C74.9532 56.7425 74.6353 56.5539 74.3444 56.3384C74.0535 56.1122 73.7895 55.8697 73.5525 55.6111V57.098H69.0918V33.922H73.5525V41.2756C74.0373 40.7692 74.6353 40.3382 75.3464 39.9826C76.0576 39.6271 76.9195 39.4493 77.9323 39.4493C79.0744 39.4493 80.1088 39.681 81.0354 40.1443C81.9728 40.5968 82.7755 41.2271 83.4435 42.0352C84.1115 42.8325 84.6287 43.7807 84.995 44.8797C85.3614 45.9787 85.5445 47.1693 85.5445 48.4514ZM73.4232 50.0515C73.4232 50.5148 73.504 50.9458 73.6656 51.3444C73.838 51.7323 74.0804 52.0717 74.3929 52.3626C74.7053 52.6535 75.0771 52.8798 75.5081 53.0414C75.9498 53.203 76.4454 53.2838 76.9949 53.2838C77.6306 53.2838 78.1909 53.1707 78.6758 52.9444C79.1714 52.7074 79.5862 52.3788 79.9202 51.9586C80.2542 51.5384 80.5074 51.0427 80.6798 50.4717C80.8522 49.8898 80.9384 49.2541 80.9384 48.5646V48.3545C80.9384 47.6649 80.8522 47.0292 80.6798 46.4474C80.5074 45.8656 80.2542 45.3645 79.9202 44.9443C79.5862 44.5133 79.1714 44.1793 78.6758 43.9423C78.1909 43.7053 77.6306 43.5867 76.9949 43.5867C76.4454 43.5867 75.9498 43.6675 75.5081 43.8292C75.0771 43.9908 74.7053 44.217 74.3929 44.508C74.0804 44.7989 73.838 45.1437 73.6656 45.5423C73.504 45.941 73.4232 46.372 73.4232 46.8353V50.0515ZM93.8356 45.51C93.8356 43.8507 94.0834 42.2992 94.579 40.8554C95.0854 39.4008 95.8073 38.1402 96.7447 37.0735C97.6821 35.9961 98.8188 35.1503 100.155 34.5361C101.491 33.9112 102.994 33.5987 104.664 33.5987C105.871 33.5987 106.986 33.755 108.009 34.0674C109.044 34.3799 109.97 34.8216 110.789 35.3927C111.619 35.9637 112.33 36.6533 112.923 37.4614C113.515 38.2695 113.984 39.1746 114.329 40.1766L109.82 41.6796C109.69 41.2487 109.486 40.8069 109.205 40.3544C108.925 39.8911 108.57 39.4762 108.139 39.1099C107.708 38.7328 107.201 38.4257 106.62 38.1887C106.049 37.9516 105.407 37.8331 104.696 37.8331C103.63 37.8331 102.714 38.054 101.949 38.4958C101.195 38.9267 100.575 39.5032 100.09 40.2251C99.6053 40.9362 99.2444 41.7497 99.0073 42.6655C98.7811 43.5706 98.6679 44.4972 98.6679 45.4453V45.5746C98.6679 46.5336 98.7811 47.471 99.0073 48.3868C99.2444 49.2919 99.6053 50.1 100.09 50.8111C100.575 51.5222 101.195 52.0986 101.949 52.5404C102.714 52.9714 103.63 53.1869 104.696 53.1869C105.407 53.1869 106.049 53.0683 106.62 52.8313C107.201 52.5943 107.708 52.2926 108.139 51.9262C108.57 51.5491 108.925 51.1343 109.205 50.6818C109.486 50.2292 109.69 49.7875 109.82 49.3565L114.329 50.8434C113.984 51.8454 113.515 52.7505 112.923 53.5586C112.33 54.3667 111.619 55.0616 110.789 55.6435C109.97 56.2145 109.044 56.6563 108.009 56.9687C106.986 57.2704 105.871 57.4213 104.664 57.4213C102.994 57.4213 101.491 57.1142 100.155 56.5C98.8188 55.8859 97.6821 55.0401 96.7447 53.9626C95.8073 52.8852 95.0854 51.6246 94.579 50.1808C94.0834 48.737 93.8356 47.18 93.8356 45.51ZM120.923 48.5323C120.923 49.0925 120.998 49.6582 121.149 50.2292C121.3 50.7895 121.532 51.2959 121.844 51.7485C122.156 52.201 122.555 52.5727 123.04 52.8636C123.536 53.1438 124.123 53.2838 124.802 53.2838C125.243 53.2838 125.642 53.2246 125.998 53.1061C126.364 52.9875 126.687 52.8259 126.967 52.6212C127.258 52.4057 127.511 52.1579 127.727 51.8778C127.953 51.5868 128.147 51.2744 128.309 50.9404L132.22 52.9606C131.94 53.6394 131.552 54.2535 131.056 54.803C130.571 55.3525 130.006 55.8212 129.359 56.2091C128.713 56.597 127.996 56.8933 127.21 57.098C126.423 57.3135 125.588 57.4213 124.705 57.4213C123.487 57.4213 122.367 57.195 121.343 56.7425C120.319 56.2792 119.436 55.6488 118.692 54.8515C117.949 54.0542 117.367 53.1114 116.947 52.0232C116.527 50.9242 116.317 49.7336 116.317 48.4514C116.317 47.18 116.527 45.9948 116.947 44.8958C117.367 43.7968 117.949 42.8433 118.692 42.0352C119.436 41.2271 120.319 40.5968 121.343 40.1443C122.367 39.681 123.487 39.4493 124.705 39.4493C125.588 39.4493 126.423 39.5571 127.21 39.7725C127.996 39.9773 128.713 40.2789 129.359 40.6776C130.006 41.0655 130.571 41.5342 131.056 42.0837C131.552 42.6332 131.94 43.2473 132.22 43.9261L128.309 45.9464C128.147 45.6124 127.953 45.3053 127.727 45.0251C127.511 44.7342 127.258 44.4864 126.967 44.2817C126.687 44.0662 126.364 43.8992 125.998 43.7807C125.642 43.6514 125.243 43.5867 124.802 43.5867C124.123 43.5867 123.536 43.7322 123.04 44.0231C122.555 44.3032 122.156 44.675 121.844 45.1383C121.532 45.5908 121.3 46.1026 121.149 46.6736C120.998 47.2447 120.923 47.8157 120.923 48.3868V48.5323ZM161.198 45.51C161.198 47.2447 160.961 48.8286 160.487 50.2616C160.024 51.6838 159.323 52.9013 158.386 53.9141C157.459 54.927 156.296 55.7135 154.895 56.2738C153.494 56.8233 151.857 57.098 149.982 57.098H141.448V33.922H149.982C151.857 33.922 153.494 34.2021 154.895 34.7624C156.296 35.3119 157.459 36.093 158.386 37.1058C159.323 38.1187 160.024 39.3416 160.487 40.7746C160.961 42.1968 161.198 43.7753 161.198 45.51ZM156.333 45.0575C156.333 44.077 156.209 43.1665 155.962 42.3261C155.725 41.4749 155.337 40.7369 154.798 40.1119C154.27 39.487 153.58 38.9968 152.729 38.6412C151.878 38.2749 150.849 38.0917 149.642 38.0917H146.135V52.9283H149.642C150.838 52.9283 151.862 52.7505 152.713 52.3949C153.564 52.0286 154.254 51.533 154.782 50.908C155.321 50.2723 155.714 49.5289 155.962 48.6777C156.209 47.8265 156.333 46.9161 156.333 45.9464V45.0575ZM175.598 57.098V55.6111C175.361 55.8697 175.097 56.1122 174.806 56.3384C174.526 56.5539 174.208 56.7425 173.853 56.9041C173.508 57.0657 173.125 57.1896 172.705 57.2758C172.296 57.3728 171.838 57.4213 171.332 57.4213C170.189 57.4213 169.144 57.195 168.196 56.7425C167.248 56.2899 166.434 55.665 165.756 54.8677C165.077 54.0704 164.549 53.1222 164.172 52.0232C163.805 50.9242 163.622 49.7336 163.622 48.4514C163.622 47.1693 163.805 45.9787 164.172 44.8797C164.538 43.7807 165.05 42.8325 165.707 42.0352C166.375 41.2271 167.178 40.5968 168.115 40.1443C169.053 39.681 170.092 39.4493 171.235 39.4493C172.247 39.4493 173.104 39.6271 173.804 39.9826C174.515 40.3274 175.113 40.7584 175.598 41.2756V33.922H180.059V57.098H175.598ZM175.728 46.8353C175.728 46.372 175.641 45.941 175.469 45.5423C175.307 45.1437 175.07 44.7989 174.758 44.508C174.445 44.217 174.068 43.9908 173.626 43.8292C173.196 43.6675 172.705 43.5867 172.156 43.5867C171.52 43.5867 170.954 43.7053 170.459 43.9423C169.974 44.1793 169.564 44.5133 169.23 44.9443C168.896 45.3645 168.643 45.8656 168.471 46.4474C168.298 47.0292 168.212 47.6649 168.212 48.3545V48.5646C168.212 49.2541 168.298 49.8898 168.471 50.4717C168.643 51.0427 168.896 51.5384 169.23 51.9586C169.564 52.3788 169.974 52.7074 170.459 52.9444C170.954 53.1707 171.52 53.2838 172.156 53.2838C172.705 53.2838 173.196 53.203 173.626 53.0414C174.068 52.8798 174.445 52.6535 174.758 52.3626C175.07 52.0717 175.307 51.7323 175.469 51.3444C175.641 50.9458 175.728 50.5148 175.728 50.0515V46.8353ZM190.386 33.922H205.999V38.1725H195.073V43.1019H205.142V47.3363H195.073V52.8636H206.629V57.098H190.386V33.922ZM213.562 49.9868C213.638 50.504 213.799 50.9781 214.047 51.4091C214.306 51.84 214.629 52.2118 215.017 52.5242C215.405 52.8259 215.852 53.063 216.358 53.2353C216.865 53.4077 217.403 53.4939 217.975 53.4939C218.632 53.4939 219.343 53.37 220.108 53.1222C220.873 52.8636 221.573 52.4919 222.209 52.007L224.358 55.1424C223.55 55.8212 222.559 56.3707 221.385 56.7909C220.21 57.2112 218.96 57.4213 217.635 57.4213C216.439 57.4213 215.313 57.2165 214.257 56.8071C213.201 56.3977 212.275 55.8051 211.477 55.0293C210.691 54.2535 210.066 53.3108 209.603 52.201C209.15 51.0912 208.924 49.8414 208.924 48.4514C208.924 47.18 209.123 45.9948 209.522 44.8958C209.931 43.7968 210.497 42.8433 211.219 42.0352C211.952 41.2271 212.824 40.5968 213.837 40.1443C214.85 39.681 215.97 39.4493 217.199 39.4493C218.341 39.4493 219.402 39.6594 220.383 40.0796C221.363 40.4891 222.214 41.0709 222.936 41.8251C223.658 42.5685 224.224 43.4628 224.633 44.508C225.043 45.5531 225.247 46.706 225.247 47.9666V49.9868H213.562ZM217.183 43.3281C216.224 43.3281 215.41 43.6514 214.742 44.2979C214.085 44.9336 213.702 45.7039 213.595 46.609H220.577C220.555 45.6932 220.221 44.9174 219.575 44.2817C218.928 43.646 218.131 43.3281 217.183 43.3281ZM234.573 33.922H250.185V38.1725H239.26V43.1019H249.328V47.3363H239.26V57.098H234.573V33.922ZM259.09 39.7887H262.403V43.6675H259.09V57.098H254.63V43.6675H251.882V39.7887H254.63V37.6715C254.63 36.9173 254.759 36.2654 255.017 35.7159C255.276 35.1557 255.632 34.6977 256.084 34.3422C256.547 33.9758 257.097 33.7065 257.733 33.5341C258.379 33.3509 259.09 33.2593 259.866 33.2593C260.254 33.2593 260.631 33.2701 260.997 33.2917C261.364 33.3132 261.703 33.3348 262.016 33.3563C262.328 33.3778 262.603 33.4048 262.84 33.4371C263.088 33.4694 263.276 33.491 263.405 33.5018L263.034 37.2998C262.904 37.2782 262.743 37.2567 262.549 37.2351C262.366 37.2136 262.172 37.1974 261.967 37.1867C261.762 37.1651 261.563 37.1543 261.369 37.1543C261.175 37.1436 261.003 37.1382 260.852 37.1382C260.216 37.1382 259.764 37.2621 259.494 37.5099C259.225 37.7469 259.09 38.054 259.09 38.4311V39.7887ZM275.123 45.5746C275.123 46.5659 275.247 47.5194 275.494 48.4353C275.742 49.3511 276.119 50.1592 276.626 50.8596C277.132 51.5599 277.779 52.1256 278.565 52.5565C279.352 52.9768 280.289 53.1869 281.377 53.1869C282.423 53.1869 283.29 53.0199 283.979 52.6858C284.68 52.3518 285.235 51.937 285.644 51.4414C286.064 50.935 286.355 50.3909 286.517 49.809C286.689 49.2272 286.775 48.6885 286.775 48.1929V47.9666H280.844V44.3948H291.333V57.098H287.228V54.3828C286.937 54.8354 286.576 55.2502 286.145 55.6273C285.714 55.9936 285.229 56.3115 284.691 56.5808C284.152 56.8394 283.559 57.0441 282.913 57.195C282.277 57.3458 281.598 57.4213 280.876 57.4213C279.185 57.4213 277.682 57.1142 276.367 56.5C275.053 55.8859 273.943 55.0401 273.038 53.9626C272.144 52.8852 271.459 51.6246 270.985 50.1808C270.522 48.737 270.29 47.18 270.29 45.51C270.29 43.8507 270.549 42.2992 271.066 40.8554C271.594 39.4008 272.338 38.1402 273.296 37.0735C274.266 35.9961 275.43 35.1503 276.787 34.5361C278.156 33.9112 279.686 33.5987 281.377 33.5987C282.476 33.5987 283.516 33.728 284.497 33.9866C285.488 34.2344 286.388 34.5954 287.196 35.0695C288.015 35.5328 288.736 36.0984 289.361 36.7664C289.986 37.4237 290.493 38.1564 290.881 38.9645L286.775 41.2756C286.528 40.78 286.237 40.322 285.903 39.9018C285.569 39.4709 285.181 39.1045 284.739 38.8028C284.308 38.4904 283.812 38.2479 283.252 38.0756C282.692 37.8924 282.067 37.8008 281.377 37.8008C280.289 37.8008 279.352 38.0163 278.565 38.4473C277.779 38.8675 277.132 39.4278 276.626 40.1281C276.119 40.8285 275.742 41.6419 275.494 42.5685C275.247 43.4844 275.123 44.4325 275.123 45.413V45.5746ZM305.491 54.0273C305.092 54.5121 304.532 54.9 303.81 55.1909C303.099 55.4711 302.323 55.6111 301.483 55.6111C300.319 55.6111 299.285 55.4064 298.38 54.997C297.475 54.5876 296.71 54.0273 296.085 53.3162C295.47 52.5943 294.996 51.7431 294.662 50.7626C294.339 49.7821 294.178 48.7046 294.178 47.5302C294.178 46.3881 294.339 45.3214 294.662 44.3302C294.996 43.3281 295.47 42.4716 296.085 41.7605C296.71 41.0386 297.475 40.4729 298.38 40.0635C299.285 39.654 300.319 39.4493 301.483 39.4493C302.323 39.4493 303.099 39.5948 303.81 39.8857C304.532 40.1766 305.092 40.5645 305.491 41.0493V39.7887H309.968V56.9364C309.968 57.9923 309.768 58.8974 309.37 59.6516C308.971 60.4166 308.421 61.0415 307.721 61.5264C307.032 62.0112 306.229 62.3614 305.313 62.5769C304.397 62.8031 303.422 62.9163 302.388 62.9163C301.127 62.9163 299.813 62.7654 298.444 62.4637C297.076 62.1728 295.896 61.8065 294.905 61.3647L296.165 57.7607C296.467 57.89 296.839 58.03 297.281 58.1809C297.722 58.3425 298.196 58.4826 298.703 58.6011C299.209 58.7196 299.737 58.8166 300.287 58.892C300.847 58.9782 301.391 59.0213 301.919 59.0213C302.382 59.0213 302.829 58.9728 303.26 58.8758C303.691 58.7896 304.069 58.6388 304.392 58.4233C304.726 58.2186 304.99 57.9438 305.184 57.599C305.388 57.265 305.491 56.834 305.491 56.3061V54.0273ZM298.767 47.5949C298.767 48.1659 298.827 48.7046 298.945 49.2111C299.075 49.7067 299.274 50.1323 299.543 50.4878C299.823 50.8326 300.179 51.1074 300.61 51.3121C301.041 51.506 301.563 51.603 302.178 51.603C303.395 51.603 304.263 51.2205 304.78 50.4555C305.297 49.6797 305.555 48.7262 305.555 47.5949V47.4656C305.555 46.8945 305.496 46.3612 305.378 45.8656C305.259 45.3699 305.065 44.9443 304.796 44.5888C304.526 44.2332 304.176 43.9585 303.745 43.7645C303.325 43.5598 302.803 43.4574 302.178 43.4574C300.971 43.4574 300.098 43.8399 299.559 44.6049C299.031 45.3699 298.767 46.3235 298.767 47.4656V47.5949ZM335.18 47.3363H324.982V57.098H320.295V33.922H324.982V43.1019H335.18V33.922H339.883V57.098H335.18V47.3363ZM344.231 33.922H348.691V41.2756C348.928 41.0386 349.192 40.8123 349.483 40.5968C349.785 40.3705 350.114 40.1766 350.469 40.015C350.825 39.8426 351.218 39.7079 351.649 39.6109C352.091 39.5032 352.576 39.4493 353.104 39.4493C354.041 39.4493 354.881 39.6055 355.625 39.918C356.368 40.2197 356.993 40.6399 357.5 41.1786C358.017 41.7174 358.41 42.3477 358.679 43.0696C358.949 43.7915 359.083 44.5726 359.083 45.413V57.098H354.623V47.0292C354.623 46.4151 354.553 45.8979 354.413 45.4777C354.273 45.0467 354.079 44.7019 353.831 44.4433C353.594 44.1739 353.308 43.98 352.974 43.8615C352.651 43.7322 352.295 43.6675 351.908 43.6675C351.455 43.6675 351.029 43.7484 350.631 43.91C350.243 44.0716 349.904 44.3194 349.613 44.6534C349.322 44.9767 349.095 45.3861 348.934 45.8817C348.772 46.3773 348.691 46.9592 348.691 47.6272V57.098H344.231V33.922ZM369.298 33.922H373.985V57.098H369.298V33.922ZM382.793 57.098H378.332V39.7887H382.793V57.098ZM377.863 35.2472C377.863 34.8809 377.934 34.5361 378.074 34.2129C378.214 33.8789 378.402 33.5933 378.639 33.3563C378.887 33.1085 379.173 32.9145 379.496 32.7745C379.819 32.6344 380.169 32.5644 380.546 32.5644C380.913 32.5644 381.257 32.6344 381.581 32.7745C381.915 32.9145 382.2 33.1085 382.437 33.3563C382.685 33.5933 382.879 33.8789 383.019 34.2129C383.159 34.5361 383.229 34.8809 383.229 35.2472C383.229 35.6243 383.159 35.9745 383.019 36.2978C382.879 36.621 382.685 36.9065 382.437 37.1543C382.2 37.3914 381.915 37.5799 381.581 37.72C381.257 37.8601 380.913 37.9301 380.546 37.9301C380.169 37.9301 379.819 37.8601 379.496 37.72C379.173 37.5799 378.887 37.3914 378.639 37.1543C378.402 36.9065 378.214 36.621 378.074 36.2978C377.934 35.9745 377.863 35.6243 377.863 35.2472ZM391.31 52.4596C391.698 52.5781 392.097 52.6858 392.506 52.7828C392.851 52.869 393.223 52.9444 393.621 53.0091C394.031 53.063 394.408 53.0899 394.753 53.0899C395.485 53.0899 396.051 53.0199 396.45 52.8798C396.859 52.7289 397.161 52.5027 397.355 52.201C397.549 51.8993 397.667 51.5168 397.71 51.0535C397.753 50.5794 397.775 50.0138 397.775 49.3565V33.922H402.462V51.8616C402.462 52.7128 402.327 53.4832 402.058 54.1727C401.788 54.8515 401.374 55.4334 400.813 55.9182C400.264 56.4031 399.569 56.7748 398.728 57.0334C397.899 57.292 396.918 57.4213 395.787 57.4213C395.281 57.4213 394.769 57.4051 394.252 57.3728C393.745 57.3404 393.25 57.2866 392.765 57.2112C392.28 57.1465 391.817 57.0603 391.375 56.9526C390.944 56.8448 390.561 56.7155 390.227 56.5647L391.31 52.4596ZM410.817 59.2799C410.817 59.8509 410.71 60.3519 410.494 60.7829C410.289 61.2139 410.004 61.5748 409.638 61.8658C409.282 62.1567 408.862 62.3776 408.377 62.5284C407.892 62.6792 407.37 62.7547 406.809 62.7547C406.432 62.7547 406.06 62.7439 405.694 62.7223C405.339 62.7116 405.01 62.6954 404.708 62.6739C404.417 62.6523 404.17 62.6308 403.965 62.6092C403.749 62.5877 403.609 62.5715 403.545 62.5607L403.997 58.7465C404.213 58.7789 404.412 58.8058 404.595 58.8273C404.789 58.8489 404.967 58.8597 405.128 58.8597C405.592 58.8597 405.91 58.7789 406.082 58.6172C406.265 58.4664 406.357 58.2671 406.357 58.0192V39.7887H410.817V59.2799ZM405.856 35.2796C405.856 34.9024 405.926 34.5469 406.066 34.2129C406.206 33.8789 406.394 33.5933 406.632 33.3563C406.879 33.1085 407.165 32.9145 407.488 32.7745C407.811 32.6344 408.161 32.5644 408.539 32.5644C408.916 32.5644 409.271 32.6344 409.605 32.7745C409.939 32.9145 410.225 33.1085 410.462 33.3563C410.71 33.5933 410.904 33.8789 411.044 34.2129C411.184 34.5469 411.254 34.9024 411.254 35.2796C411.254 35.6567 411.184 36.0068 411.044 36.3301C410.904 36.6533 410.71 36.9388 410.462 37.1867C410.225 37.4237 409.939 37.6122 409.605 37.7523C409.271 37.8924 408.916 37.9624 408.539 37.9624C408.161 37.9624 407.811 37.8924 407.488 37.7523C407.165 37.6122 406.879 37.4237 406.632 37.1867C406.394 36.9388 406.206 36.6533 406.066 36.3301C405.926 36.0068 405.856 35.6567 405.856 35.2796ZM421.145 33.922H425.832V43.9585L434.107 33.922H439.876L431.828 43.1342L440.394 57.098H434.947L428.822 46.706L425.832 50.0515V57.098H421.145V33.922ZM446.697 46.5767L452.466 39.7887H458.026L451.772 46.8676L458.204 57.098H452.838L448.523 50.0515L446.697 52.0394V57.098H442.236V33.922H446.697V46.5767ZM466.624 33.922H471.311V52.7667H480.491V57.098H466.624V33.922ZM482.835 33.922H487.295V52.3949C487.295 52.7613 487.398 53.0414 487.602 53.2353C487.818 53.4293 488.157 53.5263 488.62 53.5263C488.836 53.5263 489.019 53.5155 489.17 53.4939C489.332 53.4616 489.536 53.4185 489.784 53.3646L490.14 57.1627C489.838 57.2058 489.515 57.2489 489.17 57.292C488.879 57.3243 488.54 57.3512 488.152 57.3728C487.775 57.4051 487.381 57.4213 486.972 57.4213C486.336 57.4213 485.765 57.3404 485.259 57.1788C484.752 57.0172 484.316 56.7802 483.95 56.4677C483.594 56.1445 483.319 55.7458 483.125 55.2717C482.932 54.7977 482.835 54.2482 482.835 53.6232V33.922ZM509.809 49.6151L502.956 41.0493V57.098H498.269V33.922H503.021L509.873 42.9726L516.936 33.922H521.494V57.098H516.791V41.0493L509.97 49.6151H509.809ZM540.451 57.098H535.975V47.0292C535.975 46.4151 535.905 45.8979 535.765 45.4777C535.635 45.0467 535.452 44.7019 535.215 44.4433C534.978 44.1739 534.703 43.9854 534.391 43.8776C534.078 43.7591 533.739 43.6999 533.373 43.6999C532.942 43.6999 532.538 43.7753 532.16 43.9261C531.794 44.077 531.471 44.314 531.191 44.6373C530.921 44.9605 530.706 45.3753 530.544 45.8817C530.393 46.3773 530.318 46.9699 530.318 47.6595V57.098H525.857V39.7887H530.318V41.3079C530.889 40.6722 531.552 40.2035 532.306 39.9018C533.071 39.6002 533.89 39.4493 534.763 39.4493C535.657 39.4493 536.492 39.6325 537.268 39.9988C538.054 40.3651 538.706 40.9685 539.223 41.8089C539.525 41.378 539.87 41.0116 540.258 40.7099C540.656 40.4082 541.082 40.1658 541.534 39.9826C541.987 39.7995 542.456 39.6648 542.94 39.5786C543.436 39.4924 543.942 39.4493 544.46 39.4493C545.429 39.4493 546.291 39.6109 547.045 39.9342C547.81 40.2466 548.457 40.6722 548.985 41.2109C549.513 41.7497 549.917 42.3692 550.197 43.0696C550.477 43.7699 550.617 44.508 550.617 45.2837V57.098H546.108V47.0292C546.108 46.4151 546.038 45.8979 545.898 45.4777C545.769 45.0467 545.586 44.7019 545.349 44.4433C545.111 44.1739 544.831 43.9854 544.508 43.8776C544.196 43.7591 543.856 43.6999 543.49 43.6999C543.059 43.6999 542.66 43.7753 542.294 43.9261C541.928 44.077 541.604 44.314 541.324 44.6373C541.055 44.9605 540.839 45.3753 540.678 45.8817C540.527 46.3773 540.451 46.9699 540.451 47.6595V57.098ZM7.1112 79.3523V97.098H2.42427V73.922H9.03446L18.3113 89.4858V73.922H22.9983V97.098H17.8427L7.1112 79.3523ZM27.362 79.7887H31.8226V81.2756C32.0597 81.0386 32.3237 80.8123 32.6146 80.5968C32.9163 80.3705 33.2449 80.1766 33.6004 80.015C33.956 79.8426 34.3493 79.7079 34.7802 79.6109C35.222 79.5032 35.7069 79.4493 36.2348 79.4493C37.1722 79.4493 38.0126 79.6055 38.7561 79.918C39.4995 80.2197 40.1244 80.6399 40.6308 81.1786C41.148 81.7174 41.5413 82.3477 41.8106 83.0696C42.08 83.7915 42.2147 84.5726 42.2147 85.413V97.098H37.754V87.0292C37.754 86.4151 37.684 85.8979 37.5439 85.4777C37.4039 85.0467 37.2099 84.7019 36.9621 84.4433C36.7251 84.1739 36.4395 83.98 36.1055 83.8615C35.7823 83.7322 35.4267 83.6675 35.0388 83.6675C34.5863 83.6675 34.1607 83.7484 33.7621 83.91C33.3742 84.0716 33.0348 84.3194 32.7439 84.6534C32.4529 84.9767 32.2267 85.3861 32.0651 85.8817C31.9034 86.3773 31.8226 86.9592 31.8226 87.6272V97.098H27.362V79.7887ZM62.32 73.5987C64.0439 73.5987 65.5901 73.9112 66.9584 74.5361C68.3268 75.1503 69.4851 75.9961 70.4332 77.0735C71.3922 78.1402 72.1195 79.4008 72.6151 80.8554C73.1215 82.2992 73.3747 83.8507 73.3747 85.51C73.3747 87.18 73.1215 88.737 72.6151 90.1808C72.1195 91.6246 71.3922 92.8852 70.4332 93.9626C69.4851 95.0401 68.3268 95.8859 66.9584 96.5C65.5901 97.1142 64.0439 97.4213 62.32 97.4213C60.5853 97.4213 59.0338 97.1142 57.6654 96.5C56.3078 95.8859 55.1495 95.0401 54.1906 93.9626C53.2424 92.8852 52.5152 91.6246 52.0088 90.1808C51.5131 88.737 51.2653 87.18 51.2653 85.51C51.2653 83.8507 51.5131 82.2992 52.0088 80.8554C52.5152 79.4008 53.2424 78.1402 54.1906 77.0735C55.1495 75.9961 56.3078 75.1503 57.6654 74.5361C59.0338 73.9112 60.5853 73.5987 62.32 73.5987ZM62.32 93.1869C63.3328 93.1869 64.2217 92.9983 64.9867 92.6212C65.7625 92.2333 66.4143 91.7 66.9423 91.0212C67.4702 90.3424 67.8689 89.5397 68.1383 88.6131C68.4076 87.6865 68.5423 86.6736 68.5423 85.5746V85.4453C68.5423 84.3571 68.4076 83.3497 68.1383 82.4231C67.8689 81.4857 67.4702 80.6776 66.9423 79.9988C66.4143 79.32 65.7625 78.7921 64.9867 78.415C64.2217 78.0271 63.3328 77.8331 62.32 77.8331C61.3072 77.8331 60.4129 78.0271 59.6371 78.415C58.8614 78.7921 58.2095 79.32 57.6816 79.9988C57.1644 80.6776 56.7711 81.4857 56.5017 82.4231C56.2324 83.3497 56.0977 84.3571 56.0977 85.4453V85.5746C56.0977 86.6736 56.2324 87.6865 56.5017 88.6131C56.7711 89.5397 57.1644 90.3424 57.6816 91.0212C58.2095 91.7 58.8614 92.2333 59.6371 92.6212C60.4129 92.9983 61.3072 93.1869 62.32 93.1869ZM84.1385 79.4493C85.4206 79.4493 86.5843 79.681 87.6294 80.1443C88.6746 80.5968 89.5688 81.2271 90.3123 82.0352C91.0557 82.8433 91.6268 83.7968 92.0254 84.8958C92.4349 85.9948 92.6396 87.18 92.6396 88.4514C92.6396 89.7336 92.4349 90.9242 92.0254 92.0232C91.616 93.1114 91.0396 94.0542 90.2961 94.8515C89.5527 95.6488 88.6584 96.2792 87.6133 96.7425C86.5681 97.195 85.4099 97.4213 84.1385 97.4213C82.8563 97.4213 81.6926 97.195 80.6475 96.7425C79.6024 96.2792 78.7081 95.6488 77.9646 94.8515C77.2212 94.0542 76.6448 93.1114 76.2353 92.0232C75.8259 90.9242 75.6212 89.7336 75.6212 88.4514C75.6212 87.18 75.8205 85.9948 76.2192 84.8958C76.6286 83.7968 77.205 82.8433 77.9485 82.0352C78.6919 81.2271 79.5862 80.5968 80.6314 80.1443C81.6873 79.681 82.8563 79.4493 84.1385 79.4493ZM84.1385 93.2838C84.7742 93.2838 85.3344 93.1653 85.8193 92.9283C86.3149 92.6912 86.7297 92.3626 87.0638 91.9424C87.3978 91.5222 87.651 91.0212 87.8234 90.4394C87.9958 89.8468 88.082 89.2003 88.082 88.4999V88.3868C88.082 87.6865 87.9958 87.0454 87.8234 86.4635C87.651 85.8709 87.3978 85.3645 87.0638 84.9443C86.7297 84.5133 86.3149 84.1793 85.8193 83.9423C85.3344 83.7053 84.7742 83.5867 84.1385 83.5867C83.5028 83.5867 82.9371 83.7053 82.4415 83.9423C81.9566 84.1793 81.5472 84.5133 81.2132 84.9443C80.8792 85.3645 80.626 85.8709 80.4536 86.4635C80.2812 87.0454 80.195 87.6865 80.195 88.3868V88.4999C80.195 89.2003 80.2812 89.8468 80.4536 90.4394C80.626 91.0212 80.8792 91.5222 81.2132 91.9424C81.5472 92.3626 81.9566 92.6912 82.4415 92.9283C82.9371 93.1653 83.5028 93.2838 84.1385 93.2838ZM102.078 73.922H111.339C112.535 73.922 113.612 74.1213 114.571 74.52C115.541 74.9078 116.36 75.4466 117.028 76.1361C117.696 76.8149 118.208 77.623 118.563 78.5604C118.929 79.4978 119.113 80.516 119.113 81.615C119.113 82.714 118.913 83.7322 118.515 84.6696C118.127 85.607 117.572 86.4204 116.85 87.11C116.139 87.7888 115.282 88.3222 114.28 88.71C113.278 89.0979 112.174 89.2919 110.967 89.2919H106.765V97.098H102.078V73.922ZM114.28 81.5342C114.28 80.9847 114.183 80.4998 113.989 80.0796C113.795 79.6486 113.515 79.2823 113.149 78.9806C112.783 78.6789 112.341 78.4527 111.824 78.3018C111.306 78.1402 110.725 78.0594 110.078 78.0594H106.765V85.1544H110.078C110.725 85.1544 111.306 85.079 111.824 84.9282C112.341 84.7665 112.783 84.5349 113.149 84.2332C113.515 83.9315 113.795 83.5706 113.989 83.1504C114.183 82.7194 114.28 82.2291 114.28 81.6796V81.5342ZM126.078 102.561H121.618V79.7887H126.078V81.2756C126.563 80.7692 127.161 80.3382 127.872 79.9826C128.583 79.6271 129.445 79.4493 130.458 79.4493C131.6 79.4493 132.635 79.681 133.561 80.1443C134.499 80.5968 135.301 81.2271 135.969 82.0352C136.637 82.8325 137.155 83.7807 137.521 84.8797C137.887 85.9787 138.07 87.1693 138.07 88.4514C138.07 89.7336 137.882 90.9242 137.505 92.0232C137.128 93.1222 136.6 94.0704 135.921 94.8677C135.242 95.665 134.429 96.2899 133.481 96.7425C132.532 97.195 131.487 97.4213 130.345 97.4213C129.839 97.4213 129.375 97.3728 128.955 97.2758C128.546 97.1896 128.169 97.0657 127.824 96.9041C127.479 96.7425 127.161 96.5539 126.87 96.3384C126.579 96.1122 126.315 95.8697 126.078 95.6111V102.561ZM125.949 90.0515C125.949 90.5148 126.03 90.9458 126.192 91.3444C126.364 91.7323 126.606 92.0717 126.919 92.3626C127.231 92.6535 127.603 92.8798 128.034 93.0414C128.476 93.203 128.971 93.2838 129.521 93.2838C130.157 93.2838 130.717 93.1707 131.202 92.9444C131.697 92.7074 132.112 92.3788 132.446 91.9586C132.78 91.5384 133.033 91.0427 133.206 90.4717C133.378 89.8898 133.464 89.2541 133.464 88.5646V88.3545C133.464 87.6649 133.378 87.0292 133.206 86.4474C133.033 85.8656 132.78 85.3645 132.446 84.9443C132.112 84.5133 131.697 84.1793 131.202 83.9423C130.717 83.7053 130.157 83.5867 129.521 83.5867C128.971 83.5867 128.476 83.6675 128.034 83.8292C127.603 83.9908 127.231 84.217 126.919 84.508C126.606 84.7989 126.364 85.1437 126.192 85.5423C126.03 85.941 125.949 86.372 125.949 86.8353V90.0515ZM157.416 73.5987C159.14 73.5987 160.686 73.9112 162.055 74.5361C163.423 75.1503 164.581 75.9961 165.529 77.0735C166.488 78.1402 167.216 79.4008 167.711 80.8554C168.218 82.2992 168.471 83.8507 168.471 85.51C168.471 87.18 168.218 88.737 167.711 90.1808C167.216 91.6246 166.488 92.8852 165.529 93.9626C165.454 94.0488 165.379 94.135 165.303 94.2212L167.34 96.7263L164.026 99.4415L161.764 96.6293C160.471 97.1573 159.022 97.4213 157.416 97.4213C155.681 97.4213 154.13 97.1142 152.762 96.5C151.404 95.8859 150.246 95.0401 149.287 93.9626C148.339 92.8852 147.611 91.6246 147.105 90.1808C146.609 88.737 146.361 87.18 146.361 85.51C146.361 83.8507 146.609 82.2992 147.105 80.8554C147.611 79.4008 148.339 78.1402 149.287 77.0735C150.246 75.9961 151.404 75.1503 152.762 74.5361C154.13 73.9112 155.681 73.5987 157.416 73.5987ZM157.416 93.1869C157.933 93.1869 158.418 93.1384 158.871 93.0414L156.253 89.7767L159.566 87.0615L162.362 90.5525C162.728 89.9814 163.019 89.335 163.234 88.6131C163.504 87.6865 163.638 86.6736 163.638 85.5746V85.4453C163.638 84.3571 163.504 83.3497 163.234 82.4231C162.965 81.4857 162.566 80.6776 162.038 79.9988C161.511 79.32 160.859 78.7921 160.083 78.415C159.318 78.0271 158.429 77.8331 157.416 77.8331C156.403 77.8331 155.509 78.0271 154.733 78.415C153.958 78.7921 153.306 79.32 152.778 79.9988C152.261 80.6776 151.867 81.4857 151.598 82.4231C151.329 83.3497 151.194 84.3571 151.194 85.4453V85.5746C151.194 86.6736 151.329 87.6865 151.598 88.6131C151.867 89.5397 152.261 90.3424 152.778 91.0212C153.306 91.7 153.958 92.2333 154.733 92.6212C155.509 92.9983 156.403 93.1869 157.416 93.1869ZM182.742 95.6111C182.505 95.8697 182.241 96.1122 181.95 96.3384C181.67 96.5539 181.352 96.7425 180.996 96.9041C180.652 97.0657 180.269 97.1896 179.849 97.2758C179.439 97.3728 178.981 97.4213 178.475 97.4213C177.333 97.4213 176.288 97.195 175.34 96.7425C174.391 96.2899 173.578 95.665 172.899 94.8677C172.22 94.0704 171.692 93.1222 171.315 92.0232C170.949 90.9242 170.766 89.7336 170.766 88.4514C170.766 87.1693 170.949 85.9787 171.315 84.8797C171.682 83.7807 172.193 82.8325 172.851 82.0352C173.519 81.2271 174.321 80.5968 175.259 80.1443C176.196 79.681 177.236 79.4493 178.378 79.4493C179.391 79.4493 180.247 79.6271 180.948 79.9826C181.659 80.3274 182.257 80.7584 182.742 81.2756V79.7887H187.202V102.561H182.742V95.6111ZM182.871 86.8353C182.871 86.372 182.785 85.941 182.612 85.5423C182.451 85.1437 182.214 84.7989 181.901 84.508C181.589 84.217 181.212 83.9908 180.77 83.8292C180.339 83.6675 179.849 83.5867 179.299 83.5867C178.664 83.5867 178.098 83.7053 177.602 83.9423C177.117 84.1793 176.708 84.5133 176.374 84.9443C176.04 85.3645 175.787 85.8656 175.614 86.4474C175.442 87.0292 175.356 87.6649 175.356 88.3545V88.5646C175.356 89.2541 175.442 89.8898 175.614 90.4717C175.787 91.0427 176.04 91.5384 176.374 91.9586C176.708 92.3788 177.117 92.7074 177.602 92.9444C178.098 93.1707 178.664 93.2838 179.299 93.2838C179.849 93.2838 180.339 93.203 180.77 93.0414C181.212 92.8798 181.589 92.6535 181.901 92.3626C182.214 92.0717 182.451 91.7323 182.612 91.3444C182.785 90.9458 182.871 90.5148 182.871 90.0515V86.8353ZM197.53 73.922H206.5C207.879 73.922 209.096 74.1213 210.152 74.52C211.208 74.9186 212.092 75.452 212.803 76.12C213.514 76.788 214.053 77.5584 214.419 78.4311C214.785 79.2931 214.968 80.1981 214.968 81.1463C214.968 81.9113 214.85 82.6386 214.613 83.3281C214.387 84.0069 214.069 84.6265 213.659 85.1868C213.261 85.7363 212.787 86.2157 212.237 86.6252C211.688 87.0238 211.095 87.3363 210.459 87.5625L215.534 97.098H210.136L205.934 88.7585H202.217V97.098H197.53V73.922ZM210.071 81.3079C210.071 80.8446 209.985 80.4136 209.813 80.015C209.651 79.6163 209.398 79.2715 209.053 78.9806C208.719 78.6897 208.299 78.4634 207.793 78.3018C207.286 78.1402 206.699 78.0594 206.031 78.0594H202.217V84.5888H206.031C206.699 84.5888 207.286 84.508 207.793 84.3463C208.299 84.1739 208.719 83.9423 209.053 83.6514C209.398 83.3497 209.651 82.9995 209.813 82.6009C209.985 82.2022 210.071 81.7712 210.071 81.3079ZM228.06 84.1201H227.591C226.955 84.1201 226.346 84.1847 225.765 84.314C225.193 84.4433 224.687 84.6804 224.245 85.0251C223.804 85.3591 223.448 85.8225 223.179 86.4151C222.92 87.0077 222.791 87.7673 222.791 88.6939V97.098H218.33V79.7887H222.791V81.7443C222.974 81.4534 223.211 81.1732 223.502 80.9039C223.793 80.6345 224.132 80.3975 224.52 80.1928C224.908 79.9773 225.344 79.8049 225.829 79.6756C226.314 79.5463 226.837 79.4816 227.397 79.4816H228.06V84.1201ZM238.161 90.5848C238.462 90.9296 238.829 91.269 239.26 91.603C239.691 91.937 240.165 92.2387 240.682 92.5081C241.21 92.7667 241.781 92.9768 242.395 93.1384C243.009 93.2892 243.672 93.3646 244.383 93.3646C245.708 93.3646 246.721 93.0899 247.421 92.5404C248.133 91.9801 248.488 91.3013 248.488 90.504C248.488 89.6744 248.176 89.044 247.551 88.6131C246.937 88.1821 245.956 87.8427 244.609 87.5949L243.882 87.4656C242.912 87.2932 241.948 87.0669 240.989 86.7868C240.03 86.5066 239.163 86.1026 238.387 85.5746C237.611 85.0467 236.981 84.3733 236.496 83.5544C236.011 82.7248 235.769 81.6796 235.769 80.419C235.769 79.6863 235.93 78.9214 236.254 78.124C236.577 77.3159 237.089 76.5779 237.789 75.9099C238.5 75.2311 239.411 74.6762 240.52 74.2452C241.641 73.8142 242.993 73.5987 244.577 73.5987C246.452 73.5987 248.122 73.9112 249.587 74.5361C251.063 75.1503 252.254 75.9637 253.159 76.9765L250.04 79.8857C249.404 79.1853 248.585 78.6358 247.583 78.2372C246.592 77.8385 245.568 77.6392 244.512 77.6392C243.295 77.6392 242.341 77.8708 241.652 78.3341C240.973 78.7974 240.633 79.4008 240.633 80.1443C240.633 80.6291 240.741 81.0332 240.957 81.3564C241.183 81.6796 241.495 81.949 241.894 82.1645C242.293 82.3692 242.772 82.5416 243.332 82.6817C243.893 82.8217 244.518 82.9618 245.207 83.1019L245.579 83.1665C246.506 83.3389 247.427 83.5598 248.343 83.8292C249.258 84.0878 250.088 84.4756 250.832 84.9928C251.586 85.4992 252.195 86.1672 252.658 86.9969C253.121 87.8157 253.353 88.8663 253.353 90.1484C253.353 91.3121 253.11 92.3411 252.625 93.2353C252.141 94.1296 251.5 94.8946 250.702 95.5303C249.905 96.1552 248.984 96.6293 247.939 96.9526C246.893 97.265 245.805 97.4213 244.674 97.4213C243.532 97.4213 242.47 97.3243 241.49 97.1303C240.52 96.9364 239.637 96.6617 238.839 96.3061C238.053 95.9505 237.347 95.5519 236.722 95.1101C236.108 94.6684 235.569 94.1943 235.106 93.6879L238.161 90.5848ZM258.056 91.5707C258.692 92.1417 259.451 92.632 260.335 93.0414C261.218 93.4508 262.112 93.6556 263.018 93.6556C263.675 93.6556 264.192 93.5316 264.569 93.2838C264.946 93.0252 265.135 92.6966 265.135 92.298C265.135 91.6192 264.407 91.0912 262.953 90.7141L261.692 90.3747C261.067 90.2239 260.437 90.0191 259.801 89.7606C259.166 89.4912 258.578 89.141 258.04 88.71C257.512 88.2791 257.081 87.7565 256.747 87.1423C256.424 86.5174 256.262 85.7524 256.262 84.8474C256.262 84.1255 256.418 83.4413 256.731 82.7948C257.054 82.1376 257.506 81.5611 258.088 81.0655C258.681 80.5699 259.397 80.1766 260.238 79.8857C261.078 79.5948 262.016 79.4493 263.05 79.4493C264.526 79.4493 265.84 79.681 266.993 80.1443C268.157 80.6076 269.073 81.1301 269.741 81.712L267.414 84.6857C266.864 84.2871 266.212 83.9477 265.458 83.6675C264.715 83.3766 263.966 83.2312 263.211 83.2312C262.511 83.2312 261.967 83.3605 261.579 83.6191C261.191 83.8669 260.997 84.1686 260.997 84.5241C260.997 84.9012 261.164 85.2083 261.498 85.4453C261.843 85.6716 262.339 85.8709 262.985 86.0433L264.86 86.5767C266.649 87.0831 267.931 87.7673 268.707 88.6292C269.482 89.4912 269.87 90.5794 269.87 91.8939C269.87 92.6266 269.719 93.3269 269.418 93.995C269.116 94.6522 268.674 95.2394 268.092 95.7566C267.511 96.2738 266.789 96.6832 265.927 96.9849C265.065 97.2758 264.084 97.4213 262.985 97.4213C262.145 97.4213 261.353 97.3458 260.609 97.195C259.877 97.0441 259.193 96.8394 258.557 96.5808C257.932 96.3115 257.366 96.0098 256.86 95.6758C256.353 95.3418 255.923 95.0078 255.567 94.6737L258.056 91.5707ZM276.416 73.922H294.081V78.2695H287.6V97.098H282.897V78.2695H276.416V73.922ZM301.968 91.9424C301.968 92.1471 301.994 92.3411 302.048 92.5242C302.102 92.7074 302.194 92.869 302.323 93.0091C302.463 93.1384 302.657 93.2407 302.905 93.3162C303.153 93.3916 303.471 93.4293 303.858 93.4293C304.02 93.4293 304.203 93.4239 304.408 93.4131C304.613 93.3916 304.817 93.37 305.022 93.3485C305.227 93.3269 305.415 93.3 305.588 93.2677C305.771 93.2353 305.922 93.2084 306.04 93.1869L306.444 97.1303C306.024 97.1842 305.588 97.2327 305.135 97.2758C304.747 97.3189 304.316 97.3512 303.842 97.3728C303.368 97.4051 302.889 97.4213 302.404 97.4213C300.863 97.4213 299.662 97.0711 298.8 96.3707C297.938 95.6704 297.507 94.5552 297.507 93.0252V83.6675H294.388V79.7887H297.507V74.8917L301.968 73.6957V79.7887H306.509V83.6675H301.968V91.9424ZM324.966 93.1869C325.645 93.1869 326.275 93.0899 326.857 92.8959C327.449 92.6912 327.956 92.3895 328.376 91.9909C328.807 91.5815 329.146 91.0697 329.394 90.4555C329.642 89.8306 329.766 89.0979 329.766 88.2575V73.8896H334.388V88.9525C334.388 90.2454 334.151 91.4144 333.677 92.4596C333.214 93.5047 332.562 94.3936 331.721 95.1263C330.892 95.8589 329.901 96.4246 328.748 96.8233C327.595 97.2219 326.334 97.4213 324.966 97.4213C323.597 97.4213 322.337 97.2219 321.184 96.8233C320.031 96.4246 319.034 95.8589 318.194 95.1263C317.354 94.3936 316.696 93.5047 316.222 92.4596C315.759 91.4144 315.527 90.2454 315.527 88.9525V73.8896H320.166V88.2575C320.166 89.0979 320.29 89.8306 320.537 90.4555C320.785 91.0697 321.119 91.5815 321.54 91.9909C321.971 92.3895 322.477 92.6912 323.059 92.8959C323.651 93.0899 324.287 93.1869 324.966 93.1869ZM353.201 97.098H348.74V95.6111C348.492 95.8482 348.223 96.0798 347.932 96.3061C347.641 96.5216 347.318 96.7155 346.962 96.8879C346.607 97.0495 346.208 97.1788 345.766 97.2758C345.335 97.3728 344.856 97.4213 344.328 97.4213C343.39 97.4213 342.55 97.2704 341.806 96.9687C341.063 96.6563 340.433 96.2361 339.916 95.7081C339.409 95.1694 339.021 94.5391 338.752 93.8172C338.483 93.0953 338.348 92.3141 338.348 91.4737V79.7887H342.808V89.8414C342.808 90.4555 342.873 90.9781 343.002 91.4091C343.143 91.84 343.331 92.1902 343.568 92.4596C343.816 92.7182 344.107 92.9121 344.441 93.0414C344.775 93.1599 345.136 93.2192 345.524 93.2192C345.976 93.2192 346.396 93.1384 346.784 92.9768C347.183 92.8151 347.528 92.5727 347.819 92.2495C348.11 91.9155 348.336 91.5006 348.497 91.005C348.659 90.5094 348.74 89.9276 348.74 89.2595V79.7887H353.201V97.098ZM367.229 97.098L360.683 73.922H365.936L370.413 91.3444H370.574L374.954 73.922H380.142L373.597 97.098H367.229ZM386.3 97.098L380.999 79.7887H385.977L389.08 91.7L392.264 79.7887H397.161L391.892 97.098H386.3ZM423.036 89.9222H423.1L426.252 73.922H431.343L426.171 97.098H420.418L416.91 80.4837L413.468 97.098H407.747L402.575 73.922H407.682L410.72 89.9222H410.785L414.325 73.922H419.593L423.036 89.9222ZM449.784 91.4414L451.901 79.7887H456.62L452.628 97.098H447.327L444.741 85.8494L441.994 97.098H436.773L432.765 79.7887H437.63L439.682 91.4414L442.689 79.7887H446.955L449.784 91.4414ZM482.624 73.922L476.111 84.7181L483.723 97.098H478.422L473.364 88.6615L468.499 97.098H463.133L470.745 84.7504L464.022 73.922H469.259L473.396 81.0817L477.533 73.922H482.624ZM489.526 88.0312L484.257 79.7887H489.412L492.063 84.4595L494.843 79.7887H500.047L494.681 88.0636L500.645 97.098H495.376L491.966 91.7969L488.863 97.098H483.659L489.526 88.0312ZM510.972 73.922L515.675 82.8595H515.74L520.54 73.922H525.793L518.051 87.6595V97.098H513.316V87.6595L505.574 73.922H510.972ZM529.203 99.1183C529.709 99.1183 530.081 99.0267 530.318 98.8435C530.566 98.6603 530.76 98.364 530.9 97.9546L531.061 97.4213L525.065 79.7887H530.027L533.47 91.7323L536.33 79.7887H541.227L535.393 99.2475C535.199 99.894 534.929 100.449 534.585 100.912C534.24 101.376 533.83 101.753 533.356 102.044C532.882 102.345 532.354 102.566 531.773 102.706C531.201 102.846 530.587 102.916 529.93 102.916C529.661 102.916 529.348 102.906 528.993 102.884C528.648 102.862 528.287 102.83 527.91 102.787C527.544 102.755 527.177 102.712 526.811 102.658C526.455 102.604 526.127 102.539 525.825 102.464L526.665 98.8112C526.924 98.8758 527.193 98.9297 527.473 98.9728C527.721 99.0159 527.991 99.0482 528.282 99.0698C528.583 99.1021 528.89 99.1183 529.203 99.1183ZM559.506 78.2695H548.371V73.922H564.823V78.3018L553.219 92.7667H564.969V97.098H547.886V92.7343L559.506 78.2695ZM567.442 93.0252L575.975 83.8938H568.137V79.7887H581.244V83.9261L572.662 93.0576H581.664V97.098H567.442V93.0252ZM9.82639 114.922V138.098H5.02633V122.777H0.824253V118.542H1.85861C2.54818 118.542 3.10846 118.483 3.53944 118.364C3.9812 118.235 4.32598 118.041 4.5738 117.783C4.82161 117.524 4.98862 117.195 5.07481 116.797C5.16101 116.387 5.20411 115.897 5.20411 115.326V114.922H9.82639ZM21.9801 118.93C21.3444 118.93 20.7895 119.032 20.3154 119.237C19.8413 119.442 19.4481 119.727 19.1356 120.094C18.8231 120.46 18.5915 120.891 18.4406 121.387C18.2898 121.872 18.2144 122.4 18.2144 122.971L13.4143 122.534C13.4251 121.263 13.6514 120.137 14.0931 119.156C14.5349 118.165 15.1382 117.335 15.9032 116.667C16.6682 115.989 17.5679 115.477 18.6023 115.132C19.6474 114.777 20.7841 114.599 22.0124 114.599C23.2946 114.599 24.4636 114.793 25.5195 115.181C26.5862 115.558 27.4967 116.091 28.2509 116.781C29.0051 117.47 29.5869 118.3 29.9963 119.269C30.4166 120.228 30.6267 121.284 30.6267 122.437C30.6267 123.698 30.3735 124.878 29.8671 125.977C29.3714 127.065 28.7088 128.078 27.8791 129.015C27.0495 129.942 26.096 130.793 25.0185 131.569C23.9411 132.334 22.8313 133.023 21.6892 133.637L21.2528 133.864H30.9176V138.098H14.0123V133.896C14.885 133.422 15.7739 132.915 16.679 132.377C17.5948 131.838 18.4784 131.278 19.3295 130.696C20.1915 130.103 21.005 129.489 21.77 128.853C22.535 128.218 23.1976 127.561 23.7579 126.882C24.3289 126.192 24.7815 125.486 25.1155 124.765C25.4495 124.032 25.6165 123.278 25.6165 122.502C25.6165 122.06 25.5411 121.624 25.3902 121.193C25.2394 120.762 25.0131 120.379 24.7114 120.045C24.4205 119.711 24.0434 119.442 23.5801 119.237C23.1276 119.032 22.5942 118.93 21.9801 118.93ZM38.1096 131.019C38.282 131.569 38.5244 132.048 38.8369 132.458C39.1493 132.856 39.5103 133.19 39.9197 133.46C40.3399 133.718 40.7924 133.912 41.2773 134.041C41.7729 134.16 42.2847 134.219 42.8127 134.219C43.5453 134.219 44.1649 134.133 44.6713 133.961C45.1885 133.777 45.6033 133.546 45.9157 133.266C46.239 132.975 46.4706 132.651 46.6107 132.296C46.7508 131.93 46.8208 131.558 46.8208 131.181C46.8208 130.265 46.4383 129.543 45.6733 129.015C44.9191 128.476 43.7554 128.207 42.1824 128.207H40.8894V124.296H41.8753C43.2975 124.296 44.4073 124.064 45.2046 123.601C46.0127 123.138 46.4168 122.432 46.4168 121.484C46.4168 121.074 46.3252 120.708 46.142 120.385C45.9588 120.051 45.7056 119.771 45.3824 119.544C45.0699 119.318 44.6928 119.146 44.2511 119.027C43.8201 118.898 43.3514 118.833 42.845 118.833C42.2632 118.833 41.7298 118.914 41.245 119.076C40.7709 119.237 40.3453 119.458 39.9682 119.738C39.5911 120.018 39.2625 120.347 38.9823 120.724C38.713 121.101 38.4975 121.5 38.3358 121.92L34.1984 120.255C34.4462 119.35 34.8557 118.548 35.4267 117.847C35.9978 117.147 36.6658 116.56 37.4308 116.086C38.2066 115.601 39.0577 115.234 39.9844 114.987C40.911 114.728 41.8537 114.599 42.8127 114.599C44.0086 114.599 45.1184 114.744 46.142 115.035C47.1656 115.326 48.0545 115.752 48.8087 116.312C49.5737 116.861 50.1717 117.54 50.6027 118.348C51.0337 119.156 51.2491 120.078 51.2491 121.112C51.2491 121.726 51.1468 122.303 50.9421 122.841C50.7481 123.369 50.4788 123.849 50.134 124.28C49.8 124.7 49.4013 125.061 48.938 125.363C48.4747 125.664 47.9791 125.896 47.4511 126.057C48.0437 126.187 48.5986 126.402 49.1158 126.704C49.633 127.006 50.0855 127.383 50.4734 127.835C50.8613 128.288 51.1629 128.81 51.3784 129.403C51.6047 129.996 51.7178 130.642 51.7178 131.342C51.7178 132.409 51.4862 133.379 51.0229 134.252C50.5703 135.124 49.9454 135.868 49.1481 136.482C48.3508 137.096 47.408 137.575 46.3198 137.92C45.2423 138.254 44.0733 138.421 42.8127 138.421C41.7029 138.421 40.6362 138.281 39.6126 138.001C38.589 137.71 37.6678 137.301 36.849 136.773C36.0301 136.234 35.3405 135.582 34.7802 134.817C34.22 134.041 33.8429 133.169 33.6489 132.199L38.1096 131.019ZM65.4877 138.098V132.862H53.932V127.868L64.1948 114.922H70.1908V128.627H73.5686V132.862H70.1908V138.098H65.4877ZM65.4877 128.627V119.528L58.2795 128.627H65.4877ZM76.1868 127.577L77.4798 114.922H92.3487V119.173H81.4233L80.9546 123.472C81.2132 123.256 81.5149 123.062 81.8596 122.89C82.2044 122.717 82.5762 122.572 82.9748 122.453C83.3735 122.335 83.7775 122.243 84.187 122.179C84.6072 122.114 85.022 122.082 85.4314 122.082C86.5951 122.082 87.6725 122.27 88.6638 122.647C89.655 123.024 90.5116 123.558 91.2335 124.247C91.9554 124.937 92.5211 125.767 92.9305 126.736C93.3399 127.706 93.5446 128.778 93.5446 129.952C93.5446 131.235 93.3076 132.398 92.8335 133.443C92.3702 134.478 91.7237 135.367 90.8941 136.11C90.0752 136.843 89.1055 137.414 87.985 137.823C86.8752 138.222 85.6792 138.421 84.3971 138.421C83.3627 138.421 82.3661 138.287 81.4071 138.017C80.459 137.748 79.5916 137.36 78.8051 136.854C78.0185 136.347 77.3343 135.722 76.7525 134.979C76.1815 134.235 75.7613 133.39 75.4919 132.441L79.9364 130.987C80.2704 131.989 80.793 132.775 81.5041 133.346C82.2152 133.907 83.158 134.187 84.3324 134.187C85.0328 134.187 85.6523 134.068 86.191 133.831C86.7297 133.594 87.1769 133.287 87.5324 132.91C87.8988 132.522 88.1735 132.086 88.3567 131.601C88.5506 131.105 88.6476 130.599 88.6476 130.082C88.6476 129.575 88.5506 129.085 88.3567 128.611C88.1628 128.126 87.8772 127.701 87.5001 127.334C87.1338 126.957 86.6813 126.655 86.1425 126.429C85.6146 126.203 85.0112 126.09 84.3324 126.09C83.9122 126.09 83.5135 126.149 83.1364 126.268C82.7593 126.375 82.4145 126.521 82.1021 126.704C81.7896 126.876 81.5202 127.081 81.294 127.318C81.0677 127.544 80.8899 127.771 80.7606 127.997L76.1868 127.577ZM95.9366 126.752C95.9366 125.707 96.0174 124.684 96.179 123.682C96.3514 122.669 96.61 121.715 96.9548 120.821C97.3103 119.916 97.7575 119.086 98.2962 118.332C98.8349 117.567 99.4814 116.91 100.236 116.36C100.99 115.811 101.852 115.38 102.822 115.067C103.802 114.755 104.896 114.599 106.102 114.599C107.083 114.599 107.993 114.723 108.834 114.97C109.685 115.207 110.445 115.542 111.113 115.972C111.791 116.393 112.379 116.894 112.874 117.476C113.37 118.047 113.758 118.666 114.038 119.334L109.706 121.015C109.329 120.282 108.812 119.733 108.155 119.366C107.508 118.989 106.776 118.801 105.957 118.801C105.16 118.801 104.454 118.962 103.84 119.286C103.226 119.598 102.703 120.029 102.272 120.579C101.852 121.128 101.529 121.769 101.302 122.502C101.076 123.235 100.952 124.01 100.931 124.829C101.2 124.56 101.518 124.301 101.884 124.053C102.25 123.795 102.655 123.574 103.096 123.391C103.549 123.208 104.034 123.062 104.551 122.954C105.079 122.836 105.628 122.777 106.199 122.777C107.331 122.777 108.381 122.96 109.351 123.326C110.331 123.692 111.177 124.21 111.888 124.878C112.61 125.535 113.176 126.321 113.585 127.237C113.995 128.153 114.199 129.161 114.199 130.26C114.199 131.423 113.989 132.506 113.569 133.508C113.16 134.499 112.573 135.361 111.808 136.094C111.053 136.816 110.143 137.387 109.076 137.807C108.009 138.217 106.819 138.421 105.504 138.421C104.061 138.421 102.751 138.168 101.577 137.662C100.403 137.144 99.3952 136.406 98.5548 135.447C97.7252 134.489 97.0787 133.32 96.6154 131.94C96.1629 130.561 95.9366 129.004 95.9366 127.27V126.752ZM101.157 130.518C101.157 131.068 101.254 131.579 101.448 132.053C101.642 132.528 101.916 132.942 102.272 133.298C102.638 133.643 103.075 133.917 103.581 134.122C104.088 134.327 104.648 134.429 105.262 134.429C105.898 134.429 106.469 134.327 106.975 134.122C107.482 133.917 107.907 133.643 108.252 133.298C108.607 132.942 108.877 132.528 109.06 132.053C109.243 131.579 109.335 131.068 109.335 130.518C109.335 129.979 109.243 129.478 109.06 129.015C108.877 128.541 108.607 128.132 108.252 127.787C107.907 127.431 107.482 127.151 106.975 126.946C106.469 126.742 105.898 126.639 105.262 126.639C104.648 126.639 104.088 126.742 103.581 126.946C103.075 127.151 102.638 127.431 102.272 127.787C101.916 128.132 101.642 128.541 101.448 129.015C101.254 129.478 101.157 129.979 101.157 130.518ZM127.84 119.366H116.155V114.922H132.672V119.431L123.703 138.098H118.208L127.84 119.366ZM143.792 114.599C144.514 114.599 145.225 114.658 145.925 114.777C146.625 114.884 147.288 115.057 147.913 115.294C148.538 115.531 149.114 115.832 149.642 116.199C150.181 116.554 150.644 116.98 151.032 117.476C151.42 117.96 151.722 118.515 151.937 119.14C152.153 119.765 152.261 120.46 152.261 121.225C152.261 121.635 152.207 122.065 152.099 122.518C151.991 122.96 151.808 123.396 151.549 123.827C151.302 124.258 150.973 124.668 150.564 125.055C150.165 125.433 149.675 125.75 149.093 126.009C149.761 126.278 150.337 126.612 150.822 127.011C151.307 127.399 151.706 127.835 152.018 128.32C152.331 128.794 152.557 129.295 152.697 129.823C152.848 130.351 152.923 130.879 152.923 131.407C152.923 132.625 152.665 133.675 152.147 134.559C151.641 135.442 150.962 136.169 150.111 136.74C149.26 137.311 148.285 137.737 147.186 138.017C146.087 138.287 144.955 138.421 143.792 138.421C142.628 138.421 141.497 138.287 140.398 138.017C139.31 137.737 138.34 137.311 137.489 136.74C136.637 136.169 135.953 135.442 135.436 134.559C134.919 133.675 134.66 132.625 134.66 131.407C134.66 130.879 134.736 130.351 134.887 129.823C135.037 129.295 135.269 128.794 135.582 128.32C135.905 127.835 136.303 127.399 136.778 127.011C137.262 126.612 137.833 126.278 138.491 126.009C137.909 125.75 137.419 125.433 137.02 125.055C136.621 124.668 136.293 124.258 136.034 123.827C135.786 123.396 135.603 122.96 135.485 122.518C135.377 122.065 135.323 121.635 135.323 121.225C135.323 120.115 135.56 119.146 136.034 118.316C136.508 117.486 137.138 116.797 137.925 116.247C138.722 115.698 139.627 115.288 140.64 115.019C141.653 114.739 142.704 114.599 143.792 114.599ZM143.792 124.231C144.341 124.231 144.837 124.172 145.279 124.053C145.731 123.924 146.114 123.741 146.426 123.504C146.749 123.256 146.997 122.96 147.17 122.615C147.342 122.259 147.428 121.85 147.428 121.387C147.428 120.945 147.337 120.552 147.153 120.207C146.981 119.862 146.733 119.571 146.41 119.334C146.087 119.086 145.699 118.898 145.246 118.768C144.805 118.639 144.32 118.575 143.792 118.575C143.264 118.575 142.774 118.639 142.321 118.768C141.879 118.898 141.497 119.086 141.174 119.334C140.85 119.571 140.597 119.862 140.414 120.207C140.242 120.552 140.155 120.945 140.155 121.387C140.155 121.85 140.242 122.259 140.414 122.615C140.586 122.96 140.829 123.256 141.141 123.504C141.464 123.741 141.847 123.924 142.289 124.053C142.741 124.172 143.242 124.231 143.792 124.231ZM143.792 134.462C144.406 134.462 144.966 134.386 145.473 134.235C145.99 134.085 146.432 133.869 146.798 133.589C147.164 133.309 147.45 132.975 147.654 132.587C147.859 132.199 147.962 131.763 147.962 131.278C147.962 130.804 147.859 130.373 147.654 129.985C147.45 129.586 147.164 129.247 146.798 128.967C146.432 128.676 145.99 128.455 145.473 128.304C144.966 128.142 144.406 128.062 143.792 128.062C143.178 128.062 142.617 128.142 142.111 128.304C141.605 128.455 141.163 128.676 140.786 128.967C140.419 129.247 140.134 129.586 139.929 129.985C139.724 130.373 139.622 130.804 139.622 131.278C139.622 131.763 139.724 132.199 139.929 132.587C140.134 132.975 140.419 133.309 140.786 133.589C141.163 133.869 141.605 134.085 142.111 134.235C142.617 134.386 143.178 134.462 143.792 134.462ZM173.707 126.284C173.707 127.329 173.626 128.352 173.465 129.354C173.303 130.357 173.05 131.31 172.705 132.215C172.371 133.109 171.94 133.939 171.412 134.704C170.884 135.458 170.249 136.11 169.505 136.66C168.762 137.209 167.905 137.64 166.935 137.953C165.977 138.265 164.894 138.421 163.687 138.421C162.696 138.421 161.78 138.303 160.939 138.066C160.099 137.818 159.339 137.484 158.661 137.064C157.982 136.643 157.395 136.148 156.899 135.577C156.403 134.995 156.015 134.37 155.735 133.702L160.067 132.005C160.455 132.738 160.972 133.293 161.618 133.67C162.275 134.036 163.019 134.219 163.849 134.219C164.657 134.219 165.368 134.063 165.982 133.75C166.596 133.427 167.102 132.991 167.501 132.441C167.911 131.892 168.218 131.256 168.422 130.534C168.627 129.802 168.724 129.026 168.713 128.207C168.444 128.476 168.126 128.735 167.76 128.983C167.393 129.231 166.984 129.451 166.531 129.645C166.09 129.829 165.605 129.979 165.077 130.098C164.56 130.206 164.016 130.26 163.445 130.26C162.313 130.26 161.257 130.076 160.277 129.71C159.307 129.333 158.461 128.816 157.739 128.158C157.028 127.49 156.468 126.699 156.059 125.783C155.649 124.867 155.444 123.865 155.444 122.777C155.444 121.613 155.649 120.53 156.059 119.528C156.479 118.526 157.066 117.664 157.82 116.942C158.585 116.21 159.501 115.638 160.568 115.229C161.634 114.809 162.825 114.599 164.139 114.599C165.583 114.599 166.892 114.857 168.067 115.374C169.241 115.881 170.243 116.614 171.073 117.573C171.913 118.531 172.56 119.7 173.012 121.08C173.476 122.459 173.707 124.016 173.707 125.75V126.284ZM168.487 122.502C168.487 121.952 168.39 121.441 168.196 120.966C168.002 120.492 167.722 120.083 167.356 119.738C167 119.383 166.569 119.108 166.063 118.914C165.556 118.709 164.996 118.607 164.382 118.607C163.746 118.607 163.175 118.709 162.669 118.914C162.162 119.108 161.731 119.383 161.376 119.738C161.02 120.083 160.746 120.492 160.552 120.966C160.368 121.441 160.277 121.952 160.277 122.502C160.277 123.041 160.368 123.547 160.552 124.021C160.746 124.495 161.02 124.91 161.376 125.266C161.731 125.61 162.162 125.885 162.669 126.09C163.175 126.284 163.746 126.381 164.382 126.381C164.996 126.381 165.556 126.284 166.063 126.09C166.569 125.885 167 125.61 167.356 125.266C167.722 124.91 168.002 124.495 168.196 124.021C168.39 123.547 168.487 123.041 168.487 122.502ZM181.19 126.849C181.19 127.83 181.266 128.767 181.416 129.662C181.567 130.545 181.81 131.326 182.144 132.005C182.489 132.684 182.941 133.223 183.501 133.621C184.062 134.02 184.757 134.219 185.586 134.219C186.416 134.219 187.111 134.02 187.671 133.621C188.231 133.223 188.679 132.684 189.013 132.005C189.357 131.326 189.6 130.545 189.74 129.662C189.891 128.767 189.966 127.83 189.966 126.849V126.219C189.966 125.239 189.891 124.301 189.74 123.407C189.6 122.513 189.357 121.726 189.013 121.047C188.679 120.368 188.231 119.83 187.671 119.431C187.111 119.032 186.416 118.833 185.586 118.833C184.757 118.833 184.062 119.032 183.501 119.431C182.941 119.83 182.489 120.368 182.144 121.047C181.81 121.726 181.567 122.513 181.416 123.407C181.266 124.301 181.19 125.239 181.19 126.219V126.849ZM194.863 126.542C194.863 127.49 194.793 128.444 194.653 129.403C194.524 130.362 194.308 131.283 194.007 132.167C193.716 133.05 193.333 133.88 192.859 134.656C192.385 135.421 191.803 136.089 191.114 136.66C190.424 137.22 189.621 137.662 188.705 137.985C187.8 138.308 186.761 138.47 185.586 138.47C184.423 138.47 183.383 138.308 182.467 137.985C181.551 137.662 180.748 137.22 180.059 136.66C179.38 136.089 178.804 135.421 178.33 134.656C177.855 133.891 177.468 133.066 177.166 132.183C176.875 131.299 176.66 130.378 176.519 129.419C176.39 128.46 176.326 127.501 176.326 126.542C176.326 125.594 176.39 124.641 176.519 123.682C176.66 122.723 176.875 121.802 177.166 120.918C177.468 120.034 177.855 119.21 178.33 118.445C178.804 117.669 179.38 117.001 180.059 116.441C180.748 115.87 181.546 115.423 182.451 115.1C183.367 114.766 184.412 114.599 185.586 114.599C186.761 114.599 187.8 114.766 188.705 115.1C189.621 115.423 190.424 115.87 191.114 116.441C191.803 117.001 192.385 117.669 192.859 118.445C193.333 119.21 193.716 120.034 194.007 120.918C194.308 121.802 194.524 122.723 194.653 123.682C194.793 124.641 194.863 125.594 194.863 126.542ZM204.334 114.922H209.231L208.811 130.26H204.77L204.334 114.922ZM203.704 135.318C203.704 134.898 203.784 134.505 203.946 134.138C204.108 133.761 204.329 133.433 204.609 133.153C204.9 132.872 205.234 132.651 205.611 132.49C205.988 132.328 206.392 132.247 206.823 132.247C207.243 132.247 207.636 132.328 208.003 132.49C208.38 132.651 208.708 132.872 208.989 133.153C209.269 133.433 209.49 133.761 209.651 134.138C209.813 134.505 209.894 134.898 209.894 135.318C209.894 135.749 209.813 136.153 209.651 136.53C209.49 136.907 209.269 137.236 208.989 137.516C208.708 137.796 208.38 138.017 208.003 138.179C207.636 138.34 207.243 138.421 206.823 138.421C206.392 138.421 205.988 138.34 205.611 138.179C205.234 138.017 204.9 137.796 204.609 137.516C204.329 137.236 204.108 136.907 203.946 136.53C203.784 136.153 203.704 135.749 203.704 135.318ZM231.647 136.45C231.453 136.708 231.216 136.961 230.936 137.209C230.656 137.446 230.333 137.656 229.967 137.839C229.6 138.012 229.196 138.152 228.754 138.26C228.313 138.367 227.833 138.421 227.316 138.421C226.174 138.421 225.134 138.195 224.197 137.742C223.27 137.29 222.473 136.665 221.805 135.868C221.148 135.07 220.636 134.122 220.27 133.023C219.914 131.924 219.736 130.734 219.736 129.451C219.736 128.169 219.909 126.979 220.253 125.88C220.609 124.781 221.11 123.833 221.756 123.035C222.414 122.227 223.2 121.597 224.116 121.144C225.043 120.681 226.077 120.449 227.219 120.449C227.726 120.449 228.183 120.498 228.593 120.595C229.002 120.692 229.374 120.821 229.708 120.983C230.053 121.144 230.365 121.338 230.645 121.564C230.926 121.78 231.184 122.017 231.421 122.276V120.789H235.898V135.027C235.898 135.21 235.952 135.388 236.06 135.561C236.167 135.733 236.377 135.819 236.69 135.819C237.283 135.819 237.821 135.62 238.306 135.221C238.791 134.823 239.2 134.289 239.534 133.621C239.879 132.942 240.143 132.156 240.326 131.262C240.52 130.367 240.617 129.425 240.617 128.433C240.617 127.453 240.515 126.467 240.31 125.476C240.116 124.484 239.809 123.536 239.389 122.631C238.969 121.715 238.43 120.864 237.773 120.078C237.116 119.291 236.324 118.607 235.397 118.025C234.481 117.443 233.431 116.985 232.245 116.651C231.06 116.317 229.724 116.15 228.237 116.15C226.427 116.15 224.741 116.484 223.179 117.152C221.616 117.82 220.259 118.752 219.106 119.948C217.953 121.144 217.048 122.567 216.391 124.215C215.733 125.853 215.405 127.647 215.405 129.597C215.405 130.89 215.55 132.118 215.841 133.282C216.143 134.445 216.568 135.523 217.118 136.514C217.667 137.505 218.33 138.4 219.106 139.197C219.882 139.994 220.744 140.673 221.692 141.233C222.64 141.804 223.663 142.241 224.763 142.543C225.872 142.844 227.031 142.995 228.237 142.995C229.293 142.995 230.333 142.866 231.357 142.607C232.391 142.349 233.382 141.971 234.33 141.476L236.189 143.399C234.885 144.11 233.533 144.611 232.132 144.902C230.742 145.204 229.39 145.355 228.076 145.355C226.61 145.355 225.215 145.166 223.89 144.789C222.564 144.423 221.331 143.9 220.189 143.221C219.057 142.543 218.028 141.724 217.102 140.765C216.175 139.817 215.383 138.761 214.726 137.597C214.08 136.423 213.579 135.162 213.223 133.815C212.867 132.468 212.69 131.062 212.69 129.597C212.69 128.132 212.873 126.725 213.239 125.379C213.605 124.021 214.123 122.755 214.791 121.581C215.469 120.406 216.283 119.34 217.231 118.381C218.179 117.422 219.23 116.603 220.383 115.924C221.546 115.234 222.796 114.706 224.132 114.34C225.479 113.963 226.885 113.774 228.35 113.774C229.816 113.774 231.2 113.936 232.504 114.259C233.819 114.583 235.031 115.046 236.14 115.649C237.25 116.253 238.247 116.991 239.13 117.863C240.025 118.736 240.779 119.722 241.393 120.821C242.018 121.909 242.497 123.105 242.831 124.409C243.165 125.713 243.332 127.097 243.332 128.563C243.332 129.317 243.262 130.087 243.122 130.874C242.993 131.649 242.788 132.404 242.508 133.136C242.239 133.869 241.894 134.559 241.474 135.205C241.054 135.841 240.563 136.401 240.003 136.886C239.454 137.36 238.823 137.737 238.112 138.017C237.412 138.287 236.636 138.421 235.785 138.421C235.117 138.421 234.54 138.346 234.056 138.195C233.581 138.055 233.177 137.883 232.843 137.678C232.509 137.462 232.245 137.247 232.051 137.031C231.868 136.805 231.734 136.611 231.647 136.45ZM231.55 127.835C231.55 127.372 231.475 126.941 231.324 126.542C231.173 126.144 230.952 125.799 230.662 125.508C230.381 125.217 230.026 124.991 229.595 124.829C229.175 124.668 228.69 124.587 228.14 124.587C227.505 124.587 226.95 124.705 226.476 124.942C226.002 125.179 225.603 125.513 225.28 125.944C224.967 126.365 224.73 126.866 224.569 127.447C224.418 128.029 224.342 128.665 224.342 129.354V129.565C224.342 130.254 224.418 130.89 224.569 131.472C224.73 132.043 224.967 132.538 225.28 132.959C225.603 133.379 226.002 133.707 226.476 133.944C226.95 134.171 227.505 134.284 228.14 134.284C228.69 134.284 229.175 134.203 229.595 134.041C230.026 133.88 230.381 133.654 230.662 133.363C230.952 133.072 231.173 132.732 231.324 132.344C231.475 131.946 231.55 131.515 231.55 131.051V127.835ZM259.026 120.821C258.789 120.272 258.39 119.814 257.83 119.447C257.28 119.081 256.607 118.898 255.809 118.898C255.325 118.898 254.888 118.984 254.5 119.156C254.123 119.329 253.8 119.571 253.531 119.884C253.261 120.196 253.051 120.573 252.9 121.015C252.76 121.457 252.696 121.952 252.706 122.502L252.739 124.829H257.393V128.902H252.739V133.864H262.468V138.098H246.112V133.864H248.036V128.902H246.112V124.829H248.036V122.211C248.036 121.015 248.224 119.948 248.601 119.011C248.989 118.074 249.522 117.276 250.201 116.619C250.891 115.962 251.704 115.461 252.642 115.116C253.59 114.771 254.624 114.599 255.745 114.599C256.52 114.599 257.264 114.674 257.975 114.825C258.697 114.976 259.36 115.197 259.963 115.488C260.577 115.779 261.127 116.134 261.611 116.554C262.096 116.975 262.5 117.459 262.824 118.009L259.026 120.821ZM276.206 120.191C276.206 120.966 276.06 121.699 275.769 122.389C275.478 123.068 275.08 123.66 274.573 124.167C274.078 124.662 273.49 125.055 272.812 125.346C272.133 125.637 271.4 125.783 270.614 125.783C269.816 125.783 269.073 125.637 268.383 125.346C267.704 125.055 267.112 124.662 266.605 124.167C266.099 123.66 265.7 123.068 265.41 122.389C265.119 121.699 264.973 120.966 264.973 120.191C264.973 119.415 265.119 118.688 265.41 118.009C265.7 117.33 266.099 116.737 266.605 116.231C267.112 115.725 267.704 115.326 268.383 115.035C269.073 114.744 269.816 114.599 270.614 114.599C271.4 114.599 272.133 114.744 272.812 115.035C273.49 115.326 274.078 115.725 274.573 116.231C275.08 116.737 275.478 117.33 275.769 118.009C276.06 118.688 276.206 119.415 276.206 120.191ZM268.351 120.191C268.351 120.525 268.405 120.837 268.513 121.128C268.62 121.408 268.771 121.656 268.965 121.872C269.159 122.087 269.391 122.259 269.66 122.389C269.94 122.507 270.242 122.567 270.565 122.567C270.899 122.567 271.206 122.507 271.486 122.389C271.766 122.259 272.004 122.087 272.197 121.872C272.402 121.656 272.558 121.408 272.666 121.128C272.774 120.837 272.828 120.525 272.828 120.191C272.828 119.857 272.774 119.55 272.666 119.269C272.558 118.979 272.402 118.725 272.197 118.51C272.004 118.294 271.766 118.127 271.486 118.009C271.206 117.88 270.899 117.815 270.565 117.815C270.242 117.815 269.94 117.88 269.66 118.009C269.391 118.127 269.159 118.294 268.965 118.51C268.771 118.725 268.62 118.979 268.513 119.269C268.405 119.55 268.351 119.857 268.351 120.191ZM282.525 114.922H286.355L271.955 138.098H268.092L282.525 114.922ZM289.507 132.829C289.507 133.605 289.361 134.338 289.07 135.027C288.78 135.706 288.381 136.299 287.874 136.805C287.379 137.301 286.792 137.694 286.113 137.985C285.434 138.276 284.701 138.421 283.915 138.421C283.117 138.421 282.374 138.276 281.684 137.985C281.006 137.694 280.413 137.301 279.907 136.805C279.4 136.299 279.002 135.706 278.711 135.027C278.431 134.338 278.29 133.605 278.29 132.829C278.29 132.053 278.431 131.326 278.711 130.647C279.002 129.969 279.4 129.376 279.907 128.87C280.413 128.363 281.006 127.965 281.684 127.674C282.374 127.383 283.117 127.237 283.915 127.237C284.701 127.237 285.434 127.383 286.113 127.674C286.792 127.965 287.379 128.363 287.874 128.87C288.381 129.376 288.78 129.969 289.07 130.647C289.361 131.326 289.507 132.053 289.507 132.829ZM281.668 132.829C281.668 133.163 281.722 133.476 281.83 133.767C281.938 134.058 282.089 134.311 282.282 134.526C282.476 134.742 282.708 134.914 282.977 135.043C283.247 135.162 283.548 135.221 283.882 135.221C284.216 135.221 284.524 135.162 284.804 135.043C285.084 134.914 285.321 134.742 285.515 134.526C285.709 134.311 285.86 134.058 285.967 133.767C286.075 133.476 286.129 133.163 286.129 132.829C286.129 132.495 286.075 132.188 285.967 131.908C285.86 131.617 285.709 131.364 285.515 131.148C285.321 130.933 285.084 130.766 284.804 130.647C284.524 130.518 284.216 130.453 283.882 130.453C283.548 130.453 283.247 130.518 282.977 130.647C282.708 130.766 282.476 130.933 282.282 131.148C282.089 131.364 281.938 131.617 281.83 131.908C281.722 132.188 281.668 132.495 281.668 132.829ZM298.671 120.223C298.671 120.643 298.784 121.069 299.01 121.5C299.247 121.931 299.522 122.356 299.834 122.777C300.47 122.4 300.998 121.974 301.418 121.5C301.838 121.026 302.048 120.557 302.048 120.094C302.048 119.566 301.881 119.156 301.547 118.865C301.213 118.575 300.836 118.429 300.416 118.429C299.91 118.429 299.489 118.601 299.155 118.946C298.832 119.291 298.671 119.717 298.671 120.223ZM298.137 127.997C297.588 128.331 297.108 128.8 296.699 129.403C296.289 129.996 296.085 130.631 296.085 131.31C296.085 131.752 296.165 132.156 296.327 132.522C296.499 132.889 296.726 133.201 297.006 133.46C297.297 133.707 297.636 133.901 298.024 134.041C298.412 134.181 298.816 134.252 299.236 134.252C299.915 134.252 300.491 134.138 300.966 133.912C301.44 133.675 301.801 133.427 302.048 133.169L298.137 127.997ZM291.188 131.439C291.188 130.911 291.258 130.357 291.398 129.775C291.549 129.193 291.796 128.606 292.141 128.013C292.497 127.41 292.982 126.822 293.596 126.251C294.221 125.68 294.996 125.136 295.923 124.619C295.33 123.789 294.894 123.03 294.614 122.34C294.334 121.64 294.194 120.923 294.194 120.191C294.194 119.415 294.35 118.688 294.662 118.009C294.975 117.319 295.4 116.721 295.939 116.215C296.478 115.709 297.135 115.315 297.911 115.035C298.687 114.744 299.538 114.599 300.465 114.599C301.316 114.599 302.108 114.739 302.84 115.019C303.573 115.288 304.203 115.665 304.731 116.15C305.259 116.635 305.669 117.212 305.96 117.88C306.261 118.537 306.412 119.253 306.412 120.029C306.412 121.171 306.089 122.222 305.442 123.181C304.807 124.14 303.697 125.05 302.113 125.912L304.99 129.629C305.173 129.295 305.372 128.783 305.588 128.094C305.803 127.394 305.981 126.558 306.121 125.589H310.986C310.943 126.268 310.819 126.989 310.614 127.754C310.42 128.519 310.183 129.258 309.903 129.969C309.634 130.669 309.327 131.321 308.982 131.924C308.637 132.528 308.308 133.007 307.996 133.363L308.271 133.637C308.529 133.896 308.804 134.068 309.095 134.155C309.386 134.241 309.72 134.284 310.097 134.284C310.269 134.284 310.426 134.278 310.566 134.268C310.716 134.257 310.846 134.241 310.954 134.219C311.061 134.198 311.169 134.176 311.277 134.155L311.341 138.13C310.921 138.195 310.479 138.26 310.016 138.324C309.553 138.389 309.138 138.421 308.772 138.421C307.996 138.421 307.333 138.324 306.784 138.13C306.234 137.936 305.728 137.586 305.265 137.08L304.667 136.417C303.934 137.053 303.083 137.549 302.113 137.904C301.143 138.249 300.028 138.421 298.768 138.421C297.819 138.421 296.893 138.26 295.988 137.936C295.083 137.602 294.269 137.134 293.547 136.53C292.836 135.916 292.265 135.184 291.834 134.332C291.403 133.47 291.188 132.506 291.188 131.439ZM326.841 118.009L328.101 121.92L323.301 122.777L327.212 126.575L323.673 129.064L320.683 124.619L317.774 129.064L314.234 126.575L318.178 122.777L313.345 121.92L314.622 118.009L319.002 119.932L318.501 114.922H322.946L322.477 119.932L326.841 118.009ZM334.841 130.26V129.258C334.841 128.536 334.948 127.884 335.164 127.302C335.39 126.72 335.665 126.192 335.988 125.718C336.322 125.233 336.678 124.791 337.055 124.393C337.443 123.983 337.798 123.595 338.122 123.229C338.456 122.863 338.73 122.502 338.946 122.146C339.172 121.791 339.285 121.414 339.285 121.015C339.285 120.713 339.221 120.444 339.091 120.207C338.973 119.959 338.806 119.749 338.59 119.577C338.386 119.404 338.138 119.275 337.847 119.189C337.567 119.102 337.26 119.059 336.926 119.059C336.441 119.059 335.988 119.124 335.568 119.253C335.159 119.372 334.776 119.528 334.421 119.722C334.065 119.916 333.736 120.137 333.435 120.385C333.144 120.632 332.885 120.886 332.659 121.144L330.008 117.815C330.429 117.362 330.903 116.942 331.431 116.554C331.959 116.156 332.535 115.811 333.16 115.52C333.785 115.229 334.453 115.003 335.164 114.841C335.875 114.68 336.629 114.599 337.427 114.599C338.483 114.599 339.447 114.76 340.32 115.084C341.192 115.396 341.941 115.827 342.566 116.377C343.191 116.915 343.676 117.546 344.021 118.267C344.365 118.979 344.538 119.733 344.538 120.53C344.538 121.112 344.468 121.651 344.328 122.146C344.198 122.631 344.004 123.094 343.746 123.536C343.487 123.978 343.169 124.414 342.792 124.845C342.415 125.266 341.984 125.702 341.499 126.154C341.219 126.413 340.95 126.672 340.691 126.93C340.443 127.189 340.223 127.469 340.029 127.771C339.845 128.062 339.695 128.379 339.576 128.724C339.468 129.069 339.415 129.457 339.415 129.888V130.26H334.841ZM334.049 135.351C334.049 134.93 334.13 134.532 334.291 134.155C334.464 133.777 334.69 133.449 334.97 133.169C335.25 132.889 335.579 132.668 335.956 132.506C336.344 132.334 336.748 132.247 337.168 132.247C337.588 132.247 337.981 132.334 338.348 132.506C338.725 132.668 339.054 132.889 339.334 133.169C339.614 133.449 339.835 133.777 339.996 134.155C340.158 134.532 340.239 134.93 340.239 135.351C340.239 135.771 340.158 136.169 339.996 136.546C339.835 136.913 339.614 137.236 339.334 137.516C339.054 137.796 338.725 138.017 338.348 138.179C337.981 138.34 337.588 138.421 337.168 138.421C336.748 138.421 336.344 138.34 335.956 138.179C335.579 138.017 335.25 137.796 334.97 137.516C334.69 137.236 334.464 136.913 334.291 136.546C334.13 136.169 334.049 135.771 334.049 135.351ZM351.487 129.322C351.487 130.734 351.665 132.07 352.021 133.33C352.387 134.58 352.883 135.749 353.508 136.837C354.133 137.926 354.865 138.938 355.706 139.876C356.557 140.813 357.462 141.675 358.421 142.462L355.625 145.242L354.38 144.256C353.152 143.254 352.053 142.187 351.083 141.056C350.114 139.935 349.289 138.75 348.611 137.5C347.943 136.25 347.431 134.936 347.075 133.557C346.73 132.177 346.558 130.734 346.558 129.225C346.558 127.706 346.73 126.262 347.075 124.894C347.431 123.515 347.943 122.206 348.611 120.966C349.289 119.717 350.114 118.531 351.083 117.411C352.053 116.29 353.152 115.229 354.38 114.227L355.625 113.209L358.421 116.021C357.462 116.797 356.557 117.653 355.706 118.591C354.865 119.517 354.133 120.53 353.508 121.629C352.883 122.717 352.387 123.886 352.021 125.136C351.665 126.386 351.487 127.717 351.487 129.128V129.322ZM366.017 129.128C366.017 127.717 365.834 126.386 365.467 125.136C365.112 123.886 364.622 122.717 363.997 121.629C363.372 120.53 362.634 119.517 361.782 118.591C360.942 117.653 360.042 116.797 359.083 116.021L361.879 113.209L363.124 114.227C364.352 115.229 365.451 116.29 366.421 117.411C367.391 118.531 368.209 119.717 368.877 120.966C369.556 122.206 370.068 123.515 370.413 124.894C370.768 126.262 370.946 127.706 370.946 129.225C370.946 130.734 370.768 132.177 370.413 133.557C370.068 134.936 369.556 136.25 368.877 137.5C368.209 138.75 367.391 139.935 366.421 141.056C365.451 142.187 364.352 143.254 363.124 144.256L361.879 145.242L359.083 142.462C360.042 141.675 360.942 140.813 361.782 139.876C362.634 138.938 363.372 137.926 363.997 136.837C364.622 135.749 365.112 134.58 365.467 133.33C365.834 132.07 366.017 130.734 366.017 129.322V129.128ZM384.199 114.599C384.705 114.599 385.158 114.696 385.557 114.89C385.966 115.084 386.311 115.348 386.591 115.682C386.882 116.016 387.103 116.409 387.254 116.861C387.415 117.303 387.496 117.783 387.496 118.3C387.496 118.882 387.404 119.485 387.221 120.11C387.049 120.724 386.747 121.3 386.316 121.839C385.896 122.367 385.336 122.825 384.635 123.213C383.946 123.601 383.084 123.854 382.049 123.973L381.484 122.276L381.936 122.146C382.497 121.985 382.954 121.802 383.31 121.597C383.676 121.392 383.967 121.177 384.183 120.95C384.398 120.724 384.554 120.503 384.651 120.288C384.759 120.061 384.829 119.851 384.862 119.657C384.743 119.765 384.592 119.846 384.409 119.9C384.226 119.943 384.032 119.964 383.827 119.964C383.482 119.964 383.154 119.911 382.841 119.803C382.54 119.684 382.27 119.517 382.033 119.302C381.807 119.086 381.624 118.817 381.484 118.494C381.344 118.17 381.274 117.799 381.274 117.379C381.274 116.991 381.349 116.63 381.5 116.296C381.662 115.951 381.877 115.655 382.146 115.407C382.416 115.159 382.728 114.965 383.084 114.825C383.439 114.674 383.811 114.599 384.199 114.599ZM376.554 114.599C377.061 114.599 377.513 114.696 377.912 114.89C378.321 115.084 378.666 115.348 378.946 115.682C379.237 116.016 379.458 116.409 379.609 116.861C379.771 117.303 379.851 117.783 379.851 118.3C379.851 118.882 379.76 119.485 379.577 120.11C379.404 120.724 379.103 121.3 378.672 121.839C378.251 122.367 377.691 122.825 376.991 123.213C376.301 123.601 375.439 123.854 374.405 123.973L373.839 122.276L374.292 122.146C374.852 121.985 375.31 121.802 375.665 121.597C376.032 121.392 376.323 121.177 376.538 120.95C376.754 120.724 376.91 120.503 377.007 120.288C377.115 120.061 377.185 119.851 377.217 119.657C377.098 119.765 376.948 119.846 376.764 119.9C376.581 119.943 376.387 119.964 376.183 119.964C375.838 119.964 375.509 119.911 375.197 119.803C374.895 119.684 374.626 119.517 374.389 119.302C374.162 119.086 373.979 118.817 373.839 118.494C373.699 118.17 373.629 117.799 373.629 117.379C373.629 116.991 373.705 116.63 373.855 116.296C374.017 115.951 374.232 115.655 374.502 115.407C374.771 115.159 375.084 114.965 375.439 114.825C375.795 114.674 376.166 114.599 376.554 114.599ZM390.938 135.318C390.938 134.909 391.019 134.521 391.181 134.155C391.353 133.777 391.579 133.449 391.86 133.169C392.14 132.889 392.468 132.668 392.846 132.506C393.223 132.334 393.621 132.247 394.041 132.247C394.462 132.247 394.86 132.334 395.237 132.506C395.625 132.668 395.959 132.889 396.239 133.169C396.52 133.449 396.741 133.777 396.902 134.155C397.075 134.521 397.161 134.909 397.161 135.318C397.161 135.749 397.075 136.153 396.902 136.53C396.741 136.907 396.52 137.236 396.239 137.516C395.959 137.796 395.625 138.017 395.237 138.179C394.86 138.34 394.462 138.421 394.041 138.421C393.621 138.421 393.223 138.34 392.846 138.179C392.468 138.017 392.14 137.796 391.86 137.516C391.579 137.236 391.353 136.907 391.181 136.53C391.019 136.153 390.938 135.749 390.938 135.318ZM390.938 123.892C390.938 123.461 391.019 123.057 391.181 122.68C391.353 122.303 391.579 121.974 391.86 121.694C392.14 121.414 392.468 121.193 392.846 121.031C393.223 120.87 393.621 120.789 394.041 120.789C394.462 120.789 394.86 120.87 395.237 121.031C395.625 121.193 395.959 121.414 396.239 121.694C396.52 121.974 396.741 122.303 396.902 122.68C397.075 123.057 397.161 123.461 397.161 123.892C397.161 124.312 397.075 124.711 396.902 125.088C396.741 125.465 396.52 125.799 396.239 126.09C395.959 126.37 395.625 126.596 395.237 126.769C394.86 126.93 394.462 127.011 394.041 127.011C393.621 127.011 393.223 126.93 392.846 126.769C392.468 126.596 392.14 126.37 391.86 126.09C391.579 125.799 391.353 125.465 391.181 125.088C391.019 124.711 390.938 124.312 390.938 123.892ZM401.185 123.892C401.185 123.461 401.266 123.057 401.427 122.68C401.6 122.303 401.826 121.974 402.106 121.694C402.386 121.414 402.715 121.193 403.092 121.031C403.469 120.87 403.868 120.789 404.288 120.789C404.708 120.789 405.102 120.87 405.468 121.031C405.845 121.193 406.174 121.414 406.454 121.694C406.734 121.974 406.955 122.303 407.116 122.68C407.289 123.057 407.375 123.461 407.375 123.892C407.375 124.312 407.289 124.711 407.116 125.088C406.955 125.465 406.734 125.799 406.454 126.09C406.174 126.37 405.845 126.596 405.468 126.769C405.102 126.93 404.708 127.011 404.288 127.011C403.868 127.011 403.469 126.93 403.092 126.769C402.715 126.596 402.386 126.37 402.106 126.09C401.826 125.799 401.6 125.465 401.427 125.088C401.266 124.711 401.185 124.312 401.185 123.892ZM404.272 132.603C404.778 132.603 405.231 132.7 405.629 132.894C406.039 133.088 406.384 133.352 406.664 133.686C406.955 134.02 407.176 134.413 407.326 134.866C407.488 135.307 407.569 135.787 407.569 136.304C407.569 136.886 407.477 137.484 407.294 138.098C407.122 138.723 406.82 139.299 406.389 139.827C405.969 140.366 405.409 140.829 404.708 141.217C404.019 141.605 403.157 141.858 402.122 141.977L401.557 140.28L402.009 140.151C402.57 139.989 403.027 139.806 403.383 139.601C403.749 139.396 404.04 139.181 404.256 138.955C404.471 138.728 404.627 138.502 404.724 138.276C404.832 138.06 404.902 137.856 404.935 137.662C404.816 137.769 404.665 137.85 404.482 137.904C404.299 137.947 404.105 137.969 403.9 137.969C403.555 137.969 403.227 137.915 402.914 137.807C402.613 137.689 402.343 137.522 402.106 137.306C401.88 137.091 401.697 136.821 401.557 136.498C401.417 136.175 401.347 135.803 401.347 135.383C401.347 134.995 401.422 134.634 401.573 134.3C401.734 133.955 401.95 133.659 402.219 133.411C402.489 133.163 402.801 132.969 403.157 132.829C403.512 132.678 403.884 132.603 404.272 132.603ZM414.179 132.571C414.686 132.571 415.138 132.668 415.537 132.862C415.946 133.056 416.291 133.32 416.571 133.654C416.862 133.988 417.083 134.381 417.234 134.833C417.395 135.275 417.476 135.755 417.476 136.272C417.476 136.854 417.385 137.457 417.201 138.082C417.029 138.696 416.727 139.267 416.296 139.795C415.876 140.334 415.316 140.797 414.615 141.185C413.926 141.573 413.064 141.826 412.03 141.945L411.464 140.248L411.916 140.118C412.477 139.957 412.935 139.773 413.29 139.569C413.657 139.364 413.947 139.149 414.163 138.922C414.378 138.696 414.535 138.47 414.632 138.243C414.739 138.028 414.809 137.823 414.842 137.629C414.723 137.737 414.572 137.818 414.389 137.872C414.206 137.915 414.012 137.936 413.807 137.936C413.463 137.936 413.134 137.883 412.822 137.775C412.52 137.656 412.25 137.489 412.013 137.274C411.787 137.058 411.604 136.789 411.464 136.466C411.324 136.142 411.254 135.771 411.254 135.351C411.254 134.963 411.329 134.602 411.48 134.268C411.642 133.923 411.857 133.627 412.127 133.379C412.396 133.131 412.708 132.937 413.064 132.797C413.42 132.646 413.791 132.571 414.179 132.571ZM420.692 135.48C420.692 135.081 420.768 134.709 420.919 134.365C421.08 134.009 421.296 133.702 421.565 133.443C421.834 133.174 422.147 132.964 422.502 132.813C422.869 132.651 423.251 132.571 423.65 132.571C424.049 132.571 424.426 132.651 424.781 132.813C425.137 132.964 425.449 133.174 425.719 133.443C425.988 133.702 426.198 134.009 426.349 134.365C426.511 134.709 426.591 135.081 426.591 135.48C426.591 135.889 426.511 136.272 426.349 136.627C426.198 136.983 425.988 137.295 425.719 137.565C425.449 137.834 425.137 138.044 424.781 138.195C424.426 138.346 424.049 138.421 423.65 138.421C423.251 138.421 422.869 138.346 422.502 138.195C422.147 138.044 421.834 137.834 421.565 137.565C421.296 137.295 421.08 136.983 420.919 136.627C420.768 136.272 420.692 135.889 420.692 135.48Z" fill="#0B0C0C"/>
</svg>
