<svg width="582" height="149" viewBox="0 0 582 149" fill="none" xmlns="http://www.w3.org/2000/svg">
<path d="M5.77344 13.9609C6.17969 13.9609 6.53906 13.9089 6.85156 13.8047C7.16927 13.7005 7.44271 13.5625 7.67188 13.3906C7.90625 13.2188 8.10417 13.0208 8.26562 12.7969C8.42708 12.5729 8.55469 12.3411 8.64844 12.1016C8.7474 11.8568 8.81771 11.6146 8.85938 11.375C8.90625 11.1302 8.92969 10.9036 8.92969 10.6953V10.2344H5.78906V9.07812H10.1562V15H8.91406V13.4922C8.72135 13.7995 8.5026 14.0599 8.25781 14.2734C8.01302 14.487 7.7526 14.6589 7.47656 14.7891C7.20052 14.9193 6.90885 15.013 6.60156 15.0703C6.29948 15.1276 5.99219 15.1562 5.67969 15.1562C4.91406 15.1562 4.23438 15.0078 3.64062 14.7109C3.04688 14.4141 2.54427 14.0078 2.13281 13.4922C1.72656 12.9766 1.41667 12.3698 1.20312 11.6719C0.989583 10.974 0.882812 10.2214 0.882812 9.41406C0.882812 8.61198 1 7.86198 1.23438 7.16406C1.46875 6.46094 1.80208 5.85156 2.23438 5.33594C2.66667 4.8151 3.1875 4.40625 3.79688 4.10938C4.41146 3.80729 5.09896 3.65625 5.85938 3.65625C6.32812 3.65625 6.77083 3.71354 7.1875 3.82812C7.60938 3.9375 7.9974 4.09635 8.35156 4.30469C8.70573 4.50781 9.02344 4.7526 9.30469 5.03906C9.58594 5.32031 9.82292 5.63281 10.0156 5.97656L8.85156 6.58594C8.71615 6.32552 8.55469 6.09115 8.36719 5.88281C8.17969 5.66927 7.96354 5.48698 7.71875 5.33594C7.47396 5.1849 7.19792 5.06771 6.89062 4.98438C6.58854 4.90104 6.25521 4.85938 5.89062 4.85938C5.30729 4.85938 4.79427 4.98438 4.35156 5.23438C3.90885 5.47917 3.53646 5.80729 3.23438 6.21875C2.9375 6.63021 2.71354 7.10677 2.5625 7.64844C2.41146 8.1849 2.33594 8.74219 2.33594 9.32031V9.51562C2.33594 10.0938 2.40365 10.651 2.53906 11.1875C2.67969 11.724 2.89062 12.1979 3.17188 12.6094C3.45833 13.0156 3.81771 13.3438 4.25 13.5938C4.68229 13.8385 5.1901 13.9609 5.77344 13.9609ZM21.5234 9.39844C21.5234 10.237 21.4193 11.0026 21.2109 11.6953C21.0026 12.3828 20.6849 12.9714 20.2578 13.4609C19.8307 13.9505 19.2943 14.3307 18.6484 14.6016C18.0078 14.8672 17.2526 15 16.3828 15H12.7891V3.79688H16.3828C17.2526 3.79688 18.0078 3.93229 18.6484 4.20312C19.2943 4.46875 19.8307 4.84635 20.2578 5.33594C20.6849 5.82552 21.0026 6.41667 21.2109 7.10938C21.4193 7.79688 21.5234 8.5599 21.5234 9.39844ZM20.0469 9.17969C20.0469 8.59635 19.974 8.04948 19.8281 7.53906C19.6823 7.02865 19.4583 6.58594 19.1562 6.21094C18.8594 5.83073 18.4766 5.53125 18.0078 5.3125C17.5443 5.09375 16.9922 4.98438 16.3516 4.98438H14.1641V13.8125H16.3516C16.9922 13.8125 17.5443 13.7057 18.0078 13.4922C18.4766 13.2734 18.8594 12.9766 19.1562 12.6016C19.4583 12.2214 19.6823 11.776 19.8281 11.2656C19.974 10.7552 20.0469 10.2083 20.0469 9.625V9.17969ZM23.9609 12.4062C24.4505 12.9531 24.9766 13.349 25.5391 13.5938C26.1068 13.8385 26.7005 13.9609 27.3203 13.9609C27.7474 13.9609 28.1276 13.9089 28.4609 13.8047C28.7995 13.6953 29.0833 13.5469 29.3125 13.3594C29.5417 13.1719 29.7135 12.9583 29.8281 12.7188C29.9479 12.4792 30.0078 12.2266 30.0078 11.9609C30.0078 11.5859 29.9297 11.2839 29.7734 11.0547C29.6172 10.8255 29.4115 10.6406 29.1562 10.5C28.901 10.3542 28.6042 10.2422 28.2656 10.1641C27.9323 10.0807 27.5833 10.0026 27.2188 9.92969L27.0625 9.89844C26.8177 9.85156 26.5625 9.80208 26.2969 9.75C26.0365 9.69792 25.7786 9.63021 25.5234 9.54688C25.2682 9.45833 25.0208 9.35417 24.7812 9.23438C24.5417 9.10938 24.3307 8.95573 24.1484 8.77344C23.9036 8.54948 23.7005 8.27604 23.5391 7.95312C23.3828 7.625 23.3047 7.22135 23.3047 6.74219C23.3047 6.40365 23.3776 6.05208 23.5234 5.6875C23.6745 5.32292 23.9115 4.98958 24.2344 4.6875C24.5625 4.38542 24.9792 4.13802 25.4844 3.94531C25.9896 3.7526 26.6016 3.65625 27.3203 3.65625C28.1172 3.65625 28.8516 3.79948 29.5234 4.08594C29.7995 4.20573 30.0625 4.34896 30.3125 4.51562C30.5677 4.67708 30.8177 4.88021 31.0625 5.125L30.0234 5.97656C29.638 5.59115 29.1979 5.3099 28.7031 5.13281C28.2083 4.95052 27.7031 4.85938 27.1875 4.85938C26.8177 4.85938 26.4792 4.90365 26.1719 4.99219C25.8698 5.08073 25.6094 5.20833 25.3906 5.375C25.1719 5.54167 25.0026 5.73438 24.8828 5.95312C24.7682 6.17188 24.7109 6.40885 24.7109 6.66406C24.7109 7.01823 24.7865 7.30469 24.9375 7.52344C25.0938 7.74219 25.2969 7.91927 25.5469 8.05469C25.7969 8.1849 26.0781 8.28646 26.3906 8.35938C26.7083 8.43229 27.0286 8.5026 27.3516 8.57031L27.4297 8.58594C27.9505 8.6901 28.4531 8.8125 28.9375 8.95312C29.4271 9.08854 29.8516 9.27865 30.2109 9.52344C30.5755 9.76302 30.8672 10.0677 31.0859 10.4375C31.3047 10.8021 31.4141 11.2734 31.4141 11.8516C31.4141 12.263 31.3281 12.6693 31.1562 13.0703C30.9844 13.4714 30.7266 13.8281 30.3828 14.1406C30.0443 14.4479 29.6172 14.6953 29.1016 14.8828C28.5859 15.0651 27.9792 15.1562 27.2812 15.1562C26.7396 15.1562 26.2396 15.099 25.7812 14.9844C25.3229 14.8646 24.901 14.7109 24.5156 14.5234C24.2292 14.3724 23.9505 14.1979 23.6797 14C23.4141 13.8021 23.1484 13.5651 22.8828 13.2891L23.9609 12.4062ZM35.1797 3.79688H42.8594V5.03125H39.7109V15H38.3281V5.03125H35.1797V3.79688ZM47.2656 8.1875H47.0547C46.7161 8.1875 46.3932 8.22656 46.0859 8.30469C45.7786 8.38281 45.5078 8.52344 45.2734 8.72656C45.0391 8.92969 44.8516 9.20833 44.7109 9.5625C44.5703 9.91146 44.5 10.3594 44.5 10.9062V15H43.1875V7.01562H44.5V8.28125C44.599 8.04688 44.7318 7.84115 44.8984 7.66406C45.0651 7.48698 45.2526 7.34115 45.4609 7.22656C45.6745 7.10677 45.901 7.01823 46.1406 6.96094C46.3854 6.90365 46.6328 6.875 46.8828 6.875H47.2656V8.1875ZM53.3516 14.2031C53.1172 14.474 52.7995 14.7005 52.3984 14.8828C52.0026 15.0651 51.5365 15.1562 51 15.1562C50.6042 15.1562 50.237 15.1016 49.8984 14.9922C49.5599 14.8776 49.2656 14.7161 49.0156 14.5078C48.7656 14.2995 48.5703 14.0469 48.4297 13.75C48.2891 13.4531 48.2188 13.1172 48.2188 12.7422C48.2188 12.4297 48.2682 12.1458 48.3672 11.8906C48.4714 11.6302 48.6146 11.4036 48.7969 11.2109C48.9844 11.0182 49.2083 10.862 49.4688 10.7422C49.7292 10.6172 50.0208 10.5312 50.3438 10.4844L53.1641 10.1016V9.59375C53.1641 9.29167 53.1172 9.03906 53.0234 8.83594C52.9297 8.6276 52.8021 8.46354 52.6406 8.34375C52.4844 8.22396 52.2969 8.13802 52.0781 8.08594C51.8646 8.03385 51.6328 8.00781 51.3828 8.00781C50.9349 8.00781 50.5156 8.07031 50.125 8.19531C49.7396 8.32031 49.3906 8.46615 49.0781 8.63281L48.5859 7.59375C49.0443 7.33333 49.5234 7.14583 50.0234 7.03125C50.5286 6.91667 51.026 6.85938 51.5156 6.85938C52.4896 6.85938 53.2266 7.08073 53.7266 7.52344C54.2266 7.96094 54.4766 8.60156 54.4766 9.44531V13.125C54.4766 13.3906 54.5286 13.6146 54.6328 13.7969C54.737 13.974 54.9036 14.1146 55.1328 14.2188L54.3906 15.1562C54.1406 15.0938 53.9245 14.9844 53.7422 14.8281C53.5651 14.6667 53.4401 14.474 53.3672 14.25L53.3516 14.2031ZM51.0156 11.4453C50.7969 11.4766 50.5964 11.5208 50.4141 11.5781C50.237 11.6354 50.0859 11.7135 49.9609 11.8125C49.8359 11.9062 49.737 12.0234 49.6641 12.1641C49.5964 12.3047 49.5625 12.4766 49.5625 12.6797C49.5625 12.9141 49.6068 13.1224 49.6953 13.3047C49.7839 13.487 49.9036 13.6406 50.0547 13.7656C50.2057 13.8906 50.3802 13.987 50.5781 14.0547C50.7812 14.1172 50.9922 14.1484 51.2109 14.1484C51.4557 14.1484 51.6953 14.1146 51.9297 14.0469C52.1641 13.9792 52.3724 13.8828 52.5547 13.7578C52.737 13.6276 52.8828 13.4714 52.9922 13.2891C53.1068 13.1068 53.1641 12.8984 53.1641 12.6641V11.125L51.0156 11.4453ZM56.8594 7.01562H58.1719V7.92969C58.4427 7.5599 58.776 7.28906 59.1719 7.11719C59.5729 6.94531 60.0182 6.85938 60.5078 6.85938C60.9505 6.85938 61.3385 6.93229 61.6719 7.07812C62.0052 7.22396 62.2839 7.42188 62.5078 7.67188C62.7318 7.92188 62.8984 8.21094 63.0078 8.53906C63.1224 8.86719 63.1797 9.21354 63.1797 9.57812V15H61.8672V9.99219C61.8672 9.64323 61.8229 9.34635 61.7344 9.10156C61.651 8.85156 61.5339 8.65104 61.3828 8.5C61.237 8.34375 61.0625 8.23177 60.8594 8.16406C60.6615 8.09115 60.4479 8.05469 60.2188 8.05469C59.9688 8.05469 59.7214 8.10156 59.4766 8.19531C59.237 8.28385 59.0182 8.41927 58.8203 8.60156C58.6276 8.78385 58.4714 9.01302 58.3516 9.28906C58.2318 9.5651 58.1719 9.89062 58.1719 10.2656V15H56.8594V7.01562ZM70.8594 12.7891C70.8594 13.1641 70.776 13.5 70.6094 13.7969C70.4479 14.0885 70.2318 14.3359 69.9609 14.5391C69.6901 14.7422 69.3776 14.8958 69.0234 15C68.6745 15.1042 68.3151 15.1562 67.9453 15.1562C67.362 15.1562 66.7995 15.0573 66.2578 14.8594C65.7214 14.6562 65.2448 14.3672 64.8281 13.9922L65.5469 13.0625C65.6719 13.1719 65.8151 13.2865 65.9766 13.4062C66.1432 13.526 66.3281 13.638 66.5312 13.7422C66.7344 13.8411 66.9531 13.9245 67.1875 13.9922C67.4219 14.0547 67.6693 14.0859 67.9297 14.0859C68.1432 14.0859 68.3464 14.0599 68.5391 14.0078C68.737 13.9505 68.9089 13.8698 69.0547 13.7656C69.2005 13.6562 69.3151 13.5286 69.3984 13.3828C69.487 13.2318 69.5312 13.0625 69.5312 12.875C69.5312 12.6667 69.4844 12.4922 69.3906 12.3516C69.3021 12.2109 69.1797 12.0911 69.0234 11.9922C68.8672 11.8932 68.6849 11.8073 68.4766 11.7344C68.2682 11.6615 68.0495 11.5885 67.8203 11.5156L67.3203 11.3516C67.0391 11.2578 66.7682 11.151 66.5078 11.0312C66.2474 10.9115 66.0156 10.7656 65.8125 10.5938C65.6146 10.4167 65.4557 10.2083 65.3359 9.96875C65.2214 9.72917 65.1641 9.44271 65.1641 9.10938C65.1641 8.83854 65.2214 8.57031 65.3359 8.30469C65.4505 8.03385 65.625 7.79167 65.8594 7.57812C66.099 7.36458 66.401 7.19271 66.7656 7.0625C67.1302 6.92708 67.5599 6.85938 68.0547 6.85938C68.6016 6.85938 69.1068 6.95052 69.5703 7.13281C70.0391 7.3151 70.4349 7.54167 70.7578 7.8125L70.0703 8.75781C69.9557 8.64844 69.8203 8.54427 69.6641 8.44531C69.5078 8.34635 69.3411 8.26042 69.1641 8.1875C68.987 8.10938 68.8021 8.04688 68.6094 8C68.4167 7.95312 68.2266 7.92969 68.0391 7.92969C67.7526 7.92969 67.5104 7.96354 67.3125 8.03125C67.1146 8.09375 66.9557 8.17708 66.8359 8.28125C66.7161 8.38542 66.6276 8.5026 66.5703 8.63281C66.5182 8.76302 66.4922 8.89062 66.4922 9.01562C66.4922 9.19792 66.5312 9.35156 66.6094 9.47656C66.6875 9.59635 66.7891 9.70052 66.9141 9.78906C67.0443 9.8776 67.1901 9.95312 67.3516 10.0156C67.5182 10.0781 67.6901 10.1406 67.8672 10.2031L68.5234 10.4219C68.8359 10.526 69.1224 10.638 69.3828 10.7578C69.6432 10.8724 69.8724 11.0052 70.0703 11.1562C70.3203 11.3542 70.513 11.5833 70.6484 11.8438C70.7891 12.1042 70.8594 12.4193 70.8594 12.7891ZM74.1875 7.01562V7.92969C74.4219 7.60156 74.7396 7.34115 75.1406 7.14844C75.5417 6.95573 76.0026 6.85938 76.5234 6.85938C77.0391 6.85938 77.5052 6.96354 77.9219 7.17188C78.3385 7.375 78.6953 7.66146 78.9922 8.03125C79.2891 8.40104 79.5156 8.84115 79.6719 9.35156C79.8333 9.85677 79.9141 10.4115 79.9141 11.0156C79.9141 11.6198 79.8333 12.1745 79.6719 12.6797C79.5156 13.1849 79.2891 13.6224 78.9922 13.9922C78.6953 14.3568 78.3385 14.6432 77.9219 14.8516C77.5052 15.0547 77.0391 15.1562 76.5234 15.1562C76.0026 15.1562 75.5417 15.0599 75.1406 14.8672C74.7396 14.6745 74.4219 14.4141 74.1875 14.0859V17.4297H72.875V7.01562H74.1875ZM78.5547 10.9688C78.5547 10.5521 78.5052 10.1641 78.4062 9.80469C78.3073 9.44531 78.1615 9.13542 77.9688 8.875C77.776 8.60938 77.5365 8.40104 77.25 8.25C76.9688 8.09896 76.6458 8.02344 76.2812 8.02344C75.9323 8.02344 75.625 8.08333 75.3594 8.20312C75.099 8.32292 74.8802 8.48698 74.7031 8.69531C74.526 8.90365 74.3906 9.15104 74.2969 9.4375C74.2083 9.71875 74.1641 10.026 74.1641 10.3594V11.6562C74.1641 11.9896 74.2083 12.2995 74.2969 12.5859C74.3906 12.8672 74.526 13.112 74.7031 13.3203C74.8802 13.5286 75.099 13.6927 75.3594 13.8125C75.625 13.9323 75.9323 13.9922 76.2812 13.9922C76.6458 13.9922 76.9688 13.9167 77.25 13.7656C77.5365 13.6146 77.776 13.4089 77.9688 13.1484C78.1615 12.8828 78.3073 12.5703 78.4062 12.2109C78.5052 11.8516 78.5547 11.4635 78.5547 11.0469V10.9688ZM85.0547 6.85938C85.6068 6.85938 86.1094 6.96354 86.5625 7.17188C87.0156 7.375 87.401 7.66146 87.7188 8.03125C88.0417 8.39583 88.2917 8.83333 88.4688 9.34375C88.6458 9.84896 88.7344 10.4062 88.7344 11.0156C88.7344 11.6146 88.6458 12.1693 88.4688 12.6797C88.2917 13.1849 88.0417 13.6224 87.7188 13.9922C87.401 14.3568 87.0156 14.6432 86.5625 14.8516C86.1094 15.0547 85.6068 15.1562 85.0547 15.1562C84.5026 15.1562 84 15.0547 83.5469 14.8516C83.099 14.6432 82.7135 14.3568 82.3906 13.9922C82.0677 13.6224 81.8177 13.1849 81.6406 12.6797C81.4635 12.1693 81.375 11.6146 81.375 11.0156C81.375 10.4062 81.4635 9.84896 81.6406 9.34375C81.8177 8.83333 82.0677 8.39583 82.3906 8.03125C82.7135 7.66146 83.099 7.375 83.5469 7.17188C84 6.96354 84.5026 6.85938 85.0547 6.85938ZM85.0547 14.0078C85.4349 14.0078 85.7682 13.9297 86.0547 13.7734C86.3464 13.612 86.5885 13.3958 86.7812 13.125C86.9792 12.8542 87.1276 12.5417 87.2266 12.1875C87.3255 11.8281 87.375 11.4531 87.375 11.0625V10.9688C87.375 10.5677 87.3255 10.1875 87.2266 9.82812C87.1276 9.46875 86.9792 9.15625 86.7812 8.89062C86.5885 8.61979 86.3464 8.40625 86.0547 8.25C85.7682 8.08854 85.4349 8.00781 85.0547 8.00781C84.6745 8.00781 84.3385 8.08854 84.0469 8.25C83.7604 8.40625 83.5182 8.61979 83.3203 8.89062C83.1276 9.15625 82.9818 9.46875 82.8828 9.82812C82.7839 10.1875 82.7344 10.5677 82.7344 10.9688V11.0625C82.7344 11.4531 82.7839 11.8281 82.8828 12.1875C82.9818 12.5417 83.1276 12.8542 83.3203 13.125C83.5182 13.3958 83.7604 13.612 84.0469 13.7734C84.3385 13.9297 84.6745 14.0078 85.0547 14.0078ZM94.7344 8.1875H94.5234C94.1849 8.1875 93.862 8.22656 93.5547 8.30469C93.2474 8.38281 92.9766 8.52344 92.7422 8.72656C92.5078 8.92969 92.3203 9.20833 92.1797 9.5625C92.0391 9.91146 91.9688 10.3594 91.9688 10.9062V15H90.6562V7.01562H91.9688V8.28125C92.0677 8.04688 92.2005 7.84115 92.3672 7.66406C92.5339 7.48698 92.7214 7.34115 92.9297 7.22656C93.1432 7.10677 93.3698 7.01823 93.6094 6.96094C93.8542 6.90365 94.1016 6.875 94.3516 6.875H94.7344V8.1875ZM98.3438 13.0156C98.3438 13.151 98.3516 13.2786 98.3672 13.3984C98.388 13.513 98.4323 13.6146 98.5 13.7031C98.5729 13.7917 98.6771 13.862 98.8125 13.9141C98.9479 13.9661 99.1328 13.9922 99.3672 13.9922C99.4297 13.9922 99.5026 13.9896 99.5859 13.9844C99.6745 13.9792 99.7656 13.974 99.8594 13.9688C99.9531 13.9583 100.044 13.9479 100.133 13.9375C100.221 13.9219 100.297 13.9089 100.359 13.8984L100.5 15.0469C100.349 15.0677 100.193 15.0859 100.031 15.1016C99.8958 15.1172 99.7448 15.1302 99.5781 15.1406C99.4115 15.151 99.2448 15.1562 99.0781 15.1562C98.7604 15.1562 98.474 15.1224 98.2188 15.0547C97.9688 14.9922 97.7552 14.888 97.5781 14.7422C97.401 14.5964 97.2656 14.4062 97.1719 14.1719C97.0781 13.9323 97.0312 13.6432 97.0312 13.3047V8.17188H95.5234V7.01562H97.0312V4.40625L98.3438 3.94531V7.01562H100.562V8.17188H98.3438V13.0156ZM105.727 3.79688H107.102V13.7656H111.578V15H105.727V3.79688ZM114.438 15H113.125V7.01562H114.438V15ZM112.883 4.71094C112.883 4.58594 112.906 4.46875 112.953 4.35938C113.005 4.25 113.07 4.15365 113.148 4.07031C113.232 3.98698 113.328 3.92188 113.438 3.875C113.552 3.82292 113.672 3.79688 113.797 3.79688C113.922 3.79688 114.039 3.82292 114.148 3.875C114.258 3.92188 114.352 3.98698 114.43 4.07031C114.513 4.15365 114.578 4.25 114.625 4.35938C114.677 4.46875 114.703 4.58594 114.703 4.71094C114.703 4.83594 114.677 4.95573 114.625 5.07031C114.578 5.17969 114.513 5.27604 114.43 5.35938C114.352 5.4375 114.258 5.5026 114.148 5.55469C114.039 5.60156 113.922 5.625 113.797 5.625C113.672 5.625 113.552 5.60156 113.438 5.55469C113.328 5.5026 113.232 5.4375 113.148 5.35938C113.07 5.27604 113.005 5.17969 112.953 5.07031C112.906 4.95573 112.883 4.83594 112.883 4.71094ZM116.391 10.5703C116.391 10.0443 116.466 9.55469 116.617 9.10156C116.768 8.64844 116.984 8.25781 117.266 7.92969C117.547 7.59635 117.885 7.33594 118.281 7.14844C118.682 6.95573 119.13 6.85938 119.625 6.85938C120.062 6.85938 120.479 6.94531 120.875 7.11719C121.271 7.28385 121.607 7.55469 121.883 7.92969V7.01562H123.195V15C123.195 15.4948 123.094 15.9089 122.891 16.2422C122.693 16.5807 122.432 16.8516 122.109 17.0547C121.786 17.2578 121.419 17.4036 121.008 17.4922C120.602 17.5807 120.188 17.625 119.766 17.625C119.531 17.625 119.286 17.612 119.031 17.5859C118.781 17.5599 118.529 17.5208 118.273 17.4688C118.018 17.4167 117.766 17.349 117.516 17.2656C117.271 17.1875 117.036 17.0938 116.812 16.9844L117.289 15.8828C117.445 15.9557 117.609 16.026 117.781 16.0938C117.953 16.1667 118.138 16.2318 118.336 16.2891C118.539 16.3464 118.755 16.3932 118.984 16.4297C119.214 16.4661 119.464 16.4844 119.734 16.4844C120.068 16.4844 120.367 16.4505 120.633 16.3828C120.904 16.3151 121.13 16.2083 121.312 16.0625C121.495 15.9219 121.635 15.7396 121.734 15.5156C121.833 15.2969 121.883 15.0339 121.883 14.7266V13.2109C121.607 13.5859 121.271 13.8594 120.875 14.0312C120.479 14.1979 120.062 14.2812 119.625 14.2812C119.13 14.2812 118.682 14.1875 118.281 14C117.885 13.8073 117.547 13.5443 117.266 13.2109C116.984 12.8776 116.768 12.487 116.617 12.0391C116.466 11.5859 116.391 11.0964 116.391 10.5703ZM121.914 10.5391C121.914 10.1797 121.875 9.84896 121.797 9.54688C121.719 9.23958 121.596 8.97396 121.43 8.75C121.263 8.52083 121.049 8.34375 120.789 8.21875C120.534 8.08854 120.227 8.02344 119.867 8.02344C119.503 8.02344 119.188 8.08854 118.922 8.21875C118.656 8.34896 118.435 8.52865 118.258 8.75781C118.086 8.98177 117.958 9.2474 117.875 9.55469C117.792 9.86198 117.75 10.1901 117.75 10.5391V10.6016C117.75 10.9505 117.792 11.2786 117.875 11.5859C117.958 11.888 118.086 12.1536 118.258 12.3828C118.435 12.6068 118.656 12.7839 118.922 12.9141C119.188 13.0443 119.503 13.1094 119.867 13.1094C120.227 13.1094 120.534 13.0469 120.789 12.9219C121.049 12.7917 121.263 12.6146 121.43 12.3906C121.596 12.1667 121.719 11.901 121.797 11.5938C121.875 11.2865 121.914 10.9557 121.914 10.6016V10.5391ZM125.594 3.79688H126.906V7.92969C127.177 7.5599 127.51 7.28906 127.906 7.11719C128.307 6.94531 128.753 6.85938 129.242 6.85938C129.685 6.85938 130.073 6.93229 130.406 7.07812C130.74 7.22396 131.018 7.42188 131.242 7.67188C131.466 7.92188 131.633 8.21094 131.742 8.53906C131.857 8.86719 131.914 9.21354 131.914 9.57812V15H130.602V9.99219C130.602 9.64323 130.557 9.34635 130.469 9.10156C130.385 8.85156 130.268 8.65104 130.117 8.5C129.971 8.34375 129.797 8.23177 129.594 8.16406C129.396 8.09115 129.182 8.05469 128.953 8.05469C128.703 8.05469 128.456 8.10156 128.211 8.19531C127.966 8.28385 127.747 8.41927 127.555 8.60156C127.362 8.78385 127.206 9.01302 127.086 9.28906C126.966 9.5651 126.906 9.89062 126.906 10.2656V15H125.594V3.79688ZM136.312 13.0156C136.312 13.151 136.32 13.2786 136.336 13.3984C136.357 13.513 136.401 13.6146 136.469 13.7031C136.542 13.7917 136.646 13.862 136.781 13.9141C136.917 13.9661 137.102 13.9922 137.336 13.9922C137.398 13.9922 137.471 13.9896 137.555 13.9844C137.643 13.9792 137.734 13.974 137.828 13.9688C137.922 13.9583 138.013 13.9479 138.102 13.9375C138.19 13.9219 138.266 13.9089 138.328 13.8984L138.469 15.0469C138.318 15.0677 138.161 15.0859 138 15.1016C137.865 15.1172 137.714 15.1302 137.547 15.1406C137.38 15.151 137.214 15.1562 137.047 15.1562C136.729 15.1562 136.443 15.1224 136.188 15.0547C135.938 14.9922 135.724 14.888 135.547 14.7422C135.37 14.5964 135.234 14.4062 135.141 14.1719C135.047 13.9323 135 13.6432 135 13.3047V8.17188H133.492V7.01562H135V4.40625L136.312 3.94531V7.01562H138.531V8.17188H136.312V13.0156Z" fill="#0B0C0C"/>
<path d="M14.7557 51.4403H5.65664L4.04046 57H1.0182L8.21021 33.8239H12.3153L19.5558 57H16.4204L14.7557 51.4403ZM6.3516 49.0161H14.0608L10.3274 36.3775H10.0688L6.3516 49.0161ZM32.3075 55.3515C31.8226 55.9118 31.1654 56.3805 30.3357 56.7576C29.5169 57.1347 28.5526 57.3232 27.4428 57.3232C26.6239 57.3232 25.8643 57.2101 25.164 56.9838C24.4636 56.7468 23.8549 56.4128 23.3377 55.9818C22.8205 55.5508 22.4165 55.0283 22.1255 54.4141C21.8346 53.8 21.6892 53.105 21.6892 52.3292C21.6892 51.6828 21.7915 51.0955 21.9962 50.5676C22.2117 50.0289 22.508 49.5602 22.8851 49.1615C23.273 48.7629 23.7363 48.4396 24.2751 48.1918C24.8138 47.9332 25.4172 47.7554 26.0852 47.6585L31.9196 46.8665V45.816C31.9196 45.1911 31.8226 44.6685 31.6287 44.2483C31.4348 43.8173 31.1708 43.4779 30.8368 43.2301C30.5135 42.9823 30.1256 42.8045 29.6731 42.6968C29.2314 42.589 28.7519 42.5352 28.2347 42.5352C27.3081 42.5352 26.4407 42.6645 25.6327 42.923C24.8353 43.1816 24.1134 43.4833 23.467 43.8281L22.4488 41.6786C23.3969 41.1399 24.3882 40.752 25.4226 40.5149C26.4677 40.2779 27.4967 40.1594 28.5095 40.1594C30.5243 40.1594 32.0489 40.6173 33.0833 41.5331C34.1176 42.4382 34.6348 43.7635 34.6348 45.5089V53.1212C34.6348 53.6707 34.7425 54.134 34.958 54.5111C35.1735 54.8774 35.5183 55.1683 35.9924 55.3838L34.457 57.3232C33.9398 57.1939 33.4927 56.9677 33.1156 56.6444C32.7492 56.3104 32.4907 55.9118 32.3398 55.4485L32.3075 55.3515ZM27.4751 49.6464C27.0226 49.711 26.6078 49.8026 26.2306 49.9211C25.8643 50.0396 25.5518 50.2013 25.2933 50.406C25.0347 50.5999 24.83 50.8423 24.6791 51.1333C24.539 51.4242 24.469 51.7797 24.469 52.1999C24.469 52.6848 24.5606 53.1158 24.7438 53.4929C24.9269 53.87 25.1747 54.1878 25.4872 54.4464C25.7997 54.705 26.1606 54.9043 26.57 55.0444C26.9902 55.1737 27.4266 55.2384 27.8791 55.2384C28.3856 55.2384 28.8812 55.1683 29.366 55.0283C29.8509 54.8882 30.2819 54.6889 30.659 54.4303C31.0361 54.1609 31.3378 53.8377 31.564 53.4606C31.8011 53.0835 31.9196 52.6525 31.9196 52.1676V48.9837L27.4751 49.6464ZM55.6452 33.8239C56.561 33.8239 57.423 33.964 58.2311 34.2441C59.0391 34.5135 59.7449 34.9014 60.3483 35.4078C60.9516 35.9142 61.4257 36.5284 61.7705 37.2502C62.1261 37.9614 62.3038 38.7533 62.3038 39.626C62.3038 40.1971 62.2069 40.752 62.0129 41.2907C61.8298 41.8294 61.5766 42.3304 61.2533 42.7938C60.9301 43.2463 60.5476 43.6503 60.1058 44.0059C59.6641 44.3507 59.1846 44.62 58.6674 44.814C59.2493 44.9002 59.8365 45.0887 60.4291 45.3796C61.0324 45.6598 61.5712 46.0423 62.0452 46.5271C62.5193 47.0012 62.9072 47.5669 63.2089 48.2241C63.5106 48.8814 63.6614 49.6194 63.6614 50.4383C63.6614 51.5696 63.4459 52.5501 63.015 53.3798C62.5948 54.2094 62.0237 54.8936 61.3018 55.4323C60.5799 55.9603 59.7341 56.3535 58.7644 56.6121C57.8055 56.8707 56.7873 57 55.7098 57H46.8855V33.8239H55.6452ZM60.72 50.406C60.72 49.7056 60.5853 49.0969 60.3159 48.5797C60.0573 48.0517 59.6964 47.6208 59.2331 47.2867C58.7806 46.942 58.2418 46.6888 57.6169 46.5271C57.0028 46.3547 56.3455 46.2685 55.6452 46.2685H49.7299V54.6242H55.7421C56.4209 54.6242 57.062 54.5434 57.6654 54.3818C58.2688 54.2202 58.7967 53.9724 59.2493 53.6383C59.7018 53.2936 60.0573 52.8572 60.3159 52.3292C60.5853 51.7905 60.72 51.1494 60.72 50.406ZM59.427 40.0139C59.427 39.4967 59.3408 39.0119 59.1684 38.5594C59.0068 38.0961 58.7375 37.692 58.3604 37.3472C57.994 37.0024 57.5199 36.7277 56.9381 36.523C56.3563 36.3183 55.6506 36.2159 54.8209 36.2159H49.7299V43.9251H54.8209C55.6506 43.9251 56.3563 43.8227 56.9381 43.618C57.5199 43.4025 57.994 43.117 58.3604 42.7614C58.7375 42.4059 59.0068 41.9911 59.1684 41.517C59.3408 41.0429 59.427 40.5419 59.427 40.0139ZM70.3686 57H67.6534V33.8239H70.3686V42.3735C70.8534 41.6948 71.5107 41.156 72.3403 40.7574C73.17 40.3587 74.1235 40.1594 75.201 40.1594C76.2677 40.1594 77.232 40.3749 78.0939 40.8059C78.9559 41.2261 79.694 41.8187 80.3081 42.5837C80.9223 43.3486 81.391 44.2591 81.7142 45.315C82.0482 46.3601 82.2152 47.5076 82.2152 48.7575C82.2152 50.0073 82.0482 51.1548 81.7142 52.1999C81.391 53.2451 80.9223 54.1501 80.3081 54.9151C79.694 55.6693 78.9559 56.2619 78.0939 56.6929C77.232 57.1131 76.2677 57.3232 75.201 57.3232C74.1235 57.3232 73.17 57.1239 72.3403 56.7252C71.5107 56.3266 70.8534 55.7879 70.3686 55.1091V57ZM79.4031 48.6605C79.4031 47.7985 79.3007 46.9958 79.096 46.2524C78.8913 45.5089 78.5896 44.8679 78.1909 44.3291C77.7923 43.7796 77.2966 43.3486 76.704 43.0362C76.1222 42.7237 75.4542 42.5675 74.7 42.5675C73.9781 42.5675 73.3424 42.6914 72.7929 42.9392C72.2541 43.187 71.8016 43.5264 71.4353 43.9574C71.0689 44.3884 70.7888 44.9002 70.5949 45.4928C70.4117 46.0746 70.3201 46.7103 70.3201 47.3999V50.0827C70.3201 50.7723 70.4117 51.4134 70.5949 52.006C70.7888 52.5878 71.0689 53.0942 71.4353 53.5252C71.8016 53.9562 72.2541 54.2956 72.7929 54.5434C73.3424 54.7912 73.9781 54.9151 74.7 54.9151C75.4542 54.9151 76.1222 54.7589 76.704 54.4464C77.2966 54.134 77.7923 53.7084 78.1909 53.1696C78.5896 52.6201 78.8913 51.9737 79.096 51.2302C79.3007 50.4868 79.4031 49.6841 79.4031 48.8221V48.6605ZM92.2032 45.4443C92.2032 43.785 92.4349 42.2335 92.8982 40.7897C93.3615 39.3351 94.0295 38.0745 94.9022 37.0078C95.775 35.9304 96.8309 35.0846 98.07 34.4704C99.3198 33.8455 100.726 33.533 102.288 33.533C103.376 33.533 104.373 33.6785 105.278 33.9694C106.194 34.2495 107.013 34.6536 107.735 35.1815C108.457 35.6987 109.082 36.329 109.61 37.0725C110.148 37.8051 110.59 38.624 110.935 39.5291L108.22 40.4503C108.047 39.9223 107.794 39.3944 107.46 38.8664C107.126 38.3385 106.711 37.8644 106.216 37.4442C105.72 37.024 105.143 36.6846 104.486 36.426C103.829 36.1566 103.096 36.022 102.288 36.022C101.081 36.022 100.031 36.2805 99.1366 36.7977C98.2531 37.3041 97.5205 37.9829 96.9386 38.8341C96.3568 39.6853 95.9204 40.6712 95.6295 41.7917C95.3494 42.9015 95.2093 44.0544 95.2093 45.2504V45.6544C95.2093 46.8504 95.3494 48.0033 95.6295 49.113C95.9204 50.2228 96.3568 51.2033 96.9386 52.0545C97.5205 52.8949 98.2531 53.5737 99.1366 54.0909C100.031 54.5973 101.081 54.8505 102.288 54.8505C103.096 54.8505 103.829 54.7212 104.486 54.4626C105.143 54.1932 105.72 53.8484 106.216 53.4282C106.711 53.008 107.126 52.5339 107.46 52.006C107.794 51.478 108.047 50.9447 108.22 50.406L110.935 51.3434C110.59 52.2484 110.148 53.0673 109.61 53.8C109.082 54.5326 108.457 55.1629 107.735 55.6909C107.013 56.2081 106.194 56.6121 105.278 56.903C104.373 57.1832 103.376 57.3232 102.288 57.3232C100.726 57.3232 99.3198 57.0162 98.07 56.402C96.8309 55.7879 95.775 54.9474 94.9022 53.8808C94.0295 52.8141 93.3615 51.5589 92.8982 50.1151C92.4349 48.6713 92.2032 47.1144 92.2032 45.4443ZM116.688 48.8221C116.688 49.6518 116.791 50.4383 116.995 51.1817C117.2 51.9252 117.502 52.577 117.901 53.1373C118.299 53.6868 118.795 54.1286 119.387 54.4626C119.991 54.7858 120.691 54.9474 121.488 54.9474C122.006 54.9474 122.48 54.8774 122.911 54.7373C123.352 54.5865 123.746 54.3872 124.09 54.1394C124.446 53.8915 124.759 53.6006 125.028 53.2666C125.308 52.9218 125.55 52.5555 125.755 52.1676L128.018 53.4606C127.738 54.0424 127.377 54.5757 126.935 55.0606C126.504 55.5347 126.008 55.9387 125.448 56.2727C124.888 56.6067 124.274 56.8653 123.606 57.0485C122.938 57.2317 122.232 57.3232 121.488 57.3232C120.346 57.3232 119.307 57.1131 118.369 56.6929C117.443 56.2619 116.645 55.6693 115.977 54.9151C115.309 54.1501 114.792 53.2451 114.426 52.1999C114.059 51.1548 113.876 50.0073 113.876 48.7575C113.876 47.4968 114.059 46.344 114.426 45.2988C114.792 44.2429 115.309 43.3379 115.977 42.5837C116.645 41.8187 117.443 41.2261 118.369 40.8059C119.307 40.3749 120.346 40.1594 121.488 40.1594C122.232 40.1594 122.938 40.251 123.606 40.4341C124.274 40.6173 124.888 40.8759 125.448 41.2099C126.008 41.5439 126.504 41.9533 126.935 42.4382C127.377 42.9123 127.738 43.4402 128.018 44.0221L125.755 45.315C125.55 44.9271 125.308 44.5662 125.028 44.2322C124.759 43.8874 124.446 43.5911 124.09 43.3433C123.746 43.0954 123.352 42.9015 122.911 42.7614C122.48 42.6106 122.006 42.5352 121.488 42.5352C120.691 42.5352 119.991 42.7022 119.387 43.0362C118.795 43.3594 118.299 43.8012 117.901 44.3615C117.502 44.911 117.2 45.5574 116.995 46.3009C116.791 47.0443 116.688 47.8309 116.688 48.6605V48.8221ZM157.206 45.412C157.206 47.1467 156.991 48.7305 156.56 50.1635C156.129 51.5858 155.471 52.8033 154.588 53.8161C153.704 54.8289 152.595 55.6155 151.259 56.1757C149.933 56.7252 148.371 57 146.572 57H139.137V33.8239H146.572C148.371 33.8239 149.933 34.1041 151.259 34.6644C152.595 35.2139 153.704 35.995 154.588 37.0078C155.471 38.0206 156.129 39.2435 156.56 40.6766C156.991 42.0988 157.206 43.6773 157.206 45.412ZM154.151 44.9594C154.151 43.7527 154.001 42.6214 153.699 41.5655C153.397 40.5096 152.934 39.5937 152.309 38.8179C151.695 38.0314 150.903 37.4119 149.933 36.9593C148.974 36.5068 147.832 36.2805 146.507 36.2805H141.982V54.5434H146.507C147.832 54.5434 148.974 54.3225 149.933 53.8808C150.903 53.4282 151.695 52.8141 152.309 52.0383C152.934 51.2518 153.397 50.3306 153.699 49.2746C154.001 48.2187 154.151 47.0874 154.151 45.8807V44.9594ZM172.495 55.1091C172.01 55.7879 171.348 56.3266 170.507 56.7252C169.678 57.1239 168.729 57.3232 167.663 57.3232C166.596 57.3232 165.632 57.1131 164.77 56.6929C163.908 56.2619 163.17 55.6693 162.556 54.9151C161.941 54.1501 161.467 53.2451 161.133 52.1999C160.81 51.1548 160.649 50.0073 160.649 48.7575C160.649 47.5076 160.81 46.3601 161.133 45.315C161.467 44.2591 161.941 43.3486 162.556 42.5837C163.17 41.8187 163.908 41.2261 164.77 40.8059C165.632 40.3749 166.596 40.1594 167.663 40.1594C168.729 40.1594 169.678 40.3587 170.507 40.7574C171.348 41.156 172.01 41.6948 172.495 42.3735V33.8239H175.21V57H172.495V55.1091ZM163.461 48.8221C163.461 49.6841 163.563 50.4868 163.768 51.2302C163.972 51.9737 164.274 52.6201 164.673 53.1696C165.071 53.7084 165.562 54.134 166.144 54.4464C166.725 54.7589 167.399 54.9151 168.164 54.9151C168.886 54.9151 169.516 54.7912 170.055 54.5434C170.604 54.2956 171.062 53.9562 171.428 53.5252C171.795 53.0942 172.07 52.5878 172.253 52.006C172.436 51.4134 172.527 50.7723 172.527 50.0827V47.3999C172.527 46.7103 172.436 46.0746 172.253 45.4928C172.07 44.9002 171.795 44.3884 171.428 43.9574C171.062 43.5264 170.604 43.187 170.055 42.9392C169.516 42.6914 168.886 42.5675 168.164 42.5675C167.399 42.5675 166.725 42.7237 166.144 43.0362C165.562 43.3486 165.071 43.7796 164.673 44.3291C164.274 44.8679 163.972 45.5089 163.768 46.2524C163.563 46.9958 163.461 47.7985 163.461 48.6605V48.8221ZM187.526 33.8239H201.393V36.2805H190.37V43.8928H200.487V46.3494H190.37V54.5434H202.023V57H187.526V33.8239ZM207.679 49.5817C207.733 50.3575 207.89 51.074 208.148 51.7312C208.407 52.3885 208.757 52.9595 209.199 53.4444C209.651 53.9185 210.179 54.2902 210.783 54.5596C211.397 54.8182 212.075 54.9474 212.819 54.9474C213.735 54.9474 214.537 54.7966 215.227 54.4949C215.927 54.1825 216.568 53.7946 217.15 53.3313L218.54 55.2868C217.797 55.8794 216.935 56.3697 215.954 56.7576C214.985 57.1347 213.896 57.3232 212.69 57.3232C211.494 57.3232 210.411 57.1131 209.441 56.6929C208.471 56.2619 207.642 55.6693 206.952 54.9151C206.273 54.1501 205.751 53.2451 205.384 52.1999C205.018 51.144 204.835 49.9965 204.835 48.7575C204.835 47.4968 205.013 46.344 205.368 45.2988C205.735 44.2429 206.246 43.3379 206.904 42.5837C207.561 41.8187 208.347 41.2261 209.263 40.8059C210.179 40.3749 211.197 40.1594 212.318 40.1594C213.406 40.1594 214.387 40.3749 215.259 40.8059C216.132 41.2261 216.876 41.8187 217.49 42.5837C218.104 43.3379 218.573 44.2429 218.896 45.2988C219.23 46.344 219.397 47.4861 219.397 48.7251V49.5817H207.679ZM212.221 42.5352C211.531 42.5352 210.917 42.6698 210.378 42.9392C209.84 43.2086 209.376 43.5695 208.989 44.0221C208.611 44.4746 208.31 44.9972 208.083 45.5898C207.868 46.1716 207.744 46.775 207.712 47.3999H216.455C216.434 46.7642 216.321 46.1554 216.116 45.5736C215.922 44.981 215.642 44.4638 215.276 44.0221C214.92 43.5695 214.484 43.2086 213.966 42.9392C213.46 42.6698 212.878 42.5352 212.221 42.5352ZM230.516 33.8239H244.383V36.2805H233.361V43.8928H243.478V46.3494H233.361V57H230.516V33.8239ZM251.947 40.4826H255.228V42.8746H251.947V57H249.232V42.8746H246.484V40.4826H249.232V37.4119C249.232 36.7007 249.345 36.0974 249.571 35.6017C249.797 35.1061 250.11 34.7075 250.508 34.4058C250.918 34.0933 251.397 33.8724 251.947 33.7431C252.507 33.6031 253.116 33.533 253.773 33.533C254.441 33.533 254.996 33.5654 255.438 33.63C255.879 33.6839 256.208 33.727 256.424 33.7593L256.213 36.0866C256.052 36.0758 255.863 36.0597 255.648 36.0381C255.443 36.0166 255.228 36.0004 255.001 35.9896C254.786 35.9789 254.576 35.9681 254.371 35.9573C254.166 35.9465 253.999 35.9411 253.87 35.9411C253.482 35.9411 253.164 36.0004 252.916 36.1189C252.669 36.2267 252.469 36.3721 252.318 36.5553C252.178 36.7385 252.081 36.9486 252.028 37.1856C251.974 37.4226 251.947 37.6705 251.947 37.929V40.4826ZM274.056 54.8505C274.896 54.8505 275.64 54.7427 276.286 54.5272C276.944 54.3117 277.509 54.0262 277.983 53.6707C278.468 53.3151 278.878 52.9057 279.212 52.4424C279.546 51.9791 279.81 51.4996 280.004 51.004C280.208 50.4976 280.354 49.9965 280.44 49.5009C280.537 48.9945 280.585 48.5258 280.585 48.0948V47.1413H274.088V44.7493H283.123V57H280.553V53.8808C280.154 54.5165 279.702 55.0552 279.196 55.497C278.689 55.9387 278.15 56.2943 277.579 56.5636C277.008 56.833 276.405 57.0269 275.769 57.1455C275.144 57.264 274.509 57.3232 273.862 57.3232C272.278 57.3232 270.872 57.0162 269.644 56.402C268.416 55.7879 267.376 54.9474 266.525 53.8808C265.684 52.8141 265.043 51.5589 264.601 50.1151C264.16 48.6713 263.939 47.1144 263.939 45.4443C263.939 43.785 264.181 42.2335 264.666 40.7897C265.151 39.3351 265.84 38.0745 266.735 37.0078C267.629 35.9304 268.707 35.0846 269.967 34.4704C271.239 33.8455 272.661 33.533 274.234 33.533C275.204 33.533 276.119 33.6515 276.981 33.8886C277.854 34.1149 278.657 34.4435 279.389 34.8745C280.122 35.2947 280.779 35.8011 281.361 36.3937C281.943 36.9755 282.433 37.622 282.832 38.3331L280.424 39.5937C280.144 39.055 279.81 38.5701 279.422 38.1391C279.034 37.6974 278.587 37.3203 278.08 37.0078C277.574 36.6954 277.003 36.4529 276.367 36.2805C275.742 36.1081 275.053 36.022 274.299 36.022C273.092 36.022 272.03 36.2805 271.115 36.7977C270.199 37.3041 269.428 37.9829 268.803 38.8341C268.189 39.6853 267.726 40.6712 267.414 41.7917C267.101 42.9015 266.945 44.0544 266.945 45.2504V45.6544C266.945 46.8504 267.085 48.0033 267.365 49.113C267.656 50.2228 268.092 51.2033 268.674 52.0545C269.267 52.8949 270.01 53.5737 270.905 54.0909C271.799 54.5973 272.849 54.8505 274.056 54.8505ZM286.775 47.8362C286.775 46.748 286.932 45.7352 287.244 44.7978C287.557 43.8604 288.004 43.0523 288.586 42.3735C289.167 41.684 289.868 41.1452 290.687 40.7574C291.516 40.3587 292.443 40.1594 293.466 40.1594C294.372 40.1594 295.233 40.3372 296.052 40.6927C296.871 41.0375 297.566 41.5978 298.137 42.3735V40.4826H300.852V57C300.852 58.0236 300.642 58.8802 300.222 59.5697C299.813 60.2701 299.274 60.8304 298.606 61.2506C297.938 61.6708 297.178 61.9725 296.327 62.1556C295.487 62.3388 294.63 62.4304 293.757 62.4304C293.272 62.4304 292.766 62.4034 292.238 62.3496C291.721 62.2957 291.198 62.2149 290.67 62.1071C290.142 61.9994 289.62 61.8593 289.103 61.6869C288.596 61.5253 288.111 61.3314 287.648 61.1051L288.634 58.8263C288.957 58.9771 289.297 59.1226 289.652 59.2627C290.008 59.4135 290.39 59.5482 290.8 59.6667C291.22 59.7852 291.667 59.8822 292.141 59.9576C292.615 60.033 293.132 60.0707 293.693 60.0707C294.382 60.0707 295.002 60.0007 295.551 59.8606C296.112 59.7206 296.58 59.4997 296.957 59.198C297.335 58.9071 297.625 58.53 297.83 58.0667C298.035 57.6141 298.137 57.07 298.137 56.4343V53.2989C297.566 54.0747 296.871 54.6404 296.052 54.9959C295.233 55.3407 294.372 55.5131 293.466 55.5131C292.443 55.5131 291.516 55.3192 290.687 54.9313C289.868 54.5326 289.167 53.9885 288.586 53.2989C288.004 52.6094 287.557 51.8013 287.244 50.8747C286.932 49.9373 286.775 48.9245 286.775 47.8362ZM298.202 47.7716C298.202 47.0282 298.121 46.344 297.959 45.719C297.798 45.0833 297.545 44.5338 297.2 44.0705C296.855 43.5965 296.413 43.2301 295.875 42.9715C295.347 42.7022 294.711 42.5675 293.967 42.5675C293.213 42.5675 292.561 42.7022 292.012 42.9715C291.462 43.2409 291.004 43.6126 290.638 44.0867C290.283 44.55 290.019 45.0995 289.846 45.7352C289.674 46.3709 289.588 47.0497 289.588 47.7716V47.9009C289.588 48.6228 289.674 49.3016 289.846 49.9373C290.019 50.5622 290.283 51.1117 290.638 51.5858C291.004 52.0491 291.462 52.4154 292.012 52.6848C292.561 52.9542 293.213 53.0888 293.967 53.0888C294.711 53.0888 295.347 52.9595 295.875 52.701C296.413 52.4316 296.855 52.0653 297.2 51.602C297.545 51.1386 297.798 50.5891 297.959 49.9534C298.121 49.3177 298.202 48.6336 298.202 47.9009V47.7716ZM328.182 46.3494H315.98V57H313.135V33.8239H315.98V43.8928H328.182V33.8239H331.043V57H328.182V46.3494ZM336.489 33.8239H339.204V42.3735C339.765 41.6086 340.454 41.0483 341.273 40.6927C342.103 40.3372 343.024 40.1594 344.037 40.1594C344.953 40.1594 345.755 40.3102 346.445 40.6119C347.134 40.9136 347.711 41.323 348.174 41.8402C348.638 42.3574 348.982 42.9554 349.209 43.6342C349.446 44.313 349.564 45.0295 349.564 45.7837V57H346.849V46.6403C346.849 45.9184 346.757 45.3042 346.574 44.7978C346.402 44.2806 346.159 43.8658 345.847 43.5534C345.545 43.2301 345.184 42.9985 344.764 42.8584C344.355 42.7076 343.913 42.6321 343.439 42.6321C342.922 42.6321 342.41 42.7291 341.903 42.923C341.397 43.1062 340.944 43.3864 340.546 43.7635C340.147 44.1406 339.824 44.6147 339.576 45.1857C339.328 45.7568 339.204 46.4302 339.204 47.2059V57H336.489V33.8239ZM361.718 33.8239H364.562V57H361.718V33.8239ZM372.756 57H370.041V40.4826H372.756V57ZM369.54 35.7149C369.54 35.4563 369.589 35.2139 369.686 34.9876C369.793 34.7613 369.928 34.562 370.09 34.3896C370.262 34.2172 370.461 34.0825 370.688 33.9856C370.925 33.8778 371.172 33.8239 371.431 33.8239C371.69 33.8239 371.932 33.8778 372.158 33.9856C372.385 34.0825 372.579 34.2172 372.74 34.3896C372.913 34.562 373.047 34.7613 373.144 34.9876C373.252 35.2139 373.306 35.4563 373.306 35.7149C373.306 35.9735 373.252 36.2213 373.144 36.4583C373.047 36.6846 372.913 36.8839 372.74 37.0563C372.579 37.2179 372.385 37.3526 372.158 37.4604C371.932 37.5573 371.69 37.6058 371.431 37.6058C371.172 37.6058 370.925 37.5573 370.688 37.4604C370.461 37.3526 370.262 37.2179 370.09 37.0563C369.928 36.8839 369.793 36.6846 369.686 36.4583C369.589 36.2213 369.54 35.9735 369.54 35.7149ZM382.001 54.2848C382.367 54.4033 382.728 54.5057 383.084 54.5919C383.396 54.6673 383.725 54.7373 384.07 54.802C384.425 54.8559 384.748 54.8828 385.039 54.8828C385.869 54.8828 386.521 54.7912 386.995 54.608C387.48 54.4249 387.846 54.1447 388.094 53.7676C388.342 53.3905 388.498 52.9218 388.563 52.3616C388.638 51.7905 388.676 51.1171 388.676 50.3413V33.8239H391.52V52.2646C391.52 53.2235 391.348 54.0262 391.003 54.6727C390.658 55.3084 390.2 55.8256 389.629 56.2242C389.058 56.6229 388.401 56.903 387.658 57.0646C386.925 57.237 386.16 57.3232 385.363 57.3232C384.651 57.3232 383.935 57.264 383.213 57.1455C382.502 57.0269 381.829 56.8707 381.193 56.6768L382.001 54.2848ZM399.553 59.6182C399.553 60.1677 399.456 60.6202 399.262 60.9758C399.079 61.3421 398.836 61.6331 398.534 61.8485C398.244 62.064 397.91 62.2149 397.532 62.3011C397.155 62.3873 396.778 62.4304 396.401 62.4304C395.884 62.4304 395.399 62.398 394.947 62.3334C394.494 62.2795 394.187 62.2364 394.025 62.2041L394.381 59.9738C394.532 60.0061 394.726 60.0276 394.963 60.0384C395.211 60.06 395.404 60.0707 395.545 60.0707C395.846 60.0707 396.083 60.0384 396.256 59.9738C396.439 59.9091 396.568 59.8175 396.644 59.699C396.73 59.5805 396.784 59.435 396.805 59.2627C396.827 59.101 396.837 58.9179 396.837 58.7132V40.4826H399.553V59.6182ZM396.336 35.7149C396.336 35.4563 396.385 35.2139 396.482 34.9876C396.59 34.7613 396.724 34.562 396.886 34.3896C397.058 34.2172 397.258 34.0825 397.484 33.9856C397.721 33.8778 397.969 33.8239 398.227 33.8239C398.486 33.8239 398.728 33.8778 398.955 33.9856C399.181 34.0825 399.375 34.2172 399.536 34.3896C399.709 34.562 399.844 34.7613 399.941 34.9876C400.048 35.2139 400.102 35.4563 400.102 35.7149C400.102 35.9735 400.048 36.2213 399.941 36.4583C399.844 36.6846 399.709 36.8839 399.536 37.0563C399.375 37.2179 399.181 37.3526 398.955 37.4604C398.728 37.5573 398.486 37.6058 398.227 37.6058C397.969 37.6058 397.721 37.5573 397.484 37.4604C397.258 37.3526 397.058 37.2179 396.886 37.0563C396.724 36.8839 396.59 36.6846 396.482 36.4583C396.385 36.2213 396.336 35.9735 396.336 35.7149ZM411.852 33.8239H414.696V46.2362L424.717 33.8239H428.191L420.611 42.9715L428.951 57H425.622L418.704 45.0564L414.696 50.0181V57H411.852V33.8239ZM434.624 48.5959L442.398 40.4826H445.808L439.521 47.0443L446.099 57H442.786L437.598 48.8544L434.624 51.909V57H431.909V33.8239H434.624V48.5959ZM456.491 33.8239H459.335V54.4464H468.596V57H456.491V33.8239ZM471.683 33.8239H474.398V53.2989C474.398 53.5683 474.42 53.8053 474.463 54.0101C474.517 54.2148 474.603 54.3872 474.721 54.5272C474.84 54.6673 475.001 54.7751 475.206 54.8505C475.422 54.9151 475.686 54.9474 475.998 54.9474C476.343 54.9474 476.655 54.9367 476.935 54.9151C477.216 54.8936 477.463 54.872 477.679 54.8505L477.954 57.1293C477.641 57.1616 477.329 57.1939 477.016 57.2263C476.747 57.2478 476.451 57.2694 476.127 57.2909C475.804 57.3125 475.497 57.3232 475.206 57.3232C474.721 57.3232 474.263 57.264 473.832 57.1455C473.401 57.0377 473.024 56.8545 472.701 56.596C472.389 56.3374 472.141 56.0034 471.958 55.5939C471.774 55.1845 471.683 54.6835 471.683 54.0909V33.8239ZM505.041 33.8239H508.548V57H505.671V37.1856L497.752 47.9979H497.72L489.752 37.2018V57H486.972V33.8239H490.592L497.8 43.6827L505.041 33.8239ZM526.391 57H523.675V46.6079C523.675 45.8753 523.584 45.2557 523.401 44.7493C523.228 44.2429 522.991 43.8335 522.69 43.521C522.399 43.2086 522.049 42.9823 521.639 42.8422C521.24 42.7022 520.815 42.6321 520.362 42.6321C519.91 42.6321 519.463 42.7237 519.021 42.9069C518.59 43.0793 518.202 43.354 517.857 43.7311C517.523 44.1083 517.248 44.5877 517.033 45.1695C516.828 45.7406 516.726 46.4302 516.726 47.2383V57H514.011V40.4826H516.726V42.3735C517.275 41.6086 517.911 41.0483 518.633 40.6927C519.366 40.3372 520.174 40.1594 521.057 40.1594C521.424 40.1594 521.822 40.2133 522.253 40.321C522.684 40.418 523.104 40.5742 523.514 40.7897C523.934 41.0052 524.317 41.2907 524.661 41.6463C525.017 41.9911 525.302 42.4113 525.518 42.9069C525.82 42.4005 526.164 41.9749 526.552 41.6301C526.951 41.2745 527.366 40.989 527.797 40.7735C528.239 40.558 528.691 40.4018 529.154 40.3048C529.628 40.2079 530.097 40.1594 530.56 40.1594C531.455 40.1594 532.247 40.3102 532.936 40.6119C533.626 40.9136 534.208 41.3176 534.682 41.824C535.156 42.3304 535.511 42.9177 535.748 43.5857C535.996 44.2537 536.12 44.9541 536.12 45.6867V57H533.405V46.6079C533.405 45.8753 533.313 45.2557 533.13 44.7493C532.947 44.2429 532.699 43.8335 532.387 43.521C532.074 43.2086 531.713 42.9823 531.304 42.8422C530.894 42.7022 530.469 42.6321 530.027 42.6321C529.575 42.6321 529.127 42.7237 528.686 42.9069C528.255 43.0793 527.867 43.354 527.522 43.7311C527.188 44.1083 526.913 44.5877 526.698 45.1695C526.493 45.7406 526.391 46.4302 526.391 47.2383V57ZM5.96371 77.2018V97H3.18388V73.8239H7.07888L19.2972 93.6222V73.8239H22.0771V97H18.1659L5.96371 77.2018ZM27.5398 80.4826H30.2549V82.3735C30.8152 81.6086 31.5048 81.0483 32.3237 80.6927C33.1533 80.3372 34.0745 80.1594 35.0873 80.1594C36.0032 80.1594 36.8059 80.3102 37.4954 80.6119C38.185 80.9136 38.7614 81.323 39.2247 81.8402C39.6881 82.3574 40.0328 82.9554 40.2591 83.6342C40.4961 84.313 40.6147 85.0295 40.6147 85.7837V97H37.8995V86.6403C37.8995 85.9184 37.8079 85.3042 37.6247 84.7978C37.4523 84.2806 37.2099 83.8658 36.8974 83.5534C36.5958 83.2301 36.2348 82.9985 35.8146 82.8584C35.4052 82.7076 34.9634 82.6321 34.4893 82.6321C33.9722 82.6321 33.4604 82.7291 32.954 82.923C32.4583 83.1062 32.0058 83.3864 31.5964 83.7635C31.1977 84.1406 30.8745 84.6147 30.6267 85.1857C30.3788 85.7568 30.2549 86.4302 30.2549 87.2059V97H27.5398V80.4826ZM51.4108 85.4443C51.4108 83.785 51.6424 82.2335 52.1057 80.7897C52.5798 79.3351 53.2532 78.0745 54.126 77.0078C54.9987 75.9304 56.06 75.0846 57.3098 74.4704C58.5597 73.8455 59.9658 73.533 61.5281 73.533C63.0904 73.533 64.4965 73.8455 65.7463 74.4704C66.9962 75.0846 68.0574 75.9304 68.9302 77.0078C69.8137 78.0745 70.4871 79.3351 70.9504 80.7897C71.4245 82.2335 71.6615 83.785 71.6615 85.4443C71.6615 87.1144 71.4245 88.6713 70.9504 90.1151C70.4871 91.5589 69.8137 92.8141 68.9302 93.8808C68.0574 94.9474 66.9962 95.7879 65.7463 96.402C64.4965 97.0162 63.0904 97.3232 61.5281 97.3232C59.9658 97.3232 58.5597 97.0162 57.3098 96.402C56.06 95.7879 54.9987 94.9474 54.126 93.8808C53.2532 92.8141 52.5798 91.5589 52.1057 90.1151C51.6424 88.6713 51.4108 87.1144 51.4108 85.4443ZM68.6554 85.218C68.6554 84.0221 68.5154 82.8692 68.2352 81.7594C67.9659 80.6496 67.5403 79.6691 66.9584 78.8179C66.3766 77.9668 65.6332 77.288 64.7281 76.7816C63.8338 76.2752 62.7671 76.022 61.5281 76.022C60.289 76.022 59.2223 76.2752 58.328 76.7816C57.4337 77.288 56.6957 77.9668 56.1139 78.8179C55.532 79.6691 55.1011 80.6496 54.8209 81.7594C54.5515 82.8692 54.4169 84.0221 54.4169 85.218V85.6544C54.4169 86.8504 54.5515 88.0033 54.8209 89.113C55.1011 90.2228 55.532 91.2033 56.1139 92.0545C56.6957 92.8949 57.4337 93.5737 58.328 94.0909C59.2223 94.5973 60.289 94.8505 61.5281 94.8505C62.7671 94.8505 63.8338 94.5973 64.7281 94.0909C65.6332 93.5737 66.3766 92.8949 66.9584 92.0545C67.5403 91.2033 67.9659 90.2228 68.2352 89.113C68.5154 88.0033 68.6554 86.8504 68.6554 85.6544V85.218ZM82.6031 80.1594C83.7452 80.1594 84.7849 80.3749 85.7223 80.8059C86.6597 81.2261 87.457 81.8187 88.1143 82.5837C88.7823 83.3379 89.2995 84.2429 89.6658 85.2988C90.0321 86.344 90.2153 87.4968 90.2153 88.7575C90.2153 89.9965 90.0321 91.144 89.6658 92.1999C89.2995 93.2451 88.7823 94.1501 88.1143 94.9151C87.457 95.6693 86.6597 96.2619 85.7223 96.6929C84.7849 97.1131 83.7452 97.3232 82.6031 97.3232C81.461 97.3232 80.4212 97.1131 79.4839 96.6929C78.5572 96.2619 77.7599 95.6693 77.0919 94.9151C76.4239 94.1501 75.9067 93.2451 75.5404 92.1999C75.174 91.144 74.9909 89.9965 74.9909 88.7575C74.9909 87.4968 75.174 86.344 75.5404 85.2988C75.9067 84.2429 76.4239 83.3379 77.0919 82.5837C77.7599 81.8187 78.5572 81.2261 79.4839 80.8059C80.4212 80.3749 81.461 80.1594 82.6031 80.1594ZM82.6031 94.9474C83.3896 94.9474 84.0792 94.7858 84.6718 94.4626C85.2752 94.1286 85.7762 93.6814 86.1749 93.1212C86.5843 92.5609 86.8914 91.9144 87.0961 91.1817C87.3008 90.4383 87.4032 89.6625 87.4032 88.8544V88.6605C87.4032 87.8309 87.3008 87.0443 87.0961 86.3009C86.8914 85.5574 86.5843 84.911 86.1749 84.3615C85.7762 83.8012 85.2752 83.3594 84.6718 83.0362C84.0792 82.7022 83.3896 82.5352 82.6031 82.5352C81.8165 82.5352 81.1216 82.7022 80.5182 83.0362C79.9256 83.3594 79.4246 83.8012 79.0152 84.3615C78.6165 84.911 78.3148 85.5574 78.1101 86.3009C77.9054 87.0443 77.803 87.8309 77.803 88.6605V88.8544C77.803 89.6625 77.9054 90.4383 78.1101 91.1817C78.3148 91.9144 78.6165 92.5609 79.0152 93.1212C79.4246 93.6814 79.9256 94.1286 80.5182 94.4626C81.1216 94.7858 81.8165 94.9474 82.6031 94.9474ZM101.512 73.8239H109.642C110.73 73.8239 111.716 74.0071 112.599 74.3734C113.483 74.729 114.237 75.23 114.862 75.8765C115.498 76.5122 115.983 77.2772 116.317 78.1715C116.661 79.0658 116.834 80.0462 116.834 81.1129C116.834 82.1904 116.645 83.1763 116.268 84.0705C115.902 84.9541 115.385 85.7137 114.717 86.3494C114.049 86.9851 113.251 87.4807 112.325 87.8362C111.409 88.181 110.407 88.3534 109.319 88.3534H104.357V97H101.512V73.8239ZM113.812 81.0483C113.812 80.3695 113.704 79.7392 113.488 79.1573C113.273 78.5755 112.96 78.0745 112.551 77.6543C112.142 77.2233 111.641 76.8893 111.048 76.6523C110.466 76.4044 109.803 76.2805 109.06 76.2805H104.357V85.913H109.06C109.803 85.913 110.466 85.7945 111.048 85.5574C111.641 85.3204 112.142 84.9972 112.551 84.5877C112.96 84.1675 113.273 83.6719 113.488 83.1008C113.704 82.519 113.812 81.8887 113.812 81.2099V81.0483ZM122.927 80.4826V82.3735C123.412 81.6948 124.069 81.156 124.899 80.7574C125.728 80.3587 126.682 80.1594 127.759 80.1594C128.826 80.1594 129.79 80.3749 130.652 80.8059C131.514 81.2261 132.252 81.8187 132.866 82.5837C133.481 83.3486 133.949 84.2591 134.272 85.315C134.606 86.3601 134.773 87.5076 134.773 88.7575C134.773 90.0073 134.606 91.1548 134.272 92.1999C133.949 93.2451 133.481 94.1501 132.866 94.9151C132.252 95.6693 131.514 96.2619 130.652 96.6929C129.79 97.1131 128.826 97.3232 127.759 97.3232C126.682 97.3232 125.728 97.1239 124.899 96.7252C124.069 96.3266 123.412 95.7879 122.927 95.1091V102.026H120.212V80.4826H122.927ZM131.961 88.6605C131.961 87.7985 131.859 86.9958 131.654 86.2524C131.45 85.5089 131.148 84.8679 130.749 84.3291C130.351 83.7796 129.855 83.3486 129.262 83.0362C128.68 82.7237 128.012 82.5675 127.258 82.5675C126.536 82.5675 125.901 82.6914 125.351 82.9392C124.812 83.187 124.36 83.5264 123.994 83.9574C123.627 84.3884 123.347 84.9002 123.153 85.4928C122.97 86.0746 122.878 86.7103 122.878 87.3999V90.0827C122.878 90.7723 122.97 91.4134 123.153 92.006C123.347 92.5878 123.627 93.0942 123.994 93.5252C124.36 93.9562 124.812 94.2956 125.351 94.5434C125.901 94.7912 126.536 94.9151 127.258 94.9151C128.012 94.9151 128.68 94.7589 129.262 94.4464C129.855 94.134 130.351 93.7084 130.749 93.1696C131.148 92.6201 131.45 91.9737 131.654 91.2302C131.859 90.4868 131.961 89.6841 131.961 88.8221V88.6605ZM144.761 85.4443C144.761 83.785 144.993 82.2335 145.456 80.7897C145.931 79.3351 146.604 78.0745 147.477 77.0078C148.349 75.9304 149.411 75.0846 150.661 74.4704C151.91 73.8455 153.316 73.533 154.879 73.533C156.441 73.533 157.847 73.8455 159.097 74.4704C160.347 75.0846 161.408 75.9304 162.281 77.0078C163.164 78.0745 163.838 79.3351 164.301 80.7897C164.775 82.2335 165.012 83.785 165.012 85.4443C165.012 87.1144 164.775 88.6713 164.301 90.1151C163.838 91.5589 163.164 92.8141 162.281 93.8808C162.022 94.204 161.742 94.5057 161.44 94.7858L163.849 97.7596L161.861 99.3435L159.372 96.2566C159.286 96.3104 159.194 96.3589 159.097 96.402C157.847 97.0162 156.441 97.3232 154.879 97.3232C153.316 97.3232 151.91 97.0162 150.661 96.402C149.411 95.7879 148.349 94.9474 147.477 93.8808C146.604 92.8141 145.931 91.5589 145.456 90.1151C144.993 88.6713 144.761 87.1144 144.761 85.4443ZM162.006 85.218C162.006 84.0221 161.866 82.8692 161.586 81.7594C161.317 80.6496 160.891 79.6691 160.309 78.8179C159.727 77.9668 158.984 77.288 158.079 76.7816C157.185 76.2752 156.118 76.022 154.879 76.022C153.64 76.022 152.573 76.2752 151.679 76.7816C150.784 77.288 150.046 77.9668 149.465 78.8179C148.883 79.6691 148.452 80.6496 148.172 81.7594C147.902 82.8692 147.768 84.0221 147.768 85.218V85.6544C147.768 86.8504 147.902 88.0033 148.172 89.113C148.452 90.2228 148.883 91.2033 149.465 92.0545C150.046 92.8949 150.784 93.5737 151.679 94.0909C152.573 94.5973 153.64 94.8505 154.879 94.8505C155.967 94.8505 156.926 94.6511 157.756 94.2525L154.087 89.6787L156.075 88.0948L159.792 92.7171C159.975 92.5016 160.148 92.2807 160.309 92.0545C160.891 91.2033 161.317 90.2228 161.586 89.113C161.866 88.0033 162.006 86.8504 162.006 85.6544V85.218ZM182.936 80.4826V102.026H180.221V95.1091C179.736 95.7879 179.073 96.3266 178.233 96.7252C177.403 97.1239 176.455 97.3232 175.388 97.3232C174.321 97.3232 173.357 97.1131 172.495 96.6929C171.633 96.2619 170.895 95.6693 170.281 94.9151C169.667 94.1501 169.193 93.2451 168.859 92.1999C168.536 91.1548 168.374 90.0073 168.374 88.7575C168.374 87.5076 168.536 86.3601 168.859 85.315C169.193 84.2591 169.667 83.3486 170.281 82.5837C170.895 81.8187 171.633 81.2261 172.495 80.8059C173.357 80.3749 174.321 80.1594 175.388 80.1594C176.455 80.1594 177.403 80.3587 178.233 80.7574C179.073 81.156 179.736 81.6948 180.221 82.3735V80.4826H182.936ZM171.186 88.8221C171.186 89.6841 171.288 90.4868 171.493 91.2302C171.698 91.9737 172 92.6201 172.398 93.1696C172.797 93.7084 173.287 94.134 173.869 94.4464C174.451 94.7589 175.124 94.9151 175.889 94.9151C176.611 94.9151 177.241 94.7912 177.78 94.5434C178.33 94.2956 178.788 93.9562 179.154 93.5252C179.52 93.0942 179.795 92.5878 179.978 92.006C180.161 91.4134 180.253 90.7723 180.253 90.0827V87.3999C180.253 86.7103 180.161 86.0746 179.978 85.4928C179.795 84.9002 179.52 84.3884 179.154 83.9574C178.788 83.5264 178.33 83.187 177.78 82.9392C177.241 82.6914 176.611 82.5675 175.889 82.5675C175.124 82.5675 174.451 82.7237 173.869 83.0362C173.287 83.3486 172.797 83.7796 172.398 84.3291C172 84.8679 171.698 85.5089 171.493 86.2524C171.288 86.9958 171.186 87.7985 171.186 88.6605V88.8221ZM195.251 73.8239H203.154C204.232 73.8239 205.239 73.9586 206.176 74.228C207.114 74.4974 207.927 74.9176 208.617 75.4886C209.317 76.0489 209.867 76.7654 210.265 77.6381C210.664 78.5109 210.863 79.5452 210.863 80.7412C210.863 81.4739 210.761 82.1742 210.556 82.8422C210.352 83.4995 210.055 84.1083 209.667 84.6685C209.279 85.218 208.795 85.7083 208.213 86.1393C207.642 86.5595 206.985 86.9042 206.241 87.1736L211.3 97H208.116L203.494 87.7393H198.095V97H195.251V73.8239ZM203.316 85.2504C203.973 85.2504 204.582 85.1534 205.142 84.9594C205.702 84.7547 206.187 84.4638 206.597 84.0867C207.006 83.7096 207.324 83.2463 207.55 82.6968C207.776 82.1473 207.89 81.5224 207.89 80.822C207.89 80.1001 207.776 79.459 207.55 78.8988C207.324 78.3277 207.006 77.8482 206.597 77.4604C206.187 77.0725 205.702 76.7816 205.142 76.5876C204.582 76.3829 203.973 76.2805 203.316 76.2805H198.095V85.2504H203.316ZM223.453 82.9069H223.017C222.317 82.9069 221.649 82.9877 221.013 83.1493C220.377 83.3109 219.817 83.6018 219.332 84.0221C218.847 84.4423 218.459 85.0187 218.168 85.7514C217.878 86.4733 217.732 87.3999 217.732 88.5312V97H215.017V80.4826H217.732V83.1008C217.937 82.616 218.212 82.1904 218.556 81.824C218.901 81.4577 219.289 81.156 219.72 80.919C220.162 80.6712 220.63 80.488 221.126 80.3695C221.632 80.251 222.144 80.1917 222.661 80.1917H223.453V82.9069ZM233.167 91.6343C234.179 92.7656 235.268 93.5845 236.431 94.0909C237.606 94.5973 238.834 94.8505 240.116 94.8505C241 94.8505 241.786 94.7427 242.476 94.5272C243.176 94.301 243.763 93.9939 244.238 93.606C244.712 93.2181 245.067 92.7764 245.304 92.2807C245.552 91.7851 245.676 91.2626 245.676 90.713C245.676 89.9373 245.514 89.3124 245.191 88.8383C244.868 88.3642 244.442 87.9817 243.914 87.6908C243.386 87.3891 242.772 87.1574 242.072 86.9958C241.382 86.8234 240.66 86.6618 239.906 86.511L239.583 86.4463C239.076 86.3494 238.549 86.247 237.999 86.1393C237.46 86.0315 236.927 85.8914 236.399 85.719C235.871 85.5359 235.359 85.3204 234.864 85.0726C234.368 84.814 233.932 84.4961 233.555 84.119C233.048 83.6557 232.628 83.0901 232.294 82.422C231.971 81.7432 231.809 80.9082 231.809 79.917C231.809 79.2166 231.96 78.4893 232.262 77.7351C232.574 76.9809 233.064 76.2913 233.732 75.6664C234.411 75.0415 235.273 74.5297 236.318 74.131C237.363 73.7324 238.629 73.533 240.116 73.533C241.765 73.533 243.284 73.8293 244.674 74.4219C245.245 74.6697 245.789 74.966 246.306 75.3108C246.834 75.6448 247.351 76.065 247.858 76.5715L245.708 78.3331C244.911 77.5358 244 76.9539 242.977 76.5876C241.953 76.2105 240.908 76.022 239.841 76.022C239.076 76.022 238.376 76.1135 237.74 76.2967C237.116 76.4799 236.577 76.7438 236.124 77.0886C235.672 77.4334 235.322 77.8321 235.074 78.2846C234.837 78.7371 234.718 79.2274 234.718 79.7553C234.718 80.488 234.874 81.0806 235.187 81.5331C235.51 81.9857 235.93 82.352 236.448 82.6321C236.965 82.9015 237.547 83.1116 238.193 83.2624C238.85 83.4133 239.513 83.5587 240.181 83.6988L240.343 83.7311C241.42 83.9466 242.46 84.1998 243.462 84.4907C244.475 84.7709 245.353 85.1642 246.096 85.6706C246.85 86.1662 247.454 86.7965 247.906 87.5615C248.359 88.3157 248.585 89.2908 248.585 90.4868C248.585 91.338 248.407 92.1784 248.052 93.008C247.696 93.8377 247.163 94.5757 246.452 95.2222C245.751 95.8579 244.868 96.3697 243.801 96.7576C242.734 97.1347 241.479 97.3232 240.035 97.3232C238.915 97.3232 237.881 97.2047 236.932 96.9677C235.984 96.7199 235.111 96.402 234.314 96.0141C233.722 95.7017 233.145 95.3407 232.585 94.9313C232.035 94.5219 231.486 94.0316 230.936 93.4606L233.167 91.6343ZM263.211 92.4262C263.211 93.202 263.039 93.8969 262.694 94.5111C262.36 95.1145 261.913 95.6262 261.353 96.0465C260.793 96.4667 260.146 96.7845 259.413 97C258.692 97.2155 257.948 97.3232 257.183 97.3232C255.976 97.3232 254.813 97.1185 253.692 96.7091C252.582 96.2889 251.597 95.6909 250.735 94.9151L252.221 92.9919C252.48 93.2181 252.776 93.4552 253.11 93.703C253.455 93.9508 253.838 94.1825 254.258 94.3979C254.678 94.6027 255.131 94.7751 255.615 94.9151C256.1 95.0444 256.612 95.1091 257.151 95.1091C257.593 95.1091 258.013 95.0552 258.411 94.9474C258.821 94.8289 259.176 94.6619 259.478 94.4464C259.78 94.2202 260.017 93.9562 260.189 93.6545C260.372 93.342 260.464 92.9919 260.464 92.604C260.464 92.173 260.367 91.8121 260.173 91.5211C259.99 91.2302 259.737 90.9824 259.413 90.7777C259.09 90.573 258.713 90.3952 258.282 90.2444C257.851 90.0935 257.399 89.9427 256.925 89.7918L255.89 89.4524C255.308 89.2585 254.748 89.0376 254.209 88.7898C253.671 88.542 253.191 88.2403 252.771 87.8847C252.362 87.5184 252.033 87.0874 251.785 86.5918C251.548 86.0962 251.43 85.5036 251.43 84.814C251.43 84.2537 251.548 83.6988 251.785 83.1493C252.022 82.589 252.383 82.088 252.868 81.6463C253.364 81.2045 253.988 80.8489 254.743 80.5796C255.497 80.2994 256.386 80.1594 257.409 80.1594C258.541 80.1594 259.586 80.3479 260.545 80.725C261.514 81.1022 262.333 81.5708 263.001 82.1311L261.579 84.0867C261.342 83.8604 261.062 83.6449 260.739 83.4402C260.415 83.2355 260.071 83.0577 259.704 82.9069C259.338 82.7453 258.956 82.616 258.557 82.519C258.158 82.422 257.765 82.3735 257.377 82.3735C256.784 82.3735 256.283 82.4436 255.874 82.5837C255.465 82.7129 255.136 82.8853 254.888 83.1008C254.64 83.3163 254.457 83.5587 254.339 83.8281C254.231 84.0975 254.177 84.3615 254.177 84.62C254.177 84.9972 254.258 85.315 254.419 85.5736C254.581 85.8214 254.791 86.0369 255.05 86.2201C255.319 86.4032 255.621 86.5595 255.955 86.6888C256.3 86.818 256.655 86.9473 257.022 87.0766L258.379 87.5292C259.026 87.7447 259.618 87.9763 260.157 88.2241C260.696 88.4612 261.17 88.7359 261.579 89.0484C262.096 89.4578 262.495 89.9319 262.775 90.4706C263.066 91.0094 263.211 91.6612 263.211 92.4262ZM271.309 73.8239H287.196V76.3775H280.682V97H277.822V76.3775H271.309V73.8239ZM293.531 92.8949C293.531 93.175 293.547 93.439 293.58 93.6868C293.623 93.9239 293.714 94.134 293.854 94.3171C294.005 94.5003 294.221 94.6458 294.501 94.7535C294.781 94.8613 295.163 94.9151 295.648 94.9151C295.778 94.9151 295.928 94.9097 296.101 94.899C296.284 94.8882 296.473 94.8774 296.666 94.8666C296.86 94.8451 297.049 94.8235 297.232 94.802C297.415 94.7697 297.572 94.7427 297.701 94.7212L297.992 97.097C297.679 97.1401 297.356 97.1778 297.022 97.2101C296.742 97.2424 296.429 97.2694 296.085 97.2909C295.74 97.3125 295.395 97.3232 295.05 97.3232C294.393 97.3232 293.8 97.2532 293.272 97.1131C292.755 96.9838 292.314 96.7683 291.947 96.4667C291.581 96.165 291.301 95.7717 291.107 95.2868C290.913 94.7912 290.816 94.1932 290.816 93.4929V82.8746H287.697V80.4826H290.816V75.0846L293.531 74.131V80.4826H298.121V82.8746H293.531V92.8949ZM317.111 94.8505C317.865 94.8505 318.587 94.732 319.277 94.4949C319.977 94.2471 320.591 93.87 321.119 93.3636C321.658 92.8572 322.089 92.2161 322.412 91.4403C322.735 90.6538 322.897 89.7164 322.897 88.6282V73.8239H325.677V89.0161C325.677 90.2875 325.456 91.4349 325.014 92.4585C324.573 93.4821 323.969 94.3548 323.204 95.0767C322.439 95.7986 321.534 96.3535 320.489 96.7414C319.444 97.1293 318.318 97.3232 317.111 97.3232C315.915 97.3232 314.795 97.1293 313.75 96.7414C312.715 96.3535 311.81 95.7986 311.034 95.0767C310.269 94.3548 309.666 93.4821 309.224 92.4585C308.782 91.4349 308.562 90.2875 308.562 89.0161V73.8239H311.374V88.6282C311.374 89.7164 311.53 90.6538 311.842 91.4403C312.166 92.2161 312.591 92.8572 313.119 93.3636C313.647 93.87 314.256 94.2471 314.945 94.4949C315.646 94.732 316.368 94.8505 317.111 94.8505ZM343.665 97H340.95V95.1091C340.39 95.8741 339.695 96.4343 338.865 96.7899C338.046 97.1455 337.13 97.3232 336.117 97.3232C335.202 97.3232 334.399 97.1724 333.709 96.8707C333.02 96.569 332.443 96.1596 331.98 95.6424C331.517 95.1252 331.167 94.5272 330.93 93.8484C330.703 93.1696 330.59 92.4531 330.59 91.6989V80.4826H333.305V90.8423C333.305 91.575 333.392 92.1946 333.564 92.701C333.747 93.2074 333.99 93.6222 334.291 93.9454C334.604 94.2579 334.965 94.4895 335.374 94.6404C335.794 94.7804 336.241 94.8505 336.715 94.8505C337.276 94.8505 337.809 94.7589 338.315 94.5757C338.833 94.3818 339.285 94.0963 339.673 93.7191C340.061 93.342 340.368 92.868 340.594 92.2969C340.831 91.7259 340.95 91.0524 340.95 90.2767V80.4826H343.665V97ZM367.892 73.8239H370.914L363.722 97H359.617L352.376 73.8239H355.512L361.605 94.5434H361.879L367.892 73.8239ZM377.33 97L372.094 80.4826H375.181L379.14 94.4788L383.084 80.4826H386.171L380.934 97H377.33ZM413.274 92.8949H413.436L417.379 73.8239H420.288L415.133 97H411.755L406.825 78.0745L401.912 97H398.518L393.379 73.8239H396.256L400.264 92.8949H400.458L405.5 73.8239H408.248L413.274 92.8949ZM438.179 93.7838L441.169 80.4826H444.046L440.006 97H436.531L433.185 83.7635L429.775 97H426.43L422.422 80.4826H425.347L428.224 93.7838L431.699 80.4826H434.769L438.179 93.7838ZM469.76 73.8239L462.842 84.8463L470.325 97H467.077L461.226 87.3352L455.262 97H452.224L459.707 85.0241L452.854 73.8239H456.087L461.355 82.5352L466.721 73.8239H469.76ZM476.984 88.2888L471.925 80.4826H475.028L478.568 86.1716L481.946 80.4826H485.097L480.055 88.2888L485.792 97H482.544L478.406 90.5838L474.64 97H471.424L476.984 88.2888ZM495.909 73.8239L501.598 84.814H501.663L507.336 73.8239H510.439L502.988 87.5292V97H500.144V87.5292L492.661 73.8239H495.909ZM510.665 80.4826H513.736L517.809 94.1232L521.688 80.4826H524.726L518.714 99.4889C518.531 100.071 518.294 100.545 518.003 100.911C517.712 101.288 517.378 101.585 517.001 101.8C516.634 102.026 516.225 102.183 515.772 102.269C515.32 102.355 514.84 102.398 514.334 102.398C513.881 102.398 513.413 102.371 512.928 102.317C512.443 102.274 511.931 102.209 511.392 102.123L511.797 99.7475C512.012 99.7906 512.244 99.8283 512.491 99.8606C512.696 99.893 512.928 99.9199 513.186 99.9415C513.445 99.963 513.709 99.9738 513.978 99.9738C514.571 99.9738 515.029 99.8445 515.352 99.5859C515.686 99.3273 515.923 98.9071 516.063 98.3253L516.225 97.5657L510.665 80.4826ZM545.009 76.3775H533.324V73.8239H548.015V76.7816L535.797 94.4464H548.144V97H532.823V94.0585L545.009 76.3775ZM551.086 94.5434L560.088 82.8746H551.619V80.4826H563.094V83.0039L554.124 94.6565H563.531V97H551.086V94.5434ZM2.02023 118.573C2.77445 118.573 3.3886 118.514 3.86268 118.396C4.33676 118.266 4.70309 118.067 4.96168 117.798C5.22027 117.528 5.39266 117.184 5.47886 116.763C5.57583 116.332 5.62432 115.81 5.62432 115.196V114.824H8.37183V138H5.52734V120.982H1.0182V118.573H2.02023ZM18.279 135.511H29.8347V138H14.4002V135.285C15.8763 134.294 17.207 133.378 18.3922 132.537C19.5774 131.697 20.6225 130.905 21.5276 130.162C22.4326 129.407 23.2084 128.691 23.8549 128.012C24.5121 127.333 25.0508 126.66 25.471 125.992C25.8912 125.324 26.1983 124.65 26.3923 123.972C26.5862 123.293 26.6832 122.576 26.6832 121.822C26.6832 121.176 26.57 120.561 26.3438 119.98C26.1283 119.398 25.8104 118.891 25.3902 118.46C24.9808 118.019 24.469 117.668 23.8549 117.41C23.2515 117.151 22.5619 117.022 21.7861 117.022C21.1612 117.022 20.5578 117.114 19.976 117.297C19.405 117.469 18.8932 117.749 18.4406 118.137C17.9989 118.525 17.6379 119.026 17.3578 119.64C17.0777 120.244 16.9214 120.971 16.8891 121.822L14.2062 121.515C14.2493 120.437 14.4594 119.468 14.8366 118.606C15.2137 117.744 15.7308 117.011 16.3881 116.408C17.0561 115.804 17.848 115.341 18.7639 115.018C19.6905 114.695 20.7195 114.533 21.8508 114.533C22.9498 114.533 23.968 114.716 24.9054 115.083C25.8535 115.438 26.6724 115.939 27.362 116.586C28.0623 117.232 28.6064 117.997 28.9943 118.881C29.393 119.764 29.5923 120.728 29.5923 121.774C29.5923 123.013 29.3768 124.176 28.9458 125.264C28.5256 126.353 27.8791 127.425 27.0064 128.481C26.1337 129.526 25.0239 130.582 23.6771 131.648C22.341 132.715 20.7626 133.841 18.9417 135.026L18.279 135.446V135.511ZM35.5883 132.069C36.0301 133.178 36.7035 134.089 37.6086 134.8C38.5136 135.5 39.715 135.85 41.2127 135.85C42.0315 135.85 42.748 135.743 43.3622 135.527C43.9871 135.301 44.5097 134.994 44.9299 134.606C45.3501 134.218 45.6625 133.771 45.8673 133.265C46.0828 132.758 46.1905 132.209 46.1905 131.616C46.1905 130.312 45.6787 129.305 44.6551 128.594C43.6423 127.872 42.3332 127.511 40.7278 127.511H39.7258V125.022H40.6308C41.5143 125.022 42.2793 124.904 42.9258 124.666C43.5723 124.419 44.111 124.095 44.542 123.697C44.973 123.298 45.2908 122.851 45.4955 122.355C45.711 121.86 45.8188 121.359 45.8188 120.852C45.8188 120.367 45.7164 119.893 45.5117 119.43C45.3178 118.967 45.0322 118.552 44.6551 118.186C44.2888 117.819 43.8147 117.534 43.2329 117.329C42.6618 117.124 42.0154 117.022 41.2935 117.022C40.0113 117.022 38.9231 117.351 38.0288 118.008C37.1345 118.665 36.4772 119.484 36.057 120.464L33.6812 119.301C34.3385 117.782 35.3459 116.607 36.7035 115.777C38.0611 114.948 39.5911 114.533 41.2935 114.533C42.3709 114.533 43.3622 114.689 44.2672 115.002C45.1723 115.303 45.9535 115.74 46.6107 116.311C47.2787 116.871 47.7959 117.534 48.1622 118.299C48.5393 119.053 48.7279 119.872 48.7279 120.755C48.7279 121.466 48.6148 122.113 48.3885 122.695C48.173 123.277 47.8713 123.799 47.4834 124.262C47.1063 124.726 46.6484 125.114 46.1097 125.426C45.5817 125.728 45.0215 125.938 44.4289 126.056C45.1184 126.164 45.7541 126.385 46.336 126.719C46.9178 127.042 47.4188 127.446 47.839 127.931C48.2592 128.416 48.5878 128.976 48.8249 129.612C49.0727 130.237 49.1966 130.894 49.1966 131.584C49.1966 132.683 48.9811 133.652 48.5501 134.493C48.1191 135.333 47.5319 136.039 46.7885 136.61C46.0558 137.181 45.21 137.612 44.2511 137.903C43.2921 138.183 42.2793 138.323 41.2127 138.323C39.3163 138.323 37.6193 137.887 36.1217 137.014C34.624 136.131 33.5627 134.87 32.9378 133.232L35.5883 132.069ZM64.0816 129.628V117.281L55.1441 129.628H64.0816ZM64.0816 138V132.004H52.429V129.192L62.918 114.824H66.9261V129.628H70.7241V132.004H66.9261V138H64.0816ZM74.4737 126.218L75.6858 114.824H88.9224V117.313H77.9808L77.2858 123.907C77.9108 123.304 78.6596 122.851 79.5323 122.549C80.4051 122.237 81.2994 122.081 82.2152 122.081C83.3142 122.081 84.327 122.285 85.2536 122.695C86.191 123.093 86.9991 123.648 87.6779 124.359C88.3675 125.071 88.9008 125.911 89.2779 126.881C89.6658 127.85 89.8597 128.896 89.8597 130.016C89.8597 131.266 89.655 132.403 89.2456 133.426C88.8469 134.45 88.2813 135.328 87.5486 136.061C86.8159 136.782 85.9432 137.343 84.9304 137.741C83.9176 138.129 82.8024 138.323 81.5849 138.323C80.626 138.323 79.7155 138.215 78.8535 138C78.0024 137.774 77.232 137.44 76.5424 136.998C75.8528 136.545 75.2602 135.991 74.7646 135.333C74.2797 134.665 73.935 133.89 73.7302 133.006L76.5586 132.408C76.6771 132.871 76.8764 133.313 77.1566 133.733C77.4367 134.143 77.7923 134.509 78.2232 134.832C78.6542 135.145 79.1498 135.393 79.7101 135.576C80.2704 135.759 80.8953 135.85 81.5849 135.85C82.4145 135.85 83.158 135.71 83.8152 135.43C84.4725 135.15 85.0274 134.762 85.4799 134.267C85.9324 133.76 86.2772 133.162 86.5142 132.473C86.7621 131.783 86.886 131.034 86.886 130.226C86.886 129.386 86.7621 128.621 86.5142 127.931C86.2772 127.242 85.927 126.649 85.4637 126.153C85.0112 125.647 84.4563 125.259 83.7991 124.99C83.1418 124.71 82.393 124.57 81.5526 124.57C81.1539 124.57 80.7445 124.618 80.3243 124.715C79.9148 124.812 79.5162 124.947 79.1283 125.119C78.7512 125.291 78.3956 125.502 78.0616 125.749C77.7276 125.997 77.4421 126.272 77.205 126.574L74.4737 126.218ZM93.5931 127.107C93.5931 126.062 93.6632 125.027 93.8032 124.004C93.9541 122.97 94.1803 121.984 94.482 121.046C94.7945 120.109 95.1878 119.242 95.6618 118.444C96.1467 117.647 96.7285 116.957 97.4073 116.375C98.0969 115.794 98.8834 115.336 99.7669 115.002C100.661 114.668 101.669 114.501 102.789 114.501C103.597 114.501 104.352 114.598 105.052 114.792C105.752 114.975 106.388 115.233 106.959 115.567C107.541 115.891 108.058 116.279 108.51 116.731C108.963 117.184 109.351 117.674 109.674 118.202L106.894 119.075C105.86 117.588 104.492 116.844 102.789 116.844C101.679 116.844 100.726 117.108 99.9286 117.636C99.142 118.164 98.4902 118.864 97.973 119.737C97.4558 120.599 97.0679 121.59 96.8093 122.711C96.5615 123.821 96.4268 124.968 96.4053 126.153H96.4699C96.6639 125.755 96.9494 125.361 97.3265 124.974C97.7144 124.586 98.1723 124.236 98.7003 123.923C99.239 123.611 99.8424 123.357 100.51 123.163C101.189 122.97 101.916 122.873 102.692 122.873C103.791 122.873 104.799 123.066 105.714 123.454C106.641 123.831 107.438 124.359 108.106 125.038C108.785 125.717 109.308 126.52 109.674 127.446C110.051 128.373 110.24 129.375 110.24 130.452C110.24 131.562 110.04 132.602 109.642 133.572C109.254 134.531 108.704 135.366 107.993 136.077C107.293 136.788 106.453 137.348 105.472 137.758C104.492 138.167 103.42 138.372 102.256 138.372C101.028 138.372 99.8855 138.14 98.8296 137.677C97.7737 137.213 96.8578 136.529 96.0821 135.624C95.3063 134.719 94.6975 133.604 94.2558 132.279C93.814 130.943 93.5931 129.407 93.5931 127.673V127.107ZM96.9063 130.549C96.9063 131.357 97.0356 132.096 97.2942 132.764C97.5636 133.421 97.9299 133.992 98.3932 134.477C98.8565 134.951 99.406 135.323 100.042 135.592C100.688 135.85 101.394 135.98 102.159 135.98C102.902 135.98 103.592 135.856 104.228 135.608C104.863 135.349 105.413 134.989 105.876 134.525C106.339 134.062 106.7 133.502 106.959 132.844C107.228 132.187 107.363 131.454 107.363 130.646C107.363 129.828 107.234 129.089 106.975 128.432C106.717 127.764 106.356 127.199 105.892 126.735C105.429 126.261 104.874 125.9 104.228 125.652C103.592 125.394 102.892 125.264 102.127 125.264C101.362 125.264 100.656 125.394 100.009 125.652C99.3737 125.9 98.8242 126.256 98.3609 126.719C97.8976 127.182 97.5366 127.743 97.278 128.4C97.0302 129.046 96.9063 129.763 96.9063 130.549ZM125.545 117.41H113.262V114.824H128.454V117.41L119.84 138H116.672L125.545 117.41ZM139.622 114.533C140.602 114.533 141.551 114.673 142.466 114.953C143.393 115.223 144.212 115.621 144.923 116.149C145.645 116.666 146.221 117.313 146.652 118.089C147.083 118.864 147.299 119.753 147.299 120.755C147.299 121.273 147.229 121.795 147.089 122.323C146.959 122.84 146.739 123.336 146.426 123.81C146.124 124.273 145.72 124.693 145.214 125.071C144.708 125.448 144.088 125.755 143.355 125.992C144.174 126.218 144.875 126.541 145.456 126.961C146.049 127.371 146.534 127.84 146.911 128.368C147.299 128.896 147.579 129.461 147.751 130.065C147.935 130.657 148.026 131.261 148.026 131.875C148.026 132.931 147.789 133.863 147.315 134.671C146.841 135.479 146.211 136.152 145.424 136.691C144.638 137.23 143.738 137.639 142.725 137.919C141.723 138.189 140.689 138.323 139.622 138.323C138.555 138.323 137.516 138.189 136.503 137.919C135.49 137.639 134.59 137.23 133.804 136.691C133.017 136.152 132.387 135.479 131.913 134.671C131.439 133.863 131.202 132.931 131.202 131.875C131.202 131.261 131.288 130.657 131.46 130.065C131.643 129.461 131.924 128.896 132.301 128.368C132.689 127.84 133.173 127.371 133.755 126.961C134.348 126.541 135.054 126.218 135.872 125.992C135.14 125.755 134.52 125.448 134.014 125.071C133.518 124.693 133.114 124.273 132.802 123.81C132.5 123.336 132.279 122.84 132.139 122.323C132.01 121.795 131.945 121.273 131.945 120.755C131.945 119.753 132.161 118.864 132.592 118.089C133.023 117.313 133.594 116.666 134.305 116.149C135.016 115.621 135.829 115.223 136.745 114.953C137.672 114.673 138.631 114.533 139.622 114.533ZM134.79 120.982C134.79 121.617 134.924 122.188 135.194 122.695C135.463 123.19 135.819 123.611 136.26 123.955C136.702 124.289 137.214 124.548 137.796 124.731C138.378 124.904 138.986 124.99 139.622 124.99C140.247 124.99 140.85 124.904 141.432 124.731C142.014 124.548 142.526 124.289 142.968 123.955C143.42 123.611 143.781 123.19 144.05 122.695C144.32 122.188 144.454 121.617 144.454 120.982C144.454 120.346 144.32 119.78 144.05 119.285C143.781 118.789 143.42 118.374 142.968 118.04C142.526 117.695 142.014 117.437 141.432 117.264C140.85 117.081 140.247 116.99 139.622 116.99C138.986 116.99 138.378 117.081 137.796 117.264C137.214 117.437 136.702 117.695 136.26 118.04C135.819 118.374 135.463 118.789 135.194 119.285C134.924 119.78 134.79 120.346 134.79 120.982ZM134.095 131.648C134.095 132.37 134.246 132.995 134.547 133.523C134.849 134.051 135.253 134.493 135.759 134.848C136.266 135.193 136.853 135.452 137.521 135.624C138.189 135.797 138.889 135.883 139.622 135.883C140.344 135.883 141.039 135.797 141.707 135.624C142.375 135.452 142.962 135.193 143.469 134.848C143.986 134.493 144.395 134.051 144.697 133.523C144.999 132.995 145.149 132.37 145.149 131.648C145.149 130.927 144.999 130.302 144.697 129.774C144.395 129.246 143.986 128.809 143.469 128.465C142.962 128.109 142.375 127.845 141.707 127.673C141.039 127.5 140.344 127.414 139.622 127.414C138.889 127.414 138.189 127.5 137.521 127.673C136.853 127.845 136.266 128.109 135.759 128.465C135.253 128.809 134.849 129.246 134.547 129.774C134.246 130.302 134.095 130.927 134.095 131.648ZM168.131 125.749C168.131 126.794 168.056 127.834 167.905 128.869C167.765 129.903 167.539 130.889 167.226 131.826C166.925 132.753 166.531 133.62 166.047 134.428C165.562 135.226 164.975 135.915 164.285 136.497C163.606 137.079 162.82 137.537 161.925 137.871C161.042 138.205 160.04 138.372 158.919 138.372C158.111 138.372 157.357 138.275 156.657 138.081C155.967 137.898 155.331 137.639 154.749 137.305C154.168 136.971 153.65 136.578 153.198 136.125C152.745 135.673 152.358 135.182 152.034 134.655L154.814 133.798C155.353 134.541 155.956 135.096 156.624 135.463C157.292 135.829 158.057 136.012 158.919 136.012C159.663 136.012 160.331 135.894 160.923 135.657C161.527 135.409 162.06 135.075 162.523 134.655C162.997 134.224 163.401 133.717 163.735 133.135C164.08 132.553 164.366 131.918 164.592 131.228C164.818 130.539 164.991 129.811 165.109 129.046C165.228 128.281 165.298 127.506 165.319 126.719H165.255C165.05 127.118 164.754 127.511 164.366 127.899C163.989 128.287 163.531 128.637 162.992 128.949C162.464 129.251 161.861 129.499 161.182 129.693C160.514 129.887 159.792 129.984 159.016 129.984C157.917 129.984 156.904 129.795 155.978 129.418C155.062 129.03 154.27 128.502 153.602 127.834C152.934 127.155 152.411 126.353 152.034 125.426C151.668 124.499 151.485 123.492 151.485 122.404C151.485 121.294 151.679 120.26 152.067 119.301C152.465 118.342 153.015 117.507 153.715 116.796C154.415 116.085 155.256 115.524 156.236 115.115C157.217 114.705 158.289 114.501 159.453 114.501C160.681 114.501 161.823 114.732 162.879 115.196C163.935 115.659 164.851 116.343 165.626 117.248C166.402 118.153 167.011 119.274 167.453 120.61C167.905 121.935 168.131 123.46 168.131 125.184V125.749ZM164.818 122.307C164.818 121.51 164.684 120.777 164.414 120.109C164.156 119.441 163.789 118.87 163.315 118.396C162.852 117.911 162.297 117.539 161.651 117.281C161.015 117.011 160.315 116.876 159.55 116.876C158.806 116.876 158.117 117.006 157.481 117.264C156.845 117.512 156.296 117.868 155.832 118.331C155.38 118.794 155.019 119.355 154.749 120.012C154.491 120.669 154.362 121.402 154.362 122.21C154.362 123.029 154.491 123.772 154.749 124.44C155.008 125.108 155.369 125.679 155.832 126.153C156.296 126.617 156.845 126.978 157.481 127.236C158.117 127.484 158.817 127.608 159.582 127.608C160.358 127.608 161.063 127.484 161.699 127.236C162.346 126.978 162.895 126.617 163.348 126.153C163.811 125.69 164.172 125.135 164.43 124.489C164.689 123.831 164.818 123.104 164.818 122.307ZM180.511 135.818C181.266 135.818 181.966 135.619 182.612 135.22C183.27 134.822 183.83 134.25 184.293 133.507C184.767 132.753 185.139 131.832 185.408 130.743C185.678 129.644 185.813 128.4 185.813 127.01V125.846C185.813 124.456 185.678 123.217 185.408 122.129C185.139 121.041 184.767 120.12 184.293 119.365C183.83 118.611 183.27 118.04 182.612 117.652C181.966 117.254 181.266 117.054 180.511 117.054C179.746 117.054 179.041 117.254 178.394 117.652C177.748 118.04 177.187 118.611 176.713 119.365C176.25 120.12 175.884 121.041 175.614 122.129C175.345 123.217 175.21 124.456 175.21 125.846V127.01C175.21 128.4 175.345 129.644 175.614 130.743C175.884 131.832 176.25 132.753 176.713 133.507C177.187 134.25 177.748 134.822 178.394 135.22C179.041 135.619 179.746 135.818 180.511 135.818ZM180.511 114.533C181.503 114.533 182.397 114.689 183.194 115.002C183.992 115.314 184.692 115.745 185.295 116.295C185.909 116.833 186.432 117.48 186.863 118.234C187.305 118.988 187.666 119.807 187.946 120.691C188.226 121.563 188.431 122.49 188.56 123.471C188.689 124.451 188.754 125.442 188.754 126.444C188.754 127.446 188.689 128.438 188.56 129.418C188.431 130.388 188.226 131.314 187.946 132.198C187.666 133.071 187.305 133.884 186.863 134.638C186.432 135.382 185.909 136.028 185.295 136.578C184.692 137.127 183.992 137.558 183.194 137.871C182.397 138.172 181.503 138.323 180.511 138.323C179.52 138.323 178.626 138.172 177.829 137.871C177.031 137.558 176.326 137.127 175.711 136.578C175.108 136.028 174.585 135.382 174.144 134.638C173.713 133.884 173.357 133.071 173.077 132.198C172.797 131.314 172.592 130.388 172.463 129.418C172.334 128.438 172.269 127.446 172.269 126.444C172.269 125.442 172.334 124.451 172.463 123.471C172.592 122.49 172.797 121.563 173.077 120.691C173.357 119.807 173.713 118.988 174.144 118.234C174.585 117.48 175.108 116.833 175.711 116.295C176.326 115.745 177.031 115.314 177.829 115.002C178.626 114.689 179.52 114.533 180.511 114.533ZM200.504 114.824H203.494L203.122 130.162H200.811L200.504 114.824ZM200.083 136.448C200.083 136.19 200.132 135.947 200.229 135.721C200.326 135.484 200.455 135.285 200.617 135.123C200.789 134.951 200.988 134.816 201.215 134.719C201.452 134.611 201.7 134.558 201.958 134.558C202.217 134.558 202.459 134.611 202.685 134.719C202.922 134.816 203.122 134.951 203.283 135.123C203.456 135.285 203.591 135.484 203.687 135.721C203.795 135.947 203.849 136.19 203.849 136.448C203.849 136.707 203.795 136.955 203.687 137.192C203.591 137.418 203.456 137.618 203.283 137.79C203.122 137.952 202.922 138.081 202.685 138.178C202.459 138.275 202.217 138.323 201.958 138.323C201.7 138.323 201.452 138.275 201.215 138.178C200.988 138.081 200.789 137.952 200.617 137.79C200.455 137.618 200.326 137.418 200.229 137.192C200.132 136.955 200.083 136.707 200.083 136.448ZM227.542 135.786C227.295 136.131 227.02 136.454 226.718 136.756C226.427 137.057 226.077 137.327 225.668 137.564C225.269 137.801 224.8 137.984 224.261 138.113C223.723 138.253 223.092 138.323 222.371 138.323C221.304 138.323 220.329 138.113 219.445 137.693C218.562 137.262 217.802 136.669 217.166 135.915C216.542 135.15 216.057 134.245 215.712 133.2C215.367 132.155 215.195 131.007 215.195 129.757C215.195 128.508 215.356 127.36 215.68 126.315C216.014 125.259 216.488 124.349 217.102 123.584C217.716 122.819 218.454 122.226 219.316 121.806C220.178 121.375 221.142 121.159 222.209 121.159C223.276 121.159 224.224 121.359 225.053 121.757C225.894 122.156 226.556 122.695 227.041 123.374V121.483H229.757V133.895C229.757 134.164 229.789 134.439 229.853 134.719C229.929 134.999 230.047 135.258 230.209 135.495C230.371 135.721 230.581 135.91 230.839 136.061C231.109 136.211 231.432 136.287 231.809 136.287C232.326 136.287 232.816 136.12 233.28 135.786C233.743 135.452 234.147 134.978 234.492 134.364C234.837 133.739 235.106 132.99 235.3 132.117C235.505 131.244 235.607 130.269 235.607 129.192C235.607 127.328 235.289 125.631 234.654 124.101C234.029 122.56 233.156 121.24 232.035 120.141C230.926 119.042 229.611 118.191 228.092 117.588C226.583 116.984 224.94 116.683 223.162 116.683C221.977 116.683 220.841 116.839 219.752 117.151C218.675 117.453 217.662 117.884 216.714 118.444C215.777 118.994 214.92 119.662 214.144 120.448C213.379 121.224 212.722 122.091 212.172 123.05C211.634 123.998 211.214 125.022 210.912 126.121C210.61 127.209 210.459 128.346 210.459 129.531C210.459 130.706 210.61 131.842 210.912 132.941C211.214 134.04 211.634 135.064 212.172 136.012C212.722 136.96 213.379 137.828 214.144 138.614C214.92 139.401 215.777 140.074 216.714 140.634C217.662 141.195 218.675 141.626 219.752 141.927C220.841 142.24 221.977 142.396 223.162 142.396C224.197 142.396 225.188 142.277 226.136 142.04C227.084 141.814 227.989 141.491 228.851 141.071L230.29 142.8C229.212 143.371 228.06 143.791 226.831 144.061C225.614 144.341 224.348 144.481 223.033 144.481C221.643 144.481 220.307 144.303 219.025 143.948C217.754 143.603 216.563 143.107 215.453 142.461C214.344 141.814 213.336 141.038 212.431 140.133C211.537 139.228 210.766 138.221 210.12 137.111C209.473 136.001 208.972 134.811 208.617 133.539C208.272 132.257 208.1 130.921 208.1 129.531C208.1 128.141 208.283 126.805 208.649 125.523C209.015 124.241 209.527 123.045 210.185 121.935C210.842 120.825 211.634 119.818 212.56 118.913C213.487 117.997 214.511 117.216 215.631 116.569C216.762 115.923 217.969 115.422 219.251 115.066C220.533 114.711 221.87 114.533 223.259 114.533C224.649 114.533 225.975 114.695 227.235 115.018C228.507 115.341 229.686 115.804 230.775 116.408C231.863 117.011 232.849 117.744 233.732 118.606C234.627 119.468 235.386 120.443 236.011 121.531C236.636 122.619 237.116 123.81 237.45 125.103C237.794 126.385 237.967 127.748 237.967 129.192C237.967 129.914 237.913 130.641 237.805 131.374C237.697 132.096 237.525 132.796 237.288 133.475C237.062 134.143 236.776 134.773 236.431 135.366C236.087 135.958 235.677 136.475 235.203 136.917C234.74 137.348 234.206 137.693 233.603 137.952C233 138.199 232.332 138.323 231.599 138.323C230.888 138.323 230.284 138.226 229.789 138.032C229.304 137.838 228.9 137.607 228.577 137.337C228.264 137.057 228.027 136.777 227.866 136.497C227.704 136.206 227.596 135.969 227.542 135.786ZM218.007 129.822C218.007 130.684 218.109 131.487 218.314 132.23C218.519 132.974 218.815 133.62 219.203 134.17C219.601 134.708 220.092 135.134 220.674 135.446C221.266 135.759 221.945 135.915 222.71 135.915C223.432 135.915 224.062 135.791 224.601 135.543C225.15 135.296 225.608 134.956 225.975 134.525C226.341 134.094 226.616 133.588 226.799 133.006C226.982 132.413 227.074 131.772 227.074 131.083V128.4C227.074 127.71 226.982 127.075 226.799 126.493C226.616 125.9 226.341 125.388 225.975 124.957C225.608 124.526 225.15 124.187 224.601 123.939C224.062 123.691 223.432 123.567 222.71 123.567C221.945 123.567 221.266 123.724 220.674 124.036C220.092 124.349 219.601 124.78 219.203 125.329C218.815 125.868 218.519 126.509 218.314 127.252C218.109 127.996 218.007 128.799 218.007 129.66V129.822ZM254.371 119.075C253.994 118.471 253.45 117.981 252.739 117.604C252.028 117.216 251.203 117.022 250.266 117.022C249.598 117.022 249.005 117.14 248.488 117.378C247.971 117.615 247.535 117.954 247.179 118.396C246.823 118.827 246.554 119.349 246.371 119.963C246.188 120.567 246.096 121.24 246.096 121.984V125.555L251.462 125.523V127.899H246.096V135.543H256.424V138H241.538V135.543H243.252V127.899H241.538V125.523H243.252V121.854C243.252 120.691 243.419 119.656 243.753 118.751C244.087 117.846 244.561 117.081 245.175 116.456C245.789 115.831 246.527 115.357 247.389 115.034C248.251 114.7 249.21 114.533 250.266 114.533C251.688 114.533 252.916 114.797 253.951 115.325C254.985 115.842 255.831 116.548 256.488 117.442L254.371 119.075ZM277.628 114.824H280.278L266.169 138H263.519L277.628 114.824ZM265.668 125.426C264.903 125.426 264.187 125.286 263.519 125.006C262.861 124.726 262.279 124.343 261.773 123.858C261.277 123.363 260.884 122.781 260.593 122.113C260.313 121.445 260.173 120.728 260.173 119.963C260.173 119.198 260.313 118.487 260.593 117.83C260.884 117.162 261.277 116.586 261.773 116.101C262.279 115.616 262.861 115.233 263.519 114.953C264.187 114.673 264.903 114.533 265.668 114.533C266.444 114.533 267.166 114.673 267.834 114.953C268.502 115.233 269.084 115.616 269.579 116.101C270.086 116.586 270.479 117.162 270.759 117.83C271.05 118.487 271.195 119.198 271.195 119.963C271.195 120.728 271.05 121.445 270.759 122.113C270.479 122.781 270.086 123.363 269.579 123.858C269.084 124.343 268.502 124.726 267.834 125.006C267.166 125.286 266.444 125.426 265.668 125.426ZM265.668 116.876C265.226 116.876 264.822 116.952 264.456 117.103C264.1 117.254 263.793 117.469 263.535 117.749C263.276 118.019 263.077 118.342 262.937 118.719C262.797 119.096 262.727 119.511 262.727 119.963C262.727 120.405 262.797 120.82 262.937 121.208C263.077 121.585 263.276 121.914 263.535 122.194C263.793 122.463 264.1 122.679 264.456 122.84C264.822 122.991 265.226 123.066 265.668 123.066C266.121 123.066 266.53 122.991 266.896 122.84C267.274 122.679 267.591 122.463 267.85 122.194C268.109 121.914 268.308 121.585 268.448 121.208C268.588 120.82 268.658 120.405 268.658 119.963C268.658 119.511 268.588 119.096 268.448 118.719C268.308 118.342 268.109 118.019 267.85 117.749C267.591 117.469 267.274 117.254 266.896 117.103C266.53 116.952 266.121 116.876 265.668 116.876ZM278.29 138.323C277.525 138.323 276.809 138.183 276.141 137.903C275.473 137.623 274.891 137.24 274.395 136.756C273.9 136.26 273.507 135.683 273.216 135.026C272.936 134.358 272.795 133.642 272.795 132.877C272.795 132.112 272.936 131.401 273.216 130.743C273.507 130.075 273.9 129.499 274.395 129.014C274.891 128.529 275.473 128.147 276.141 127.867C276.809 127.586 277.525 127.446 278.29 127.446C279.055 127.446 279.772 127.586 280.44 127.867C281.119 128.147 281.706 128.529 282.202 129.014C282.708 129.499 283.101 130.075 283.381 130.743C283.672 131.401 283.818 132.112 283.818 132.877C283.818 133.642 283.672 134.358 283.381 135.026C283.101 135.683 282.708 136.26 282.202 136.756C281.706 137.24 281.119 137.623 280.44 137.903C279.772 138.183 279.055 138.323 278.29 138.323ZM278.29 129.79C277.838 129.79 277.429 129.865 277.062 130.016C276.707 130.167 276.4 130.382 276.141 130.663C275.882 130.932 275.683 131.255 275.543 131.632C275.403 132.009 275.333 132.424 275.333 132.877C275.333 133.318 275.403 133.733 275.543 134.121C275.683 134.498 275.882 134.827 276.141 135.107C276.4 135.376 276.707 135.592 277.062 135.754C277.429 135.904 277.838 135.98 278.29 135.98C278.743 135.98 279.152 135.904 279.519 135.754C279.885 135.592 280.198 135.376 280.456 135.107C280.715 134.827 280.914 134.498 281.054 134.121C281.194 133.733 281.264 133.318 281.264 132.877C281.264 132.424 281.194 132.009 281.054 131.632C280.914 131.255 280.715 130.932 280.456 130.663C280.198 130.382 279.885 130.167 279.519 130.016C279.152 129.865 278.743 129.79 278.29 129.79ZM289.749 131.616C289.749 132.209 289.857 132.764 290.072 133.281C290.299 133.798 290.606 134.245 290.994 134.622C291.392 134.999 291.861 135.301 292.4 135.527C292.949 135.743 293.547 135.85 294.194 135.85C294.786 135.85 295.32 135.775 295.794 135.624C296.279 135.473 296.688 135.306 297.022 135.123C297.367 134.94 297.636 134.768 297.83 134.606C298.035 134.444 298.153 134.353 298.186 134.331L292.933 126.654C292.513 126.935 292.109 127.242 291.721 127.576C291.333 127.899 290.994 128.265 290.703 128.675C290.412 129.073 290.18 129.515 290.008 130C289.835 130.485 289.749 131.023 289.749 131.616ZM292.367 119.559C292.367 120.141 292.497 120.734 292.755 121.337C293.014 121.941 293.391 122.609 293.887 123.341C294.501 122.996 295.034 122.668 295.487 122.355C295.939 122.032 296.311 121.714 296.602 121.402C296.904 121.079 297.124 120.75 297.264 120.416C297.415 120.082 297.491 119.721 297.491 119.333C297.491 118.934 297.421 118.584 297.281 118.283C297.141 117.981 296.952 117.728 296.715 117.523C296.489 117.307 296.225 117.146 295.923 117.038C295.621 116.93 295.309 116.876 294.986 116.876C294.641 116.876 294.312 116.936 294 117.054C293.687 117.173 293.407 117.345 293.159 117.571C292.922 117.798 292.728 118.078 292.578 118.412C292.437 118.746 292.367 119.128 292.367 119.559ZM286.872 131.551C286.872 130.808 286.969 130.118 287.163 129.483C287.368 128.836 287.67 128.233 288.068 127.673C288.467 127.112 288.963 126.579 289.555 126.073C290.148 125.566 290.832 125.076 291.608 124.602L290.881 123.374C290.482 122.706 290.18 122.07 289.975 121.466C289.782 120.852 289.685 120.238 289.685 119.624C289.685 118.924 289.814 118.266 290.072 117.652C290.342 117.027 290.708 116.489 291.171 116.036C291.646 115.573 292.211 115.206 292.868 114.937C293.526 114.668 294.242 114.533 295.018 114.533C295.718 114.533 296.381 114.646 297.006 114.872C297.631 115.099 298.175 115.422 298.638 115.842C299.102 116.252 299.468 116.758 299.737 117.361C300.007 117.954 300.141 118.622 300.141 119.365C300.141 120.098 300.007 120.745 299.737 121.305C299.479 121.865 299.128 122.377 298.687 122.84C298.245 123.304 297.722 123.734 297.119 124.133C296.526 124.521 295.901 124.909 295.244 125.297L300.077 132.311C300.368 131.945 300.637 131.503 300.885 130.986C301.143 130.458 301.37 129.924 301.563 129.386C301.768 128.847 301.941 128.341 302.081 127.867C302.232 127.382 302.339 126.999 302.404 126.719H305.248C305.184 127.215 305.049 127.797 304.844 128.465C304.65 129.133 304.397 129.822 304.085 130.533C303.783 131.244 303.433 131.95 303.034 132.65C302.636 133.351 302.205 133.976 301.741 134.525L301.838 134.655C302 134.881 302.156 135.069 302.307 135.22C302.458 135.371 302.609 135.495 302.759 135.592C302.921 135.678 303.088 135.743 303.26 135.786C303.444 135.829 303.643 135.85 303.858 135.85C303.966 135.85 304.085 135.845 304.214 135.834C304.354 135.813 304.489 135.797 304.618 135.786C304.747 135.764 304.861 135.748 304.957 135.737C305.065 135.716 305.141 135.7 305.184 135.689L305.248 138.129C304.882 138.183 304.537 138.226 304.214 138.259C303.902 138.302 303.573 138.323 303.228 138.323C302.582 138.323 301.978 138.221 301.418 138.016C300.869 137.822 300.378 137.45 299.947 136.901L299.543 136.416C298.046 137.688 296.192 138.323 293.984 138.323C293.057 138.323 292.163 138.167 291.301 137.855C290.45 137.531 289.695 137.079 289.038 136.497C288.381 135.904 287.853 135.193 287.454 134.364C287.066 133.523 286.872 132.586 286.872 131.551ZM316.222 114.824L315.818 119.996L320.392 117.846L321.378 120.432L316.384 121.709L320.198 125.749L318.21 127.446L314.865 122.97L311.552 127.446L309.564 125.749L313.378 121.709L308.351 120.432L309.37 117.846L313.911 119.996L313.507 114.824H316.222ZM329.103 130.162V129.822C329.103 128.885 329.222 128.082 329.459 127.414C329.707 126.735 330.008 126.148 330.364 125.652C330.73 125.146 331.123 124.699 331.544 124.311C331.975 123.912 332.368 123.519 332.723 123.131C333.09 122.732 333.392 122.312 333.629 121.87C333.876 121.429 334 120.901 334 120.287C334 119.856 333.919 119.446 333.758 119.058C333.607 118.67 333.381 118.336 333.079 118.056C332.788 117.765 332.427 117.539 331.996 117.378C331.576 117.205 331.097 117.119 330.558 117.119C330.105 117.119 329.669 117.173 329.249 117.281C328.839 117.378 328.446 117.512 328.069 117.685C327.703 117.857 327.358 118.056 327.035 118.283C326.711 118.509 326.426 118.746 326.178 118.994L324.303 117.087C324.67 116.666 325.09 116.3 325.564 115.988C326.049 115.664 326.571 115.395 327.131 115.18C327.692 114.964 328.274 114.802 328.877 114.695C329.48 114.587 330.084 114.533 330.687 114.533C331.56 114.533 332.384 114.668 333.16 114.937C333.936 115.196 334.614 115.573 335.196 116.068C335.778 116.553 336.236 117.151 336.57 117.862C336.904 118.563 337.071 119.349 337.071 120.222C337.071 120.912 336.985 121.515 336.812 122.032C336.651 122.549 336.441 123.013 336.182 123.422C335.924 123.821 335.633 124.187 335.309 124.521C334.986 124.855 334.668 125.178 334.356 125.491C334.011 125.836 333.693 126.159 333.402 126.46C333.111 126.762 332.858 127.08 332.643 127.414C332.427 127.737 332.255 128.098 332.126 128.497C332.007 128.896 331.948 129.359 331.948 129.887V130.162H329.103ZM328.538 136.448C328.538 136.19 328.586 135.947 328.683 135.721C328.78 135.484 328.909 135.285 329.071 135.123C329.243 134.951 329.443 134.816 329.669 134.719C329.906 134.611 330.159 134.558 330.429 134.558C330.687 134.558 330.93 134.611 331.156 134.719C331.382 134.816 331.576 134.951 331.738 135.123C331.91 135.285 332.045 135.484 332.142 135.721C332.249 135.947 332.303 136.19 332.303 136.448C332.303 136.707 332.249 136.955 332.142 137.192C332.045 137.418 331.91 137.618 331.738 137.79C331.576 137.952 331.382 138.081 331.156 138.178C330.93 138.275 330.687 138.323 330.429 138.323C330.159 138.323 329.906 138.275 329.669 138.178C329.443 138.081 329.243 137.952 329.071 137.79C328.909 137.618 328.78 137.418 328.683 137.192C328.586 136.955 328.538 136.707 328.538 136.448ZM343.002 129.256C343.002 130.711 343.169 132.09 343.503 133.394C343.848 134.687 344.338 135.904 344.974 137.046C345.61 138.189 346.386 139.25 347.301 140.23C348.217 141.222 349.252 142.121 350.405 142.929L349.015 144.82L348.19 144.222C346.714 143.166 345.454 142.051 344.408 140.877C343.374 139.713 342.523 138.501 341.855 137.24C341.198 135.98 340.713 134.676 340.4 133.329C340.099 131.972 339.948 130.582 339.948 129.159C339.948 127.737 340.099 126.353 340.4 125.006C340.713 123.648 341.198 122.339 341.855 121.079C342.523 119.818 343.374 118.606 344.408 117.442C345.454 116.268 346.714 115.153 348.19 114.097L349.015 113.499L350.405 115.39C349.252 116.198 348.217 117.097 347.301 118.089C346.386 119.069 345.61 120.13 344.974 121.273C344.338 122.415 343.848 123.638 343.503 124.941C343.169 126.245 343.002 127.619 343.002 129.063V129.256ZM359.568 129.063C359.568 127.619 359.396 126.245 359.051 124.941C358.717 123.638 358.232 122.415 357.597 121.273C356.961 120.13 356.185 119.069 355.269 118.089C354.353 117.097 353.314 116.198 352.15 115.39L353.54 113.499L354.364 114.097C355.84 115.153 357.096 116.268 358.13 117.442C359.175 118.606 360.026 119.818 360.683 121.079C361.351 122.339 361.836 123.648 362.138 125.006C362.45 126.353 362.607 127.737 362.607 129.159C362.607 130.582 362.45 131.972 362.138 133.329C361.836 134.676 361.351 135.98 360.683 137.24C360.026 138.501 359.175 139.713 358.13 140.877C357.096 142.051 355.84 143.166 354.364 144.222L353.54 144.82L352.15 142.929C353.314 142.121 354.353 141.222 355.269 140.23C356.185 139.25 356.961 138.189 357.597 137.046C358.232 135.904 358.717 134.687 359.051 133.394C359.396 132.09 359.568 130.711 359.568 129.256V129.063ZM374.421 114.501C374.723 114.501 375.008 114.56 375.278 114.678C375.558 114.797 375.795 114.964 375.989 115.18C376.193 115.384 376.355 115.637 376.474 115.939C376.592 116.241 376.651 116.569 376.651 116.925C376.651 117.313 376.581 117.712 376.441 118.121C376.301 118.53 376.086 118.918 375.795 119.285C375.504 119.651 375.138 119.985 374.696 120.287C374.254 120.588 373.731 120.82 373.128 120.982L372.772 121.095L372.433 119.996L372.643 119.931C373.139 119.759 373.575 119.516 373.952 119.204C374.329 118.891 374.588 118.547 374.728 118.169H374.389C374.13 118.169 373.888 118.126 373.661 118.04C373.446 117.943 373.252 117.814 373.08 117.652C372.918 117.491 372.789 117.302 372.692 117.087C372.595 116.86 372.546 116.618 372.546 116.359C372.546 116.101 372.595 115.858 372.692 115.632C372.789 115.406 372.918 115.212 373.08 115.05C373.252 114.878 373.451 114.743 373.678 114.646C373.915 114.549 374.162 114.501 374.421 114.501ZM368.49 114.501C368.791 114.501 369.077 114.56 369.346 114.678C369.626 114.797 369.863 114.964 370.057 115.18C370.262 115.384 370.424 115.637 370.542 115.939C370.661 116.241 370.72 116.569 370.72 116.925C370.72 117.313 370.65 117.712 370.51 118.121C370.37 118.53 370.154 118.918 369.863 119.285C369.572 119.651 369.206 119.985 368.764 120.287C368.323 120.588 367.8 120.82 367.197 120.982L366.841 121.095L366.502 119.996L366.712 119.931C367.207 119.759 367.644 119.516 368.021 119.204C368.398 118.891 368.657 118.547 368.797 118.169H368.457C368.199 118.169 367.956 118.126 367.73 118.04C367.515 117.943 367.321 117.814 367.148 117.652C366.987 117.491 366.857 117.302 366.76 117.087C366.663 116.86 366.615 116.618 366.615 116.359C366.615 116.101 366.663 115.858 366.76 115.632C366.857 115.406 366.987 115.212 367.148 115.05C367.321 114.878 367.52 114.743 367.746 114.646C367.983 114.549 368.231 114.501 368.49 114.501ZM381.548 136.448C381.548 136.19 381.597 135.947 381.694 135.721C381.802 135.484 381.936 135.285 382.098 135.123C382.27 134.951 382.47 134.816 382.696 134.719C382.922 134.611 383.165 134.558 383.423 134.558C383.682 134.558 383.924 134.611 384.15 134.719C384.387 134.816 384.587 134.951 384.748 135.123C384.921 135.285 385.055 135.484 385.152 135.721C385.26 135.947 385.314 136.19 385.314 136.448C385.314 136.707 385.26 136.949 385.152 137.176C385.055 137.402 384.921 137.601 384.748 137.774C384.587 137.935 384.387 138.065 384.15 138.162C383.924 138.269 383.682 138.323 383.423 138.323C383.165 138.323 382.922 138.269 382.696 138.162C382.47 138.065 382.27 137.935 382.098 137.774C381.936 137.601 381.802 137.402 381.694 137.176C381.597 136.949 381.548 136.707 381.548 136.448ZM381.548 123.374C381.548 123.115 381.597 122.873 381.694 122.646C381.802 122.409 381.936 122.21 382.098 122.048C382.27 121.876 382.47 121.741 382.696 121.644C382.922 121.536 383.165 121.483 383.423 121.483C383.682 121.483 383.924 121.536 384.15 121.644C384.387 121.741 384.587 121.876 384.748 122.048C384.921 122.21 385.055 122.409 385.152 122.646C385.26 122.873 385.314 123.115 385.314 123.374C385.314 123.632 385.26 123.875 385.152 124.101C385.055 124.327 384.921 124.526 384.748 124.699C384.587 124.871 384.387 125.011 384.15 125.119C383.924 125.216 383.682 125.264 383.423 125.264C383.165 125.264 382.922 125.216 382.696 125.119C382.47 125.011 382.27 124.871 382.098 124.699C381.936 124.526 381.802 124.327 381.694 124.101C381.597 123.875 381.548 123.632 381.548 123.374ZM390.308 123.374C390.308 123.115 390.357 122.873 390.454 122.646C390.561 122.409 390.696 122.21 390.858 122.048C391.03 121.876 391.229 121.741 391.456 121.644C391.682 121.536 391.924 121.483 392.183 121.483C392.441 121.483 392.684 121.536 392.91 121.644C393.147 121.741 393.346 121.876 393.508 122.048C393.681 122.21 393.815 122.409 393.912 122.646C394.02 122.873 394.074 123.115 394.074 123.374C394.074 123.632 394.02 123.875 393.912 124.101C393.815 124.327 393.681 124.526 393.508 124.699C393.346 124.871 393.147 125.011 392.91 125.119C392.684 125.216 392.441 125.264 392.183 125.264C391.924 125.264 391.682 125.216 391.456 125.119C391.229 125.011 391.03 124.871 390.858 124.699C390.696 124.526 390.561 124.327 390.454 124.101C390.357 123.875 390.308 123.632 390.308 123.374ZM392.183 134.558C392.485 134.558 392.77 134.617 393.039 134.735C393.32 134.854 393.557 135.021 393.751 135.236C393.955 135.441 394.117 135.694 394.235 135.996C394.354 136.298 394.413 136.626 394.413 136.982C394.413 137.37 394.343 137.768 394.203 138.178C394.063 138.587 393.848 138.975 393.557 139.341C393.266 139.708 392.899 140.042 392.458 140.343C392.016 140.645 391.493 140.877 390.89 141.038L390.534 141.152L390.195 140.053L390.405 139.988C390.901 139.816 391.337 139.573 391.714 139.261C392.091 138.948 392.35 138.603 392.49 138.226H392.151C391.892 138.226 391.65 138.178 391.423 138.081C391.208 137.995 391.014 137.871 390.841 137.709C390.68 137.547 390.551 137.359 390.454 137.143C390.357 136.917 390.308 136.675 390.308 136.416C390.308 136.158 390.357 135.915 390.454 135.689C390.551 135.463 390.68 135.269 390.841 135.107C391.014 134.935 391.213 134.8 391.439 134.703C391.676 134.606 391.924 134.558 392.183 134.558ZM401.201 134.558C401.503 134.558 401.788 134.617 402.058 134.735C402.338 134.854 402.575 135.021 402.769 135.236C402.974 135.441 403.135 135.694 403.254 135.996C403.372 136.298 403.431 136.626 403.431 136.982C403.431 137.37 403.361 137.768 403.221 138.178C403.081 138.587 402.866 138.975 402.575 139.341C402.284 139.708 401.918 140.042 401.476 140.343C401.034 140.645 400.512 140.877 399.908 141.038L399.553 141.152L399.213 140.053L399.423 139.988C399.919 139.816 400.355 139.573 400.732 139.261C401.11 138.948 401.368 138.603 401.508 138.226H401.169C400.91 138.226 400.668 138.178 400.442 138.081C400.226 137.995 400.032 137.871 399.86 137.709C399.698 137.547 399.569 137.359 399.472 137.143C399.375 136.917 399.326 136.675 399.326 136.416C399.326 136.158 399.375 135.915 399.472 135.689C399.569 135.463 399.698 135.269 399.86 135.107C400.032 134.935 400.231 134.8 400.458 134.703C400.695 134.606 400.943 134.558 401.201 134.558ZM408.345 136.448C408.345 136.19 408.393 135.947 408.49 135.721C408.598 135.484 408.733 135.285 408.894 135.123C409.067 134.951 409.266 134.816 409.492 134.719C409.718 134.611 409.961 134.558 410.219 134.558C410.478 134.558 410.72 134.611 410.947 134.719C411.184 134.816 411.383 134.951 411.545 135.123C411.717 135.285 411.852 135.484 411.949 135.721C412.057 135.947 412.11 136.19 412.11 136.448C412.11 136.707 412.057 136.949 411.949 137.176C411.852 137.402 411.717 137.601 411.545 137.774C411.383 137.935 411.184 138.065 410.947 138.162C410.72 138.269 410.478 138.323 410.219 138.323C409.961 138.323 409.718 138.269 409.492 138.162C409.266 138.065 409.067 137.935 408.894 137.774C408.733 137.601 408.598 137.402 408.49 137.176C408.393 136.949 408.345 136.707 408.345 136.448Z" fill="#0B0C0C"/>
</svg>
