<svg width="339" height="144" viewBox="0 0 339 144" fill="none" xmlns="http://www.w3.org/2000/svg">
<path d="M0.329687 0.394203H14.5184V103.262H60.7124V116H0.329687V0.394203ZM90.2184 116H76.6747V33.6087H90.2184V116ZM74.1755 9.82647C74.1755 8.53659 74.4174 7.32733 74.9011 6.19868C75.4385 5.07003 76.1103 4.07574 76.9165 3.21582C77.7764 2.3559 78.7707 1.68409 79.8994 1.20038C81.0818 0.662928 82.3179 0.394203 83.6078 0.394203C84.8977 0.394203 86.1069 0.662928 87.2356 1.20038C88.3642 1.68409 89.3316 2.3559 90.1378 3.21582C90.9977 4.07574 91.6696 5.07003 92.1533 6.19868C92.6907 7.32733 92.9594 8.53659 92.9594 9.82647C92.9594 11.1164 92.6907 12.3525 92.1533 13.5349C91.6696 14.6635 90.9977 15.6578 90.1378 16.5177C89.3316 17.3239 88.3642 17.9957 87.2356 18.5332C86.1069 19.0169 84.8977 19.2587 83.6078 19.2587C82.3179 19.2587 81.0818 19.0169 79.8994 18.5332C78.7707 17.9957 77.7764 17.3239 76.9165 16.5177C76.1103 15.6578 75.4385 14.6635 74.9011 13.5349C74.4174 12.3525 74.1755 11.1164 74.1755 9.82647ZM110.373 70.2898C110.373 64.8615 111.152 59.8095 112.711 55.1336C114.269 50.4578 116.5 46.4269 119.402 43.041C122.304 39.6013 125.798 36.914 129.882 34.9792C134.021 32.9906 138.643 31.9963 143.749 31.9963C148.263 31.9963 152.563 32.8831 156.647 34.6567C160.732 36.3766 164.199 39.1713 167.047 43.041V33.6087H180.591V116C180.591 121.106 179.543 125.379 177.447 128.818C175.404 132.312 172.717 135.106 169.385 137.202C166.053 139.299 162.264 140.803 158.018 141.717C153.826 142.631 149.553 143.088 145.2 143.088C142.781 143.088 140.255 142.953 137.622 142.684C135.042 142.416 132.435 142.013 129.802 141.475C127.168 140.938 124.562 140.239 121.982 139.379C119.456 138.573 117.037 137.606 114.726 136.477L119.644 125.11C121.256 125.862 122.949 126.588 124.723 127.286C126.496 128.039 128.404 128.711 130.447 129.302C132.543 129.893 134.773 130.377 137.138 130.753C139.503 131.129 142.082 131.317 144.877 131.317C148.317 131.317 151.407 130.968 154.148 130.269C156.943 129.571 159.281 128.469 161.162 126.964C163.043 125.513 164.494 123.632 165.515 121.321C166.537 119.063 167.047 116.349 167.047 113.178V97.5385C164.199 101.408 160.732 104.23 156.647 106.003C152.563 107.723 148.263 108.583 143.749 108.583C138.643 108.583 134.021 107.616 129.882 105.681C125.798 103.692 122.304 100.978 119.402 97.5385C116.5 94.0989 114.269 90.068 112.711 85.4459C111.152 80.7701 110.373 75.718 110.373 70.2898ZM167.37 69.9673C167.37 66.2589 166.966 62.8461 166.16 59.7288C165.354 56.5579 164.091 53.8169 162.371 51.5058C160.651 49.141 158.448 47.3137 155.761 46.0238C153.127 44.6802 149.956 44.0084 146.248 44.0084C142.486 44.0084 139.234 44.6802 136.493 46.0238C133.752 47.3675 131.468 49.2217 129.64 51.5864C127.867 53.8975 126.55 56.6385 125.69 59.8095C124.83 62.9804 124.4 66.3664 124.4 69.9673V70.6122C124.4 74.2132 124.83 77.5991 125.69 80.7701C126.55 83.8873 127.867 86.6283 129.64 88.9931C131.468 91.3041 133.752 93.1314 136.493 94.4751C139.234 95.8187 142.486 96.4905 146.248 96.4905C149.956 96.4905 153.127 95.8456 155.761 94.5557C158.448 93.2121 160.651 91.3847 162.371 89.0737C164.091 86.7626 165.354 84.0216 166.16 80.8507C166.966 77.6797 167.37 74.2669 167.37 70.6122V69.9673ZM205.341 0.394203H218.884V43.041C221.679 39.2251 225.119 36.4303 229.203 34.6567C233.342 32.8831 237.937 31.9963 242.989 31.9963C247.557 31.9963 251.561 32.7488 255.001 34.2536C258.441 35.7585 261.316 37.8008 263.627 40.3806C265.938 42.9604 267.658 45.9432 268.787 49.3292C269.969 52.7151 270.56 56.2891 270.56 60.0513V116H257.016V64.324C257.016 60.7231 256.56 57.6596 255.646 55.1336C254.786 52.5539 253.577 50.4847 252.018 48.9261C250.513 47.3137 248.713 46.1582 246.617 45.4595C244.574 44.7071 242.371 44.3309 240.006 44.3309C237.426 44.3309 234.873 44.8146 232.347 45.782C229.821 46.6956 227.564 48.093 225.576 49.9741C223.587 51.8552 221.975 54.22 220.739 57.0685C219.502 59.9169 218.884 63.276 218.884 67.1457V116H205.341V0.394203ZM315.948 95.5231C315.948 96.9205 316.029 98.2372 316.19 99.4734C316.405 100.656 316.862 101.704 317.56 102.617C318.313 103.531 319.388 104.257 320.785 104.794C322.182 105.332 324.09 105.6 326.509 105.6C327.154 105.6 327.906 105.573 328.766 105.52C329.68 105.466 330.62 105.412 331.588 105.358C332.555 105.251 333.496 105.143 334.409 105.036C335.323 104.875 336.102 104.74 336.747 104.633L338.199 116.484C336.64 116.699 335.028 116.887 333.361 117.048C331.964 117.209 330.405 117.344 328.686 117.451C326.966 117.559 325.246 117.612 323.526 117.612C320.248 117.612 317.292 117.263 314.658 116.564C312.078 115.919 309.875 114.844 308.047 113.34C306.22 111.835 304.823 109.873 303.855 107.455C302.888 104.982 302.404 101.999 302.404 98.506V45.5401H286.845V33.6087H302.404V6.68238L315.948 1.92594V33.6087H338.843V45.5401H315.948V95.5231Z" fill="#0B0C0C"/>
</svg>
