<svg width="480" height="220" viewBox="0 0 480 220" fill="none" xmlns="http://www.w3.org/2000/svg">
<g clip-path="url(#clip0_1388_805)">
<rect width="480" height="220" fill="white"/>
<rect opacity="0.8" width="480" height="220" fill="white"/>
<path d="M250.119 121.388C254.049 121.388 257.694 121.978 261.056 123.157C264.417 124.292 267.343 125.929 269.831 128.068C272.32 130.207 274.263 132.805 275.66 135.861C277.057 138.874 277.755 142.235 277.755 145.946C277.755 147.867 277.471 149.767 276.904 151.644C276.38 153.521 275.594 155.289 274.546 156.948C273.498 158.564 272.232 160.048 270.748 161.402C269.264 162.755 267.583 163.868 265.705 164.741C267.233 165.265 269.002 166.051 271.01 167.099C273.062 168.147 275.005 169.588 276.838 171.421C278.672 173.255 280.222 175.525 281.488 178.232C282.754 180.895 283.387 184.126 283.387 187.924C283.387 192.683 282.47 196.787 280.637 200.236C278.847 203.685 276.402 206.523 273.302 208.749C270.246 210.976 266.644 212.635 262.496 213.727C258.393 214.775 254.049 215.298 249.464 215.298H208.338V121.388H250.119ZM263.937 187.269C263.937 184.737 263.479 182.663 262.562 181.048C261.645 179.433 260.423 178.145 258.895 177.184C257.41 176.224 255.708 175.569 253.787 175.22C251.866 174.827 249.901 174.63 247.893 174.63H227.329V200.301H247.893C249.901 200.301 251.866 200.105 253.787 199.712C255.708 199.319 257.41 198.621 258.895 197.617C260.423 196.612 261.645 195.281 262.562 193.622C263.479 191.963 263.937 189.845 263.937 187.269ZM258.633 147.846C258.633 144.266 257.498 141.471 255.227 139.463C252.957 137.455 249.29 136.451 244.225 136.451H227.329V158.586H244.225C249.202 158.586 252.848 157.647 255.162 155.77C257.476 153.849 258.633 151.207 258.633 147.846ZM326.478 143.785C331.674 143.785 336.389 144.724 340.623 146.601C344.859 148.435 348.482 150.989 351.495 154.263C354.507 157.538 356.821 161.402 358.436 165.855C360.096 170.308 360.925 175.11 360.925 180.262C360.925 185.458 360.096 190.282 358.436 194.735C356.777 199.145 354.442 202.965 351.429 206.195C348.417 209.426 344.793 211.98 340.558 213.857C336.323 215.691 331.63 216.608 326.478 216.608C321.283 216.608 316.568 215.691 312.333 213.857C308.098 211.98 304.474 209.426 301.462 206.195C298.45 202.965 296.114 199.145 294.455 194.735C292.796 190.282 291.966 185.458 291.966 180.262C291.966 175.11 292.774 170.308 294.389 165.855C296.049 161.402 298.384 157.538 301.396 154.263C304.409 150.989 308.033 148.435 312.268 146.601C316.546 144.724 321.283 143.785 326.478 143.785ZM326.478 199.843C329.054 199.843 331.325 199.363 333.289 198.402C335.297 197.442 336.979 196.11 338.332 194.408C339.685 192.705 340.711 190.675 341.41 188.317C342.108 185.916 342.458 183.296 342.458 180.459V180C342.458 177.162 342.108 174.565 341.41 172.207C340.711 169.806 339.685 167.754 338.332 166.051C336.979 164.305 335.297 162.951 333.289 161.991C331.325 161.03 329.054 160.55 326.478 160.55C323.902 160.55 321.61 161.03 319.602 161.991C317.638 162.951 315.978 164.305 314.625 166.051C313.272 167.754 312.246 169.806 311.547 172.207C310.848 174.565 310.499 177.162 310.499 180V180.459C310.499 183.296 310.848 185.916 311.547 188.317C312.246 190.675 313.272 192.705 314.625 194.408C315.978 196.11 317.638 197.442 319.602 198.402C321.61 199.363 323.902 199.843 326.478 199.843ZM372.647 121.388H390.722V196.241C390.722 197.726 391.137 198.861 391.967 199.647C392.84 200.432 394.215 200.825 396.092 200.825C396.965 200.825 397.707 200.782 398.319 200.694C398.974 200.563 399.803 200.389 400.807 200.171L402.248 215.56C401.026 215.735 399.715 215.909 398.319 216.084C397.14 216.215 395.764 216.324 394.193 216.411C392.665 216.542 391.071 216.608 389.413 216.608C386.837 216.608 384.523 216.281 382.471 215.626C380.419 214.971 378.65 214.01 377.166 212.744C375.725 211.434 374.612 209.819 373.827 207.898C373.04 205.977 372.647 203.75 372.647 201.218V121.388ZM457.258 215.298V209.273C456.297 210.321 455.228 211.303 454.049 212.221C452.914 213.094 451.626 213.857 450.185 214.512C448.788 215.168 447.238 215.67 445.536 216.019C443.877 216.411 442.021 216.608 439.969 216.608C435.341 216.608 431.106 215.691 427.265 213.857C423.422 212.024 420.126 209.492 417.376 206.261C414.625 203.03 412.486 199.188 410.958 194.735C409.473 190.282 408.732 185.458 408.732 180.262C408.732 175.067 409.473 170.242 410.958 165.789C412.442 161.336 414.516 157.494 417.179 154.263C419.886 150.989 423.139 148.435 426.937 146.601C430.735 144.724 434.949 143.785 439.576 143.785C443.68 143.785 447.151 144.506 449.989 145.946C452.87 147.343 455.293 149.09 457.258 151.185V121.388H475.333V215.298H457.258ZM457.782 173.713C457.782 171.836 457.432 170.09 456.734 168.474C456.079 166.859 455.119 165.462 453.852 164.283C452.587 163.104 451.059 162.187 449.268 161.533C447.522 160.878 445.536 160.55 443.309 160.55C440.733 160.55 438.441 161.03 436.433 161.991C434.469 162.951 432.809 164.305 431.456 166.051C430.102 167.754 429.076 169.784 428.378 172.142C427.679 174.499 427.33 177.075 427.33 179.869V180.721C427.33 183.515 427.679 186.091 428.378 188.448C429.076 190.762 430.102 192.77 431.456 194.473C432.809 196.176 434.469 197.507 436.433 198.468C438.441 199.385 440.733 199.843 443.309 199.843C445.536 199.843 447.522 199.516 449.268 198.861C451.059 198.206 452.587 197.289 453.852 196.11C455.119 194.931 456.079 193.556 456.734 191.985C457.432 190.369 457.782 188.623 457.782 186.745V173.713Z" fill="#0B0C0C"/>
<path d="M0 5H11.5259V88.5624H49.0506V98.9099H0V5ZM73.0192 98.9099H62.0172V31.9811H73.0192V98.9099ZM59.9871 12.6621C59.9871 11.6143 60.1836 10.632 60.5765 9.71514C61.013 8.79831 61.5587 7.99062 62.2136 7.29208C62.9122 6.59354 63.7199 6.04781 64.6367 5.65488C65.5972 5.21829 66.6014 5 67.6492 5C68.697 5 69.6793 5.21829 70.5962 5.65488C71.5129 6.04781 72.2988 6.59354 72.9537 7.29208C73.6522 7.99062 74.198 8.79831 74.5909 9.71514C75.0275 10.632 75.2458 11.6143 75.2458 12.6621C75.2458 13.7099 75.0275 14.7141 74.5909 15.6746C74.198 16.5914 73.6522 17.3991 72.9537 18.0976C72.2988 18.7525 71.5129 19.2982 70.5962 19.7348C69.6793 20.1277 68.697 20.3242 67.6492 20.3242C66.6014 20.3242 65.5972 20.1277 64.6367 19.7348C63.7199 19.2982 62.9122 18.7525 62.2136 18.0976C61.5587 17.3991 61.013 16.5914 60.5765 15.6746C60.1836 14.7141 59.9871 13.7099 59.9871 12.6621ZM89.3913 61.7782C89.3913 57.3686 90.0241 53.2647 91.2905 49.4664C92.5561 45.6681 94.3685 42.3937 96.7258 39.6432C99.0832 36.849 101.921 34.6661 105.239 33.0944C108.601 31.479 112.356 30.6713 116.504 30.6713C120.17 30.6713 123.663 31.3917 126.981 32.8324C130.299 34.2295 133.116 36.4997 135.429 39.6432V31.9811H146.431V98.9099C146.431 103.058 145.58 106.529 143.877 109.322C142.218 112.161 140.035 114.43 137.328 116.133C134.622 117.836 131.544 119.058 128.095 119.801C124.689 120.543 121.218 120.914 117.682 120.914C115.717 120.914 113.665 120.805 111.526 120.586C109.431 120.368 107.313 120.041 105.174 119.604C103.034 119.168 100.917 118.6 98.8216 117.901C96.7697 117.247 94.8047 116.461 92.9274 115.544L96.9224 106.31C98.2319 106.921 99.6072 107.511 101.048 108.078C102.488 108.69 104.038 109.235 105.698 109.715C107.401 110.196 109.212 110.589 111.133 110.894C113.054 111.2 115.149 111.352 117.42 111.352C120.214 111.352 122.724 111.069 124.951 110.501C127.221 109.934 129.121 109.039 130.649 107.816C132.177 106.638 133.355 105.11 134.185 103.232C135.015 101.398 135.429 99.1934 135.429 96.6175V83.9131C133.116 87.0564 130.299 89.3488 126.981 90.789C123.663 92.1862 120.17 92.8848 116.504 92.8848C112.356 92.8848 108.601 92.0993 105.239 90.5275C101.921 88.9117 99.0832 86.7071 96.7258 83.9131C94.3685 81.119 92.5561 77.8446 91.2905 74.0899C90.0241 70.2916 89.3913 66.1877 89.3913 61.7782ZM135.692 61.5162C135.692 58.5038 135.363 55.7315 134.709 53.1992C134.054 50.6234 133.028 48.3968 131.631 46.5194C130.234 44.5984 128.444 43.114 126.261 42.0662C124.122 40.9748 121.546 40.4291 118.534 40.4291C115.478 40.4291 112.836 40.9748 110.609 42.0662C108.383 43.1577 106.527 44.664 105.042 46.5849C103.602 48.4622 102.532 50.6888 101.834 53.2647C101.135 55.8406 100.786 58.5911 100.786 61.5162V62.0401C100.786 64.9653 101.135 67.7157 101.834 70.2916C102.532 72.8238 103.602 75.0504 105.042 76.9714C106.527 78.8487 108.383 80.3331 110.609 81.4246C112.836 82.516 115.478 83.0618 118.534 83.0618C121.546 83.0618 124.122 82.5379 126.261 81.4901C128.444 80.3986 130.234 78.9142 131.631 77.0369C133.028 75.1595 134.054 72.9329 134.709 70.3571C135.363 67.7812 135.692 65.0089 135.692 62.0401V61.5162ZM166.537 5H177.538V39.6432C179.808 36.5434 182.603 34.2731 185.92 32.8324C189.283 31.3917 193.015 30.6713 197.119 30.6713C200.83 30.6713 204.082 31.2826 206.877 32.505C209.671 33.7274 212.007 35.3864 213.884 37.4821C215.761 39.5777 217.158 42.0007 218.076 44.7513C219.036 47.5018 219.516 50.405 219.516 53.4612V98.9099H208.514V56.932C208.514 54.0069 208.143 51.5183 207.401 49.4664C206.702 47.3708 205.72 45.6899 204.454 44.4238C203.231 43.114 201.769 42.1754 200.066 41.6078C198.407 40.9966 196.617 40.691 194.696 40.691C192.6 40.691 190.526 41.084 188.474 41.8698C186.422 42.6119 184.589 43.7471 182.974 45.2752C181.358 46.8032 180.049 48.7242 179.045 51.0381C178.04 53.352 177.538 56.0807 177.538 59.2241V98.9099H166.537V5ZM256.386 82.2759C256.386 83.4111 256.452 84.4807 256.582 85.4848C256.757 86.4455 257.128 87.2968 257.695 88.0385C258.307 88.781 259.18 89.3707 260.315 89.8069C261.45 90.244 263 90.4617 264.965 90.4617C265.489 90.4617 266.1 90.4397 266.798 90.3967C267.541 90.3528 268.304 90.309 269.091 90.2651C269.876 90.1782 270.64 90.0904 271.382 90.0035C272.125 89.8727 272.757 89.7631 273.281 89.6761L274.461 99.303C273.194 99.4777 271.885 99.6304 270.531 99.7612C269.396 99.892 268.13 100.002 266.733 100.089C265.336 100.176 263.939 100.219 262.542 100.219C259.879 100.219 257.478 99.9359 255.338 99.368C253.242 98.8441 251.452 97.9708 249.968 96.7491C248.483 95.5265 247.349 93.9327 246.562 91.9685C245.777 89.9596 245.384 87.5365 245.384 84.699V41.6733H232.745V31.9811H245.384V10.1081L256.386 6.24427V31.9811H274.984V41.6733H256.386V82.2759Z" fill="#0B0C0C"/>
</g>
<defs>
<clipPath id="clip0_1388_805">
<rect width="480" height="220" fill="white"/>
</clipPath>
</defs>
</svg>
