<svg width="657" height="95" viewBox="0 0 657 95" fill="none" xmlns="http://www.w3.org/2000/svg">
<path d="M33.8062 70.5721C36.5756 70.5721 39.0255 70.217 41.1559 69.5069C43.3217 68.7968 45.1858 67.8559 46.748 66.6842C48.3458 65.5125 49.695 64.1633 50.7957 62.6365C51.8964 61.1098 52.7663 59.5297 53.4054 57.8965C54.08 56.2277 54.5593 54.5767 54.8433 52.9434C55.1629 51.2747 55.3227 49.7302 55.3227 48.3099V45.1677H33.9127V37.2854H63.6843V77.6555H55.2162V67.3765C53.9024 69.4714 52.4112 71.2467 50.7424 72.7024C49.0737 74.1581 47.2984 75.3298 45.4166 76.2175C43.5348 77.1051 41.5464 77.7442 39.4516 78.1348C37.3923 78.5253 35.2974 78.7206 33.1671 78.7206C27.9477 78.7206 23.3142 77.7087 19.2665 75.6849C15.2189 73.6611 11.7926 70.8916 8.98762 67.3765C6.21817 63.8615 4.10557 59.725 2.64984 54.9673C1.1941 50.2095 0.46623 45.0789 0.46623 39.5755C0.46623 34.1076 1.26511 28.9948 2.86287 24.237C4.46063 19.4437 6.733 15.2895 9.67998 11.7745C12.627 8.22388 16.1775 5.43668 20.3317 3.41285C24.5214 1.35351 29.2082 0.323843 34.392 0.323843C37.5875 0.323843 40.6055 0.714406 43.446 1.49553C46.322 2.24116 48.9671 3.32408 51.3815 4.74431C53.7959 6.12904 55.9618 7.79781 57.8791 9.75063C59.7964 11.6679 61.4119 13.7983 62.7256 16.1417L54.7901 20.2959C53.8669 18.5206 52.7663 16.9228 51.4881 15.5026C50.2098 14.0468 48.7364 12.8041 47.0676 11.7745C45.3988 10.7448 43.517 9.94591 41.4222 9.37782C39.3628 8.80973 37.0905 8.52568 34.605 8.52568C30.6284 8.52568 27.1311 9.37782 24.1131 11.0821C21.0951 12.7509 18.5564 14.9877 16.4971 17.7927C14.4733 20.5976 12.9465 23.8464 11.9168 27.539C10.8872 31.1961 10.3723 34.9952 10.3723 38.9364V40.2679C10.3723 44.209 10.8339 48.0081 11.7571 51.6652C12.7157 55.3223 14.1537 58.5533 16.071 61.3583C18.0238 64.1277 20.4737 66.3646 23.4207 68.0689C26.3677 69.7377 29.8295 70.5721 33.8062 70.5721ZM139.186 39.469C139.186 45.1854 138.476 50.4048 137.056 55.127C135.636 59.8138 133.47 63.826 130.558 67.1635C127.647 70.501 123.99 73.093 119.587 74.9393C115.22 76.7501 110.071 77.6555 104.142 77.6555H79.643V1.2825H104.142C110.071 1.2825 115.22 2.20565 119.587 4.05195C123.99 5.86275 127.647 8.43692 130.558 11.7745C133.47 15.112 135.636 19.1419 137.056 23.8642C138.476 28.5509 139.186 33.7525 139.186 39.469ZM129.12 37.9777C129.12 34.0011 128.623 30.273 127.629 26.7934C126.635 23.3138 125.108 20.2959 123.049 17.7394C121.025 15.1475 118.415 13.1059 115.22 11.6147C112.06 10.1234 108.296 9.37782 103.929 9.37782H89.0165V69.5601H103.929C108.296 69.5601 112.06 68.8323 115.22 67.3765C118.415 65.8853 121.025 63.8615 123.049 61.305C125.108 58.7131 126.635 55.6774 127.629 52.1978C128.623 48.7182 129.12 44.9901 129.12 41.0135V37.9777ZM153.813 59.9736C157.151 63.7017 160.737 66.4001 164.572 68.0689C168.442 69.7377 172.489 70.5721 176.715 70.5721C179.626 70.5721 182.218 70.217 184.49 69.5069C186.798 68.7613 188.733 67.7493 190.296 66.4711C191.858 65.1929 193.03 63.7372 193.811 62.1039C194.627 60.4707 195.036 58.7486 195.036 56.9378C195.036 54.3814 194.503 52.3221 193.438 50.7598C192.373 49.1976 190.97 47.9371 189.23 46.9785C187.491 45.9843 185.467 45.2209 183.159 44.6883C180.887 44.1202 178.508 43.5876 176.022 43.0906L174.957 42.8775C173.288 42.558 171.549 42.2207 169.738 41.8656C167.962 41.5106 166.205 41.049 164.465 40.4809C162.725 39.8773 161.039 39.1672 159.406 38.3505C157.772 37.4984 156.334 36.451 155.092 35.2083C153.423 33.6815 152.038 31.8175 150.937 29.6161C149.872 27.3793 149.34 24.6276 149.34 21.361C149.34 19.0531 149.837 16.6565 150.831 14.1711C151.861 11.6857 153.476 9.41333 155.677 7.35399C157.914 5.29465 160.755 3.60813 164.199 2.29441C167.643 0.9807 171.815 0.323843 176.715 0.323843C182.147 0.323843 187.153 1.30025 191.734 3.25307C193.615 4.0697 195.408 5.04611 197.113 6.1823C198.853 7.28298 200.557 8.6677 202.226 10.3365L195.142 16.1417C192.515 13.5142 189.514 11.5969 186.141 10.3897C182.768 9.14703 179.324 8.52568 175.809 8.52568C173.288 8.52568 170.98 8.82748 168.886 9.43108C166.826 10.0347 165.051 10.9046 163.56 12.0408C162.069 13.1769 160.915 14.4907 160.098 15.9819C159.317 17.4731 158.926 19.0887 158.926 20.8284C158.926 23.2428 159.441 25.1956 160.471 26.6869C161.536 28.1781 162.921 29.3853 164.625 30.3085C166.329 31.1961 168.247 31.8885 170.377 32.3856C172.543 32.8827 174.726 33.362 176.928 33.8236L177.46 33.9301C181.011 34.6402 184.437 35.4746 187.739 36.4332C191.077 37.3564 193.97 38.6523 196.42 40.3211C198.906 41.9544 200.894 44.0315 202.385 46.5524C203.877 49.0378 204.622 52.2511 204.622 56.1922C204.622 58.9972 204.036 61.7666 202.865 64.5006C201.693 67.2345 199.935 69.6667 197.592 71.797C195.284 73.8918 192.373 75.5784 188.858 76.8566C185.343 78.0993 181.206 78.7206 176.448 78.7206C172.756 78.7206 169.347 78.3301 166.223 77.5489C163.098 76.7323 160.222 75.6849 157.595 74.4067C155.642 73.377 153.742 72.1876 151.896 70.8383C150.085 69.4891 148.275 67.8736 146.464 65.9918L153.813 59.9736ZM226.314 1.2825H278.667V9.69737H257.204V77.6555H247.777V9.69737H226.314V1.2825ZM306.716 31.2139H305.278C302.97 31.2139 300.768 31.4802 298.674 32.0128C296.579 32.5453 294.732 33.504 293.135 34.8887C291.537 36.2735 290.259 38.173 289.3 40.5874C288.341 42.9663 287.862 46.0198 287.862 49.7479V77.6555H278.915V23.2251H287.862V31.853C288.537 30.2552 289.442 28.8527 290.578 27.6455C291.714 26.4384 292.993 25.4442 294.413 24.6631C295.869 23.8464 297.413 23.2428 299.046 22.8523C300.715 22.4617 302.402 22.2664 304.106 22.2664H306.716V31.2139ZM346.215 72.2231C344.617 74.0694 342.451 75.6139 339.717 76.8566C337.019 78.0993 333.841 78.7206 330.184 78.7206C327.485 78.7206 324.982 78.3478 322.674 77.6022C320.366 76.8211 318.36 75.7204 316.656 74.3002C314.952 72.8799 313.62 71.1579 312.662 69.1341C311.703 67.1102 311.224 64.8201 311.224 62.2637C311.224 60.1333 311.561 58.1983 312.236 56.4585C312.946 54.6832 313.922 53.1387 315.165 51.825C316.443 50.5113 317.97 49.4461 319.745 48.6295C321.52 47.7773 323.509 47.1915 325.71 46.8719L344.936 44.2623V40.8004C344.936 38.7411 344.617 37.0191 343.978 35.6344C343.339 34.2141 342.469 33.0957 341.368 32.2791C340.303 31.4624 339.025 30.8766 337.533 30.5215C336.078 30.1665 334.498 29.9889 332.793 29.9889C329.74 29.9889 326.882 30.415 324.219 31.2671C321.591 32.1193 319.212 33.1134 317.082 34.2496L313.727 27.1662C316.851 25.3909 320.118 24.1127 323.526 23.3316C326.971 22.5505 330.361 22.1599 333.699 22.1599C340.338 22.1599 345.363 23.6689 348.771 26.6869C352.18 29.6694 353.884 34.0366 353.884 39.7885V64.8734C353.884 66.6842 354.239 68.2109 354.949 69.4536C355.659 70.6608 356.795 71.6195 358.358 72.3296L353.298 78.7206C351.594 78.2946 350.12 77.5489 348.878 76.4838C347.67 75.3831 346.818 74.0694 346.321 72.5426L346.215 72.2231ZM330.29 53.4228C328.799 53.6358 327.432 53.9376 326.189 54.3282C324.982 54.7187 323.953 55.2513 323.1 55.9259C322.248 56.565 321.574 57.3639 321.077 58.3226C320.615 59.2812 320.384 60.4529 320.384 61.8376C320.384 63.4354 320.686 64.8556 321.29 66.0983C321.893 67.341 322.71 68.3884 323.739 69.2406C324.769 70.0927 325.959 70.7496 327.308 71.2112C328.693 71.6372 330.131 71.8503 331.622 71.8503C333.291 71.8503 334.924 71.6195 336.522 71.1579C338.119 70.6963 339.54 70.0395 340.782 69.1873C342.025 68.2997 343.019 67.2345 343.765 65.9918C344.546 64.7491 344.936 63.3289 344.936 61.7311V51.2391L330.29 53.4228ZM368.138 23.2251H377.086V29.4563C378.932 26.9354 381.204 25.0891 383.903 23.9174C386.637 22.7457 389.673 22.1599 393.01 22.1599C396.028 22.1599 398.673 22.657 400.946 23.6511C403.218 24.6453 405.118 25.9945 406.644 27.6988C408.171 29.4031 409.307 31.3737 410.053 33.6105C410.834 35.8474 411.225 38.2085 411.225 40.6939V77.6555H402.277V43.5166C402.277 41.1377 401.975 39.1139 401.372 37.4451C400.804 35.7409 400.005 34.3739 398.975 33.3442C397.981 32.2791 396.791 31.5157 395.407 31.0541C394.058 30.557 392.602 30.3085 391.04 30.3085C389.335 30.3085 387.649 30.628 385.98 31.2671C384.347 31.8707 382.855 32.7939 381.506 34.0366C380.193 35.2793 379.127 36.8415 378.311 38.7234C377.494 40.6052 377.086 42.8243 377.086 45.3807V77.6555H368.138V23.2251ZM461.588 62.5832C461.588 65.1397 461.02 67.4298 459.884 69.4536C458.783 71.4419 457.31 73.1285 455.464 74.5132C453.617 75.8979 451.487 76.9453 449.073 77.6555C446.694 78.3656 444.244 78.7206 441.723 78.7206C437.746 78.7206 433.912 78.046 430.219 76.6968C426.562 75.3121 423.313 73.3415 420.473 70.7851L425.372 64.4473C426.225 65.1929 427.201 65.9741 428.302 66.7907C429.438 67.6073 430.698 68.3707 432.083 69.0808C433.468 69.7554 434.959 70.3235 436.557 70.7851C438.155 71.2112 439.841 71.4242 441.616 71.4242C443.072 71.4242 444.457 71.2467 445.771 70.8916C447.12 70.501 448.291 69.9507 449.286 69.2406C450.28 68.495 451.061 67.6251 451.629 66.6309C452.233 65.6012 452.534 64.4473 452.534 63.1691C452.534 61.7489 452.215 60.5594 451.576 59.6008C450.972 58.6421 450.138 57.8255 449.073 57.1509C448.007 56.4763 446.765 55.8904 445.344 55.3933C443.924 54.8962 442.433 54.3992 440.871 53.9021L437.462 52.7836C435.545 52.1445 433.699 51.4167 431.923 50.6C430.148 49.7834 428.568 48.7892 427.183 47.6176C425.834 46.4104 424.751 44.9901 423.934 43.3569C423.153 41.7236 422.763 39.7708 422.763 37.4984C422.763 35.6521 423.153 33.8236 423.934 32.0128C424.716 30.1665 425.905 28.5154 427.503 27.0597C429.136 25.604 431.195 24.4323 433.681 23.5446C436.166 22.6215 439.095 22.1599 442.469 22.1599C446.197 22.1599 449.641 22.7813 452.801 24.024C455.996 25.2667 458.695 26.8112 460.896 28.6575L456.209 35.1018C455.428 34.3561 454.505 33.646 453.44 32.9714C452.375 32.2968 451.238 31.711 450.031 31.2139C448.824 30.6813 447.564 30.2552 446.25 29.9357C444.936 29.6161 443.64 29.4563 442.362 29.4563C440.409 29.4563 438.758 29.6871 437.409 30.1487C436.06 30.5748 434.977 31.1429 434.16 31.853C433.344 32.5631 432.74 33.362 432.349 34.2496C431.994 35.1373 431.817 36.0072 431.817 36.8593C431.817 38.102 432.083 39.1494 432.616 40.0016C433.148 40.8182 433.841 41.5283 434.693 42.1319C435.58 42.7355 436.575 43.2503 437.675 43.6764C438.811 44.1025 439.983 44.5286 441.19 44.9546L445.664 46.4459C447.794 47.156 449.747 47.9194 451.522 48.736C453.298 49.5171 454.86 50.4225 456.209 51.4522C457.914 52.8014 459.227 54.3637 460.15 56.1389C461.109 57.9142 461.588 60.0623 461.588 62.5832ZM482.287 23.2251V29.4563C483.885 27.2195 486.051 25.4442 488.785 24.1305C491.519 22.8168 494.661 22.1599 498.211 22.1599C501.727 22.1599 504.904 22.87 507.745 24.2903C510.585 25.675 513.017 27.6278 515.041 30.1487C517.065 32.6696 518.61 35.6699 519.675 39.1494C520.775 42.5935 521.326 46.3749 521.326 50.4935C521.326 54.6122 520.775 58.3936 519.675 61.8376C518.61 65.2817 517.065 68.2642 515.041 70.7851C513.017 73.2705 510.585 75.2233 507.745 76.6435C504.904 78.0283 501.727 78.7206 498.211 78.7206C494.661 78.7206 491.519 78.0638 488.785 76.7501C486.051 75.4363 483.885 73.6611 482.287 71.4242V94.2189H473.34V23.2251H482.287ZM512.059 50.174C512.059 47.3335 511.721 44.6883 511.047 42.2384C510.372 39.7885 509.378 37.6759 508.064 35.9006C506.751 34.0899 505.117 32.6696 503.164 31.64C501.247 30.6103 499.046 30.0954 496.56 30.0954C494.182 30.0954 492.087 30.5038 490.276 31.3204C488.501 32.137 487.009 33.2555 485.802 34.6757C484.595 36.0959 483.672 37.7825 483.033 39.7353C482.429 41.6526 482.127 43.7474 482.127 46.0198V54.8607C482.127 57.1331 482.429 59.2457 483.033 61.1985C483.672 63.1158 484.595 64.7846 485.802 66.2048C487.009 67.6251 488.501 68.7435 490.276 69.5601C492.087 70.3768 494.182 70.7851 496.56 70.7851C499.046 70.7851 501.247 70.2703 503.164 69.2406C505.117 68.2109 506.751 66.8084 508.064 65.0331C509.378 63.2224 510.372 61.092 511.047 58.6421C511.721 56.1922 512.059 53.547 512.059 50.7066V50.174ZM554.38 22.1599C558.144 22.1599 561.57 22.87 564.659 24.2903C567.748 25.675 570.376 27.6278 572.542 30.1487C574.743 32.6341 576.447 35.6166 577.655 39.0962C578.862 42.5402 579.465 46.3393 579.465 50.4935C579.465 54.5767 578.862 58.3581 577.655 61.8376C576.447 65.2817 574.743 68.2642 572.542 70.7851C570.376 73.2705 567.748 75.2233 564.659 76.6435C561.57 78.0283 558.144 78.7206 554.38 78.7206C550.617 78.7206 547.191 78.0283 544.102 76.6435C541.048 75.2233 538.421 73.2705 536.219 70.7851C534.018 68.2642 532.314 65.2817 531.106 61.8376C529.899 58.3581 529.296 54.5767 529.296 50.4935C529.296 46.3393 529.899 42.5402 531.106 39.0962C532.314 35.6166 534.018 32.6341 536.219 30.1487C538.421 27.6278 541.048 25.675 544.102 24.2903C547.191 22.87 550.617 22.1599 554.38 22.1599ZM554.38 70.8916C556.972 70.8916 559.245 70.359 561.198 69.2938C563.186 68.1932 564.837 66.7197 566.151 64.8734C567.5 63.0271 568.512 60.8967 569.186 58.4823C569.861 56.0324 570.198 53.476 570.198 50.8131V50.174C570.198 47.44 569.861 44.8481 569.186 42.3982C568.512 39.9483 567.5 37.818 566.151 36.0072C564.837 34.1609 563.186 32.7051 561.198 31.64C559.245 30.5393 556.972 29.9889 554.38 29.9889C551.789 29.9889 549.498 30.5393 547.51 31.64C545.557 32.7051 543.906 34.1609 542.557 36.0072C541.243 37.818 540.249 39.9483 539.575 42.3982C538.9 44.8481 538.563 47.44 538.563 50.174V50.8131C538.563 53.476 538.9 56.0324 539.575 58.4823C540.249 60.8967 541.243 63.0271 542.557 64.8734C543.906 66.7197 545.557 68.1932 547.51 69.2938C549.498 70.359 551.789 70.8916 554.38 70.8916ZM618.378 31.2139H616.94C614.633 31.2139 612.431 31.4802 610.336 32.0128C608.242 32.5453 606.395 33.504 604.798 34.8887C603.2 36.2735 601.922 38.173 600.963 40.5874C600.004 42.9663 599.525 46.0198 599.525 49.7479V77.6555H590.577V23.2251H599.525V31.853C600.2 30.2552 601.105 28.8527 602.241 27.6455C603.377 26.4384 604.655 25.4442 606.076 24.6631C607.531 23.8464 609.076 23.2428 610.709 22.8523C612.378 22.4617 614.065 22.2664 615.769 22.2664H618.378V31.2139ZM640.994 64.1277C640.994 65.0509 641.048 65.9208 641.154 66.7374C641.296 67.5186 641.598 68.2109 642.06 68.8145C642.557 69.4181 643.267 69.8974 644.19 70.2525C645.113 70.6076 646.374 70.7851 647.971 70.7851C648.397 70.7851 648.895 70.7673 649.463 70.7318C650.066 70.6963 650.688 70.6608 651.327 70.6253C651.966 70.5543 652.587 70.4833 653.191 70.4123C653.794 70.3058 654.309 70.217 654.735 70.146L655.694 77.975C654.664 78.117 653.599 78.2413 652.498 78.3478C651.575 78.4543 650.546 78.5431 649.409 78.6141C648.273 78.6851 647.137 78.7206 646.001 78.7206C643.835 78.7206 641.882 78.4898 640.142 78.0283C638.438 77.6022 636.982 76.8921 635.775 75.8979C634.568 74.9038 633.645 73.6078 633.006 72.01C632.367 70.3768 632.047 68.4062 632.047 66.0983V31.1074H621.768V23.2251H632.047V5.43668L640.994 2.29441V23.2251H656.12V31.1074H640.994V64.1277Z" fill="white"/>
</svg>
