<svg width="480" height="320" viewBox="0 0 480 320" fill="none" xmlns="http://www.w3.org/2000/svg">
<rect opacity="0.8" width="480" height="320" fill="white"/>
<rect x="24.3672" y="106.075" width="417.929" height="46.5659" fill="#E8F1F8"/>
<path d="M442.299 270.723L442.299 49" stroke="#B1B4B6" stroke-width="2"/>
<path d="M422.314 270.723L422.314 49" stroke="#B1B4B6" stroke-width="2"/>
<rect opacity="0.4" x="149.068" y="175.342" width="13.078" height="46.5558" fill="#9FC3E1"/>
<rect opacity="0.4" x="152.668" y="105.886" width="11.7512" height="46.5558" fill="#9FC3E1"/>
<path d="M0 175.047H480" stroke="#B1B4B6" stroke-width="2"/>
<path d="M0 222.047H480" stroke="#B1B4B6" stroke-width="2"/>
<path d="M0 106.047H480" stroke="#B1B4B6" stroke-width="2"/>
<path d="M0 153.047H480" stroke="#B1B4B6" stroke-width="2"/>
<path d="M412.968 213.717C412.968 214.275 413 214.801 413.065 215.295C413.15 215.767 413.333 216.186 413.612 216.551C413.913 216.916 414.342 217.206 414.9 217.421C415.458 217.635 416.221 217.743 417.187 217.743C417.444 217.743 417.745 217.732 418.089 217.711C418.454 217.689 418.829 217.668 419.216 217.646C419.602 217.603 419.978 217.56 420.343 217.517C420.708 217.453 421.019 217.399 421.277 217.356L421.857 222.09C421.234 222.176 420.59 222.251 419.924 222.316C419.366 222.38 418.743 222.434 418.056 222.477C417.369 222.52 416.682 222.541 415.995 222.541C414.685 222.541 413.505 222.402 412.453 222.123C411.422 221.865 410.542 221.436 409.812 220.834C409.082 220.233 408.524 219.45 408.137 218.483C407.751 217.496 407.557 216.304 407.557 214.909V193.75H401.342V188.983H407.557V178.227L412.968 176.327V188.983H422.114V193.75H412.968V213.717Z" fill="#0B0C0C"/>
<path d="M399.297 193.814H398.428C397.032 193.814 395.701 193.975 394.434 194.297C393.168 194.619 392.051 195.199 391.085 196.036C390.119 196.874 389.346 198.022 388.766 199.482C388.187 200.921 387.897 202.767 387.897 205.022V221.897H382.486V188.984H387.897V194.201C388.305 193.235 388.852 192.387 389.539 191.657C390.226 190.927 390.999 190.325 391.858 189.853C392.738 189.359 393.672 188.994 394.66 188.758C395.669 188.522 396.689 188.404 397.719 188.404H399.297V193.814Z" fill="#0B0C0C"/>
<path d="M360.598 188.339C362.874 188.339 364.946 188.769 366.814 189.628C368.682 190.465 370.271 191.646 371.58 193.17C372.912 194.673 373.942 196.477 374.672 198.581C375.402 200.663 375.767 202.961 375.767 205.473C375.767 207.942 375.402 210.228 374.672 212.332C373.942 214.415 372.912 216.218 371.58 217.743C370.271 219.246 368.682 220.427 366.814 221.285C364.946 222.123 362.874 222.541 360.598 222.541C358.323 222.541 356.251 222.123 354.383 221.285C352.536 220.427 350.948 219.246 349.616 217.743C348.285 216.218 347.255 214.415 346.525 212.332C345.795 210.228 345.43 207.942 345.43 205.473C345.43 202.961 345.795 200.663 346.525 198.581C347.255 196.477 348.285 194.673 349.616 193.17C350.948 191.646 352.536 190.465 354.383 189.628C356.251 188.769 358.323 188.339 360.598 188.339ZM360.598 217.807C362.166 217.807 363.54 217.485 364.721 216.841C365.923 216.176 366.921 215.284 367.716 214.168C368.532 213.052 369.143 211.763 369.551 210.303C369.959 208.822 370.163 207.276 370.163 205.666V205.279C370.163 203.626 369.959 202.059 369.551 200.577C369.143 199.096 368.532 197.808 367.716 196.713C366.921 195.596 365.923 194.716 364.721 194.072C363.54 193.406 362.166 193.074 360.598 193.074C359.031 193.074 357.646 193.406 356.444 194.072C355.263 194.716 354.265 195.596 353.449 196.713C352.654 197.808 352.053 199.096 351.645 200.577C351.237 202.059 351.033 203.626 351.033 205.279V205.666C351.033 207.276 351.237 208.822 351.645 210.303C352.053 211.763 352.654 213.052 353.449 214.168C354.265 215.284 355.263 216.176 356.444 216.841C357.646 217.485 359.031 217.807 360.598 217.807Z" fill="#0B0C0C"/>
<path d="M316.998 188.984V192.752C317.965 191.399 319.274 190.325 320.927 189.531C322.581 188.737 324.481 188.339 326.628 188.339C328.753 188.339 330.675 188.769 332.392 189.628C334.11 190.465 335.581 191.646 336.805 193.17C338.028 194.695 338.962 196.509 339.606 198.613C340.272 200.696 340.605 202.982 340.605 205.473C340.605 207.963 340.272 210.25 339.606 212.332C338.962 214.415 338.028 216.218 336.805 217.743C335.581 219.246 334.11 220.427 332.392 221.285C330.675 222.123 328.753 222.541 326.628 222.541C324.481 222.541 322.581 222.144 320.927 221.35C319.274 220.555 317.965 219.482 316.998 218.129V231.913H311.588V188.984H316.998ZM335.001 205.279C335.001 203.562 334.797 201.962 334.389 200.481C333.981 198.999 333.38 197.722 332.586 196.648C331.791 195.553 330.804 194.695 329.623 194.072C328.463 193.449 327.132 193.138 325.629 193.138C324.191 193.138 322.924 193.385 321.829 193.879C320.756 194.373 319.854 195.049 319.124 195.908C318.394 196.766 317.836 197.786 317.449 198.967C317.084 200.127 316.902 201.393 316.902 202.767V208.113C316.902 209.488 317.084 210.765 317.449 211.946C317.836 213.105 318.394 214.114 319.124 214.973C319.854 215.832 320.756 216.508 321.829 217.002C322.924 217.496 324.191 217.743 325.629 217.743C327.132 217.743 328.463 217.432 329.623 216.809C330.804 216.186 331.791 215.338 332.586 214.265C333.38 213.17 333.981 211.881 334.389 210.4C334.797 208.919 335.001 207.319 335.001 205.601V205.279Z" fill="#0B0C0C"/>
<path d="M304.487 212.783C304.487 214.329 304.144 215.714 303.457 216.938C302.791 218.14 301.9 219.16 300.784 219.997C299.667 220.835 298.379 221.468 296.919 221.897C295.481 222.327 293.999 222.541 292.475 222.541C290.07 222.541 287.751 222.133 285.519 221.318C283.307 220.48 281.343 219.289 279.625 217.743L282.588 213.91C283.103 214.361 283.694 214.834 284.359 215.327C285.046 215.821 285.808 216.283 286.646 216.712C287.483 217.12 288.385 217.464 289.351 217.743C290.317 218 291.337 218.129 292.41 218.129C293.291 218.129 294.128 218.022 294.923 217.807C295.738 217.571 296.447 217.238 297.048 216.809C297.649 216.358 298.122 215.832 298.465 215.231C298.83 214.608 299.013 213.91 299.013 213.137C299.013 212.279 298.819 211.559 298.433 210.98C298.068 210.4 297.563 209.906 296.919 209.498C296.275 209.09 295.524 208.736 294.665 208.436C293.806 208.135 292.904 207.834 291.96 207.534L289.898 206.857C288.739 206.471 287.623 206.031 286.549 205.537C285.476 205.043 284.52 204.442 283.683 203.734C282.867 203.004 282.212 202.145 281.718 201.157C281.246 200.169 281.01 198.989 281.01 197.615C281.01 196.498 281.246 195.392 281.718 194.297C282.191 193.181 282.91 192.183 283.876 191.302C284.864 190.422 286.109 189.714 287.612 189.177C289.115 188.619 290.886 188.339 292.926 188.339C295.18 188.339 297.263 188.715 299.174 189.467C301.106 190.218 302.738 191.152 304.069 192.268L301.235 196.165C300.762 195.714 300.204 195.285 299.56 194.877C298.916 194.469 298.229 194.115 297.499 193.814C296.769 193.492 296.007 193.235 295.212 193.041C294.418 192.848 293.634 192.752 292.861 192.752C291.68 192.752 290.682 192.891 289.866 193.17C289.05 193.428 288.396 193.771 287.902 194.201C287.408 194.63 287.043 195.113 286.807 195.65C286.592 196.187 286.485 196.713 286.485 197.228C286.485 197.98 286.646 198.613 286.968 199.128C287.29 199.622 287.709 200.051 288.224 200.416C288.761 200.781 289.362 201.093 290.027 201.35C290.714 201.608 291.423 201.866 292.153 202.123L294.858 203.025C296.146 203.454 297.327 203.916 298.401 204.41C299.474 204.882 300.419 205.43 301.235 206.052C302.265 206.868 303.06 207.813 303.618 208.886C304.198 209.96 304.487 211.259 304.487 212.783Z" fill="#0B0C0C"/>
<path d="M247.975 188.984H253.385V192.752C254.502 191.227 255.876 190.111 257.507 189.402C259.161 188.694 260.996 188.339 263.014 188.339C264.839 188.339 266.439 188.64 267.813 189.241C269.187 189.842 270.336 190.658 271.259 191.689C272.182 192.719 272.869 193.911 273.32 195.264C273.792 196.616 274.029 198.044 274.029 199.547V221.897H268.618V201.254C268.618 199.815 268.436 198.591 268.071 197.582C267.727 196.552 267.244 195.725 266.621 195.103C266.02 194.458 265.301 193.997 264.464 193.718C263.648 193.417 262.768 193.267 261.823 193.267C260.792 193.267 259.772 193.46 258.763 193.847C257.776 194.212 256.874 194.77 256.058 195.521C255.264 196.273 254.62 197.217 254.126 198.355C253.632 199.493 253.385 200.835 253.385 202.381V221.897H247.975V188.984Z" fill="#0B0C0C"/>
<path d="M234.725 218.612C233.759 219.729 232.449 220.663 230.796 221.414C229.164 222.166 227.243 222.541 225.031 222.541C223.4 222.541 221.886 222.316 220.491 221.865C219.095 221.393 217.882 220.727 216.851 219.868C215.821 219.01 215.016 217.968 214.436 216.744C213.856 215.521 213.566 214.136 213.566 212.59C213.566 211.302 213.77 210.132 214.178 209.08C214.608 208.006 215.198 207.072 215.95 206.278C216.723 205.483 217.646 204.839 218.719 204.345C219.793 203.83 220.995 203.476 222.326 203.283L233.952 201.705V199.611C233.952 198.366 233.759 197.325 233.373 196.487C232.986 195.629 232.46 194.952 231.795 194.458C231.15 193.965 230.378 193.61 229.476 193.396C228.596 193.181 227.64 193.074 226.61 193.074C224.763 193.074 223.035 193.331 221.424 193.847C219.836 194.362 218.397 194.963 217.109 195.65L215.08 191.367C216.969 190.293 218.945 189.52 221.006 189.048C223.088 188.576 225.139 188.339 227.157 188.339C231.172 188.339 234.21 189.252 236.271 191.077C238.332 192.88 239.363 195.521 239.363 198.999V214.168C239.363 215.263 239.578 216.186 240.007 216.938C240.436 217.668 241.123 218.247 242.068 218.677L239.009 222.541C237.978 222.284 237.087 221.833 236.336 221.189C235.606 220.523 235.09 219.729 234.79 218.806L234.725 218.612ZM225.096 207.244C224.194 207.373 223.368 207.555 222.616 207.791C221.886 208.028 221.263 208.35 220.748 208.758C220.233 209.144 219.825 209.627 219.524 210.207C219.245 210.786 219.106 211.495 219.106 212.332C219.106 213.298 219.288 214.157 219.653 214.909C220.018 215.66 220.512 216.294 221.135 216.809C221.757 217.324 222.477 217.721 223.292 218C224.13 218.258 224.999 218.387 225.901 218.387C226.91 218.387 227.898 218.247 228.864 217.968C229.83 217.689 230.689 217.292 231.44 216.777C232.192 216.24 232.793 215.596 233.244 214.844C233.716 214.093 233.952 213.234 233.952 212.268V205.923L225.096 207.244Z" fill="#0B0C0C"/>
<path d="M210.835 193.814H209.965C208.569 193.814 207.238 193.975 205.972 194.297C204.705 194.619 203.588 195.199 202.622 196.036C201.656 196.874 200.883 198.022 200.303 199.482C199.724 200.921 199.434 202.767 199.434 205.022V221.897H194.023V188.984H199.434V194.201C199.842 193.235 200.389 192.387 201.076 191.657C201.763 190.927 202.536 190.325 203.395 189.853C204.275 189.359 205.209 188.994 206.197 188.758C207.206 188.522 208.226 188.404 209.257 188.404H210.835V193.814Z" fill="#0B0C0C"/>
<path d="M162.217 175.715H193.875V180.803H180.896V221.897H175.196V180.803H162.217V175.715Z" fill="#0B0C0C"/>
<path d="M118.376 211.205C120.394 213.46 122.563 215.091 124.881 216.1C127.222 217.109 129.669 217.614 132.224 217.614C133.985 217.614 135.552 217.399 136.926 216.97C138.322 216.519 139.492 215.907 140.437 215.134C141.381 214.361 142.09 213.481 142.562 212.493C143.056 211.506 143.303 210.464 143.303 209.369C143.303 207.824 142.981 206.578 142.337 205.634C141.693 204.689 140.845 203.927 139.792 203.347C138.74 202.746 137.517 202.284 136.121 201.962C134.747 201.619 133.308 201.297 131.806 200.996L131.161 200.867C130.152 200.674 129.1 200.47 128.005 200.255C126.932 200.041 125.869 199.762 124.817 199.418C123.765 199.053 122.745 198.624 121.758 198.13C120.77 197.615 119.9 196.981 119.149 196.23C118.14 195.306 117.302 194.179 116.637 192.848C115.993 191.496 115.671 189.832 115.671 187.856C115.671 186.461 115.971 185.012 116.572 183.509C117.195 182.006 118.172 180.632 119.503 179.386C120.856 178.141 122.573 177.121 124.656 176.327C126.739 175.532 129.261 175.135 132.224 175.135C135.509 175.135 138.536 175.726 141.306 176.907C142.444 177.4 143.528 177.991 144.559 178.678C145.611 179.343 146.641 180.181 147.651 181.19L143.367 184.7C141.778 183.111 139.964 181.952 137.925 181.222C135.885 180.471 133.802 180.095 131.677 180.095C130.152 180.095 128.757 180.277 127.49 180.642C126.245 181.007 125.171 181.533 124.27 182.22C123.368 182.907 122.67 183.702 122.176 184.604C121.704 185.505 121.468 186.482 121.468 187.534C121.468 188.994 121.779 190.175 122.402 191.077C123.046 191.979 123.883 192.709 124.914 193.267C125.944 193.804 127.104 194.222 128.392 194.523C129.701 194.823 131.022 195.113 132.353 195.392L132.675 195.457C134.822 195.886 136.894 196.391 138.891 196.97C140.909 197.529 142.659 198.312 144.14 199.321C145.643 200.309 146.845 201.565 147.747 203.089C148.649 204.592 149.1 206.535 149.1 208.919C149.1 210.615 148.746 212.289 148.037 213.943C147.329 215.596 146.266 217.067 144.849 218.355C143.453 219.621 141.693 220.641 139.567 221.414C137.441 222.166 134.94 222.541 132.063 222.541C129.83 222.541 127.769 222.305 125.88 221.833C123.99 221.339 122.251 220.706 120.663 219.933C119.482 219.31 118.333 218.591 117.217 217.775C116.122 216.959 115.027 215.982 113.932 214.844L118.376 211.205Z" fill="#0B0C0C"/>
<path d="M109.531 198.806C109.531 202.263 109.101 205.419 108.243 208.274C107.384 211.109 106.074 213.535 104.314 215.553C102.553 217.571 100.342 219.138 97.6793 220.255C95.0385 221.35 91.9253 221.897 88.3398 221.897H73.5254V175.715H88.3398C91.9253 175.715 95.0385 176.273 97.6793 177.39C100.342 178.485 102.553 180.041 104.314 182.059C106.074 184.078 107.384 186.514 108.243 189.37C109.101 192.204 109.531 195.349 109.531 198.806ZM103.444 197.904C103.444 195.5 103.143 193.245 102.542 191.141C101.941 189.037 101.018 187.212 99.7727 185.666C98.5489 184.099 96.9708 182.865 95.0385 181.963C93.1277 181.061 90.8518 180.61 88.211 180.61H79.1935V217.002H88.211C90.8518 217.002 93.1277 216.562 95.0385 215.682C96.9708 214.78 98.5489 213.556 99.7727 212.01C101.018 210.443 101.941 208.607 102.542 206.503C103.143 204.399 103.444 202.145 103.444 199.74V197.904Z" fill="#0B0C0C"/>
<path d="M45.8011 217.614C47.4758 217.614 48.9572 217.399 50.2455 216.97C51.5551 216.54 52.6823 215.972 53.627 215.263C54.5932 214.554 55.409 213.739 56.0746 212.815C56.7402 211.892 57.2662 210.937 57.6527 209.949C58.0606 208.94 58.3504 207.942 58.5222 206.954C58.7154 205.945 58.812 205.011 58.812 204.152V202.252H45.8655V197.486H63.8683V221.897H58.7476V215.682C57.9532 216.948 57.0515 218.022 56.0424 218.902C55.0333 219.782 53.9598 220.491 52.8219 221.028C51.684 221.565 50.4816 221.951 49.2149 222.187C47.9696 222.423 46.7029 222.541 45.4147 222.541C42.2585 222.541 39.4567 221.929 37.0091 220.706C34.5615 219.482 32.4896 217.807 30.7935 215.682C29.1188 213.556 27.8413 211.055 26.961 208.178C26.0808 205.301 25.6406 202.198 25.6406 198.871C25.6406 195.564 26.1237 192.472 27.0899 189.595C28.056 186.697 29.4301 184.185 31.2121 182.059C32.9942 179.912 35.1412 178.227 37.6532 177.003C40.1867 175.758 43.0207 175.135 46.1554 175.135C48.0877 175.135 49.9127 175.371 51.6303 175.844C53.3694 176.295 54.9689 176.949 56.4289 177.808C57.8888 178.646 59.1985 179.655 60.3579 180.836C61.5173 181.995 62.4942 183.283 63.2886 184.7L58.49 187.212C57.9318 186.139 57.2662 185.173 56.4933 184.314C55.7203 183.433 54.8293 182.682 53.8202 182.059C52.8111 181.437 51.6732 180.954 50.4065 180.61C49.1612 180.267 47.7871 180.095 46.2842 180.095C43.8795 180.095 41.7647 180.61 39.9398 181.641C38.1148 182.65 36.5797 184.002 35.3344 185.699C34.1106 187.395 33.1874 189.359 32.5648 191.592C31.9421 193.804 31.6308 196.101 31.6308 198.484V199.289C31.6308 201.672 31.9099 203.97 32.4681 206.181C33.0478 208.393 33.9174 210.346 35.0768 212.042C36.2576 213.717 37.7391 215.07 39.5211 216.1C41.3031 217.109 43.3965 217.614 45.8011 217.614Z" fill="#0B0C0C"/>
<path d="M433.262 142.367C433.262 142.775 433.316 143.161 433.423 143.526C433.531 143.891 433.713 144.213 433.971 144.492C434.25 144.75 434.637 144.954 435.13 145.104C435.624 145.255 436.258 145.33 437.03 145.33C437.353 145.33 437.718 145.319 438.125 145.298C438.533 145.255 438.941 145.212 439.349 145.169C439.757 145.126 440.133 145.072 440.476 145.008C440.841 144.943 441.142 144.89 441.378 144.847L442.183 152.705C441.346 152.812 440.476 152.909 439.575 152.995C438.802 153.081 437.943 153.145 436.998 153.188C436.054 153.252 435.098 153.285 434.132 153.285C431.062 153.285 428.668 152.587 426.95 151.191C425.233 149.796 424.374 147.573 424.374 144.525V125.878H418.158V118.149H424.374V108.39L433.262 106.007V118.149H442.312V125.878H433.262V142.367Z" fill="#0B0C0C"/>
<path d="M416.202 126.78H415.268C414.001 126.78 412.788 126.909 411.629 127.166C410.491 127.424 409.482 127.896 408.602 128.583C407.721 129.249 407.013 130.172 406.476 131.353C405.961 132.534 405.703 134.047 405.703 135.894V152.641H396.814V118.149H405.703V122.046C406.068 121.466 406.54 120.908 407.12 120.371C407.7 119.834 408.376 119.362 409.149 118.954C409.922 118.524 410.792 118.181 411.758 117.923C412.724 117.666 413.765 117.537 414.882 117.537H416.202V126.78Z" fill="#0B0C0C"/>
<path d="M375.183 117.472C377.738 117.472 380.057 117.934 382.139 118.857C384.222 119.759 386.004 121.015 387.486 122.625C388.967 124.235 390.105 126.136 390.899 128.326C391.715 130.515 392.123 132.877 392.123 135.411C392.123 137.966 391.715 140.338 390.899 142.528C390.083 144.697 388.935 146.575 387.453 148.164C385.972 149.753 384.19 151.009 382.107 151.932C380.025 152.834 377.717 153.285 375.183 153.285C372.628 153.285 370.309 152.834 368.227 151.932C366.144 151.009 364.362 149.753 362.881 148.164C361.399 146.575 360.251 144.697 359.435 142.528C358.619 140.338 358.211 137.966 358.211 135.411C358.211 132.877 358.608 130.515 359.403 128.326C360.218 126.136 361.367 124.235 362.848 122.625C364.33 121.015 366.112 119.759 368.195 118.857C370.299 117.934 372.628 117.472 375.183 117.472ZM375.183 145.04C376.45 145.04 377.566 144.804 378.532 144.332C379.52 143.859 380.347 143.204 381.012 142.367C381.678 141.53 382.182 140.531 382.526 139.372C382.869 138.191 383.041 136.903 383.041 135.507V135.282C383.041 133.886 382.869 132.609 382.526 131.449C382.182 130.269 381.678 129.259 381.012 128.422C380.347 127.563 379.52 126.898 378.532 126.425C377.566 125.953 376.45 125.717 375.183 125.717C373.916 125.717 372.789 125.953 371.802 126.425C370.835 126.898 370.02 127.563 369.354 128.422C368.688 129.259 368.184 130.269 367.84 131.449C367.497 132.609 367.325 133.886 367.325 135.282V135.507C367.325 136.903 367.497 138.191 367.84 139.372C368.184 140.531 368.688 141.53 369.354 142.367C370.02 143.204 370.835 143.859 371.802 144.332C372.789 144.804 373.916 145.04 375.183 145.04Z" fill="#0B0C0C"/>
<path d="M331.4 163.526H322.512V118.149H331.4V121.112C332.367 120.102 333.558 119.244 334.975 118.535C336.392 117.827 338.11 117.472 340.128 117.472C342.404 117.472 344.465 117.934 346.311 118.857C348.179 119.759 349.779 121.015 351.11 122.625C352.441 124.214 353.472 126.103 354.202 128.293C354.932 130.483 355.297 132.856 355.297 135.411C355.297 137.966 354.921 140.338 354.17 142.528C353.418 144.718 352.366 146.607 351.013 148.196C349.661 149.785 348.04 151.03 346.15 151.932C344.261 152.834 342.178 153.285 339.903 153.285C338.893 153.285 337.97 153.188 337.133 152.995C336.317 152.823 335.566 152.576 334.879 152.254C334.191 151.932 333.558 151.556 332.978 151.127C332.399 150.676 331.873 150.193 331.4 149.678V163.526ZM331.143 138.599C331.143 139.522 331.304 140.381 331.626 141.175C331.969 141.948 332.452 142.625 333.075 143.204C333.698 143.784 334.438 144.235 335.297 144.557C336.177 144.879 337.165 145.04 338.26 145.04C339.527 145.04 340.643 144.815 341.609 144.364C342.597 143.891 343.424 143.237 344.089 142.399C344.755 141.562 345.259 140.574 345.603 139.436C345.946 138.277 346.118 137.01 346.118 135.636V135.217C346.118 133.843 345.946 132.577 345.603 131.417C345.259 130.258 344.755 129.259 344.089 128.422C343.424 127.563 342.597 126.898 341.609 126.425C340.643 125.953 339.527 125.717 338.26 125.717C337.165 125.717 336.177 125.878 335.297 126.2C334.438 126.522 333.698 126.973 333.075 127.553C332.452 128.132 331.969 128.819 331.626 129.614C331.304 130.408 331.143 131.267 331.143 132.19V138.599Z" fill="#0B0C0C"/>
<path d="M294.403 141.626C295.67 142.764 297.183 143.741 298.944 144.557C300.704 145.373 302.487 145.781 304.29 145.781C305.6 145.781 306.63 145.534 307.382 145.04C308.133 144.525 308.509 143.87 308.509 143.076C308.509 141.723 307.06 140.671 304.161 139.919L301.649 139.243C300.404 138.943 299.148 138.535 297.881 138.019C296.614 137.483 295.444 136.785 294.371 135.926C293.319 135.067 292.46 134.026 291.794 132.802C291.15 131.557 290.828 130.032 290.828 128.229C290.828 126.79 291.14 125.427 291.762 124.139C292.406 122.829 293.308 121.681 294.467 120.693C295.648 119.705 297.076 118.922 298.751 118.342C300.425 117.762 302.293 117.472 304.354 117.472C307.296 117.472 309.915 117.934 312.212 118.857C314.531 119.78 316.356 120.822 317.687 121.981L313.05 127.907C311.955 127.112 310.656 126.436 309.153 125.878C307.672 125.298 306.179 125.008 304.676 125.008C303.281 125.008 302.197 125.266 301.424 125.781C300.651 126.275 300.264 126.876 300.264 127.585C300.264 128.336 300.597 128.948 301.263 129.421C301.95 129.871 302.937 130.269 304.226 130.612L307.961 131.675C311.525 132.684 314.08 134.047 315.626 135.765C317.172 137.483 317.945 139.651 317.945 142.27C317.945 143.73 317.644 145.126 317.043 146.457C316.442 147.767 315.562 148.937 314.402 149.967C313.243 150.998 311.805 151.814 310.087 152.415C308.369 152.995 306.416 153.285 304.226 153.285C302.551 153.285 300.973 153.134 299.491 152.834C298.031 152.533 296.668 152.125 295.401 151.61C294.156 151.073 293.029 150.472 292.02 149.806C291.011 149.141 290.152 148.475 289.443 147.81L294.403 141.626Z" fill="#0B0C0C"/>
<path d="M256.123 118.149H265.012V121.112C265.484 120.639 266.01 120.188 266.59 119.759C267.191 119.308 267.846 118.922 268.554 118.6C269.263 118.256 270.046 117.988 270.905 117.794C271.786 117.58 272.752 117.472 273.804 117.472C275.672 117.472 277.346 117.784 278.828 118.406C280.309 119.007 281.554 119.845 282.564 120.918C283.594 121.992 284.378 123.248 284.915 124.686C285.451 126.125 285.72 127.681 285.72 129.356V152.64H276.831V132.577C276.831 131.353 276.691 130.322 276.412 129.485C276.133 128.626 275.747 127.939 275.253 127.424C274.781 126.887 274.212 126.501 273.546 126.264C272.902 126.007 272.193 125.878 271.421 125.878C270.519 125.878 269.671 126.039 268.876 126.361C268.103 126.683 267.427 127.177 266.847 127.842C266.268 128.487 265.817 129.302 265.495 130.29C265.173 131.278 265.012 132.437 265.012 133.768V152.64H256.123V118.149Z" fill="#0B0C0C"/>
<path d="M234.396 138.631C233.301 138.803 232.42 139.189 231.755 139.791C231.089 140.37 230.757 141.165 230.757 142.174C230.757 143.29 231.164 144.256 231.98 145.072C232.796 145.867 233.998 146.264 235.587 146.264C237.262 146.264 238.582 145.781 239.549 144.815C240.515 143.848 240.998 142.571 240.998 140.982V137.504L234.396 138.631ZM242.447 149.388C242.082 149.796 241.631 150.236 241.094 150.708C240.579 151.159 239.956 151.578 239.226 151.964C238.518 152.329 237.681 152.64 236.714 152.898C235.748 153.156 234.664 153.285 233.462 153.285C231.744 153.285 230.155 153.016 228.695 152.479C227.257 151.921 225.99 151.148 224.895 150.161C223.8 149.173 222.941 148.035 222.319 146.747C221.696 145.437 221.385 144.02 221.385 142.496C221.385 139.726 222.244 137.461 223.961 135.701C225.679 133.94 228.051 132.834 231.079 132.383L240.998 130.934V130.29C240.998 128.744 240.525 127.52 239.581 126.619C238.636 125.717 237.101 125.266 234.975 125.266C234.095 125.266 233.204 125.373 232.302 125.588C231.401 125.781 230.531 126.007 229.694 126.264C228.878 126.522 228.116 126.823 227.407 127.166C226.699 127.488 226.076 127.778 225.539 128.036L222.061 121.24C224.036 120.145 226.226 119.244 228.631 118.535C231.057 117.827 233.569 117.472 236.167 117.472C237.756 117.472 239.355 117.644 240.966 117.988C242.597 118.31 244.068 118.911 245.378 119.791C246.709 120.671 247.793 121.874 248.63 123.398C249.468 124.901 249.886 126.823 249.886 129.163V143.333C249.886 144.342 250.144 145.094 250.659 145.588C251.196 146.06 251.926 146.5 252.849 146.908L248.824 153.285C247.192 153.113 245.882 152.694 244.895 152.029C243.907 151.342 243.091 150.461 242.447 149.388Z" fill="#0B0C0C"/>
<path d="M218.919 126.78H217.985C216.718 126.78 215.505 126.909 214.346 127.166C213.208 127.424 212.199 127.896 211.318 128.583C210.438 129.249 209.73 130.172 209.193 131.353C208.678 132.534 208.42 134.047 208.42 135.894V152.641H199.531V118.149H208.42V122.046C208.785 121.466 209.257 120.908 209.837 120.371C210.417 119.834 211.093 119.362 211.866 118.954C212.639 118.524 213.508 118.181 214.474 117.923C215.441 117.666 216.482 117.537 217.598 117.537H218.919V126.78Z" fill="#0B0C0C"/>
<path d="M164.342 106.458H199.542V115.121H186.628V152.64H177.256V115.121H164.342V106.458Z" fill="#0B0C0C"/>
<path d="M122.274 139.662C122.875 140.349 123.605 141.025 124.464 141.691C125.323 142.356 126.268 142.957 127.298 143.494C128.35 144.009 129.488 144.428 130.712 144.75C131.936 145.051 133.256 145.201 134.673 145.201C137.314 145.201 139.332 144.654 140.728 143.559C142.145 142.442 142.853 141.089 142.853 139.501C142.853 137.847 142.231 136.591 140.986 135.733C139.762 134.874 137.808 134.198 135.124 133.704L133.675 133.446C131.743 133.103 129.821 132.652 127.91 132.093C125.999 131.535 124.271 130.73 122.725 129.678C121.179 128.626 119.923 127.284 118.957 125.652C117.991 123.999 117.508 121.917 117.508 119.405C117.508 117.945 117.83 116.42 118.474 114.831C119.118 113.221 120.138 111.75 121.534 110.419C122.951 109.067 124.765 107.961 126.976 107.102C129.209 106.243 131.904 105.814 135.06 105.814C138.796 105.814 142.123 106.437 145.043 107.682C147.985 108.906 150.357 110.527 152.161 112.545L145.945 118.342C144.678 116.946 143.047 115.851 141.05 115.057C139.075 114.262 137.035 113.865 134.931 113.865C132.505 113.865 130.605 114.327 129.231 115.25C127.878 116.173 127.202 117.376 127.202 118.857C127.202 119.823 127.416 120.628 127.846 121.272C128.297 121.917 128.919 122.453 129.714 122.883C130.508 123.291 131.464 123.634 132.58 123.913C133.696 124.192 134.942 124.472 136.316 124.751L137.057 124.879C138.903 125.223 140.739 125.663 142.564 126.2C144.389 126.715 146.042 127.488 147.523 128.519C149.026 129.528 150.239 130.859 151.162 132.512C152.086 134.144 152.547 136.237 152.547 138.792C152.547 141.111 152.064 143.161 151.098 144.943C150.132 146.725 148.854 148.25 147.266 149.517C145.677 150.762 143.841 151.706 141.758 152.351C139.676 152.973 137.507 153.285 135.253 153.285C132.977 153.285 130.862 153.091 128.909 152.705C126.976 152.318 125.216 151.771 123.627 151.062C122.06 150.354 120.653 149.559 119.408 148.679C118.184 147.799 117.111 146.854 116.188 145.845L122.274 139.662Z" fill="#0B0C0C"/>
<path d="M112.845 129.549C112.845 133.006 112.373 136.162 111.428 139.018C110.505 141.852 109.109 144.278 107.241 146.296C105.395 148.314 103.076 149.881 100.285 150.998C97.4939 152.093 94.2304 152.64 90.4946 152.64H73.4902V106.458H90.4946C94.2304 106.458 97.4939 107.016 100.285 108.133C103.076 109.228 105.395 110.784 107.241 112.803C109.109 114.821 110.505 117.258 111.428 120.113C112.373 122.947 112.845 126.093 112.845 129.549ZM103.151 128.647C103.151 126.694 102.904 124.879 102.411 123.205C101.938 121.509 101.165 120.038 100.092 118.793C99.0397 117.547 97.6657 116.571 95.9695 115.862C94.2734 115.132 92.223 114.767 89.8183 114.767H82.8298V144.331H89.8183C92.2015 144.331 94.2412 143.977 95.9373 143.269C97.6334 142.539 99.0075 141.551 100.06 140.306C101.133 139.039 101.917 137.558 102.411 135.861C102.904 134.165 103.151 132.351 103.151 130.419V128.647Z" fill="#0B0C0C"/>
<path d="M34.1489 129.678C34.1489 131.653 34.3958 133.553 34.8896 135.378C35.3834 137.203 36.1349 138.814 37.144 140.209C38.1531 141.605 39.4413 142.732 41.0086 143.591C42.576 144.428 44.4439 144.847 46.6123 144.847C48.695 144.847 50.4233 144.514 51.7974 143.848C53.193 143.183 54.2987 142.356 55.1145 141.369C55.9519 140.359 56.5316 139.275 56.8536 138.116C57.1971 136.956 57.3689 135.883 57.3689 134.895V134.444H45.5496V127.327H66.4508V152.64H58.2706V147.23C57.691 148.132 56.9717 148.958 56.1129 149.71C55.2541 150.44 54.2879 151.073 53.2144 151.61C52.1409 152.125 50.9601 152.533 49.6718 152.834C48.4051 153.134 47.0525 153.285 45.614 153.285C42.2432 153.285 39.2481 152.673 36.6287 151.449C34.0093 150.225 31.7979 148.54 29.9944 146.393C28.2124 144.246 26.849 141.734 25.9044 138.857C24.9811 135.98 24.5195 132.877 24.5195 129.549C24.5195 126.243 25.0348 123.151 26.0654 120.274C27.1174 117.376 28.5989 114.864 30.5097 112.738C32.442 110.591 34.7608 108.906 37.466 107.682C40.1928 106.437 43.2415 105.814 46.6123 105.814C48.8023 105.814 50.8742 106.072 52.828 106.587C54.8032 107.081 56.596 107.8 58.2062 108.745C59.838 109.668 61.2765 110.795 62.5217 112.126C63.767 113.436 64.7761 114.896 65.549 116.506L57.3689 121.111C56.8751 120.124 56.2954 119.211 55.6298 118.374C54.9642 117.515 54.1913 116.785 53.311 116.184C52.4522 115.561 51.4646 115.078 50.3482 114.735C49.2317 114.37 47.9864 114.187 46.6123 114.187C44.4439 114.187 42.576 114.617 41.0086 115.476C39.4413 116.313 38.1531 117.429 37.144 118.825C36.1349 120.22 35.3834 121.841 34.8896 123.688C34.3958 125.513 34.1489 127.402 34.1489 129.356V129.678Z" fill="#0B0C0C"/>
</svg>
