<svg width="480" height="222" viewBox="0 0 480 222" fill="none" xmlns="http://www.w3.org/2000/svg">
<g clip-path="url(#clip0_1389_806)">
<rect width="480" height="222" fill="white"/>
<rect opacity="0.8" width="480" height="222" fill="white"/>
<rect x="24.3672" y="57.0746" width="417.929" height="46.5659" fill="#E8F1F8"/>
<rect x="24.3672" y="126.047" width="397.746" height="46.5659" fill="#E8F1F8"/>
<path d="M442.299 221.723L442.299 4.11529e-06" stroke="#B1B4B6"/>
<path d="M422.314 221.723L422.314 0" stroke="#B1B4B6"/>
<rect opacity="0.4" x="149.068" y="126.342" width="13.078" height="46.5558" fill="#9FC3E1"/>
<rect opacity="0.4" x="152.668" y="56.8862" width="11.7512" height="46.5558" fill="#9FC3E1"/>
<path d="M0 126.047H480" stroke="#B1B4B6"/>
<path d="M0 173.047H480" stroke="#B1B4B6"/>
<path d="M0 57.0474H480" stroke="#B1B4B6"/>
<path d="M0 104.047H480" stroke="#B1B4B6"/>
<path d="M412.968 164.717C412.968 165.275 413 165.801 413.065 166.295C413.15 166.768 413.333 167.186 413.612 167.551C413.913 167.916 414.342 168.206 414.9 168.421C415.458 168.635 416.221 168.743 417.187 168.743C417.444 168.743 417.745 168.732 418.089 168.711C418.454 168.689 418.829 168.668 419.216 168.646C419.602 168.603 419.978 168.56 420.343 168.517C420.708 168.453 421.019 168.399 421.277 168.356L421.857 173.09C421.234 173.176 420.59 173.252 419.924 173.316C419.366 173.38 418.743 173.434 418.056 173.477C417.369 173.52 416.682 173.541 415.995 173.541C414.685 173.541 413.505 173.402 412.453 173.123C411.422 172.865 410.542 172.436 409.812 171.834C409.082 171.233 408.524 170.45 408.137 169.484C407.751 168.496 407.557 167.304 407.557 165.909V144.75H401.342V139.983H407.557V129.227L412.968 127.327V139.983H422.114V144.75H412.968V164.717Z" fill="#0B0C0C"/>
<path d="M399.297 144.814H398.428C397.032 144.814 395.701 144.975 394.434 145.297C393.168 145.619 392.051 146.199 391.085 147.036C390.119 147.874 389.346 149.022 388.766 150.482C388.187 151.921 387.897 153.767 387.897 156.022V172.897H382.486V139.984H387.897V145.201C388.305 144.235 388.852 143.387 389.539 142.657C390.226 141.927 390.999 141.325 391.858 140.853C392.738 140.359 393.672 139.994 394.66 139.758C395.669 139.522 396.689 139.404 397.719 139.404H399.297V144.814Z" fill="#0B0C0C"/>
<path d="M360.598 139.339C362.874 139.339 364.946 139.769 366.814 140.628C368.682 141.465 370.271 142.646 371.58 144.17C372.912 145.673 373.942 147.477 374.672 149.581C375.402 151.663 375.767 153.961 375.767 156.473C375.767 158.942 375.402 161.228 374.672 163.332C373.942 165.415 372.912 167.218 371.58 168.743C370.271 170.246 368.682 171.427 366.814 172.285C364.946 173.123 362.874 173.541 360.598 173.541C358.323 173.541 356.251 173.123 354.383 172.285C352.536 171.427 350.948 170.246 349.616 168.743C348.285 167.218 347.255 165.415 346.525 163.332C345.795 161.228 345.43 158.942 345.43 156.473C345.43 153.961 345.795 151.663 346.525 149.581C347.255 147.477 348.285 145.673 349.616 144.17C350.948 142.646 352.536 141.465 354.383 140.628C356.251 139.769 358.323 139.339 360.598 139.339ZM360.598 168.807C362.166 168.807 363.54 168.485 364.721 167.841C365.923 167.175 366.921 166.284 367.716 165.168C368.532 164.052 369.143 162.763 369.551 161.303C369.959 159.822 370.163 158.276 370.163 156.666V156.279C370.163 154.626 369.959 153.059 369.551 151.577C369.143 150.096 368.532 148.808 367.716 147.713C366.921 146.596 365.923 145.716 364.721 145.072C363.54 144.406 362.166 144.074 360.598 144.074C359.031 144.074 357.646 144.406 356.444 145.072C355.263 145.716 354.265 146.596 353.449 147.713C352.654 148.808 352.053 150.096 351.645 151.577C351.237 153.059 351.033 154.626 351.033 156.279V156.666C351.033 158.276 351.237 159.822 351.645 161.303C352.053 162.763 352.654 164.052 353.449 165.168C354.265 166.284 355.263 167.175 356.444 167.841C357.646 168.485 359.031 168.807 360.598 168.807Z" fill="#0B0C0C"/>
<path d="M316.998 139.983V143.752C317.965 142.399 319.274 141.325 320.927 140.531C322.581 139.737 324.481 139.339 326.628 139.339C328.753 139.339 330.675 139.769 332.392 140.628C334.11 141.465 335.581 142.646 336.805 144.17C338.028 145.695 338.962 147.509 339.606 149.613C340.272 151.695 340.605 153.982 340.605 156.473C340.605 158.963 340.272 161.25 339.606 163.332C338.962 165.415 338.028 167.218 336.805 168.743C335.581 170.246 334.11 171.427 332.392 172.285C330.675 173.123 328.753 173.541 326.628 173.541C324.481 173.541 322.581 173.144 320.927 172.35C319.274 171.555 317.965 170.482 316.998 169.129V182.913H311.588V139.983H316.998ZM335.001 156.279C335.001 154.562 334.797 152.962 334.389 151.481C333.981 149.999 333.38 148.722 332.586 147.648C331.791 146.553 330.804 145.695 329.623 145.072C328.463 144.449 327.132 144.138 325.629 144.138C324.191 144.138 322.924 144.385 321.829 144.879C320.756 145.373 319.854 146.049 319.124 146.908C318.394 147.766 317.836 148.786 317.449 149.967C317.084 151.127 316.902 152.393 316.902 153.767V159.113C316.902 160.488 317.084 161.765 317.449 162.946C317.836 164.105 318.394 165.114 319.124 165.973C319.854 166.832 320.756 167.508 321.829 168.002C322.924 168.496 324.191 168.743 325.629 168.743C327.132 168.743 328.463 168.431 329.623 167.809C330.804 167.186 331.791 166.338 332.586 165.265C333.38 164.17 333.981 162.881 334.389 161.4C334.797 159.919 335.001 158.319 335.001 156.601V156.279Z" fill="#0B0C0C"/>
<path d="M304.487 163.783C304.487 165.329 304.144 166.714 303.457 167.938C302.791 169.14 301.9 170.16 300.784 170.997C299.667 171.834 298.379 172.468 296.919 172.897C295.481 173.327 293.999 173.541 292.475 173.541C290.07 173.541 287.751 173.133 285.519 172.318C283.307 171.48 281.343 170.289 279.625 168.743L282.588 164.91C283.103 165.361 283.694 165.834 284.359 166.327C285.046 166.821 285.808 167.283 286.646 167.712C287.483 168.12 288.385 168.464 289.351 168.743C290.317 169 291.337 169.129 292.41 169.129C293.291 169.129 294.128 169.022 294.923 168.807C295.738 168.571 296.447 168.238 297.048 167.809C297.649 167.358 298.122 166.832 298.465 166.231C298.83 165.608 299.013 164.91 299.013 164.137C299.013 163.279 298.819 162.559 298.433 161.98C298.068 161.4 297.563 160.906 296.919 160.498C296.275 160.09 295.524 159.736 294.665 159.435C293.806 159.135 292.904 158.834 291.96 158.534L289.898 157.857C288.739 157.471 287.623 157.031 286.549 156.537C285.476 156.043 284.52 155.442 283.683 154.733C282.867 154.004 282.212 153.145 281.718 152.157C281.246 151.169 281.01 149.989 281.01 148.615C281.01 147.498 281.246 146.392 281.718 145.297C282.191 144.181 282.91 143.183 283.876 142.302C284.864 141.422 286.109 140.713 287.612 140.177C289.115 139.618 290.886 139.339 292.926 139.339C295.18 139.339 297.263 139.715 299.174 140.467C301.106 141.218 302.738 142.152 304.069 143.268L301.235 147.165C300.762 146.714 300.204 146.285 299.56 145.877C298.916 145.469 298.229 145.115 297.499 144.814C296.769 144.492 296.007 144.235 295.212 144.041C294.418 143.848 293.634 143.752 292.861 143.752C291.68 143.752 290.682 143.891 289.866 144.17C289.05 144.428 288.396 144.771 287.902 145.201C287.408 145.63 287.043 146.113 286.807 146.65C286.592 147.187 286.485 147.713 286.485 148.228C286.485 148.979 286.646 149.613 286.968 150.128C287.29 150.622 287.709 151.051 288.224 151.416C288.761 151.781 289.362 152.093 290.027 152.35C290.714 152.608 291.423 152.866 292.153 153.123L294.858 154.025C296.146 154.454 297.327 154.916 298.401 155.41C299.474 155.882 300.419 156.43 301.235 157.052C302.265 157.868 303.06 158.813 303.618 159.886C304.198 160.96 304.487 162.259 304.487 163.783Z" fill="#0B0C0C"/>
<path d="M247.975 139.983H253.385V143.752C254.502 142.227 255.876 141.111 257.507 140.402C259.161 139.694 260.996 139.339 263.014 139.339C264.839 139.339 266.439 139.64 267.813 140.241C269.187 140.842 270.336 141.658 271.259 142.689C272.182 143.719 272.869 144.911 273.32 146.264C273.792 147.616 274.029 149.044 274.029 150.547V172.897H268.618V152.254C268.618 150.815 268.436 149.591 268.071 148.582C267.727 147.552 267.244 146.725 266.621 146.102C266.02 145.458 265.301 144.997 264.464 144.718C263.648 144.417 262.768 144.267 261.823 144.267C260.792 144.267 259.772 144.46 258.763 144.846C257.776 145.211 256.874 145.77 256.058 146.521C255.264 147.273 254.62 148.217 254.126 149.355C253.632 150.493 253.385 151.835 253.385 153.381V172.897H247.975V139.983Z" fill="#0B0C0C"/>
<path d="M234.725 169.612C233.759 170.729 232.449 171.663 230.796 172.414C229.164 173.166 227.243 173.541 225.031 173.541C223.4 173.541 221.886 173.316 220.491 172.865C219.095 172.393 217.882 171.727 216.851 170.868C215.821 170.01 215.016 168.968 214.436 167.744C213.856 166.521 213.566 165.136 213.566 163.59C213.566 162.302 213.77 161.132 214.178 160.08C214.608 159.006 215.198 158.072 215.95 157.278C216.723 156.483 217.646 155.839 218.719 155.345C219.793 154.83 220.995 154.476 222.326 154.283L233.952 152.705V150.611C233.952 149.366 233.759 148.325 233.373 147.487C232.986 146.629 232.46 145.952 231.795 145.458C231.15 144.965 230.378 144.61 229.476 144.396C228.596 144.181 227.64 144.074 226.61 144.074C224.763 144.074 223.035 144.331 221.424 144.846C219.836 145.362 218.397 145.963 217.109 146.65L215.08 142.367C216.969 141.293 218.945 140.52 221.006 140.048C223.088 139.576 225.139 139.339 227.157 139.339C231.172 139.339 234.21 140.252 236.271 142.077C238.332 143.88 239.363 146.521 239.363 149.999V165.168C239.363 166.263 239.578 167.186 240.007 167.938C240.436 168.668 241.123 169.247 242.068 169.677L239.009 173.541C237.978 173.284 237.087 172.833 236.336 172.189C235.606 171.523 235.09 170.729 234.79 169.806L234.725 169.612ZM225.096 158.244C224.194 158.373 223.368 158.555 222.616 158.791C221.886 159.028 221.263 159.35 220.748 159.758C220.233 160.144 219.825 160.627 219.524 161.207C219.245 161.786 219.106 162.495 219.106 163.332C219.106 164.298 219.288 165.157 219.653 165.909C220.018 166.66 220.512 167.294 221.135 167.809C221.757 168.324 222.477 168.721 223.292 169C224.13 169.258 224.999 169.387 225.901 169.387C226.91 169.387 227.898 169.247 228.864 168.968C229.83 168.689 230.689 168.292 231.44 167.777C232.192 167.24 232.793 166.596 233.244 165.844C233.716 165.093 233.952 164.234 233.952 163.268V156.923L225.096 158.244Z" fill="#0B0C0C"/>
<path d="M210.835 144.814H209.965C208.569 144.814 207.238 144.975 205.972 145.297C204.705 145.619 203.588 146.199 202.622 147.036C201.656 147.874 200.883 149.022 200.303 150.482C199.724 151.921 199.434 153.767 199.434 156.022V172.897H194.023V139.984H199.434V145.201C199.842 144.235 200.389 143.387 201.076 142.657C201.763 141.927 202.536 141.325 203.395 140.853C204.275 140.359 205.209 139.994 206.197 139.758C207.206 139.522 208.226 139.404 209.257 139.404H210.835V144.814Z" fill="#0B0C0C"/>
<path d="M162.217 126.715H193.875V131.803H180.896V172.897H175.196V131.803H162.217V126.715Z" fill="#0B0C0C"/>
<path d="M118.376 162.205C120.394 164.459 122.563 166.091 124.881 167.1C127.222 168.109 129.669 168.614 132.224 168.614C133.985 168.614 135.552 168.399 136.926 167.97C138.322 167.519 139.492 166.907 140.437 166.134C141.381 165.361 142.09 164.481 142.562 163.493C143.056 162.506 143.303 161.464 143.303 160.369C143.303 158.824 142.981 157.578 142.337 156.634C141.693 155.689 140.845 154.927 139.792 154.347C138.74 153.746 137.517 153.284 136.121 152.962C134.747 152.619 133.308 152.297 131.806 151.996L131.161 151.867C130.152 151.674 129.1 151.47 128.005 151.255C126.932 151.041 125.869 150.762 124.817 150.418C123.765 150.053 122.745 149.624 121.758 149.13C120.77 148.614 119.9 147.981 119.149 147.23C118.14 146.306 117.302 145.179 116.637 143.848C115.993 142.495 115.671 140.832 115.671 138.856C115.671 137.461 115.971 136.012 116.572 134.509C117.195 133.006 118.172 131.632 119.503 130.386C120.856 129.141 122.573 128.121 124.656 127.327C126.739 126.532 129.261 126.135 132.224 126.135C135.509 126.135 138.536 126.726 141.306 127.907C142.444 128.4 143.528 128.991 144.559 129.678C145.611 130.343 146.641 131.181 147.651 132.19L143.367 135.7C141.778 134.111 139.964 132.952 137.925 132.222C135.885 131.471 133.802 131.095 131.677 131.095C130.152 131.095 128.757 131.277 127.49 131.642C126.245 132.007 125.171 132.533 124.27 133.22C123.368 133.907 122.67 134.702 122.176 135.604C121.704 136.505 121.468 137.482 121.468 138.534C121.468 139.994 121.779 141.175 122.402 142.077C123.046 142.979 123.883 143.709 124.914 144.267C125.944 144.804 127.104 145.222 128.392 145.523C129.701 145.823 131.022 146.113 132.353 146.392L132.675 146.457C134.822 146.886 136.894 147.391 138.891 147.97C140.909 148.529 142.659 149.312 144.14 150.321C145.643 151.309 146.845 152.565 147.747 154.089C148.649 155.592 149.1 157.535 149.1 159.919C149.1 161.615 148.746 163.289 148.037 164.943C147.329 166.596 146.266 168.066 144.849 169.355C143.453 170.621 141.693 171.641 139.567 172.414C137.441 173.166 134.94 173.541 132.063 173.541C129.83 173.541 127.769 173.305 125.88 172.833C123.99 172.339 122.251 171.706 120.663 170.933C119.482 170.31 118.333 169.591 117.217 168.775C116.122 167.959 115.027 166.982 113.932 165.844L118.376 162.205Z" fill="#0B0C0C"/>
<path d="M109.531 149.806C109.531 153.263 109.101 156.419 108.243 159.275C107.384 162.109 106.074 164.535 104.314 166.553C102.553 168.571 100.342 170.138 97.6793 171.255C95.0385 172.35 91.9253 172.897 88.3398 172.897H73.5254V126.715H88.3398C91.9253 126.715 95.0385 127.273 97.6793 128.39C100.342 129.485 102.553 131.041 104.314 133.059C106.074 135.078 107.384 137.514 108.243 140.37C109.101 143.204 109.531 146.349 109.531 149.806ZM103.444 148.904C103.444 146.5 103.143 144.245 102.542 142.141C101.941 140.037 101.018 138.212 99.7727 136.666C98.5489 135.099 96.9708 133.865 95.0385 132.963C93.1277 132.061 90.8518 131.61 88.211 131.61H79.1935V168.002H88.211C90.8518 168.002 93.1277 167.562 95.0385 166.682C96.9708 165.78 98.5489 164.556 99.7727 163.01C101.018 161.443 101.941 159.607 102.542 157.503C103.143 155.399 103.444 153.145 103.444 150.74V148.904Z" fill="#0B0C0C"/>
<path d="M45.8011 168.614C47.4758 168.614 48.9572 168.399 50.2455 167.97C51.5551 167.54 52.6823 166.971 53.627 166.263C54.5932 165.554 55.409 164.739 56.0746 163.815C56.7402 162.892 57.2662 161.937 57.6527 160.949C58.0606 159.94 58.3504 158.942 58.5222 157.954C58.7154 156.945 58.812 156.011 58.812 155.152V153.252H45.8655V148.486H63.8683V172.897H58.7476V166.682C57.9532 167.948 57.0515 169.022 56.0424 169.902C55.0333 170.782 53.9598 171.491 52.8219 172.028C51.684 172.564 50.4816 172.951 49.2149 173.187C47.9696 173.423 46.7029 173.541 45.4147 173.541C42.2585 173.541 39.4567 172.929 37.0091 171.706C34.5615 170.482 32.4896 168.807 30.7935 166.682C29.1188 164.556 27.8413 162.055 26.961 159.178C26.0808 156.301 25.6406 153.198 25.6406 149.87C25.6406 146.564 26.1237 143.472 27.0899 140.595C28.056 137.697 29.4301 135.185 31.2121 133.059C32.9942 130.912 35.1412 129.227 37.6532 128.003C40.1867 126.758 43.0207 126.135 46.1554 126.135C48.0877 126.135 49.9127 126.371 51.6303 126.844C53.3694 127.295 54.9689 127.949 56.4289 128.808C57.8888 129.646 59.1985 130.655 60.3579 131.836C61.5173 132.995 62.4942 134.283 63.2886 135.7L58.49 138.212C57.9318 137.139 57.2662 136.173 56.4933 135.314C55.7203 134.433 54.8293 133.682 53.8202 133.059C52.8111 132.437 51.6732 131.954 50.4065 131.61C49.1612 131.267 47.7871 131.095 46.2842 131.095C43.8795 131.095 41.7647 131.61 39.9398 132.641C38.1148 133.65 36.5797 135.002 35.3344 136.699C34.1106 138.395 33.1874 140.359 32.5648 142.592C31.9421 144.804 31.6308 147.101 31.6308 149.484V150.289C31.6308 152.672 31.9099 154.97 32.4681 157.181C33.0478 159.393 33.9174 161.346 35.0768 163.042C36.2576 164.717 37.7391 166.07 39.5211 167.1C41.3031 168.109 43.3965 168.614 45.8011 168.614Z" fill="#0B0C0C"/>
<path d="M433.262 93.3669C433.262 93.7749 433.316 94.1613 433.423 94.5263C433.531 94.8913 433.713 95.2134 433.971 95.4925C434.25 95.7501 434.637 95.9541 435.13 96.1044C435.624 96.2547 436.258 96.3298 437.03 96.3298C437.353 96.3298 437.718 96.3191 438.125 96.2976C438.533 96.2547 438.941 96.2117 439.349 96.1688C439.757 96.1259 440.133 96.0722 440.476 96.0078C440.841 95.9434 441.142 95.8897 441.378 95.8468L442.183 103.705C441.346 103.812 440.476 103.909 439.575 103.995C438.802 104.081 437.943 104.145 436.998 104.188C436.054 104.252 435.098 104.285 434.132 104.285C431.062 104.285 428.668 103.587 426.95 102.191C425.233 100.796 424.374 98.5735 424.374 95.5247V76.8778H418.158V69.1486H424.374V59.3904L433.262 57.0072V69.1486H442.312V76.8778H433.262V93.3669Z" fill="#0B0C0C"/>
<path d="M416.202 77.7797H415.268C414.001 77.7797 412.788 77.9085 411.629 78.1662C410.491 78.4238 409.482 78.8962 408.602 79.5832C407.721 80.2488 407.013 81.172 406.476 82.3529C405.961 83.5337 405.703 85.0474 405.703 86.8938V103.641H396.814V69.1487H405.703V73.0455C406.068 72.4658 406.54 71.9076 407.12 71.3709C407.7 70.8341 408.376 70.3618 409.149 69.9538C409.922 69.5244 410.792 69.1809 411.758 68.9233C412.724 68.6656 413.765 68.5368 414.882 68.5368H416.202V77.7797Z" fill="#0B0C0C"/>
<path d="M375.183 68.4724C377.738 68.4724 380.057 68.934 382.139 69.8572C384.222 70.7589 386.004 72.0149 387.486 73.6252C388.967 75.2355 390.105 77.1356 390.899 79.3255C391.715 81.5155 392.123 83.8772 392.123 86.4107C392.123 88.9656 391.715 91.3381 390.899 93.528C390.083 95.6965 388.935 97.5752 387.453 99.164C385.972 100.753 384.19 102.009 382.107 102.932C380.025 103.834 377.717 104.285 375.183 104.285C372.628 104.285 370.309 103.834 368.227 102.932C366.144 102.009 364.362 100.753 362.881 99.164C361.399 97.5752 360.251 95.6965 359.435 93.528C358.619 91.3381 358.211 88.9656 358.211 86.4107C358.211 83.8772 358.608 81.5155 359.403 79.3255C360.218 77.1356 361.367 75.2355 362.848 73.6252C364.33 72.0149 366.112 70.7589 368.195 69.8572C370.299 68.934 372.628 68.4724 375.183 68.4724ZM375.183 96.0401C376.45 96.0401 377.566 95.8039 378.532 95.3315C379.52 94.8592 380.347 94.2044 381.012 93.367C381.678 92.5297 382.182 91.5313 382.526 90.3719C382.869 89.1911 383.041 87.9029 383.041 86.5073V86.2819C383.041 84.8863 382.869 83.6088 382.526 82.4494C382.182 81.2686 381.678 80.2595 381.012 79.4221C380.347 78.5633 379.52 77.8978 378.532 77.4254C377.566 76.9531 376.45 76.7169 375.183 76.7169C373.916 76.7169 372.789 76.9531 371.802 77.4254C370.835 77.8978 370.02 78.5633 369.354 79.4221C368.688 80.2595 368.184 81.2686 367.84 82.4494C367.497 83.6088 367.325 84.8863 367.325 86.2819V86.5073C367.325 87.9029 367.497 89.1911 367.84 90.3719C368.184 91.5313 368.688 92.5297 369.354 93.367C370.02 94.2044 370.835 94.8592 371.802 95.3315C372.789 95.8039 373.916 96.0401 375.183 96.0401Z" fill="#0B0C0C"/>
<path d="M331.4 114.526H322.512V69.1487H331.4V72.1115C332.367 71.1024 333.558 70.2436 334.975 69.5351C336.392 68.8266 338.11 68.4724 340.128 68.4724C342.404 68.4724 344.465 68.934 346.311 69.8572C348.179 70.7589 349.779 72.0149 351.11 73.6252C352.441 75.214 353.472 77.1034 354.202 79.2933C354.932 81.4833 355.297 83.8557 355.297 86.4107C355.297 88.9656 354.921 91.3381 354.17 93.528C353.418 95.718 352.366 97.6074 351.013 99.1962C349.661 100.785 348.04 102.03 346.15 102.932C344.261 103.834 342.178 104.285 339.903 104.285C338.893 104.285 337.97 104.188 337.133 103.995C336.317 103.823 335.566 103.576 334.879 103.254C334.191 102.932 333.558 102.556 332.978 102.127C332.399 101.676 331.873 101.193 331.4 100.678V114.526ZM331.143 89.599C331.143 90.5222 331.304 91.381 331.626 92.1754C331.969 92.9484 332.452 93.6247 333.075 94.2044C333.698 94.784 334.438 95.2349 335.297 95.557C336.177 95.879 337.165 96.0401 338.26 96.0401C339.527 96.0401 340.643 95.8146 341.609 95.3637C342.597 94.8914 343.424 94.2366 344.089 93.3992C344.755 92.5619 345.259 91.5743 345.603 90.4363C345.946 89.277 346.118 88.0102 346.118 86.6361V86.2175C346.118 84.8434 345.946 83.5766 345.603 82.4172C345.259 81.2578 344.755 80.2595 344.089 79.4221C343.424 78.5633 342.597 77.8978 341.609 77.4254C340.643 76.9531 339.527 76.7169 338.26 76.7169C337.165 76.7169 336.177 76.8779 335.297 77.2C334.438 77.522 333.698 77.9729 333.075 78.5526C332.452 79.1323 331.969 79.8193 331.626 80.6137C331.304 81.4081 331.143 82.2669 331.143 83.1902V89.599Z" fill="#0B0C0C"/>
<path d="M294.403 92.6263C295.67 93.7642 297.183 94.7411 298.944 95.557C300.704 96.3728 302.487 96.7808 304.29 96.7808C305.6 96.7808 306.63 96.5339 307.382 96.0401C308.133 95.5248 308.509 94.8699 308.509 94.0755C308.509 92.7229 307.06 91.6709 304.161 90.9194L301.649 90.2431C300.404 89.9425 299.148 89.5346 297.881 89.0193C296.614 88.4826 295.444 87.7848 294.371 86.926C293.319 86.0672 292.46 85.0259 291.794 83.8021C291.15 82.5568 290.828 81.0324 290.828 79.2289C290.828 77.7904 291.14 76.4271 291.762 75.1388C292.406 73.8292 293.308 72.6805 294.467 71.6929C295.648 70.7052 297.076 69.9216 298.751 69.3419C300.425 68.7622 302.293 68.4724 304.354 68.4724C307.296 68.4724 309.915 68.934 312.212 69.8572C314.531 70.7804 316.356 71.8217 317.687 72.9811L313.05 78.9069C311.955 78.1125 310.656 77.4361 309.153 76.8779C307.672 76.2982 306.179 76.0084 304.676 76.0084C303.281 76.0084 302.197 76.266 301.424 76.7813C300.651 77.2751 300.264 77.8763 300.264 78.5848C300.264 79.3363 300.597 79.9482 301.263 80.4205C301.95 80.8714 302.937 81.2686 304.226 81.6121L307.961 82.6749C311.525 83.684 314.08 85.0473 315.626 86.7649C317.172 88.4826 317.945 90.651 317.945 93.2704C317.945 94.7304 317.644 96.1259 317.043 97.4571C316.442 98.7668 315.562 99.9369 314.402 100.967C313.243 101.998 311.805 102.814 310.087 103.415C308.369 103.995 306.416 104.285 304.226 104.285C302.551 104.285 300.973 104.134 299.491 103.834C298.031 103.533 296.668 103.125 295.401 102.61C294.156 102.073 293.029 101.472 292.02 100.806C291.011 100.141 290.152 99.4753 289.443 98.8097L294.403 92.6263Z" fill="#0B0C0C"/>
<path d="M256.123 69.1487H265.012V72.1115C265.484 71.6392 266.01 71.1883 266.59 70.7589C267.191 70.308 267.846 69.9216 268.554 69.5995C269.263 69.256 270.046 68.9876 270.905 68.7944C271.786 68.5797 272.752 68.4724 273.804 68.4724C275.672 68.4724 277.346 68.7837 278.828 69.4063C280.309 70.0075 281.554 70.8448 282.564 71.9183C283.594 72.9918 284.378 74.2478 284.915 75.6863C285.451 77.1248 285.72 78.6814 285.72 80.3561V103.64H276.831V83.5766C276.831 82.3528 276.691 81.3222 276.412 80.4849C276.133 79.6261 275.747 78.9391 275.253 78.4238C274.781 77.887 274.212 77.5006 273.546 77.2644C272.902 77.0067 272.193 76.8779 271.421 76.8779C270.519 76.8779 269.671 77.039 268.876 77.361C268.103 77.6831 267.427 78.1769 266.847 78.8424C266.268 79.4866 265.817 80.3024 265.495 81.29C265.173 82.2777 265.012 83.4371 265.012 84.7682V103.64H256.123V69.1487Z" fill="#0B0C0C"/>
<path d="M234.396 89.6312C233.301 89.803 232.42 90.1894 231.755 90.7906C231.089 91.3703 230.757 92.1647 230.757 93.1738C230.757 94.2902 231.164 95.2564 231.98 96.0723C232.796 96.8667 233.998 97.2639 235.587 97.2639C237.262 97.2639 238.582 96.7808 239.549 95.8146C240.515 94.8485 240.998 93.571 240.998 91.9822V88.504L234.396 89.6312ZM242.447 100.388C242.082 100.796 241.631 101.236 241.094 101.708C240.579 102.159 239.956 102.578 239.226 102.964C238.518 103.329 237.681 103.64 236.714 103.898C235.748 104.156 234.664 104.285 233.462 104.285C231.744 104.285 230.155 104.016 228.695 103.479C227.257 102.921 225.99 102.148 224.895 101.161C223.8 100.173 222.941 99.0351 222.319 97.7469C221.696 96.4373 221.385 95.0202 221.385 93.4958C221.385 90.7262 222.244 88.4611 223.961 86.7005C225.679 84.94 228.051 83.8343 231.079 83.3834L240.998 81.9342V81.29C240.998 79.7442 240.525 78.5204 239.581 77.6186C238.636 76.7169 237.101 76.266 234.975 76.266C234.095 76.266 233.204 76.3734 232.302 76.5881C231.401 76.7813 230.531 77.0067 229.694 77.2644C228.878 77.522 228.116 77.8226 227.407 78.1661C226.699 78.4882 226.076 78.778 225.539 79.0357L222.061 72.2404C224.036 71.1454 226.226 70.2436 228.631 69.5351C231.057 68.8266 233.569 68.4724 236.167 68.4724C237.756 68.4724 239.355 68.6441 240.966 68.9876C242.597 69.3097 244.068 69.9109 245.378 70.7911C246.709 71.6714 247.793 72.8737 248.63 74.3981C249.468 75.901 249.886 77.8226 249.886 80.1629V94.3332C249.886 95.3423 250.144 96.0937 250.659 96.5875C251.196 97.0599 251.926 97.5 252.849 97.908L248.824 104.285C247.192 104.113 245.882 103.694 244.895 103.029C243.907 102.342 243.091 101.461 242.447 100.388Z" fill="#0B0C0C"/>
<path d="M218.919 77.7797H217.985C216.718 77.7797 215.505 77.9085 214.346 78.1662C213.208 78.4238 212.199 78.8962 211.318 79.5832C210.438 80.2488 209.73 81.172 209.193 82.3529C208.678 83.5337 208.42 85.0474 208.42 86.8938V103.641H199.531V69.1487H208.42V73.0455C208.785 72.4658 209.257 71.9076 209.837 71.3709C210.417 70.8341 211.093 70.3618 211.866 69.9538C212.639 69.5244 213.508 69.1809 214.474 68.9233C215.441 68.6656 216.482 68.5368 217.598 68.5368H218.919V77.7797Z" fill="#0B0C0C"/>
<path d="M164.342 57.4581H199.542V66.1213H186.628V103.64H177.256V66.1213H164.342V57.4581Z" fill="#0B0C0C"/>
<path d="M122.274 90.6617C122.875 91.3487 123.605 92.0251 124.464 92.6906C125.323 93.3562 126.268 93.9574 127.298 94.4941C128.35 95.0094 129.488 95.4281 130.712 95.7501C131.936 96.0507 133.256 96.201 134.673 96.201C137.314 96.201 139.332 95.6535 140.728 94.5585C142.145 93.4421 142.853 92.0895 142.853 90.5007C142.853 88.8475 142.231 87.5915 140.986 86.7327C139.762 85.8739 137.808 85.1975 135.124 84.7037L133.675 84.4461C131.743 84.1026 129.821 83.6517 127.91 83.0935C125.999 82.5352 124.271 81.7301 122.725 80.6781C121.179 79.626 119.923 78.2841 118.957 76.6524C117.991 74.9992 117.508 72.9166 117.508 70.4046C117.508 68.9446 117.83 67.4202 118.474 65.8314C119.118 64.2212 120.138 62.7505 121.534 61.4193C122.951 60.0667 124.765 58.961 126.976 58.1022C129.209 57.2434 131.904 56.814 135.06 56.814C138.796 56.814 142.123 57.4366 145.043 58.6819C147.985 59.9057 150.357 61.5267 152.161 63.5449L145.945 69.3418C144.678 67.9463 143.047 66.8513 141.05 66.0569C139.075 65.2625 137.035 64.8653 134.931 64.8653C132.505 64.8653 130.605 65.3269 129.231 66.2501C127.878 67.1733 127.202 68.3757 127.202 69.8571C127.202 70.8233 127.416 71.6284 127.846 72.2725C128.297 72.9166 128.919 73.4534 129.714 73.8828C130.508 74.2907 131.464 74.6342 132.58 74.9133C133.696 75.1924 134.942 75.4715 136.316 75.7507L137.057 75.8795C138.903 76.223 140.739 76.6631 142.564 77.1999C144.389 77.7152 146.042 78.4881 147.523 79.5187C149.026 80.5278 150.239 81.8589 151.162 83.5121C152.086 85.1439 152.547 87.2372 152.547 89.7922C152.547 92.1109 152.064 94.1613 151.098 95.9434C150.132 97.7254 148.854 99.2498 147.266 100.517C145.677 101.762 143.841 102.706 141.758 103.351C139.676 103.973 137.507 104.285 135.253 104.285C132.977 104.285 130.862 104.091 128.909 103.705C126.976 103.318 125.216 102.771 123.627 102.062C122.06 101.354 120.653 100.559 119.408 99.6792C118.184 98.7989 117.111 97.8542 116.188 96.8451L122.274 90.6617Z" fill="#0B0C0C"/>
<path d="M112.845 80.5492C112.845 84.0059 112.373 87.1621 111.428 90.0176C110.505 92.8517 109.109 95.2778 107.241 97.296C105.395 99.3142 103.076 100.881 100.285 101.998C97.4939 103.093 94.2304 103.64 90.4946 103.64H73.4902V57.4581H90.4946C94.2304 57.4581 97.4939 58.0163 100.285 59.1327C103.076 60.2277 105.395 61.7843 107.241 63.8025C109.109 65.8207 110.505 68.2576 111.428 71.1131C112.373 73.9472 112.845 77.0925 112.845 80.5492ZM103.151 79.6475C103.151 77.6937 102.904 75.8795 102.411 74.2048C101.938 72.5087 101.165 71.038 100.092 69.7927C99.0397 68.5474 97.6657 67.5705 95.9695 66.862C94.2734 66.132 92.223 65.767 89.8183 65.767H82.8298V95.3315H89.8183C92.2015 95.3315 94.2412 94.9772 95.9373 94.2687C97.6334 93.5387 99.0075 92.5511 100.06 91.3058C101.133 90.0391 101.917 88.5576 102.411 86.8615C102.904 85.1653 103.151 83.3511 103.151 81.4188V79.6475Z" fill="#0B0C0C"/>
<path d="M34.1489 80.6781C34.1489 82.6533 34.3958 84.5534 34.8896 86.3784C35.3834 88.2034 36.1349 89.8136 37.144 91.2092C38.1531 92.6048 39.4413 93.7319 41.0086 94.5907C42.576 95.4281 44.4439 95.8467 46.6123 95.8467C48.695 95.8467 50.4233 95.514 51.7974 94.8484C53.193 94.1828 54.2987 93.3562 55.1145 92.3686C55.9519 91.3595 56.5316 90.2752 56.8536 89.1158C57.1971 87.9565 57.3689 86.8829 57.3689 85.8953V85.4444H45.5496V78.3271H66.4508V103.64H58.2706V98.2299C57.691 99.1317 56.9717 99.9583 56.1129 100.71C55.2541 101.44 54.2879 102.073 53.2144 102.61C52.1409 103.125 50.9601 103.533 49.6718 103.834C48.4051 104.134 47.0525 104.285 45.614 104.285C42.2432 104.285 39.2481 103.673 36.6287 102.449C34.0093 101.225 31.7979 99.5396 29.9944 97.3926C28.2124 95.2456 26.849 92.7336 25.9044 89.8566C24.9811 86.9796 24.5195 83.8771 24.5195 80.5492C24.5195 77.2428 25.0348 74.1511 26.0654 71.2741C27.1174 68.3757 28.5989 65.8636 30.5097 63.7381C32.442 61.5911 34.7608 59.9057 37.466 58.6819C40.1928 57.4366 43.2415 56.814 46.6123 56.814C48.8023 56.814 50.8742 57.0716 52.828 57.5869C54.8032 58.0807 56.596 58.8 58.2062 59.7446C59.838 60.6679 61.2765 61.795 62.5217 63.1262C63.767 64.4359 64.7761 65.8958 65.549 67.5061L57.3689 72.1115C56.8751 71.1238 56.2954 70.2114 55.6298 69.374C54.9642 68.5152 54.1913 67.7852 53.311 67.1841C52.4522 66.5614 51.4646 66.0783 50.3482 65.7348C49.2317 65.3698 47.9864 65.1873 46.6123 65.1873C44.4439 65.1873 42.576 65.6167 41.0086 66.4755C39.4413 67.3129 38.1531 68.4293 37.144 69.8249C36.1349 71.2205 35.3834 72.8415 34.8896 74.6879C34.3958 76.5129 34.1489 78.4022 34.1489 80.356V80.6781Z" fill="#0B0C0C"/>
</g>
<defs>
<clipPath id="clip0_1389_806">
<rect width="480" height="222" fill="white"/>
</clipPath>
</defs>
</svg>
