<svg width="692" height="96" viewBox="0 0 692 96" fill="none" xmlns="http://www.w3.org/2000/svg">
<path d="M16.5265 39.8213C16.5265 43.0879 16.9348 46.2301 17.7515 49.2481C18.5681 52.2661 19.8108 54.929 21.4796 57.2369C23.1484 59.5448 25.2787 61.4088 27.8706 62.8291C30.4625 64.2138 33.5516 64.9062 37.1376 64.9062C40.5817 64.9062 43.4399 64.3558 45.7123 63.2551C48.0202 62.1545 49.8487 60.7875 51.1979 59.1542C52.5827 57.4855 53.5413 55.6924 54.0739 53.7751C54.642 51.8578 54.926 50.0825 54.926 48.4492V47.7036H35.3801V35.9334H69.945V77.7948H56.4173V68.8473C55.4586 70.3386 54.2692 71.7055 52.8489 72.9482C51.4287 74.1554 49.831 75.2028 48.0557 76.0905C46.2804 76.9426 44.3276 77.6172 42.1972 78.1143C40.1024 78.6114 37.8655 78.8599 35.4866 78.8599C29.9122 78.8599 24.9591 77.848 20.6274 75.8242C16.2957 73.8004 12.6386 71.0132 9.65615 67.4626C6.70917 63.912 4.45455 59.7578 2.8923 55.0001C1.36555 50.2423 0.602176 45.1117 0.602176 39.6083C0.602176 34.1404 1.45431 29.0276 3.15859 24.2698C4.89838 19.4765 7.34828 15.3223 10.5083 11.8073C13.7038 8.25668 17.5384 5.46947 22.0122 3.44564C26.5214 1.38631 31.5632 0.356638 37.1376 0.356638C40.7592 0.356638 44.1855 0.782708 47.4166 1.63485C50.6831 2.45148 53.6478 3.64092 56.3108 5.20318C59.0092 6.72993 61.3881 8.59398 63.4474 10.7953C65.5068 12.9612 67.1755 15.3756 68.4537 18.0385L54.926 25.6545C54.1094 24.0212 53.1507 22.5123 52.0501 21.1275C50.9494 19.7073 49.6712 18.5001 48.2154 17.5059C46.7952 16.4763 45.1619 15.6774 43.3156 15.1093C41.4693 14.5057 39.41 14.2039 37.1376 14.2039C33.5516 14.2039 30.4625 14.914 27.8706 16.3342C25.2787 17.719 23.1484 19.5653 21.4796 21.8731C19.8108 24.181 18.5681 26.8617 17.7515 29.9152C16.9348 32.9332 16.5265 36.0577 16.5265 39.2887V39.8213ZM146.672 39.6083C146.672 45.3247 145.891 50.5441 144.328 55.2663C142.802 59.9531 140.494 63.9653 137.405 67.3028C134.351 70.6404 130.517 73.2323 125.901 75.0786C121.285 76.8894 115.888 77.7948 109.71 77.7948H81.5897V1.42181H109.71C115.888 1.42181 121.285 2.34496 125.901 4.19126C130.517 6.00206 134.351 8.57623 137.405 11.9138C140.494 15.2513 142.802 19.2812 144.328 24.0035C145.891 28.6903 146.672 33.8919 146.672 39.6083ZM130.641 38.117C130.641 34.886 130.233 31.8858 129.416 29.1163C128.635 26.3114 127.357 23.8792 125.581 21.8199C123.842 19.7606 121.569 18.145 118.764 16.9733C115.959 15.7662 112.569 15.1626 108.592 15.1626H97.0347V64.054H108.592C112.533 64.054 115.906 63.4682 118.711 62.2965C121.516 61.0893 123.788 59.456 125.528 57.3967C127.303 55.3019 128.599 52.852 129.416 50.047C130.233 47.242 130.641 44.2418 130.641 41.0463V38.117ZM162.258 56.3315C163.252 57.4677 164.459 58.5861 165.879 59.6868C167.3 60.7875 168.862 61.7817 170.566 62.6693C172.306 63.5214 174.188 64.2138 176.211 64.7464C178.235 65.2435 180.419 65.492 182.762 65.492C187.13 65.492 190.467 64.5866 192.775 62.7758C195.118 60.9295 196.29 58.6927 196.29 56.0652C196.29 53.3313 195.26 51.2542 193.201 49.834C191.177 48.4137 187.946 47.2953 183.508 46.4787L181.111 46.0526C177.916 45.4845 174.738 44.7389 171.578 43.8157C168.418 42.8926 165.56 41.5611 163.003 39.8213C160.447 38.0815 158.37 35.8624 156.772 33.164C155.174 30.43 154.375 26.986 154.375 22.8318C154.375 20.4174 154.908 17.8965 155.973 15.2691C157.038 12.6061 158.725 10.174 161.033 7.97263C163.376 5.73577 166.376 3.90722 170.033 2.48699C173.726 1.06675 178.182 0.356638 183.401 0.356638C189.579 0.356638 195.083 1.38631 199.912 3.44564C204.776 5.46947 208.699 8.15016 211.682 11.4877L201.403 21.0743C199.308 18.7664 196.61 16.9556 193.308 15.6419C190.041 14.3282 186.668 13.6713 183.188 13.6713C179.176 13.6713 176.034 14.4347 173.762 15.9614C171.525 17.4882 170.406 19.4765 170.406 21.9264C170.406 23.5242 170.761 24.8556 171.471 25.9208C172.217 26.986 173.247 27.8736 174.56 28.5837C175.874 29.2584 177.454 29.8264 179.3 30.288C181.147 30.7496 183.206 31.2112 185.479 31.6727L186.703 31.8858C189.757 32.4539 192.793 33.1817 195.811 34.0694C198.829 34.9215 201.563 36.1997 204.013 37.904C206.498 39.5728 208.504 41.7741 210.031 44.5081C211.558 47.2065 212.321 50.6683 212.321 54.8935C212.321 58.7282 211.522 62.119 209.924 65.0659C208.326 68.0129 206.214 70.5338 203.586 72.6287C200.959 74.688 197.923 76.2503 194.479 77.3154C191.035 78.3451 187.449 78.8599 183.721 78.8599C179.957 78.8599 176.46 78.5404 173.229 77.9013C170.033 77.2622 167.122 76.3568 164.495 75.1851C161.903 74.0134 159.577 72.6997 157.518 71.244C155.494 69.7882 153.719 68.226 152.192 66.5572L162.258 56.3315ZM231.829 1.42181H290.041V15.7484H268.684V77.7948H253.186V15.7484H231.829V1.42181ZM322.084 35.028H320.539C318.444 35.028 316.438 35.2411 314.521 35.6671C312.639 36.0932 310.97 36.8743 309.514 38.0105C308.059 39.1112 306.887 40.638 305.999 42.5908C305.147 44.5436 304.721 47.0468 304.721 50.1003V77.7948H290.022V20.7547H304.721V27.199C305.325 26.2404 306.106 25.3172 307.065 24.4296C308.023 23.5419 309.142 22.7608 310.42 22.0862C311.698 21.3761 313.136 20.808 314.734 20.3819C316.332 19.9558 318.054 19.7428 319.9 19.7428H322.084V35.028ZM347.682 54.6272C345.871 54.9113 344.416 55.5504 343.315 56.5446C342.214 57.5032 341.664 58.8169 341.664 60.4857C341.664 62.332 342.338 63.9298 343.688 65.279C345.037 66.5927 347.025 67.2495 349.653 67.2495C352.422 67.2495 354.606 66.4507 356.203 64.8529C357.801 63.2551 358.6 61.1426 358.6 58.5151V52.7632L347.682 54.6272ZM360.997 72.4156C360.393 73.0903 359.648 73.8181 358.76 74.5992C357.908 75.3449 356.878 76.0372 355.671 76.6763C354.499 77.2799 353.114 77.7948 351.517 78.2208C349.919 78.6469 348.126 78.8599 346.138 78.8599C343.297 78.8599 340.67 78.4161 338.255 77.5285C335.876 76.6053 333.782 75.3271 331.971 73.6939C330.16 72.0606 328.74 70.1788 327.71 68.0484C326.68 65.8826 326.166 63.5392 326.166 61.0183C326.166 56.438 327.586 52.6922 330.426 49.7807C333.267 46.8692 337.19 45.0407 342.196 44.2951L358.6 41.8984V40.8332C358.6 38.2768 357.819 36.253 356.257 34.7617C354.694 33.2705 352.156 32.5249 348.641 32.5249C347.185 32.5249 345.711 32.7024 344.22 33.0575C342.729 33.377 341.291 33.7498 339.906 34.1759C338.557 34.602 337.297 35.0991 336.125 35.6671C334.953 36.1997 333.924 36.6791 333.036 37.1051L327.284 25.8675C330.551 24.0568 334.172 22.5655 338.149 21.3938C342.161 20.2221 346.315 19.6363 350.611 19.6363C353.239 19.6363 355.884 19.9203 358.547 20.4884C361.245 21.021 363.677 22.0152 365.843 23.4709C368.045 24.9266 369.838 26.915 371.222 29.4359C372.607 31.9213 373.299 35.0991 373.299 38.9692V62.403C373.299 64.0718 373.726 65.3145 374.578 66.1311C375.465 66.9122 376.673 67.6401 378.199 68.3147L371.542 78.8599C368.844 78.5759 366.678 77.8835 365.044 76.7829C363.411 75.6467 362.062 74.1909 360.997 72.4156ZM383.613 20.7547H398.312V25.6545C399.093 24.8734 399.963 24.1278 400.922 23.4176C401.916 22.672 402.999 22.0329 404.171 21.5003C405.342 20.9322 406.638 20.4884 408.058 20.1689C409.514 19.8138 411.112 19.6363 412.852 19.6363C415.941 19.6363 418.71 20.1511 421.16 21.1808C423.61 22.1749 425.669 23.5597 427.338 25.335C429.042 27.1103 430.338 29.1873 431.226 31.5662C432.114 33.9451 432.557 36.5193 432.557 39.2887V77.7948H417.858V44.6146C417.858 42.5908 417.627 40.8865 417.166 39.5018C416.704 38.0815 416.065 36.9454 415.248 36.0932C414.467 35.2056 413.526 34.5665 412.426 34.1759C411.361 33.7498 410.189 33.5368 408.911 33.5368C407.419 33.5368 406.017 33.8031 404.703 34.3357C403.425 34.8683 402.307 35.6849 401.348 36.7856C400.389 37.8508 399.644 39.2 399.111 40.8332C398.578 42.4665 398.312 44.3838 398.312 46.5852V77.7948H383.613V20.7547ZM446.918 59.5803C449.013 61.4621 451.516 63.0776 454.428 64.4268C457.339 65.7761 460.286 66.4507 463.269 66.4507C465.435 66.4507 467.139 66.0424 468.382 65.2257C469.624 64.3736 470.246 63.2907 470.246 61.9769C470.246 59.7401 467.849 58.0003 463.056 56.7576L458.902 55.6392C456.842 55.1421 454.765 54.4675 452.67 53.6153C450.575 52.7277 448.64 51.5737 446.865 50.1535C445.125 48.7333 443.705 47.0112 442.604 44.9874C441.539 42.9281 441.007 40.4072 441.007 37.4247C441.007 35.0458 441.522 32.7912 442.551 30.6608C443.616 28.495 445.108 26.5954 447.025 24.9622C448.978 23.3289 451.339 22.0329 454.108 21.0743C456.878 20.1156 459.967 19.6363 463.375 19.6363C468.24 19.6363 472.571 20.3997 476.37 21.9264C480.205 23.4532 483.223 25.1752 485.424 27.0925L477.755 36.8921C475.944 35.5784 473.796 34.46 471.311 33.5368C468.861 32.5781 466.393 32.0988 463.908 32.0988C461.6 32.0988 459.807 32.5249 458.529 33.377C457.251 34.1937 456.611 35.1878 456.611 36.3595C456.611 37.6022 457.162 38.6141 458.263 39.3953C459.399 40.1409 461.032 40.7977 463.162 41.3658L469.34 43.1234C475.234 44.7921 479.459 47.0468 482.016 49.8872C484.572 52.7277 485.851 56.3138 485.851 60.6455C485.851 63.0599 485.353 65.3677 484.359 67.5691C483.365 69.735 481.909 71.67 479.992 73.3743C478.075 75.0786 475.696 76.4278 472.855 77.422C470.015 78.3806 466.784 78.8599 463.162 78.8599C460.393 78.8599 457.783 78.6114 455.333 78.1143C452.919 77.6172 450.664 76.9426 448.569 76.0905C446.51 75.2028 444.646 74.2087 442.977 73.108C441.308 72.0073 439.888 70.9066 438.717 69.806L446.918 59.5803ZM508.094 95.7962H493.394V20.7547H508.094V25.6545C509.691 23.9857 511.662 22.5655 514.005 21.3938C516.349 20.2221 519.189 19.6363 522.527 19.6363C526.29 19.6363 529.699 20.3997 532.753 21.9264C535.842 23.4176 538.487 25.4947 540.688 28.1577C542.889 30.7851 544.594 33.9096 545.801 37.5312C547.008 41.1528 547.612 45.0762 547.612 49.3014C547.612 53.5266 546.99 57.45 545.748 61.0715C544.505 64.6931 542.765 67.8176 540.528 70.4451C538.291 73.0725 535.611 75.1318 532.486 76.6231C529.362 78.1143 525.918 78.8599 522.154 78.8599C520.485 78.8599 518.959 78.7002 517.574 78.3806C516.225 78.0966 514.982 77.6883 513.846 77.1557C512.709 76.6231 511.662 76.0017 510.703 75.2916C509.745 74.546 508.875 73.7471 508.094 72.895V95.7962ZM507.668 54.574C507.668 56.1007 507.934 57.521 508.467 58.8347C509.035 60.1129 509.834 61.2313 510.863 62.19C511.893 63.1486 513.118 63.8943 514.538 64.4268C515.994 64.9594 517.627 65.2257 519.438 65.2257C521.533 65.2257 523.379 64.8529 524.977 64.1073C526.61 63.3262 527.977 62.2432 529.078 60.8585C530.178 59.4738 531.013 57.8405 531.581 55.9587C532.149 54.0414 532.433 51.9466 532.433 49.6742V48.9818C532.433 46.7094 532.149 44.6146 531.581 42.6973C531.013 40.78 530.178 39.129 529.078 37.7442C527.977 36.324 526.61 35.2233 524.977 34.4422C523.379 33.6611 521.533 33.2705 519.438 33.2705C517.627 33.2705 515.994 33.5368 514.538 34.0694C513.118 34.602 511.893 35.3476 510.863 36.3063C509.834 37.2649 509.035 38.4011 508.467 39.7148C507.934 41.0285 507.668 42.4488 507.668 43.9755V54.574ZM580.507 19.6363C584.732 19.6363 588.566 20.3997 592.01 21.9264C595.455 23.4176 598.402 25.4947 600.851 28.1577C603.301 30.8206 605.183 33.9629 606.497 37.5845C607.846 41.2061 608.521 45.1117 608.521 49.3014C608.521 53.5266 607.846 57.45 606.497 61.0715C605.148 64.6576 603.248 67.7644 600.798 70.3918C598.348 73.0192 595.401 75.0963 591.957 76.6231C588.513 78.1143 584.696 78.8599 580.507 78.8599C576.281 78.8599 572.447 78.1143 569.003 76.6231C565.559 75.0963 562.612 73.0192 560.162 70.3918C557.712 67.7644 555.812 64.6576 554.463 61.0715C553.114 57.45 552.439 53.5266 552.439 49.3014C552.439 45.1117 553.096 41.2061 554.41 37.5845C555.759 33.9629 557.659 30.8206 560.109 28.1577C562.558 25.4947 565.505 23.4176 568.949 21.9264C572.429 20.3997 576.281 19.6363 580.507 19.6363ZM580.507 65.2257C582.601 65.2257 584.448 64.8352 586.046 64.054C587.679 63.2729 589.046 62.19 590.146 60.8052C591.247 59.4205 592.081 57.7695 592.65 55.8522C593.218 53.8994 593.502 51.769 593.502 49.4611V49.0883C593.502 46.7805 593.218 44.6679 592.65 42.7506C592.081 40.7977 591.247 39.129 590.146 37.7442C589.046 36.324 587.679 35.2233 586.046 34.4422C584.448 33.6611 582.601 33.2705 580.507 33.2705C578.412 33.2705 576.548 33.6611 574.914 34.4422C573.317 35.2233 571.967 36.324 570.867 37.7442C569.766 39.129 568.932 40.7977 568.364 42.7506C567.796 44.6679 567.511 46.7805 567.511 49.0883V49.4611C567.511 51.769 567.796 53.8994 568.364 55.8522C568.932 57.7695 569.766 59.4205 570.867 60.8052C571.967 62.19 573.317 63.2729 574.914 64.054C576.548 64.8352 578.412 65.2257 580.507 65.2257ZM648.339 35.028H646.795C644.7 35.028 642.694 35.2411 640.777 35.6671C638.895 36.0932 637.226 36.8743 635.77 38.0105C634.314 39.1112 633.143 40.638 632.255 42.5908C631.403 44.5436 630.977 47.0468 630.977 50.1003V77.7948H616.278V20.7547H630.977V27.199C631.581 26.2404 632.362 25.3172 633.32 24.4296C634.279 23.5419 635.397 22.7608 636.676 22.0862C637.954 21.3761 639.392 20.808 640.99 20.3819C642.587 19.9558 644.309 19.7428 646.156 19.7428H648.339V35.028ZM676.547 60.8052C676.547 61.4799 676.636 62.119 676.814 62.7226C676.991 63.3262 677.293 63.8587 677.719 64.3203C678.181 64.7464 678.82 65.0837 679.636 65.3322C680.453 65.5808 681.501 65.705 682.779 65.705C683.311 65.705 683.915 65.6873 684.59 65.6518C685.264 65.5808 685.939 65.5098 686.613 65.4388C687.288 65.3677 687.909 65.279 688.477 65.1725C689.081 65.0659 689.578 64.9772 689.969 64.9062L691.3 77.9013C689.915 78.0788 688.477 78.2386 686.986 78.3806C685.708 78.5226 684.288 78.6292 682.725 78.7002C681.163 78.8067 679.583 78.8599 677.985 78.8599C672.908 78.8599 668.949 77.706 666.109 75.3981C663.268 73.0903 661.848 69.4154 661.848 64.3736V33.5368H651.569V20.7547H661.848V4.61733L676.547 0.67619V20.7547H691.513V33.5368H676.547V60.8052Z" fill="white"/>
</svg>
