<svg width="480" height="320" viewBox="0 0 480 320" fill="none" xmlns="http://www.w3.org/2000/svg">
<rect opacity="0.8" width="480" height="320" fill="white"/>
<path d="M252.119 177C256.049 177 259.694 177.589 263.056 178.768C266.417 179.903 269.343 181.541 271.831 183.68C274.32 185.819 276.263 188.417 277.66 191.473C279.057 194.485 279.755 197.847 279.755 201.558C279.755 203.479 279.471 205.378 278.904 207.255C278.38 209.133 277.594 210.901 276.546 212.56C275.498 214.175 274.232 215.66 272.748 217.013C271.264 218.367 269.583 219.48 267.705 220.353C269.233 220.877 271.002 221.663 273.01 222.711C275.062 223.758 277.005 225.199 278.838 227.033C280.672 228.867 282.222 231.137 283.488 233.844C284.754 236.507 285.387 239.738 285.387 243.536C285.387 248.295 284.47 252.399 282.637 255.848C280.847 259.297 278.402 262.134 275.302 264.361C272.246 266.588 268.644 268.246 264.496 269.338C260.393 270.386 256.049 270.91 251.464 270.91H210.338V177H252.119ZM265.937 242.881C265.937 240.349 265.479 238.275 264.562 236.66C263.645 235.044 262.423 233.756 260.895 232.796C259.41 231.835 257.708 231.18 255.787 230.831C253.866 230.438 251.901 230.242 249.893 230.242H229.329V255.913H249.893C251.901 255.913 253.866 255.717 255.787 255.324C257.708 254.931 259.41 254.232 260.895 253.228C262.423 252.224 263.645 250.892 264.562 249.233C265.479 247.574 265.937 245.457 265.937 242.881ZM260.633 203.457C260.633 199.877 259.498 197.083 257.227 195.075C254.957 193.066 251.29 192.062 246.225 192.062H229.329V214.197H246.225C251.202 214.197 254.848 213.259 257.162 211.381C259.476 209.46 260.633 206.819 260.633 203.457ZM328.478 199.397C333.674 199.397 338.389 200.336 342.623 202.213C346.859 204.047 350.482 206.601 353.495 209.875C356.507 213.149 358.821 217.013 360.436 221.466C362.096 225.92 362.925 230.722 362.925 235.874C362.925 241.069 362.096 245.893 360.436 250.347C358.777 254.756 356.442 258.576 353.429 261.807C350.417 265.038 346.793 267.592 342.558 269.469C338.323 271.302 333.63 272.22 328.478 272.22C323.283 272.22 318.568 271.302 314.333 269.469C310.098 267.592 306.474 265.038 303.462 261.807C300.45 258.576 298.114 254.756 296.455 250.347C294.796 245.893 293.966 241.069 293.966 235.874C293.966 230.722 294.774 225.92 296.389 221.466C298.049 217.013 300.384 213.149 303.396 209.875C306.409 206.601 310.033 204.047 314.268 202.213C318.546 200.336 323.283 199.397 328.478 199.397ZM328.478 255.455C331.054 255.455 333.325 254.974 335.289 254.014C337.297 253.053 338.979 251.722 340.332 250.019C341.685 248.316 342.711 246.286 343.41 243.929C344.108 241.528 344.458 238.908 344.458 236.07V235.612C344.458 232.774 344.108 230.176 343.41 227.819C342.711 225.417 341.685 223.366 340.332 221.663C338.979 219.916 337.297 218.563 335.289 217.603C333.325 216.642 331.054 216.162 328.478 216.162C325.902 216.162 323.61 216.642 321.602 217.603C319.638 218.563 317.978 219.916 316.625 221.663C315.272 223.366 314.246 225.417 313.547 227.819C312.848 230.176 312.499 232.774 312.499 235.612V236.07C312.499 238.908 312.848 241.528 313.547 243.929C314.246 246.286 315.272 248.316 316.625 250.019C317.978 251.722 319.638 253.053 321.602 254.014C323.61 254.974 325.902 255.455 328.478 255.455ZM374.647 177H392.722V251.853C392.722 253.337 393.137 254.472 393.967 255.258C394.84 256.044 396.215 256.437 398.092 256.437C398.965 256.437 399.707 256.393 400.319 256.306C400.974 256.175 401.803 256 402.807 255.782L404.248 271.172C403.026 271.346 401.715 271.521 400.319 271.696C399.14 271.826 397.764 271.936 396.193 272.023C394.665 272.154 393.071 272.22 391.413 272.22C388.837 272.22 386.523 271.892 384.471 271.237C382.419 270.583 380.65 269.622 379.166 268.356C377.725 267.046 376.612 265.431 375.827 263.51C375.04 261.589 374.647 259.362 374.647 256.83V177ZM459.258 270.91V264.885C458.297 265.933 457.228 266.915 456.049 267.832C454.914 268.705 453.626 269.469 452.185 270.124C450.788 270.779 449.238 271.281 447.536 271.631C445.877 272.023 444.021 272.22 441.969 272.22C437.341 272.22 433.106 271.302 429.265 269.469C425.422 267.636 422.126 265.104 419.376 261.873C416.625 258.641 414.486 254.8 412.958 250.347C411.473 245.893 410.732 241.069 410.732 235.874C410.732 230.678 411.473 225.854 412.958 221.401C414.442 216.948 416.516 213.106 419.179 209.875C421.886 206.601 425.139 204.047 428.937 202.213C432.735 200.336 436.949 199.397 441.576 199.397C445.68 199.397 449.151 200.117 451.989 201.558C454.87 202.955 457.293 204.701 459.258 206.797V177H477.333V270.91H459.258ZM459.782 229.325C459.782 227.448 459.432 225.701 458.734 224.086C458.079 222.471 457.119 221.073 455.852 219.895C454.587 218.716 453.059 217.799 451.268 217.144C449.522 216.489 447.536 216.162 445.309 216.162C442.733 216.162 440.441 216.642 438.433 217.603C436.469 218.563 434.809 219.916 433.456 221.663C432.102 223.366 431.076 225.396 430.378 227.753C429.679 230.111 429.33 232.687 429.33 235.481V236.332C429.33 239.126 429.679 241.702 430.378 244.06C431.076 246.374 432.102 248.382 433.456 250.085C434.809 251.787 436.469 253.119 438.433 254.079C440.441 254.996 442.733 255.455 445.309 255.455C447.536 255.455 449.522 255.127 451.268 254.472C453.059 253.817 454.587 252.901 455.852 251.722C457.119 250.543 458.079 249.168 458.734 247.596C459.432 245.981 459.782 244.234 459.782 242.357V229.325Z" fill="#0B0C0C"/>
<path d="M2 60.6116H13.5259V144.174H51.0506V154.521H2V60.6116ZM75.0192 154.521H64.0172V87.5927H75.0192V154.521ZM61.9871 68.2737C61.9871 67.2259 62.1836 66.2436 62.5765 65.3268C63.013 64.4099 63.5587 63.6022 64.2136 62.9037C64.9122 62.2052 65.7199 61.6594 66.6367 61.2665C67.5972 60.8299 68.6014 60.6116 69.6492 60.6116C70.697 60.6116 71.6793 60.8299 72.5962 61.2665C73.5129 61.6594 74.2988 62.2052 74.9537 62.9037C75.6522 63.6022 76.198 64.4099 76.5909 65.3268C77.0275 66.2436 77.2457 67.2259 77.2457 68.2737C77.2457 69.3216 77.0275 70.3257 76.5909 71.2862C76.198 72.203 75.6522 73.0107 74.9537 73.7092C74.2988 74.3641 73.5129 74.9098 72.5962 75.3464C71.6793 75.7394 70.697 75.9358 69.6492 75.9358C68.6014 75.9358 67.5972 75.7394 66.6367 75.3464C65.7199 74.9098 64.9122 74.3641 64.2136 73.7092C63.5587 73.0107 63.013 72.203 62.5765 71.2862C62.1836 70.3257 61.9871 69.3216 61.9871 68.2737ZM91.3913 117.39C91.3913 112.98 92.0241 108.876 93.2905 105.078C94.5561 101.28 96.3685 98.0053 98.7258 95.2548C101.083 92.4607 103.921 90.2777 107.239 88.706C110.601 87.0906 114.356 86.2829 118.504 86.2829C122.17 86.2829 125.663 87.0033 128.981 88.444C132.299 89.8411 135.116 92.1114 137.429 95.2548V87.5927H148.431V154.521C148.431 158.669 147.58 162.14 145.877 164.934C144.218 167.772 142.035 170.042 139.328 171.744C136.622 173.448 133.544 174.67 130.095 175.412C126.689 176.155 123.218 176.526 119.682 176.526C117.717 176.526 115.665 176.416 113.526 176.198C111.431 175.98 109.313 175.653 107.174 175.216C105.034 174.779 102.917 174.212 100.822 173.513C98.7697 172.858 96.8047 172.073 94.9274 171.156L98.9224 161.922C100.232 162.533 101.607 163.122 103.048 163.689C104.488 164.301 106.038 164.847 107.698 165.327C109.401 165.807 111.212 166.2 113.133 166.506C115.054 166.811 117.149 166.964 119.42 166.964C122.214 166.964 124.724 166.68 126.951 166.113C129.221 165.546 131.121 164.65 132.649 163.428C134.177 162.249 135.355 160.721 136.185 158.844C137.015 157.01 137.429 154.805 137.429 152.229V139.525C135.116 142.668 132.299 144.96 128.981 146.401C125.663 147.798 122.17 148.496 118.504 148.496C114.356 148.496 110.601 147.711 107.239 146.139C103.921 144.523 101.083 142.319 98.7258 139.525C96.3685 136.731 94.5561 133.456 93.2905 129.702C92.0241 125.903 91.3913 121.799 91.3913 117.39ZM137.692 117.128C137.692 114.115 137.363 111.343 136.709 108.811C136.054 106.235 135.028 104.008 133.631 102.131C132.234 100.21 130.444 98.7257 128.261 97.6778C126.122 96.5864 123.546 96.0407 120.534 96.0407C117.478 96.0407 114.836 96.5864 112.609 97.6778C110.383 98.7694 108.527 100.276 107.042 102.196C105.602 104.074 104.532 106.3 103.834 108.876C103.135 111.452 102.786 114.203 102.786 117.128V117.652C102.786 120.577 103.135 123.327 103.834 125.903C104.532 128.435 105.602 130.662 107.042 132.583C108.527 134.46 110.383 135.945 112.609 137.036C114.836 138.128 117.478 138.673 120.534 138.673C123.546 138.673 126.122 138.15 128.261 137.102C130.444 136.01 132.234 134.526 133.631 132.648C135.028 130.771 136.054 128.545 136.709 125.969C137.363 123.393 137.692 120.621 137.692 117.652V117.128ZM168.537 60.6116H179.538V95.2548C181.808 92.1551 184.603 89.8848 187.92 88.444C191.283 87.0033 195.015 86.2829 199.119 86.2829C202.83 86.2829 206.082 86.8942 208.877 88.1166C211.671 89.339 214.007 90.9981 215.884 93.0937C217.761 95.1894 219.158 97.6124 220.076 100.363C221.036 103.113 221.516 106.017 221.516 109.073V154.521H210.514V112.544C210.514 109.618 210.143 107.13 209.401 105.078C208.702 102.982 207.72 101.302 206.454 100.035C205.231 98.7257 203.769 97.787 202.066 97.2194C200.407 96.6082 198.617 96.3026 196.696 96.3026C194.6 96.3026 192.526 96.6956 190.474 97.4814C188.422 98.2236 186.589 99.3587 184.974 100.887C183.358 102.415 182.049 104.336 181.045 106.65C180.04 108.964 179.538 111.692 179.538 114.836V154.521H168.537V60.6116ZM258.386 137.888C258.386 139.023 258.452 140.092 258.582 141.096C258.757 142.057 259.128 142.908 259.695 143.65C260.307 144.393 261.18 144.982 262.315 145.419C263.45 145.856 265 146.073 266.965 146.073C267.489 146.073 268.1 146.051 268.798 146.008C269.541 145.964 270.304 145.921 271.091 145.877C271.876 145.79 272.64 145.702 273.382 145.615C274.125 145.484 274.757 145.375 275.281 145.288L276.461 154.915C275.194 155.089 273.885 155.242 272.531 155.373C271.396 155.504 270.13 155.613 268.733 155.7C267.336 155.788 265.939 155.831 264.542 155.831C261.879 155.831 259.478 155.547 257.338 154.98C255.242 154.456 253.452 153.582 251.968 152.361C250.483 151.138 249.349 149.544 248.562 147.58C247.777 145.571 247.384 143.148 247.384 140.311V97.2849H234.745V87.5927H247.384V65.7197L258.386 61.8559V87.5927H276.984V97.2849H258.386V137.888Z" fill="#0B0C0C"/>
</svg>
