<svg width="822" height="302" viewBox="0 0 822 302" fill="none" xmlns="http://www.w3.org/2000/svg">
<rect x="4.3501" y="0.116211" width="817.65" height="301.386" fill="#1D70B8"/>
<rect x="4.3501" y="55.6162" width="691.141" height="77.0072" fill="#16548A"/>
<rect x="4.3501" y="170.148" width="658.072" height="77.0072" fill="#16548A"/>
<path d="M695.491 301.502L695.491 0.116195" stroke="#5694CA" stroke-width="2"/>
<path d="M662.448 301.502L662.448 0.116195" stroke="#5694CA" stroke-width="2"/>
<rect x="210.573" y="170.165" width="21.6274" height="76.9905" fill="#0F385C"/>
<rect x="216.528" y="55.3047" width="19.4333" height="76.9905" fill="#0F385C"/>
<path d="M4.3501 170.148H822" stroke="#5694CA" stroke-width="2"/>
<path d="M4.3501 247.155H822" stroke="#5694CA" stroke-width="2"/>
<path d="M4.3501 55.6162H822" stroke="#5694CA" stroke-width="2"/>
<path d="M4.3501 132.624H822" stroke="#5694CA" stroke-width="2"/>
<path d="M39.8059 240.072C42.5754 240.072 45.0253 239.717 47.1556 239.007C49.3215 238.297 51.1855 237.356 52.7478 236.184C54.3455 235.012 55.6948 233.663 56.7954 232.136C57.8961 230.61 58.766 229.03 59.4051 227.396C60.0797 225.728 60.5591 224.077 60.8431 222.443C61.1627 220.774 61.3224 219.23 61.3224 217.81V214.667H39.9124V206.785H69.684V247.155H61.2159V236.876C59.9022 238.971 58.411 240.746 56.7422 242.202C55.0734 243.658 53.2981 244.83 51.4163 245.717C49.5345 246.605 47.5462 247.244 45.4513 247.635C43.392 248.025 41.2972 248.22 39.1668 248.22C33.9475 248.22 29.314 247.209 25.2663 245.185C21.2186 243.161 17.7923 240.391 14.9874 236.876C12.2179 233.361 10.1053 229.225 8.64959 224.467C7.19385 219.709 6.46599 214.579 6.46599 209.075C6.46599 203.607 7.26487 198.495 8.86263 193.737C10.4604 188.944 12.7328 184.789 15.6797 181.274C18.6267 177.724 22.1773 174.936 26.3315 172.913C30.5212 170.853 35.2079 169.824 40.3918 169.824C43.5873 169.824 46.6053 170.214 49.4457 170.995C52.3217 171.741 54.9669 172.824 57.3813 174.244C59.7957 175.629 61.9615 177.298 63.8789 179.25C65.7962 181.168 67.4117 183.298 68.7254 185.641L60.7898 189.796C59.8667 188.02 58.766 186.423 57.4878 185.002C56.2096 183.547 54.7361 182.304 53.0673 181.274C51.3986 180.245 49.5168 179.446 47.4219 178.878C45.3626 178.31 43.0902 178.025 40.6048 178.025C36.6282 178.025 33.1308 178.878 30.1128 180.582C27.0949 182.251 24.5562 184.488 22.4969 187.293C20.473 190.097 18.9463 193.346 17.9166 197.039C16.8869 200.696 16.3721 204.495 16.3721 208.436V209.768C16.3721 213.709 16.8337 217.508 17.7568 221.165C18.7155 224.822 20.1535 228.053 22.0708 230.858C24.0236 233.628 26.4735 235.864 29.4205 237.569C32.3675 239.237 35.8293 240.072 39.8059 240.072ZM145.186 208.969C145.186 214.685 144.476 219.905 143.056 224.627C141.635 229.314 139.47 233.326 136.558 236.663C133.647 240.001 129.989 242.593 125.587 244.439C121.22 246.25 116.071 247.155 110.142 247.155H85.6427V170.782H110.142C116.071 170.782 121.22 171.705 125.587 173.552C129.989 175.363 133.647 177.937 136.558 181.274C139.47 184.612 141.635 188.642 143.056 193.364C144.476 198.051 145.186 203.252 145.186 208.969ZM135.12 207.478C135.12 203.501 134.623 199.773 133.629 196.293C132.635 192.814 131.108 189.796 129.049 187.239C127.025 184.647 124.415 182.606 121.22 181.115C118.06 179.623 114.296 178.878 109.929 178.878H95.0163V239.06H109.929C114.296 239.06 118.06 238.332 121.22 236.876C124.415 235.385 127.025 233.361 129.049 230.805C131.108 228.213 132.635 225.177 133.629 221.698C134.623 218.218 135.12 214.49 135.12 210.513V207.478ZM159.813 229.473C163.151 233.201 166.737 235.9 170.571 237.569C174.442 239.237 178.489 240.072 182.714 240.072C185.626 240.072 188.218 239.717 190.49 239.007C192.798 238.261 194.733 237.249 196.295 235.971C197.858 234.693 199.029 233.237 199.81 231.604C200.627 229.97 201.035 228.248 201.035 226.438C201.035 223.881 200.503 221.822 199.438 220.26C198.372 218.697 196.97 217.437 195.23 216.478C193.49 215.484 191.467 214.721 189.159 214.188C186.886 213.62 184.507 213.087 182.022 212.59L180.957 212.377C179.288 212.058 177.548 211.72 175.738 211.365C173.962 211.01 172.205 210.549 170.465 209.981C168.725 209.377 167.039 208.667 165.405 207.85C163.772 206.998 162.334 205.951 161.091 204.708C159.423 203.181 158.038 201.317 156.937 199.116C155.872 196.879 155.339 194.127 155.339 190.861C155.339 188.553 155.837 186.156 156.831 183.671C157.86 181.186 159.476 178.913 161.677 176.854C163.914 174.794 166.755 173.108 170.199 171.794C173.643 170.481 177.815 169.824 182.714 169.824C188.147 169.824 193.153 170.8 197.733 172.753C199.615 173.57 201.408 174.546 203.112 175.682C204.852 176.783 206.557 178.168 208.225 179.836L201.142 185.641C198.514 183.014 195.514 181.097 192.141 179.89C188.768 178.647 185.324 178.025 181.809 178.025C179.288 178.025 176.98 178.327 174.885 178.931C172.826 179.534 171.051 180.404 169.56 181.541C168.068 182.677 166.914 183.99 166.098 185.482C165.317 186.973 164.926 188.588 164.926 190.328C164.926 192.743 165.441 194.695 166.471 196.187C167.536 197.678 168.92 198.885 170.625 199.808C172.329 200.696 174.246 201.388 176.377 201.885C178.542 202.382 180.726 202.862 182.927 203.323L183.46 203.43C187.011 204.14 190.437 204.974 193.739 205.933C197.076 206.856 199.97 208.152 202.42 209.821C204.906 211.454 206.894 213.531 208.385 216.052C209.876 218.538 210.622 221.751 210.622 225.692C210.622 228.497 210.036 231.266 208.864 234C207.693 236.734 205.935 239.166 203.592 241.297C201.284 243.392 198.372 245.078 194.857 246.356C191.342 247.599 187.206 248.22 182.448 248.22C178.756 248.22 175.347 247.83 172.222 247.049C169.098 246.232 166.222 245.185 163.595 243.906C161.642 242.877 159.742 241.687 157.896 240.338C156.085 238.989 154.274 237.373 152.463 235.492L159.813 229.473ZM232.314 170.782H284.667V179.197H263.204V247.155H253.777V179.197H232.314V170.782ZM312.715 200.714H311.277C308.97 200.714 306.768 200.98 304.673 201.513C302.578 202.045 300.732 203.004 299.134 204.389C297.537 205.773 296.258 207.673 295.3 210.087C294.341 212.466 293.862 215.52 293.862 219.248V247.155H284.914V192.725H293.862V201.353C294.536 199.755 295.442 198.353 296.578 197.145C297.714 195.938 298.992 194.944 300.413 194.163C301.868 193.346 303.413 192.743 305.046 192.352C306.715 191.962 308.401 191.766 310.106 191.766H312.715V200.714ZM352.214 241.723C350.617 243.569 348.451 245.114 345.717 246.356C343.018 247.599 339.841 248.22 336.184 248.22C333.485 248.22 330.982 247.848 328.674 247.102C326.366 246.321 324.36 245.22 322.656 243.8C320.952 242.38 319.62 240.658 318.661 238.634C317.703 236.61 317.223 234.32 317.223 231.764C317.223 229.633 317.561 227.698 318.235 225.958C318.945 224.183 319.922 222.639 321.165 221.325C322.443 220.011 323.97 218.946 325.745 218.129C327.52 217.277 329.508 216.691 331.71 216.372L350.936 213.762V210.3C350.936 208.241 350.617 206.519 349.978 205.134C349.338 203.714 348.469 202.596 347.368 201.779C346.303 200.962 345.024 200.376 343.533 200.021C342.078 199.666 340.497 199.489 338.793 199.489C335.74 199.489 332.882 199.915 330.219 200.767C327.591 201.619 325.212 202.613 323.082 203.749L319.727 196.666C322.851 194.891 326.118 193.613 329.526 192.831C332.97 192.05 336.361 191.66 339.699 191.66C346.338 191.66 351.362 193.169 354.771 196.187C358.179 199.169 359.884 203.536 359.884 209.288V234.373C359.884 236.184 360.239 237.711 360.949 238.953C361.659 240.161 362.795 241.119 364.357 241.829L359.298 248.22C357.594 247.794 356.12 247.049 354.877 245.984C353.67 244.883 352.818 243.569 352.321 242.042L352.214 241.723ZM336.29 222.923C334.799 223.136 333.432 223.437 332.189 223.828C330.982 224.219 329.952 224.751 329.1 225.426C328.248 226.065 327.573 226.864 327.076 227.822C326.615 228.781 326.384 229.953 326.384 231.337C326.384 232.935 326.686 234.355 327.289 235.598C327.893 236.841 328.71 237.888 329.739 238.74C330.769 239.593 331.958 240.249 333.308 240.711C334.692 241.137 336.13 241.35 337.622 241.35C339.29 241.35 340.924 241.119 342.521 240.658C344.119 240.196 345.539 239.539 346.782 238.687C348.025 237.799 349.019 236.734 349.765 235.492C350.546 234.249 350.936 232.829 350.936 231.231V220.739L336.29 222.923ZM374.138 192.725H383.086V198.956C384.932 196.435 387.204 194.589 389.903 193.417C392.637 192.246 395.672 191.66 399.01 191.66C402.028 191.66 404.673 192.157 406.945 193.151C409.218 194.145 411.117 195.494 412.644 197.199C414.171 198.903 415.307 200.873 416.053 203.11C416.834 205.347 417.224 207.708 417.224 210.194V247.155H408.277V213.016C408.277 210.638 407.975 208.614 407.371 206.945C406.803 205.241 406.005 203.874 404.975 202.844C403.981 201.779 402.791 201.015 401.407 200.554C400.057 200.057 398.602 199.808 397.039 199.808C395.335 199.808 393.648 200.128 391.98 200.767C390.346 201.371 388.855 202.294 387.506 203.536C386.192 204.779 385.127 206.341 384.31 208.223C383.494 210.105 383.086 212.324 383.086 214.881V247.155H374.138V192.725ZM467.588 232.083C467.588 234.639 467.02 236.93 465.884 238.953C464.783 240.942 463.31 242.628 461.463 244.013C459.617 245.398 457.487 246.445 455.072 247.155C452.693 247.865 450.244 248.22 447.723 248.22C443.746 248.22 439.911 247.546 436.219 246.197C432.562 244.812 429.313 242.841 426.472 240.285L431.372 233.947C432.224 234.693 433.201 235.474 434.301 236.291C435.438 237.107 436.698 237.871 438.083 238.581C439.468 239.255 440.959 239.823 442.557 240.285C444.154 240.711 445.841 240.924 447.616 240.924C449.072 240.924 450.457 240.746 451.77 240.391C453.12 240.001 454.291 239.451 455.285 238.74C456.28 237.995 457.061 237.125 457.629 236.131C458.232 235.101 458.534 233.947 458.534 232.669C458.534 231.249 458.215 230.059 457.576 229.101C456.972 228.142 456.138 227.325 455.072 226.651C454.007 225.976 452.764 225.39 451.344 224.893C449.924 224.396 448.433 223.899 446.871 223.402L443.462 222.283C441.545 221.644 439.698 220.916 437.923 220.1C436.148 219.283 434.568 218.289 433.183 217.117C431.834 215.91 430.751 214.49 429.934 212.857C429.153 211.223 428.763 209.271 428.763 206.998C428.763 205.152 429.153 203.323 429.934 201.513C430.715 199.666 431.905 198.015 433.503 196.56C435.136 195.104 437.195 193.932 439.681 193.044C442.166 192.121 445.095 191.66 448.468 191.66C452.196 191.66 455.64 192.281 458.8 193.524C461.996 194.766 464.694 196.311 466.896 198.157L462.209 204.602C461.428 203.856 460.505 203.146 459.44 202.471C458.374 201.797 457.238 201.211 456.031 200.714C454.824 200.181 453.563 199.755 452.25 199.435C450.936 199.116 449.64 198.956 448.362 198.956C446.409 198.956 444.758 199.187 443.409 199.649C442.059 200.075 440.977 200.643 440.16 201.353C439.343 202.063 438.74 202.862 438.349 203.749C437.994 204.637 437.817 205.507 437.817 206.359C437.817 207.602 438.083 208.649 438.615 209.501C439.148 210.318 439.84 211.028 440.693 211.632C441.58 212.235 442.574 212.75 443.675 213.176C444.811 213.602 445.983 214.028 447.19 214.454L451.664 215.946C453.794 216.656 455.747 217.419 457.522 218.236C459.298 219.017 460.86 219.922 462.209 220.952C463.913 222.301 465.227 223.863 466.15 225.639C467.109 227.414 467.588 229.562 467.588 232.083ZM488.287 192.725V198.956C489.885 196.719 492.05 194.944 494.784 193.63C497.518 192.317 500.661 191.66 504.211 191.66C507.726 191.66 510.904 192.37 513.744 193.79C516.585 195.175 519.017 197.128 521.041 199.649C523.065 202.169 524.609 205.17 525.674 208.649C526.775 212.093 527.325 215.875 527.325 219.993C527.325 224.112 526.775 227.893 525.674 231.337C524.609 234.782 523.065 237.764 521.041 240.285C519.017 242.77 516.585 244.723 513.744 246.143C510.904 247.528 507.726 248.22 504.211 248.22C500.661 248.22 497.518 247.564 494.784 246.25C492.05 244.936 489.885 243.161 488.287 240.924V263.719H479.339V192.725H488.287ZM518.058 219.674C518.058 216.833 517.721 214.188 517.047 211.738C516.372 209.288 515.378 207.176 514.064 205.4C512.75 203.59 511.117 202.169 509.164 201.14C507.247 200.11 505.046 199.595 502.56 199.595C500.181 199.595 498.086 200.004 496.276 200.82C494.5 201.637 493.009 202.755 491.802 204.176C490.595 205.596 489.672 207.282 489.032 209.235C488.429 211.152 488.127 213.247 488.127 215.52V224.361C488.127 226.633 488.429 228.746 489.032 230.698C489.672 232.616 490.595 234.284 491.802 235.705C493.009 237.125 494.5 238.243 496.276 239.06C498.086 239.877 500.181 240.285 502.56 240.285C505.046 240.285 507.247 239.77 509.164 238.74C511.117 237.711 512.75 236.308 514.064 234.533C515.378 232.722 516.372 230.592 517.047 228.142C517.721 225.692 518.058 223.047 518.058 220.206V219.674ZM560.38 191.66C564.144 191.66 567.57 192.37 570.659 193.79C573.748 195.175 576.376 197.128 578.541 199.649C580.743 202.134 582.447 205.116 583.654 208.596C584.861 212.04 585.465 215.839 585.465 219.993C585.465 224.077 584.861 227.858 583.654 231.337C582.447 234.782 580.743 237.764 578.541 240.285C576.376 242.77 573.748 244.723 570.659 246.143C567.57 247.528 564.144 248.22 560.38 248.22C556.617 248.22 553.19 247.528 550.101 246.143C547.048 244.723 544.42 242.77 542.219 240.285C540.018 237.764 538.313 234.782 537.106 231.337C535.899 227.858 535.295 224.077 535.295 219.993C535.295 215.839 535.899 212.04 537.106 208.596C538.313 205.116 540.018 202.134 542.219 199.649C544.42 197.128 547.048 195.175 550.101 193.79C553.19 192.37 556.617 191.66 560.38 191.66ZM560.38 240.391C562.972 240.391 565.245 239.859 567.197 238.794C569.186 237.693 570.837 236.219 572.15 234.373C573.5 232.527 574.512 230.397 575.186 227.982C575.861 225.532 576.198 222.976 576.198 220.313V219.674C576.198 216.94 575.861 214.348 575.186 211.898C574.512 209.448 573.5 207.318 572.15 205.507C570.837 203.661 569.186 202.205 567.197 201.14C565.245 200.039 562.972 199.489 560.38 199.489C557.788 199.489 555.498 200.039 553.51 201.14C551.557 202.205 549.906 203.661 548.557 205.507C547.243 207.318 546.249 209.448 545.574 211.898C544.9 214.348 544.562 216.94 544.562 219.674V220.313C544.562 222.976 544.9 225.532 545.574 227.982C546.249 230.397 547.243 232.527 548.557 234.373C549.906 236.219 551.557 237.693 553.51 238.794C555.498 239.859 557.788 240.391 560.38 240.391ZM624.378 200.714H622.94C620.632 200.714 618.431 200.98 616.336 201.513C614.241 202.045 612.395 203.004 610.797 204.389C609.2 205.773 607.921 207.673 606.963 210.087C606.004 212.466 605.525 215.52 605.525 219.248V247.155H596.577V192.725H605.525V201.353C606.199 199.755 607.105 198.353 608.241 197.145C609.377 195.938 610.655 194.944 612.075 194.163C613.531 193.346 615.076 192.743 616.709 192.352C618.378 191.962 620.064 191.766 621.769 191.766H624.378V200.714ZM646.994 233.628C646.994 234.551 647.048 235.421 647.154 236.237C647.296 237.018 647.598 237.711 648.059 238.314C648.557 238.918 649.267 239.397 650.19 239.752C651.113 240.107 652.373 240.285 653.971 240.285C654.397 240.285 654.894 240.267 655.462 240.232C656.066 240.196 656.687 240.161 657.326 240.125C657.966 240.054 658.587 239.983 659.19 239.912C659.794 239.806 660.309 239.717 660.735 239.646L661.694 247.475C660.664 247.617 659.599 247.741 658.498 247.848C657.575 247.954 656.545 248.043 655.409 248.114C654.273 248.185 653.137 248.22 652.001 248.22C649.835 248.22 647.882 247.99 646.142 247.528C644.438 247.102 642.982 246.392 641.775 245.398C640.568 244.404 639.645 243.108 639.005 241.51C638.366 239.877 638.047 237.906 638.047 235.598V200.607H627.768V192.725H638.047V174.936L646.994 171.794V192.725H662.12V200.607H646.994V233.628Z" fill="white"/>
<path d="M20.5263 94.3215C20.5263 97.588 20.9346 100.73 21.7512 103.748C22.5679 106.766 23.8106 109.429 25.4793 111.737C27.1481 114.045 29.2785 115.909 31.8704 117.329C34.4623 118.714 37.5513 119.406 41.1374 119.406C44.5815 119.406 47.4397 118.856 49.712 117.755C52.0199 116.655 53.8485 115.288 55.1977 113.654C56.5824 111.986 57.5411 110.193 58.0737 108.275C58.6417 106.358 58.9258 104.583 58.9258 102.949V102.204H39.3799V90.4336H73.9447V132.295H60.417V123.347C59.4584 124.839 58.2689 126.206 56.8487 127.448C55.4285 128.656 53.8307 129.703 52.0554 130.591C50.2801 131.443 48.3273 132.117 46.197 132.614C44.1021 133.112 41.8653 133.36 39.4864 133.36C33.912 133.36 28.9589 132.348 24.6272 130.324C20.2955 128.301 16.6384 125.513 13.6559 121.963C10.7089 118.412 8.45431 114.258 6.89206 109.5C5.36531 104.742 4.60193 99.6118 4.60193 94.1084C4.60193 88.6406 5.45407 83.5277 7.15835 78.7699C8.89813 73.9767 11.348 69.8225 14.508 66.3074C17.7036 62.7568 21.5382 59.9696 26.0119 57.9458C30.5212 55.8865 35.563 54.8568 41.1374 54.8568C44.759 54.8568 48.1853 55.2829 51.4163 56.135C54.6829 56.9516 57.6476 58.1411 60.3105 59.7033C63.009 61.2301 65.3878 63.0941 67.4472 65.2955C69.5065 67.4613 71.1753 69.8757 72.4535 72.5387L58.9258 80.1547C58.1092 78.5214 57.1505 77.0124 56.0498 75.6277C54.9491 74.2074 53.6709 73.0003 52.2152 72.0061C50.795 70.9764 49.1617 70.1775 47.3154 69.6094C45.4691 69.0058 43.4098 68.704 41.1374 68.704C37.5513 68.704 34.4623 69.4142 31.8704 70.8344C29.2785 72.2191 27.1481 74.0654 25.4793 76.3733C23.8106 78.6812 22.5679 81.3619 21.7512 84.4154C20.9346 87.4334 20.5263 90.5579 20.5263 93.7889V94.3215ZM150.672 94.1084C150.672 99.8249 149.89 105.044 148.328 109.766C146.801 114.453 144.494 118.465 141.405 121.803C138.351 125.141 134.516 127.732 129.901 129.579C125.285 131.39 119.888 132.295 113.71 132.295H85.5895V55.922H113.71C119.888 55.922 125.285 56.8451 129.901 58.6914C134.516 60.5022 138.351 63.0764 141.405 66.4139C144.494 69.7515 146.801 73.7814 148.328 78.5036C149.89 83.1904 150.672 88.392 150.672 94.1084ZM134.641 92.6172C134.641 89.3862 134.232 86.3859 133.416 83.6165C132.635 80.8115 131.356 78.3794 129.581 76.32C127.841 74.2607 125.569 72.6452 122.764 71.4735C119.959 70.2663 116.568 69.6627 112.592 69.6627H101.034V118.554H112.592C116.533 118.554 119.906 117.968 122.711 116.797C125.516 115.589 127.788 113.956 129.528 111.897C131.303 109.802 132.599 107.352 133.416 104.547C134.232 101.742 134.641 98.7419 134.641 95.5464V92.6172ZM166.257 110.832C167.252 111.968 168.459 113.086 169.879 114.187C171.299 115.288 172.862 116.282 174.566 117.169C176.306 118.022 178.187 118.714 180.211 119.247C182.235 119.744 184.419 119.992 186.762 119.992C191.129 119.992 194.467 119.087 196.775 117.276C199.118 115.43 200.29 113.193 200.29 110.565C200.29 107.831 199.26 105.754 197.201 104.334C195.177 102.914 191.946 101.795 187.508 100.979L185.111 100.553C181.916 99.9847 178.738 99.239 175.578 98.3159C172.418 97.3927 169.56 96.0613 167.003 94.3215C164.447 92.5817 162.37 90.3626 160.772 87.6641C159.174 84.9302 158.375 81.4861 158.375 77.332C158.375 74.9176 158.908 72.3967 159.973 69.7692C161.038 67.1063 162.725 64.6741 165.033 62.4728C167.376 60.2359 170.376 58.4074 174.033 56.9871C177.726 55.5669 182.182 54.8568 187.401 54.8568C193.579 54.8568 199.083 55.8865 203.911 57.9458C208.776 59.9696 212.699 62.6503 215.682 65.9879L205.403 75.5744C203.308 73.2665 200.609 71.4557 197.307 70.142C194.041 68.8283 190.668 68.1715 187.188 68.1715C183.176 68.1715 180.034 68.9348 177.761 70.4616C175.524 71.9883 174.406 73.9767 174.406 76.4266C174.406 78.0243 174.761 79.3558 175.471 80.421C176.217 81.4861 177.247 82.3738 178.56 83.0839C179.874 83.7585 181.454 84.3266 183.3 84.7882C185.147 85.2497 187.206 85.7113 189.478 86.1729L190.703 86.3859C193.757 86.954 196.792 87.6819 199.81 88.5695C202.828 89.4217 205.562 90.6999 208.012 92.4042C210.498 94.0729 212.504 96.2743 214.031 99.0082C215.557 101.707 216.321 105.168 216.321 109.394C216.321 113.228 215.522 116.619 213.924 119.566C212.326 122.513 210.214 125.034 207.586 127.129C204.959 129.188 201.923 130.75 198.479 131.816C195.035 132.845 191.449 133.36 187.721 133.36C183.957 133.36 180.46 133.041 177.229 132.401C174.033 131.762 171.122 130.857 168.494 129.685C165.902 128.514 163.577 127.2 161.517 125.744C159.494 124.288 157.718 122.726 156.192 121.057L166.257 110.832ZM235.829 55.922H294.04V70.2486H272.684V132.295H257.185V70.2486H235.829V55.922ZM326.083 89.5282H324.539C322.444 89.5282 320.438 89.7412 318.521 90.1673C316.639 90.5934 314.97 91.3745 313.514 92.5107C312.059 93.6114 310.887 95.1381 309.999 97.0909C309.147 99.0437 308.721 101.547 308.721 104.6V132.295H294.022V75.2549H308.721V81.6992C309.325 80.7405 310.106 79.8174 311.064 78.9297C312.023 78.0421 313.141 77.2609 314.42 76.5863C315.698 75.8762 317.136 75.3081 318.734 74.8821C320.331 74.456 322.053 74.243 323.9 74.243H326.083V89.5282ZM351.682 109.127C349.871 109.411 348.415 110.051 347.315 111.045C346.214 112.003 345.664 113.317 345.664 114.986C345.664 116.832 346.338 118.43 347.687 119.779C349.037 121.093 351.025 121.75 353.652 121.75C356.422 121.75 358.605 120.951 360.203 119.353C361.801 117.755 362.6 115.643 362.6 113.015V107.263L351.682 109.127ZM364.996 126.916C364.393 127.59 363.647 128.318 362.76 129.099C361.907 129.845 360.878 130.537 359.671 131.176C358.499 131.78 357.114 132.295 355.516 132.721C353.919 133.147 352.126 133.36 350.137 133.36C347.297 133.36 344.669 132.916 342.255 132.029C339.876 131.105 337.781 129.827 335.971 128.194C334.16 126.561 332.739 124.679 331.71 122.549C330.68 120.383 330.165 118.039 330.165 115.518C330.165 110.938 331.586 107.192 334.426 104.281C337.266 101.369 341.19 99.5408 346.196 98.7952L362.6 96.3986V95.3334C362.6 92.777 361.819 90.7531 360.256 89.2619C358.694 87.7707 356.156 87.025 352.64 87.025C351.185 87.025 349.711 87.2026 348.22 87.5576C346.729 87.8772 345.291 88.25 343.906 88.6761C342.557 89.1021 341.296 89.5992 340.125 90.1673C338.953 90.6999 337.923 91.1792 337.036 91.6053L331.284 80.3677C334.55 78.5569 338.172 77.0657 342.149 75.894C346.161 74.7223 350.315 74.1364 354.611 74.1364C357.238 74.1364 359.884 74.4205 362.547 74.9886C365.245 75.5212 367.677 76.5153 369.843 77.9711C372.044 79.4268 373.837 81.4151 375.222 83.936C376.607 86.4214 377.299 89.5992 377.299 93.4693V116.903C377.299 118.572 377.725 119.815 378.577 120.631C379.465 121.412 380.672 122.14 382.199 122.815L375.542 133.36C372.843 133.076 370.677 132.384 369.044 131.283C367.411 130.147 366.062 128.691 364.996 126.916ZM387.613 75.2549H402.312V80.1547C403.093 79.3735 403.963 78.6279 404.922 77.9178C405.916 77.1722 406.999 76.5331 408.17 76.0005C409.342 75.4324 410.638 74.9886 412.058 74.669C413.514 74.314 415.112 74.1364 416.852 74.1364C419.941 74.1364 422.71 74.6513 425.16 75.6809C427.61 76.6751 429.669 78.0598 431.338 79.8351C433.042 81.6104 434.338 83.6875 435.226 86.0664C436.113 88.4453 436.557 91.0194 436.557 93.7889V132.295H421.858V99.1148C421.858 97.0909 421.627 95.3867 421.165 94.0019C420.704 92.5817 420.065 91.4455 419.248 90.5934C418.467 89.7057 417.526 89.0666 416.425 88.6761C415.36 88.25 414.189 88.037 412.91 88.037C411.419 88.037 410.017 88.3032 408.703 88.8358C407.425 89.3684 406.306 90.1851 405.348 91.2857C404.389 92.3509 403.643 93.7001 403.111 95.3334C402.578 96.9667 402.312 98.884 402.312 101.085V132.295H387.613V75.2549ZM450.918 114.08C453.013 115.962 455.516 117.578 458.428 118.927C461.339 120.276 464.286 120.951 467.269 120.951C469.434 120.951 471.139 120.543 472.381 119.726C473.624 118.874 474.245 117.791 474.245 116.477C474.245 114.24 471.849 112.5 467.056 111.258L462.901 110.139C460.842 109.642 458.765 108.968 456.67 108.115C454.575 107.228 452.64 106.074 450.865 104.654C449.125 103.233 447.705 101.511 446.604 99.4876C445.539 97.4282 445.006 94.9073 445.006 91.9248C445.006 89.5459 445.521 87.2913 446.551 85.161C447.616 82.9951 449.107 81.0956 451.025 79.4623C452.977 77.829 455.339 76.5331 458.108 75.5744C460.878 74.6158 463.967 74.1364 467.375 74.1364C472.239 74.1364 476.571 74.8998 480.37 76.4266C484.205 77.9533 487.223 79.6753 489.424 81.5927L481.755 91.3923C479.944 90.0785 477.796 88.9601 475.311 88.037C472.861 87.0783 470.393 86.599 467.908 86.599C465.6 86.599 463.807 87.025 462.529 87.8772C461.25 88.6938 460.611 89.688 460.611 90.8597C460.611 92.1024 461.162 93.1143 462.262 93.8954C463.398 94.641 465.032 95.2979 467.162 95.866L473.34 97.6235C479.234 99.2923 483.459 101.547 486.016 104.387C488.572 107.228 489.85 110.814 489.85 115.146C489.85 117.56 489.353 119.868 488.359 122.069C487.365 124.235 485.909 126.17 483.992 127.874C482.074 129.579 479.696 130.928 476.855 131.922C474.015 132.881 470.784 133.36 467.162 133.36C464.393 133.36 461.783 133.112 459.333 132.614C456.919 132.117 454.664 131.443 452.569 130.591C450.51 129.703 448.646 128.709 446.977 127.608C445.308 126.507 443.888 125.407 442.716 124.306L450.918 114.08ZM512.093 150.296H497.394V75.2549H512.093V80.1547C513.691 78.4859 515.662 77.0657 518.005 75.894C520.349 74.7223 523.189 74.1364 526.527 74.1364C530.29 74.1364 533.699 74.8998 536.752 76.4266C539.841 77.9178 542.486 79.9949 544.688 82.6578C546.889 85.2853 548.593 88.4098 549.801 92.0314C551.008 95.6529 551.611 99.5763 551.611 103.802C551.611 108.027 550.99 111.95 549.747 115.572C548.505 119.193 546.765 122.318 544.528 124.945C542.291 127.573 539.61 129.632 536.486 131.123C533.361 132.614 529.917 133.36 526.154 133.36C524.485 133.36 522.958 133.2 521.574 132.881C520.224 132.597 518.982 132.188 517.845 131.656C516.709 131.123 515.662 130.502 514.703 129.792C513.745 129.046 512.875 128.247 512.093 127.395V150.296ZM511.667 109.074C511.667 110.601 511.934 112.021 512.466 113.335C513.034 114.613 513.833 115.731 514.863 116.69C515.893 117.649 517.118 118.394 518.538 118.927C519.994 119.46 521.627 119.726 523.438 119.726C525.532 119.726 527.379 119.353 528.976 118.607C530.61 117.826 531.977 116.743 533.077 115.359C534.178 113.974 535.012 112.341 535.581 110.459C536.149 108.542 536.433 106.447 536.433 104.174V103.482C536.433 101.21 536.149 99.1148 535.581 97.1974C535.012 95.2801 534.178 93.6291 533.077 92.2444C531.977 90.8242 530.61 89.7235 528.976 88.9424C527.379 88.1612 525.532 87.7707 523.438 87.7707C521.627 87.7707 519.994 88.037 518.538 88.5695C517.118 89.1021 515.893 89.8477 514.863 90.8064C513.833 91.7651 513.034 92.9012 512.466 94.215C511.934 95.5287 511.667 96.9489 511.667 98.4757V109.074ZM584.506 74.1364C588.732 74.1364 592.566 74.8998 596.01 76.4266C599.454 77.9178 602.401 79.9949 604.851 82.6578C607.301 85.3208 609.183 88.463 610.497 92.0846C611.846 95.7062 612.52 99.6118 612.52 103.802C612.52 108.027 611.846 111.95 610.497 115.572C609.147 119.158 607.248 122.265 604.798 124.892C602.348 127.519 599.401 129.596 595.957 131.123C592.513 132.614 588.696 133.36 584.506 133.36C580.281 133.36 576.447 132.614 573.002 131.123C569.558 129.596 566.611 127.519 564.162 124.892C561.712 122.265 559.812 119.158 558.463 115.572C557.114 111.95 556.439 108.027 556.439 103.802C556.439 99.6118 557.096 95.7062 558.41 92.0846C559.759 88.463 561.658 85.3208 564.108 82.6578C566.558 79.9949 569.505 77.9178 572.949 76.4266C576.429 74.8998 580.281 74.1364 584.506 74.1364ZM584.506 119.726C586.601 119.726 588.448 119.335 590.045 118.554C591.679 117.773 593.046 116.69 594.146 115.305C595.247 113.921 596.081 112.27 596.649 110.352C597.217 108.4 597.501 106.269 597.501 103.961V103.588C597.501 101.281 597.217 99.168 596.649 97.2507C596.081 95.2979 595.247 93.6291 594.146 92.2444C593.046 90.8242 591.679 89.7235 590.045 88.9424C588.448 88.1612 586.601 87.7707 584.506 87.7707C582.412 87.7707 580.547 88.1612 578.914 88.9424C577.316 89.7235 575.967 90.8242 574.867 92.2444C573.766 93.6291 572.931 95.2979 572.363 97.2507C571.795 99.168 571.511 101.281 571.511 103.588V103.961C571.511 106.269 571.795 108.4 572.363 110.352C572.931 112.27 573.766 113.921 574.867 115.305C575.967 116.69 577.316 117.773 578.914 118.554C580.547 119.335 582.412 119.726 584.506 119.726ZM652.339 89.5282H650.795C648.7 89.5282 646.694 89.7412 644.776 90.1673C642.894 90.5934 641.226 91.3745 639.77 92.5107C638.314 93.6114 637.143 95.1381 636.255 97.0909C635.403 99.0437 634.977 101.547 634.977 104.6V132.295H620.277V75.2549H634.977V81.6992C635.58 80.7405 636.361 79.8174 637.32 78.9297C638.279 78.0421 639.397 77.2609 640.675 76.5863C641.954 75.8762 643.392 75.3081 644.989 74.8821C646.587 74.456 648.309 74.243 650.155 74.243H652.339V89.5282ZM680.547 115.305C680.547 115.98 680.636 116.619 680.813 117.223C680.991 117.826 681.293 118.359 681.719 118.82C682.18 119.247 682.82 119.584 683.636 119.832C684.453 120.081 685.5 120.205 686.778 120.205C687.311 120.205 687.915 120.187 688.589 120.152C689.264 120.081 689.938 120.01 690.613 119.939C691.288 119.868 691.909 119.779 692.477 119.673C693.081 119.566 693.578 119.477 693.968 119.406L695.3 132.401C693.915 132.579 692.477 132.739 690.986 132.881C689.708 133.023 688.287 133.129 686.725 133.2C685.163 133.307 683.583 133.36 681.985 133.36C676.908 133.36 672.949 132.206 670.109 129.898C667.268 127.59 665.848 123.916 665.848 118.874V88.037H655.569V75.2549H665.848V59.1175L680.547 55.1763V75.2549H695.513V88.037H680.547V115.305Z" fill="white"/>
</svg>
