<svg width="894" height="596" viewBox="0 0 894 596" fill="none" xmlns="http://www.w3.org/2000/svg">
<rect x="0.916992" y="0.5" width="892.5" height="595" fill="#CA357C"/>
<mask id="mask0_496_2635" style="mask-type:alpha" maskUnits="userSpaceOnUse" x="0" y="0" width="894" height="596">
<rect x="0.916992" y="0.5" width="892.5" height="595" fill="#CA357C"/>
</mask>
<g mask="url(#mask0_496_2635)">
<path d="M235.486 556.458H60.4985L33.8055 644.116H-67.6938L86.862 171.552H212.418L369.28 644.116H262.508L235.486 556.458ZM86.2029 472.095H209.782L148.487 272.392H147.168L86.2029 472.095ZM516.14 500.765C504.935 502.523 495.928 506.477 489.117 512.629C482.307 518.56 478.901 526.689 478.901 537.015C478.901 548.439 483.076 558.325 491.424 566.674C499.772 574.803 512.075 578.867 528.333 578.867C545.469 578.867 558.98 573.924 568.867 564.037C578.753 554.151 583.696 541.079 583.696 524.822V489.231L516.14 500.765ZM598.525 610.833C594.791 615.007 590.177 619.511 584.685 624.344C579.412 628.957 573.041 633.242 565.571 637.196C558.321 640.931 549.753 644.116 539.867 646.753C529.981 649.389 518.886 650.707 506.583 650.707C489.007 650.707 472.75 647.961 457.811 642.469C443.091 636.757 430.129 628.848 418.924 618.742C407.72 608.636 398.932 596.992 392.561 583.81C386.19 570.409 383.004 555.909 383.004 540.31C383.004 511.97 391.792 488.792 409.368 470.777C426.943 452.762 451.22 441.447 482.197 436.834L583.696 422.004V415.413C583.696 399.595 578.863 387.073 569.196 377.846C559.53 368.618 543.821 364.005 522.071 364.005C513.064 364.005 503.947 365.103 494.719 367.3C485.492 369.277 476.595 371.584 468.026 374.221C459.678 376.857 451.879 379.933 444.629 383.448C437.379 386.743 431.008 389.709 425.515 392.345L389.925 322.812C410.137 311.607 432.546 302.38 457.151 295.13C481.977 287.88 507.681 284.255 534.265 284.255C550.522 284.255 566.889 286.013 583.367 289.528C600.063 292.823 615.112 298.975 628.514 307.982C642.135 316.99 653.23 329.293 661.798 344.891C670.366 360.27 674.65 379.933 674.65 403.879V548.878C674.65 559.204 677.286 566.893 682.559 571.946C688.051 576.78 695.521 581.284 704.968 585.458L663.775 650.707C647.078 648.95 633.677 644.666 623.571 637.855C613.465 630.825 605.116 621.817 598.525 610.833Z" fill="white"/>
</g>
</svg>
