<svg width="538" height="134" viewBox="0 0 538 134" fill="none" xmlns="http://www.w3.org/2000/svg">
<rect x="0.354492" y="0.499023" width="537.201" height="132.966" fill="#1D70B8"/>
<path d="M45.0085 47.6107C49.4783 47.6107 53.1019 43.9871 53.1019 39.5173C53.1019 35.0474 49.4783 31.4238 45.0085 31.4238C40.5386 31.4238 36.915 35.0474 36.915 39.5173C36.915 43.9871 40.5386 47.6107 45.0085 47.6107Z" fill="white"/>
<path d="M23.235 60.6517C27.7049 60.6517 31.3284 57.0282 31.3284 52.5583C31.3284 48.0884 27.7049 44.4648 23.235 44.4648C18.7651 44.4648 15.1416 48.0884 15.1416 52.5583C15.1416 57.0282 18.7651 60.6517 23.235 60.6517Z" fill="white"/>
<path d="M8.82876 82.099C13.2986 82.099 16.9222 78.4754 16.9222 74.0055C16.9222 69.5357 13.2986 65.9121 8.82876 65.9121C4.3589 65.9121 0.735352 69.5357 0.735352 74.0055C0.735352 78.4754 4.3589 82.099 8.82876 82.099Z" fill="white"/>
<path d="M70.8961 76.432C75.366 76.432 78.9896 72.8084 78.9896 68.3385C78.9896 63.8687 75.366 60.2451 70.8961 60.2451C66.4263 60.2451 62.8027 63.8687 62.8027 68.3385C62.8027 72.8084 66.4263 76.432 70.8961 76.432Z" fill="white"/>
<path d="M96.7584 47.6107C101.228 47.6107 104.852 43.9871 104.852 39.5173C104.852 35.0474 101.228 31.4238 96.7584 31.4238C92.2886 31.4238 88.665 35.0474 88.665 39.5173C88.665 43.9871 92.2886 47.6107 96.7584 47.6107Z" fill="white"/>
<path d="M118.535 60.6517C123.005 60.6517 126.628 57.0282 126.628 52.5583C126.628 48.0884 123.005 44.4648 118.535 44.4648C114.065 44.4648 110.441 48.0884 110.441 52.5583C110.441 57.0282 114.065 60.6517 118.535 60.6517Z" fill="white"/>
<path d="M132.939 82.099C137.409 82.099 141.033 78.4754 141.033 74.0055C141.033 69.5357 137.409 65.9121 132.939 65.9121C128.469 65.9121 124.846 69.5357 124.846 74.0055C124.846 78.4754 128.469 82.099 132.939 82.099Z" fill="white"/>
<path d="M70.8961 76.432C75.366 76.432 78.9896 72.8084 78.9896 68.3385C78.9896 63.8687 75.366 60.2451 70.8961 60.2451C66.4263 60.2451 62.8027 63.8687 62.8027 68.3385C62.8027 72.8084 66.4263 76.432 70.8961 76.432Z" fill="white"/>
<path d="M74.1596 22.1841C74.5689 21.8763 74.9324 21.5128 75.2402 21.1035L85.5359 26.5084V11.3334L75.255 14.5966C74.9554 14.1955 74.6 13.8369 74.2022 13.5307L78.3397 0.499023H63.453L67.5906 13.5307C67.1927 13.8353 66.839 14.1938 66.5377 14.5966L56.2568 11.3334V26.5084L66.5525 21.1035C66.8603 21.5128 67.2238 21.8763 67.6331 22.1841L61.7682 39.8692C59.7035 46.0944 64.3388 52.5144 70.8964 52.5144C77.4539 52.5144 82.0893 46.0944 80.0246 39.8692L74.1596 22.1841Z" fill="white"/>
<path d="M82.6624 84.4559C82.6624 84.4559 75.1453 92.8211 73.5047 97.9248C78.4249 97.7692 82.8457 96.8114 87.7103 91.7323L86.0615 110.629C81.5833 104.346 76.3324 101.638 73.4212 102.18C73.7159 108.952 74.4249 117.133 86.2825 118.21C94.556 118.929 101.199 114.865 101.89 109.836C102.71 104.06 97.5049 100.238 93.5802 106.319C90.5118 96.2563 98.9883 92.9112 104.433 99.1413C100.241 89.2108 100.352 82.1554 109.675 75.0215C116.364 83.9139 115.416 91.264 107.124 99.5392C112.523 96.5527 120.906 99.6947 115.968 109.782C113.389 103.508 107.851 104.91 106.69 110.308C105.916 114.121 108.23 118.608 113.259 119.528C117.387 120.284 123.743 117.465 128.839 106.49C125.973 106.563 123.459 108.011 120.207 110.249L125.551 92.4331C126.897 97.4335 128.619 100.716 130.443 102.491C131.668 98.8924 131.493 96.2825 130.398 90.6746L141.445 94.6075C135.577 102.612 129.892 113.846 125.23 133.465C108.794 131.119 90.3955 129.801 70.8996 129.801C51.4054 129.801 33.0049 131.12 16.5692 133.465C11.9076 113.845 6.22275 102.611 0.354492 94.6075L11.4017 90.6746C10.3047 96.2825 10.1311 98.8924 11.3558 102.491C13.1798 100.716 14.9023 97.4335 16.2482 92.4331L21.5925 110.249C18.3408 108.009 15.8258 106.563 12.9604 106.49C18.0559 117.465 24.4121 120.283 28.5398 119.528C33.5697 118.608 35.8817 114.121 35.1088 110.308C33.948 104.91 28.4121 103.508 25.8316 109.782C20.8934 99.6947 29.2766 96.551 34.6749 99.5392C26.3834 91.264 25.4338 83.9123 32.124 75.0215C41.447 82.1538 41.5584 89.2091 37.3667 99.1413C42.8109 92.9128 51.2875 96.2563 48.2191 106.319C44.2944 100.238 39.0892 104.06 39.9095 109.836C40.6005 114.866 47.2432 118.93 55.5168 118.21C67.3744 117.133 68.0834 108.952 68.3781 102.18C65.4669 101.638 60.2159 104.345 55.7378 110.629L54.089 91.7323C58.9536 96.8114 63.376 97.7676 68.2946 97.9248C66.654 92.8211 59.1369 84.4559 59.1369 84.4559H82.6689H82.6624Z" fill="white"/>
</svg>
