<svg width="312" height="108" viewBox="0 0 312 108" fill="none" xmlns="http://www.w3.org/2000/svg">
<rect x="0.54248" y="0.345703" width="310.881" height="107.254" fill="#1D70B8"/>
<path d="M23.9173 47.6868L27.4681 49.5379V44.3043L23.9173 45.4318C23.8163 45.2972 23.6985 45.1794 23.5807 45.0784C23.4629 44.9774 25.0111 40.5684 25.0111 40.5684H19.8953L21.3257 45.0616C21.191 45.1794 21.0732 45.2972 20.9891 45.415C20.905 45.5328 17.4383 44.3043 17.4383 44.3043V49.5379L20.9891 47.67C21.0901 47.8214 21.2247 47.9392 21.3593 48.0402L19.3231 54.1994V54.2163C19.2221 54.5192 19.1716 54.8558 19.1716 55.1923C19.1716 56.8583 20.4001 58.2383 21.9988 58.4739H22.0661C22.2008 58.4907 22.3354 58.5075 22.4868 58.5075C22.6215 58.5075 22.7729 58.5075 22.9076 58.4739H22.9749C24.5736 58.2383 25.8021 56.8583 25.8021 55.1923C25.8021 54.8558 25.7516 54.536 25.6506 54.2163C25.5496 53.8965 25.6506 54.2163 25.6506 54.1994L23.6143 48.0402C23.749 47.9392 23.8836 47.8214 23.9846 47.67M10.9257 55.1418C11.2756 55.3271 11.6594 55.44 12.054 55.4735C12.4485 55.5071 12.8458 55.4608 13.2221 55.3373C13.5984 55.2138 13.9458 55.0157 14.2438 54.7548C14.5417 54.494 14.784 54.1757 14.9561 53.819C15.1282 53.4624 15.2266 53.0747 15.2454 52.6791C15.2642 52.2836 15.2031 51.8883 15.0656 51.5169C14.9281 51.1455 14.7172 50.8057 14.4454 50.5177C14.1735 50.2297 13.8464 49.9995 13.4836 49.8409C12.0363 49.1509 10.2694 49.7735 9.56255 51.2376C8.85576 52.7017 9.47841 54.4519 10.9257 55.1418ZM3.6221 61.1496C5.13666 61.7723 6.85317 61.0655 7.47582 59.5677C8.09847 58.07 7.39168 56.3367 5.87711 55.714C4.39621 55.1082 2.66287 55.8318 2.04022 57.3295C1.41756 58.8273 2.14119 60.5438 3.6221 61.1496ZM33.9807 55.1418C33.6307 55.3271 33.247 55.44 32.8524 55.4735C32.4578 55.5071 32.0605 55.4608 31.6843 55.3373C31.308 55.2138 30.9605 55.0157 30.6626 54.7548C30.3647 54.494 30.1224 54.1757 29.9503 53.819C29.7782 53.4624 29.6798 53.0747 29.661 52.6791C29.6422 52.2836 29.7033 51.8883 29.8408 51.5169C29.9782 51.1455 30.1892 50.8057 30.461 50.5177C30.7328 50.2297 31.0599 49.9995 31.4228 49.8409C32.87 49.1509 34.637 49.7735 35.3438 51.2376C36.0506 52.7017 35.428 54.4519 33.9807 55.1418ZM41.2506 61.0991C39.736 61.7218 38.0195 61.015 37.3969 59.5172C36.7742 58.0195 37.481 56.2862 38.9956 55.6635C40.4765 55.0577 42.2098 55.7813 42.8325 57.2791C43.4551 58.7768 42.7315 60.4933 41.2506 61.0991ZM22.4364 77.6584C28.4778 77.6584 34.1995 78.0622 39.2985 78.8027C40.7458 72.7276 42.5127 69.2441 44.3302 66.7535L40.914 65.5418C41.2506 67.2752 41.3011 68.0829 40.914 69.2105C40.3419 68.6551 39.8202 67.6454 39.3995 66.0972L37.7335 71.6169C38.7432 70.927 39.5173 70.4726 40.4092 70.4558C38.8273 73.8551 36.8584 74.7302 35.5794 74.4946C34.0144 74.2085 33.3076 72.8118 33.5432 71.6338C33.8966 69.9677 35.6131 69.5302 36.4208 71.4655C37.9522 68.3354 35.3606 67.3593 33.6778 68.2849C36.2525 65.727 36.5386 63.4383 34.4687 60.6784C31.5742 62.8829 31.5406 65.0707 32.8364 68.1503C31.1535 66.215 28.5283 67.2584 29.4707 70.3716C30.6823 68.4868 32.2978 69.6648 32.0454 71.4655C31.8267 73.0305 29.7736 74.2927 27.2156 74.0571C23.547 73.7205 23.3283 71.1794 23.2273 69.0927C24.136 68.9244 25.7516 69.7658 27.1483 71.7179L27.6532 65.8616C26.1386 67.4266 24.7755 67.7296 23.2441 67.78C23.749 66.1982 26.0881 63.6066 26.0881 63.6066H18.7846C18.7846 63.6066 21.1069 66.1982 21.6286 67.78C20.0972 67.7296 18.7341 67.4266 17.2195 65.8616L17.7244 71.7179C19.1043 69.7658 20.7367 68.9244 21.6454 69.0927C21.5613 71.1962 21.3425 73.7205 17.6571 74.0571C15.0991 74.2758 13.0292 73.0137 12.8273 71.4655C12.5749 69.6817 14.1904 68.4868 15.402 70.3716C16.3444 67.2584 13.7192 66.215 12.0363 68.1503C13.3321 65.0707 13.2985 62.8829 10.404 60.6784C8.33407 63.4383 8.62016 65.7101 11.1949 68.2849C9.5289 67.3593 6.92048 68.3354 8.45187 71.4655C9.25964 69.5134 10.9761 69.9509 11.3295 71.6338C11.5651 72.8118 10.8583 74.2085 9.2933 74.4946C8.01433 74.7302 6.0454 73.8551 4.46352 70.4558C5.35543 70.4726 6.12954 70.927 7.13925 71.6169L5.47323 66.0972C5.05252 67.6454 4.51401 68.6551 3.95866 69.2105C3.57161 68.0998 3.63892 67.292 3.95866 65.5418L0.54248 66.7535C2.35996 69.2273 4.12695 72.7108 5.5742 78.8027C10.6732 78.0791 16.3781 77.6584 22.4195 77.6584" fill="white"/>
<path d="M0.365704 94.9853C0.268073 95.083 0.268073 95.2413 0.365704 95.3389L1.95669 96.9299C2.05432 97.0275 2.21262 97.0275 2.31025 96.9299C2.40788 96.8322 2.40788 96.674 2.31025 96.5763L0.896034 95.1621L2.31025 93.7479C2.40788 93.6503 2.40788 93.492 2.31025 93.3943C2.21262 93.2967 2.05433 93.2967 1.95669 93.3943L0.365704 94.9853ZM44.5069 95.3389C44.6045 95.2413 44.6045 95.083 44.5069 94.9853L42.9159 93.3943C42.8182 93.2967 42.6599 93.2967 42.5623 93.3943C42.4647 93.492 42.4647 93.6503 42.5623 93.7479L43.9765 95.1621L42.5623 96.5763C42.4647 96.674 42.4647 96.8322 42.5623 96.9299C42.6599 97.0275 42.8182 97.0275 42.9159 96.9299L44.5069 95.3389ZM0.54248 95.1621L0.54248 95.4121L44.3301 95.4121L44.3301 95.1621L44.3301 94.9121L0.54248 94.9121L0.54248 95.1621Z" fill="white"/>
</svg>
