<svg width="480" height="320" viewBox="0 0 480 320" fill="none" xmlns="http://www.w3.org/2000/svg">
<g clip-path="url(#clip0_1041_3002)">
<rect width="480" height="320" fill="white"/>
<path d="M480 0H0V320H480V0Z" fill="#1D70B8"/>
<path d="M225.366 140.14C227.892 140.14 229.94 138.091 229.94 135.563C229.94 133.036 227.892 130.987 225.366 130.987C222.839 130.987 220.791 133.036 220.791 135.563C220.791 138.091 222.839 140.14 225.366 140.14Z" fill="white"/>
<path d="M213.059 147.514C215.586 147.514 217.634 145.465 217.634 142.938C217.634 140.41 215.586 138.361 213.059 138.361C210.532 138.361 208.484 140.41 208.484 142.938C208.484 145.465 210.532 147.514 213.059 147.514Z" fill="white"/>
<path d="M204.916 159.641C207.443 159.641 209.491 157.592 209.491 155.064C209.491 152.537 207.443 150.488 204.916 150.488C202.39 150.488 200.342 152.537 200.342 155.064C200.342 157.592 202.39 159.641 204.916 159.641Z" fill="white"/>
<path d="M239.998 156.436C242.525 156.436 244.573 154.387 244.573 151.859C244.573 149.332 242.525 147.283 239.998 147.283C237.472 147.283 235.424 149.332 235.424 151.859C235.424 154.387 237.472 156.436 239.998 156.436Z" fill="white"/>
<path d="M254.617 140.14C257.144 140.14 259.191 138.091 259.191 135.563C259.191 133.036 257.144 130.987 254.617 130.987C252.09 130.987 250.042 133.036 250.042 135.563C250.042 138.091 252.09 140.14 254.617 140.14Z" fill="white"/>
<path d="M266.924 147.514C269.451 147.514 271.499 145.465 271.499 142.938C271.499 140.41 269.451 138.361 266.924 138.361C264.397 138.361 262.35 140.41 262.35 142.938C262.35 145.465 264.397 147.514 266.924 147.514Z" fill="white"/>
<path d="M275.067 159.641C277.593 159.641 279.642 157.592 279.642 155.064C279.642 152.537 277.593 150.488 275.067 150.488C272.54 150.488 270.492 152.537 270.492 155.064C270.492 157.592 272.54 159.641 275.067 159.641Z" fill="white"/>
<path d="M239.998 156.436C242.525 156.436 244.573 154.387 244.573 151.859C244.573 149.332 242.525 147.283 239.998 147.283C237.472 147.283 235.424 149.332 235.424 151.859C235.424 154.387 237.472 156.436 239.998 156.436Z" fill="white"/>
<path d="M241.844 125.762C242.075 125.588 242.281 125.382 242.455 125.151L248.274 128.207V119.626L242.463 121.472C242.294 121.245 242.093 121.042 241.868 120.869L244.206 113.5H235.792L238.131 120.869C237.906 121.041 237.706 121.244 237.536 121.472L231.725 119.626V128.207L237.544 125.151C237.718 125.382 237.923 125.588 238.155 125.762L234.84 135.762C233.673 139.282 236.293 142.913 239.999 142.913C243.706 142.913 246.326 139.282 245.159 135.762L241.844 125.762Z" fill="white"/>
<path d="M246.65 160.975C246.65 160.975 242.401 165.705 241.474 168.591C244.254 168.503 246.753 167.961 249.503 165.089L248.571 175.775C246.04 172.222 243.072 170.691 241.426 170.997C241.593 174.826 241.994 179.452 248.696 180.061C253.372 180.468 257.127 178.17 257.518 175.326C257.981 172.06 255.039 169.899 252.821 173.337C251.086 167.647 255.878 165.756 258.955 169.279C256.585 163.663 256.649 159.674 261.918 155.64C265.699 160.668 265.163 164.824 260.476 169.504C263.528 167.815 268.266 169.592 265.475 175.296C264.017 171.748 260.887 172.541 260.231 175.593C259.793 177.749 261.101 180.286 263.944 180.807C266.277 181.234 269.87 179.64 272.75 173.434C271.13 173.475 269.709 174.294 267.871 175.56L270.891 165.485C271.652 168.313 272.626 170.169 273.657 171.173C274.349 169.138 274.25 167.662 273.631 164.491L279.875 166.715C276.558 171.241 273.345 177.594 270.711 188.688C261.42 187.361 251.021 186.615 240.001 186.615C228.982 186.615 218.582 187.362 209.292 188.688C206.657 177.593 203.444 171.241 200.127 166.715L206.371 164.491C205.751 167.662 205.653 169.138 206.345 171.173C207.376 170.169 208.35 168.313 209.111 165.485L212.131 175.56C210.293 174.293 208.872 173.475 207.252 173.434C210.132 179.64 213.725 181.234 216.058 180.807C218.901 180.286 220.208 177.749 219.771 175.593C219.115 172.541 215.986 171.748 214.527 175.296C211.736 169.592 216.475 167.814 219.526 169.504C214.839 164.824 214.302 160.667 218.084 155.64C223.354 159.673 223.417 163.662 221.047 169.279C224.125 165.757 228.916 167.647 227.181 173.337C224.963 169.899 222.021 172.06 222.485 175.326C222.875 178.17 226.63 180.469 231.306 180.061C238.009 179.452 238.409 174.826 238.576 170.997C236.93 170.691 233.962 172.221 231.431 175.775L230.499 165.089C233.249 167.961 235.749 168.502 238.529 168.591C237.601 165.705 233.352 160.975 233.352 160.975H246.653H246.65Z" fill="white"/>
<path d="M199.419 211.137C199.028 211.527 199.028 212.16 199.419 212.551L205.783 218.915C206.173 219.305 206.807 219.305 207.197 218.915C207.588 218.524 207.588 217.891 207.197 217.501L201.54 211.844L207.197 206.187C207.588 205.796 207.588 205.163 207.197 204.773C206.807 204.382 206.173 204.382 205.783 204.773L199.419 211.137ZM281.229 212.551C281.62 212.16 281.62 211.527 281.229 211.137L274.865 204.773C274.475 204.382 273.841 204.382 273.451 204.773C273.06 205.163 273.06 205.796 273.451 206.187L279.108 211.844L273.451 217.501C273.06 217.891 273.06 218.524 273.451 218.915C273.841 219.305 274.475 219.305 274.865 218.915L281.229 212.551ZM200.126 211.844L200.126 212.844L280.522 212.844L280.522 211.844L280.522 210.844L200.126 210.844L200.126 211.844Z" fill="white"/>
</g>
<defs>
<clipPath id="clip0_1041_3002">
<rect width="480" height="320" fill="white"/>
</clipPath>
</defs>
</svg>
