<svg width="1920" height="1280" viewBox="0 0 1920 1280" fill="none" xmlns="http://www.w3.org/2000/svg">
<g clip-path="url(#clip0_1041_3002)">
<rect width="1920" height="1280" fill="white"/>
<path d="M1920 0H0V1280H1920V0Z" fill="#1D70B8"/>
<path d="M901.457 560.559C911.562 560.559 919.755 552.363 919.755 542.253C919.755 532.143 911.562 523.947 901.457 523.947C891.351 523.947 883.158 532.143 883.158 542.253C883.158 552.363 891.351 560.559 901.457 560.559Z" fill="white"/>
<path d="M852.23 590.056C862.336 590.056 870.529 581.861 870.529 571.75C870.529 561.64 862.336 553.444 852.23 553.444C842.124 553.444 833.932 561.64 833.932 571.75C833.932 581.861 842.124 590.056 852.23 590.056Z" fill="white"/>
<path d="M819.66 638.562C829.766 638.562 837.958 630.366 837.958 620.256C837.958 610.146 829.766 601.95 819.66 601.95C809.554 601.95 801.361 610.146 801.361 620.256C801.361 630.366 809.554 638.562 819.66 638.562Z" fill="white"/>
<path d="M959.99 625.743C970.095 625.743 978.289 617.547 978.289 607.437C978.289 597.327 970.095 589.131 959.99 589.131C949.884 589.131 941.691 597.327 941.691 607.437C941.691 617.547 949.884 625.743 959.99 625.743Z" fill="white"/>
<path d="M1018.46 560.559C1028.57 560.559 1036.76 552.363 1036.76 542.253C1036.76 532.143 1028.57 523.947 1018.46 523.947C1008.36 523.947 1000.16 532.143 1000.16 542.253C1000.16 552.363 1008.36 560.559 1018.46 560.559Z" fill="white"/>
<path d="M1067.69 590.056C1077.8 590.056 1085.99 581.861 1085.99 571.75C1085.99 561.64 1077.8 553.444 1067.69 553.444C1057.59 553.444 1049.4 561.64 1049.4 571.75C1049.4 581.861 1057.59 590.056 1067.69 590.056Z" fill="white"/>
<path d="M1100.26 638.562C1110.37 638.562 1118.56 630.366 1118.56 620.256C1118.56 610.146 1110.37 601.95 1100.26 601.95C1090.16 601.95 1081.97 610.146 1081.97 620.256C1081.97 630.366 1090.16 638.562 1100.26 638.562Z" fill="white"/>
<path d="M959.99 625.743C970.095 625.743 978.289 617.547 978.289 607.437C978.289 597.327 970.095 589.131 959.99 589.131C949.884 589.131 941.691 597.327 941.691 607.437C941.691 617.547 949.884 625.743 959.99 625.743Z" fill="white"/>
<path d="M967.369 503.048C968.294 502.352 969.117 501.53 969.813 500.604L993.09 512.829V478.506L969.845 485.886C969.169 484.979 968.364 484.168 967.464 483.476L976.82 454H943.163L952.517 483.476C951.618 484.164 950.818 484.976 950.137 485.886L926.893 478.506V512.829L950.17 500.604C950.866 501.53 951.688 502.352 952.613 503.048L939.353 543.049C934.685 557.13 945.165 571.651 959.991 571.651C974.817 571.651 985.298 557.13 980.63 543.049L967.369 503.048Z" fill="white"/>
<path d="M986.596 643.899C986.596 643.899 969.6 662.82 965.89 674.363C977.014 674.011 987.009 671.845 998.009 660.357L994.281 703.098C984.156 688.887 972.284 682.762 965.7 683.988C966.367 699.305 967.97 717.807 994.78 720.246C1013.48 721.872 1028.5 712.68 1030.07 701.305C1031.92 688.24 1020.15 679.596 1011.28 693.35C1004.34 670.589 1023.51 663.023 1035.82 677.115C1026.34 654.654 1026.59 638.695 1047.67 622.56C1062.79 642.673 1060.65 659.298 1041.9 678.015C1054.11 671.26 1073.06 678.367 1061.9 701.183C1056.06 686.992 1043.55 690.163 1040.92 702.372C1039.17 710.997 1044.4 721.146 1055.77 723.227C1065.11 724.937 1079.48 718.561 1091 693.737C1084.52 693.902 1078.83 697.177 1071.48 702.239L1083.56 661.942C1086.6 673.252 1090.5 680.677 1094.62 684.691C1097.39 676.552 1097 670.649 1094.52 657.964L1119.5 666.86C1106.23 684.965 1093.38 710.375 1082.84 754.75C1045.68 749.444 1004.08 746.461 960.001 746.461C915.926 746.461 874.324 749.446 837.164 754.75C826.625 710.373 813.772 684.963 800.504 666.86L825.481 657.964C823 670.649 822.608 676.552 825.377 684.691C829.501 680.677 833.395 673.252 836.438 661.942L848.521 702.239C841.169 697.172 835.483 693.902 829.005 693.737C840.525 718.561 854.896 724.934 864.229 723.227C875.601 721.146 880.828 710.997 879.081 702.372C876.456 690.163 863.94 686.992 858.106 701.183C846.941 678.367 865.894 671.256 878.1 678.015C859.353 659.298 857.206 642.669 872.332 622.56C893.411 638.692 893.662 654.65 884.185 677.115C896.494 663.027 915.659 670.589 908.722 693.35C899.848 679.596 888.08 688.24 889.934 701.305C891.497 712.682 906.515 721.874 925.221 720.246C952.03 717.807 953.633 699.305 954.299 683.988C947.717 682.762 935.846 688.885 925.721 703.098L921.993 660.357C932.992 671.845 942.99 674.008 954.111 674.363C950.401 662.82 933.406 643.899 933.406 643.899H986.609H986.596Z" fill="white"/>
<path d="M798.736 845.607C797.76 846.584 797.76 848.166 798.736 849.143L814.646 865.053C815.622 866.029 817.205 866.029 818.182 865.053C819.158 864.076 819.158 862.493 818.182 861.517L804.039 847.375L818.182 833.233C819.158 832.257 819.158 830.674 818.182 829.697C817.205 828.721 815.622 828.721 814.646 829.697L798.736 845.607ZM1123.86 849.143C1124.83 848.166 1124.83 846.584 1123.86 845.607L1107.95 829.697C1106.97 828.721 1105.39 828.721 1104.41 829.697C1103.43 830.674 1103.43 832.257 1104.41 833.233L1118.55 847.375L1104.41 861.517C1103.43 862.493 1103.43 864.076 1104.41 865.053C1105.39 866.029 1106.97 866.029 1107.95 865.053L1123.86 849.143ZM800.504 847.375L800.504 849.875L1122.09 849.875L1122.09 847.375L1122.09 844.875L800.504 844.875L800.504 847.375Z" fill="white"/>
</g>
<defs>
<clipPath id="clip0_1041_3002">
<rect width="1920" height="1280" fill="white"/>
</clipPath>
</defs>
</svg>
