<svg width="480" height="320" viewBox="0 0 480 320" fill="none" xmlns="http://www.w3.org/2000/svg">
<g clip-path="url(#clip0_1022_417)">
<rect width="480" height="320" fill="white"/>
<path d="M480 0H0V320H480V0Z" fill="#1D70B8"/>
<path d="M218.293 184.293C217.902 184.683 217.902 185.317 218.293 185.707L224.657 192.071C225.047 192.462 225.681 192.462 226.071 192.071C226.462 191.681 226.462 191.047 226.071 190.657L220.414 185L226.071 179.343C226.462 178.953 226.462 178.319 226.071 177.929C225.681 177.538 225.047 177.538 224.657 177.929L218.293 184.293ZM261.68 185.707C262.07 185.317 262.07 184.683 261.68 184.293L255.316 177.929C254.925 177.538 254.292 177.538 253.901 177.929C253.511 178.319 253.511 178.953 253.901 179.343L259.558 185L253.901 190.657C253.511 191.047 253.511 191.681 253.901 192.071C254.292 192.462 254.925 192.462 255.316 192.071L261.68 185.707ZM219 185L219 186L260.972 186L260.972 185L260.972 184L219 184L219 185Z" fill="white"/>
<path d="M241.389 139.996L244.754 141.751V136.791L241.389 137.859C241.294 137.732 241.182 137.62 241.07 137.524C240.959 137.429 242.426 133.25 242.426 133.25H237.577L238.933 137.508C238.805 137.62 238.694 137.732 238.614 137.843C238.534 137.955 235.249 136.791 235.249 136.791V141.751L238.614 139.98C238.71 140.124 238.837 140.235 238.965 140.331L237.035 146.168V146.184C236.939 146.472 236.892 146.791 236.892 147.109C236.892 148.688 238.056 149.996 239.571 150.219H239.635C239.762 150.235 239.89 150.251 240.034 150.251C240.161 150.251 240.305 150.251 240.432 150.219H240.496C242.011 149.996 243.176 148.688 243.176 147.109C243.176 146.791 243.128 146.487 243.032 146.184C242.936 145.881 243.032 146.184 243.032 146.168L241.102 140.331C241.23 140.235 241.357 140.124 241.453 139.98M229.077 147.062C229.408 147.237 229.772 147.344 230.146 147.376C230.52 147.408 230.896 147.364 231.253 147.247C231.61 147.13 231.939 146.942 232.221 146.695C232.504 146.448 232.733 146.146 232.896 145.808C233.06 145.47 233.153 145.103 233.171 144.728C233.188 144.353 233.131 143.978 233 143.626C232.87 143.274 232.67 142.952 232.412 142.679C232.155 142.406 231.845 142.188 231.501 142.038C230.129 141.384 228.455 141.974 227.785 143.361C227.115 144.749 227.705 146.408 229.077 147.062ZM222.155 152.755C223.59 153.345 225.217 152.676 225.807 151.256C226.397 149.837 225.727 148.194 224.292 147.604C222.889 147.03 221.246 147.716 220.656 149.135C220.066 150.554 220.751 152.181 222.155 152.755ZM250.927 147.062C250.595 147.237 250.231 147.344 249.857 147.376C249.483 147.408 249.107 147.364 248.75 147.247C248.394 147.13 248.064 146.942 247.782 146.695C247.5 146.448 247.27 146.146 247.107 145.808C246.944 145.47 246.851 145.103 246.833 144.728C246.815 144.353 246.873 143.978 247.003 143.626C247.133 143.274 247.333 142.952 247.591 142.679C247.848 142.406 248.158 142.188 248.502 142.038C249.874 141.384 251.549 141.974 252.218 143.361C252.888 144.749 252.298 146.408 250.927 147.062ZM257.816 152.707C256.381 153.298 254.754 152.628 254.164 151.208C253.574 149.789 254.244 148.146 255.679 147.556C257.083 146.982 258.726 147.668 259.316 149.087C259.906 150.507 259.22 152.133 257.816 152.707ZM239.986 168.401C245.711 168.401 251.134 168.784 255.966 169.486C257.338 163.728 259.013 160.427 260.735 158.066L257.497 156.918C257.816 158.561 257.864 159.326 257.497 160.395C256.955 159.868 256.461 158.912 256.062 157.444L254.483 162.675C255.44 162.022 256.174 161.591 257.019 161.575C255.52 164.797 253.654 165.626 252.442 165.403C250.959 165.132 250.289 163.808 250.512 162.691C250.847 161.112 252.474 160.698 253.239 162.532C254.69 159.565 252.234 158.64 250.64 159.518C253.08 157.093 253.351 154.924 251.389 152.309C248.646 154.398 248.614 156.471 249.842 159.39C248.247 157.556 245.759 158.545 246.652 161.495C247.801 159.709 249.332 160.825 249.092 162.532C248.885 164.015 246.939 165.211 244.515 164.988C241.038 164.669 240.831 162.261 240.735 160.283C241.597 160.124 243.128 160.921 244.451 162.771L244.93 157.221C243.494 158.704 242.203 158.991 240.751 159.039C241.23 157.54 243.447 155.084 243.447 155.084H236.525C236.525 155.084 238.726 157.54 239.22 159.039C237.769 158.991 236.477 158.704 235.042 157.221L235.52 162.771C236.828 160.921 238.375 160.124 239.236 160.283C239.156 162.277 238.949 164.669 235.456 164.988C233.032 165.195 231.07 163.999 230.879 162.532C230.64 160.841 232.171 159.709 233.319 161.495C234.212 158.545 231.724 157.556 230.129 159.39C231.357 156.471 231.326 154.398 228.582 152.309C226.621 154.924 226.892 157.077 229.332 159.518C227.753 158.64 225.281 159.565 226.732 162.532C227.498 160.682 229.125 161.097 229.459 162.691C229.683 163.808 229.013 165.132 227.53 165.403C226.318 165.626 224.452 164.797 222.952 161.575C223.798 161.591 224.531 162.022 225.488 162.675L223.909 157.444C223.511 158.912 223 159.868 222.474 160.395C222.107 159.342 222.171 158.577 222.474 156.918L219.236 158.066C220.959 160.411 222.633 163.712 224.005 169.486C228.837 168.8 234.244 168.401 239.97 168.401" fill="white"/>
</g>
<defs>
<clipPath id="clip0_1022_417">
<rect width="480" height="320" fill="white"/>
</clipPath>
</defs>
</svg>
