<svg width="1920" height="1280" viewBox="0 0 1920 1280" fill="none" xmlns="http://www.w3.org/2000/svg">
<g clip-path="url(#clip0_1022_417)">
<rect width="1920" height="1280" fill="white"/>
<path d="M1920 0H0V1280H1920V0Z" fill="#1D70B8"/>
<path d="M874.232 738.232C873.256 739.209 873.256 740.791 874.232 741.768L890.142 757.678C891.118 758.654 892.701 758.654 893.678 757.678C894.654 756.701 894.654 755.118 893.678 754.142L879.536 740L893.678 725.858C894.654 724.882 894.654 723.299 893.678 722.322C892.701 721.346 891.118 721.346 890.142 722.322L874.232 738.232ZM1045.66 741.768C1046.63 740.791 1046.63 739.209 1045.66 738.232L1029.75 722.322C1028.77 721.346 1027.19 721.346 1026.21 722.322C1025.24 723.299 1025.24 724.882 1026.21 725.858L1040.35 740L1026.21 754.142C1025.24 755.118 1025.24 756.701 1026.21 757.678C1027.19 758.654 1028.77 758.654 1029.75 757.678L1045.66 741.768ZM876 740L876 742.5L1043.89 742.5L1043.89 740L1043.89 737.5L876 737.5L876 740Z" fill="white"/>
<path d="M965.559 559.985L979.02 567.002V547.162L965.559 551.437C965.176 550.926 964.729 550.48 964.283 550.097C963.836 549.714 969.705 533 969.705 533H950.312L955.734 550.033C955.224 550.48 954.777 550.926 954.458 551.373C954.14 551.82 940.998 547.162 940.998 547.162V567.002L954.458 559.921C954.841 560.495 955.352 560.942 955.862 561.325L948.143 584.674V584.738C947.76 585.886 947.568 587.162 947.568 588.438C947.568 594.753 952.226 599.985 958.286 600.878H958.541C959.052 600.942 959.562 601.005 960.136 601.005C960.647 601.005 961.221 601.005 961.731 600.878H961.986C968.047 599.985 972.704 594.753 972.704 588.438C972.704 587.162 972.513 585.95 972.13 584.738C971.747 583.526 972.13 584.738 972.13 584.674L964.41 561.325C964.921 560.942 965.431 560.495 965.814 559.921M916.309 588.246C917.635 588.949 919.09 589.377 920.586 589.504C922.082 589.631 923.588 589.456 925.014 588.987C926.441 588.519 927.758 587.768 928.888 586.779C930.017 585.791 930.935 584.584 931.588 583.232C932.24 581.88 932.613 580.41 932.685 578.91C932.756 577.411 932.524 575.913 932.003 574.505C931.482 573.097 930.682 571.809 929.652 570.717C928.621 569.625 927.381 568.752 926.006 568.151C920.519 565.535 913.821 567.896 911.141 573.446C908.462 578.996 910.822 585.631 916.309 588.246ZM888.622 611.021C894.363 613.382 900.87 610.702 903.231 605.024C905.591 599.347 902.912 592.776 897.17 590.415C891.556 588.119 884.985 590.862 882.625 596.54C880.265 602.218 883.008 608.725 888.622 611.021ZM1003.71 588.246C1002.38 588.949 1000.93 589.377 999.431 589.504C997.935 589.631 996.429 589.456 995.003 588.987C993.576 588.519 992.259 587.768 991.13 586.779C990 585.791 989.082 584.584 988.429 583.232C987.777 581.88 987.404 580.41 987.333 578.91C987.261 577.411 987.493 575.913 988.014 574.505C988.535 573.097 989.335 571.809 990.365 570.717C991.396 569.625 992.636 568.752 994.012 568.151C999.498 565.535 1006.2 567.896 1008.88 573.446C1011.56 578.996 1009.19 585.631 1003.71 588.246ZM1031.27 610.83C1025.53 613.19 1019.02 610.511 1016.66 604.833C1014.3 599.155 1016.98 592.585 1022.72 590.224C1028.33 587.928 1034.9 590.671 1037.26 596.349C1039.62 602.026 1036.88 608.533 1031.27 610.83ZM959.945 673.605C982.847 673.605 1004.54 675.135 1023.87 677.942C1029.35 654.912 1036.05 641.707 1042.94 632.265L1029.99 627.672C1031.27 634.243 1031.46 637.305 1029.99 641.579C1027.82 639.474 1025.85 635.646 1024.25 629.777L1017.93 650.702C1021.76 648.086 1024.7 646.364 1028.08 646.3C1022.08 659.187 1014.62 662.504 1009.77 661.611C1003.84 660.526 1001.16 655.232 1002.05 650.766C1003.39 644.45 1009.9 642.791 1012.96 650.128C1018.76 638.262 1008.94 634.562 1002.56 638.071C1012.32 628.374 1013.41 619.698 1005.56 609.235C994.585 617.592 994.458 625.886 999.37 637.56C992.991 630.224 983.039 634.179 986.611 645.981C991.204 638.836 997.329 643.302 996.372 650.128C995.543 656.061 987.76 660.845 978.062 659.952C964.155 658.676 963.326 649.043 962.943 641.133C966.388 640.495 972.513 643.684 977.807 651.085L979.721 628.884C973.98 634.817 968.812 635.965 963.007 636.156C964.921 630.16 973.788 620.336 973.788 620.336H946.101C946.101 620.336 954.905 630.16 956.883 636.156C951.077 635.965 945.91 634.817 940.168 628.884L942.082 651.085C947.313 643.684 953.502 640.495 956.946 641.133C956.628 649.107 955.798 658.676 941.827 659.952C932.13 660.781 924.283 655.997 923.518 650.128C922.561 643.366 928.685 638.836 933.278 645.981C936.851 634.179 926.899 630.224 920.519 637.56C925.431 625.886 925.304 617.592 914.331 609.235C906.484 619.698 907.569 628.31 917.33 638.071C911.014 634.562 901.126 638.262 906.931 650.128C909.993 642.728 916.5 644.386 917.84 650.766C918.733 655.232 916.054 660.526 910.121 661.611C905.272 662.504 897.808 659.187 891.812 646.3C895.193 646.364 898.127 648.086 901.955 650.702L895.639 629.777C894.044 635.646 892.003 639.474 889.898 641.579C888.43 637.369 888.686 634.307 889.898 627.672L876.947 632.265C883.837 641.643 890.536 654.849 896.022 677.942C915.352 675.199 936.979 673.605 959.881 673.605" fill="white"/>
</g>
<defs>
<clipPath id="clip0_1022_417">
<rect width="1920" height="1280" fill="white"/>
</clipPath>
</defs>
</svg>
