<svg width="480" height="320" viewBox="0 0 480 320" fill="none" xmlns="http://www.w3.org/2000/svg">
<g clip-path="url(#clip0_1539_2008)">
<path d="M480 0H0V320H480V0Z" fill="#1D70B8"/>
<path d="M221.829 146.401C224.987 146.401 227.547 143.84 227.547 140.681C227.547 137.521 224.987 134.96 221.829 134.96C218.671 134.96 216.111 137.521 216.111 140.681C216.111 143.84 218.671 146.401 221.829 146.401Z" fill="white"/>
<path d="M206.446 155.619C209.604 155.619 212.164 153.058 212.164 149.899C212.164 146.739 209.604 144.178 206.446 144.178C203.288 144.178 200.728 146.739 200.728 149.899C200.728 153.058 203.288 155.619 206.446 155.619Z" fill="white"/>
<path d="M196.268 170.778C199.426 170.778 201.986 168.216 201.986 165.057C201.986 161.898 199.426 159.336 196.268 159.336C193.11 159.336 190.549 161.898 190.549 165.057C190.549 168.216 193.11 170.778 196.268 170.778Z" fill="white"/>
<path d="M240.121 166.771C243.279 166.771 245.839 164.21 245.839 161.051C245.839 157.891 243.279 155.33 240.121 155.33C236.962 155.33 234.402 157.891 234.402 161.051C234.402 164.21 236.962 166.771 240.121 166.771Z" fill="white"/>
<path d="M258.394 146.401C261.552 146.401 264.112 143.84 264.112 140.681C264.112 137.521 261.552 134.96 258.394 134.96C255.236 134.96 252.675 137.521 252.675 140.681C252.675 143.84 255.236 146.401 258.394 146.401Z" fill="white"/>
<path d="M273.779 155.619C276.937 155.619 279.497 153.058 279.497 149.899C279.497 146.739 276.937 144.178 273.779 144.178C270.62 144.178 268.061 146.739 268.061 149.899C268.061 153.058 270.62 155.619 273.779 155.619Z" fill="white"/>
<path d="M283.957 170.778C287.115 170.778 289.675 168.216 289.675 165.057C289.675 161.898 287.115 159.336 283.957 159.336C280.799 159.336 278.239 161.898 278.239 165.057C278.239 168.216 280.799 170.778 283.957 170.778Z" fill="white"/>
<path d="M240.121 166.771C243.279 166.771 245.839 164.21 245.839 161.051C245.839 157.891 243.279 155.33 240.121 155.33C236.962 155.33 234.402 157.891 234.402 161.051C234.402 164.21 236.962 166.771 240.121 166.771Z" fill="white"/>
<path d="M242.427 128.429C242.716 128.212 242.973 127.955 243.191 127.665L250.464 131.486V120.76L243.201 123.066C242.989 122.783 242.738 122.529 242.457 122.313L245.38 113.102H234.862L237.785 122.313C237.504 122.528 237.255 122.781 237.042 123.066L229.778 120.76V131.486L237.052 127.665C237.27 127.955 237.526 128.212 237.816 128.429L233.672 140.929C232.213 145.33 235.488 149.867 240.121 149.867C244.754 149.867 248.03 145.33 246.571 140.929L242.427 128.429Z" fill="white"/>
<path d="M248.435 172.445C248.435 172.445 243.124 178.358 241.964 181.965C245.441 181.855 248.564 181.178 252.002 177.588L250.836 190.945C247.673 186.504 243.963 184.59 241.905 184.973C242.114 189.759 242.614 195.541 250.993 196.303C256.838 196.811 261.531 193.939 262.019 190.384C262.599 186.302 258.921 183.6 256.149 187.898C253.981 180.786 259.97 178.421 263.816 182.825C260.854 175.806 260.934 170.819 267.521 165.776C272.246 172.062 271.576 177.257 265.718 183.106C269.532 180.995 275.455 183.216 271.966 190.346C270.144 185.911 266.232 186.902 265.412 190.718C264.864 193.413 266.499 196.585 270.053 197.235C272.969 197.769 277.46 195.777 281.06 188.019C279.036 188.071 277.259 189.094 274.961 190.676L278.737 178.083C279.688 181.618 280.905 183.938 282.194 185.193C283.059 182.649 282.935 180.804 282.161 176.84L289.966 179.62C285.821 185.278 281.804 193.219 278.511 207.086C266.898 205.428 253.899 204.495 240.124 204.495C226.351 204.495 213.35 205.428 201.737 207.086C198.444 193.218 194.427 185.277 190.281 179.62L198.086 176.84C197.311 180.804 197.189 182.649 198.054 185.193C199.343 183.938 200.56 181.618 201.511 178.083L205.287 190.676C202.989 189.093 201.212 188.071 199.188 188.019C202.788 195.777 207.279 197.769 210.195 197.235C213.749 196.585 215.383 193.413 214.836 190.718C214.016 186.902 210.105 185.911 208.282 190.346C204.793 183.216 210.716 180.994 214.53 183.106C208.672 177.257 208.001 172.061 212.728 165.776C219.315 170.818 219.393 175.805 216.432 182.825C220.278 178.422 226.267 180.786 224.099 187.898C221.326 183.6 217.649 186.302 218.228 190.384C218.717 193.94 223.41 196.812 229.255 196.303C237.633 195.541 238.134 189.759 238.342 184.973C236.285 184.59 232.576 186.503 229.412 190.945L228.247 177.588C231.684 181.178 234.808 181.854 238.283 181.965C237.124 178.358 231.813 172.445 231.813 172.445H248.439H248.435Z" fill="white"/>
</g>
<defs>
<clipPath id="clip0_1539_2008">
<rect width="480" height="320" fill="white"/>
</clipPath>
</defs>
</svg>
