<svg width="680" height="291" viewBox="0 0 680 291" fill="none" xmlns="http://www.w3.org/2000/svg">
<rect x="521.434" y="0.347656" width="158.253" height="289.85" fill="#1D70B8"/>
<rect x="0.193359" y="0.347656" width="500.117" height="289.85" fill="#1D70B8"/>
<rect x="21.6704" y="22.1748" width="457.163" height="246.196" stroke="#8EB8DC" stroke-dasharray="2 2"/>
<rect x="542.911" y="22.1748" width="115.299" height="246.196" stroke="#8EB8DC" stroke-dasharray="2 2"/>
<path d="M243.951 246.972C245.039 246.972 245.921 246.09 245.921 245.002C245.921 243.914 245.039 243.032 243.951 243.032C242.863 243.032 241.981 243.914 241.981 245.002C241.981 246.09 242.863 246.972 243.951 246.972Z" fill="white"/>
<path d="M238.652 250.145C239.74 250.145 240.622 249.264 240.622 248.176C240.622 247.088 239.74 246.206 238.652 246.206C237.564 246.206 236.682 247.088 236.682 248.176C236.682 249.264 237.564 250.145 238.652 250.145Z" fill="white"/>
<path d="M235.146 255.365C236.234 255.365 237.116 254.483 237.116 253.395C237.116 252.308 236.234 251.426 235.146 251.426C234.058 251.426 233.176 252.308 233.176 253.395C233.176 254.483 234.058 255.365 235.146 255.365Z" fill="white"/>
<path d="M250.251 253.985C251.339 253.985 252.221 253.103 252.221 252.016C252.221 250.928 251.339 250.046 250.251 250.046C249.164 250.046 248.282 250.928 248.282 252.016C248.282 253.103 249.164 253.985 250.251 253.985Z" fill="white"/>
<path d="M256.545 246.972C257.633 246.972 258.515 246.09 258.515 245.002C258.515 243.914 257.633 243.032 256.545 243.032C255.458 243.032 254.576 243.914 254.576 245.002C254.576 246.09 255.458 246.972 256.545 246.972Z" fill="white"/>
<path d="M261.845 250.145C262.933 250.145 263.814 249.264 263.814 248.176C263.814 247.088 262.933 246.206 261.845 246.206C260.757 246.206 259.875 247.088 259.875 248.176C259.875 249.264 260.757 250.145 261.845 250.145Z" fill="white"/>
<path d="M265.351 255.365C266.438 255.365 267.32 254.483 267.32 253.395C267.32 252.308 266.438 251.426 265.351 251.426C264.263 251.426 263.381 252.308 263.381 253.395C263.381 254.483 264.263 255.365 265.351 255.365Z" fill="white"/>
<path d="M250.251 253.985C251.339 253.985 252.221 253.103 252.221 252.016C252.221 250.928 251.339 250.046 250.251 250.046C249.164 250.046 248.282 250.928 248.282 252.016C248.282 253.103 249.164 253.985 250.251 253.985Z" fill="white"/>
<path d="M251.045 240.783C251.145 240.708 251.234 240.62 251.308 240.52L253.814 241.836V238.143L251.312 238.937C251.239 238.839 251.153 238.752 251.056 238.677L252.063 235.506H248.44L249.447 238.677C249.35 238.752 249.264 238.839 249.191 238.937L246.688 238.143V241.836L249.194 240.52C249.269 240.62 249.358 240.708 249.457 240.783L248.03 245.087C247.527 246.602 248.655 248.165 250.251 248.165C251.847 248.165 252.975 246.602 252.473 245.087L251.045 240.783Z" fill="white"/>
<path d="M253.115 255.939C253.115 255.939 251.285 257.974 250.886 259.217C252.084 259.179 253.159 258.946 254.343 257.709L253.942 262.308C252.852 260.779 251.574 260.12 250.866 260.252C250.938 261.9 251.11 263.891 253.996 264.153C256.009 264.328 257.626 263.339 257.794 262.116C257.994 260.71 256.727 259.78 255.772 261.26C255.025 258.811 257.088 257.996 258.413 259.513C257.393 257.096 257.42 255.379 259.689 253.643C261.317 255.807 261.086 257.596 259.068 259.609C260.382 258.883 262.422 259.647 261.22 262.102C260.593 260.575 259.245 260.916 258.963 262.23C258.774 263.158 259.337 264.25 260.561 264.474C261.566 264.658 263.113 263.972 264.353 261.301C263.656 261.319 263.043 261.671 262.252 262.216L263.553 257.88C263.88 259.097 264.299 259.896 264.743 260.328C265.041 259.452 264.999 258.817 264.732 257.452L267.421 258.409C265.993 260.357 264.609 263.091 263.475 267.866C259.475 267.295 254.997 266.974 250.252 266.974C245.508 266.974 241.03 267.295 237.03 267.866C235.895 263.091 234.512 260.357 233.083 258.409L235.772 257.452C235.505 258.817 235.463 259.452 235.761 260.328C236.205 259.896 236.624 259.097 236.952 257.88L238.252 262.216C237.461 261.671 236.849 261.319 236.151 261.301C237.391 263.972 238.938 264.658 239.943 264.474C241.167 264.25 241.73 263.158 241.542 262.23C241.259 260.916 239.912 260.575 239.284 262.102C238.082 259.647 240.122 258.882 241.436 259.609C239.418 257.596 239.187 255.806 240.815 253.643C243.084 255.378 243.111 257.095 242.091 259.513C243.416 257.997 245.479 258.811 244.732 261.26C243.777 259.78 242.51 260.71 242.71 262.116C242.878 263.34 244.495 264.329 246.508 264.153C249.394 263.891 249.567 261.9 249.638 260.252C248.93 260.12 247.652 260.779 246.562 262.308L246.161 257.709C247.345 258.946 248.421 259.178 249.618 259.217C249.219 257.974 247.389 255.939 247.389 255.939H253.116H253.115Z" fill="white"/>
<path d="M595.768 251.742C596.595 251.742 597.266 251.071 597.266 250.244C597.266 249.417 596.595 248.746 595.768 248.746C594.941 248.746 594.27 249.417 594.27 250.244C594.27 251.071 594.941 251.742 595.768 251.742Z" fill="white"/>
<path d="M591.738 254.156C592.565 254.156 593.236 253.485 593.236 252.658C593.236 251.831 592.565 251.16 591.738 251.16C590.91 251.16 590.24 251.831 590.24 252.658C590.24 253.485 590.91 254.156 591.738 254.156Z" fill="white"/>
<path d="M589.071 258.125C589.899 258.125 590.569 257.454 590.569 256.627C590.569 255.8 589.899 255.129 589.071 255.129C588.244 255.129 587.573 255.8 587.573 256.627C587.573 257.454 588.244 258.125 589.071 258.125Z" fill="white"/>
<path d="M600.559 257.076C601.387 257.076 602.057 256.405 602.057 255.578C602.057 254.751 601.387 254.08 600.559 254.08C599.732 254.08 599.062 254.751 599.062 255.578C599.062 256.405 599.732 257.076 600.559 257.076Z" fill="white"/>
<path d="M605.346 251.742C606.173 251.742 606.844 251.071 606.844 250.244C606.844 249.417 606.173 248.746 605.346 248.746C604.518 248.746 603.848 249.417 603.848 250.244C603.848 251.071 604.518 251.742 605.346 251.742Z" fill="white"/>
<path d="M609.376 254.156C610.203 254.156 610.874 253.485 610.874 252.658C610.874 251.831 610.203 251.16 609.376 251.16C608.549 251.16 607.878 251.831 607.878 252.658C607.878 253.485 608.549 254.156 609.376 254.156Z" fill="white"/>
<path d="M612.042 258.125C612.87 258.125 613.54 257.454 613.54 256.627C613.54 255.8 612.87 255.129 612.042 255.129C611.215 255.129 610.544 255.8 610.544 256.627C610.544 257.454 611.215 258.125 612.042 258.125Z" fill="white"/>
<path d="M600.559 257.076C601.387 257.076 602.057 256.405 602.057 255.578C602.057 254.751 601.387 254.08 600.559 254.08C599.732 254.08 599.062 254.751 599.062 255.578C599.062 256.405 599.732 257.076 600.559 257.076Z" fill="white"/>
<path d="M601.163 247.036C601.239 246.979 601.306 246.912 601.363 246.836L603.269 247.836V245.028L601.366 245.632C601.31 245.557 601.245 245.491 601.171 245.434L601.937 243.022H599.182L599.947 245.434C599.874 245.491 599.808 245.557 599.752 245.632L597.85 245.028V247.836L599.755 246.836C599.812 246.912 599.879 246.979 599.955 247.036L598.87 250.309C598.488 251.461 599.345 252.65 600.559 252.65C601.773 252.65 602.631 251.461 602.249 250.309L601.163 247.036Z" fill="white"/>
<path d="M602.737 258.562C602.737 258.562 601.346 260.11 601.042 261.054C601.953 261.026 602.771 260.848 603.671 259.908L603.366 263.406C602.537 262.243 601.565 261.742 601.026 261.842C601.081 263.096 601.212 264.61 603.407 264.809C604.938 264.942 606.168 264.19 606.296 263.259C606.447 262.19 605.484 261.483 604.758 262.608C604.19 260.746 605.759 260.127 606.766 261.28C605.99 259.442 606.011 258.136 607.737 256.815C608.975 258.461 608.799 259.822 607.264 261.353C608.264 260.801 609.815 261.382 608.901 263.249C608.424 262.088 607.399 262.347 607.184 263.346C607.041 264.052 607.469 264.883 608.4 265.053C609.164 265.193 610.34 264.671 611.283 262.64C610.753 262.653 610.288 262.921 609.686 263.336L610.675 260.038C610.924 260.964 611.243 261.571 611.58 261.9C611.807 261.234 611.775 260.751 611.572 259.713L613.617 260.441C612.531 261.922 611.478 264.001 610.616 267.632C607.574 267.198 604.168 266.954 600.56 266.954C596.952 266.954 593.546 267.198 590.504 267.632C589.641 264.001 588.589 261.922 587.503 260.441L589.548 259.713C589.345 260.751 589.312 261.234 589.539 261.9C589.877 261.571 590.196 260.964 590.445 260.038L591.434 263.336C590.832 262.921 590.366 262.653 589.836 262.64C590.779 264.671 591.956 265.193 592.72 265.053C593.651 264.883 594.078 264.052 593.935 263.346C593.721 262.347 592.696 262.088 592.218 263.249C591.304 261.382 592.856 260.8 593.855 261.353C592.32 259.822 592.145 258.461 593.383 256.815C595.109 258.136 595.129 259.441 594.353 261.28C595.361 260.127 596.93 260.746 596.362 262.608C595.636 261.483 594.672 262.19 594.824 263.259C594.952 264.19 596.181 264.942 597.713 264.809C599.907 264.61 600.039 263.096 600.093 261.842C599.554 261.742 598.582 262.243 597.754 263.406L597.448 259.908C598.349 260.848 599.167 261.025 600.078 261.054C599.774 260.11 598.383 258.562 598.383 258.562H602.738H602.737Z" fill="white"/>
<path d="M262.112 137.217C264.288 137.217 266.052 135.453 266.052 133.277C266.052 131.101 264.288 129.337 262.112 129.337C259.936 129.337 258.172 131.101 258.172 133.277C258.172 135.453 259.936 137.217 262.112 137.217Z" fill="#00FFE0"/>
<path d="M190.893 133.342C190.893 134.34 191.017 135.3 191.267 136.223C191.516 137.145 191.896 137.958 192.406 138.664C192.916 139.369 193.567 139.936 194.359 140.364C195.151 140.793 196.095 141.008 197.191 141.008C198.287 141.008 199.12 140.839 199.82 140.503C200.52 140.167 201.078 139.746 201.496 139.241C201.914 138.737 202.207 138.192 202.375 137.606C202.543 137.02 202.627 136.478 202.627 135.978V135.751H196.654V132.154H207.217V144.946H203.083V142.212C202.79 142.668 202.426 143.082 201.993 143.457C201.559 143.831 201.07 144.151 200.528 144.417C199.985 144.683 199.391 144.892 198.746 145.044C198.1 145.196 197.414 145.271 196.687 145.271C194.983 145.271 193.47 144.962 192.146 144.344C190.823 143.725 189.708 142.874 188.802 141.789C187.896 140.704 187.207 139.434 186.735 137.98C186.263 136.527 186.027 134.959 186.027 133.277C186.027 131.594 186.29 130.041 186.816 128.582C187.343 127.123 188.091 125.853 189.063 124.773C190.034 123.694 191.205 122.842 192.578 122.218C193.95 121.594 195.488 121.282 197.192 121.282C198.298 121.282 199.348 121.41 200.341 121.665C201.334 121.92 202.24 122.283 203.059 122.755C203.878 123.227 204.602 123.797 205.231 124.464C205.86 125.131 206.371 125.872 206.761 126.685L202.627 129.012C202.378 128.513 202.085 128.05 201.749 127.621C201.412 127.193 201.024 126.823 200.585 126.514C200.146 126.205 199.644 125.961 199.08 125.782C198.515 125.603 197.886 125.513 197.192 125.513C196.096 125.513 195.152 125.728 194.36 126.156C193.568 126.585 192.917 127.152 192.407 127.857C191.897 128.562 191.517 129.379 191.268 130.307C191.018 131.234 190.893 132.192 190.893 133.179V133.342H190.893Z" fill="white"/>
<path d="M222.248 121.282C223.984 121.282 225.541 121.594 226.919 122.218C228.296 122.842 229.466 123.694 230.426 124.773C231.386 125.853 232.119 127.123 232.623 128.582C233.128 130.041 233.38 131.606 233.38 133.277C233.38 134.947 233.128 136.527 232.623 137.98C232.119 139.434 231.386 140.704 230.426 141.789C229.466 142.873 228.297 143.725 226.919 144.344C225.541 144.962 223.984 145.272 222.248 145.272C220.512 145.272 218.941 144.962 217.569 144.344C216.196 143.725 215.03 142.874 214.07 141.789C213.11 140.704 212.377 139.434 211.873 137.98C211.369 136.527 211.116 134.959 211.116 133.277C211.116 131.594 211.369 130.041 211.873 128.582C212.377 127.123 213.11 125.853 214.07 124.773C215.03 123.694 216.196 122.842 217.569 122.218C218.941 121.594 220.501 121.282 222.248 121.282ZM222.248 141.008C223.268 141.008 224.166 140.815 224.941 140.43C225.717 140.045 226.371 139.51 226.902 138.827C227.434 138.143 227.835 137.335 228.106 136.402C228.377 135.469 228.513 134.449 228.513 133.342V133.212C228.513 132.116 228.377 131.099 228.106 130.16C227.835 129.222 227.434 128.411 226.902 127.727C226.371 127.044 225.717 126.51 224.941 126.124C224.166 125.739 223.268 125.547 222.248 125.547C221.228 125.547 220.327 125.739 219.546 126.124C218.765 126.51 218.111 127.044 217.585 127.727C217.059 128.411 216.66 129.222 216.389 130.16C216.118 131.099 215.982 132.116 215.982 133.212V133.342C215.982 134.449 216.118 135.469 216.389 136.402C216.66 137.335 217.059 138.143 217.585 138.827C218.111 139.51 218.765 140.045 219.546 140.43C220.327 140.815 221.228 141.008 222.248 141.008Z" fill="white"/>
<path d="M241.701 144.946L235.109 121.608H240.399L244.907 139.152H245.07L249.48 121.608H254.704L248.113 144.946H241.701H241.701Z" fill="white"/>
<path d="M281.435 141.008C282.118 141.008 282.756 140.907 283.347 140.707C283.939 140.506 284.449 140.202 284.877 139.795C285.305 139.388 285.645 138.873 285.894 138.249C286.144 137.625 286.268 136.89 286.268 136.044V121.575H290.907V136.743C290.907 138.045 290.671 139.223 290.2 140.275C289.728 141.328 289.072 142.223 288.232 142.96C287.392 143.699 286.392 144.268 285.232 144.669C284.072 145.07 282.804 145.272 281.427 145.272C280.051 145.272 278.782 145.07 277.622 144.669C276.462 144.268 275.46 143.698 274.614 142.96C273.768 142.223 273.11 141.328 272.638 140.275C272.166 139.223 271.931 138.045 271.931 136.743V121.575H276.602V136.044C276.602 136.89 276.726 137.625 276.976 138.249C277.225 138.873 277.564 139.388 277.993 139.795C278.421 140.202 278.931 140.506 279.523 140.706C280.114 140.907 280.752 141.007 281.435 141.007V141.008Z" fill="white"/>
<path d="M295.093 121.607H299.813V131.714L308.146 121.607H313.956L305.851 130.884L314.477 144.945H308.992L302.824 134.48L299.813 137.849V144.945H295.093V121.607Z" fill="white"/>
<path d="M609.578 139.142C611.233 139.142 612.574 137.801 612.574 136.146C612.574 134.492 611.233 133.15 609.578 133.15C607.924 133.15 606.583 134.492 606.583 136.146C606.583 137.801 607.924 139.142 609.578 139.142Z" fill="#00FFE0"/>
<path d="M555.425 136.195C555.425 136.954 555.52 137.684 555.71 138.386C555.9 139.087 556.188 139.705 556.576 140.242C556.964 140.778 557.459 141.209 558.061 141.535C558.664 141.861 559.381 142.024 560.215 142.024C561.048 142.024 561.681 141.896 562.214 141.64C562.745 141.385 563.17 141.065 563.488 140.681C563.805 140.298 564.028 139.883 564.156 139.438C564.284 138.992 564.348 138.58 564.348 138.2V138.027H559.806V135.292H567.838V145.019H564.695V142.94C564.472 143.286 564.195 143.602 563.866 143.886C563.536 144.171 563.164 144.414 562.752 144.616C562.339 144.819 561.887 144.978 561.397 145.093C560.906 145.208 560.384 145.266 559.831 145.266C558.536 145.266 557.385 145.031 556.379 144.561C555.372 144.09 554.524 143.443 553.836 142.618C553.147 141.793 552.623 140.828 552.264 139.722C551.905 138.617 551.726 137.425 551.726 136.146C551.726 134.867 551.926 133.685 552.326 132.576C552.726 131.466 553.295 130.501 554.034 129.68C554.772 128.859 555.663 128.212 556.707 127.737C557.75 127.263 558.92 127.025 560.215 127.025C561.057 127.025 561.855 127.122 562.609 127.316C563.364 127.51 564.053 127.786 564.676 128.145C565.299 128.504 565.85 128.937 566.328 129.445C566.806 129.952 567.195 130.515 567.492 131.134L564.348 132.903C564.158 132.524 563.936 132.171 563.68 131.845C563.424 131.519 563.129 131.239 562.795 131.004C562.461 130.768 562.08 130.583 561.651 130.447C561.222 130.311 560.743 130.242 560.215 130.242C559.382 130.242 558.664 130.406 558.062 130.732C557.459 131.057 556.965 131.488 556.577 132.025C556.189 132.561 555.901 133.182 555.711 133.887C555.521 134.593 555.426 135.321 555.426 136.071V136.195H555.425Z" fill="white"/>
<path d="M579.267 127.025C580.587 127.025 581.771 127.263 582.819 127.737C583.866 128.212 584.755 128.859 585.486 129.68C586.215 130.501 586.772 131.466 587.156 132.576C587.54 133.685 587.731 134.876 587.731 136.146C587.731 137.416 587.54 138.617 587.156 139.722C586.772 140.828 586.215 141.793 585.486 142.618C584.756 143.443 583.866 144.09 582.819 144.561C581.771 145.031 580.587 145.266 579.267 145.266C577.947 145.266 576.752 145.031 575.709 144.561C574.665 144.09 573.779 143.443 573.049 142.618C572.318 141.793 571.762 140.828 571.378 139.722C570.995 138.617 570.803 137.425 570.803 136.146C570.803 134.867 570.995 133.685 571.378 132.576C571.762 131.466 572.318 130.501 573.049 129.68C573.779 128.859 574.665 128.212 575.709 127.737C576.753 127.263 577.938 127.025 579.267 127.025ZM579.267 142.024C580.042 142.024 580.725 141.878 581.315 141.585C581.905 141.292 582.402 140.885 582.806 140.366C583.21 139.846 583.515 139.232 583.722 138.522C583.928 137.813 584.031 137.037 584.031 136.196V136.096C584.031 135.263 583.928 134.49 583.722 133.776C583.515 133.062 583.21 132.446 582.806 131.926C582.402 131.406 581.905 131 581.315 130.707C580.725 130.414 580.042 130.268 579.267 130.268C578.491 130.268 577.807 130.414 577.212 130.707C576.619 131 576.122 131.406 575.721 131.926C575.321 132.446 575.018 133.063 574.812 133.776C574.606 134.49 574.503 135.263 574.503 136.096V136.196C574.503 137.037 574.606 137.813 574.812 138.522C575.018 139.232 575.321 139.846 575.721 140.366C576.122 140.885 576.619 141.292 577.212 141.585C577.807 141.878 578.491 142.024 579.267 142.024Z" fill="white"/>
<path d="M594.059 145.019L589.047 127.273H593.069L596.497 140.613H596.621L599.974 127.273H603.946L598.935 145.019H594.059H594.059Z" fill="white"/>
<path d="M624.271 142.024C624.791 142.024 625.276 141.948 625.725 141.795C626.175 141.642 626.563 141.412 626.889 141.102C627.214 140.793 627.472 140.401 627.662 139.926C627.852 139.452 627.946 138.893 627.946 138.25V127.248H631.473V138.781C631.473 139.772 631.294 140.667 630.936 141.467C630.577 142.267 630.078 142.948 629.44 143.509C628.801 144.07 628.04 144.503 627.158 144.808C626.277 145.113 625.312 145.266 624.265 145.266C623.219 145.266 622.254 145.113 621.372 144.808C620.49 144.503 619.728 144.07 619.085 143.509C618.441 142.948 617.941 142.268 617.582 141.467C617.224 140.667 617.044 139.771 617.044 138.781V127.248H620.596V138.249C620.596 138.893 620.691 139.452 620.881 139.926C621.07 140.401 621.328 140.792 621.654 141.102C621.98 141.411 622.368 141.642 622.817 141.795C623.267 141.947 623.752 142.024 624.271 142.024V142.024Z" fill="white"/>
<path d="M634.657 127.272H638.246V134.957L644.582 127.272H648.999L642.837 134.326L649.395 145.018H645.225L640.535 137.061L638.246 139.622V145.018H634.657V127.272Z" fill="white"/>
</svg>
