<svg width="302" height="109" viewBox="0 0 302 109" fill="none" xmlns="http://www.w3.org/2000/svg">
<rect x="0.826172" y="0.875" width="301.139" height="107.254" fill="#1D70B8"/>
<path d="M0.649395 95.7783C0.551764 95.8759 0.551764 96.0342 0.649395 96.1319L2.24039 97.7228C2.33802 97.8205 2.49631 97.8205 2.59394 97.7228C2.69157 97.6252 2.69157 97.4669 2.59394 97.3693L1.17973 95.9551L2.59394 94.5409C2.69157 94.4432 2.69157 94.2849 2.59394 94.1873C2.49631 94.0897 2.33802 94.0897 2.24039 94.1873L0.649395 95.7783ZM83.9014 96.1319C83.999 96.0342 83.999 95.8759 83.9014 95.7783L82.3104 94.1873C82.2128 94.0897 82.0545 94.0897 81.9568 94.1873C81.8592 94.2849 81.8592 94.4432 81.9568 94.5409L83.3711 95.9551L81.9568 97.3693C81.8592 97.4669 81.8592 97.6252 81.9568 97.7229C82.0545 97.8205 82.2128 97.8205 82.3104 97.7229L83.9014 96.1319ZM0.826172 95.9551L0.826172 96.2051L83.7246 96.2051L83.7246 95.9551L83.7246 95.7051L0.826172 95.7051L0.826172 95.9551Z" fill="white"/>
<path d="M27.1215 30.6179C29.7536 30.6179 31.8875 28.4841 31.8875 25.8519C31.8875 23.2197 29.7536 21.0859 27.1215 21.0859C24.4893 21.0859 22.3555 23.2197 22.3555 25.8519C22.3555 28.4841 24.4893 30.6179 27.1215 30.6179Z" fill="white"/>
<path d="M14.3002 38.2976C16.9324 38.2976 19.0662 36.1638 19.0662 33.5316C19.0662 30.8994 16.9324 28.7656 14.3002 28.7656C11.668 28.7656 9.53418 30.8994 9.53418 33.5316C9.53418 36.1638 11.668 38.2976 14.3002 38.2976Z" fill="white"/>
<path d="M5.81678 50.9265C8.44896 50.9265 10.5828 48.7927 10.5828 46.1605C10.5828 43.5283 8.44896 41.3945 5.81678 41.3945C3.18459 41.3945 1.05078 43.5283 1.05078 46.1605C1.05078 48.7927 3.18459 50.9265 5.81678 50.9265Z" fill="white"/>
<path d="M42.3666 47.5886C44.9988 47.5886 47.1326 45.4548 47.1326 42.8226C47.1326 40.1904 44.9988 38.0566 42.3666 38.0566C39.7344 38.0566 37.6006 40.1904 37.6006 42.8226C37.6006 45.4548 39.7344 47.5886 42.3666 47.5886Z" fill="white"/>
<path d="M57.5961 30.6179C60.2283 30.6179 62.3621 28.4841 62.3621 25.8519C62.3621 23.2197 60.2283 21.0859 57.5961 21.0859C54.9639 21.0859 52.8301 23.2197 52.8301 25.8519C52.8301 28.4841 54.9639 30.6179 57.5961 30.6179Z" fill="white"/>
<path d="M70.4193 38.2976C73.0515 38.2976 75.1853 36.1638 75.1853 33.5316C75.1853 30.8994 73.0515 28.7656 70.4193 28.7656C67.7871 28.7656 65.6533 30.8994 65.6533 33.5316C65.6533 36.1638 67.7871 38.2976 70.4193 38.2976Z" fill="white"/>
<path d="M78.9017 50.9265C81.5339 50.9265 83.6677 48.7927 83.6677 46.1605C83.6677 43.5283 81.5339 41.3945 78.9017 41.3945C76.2695 41.3945 74.1357 43.5283 74.1357 46.1605C74.1357 48.7927 76.2695 50.9265 78.9017 50.9265Z" fill="white"/>
<path d="M42.3666 47.5886C44.9988 47.5886 47.1326 45.4548 47.1326 42.8226C47.1326 40.1904 44.9988 38.0566 42.3666 38.0566C39.7344 38.0566 37.6006 40.1904 37.6006 42.8226C37.6006 45.4548 39.7344 47.5886 42.3666 47.5886Z" fill="white"/>
<path d="M44.2876 15.6447C44.5286 15.4635 44.7427 15.2494 44.9239 15.0084L50.9868 18.1912V9.25505L44.9326 11.1767C44.7562 10.9405 44.5469 10.7293 44.3126 10.549L46.7492 2.875H37.9827L40.4192 10.549C40.1849 10.7283 39.9767 10.9395 39.7993 11.1767L33.7451 9.25505V18.1912L39.8079 15.0084C39.9892 15.2494 40.2033 15.4635 40.4443 15.6447L36.9906 26.059C35.7747 29.7248 38.5044 33.5054 42.3659 33.5054C46.2275 33.5054 48.9572 29.7248 47.7413 26.059L44.2876 15.6447Z" fill="white"/>
<path d="M49.2951 52.3154C49.2951 52.3154 44.8685 57.2415 43.9024 60.2469C46.7997 60.1553 49.4031 59.5912 52.2677 56.6003L51.2967 67.728C48.6597 64.0284 45.5675 62.4336 43.8532 62.7528C44.0267 66.7407 44.4442 71.5578 51.4269 72.1922C56.299 72.6155 60.2107 70.2224 60.6176 67.2614C61.1006 63.8597 58.0355 61.6093 55.7243 65.1903C53.9174 59.2644 58.909 57.2945 62.1149 60.9633C59.6466 55.1154 59.7122 50.9607 65.2023 46.7598C69.141 51.9963 68.5827 56.3245 63.7001 61.1976C66.879 59.4389 71.8157 61.2892 68.9077 67.2295C67.3891 63.5348 64.1282 64.3601 63.4446 67.539C62.9885 69.7846 64.3509 72.4265 67.3129 72.9684C69.7436 73.4139 73.4866 71.7535 76.4872 65.2905C74.7998 65.3339 73.3188 66.1863 71.404 67.5043L74.5511 57.013C75.3436 59.9576 76.358 61.8908 77.4321 62.936C78.1533 60.8167 78.0501 59.2798 77.4051 55.9774L83.9105 58.2934C80.4548 63.0073 77.1072 69.6227 74.3621 81.1756C64.6836 79.7939 53.8489 79.0177 42.3683 79.0177C30.8887 79.0177 20.0531 79.7949 10.3746 81.1756C7.6295 69.6217 4.28183 63.0064 0.826172 58.2934L7.33157 55.9774C6.68556 59.2798 6.58335 60.8167 7.30457 62.936C8.37868 61.8908 9.39301 59.9576 10.1856 57.013L13.3327 67.5043C11.4178 66.1853 9.93681 65.3339 8.24948 65.2905C11.25 71.7535 14.993 73.4129 17.4237 72.9684C20.3857 72.4265 21.7472 69.7846 21.2921 67.539C20.6085 64.3601 17.3485 63.5348 15.829 67.2295C12.921 61.2892 17.8576 59.4379 21.0366 61.1976C16.1539 56.3245 15.5947 51.9953 19.5344 46.7598C25.0245 50.9598 25.09 55.1145 22.6217 60.9633C25.8276 57.2955 30.8193 59.2644 29.0124 65.1903C26.7012 61.6093 23.636 63.8597 24.1191 67.2614C24.526 70.2233 28.4377 72.6165 33.3098 72.1922C40.2924 71.5578 40.7099 66.7407 40.8835 62.7528C39.1691 62.4336 36.077 64.0275 33.4399 67.728L32.469 56.6003C35.3336 59.5912 37.9379 60.1543 40.8343 60.2469C39.8682 57.2415 35.4416 52.3154 35.4416 52.3154H49.2989H49.2951Z" fill="white"/>
</svg>
