<svg width="1920" height="1280" viewBox="0 0 1920 1280" fill="none" xmlns="http://www.w3.org/2000/svg">
<g clip-path="url(#clip0_1021_119)">
<rect width="1920" height="1280" fill="white"/>
<path d="M1920 0H0V1280H1920V0Z" fill="#1D70B8"/>
<path d="M1050.91 412.28C1052.34 412.28 1053.51 412.165 1054.41 411.935C1055.32 411.684 1056.02 411.297 1056.5 410.774C1057 410.251 1057.33 409.582 1057.49 408.766C1057.68 407.929 1057.77 406.914 1057.77 405.722V405H1063V450H1057.58V416.956H1049V412.28H1050.91Z" fill="white"/>
<path d="M954.906 457.281C956.345 457.281 957.511 457.165 958.414 456.935C959.317 456.684 960.016 456.297 960.509 455.774C960.998 455.251 961.329 454.582 961.491 453.766C961.675 452.929 961.77 451.914 961.77 450.722V450H967V495H961.586V461.956H953V457.281H954.906Z" fill="white"/>
<path d="M1057.18 331.809C1075.05 331.809 1089.55 317.315 1089.55 299.436C1089.55 281.557 1075.05 267.062 1057.18 267.062C1039.3 267.062 1024.8 281.557 1024.8 299.436C1024.8 317.315 1039.3 331.809 1057.18 331.809Z" fill="#00FFE0"/>
<path d="M471.981 299.972C471.981 308.172 473.006 316.064 475.058 323.641C477.105 331.218 480.225 337.904 484.418 343.698C488.609 349.495 493.955 354.153 500.465 357.674C506.974 361.194 514.731 362.958 523.736 362.958C532.741 362.958 539.583 361.576 545.335 358.813C551.083 356.05 555.676 352.595 559.109 348.447C562.538 344.302 564.945 339.824 566.33 335.01C567.711 330.196 568.4 325.738 568.4 321.635V319.764H519.323V290.212H606.111V395.319H572.147V372.851C569.74 376.597 566.751 380.007 563.188 383.083C559.621 386.157 555.61 388.789 551.149 390.971C546.69 393.156 541.808 394.874 536.506 396.122C531.202 397.369 525.562 397.993 519.592 397.993C505.593 397.993 493.158 395.452 482.282 390.37C471.406 385.288 462.244 378.292 454.801 369.376C447.357 360.463 441.697 350.031 437.817 338.083C433.94 326.139 432 313.258 432 299.436C432 285.614 434.162 272.85 438.487 260.86C442.811 248.871 448.961 238.438 456.943 229.568C464.923 220.697 474.548 213.701 485.826 208.573C497.104 203.445 509.74 200.882 523.739 200.882C532.832 200.882 541.458 201.93 549.614 204.024C557.772 206.12 565.216 209.106 571.947 212.982C578.676 216.859 584.627 221.543 589.8 227.024C594.967 232.504 599.161 238.592 602.372 245.278L568.404 264.397C566.353 260.298 563.946 256.487 561.182 252.963C558.416 249.445 555.232 246.411 551.622 243.87C548.01 241.329 543.888 239.324 539.254 237.854C534.616 236.384 529.445 235.646 523.742 235.646C514.738 235.646 506.981 237.41 500.471 240.93C493.962 244.451 488.615 249.109 484.425 254.906C480.234 260.7 477.115 267.408 475.064 275.032C473.013 282.655 471.987 290.526 471.987 298.632V299.972H471.981Z" fill="white"/>
<path d="M729.616 200.882C743.879 200.882 756.672 203.445 767.996 208.573C779.316 213.701 788.925 220.697 796.816 229.568C804.704 238.438 810.724 248.871 814.868 260.86C819.013 272.85 821.084 285.712 821.084 299.436C821.084 313.16 819.013 326.139 814.868 338.083C810.724 350.031 804.704 360.463 796.816 369.376C788.929 378.289 779.32 385.288 767.996 390.37C756.676 395.452 743.879 397.993 729.616 397.993C715.352 397.993 702.445 395.452 691.17 390.37C679.892 385.288 670.309 378.292 662.421 369.376C654.53 360.463 648.514 350.031 644.369 338.083C640.224 326.139 638.15 313.258 638.15 299.436C638.15 285.614 640.224 272.85 644.369 260.86C648.514 248.871 654.53 238.438 662.421 229.568C670.309 220.697 679.892 213.701 691.17 208.573C702.448 203.445 715.261 200.882 729.616 200.882ZM729.616 362.958C737.996 362.958 745.375 361.377 751.747 358.209C758.119 355.048 763.495 350.655 767.859 345.04C772.229 339.423 775.528 332.782 777.755 325.114C779.983 317.448 781.099 309.067 781.099 299.975V298.904C781.099 289.899 779.983 281.541 777.755 273.83C775.528 266.119 772.229 259.452 767.859 253.838C763.492 248.224 758.119 243.834 751.747 240.666C745.375 237.504 737.996 235.92 729.616 235.92C721.235 235.92 713.837 237.504 707.415 240.666C700.998 243.834 695.628 248.224 691.304 253.838C686.979 259.452 683.703 266.122 681.476 273.83C679.248 281.541 678.131 289.899 678.131 298.904V299.975C678.131 309.067 679.248 317.448 681.476 325.114C683.703 332.782 686.979 339.42 691.304 345.04C695.628 350.655 700.998 355.048 707.415 358.209C713.837 361.377 721.235 362.958 729.616 362.958Z" fill="white"/>
<path d="M889.462 395.321L835.303 203.562H878.765L915.81 347.715H917.145L953.387 203.562H996.31L942.151 395.321H889.462Z" fill="white"/>
<path d="M1215.94 362.96C1221.56 362.96 1226.8 362.137 1231.65 360.487C1236.51 358.837 1240.7 356.343 1244.22 352.998C1247.74 349.653 1250.53 345.424 1252.58 340.293C1254.63 335.168 1255.66 329.129 1255.66 322.176V203.291H1293.77V327.921C1293.77 338.621 1291.83 348.295 1287.96 356.94C1284.08 365.589 1278.7 372.944 1271.79 379.006C1264.89 385.071 1256.67 389.748 1247.14 393.047C1237.61 396.342 1227.19 397.995 1215.88 397.995C1204.57 397.995 1194.14 396.342 1184.61 393.047C1175.08 389.748 1166.84 385.067 1159.89 379.006C1152.94 372.944 1147.53 365.592 1143.65 356.94C1139.78 348.295 1137.85 338.617 1137.85 327.921V203.291H1176.22V322.173C1176.22 329.126 1177.25 335.165 1179.3 340.29C1181.35 345.42 1184.14 349.65 1187.66 352.995C1191.18 356.339 1195.37 358.834 1200.23 360.484C1205.09 362.133 1210.33 362.96 1215.94 362.96Z" fill="white"/>
<path d="M1328.16 203.562H1366.94V286.603L1435.41 203.562H1483.15L1416.56 279.783L1487.43 395.321H1442.37L1391.69 309.335L1366.94 337.015V395.321H1328.16V203.562Z" fill="white"/>
<path d="M856.149 713.253C874.029 713.253 888.523 698.761 888.523 680.88C888.523 663.001 874.029 648.507 856.149 648.507C838.27 648.507 823.775 663.001 823.775 680.88C823.775 698.761 838.27 713.253 856.149 713.253Z" fill="white"/>
<path d="M769.05 765.417C786.929 765.417 801.423 750.925 801.423 733.044C801.423 715.168 786.929 700.671 769.05 700.671C751.17 700.671 736.676 715.168 736.676 733.044C736.676 750.925 751.17 765.417 769.05 765.417Z" fill="white"/>
<path d="M711.438 851.206C729.317 851.206 743.812 836.714 743.812 818.833C743.812 800.957 729.317 786.46 711.438 786.46C693.559 786.46 679.064 800.957 679.064 818.833C679.064 836.714 693.559 851.206 711.438 851.206Z" fill="white"/>
<path d="M959.716 828.535C977.597 828.535 992.088 814.038 992.088 796.162C992.088 778.281 977.597 763.789 959.716 763.789C941.836 763.789 927.342 778.281 927.342 796.162C927.342 814.038 941.836 828.535 959.716 828.535Z" fill="white"/>
<path d="M1063.16 713.253C1081.04 713.253 1095.53 698.761 1095.53 680.88C1095.53 663.001 1081.04 648.507 1063.16 648.507C1045.28 648.507 1030.78 663.001 1030.78 680.88C1030.78 698.761 1045.28 713.253 1063.16 713.253Z" fill="white"/>
<path d="M1150.26 765.417C1168.14 765.417 1182.64 750.925 1182.64 733.044C1182.64 715.168 1168.14 700.671 1150.26 700.671C1132.38 700.671 1117.89 715.168 1117.89 733.044C1117.89 750.925 1132.38 765.417 1150.26 765.417Z" fill="white"/>
<path d="M1207.89 851.206C1225.77 851.206 1240.27 836.714 1240.27 818.833C1240.27 800.957 1225.77 786.46 1207.89 786.46C1190.02 786.46 1175.52 800.957 1175.52 818.833C1175.52 836.714 1190.02 851.206 1207.89 851.206Z" fill="white"/>
<path d="M959.716 828.535C977.597 828.535 992.088 814.038 992.088 796.162C992.088 778.281 977.597 763.789 959.716 763.789C941.836 763.789 927.342 778.281 927.342 796.162C927.342 814.038 941.836 828.535 959.716 828.535Z" fill="white"/>
<path d="M972.758 611.55C974.394 610.319 975.848 608.865 977.081 607.228L1018.26 628.847V568.148L977.138 581.201C975.941 579.596 974.517 578.162 972.928 576.937L989.479 524.811H929.931L946.483 576.937C944.889 578.155 943.476 579.59 942.271 581.201L901.146 568.148V628.847L942.329 607.228C943.558 608.865 945.013 610.319 946.654 611.55L923.192 682.288C914.933 707.191 933.474 732.868 959.706 732.868C985.934 732.868 1004.48 707.191 996.216 682.288L972.758 611.55Z" fill="white"/>
<path d="M1006.77 860.629C1006.77 860.629 976.705 894.09 970.143 914.505C989.824 913.886 1007.5 910.052 1026.96 889.736L1020.37 965.321C1002.46 940.191 981.451 929.357 969.807 931.529C970.989 958.614 973.821 991.338 1021.25 995.646C1054.35 998.519 1080.92 982.263 1083.68 962.153C1086.96 939.046 1066.14 923.76 1050.44 948.085C1038.17 907.834 1072.08 894.452 1093.86 919.37C1077.09 879.65 1077.53 851.431 1114.83 822.896C1141.58 858.462 1137.79 887.863 1104.62 920.964C1126.21 909.015 1159.75 921.588 1139.99 961.937C1129.68 936.838 1107.53 942.446 1102.88 964.036C1099.79 979.292 1109.04 997.235 1129.16 1000.92C1145.67 1003.94 1171.1 992.664 1191.48 948.766C1180.02 949.06 1169.96 954.848 1156.95 963.804L1178.33 892.538C1183.71 912.539 1190.6 925.674 1197.9 932.773C1202.8 918.374 1202.1 907.937 1197.72 885.506L1241.9 901.236C1218.43 933.258 1195.69 978.193 1177.04 1056.67C1111.3 1047.28 1037.71 1042.01 959.721 1042.01C881.745 1042.01 808.142 1047.29 742.4 1056.67C723.753 978.182 701.014 933.247 677.541 901.236L721.73 885.506C717.342 907.937 716.647 918.374 721.546 932.773C728.842 925.674 735.733 912.539 741.116 892.538L762.493 963.804C749.486 954.843 739.426 949.06 727.965 948.766C748.346 992.664 773.772 1003.94 790.282 1000.92C810.402 997.235 819.65 979.292 816.559 964.036C811.915 942.446 789.772 936.838 779.45 961.937C759.697 921.588 793.23 909.01 814.823 920.964C781.657 887.863 777.858 858.457 804.619 822.896C841.911 851.425 842.357 879.645 825.59 919.37C847.367 894.457 881.274 907.834 869 948.085C853.301 923.76 832.48 939.046 835.761 962.153C838.525 982.273 865.096 998.524 898.19 995.646C945.622 991.338 948.459 958.614 949.636 931.529C937.991 929.357 916.987 940.186 899.075 965.321L892.479 889.736C911.938 910.052 929.627 913.875 949.3 914.505C942.74 894.09 912.671 860.629 912.671 860.629H1006.8H1006.77Z" fill="white"/>
<path d="M1089.55 149V449.875" stroke="#D7DEE5" stroke-width="4" stroke-dasharray="4 4"/>
<path d="M992.094 449.875V1131.6" stroke="#D7DEE5" stroke-width="4" stroke-dasharray="4 4"/>
<path d="M1024.8 149V449.875" stroke="#D7DEE5" stroke-width="4" stroke-dasharray="4 4"/>
<path d="M927.344 449.875V1131.6" stroke="#D7DEE5" stroke-width="4" stroke-dasharray="4 4"/>
</g>
<defs>
<clipPath id="clip0_1021_119">
<rect width="1920" height="1280" fill="white"/>
</clipPath>
</defs>
</svg>
