<svg width="480" height="320" viewBox="0 0 480 320" fill="none" xmlns="http://www.w3.org/2000/svg">
<g clip-path="url(#clip0_1021_119)">
<rect width="480" height="320" fill="white"/>
<path d="M480 0H0V320H480V0Z" fill="#1D70B8"/>
<path d="M262.727 103.07C263.085 103.07 263.378 103.041 263.604 102.984C263.829 102.921 264.004 102.824 264.126 102.693C264.249 102.563 264.332 102.395 264.373 102.191C264.419 101.982 264.442 101.729 264.442 101.43V101.25H265.75V112.5H264.395V104.239H262.25V103.07H262.727Z" fill="white"/>
<path d="M238.727 114.32C239.086 114.32 239.378 114.291 239.604 114.234C239.829 114.171 240.004 114.074 240.127 113.943C240.249 113.813 240.332 113.645 240.373 113.441C240.419 113.232 240.442 112.979 240.442 112.68V112.5H241.75V123.75H240.396V115.489H238.25V114.32H238.727Z" fill="white"/>
<path d="M264.294 82.9523C268.763 82.9523 272.387 79.3289 272.387 74.859C272.387 70.3892 268.763 66.7656 264.294 66.7656C259.823 66.7656 256.199 70.3892 256.199 74.859C256.199 79.3289 259.823 82.9523 264.294 82.9523Z" fill="#00FFE0"/>
<path d="M117.995 74.9929C117.995 77.0431 118.252 79.0159 118.764 80.9102C119.276 82.8046 120.056 84.4759 121.105 85.9245C122.152 87.3738 123.489 88.5382 125.116 89.4184C126.744 90.2985 128.683 90.7395 130.934 90.7395C133.185 90.7395 134.896 90.3941 136.334 89.7033C137.771 89.0125 138.919 88.1487 139.777 87.1117C140.634 86.0755 141.236 84.9561 141.582 83.7525C141.928 82.5489 142.1 81.4345 142.1 80.4088V79.941H129.831V72.5531H151.528V98.8296H143.037V93.2127C142.435 94.1492 141.688 95.0018 140.797 95.7708C139.905 96.5393 138.903 97.1973 137.787 97.7427C136.673 98.2891 135.452 98.7186 134.127 99.0304C132.801 99.3423 131.391 99.4984 129.898 99.4984C126.398 99.4984 123.29 98.863 120.571 97.5925C117.851 96.3221 115.561 94.573 113.7 92.344C111.839 90.1157 110.424 87.5076 109.454 84.5208C108.485 81.5348 108 78.3145 108 74.8589C108 71.4034 108.541 68.2125 109.622 65.215C110.703 62.2176 112.24 59.6096 114.236 57.3919C116.231 55.1743 118.637 53.4252 121.456 52.1434C124.276 50.8613 127.435 50.2205 130.935 50.2205C133.208 50.2205 135.365 50.4825 137.403 51.0059C139.443 51.5301 141.304 52.2765 142.987 53.2456C144.669 54.2148 146.157 55.3857 147.45 56.7559C148.742 58.126 149.79 59.6479 150.593 61.3194L142.101 66.0993C141.588 65.0746 140.986 64.1217 140.296 63.2407C139.604 62.3613 138.808 61.6027 137.906 60.9675C137.002 60.3323 135.972 59.8309 134.813 59.4635C133.654 59.096 132.361 58.9115 130.936 58.9115C128.684 58.9115 126.745 59.3524 125.118 60.2326C123.491 61.1128 122.154 62.2772 121.106 63.7265C120.059 65.175 119.279 66.8521 118.766 68.758C118.253 70.6637 117.997 72.6315 117.997 74.6581V74.9929H117.995Z" fill="white"/>
<path d="M182.403 50.2205C185.969 50.2205 189.168 50.8613 191.999 52.1434C194.829 53.4252 197.231 55.1743 199.204 57.3919C201.176 59.6096 202.68 62.2176 203.717 65.215C204.753 68.2125 205.27 71.4279 205.27 74.8589C205.27 78.29 204.753 81.5348 203.717 84.5208C202.68 87.5076 201.176 90.1157 199.204 92.344C197.232 94.5723 194.829 96.3221 191.999 97.5925C189.168 98.863 185.969 99.4984 182.403 99.4984C178.838 99.4984 175.611 98.863 172.792 97.5925C169.973 96.3221 167.577 94.573 165.605 92.344C163.632 90.1157 162.128 87.5076 161.092 84.5208C160.056 81.5348 159.537 78.3145 159.537 74.8589C159.537 71.4034 160.056 68.2125 161.092 65.215C162.128 62.2176 163.632 59.6096 165.605 57.3919C167.577 55.1743 169.973 53.4252 172.792 52.1434C175.611 50.8613 178.815 50.2205 182.403 50.2205ZM182.403 90.7395C184.499 90.7395 186.343 90.3443 187.936 89.5523C189.529 88.7619 190.873 87.6637 191.964 86.2601C193.057 84.8557 193.881 83.1956 194.438 81.2784C194.995 79.3621 195.274 77.2669 195.274 74.9937V74.7259C195.274 72.4747 194.995 70.3853 194.438 68.4575C193.881 66.5297 193.057 64.863 191.964 63.4595C190.872 62.0559 189.529 60.9584 187.936 60.1665C186.343 59.376 184.499 58.9801 182.403 58.9801C180.308 58.9801 178.459 59.376 176.853 60.1665C175.249 60.9584 173.907 62.0559 172.825 63.4595C171.744 64.863 170.925 66.5304 170.368 68.4575C169.812 70.3853 169.532 72.4747 169.532 74.7259V74.9937C169.532 77.2669 169.812 79.3621 170.368 81.2784C170.925 83.1956 171.744 84.8549 172.825 86.2601C173.907 87.6637 175.249 88.7619 176.853 89.5523C178.459 90.3443 180.308 90.7395 182.403 90.7395Z" fill="white"/>
<path d="M222.366 98.8303L208.826 50.8906H219.692L228.953 86.9287H229.287L238.347 50.8906H249.078L235.538 98.8303H222.366Z" fill="white"/>
<path d="M303.985 90.7399C305.388 90.7399 306.699 90.5342 307.913 90.1218C309.127 89.7094 310.175 89.0856 311.056 88.2495C311.935 87.4134 312.632 86.356 313.145 85.0732C313.657 83.7921 313.914 82.2823 313.914 80.544V50.8226H323.441V81.9803C323.441 84.6552 322.957 87.0738 321.989 89.235C321.02 91.3971 319.674 93.2359 317.947 94.7514C316.221 96.2678 314.167 97.4369 311.784 98.2617C309.402 99.0855 306.797 99.4987 303.968 99.4987C301.141 99.4987 298.535 99.0855 296.153 98.2617C293.769 97.4369 291.711 96.2669 289.972 94.7514C288.235 93.2359 286.883 91.398 285.913 89.235C284.945 87.0738 284.461 84.6543 284.461 81.9803V50.8226H294.055V80.5432C294.055 82.2815 294.312 83.7913 294.824 85.0724C295.337 86.3551 296.034 87.4126 296.914 88.2487C297.794 89.0847 298.842 89.7086 300.057 90.1209C301.272 90.5333 302.582 90.7399 303.985 90.7399Z" fill="white"/>
<path d="M332.041 50.8906H341.736V71.6506L358.854 50.8906H370.788L354.14 69.9458L371.858 98.8303H360.592L347.922 77.3337L341.736 84.2537V98.8303H332.041V50.8906Z" fill="white"/>
<path d="M214.037 178.313C218.507 178.313 222.13 174.69 222.13 170.22C222.13 165.75 218.507 162.127 214.037 162.127C209.567 162.127 205.943 165.75 205.943 170.22C205.943 174.69 209.567 178.313 214.037 178.313Z" fill="white"/>
<path d="M192.262 191.354C196.732 191.354 200.356 187.731 200.356 183.261C200.356 178.792 196.732 175.168 192.262 175.168C187.793 175.168 184.169 178.792 184.169 183.261C184.169 187.731 187.793 191.354 192.262 191.354Z" fill="white"/>
<path d="M177.859 212.802C182.329 212.802 185.952 209.179 185.952 204.708C185.952 200.239 182.329 196.615 177.859 196.615C173.389 196.615 169.766 200.239 169.766 204.708C169.766 209.179 173.389 212.802 177.859 212.802Z" fill="white"/>
<path d="M239.929 207.134C244.4 207.134 248.023 203.509 248.023 199.04C248.023 194.57 244.4 190.947 239.929 190.947C235.459 190.947 231.836 194.57 231.836 199.04C231.836 203.509 235.459 207.134 239.929 207.134Z" fill="white"/>
<path d="M265.789 178.313C270.259 178.313 273.882 174.69 273.882 170.22C273.882 165.75 270.259 162.127 265.789 162.127C261.32 162.127 257.695 165.75 257.695 170.22C257.695 174.69 261.32 178.313 265.789 178.313Z" fill="white"/>
<path d="M287.566 191.354C292.036 191.354 295.659 187.731 295.659 183.261C295.659 178.792 292.036 175.168 287.566 175.168C283.096 175.168 279.473 178.792 279.473 183.261C279.473 187.731 283.096 191.354 287.566 191.354Z" fill="white"/>
<path d="M301.973 212.802C306.443 212.802 310.068 209.179 310.068 204.708C310.068 200.239 306.443 196.615 301.973 196.615C297.504 196.615 293.88 200.239 293.88 204.708C293.88 209.179 297.504 212.802 301.973 212.802Z" fill="white"/>
<path d="M239.929 207.134C244.4 207.134 248.023 203.509 248.023 199.04C248.023 194.57 244.4 190.947 239.929 190.947C235.459 190.947 231.836 194.57 231.836 199.04C231.836 203.509 235.459 207.134 239.929 207.134Z" fill="white"/>
<path d="M243.19 152.888C243.599 152.58 243.963 152.216 244.271 151.807L254.566 157.212V142.037L244.285 145.3C243.986 144.899 243.63 144.541 243.233 144.234L247.37 131.203H232.483L236.621 144.234C236.223 144.539 235.869 144.897 235.568 145.3L225.287 142.037V157.212L235.583 151.807C235.89 152.216 236.254 152.58 236.664 152.888L230.798 170.572C228.734 176.798 233.369 183.217 239.927 183.217C246.484 183.217 251.119 176.798 249.055 170.572L243.19 152.888Z" fill="white"/>
<path d="M251.692 215.157C251.692 215.157 244.176 223.523 242.535 228.626C247.456 228.471 251.876 227.513 256.741 222.434L255.092 241.33C250.614 235.048 245.362 232.339 242.451 232.882C242.747 239.654 243.455 247.834 255.313 248.911C263.587 249.63 270.229 245.566 270.92 240.538C271.74 234.762 266.535 230.94 262.61 237.021C259.542 226.959 268.019 223.613 273.463 229.842C269.272 219.913 269.383 212.858 278.706 205.724C285.395 214.616 284.447 221.966 276.155 230.241C281.553 227.254 289.936 230.397 284.998 240.484C282.419 234.209 276.881 235.611 275.721 241.009C274.947 244.823 277.26 249.309 282.291 250.23C286.418 250.985 292.774 248.166 297.869 237.191C295.004 237.265 292.489 238.712 289.237 240.951L294.582 223.134C295.927 228.135 297.65 231.418 299.474 233.193C300.699 229.593 300.524 226.984 299.429 221.376L310.476 225.309C304.607 233.314 298.922 244.548 294.261 264.167C277.825 261.821 259.426 260.502 239.93 260.502C220.436 260.502 202.035 261.822 185.599 264.167C180.938 244.546 175.253 233.312 169.385 225.309L180.432 221.376C179.335 226.984 179.161 229.593 180.386 233.193C182.21 231.418 183.933 228.135 185.279 223.134L190.623 240.951C187.371 238.711 184.856 237.265 181.991 237.191C187.086 248.166 193.442 250.984 197.57 250.23C202.6 249.309 204.912 244.823 204.139 241.009C202.978 235.611 197.442 234.209 194.862 240.484C189.924 230.397 198.307 227.253 203.705 230.241C195.414 221.966 194.464 214.614 201.154 205.724C210.477 212.856 210.589 219.911 206.397 229.842C211.841 223.614 220.318 226.959 217.249 237.021C213.325 230.94 208.12 234.762 208.94 240.538C209.631 245.568 216.274 249.631 224.547 248.911C236.405 247.834 237.114 239.654 237.408 232.882C234.497 232.339 229.246 235.047 224.768 241.33L223.119 222.434C227.984 227.513 232.406 228.469 237.325 228.626C235.684 223.523 228.167 215.157 228.167 215.157H251.699H251.692Z" fill="white"/>
<path d="M272.387 37.25V112.469" stroke="#D7DEE5" stroke-dasharray="1 1"/>
<path d="M248.023 112.469V282.901" stroke="#D7DEE5" stroke-dasharray="1 1"/>
<path d="M256.199 37.25V112.469" stroke="#D7DEE5" stroke-dasharray="1 1"/>
<path d="M231.836 112.469V282.901" stroke="#D7DEE5" stroke-dasharray="1 1"/>
</g>
<defs>
<clipPath id="clip0_1021_119">
<rect width="480" height="320" fill="white"/>
</clipPath>
</defs>
</svg>
