<svg width="293" height="191" viewBox="0 0 293 191" fill="none" xmlns="http://www.w3.org/2000/svg">
<rect x="0.889648" y="0.140625" width="292.054" height="190.463" fill="#1D70B8"/>
<path d="M121.088 51.418C121.361 51.418 121.584 51.3965 121.756 51.3535C121.928 51.3066 122.061 51.2344 122.154 51.1367C122.248 51.0391 122.311 50.9141 122.342 50.7617C122.377 50.6055 122.395 50.416 122.395 50.1934V50.0586H123.391V58.4609H122.359V52.291H120.725V51.418H121.088Z" fill="white"/>
<path d="M102.198 60.7891C102.472 60.7891 102.694 60.7676 102.866 60.7246C103.038 60.6777 103.171 60.6055 103.265 60.5078C103.358 60.4102 103.421 60.2852 103.452 60.1328C103.487 59.9766 103.505 59.7871 103.505 59.5645V59.4297H104.501V67.832H103.47V61.6621H101.835V60.7891H102.198Z" fill="white"/>
<path d="M122.071 35.5756C125.536 35.5756 128.346 32.7662 128.346 29.3005C128.346 25.8349 125.536 23.0254 122.071 23.0254C118.605 23.0254 115.795 25.8349 115.795 29.3005C115.795 32.7662 118.605 35.5756 122.071 35.5756Z" fill="#00FFE0"/>
<path d="M8.63935 29.4044C8.63935 30.994 8.83814 32.5236 9.23573 33.9923C9.63268 35.4611 10.2373 36.757 11.0502 37.8801C11.8624 39.0038 12.8988 39.9066 14.1606 40.5891C15.4223 41.2715 16.9259 41.6134 18.6713 41.6134C20.4168 41.6134 21.7431 41.3456 22.858 40.81C23.9722 40.2744 24.8624 39.6046 25.5278 38.8006C26.1925 37.9972 26.6591 37.1293 26.9275 36.1961C27.1953 35.2629 27.3289 34.3988 27.3289 33.6036V33.2409H17.816V27.5127H34.6386V47.886H28.0551V43.531C27.5885 44.2571 27.0092 44.9181 26.3185 45.5144C25.6271 46.1102 24.8497 46.6204 23.9849 47.0433C23.1207 47.4669 22.1743 47.7999 21.1467 48.0417C20.1186 48.2835 19.0253 48.4045 17.868 48.4045C15.1545 48.4045 12.7443 47.9119 10.6361 46.9268C8.52793 45.9418 6.7521 44.5857 5.30928 42.8574C3.86646 41.1297 2.76931 39.1076 2.01719 36.7918C1.26571 34.4766 0.889648 31.9798 0.889648 29.3005C0.889648 26.6213 1.30876 24.1473 2.14697 21.8232C2.98519 19.4992 4.1773 17.4771 5.72458 15.7576C7.27123 14.0382 9.13696 12.6821 11.323 11.6882C13.5091 10.6942 15.9585 10.1973 18.672 10.1973C20.4345 10.1973 22.1065 10.4005 23.6874 10.8063C25.2688 11.2127 26.7116 11.7914 28.0164 12.5428C29.3206 13.2943 30.4741 14.2021 31.4769 15.2645C32.4785 16.3268 33.2914 17.5068 33.9137 18.8028L27.3295 22.5088C26.932 21.7143 26.4654 20.9755 25.9298 20.2924C25.3935 19.6106 24.7763 19.0224 24.0767 18.5299C23.3765 18.0374 22.5775 17.6487 21.6792 17.3638C20.7802 17.0789 19.778 16.9358 18.6726 16.9358C16.9272 16.9358 15.4236 17.2777 14.1618 17.9601C12.9001 18.6426 11.8637 19.5454 11.0514 20.6691C10.2392 21.7922 9.63458 23.0925 9.23699 24.5702C8.83941 26.0478 8.64062 27.5735 8.64062 29.1448V29.4044H8.63935Z" fill="white"/>
<path d="M58.5783 10.1973C61.343 10.1973 63.8228 10.6942 66.0178 11.6882C68.2121 12.6821 70.0746 14.0382 71.6042 15.7576C73.1331 17.4771 74.2999 19.4992 75.1033 21.8232C75.9067 24.1473 76.3081 26.6403 76.3081 29.3005C76.3081 31.9608 75.9067 34.4766 75.1033 36.7918C74.2999 39.1076 73.1331 41.1297 71.6042 42.8574C70.0753 44.5851 68.2127 45.9418 66.0178 46.9268C63.8235 47.9119 61.343 48.4045 58.5783 48.4045C55.8136 48.4045 53.3116 47.9119 51.1261 46.9268C48.9401 45.9418 47.0826 44.5857 45.5536 42.8574C44.0241 41.1297 42.8579 39.1076 42.0545 36.7918C41.2511 34.4766 40.8491 31.9798 40.8491 29.3005C40.8491 26.6213 41.2511 24.1473 42.0545 21.8232C42.8579 19.4992 44.0241 17.4771 45.5536 15.7576C47.0826 14.0382 48.9401 12.6821 51.1261 11.6882C53.3122 10.6942 55.7958 10.1973 58.5783 10.1973ZM58.5783 41.6134C60.2028 41.6134 61.633 41.307 62.8681 40.6929C64.1033 40.0801 65.1453 39.2286 65.9912 38.1403C66.8382 37.0514 67.4777 35.7643 67.9094 34.2778C68.3412 32.792 68.5577 31.1675 68.5577 29.405V29.1974C68.5577 27.4519 68.3412 25.8319 67.9094 24.3372C67.4777 22.8425 66.8382 21.5503 65.9912 20.4621C65.1447 19.3738 64.1033 18.5229 62.8681 17.9089C61.633 17.296 60.2028 16.989 58.5783 16.989C56.9538 16.989 55.5198 17.296 54.2751 17.9089C53.0311 18.5229 51.9903 19.3738 51.1521 20.4621C50.3139 21.5503 49.6789 22.8431 49.2471 24.3372C48.8153 25.8319 48.5988 27.4519 48.5988 29.1974V29.405C48.5988 31.1675 48.8153 32.792 49.2471 34.2778C49.6789 35.7643 50.3139 37.0508 51.1521 38.1403C51.9903 39.2286 53.0311 40.0801 54.2751 40.6929C55.5198 41.307 56.9538 41.6134 58.5783 41.6134Z" fill="white"/>
<path d="M89.5619 47.8864L79.064 10.7168H87.4885L94.6691 38.6586H94.928L101.953 10.7168H110.273L99.775 47.8864H89.5625H89.5619Z" fill="white"/>
<path d="M152.846 41.6136C153.934 41.6136 154.95 41.4541 155.891 41.1344C156.833 40.8146 157.645 40.331 158.328 39.6827C159.01 39.0344 159.55 38.2146 159.948 37.22C160.345 36.2267 160.544 35.0561 160.544 33.7083V10.6641H167.931V34.8219C167.931 36.8959 167.556 38.7711 166.805 40.4468C166.054 42.1232 165.01 43.5489 163.671 44.7239C162.333 45.8996 160.74 46.8061 158.893 47.4456C157.046 48.0843 155.026 48.4047 152.833 48.4047C150.641 48.4047 148.62 48.0843 146.773 47.4456C144.925 46.8061 143.329 45.8989 141.981 44.7239C140.634 43.5489 139.586 42.1239 138.834 40.4468C138.083 38.7711 137.708 36.8952 137.708 34.8219V10.6641H145.147V33.7077C145.147 35.0555 145.346 36.2261 145.743 37.2194C146.141 38.2139 146.681 39.0338 147.363 39.6821C148.046 40.3303 148.858 40.814 149.8 41.1337C150.742 41.4534 151.758 41.613 152.846 41.613V41.6136Z" fill="white"/>
<path d="M174.598 10.7168H182.115V26.8129L195.387 10.7168H204.64L191.732 25.4911L205.47 47.8864H196.735L186.911 31.2192L182.115 36.5846V47.8864H174.598V10.7168Z" fill="white"/>
<path d="M83.1048 109.513C86.5705 109.513 89.3799 106.704 89.3799 103.238C89.3799 99.7723 86.5705 96.9629 83.1048 96.9629C79.6391 96.9629 76.8296 99.7723 76.8296 103.238C76.8296 106.704 79.6391 109.513 83.1048 109.513Z" fill="white"/>
<path d="M66.222 119.624C69.6876 119.624 72.4971 116.815 72.4971 113.349C72.4971 109.884 69.6876 107.074 66.222 107.074C62.7563 107.074 59.9468 109.884 59.9468 113.349C59.9468 116.815 62.7563 119.624 66.222 119.624Z" fill="white"/>
<path d="M55.055 136.253C58.5206 136.253 61.3301 133.444 61.3301 129.978C61.3301 126.513 58.5206 123.703 55.055 123.703C51.5893 123.703 48.7798 126.513 48.7798 129.978C48.7798 133.444 51.5893 136.253 55.055 136.253Z" fill="white"/>
<path d="M103.18 131.859C106.646 131.859 109.455 129.049 109.455 125.584C109.455 122.118 106.646 119.309 103.18 119.309C99.7143 119.309 96.9048 122.118 96.9048 125.584C96.9048 129.049 99.7143 131.859 103.18 131.859Z" fill="white"/>
<path d="M123.23 109.513C126.696 109.513 129.505 106.704 129.505 103.238C129.505 99.7723 126.696 96.9629 123.23 96.9629C119.765 96.9629 116.955 99.7723 116.955 103.238C116.955 106.704 119.765 109.513 123.23 109.513Z" fill="white"/>
<path d="M140.115 119.624C143.581 119.624 146.39 116.815 146.39 113.349C146.39 109.884 143.581 107.074 140.115 107.074C136.649 107.074 133.84 109.884 133.84 113.349C133.84 116.815 136.649 119.624 140.115 119.624Z" fill="white"/>
<path d="M151.285 136.253C154.751 136.253 157.561 133.444 157.561 129.978C157.561 126.513 154.751 123.703 151.285 123.703C147.82 123.703 145.01 126.513 145.01 129.978C145.01 133.444 147.82 136.253 151.285 136.253Z" fill="white"/>
<path d="M103.18 131.859C106.646 131.859 109.455 129.049 109.455 125.584C109.455 122.118 106.646 119.309 103.18 119.309C99.7143 119.309 96.9048 122.118 96.9048 125.584C96.9048 129.049 99.7143 131.859 103.18 131.859Z" fill="white"/>
<path d="M105.708 89.7994C106.025 89.5608 106.307 89.2789 106.546 88.9616L114.528 93.1521V81.3865L106.557 83.9166C106.325 83.6056 106.049 83.3276 105.741 83.0902L108.949 72.9863H97.4066L100.615 83.0902C100.306 83.3263 100.032 83.6043 99.7984 83.9166L91.8271 81.3865V93.1521L99.8098 88.9616C100.048 89.2789 100.33 89.5608 100.648 89.7994L96.1003 103.511C94.4995 108.338 98.0934 113.315 103.178 113.315C108.262 113.315 111.856 108.338 110.255 103.511L105.708 89.7994Z" fill="white"/>
<path d="M112.301 138.08C112.301 138.08 106.473 144.566 105.201 148.523C109.016 148.403 112.443 147.66 116.215 143.722L114.937 158.373C111.465 153.502 107.393 151.402 105.136 151.823C105.365 157.073 105.914 163.416 115.108 164.251C121.523 164.808 126.673 161.657 127.209 157.759C127.845 153.28 123.809 150.317 120.766 155.032C118.387 147.23 124.96 144.636 129.181 149.466C125.931 141.767 126.017 136.297 133.246 130.766C138.432 137.66 137.697 143.359 131.268 149.775C135.453 147.459 141.953 149.896 138.124 157.717C136.125 152.852 131.831 153.939 130.931 158.124C130.331 161.081 132.125 164.559 136.025 165.273C139.225 165.859 144.153 163.673 148.104 155.164C145.882 155.221 143.932 156.343 141.411 158.079L145.555 144.265C146.598 148.142 147.934 150.688 149.348 152.064C150.298 149.273 150.162 147.25 149.313 142.902L157.878 145.951C153.328 152.158 148.92 160.868 145.306 176.079C132.563 174.26 118.297 173.238 103.181 173.238C88.0664 173.238 73.7996 174.261 61.0563 176.079C57.442 160.866 53.0343 152.156 48.4844 145.951L57.0497 142.902C56.1992 147.25 56.0646 149.273 57.0142 152.064C58.4284 150.688 59.764 148.142 60.8075 144.265L64.9512 158.079C62.4299 156.342 60.48 155.221 58.2583 155.164C62.209 163.673 67.1373 165.858 70.3377 165.273C74.2376 164.559 76.0302 161.081 75.431 158.124C74.5309 153.939 70.2387 152.852 68.2379 157.717C64.4091 149.896 70.909 147.458 75.0945 149.775C68.6657 143.359 67.9294 137.659 73.1166 130.766C80.3452 136.296 80.4315 141.766 77.1816 149.466C81.4027 144.637 87.975 147.23 85.5959 155.032C82.5529 150.317 78.5171 153.28 79.1531 157.759C79.6889 161.659 84.8393 164.809 91.2541 164.251C100.448 163.416 100.998 157.073 101.226 151.823C98.9689 151.402 94.8976 153.501 91.4255 158.373L90.1471 143.722C93.9188 147.66 97.3477 148.401 101.161 148.523C99.8893 144.566 94.061 138.08 94.061 138.08H112.306H112.301Z" fill="white"/>
<path d="M128.346 0.140625L128.346 58.4608" stroke="#D7DEE5" stroke-dasharray="1.02 1.02"/>
<path d="M109.456 58.4609L109.456 190.604" stroke="#D7DEE5" stroke-dasharray="1.02 1.02"/>
<path d="M115.795 0.140625L115.795 58.4608" stroke="#D7DEE5" stroke-dasharray="1.02 1.02"/>
<path d="M96.9053 58.4609L96.9053 190.604" stroke="#D7DEE5" stroke-dasharray="1.02 1.02"/>
</svg>
