<svg width="480" height="320" viewBox="0 0 480 320" fill="none" xmlns="http://www.w3.org/2000/svg">
<g clip-path="url(#clip0_1022_594)">
<rect width="480" height="320" fill="white"/>
<path d="M479 1V319H1V1H479Z" fill="white" stroke="#F3F3F3" stroke-width="2"/>
<path d="M56.2119 191.242C56.8523 192.626 57.6406 193.879 58.5815 194.996C59.5192 196.115 60.5687 197 61.7285 197.65C62.8883 198.3 64.1534 198.669 65.5256 198.754C66.8978 198.839 68.346 198.531 69.8622 197.828C71.3784 197.126 72.429 196.358 73.1837 195.442C73.9384 194.526 74.4421 193.583 74.6994 192.616C74.9535 191.651 75.0084 190.704 74.8671 189.783C74.7226 188.864 74.4919 188.057 74.1716 187.365L74.0247 187.048L65.7458 190.883L63.4366 185.895L78.0786 179.112L86.29 196.85L80.5613 199.504L78.806 195.712C78.6923 196.531 78.4552 197.343 78.0952 198.138C77.7334 198.937 77.2619 199.691 76.682 200.411C76.1007 201.127 75.4111 201.801 74.6135 202.425C73.816 203.049 72.9143 203.597 71.9056 204.065C69.5456 205.158 67.2474 205.702 65.0174 205.695C62.7874 205.688 60.693 205.224 58.7423 204.297C56.7899 203.375 55.0199 202.057 53.4337 200.344C51.8474 198.632 50.5145 196.61 49.4348 194.278C48.3552 191.945 47.7225 189.622 47.5149 187.259C47.3073 184.897 47.5308 182.659 48.1824 180.538C48.834 178.417 49.9116 176.484 51.4152 174.74C52.9174 172.992 54.8493 171.573 57.2092 170.479C58.7445 169.768 60.2795 169.273 61.8192 168.987C63.3589 168.702 64.8486 168.624 66.2868 168.752C67.725 168.88 69.0931 169.205 70.3943 169.728C71.6956 170.25 72.8774 170.947 73.9396 171.827L69.7048 177.708C69.0389 177.177 68.3346 176.721 67.5937 176.343C66.8527 175.966 66.0801 175.703 65.2713 175.554C64.464 175.408 63.6121 175.39 62.7141 175.505C61.816 175.621 60.8864 175.901 59.9253 176.346C58.4059 177.05 57.2371 177.954 56.4143 179.056C55.5915 180.158 55.0517 181.363 54.8 182.667C54.545 183.972 54.5429 185.349 54.7921 186.794C55.0412 188.239 55.4823 189.649 56.1154 191.017L56.2197 191.242L56.2119 191.242Z" fill="#0B0C0C"/>
<path d="M92.0178 154.347C94.4254 153.231 96.7821 152.664 99.0927 152.645C101.403 152.627 103.571 153.057 105.595 153.934C107.62 154.815 109.451 156.105 111.084 157.803C112.722 159.503 114.076 161.512 115.148 163.828C116.221 166.145 116.885 168.496 117.117 170.835C117.352 173.174 117.152 175.405 116.516 177.526C115.88 179.647 114.806 181.579 113.294 183.323C111.781 185.064 109.82 186.494 107.415 187.607C105.011 188.721 102.633 189.302 100.334 189.327C98.0337 189.352 95.8695 188.921 93.8427 188.03C91.8142 187.143 89.9839 185.852 88.3532 184.16C86.7195 182.47 85.3643 180.458 84.2846 178.126C83.205 175.794 82.5565 173.477 82.3203 171.128C82.081 168.781 82.2822 166.552 82.9212 164.438C83.5601 162.323 84.6282 160.394 86.1318 158.65C87.634 156.902 89.5944 155.469 92.0178 154.347ZM104.68 181.699C106.095 181.044 107.215 180.201 108.043 179.17C108.872 178.139 109.435 176.976 109.732 175.686C110.029 174.397 110.068 173.018 109.843 171.55C109.618 170.082 109.155 168.582 108.444 167.046L108.36 166.865C107.657 165.345 106.817 164.023 105.836 162.894C104.856 161.767 103.781 160.901 102.606 160.293C101.431 159.686 100.182 159.366 98.8581 159.328C97.536 159.293 96.1692 159.603 94.7544 160.258C93.3397 160.914 92.2165 161.758 91.3785 162.793C90.5436 163.827 89.9801 164.99 89.6898 166.277C89.3994 167.564 89.3675 168.943 89.5923 170.419C89.8171 171.894 90.2836 173.393 90.9872 174.913L91.071 175.094C91.7819 176.63 92.6227 177.955 93.5995 179.075C94.5732 180.196 95.6468 181.059 96.8156 181.67C97.9843 182.281 99.2338 182.6 100.564 182.635C101.892 182.667 103.265 182.354 104.68 181.699Z" fill="#0B0C0C"/>
<path d="M134.342 174.59L110.227 146.462L117.557 143.066L135.068 164.5L135.294 164.396L130.144 137.236L137.386 133.881L143.23 170.472L134.342 174.59Z" fill="#0B0C0C"/>
<path d="M187.085 143.524C188.034 143.085 188.851 142.537 189.543 141.877C190.232 141.219 190.744 140.469 191.077 139.633C191.409 138.793 191.548 137.862 191.496 136.834C191.441 135.807 191.144 134.708 190.6 133.534L181.313 113.473L187.743 110.495L197.479 131.526C198.315 133.332 198.743 135.114 198.766 136.876C198.788 138.639 198.452 140.301 197.761 141.862C197.07 143.423 196.049 144.856 194.7 146.159C193.348 147.459 191.72 148.553 189.811 149.437C187.901 150.322 186.015 150.857 184.149 151.046C182.284 151.236 180.529 151.09 178.881 150.608C177.234 150.13 175.75 149.311 174.42 148.154C173.091 146.998 172.01 145.518 171.174 143.712L161.438 122.681L167.912 119.682L177.198 139.742C177.742 140.916 178.385 141.856 179.135 142.56C179.881 143.266 180.681 143.763 181.539 144.051C182.394 144.341 183.297 144.436 184.243 144.333C185.19 144.233 186.14 143.962 187.088 143.523L187.085 143.524Z" fill="#0B0C0C"/>
<path d="M200.229 104.765L206.717 118.78L211.778 99.4145L219.832 95.6836L214.552 113.752L235.534 127.713L227.93 131.235L212.664 120.684L210.652 127.289L215.207 137.129L208.667 140.159L193.685 107.796L200.229 104.765Z" fill="#0B0C0C"/>
<path d="M159.707 149.36C157.421 151.839 153.596 151.988 151.154 149.729C148.709 147.48 148.53 143.621 150.822 141.155C153.067 138.734 156.917 138.604 159.358 140.863C161.794 143.109 161.952 146.939 159.707 149.36Z" fill="#0B0C0C"/>
<path d="M423.541 191.242C422.901 192.626 422.112 193.879 421.171 194.996C420.234 196.115 419.184 197 418.024 197.65C416.865 198.3 415.6 198.669 414.227 198.754C412.855 198.839 411.407 198.531 409.891 197.828C408.375 197.126 407.324 196.358 406.569 195.442C405.815 194.526 405.311 193.583 405.054 192.616C404.799 191.651 404.744 190.704 404.886 189.783C405.03 188.864 405.261 188.057 405.581 187.365L405.728 187.048L414.007 190.883L416.316 185.895L401.674 179.112L393.463 196.85L399.192 199.504L400.947 195.712C401.061 196.531 401.298 197.343 401.658 198.138C402.02 198.937 402.491 199.691 403.071 200.411C403.652 201.127 404.342 201.801 405.139 202.425C405.937 203.049 406.839 203.597 407.847 204.065C410.207 205.158 412.505 205.702 414.736 205.695C416.966 205.688 419.06 205.224 421.011 204.297C422.963 203.375 424.733 202.057 426.319 200.344C427.905 198.632 429.238 196.61 430.318 194.278C431.398 191.945 432.03 189.622 432.238 187.259C432.446 184.897 432.222 182.659 431.571 180.538C430.919 178.417 429.841 176.484 428.338 174.74C426.835 172.992 424.904 171.573 422.544 170.479C421.008 169.768 419.473 169.273 417.934 168.987C416.394 168.702 414.904 168.624 413.466 168.752C412.028 168.88 410.66 169.205 409.359 169.728C408.057 170.25 406.876 170.947 405.813 171.827L410.048 177.708C410.714 177.177 411.418 176.721 412.159 176.343C412.9 175.966 413.673 175.703 414.482 175.554C415.289 175.408 416.141 175.39 417.039 175.505C417.937 175.621 418.867 175.901 419.828 176.346C421.347 177.05 422.516 177.954 423.339 179.056C424.161 180.158 424.701 181.363 424.953 182.667C425.208 183.972 425.21 185.349 424.961 186.794C424.712 188.239 424.271 189.649 423.638 191.017L423.533 191.242L423.541 191.242Z" fill="#0B0C0C"/>
<path d="M387.735 154.347C385.328 153.231 382.971 152.664 380.66 152.645C378.35 152.627 376.182 153.057 374.158 153.934C372.133 154.815 370.302 156.105 368.669 157.803C367.031 159.503 365.677 161.512 364.605 163.828C363.532 166.145 362.868 168.496 362.636 170.835C362.401 173.174 362.601 175.405 363.237 177.526C363.873 179.647 364.947 181.579 366.459 183.323C367.972 185.064 369.933 186.494 372.338 187.607C374.742 188.721 377.12 189.302 379.419 189.327C381.719 189.352 383.883 188.921 385.91 188.03C387.939 187.143 389.769 185.852 391.4 184.16C393.033 182.47 394.389 180.458 395.468 178.126C396.548 175.794 397.196 173.477 397.433 171.128C397.672 168.781 397.471 166.552 396.832 164.438C396.193 162.323 395.125 160.394 393.621 158.65C392.119 156.902 390.159 155.469 387.735 154.347ZM375.073 181.699C373.658 181.044 372.538 180.201 371.71 179.17C370.881 178.139 370.318 176.976 370.021 175.686C369.724 174.397 369.684 173.018 369.91 171.55C370.135 170.082 370.598 168.582 371.309 167.046L371.393 166.865C372.096 165.345 372.936 164.023 373.917 162.894C374.897 161.767 375.972 160.901 377.147 160.293C378.322 159.686 379.571 159.366 380.895 159.328C382.217 159.293 383.584 159.603 384.998 160.258C386.413 160.914 387.536 161.758 388.374 162.793C389.209 163.827 389.773 164.99 390.063 166.277C390.354 167.564 390.385 168.943 390.161 170.419C389.936 171.894 389.469 173.393 388.766 174.913L388.682 175.094C387.971 176.63 387.13 177.955 386.153 179.075C385.18 180.196 384.106 181.059 382.937 181.67C381.769 182.281 380.519 182.6 379.189 182.635C377.861 182.667 376.488 182.354 375.073 181.699Z" fill="#0B0C0C"/>
<path d="M345.411 174.59L369.526 146.462L362.196 143.066L344.684 164.5L344.459 164.396L349.609 137.236L342.367 133.881L336.523 170.472L345.411 174.59Z" fill="#0B0C0C"/>
<path d="M292.668 143.524C291.719 143.085 290.902 142.537 290.21 141.877C289.521 141.219 289.009 140.469 288.676 139.633C288.344 138.793 288.205 137.862 288.257 136.834C288.312 135.807 288.609 134.708 289.153 133.534L298.439 113.473L292.01 110.495L282.274 131.526C281.438 133.332 281.01 135.114 280.987 136.876C280.965 138.639 281.301 140.301 281.992 141.862C282.683 143.423 283.704 144.856 285.053 146.159C286.404 147.459 288.033 148.553 289.942 149.437C291.852 150.322 293.738 150.857 295.603 151.046C297.469 151.236 299.224 151.09 300.872 150.608C302.519 150.13 304.003 149.311 305.332 148.154C306.662 146.998 307.743 145.518 308.579 143.712L318.315 122.681L311.841 119.682L302.555 139.742C302.011 140.916 301.368 141.856 300.618 142.56C299.872 143.266 299.072 143.763 298.214 144.051C297.359 144.341 296.456 144.436 295.51 144.333C294.563 144.233 293.613 143.962 292.665 143.523L292.668 143.524Z" fill="#0B0C0C"/>
<path d="M279.524 104.765L273.036 118.78L267.975 99.4145L259.921 95.6836L265.201 113.752L244.219 127.713L251.823 131.235L267.089 120.684L269.101 127.289L264.546 137.129L271.086 140.159L286.068 107.796L279.524 104.765Z" fill="#0B0C0C"/>
<path d="M320.046 149.36C322.332 151.839 326.157 151.988 328.599 149.729C331.044 147.48 331.223 143.621 328.931 141.155C326.686 138.734 322.836 138.604 320.395 140.863C317.959 143.109 317.801 146.939 320.046 149.36Z" fill="#0B0C0C"/>
<path d="M0 320L480 0" stroke="#CA3535" stroke-width="7.5"/>
</g>
<defs>
<clipPath id="clip0_1022_594">
<rect width="480" height="320" fill="white"/>
</clipPath>
</defs>
</svg>
