<svg width="1920" height="1280" viewBox="0 0 1920 1280" fill="none" xmlns="http://www.w3.org/2000/svg">
<g clip-path="url(#clip0_1022_580)">
<rect width="1920" height="1280" fill="white"/>
<path d="M1918 2V1278H2V2H1918Z" fill="white" stroke="#F3F3F3" stroke-width="4"/>
<g filter="url(#filter0_d_1022_580)">
<path d="M420.042 640.275C420.042 649.315 421.162 658.024 423.443 666.381C425.703 674.737 429.145 682.119 433.769 688.506C438.393 694.892 444.282 700.035 451.457 703.912C458.631 707.79 467.195 709.739 477.107 709.739C487.018 709.739 494.587 708.225 500.932 705.177C507.277 702.129 512.336 698.314 516.131 693.752C519.905 689.19 522.559 684.234 524.093 678.926C525.607 673.617 526.374 668.703 526.374 664.183V662.109H472.254V629.513H567.97V745.425H530.521V720.646C527.867 724.772 524.57 728.546 520.651 731.926C516.712 735.327 512.295 738.209 507.381 740.635C502.466 743.04 497.075 744.948 491.228 746.316C485.38 747.685 479.159 748.39 472.566 748.39C457.138 748.39 443.411 745.591 431.426 739.992C419.441 734.393 409.322 726.68 401.131 716.83C392.92 707.002 386.679 695.493 382.407 682.326C378.136 669.159 376 654.955 376 639.715C376 624.474 378.385 610.395 383.154 597.165C387.923 583.936 394.703 572.449 403.495 562.661C412.287 552.874 422.904 545.161 435.345 539.521C447.787 533.86 461.721 531.04 477.148 531.04C487.184 531.04 496.681 532.201 505.68 534.503C514.679 536.804 522.891 540.101 530.314 544.373C537.737 548.644 544.29 553.807 549.992 559.862C555.694 565.917 560.318 572.615 563.844 579.996L526.395 601.084C524.135 596.564 521.481 592.355 518.433 588.477C515.384 584.6 511.88 581.261 507.899 578.441C503.918 575.642 499.377 573.423 494.255 571.806C489.133 570.188 483.431 569.38 477.148 569.38C467.216 569.38 458.673 571.329 451.498 575.206C444.324 579.084 438.414 584.226 433.811 590.613C429.187 597 425.745 604.402 423.484 612.8C421.224 621.198 420.084 629.886 420.084 638.823V640.295L420.042 640.275Z" fill="url(#paint0_linear_1022_580)"/>
<path d="M704.711 531C720.449 531 734.55 533.82 747.033 539.481C759.515 545.142 770.111 552.855 778.82 562.622C787.529 572.409 794.164 583.917 798.726 597.126C803.309 610.355 805.59 624.538 805.59 639.675C805.59 654.812 803.309 669.12 798.726 682.287C794.164 695.454 787.529 706.962 778.82 716.791C770.111 726.619 759.515 734.333 747.033 739.952C734.55 745.551 720.429 748.35 704.711 748.35C688.994 748.35 674.748 745.551 662.307 739.952C649.866 734.354 639.291 726.64 630.602 716.791C621.893 706.962 615.258 695.454 610.696 682.287C606.114 669.12 603.833 654.916 603.833 639.675C603.833 624.434 606.114 610.355 610.696 597.126C615.258 583.896 621.893 572.409 630.602 562.622C639.311 552.835 649.866 545.121 662.307 539.481C674.748 533.82 688.869 531 704.711 531ZM704.711 709.741C713.959 709.741 722.088 707.999 729.117 704.515C736.146 701.032 742.077 696.179 746.887 689.98C751.698 683.78 755.347 676.46 757.794 668C760.241 659.54 761.485 650.312 761.485 640.276V639.094C761.485 629.162 760.262 619.956 757.794 611.433C755.327 602.932 751.698 595.591 746.887 589.391C742.077 583.191 736.146 578.36 729.117 574.856C722.088 571.372 713.959 569.63 704.711 569.63C695.463 569.63 687.314 571.372 680.223 574.856C673.152 578.339 667.221 583.191 662.452 589.391C657.683 595.591 654.075 602.932 651.607 611.433C649.14 619.935 647.917 629.162 647.917 639.094V640.276C647.917 650.312 649.14 659.54 651.607 668C654.054 676.46 657.683 683.78 662.452 689.98C667.221 696.179 673.152 701.011 680.223 704.515C687.293 707.999 695.463 709.741 704.711 709.741Z" fill="url(#paint1_linear_1022_580)"/>
<path d="M882.089 745.426L822.371 533.964H870.291L911.14 692.944H912.612L952.569 533.964H999.909L940.19 745.426H882.089Z" fill="url(#paint2_linear_1022_580)"/>
<path d="M1243.4 709.74C1249.6 709.74 1255.36 708.828 1260.73 707.003C1266.08 705.178 1270.71 702.421 1274.58 698.75C1278.46 695.059 1281.53 690.394 1283.81 684.733C1286.07 679.072 1287.21 672.416 1287.21 664.744V533.654H1329.24V671.089C1329.24 682.888 1327.11 693.546 1322.83 703.084C1318.56 712.622 1312.61 720.73 1305 727.407C1297.39 734.084 1288.33 739.247 1277.82 742.896C1267.3 746.525 1255.82 748.35 1243.33 748.35C1230.85 748.35 1219.36 746.525 1208.85 742.896C1198.34 739.268 1189.26 734.104 1181.58 727.407C1173.91 720.73 1167.96 712.622 1163.69 703.084C1159.42 693.546 1157.28 682.888 1157.28 671.089V533.654H1199.6V664.744C1199.6 672.416 1200.72 679.072 1203 684.733C1205.26 690.394 1208.33 695.059 1212.23 698.75C1216.11 702.441 1220.73 705.199 1226.08 707.003C1231.43 708.828 1237.22 709.74 1243.42 709.74H1243.4Z" fill="url(#paint3_linear_1022_580)"/>
<path d="M1410.73 533.944V625.533L1486.23 533.944H1538.87L1465.43 618.006L1543.58 745.426H1493.88L1437.99 650.602L1410.71 681.125V745.426H1367.95V533.944H1410.73Z" fill="url(#paint4_linear_1022_580)"/>
<path d="M1081.49 672.898C1063 680.535 1042.04 671.801 1034.53 653.561C1026.97 635.362 1035.62 614.156 1054.11 606.6C1072.23 599.166 1093.27 608.063 1100.78 626.303C1108.3 644.461 1099.61 665.464 1081.49 672.898Z" fill="url(#paint5_linear_1022_580)"/>
</g>
<path d="M0 1280L1920 0" stroke="#CA3535" stroke-width="30"/>
</g>
<defs>
<filter id="filter0_d_1022_580" x="372" y="531" width="1175.58" height="225.39" filterUnits="userSpaceOnUse" color-interpolation-filters="sRGB">
<feFlood flood-opacity="0" result="BackgroundImageFix"/>
<feColorMatrix in="SourceAlpha" type="matrix" values="0 0 0 0 0 0 0 0 0 0 0 0 0 0 0 0 0 0 127 0" result="hardAlpha"/>
<feOffset dy="4"/>
<feGaussianBlur stdDeviation="2"/>
<feComposite in2="hardAlpha" operator="out"/>
<feColorMatrix type="matrix" values="0 0 0 0 0 0 0 0 0 0 0 0 0 0 0 0 0 0 0.25 0"/>
<feBlend mode="normal" in2="BackgroundImageFix" result="effect1_dropShadow_1022_580"/>
<feBlend mode="normal" in="SourceGraphic" in2="effect1_dropShadow_1022_580" result="shape"/>
</filter>
<linearGradient id="paint0_linear_1022_580" x1="376" y1="639.695" x2="1543.58" y2="639.695" gradientUnits="userSpaceOnUse">
<stop offset="0.2" stop-color="#1D70B8"/>
<stop offset="0.8" stop-color="#CA357C"/>
</linearGradient>
<linearGradient id="paint1_linear_1022_580" x1="376" y1="639.695" x2="1543.58" y2="639.695" gradientUnits="userSpaceOnUse">
<stop offset="0.2" stop-color="#1D70B8"/>
<stop offset="0.8" stop-color="#CA357C"/>
</linearGradient>
<linearGradient id="paint2_linear_1022_580" x1="376" y1="639.695" x2="1543.58" y2="639.695" gradientUnits="userSpaceOnUse">
<stop offset="0.2" stop-color="#1D70B8"/>
<stop offset="0.8" stop-color="#CA357C"/>
</linearGradient>
<linearGradient id="paint3_linear_1022_580" x1="376" y1="639.695" x2="1543.58" y2="639.695" gradientUnits="userSpaceOnUse">
<stop offset="0.2" stop-color="#1D70B8"/>
<stop offset="0.8" stop-color="#CA357C"/>
</linearGradient>
<linearGradient id="paint4_linear_1022_580" x1="376" y1="639.695" x2="1543.58" y2="639.695" gradientUnits="userSpaceOnUse">
<stop offset="0.2" stop-color="#1D70B8"/>
<stop offset="0.8" stop-color="#CA357C"/>
</linearGradient>
<linearGradient id="paint5_linear_1022_580" x1="376" y1="639.695" x2="1543.58" y2="639.695" gradientUnits="userSpaceOnUse">
<stop offset="0.2" stop-color="#1D70B8"/>
<stop offset="0.8" stop-color="#CA357C"/>
</linearGradient>
<clipPath id="clip0_1022_580">
<rect width="1920" height="1280" fill="white"/>
</clipPath>
</defs>
</svg>
