<svg width="1920" height="1280" viewBox="0 0 1920 1280" fill="none" xmlns="http://www.w3.org/2000/svg">
<g clip-path="url(#clip0_1022_594)">
<rect width="1920" height="1280" fill="white"/>
<path d="M1918 2V1278H2V2H1918Z" fill="white" stroke="#F3F3F3" stroke-width="4"/>
<path d="M224.842 764.97C227.403 770.504 230.556 775.517 234.32 779.985C238.071 784.46 242.269 788.003 246.908 790.601C251.547 793.2 256.608 794.678 262.097 795.018C267.585 795.358 273.378 794.123 279.443 791.314C285.508 788.504 289.71 785.432 292.729 781.768C295.748 778.103 297.762 774.334 298.792 770.466C299.808 766.604 300.028 762.818 299.463 759.134C298.885 755.455 297.962 752.23 296.681 749.463L296.093 748.194L262.977 763.535L253.741 743.582L312.309 716.45L345.154 787.401L322.239 798.016L315.218 782.849C314.763 786.127 313.815 789.372 312.375 792.551C310.928 795.75 309.042 798.766 306.722 801.644C304.397 804.509 301.638 807.205 298.448 809.7C295.258 812.196 291.651 814.391 287.617 816.26C278.177 820.633 268.984 822.81 260.064 822.781C251.144 822.751 242.766 820.898 234.963 817.191C227.154 813.502 220.074 808.227 213.729 801.378C207.384 794.529 202.052 786.44 197.733 777.111C193.415 767.782 190.884 758.488 190.054 749.039C189.223 739.589 190.117 730.635 192.724 722.152C195.33 713.669 199.64 705.938 205.655 698.959C211.664 691.967 219.391 686.291 228.831 681.918C234.972 679.073 241.112 677.092 247.271 675.95C253.43 674.808 259.389 674.499 265.141 675.009C270.894 675.519 276.367 676.822 281.572 678.912C286.776 681.002 291.504 683.791 295.753 687.31L278.813 710.834C276.15 708.707 273.333 706.883 270.369 705.374C267.405 703.864 264.315 702.814 261.079 702.217C257.85 701.632 254.443 701.561 250.85 702.023C247.258 702.484 243.54 703.606 239.695 705.387C233.618 708.202 228.943 711.817 225.651 716.224C222.36 720.631 220.201 725.454 219.194 730.668C218.174 735.888 218.166 741.395 219.162 747.176C220.159 752.958 221.923 758.599 224.456 764.069L224.873 764.971L224.842 764.97Z" fill="#0B0C0C"/>
<path d="M368.065 617.388C377.696 612.927 387.123 610.656 396.365 610.583C405.607 610.509 414.277 612.227 422.373 615.737C430.475 619.259 437.797 624.422 444.331 631.214C450.884 638.013 456.298 646.048 460.588 655.314C464.877 664.579 467.535 673.984 468.462 683.342C469.402 692.695 468.603 701.62 466.059 710.105C463.515 718.59 459.217 726.315 453.172 733.293C447.12 740.259 439.272 745.975 429.655 750.43C420.037 754.886 410.527 757.21 401.328 757.31C392.129 757.41 383.472 755.686 375.365 752.12C367.251 748.572 359.93 743.409 353.407 736.642C346.872 729.881 341.451 721.834 337.133 712.505C332.814 703.176 330.22 693.911 329.275 684.514C328.318 675.123 329.123 666.211 331.679 657.751C334.234 649.292 338.507 641.578 344.521 634.599C350.53 627.608 358.372 621.879 368.065 617.388ZM418.714 726.797C424.373 724.176 428.853 720.805 432.167 716.68C435.482 712.556 437.735 707.904 438.922 702.746C440.109 697.587 440.268 692.072 439.368 686.2C438.468 680.328 436.614 674.327 433.77 668.184L433.436 667.461C430.621 661.381 427.264 656.092 423.339 651.575C419.42 647.071 415.119 643.606 410.419 641.175C405.718 638.743 400.721 637.467 395.426 637.314C390.138 637.175 384.671 638.413 379.012 641.034C373.353 643.656 368.86 647.032 365.508 651.174C362.168 655.311 359.915 659.962 358.753 665.109C357.592 670.256 357.464 675.772 358.363 681.675C359.262 687.578 361.129 693.573 363.943 699.653L364.278 700.377C367.122 706.52 370.485 711.821 374.392 716.3C378.287 720.785 382.581 724.237 387.256 726.68C391.932 729.123 396.929 730.4 402.249 730.54C407.563 730.668 413.055 729.419 418.714 726.797Z" fill="#0B0C0C"/>
<path d="M537.364 698.36L440.901 585.85L470.223 572.267L540.268 658.001L541.169 657.583L520.569 548.944L549.536 535.525L572.916 681.891L537.364 698.36Z" fill="#0B0C0C"/>
<path d="M748.335 574.099C752.129 572.341 755.398 570.149 758.167 567.51C760.923 564.876 762.971 561.877 764.304 558.532C765.631 555.173 766.186 551.448 765.978 547.336C765.757 543.23 764.569 538.833 762.395 534.137L725.248 453.895L750.967 441.98L789.911 526.106C793.255 533.328 794.968 540.458 795.057 547.507C795.146 554.556 793.802 561.206 791.037 567.45C788.273 573.694 784.191 579.423 778.793 584.637C773.388 589.838 766.876 594.211 759.238 597.75C751.599 601.288 744.053 603.428 736.592 604.187C729.131 604.945 722.111 604.359 715.518 602.435C708.932 600.522 702.993 597.247 697.676 592.619C692.359 587.991 688.032 582.073 684.689 574.851L645.745 490.725L671.641 478.728L708.788 558.97C710.962 563.666 713.533 567.423 716.533 570.242C719.52 573.066 722.72 575.052 726.151 576.206C729.569 577.366 733.18 577.744 736.965 577.331C740.756 576.932 744.554 575.851 748.348 574.093L748.335 574.099Z" fill="#0B0C0C"/>
<path d="M800.91 419.06L826.863 475.123L847.107 397.659L879.322 382.735L858.201 455.01L942.129 510.851L911.715 524.941L850.651 482.739L842.603 509.157L860.824 548.516L834.661 560.636L774.734 431.186L800.91 419.06Z" fill="#0B0C0C"/>
<path d="M638.824 597.442C629.678 607.357 614.376 607.952 604.609 598.918C594.829 589.92 594.114 574.487 603.283 564.622C612.263 554.936 627.66 554.417 637.428 563.451C647.172 572.436 647.804 587.756 638.824 597.442Z" fill="#0B0C0C"/>
<path d="M1694.16 764.97C1691.6 770.504 1688.45 775.517 1684.68 779.985C1680.93 784.46 1676.73 788.003 1672.09 790.601C1667.46 793.2 1662.39 794.678 1656.91 795.018C1651.42 795.358 1645.62 794.123 1639.56 791.314C1633.49 788.504 1629.29 785.432 1626.27 781.768C1623.25 778.103 1621.24 774.334 1620.21 770.466C1619.19 766.604 1618.97 762.818 1619.54 759.134C1620.12 755.455 1621.04 752.23 1622.32 749.463L1622.91 748.194L1656.03 763.535L1665.26 743.582L1606.69 716.45L1573.85 787.401L1596.76 798.016L1603.78 782.849C1604.24 786.127 1605.19 789.372 1606.63 792.551C1608.07 795.75 1609.96 798.766 1612.28 801.644C1614.61 804.509 1617.36 807.205 1620.55 809.7C1623.74 812.196 1627.35 814.391 1631.39 816.26C1640.83 820.633 1650.02 822.81 1658.94 822.781C1667.86 822.751 1676.24 820.898 1684.04 817.191C1691.85 813.502 1698.93 808.227 1705.27 801.378C1711.62 794.529 1716.95 786.44 1721.27 777.111C1725.59 767.782 1728.12 758.488 1728.95 749.039C1729.78 739.589 1728.89 730.635 1726.28 722.152C1723.67 713.669 1719.36 705.938 1713.35 698.959C1707.34 691.967 1699.61 686.291 1690.17 681.918C1684.03 679.073 1677.89 677.092 1671.73 675.95C1665.57 674.808 1659.61 674.499 1653.86 675.009C1648.11 675.519 1642.64 676.822 1637.43 678.912C1632.23 681.002 1627.5 683.791 1623.25 687.31L1640.19 710.834C1642.85 708.707 1645.67 706.883 1648.63 705.374C1651.6 703.864 1654.69 702.814 1657.92 702.217C1661.15 701.632 1664.56 701.561 1668.15 702.023C1671.74 702.484 1675.46 703.606 1679.31 705.387C1685.38 708.202 1690.06 711.817 1693.35 716.224C1696.64 720.631 1698.8 725.454 1699.81 730.668C1700.83 735.888 1700.84 741.395 1699.84 747.176C1698.84 752.958 1697.08 758.599 1694.55 764.069L1694.13 764.971L1694.16 764.97Z" fill="#0B0C0C"/>
<path d="M1550.94 617.388C1541.31 612.927 1531.88 610.656 1522.64 610.583C1513.4 610.509 1504.73 612.227 1496.63 615.737C1488.53 619.259 1481.21 624.422 1474.67 631.214C1468.12 638.013 1462.7 646.048 1458.41 655.314C1454.13 664.579 1451.47 673.984 1450.54 683.342C1449.6 692.695 1450.4 701.62 1452.94 710.105C1455.49 718.59 1459.78 726.315 1465.83 733.293C1471.88 740.259 1479.73 745.975 1489.35 750.43C1498.97 754.886 1508.47 757.21 1517.67 757.31C1526.87 757.41 1535.53 755.686 1543.64 752.12C1551.75 748.572 1559.07 743.409 1565.6 736.642C1572.13 729.881 1577.55 721.834 1581.87 712.505C1586.19 703.176 1588.78 693.911 1589.73 684.514C1590.68 675.123 1589.88 666.211 1587.32 657.751C1584.77 649.292 1580.5 641.578 1574.48 634.599C1568.47 627.608 1560.63 621.879 1550.94 617.388ZM1500.29 726.797C1494.63 724.176 1490.15 720.805 1486.83 716.68C1483.52 712.556 1481.27 707.904 1480.08 702.746C1478.89 697.587 1478.73 692.072 1479.63 686.2C1480.53 680.328 1482.39 674.327 1485.23 668.184L1485.57 667.461C1488.38 661.381 1491.74 656.092 1495.66 651.575C1499.58 647.071 1503.88 643.606 1508.58 641.175C1513.28 638.743 1518.28 637.467 1523.58 637.314C1528.86 637.175 1534.33 638.413 1539.99 641.034C1545.65 643.656 1550.14 647.032 1553.49 651.174C1556.83 655.311 1559.09 659.962 1560.25 665.109C1561.41 670.256 1561.54 675.772 1560.64 681.675C1559.74 687.578 1557.87 693.573 1555.06 699.653L1554.72 700.377C1551.88 706.52 1548.52 711.821 1544.61 716.3C1540.72 720.785 1536.42 724.237 1531.75 726.68C1527.07 729.123 1522.07 730.4 1516.75 730.54C1511.44 730.668 1505.95 729.419 1500.29 726.797Z" fill="#0B0C0C"/>
<path d="M1381.64 698.36L1478.1 585.85L1448.78 572.267L1378.73 658.001L1377.83 657.583L1398.43 548.944L1369.47 535.525L1346.09 681.891L1381.64 698.36Z" fill="#0B0C0C"/>
<path d="M1170.67 574.099C1166.87 572.341 1163.6 570.149 1160.84 567.51C1158.08 564.876 1156.03 561.877 1154.7 558.532C1153.37 555.173 1152.82 551.448 1153.02 547.336C1153.25 543.23 1154.43 538.833 1156.61 534.137L1193.75 453.895L1168.04 441.98L1129.09 526.106C1125.75 533.328 1124.03 540.458 1123.95 547.507C1123.86 554.556 1125.2 561.206 1127.96 567.45C1130.73 573.694 1134.81 579.423 1140.21 584.637C1145.61 589.838 1152.13 594.211 1159.76 597.75C1167.4 601.288 1174.95 603.428 1182.41 604.187C1189.87 604.945 1196.89 604.359 1203.48 602.435C1210.07 600.522 1216.01 597.247 1221.33 592.619C1226.64 587.991 1230.97 582.073 1234.31 574.851L1273.26 490.725L1247.36 478.728L1210.21 558.97C1208.04 563.666 1205.47 567.423 1202.47 570.242C1199.48 573.066 1196.28 575.052 1192.85 576.206C1189.43 577.366 1185.82 577.744 1182.04 577.331C1178.25 576.932 1174.45 575.851 1170.65 574.093L1170.67 574.099Z" fill="#0B0C0C"/>
<path d="M1118.09 419.06L1092.14 475.123L1071.9 397.659L1039.68 382.735L1060.8 455.01L976.874 510.851L1007.29 524.941L1068.35 482.739L1076.4 509.157L1058.18 548.516L1084.34 560.636L1144.27 431.186L1118.09 419.06Z" fill="#0B0C0C"/>
<path d="M1280.18 597.442C1289.32 607.357 1304.63 607.952 1314.39 598.918C1324.17 589.92 1324.89 574.487 1315.72 564.622C1306.74 554.936 1291.34 554.417 1281.57 563.451C1271.83 572.436 1271.2 587.756 1280.18 597.442Z" fill="#0B0C0C"/>
<path d="M0 1280L1920 0" stroke="#CA3535" stroke-width="30"/>
</g>
<defs>
<clipPath id="clip0_1022_594">
<rect width="1920" height="1280" fill="white"/>
</clipPath>
</defs>
</svg>
