<svg width="1920" height="1280" viewBox="0 0 1920 1280" fill="none" xmlns="http://www.w3.org/2000/svg">
<g clip-path="url(#clip0_1022_538)">
<rect width="1920" height="1280" fill="white"/>
<path d="M1918 2V1278H2V2H1918Z" fill="white" stroke="#F3F3F3" stroke-width="4"/>
<path d="M530.117 640.848C530.117 654.05 531.009 666.767 532.825 678.97C534.625 691.172 537.367 701.952 541.05 711.278C544.733 720.604 549.423 728.113 555.137 733.775C560.851 739.438 567.672 742.284 575.566 742.284C583.46 742.284 589.488 740.074 594.542 735.623C599.595 731.171 603.625 725.6 606.647 718.939C609.653 712.277 611.767 705.04 612.989 697.289C614.195 689.537 614.806 682.361 614.806 675.76V672.732H571.702V625.133H647.935V794.395H618.109V758.211C615.995 764.237 613.369 769.748 610.248 774.683C607.11 779.649 603.592 783.858 599.678 787.4C595.764 790.913 591.47 793.699 586.813 795.697C582.156 797.696 577.201 798.725 571.949 798.725C559.662 798.725 548.729 794.637 539.184 786.462C529.638 778.286 521.579 767.022 515.055 752.64C508.515 738.287 503.544 721.482 500.142 702.254C496.74 683.027 495.039 662.286 495.039 640.03C495.039 617.775 496.938 597.215 500.737 577.897C504.535 558.578 509.936 541.803 516.938 527.511C523.94 513.22 532.396 501.956 542.305 493.72C552.214 485.453 563.312 481.335 575.599 481.335C583.592 481.335 591.156 483.031 598.324 486.392C605.491 489.753 612.031 494.567 617.944 500.805C623.856 507.043 629.075 514.582 633.616 523.424C638.158 532.265 641.841 542.046 644.648 552.825L614.822 583.619C613.022 577.018 610.908 570.872 608.481 565.209C606.053 559.547 603.262 554.672 600.091 550.554C596.92 546.466 593.303 543.227 589.224 540.865C585.145 538.503 580.603 537.322 575.599 537.322C567.689 537.322 560.884 540.168 555.17 545.831C549.456 551.493 544.749 559.002 541.083 568.328C537.4 577.654 534.659 588.464 532.858 600.727C531.058 612.991 530.15 625.678 530.15 638.728V640.878L530.117 640.848Z" fill="#0B0C0C"/>
<path d="M756.839 481.277C769.373 481.277 780.604 485.395 790.546 493.661C800.488 501.927 808.927 513.191 815.863 527.453C822.799 541.745 828.084 558.55 831.718 577.838C835.367 597.157 837.184 617.868 837.184 639.972C837.184 662.076 835.367 682.969 831.718 702.196C828.084 721.424 822.799 738.229 815.863 752.581C808.927 766.934 800.488 778.198 790.546 786.403C780.604 794.579 769.357 798.667 756.839 798.667C744.32 798.667 732.974 794.579 723.065 786.403C713.156 778.228 704.734 766.964 697.814 752.581C690.878 738.229 685.593 721.424 681.96 702.196C678.31 682.969 676.493 662.227 676.493 639.972C676.493 617.716 678.31 597.157 681.96 577.838C685.593 558.52 690.878 541.745 697.814 527.453C704.75 513.161 713.156 501.897 723.065 493.661C732.974 485.395 744.221 481.277 756.839 481.277ZM756.839 742.286C764.204 742.286 770.678 739.743 776.277 734.656C781.875 729.569 786.599 722.483 790.43 713.43C794.262 704.376 797.168 693.688 799.117 681.334C801.066 668.98 802.057 655.505 802.057 640.85V639.124C802.057 624.62 801.082 611.176 799.117 598.731C797.152 586.316 794.262 575.598 790.43 566.544C786.599 557.49 781.875 550.435 776.277 545.318C770.678 540.231 764.204 537.688 756.839 537.688C749.473 537.688 742.982 540.231 737.334 545.318C731.703 550.405 726.979 557.49 723.181 566.544C719.383 575.598 716.509 586.316 714.544 598.731C712.578 611.146 711.604 624.62 711.604 639.124V640.85C711.604 655.505 712.578 668.98 714.544 681.334C716.492 693.688 719.383 704.376 723.181 713.43C726.979 722.483 731.703 729.539 737.334 734.656C742.966 739.743 749.473 742.286 756.839 742.286Z" fill="#0B0C0C"/>
<path d="M898.123 794.396L850.56 485.605H888.726L921.26 717.759H922.433L954.257 485.605H991.961L944.398 794.396H898.123Z" fill="#0B0C0C"/>
<path d="M1185.89 742.286C1190.83 742.286 1195.42 740.954 1199.7 738.289C1203.96 735.625 1207.64 731.597 1210.73 726.238C1213.82 720.848 1216.26 714.035 1218.08 705.769C1219.88 697.503 1220.79 687.783 1220.79 676.579V485.152H1254.27V685.845C1254.27 703.074 1252.56 718.638 1249.16 732.566C1245.76 746.495 1241.02 758.334 1234.96 768.084C1228.9 777.834 1221.68 785.374 1213.31 790.703C1204.94 796.002 1195.79 798.666 1185.84 798.666C1175.9 798.666 1166.75 796.002 1158.38 790.703C1150.01 785.404 1142.77 777.864 1136.66 768.084C1130.55 758.334 1125.81 746.495 1122.41 732.566C1119.01 718.638 1117.31 703.074 1117.31 685.845V485.152H1151.01V676.579C1151.01 687.783 1151.91 697.503 1153.72 705.769C1155.52 714.035 1157.97 720.848 1161.07 726.238C1164.16 731.628 1167.84 735.655 1172.1 738.289C1176.36 740.954 1180.97 742.286 1185.91 742.286H1185.89Z" fill="#0B0C0C"/>
<path d="M1285.1 485.576H1319.15V619.321L1379.28 485.576H1421.21L1362.72 608.329L1424.96 794.397H1385.37L1340.87 655.929L1319.13 700.5V794.397H1285.08V485.576H1285.1Z" fill="#0B0C0C"/>
<path d="M1056.93 688.486C1042.2 699.638 1025.51 686.884 1019.52 660.249C1013.51 633.673 1020.4 602.707 1035.12 591.674C1049.55 580.818 1066.31 593.809 1072.29 620.444C1078.28 646.961 1071.36 677.63 1056.93 688.486Z" fill="#00FFE0"/>
<path d="M0 1280L1920 0" stroke="#CA3535" stroke-width="30"/>
</g>
<defs>
<clipPath id="clip0_1022_538">
<rect width="1920" height="1280" fill="white"/>
</clipPath>
</defs>
</svg>
