<svg width="480" height="320" viewBox="0 0 480 320" fill="none" xmlns="http://www.w3.org/2000/svg">
<g clip-path="url(#clip0_995_2)">
<rect width="480" height="320" fill="white"/>
<path d="M480 0H0V320H480V0Z" fill="#F47738"/>
<path d="M266.997 168.981C271.942 168.981 275.951 164.973 275.951 160.028C275.951 155.083 271.942 151.075 266.997 151.075C262.053 151.075 258.044 155.083 258.044 160.028C258.044 164.973 262.053 168.981 266.997 168.981Z" fill="#00FFE0"/>
<path d="M105.155 160.176C105.155 162.445 105.438 164.627 106.006 166.722C106.572 168.818 107.435 170.667 108.595 172.27C109.753 173.873 111.232 175.161 113.032 176.135C114.833 177.109 116.978 177.596 119.468 177.596C121.959 177.596 123.851 177.214 125.442 176.45C127.032 175.686 128.302 174.73 129.251 173.583C130.199 172.437 130.865 171.198 131.248 169.867C131.63 168.535 131.821 167.302 131.821 166.168V165.65H118.248V157.477H142.25V186.546H132.857V180.332C132.191 181.368 131.365 182.311 130.379 183.162C129.393 184.012 128.284 184.74 127.05 185.344C125.817 185.948 124.466 186.423 123 186.768C121.533 187.113 119.973 187.286 118.322 187.286C114.451 187.286 111.012 186.583 108.004 185.178C104.996 183.772 102.462 181.837 100.404 179.371C98.3449 176.906 96.7795 174.021 95.7064 170.717C94.6342 167.414 94.0977 163.851 94.0977 160.028C94.0977 156.205 94.6956 152.675 95.8916 149.359C97.0875 146.044 98.7884 143.158 100.996 140.705C103.203 138.252 105.865 136.317 108.984 134.899C112.103 133.481 115.598 132.771 119.469 132.771C121.984 132.771 124.37 133.061 126.625 133.64C128.882 134.22 130.94 135.046 132.802 136.118C134.663 137.19 136.308 138.486 137.739 140.001C139.168 141.517 140.328 143.201 141.216 145.05L131.822 150.338C131.255 149.204 130.589 148.15 129.825 147.175C129.06 146.202 128.179 145.363 127.181 144.661C126.182 143.958 125.042 143.403 123.76 142.997C122.477 142.59 121.047 142.386 119.47 142.386C116.98 142.386 114.834 142.874 113.034 143.848C111.234 144.821 109.755 146.109 108.596 147.713C107.437 149.315 106.575 151.171 106.008 153.279C105.44 155.387 105.157 157.564 105.157 159.806V160.176H105.155Z" fill="white"/>
<path d="M176.409 132.771C180.354 132.771 183.892 133.481 187.024 134.899C190.155 136.317 192.812 138.252 194.994 140.705C197.176 143.158 198.84 146.044 199.987 149.359C201.133 152.675 201.706 156.233 201.706 160.028C201.706 163.824 201.133 167.414 199.987 170.717C198.84 174.021 197.176 176.906 194.994 179.371C192.813 181.836 190.155 183.772 187.024 185.178C183.893 186.583 180.354 187.286 176.409 187.286C172.464 187.286 168.895 186.583 165.776 185.178C162.657 183.772 160.007 181.837 157.826 179.371C155.643 176.906 153.979 174.021 152.833 170.717C151.687 167.414 151.113 163.851 151.113 160.028C151.113 156.205 151.687 152.675 152.833 149.359C153.979 146.044 155.643 143.158 157.826 140.705C160.007 138.252 162.657 136.317 165.776 134.899C168.895 133.481 172.439 132.771 176.409 132.771ZM176.409 177.595C178.727 177.595 180.767 177.158 182.53 176.282C184.292 175.408 185.779 174.193 186.986 172.64C188.194 171.086 189.107 169.25 189.723 167.129C190.339 165.009 190.648 162.691 190.648 160.176V159.88C190.648 157.39 190.339 155.078 189.723 152.946C189.107 150.813 188.194 148.969 186.986 147.417C185.778 145.864 184.292 144.65 182.53 143.774C180.767 142.899 178.727 142.461 176.409 142.461C174.091 142.461 172.045 142.899 170.269 143.774C168.494 144.65 167.009 145.864 165.813 147.417C164.617 148.969 163.711 150.814 163.095 152.946C162.479 155.078 162.17 157.39 162.17 159.88V160.176C162.17 162.691 162.479 165.009 163.095 167.129C163.711 169.25 164.617 171.085 165.813 172.64C167.009 174.193 168.494 175.408 170.269 176.282C172.045 177.158 174.091 177.595 176.409 177.595Z" fill="white"/>
<path d="M220.613 186.545L205.635 133.511H217.655L227.9 173.379H228.269L238.292 133.511H250.163L235.185 186.545H220.614H220.613Z" fill="white"/>
<path d="M310.909 177.595C312.462 177.595 313.911 177.368 315.254 176.911C316.598 176.455 317.757 175.765 318.731 174.84C319.704 173.915 320.475 172.745 321.042 171.326C321.609 169.909 321.892 168.239 321.892 166.316V133.437H332.433V167.906C332.433 170.865 331.897 173.54 330.826 175.931C329.754 178.323 328.264 180.357 326.354 182.034C324.445 183.711 322.172 185.005 319.537 185.917C316.902 186.829 314.019 187.286 310.891 187.286C307.763 187.286 304.88 186.829 302.245 185.917C299.608 185.005 297.33 183.71 295.408 182.034C293.486 180.357 291.99 178.324 290.918 175.931C289.846 173.54 289.311 170.864 289.311 167.906V133.437H299.925V166.316C299.925 168.239 300.209 169.909 300.775 171.326C301.342 172.745 302.113 173.915 303.087 174.84C304.06 175.765 305.219 176.455 306.563 176.911C307.907 177.368 309.356 177.595 310.909 177.595Z" fill="#0B0C0C"/>
<path d="M341.946 133.511H352.672V156.477L371.608 133.511H384.811L366.393 154.591L385.994 186.545H373.532L359.514 162.764L352.672 170.42V186.545H341.946V133.511Z" fill="#0B0C0C"/>
<path d="M0 320L480 0" stroke="#CA3535" stroke-width="7.5"/>
</g>
<defs>
<clipPath id="clip0_995_2">
<rect width="480" height="320" fill="white"/>
</clipPath>
</defs>
</svg>
