<svg width="1920" height="1280" viewBox="0 0 1920 1280" fill="none" xmlns="http://www.w3.org/2000/svg">
<g clip-path="url(#clip0_995_2)">
<rect width="1920" height="1280" fill="white"/>
<path d="M1920 0H0V1280H1920V0Z" fill="#F47738"/>
<path d="M1067.99 675.926C1087.77 675.926 1103.8 659.892 1103.8 640.113C1103.8 620.333 1087.77 604.299 1067.99 604.299C1048.21 604.299 1032.18 620.333 1032.18 640.113C1032.18 659.892 1048.21 675.926 1067.99 675.926Z" fill="#00FFE0"/>
<path d="M420.622 640.706C420.622 649.778 421.756 658.508 424.025 666.89C426.291 675.273 429.741 682.669 434.381 689.078C439.016 695.492 444.931 700.644 452.132 704.539C459.333 708.434 467.914 710.385 477.876 710.385C487.837 710.385 495.407 708.857 501.77 705.8C508.129 702.743 513.209 698.921 517.006 694.332C520.8 689.747 523.463 684.793 524.995 679.467C526.524 674.142 527.286 669.21 527.286 664.672V662.601H472.995V629.909H569.003V746.184H531.43V721.329C528.767 725.474 525.461 729.246 521.519 732.649C517.574 736.049 513.137 738.962 508.201 741.375C503.269 743.792 497.868 745.693 492.003 747.073C486.136 748.453 479.896 749.144 473.291 749.144C457.805 749.144 444.05 746.332 432.018 740.71C419.986 735.088 409.851 727.349 401.617 717.485C393.382 707.625 387.121 696.084 382.828 682.867C378.539 669.654 376.393 655.404 376.393 640.113C376.393 624.822 378.785 610.702 383.569 597.438C388.353 584.174 395.156 572.634 403.987 562.82C412.814 553.007 423.462 545.268 435.938 539.595C448.414 533.922 462.394 531.086 477.88 531.086C487.939 531.086 497.481 532.246 506.503 534.562C515.529 536.882 523.763 540.184 531.21 544.473C538.653 548.762 545.236 553.943 550.959 560.006C556.675 566.069 561.315 572.804 564.866 580.2L527.29 601.351C525.02 596.817 522.358 592.6 519.301 588.701C516.24 584.81 512.718 581.453 508.725 578.642C504.729 575.831 500.169 573.613 495.042 571.987C489.911 570.361 484.192 569.544 477.883 569.544C467.922 569.544 459.34 571.496 452.139 575.391C444.938 579.286 439.024 584.438 434.388 590.851C429.752 597.261 426.302 604.682 424.033 613.116C421.764 621.549 420.629 630.256 420.629 639.224V640.706H420.622Z" fill="white"/>
<path d="M705.638 531.086C721.417 531.086 735.57 533.922 748.096 539.595C760.623 545.268 771.249 553.007 779.979 562.82C788.705 572.634 795.364 584.174 799.949 597.438C804.534 610.702 806.825 624.931 806.825 640.113C806.825 655.295 804.534 669.654 799.949 682.867C795.364 696.084 788.705 707.625 779.979 717.485C771.253 727.345 760.623 735.088 748.096 740.71C735.573 746.332 721.417 749.144 705.638 749.144C689.859 749.144 675.58 746.332 663.108 740.71C650.631 735.088 640.03 727.349 631.304 717.485C622.575 707.625 615.92 696.084 611.335 682.867C606.749 669.654 604.455 655.404 604.455 640.113C604.455 624.822 606.749 610.702 611.335 597.438C615.92 584.174 622.575 572.634 631.304 562.82C640.03 553.007 650.631 545.268 663.108 539.595C675.584 533.922 689.758 531.086 705.638 531.086ZM705.638 710.382C714.909 710.382 723.072 708.633 730.121 705.128C737.17 701.631 743.117 696.771 747.945 690.56C752.779 684.345 756.428 677 758.892 668.516C761.357 660.036 762.592 650.765 762.592 640.706V639.52C762.592 629.559 761.357 620.313 758.892 611.782C756.428 603.252 752.779 595.877 747.945 589.666C743.114 583.455 737.17 578.599 730.121 575.094C723.072 571.597 714.909 569.844 705.638 569.844C696.367 569.844 688.183 571.597 681.079 575.094C673.98 578.599 668.04 583.455 663.256 589.666C658.472 595.877 654.848 603.255 652.384 611.782C649.919 620.313 648.684 629.559 648.684 639.52V640.706C648.684 650.765 649.919 660.036 652.384 668.516C654.848 677 658.472 684.342 663.256 690.56C668.04 696.771 673.98 701.631 681.079 705.128C688.183 708.633 696.367 710.382 705.638 710.382Z" fill="white"/>
<path d="M882.454 746.181L822.541 534.045H870.621L911.602 693.516H913.08L953.171 534.045H1000.66L940.742 746.181H882.458H882.454Z" fill="white"/>
<path d="M1243.64 710.382C1249.85 710.382 1255.64 709.471 1261.02 707.647C1266.39 705.822 1271.03 703.061 1274.92 699.362C1278.82 695.662 1281.9 690.983 1284.17 685.306C1286.44 679.637 1287.57 672.957 1287.57 665.264V533.749H1329.73V671.623C1329.73 683.46 1327.59 694.162 1323.3 703.726C1319.02 713.294 1313.06 721.431 1305.42 728.137C1297.78 734.846 1288.69 740.02 1278.15 743.67C1267.61 747.315 1256.08 749.144 1243.57 749.144C1231.05 749.144 1219.52 747.315 1208.98 743.67C1198.43 740.02 1189.32 734.843 1181.63 728.137C1173.94 721.431 1167.96 713.298 1163.67 703.726C1159.39 694.162 1157.24 683.456 1157.24 671.623V533.749H1199.7V665.264C1199.7 672.957 1200.84 679.637 1203.1 685.306C1205.37 690.983 1208.45 695.662 1212.35 699.362C1216.24 703.061 1220.88 705.822 1226.25 707.647C1231.63 709.471 1237.43 710.382 1243.64 710.382Z" fill="#0B0C0C"/>
<path d="M1367.79 534.045H1410.69V625.91L1486.43 534.045H1539.24L1465.57 618.366L1543.98 746.181H1494.13L1438.06 651.057L1410.69 681.679V746.181H1367.79V534.045Z" fill="#0B0C0C"/>
<path d="M0 1280L1920 0" stroke="#CA3535" stroke-width="30"/>
</g>
<defs>
<clipPath id="clip0_995_2">
<rect width="1920" height="1280" fill="white"/>
</clipPath>
</defs>
</svg>
