<svg width="480" height="320" viewBox="0 0 480 320" fill="none" xmlns="http://www.w3.org/2000/svg">
<g clip-path="url(#clip0_1022_538)">
<rect width="480" height="320" fill="white"/>
<path d="M479 1V319H1V1H479Z" fill="white" stroke="#F3F3F3" stroke-width="2"/>
<path d="M132.529 160.212C132.529 163.513 132.752 166.692 133.206 169.743C133.656 172.793 134.342 175.488 135.262 177.82C136.183 180.151 137.356 182.028 138.784 183.444C140.213 184.86 141.918 185.571 143.892 185.571C145.865 185.571 147.372 185.019 148.635 183.906C149.899 182.793 150.906 181.4 151.662 179.735C152.413 178.069 152.942 176.26 153.247 174.322C153.549 172.384 153.701 170.59 153.701 168.94V168.183H142.925V156.283H161.984V198.599H154.527V189.553C153.999 191.059 153.342 192.437 152.562 193.671C151.777 194.912 150.898 195.965 149.92 196.85C148.941 197.728 147.868 198.425 146.703 198.924C145.539 199.424 144.3 199.681 142.987 199.681C139.916 199.681 137.182 198.66 134.796 196.616C132.409 194.572 130.395 191.756 128.764 188.16C127.129 184.572 125.886 180.371 125.036 175.564C124.185 170.757 123.76 165.572 123.76 160.008C123.76 154.444 124.235 149.304 125.184 144.474C126.134 139.645 127.484 135.451 129.234 131.878C130.985 128.305 133.099 125.489 135.576 123.43C138.053 121.363 140.828 120.334 143.9 120.334C145.898 120.334 147.789 120.758 149.581 121.598C151.373 122.438 153.008 123.642 154.486 125.201C155.964 126.761 157.269 128.646 158.404 130.856C159.539 133.067 160.46 135.512 161.162 138.206L153.706 145.905C153.256 144.255 152.727 142.718 152.12 141.303C151.513 139.887 150.815 138.668 150.023 137.639C149.23 136.617 148.326 135.807 147.306 135.216C146.286 134.626 145.151 134.331 143.9 134.331C141.922 134.331 140.221 135.042 138.793 136.458C137.364 137.873 136.187 139.751 135.271 142.082C134.35 144.414 133.665 147.116 133.215 150.182C132.765 153.248 132.537 156.42 132.537 159.682V160.22L132.529 160.212Z" fill="#0B0C0C"/>
<path d="M189.209 120.319C192.343 120.319 195.151 121.349 197.636 123.415C200.122 125.482 202.231 128.298 203.966 131.863C205.7 135.436 207.021 139.638 207.929 144.46C208.842 149.289 209.296 154.467 209.296 159.993C209.296 165.519 208.842 170.742 207.929 175.549C207.021 180.356 205.7 184.557 203.966 188.145C202.231 191.734 200.122 194.55 197.636 196.601C195.151 198.645 192.339 199.667 189.209 199.667C186.08 199.667 183.243 198.645 180.766 196.601C178.289 194.557 176.183 191.741 174.453 188.145C172.719 184.557 171.398 180.356 170.49 175.549C169.577 170.742 169.123 165.557 169.123 159.993C169.123 154.429 169.577 149.289 170.49 144.46C171.398 139.63 172.719 135.436 174.453 131.863C176.187 128.29 178.289 125.474 180.766 123.415C183.243 121.349 186.055 120.319 189.209 120.319ZM189.209 185.572C191.051 185.572 192.669 184.936 194.069 183.664C195.469 182.392 196.649 180.621 197.607 178.358C198.565 176.094 199.292 173.422 199.779 170.334C200.266 167.245 200.514 163.876 200.514 160.213V159.781C200.514 156.155 200.27 152.794 199.779 149.683C199.288 146.579 198.565 143.9 197.607 141.636C196.649 139.373 195.469 137.609 194.069 136.33C192.669 135.058 191.051 134.422 189.209 134.422C187.368 134.422 185.745 135.058 184.333 136.33C182.925 137.601 181.745 139.373 180.795 141.636C179.845 143.9 179.127 146.579 178.636 149.683C178.144 152.787 177.901 156.155 177.901 159.781V160.213C177.901 163.876 178.144 167.245 178.636 170.334C179.123 173.422 179.845 176.094 180.795 178.358C181.745 180.621 182.925 182.385 184.333 183.664C185.741 184.936 187.368 185.572 189.209 185.572Z" fill="#0B0C0C"/>
<path d="M224.531 198.599L212.641 121.401H222.182L230.316 179.44H230.609L238.565 121.401H247.991L236.1 198.599H224.531Z" fill="#0B0C0C"/>
<path d="M296.473 185.572C297.707 185.572 298.855 185.238 299.924 184.572C300.99 183.906 301.91 182.899 302.683 181.559C303.455 180.212 304.066 178.509 304.52 176.442C304.97 174.376 305.197 171.946 305.197 169.145V121.288H313.566V171.461C313.566 175.769 313.141 179.659 312.29 183.142C311.44 186.624 310.255 189.584 308.739 192.021C307.224 194.459 305.42 196.343 303.327 197.676C301.233 199 298.946 199.667 296.46 199.667C293.975 199.667 291.688 199 289.594 197.676C287.501 196.351 285.693 194.466 284.165 192.021C282.637 189.584 281.452 186.624 280.602 183.142C279.751 179.659 279.326 175.769 279.326 171.461V121.288H287.753V169.145C287.753 171.946 287.976 174.376 288.43 176.442C288.88 178.509 289.491 180.212 290.267 181.559C291.039 182.907 291.96 183.914 293.025 184.572C294.091 185.238 295.242 185.572 296.477 185.572H296.473Z" fill="#0B0C0C"/>
<path d="M321.274 121.394H329.787V154.83L344.82 121.394H355.303L340.679 152.082L356.24 198.599H346.343L335.216 163.982L329.783 175.125V198.599H321.27V121.394H321.274Z" fill="#0B0C0C"/>
<path d="M264.232 172.122C260.551 174.91 256.378 171.721 254.881 165.062C253.377 158.418 255.1 150.677 258.78 147.919C262.388 145.205 266.577 148.452 268.074 155.111C269.57 161.74 267.839 169.408 264.232 172.122Z" fill="#00FFE0"/>
<path d="M0 320L480 0" stroke="#CA3535" stroke-width="7.5"/>
</g>
<defs>
<clipPath id="clip0_1022_538">
<rect width="480" height="320" fill="white"/>
</clipPath>
</defs>
</svg>
