<svg width="1920" height="1280" viewBox="0 0 1920 1280" fill="none" xmlns="http://www.w3.org/2000/svg">
<g clip-path="url(#clip0_1020_2)">
<rect width="1920" height="1280" fill="white"/>
<path d="M1920 0H0V1280H1920V0Z" fill="#1D70B8"/>
<path d="M466.191 489V790.344" stroke="#D7DEE5" stroke-width="4" stroke-dasharray="4 4"/>
<path d="M502.738 489V790.344" stroke="#D7DEE5" stroke-width="4" stroke-dasharray="4 4"/>
<path d="M539.352 489V790.344" stroke="#D7DEE5" stroke-width="4" stroke-dasharray="4 4"/>
<path d="M1285.12 489V790.344" stroke="#D7DEE5" stroke-width="4" stroke-dasharray="4 4"/>
<path d="M324.865 489V790.344" stroke="#5694CA" stroke-dasharray="1.02 1.02"/>
<path d="M288.254 489V790.344" stroke="#5694CA" stroke-dasharray="1.02 1.02"/>
<path d="M575.352 489V790.344" stroke="#D7DEE5" stroke-width="4" stroke-dasharray="4 4"/>
<path d="M1248.13 489V790.344" stroke="#D7DEE5" stroke-width="4" stroke-dasharray="4 4"/>
<path d="M1321.65 489V790.344" stroke="#D7DEE5" stroke-width="4" stroke-dasharray="4 4"/>
<path d="M1285.12 706.946C1305.4 706.946 1321.83 690.496 1321.83 670.205C1321.83 649.915 1305.4 633.464 1285.12 633.464C1264.85 633.464 1248.42 649.915 1248.42 670.205C1248.42 690.496 1264.85 706.946 1285.12 706.946Z" fill="white"/>
<path d="M621.583 670.814C621.583 680.121 622.745 689.078 625.071 697.678C627.395 706.275 630.93 713.863 635.687 720.438C640.438 727.018 646.5 732.305 653.881 736.3C661.261 740.296 670.056 742.296 680.268 742.296C690.478 742.296 698.238 740.729 704.758 737.594C711.277 734.459 716.483 730.537 720.375 725.828C724.264 721.125 726.993 716.044 728.564 710.579C730.13 705.116 730.912 700.057 730.912 695.401V693.276H675.265V659.739H773.672V779.024H735.16V753.525C732.431 757.777 729.041 761.645 725.002 765.137C720.956 768.624 716.409 771.612 711.35 774.089C706.295 776.569 700.759 778.518 694.749 779.933C688.734 781.349 682.338 782.058 675.568 782.058C659.695 782.058 645.596 779.175 633.265 773.407C620.932 767.639 610.544 759.699 602.103 749.58C593.662 739.464 587.246 727.627 582.846 714.068C578.449 700.512 576.25 685.894 576.25 670.208C576.25 654.52 578.701 640.035 583.604 626.428C588.507 612.82 595.482 600.982 604.534 590.913C613.581 580.846 624.494 572.908 637.282 567.089C650.069 561.269 664.398 558.359 680.271 558.359C690.581 558.359 700.363 559.548 709.61 561.925C718.862 564.304 727.301 567.693 734.933 572.092C742.563 576.491 749.311 581.807 755.177 588.026C761.036 594.246 765.79 601.156 769.432 608.744L730.916 630.441C728.591 625.79 725.859 621.464 722.727 617.464C719.591 613.473 715.979 610.028 711.887 607.145C707.792 604.262 703.119 601.986 697.863 600.318C692.604 598.65 686.742 597.812 680.275 597.812C670.065 597.812 661.27 599.814 653.887 603.81C646.507 607.805 640.445 613.092 635.693 619.669C630.941 626.245 627.406 633.859 625.08 642.51C622.754 651.162 621.592 660.094 621.592 669.296V670.814H621.583Z" fill="white"/>
<path d="M913.715 558.355C929.888 558.355 944.395 561.265 957.234 567.084C970.07 572.904 980.966 580.841 989.913 590.911C998.857 600.978 1005.68 612.815 1010.38 626.423C1015.08 640.031 1017.43 654.627 1017.43 670.203C1017.43 685.778 1015.08 700.507 1010.38 714.064C1005.68 727.622 998.857 739.46 989.913 749.576C980.971 759.692 970.075 767.634 957.234 773.403C944.398 779.171 929.888 782.054 913.715 782.054C897.543 782.054 882.907 779.171 870.122 773.403C857.335 767.634 846.47 759.694 837.525 749.576C828.579 739.46 821.755 727.622 817.057 714.064C812.356 700.507 810.006 685.889 810.006 670.203C810.006 654.515 812.356 640.031 817.057 626.423C821.755 612.815 828.579 600.978 837.525 590.911C846.47 580.841 857.335 572.904 870.122 567.084C882.911 561.265 897.439 558.355 913.715 558.355ZM913.715 742.294C923.218 742.294 931.583 740.499 938.81 736.902C946.035 733.315 952.13 728.329 957.078 721.959C962.035 715.582 965.775 708.048 968.299 699.343C970.825 690.645 972.093 681.133 972.093 670.814V669.599C972.093 659.378 970.825 649.893 968.299 641.141C965.775 632.39 962.035 624.824 957.078 618.454C952.128 612.082 946.035 607.101 938.81 603.504C931.583 599.917 923.218 598.119 913.715 598.119C904.213 598.119 895.823 599.917 888.543 603.504C881.265 607.101 875.177 612.082 870.273 618.454C865.37 624.824 861.656 632.394 859.13 641.141C856.606 649.893 855.338 659.378 855.338 669.599V670.814C855.338 681.133 856.606 690.645 859.13 699.343C861.656 708.048 865.37 715.58 870.273 721.959C875.177 728.329 881.265 733.315 888.543 736.902C895.823 740.499 904.213 742.294 913.715 742.294Z" fill="white"/>
<path d="M1094.95 779.019L1033.54 561.394H1082.82L1124.83 724.991H1126.34L1167.44 561.394H1216.11L1154.7 779.019H1094.96H1094.95Z" fill="white"/>
<path d="M1465.16 742.294C1471.52 742.294 1477.46 741.36 1482.97 739.487C1488.48 737.616 1493.23 734.784 1497.23 730.989C1501.21 727.192 1504.38 722.392 1506.7 716.57C1509.02 710.755 1510.19 703.901 1510.19 696.01V561.086H1553.4V702.53C1553.4 714.672 1551.21 725.652 1546.81 735.462C1542.42 745.277 1536.31 753.625 1528.48 760.504C1520.65 767.387 1511.34 772.696 1500.53 776.44C1489.72 780.179 1477.91 782.054 1465.08 782.054C1452.26 782.054 1440.44 780.179 1429.63 776.44C1418.82 772.696 1409.48 767.385 1401.6 760.504C1393.72 753.625 1387.59 745.282 1383.19 735.462C1378.8 725.652 1376.61 714.668 1376.61 702.53V561.086H1420.12V696.005C1420.12 703.896 1421.29 710.75 1423.61 716.565C1425.93 722.389 1429.09 727.19 1433.09 730.985C1437.08 734.78 1441.83 737.612 1447.34 739.485C1452.85 741.355 1458.79 742.289 1465.16 742.289V742.294Z" fill="white"/>
<path d="M1592.41 561.39H1636.38V655.63L1714.01 561.39H1768.15L1692.64 647.891L1773 779.015H1721.9L1664.43 681.43L1636.38 712.844V779.015H1592.41V561.39Z" fill="white"/>
<path d="M248 595.988C258.11 595.988 266.306 587.785 266.306 577.664C266.306 567.546 258.11 559.343 248 559.343C237.889 559.343 229.693 567.546 229.693 577.664C229.693 587.785 237.889 595.988 248 595.988Z" fill="white"/>
<path d="M198.751 625.511C208.861 625.511 217.057 617.308 217.057 607.189C217.057 597.069 208.861 588.866 198.751 588.866C188.641 588.866 180.445 597.069 180.445 607.189C180.445 617.308 188.641 625.511 198.751 625.511Z" fill="white"/>
<path d="M166.169 674.059C176.279 674.059 184.475 665.856 184.475 655.737C184.475 645.619 176.279 637.416 166.169 637.416C156.059 637.416 147.863 645.619 147.863 655.737C147.863 665.856 156.059 674.059 166.169 674.059Z" fill="white"/>
<path d="M306.555 661.231C316.665 661.231 324.861 653.028 324.861 642.909C324.861 632.791 316.665 624.588 306.555 624.588C296.446 624.588 288.25 632.791 288.25 642.909C288.25 653.028 296.446 661.231 306.555 661.231Z" fill="white"/>
<path d="M365.052 595.988C375.161 595.988 383.357 587.785 383.357 577.664C383.357 567.546 375.161 559.343 365.052 559.343C354.94 559.343 346.744 567.546 346.744 577.664C346.744 587.785 354.94 595.988 365.052 595.988Z" fill="white"/>
<path d="M414.302 625.511C424.411 625.511 432.607 617.308 432.607 607.189C432.607 597.069 424.411 588.866 414.302 588.866C404.192 588.866 395.996 597.069 395.996 607.189C395.996 617.308 404.192 625.511 414.302 625.511Z" fill="white"/>
<path d="M446.886 674.059C456.995 674.059 465.191 665.856 465.191 655.737C465.191 645.619 456.995 637.416 446.886 637.416C436.774 637.416 428.578 645.619 428.578 655.737C428.578 665.856 436.774 674.059 446.886 674.059Z" fill="white"/>
<path d="M306.555 661.231C316.665 661.231 324.861 653.028 324.861 642.909C324.861 632.791 316.665 624.588 306.555 624.588C296.446 624.588 288.25 632.791 288.25 642.909C288.25 653.028 296.446 661.231 306.555 661.231Z" fill="white"/>
<path d="M313.935 538.426C314.862 537.73 315.684 536.908 316.379 535.98L339.668 548.217V513.864L316.412 521.251C315.735 520.343 314.931 519.529 314.031 518.838L323.39 489.337H289.719L299.078 518.838C298.178 519.527 297.378 520.339 296.697 521.251L273.443 513.864V548.217L296.73 535.98C297.425 536.908 298.247 537.73 299.174 538.426L285.908 578.462C281.238 592.554 291.722 607.089 306.555 607.089C321.387 607.089 331.871 592.554 327.201 578.462L313.935 538.426Z" fill="white"/>
<path d="M333.167 679.397C333.167 679.397 316.165 698.336 312.454 709.888C323.584 709.535 333.582 707.368 344.585 695.87L340.855 738.649C330.726 724.425 318.85 718.296 312.264 719.522C312.93 734.854 314.534 753.371 341.354 755.811C360.068 757.438 375.094 748.236 376.655 736.854C378.511 723.776 366.737 715.125 357.862 728.891C350.92 706.111 370.095 698.539 382.408 712.641C372.926 690.162 373.178 674.19 394.266 658.041C409.395 678.17 407.249 694.811 388.496 713.542C400.706 706.782 419.667 713.894 408.499 736.731C402.664 722.528 390.14 725.701 387.516 737.922C385.763 746.555 390.995 756.711 402.373 758.794C411.709 760.506 426.085 754.123 437.611 729.277C431.131 729.444 425.441 732.722 418.087 737.788L430.175 697.457C433.218 708.777 437.115 716.209 441.24 720.227C444.009 712.079 443.615 706.171 441.136 693.475L466.124 702.378C452.851 720.501 439.993 745.931 429.449 790.344C392.274 785.033 350.658 782.05 306.561 782.05C262.47 782.05 220.85 785.037 183.675 790.344C173.131 745.929 160.273 720.497 147 702.378L171.987 693.475C169.506 706.171 169.113 712.079 171.883 720.227C176.009 716.209 179.905 708.777 182.949 697.457L195.037 737.788C187.682 732.718 181.994 729.444 175.513 729.277C187.037 754.123 201.414 760.502 210.751 758.794C222.128 756.711 227.357 746.555 225.609 737.922C222.983 725.701 210.462 722.528 204.625 736.731C193.456 713.894 212.417 706.78 224.627 713.542C205.873 694.811 203.725 678.168 218.857 658.041C239.945 674.186 240.196 690.157 230.716 712.641C243.029 698.543 262.202 706.111 255.263 728.891C246.385 715.125 234.612 723.776 236.467 736.854C238.03 748.241 253.055 757.44 271.768 755.811C298.588 753.371 300.192 734.854 300.858 719.522C294.273 718.296 282.397 724.423 272.267 738.649L268.538 695.87C279.541 707.368 289.543 709.533 300.669 709.888C296.96 698.336 279.957 679.397 279.957 679.397H333.181H333.167Z" fill="white"/>
<path d="M306.559 661.229C316.669 661.229 324.865 653.026 324.865 642.907C324.865 632.789 316.669 624.586 306.559 624.586C296.45 624.586 288.254 632.789 288.254 642.907C288.254 653.026 296.45 661.229 306.559 661.229ZM324.865 642.907C324.865 632.789 316.669 624.586 306.559 624.586C296.45 624.586 288.254 632.789 288.254 642.907C288.254 653.026 296.45 661.229 306.559 661.229C316.669 661.229 324.865 653.026 324.865 642.907Z" fill="#00FFE0"/>
<path d="M484.432 722.918C494.544 722.918 502.74 714.715 502.74 704.596C502.74 694.478 494.544 686.275 484.432 686.275C474.323 686.275 466.127 694.478 466.127 704.596C466.127 714.715 474.323 722.918 484.432 722.918ZM502.74 704.596C502.74 694.478 494.544 686.275 484.432 686.275C474.323 686.275 466.127 694.478 466.127 704.596C466.127 714.715 474.323 722.918 484.432 722.918C494.544 722.918 502.74 714.715 502.74 704.596Z" fill="#00FFE0"/>
<path d="M521.044 722.918C531.156 722.918 539.351 714.715 539.351 704.596C539.351 694.478 531.156 686.275 521.044 686.275C510.934 686.275 502.738 694.478 502.738 704.596C502.738 714.715 510.934 722.918 521.044 722.918ZM539.351 704.596C539.351 694.478 531.156 686.275 521.044 686.275C510.934 686.275 502.738 694.478 502.738 704.596C502.738 714.715 510.934 722.918 521.044 722.918C531.156 722.918 539.351 714.715 539.351 704.596Z" fill="#00FFE0"/>
<path d="M1266.8 598.037C1276.91 598.037 1285.11 589.834 1285.11 579.715C1285.11 569.597 1276.91 561.394 1266.8 561.394C1256.69 561.394 1248.49 569.597 1248.49 579.715C1248.49 589.834 1256.69 598.037 1266.8 598.037ZM1285.11 579.715C1285.11 569.597 1276.91 561.394 1266.8 561.394C1256.69 561.394 1248.49 569.597 1248.49 579.715C1248.49 589.834 1256.69 598.037 1266.8 598.037C1276.91 598.037 1285.11 589.834 1285.11 579.715Z" fill="#00FFE0"/>
<path d="M1303.41 598.037C1313.52 598.037 1321.72 589.834 1321.72 579.715C1321.72 569.597 1313.52 561.394 1303.41 561.394C1293.3 561.394 1285.11 569.597 1285.11 579.715C1285.11 589.834 1293.3 598.037 1303.41 598.037ZM1321.72 579.715C1321.72 569.597 1313.52 561.394 1303.41 561.394C1293.3 561.394 1285.11 569.597 1285.11 579.715C1285.11 589.834 1293.3 598.037 1303.41 598.037C1313.52 598.037 1321.72 589.834 1321.72 579.715Z" fill="#00FFE0"/>
<path d="M557.657 722.918C567.767 722.918 575.963 714.715 575.963 704.596C575.963 694.478 567.767 686.275 557.657 686.275C547.548 686.275 539.352 694.478 539.352 704.596C539.352 714.715 547.548 722.918 557.657 722.918ZM575.963 704.596C575.963 694.478 567.767 686.275 557.657 686.275C547.548 686.275 539.352 694.478 539.352 704.596C539.352 714.715 547.548 722.918 557.657 722.918C567.767 722.918 575.963 714.715 575.963 704.596Z" fill="#00FFE0"/>
<path d="M551.911 497.279C553.345 497.279 554.516 497.166 555.419 496.936C556.317 496.684 557.016 496.299 557.509 495.774C558.003 495.249 558.329 494.579 558.491 493.765C558.68 492.93 558.77 491.912 558.77 490.723V490H564V535H558.586V501.954H550V497.279H551.911Z" fill="white"/>
<path d="M515.906 497.279C517.345 497.279 518.511 497.166 519.414 496.936C520.317 496.684 521.016 496.299 521.509 495.774C521.998 495.249 522.329 494.579 522.491 493.765C522.675 492.93 522.77 491.912 522.77 490.723V490H528V535H522.586V501.954H514V497.279H515.906Z" fill="white"/>
<path d="M1297.91 497.279C1299.35 497.279 1300.51 497.166 1301.41 496.936C1302.32 496.684 1303.02 496.299 1303.51 495.774C1304 495.249 1304.33 494.579 1304.49 493.765C1304.68 492.93 1304.77 491.912 1304.77 490.723V490H1310V535H1304.59V501.954H1296V497.279H1297.91Z" fill="white"/>
<path d="M478.906 497.279C480.345 497.279 481.511 497.166 482.414 496.936C483.317 496.684 484.016 496.299 484.509 495.774C484.998 495.249 485.329 494.579 485.491 493.765C485.675 492.93 485.77 491.912 485.77 490.723V490H491V535H485.586V501.954H477V497.279H478.906Z" fill="white"/>
<path d="M1261.91 497.279C1263.35 497.279 1264.51 497.166 1265.41 496.936C1266.32 496.684 1267.02 496.299 1267.51 495.774C1268 495.249 1268.33 494.579 1268.49 493.765C1268.68 492.93 1268.77 491.912 1268.77 490.723V490H1274V535H1268.59V501.954H1260V497.279H1261.91Z" fill="white"/>
</g>
<defs>
<clipPath id="clip0_1020_2">
<rect width="1920" height="1280" fill="white"/>
</clipPath>
</defs>
</svg>
