<svg width="834" height="345" viewBox="0 0 834 345" fill="none" xmlns="http://www.w3.org/2000/svg">
<rect x="0.0932617" y="0.28418" width="833.754" height="344.398" fill="#1D70B8"/>
<path d="M199.435 105.908L199.435 241.058" stroke="#D7DEE5" stroke-dasharray="1.02 1.02"/>
<path d="M215.84 105.908L215.84 241.058" stroke="#D7DEE5" stroke-dasharray="1.02 1.02"/>
<path d="M232.275 105.908L232.275 241.058" stroke="#D7DEE5" stroke-dasharray="1.02 1.02"/>
<path d="M567.039 105.908L567.039 241.058" stroke="#D7DEE5" stroke-dasharray="1.02 1.02"/>
<path d="M135.996 105.908L135.996 241.058" stroke="#5694CA" stroke-dasharray="1.02 1.02"/>
<path d="M119.562 105.908L119.562 241.058" stroke="#5694CA" stroke-dasharray="1.02 1.02"/>
<path d="M248.435 105.908L248.435 241.058" stroke="#D7DEE5" stroke-dasharray="1.02 1.02"/>
<path d="M550.435 105.908L550.435 241.058" stroke="#D7DEE5" stroke-dasharray="1.02 1.02"/>
<path d="M583.435 105.908L583.435 241.058" stroke="#D7DEE5" stroke-dasharray="1.02 1.02"/>
<path d="M567.039 203.655C576.14 203.655 583.517 196.277 583.517 187.177C583.517 178.077 576.14 170.699 567.039 170.699C557.939 170.699 550.562 178.077 550.562 187.177C550.562 196.277 557.939 203.655 567.039 203.655Z" fill="white"/>
<path d="M269.187 187.45C269.187 191.624 269.709 195.641 270.753 199.498C271.796 203.354 273.383 206.757 275.518 209.706C277.651 212.657 280.372 215.028 283.685 216.82C286.998 218.612 290.946 219.509 295.53 219.509C300.113 219.509 303.596 218.806 306.523 217.4C309.449 215.994 311.786 214.235 313.533 212.123C315.279 210.014 316.504 207.735 317.209 205.284C317.912 202.834 318.263 200.565 318.263 198.477V197.524H293.284V182.483H337.457V235.981H320.17V224.545C318.945 226.452 317.423 228.187 315.61 229.753C313.794 231.317 311.753 232.657 309.482 233.768C307.213 234.88 304.728 235.754 302.03 236.389C299.33 237.024 296.459 237.342 293.42 237.342C286.295 237.342 279.966 236.049 274.431 233.462C268.895 230.875 264.232 227.314 260.443 222.776C256.654 218.239 253.774 212.93 251.799 206.849C249.825 200.769 248.838 194.213 248.838 187.178C248.838 180.142 249.938 173.646 252.139 167.543C254.34 161.44 257.471 156.131 261.534 151.615C265.595 147.1 270.494 143.54 276.234 140.93C281.974 138.32 288.406 137.015 295.531 137.015C300.159 137.015 304.55 137.548 308.701 138.614C312.854 139.681 316.642 141.201 320.068 143.174C323.493 145.147 326.522 147.531 329.155 150.32C331.785 153.11 333.919 156.209 335.554 159.612L318.265 169.343C317.221 167.257 315.995 165.317 314.589 163.523C313.181 161.733 311.56 160.188 309.723 158.895C307.885 157.602 305.787 156.581 303.428 155.833C301.067 155.085 298.436 154.709 295.533 154.709C290.95 154.709 287.002 155.607 283.688 157.399C280.375 159.191 277.654 161.562 275.521 164.512C273.388 167.461 271.801 170.876 270.757 174.756C269.713 178.636 269.191 182.642 269.191 186.769V187.45H269.187Z" fill="white"/>
<path d="M400.32 137.013C407.58 137.013 414.092 138.318 419.855 140.928C425.617 143.538 430.508 147.098 434.524 151.614C438.539 156.129 441.603 161.438 443.712 167.541C445.822 173.644 446.876 180.19 446.876 187.176C446.876 194.161 445.822 200.767 443.712 206.847C441.603 212.928 438.539 218.237 434.524 222.774C430.51 227.311 425.619 230.873 419.855 233.46C414.093 236.047 407.58 237.34 400.32 237.34C393.061 237.34 386.491 236.047 380.752 233.46C375.012 230.873 370.135 227.312 366.12 222.774C362.104 218.237 359.041 212.928 356.932 206.847C354.822 200.767 353.767 194.211 353.767 187.176C353.767 180.14 354.822 173.644 356.932 167.541C359.041 161.438 362.104 156.129 366.12 151.614C370.135 147.098 375.012 143.538 380.752 140.928C386.493 138.318 393.014 137.013 400.32 137.013ZM400.32 219.508C404.586 219.508 408.341 218.703 411.585 217.09C414.828 215.481 417.564 213.245 419.785 210.388C422.01 207.528 423.689 204.149 424.822 200.245C425.956 196.344 426.525 192.078 426.525 187.45V186.905C426.525 182.321 425.956 178.067 424.822 174.142C423.689 170.217 422.01 166.824 419.785 163.967C417.563 161.109 414.828 158.875 411.585 157.262C408.341 155.653 404.586 154.847 400.32 154.847C396.055 154.847 392.289 155.653 389.021 157.262C385.754 158.875 383.021 161.109 380.82 163.967C378.619 166.824 376.952 170.219 375.818 174.142C374.685 178.067 374.116 182.321 374.116 186.905V187.45C374.116 192.078 374.685 196.344 375.818 200.245C376.952 204.149 378.619 207.527 380.82 210.388C383.021 213.245 385.754 215.481 389.021 217.09C392.289 218.703 396.055 219.508 400.32 219.508Z" fill="white"/>
<path d="M481.675 235.979L454.109 138.376H476.23L495.085 211.748H495.765L514.211 138.376H536.058L508.493 235.979H481.676H481.675Z" fill="white"/>
<path d="M647.853 219.508C650.711 219.508 653.377 219.089 655.849 218.249C658.323 217.41 660.456 216.14 662.248 214.438C664.038 212.735 665.458 210.582 666.502 207.971C667.544 205.363 668.066 202.289 668.066 198.75V138.238H687.465V201.674C687.465 207.12 686.479 212.044 684.507 216.444C682.536 220.846 679.793 224.59 676.278 227.675C672.764 230.762 668.582 233.143 663.732 234.822C658.881 236.499 653.577 237.34 647.82 237.34C642.063 237.34 636.757 236.499 631.907 234.822C627.055 233.143 622.862 230.761 619.325 227.675C615.787 224.59 613.034 220.848 611.061 216.444C609.089 212.044 608.104 207.118 608.104 201.674V138.238H627.638V198.748C627.638 202.287 628.16 205.361 629.203 207.969C630.247 210.581 631.665 212.734 633.457 214.436C635.249 216.138 637.382 217.408 639.855 218.248C642.329 219.087 644.995 219.506 647.853 219.506V219.508Z" fill="white"/>
<path d="M704.973 138.374H724.712V180.64L759.561 138.374H783.861L749.964 177.169L786.038 235.977H763.102L737.305 192.211L724.712 206.3V235.977H704.973V138.374Z" fill="white"/>
<path d="M101.493 153.891C106.031 153.891 109.71 150.212 109.71 145.673C109.71 141.135 106.031 137.456 101.493 137.456C96.9544 137.456 93.2754 141.135 93.2754 145.673C93.2754 150.212 96.9544 153.891 101.493 153.891Z" fill="white"/>
<path d="M79.3862 167.132C83.9244 167.132 87.6034 163.453 87.6034 158.915C87.6034 154.376 83.9244 150.697 79.3862 150.697C74.8479 150.697 71.1689 154.376 71.1689 158.915C71.1689 163.453 74.8479 167.132 79.3862 167.132Z" fill="white"/>
<path d="M64.7602 188.905C69.2985 188.905 72.9774 185.226 72.9774 180.688C72.9774 176.15 69.2985 172.471 64.7602 172.471C60.2219 172.471 56.543 176.15 56.543 180.688C56.543 185.226 60.2219 188.905 64.7602 188.905Z" fill="white"/>
<path d="M127.777 183.152C132.315 183.152 135.994 179.473 135.994 174.935C135.994 170.397 132.315 166.718 127.777 166.718C123.239 166.718 119.56 170.397 119.56 174.935C119.56 179.473 123.239 183.152 127.777 183.152Z" fill="white"/>
<path d="M154.035 153.891C158.573 153.891 162.252 150.212 162.252 145.673C162.252 141.135 158.573 137.456 154.035 137.456C149.496 137.456 145.817 141.135 145.817 145.673C145.817 150.212 149.496 153.891 154.035 153.891Z" fill="white"/>
<path d="M176.143 167.132C180.681 167.132 184.36 163.453 184.36 158.915C184.36 154.376 180.681 150.697 176.143 150.697C171.605 150.697 167.926 154.376 167.926 158.915C167.926 163.453 171.605 167.132 176.143 167.132Z" fill="white"/>
<path d="M190.769 188.905C195.307 188.905 198.986 185.226 198.986 180.688C198.986 176.15 195.307 172.471 190.769 172.471C186.23 172.471 182.551 176.15 182.551 180.688C182.551 185.226 186.23 188.905 190.769 188.905Z" fill="white"/>
<path d="M127.777 183.152C132.315 183.152 135.994 179.473 135.994 174.935C135.994 170.397 132.315 166.718 127.777 166.718C123.239 166.718 119.56 170.397 119.56 174.935C119.56 179.473 123.239 183.152 127.777 183.152Z" fill="white"/>
<path d="M131.09 128.075C131.506 127.763 131.875 127.394 132.187 126.978L142.641 132.466V117.059L132.202 120.372C131.898 119.965 131.537 119.6 131.133 119.29L135.334 106.059H120.22L124.421 119.29C124.017 119.599 123.658 119.963 123.352 120.372L112.914 117.059V132.466L123.367 126.978C123.679 127.394 124.048 127.763 124.464 128.075L118.509 146.031C116.413 152.351 121.119 158.87 127.777 158.87C134.435 158.87 139.141 152.351 137.045 146.031L131.09 128.075Z" fill="white"/>
<path d="M139.723 191.299C139.723 191.299 132.091 199.793 130.425 204.974C135.421 204.816 139.909 203.844 144.848 198.687L143.174 217.873C138.627 211.494 133.296 208.745 130.34 209.295C130.639 216.171 131.359 224.476 143.398 225.57C151.798 226.3 158.543 222.173 159.244 217.068C160.077 211.203 154.792 207.323 150.808 213.497C147.692 203.28 156.299 199.884 161.826 206.209C157.57 196.127 157.683 188.964 167.149 181.721C173.94 190.749 172.977 198.212 164.559 206.613C170.04 203.581 178.551 206.771 173.538 217.013C170.919 210.643 165.297 212.066 164.119 217.547C163.332 221.419 165.681 225.974 170.788 226.908C174.979 227.676 181.432 224.813 186.606 213.67C183.697 213.745 181.143 215.215 177.842 217.487L183.268 199.399C184.634 204.476 186.383 207.809 188.235 209.611C189.478 205.957 189.301 203.307 188.188 197.613L199.405 201.606C193.447 209.734 187.675 221.139 182.942 241.058C166.255 238.676 147.574 237.338 127.78 237.338C107.988 237.338 89.3056 238.678 72.6185 241.058C67.8856 221.138 62.1138 209.732 56.1558 201.606L67.372 197.613C66.2582 203.307 66.0819 205.957 67.3254 209.611C69.1773 207.809 70.9262 204.476 72.2927 199.399L77.7187 217.487C74.4172 215.213 71.8638 213.745 68.9546 213.67C74.1279 224.813 80.5814 227.674 84.7723 226.908C89.8792 225.974 92.2265 221.419 91.4418 217.547C90.2632 212.066 84.6426 210.643 82.0227 217.013C77.0089 206.771 85.5204 203.58 91.0013 206.613C82.5829 198.212 81.6187 190.748 88.4113 181.721C97.877 188.962 97.99 196.125 93.7343 206.209C99.2617 199.886 107.868 203.28 104.753 213.497C100.768 207.323 95.4831 211.203 96.316 217.068C97.0175 222.175 103.762 226.301 112.162 225.57C124.201 224.476 124.921 216.171 125.22 209.295C122.264 208.745 116.933 211.493 112.386 217.873L110.712 198.687C115.651 203.844 120.141 204.815 125.135 204.974C123.47 199.793 115.838 191.299 115.838 191.299H139.729H139.723Z" fill="white"/>
<path d="M127.779 183.151C132.317 183.151 135.996 179.472 135.996 174.934C135.996 170.396 132.317 166.717 127.779 166.717C123.241 166.717 119.562 170.396 119.562 174.934C119.562 179.472 123.241 183.151 127.779 183.151ZM135.996 174.934C135.996 170.396 132.317 166.717 127.779 166.717C123.241 166.717 119.562 170.396 119.562 174.934C119.562 179.472 123.241 183.151 127.779 183.151C132.317 183.151 135.996 179.472 135.996 174.934Z" fill="#00FFE0"/>
<path d="M207.623 210.818C212.162 210.818 215.841 207.139 215.841 202.601C215.841 198.063 212.162 194.384 207.623 194.384C203.085 194.384 199.406 198.063 199.406 202.601C199.406 207.139 203.085 210.818 207.623 210.818ZM215.841 202.601C215.841 198.063 212.162 194.384 207.623 194.384C203.085 194.384 199.406 198.063 199.406 202.601C199.406 207.139 203.085 210.818 207.623 210.818C212.162 210.818 215.841 207.139 215.841 202.601Z" fill="#00FFE0"/>
<path d="M224.057 210.818C228.596 210.818 232.275 207.139 232.275 202.601C232.275 198.063 228.596 194.384 224.057 194.384C219.519 194.384 215.84 198.063 215.84 202.601C215.84 207.139 219.519 210.818 224.057 210.818ZM232.275 202.601C232.275 198.063 228.596 194.384 224.057 194.384C219.519 194.384 215.84 198.063 215.84 202.601C215.84 207.139 219.519 210.818 224.057 210.818C228.596 210.818 232.275 207.139 232.275 202.601Z" fill="#00FFE0"/>
<path d="M558.814 154.81C563.352 154.81 567.031 151.131 567.031 146.593C567.031 142.055 563.352 138.376 558.814 138.376C554.276 138.376 550.597 142.055 550.597 146.593C550.597 151.131 554.276 154.81 558.814 154.81ZM567.031 146.593C567.031 142.055 563.352 138.376 558.814 138.376C554.276 138.376 550.597 142.055 550.597 146.593C550.597 151.131 554.276 154.81 558.814 154.81C563.352 154.81 567.031 151.131 567.031 146.593Z" fill="#00FFE0"/>
<path d="M575.248 154.81C579.787 154.81 583.466 151.131 583.466 146.593C583.466 142.055 579.787 138.376 575.248 138.376C570.71 138.376 567.031 142.055 567.031 146.593C567.031 151.131 570.71 154.81 575.248 154.81ZM583.466 146.593C583.466 142.055 579.787 138.376 575.248 138.376C570.71 138.376 567.031 142.055 567.031 146.593C567.031 151.131 570.71 154.81 575.248 154.81C579.787 154.81 583.466 151.131 583.466 146.593Z" fill="#00FFE0"/>
<path d="M240.492 210.818C245.03 210.818 248.709 207.139 248.709 202.601C248.709 198.063 245.03 194.384 240.492 194.384C235.954 194.384 232.275 198.063 232.275 202.601C232.275 207.139 235.954 210.818 240.492 210.818ZM248.709 202.601C248.709 198.063 245.03 194.384 240.492 194.384C235.954 194.384 232.275 198.063 232.275 202.601C232.275 207.139 235.954 210.818 240.492 210.818C245.03 210.818 248.709 207.139 248.709 202.601Z" fill="#00FFE0"/>
<path d="M557.254 107.951C557.528 107.951 557.75 107.93 557.922 107.887C558.094 107.84 558.227 107.768 558.321 107.67C558.415 107.572 558.477 107.447 558.508 107.295C558.543 107.139 558.561 106.949 558.561 106.727V106.592H559.557V114.994H558.526V108.824H556.891V107.951H557.254Z" fill="white"/>
<path d="M238.873 107.865C239.146 107.865 239.369 107.844 239.541 107.801C239.712 107.754 239.845 107.682 239.939 107.584C240.033 107.486 240.095 107.361 240.126 107.209C240.162 107.053 240.179 106.863 240.179 106.641V106.506H241.175V114.908H240.144V108.738H238.509V107.865H238.873Z" fill="white"/>
<path d="M222.575 107.865C222.849 107.865 223.071 107.844 223.243 107.801C223.415 107.754 223.548 107.682 223.642 107.584C223.735 107.486 223.798 107.361 223.829 107.209C223.864 107.053 223.882 106.863 223.882 106.641V106.506H224.878V114.908H223.847V108.738H222.212V107.865H222.575Z" fill="white"/>
<path d="M206.155 107.865C206.429 107.865 206.651 107.844 206.823 107.801C206.995 107.754 207.128 107.682 207.222 107.584C207.315 107.486 207.378 107.361 207.409 107.209C207.444 107.053 207.462 106.863 207.462 106.641V106.506H208.458V114.908H207.427V108.738H205.792V107.865H206.155Z" fill="white"/>
<path d="M573.75 107.951C574.024 107.951 574.247 107.93 574.418 107.887C574.59 107.84 574.723 107.768 574.817 107.67C574.911 107.572 574.973 107.447 575.004 107.295C575.04 107.139 575.057 106.949 575.057 106.727V106.592H576.053V114.994H575.022V108.824H573.387V107.951H573.75Z" fill="white"/>
</svg>
