<svg width="480" height="320" viewBox="0 0 480 320" fill="none" xmlns="http://www.w3.org/2000/svg">
<g clip-path="url(#clip0_1020_2)">
<rect width="480" height="320" fill="white"/>
<path d="M480 0H0V320H480V0Z" fill="#1D70B8"/>
<path d="M116.548 122.25V197.586" stroke="#D7DEE5" stroke-dasharray="1 1"/>
<path d="M125.685 122.25V197.586" stroke="#D7DEE5" stroke-dasharray="1 1"/>
<path d="M134.838 122.25V197.586" stroke="#D7DEE5" stroke-dasharray="1 1"/>
<path d="M321.281 122.25V197.586" stroke="#D7DEE5" stroke-dasharray="1 1"/>
<path d="M81.2158 122.25V197.586" stroke="#5694CA" stroke-width="0.25" stroke-dasharray="0.25 0.25"/>
<path d="M72.0635 122.25V197.586" stroke="#5694CA" stroke-width="0.25" stroke-dasharray="0.25 0.25"/>
<path d="M143.838 122.25V197.586" stroke="#D7DEE5" stroke-dasharray="1 1"/>
<path d="M312.033 122.25V197.586" stroke="#D7DEE5" stroke-dasharray="1 1"/>
<path d="M330.412 122.25V197.586" stroke="#D7DEE5" stroke-dasharray="1 1"/>
<path d="M321.28 176.737C326.349 176.737 330.457 172.624 330.457 167.551C330.457 162.479 326.349 158.366 321.28 158.366C316.212 158.366 312.104 162.479 312.104 167.551C312.104 172.624 316.212 176.737 321.28 176.737Z" fill="white"/>
<path d="M155.396 167.703C155.396 170.03 155.686 172.269 156.268 174.419C156.849 176.569 157.733 178.466 158.922 180.11C160.11 181.754 161.625 183.076 163.47 184.075C165.315 185.074 167.514 185.574 170.067 185.574C172.62 185.574 174.559 185.182 176.19 184.398C177.819 183.615 179.121 182.634 180.094 181.457C181.066 180.281 181.748 179.011 182.141 177.645C182.533 176.279 182.728 175.014 182.728 173.85V173.319H168.816V164.935H193.418V194.756H183.79V188.381C183.108 189.444 182.26 190.411 181.25 191.284C180.239 192.156 179.102 192.903 177.838 193.522C176.574 194.142 175.19 194.629 173.687 194.983C172.183 195.337 170.585 195.514 168.892 195.514C164.924 195.514 161.399 194.794 158.316 193.352C155.233 191.91 152.636 189.925 150.526 187.395C148.416 184.866 146.812 181.907 145.712 178.517C144.612 175.128 144.062 171.473 144.062 167.552C144.062 163.63 144.675 160.009 145.901 156.607C147.127 153.205 148.871 150.246 151.133 147.728C153.395 145.211 156.124 143.227 159.32 141.772C162.517 140.317 166.099 139.59 170.068 139.59C172.645 139.59 175.091 139.887 177.403 140.481C179.716 141.076 181.825 141.923 183.733 143.023C185.641 144.123 187.328 145.452 188.794 147.006C190.259 148.562 191.447 150.289 192.358 152.186L182.729 157.61C182.148 156.447 181.465 155.366 180.682 154.366C179.898 153.368 178.995 152.507 177.972 151.786C176.948 151.065 175.78 150.496 174.466 150.079C173.151 149.662 171.686 149.453 170.069 149.453C167.516 149.453 165.318 149.953 163.472 150.952C161.627 151.951 160.111 153.273 158.923 154.917C157.735 156.561 156.851 158.465 156.27 160.628C155.689 162.79 155.398 165.023 155.398 167.324V167.703H155.396Z" fill="white"/>
<path d="M228.429 139.589C232.473 139.589 236.099 140.316 239.309 141.771C242.518 143.226 245.242 145.21 247.479 147.728C249.715 150.244 251.421 153.204 252.596 156.606C253.771 160.008 254.358 163.657 254.358 167.551C254.358 171.444 253.771 175.127 252.596 178.516C251.421 181.906 249.715 184.865 247.479 187.394C245.243 189.923 242.519 191.909 239.309 193.351C236.1 194.793 232.473 195.513 228.429 195.513C224.386 195.513 220.727 194.793 217.531 193.351C214.334 191.909 211.618 189.924 209.382 187.394C207.145 184.865 205.439 181.906 204.265 178.516C203.09 175.127 202.502 171.472 202.502 167.551C202.502 163.629 203.09 160.008 204.265 156.606C205.439 153.204 207.145 150.244 209.382 147.728C211.618 145.21 214.334 143.226 217.531 141.771C220.728 140.316 224.36 139.589 228.429 139.589ZM228.429 185.573C230.805 185.573 232.896 185.125 234.703 184.226C236.509 183.329 238.033 182.082 239.27 180.49C240.509 178.896 241.444 177.012 242.075 174.836C242.707 172.661 243.024 170.283 243.024 167.704V167.4C243.024 164.845 242.707 162.473 242.075 160.285C241.444 158.097 240.509 156.206 239.27 154.614C238.032 153.02 236.509 151.775 234.703 150.876C232.896 149.979 230.805 149.53 228.429 149.53C226.054 149.53 223.956 149.979 222.136 150.876C220.317 151.775 218.795 153.02 217.569 154.614C216.343 156.206 215.415 158.099 214.783 160.285C214.152 162.473 213.835 164.845 213.835 167.4V167.704C213.835 170.283 214.152 172.661 214.783 174.836C215.415 177.012 216.343 178.895 217.569 180.49C218.795 182.082 220.317 183.329 222.136 184.226C223.956 185.125 226.054 185.573 228.429 185.573Z" fill="white"/>
<path d="M273.738 194.755L258.386 140.349H270.706L281.207 181.248H281.586L291.859 140.349H304.026L288.674 194.755H273.739H273.738Z" fill="white"/>
<path d="M366.289 185.573C367.881 185.573 369.366 185.34 370.742 184.872C372.12 184.404 373.308 183.696 374.306 182.747C375.303 181.798 376.094 180.598 376.676 179.142C377.256 177.689 377.547 175.975 377.547 174.002V140.272H388.351V175.632C388.351 178.668 387.801 181.413 386.703 183.866C385.605 186.319 384.078 188.406 382.12 190.126C380.163 191.847 377.834 193.174 375.133 194.11C372.431 195.045 369.477 195.513 366.271 195.513C363.064 195.513 360.109 195.045 357.408 194.11C354.706 193.174 352.371 191.846 350.401 190.126C348.43 188.406 346.897 186.32 345.798 183.866C344.7 181.413 344.151 178.667 344.151 175.632V140.272H355.031V174.001C355.031 175.974 355.321 177.688 355.902 179.141C356.484 180.597 357.273 181.798 358.271 182.746C359.269 183.695 360.457 184.403 361.835 184.871C363.213 185.339 364.697 185.572 366.289 185.572V185.573Z" fill="white"/>
<path d="M398.102 140.347H409.095V163.908L428.504 140.347H442.037L423.159 161.973L443.25 194.754H430.476L416.109 170.358L409.095 178.211V194.754H398.102V140.347Z" fill="white"/>
<path d="M62.0005 148.997C64.5279 148.997 66.5769 146.946 66.5769 144.416C66.5769 141.886 64.5279 139.836 62.0005 139.836C59.4728 139.836 57.4238 141.886 57.4238 144.416C57.4238 146.946 59.4728 148.997 62.0005 148.997Z" fill="white"/>
<path d="M49.6879 156.378C52.2154 156.378 54.2643 154.327 54.2643 151.797C54.2643 149.267 52.2154 147.216 49.6879 147.216C47.1603 147.216 45.1113 149.267 45.1113 151.797C45.1113 154.327 47.1603 156.378 49.6879 156.378Z" fill="white"/>
<path d="M41.5423 168.515C44.0699 168.515 46.1188 166.464 46.1188 163.934C46.1188 161.405 44.0699 159.354 41.5423 159.354C39.0147 159.354 36.9658 161.405 36.9658 163.934C36.9658 166.464 39.0147 168.515 41.5423 168.515Z" fill="white"/>
<path d="M76.6389 165.308C79.1663 165.308 81.2152 163.257 81.2152 160.727C81.2152 158.198 79.1663 156.147 76.6389 156.147C74.1115 156.147 72.0625 158.198 72.0625 160.727C72.0625 163.257 74.1115 165.308 76.6389 165.308Z" fill="white"/>
<path d="M91.2625 148.997C93.7899 148.997 95.8388 146.946 95.8388 144.416C95.8388 141.886 93.7899 139.836 91.2625 139.836C88.7345 139.836 86.6855 141.886 86.6855 144.416C86.6855 146.946 88.7345 148.997 91.2625 148.997Z" fill="white"/>
<path d="M103.575 156.378C106.103 156.378 108.152 154.327 108.152 151.797C108.152 149.267 106.103 147.216 103.575 147.216C101.048 147.216 98.999 149.267 98.999 151.797C98.999 154.327 101.048 156.378 103.575 156.378Z" fill="white"/>
<path d="M111.721 168.515C114.249 168.515 116.298 166.464 116.298 163.934C116.298 161.405 114.249 159.354 111.721 159.354C109.194 159.354 107.145 161.405 107.145 163.934C107.145 166.464 109.194 168.515 111.721 168.515Z" fill="white"/>
<path d="M76.6389 165.308C79.1663 165.308 81.2152 163.257 81.2152 160.727C81.2152 158.198 79.1663 156.147 76.6389 156.147C74.1115 156.147 72.0625 158.198 72.0625 160.727C72.0625 163.257 74.1115 165.308 76.6389 165.308Z" fill="white"/>
<path d="M78.4843 134.606C78.7159 134.433 78.9214 134.227 79.0952 133.995L84.9175 137.054V128.466L79.1036 130.313C78.9343 130.086 78.7332 129.882 78.5082 129.71L80.8479 122.334H72.4303L74.77 129.71C74.545 129.882 74.3451 130.085 74.1747 130.313L68.3613 128.466V137.054L74.183 133.995C74.3568 134.227 74.5623 134.433 74.794 134.606L71.4774 144.616C70.3101 148.139 72.931 151.772 76.6391 151.772C80.3472 151.772 82.9682 148.139 81.8008 144.616L78.4843 134.606Z" fill="white"/>
<path d="M83.2919 169.849C83.2919 169.849 79.0413 174.584 78.1134 177.472C80.8959 177.384 83.3954 176.842 86.1462 173.967L85.2138 184.662C82.6814 181.106 79.7124 179.574 78.0661 179.88C78.2326 183.713 78.6336 188.343 85.3386 188.953C90.0169 189.36 93.7734 187.059 94.1639 184.213C94.6278 180.944 91.6844 178.781 89.4655 182.223C87.7301 176.528 92.5237 174.635 95.6019 178.16C93.2315 172.54 93.2945 168.547 98.5665 164.51C102.349 169.542 101.812 173.703 97.124 178.385C100.177 176.695 104.917 178.474 102.125 184.183C100.666 180.632 97.535 181.425 96.8789 184.48C96.4406 186.639 97.7489 189.178 100.593 189.698C102.927 190.127 106.521 188.531 109.403 182.319C107.783 182.361 106.36 183.18 104.522 184.447L107.544 174.364C108.305 177.194 109.279 179.052 110.31 180.057C111.002 178.02 110.904 176.543 110.284 173.369L116.531 175.594C113.213 180.125 109.998 186.483 107.362 197.586C98.0686 196.258 87.6644 195.512 76.6403 195.512C65.6174 195.512 55.2124 196.259 45.9187 197.586C43.2828 186.482 40.0682 180.124 36.75 175.594L42.9967 173.369C42.3764 176.543 42.2782 178.02 42.9708 180.057C44.0022 179.052 44.9762 177.194 45.7373 174.364L48.7592 184.447C46.9205 183.179 45.4984 182.361 43.8782 182.319C46.7594 188.531 50.3536 190.125 52.6877 189.698C55.5319 189.178 56.8392 186.639 56.4022 184.48C55.7457 181.425 52.6154 180.632 51.1563 184.183C48.3639 178.474 53.1043 176.695 56.1568 178.385C51.4683 173.703 50.9313 169.542 54.7144 164.51C59.9862 168.546 60.0491 172.539 57.6789 178.16C60.7574 174.636 65.5506 176.528 63.8157 182.223C61.5963 178.781 58.6529 180.944 59.1168 184.213C59.5075 187.06 63.2638 189.36 67.942 188.953C74.647 188.343 75.048 183.713 75.2146 179.88C73.5682 179.574 70.5992 181.106 68.0668 184.662L67.1345 173.967C69.8852 176.842 72.3859 177.383 75.1672 177.472C74.2399 174.584 69.9894 169.849 69.9894 169.849H83.2952H83.2919Z" fill="white"/>
<path d="M76.6398 165.307C79.1672 165.307 81.2162 163.256 81.2162 160.727C81.2162 158.197 79.1672 156.147 76.6398 156.147C74.1125 156.147 72.0635 158.197 72.0635 160.727C72.0635 163.256 74.1125 165.307 76.6398 165.307ZM81.2162 160.727C81.2162 158.197 79.1672 156.147 76.6398 156.147C74.1125 156.147 72.0635 158.197 72.0635 160.727C72.0635 163.256 74.1125 165.307 76.6398 165.307C79.1672 165.307 81.2162 163.256 81.2162 160.727Z" fill="#00FFE0"/>
<path d="M121.108 180.729C123.636 180.729 125.685 178.679 125.685 176.149C125.685 173.62 123.636 171.569 121.108 171.569C118.58 171.569 116.531 173.62 116.531 176.149C116.531 178.679 118.58 180.729 121.108 180.729ZM125.685 176.149C125.685 173.62 123.636 171.569 121.108 171.569C118.58 171.569 116.531 173.62 116.531 176.149C116.531 178.679 118.58 180.729 121.108 180.729C123.636 180.729 125.685 178.679 125.685 176.149Z" fill="#00FFE0"/>
<path d="M130.261 180.729C132.789 180.729 134.838 178.679 134.838 176.149C134.838 173.62 132.789 171.569 130.261 171.569C127.734 171.569 125.685 173.62 125.685 176.149C125.685 178.679 127.734 180.729 130.261 180.729ZM134.838 176.149C134.838 173.62 132.789 171.569 130.261 171.569C127.734 171.569 125.685 173.62 125.685 176.149C125.685 178.679 127.734 180.729 130.261 180.729C132.789 180.729 134.838 178.679 134.838 176.149Z" fill="#00FFE0"/>
<path d="M316.699 149.509C319.227 149.509 321.276 147.458 321.276 144.929C321.276 142.399 319.227 140.349 316.699 140.349C314.172 140.349 312.123 142.399 312.123 144.929C312.123 147.458 314.172 149.509 316.699 149.509ZM321.276 144.929C321.276 142.399 319.227 140.349 316.699 140.349C314.172 140.349 312.123 142.399 312.123 144.929C312.123 147.458 314.172 149.509 316.699 149.509C319.227 149.509 321.276 147.458 321.276 144.929Z" fill="#00FFE0"/>
<path d="M325.853 149.509C328.381 149.509 330.43 147.458 330.43 144.929C330.43 142.399 328.381 140.349 325.853 140.349C323.325 140.349 321.276 142.399 321.276 144.929C321.276 147.458 323.325 149.509 325.853 149.509ZM330.43 144.929C330.43 142.399 328.381 140.349 325.853 140.349C323.325 140.349 321.276 142.399 321.276 144.929C321.276 147.458 323.325 149.509 325.853 149.509C328.381 149.509 330.43 147.458 330.43 144.929Z" fill="#00FFE0"/>
<path d="M139.414 180.729C141.942 180.729 143.991 178.679 143.991 176.149C143.991 173.62 141.942 171.569 139.414 171.569C136.887 171.569 134.838 173.62 134.838 176.149C134.838 178.679 136.887 180.729 139.414 180.729ZM143.991 176.149C143.991 173.62 141.942 171.569 139.414 171.569C136.887 171.569 134.838 173.62 134.838 176.149C134.838 178.679 136.887 180.729 139.414 180.729C141.942 180.729 143.991 178.679 143.991 176.149Z" fill="#00FFE0"/>
<path d="M137.978 124.32C138.336 124.32 138.629 124.292 138.855 124.234C139.079 124.171 139.254 124.075 139.377 123.943C139.501 123.812 139.582 123.645 139.623 123.441C139.67 123.232 139.692 122.978 139.692 122.681V122.5H141V133.75H139.646V125.489H137.5V124.32H137.978Z" fill="white"/>
<path d="M128.977 124.32C129.336 124.32 129.628 124.292 129.854 124.234C130.079 124.171 130.254 124.075 130.377 123.943C130.499 123.812 130.582 123.645 130.623 123.441C130.669 123.232 130.692 122.978 130.692 122.681V122.5H132V133.75H130.646V125.489H128.5V124.32H128.977Z" fill="white"/>
<path d="M324.477 124.32C324.836 124.32 325.128 124.292 325.354 124.234C325.579 124.171 325.754 124.075 325.877 123.943C325.999 123.812 326.082 123.645 326.123 123.441C326.169 123.232 326.192 122.978 326.192 122.681V122.5H327.5V133.75H326.146V125.489H324V124.32H324.477Z" fill="white"/>
<path d="M119.727 124.32C120.086 124.32 120.378 124.292 120.604 124.234C120.829 124.171 121.004 124.075 121.127 123.943C121.249 123.812 121.332 123.645 121.373 123.441C121.419 123.232 121.442 122.978 121.442 122.681V122.5H122.75V133.75H121.396V125.489H119.25V124.32H119.727Z" fill="white"/>
<path d="M315.477 124.32C315.836 124.32 316.128 124.292 316.354 124.234C316.579 124.171 316.754 124.075 316.877 123.943C316.999 123.812 317.082 123.645 317.123 123.441C317.169 123.232 317.192 122.978 317.192 122.681V122.5H318.5V133.75H317.146V125.489H315V124.32H315.477Z" fill="white"/>
</g>
<defs>
<clipPath id="clip0_1020_2">
<rect width="480" height="320" fill="white"/>
</clipPath>
</defs>
</svg>
