<svg width="730" height="136" viewBox="0 0 730 136" fill="none" xmlns="http://www.w3.org/2000/svg">
<rect x="0" y="0" width="730" height="136" fill="#1D70B8">
<path d="M151.468 104.91C156.006 104.91 159.685 101.231 159.685 96.693C159.685 92.1547 156.006 88.4758 151.468 88.4758C146.929 88.4758 143.25 92.1547 143.25 96.693C143.25 101.231 146.929 104.91 151.468 104.91ZM159.685 96.693C159.685 92.1547 156.006 88.4758 151.468 88.4758C146.929 88.4758 143.25 92.1547 143.25 96.693C143.25 101.231 146.929 104.91 151.468 104.91C156.006 104.91 159.685 101.231 159.685 96.693Z" fill="#00FFE0"/>
<path d="M167.902 104.91C172.44 104.91 176.119 101.231 176.119 96.693C176.119 92.1547 172.44 88.4758 167.902 88.4758C163.363 88.4758 159.685 92.1547 159.685 96.693C159.685 101.231 163.363 104.91 167.902 104.91ZM176.119 96.693C176.119 92.1547 172.44 88.4758 167.902 88.4758C163.363 88.4758 159.685 92.1547 159.685 96.693C159.685 101.231 163.363 104.91 167.902 104.91C172.44 104.91 176.119 101.231 176.119 96.693Z" fill="#00FFE0"/>
<path d="M143.279 0L143.279 135.15" stroke="#5694CA" stroke-dasharray="1.02 1.02"/>
<path d="M159.685 0L159.685 135.15" stroke="#5694CA" stroke-dasharray="1.02 1.02"/>
<path d="M176.119 0L176.119 135.15" stroke="#5694CA" stroke-dasharray="1.02 1.02"/>
<path d="M510.883 0L510.883 135.15" stroke="#5694CA" stroke-dasharray="1.02 1.02"/>
<path d="M79.8403 0L79.8403 135.15" stroke="#5694CA" stroke-dasharray="1.02 1.02"/>
<path d="M63.4062 0L63.4063 135.15" stroke="#5694CA" stroke-dasharray="1.02 1.02"/>
<path d="M192.279 0L192.279 135.15" stroke="#5694CA" stroke-dasharray="1.02 1.02"/>
<path d="M494.279 0L494.279 135.15" stroke="#5694CA" stroke-dasharray="1.02 1.02"/>
<path d="M527.279 0L527.279 135.15" stroke="#5694CA" stroke-dasharray="1.02 1.02"/>
<path d="M510.883 97.7462C519.983 97.7462 527.361 90.3688 527.361 81.2685C527.361 72.1681 519.983 64.7908 510.883 64.7908C501.783 64.7908 494.405 72.1681 494.405 81.2685C494.405 90.3688 501.783 97.7462 510.883 97.7462Z" fill="white"/>
<path d="M213.031 81.5411C213.031 85.7154 213.553 89.7318 214.597 93.5885C215.639 97.4453 217.227 100.848 219.361 103.797C221.494 106.748 224.216 109.119 227.529 110.911C230.842 112.703 234.79 113.6 239.373 113.6C243.957 113.6 247.439 112.897 250.367 111.491C253.293 110.084 255.63 108.326 257.377 106.214C259.123 104.105 260.348 101.826 261.053 99.3753C261.756 96.925 262.107 94.6558 262.107 92.5678V91.6153H237.128V76.5739H281.301V130.072H264.013V118.636C262.788 120.543 261.267 122.278 259.454 123.844C257.638 125.408 255.597 126.748 253.326 127.859C251.057 128.971 248.571 129.845 245.873 130.48C243.174 131.115 240.303 131.433 237.264 131.433C230.139 131.433 223.81 130.14 218.274 127.553C212.738 124.966 208.075 121.405 204.287 116.867C200.498 112.33 197.617 107.021 195.642 100.94C193.669 94.8602 192.682 88.3038 192.682 81.2685C192.682 74.2332 193.782 67.7366 195.983 61.6339C198.184 55.5312 201.314 50.2215 205.377 45.7065C209.439 41.1914 214.338 37.6305 220.078 35.0206C225.818 32.4106 232.25 31.1056 239.375 31.1056C244.003 31.1056 248.394 31.6393 252.545 32.7049C256.697 33.7721 260.486 35.2916 263.912 37.2648C267.337 39.2381 270.365 41.622 272.999 44.4115C275.629 47.201 277.763 50.2997 279.397 53.7026L262.108 63.4343C261.064 61.348 259.839 59.408 258.433 57.6142C257.025 55.8238 255.404 54.2795 253.567 52.9861C251.728 51.6928 249.63 50.6721 247.271 49.924C244.911 49.1759 242.279 48.8002 239.377 48.8002C234.794 48.8002 230.845 49.6979 227.532 51.49C224.219 53.282 221.498 55.6526 219.365 58.6034C217.232 61.5525 215.644 64.967 214.6 68.8471C213.556 72.7271 213.034 76.7335 213.034 80.8595V81.5411H213.031Z" fill="white"/>
<path d="M344.164 31.104C351.424 31.104 357.935 32.4089 363.699 35.0189C369.461 37.6289 374.352 41.1897 378.368 45.7048C382.383 50.2199 385.446 55.5296 387.556 61.6322C389.666 67.7349 390.72 74.2814 390.72 81.2668C390.72 88.2522 389.666 94.8586 387.556 100.938C385.446 107.019 382.383 112.329 378.368 116.865C374.353 121.402 369.463 124.965 363.699 127.551C357.937 130.138 351.424 131.431 344.164 131.431C336.904 131.431 330.335 130.138 324.596 127.551C318.856 124.965 313.978 121.404 309.964 116.865C305.947 112.329 302.885 107.019 300.776 100.938C298.666 94.8586 297.61 88.3021 297.61 81.2668C297.61 74.2316 298.666 67.7349 300.776 61.6322C302.885 55.5296 305.947 50.2199 309.964 45.7048C313.978 41.1897 318.856 37.6289 324.596 35.0189C330.336 32.4089 336.858 31.104 344.164 31.104ZM344.164 113.599C348.43 113.599 352.185 112.794 355.429 111.182C358.672 109.572 361.408 107.337 363.629 104.479C365.853 101.62 367.532 98.2399 368.666 94.3366C369.8 90.4349 370.369 86.1692 370.369 81.5411V80.9958C370.369 76.4126 369.8 72.1585 368.666 68.2336C367.532 64.3087 365.853 60.9157 363.629 58.0581C361.407 55.2004 358.672 52.9662 355.429 51.3536C352.185 49.7444 348.43 48.9382 344.164 48.9382C339.898 48.9382 336.133 49.7444 332.865 51.3536C329.598 52.9662 326.865 55.2004 324.664 58.0581C322.463 60.9157 320.796 64.3104 319.662 68.2336C318.528 72.1585 317.96 76.4126 317.96 80.9958V81.5411C317.96 86.1692 318.528 90.4349 319.662 94.3366C320.796 98.2399 322.463 101.618 324.664 104.479C326.865 107.337 329.598 109.572 332.865 111.182C336.133 112.794 339.898 113.599 344.164 113.599Z" fill="white"/>
<path d="M425.518 130.07L397.953 32.4671H420.074L438.929 105.839H439.609L458.055 32.4671H479.902L452.336 130.07H425.52H425.518Z" fill="white"/>
<path d="M591.697 113.599C594.555 113.599 597.221 113.18 599.693 112.34C602.167 111.501 604.299 110.231 606.092 108.528C607.882 106.826 609.302 104.673 610.346 102.062C611.388 99.4535 611.91 96.3797 611.91 92.8405V32.3292H631.308V95.7646C631.308 101.211 630.323 106.135 628.351 110.535C626.379 114.937 623.637 118.681 620.122 121.766C616.608 124.853 612.425 127.234 607.576 128.913C602.725 130.59 597.421 131.431 591.664 131.431C585.907 131.431 580.6 130.59 575.751 128.913C570.899 127.234 566.706 124.852 563.168 121.766C559.631 118.681 556.878 114.939 554.905 110.535C552.933 106.135 551.947 101.209 551.947 95.7646V32.3292H571.482V92.8388C571.482 96.378 572.004 99.4518 573.046 102.06C574.09 104.672 575.508 106.825 577.3 108.527C579.093 110.229 581.225 111.499 583.699 112.339C586.173 113.178 588.839 113.597 591.697 113.597V113.599Z" fill="white"/>
<path d="M648.817 32.4655H668.556V74.7319L703.405 32.4655H727.704L693.808 71.2608L729.882 130.068H706.946L681.149 86.3022L668.556 100.391V130.068H648.817V32.4655Z" fill="white"/>
<path d="M45.3369 47.9824C49.8751 47.9824 53.5541 44.3034 53.5541 39.7651C53.5541 35.2269 49.8751 31.5479 45.3369 31.5479C40.7986 31.5479 37.1196 35.2269 37.1196 39.7651C37.1196 44.3034 40.7986 47.9824 45.3369 47.9824Z" fill="white"/>
<path d="M23.2304 61.2233C27.7687 61.2233 31.4476 57.5444 31.4476 53.0061C31.4476 48.4679 27.7687 44.7889 23.2304 44.7889C18.6922 44.7889 15.0132 48.4679 15.0132 53.0061C15.0132 57.5444 18.6922 61.2233 23.2304 61.2233Z" fill="white"/>
<path d="M8.60444 82.9974C13.1427 82.9974 16.8217 79.3184 16.8217 74.7802C16.8217 70.2419 13.1427 66.563 8.60444 66.563C4.06619 66.563 0.387207 70.2419 0.387207 74.7802C0.387207 79.3184 4.06619 82.9974 8.60444 82.9974Z" fill="white"/>
<path d="M71.621 77.2439C76.1593 77.2439 79.8383 73.5649 79.8383 69.0266C79.8383 64.4884 76.1593 60.8094 71.621 60.8094C67.0828 60.8094 63.4038 64.4884 63.4038 69.0266C63.4038 73.5649 67.0828 77.2439 71.621 77.2439Z" fill="white"/>
<path d="M97.8789 47.9823C102.417 47.9823 106.096 44.3034 106.096 39.7651C106.096 35.2269 102.417 31.5479 97.8789 31.5479C93.3406 31.5479 89.6616 35.2269 89.6616 39.7651C89.6616 44.3034 93.3406 47.9823 97.8789 47.9823Z" fill="white"/>
<path d="M119.987 61.2233C124.526 61.2233 128.204 57.5444 128.204 53.0061C128.204 48.4679 124.526 44.7889 119.987 44.7889C115.449 44.7889 111.77 48.4679 111.77 53.0061C111.77 57.5444 115.449 61.2233 119.987 61.2233Z" fill="white"/>
<path d="M134.613 82.9974C139.151 82.9974 142.83 79.3184 142.83 74.7802C142.83 70.2419 139.151 66.563 134.613 66.563C130.074 66.563 126.396 70.2419 126.396 74.7802C126.396 79.3184 130.074 82.9974 134.613 82.9974Z" fill="white"/>
<path d="M71.621 77.2439C76.1593 77.2439 79.8383 73.5649 79.8383 69.0266C79.8383 64.4884 76.1593 60.8094 71.621 60.8094C67.0828 60.8094 63.4038 64.4884 63.4038 69.0266C63.4038 73.5649 67.0828 77.2439 71.621 77.2439Z" fill="white"/>
<path d="M74.9345 22.1669C75.3501 21.8544 75.7191 21.4854 76.0317 21.0698L86.4848 26.5573V11.1502L76.0466 14.4634C75.7424 14.0561 75.3817 13.692 74.9777 13.3812L79.1786 0.150146H64.0641L68.2649 13.3812C67.861 13.6904 67.5019 14.0544 67.196 14.4634L56.7578 11.1502V26.5573L67.211 21.0698C67.5235 21.4854 67.8926 21.8544 68.3082 22.1669L62.3534 40.1225C60.2572 46.4429 64.9634 52.9612 71.6213 52.9612C78.2792 52.9612 82.9855 46.4429 80.8892 40.1225L74.9345 22.1669Z" fill="white"/>
<path d="M83.5671 85.3913C83.5671 85.3913 75.935 93.8845 74.2693 99.0662C79.2648 98.9082 83.7533 97.9357 88.6922 92.779L87.0182 111.965C82.4715 105.586 77.1402 102.836 74.1845 103.387C74.4837 110.262 75.2036 118.568 87.2426 119.662C95.6427 120.391 102.387 116.265 103.089 111.16C103.921 105.295 98.6367 101.415 94.6519 107.589C91.5366 97.3722 100.143 93.9759 105.67 100.301C101.415 90.2189 101.528 83.0556 110.993 75.8125C117.784 84.841 116.822 92.3035 108.403 100.705C113.884 97.6731 122.396 100.863 117.382 111.105C114.764 104.735 109.141 106.158 107.963 111.639C107.176 115.511 109.525 120.066 114.632 121C118.823 121.768 125.277 118.905 130.45 107.762C127.541 107.837 124.987 109.307 121.686 111.579L127.112 93.4905C128.478 98.5674 130.227 101.901 132.079 103.703C133.323 100.049 133.145 97.3988 132.033 91.7051L143.249 95.6981C137.291 103.826 131.519 115.231 126.786 135.15C110.099 132.768 91.4186 131.43 71.6244 131.43C51.8319 131.43 33.1499 132.77 16.4627 135.15C11.7299 115.23 5.95803 103.824 0 95.6981L11.2162 91.7051C10.1024 97.3988 9.92618 100.049 11.1697 103.703C13.0216 101.901 14.7704 98.5674 16.1369 93.4905L21.563 111.579C18.2614 109.305 15.708 107.837 12.7988 107.762C17.9722 118.905 24.4256 121.766 28.6165 121C33.7234 120.066 36.0707 115.511 35.2861 111.639C34.1074 106.158 28.4868 104.735 25.8669 111.105C20.8531 100.863 29.3646 97.6714 34.8455 100.705C26.4271 92.3035 25.4629 84.8394 32.2555 75.8125C41.7212 83.0539 41.8342 90.2172 37.5785 100.301C43.106 93.9776 51.7122 97.3722 48.5969 107.589C44.6121 101.415 39.3273 105.295 40.1602 111.16C40.8617 116.267 47.6061 120.393 56.0062 119.662C68.0453 118.568 68.7651 110.262 69.0643 103.387C66.1086 102.836 60.7773 105.584 56.2306 111.965L54.5566 92.779C59.4956 97.9357 63.9857 98.9066 68.9795 99.0662C67.3138 93.8845 59.6817 85.3913 59.6817 85.3913H83.5737H83.5671Z" fill="white"/>
<path d="M71.6234 77.2429C76.1617 77.2429 79.8405 73.564 79.8405 69.0257C79.8405 64.4874 76.1617 60.8086 71.6234 60.8086C67.0851 60.8086 63.4062 64.4874 63.4062 69.0257C63.4062 73.564 67.0851 77.2429 71.6234 77.2429ZM79.8405 69.0257C79.8405 64.4874 76.1617 60.8086 71.6234 60.8086C67.0851 60.8086 63.4062 64.4874 63.4062 69.0257C63.4062 73.564 67.0851 77.2429 71.6234 77.2429C76.1617 77.2429 79.8405 73.564 79.8405 69.0257Z" fill="#00FFE0"/>
<path d="M502.658 89.4899C507.196 89.4899 510.875 85.8111 510.875 81.2728C510.875 76.7345 507.196 73.0557 502.658 73.0557C498.12 73.0557 494.441 76.7345 494.441 81.2728C494.441 85.8111 498.12 89.4899 502.658 89.4899ZM510.875 81.2728C510.875 76.7345 507.196 73.0557 502.658 73.0557C498.12 73.0557 494.441 76.7345 494.441 81.2728C494.441 85.8111 498.12 89.4899 502.658 89.4899C507.196 89.4899 510.875 85.8111 510.875 81.2728Z" fill="#00FFE0"/>
<path d="M519.092 89.4899C523.63 89.4899 527.309 85.8111 527.309 81.2728C527.309 76.7345 523.63 73.0557 519.092 73.0557C514.554 73.0557 510.875 76.7345 510.875 81.2728C510.875 85.8111 514.554 89.4899 519.092 89.4899ZM527.309 81.2728C527.309 76.7345 523.63 73.0557 519.092 73.0557C514.554 73.0557 510.875 76.7345 510.875 81.2728C510.875 85.8111 514.554 89.4899 519.092 89.4899C523.63 89.4899 527.309 85.8111 527.309 81.2728Z" fill="#00FFE0"/>
<path d="M184.336 104.91C188.875 104.91 192.553 101.231 192.553 96.693C192.553 92.1547 188.875 88.4758 184.336 88.4758C179.798 88.4758 176.119 92.1547 176.119 96.693C176.119 101.231 179.798 104.91 184.336 104.91ZM192.553 96.693C192.553 92.1547 188.875 88.4758 184.336 88.4758C179.798 88.4758 176.119 92.1547 176.119 96.693C176.119 101.231 179.798 104.91 184.336 104.91C188.875 104.91 192.553 101.231 192.553 96.693Z" fill="#00FFE0"/>
</svg>
