<svg width="211" height="40" viewBox="0 0 211 40" fill="none" xmlns="http://www.w3.org/2000/svg">
<rect fill="#1d70b8" width="211" height="40"></rect>
<path d="M147.662 29.1192C150.291 29.1192 152.423 26.988 152.423 24.359C152.423 21.73 150.291 19.5988 147.662 19.5988C145.033 19.5988 142.902 21.73 142.902 24.359C142.902 26.988 145.033 29.1192 147.662 29.1192Z" fill="#00FFE0"/>
<path d="M61.616 24.4379C61.616 25.6438 61.7668 26.8041 62.0684 27.9183C62.3695 29.0325 62.8282 30.0155 63.4448 30.8675C64.061 31.7199 64.8471 32.4048 65.8043 32.9225C66.7614 33.4402 67.902 33.6995 69.226 33.6995C70.5501 33.6995 71.5562 33.4964 72.4019 33.0901C73.2472 32.6838 73.9224 32.1757 74.4271 31.5658C74.9314 30.9563 75.2853 30.2979 75.489 29.59C75.6921 28.8821 75.7934 28.2266 75.7934 27.6234V27.3482H68.5772V23.0029H81.3384V38.4578H76.3443V35.1542C75.9903 35.705 75.5509 36.2064 75.027 36.6588C74.5025 37.1107 73.9128 37.4978 73.2568 37.8186C72.6012 38.1399 71.8833 38.3925 71.1038 38.576C70.3239 38.7594 69.4945 38.8511 68.6166 38.8511C66.5583 38.8511 64.73 38.4775 63.1307 37.7302C61.5315 36.983 60.1844 35.9543 59.0899 34.6432C57.9954 33.3326 57.1632 31.7987 56.5926 30.0419C56.0226 28.2857 55.7373 26.3916 55.7373 24.3592C55.7373 22.3268 56.0552 20.4499 56.6911 18.687C57.3269 16.924 58.2312 15.3901 59.405 14.0857C60.5782 12.7813 61.9935 11.7526 63.6518 10.9987C65.3101 10.2447 67.1682 9.86768 69.2265 9.86768C70.5635 9.86768 71.8319 10.0218 73.031 10.3297C74.2307 10.638 75.3252 11.0769 76.315 11.647C77.3043 12.217 78.1793 12.9057 78.94 13.7116C79.6998 14.5174 80.3164 15.4126 80.7885 16.3957L75.7939 19.2071C75.4923 18.6044 75.1384 18.0439 74.7321 17.5257C74.3253 17.0085 73.8571 16.5623 73.3264 16.1887C72.7952 15.8151 72.1892 15.5202 71.5077 15.3041C70.8257 15.088 70.0655 14.9794 69.227 14.9794C67.903 14.9794 66.7624 15.2388 65.8052 15.7565C64.8481 16.2742 64.0619 16.959 63.4458 17.8115C62.8296 18.6634 62.371 19.6499 62.0694 20.7708C61.7678 21.8917 61.617 23.049 61.617 24.241V24.4379H61.616Z" fill="white"/>
<path d="M99.4992 9.86719C101.596 9.86719 103.478 10.2442 105.143 10.9982C106.807 11.7522 108.22 12.7809 109.38 14.0852C110.54 15.3896 111.425 16.9235 112.035 18.6865C112.644 20.4495 112.949 22.3407 112.949 24.3587C112.949 26.3767 112.644 28.2852 112.035 30.0415C111.425 31.7982 110.54 33.3321 109.38 34.6427C108.22 35.9533 106.808 36.9825 105.143 37.7297C103.478 38.477 101.596 38.8506 99.4992 38.8506C97.4019 38.8506 95.504 38.477 93.8462 37.7297C92.1879 36.9825 90.7788 35.9538 89.619 34.6427C88.4587 33.3321 87.5741 31.7982 86.9647 30.0415C86.3553 28.2852 86.0503 26.3911 86.0503 24.3587C86.0503 22.3263 86.3553 20.4495 86.9647 18.6865C87.5741 16.9235 88.4587 15.3896 89.619 14.0852C90.7788 12.7809 92.1879 11.7522 93.8462 10.9982C95.5045 10.2442 97.3885 9.86719 99.4992 9.86719ZM99.4992 33.699C100.731 33.699 101.816 33.4666 102.753 33.0007C103.69 32.5359 104.481 31.8899 105.122 31.0644C105.765 30.2384 106.25 29.262 106.578 28.1344C106.905 27.0072 107.069 25.7749 107.069 24.4379V24.2804C107.069 22.9564 106.905 21.7274 106.578 20.5935C106.25 19.4597 105.765 18.4795 105.122 17.6539C104.48 16.8284 103.69 16.1829 102.753 15.7171C101.816 15.2522 100.731 15.0193 99.4992 15.0193C98.2668 15.0193 97.1791 15.2522 96.2349 15.7171C95.2912 16.1829 94.5017 16.8284 93.8659 17.6539C93.23 18.4795 92.7483 19.4601 92.4208 20.5935C92.0933 21.7274 91.929 22.9564 91.929 24.2804V24.4379C91.929 25.7749 92.0933 27.0072 92.4208 28.1344C92.7483 29.262 93.23 30.2379 93.8659 31.0644C94.5017 31.8899 95.2912 32.5359 96.2349 33.0007C97.1791 33.4666 98.2668 33.699 99.4992 33.699Z" fill="white"/>
<path d="M123.002 38.4573L115.038 10.261H121.429L126.876 31.4572H127.072L132.401 10.261H138.712L130.749 38.4573H123.002H123.002Z" fill="white"/>
<path d="M171.009 33.699C171.834 33.699 172.604 33.5779 173.319 33.3354C174.033 33.0929 174.649 32.726 175.167 32.2342C175.684 31.7424 176.094 31.1205 176.396 30.366C176.697 29.6125 176.848 28.7246 176.848 27.7021V10.2211H182.452V28.5469C182.452 30.1202 182.167 31.5427 181.598 32.8139C181.028 34.0856 180.236 35.1671 179.22 36.0584C178.205 36.9502 176.997 37.638 175.596 38.123C174.195 38.6076 172.662 38.8506 170.999 38.8506C169.336 38.8506 167.803 38.6076 166.402 38.123C165 37.638 163.789 36.9498 162.767 36.0584C161.745 35.1671 160.95 34.086 160.38 32.8139C159.81 31.5427 159.525 30.1197 159.525 28.5469V10.2211H165.169V27.7016C165.169 28.7241 165.32 29.6121 165.621 30.3656C165.922 31.12 166.332 31.742 166.85 32.2337C167.367 32.7255 167.984 33.0924 168.698 33.3349C169.413 33.5775 170.183 33.6985 171.009 33.6985V33.699Z" fill="white"/>
<path d="M187.51 10.2605H193.212V22.4708L203.28 10.2605H210.299L200.507 21.4681L210.929 38.4568H204.303L196.85 25.8133L193.212 29.8834V38.4568H187.51V10.2605Z" fill="white"/>
<path d="M13.171 14.7431C14.482 14.7431 15.5449 13.6803 15.5449 12.3692C15.5449 11.0582 14.482 9.99536 13.171 9.99536C11.8599 9.99536 10.7971 11.0582 10.7971 12.3692C10.7971 13.6803 11.8599 14.7431 13.171 14.7431Z" fill="white"/>
<path d="M6.78451 18.5683C8.09556 18.5683 9.15838 17.5055 9.15838 16.1944C9.15838 14.8834 8.09556 13.8206 6.78451 13.8206C5.47346 13.8206 4.41064 14.8834 4.41064 16.1944C4.41064 17.5055 5.47346 18.5683 6.78451 18.5683Z" fill="white"/>
<path d="M2.55917 24.8586C3.87022 24.8586 4.93304 23.7958 4.93304 22.4847C4.93304 21.1737 3.87022 20.1108 2.55917 20.1108C1.24812 20.1108 0.185303 21.1737 0.185303 22.4847C0.185303 23.7958 1.24812 24.8586 2.55917 24.8586Z" fill="white"/>
<path d="M20.7642 23.1963C22.0753 23.1963 23.1381 22.1335 23.1381 20.8225C23.1381 19.5114 22.0753 18.4486 20.7642 18.4486C19.4532 18.4486 18.3904 19.5114 18.3904 20.8225C18.3904 22.1335 19.4532 23.1963 20.7642 23.1963Z" fill="white"/>
<path d="M28.3499 14.743C29.661 14.743 30.7238 13.6802 30.7238 12.3691C30.7238 11.0581 29.661 9.99524 28.3499 9.99524C27.0389 9.99524 25.9761 11.0581 25.9761 12.3691C25.9761 13.6802 27.0389 14.743 28.3499 14.743Z" fill="white"/>
<path d="M34.7369 18.5683C36.048 18.5683 37.1108 17.5055 37.1108 16.1944C37.1108 14.8834 36.048 13.8206 34.7369 13.8206C33.4259 13.8206 32.363 14.8834 32.363 16.1944C32.363 17.5055 33.4259 18.5683 34.7369 18.5683Z" fill="white"/>
<path d="M38.962 24.8586C40.2731 24.8586 41.3359 23.7958 41.3359 22.4847C41.3359 21.1737 40.2731 20.1108 38.962 20.1108C37.651 20.1108 36.5881 21.1737 36.5881 22.4847C36.5881 23.7958 37.651 24.8586 38.962 24.8586Z" fill="white"/>
<path d="M20.7642 23.1963C22.0753 23.1963 23.1381 22.1335 23.1381 20.8225C23.1381 19.5114 22.0753 18.4486 20.7642 18.4486C19.4532 18.4486 18.3904 19.5114 18.3904 20.8225C18.3904 22.1335 19.4532 23.1963 20.7642 23.1963Z" fill="white"/>
<path d="M21.7215 7.28521C21.8416 7.19493 21.9482 7.08831 22.0385 6.96825L25.0583 8.55355V4.10261L22.0428 5.05974C21.9549 4.94208 21.8507 4.83691 21.734 4.7471L22.9476 0.924805H18.5812L19.7947 4.7471C19.678 4.83643 19.5743 4.9416 19.4859 5.05974L16.4705 4.10261V8.55355L19.4903 6.96825C19.5805 7.08831 19.6872 7.19493 19.8072 7.28521L18.087 12.4724C17.4814 14.2983 18.841 16.1813 20.7644 16.1813C22.6878 16.1813 24.0473 14.2983 23.4417 12.4724L21.7215 7.28521Z" fill="white"/>
<path d="M24.2153 25.55C24.2153 25.55 22.0105 28.0036 21.5293 29.5005C22.9724 29.4549 24.2691 29.174 25.6959 27.6843L25.2123 33.2268C23.8988 31.3841 22.3587 30.5898 21.5048 30.7487C21.5913 32.735 21.7992 35.1343 25.2772 35.4503C27.7038 35.6612 29.6522 34.4692 29.8549 32.9944C30.0955 31.3 28.5688 30.1791 27.4176 31.9628C26.5176 29.0112 29.0039 28.03 30.6007 29.8574C29.3713 26.9447 29.4039 24.8753 32.1385 22.7828C34.1003 25.3911 33.8222 27.5469 31.3902 29.9741C32.9736 29.0981 35.4325 30.0197 33.9841 32.9785C33.2277 31.1382 31.6035 31.5493 31.263 33.1327C31.0358 34.2512 31.7144 35.567 33.1897 35.8369C34.4004 36.0588 36.2648 35.2318 37.7593 32.0127C36.9189 32.0343 36.1812 32.4589 35.2274 33.1154L36.7949 27.8898C37.1897 29.3565 37.6949 30.3194 38.2299 30.84C38.5892 29.7844 38.5378 29.0189 38.2165 27.374L41.4567 28.5276C39.7355 30.8755 38.0681 34.1705 36.7008 39.9248C31.8801 39.2366 26.4835 38.85 20.7652 38.85C15.0474 38.85 9.65036 39.2371 4.82963 39.9248C3.46236 34.17 1.79494 30.875 0.0737305 28.5276L3.31397 27.374C2.9922 29.0189 2.94129 29.7844 3.30052 30.84C3.83552 30.3194 4.34074 29.3565 4.7355 27.8898L6.30303 33.1154C5.34926 32.4584 4.6116 32.0343 3.77116 32.0127C5.26569 35.2318 7.13002 36.0583 8.34072 35.8369C9.81605 35.567 10.4942 34.2512 10.2675 33.1327C9.92698 31.5493 8.30326 31.1382 7.54639 32.9785C6.09796 30.0197 8.55684 29.0976 10.1402 29.9741C7.70824 27.5469 7.42969 25.3906 9.39199 22.7828C12.1265 24.8748 12.1592 26.9442 10.9297 29.8574C12.5266 28.0305 15.0128 29.0112 14.1128 31.9628C12.9617 30.1791 11.435 31.3 11.6756 32.9944C11.8782 34.4697 13.8266 35.6617 16.2533 35.4503C19.7313 35.1343 19.9392 32.735 20.0256 30.7487C19.1718 30.5898 17.6316 31.3836 16.3181 33.2268L15.8345 27.6843C17.2613 29.174 18.5585 29.4544 20.0012 29.5005C19.5199 28.0036 17.3151 25.55 17.3151 25.55H24.2172H24.2153Z" fill="white"/>
</svg>
