<svg width="161" height="135" viewBox="0 0 161 135" fill="none" xmlns="http://www.w3.org/2000/svg">
<path d="M0.882812 0.176147H160.864V134.539H0.882812V0.176147Z" fill="#0B0C0C"/>
<path d="M39.4241 67.4027C39.4241 68.0997 39.5112 68.7703 39.6855 69.4142C39.8596 70.0582 40.1247 70.6264 40.4811 71.1188C40.8372 71.6114 41.2916 72.0072 41.8447 72.3064C42.3979 72.6057 43.0572 72.7555 43.8224 72.7555C44.5877 72.7555 45.1692 72.6381 45.658 72.4033C46.1465 72.1685 46.5368 71.8748 46.8285 71.5223C47.1199 71.1701 47.3245 70.7896 47.4422 70.3804C47.5596 69.9713 47.6182 69.5924 47.6182 69.2438V69.0848H43.4474V66.5734H50.823V75.5057H47.9365V73.5963C47.732 73.9147 47.478 74.2044 47.1752 74.4659C46.8721 74.7271 46.5312 74.9508 46.152 75.1362C45.7732 75.3219 45.3582 75.4679 44.9077 75.5739C44.4569 75.68 43.9776 75.733 43.4702 75.733C42.2805 75.733 41.2238 75.517 40.2995 75.0851C39.3752 74.6533 38.5966 74.0587 37.9641 73.301C37.3315 72.5435 36.8505 71.6569 36.5207 70.6416C36.1912 69.6266 36.0264 68.5318 36.0264 67.3572C36.0264 66.1825 36.2101 65.0978 36.5776 64.0789C36.9451 63.0599 37.4678 62.1734 38.1462 61.4195C38.8243 60.6657 39.6422 60.0711 40.6007 59.6354C41.5591 59.1996 42.633 58.9817 43.8227 58.9817C44.5954 58.9817 45.3285 59.0708 46.0216 59.2487C46.715 59.4269 47.3475 59.6806 47.9196 60.0101C48.4914 60.3395 48.9971 60.7376 49.4368 61.2033C49.8759 61.6691 50.2323 62.1864 50.5051 62.7546L47.6184 64.3795C47.4441 64.0311 47.2396 63.7072 47.0047 63.4077C46.7696 63.1088 46.499 62.8509 46.1923 62.635C45.8853 62.419 45.535 62.2486 45.1411 62.1237C44.747 61.9988 44.3076 61.9361 43.823 61.9361C43.0577 61.9361 42.3985 62.086 41.8453 62.3852C41.2921 62.6844 40.8377 63.0802 40.4816 63.5729C40.1255 64.0653 39.8604 64.6354 39.6861 65.2832C39.5118 65.9311 39.4246 66.6 39.4246 67.2889V67.4027H39.4241Z" fill="white"/>
<path d="M61.3189 58.9816C62.531 58.9816 63.6183 59.1995 64.5806 59.6352C65.5429 60.071 66.3593 60.6656 67.0299 61.4194C67.7002 62.1733 68.2118 63.0598 68.564 64.0788C68.9162 65.0977 69.0922 66.1907 69.0922 67.3571C69.0922 68.5234 68.9162 69.6264 68.564 70.6415C68.2118 71.6568 67.7002 72.5434 67.0299 73.3008C66.3595 74.0583 65.5429 74.6531 64.5806 75.085C63.6186 75.5169 62.531 75.7329 61.3189 75.7329C60.1068 75.7329 59.0098 75.5169 58.0517 75.085C57.0932 74.6531 56.2788 74.0586 55.6085 73.3008C54.9379 72.5434 54.4266 71.6568 54.0744 70.6415C53.7222 69.6264 53.5459 68.5317 53.5459 67.3571C53.5459 66.1824 53.7222 65.0977 54.0744 64.0788C54.4266 63.0598 54.9379 62.1733 55.6085 61.4194C56.2788 60.6656 57.0932 60.071 58.0517 59.6352C59.0101 59.1995 60.099 58.9816 61.3189 58.9816ZM61.3189 72.7551C62.0311 72.7551 62.6582 72.6208 63.1997 72.3516C63.7412 72.0829 64.1981 71.7096 64.569 71.2324C64.9403 70.755 65.2207 70.1907 65.41 69.539C65.5993 68.8876 65.6942 68.1753 65.6942 67.4026V67.3116C65.6942 66.5463 65.5993 65.836 65.41 65.1807C65.2207 64.5254 64.9403 63.9589 64.569 63.4817C64.1978 63.0046 63.7412 62.6315 63.1997 62.3623C62.6582 62.0936 62.0311 61.959 61.3189 61.959C60.6067 61.959 59.978 62.0936 59.4323 62.3623C58.8869 62.6315 58.4305 63.0046 58.063 63.4817C57.6955 63.9589 57.4171 64.5256 57.2278 65.1807C57.0385 65.836 56.9436 66.5463 56.9436 67.3116V67.4026C56.9436 68.1753 57.0385 68.8876 57.2278 69.539C57.4171 70.1907 57.6955 70.7547 58.063 71.2324C58.4305 71.7096 58.8869 72.0829 59.4323 72.3516C59.978 72.6208 60.6067 72.7551 61.3189 72.7551Z" fill="white"/>
<path d="M74.9015 75.5052L70.2988 59.2089H73.9924L77.1406 71.4594H77.2541L80.334 59.2089H83.9818L79.3792 75.5052H74.9017H74.9015Z" fill="white"/>
<path d="M102.649 72.7552C103.126 72.7552 103.571 72.6852 103.984 72.5451C104.397 72.4049 104.753 72.1928 105.052 71.9086C105.351 71.6244 105.588 71.2649 105.762 70.8289C105.936 70.3934 106.024 69.8802 106.024 69.2892V59.1862H109.263V69.7777C109.263 70.687 109.098 71.5092 108.769 72.2439C108.44 72.9789 107.982 73.604 107.395 74.1191C106.808 74.6346 106.11 75.032 105.3 75.3124C104.49 75.5924 103.604 75.7329 102.643 75.7329C101.682 75.7329 100.796 75.5924 99.9862 75.3124C99.176 75.032 98.476 74.6343 97.8853 74.1191C97.2946 73.604 96.835 72.9792 96.5055 72.2439C96.1763 71.5092 96.0117 70.6868 96.0117 69.7777V59.1862H99.2734V69.2892C99.2734 69.8802 99.3606 70.3934 99.5346 70.8289C99.7089 71.2649 99.9457 71.6244 100.245 71.9086C100.544 72.1928 100.9 72.4049 101.313 72.5451C101.726 72.6852 102.172 72.7552 102.649 72.7552Z" fill="white"/>
<path d="M112.186 59.2089H115.481V66.2659L121.3 59.2089H125.357L119.698 65.6864L125.721 75.5052H121.891L117.584 68.1978L115.481 70.5501V75.5052H112.186V59.2089Z" fill="white"/>
<path d="M89.1556 70.1083C90.675 70.1083 91.9068 68.8765 91.9068 67.3571C91.9068 65.8376 90.675 64.6058 89.1556 64.6058C87.6361 64.6058 86.4043 65.8376 86.4043 67.3571C86.4043 68.8765 87.6361 70.1083 89.1556 70.1083Z" fill="white"/>
</svg>
