<svg width="1920" height="1280" viewBox="0 0 1920 1280" fill="none" xmlns="http://www.w3.org/2000/svg">
<g clip-path="url(#clip0_1022_494)">
<rect width="1920" height="1280" fill="white"/>
<path d="M1920 0H0V1280H1920V0Z" fill="#F4F8FB"/>
<path d="M497.881 640.892C497.881 648.664 498.849 656.141 500.793 663.321C502.736 670.501 505.694 676.836 509.665 682.326C513.636 687.819 518.704 692.232 524.87 695.569C531.037 698.905 538.384 700.576 546.921 700.576C555.45 700.576 561.928 699.267 567.378 696.649C572.828 694.031 577.18 690.756 580.434 686.826C583.681 682.898 585.96 678.655 587.271 674.094C588.582 669.532 589.238 665.307 589.238 661.42V659.647H542.736V631.646H624.962V731.239H592.782V709.95C590.503 713.5 587.675 716.73 584.299 719.646C580.915 722.558 577.119 725.053 572.889 727.12C568.666 729.191 564.04 730.818 559.017 732.001C553.994 733.183 548.651 733.774 542.988 733.774C529.726 733.774 517.942 731.366 507.637 726.55C497.332 721.735 488.659 715.106 481.601 706.657C474.55 698.211 469.187 688.327 465.511 677.006C461.838 665.688 460 653.482 460 640.385C460 627.288 462.049 615.193 466.146 603.832C470.243 592.471 476.067 582.587 483.636 574.181C491.197 565.776 500.313 559.147 510.998 554.288C521.684 549.429 533.659 547 546.921 547C555.534 547 563.712 547.993 571.433 549.977C579.169 551.964 586.22 554.792 592.599 558.466C598.971 562.139 604.611 566.577 609.512 571.771C614.405 576.963 618.384 582.732 621.425 589.068L589.238 607.184C587.294 603.3 585.015 599.688 582.393 596.349C579.779 593.016 576.761 590.141 573.338 587.734C569.916 585.326 566.014 583.425 561.616 582.033C557.226 580.64 552.325 579.94 546.921 579.94C538.392 579.94 531.044 581.612 524.878 584.948C518.704 588.284 513.643 592.698 509.672 598.191C505.701 603.681 502.744 610.037 500.8 617.261C498.857 624.484 497.889 631.942 497.889 639.624L497.881 640.892Z" fill="#0B0C0C"/>
<path d="M741.989 547C755.503 547 767.622 549.429 778.354 554.288C789.078 559.147 798.186 565.776 805.656 574.181C813.133 582.587 818.834 592.471 822.759 603.832C826.692 615.193 828.651 627.381 828.651 640.385C828.651 653.39 826.692 665.688 822.759 677.006C818.834 688.327 813.133 698.211 805.656 706.657C798.186 715.102 789.078 721.735 778.354 726.55C767.63 731.366 755.503 733.774 741.989 733.774C728.476 733.774 716.242 731.366 705.564 726.55C694.878 721.735 685.793 715.106 678.323 706.657C670.846 698.211 665.145 688.327 661.22 677.006C657.294 665.688 655.328 653.482 655.328 640.385C655.328 627.288 657.294 615.193 661.22 603.832C665.145 592.471 670.846 582.587 678.323 574.181C685.793 565.776 694.878 559.147 705.564 554.288C716.25 549.429 728.384 547 741.989 547ZM741.989 700.573C749.931 700.573 756.921 699.075 762.957 696.073C768.994 693.077 774.085 688.915 778.224 683.595C782.363 678.272 785.488 671.98 787.599 664.714C789.71 657.45 790.77 649.509 790.77 640.892V639.878C790.77 631.345 789.71 623.426 787.599 616.119C785.488 608.812 782.363 602.496 778.224 597.176C774.085 591.856 768.994 587.696 762.957 584.694C756.921 581.699 749.931 580.197 741.989 580.197C734.047 580.197 727.035 581.699 720.953 584.694C714.87 587.696 709.787 591.856 705.686 597.176C701.593 602.496 698.491 608.816 696.38 616.119C694.268 623.426 693.209 631.345 693.209 639.878V640.892C693.209 649.509 694.268 657.45 696.38 664.714C698.491 671.98 701.593 678.269 705.686 683.595C709.787 688.915 714.87 693.077 720.953 696.073C727.035 699.075 734.047 700.573 741.989 700.573Z" fill="#0B0C0C"/>
<path d="M893.422 731.24L842.111 549.539H883.293L918.392 686.131H919.657L953.994 549.539H994.657L943.346 731.24H893.422Z" fill="#0B0C0C"/>
<path d="M1202.77 700.578C1208.09 700.578 1213.05 699.797 1217.65 698.235C1222.26 696.672 1226.23 694.307 1229.57 691.138C1232.9 687.969 1235.54 683.962 1237.49 679.1C1239.42 674.244 1240.4 668.522 1240.4 661.932V549.285H1276.51V667.38C1276.51 677.518 1274.67 686.685 1271 694.877C1267.33 703.072 1262.23 710.041 1255.69 715.786C1249.14 721.532 1241.36 725.964 1232.33 729.09C1223.3 732.213 1213.42 733.778 1202.71 733.778C1191.99 733.778 1182.11 732.213 1173.09 729.09C1164.06 725.964 1156.25 721.529 1149.66 715.786C1143.08 710.041 1137.95 703.075 1134.28 694.877C1130.61 686.685 1128.77 677.515 1128.77 667.38V549.285H1165.14V661.932C1165.14 668.522 1166.11 674.244 1168.05 679.1C1169.99 683.962 1172.64 687.969 1175.97 691.138C1179.31 694.307 1183.28 696.672 1187.88 698.235C1192.49 699.797 1197.45 700.578 1202.77 700.578Z" fill="#0B0C0C"/>
<path d="M1309.09 549.539H1345.84V628.224L1410.71 549.539H1455.95L1392.85 621.762L1460 731.24H1417.3L1369.28 649.764L1345.84 675.992V731.24H1309.09V549.539Z" fill="#0B0C0C"/>
<path d="M1052.34 671.044C1069.28 671.044 1083.01 657.31 1083.01 640.369C1083.01 623.427 1069.28 609.693 1052.34 609.693C1035.4 609.693 1021.66 623.427 1021.66 640.369C1021.66 657.31 1035.4 671.044 1052.34 671.044Z" fill="#1D70B8"/>
</g>
<defs>
<clipPath id="clip0_1022_494">
<rect width="1920" height="1280" fill="white"/>
</clipPath>
</defs>
</svg>
