<svg width="480" height="320" viewBox="0 0 480 320" fill="none" xmlns="http://www.w3.org/2000/svg">
<g clip-path="url(#clip0_1022_494)">
<rect width="480" height="320" fill="white"/>
<path d="M480 0H0V320H480V0Z" fill="#F4F8FB"/>
<path d="M124.47 160.223C124.47 162.166 124.712 164.035 125.198 165.83C125.684 167.625 126.423 169.209 127.416 170.581C128.409 171.955 129.676 173.058 131.218 173.892C132.759 174.726 134.596 175.144 136.73 175.144C138.862 175.144 140.482 174.817 141.845 174.162C143.207 173.508 144.295 172.689 145.109 171.706C145.92 170.725 146.49 169.664 146.818 168.523C147.146 167.383 147.309 166.327 147.309 165.355V164.912H135.684V157.911H156.24V182.81H148.195V177.488C147.626 178.375 146.919 179.183 146.075 179.911C145.229 180.64 144.28 181.263 143.222 181.78C142.167 182.298 141.01 182.704 139.754 183C138.498 183.296 137.163 183.443 135.747 183.443C132.431 183.443 129.486 182.841 126.909 181.638C124.333 180.434 122.165 178.776 120.4 176.664C118.638 174.553 117.297 172.082 116.378 169.251C115.46 166.422 115 163.371 115 160.096C115 156.822 115.512 153.798 116.536 150.958C117.561 148.118 119.017 145.647 120.909 143.545C122.799 141.444 125.078 139.787 127.75 138.572C130.421 137.357 133.415 136.75 136.73 136.75C138.883 136.75 140.928 136.998 142.858 137.494C144.792 137.991 146.555 138.698 148.15 139.617C149.743 140.535 151.153 141.644 152.378 142.943C153.601 144.241 154.596 145.683 155.356 147.267L147.309 151.796C146.824 150.825 146.254 149.922 145.598 149.087C144.945 148.254 144.19 147.535 143.335 146.933C142.479 146.332 141.503 145.856 140.404 145.508C139.306 145.16 138.081 144.985 136.73 144.985C134.598 144.985 132.761 145.403 131.22 146.237C129.676 147.071 128.411 148.174 127.418 149.548C126.425 150.92 125.686 152.509 125.2 154.315C124.714 156.121 124.472 157.986 124.472 159.906L124.47 160.223Z" fill="#0B0C0C"/>
<path d="M185.497 136.75C188.876 136.75 191.906 137.357 194.589 138.572C197.27 139.787 199.547 141.444 201.414 143.545C203.283 145.647 204.709 148.118 205.69 150.958C206.673 153.798 207.163 156.845 207.163 160.096C207.163 163.347 206.673 166.422 205.69 169.251C204.709 172.082 203.283 174.553 201.414 176.664C199.547 178.776 197.27 180.434 194.589 181.638C191.908 182.841 188.876 183.443 185.497 183.443C182.119 183.443 179.061 182.841 176.391 181.638C173.72 180.434 171.448 178.777 169.581 176.664C167.712 174.553 166.286 172.082 165.305 169.251C164.324 166.422 163.832 163.371 163.832 160.096C163.832 156.822 164.324 153.798 165.305 150.958C166.286 148.118 167.712 145.647 169.581 143.545C171.448 141.444 173.72 139.787 176.391 138.572C179.063 137.357 182.096 136.75 185.497 136.75ZM185.497 175.143C187.483 175.143 189.23 174.769 190.739 174.018C192.249 173.269 193.521 172.229 194.556 170.899C195.591 169.568 196.372 167.995 196.9 166.178C197.428 164.362 197.693 162.377 197.693 160.223V159.97C197.693 157.836 197.428 155.856 196.9 154.03C196.372 152.203 195.591 150.624 194.556 149.294C193.521 147.964 192.249 146.924 190.739 146.174C189.23 145.425 187.483 145.049 185.497 145.049C183.512 145.049 181.759 145.425 180.238 146.174C178.718 146.924 177.447 147.964 176.422 149.294C175.398 150.624 174.623 152.204 174.095 154.03C173.567 155.856 173.302 157.836 173.302 159.97V160.223C173.302 162.377 173.567 164.362 174.095 166.178C174.623 167.995 175.398 169.567 176.422 170.899C177.447 172.229 178.718 173.269 180.238 174.018C181.759 174.769 183.512 175.143 185.497 175.143Z" fill="#0B0C0C"/>
<path d="M223.356 182.81L210.528 137.385H220.823L229.598 171.533H229.914L238.498 137.385H248.664L235.837 182.81H223.356Z" fill="#0B0C0C"/>
<path d="M300.692 175.144C302.022 175.144 303.262 174.949 304.413 174.559C305.564 174.168 306.557 173.577 307.392 172.785C308.224 171.992 308.885 170.99 309.371 169.775C309.855 168.561 310.099 167.13 310.099 165.483V137.321H319.127V166.845C319.127 169.38 318.668 171.671 317.75 173.719C316.833 175.768 315.557 177.51 313.922 178.946C312.285 180.383 310.339 181.491 308.081 182.273C305.825 183.053 303.356 183.445 300.677 183.445C297.997 183.445 295.528 183.053 293.272 182.273C291.014 181.491 289.063 180.382 287.416 178.946C285.77 177.51 284.488 175.769 283.569 173.719C282.653 171.671 282.193 169.379 282.193 166.845V137.321H291.284V165.483C291.284 167.13 291.528 168.561 292.012 169.775C292.498 170.99 293.159 171.992 293.992 172.785C294.827 173.577 295.82 174.168 296.97 174.559C298.121 174.949 299.362 175.144 300.692 175.144Z" fill="#0B0C0C"/>
<path d="M327.273 137.385H336.46V157.056L352.677 137.385H363.986L348.213 155.441L365 182.81H354.326L342.321 162.441L336.46 168.998V182.81H327.273V137.385Z" fill="#0B0C0C"/>
<path d="M263.085 167.761C267.319 167.761 270.753 164.328 270.753 160.092C270.753 155.857 267.319 152.423 263.085 152.423C258.849 152.423 255.416 155.857 255.416 160.092C255.416 164.328 258.849 167.761 263.085 167.761Z" fill="#1D70B8"/>
</g>
<defs>
<clipPath id="clip0_1022_494">
<rect width="480" height="320" fill="white"/>
</clipPath>
</defs>
</svg>
