<svg width="480" height="320" viewBox="0 0 480 320" fill="none" xmlns="http://www.w3.org/2000/svg">
<g clip-path="url(#clip0_1022_508)">
<rect width="480" height="320" fill="white"/>
<path d="M480 0V320H245.75V0H480Z" fill="white" stroke="#F3F3F3" stroke-width="0.117133"/>
<path d="M302.021 159.965C302.021 160.989 302.149 161.973 302.404 162.919C302.66 163.864 303.05 164.699 303.573 165.422C304.096 166.145 304.762 166.727 305.576 167.166C306.388 167.605 307.356 167.825 308.479 167.825C309.604 167.825 310.457 167.653 311.175 167.308C311.892 166.963 312.466 166.532 312.893 166.015C313.322 165.497 313.621 164.938 313.795 164.338C313.966 163.737 314.053 163.181 314.053 162.669V162.435H307.928V158.747H318.759V171.864H314.52V169.06C314.22 169.527 313.848 169.953 313.403 170.337C312.958 170.72 312.457 171.049 311.9 171.321C311.344 171.594 310.734 171.808 310.074 171.964C309.411 172.12 308.707 172.197 307.962 172.197C306.215 172.197 304.664 171.88 303.306 171.246C301.949 170.612 300.807 169.739 299.877 168.626C298.948 167.514 298.241 166.212 297.758 164.721C297.274 163.231 297.031 161.623 297.031 159.898C297.031 158.174 297.301 156.581 297.84 155.084C298.381 153.588 299.149 152.286 300.144 151.179C301.14 150.072 302.341 149.199 303.749 148.56C305.156 147.92 306.733 147.6 308.48 147.6C309.614 147.6 310.69 147.73 311.708 147.992C312.727 148.253 313.655 148.626 314.495 149.11C315.335 149.594 316.078 150.178 316.724 150.862C317.369 151.546 317.892 152.306 318.292 153.14L314.053 155.526C313.798 155.014 313.497 154.539 313.153 154.099C312.808 153.66 312.41 153.281 311.959 152.964C311.508 152.647 310.994 152.397 310.416 152.214C309.837 152.03 309.191 151.938 308.48 151.938C307.357 151.938 306.388 152.158 305.576 152.597C304.764 153.037 304.097 153.618 303.573 154.341C303.05 155.064 302.661 155.902 302.406 156.853C302.15 157.804 302.022 158.786 302.022 159.798V159.965H302.021Z" fill="#0B0C0C"/>
<path d="M334.174 147.6C335.953 147.6 337.55 147.92 338.962 148.56C340.376 149.199 341.575 150.072 342.56 151.179C343.544 152.286 344.296 153.588 344.812 155.084C345.329 156.581 345.588 158.186 345.588 159.898C345.588 161.611 345.329 163.231 344.812 164.721C344.296 166.212 343.544 167.514 342.56 168.626C341.575 169.739 340.376 170.612 338.962 171.246C337.55 171.88 335.953 172.197 334.174 172.197C332.394 172.197 330.783 171.88 329.376 171.246C327.968 170.612 326.773 169.739 325.788 168.626C324.804 167.514 324.052 166.212 323.535 164.721C323.018 163.231 322.76 161.623 322.76 159.898C322.76 158.174 323.018 156.581 323.535 155.084C324.052 153.588 324.804 152.286 325.788 151.179C326.773 150.072 327.968 149.199 329.376 148.56C330.783 147.92 332.382 147.6 334.174 147.6ZM334.174 167.825C335.219 167.825 336.14 167.628 336.936 167.232C337.73 166.838 338.401 166.29 338.946 165.589C339.491 164.888 339.903 164.059 340.181 163.102C340.459 162.146 340.598 161.1 340.598 159.965V159.831C340.598 158.708 340.459 157.665 340.181 156.702C339.903 155.74 339.491 154.908 338.946 154.208C338.401 153.507 337.73 152.959 336.936 152.564C336.14 152.169 335.219 151.972 334.174 151.972C333.128 151.972 332.205 152.169 331.403 152.564C330.603 152.959 329.931 153.507 329.393 154.208C328.852 154.908 328.444 155.741 328.166 156.702C327.887 157.665 327.748 158.708 327.748 159.831V159.965C327.748 161.1 327.887 162.146 328.166 163.102C328.444 164.059 328.852 164.888 329.393 165.589C329.931 166.29 330.603 166.838 331.403 167.232C332.205 167.628 333.128 167.825 334.174 167.825Z" fill="#0B0C0C"/>
<path d="M354.116 171.862L347.358 147.932H352.781L357.404 165.921H357.571L362.094 147.932H367.451L360.692 171.862H354.118H354.116Z" fill="#0B0C0C"/>
<path d="M394.861 167.826C395.562 167.826 396.215 167.723 396.821 167.517C397.428 167.311 397.951 167 398.39 166.583C398.829 166.165 399.177 165.638 399.432 164.997C399.688 164.358 399.816 163.604 399.816 162.736V147.901H404.572V163.454C404.572 164.789 404.331 165.996 403.848 167.075C403.363 168.154 402.691 169.072 401.83 169.829C400.968 170.586 399.943 171.169 398.754 171.581C397.564 171.992 396.263 172.198 394.852 172.198C393.441 172.198 392.14 171.992 390.951 171.581C389.761 171.169 388.733 170.585 387.866 169.829C386.999 169.072 386.324 168.155 385.839 167.075C385.356 165.996 385.115 164.789 385.115 163.454V147.901H389.904V162.736C389.904 163.604 390.031 164.358 390.287 164.997C390.544 165.638 390.892 166.165 391.331 166.583C391.77 167 392.293 167.311 392.899 167.517C393.506 167.723 394.159 167.826 394.861 167.826Z" fill="#0B0C0C"/>
<path d="M408.864 147.932H413.704V158.295L422.249 147.932H428.206L419.896 157.444L428.741 171.862H423.117L416.792 161.132L413.704 164.586V171.862H408.864V147.932Z" fill="#0B0C0C"/>
<path d="M375.047 163.939C377.279 163.939 379.088 162.131 379.088 159.899C379.088 157.668 377.279 155.859 375.047 155.859C372.817 155.859 371.008 157.668 371.008 159.899C371.008 162.131 372.817 163.939 375.047 163.939Z" fill="#0B0C0C"/>
<path d="M0 0.5H235V320.5H0V0.5Z" fill="#0B0C0C"/>
<path d="M56.5927 159.965C56.5927 160.989 56.7206 161.973 56.9766 162.919C57.2322 163.864 57.6215 164.699 58.1449 165.422C58.6678 166.145 59.335 166.727 60.1472 167.166C60.9595 167.605 61.9276 167.825 63.0513 167.825C64.175 167.825 65.0289 167.653 65.7467 167.308C66.464 166.963 67.0371 166.532 67.4655 166.015C67.8934 165.497 68.1938 164.938 68.3666 164.338C68.539 163.737 68.6251 163.181 68.6251 162.669V162.435H62.5006V158.747H73.331V171.864H69.0925V169.06C68.7922 169.527 68.4192 169.953 67.9746 170.337C67.5295 170.72 67.0289 171.049 66.4721 171.321C65.9158 171.594 65.3064 171.808 64.6449 171.964C63.983 172.12 63.2792 172.197 62.5341 172.197C60.7871 172.197 59.2354 171.88 57.8782 171.246C56.5209 170.612 55.3776 169.739 54.4489 168.626C53.5199 167.514 52.8136 166.212 52.3294 164.721C51.8455 163.231 51.6035 161.623 51.6035 159.898C51.6035 158.174 51.8733 156.581 52.4129 155.084C52.9525 153.588 53.7201 152.286 54.7163 151.179C55.712 150.072 56.913 149.199 58.3205 148.56C59.7278 147.92 61.3047 147.6 63.0517 147.6C64.1863 147.6 65.2628 147.73 66.2806 147.992C67.2988 148.253 68.2276 148.626 69.0676 149.11C69.9073 149.594 70.6499 150.178 71.2955 150.862C71.9403 151.546 72.4636 152.306 72.8642 153.14L68.6254 155.526C68.3694 155.014 68.0691 154.539 67.7242 154.099C67.379 153.66 66.9816 153.281 66.5313 152.964C66.0804 152.647 65.5661 152.397 64.9877 152.214C64.409 152.03 63.7637 151.938 63.0521 151.938C61.9284 151.938 60.9604 152.158 60.1481 152.597C59.3357 153.037 58.6685 153.618 58.1456 154.341C57.6227 155.064 57.2334 155.902 56.9775 156.853C56.7215 157.804 56.5935 158.786 56.5935 159.798L56.5927 159.965Z" fill="white"/>
<path d="M88.7431 147.6C90.5231 147.6 92.1195 147.92 93.5326 148.56C94.9457 149.199 96.1445 150.072 97.1292 151.179C98.1135 152.286 98.8647 153.588 99.3819 155.084C99.899 156.581 100.157 158.186 100.157 159.898C100.157 161.611 99.899 163.231 99.3819 164.721C98.8647 166.212 98.1135 167.514 97.1292 168.626C96.1448 169.739 94.9457 170.612 93.5326 171.246C92.12 171.88 90.5231 172.197 88.7431 172.197C86.9632 172.197 85.3524 171.88 83.9455 171.246C82.538 170.612 81.3421 169.739 80.3578 168.626C79.3731 167.514 78.6223 166.212 78.1052 164.721C77.588 163.231 77.3291 161.623 77.3291 159.898C77.3291 158.174 77.588 156.581 78.1052 155.084C78.6223 153.588 79.3731 152.286 80.3578 151.179C81.3421 150.072 82.538 149.199 83.9455 148.56C85.3528 147.92 86.9518 147.6 88.7431 147.6ZM88.7431 167.825C89.789 167.825 90.7097 167.628 91.5049 167.232C92.3 166.838 92.9709 166.29 93.5156 165.589C94.0608 164.888 94.4725 164.059 94.7505 163.102C95.0285 162.146 95.1678 161.1 95.1678 159.965V159.831C95.1678 158.708 95.0285 157.665 94.7505 156.702C94.4725 155.74 94.0608 154.908 93.5156 154.208C92.9705 153.507 92.3 152.959 91.5049 152.564C90.7097 152.169 89.789 151.972 88.7431 151.972C87.6973 151.972 86.7741 152.169 85.9728 152.564C85.1719 152.959 84.5017 153.507 83.9621 154.208C83.4224 154.908 83.0136 155.741 82.7357 156.702C82.4577 157.665 82.3183 158.708 82.3183 159.831V159.965C82.3183 161.1 82.4577 162.146 82.7357 163.102C83.0136 164.059 83.4224 164.888 83.9621 165.589C84.5017 166.29 85.1719 166.838 85.9728 167.232C86.7741 167.628 87.6973 167.825 88.7431 167.825Z" fill="white"/>
<path d="M108.688 171.862L101.93 147.932H107.353L111.976 165.921H112.143L116.666 147.932H122.022L115.263 171.862H108.688Z" fill="white"/>
<path d="M149.434 167.826C150.134 167.826 150.787 167.723 151.394 167.517C152 167.311 152.523 167 152.962 166.583C153.401 166.165 153.749 165.638 154.006 164.997C154.262 164.358 154.389 163.604 154.389 162.736V147.901H159.146V163.454C159.146 164.789 158.903 165.996 158.42 167.075C157.937 168.154 157.265 169.072 156.403 169.829C155.541 170.586 154.516 171.169 153.326 171.581C152.137 171.992 150.836 172.198 149.425 172.198C148.014 172.198 146.713 171.992 145.524 171.581C144.334 171.169 143.306 170.585 142.439 169.829C141.571 169.072 140.896 168.155 140.413 167.075C139.929 165.996 139.688 164.789 139.688 163.454V147.901H144.477V162.736C144.477 163.604 144.605 164.358 144.861 164.997C145.117 165.638 145.464 166.165 145.904 166.583C146.342 167 146.865 167.311 147.472 167.517C148.078 167.723 148.733 167.826 149.434 167.826Z" fill="white"/>
<path d="M163.437 147.932H168.276V158.295L176.821 147.932H182.778L174.467 157.444L183.313 171.862H177.689L171.364 161.132L168.276 164.586V171.862H163.437V147.932Z" fill="white"/>
<path d="M129.62 163.939C131.851 163.939 133.66 162.131 133.66 159.899C133.66 157.668 131.851 155.859 129.62 155.859C127.389 155.859 125.58 157.668 125.58 159.899C125.58 162.131 127.389 163.939 129.62 163.939Z" fill="white"/>
</g>
<defs>
<clipPath id="clip0_1022_508">
<rect width="480" height="320" fill="white"/>
</clipPath>
</defs>
</svg>
