<svg width="328" height="135" viewBox="0 0 328 135" fill="none" xmlns="http://www.w3.org/2000/svg">
<path d="M327.426 0.474609V134.368H167.914V0.474609H327.426Z" fill="white" stroke="#F3F3F3" stroke-width="0.468532"/>
<path d="M206.221 67.466C206.221 68.1629 206.308 68.8335 206.482 69.4775C206.656 70.1214 206.922 70.6896 207.278 71.182C207.634 71.6747 208.088 72.0705 208.642 72.3697C209.195 72.6689 209.854 72.8188 210.619 72.8188C211.385 72.8188 211.966 72.7014 212.455 72.4666C212.943 72.2317 213.334 71.9381 213.625 71.5856C213.917 71.2333 214.121 70.8528 214.239 70.4437C214.356 70.0345 214.415 69.6557 214.415 69.307V69.148H210.244V66.6366H217.62V75.5689H214.733V73.6595C214.529 73.9779 214.275 74.2677 213.972 74.5291C213.669 74.7903 213.328 75.014 212.949 75.1995C212.57 75.3851 212.155 75.5311 211.705 75.6372C211.254 75.7432 210.774 75.7962 210.267 75.7962C209.077 75.7962 208.021 75.5803 207.096 75.1484C206.172 74.7165 205.394 74.1219 204.761 73.3642C204.128 72.6067 203.647 71.7202 203.318 70.7049C202.988 69.6898 202.823 68.5951 202.823 67.4204C202.823 66.2458 203.007 65.1611 203.374 64.1421C203.742 63.1232 204.265 62.2366 204.943 61.4828C205.621 60.7289 206.439 60.1344 207.398 59.6986C208.356 59.2628 209.43 59.0449 210.62 59.0449C211.392 59.0449 212.125 59.134 212.818 59.3119C213.512 59.4901 214.144 59.7438 214.716 60.0733C215.288 60.4028 215.794 60.8008 216.234 61.2665C216.673 61.7323 217.029 62.2497 217.302 62.8179L214.415 64.4427C214.241 64.0944 214.036 63.7705 213.802 63.471C213.567 63.172 213.296 62.9142 212.989 62.6982C212.682 62.4823 212.332 62.3119 211.938 62.187C211.544 62.062 211.104 61.9993 210.62 61.9993C209.855 61.9993 209.195 62.1492 208.642 62.4484C208.089 62.7476 207.635 63.1434 207.278 63.6361C206.922 64.1285 206.657 64.6986 206.483 65.3465C206.309 65.9943 206.222 66.6632 206.222 67.3521V67.466H206.221Z" fill="#0B0C0C"/>
<path d="M228.117 59.0449C229.329 59.0449 230.416 59.2628 231.378 59.6986C232.341 60.1344 233.157 60.7289 233.828 61.4828C234.498 62.2366 235.01 63.1232 235.362 64.1421C235.714 65.1611 235.89 66.2541 235.89 67.4204C235.89 68.5868 235.714 69.6898 235.362 70.7049C235.01 71.7202 234.498 72.6067 233.828 73.3642C233.157 74.1217 232.341 74.7165 231.378 75.1484C230.416 75.5803 229.329 75.7962 228.117 75.7962C226.905 75.7962 225.808 75.5803 224.85 75.1484C223.891 74.7165 223.077 74.1219 222.406 73.3642C221.736 72.6067 221.224 71.7202 220.872 70.7049C220.52 69.6898 220.344 68.5951 220.344 67.4204C220.344 66.2458 220.52 65.1611 220.872 64.1421C221.224 63.1232 221.736 62.2366 222.406 61.4828C223.077 60.7289 223.891 60.1344 224.85 59.6986C225.808 59.2628 226.897 59.0449 228.117 59.0449ZM228.117 72.8185C228.829 72.8185 229.456 72.6842 229.998 72.4149C230.539 72.1462 230.996 71.7729 231.367 71.2958C231.738 70.8184 232.019 70.2541 232.208 69.6024C232.397 68.9509 232.492 68.2387 232.492 67.466V67.3749C232.492 66.6097 232.397 65.8994 232.208 65.244C232.019 64.5887 231.738 64.0222 231.367 63.5451C230.996 63.0679 230.539 62.6949 229.998 62.4257C229.456 62.157 228.829 62.0224 228.117 62.0224C227.405 62.0224 226.776 62.157 226.23 62.4257C225.685 62.6949 225.228 63.0679 224.861 63.5451C224.493 64.0222 224.215 64.589 224.026 65.244C223.836 65.8994 223.741 66.6097 223.741 67.3749V67.466C223.741 68.2387 223.836 68.9509 224.026 69.6024C224.215 70.2541 224.493 70.8181 224.861 71.2958C225.228 71.7729 225.685 72.1462 226.23 72.4149C226.776 72.6842 227.405 72.8185 228.117 72.8185Z" fill="#0B0C0C"/>
<path d="M241.698 75.5678L237.096 59.2715H240.789L243.937 71.5221H244.051L247.131 59.2715H250.779L246.176 75.5678H241.699H241.698Z" fill="#0B0C0C"/>
<path d="M269.446 72.819C269.923 72.819 270.368 72.7491 270.781 72.6089C271.194 72.4687 271.55 72.2567 271.849 71.9724C272.148 71.6882 272.385 71.3288 272.559 70.8927C272.733 70.4572 272.82 69.944 272.82 69.3531V59.25H276.059V69.8416C276.059 70.7509 275.895 71.573 275.566 72.3077C275.236 73.0427 274.778 73.6678 274.192 74.183C273.605 74.6984 272.907 75.0959 272.097 75.3762C271.287 75.6563 270.401 75.7967 269.44 75.7967C268.479 75.7967 267.593 75.6563 266.783 75.3762C265.973 75.0959 265.273 74.6981 264.682 74.183C264.092 73.6678 263.632 73.043 263.302 72.3077C262.973 71.573 262.809 70.7506 262.809 69.8416V59.25H266.07V69.3531C266.07 69.944 266.157 70.4572 266.331 70.8927C266.506 71.3288 266.743 71.6882 267.042 71.9724C267.341 72.2567 267.697 72.4687 268.11 72.6089C268.523 72.7491 268.968 72.819 269.446 72.819Z" fill="#0B0C0C"/>
<path d="M278.982 59.2715H282.278V66.3286L288.097 59.2715H292.154L286.495 65.749L292.518 75.5678H288.688L284.381 68.2604L282.278 70.6128V75.5678H278.982V59.2715Z" fill="#0B0C0C"/>
<path d="M255.952 70.1724C257.472 70.1724 258.704 68.9406 258.704 67.4211C258.704 65.9017 257.472 64.6699 255.952 64.6699C254.433 64.6699 253.201 65.9017 253.201 67.4211C253.201 68.9406 254.433 70.1724 255.952 70.1724Z" fill="#0B0C0C"/>
<path d="M0.54248 0.240234H160.523V134.603H0.54248V0.240234Z" fill="#0B0C0C"/>
<path d="M39.0823 67.466C39.0823 68.1629 39.1694 68.8335 39.3437 69.4775C39.5178 70.1214 39.7829 70.6896 40.1393 71.182C40.4954 71.6747 40.9498 72.0705 41.5029 72.3697C42.0561 72.6689 42.7154 72.8188 43.4806 72.8188C44.2459 72.8188 44.8274 72.7014 45.3162 72.4666C45.8047 72.2317 46.195 71.9381 46.4867 71.5856C46.7781 71.2333 46.9827 70.8528 47.1004 70.4437C47.2178 70.0345 47.2764 69.6557 47.2764 69.307V69.148H43.1056V66.6366H50.4812V75.5689H47.5947V73.6595C47.3902 73.9779 47.1362 74.2677 46.8334 74.5291C46.5303 74.7903 46.1894 75.014 45.8102 75.1995C45.4314 75.3851 45.0164 75.5311 44.5659 75.6372C44.1151 75.7432 43.6358 75.7962 43.1284 75.7962C41.9387 75.7962 40.882 75.5803 39.9577 75.1484C39.0334 74.7165 38.2548 74.1219 37.6223 73.3642C36.9897 72.6067 36.5087 71.7202 36.1789 70.7049C35.8494 69.6898 35.6846 68.5951 35.6846 67.4204C35.6846 66.2458 35.8683 65.1611 36.2358 64.1421C36.6033 63.1232 37.126 62.2366 37.8044 61.4828C38.4825 60.7289 39.3004 60.1344 40.2589 59.6986C41.2173 59.2628 42.2912 59.0449 43.4809 59.0449C44.2536 59.0449 44.9867 59.134 45.6798 59.3119C46.3732 59.4901 47.0057 59.7438 47.5778 60.0733C48.1496 60.4028 48.6553 60.8008 49.095 61.2665C49.5341 61.7323 49.8905 62.2497 50.1633 62.8179L47.2766 64.4427C47.1023 64.0944 46.8978 63.7705 46.6629 63.471C46.4278 63.172 46.1572 62.9142 45.8505 62.6982C45.5435 62.4823 45.1932 62.3119 44.7993 62.187C44.4052 62.062 43.9658 61.9993 43.4812 61.9993C42.7159 61.9993 42.0567 62.1492 41.5035 62.4484C40.9503 62.7476 40.4959 63.1434 40.1398 63.6361C39.7837 64.1285 39.5186 64.6986 39.3443 65.3465C39.17 65.9943 39.0828 66.6632 39.0828 67.3521V67.466H39.0823Z" fill="white"/>
<path d="M60.9771 59.0449C62.1893 59.0449 63.2765 59.2628 64.2388 59.6986C65.2011 60.1344 66.0175 60.7289 66.6881 61.4828C67.3584 62.2366 67.87 63.1232 68.2222 64.1421C68.5744 65.1611 68.7504 66.2541 68.7504 67.4204C68.7504 68.5868 68.5744 69.6898 68.2222 70.7049C67.87 71.7202 67.3584 72.6067 66.6881 73.3642C66.0177 74.1217 65.2011 74.7165 64.2388 75.1484C63.2768 75.5803 62.1893 75.7962 60.9771 75.7962C59.765 75.7962 58.668 75.5803 57.7099 75.1484C56.7514 74.7165 55.937 74.1219 55.2667 73.3642C54.5961 72.6067 54.0848 71.7202 53.7326 70.7049C53.3804 69.6898 53.2041 68.5951 53.2041 67.4204C53.2041 66.2458 53.3804 65.1611 53.7326 64.1421C54.0848 63.1232 54.5961 62.2366 55.2667 61.4828C55.937 60.7289 56.7514 60.1344 57.7099 59.6986C58.6683 59.2628 59.7572 59.0449 60.9771 59.0449ZM60.9771 72.8185C61.6894 72.8185 62.3164 72.6842 62.8579 72.4149C63.3994 72.1462 63.8563 71.7729 64.2272 71.2958C64.5985 70.8184 64.8789 70.2541 65.0682 69.6024C65.2575 68.9509 65.3524 68.2387 65.3524 67.466V67.3749C65.3524 66.6097 65.2575 65.8994 65.0682 65.244C64.8789 64.5887 64.5985 64.0222 64.2272 63.5451C63.856 63.0679 63.3994 62.6949 62.8579 62.4257C62.3164 62.157 61.6894 62.0224 60.9771 62.0224C60.2649 62.0224 59.6362 62.157 59.0905 62.4257C58.5451 62.6949 58.0887 63.0679 57.7212 63.5451C57.3537 64.0222 57.0753 64.589 56.886 65.244C56.6967 65.8994 56.6018 66.6097 56.6018 67.3749V67.466C56.6018 68.2387 56.6967 68.9509 56.886 69.6024C57.0753 70.2541 57.3537 70.8181 57.7212 71.2958C58.0887 71.7729 58.5451 72.1462 59.0905 72.4149C59.6362 72.6842 60.2649 72.8185 60.9771 72.8185Z" fill="white"/>
<path d="M74.5601 75.5678L69.9575 59.2715H73.6511L76.7993 71.5221H76.9128L79.9927 59.2715H83.6405L79.0379 75.5678H74.5604H74.5601Z" fill="white"/>
<path d="M102.308 72.819C102.785 72.819 103.23 72.7491 103.643 72.6089C104.056 72.4687 104.412 72.2567 104.711 71.9724C105.01 71.6882 105.247 71.3288 105.422 70.8927C105.596 70.4572 105.683 69.944 105.683 69.3531V59.25H108.922V69.8416C108.922 70.7509 108.757 71.573 108.428 72.3077C108.099 73.0427 107.641 73.6678 107.054 74.183C106.467 74.6984 105.769 75.0959 104.959 75.3762C104.149 75.6563 103.263 75.7967 102.302 75.7967C101.341 75.7967 100.455 75.6563 99.6454 75.3762C98.8352 75.0959 98.1351 74.6981 97.5445 74.183C96.9538 73.6678 96.4942 73.043 96.1647 72.3077C95.8355 71.573 95.6709 70.7506 95.6709 69.8416V59.25H98.9326V69.3531C98.9326 69.944 99.0198 70.4572 99.1938 70.8927C99.3681 71.3288 99.6049 71.6882 99.9041 71.9724C100.203 72.2567 100.559 72.4687 100.972 72.6089C101.385 72.7491 101.831 72.819 102.308 72.819Z" fill="white"/>
<path d="M111.844 59.2715H115.14V66.3286L120.959 59.2715H125.016L119.356 65.749L125.38 75.5678H121.55L117.243 68.2604L115.14 70.6128V75.5678H111.844V59.2715Z" fill="white"/>
<path d="M88.8147 70.1724C90.3342 70.1724 91.566 68.9406 91.566 67.4211C91.566 65.9017 90.3342 64.6699 88.8147 64.6699C87.2953 64.6699 86.0635 65.9017 86.0635 67.4211C86.0635 68.9406 87.2953 70.1724 88.8147 70.1724Z" fill="white"/>
</svg>
