<svg width="1920" height="1280" viewBox="0 0 1920 1280" fill="none" xmlns="http://www.w3.org/2000/svg">
<g clip-path="url(#clip0_1022_508)">
<rect width="1920" height="1280" fill="white"/>
<path d="M1920 0V1280H983V0H1920Z" fill="white" stroke="#F3F3F3" stroke-width="0.468532"/>
<path d="M1208.08 639.861C1208.08 643.954 1208.6 647.893 1209.62 651.676C1210.64 655.458 1212.2 658.795 1214.29 661.688C1216.38 664.581 1219.05 666.906 1222.3 668.664C1225.55 670.421 1229.42 671.302 1233.92 671.302C1238.42 671.302 1241.83 670.612 1244.7 669.233C1247.57 667.853 1249.86 666.129 1251.57 664.058C1253.29 661.989 1254.49 659.754 1255.18 657.351C1255.87 654.948 1256.21 652.723 1256.21 650.674V649.741H1231.71V634.989H1275.04V687.455H1258.08V676.24C1256.88 678.11 1255.39 679.812 1253.61 681.347C1251.83 682.881 1249.83 684.195 1247.6 685.285C1245.38 686.375 1242.94 687.233 1240.3 687.856C1237.65 688.478 1234.83 688.79 1231.85 688.79C1224.86 688.79 1218.66 687.522 1213.22 684.985C1207.8 682.448 1203.23 678.955 1199.51 674.505C1195.79 670.056 1192.97 664.849 1191.03 658.885C1189.09 652.923 1188.13 646.493 1188.13 639.593C1188.13 632.694 1189.21 626.323 1191.36 620.338C1193.52 614.353 1196.6 609.145 1200.58 604.718C1204.56 600.29 1209.36 596.798 1215 594.238C1220.62 591.678 1226.93 590.398 1233.92 590.398C1238.46 590.398 1242.76 590.922 1246.83 591.967C1250.91 593.013 1254.62 594.504 1257.98 596.439C1261.34 598.374 1264.31 600.712 1266.9 603.447C1269.48 606.183 1271.57 609.222 1273.17 612.56L1256.21 622.103C1255.19 620.057 1253.99 618.155 1252.61 616.396C1251.23 614.64 1249.64 613.125 1247.84 611.857C1246.03 610.589 1243.98 609.588 1241.66 608.854C1239.35 608.12 1236.77 607.752 1233.92 607.752C1229.43 607.752 1225.55 608.632 1222.3 610.389C1219.06 612.147 1216.39 614.472 1214.29 617.366C1212.2 620.258 1210.64 623.606 1209.62 627.412C1208.6 631.217 1208.09 635.146 1208.09 639.192V639.861H1208.08Z" fill="#0B0C0C"/>
<path d="M1336.69 590.398C1343.81 590.398 1350.2 591.678 1355.85 594.238C1361.5 596.798 1366.3 600.29 1370.24 604.718C1374.17 609.145 1377.18 614.353 1379.25 620.338C1381.32 626.323 1382.35 632.743 1382.35 639.593C1382.35 646.444 1381.32 652.923 1379.25 658.885C1377.18 664.849 1374.17 670.056 1370.24 674.505C1366.3 678.954 1361.5 682.448 1355.85 684.985C1350.2 687.522 1343.81 688.79 1336.69 688.79C1329.57 688.79 1323.13 687.522 1317.5 684.985C1311.87 682.448 1307.09 678.955 1303.15 674.505C1299.21 670.056 1296.21 664.849 1294.14 658.885C1292.07 652.923 1291.04 646.493 1291.04 639.593C1291.04 632.694 1292.07 626.323 1294.14 620.338C1296.21 614.353 1299.21 609.145 1303.15 604.718C1307.09 600.29 1311.87 596.798 1317.5 594.238C1323.13 591.678 1329.53 590.398 1336.69 590.398ZM1336.69 671.3C1340.88 671.3 1344.56 670.511 1347.74 668.929C1350.92 667.351 1353.6 665.158 1355.78 662.356C1357.96 659.552 1359.61 656.237 1360.72 652.41C1361.83 648.583 1362.39 644.4 1362.39 639.861V639.326C1362.39 634.831 1361.83 630.659 1360.72 626.81C1359.61 622.961 1357.96 619.633 1355.78 616.831C1353.6 614.028 1350.92 611.837 1347.74 610.256C1344.56 608.678 1340.88 607.887 1336.69 607.887C1332.51 607.887 1328.82 608.678 1325.61 610.256C1322.41 611.837 1319.72 614.028 1317.57 616.831C1315.41 619.633 1313.77 622.963 1312.66 626.81C1311.55 630.659 1310.99 634.831 1310.99 639.326V639.861C1310.99 644.4 1311.55 648.583 1312.66 652.41C1313.77 656.237 1315.41 659.55 1317.57 662.356C1319.72 665.158 1322.41 667.351 1325.61 668.929C1328.82 670.511 1332.51 671.3 1336.69 671.3Z" fill="#0B0C0C"/>
<path d="M1416.46 687.447L1389.43 591.729H1411.12L1429.61 663.684H1430.28L1448.37 591.729H1469.8L1442.77 687.447H1416.47H1416.46Z" fill="#0B0C0C"/>
<path d="M1579.45 671.303C1582.25 671.303 1584.86 670.893 1587.29 670.069C1589.71 669.246 1591.8 668 1593.56 666.33C1595.32 664.661 1596.71 662.55 1597.73 659.989C1598.75 657.431 1599.26 654.416 1599.26 650.946V591.604H1618.29V653.815C1618.29 659.156 1617.32 663.985 1615.39 668.3C1613.45 672.617 1610.76 676.289 1607.32 679.315C1603.87 682.342 1599.77 684.677 1595.02 686.323C1590.26 687.968 1585.05 688.793 1579.41 688.793C1573.77 688.793 1568.56 687.968 1563.8 686.323C1559.05 684.677 1554.93 682.34 1551.46 679.315C1548 676.289 1545.3 672.619 1543.36 668.3C1541.43 663.985 1540.46 659.154 1540.46 653.815V591.604H1559.62V650.946C1559.62 654.416 1560.13 657.431 1561.15 659.989C1562.18 662.55 1563.57 664.661 1565.33 666.33C1567.08 668 1569.17 669.246 1571.6 670.069C1574.02 670.893 1576.64 671.303 1579.45 671.303Z" fill="#0B0C0C"/>
<path d="M1635.46 591.729H1654.82V633.179L1688.99 591.729H1712.82L1679.59 629.775L1714.96 687.447H1692.47L1667.17 644.526L1654.82 658.343V687.447H1635.46V591.729Z" fill="#0B0C0C"/>
<path d="M1500.19 655.757C1509.11 655.757 1516.35 648.522 1516.35 639.597C1516.35 630.673 1509.11 623.438 1500.19 623.438C1491.26 623.438 1484.03 630.673 1484.03 639.597C1484.03 648.522 1491.26 655.757 1500.19 655.757Z" fill="#0B0C0C"/>
<path d="M0 2H940V1282H0V2Z" fill="#0B0C0C"/>
<path d="M226.369 639.861C226.369 643.954 226.881 647.893 227.905 651.676C228.927 655.458 230.484 658.795 232.578 661.688C234.669 664.581 237.338 666.906 240.587 668.664C243.836 670.421 247.709 671.302 252.203 671.302C256.698 671.302 260.114 670.612 262.985 669.233C265.854 667.853 268.147 666.129 269.86 664.058C271.572 661.989 272.773 659.754 273.465 657.351C274.154 654.948 274.499 652.723 274.499 650.674V649.741H250.001V634.989H293.322V687.455H276.368V676.24C275.167 678.11 273.675 679.812 271.897 681.347C270.116 682.881 268.114 684.195 265.887 685.285C263.662 686.375 261.224 687.233 258.578 687.856C255.93 688.478 253.115 688.79 250.135 688.79C243.147 688.79 236.94 687.522 231.511 684.985C226.082 682.448 221.509 678.955 217.794 674.505C214.078 670.056 211.253 664.849 209.316 658.885C207.38 652.923 206.412 646.493 206.412 639.593C206.412 632.694 207.491 626.323 209.65 620.338C211.809 614.353 214.879 609.145 218.863 604.718C222.846 600.29 227.65 596.798 233.28 594.238C238.91 591.678 245.217 590.398 252.205 590.398C256.744 590.398 261.05 590.922 265.121 591.967C269.194 593.013 272.909 594.504 276.269 596.439C279.627 598.374 282.598 600.712 285.18 603.447C287.76 606.183 289.853 609.222 291.455 612.56L274.5 622.103C273.476 620.057 272.275 618.155 270.895 616.396C269.514 614.64 267.925 613.125 266.123 611.857C264.32 610.589 262.263 609.588 259.949 608.854C257.634 608.12 255.053 607.752 252.207 607.752C247.712 607.752 243.84 608.632 240.591 610.389C237.341 612.147 234.672 614.472 232.581 617.366C230.489 620.258 228.932 623.606 227.908 627.412C226.884 631.217 226.372 635.146 226.372 639.192L226.369 639.861Z" fill="white"/>
<path d="M354.972 590.398C362.092 590.398 368.478 591.678 374.13 594.238C379.782 596.798 384.577 600.29 388.516 604.718C392.453 609.145 395.458 614.353 397.527 620.338C399.596 626.323 400.63 632.743 400.63 639.593C400.63 646.444 399.596 652.923 397.527 658.885C395.458 664.849 392.453 670.056 388.516 674.505C384.579 678.954 379.782 682.448 374.13 684.985C368.48 687.522 362.092 688.79 354.972 688.79C347.852 688.79 341.409 687.522 335.782 684.985C330.152 682.448 325.368 678.955 321.431 674.505C317.492 670.056 314.489 664.849 312.42 658.885C310.352 652.923 309.316 646.493 309.316 639.593C309.316 632.694 310.352 626.323 312.42 620.338C314.489 614.353 317.492 609.145 321.431 604.718C325.368 600.29 330.152 596.798 335.782 594.238C341.411 591.678 347.807 590.398 354.972 590.398ZM354.972 671.3C359.156 671.3 362.839 670.511 366.019 668.929C369.2 667.351 371.883 665.158 374.062 662.356C376.243 659.552 377.89 656.237 379.002 652.41C380.114 648.583 380.671 644.4 380.671 639.861V639.326C380.671 634.831 380.114 630.659 379.002 626.81C377.89 622.961 376.243 619.633 374.062 616.831C371.882 614.028 369.2 611.837 366.019 610.256C362.839 608.678 359.156 607.887 354.972 607.887C350.789 607.887 347.096 608.678 343.891 610.256C340.687 611.837 338.006 614.028 335.848 616.831C333.689 619.633 332.054 622.963 330.942 626.81C329.83 630.659 329.273 634.831 329.273 639.326V639.861C329.273 644.4 329.83 648.583 330.942 652.41C332.054 656.237 333.689 659.55 335.848 662.356C338.006 665.158 340.687 667.351 343.891 668.929C347.096 670.511 350.789 671.3 354.972 671.3Z" fill="white"/>
<path d="M434.754 687.447L407.72 591.729H429.415L447.906 663.684H448.573L466.663 591.729H488.089L461.055 687.447H434.754Z" fill="white"/>
<path d="M597.735 671.303C600.537 671.303 603.151 670.893 605.577 670.069C608.002 669.246 610.093 668 611.85 666.33C613.606 664.661 614.998 662.55 616.026 659.989C617.048 657.431 617.559 654.416 617.559 650.946V591.604H636.584V653.815C636.584 659.156 635.614 663.985 633.682 668.3C631.75 672.617 629.059 676.289 625.612 679.315C622.164 682.342 618.064 684.677 613.306 686.323C608.549 687.968 603.345 688.793 597.7 688.793C592.055 688.793 586.851 687.968 582.096 686.323C577.337 684.677 573.225 682.34 569.756 679.315C566.287 676.289 563.587 672.619 561.652 668.3C559.718 663.985 558.751 659.154 558.751 653.815V591.604H577.909V650.946C577.909 654.416 578.422 657.431 579.444 659.989C580.467 662.55 581.858 664.661 583.616 666.33C585.371 668 587.462 669.246 589.888 670.069C592.314 670.893 594.934 671.303 597.735 671.303Z" fill="white"/>
<path d="M653.746 591.729H673.106V633.179L707.285 591.729H731.114L697.869 629.775L733.252 687.447H710.756L685.458 644.526L673.106 658.343V687.447H653.746V591.729Z" fill="white"/>
<path d="M518.48 655.757C527.405 655.757 534.64 648.522 534.64 639.597C534.64 630.673 527.405 623.438 518.48 623.438C509.556 623.438 502.321 630.673 502.321 639.597C502.321 648.522 509.556 655.757 518.48 655.757Z" fill="white"/>
</g>
<defs>
<clipPath id="clip0_1022_508">
<rect width="1920" height="1280" fill="white"/>
</clipPath>
</defs>
</svg>
