<svg width="205" height="191" viewBox="0 0 205 191" fill="none" xmlns="http://www.w3.org/2000/svg">
<rect x="0" y="0" width="205" height="191" fill="#1D70B8"/>
<path d="M120.797 45.9203C120.867 45.9203 120.925 45.9147 120.97 45.9036C121.014 45.8914 121.049 45.8727 121.073 45.8474C121.097 45.8221 121.113 45.7897 121.121 45.7503C121.131 45.7098 121.135 45.6607 121.135 45.6031V45.5682H121.393V47.7446H121.126V46.1464H120.703V45.9203H120.797Z" fill="white"/>
<path d="M101.907 63.8678C101.978 63.8678 102.036 63.8622 102.08 63.8511C102.125 63.8389 102.159 63.8202 102.183 63.7949C102.208 63.7696 102.224 63.7373 102.232 63.6978C102.241 63.6573 102.245 63.6082 102.245 63.5506V63.5157H102.504V65.6921H102.236V64.0939H101.813V63.8678H101.907Z" fill="white"/>
<path d="M121.18 35.4356C124.646 35.4356 127.456 32.6262 127.456 29.1605C127.456 25.6949 124.646 22.8854 121.18 22.8854C117.715 22.8854 114.905 25.6949 114.905 29.1605C114.905 32.6262 117.715 35.4356 121.18 35.4356Z" fill="#00FFE0"/>
<path d="M7.7497 29.2642C7.7497 30.8539 7.94849 32.3834 8.34608 33.8522C8.74303 35.3209 9.34763 36.6169 10.1605 37.74C10.9728 38.8637 12.0092 39.7665 13.2709 40.4489C14.5327 41.1314 16.0363 41.4732 17.7817 41.4732C19.5271 41.4732 20.8535 41.2055 21.9683 40.6699C23.0826 40.1343 23.9727 39.4645 24.6381 38.6605C25.3029 37.8571 25.7694 36.9891 26.0379 36.056C26.3057 35.1228 26.4393 34.2586 26.4393 33.4635V33.1007H16.9264V27.3726H33.749V47.7458H27.1654V43.3909C26.6988 44.117 26.1195 44.7779 25.4288 45.3743C24.7375 45.97 23.9601 46.4803 23.0953 46.9032C22.2311 47.3267 21.2846 47.6597 20.2571 47.9016C19.229 48.1434 18.1356 48.2643 16.9783 48.2643C14.2649 48.2643 11.8547 47.7718 9.74648 46.7867C7.63828 45.8016 5.86245 44.4456 4.41963 42.7173C2.97681 40.9896 1.87966 38.9675 1.12754 36.6517C0.376061 34.3365 0 31.8396 0 29.1604C0 26.4812 0.419107 24.0071 1.25732 21.6831C2.09554 19.359 3.28765 17.337 4.83494 15.6175C6.38158 13.898 8.24731 12.542 10.4334 11.548C12.6195 10.5541 15.0689 10.0571 17.7823 10.0571C19.5449 10.0571 21.2169 10.2603 22.7977 10.6662C24.3792 11.0726 25.822 11.6512 27.1268 12.4027C28.431 13.1542 29.5845 14.062 30.5873 15.1243C31.5888 16.1866 32.4017 17.3667 33.0241 18.6626L26.4399 22.3687C26.0423 21.5742 25.5757 20.8354 25.0401 20.1523C24.5039 19.4704 23.8866 18.8823 23.1871 18.3898C22.4869 17.8972 21.6879 17.5085 20.7895 17.2236C19.8905 16.9387 18.8883 16.7957 17.783 16.7957C16.0375 16.7957 14.5339 17.1375 13.2722 17.82C12.0104 18.5025 10.974 19.4052 10.1618 20.529C9.34953 21.652 8.74493 22.9524 8.34734 24.43C7.94976 25.9076 7.75097 27.4334 7.75097 29.0047V29.2642H7.7497Z" fill="white"/>
<path d="M57.6881 10.0565C60.4529 10.0565 62.9327 10.5535 65.1276 11.5474C67.3219 12.5414 69.1845 13.8974 70.714 15.6169C72.243 17.3363 73.4098 19.3584 74.2132 21.6825C75.0165 24.0065 75.4179 26.4996 75.4179 29.1598C75.4179 31.82 75.0165 34.3359 74.2132 36.6511C73.4098 38.9669 72.243 40.989 70.714 42.7166C69.1851 44.4443 67.3226 45.801 65.1276 46.7861C62.9333 47.7712 60.4529 48.2637 57.6881 48.2637C54.9234 48.2637 52.4214 47.7712 50.236 46.7861C48.0499 45.801 46.1924 44.445 44.6635 42.7166C43.1339 40.989 41.9678 38.9669 41.1644 36.6511C40.361 34.3359 39.959 31.839 39.959 29.1598C39.959 26.4806 40.361 24.0065 41.1644 21.6825C41.9678 19.3584 43.1339 17.3363 44.6635 15.6169C46.1924 13.8974 48.0499 12.5414 50.236 11.5474C52.4221 10.5535 54.9057 10.0565 57.6881 10.0565ZM57.6881 41.4726C59.3127 41.4726 60.7428 41.1662 61.978 40.5521C63.2131 39.9393 64.2552 39.0878 65.101 37.9995C65.9481 36.9106 66.5875 35.6236 67.0193 34.1371C67.4511 32.6513 67.6676 31.0268 67.6676 29.2643V29.0566C67.6676 27.3112 67.4511 25.6911 67.0193 24.1964C66.5875 22.7017 65.9481 21.4096 65.101 20.3213C64.2546 19.2331 63.2131 18.3822 61.978 17.7681C60.7428 17.1553 59.3127 16.8482 57.6881 16.8482C56.0636 16.8482 54.6297 17.1553 53.385 17.7681C52.141 18.3822 51.1002 19.2331 50.2619 20.3213C49.4237 21.4096 48.7887 22.7024 48.357 24.1964C47.9252 25.6911 47.7087 27.3112 47.7087 29.0566V29.2643C47.7087 31.0268 47.9252 32.6513 48.357 34.1371C48.7887 35.6236 49.4237 36.91 50.2619 37.9995C51.1002 39.0878 52.141 39.9393 53.385 40.5521C54.6297 41.1662 56.0636 41.4726 57.6881 41.4726Z" fill="white"/>
<path d="M88.6727 47.7452L78.1748 10.5756H86.5994L93.7799 38.5173H94.0388L101.064 10.5756H109.384L98.8858 47.7452H88.6734H88.6727Z" fill="white"/>
<path d="M151.956 41.4728C153.045 41.4728 154.06 41.3132 155.001 40.9935C155.943 40.6738 156.756 40.1902 157.438 39.5419C158.12 38.8936 158.661 38.0738 159.058 37.0792C159.455 36.0859 159.654 34.9153 159.654 33.5675V10.5232H167.042V34.6811C167.042 36.755 166.666 38.6302 165.915 40.306C165.164 41.9824 164.12 43.4081 162.782 44.5831C161.443 45.7588 159.85 46.6653 158.004 47.3047C156.156 47.9435 154.136 48.2639 151.944 48.2639C149.751 48.2639 147.73 47.9435 145.884 47.3047C144.036 46.6653 142.439 45.7581 141.092 44.5831C139.745 43.4081 138.696 41.983 137.945 40.306C137.194 38.6302 136.818 36.7544 136.818 34.6811V10.5232H144.258V33.5668C144.258 34.9147 144.457 36.0852 144.854 37.0785C145.251 38.0731 145.791 38.893 146.474 39.5412C147.156 40.1895 147.968 40.6732 148.91 40.9929C149.852 41.3126 150.868 41.4721 151.956 41.4721V41.4728Z" fill="white"/>
<path d="M173.708 10.5751H181.225V26.6712L194.497 10.5751H203.751L190.842 25.3494L204.58 47.7447H195.845L186.021 31.0775L181.225 36.4429V47.7447H173.708V10.5751Z" fill="white"/>
<path d="M82.2146 109.372C85.6803 109.372 88.4898 106.563 88.4898 103.097C88.4898 99.6316 85.6803 96.8222 82.2146 96.8222C78.7489 96.8222 75.9395 99.6316 75.9395 103.097C75.9395 106.563 78.7489 109.372 82.2146 109.372Z" fill="white"/>
<path d="M65.3318 119.484C68.7975 119.484 71.607 116.674 71.607 113.209C71.607 109.743 68.7975 106.934 65.3318 106.934C61.8661 106.934 59.0566 109.743 59.0566 113.209C59.0566 116.674 61.8661 119.484 65.3318 119.484Z" fill="white"/>
<path d="M54.1648 136.112C57.6305 136.112 60.44 133.302 60.44 129.837C60.44 126.371 57.6305 123.562 54.1648 123.562C50.6991 123.562 47.8896 126.371 47.8896 129.837C47.8896 133.302 50.6991 136.112 54.1648 136.112Z" fill="white"/>
<path d="M102.29 131.718C105.756 131.718 108.565 128.908 108.565 125.443C108.565 121.977 105.756 119.168 102.29 119.168C98.8241 119.168 96.0146 121.977 96.0146 125.443C96.0146 128.908 98.8241 131.718 102.29 131.718Z" fill="white"/>
<path d="M122.34 109.373C125.805 109.373 128.615 106.563 128.615 103.097C128.615 99.6318 125.805 96.8224 122.34 96.8224C118.874 96.8224 116.064 99.6318 116.064 103.097C116.064 106.563 118.874 109.373 122.34 109.373Z" fill="white"/>
<path d="M139.224 119.484C142.69 119.484 145.5 116.674 145.5 113.209C145.5 109.743 142.69 106.934 139.224 106.934C135.759 106.934 132.949 109.743 132.949 113.209C132.949 116.674 135.759 119.484 139.224 119.484Z" fill="white"/>
<path d="M150.394 136.112C153.86 136.112 156.669 133.302 156.669 129.837C156.669 126.371 153.86 123.562 150.394 123.562C146.929 123.562 144.119 126.371 144.119 129.837C144.119 133.302 146.929 136.112 150.394 136.112Z" fill="white"/>
<path d="M102.29 131.718C105.756 131.718 108.565 128.908 108.565 125.443C108.565 121.977 105.756 119.168 102.29 119.168C98.8241 119.168 96.0146 121.977 96.0146 125.443C96.0146 128.908 98.8241 131.718 102.29 131.718Z" fill="white"/>
<path d="M104.817 89.6583C105.135 89.4196 105.417 89.1378 105.655 88.8204L113.638 93.011V81.2454L105.667 83.7755C105.434 83.4645 105.159 83.1865 104.85 82.9491L108.058 72.8452H96.516L99.7241 82.9491C99.4156 83.1852 99.1414 83.4632 98.9078 83.7755L90.9365 81.2454V93.011L98.9192 88.8204C99.1579 89.1378 99.4397 89.4196 99.7571 89.6583L95.2097 103.37C93.6088 108.197 97.2028 113.174 102.287 113.174C107.372 113.174 110.966 108.197 109.365 103.37L104.817 89.6583Z" fill="white"/>
<path d="M111.411 137.94C111.411 137.94 105.582 144.425 104.31 148.382C108.125 148.262 111.553 147.519 115.325 143.581L114.046 158.232C110.574 153.361 106.503 151.262 104.246 151.682C104.474 156.932 105.024 163.275 114.218 164.11C120.632 164.667 125.783 161.516 126.318 157.618C126.955 153.139 122.919 150.176 119.876 154.891C117.497 147.089 124.069 144.495 128.29 149.326C125.04 141.626 125.126 136.156 132.355 130.625C137.541 137.519 136.806 143.218 130.377 149.634C134.563 147.319 141.063 149.755 137.234 157.576C135.234 152.711 130.941 153.798 130.041 157.983C129.44 160.94 131.234 164.419 135.134 165.132C138.334 165.718 143.263 163.532 147.213 155.023C144.992 155.08 143.042 156.202 140.52 157.938L144.664 144.124C145.708 148.001 147.043 150.547 148.457 151.923C149.407 149.133 149.271 147.109 148.422 142.761L156.987 145.81C152.437 152.017 148.03 160.727 144.415 175.938C131.672 174.119 117.407 173.097 102.291 173.097C87.1757 173.097 72.909 174.12 60.1657 175.938C56.5514 160.726 52.1437 152.016 47.5938 145.81L56.1591 142.761C55.3086 147.109 55.174 149.133 56.1236 151.923C57.5378 150.547 58.8733 148.001 59.9169 144.124L64.0605 157.938C61.5393 156.201 59.5893 155.08 57.3677 155.023C61.3184 163.532 66.2466 165.717 69.4471 165.132C73.347 164.419 75.1395 160.94 74.5403 157.983C73.6402 153.798 69.348 152.711 67.3473 157.576C63.5185 149.755 70.0183 147.317 74.2039 149.634C67.7751 143.218 67.0388 137.518 72.226 130.625C79.4546 136.155 79.5409 141.625 76.291 149.326C80.5121 144.496 87.0843 147.089 84.7053 154.891C81.6623 150.176 77.6265 153.139 78.2625 157.618C78.7983 161.518 83.9487 164.669 90.3635 164.11C99.5573 163.275 100.107 156.932 100.335 151.682C98.0783 151.262 94.007 153.36 90.5349 158.232L89.2565 143.581C93.0282 147.519 96.4571 148.26 100.271 148.382C98.9987 144.425 93.1704 137.94 93.1704 137.94H111.416H111.411Z" fill="white"/>
<path d="M127.456 0L127.456 58.3202" stroke="#5694CA" stroke-dasharray="1.02 1.02"/>
<path d="M108.566 58.3202L108.566 190.463" stroke="#5694CA" stroke-dasharray="1.02 1.02"/>
<path d="M114.905 0L114.905 58.3202" stroke="#5694CA" stroke-dasharray="1.02 1.02"/>
<path d="M96.0156 58.3202L96.0156 190.463" stroke="#5694CA" stroke-dasharray="1.02 1.02"/>
</svg>
