<svg width="293" height="52" viewBox="0 0 293 52" fill="none" xmlns="http://www.w3.org/2000/svg">
<rect x="0" y="0" width="293" height="52" fill="#1D70B8">
<path d="M114.753 19.9813L267.851 19.9813" stroke="#5694CA" stroke-dasharray="1.04 1.04"/>
<path d="M114.753 26.3091L267.851 26.3091" stroke="#5694CA" stroke-dasharray="1.04 1.04"/>
<path d="M114.753 32.637L267.851 32.637" stroke="#5694CA" stroke-dasharray="1.04 1.04"/>
<path d="M7.74952 26.4116C7.74952 28.0013 7.94831 29.5308 8.34588 30.9996C8.74282 32.4684 9.34741 33.7643 10.1603 34.8874C10.9725 36.0111 12.0089 36.9139 13.2706 37.5964C14.5323 38.2788 16.0359 38.6207 17.7813 38.6207C19.5267 38.6207 20.853 38.3529 21.9678 37.8173C23.0821 37.2817 23.9722 36.6119 24.6375 35.8079C25.3023 35.0045 25.7688 34.1365 26.0373 33.2034C26.3051 32.2702 26.4386 31.406 26.4386 30.6109V30.2481H16.926V24.5199H33.7482V44.8933H27.1648V40.5383C26.6982 41.2645 26.1189 41.9254 25.4282 42.5218C24.7369 43.1175 23.9595 43.6278 23.0947 44.0507C22.2306 44.4742 21.2841 44.8072 20.2566 45.0491C19.2285 45.2909 18.1352 45.4118 16.9779 45.4118C14.2645 45.4118 11.8544 44.9193 9.74625 43.9342C7.6381 42.9491 5.86231 41.593 4.41952 39.8647C2.97674 38.137 1.87961 36.1149 1.12751 33.7991C0.37605 31.4839 0 28.987 0 26.3078C0 23.6286 0.419098 21.1545 1.25729 18.8304C2.09549 16.5063 3.28758 14.4842 4.83482 12.7648C6.38144 11.0453 8.24712 9.68924 10.4331 8.69529C12.6192 7.70135 15.0685 7.20437 17.7819 7.20437C19.5444 7.20437 21.2164 7.40759 22.7972 7.8134C24.3786 8.21984 25.8214 8.79849 27.1262 9.54996C28.4303 10.3014 29.5838 11.2093 30.5866 12.2716C31.5881 13.3339 32.401 14.514 33.0233 15.8099L26.4393 19.516C26.0417 18.7215 25.5751 17.9827 25.0395 17.2996C24.5033 16.6177 23.8861 16.0296 23.1865 15.5371C22.4863 15.0445 21.6874 14.6558 20.789 14.3709C19.8901 14.086 18.8879 13.943 17.7826 13.943C16.0372 13.943 14.5336 14.2848 13.2719 14.9673C12.0101 15.6498 10.9738 16.5525 10.1615 17.6763C9.34931 18.7994 8.74472 20.0997 8.34714 21.5774C7.94957 23.055 7.75079 24.5807 7.75079 26.152V26.4116H7.74952Z" fill="white"/>
<path d="M57.6882 7.20433C60.4529 7.20433 62.9326 7.70131 65.1275 8.69526C67.3224 9.6892 69.1843 11.0453 70.7138 12.7647C72.2427 14.4842 73.4095 16.5063 74.2128 18.8304C75.0162 21.1544 75.4176 23.6475 75.4176 26.3077C75.4176 28.968 75.0162 31.4839 74.2128 33.7991C73.4095 36.1149 72.2427 38.137 70.7138 39.8647C69.1849 41.5924 67.3224 42.9491 65.1275 43.9342C62.9333 44.9192 60.4529 45.4118 57.6882 45.4118C54.9236 45.4118 52.4216 44.9192 50.2362 43.9342C48.0502 42.9491 46.1928 41.593 44.6639 39.8647C43.1344 38.137 41.9682 36.1149 41.1649 33.7991C40.3615 31.4839 39.9595 28.987 39.9595 26.3077C39.9595 23.6285 40.3615 21.1544 41.1649 18.8304C41.9682 16.5063 43.1344 14.4842 44.6639 12.7647C46.1928 11.0453 48.0502 9.6892 50.2362 8.69526C52.4223 7.70131 54.9058 7.20433 57.6882 7.20433ZM57.6882 38.62C59.3127 38.62 60.7428 38.3136 61.978 37.6995C63.2131 37.0867 64.2551 36.2352 65.1009 35.1469C65.948 34.058 66.5874 32.7709 67.0192 31.2844C67.4509 29.7986 67.6674 28.1741 67.6674 26.4116V26.2039C67.6674 24.4585 67.4509 22.8384 67.0192 21.3437C66.5874 19.849 65.948 18.5569 65.1009 17.4686C64.2545 16.3803 63.2131 15.5294 61.978 14.9153C60.7428 14.3025 59.3127 13.9955 57.6882 13.9955C56.0637 13.9955 54.6298 14.3025 53.3852 14.9153C52.1412 15.5294 51.1004 16.3803 50.2622 17.4686C49.424 18.5569 48.789 19.8496 48.3573 21.3437C47.9255 22.8384 47.709 24.4585 47.709 26.2039V26.4116C47.709 28.1741 47.9255 29.7986 48.3573 31.2844C48.789 32.7709 49.424 34.0574 50.2622 35.1469C51.1004 36.2352 52.1412 37.0867 53.3852 37.6995C54.6298 38.3136 56.0637 38.62 57.6882 38.62Z" fill="white"/>
<path d="M88.6696 44.8926L78.1719 7.72278H86.5963L93.7766 35.6647H94.0356L101.06 7.72278H109.38L98.8824 44.8926H88.6702H88.6696Z" fill="white"/>
<path d="M151.954 38.62C153.042 38.62 154.058 38.4604 154.999 38.1407C155.941 37.821 156.753 37.3373 157.436 36.689C158.118 36.0408 158.658 35.2209 159.056 34.2263C159.453 33.233 159.652 32.0624 159.652 30.7146V7.67085H167.039V31.8288C167.039 33.9028 166.664 35.778 165.913 37.4538C165.162 39.1302 164.117 40.5559 162.779 41.731C161.441 42.9066 159.848 43.8132 158.001 44.4526C156.154 45.0914 154.134 45.4117 151.941 45.4117C149.749 45.4117 147.728 45.0914 145.881 44.4526C144.034 43.8132 142.437 42.906 141.09 41.731C139.742 40.5559 138.694 39.1309 137.943 37.4538C137.192 35.778 136.816 33.9022 136.816 31.8288V7.67085H144.256V30.7146C144.256 32.0624 144.455 33.233 144.851 34.2263C145.249 35.2209 145.789 36.0408 146.471 36.689C147.154 37.3373 147.966 37.821 148.908 38.1407C149.85 38.4604 150.866 38.62 151.954 38.62Z" fill="white"/>
<path d="M173.707 7.72278H181.224V23.819L194.495 7.72278H203.749L190.84 22.4971L204.578 44.8926H195.843L186.019 28.2253L181.224 33.5907V44.8926H173.707V7.72278Z" fill="white"/>
<path d="M121.178 32.5829C124.644 32.5829 127.453 29.7734 127.453 26.3077C127.453 22.8421 124.644 20.0326 121.178 20.0326C117.712 20.0326 114.903 22.8421 114.903 26.3077C114.903 29.7734 117.712 32.5829 121.178 32.5829Z" fill="#00FFE0"/>
<path d="M122.271 26.0384C120.646 26.7096 118.804 25.942 118.144 24.3391C117.48 22.7397 118.24 20.8761 119.864 20.2121C121.457 19.5588 123.306 20.3406 123.966 21.9436C124.627 23.5394 123.863 25.3851 122.271 26.0384Z" fill="#0F385C"/>
<path d="M122.271 32.3387C120.646 33.0099 118.804 32.2423 118.144 30.6394C117.48 29.04 118.24 27.1764 119.864 26.5124C121.457 25.8591 123.306 26.6409 123.966 28.2439C124.627 29.8397 123.863 31.6854 122.271 32.3387Z" fill="#0F385C"/>
<path d="M254.683 18.2566C256.415 18.2566 257.82 16.8524 257.82 15.1202C257.82 13.3881 256.415 11.9839 254.683 11.9839C252.951 11.9839 251.547 13.3881 251.547 15.1202C251.547 16.8524 252.951 18.2566 254.683 18.2566Z" fill="white"/>
<path d="M246.245 23.3103C247.977 23.3103 249.382 21.9061 249.382 20.1739C249.382 18.4418 247.977 17.0376 246.245 17.0376C244.513 17.0376 243.109 18.4418 243.109 20.1739C243.109 21.9061 244.513 23.3103 246.245 23.3103Z" fill="white"/>
<path d="M240.663 31.6211C242.395 31.6211 243.799 30.217 243.799 28.4848C243.799 26.7526 242.395 25.3485 240.663 25.3485C238.931 25.3485 237.526 26.7526 237.526 28.4848C237.526 30.217 238.931 31.6211 240.663 31.6211Z" fill="white"/>
<path d="M264.714 29.4252C266.447 29.4252 267.851 28.021 267.851 26.2888C267.851 24.5567 266.447 23.1525 264.714 23.1525C262.982 23.1525 261.578 24.5567 261.578 26.2888C261.578 28.021 262.982 29.4252 264.714 29.4252Z" fill="white"/>
<path d="M274.737 18.2565C276.469 18.2565 277.873 16.8524 277.873 15.1202C277.873 13.388 276.469 11.9838 274.737 11.9838C273.005 11.9838 271.601 13.388 271.601 15.1202C271.601 16.8524 273.005 18.2565 274.737 18.2565Z" fill="white"/>
<path d="M283.175 23.3103C284.908 23.3103 286.312 21.9061 286.312 20.1739C286.312 18.4418 284.908 17.0376 283.175 17.0376C281.443 17.0376 280.039 18.4418 280.039 20.1739C280.039 21.9061 281.443 23.3103 283.175 23.3103Z" fill="white"/>
<path d="M288.758 31.6211C290.491 31.6211 291.895 30.217 291.895 28.4848C291.895 26.7526 290.491 25.3485 288.758 25.3485C287.026 25.3485 285.622 26.7526 285.622 28.4848C285.622 30.217 287.026 31.6211 288.758 31.6211Z" fill="white"/>
<path d="M264.714 29.4252C266.447 29.4252 267.851 28.021 267.851 26.2888C267.851 24.5567 266.447 23.1525 264.714 23.1525C262.982 23.1525 261.578 24.5567 261.578 26.2888C261.578 28.021 262.982 29.4252 264.714 29.4252Z" fill="white"/>
<path d="M265.98 8.40336C266.139 8.28407 266.28 8.14321 266.399 7.98459L270.389 10.0791V4.19851L266.405 5.46307C266.288 5.30762 266.151 5.16866 265.997 5.05001L267.6 3.8147e-06H261.831L263.434 5.05001C263.28 5.16803 263.143 5.30698 263.027 5.46307L259.042 4.19851V10.0791L263.032 7.98459C263.152 8.14321 263.292 8.28407 263.451 8.40336L261.178 15.2566C260.378 17.669 262.174 20.1569 264.716 20.1569C267.257 20.1569 269.053 17.669 268.253 15.2566L265.98 8.40336Z" fill="white"/>
<path d="M269.275 32.5348C269.275 32.5348 266.362 35.7765 265.726 37.7542C267.633 37.6939 269.346 37.3228 271.231 35.3545L270.592 42.6773C268.856 40.2427 266.822 39.1933 265.694 39.4033C265.808 42.0276 266.082 45.1976 270.678 45.6151C273.884 45.8936 276.458 44.3188 276.726 42.3702C277.043 40.1317 275.026 38.6508 273.505 41.0073C272.316 37.1077 275.601 35.8114 277.711 38.2257C276.087 34.3774 276.13 31.6433 279.743 28.8788C282.335 32.3248 281.967 35.1731 278.754 38.3798C280.846 37.2225 284.095 38.4401 282.181 42.3493C281.182 39.9179 279.036 40.461 278.586 42.553C278.286 44.0307 279.182 45.7693 281.132 46.1258C282.731 46.419 285.194 45.3264 287.169 41.0733C286.058 41.1019 285.084 41.6628 283.824 42.5301L285.895 35.6261C286.416 37.5639 287.084 38.836 287.791 39.5238C288.265 38.1292 288.197 37.1178 287.773 34.9446L292.054 36.4687C289.78 39.5708 287.577 43.9241 285.77 51.5267C279.401 50.6175 272.271 50.1067 264.716 50.1067C257.162 50.1067 250.031 50.6181 243.662 51.5267C241.856 43.9235 239.653 39.5702 237.379 36.4687L241.66 34.9446C241.235 37.1178 241.168 38.1292 241.642 39.5238C242.349 38.836 243.016 37.5639 243.538 35.6261L245.609 42.5301C244.349 41.6621 243.374 41.1019 242.264 41.0733C244.238 45.3264 246.702 46.4184 248.301 46.1258C250.25 45.7693 251.146 44.0307 250.847 42.553C250.397 40.461 248.252 39.9179 247.252 42.3493C245.338 38.4401 248.587 37.2219 250.679 38.3798C247.466 35.1731 247.098 32.3241 249.69 28.8788C253.303 31.6427 253.346 34.3768 251.722 38.2257C253.832 35.812 257.116 37.1077 255.927 41.0073C254.406 38.6508 252.389 40.1317 252.707 42.3702C252.975 44.3194 255.549 45.8942 258.755 45.6151C263.35 45.1976 263.625 42.0276 263.739 39.4033C262.611 39.1933 260.576 40.2421 258.841 42.6773L258.202 35.3545C260.087 37.3228 261.801 37.6933 263.707 37.7542C263.071 35.7765 260.158 32.5348 260.158 32.5348H269.277H269.275Z" fill="white"/>
</svg>
