<svg width="480" height="320" viewBox="0 0 480 320" fill="none" xmlns="http://www.w3.org/2000/svg">
<g clip-path="url(#clip0_1021_170)">
<rect width="480" height="320" fill="white"/>
<path d="M480 0H0V320H480V0Z" fill="#1D70B8"/>
<path d="M436.294 115.956H344.436V204.174H436.294V115.956Z" stroke="#8EB8DC" stroke-width="0.25"/>
<path d="M337.48 130.443H443.25" stroke="#5694CA" stroke-width="0.25" stroke-dasharray="0.5 0.5"/>
<path d="M421.807 109V211.129" stroke="#5694CA" stroke-width="0.25" stroke-dasharray="0.5 0.5"/>
<path d="M358.924 109V211.129" stroke="#5694CA" stroke-width="0.25" stroke-dasharray="0.5 0.5"/>
<path d="M337.48 189.686H443.25" stroke="#5694CA" stroke-width="0.25" stroke-dasharray="0.5 0.5"/>
<path d="M307.895 124.134H43.7061V197.187H307.895V124.134Z" stroke="#8EB8DC" stroke-width="0.25"/>
<path d="M36.75 138.621H314.851" stroke="#5694CA" stroke-width="0.25" stroke-dasharray="0.5 0.5"/>
<path d="M293.408 117.178V204.142" stroke="#5694CA" stroke-width="0.25" stroke-dasharray="0.5 0.5"/>
<path d="M67.1034 160.812C67.1034 162.64 67.3319 164.399 67.7891 166.087C68.2455 167.776 68.9406 169.266 69.8752 170.557C70.809 171.849 72.0006 172.887 73.4512 173.672C74.9019 174.457 76.6307 174.85 78.6374 174.85C80.6442 174.85 82.1691 174.542 83.4509 173.926C84.732 173.31 85.7554 172.54 86.5204 171.616C87.2847 170.692 87.8211 169.694 88.1297 168.621C88.4377 167.548 88.5912 166.555 88.5912 165.64V165.223H77.6541V158.637H96.9952V182.061H89.4262V177.054C88.8897 177.889 88.2237 178.649 87.4296 179.335C86.6347 180.02 85.7409 180.607 84.7466 181.093C83.753 181.579 82.6648 181.962 81.4835 182.241C80.3013 182.519 79.0443 182.658 77.7138 182.658C74.594 182.658 71.823 182.091 69.3992 180.959C66.9753 179.826 64.9336 178.267 63.2747 176.28C61.6159 174.294 60.3545 171.969 59.4897 169.306C58.6257 166.644 58.1934 163.773 58.1934 160.693C58.1934 157.613 58.6752 154.768 59.6389 152.096C60.6027 149.424 61.9732 147.099 63.7522 145.122C65.5304 143.145 67.6755 141.586 70.1889 140.443C72.7023 139.3 75.5185 138.729 78.6381 138.729C80.6646 138.729 82.5869 138.963 84.4045 139.429C86.2227 139.897 87.8815 140.562 89.3817 141.426C90.8812 142.29 92.2074 143.334 93.3604 144.555C94.5119 145.776 95.4465 147.133 96.162 148.623L88.592 152.884C88.1349 151.971 87.5984 151.121 86.9826 150.336C86.3661 149.552 85.6564 148.876 84.8521 148.31C84.047 147.743 83.1285 147.296 82.0956 146.969C81.062 146.641 79.9098 146.477 78.6389 146.477C76.6321 146.477 74.9034 146.87 73.4527 147.654C72.002 148.439 70.8105 149.477 69.8766 150.769C68.9428 152.06 68.2476 153.555 67.7905 155.254C67.3334 156.953 67.1049 158.707 67.1049 160.514V160.812H67.1034Z" fill="white"/>
<path d="M124.52 138.729C127.699 138.729 130.55 139.301 133.074 140.443C135.597 141.586 137.738 143.145 139.496 145.122C141.254 147.099 142.596 149.424 143.519 152.096C144.443 154.768 144.905 157.634 144.905 160.693C144.905 163.752 144.443 166.644 143.519 169.306C142.596 171.969 141.254 174.294 139.496 176.28C137.739 178.267 135.597 179.826 133.074 180.959C130.551 182.091 127.699 182.658 124.52 182.658C121.342 182.658 118.465 182.091 115.952 180.959C113.439 179.826 111.303 178.267 109.546 176.28C107.787 174.294 106.446 171.969 105.523 169.306C104.599 166.644 104.137 163.773 104.137 160.693C104.137 157.613 104.599 154.768 105.523 152.096C106.446 149.424 107.787 147.099 109.546 145.122C111.303 143.145 113.439 141.586 115.952 140.443C118.465 139.301 121.321 138.729 124.52 138.729ZM124.52 174.849C126.388 174.849 128.032 174.497 129.453 173.79C130.873 173.086 132.07 172.107 133.043 170.856C134.017 169.604 134.752 168.124 135.249 166.415C135.745 164.707 135.994 162.839 135.994 160.812V160.574C135.994 158.567 135.745 156.704 135.249 154.986C134.752 153.267 134.017 151.782 133.043 150.53C132.07 149.279 130.873 148.301 129.453 147.595C128.032 146.89 126.388 146.537 124.52 146.537C122.652 146.537 121.004 146.89 119.573 147.595C118.143 148.301 116.946 149.279 115.982 150.53C115.018 151.782 114.288 153.268 113.792 154.986C113.295 156.704 113.047 158.567 113.047 160.574V160.812C113.047 162.839 113.295 164.707 113.792 166.415C114.288 168.124 115.018 169.603 115.982 170.856C116.946 172.107 118.143 173.086 119.573 173.79C121.004 174.497 122.652 174.849 124.52 174.849Z" fill="white"/>
<path d="M160.142 182.061L148.072 139.325H157.758L166.014 171.451H166.311L174.388 139.325H183.954L171.884 182.061H160.142H160.142Z" fill="white"/>
<path d="M232.902 174.849C234.154 174.849 235.321 174.665 236.403 174.298C237.487 173.93 238.421 173.374 239.205 172.629C239.989 171.883 240.611 170.941 241.068 169.798C241.524 168.655 241.753 167.309 241.753 165.76V139.265H250.247V167.041C250.247 169.425 249.815 171.581 248.952 173.508C248.088 175.435 246.887 177.074 245.349 178.425C243.809 179.777 241.978 180.82 239.855 181.555C237.731 182.289 235.409 182.657 232.888 182.657C230.367 182.657 228.043 182.289 225.921 181.555C223.796 180.82 221.96 179.776 220.411 178.425C218.862 177.074 217.657 175.436 216.793 173.508C215.929 171.581 215.498 169.425 215.498 167.041V139.265H224.051V165.76C224.051 167.309 224.28 168.655 224.736 169.798C225.193 170.941 225.814 171.883 226.599 172.629C227.383 173.374 228.317 173.93 229.4 174.298C230.484 174.665 231.651 174.849 232.902 174.849Z" fill="white"/>
<path d="M257.912 139.325H266.555V157.832L281.813 139.325H292.453L277.611 156.312L293.406 182.061H283.364L272.069 162.898L266.555 169.067V182.061H257.912V139.325Z" fill="white"/>
<path d="M197.518 167.908C201.502 167.908 204.732 164.678 204.732 160.693C204.732 156.708 201.502 153.478 197.518 153.478C193.533 153.478 190.303 156.708 190.303 160.693C190.303 164.678 193.533 167.908 197.518 167.908Z" fill="#00FFE0"/>
<path d="M58.1934 117.178V204.142" stroke="#5694CA" stroke-width="0.25" stroke-dasharray="0.5 0.5"/>
<path d="M36.75 182.699H314.851" stroke="#5694CA" stroke-width="0.25" stroke-dasharray="0.5 0.5"/>
<path d="M436.294 115.956H344.436V204.174H436.294V115.956Z" stroke="#8EB8DC" stroke-width="2"/>
<path d="M337.48 130.443H443.25" stroke="#5694CA" stroke-dasharray="1 1"/>
<path d="M421.808 109V211.129" stroke="#5694CA" stroke-dasharray="1 1"/>
<path d="M358.924 109V211.129" stroke="#5694CA" stroke-dasharray="1 1"/>
<path d="M337.48 189.686H443.25" stroke="#5694CA" stroke-dasharray="1 1"/>
<path d="M307.895 124.134H43.7061V197.187H307.895V124.134Z" stroke="#8EB8DC" stroke-width="2"/>
<path d="M36.75 138.621H314.851" stroke="#5694CA" stroke-dasharray="1 1"/>
<path d="M293.408 117.178V204.142" stroke="#5694CA" stroke-dasharray="1 1"/>
<path d="M67.1034 160.812C67.1034 162.64 67.3319 164.399 67.7891 166.087C68.2455 167.776 68.9406 169.266 69.8752 170.557C70.809 171.849 72.0006 172.887 73.4512 173.672C74.9019 174.457 76.6307 174.85 78.6374 174.85C80.6442 174.85 82.1691 174.542 83.4509 173.926C84.732 173.31 85.7554 172.54 86.5204 171.616C87.2847 170.692 87.8211 169.694 88.1297 168.621C88.4377 167.548 88.5912 166.555 88.5912 165.64V165.223H77.6541V158.637H96.9952V182.061H89.4262V177.054C88.8897 177.889 88.2237 178.649 87.4296 179.335C86.6347 180.02 85.7409 180.607 84.7466 181.093C83.753 181.579 82.6648 181.962 81.4835 182.241C80.3013 182.519 79.0443 182.658 77.7138 182.658C74.594 182.658 71.823 182.091 69.3992 180.959C66.9753 179.826 64.9336 178.267 63.2747 176.28C61.6159 174.294 60.3545 171.969 59.4897 169.306C58.6257 166.644 58.1934 163.773 58.1934 160.693C58.1934 157.613 58.6752 154.768 59.6389 152.096C60.6027 149.424 61.9732 147.099 63.7522 145.122C65.5304 143.145 67.6755 141.586 70.1889 140.443C72.7023 139.3 75.5185 138.729 78.6381 138.729C80.6646 138.729 82.5869 138.963 84.4045 139.429C86.2227 139.897 87.8815 140.562 89.3817 141.426C90.8812 142.29 92.2074 143.334 93.3604 144.555C94.5119 145.776 95.4465 147.133 96.162 148.623L88.592 152.884C88.1349 151.971 87.5984 151.121 86.9826 150.336C86.3661 149.552 85.6564 148.876 84.8521 148.31C84.047 147.743 83.1285 147.296 82.0956 146.969C81.062 146.641 79.9098 146.477 78.6389 146.477C76.6321 146.477 74.9034 146.87 73.4527 147.654C72.002 148.439 70.8105 149.477 69.8766 150.769C68.9428 152.06 68.2476 153.555 67.7905 155.254C67.3334 156.953 67.1049 158.707 67.1049 160.514V160.812H67.1034Z" fill="white"/>
<path d="M124.52 138.729C127.699 138.729 130.55 139.301 133.074 140.443C135.597 141.586 137.738 143.145 139.496 145.122C141.254 147.099 142.596 149.424 143.519 152.096C144.443 154.768 144.905 157.634 144.905 160.693C144.905 163.752 144.443 166.644 143.519 169.306C142.596 171.969 141.254 174.294 139.496 176.28C137.739 178.267 135.597 179.826 133.074 180.959C130.551 182.091 127.699 182.658 124.52 182.658C121.342 182.658 118.465 182.091 115.952 180.959C113.439 179.826 111.303 178.267 109.546 176.28C107.787 174.294 106.446 171.969 105.523 169.306C104.599 166.644 104.137 163.773 104.137 160.693C104.137 157.613 104.599 154.768 105.523 152.096C106.446 149.424 107.787 147.099 109.546 145.122C111.303 143.145 113.439 141.586 115.952 140.443C118.465 139.301 121.321 138.729 124.52 138.729ZM124.52 174.849C126.388 174.849 128.032 174.497 129.453 173.79C130.873 173.086 132.07 172.107 133.043 170.856C134.017 169.604 134.752 168.124 135.249 166.415C135.745 164.707 135.994 162.839 135.994 160.812V160.574C135.994 158.567 135.745 156.704 135.249 154.986C134.752 153.267 134.017 151.782 133.043 150.53C132.07 149.279 130.873 148.301 129.453 147.595C128.032 146.89 126.388 146.537 124.52 146.537C122.652 146.537 121.004 146.89 119.573 147.595C118.143 148.301 116.946 149.279 115.982 150.53C115.018 151.782 114.288 153.268 113.792 154.986C113.295 156.704 113.047 158.567 113.047 160.574V160.812C113.047 162.839 113.295 164.707 113.792 166.415C114.288 168.124 115.018 169.603 115.982 170.856C116.946 172.107 118.143 173.086 119.573 173.79C121.004 174.497 122.652 174.849 124.52 174.849Z" fill="white"/>
<path d="M160.142 182.061L148.072 139.325H157.758L166.014 171.451H166.311L174.388 139.325H183.954L171.884 182.061H160.142H160.142Z" fill="white"/>
<path d="M232.902 174.849C234.154 174.849 235.321 174.665 236.403 174.298C237.487 173.93 238.421 173.374 239.205 172.629C239.989 171.883 240.611 170.941 241.068 169.798C241.524 168.655 241.753 167.309 241.753 165.76V139.265H250.247V167.041C250.247 169.425 249.815 171.581 248.952 173.508C248.088 175.435 246.887 177.074 245.349 178.425C243.809 179.777 241.978 180.82 239.855 181.555C237.731 182.289 235.409 182.657 232.888 182.657C230.367 182.657 228.043 182.289 225.921 181.555C223.796 180.82 221.96 179.776 220.411 178.425C218.862 177.074 217.657 175.436 216.793 173.508C215.929 171.581 215.498 169.425 215.498 167.041V139.265H224.051V165.76C224.051 167.309 224.28 168.655 224.736 169.798C225.193 170.941 225.814 171.883 226.599 172.629C227.383 173.374 228.317 173.93 229.4 174.298C230.484 174.665 231.651 174.849 232.902 174.849Z" fill="white"/>
<path d="M257.912 139.325H266.555V157.832L281.813 139.325H292.453L277.611 156.312L293.406 182.061H283.364L272.069 162.898L266.555 169.067V182.061H257.912V139.325Z" fill="white"/>
<path d="M197.518 167.908C201.502 167.908 204.732 164.678 204.732 160.693C204.732 156.708 201.502 153.478 197.518 153.478C193.533 153.478 190.303 156.708 190.303 160.693C190.303 164.678 193.533 167.908 197.518 167.908Z" fill="#00FFE0"/>
<path d="M58.1934 117.178V204.142" stroke="#5694CA" stroke-dasharray="1 1"/>
<path d="M36.75 182.699H314.851" stroke="#5694CA" stroke-dasharray="1 1"/>
<path d="M53.7474 138.062C50.0122 139.605 45.7762 137.84 44.2575 134.154C42.7305 130.477 44.4791 126.191 48.2144 124.664C51.8757 123.162 56.1281 124.96 57.6469 128.646C59.1656 132.316 57.4088 136.56 53.7474 138.062Z" fill="#00FFE0"/>
<path d="M53.7474 138.062C50.0122 139.605 45.7762 137.84 44.2575 134.154C42.7305 130.477 44.4791 126.191 48.2144 124.664C51.8757 123.162 56.1281 124.96 57.6469 128.646C59.1656 132.316 57.4088 136.56 53.7474 138.062Z" fill="#00FFE0"/>
<path d="M303.449 138.062C299.714 139.605 295.477 137.84 293.959 134.154C292.432 130.477 294.18 126.191 297.915 124.664C301.577 123.162 305.83 124.96 307.348 128.646C308.867 132.316 307.11 136.56 303.449 138.062Z" fill="#00FFE0"/>
<path d="M303.449 138.062C299.714 139.605 295.477 137.84 293.959 134.154C292.432 130.477 294.18 126.191 297.915 124.664C301.577 123.162 305.83 124.96 307.348 128.646C308.867 132.316 307.11 136.56 303.449 138.062Z" fill="#00FFE0"/>
<path d="M303.449 138.062C299.714 139.605 295.477 137.84 293.959 134.154C292.432 130.477 294.18 126.191 297.915 124.664C301.577 123.162 305.83 124.96 307.348 128.646C308.867 132.316 307.11 136.56 303.449 138.062Z" fill="#00FFE0"/>
<path d="M354.477 130.48C350.742 132.023 346.506 130.258 344.987 126.572C343.46 122.895 345.208 118.609 348.944 117.082C352.605 115.58 356.857 117.378 358.376 121.064C359.895 124.733 358.139 128.978 354.477 130.48Z" fill="#00FFE0"/>
<path d="M354.477 130.48C350.742 132.023 346.506 130.258 344.987 126.572C343.46 122.895 345.208 118.609 348.944 117.082C352.605 115.58 356.857 117.378 358.376 121.064C359.895 124.733 358.139 128.978 354.477 130.48Z" fill="#00FFE0"/>
<path d="M354.477 130.48C350.742 132.023 346.506 130.258 344.987 126.572C343.46 122.895 345.208 118.609 348.944 117.082C352.605 115.58 356.857 117.378 358.376 121.064C359.895 124.733 358.139 128.978 354.477 130.48Z" fill="#00FFE0"/>
<path d="M354.477 204.209C350.742 205.753 346.506 203.988 344.987 200.302C343.46 196.624 345.208 192.339 348.944 190.812C352.605 189.309 356.857 191.108 358.376 194.794C359.895 198.463 358.139 202.707 354.477 204.209Z" fill="#00FFE0"/>
<path d="M354.477 204.209C350.742 205.753 346.506 203.988 344.987 200.302C343.46 196.624 345.208 192.339 348.944 190.812C352.605 189.309 356.857 191.108 358.376 194.794C359.895 198.463 358.139 202.707 354.477 204.209Z" fill="#00FFE0"/>
<path d="M354.477 204.209C350.742 205.753 346.506 203.988 344.987 200.302C343.46 196.624 345.208 192.339 348.944 190.812C352.605 189.309 356.857 191.108 358.376 194.794C359.895 198.463 358.139 202.707 354.477 204.209Z" fill="#00FFE0"/>
<path d="M431.688 130.48C427.953 132.023 423.717 130.258 422.198 126.572C420.671 122.895 422.419 118.609 426.155 117.082C429.816 115.58 434.068 117.378 435.587 121.064C437.106 124.733 435.35 128.978 431.688 130.48Z" fill="#00FFE0"/>
<path d="M431.688 130.48C427.953 132.023 423.717 130.258 422.198 126.572C420.671 122.895 422.419 118.609 426.155 117.082C429.816 115.58 434.068 117.378 435.587 121.064C437.106 124.733 435.35 128.978 431.688 130.48Z" fill="#00FFE0"/>
<path d="M431.688 130.48C427.953 132.023 423.717 130.258 422.198 126.572C420.671 122.895 422.419 118.609 426.155 117.082C429.816 115.58 434.068 117.378 435.587 121.064C437.106 124.733 435.35 128.978 431.688 130.48Z" fill="#00FFE0"/>
<path d="M431.688 204.209C427.953 205.753 423.717 203.988 422.198 200.302C420.671 196.624 422.419 192.339 426.155 190.812C429.816 189.309 434.068 191.108 435.587 194.794C437.106 198.463 435.35 202.707 431.688 204.209Z" fill="#00FFE0"/>
<path d="M431.688 204.209C427.953 205.753 423.717 203.988 422.198 200.302C420.671 196.624 422.419 192.339 426.155 190.812C429.816 189.309 434.068 191.108 435.587 194.794C437.106 198.463 435.35 202.707 431.688 204.209Z" fill="#00FFE0"/>
<path d="M431.688 204.209C427.953 205.753 423.717 203.988 422.198 200.302C420.671 196.624 422.419 192.339 426.155 190.812C429.816 189.309 434.068 191.108 435.587 194.794C437.106 198.463 435.35 202.707 431.688 204.209Z" fill="#00FFE0"/>
<path d="M53.7474 196.578C50.0122 198.121 45.7762 196.355 44.2575 192.67C42.7305 188.992 44.4791 184.706 48.2144 183.18C51.8757 181.678 56.1281 183.475 57.6469 187.161C59.1656 190.831 57.4088 195.075 53.7474 196.578Z" fill="#00FFE0"/>
<path d="M53.7474 196.578C50.0122 198.121 45.7762 196.355 44.2575 192.67C42.7305 188.992 44.4791 184.706 48.2144 183.18C51.8757 181.678 56.1281 183.475 57.6469 187.161C59.1656 190.831 57.4088 195.075 53.7474 196.578Z" fill="#00FFE0"/>
<path d="M53.7474 196.578C50.0122 198.121 45.7762 196.355 44.2575 192.67C42.7305 188.992 44.4791 184.706 48.2144 183.18C51.8757 181.678 56.1281 183.475 57.6469 187.161C59.1656 190.831 57.4088 195.075 53.7474 196.578Z" fill="#00FFE0"/>
<path d="M303.449 196.578C299.714 198.121 295.477 196.355 293.959 192.67C292.432 188.992 294.18 184.706 297.915 183.18C301.577 181.678 305.83 183.475 307.348 187.161C308.867 190.831 307.11 195.075 303.449 196.578Z" fill="#00FFE0"/>
<path d="M303.449 196.578C299.714 198.121 295.477 196.355 293.959 192.67C292.432 188.992 294.18 184.706 297.915 183.18C301.577 181.678 305.83 183.475 307.348 187.161C308.867 190.831 307.11 195.075 303.449 196.578Z" fill="#00FFE0"/>
<path d="M303.449 196.578C299.714 198.121 295.477 196.355 293.959 192.67C292.432 188.992 294.18 184.706 297.915 183.18C301.577 181.678 305.83 183.475 307.348 187.161C308.867 190.831 307.11 195.075 303.449 196.578Z" fill="#00FFE0"/>
<path d="M378.83 151.433C380.821 151.433 382.436 149.819 382.436 147.827C382.436 145.836 380.821 144.221 378.83 144.221C376.838 144.221 375.224 145.836 375.224 147.827C375.224 149.819 376.838 151.433 378.83 151.433Z" fill="white"/>
<path d="M369.128 157.244C371.12 157.244 372.735 155.63 372.735 153.638C372.735 151.647 371.12 150.032 369.128 150.032C367.137 150.032 365.522 151.647 365.522 153.638C365.522 155.63 367.137 157.244 369.128 157.244Z" fill="white"/>
<path d="M362.71 166.8C364.701 166.8 366.316 165.185 366.316 163.194C366.316 161.202 364.701 159.588 362.71 159.588C360.718 159.588 359.104 161.202 359.104 163.194C359.104 165.185 360.718 166.8 362.71 166.8Z" fill="white"/>
<path d="M390.364 164.275C392.356 164.275 393.97 162.66 393.97 160.669C393.97 158.677 392.356 157.062 390.364 157.062C388.373 157.062 386.758 158.677 386.758 160.669C386.758 162.66 388.373 164.275 390.364 164.275Z" fill="white"/>
<path d="M401.887 151.433C403.878 151.433 405.493 149.819 405.493 147.827C405.493 145.836 403.878 144.221 401.887 144.221C399.895 144.221 398.281 145.836 398.281 147.827C398.281 149.819 399.895 151.433 401.887 151.433Z" fill="white"/>
<path d="M411.588 157.244C413.58 157.244 415.194 155.63 415.194 153.638C415.194 151.647 413.58 150.032 411.588 150.032C409.597 150.032 407.982 151.647 407.982 153.638C407.982 155.63 409.597 157.244 411.588 157.244Z" fill="white"/>
<path d="M418.006 166.8C419.998 166.8 421.612 165.185 421.612 163.194C421.612 161.202 419.998 159.588 418.006 159.588C416.015 159.588 414.4 161.202 414.4 163.194C414.4 165.185 416.015 166.8 418.006 166.8Z" fill="white"/>
<path d="M390.364 164.275C392.356 164.275 393.97 162.66 393.97 160.669C393.97 158.677 392.356 157.062 390.364 157.062C388.373 157.062 386.758 158.677 386.758 160.669C386.758 162.66 388.373 164.275 390.364 164.275Z" fill="white"/>
<path d="M391.818 140.105C392 139.968 392.162 139.806 392.3 139.623L396.887 142.031V135.27L392.306 136.724C392.172 136.546 392.015 136.386 391.837 136.249L393.681 130.443H387.048L388.892 136.249C388.714 136.385 388.556 136.545 388.422 136.724L383.842 135.27V142.031L388.429 139.623C388.566 139.806 388.728 139.968 388.91 140.105L386.297 147.984C385.377 150.758 387.442 153.618 390.364 153.618C393.286 153.618 395.351 150.758 394.431 147.984L391.818 140.105Z" fill="white"/>
<path d="M395.606 167.85C395.606 167.85 392.257 171.577 391.526 173.851C393.718 173.782 395.688 173.355 397.855 171.092L397.12 179.512C395.125 176.712 392.786 175.505 391.488 175.747C391.62 178.764 391.936 182.409 397.219 182.889C400.905 183.209 403.865 181.399 404.173 179.158C404.538 176.585 402.219 174.882 400.47 177.591C399.103 173.108 402.88 171.617 405.305 174.393C403.438 169.969 403.488 166.825 407.642 163.647C410.622 167.609 410.199 170.883 406.504 174.57C408.91 173.24 412.645 174.64 410.445 179.134C409.296 176.339 406.828 176.963 406.311 179.369C405.967 181.067 406.997 183.066 409.238 183.476C411.077 183.813 413.909 182.557 416.179 177.667C414.903 177.7 413.783 178.345 412.333 179.342L414.715 171.404C415.315 173.632 416.082 175.095 416.894 175.886C417.44 174.282 417.362 173.119 416.874 170.62L421.796 172.373C419.181 175.94 416.649 180.945 414.572 189.686C407.249 188.64 399.051 188.053 390.365 188.053C381.679 188.053 373.481 188.641 366.158 189.686C364.081 180.944 361.548 175.939 358.934 172.373L363.856 170.62C363.367 173.119 363.29 174.282 363.835 175.886C364.648 175.095 365.415 173.632 366.015 171.404L368.397 179.342C366.947 178.344 365.827 177.7 364.55 177.667C366.82 182.557 369.653 183.813 371.491 183.476C373.733 183.066 374.763 181.067 374.418 179.369C373.901 176.963 371.435 176.339 370.285 179.134C368.085 174.64 371.82 173.239 374.225 174.57C370.531 170.883 370.108 167.608 373.088 163.647C377.242 166.824 377.292 169.968 375.424 174.393C377.85 171.618 381.627 173.108 380.26 177.591C378.511 174.882 376.192 176.585 376.557 179.158C376.865 181.399 379.825 183.21 383.511 182.889C388.794 182.409 389.11 178.764 389.242 175.747C387.944 175.505 385.605 176.712 383.61 179.512L382.875 171.092C385.042 173.355 387.013 173.781 389.204 173.851C388.473 171.577 385.124 167.85 385.124 167.85H395.608H395.606Z" fill="white"/>
<path d="M378.83 151.433C380.821 151.433 382.436 149.819 382.436 147.827C382.436 145.836 380.821 144.221 378.83 144.221C376.838 144.221 375.224 145.836 375.224 147.827C375.224 149.819 376.838 151.433 378.83 151.433Z" fill="white"/>
<path d="M369.128 157.244C371.12 157.244 372.735 155.63 372.735 153.638C372.735 151.647 371.12 150.032 369.128 150.032C367.137 150.032 365.522 151.647 365.522 153.638C365.522 155.63 367.137 157.244 369.128 157.244Z" fill="white"/>
<path d="M362.71 166.8C364.701 166.8 366.316 165.185 366.316 163.194C366.316 161.202 364.701 159.588 362.71 159.588C360.718 159.588 359.104 161.202 359.104 163.194C359.104 165.185 360.718 166.8 362.71 166.8Z" fill="white"/>
<path d="M390.364 164.275C392.356 164.275 393.97 162.66 393.97 160.669C393.97 158.677 392.356 157.062 390.364 157.062C388.373 157.062 386.758 158.677 386.758 160.669C386.758 162.66 388.373 164.275 390.364 164.275Z" fill="white"/>
<path d="M401.887 151.433C403.878 151.433 405.493 149.819 405.493 147.827C405.493 145.836 403.878 144.221 401.887 144.221C399.895 144.221 398.281 145.836 398.281 147.827C398.281 149.819 399.895 151.433 401.887 151.433Z" fill="white"/>
<path d="M411.588 157.244C413.58 157.244 415.194 155.63 415.194 153.638C415.194 151.647 413.58 150.032 411.588 150.032C409.597 150.032 407.982 151.647 407.982 153.638C407.982 155.63 409.597 157.244 411.588 157.244Z" fill="white"/>
<path d="M418.006 166.8C419.998 166.8 421.612 165.185 421.612 163.194C421.612 161.202 419.998 159.588 418.006 159.588C416.015 159.588 414.4 161.202 414.4 163.194C414.4 165.185 416.015 166.8 418.006 166.8Z" fill="white"/>
<path d="M390.364 164.275C392.356 164.275 393.97 162.66 393.97 160.669C393.97 158.677 392.356 157.062 390.364 157.062C388.373 157.062 386.758 158.677 386.758 160.669C386.758 162.66 388.373 164.275 390.364 164.275Z" fill="white"/>
<path d="M391.818 140.105C392 139.968 392.162 139.806 392.3 139.623L396.887 142.031V135.27L392.306 136.724C392.172 136.546 392.015 136.386 391.837 136.249L393.681 130.443H387.048L388.892 136.249C388.714 136.385 388.556 136.545 388.422 136.724L383.842 135.27V142.031L388.429 139.623C388.566 139.806 388.728 139.968 388.91 140.105L386.297 147.984C385.377 150.758 387.442 153.618 390.364 153.618C393.286 153.618 395.351 150.758 394.431 147.984L391.818 140.105Z" fill="white"/>
<path d="M395.606 167.85C395.606 167.85 392.257 171.577 391.526 173.851C393.718 173.782 395.688 173.355 397.855 171.092L397.12 179.512C395.125 176.712 392.786 175.505 391.488 175.747C391.62 178.764 391.936 182.409 397.219 182.889C400.905 183.209 403.865 181.399 404.173 179.158C404.538 176.585 402.219 174.882 400.47 177.591C399.103 173.108 402.88 171.617 405.305 174.393C403.438 169.969 403.488 166.825 407.642 163.647C410.622 167.609 410.199 170.883 406.504 174.57C408.91 173.24 412.645 174.64 410.445 179.134C409.296 176.339 406.828 176.963 406.311 179.369C405.967 181.067 406.997 183.066 409.238 183.476C411.077 183.813 413.909 182.557 416.179 177.667C414.903 177.7 413.783 178.345 412.333 179.342L414.715 171.404C415.315 173.632 416.082 175.095 416.894 175.886C417.44 174.282 417.362 173.119 416.874 170.62L421.796 172.373C419.181 175.94 416.649 180.945 414.572 189.686C407.249 188.64 399.051 188.053 390.365 188.053C381.679 188.053 373.481 188.641 366.158 189.686C364.081 180.944 361.548 175.939 358.934 172.373L363.856 170.62C363.367 173.119 363.29 174.282 363.835 175.886C364.648 175.095 365.415 173.632 366.015 171.404L368.397 179.342C366.947 178.344 365.827 177.7 364.55 177.667C366.82 182.557 369.653 183.813 371.491 183.476C373.733 183.066 374.763 181.067 374.418 179.369C373.901 176.963 371.435 176.339 370.285 179.134C368.085 174.64 371.82 173.239 374.225 174.57C370.531 170.883 370.108 167.608 373.088 163.647C377.242 166.824 377.292 169.968 375.424 174.393C377.85 171.618 381.627 173.108 380.26 177.591C378.511 174.882 376.192 176.585 376.557 179.158C376.865 181.399 379.825 183.21 383.511 182.889C388.794 182.409 389.11 178.764 389.242 175.747C387.944 175.505 385.605 176.712 383.61 179.512L382.875 171.092C385.042 173.355 387.013 173.781 389.204 173.851C388.473 171.577 385.124 167.85 385.124 167.85H395.608H395.606Z" fill="white"/>
<path d="M378.83 151.433C380.821 151.433 382.436 149.819 382.436 147.827C382.436 145.836 380.821 144.221 378.83 144.221C376.838 144.221 375.224 145.836 375.224 147.827C375.224 149.819 376.838 151.433 378.83 151.433Z" fill="white"/>
<path d="M369.128 157.244C371.12 157.244 372.735 155.63 372.735 153.638C372.735 151.647 371.12 150.032 369.128 150.032C367.137 150.032 365.522 151.647 365.522 153.638C365.522 155.63 367.137 157.244 369.128 157.244Z" fill="white"/>
<path d="M362.71 166.8C364.701 166.8 366.316 165.185 366.316 163.194C366.316 161.202 364.701 159.588 362.71 159.588C360.718 159.588 359.104 161.202 359.104 163.194C359.104 165.185 360.718 166.8 362.71 166.8Z" fill="white"/>
<path d="M390.364 164.275C392.356 164.275 393.97 162.66 393.97 160.669C393.97 158.677 392.356 157.062 390.364 157.062C388.373 157.062 386.758 158.677 386.758 160.669C386.758 162.66 388.373 164.275 390.364 164.275Z" fill="white"/>
<path d="M401.887 151.433C403.878 151.433 405.493 149.819 405.493 147.827C405.493 145.836 403.878 144.221 401.887 144.221C399.895 144.221 398.281 145.836 398.281 147.827C398.281 149.819 399.895 151.433 401.887 151.433Z" fill="white"/>
<path d="M411.588 157.244C413.58 157.244 415.194 155.63 415.194 153.638C415.194 151.647 413.58 150.032 411.588 150.032C409.597 150.032 407.982 151.647 407.982 153.638C407.982 155.63 409.597 157.244 411.588 157.244Z" fill="white"/>
<path d="M418.006 166.8C419.998 166.8 421.612 165.185 421.612 163.194C421.612 161.202 419.998 159.588 418.006 159.588C416.015 159.588 414.4 161.202 414.4 163.194C414.4 165.185 416.015 166.8 418.006 166.8Z" fill="white"/>
<path d="M390.364 164.275C392.356 164.275 393.97 162.66 393.97 160.669C393.97 158.677 392.356 157.062 390.364 157.062C388.373 157.062 386.758 158.677 386.758 160.669C386.758 162.66 388.373 164.275 390.364 164.275Z" fill="white"/>
<path d="M391.818 140.105C392 139.968 392.162 139.806 392.3 139.623L396.887 142.031V135.27L392.306 136.724C392.172 136.546 392.015 136.386 391.837 136.249L393.681 130.443H387.048L388.892 136.249C388.714 136.385 388.556 136.545 388.422 136.724L383.842 135.27V142.031L388.429 139.623C388.566 139.806 388.728 139.968 388.91 140.105L386.297 147.984C385.377 150.758 387.442 153.618 390.364 153.618C393.286 153.618 395.351 150.758 394.431 147.984L391.818 140.105Z" fill="white"/>
<path d="M395.606 167.85C395.606 167.85 392.257 171.577 391.526 173.851C393.718 173.782 395.688 173.355 397.855 171.092L397.12 179.512C395.125 176.712 392.786 175.505 391.488 175.747C391.62 178.764 391.936 182.409 397.219 182.889C400.905 183.209 403.865 181.399 404.173 179.158C404.538 176.585 402.219 174.882 400.47 177.591C399.103 173.108 402.88 171.617 405.305 174.393C403.438 169.969 403.488 166.825 407.642 163.647C410.622 167.609 410.199 170.883 406.504 174.57C408.91 173.24 412.645 174.64 410.445 179.134C409.296 176.339 406.828 176.963 406.311 179.369C405.967 181.067 406.997 183.066 409.238 183.476C411.077 183.813 413.909 182.557 416.179 177.667C414.903 177.7 413.783 178.345 412.333 179.342L414.715 171.404C415.315 173.632 416.082 175.095 416.894 175.886C417.44 174.282 417.362 173.119 416.874 170.62L421.796 172.373C419.181 175.94 416.649 180.945 414.572 189.686C407.249 188.64 399.051 188.053 390.365 188.053C381.679 188.053 373.481 188.641 366.158 189.686C364.081 180.944 361.548 175.939 358.934 172.373L363.856 170.62C363.367 173.119 363.29 174.282 363.835 175.886C364.648 175.095 365.415 173.632 366.015 171.404L368.397 179.342C366.947 178.344 365.827 177.7 364.55 177.667C366.82 182.557 369.653 183.813 371.491 183.476C373.733 183.066 374.763 181.067 374.418 179.369C373.901 176.963 371.435 176.339 370.285 179.134C368.085 174.64 371.82 173.239 374.225 174.57C370.531 170.883 370.108 167.608 373.088 163.647C377.242 166.824 377.292 169.968 375.424 174.393C377.85 171.618 381.627 173.108 380.26 177.591C378.511 174.882 376.192 176.585 376.557 179.158C376.865 181.399 379.825 183.21 383.511 182.889C388.794 182.409 389.11 178.764 389.242 175.747C387.944 175.505 385.605 176.712 383.61 179.512L382.875 171.092C385.042 173.355 387.013 173.781 389.204 173.851C388.473 171.577 385.124 167.85 385.124 167.85H395.608H395.606Z" fill="white"/>
</g>
<defs>
<clipPath id="clip0_1021_170">
<rect width="480" height="320" fill="white"/>
</clipPath>
</defs>
</svg>
