<svg width="1920" height="1280" viewBox="0 0 1920 1280" fill="none" xmlns="http://www.w3.org/2000/svg">
<g clip-path="url(#clip0_1021_170)">
<rect width="1920" height="1280" fill="white"/>
<path d="M1920 0H0V1280H1920V0Z" fill="#1D70B8"/>
<path d="M1745.17 463.823H1377.74V816.695H1745.17V463.823Z" stroke="#8EB8DC"/>
<path d="M1349.92 521.772H1773" stroke="#5694CA" stroke-dasharray="2 2"/>
<path d="M1687.23 436V844.514" stroke="#5694CA" stroke-dasharray="2 2"/>
<path d="M1435.69 436V844.514" stroke="#5694CA" stroke-dasharray="2 2"/>
<path d="M1349.92 758.742H1773" stroke="#5694CA" stroke-dasharray="2 2"/>
<path d="M1231.58 496.534H174.822V788.746H1231.58V496.534Z" stroke="#8EB8DC"/>
<path d="M147 554.486H1259.4" stroke="#5694CA" stroke-dasharray="2 2"/>
<path d="M1173.63 468.714V816.567" stroke="#5694CA" stroke-dasharray="2 2"/>
<path d="M268.412 643.249C268.412 650.56 269.326 657.594 271.154 664.349C272.98 671.104 275.76 677.062 279.499 682.228C283.234 687.396 288.001 691.548 293.803 694.686C299.606 697.827 306.521 699.399 314.548 699.399C322.575 699.399 328.674 698.167 333.802 695.704C338.926 693.24 343.02 690.159 346.08 686.462C349.137 682.766 351.283 678.776 352.517 674.485C353.749 670.192 354.363 666.218 354.363 662.561V660.893H310.614V634.549H387.979V728.245H357.703V708.217C355.557 711.557 352.893 714.597 349.716 717.34C346.537 720.08 342.962 722.426 338.984 724.371C335.01 726.317 330.657 727.849 325.932 728.962C321.203 730.075 316.175 730.63 310.853 730.63C298.374 730.63 287.29 728.364 277.595 723.835C267.899 719.305 259.732 713.068 253.097 705.12C246.461 697.174 241.416 687.875 237.957 677.224C234.501 666.576 232.771 655.093 232.771 642.772C232.771 630.45 234.699 619.072 238.554 608.383C242.409 597.695 247.891 588.396 255.007 580.488C262.12 572.58 270.7 566.344 280.754 561.773C290.807 557.201 302.072 554.916 314.551 554.916C322.656 554.916 330.346 555.85 337.616 557.717C344.889 559.586 351.524 562.247 357.525 565.703C363.523 569.159 368.828 573.334 373.439 578.22C378.045 583.105 381.784 588.533 384.646 594.493L354.366 611.536C352.538 607.883 350.392 604.485 347.928 601.343C345.462 598.207 342.624 595.503 339.406 593.238C336.186 590.972 332.512 589.185 328.38 587.875C324.246 586.564 319.637 585.906 314.554 585.906C306.527 585.906 299.612 587.479 293.809 590.617C288.006 593.756 283.24 597.908 279.505 603.076C275.769 608.241 272.988 614.221 271.16 621.016C269.332 627.812 268.418 634.829 268.418 642.055V643.249H268.412Z" fill="white"/>
<path d="M498.081 554.916C510.796 554.916 522.199 557.202 532.294 561.773C542.389 566.344 550.952 572.58 557.985 580.488C565.016 588.396 570.384 597.695 574.077 608.383C577.773 619.072 579.619 630.537 579.619 642.772C579.619 655.006 577.773 666.576 574.077 677.225C570.384 687.875 565.016 697.174 557.985 705.12C550.954 713.066 542.389 719.303 532.294 723.835C522.204 728.364 510.796 730.63 498.081 730.63C485.367 730.63 473.859 728.364 463.81 723.835C453.755 719.303 445.214 713.068 438.183 705.12C431.147 697.174 425.784 687.875 422.091 677.225C418.396 666.576 416.547 655.093 416.547 642.772C416.547 630.45 418.396 619.072 422.091 608.383C425.784 597.695 431.147 588.396 438.183 580.488C445.214 572.58 453.755 566.344 463.81 561.773C473.862 557.202 485.284 554.916 498.081 554.916ZM498.081 699.394C505.552 699.394 512.128 697.986 517.811 695.161C523.491 692.344 528.282 688.428 532.173 683.422C536.068 678.414 539.008 672.495 540.995 665.659C542.98 658.826 543.976 651.355 543.976 643.249V642.294C543.976 634.267 542.98 626.816 540.995 619.942C539.008 613.068 536.068 607.126 532.173 602.121C528.28 597.116 523.491 593.203 517.811 590.378C512.128 587.56 505.552 586.148 498.081 586.148C490.609 586.148 484.016 587.56 478.291 590.378C472.57 593.203 467.784 597.116 463.929 602.121C460.074 607.126 457.153 613.071 455.168 619.942C453.181 626.816 452.188 634.267 452.188 642.294V643.249C452.188 651.355 453.181 658.826 455.168 665.659C457.153 672.495 460.074 678.411 463.929 683.422C467.784 688.428 472.57 692.344 478.291 695.161C484.016 697.986 490.609 699.394 498.081 699.394Z" fill="white"/>
<path d="M640.565 728.244L592.287 557.302H631.03L664.052 685.805H665.244L697.549 557.302H735.813L687.535 728.244H640.567H640.565Z" fill="white"/>
<path d="M931.61 699.394C936.616 699.394 941.286 698.66 945.615 697.19C949.949 695.72 953.685 693.495 956.823 690.514C959.958 687.534 962.445 683.762 964.273 679.19C966.098 674.62 967.013 669.237 967.013 663.039V557.062H1000.99V668.163C1000.99 677.701 999.261 686.326 995.808 694.031C992.354 701.741 987.551 708.298 981.396 713.702C975.24 719.11 967.916 723.279 959.422 726.22C950.926 729.157 941.636 730.63 931.553 730.63C921.47 730.63 912.176 729.157 903.684 726.22C895.186 723.279 887.843 719.105 881.646 713.702C875.451 708.298 870.629 701.743 867.174 694.031C863.719 686.326 861.994 677.699 861.994 668.163V557.062H896.208V663.039C896.208 669.237 897.12 674.62 898.948 679.19C900.775 683.762 903.258 687.534 906.398 690.514C909.536 693.495 913.272 695.72 917.603 697.19C921.937 698.66 926.607 699.394 931.61 699.394Z" fill="white"/>
<path d="M1031.65 557.302H1066.22V631.328L1127.26 557.302H1169.81L1110.45 625.248L1173.63 728.244H1133.46L1088.28 651.592L1066.22 676.268V728.244H1031.65V557.302Z" fill="white"/>
<path d="M790.073 671.631C806.01 671.631 818.93 658.711 818.93 642.772C818.93 626.834 806.01 613.913 790.073 613.913C774.133 613.913 761.213 626.834 761.213 642.772C761.213 658.711 774.133 671.631 790.073 671.631Z" fill="#00FFE0"/>
<path d="M232.771 468.714V816.567" stroke="#5694CA" stroke-dasharray="2 2"/>
<path d="M147 730.796H1259.4" stroke="#5694CA" stroke-dasharray="2 2"/>
<path d="M1745.17 463.823H1377.74V816.695H1745.17V463.823Z" stroke="#8EB8DC" stroke-width="4"/>
<path d="M1349.92 521.772H1773" stroke="#5694CA" stroke-width="4" stroke-dasharray="4 4"/>
<path d="M1687.23 436V844.514" stroke="#5694CA" stroke-width="4" stroke-dasharray="4 4"/>
<path d="M1435.69 436V844.514" stroke="#5694CA" stroke-width="4" stroke-dasharray="4 4"/>
<path d="M1349.92 758.742H1773" stroke="#5694CA" stroke-width="4" stroke-dasharray="4 4"/>
<path d="M1231.58 496.534H174.822V788.746H1231.58V496.534Z" stroke="#8EB8DC" stroke-width="4"/>
<path d="M147 554.486H1259.4" stroke="#5694CA" stroke-width="4" stroke-dasharray="4 4"/>
<path d="M1173.63 468.714V816.567" stroke="#5694CA" stroke-width="4" stroke-dasharray="4 4"/>
<path d="M268.412 643.249C268.412 650.56 269.326 657.594 271.154 664.349C272.98 671.104 275.76 677.062 279.499 682.228C283.234 687.396 288.001 691.548 293.803 694.686C299.606 697.827 306.521 699.399 314.548 699.399C322.575 699.399 328.674 698.167 333.802 695.704C338.926 693.24 343.02 690.159 346.08 686.462C349.137 682.766 351.283 678.776 352.517 674.485C353.749 670.192 354.363 666.218 354.363 662.561V660.893H310.614V634.549H387.979V728.245H357.703V708.217C355.557 711.557 352.893 714.597 349.716 717.34C346.537 720.08 342.962 722.426 338.984 724.371C335.01 726.317 330.657 727.849 325.932 728.962C321.203 730.075 316.175 730.63 310.853 730.63C298.374 730.63 287.29 728.364 277.595 723.835C267.899 719.305 259.732 713.068 253.097 705.12C246.461 697.174 241.416 687.875 237.957 677.224C234.501 666.576 232.771 655.093 232.771 642.772C232.771 630.45 234.699 619.072 238.554 608.383C242.409 597.695 247.891 588.396 255.007 580.488C262.12 572.58 270.7 566.344 280.754 561.773C290.807 557.201 302.072 554.916 314.551 554.916C322.656 554.916 330.346 555.85 337.616 557.717C344.889 559.586 351.524 562.247 357.525 565.703C363.523 569.159 368.828 573.334 373.439 578.22C378.045 583.105 381.784 588.533 384.646 594.493L354.366 611.536C352.538 607.883 350.392 604.485 347.928 601.343C345.462 598.207 342.624 595.503 339.406 593.238C336.186 590.972 332.512 589.185 328.38 587.875C324.246 586.564 319.637 585.906 314.554 585.906C306.527 585.906 299.612 587.479 293.809 590.617C288.006 593.756 283.24 597.908 279.505 603.076C275.769 608.241 272.988 614.221 271.16 621.016C269.332 627.812 268.418 634.829 268.418 642.055V643.249H268.412Z" fill="white"/>
<path d="M498.081 554.916C510.796 554.916 522.199 557.202 532.294 561.773C542.389 566.344 550.952 572.58 557.985 580.488C565.016 588.396 570.384 597.695 574.077 608.383C577.773 619.072 579.619 630.537 579.619 642.772C579.619 655.006 577.773 666.576 574.077 677.225C570.384 687.875 565.016 697.174 557.985 705.12C550.954 713.066 542.389 719.303 532.294 723.835C522.204 728.364 510.796 730.63 498.081 730.63C485.367 730.63 473.859 728.364 463.81 723.835C453.755 719.303 445.214 713.068 438.183 705.12C431.147 697.174 425.784 687.875 422.091 677.225C418.396 666.576 416.547 655.093 416.547 642.772C416.547 630.45 418.396 619.072 422.091 608.383C425.784 597.695 431.147 588.396 438.183 580.488C445.214 572.58 453.755 566.344 463.81 561.773C473.862 557.202 485.284 554.916 498.081 554.916ZM498.081 699.394C505.552 699.394 512.128 697.986 517.811 695.161C523.491 692.344 528.282 688.428 532.173 683.422C536.068 678.414 539.008 672.495 540.995 665.659C542.98 658.826 543.976 651.355 543.976 643.249V642.294C543.976 634.267 542.98 626.816 540.995 619.942C539.008 613.068 536.068 607.126 532.173 602.121C528.28 597.116 523.491 593.203 517.811 590.378C512.128 587.56 505.552 586.148 498.081 586.148C490.609 586.148 484.016 587.56 478.291 590.378C472.57 593.203 467.784 597.116 463.929 602.121C460.074 607.126 457.153 613.071 455.168 619.942C453.181 626.816 452.188 634.267 452.188 642.294V643.249C452.188 651.355 453.181 658.826 455.168 665.659C457.153 672.495 460.074 678.411 463.929 683.422C467.784 688.428 472.57 692.344 478.291 695.161C484.016 697.986 490.609 699.394 498.081 699.394Z" fill="white"/>
<path d="M640.565 728.244L592.287 557.302H631.03L664.052 685.805H665.244L697.549 557.302H735.813L687.535 728.244H640.567H640.565Z" fill="white"/>
<path d="M931.61 699.394C936.616 699.394 941.286 698.66 945.615 697.19C949.949 695.72 953.685 693.495 956.823 690.514C959.958 687.534 962.445 683.762 964.273 679.19C966.098 674.62 967.013 669.237 967.013 663.039V557.062H1000.99V668.163C1000.99 677.701 999.261 686.326 995.808 694.031C992.354 701.741 987.551 708.298 981.396 713.702C975.24 719.11 967.916 723.279 959.422 726.22C950.926 729.157 941.636 730.63 931.553 730.63C921.47 730.63 912.176 729.157 903.684 726.22C895.186 723.279 887.843 719.105 881.646 713.702C875.451 708.298 870.629 701.743 867.174 694.031C863.719 686.326 861.994 677.699 861.994 668.163V557.062H896.208V663.039C896.208 669.237 897.12 674.62 898.948 679.19C900.775 683.762 903.258 687.534 906.398 690.514C909.536 693.495 913.272 695.72 917.603 697.19C921.937 698.66 926.607 699.394 931.61 699.394Z" fill="white"/>
<path d="M1031.65 557.302H1066.22V631.328L1127.26 557.302H1169.81L1110.45 625.248L1173.63 728.244H1133.46L1088.28 651.592L1066.22 676.268V728.244H1031.65V557.302Z" fill="white"/>
<path d="M790.073 671.631C806.01 671.631 818.93 658.711 818.93 642.772C818.93 626.834 806.01 613.913 790.073 613.913C774.133 613.913 761.213 626.834 761.213 642.772C761.213 658.711 774.133 671.631 790.073 671.631Z" fill="#00FFE0"/>
<path d="M232.771 468.714V816.567" stroke="#5694CA" stroke-width="4" stroke-dasharray="4 4"/>
<path d="M147 730.796H1259.4" stroke="#5694CA" stroke-width="4" stroke-dasharray="4 4"/>
<path d="M214.988 552.248C200.047 558.422 183.103 551.362 177.028 536.618C170.92 521.907 177.914 504.766 192.856 498.658C207.501 492.649 224.511 499.84 230.586 514.584C236.66 529.262 229.633 546.239 214.988 552.248Z" fill="#00FFE0"/>
<path d="M214.988 552.248C200.047 558.422 183.103 551.362 177.028 536.618C170.92 521.907 177.914 504.766 192.856 498.658C207.501 492.649 224.511 499.84 230.586 514.584C236.66 529.262 229.633 546.239 214.988 552.248Z" fill="#00FFE0"/>
<path d="M1213.8 552.248C1198.85 558.422 1181.91 551.362 1175.83 536.618C1169.73 521.907 1176.72 504.766 1191.66 498.658C1206.31 492.649 1223.32 499.84 1229.39 514.584C1235.47 529.262 1228.44 546.239 1213.8 552.248Z" fill="#00FFE0"/>
<path d="M1213.8 552.248C1198.85 558.422 1181.91 551.362 1175.83 536.618C1169.73 521.907 1176.72 504.766 1191.66 498.658C1206.31 492.649 1223.32 499.84 1229.39 514.584C1235.47 529.262 1228.44 546.239 1213.8 552.248Z" fill="#00FFE0"/>
<path d="M1213.8 552.248C1198.85 558.422 1181.91 551.362 1175.83 536.618C1169.73 521.907 1176.72 504.766 1191.66 498.658C1206.31 492.649 1223.32 499.84 1229.39 514.584C1235.47 529.262 1228.44 546.239 1213.8 552.248Z" fill="#00FFE0"/>
<path d="M1417.91 521.919C1402.97 528.093 1386.02 521.033 1379.95 506.289C1373.84 491.578 1380.84 474.436 1395.78 468.329C1410.42 462.319 1427.43 469.511 1433.51 484.255C1439.58 498.933 1432.56 515.91 1417.91 521.919Z" fill="#00FFE0"/>
<path d="M1417.91 521.919C1402.97 528.093 1386.02 521.033 1379.95 506.289C1373.84 491.578 1380.84 474.436 1395.78 468.329C1410.42 462.319 1427.43 469.511 1433.51 484.255C1439.58 498.933 1432.56 515.91 1417.91 521.919Z" fill="#00FFE0"/>
<path d="M1417.91 521.919C1402.97 528.093 1386.02 521.033 1379.95 506.289C1373.84 491.578 1380.84 474.436 1395.78 468.329C1410.42 462.319 1427.43 469.511 1433.51 484.255C1439.58 498.933 1432.56 515.91 1417.91 521.919Z" fill="#00FFE0"/>
<path d="M1417.91 816.838C1402.97 823.011 1386.02 815.952 1379.95 801.209C1373.84 786.496 1380.84 769.356 1395.78 763.25C1410.42 757.238 1427.43 764.431 1433.51 779.175C1439.58 793.854 1432.56 810.829 1417.91 816.838Z" fill="#00FFE0"/>
<path d="M1417.91 816.838C1402.97 823.011 1386.02 815.952 1379.95 801.209C1373.84 786.496 1380.84 769.356 1395.78 763.25C1410.42 757.238 1427.43 764.431 1433.51 779.175C1439.58 793.854 1432.56 810.829 1417.91 816.838Z" fill="#00FFE0"/>
<path d="M1417.91 816.838C1402.97 823.011 1386.02 815.952 1379.95 801.209C1373.84 786.496 1380.84 769.356 1395.78 763.25C1410.42 757.238 1427.43 764.431 1433.51 779.175C1439.58 793.854 1432.56 810.829 1417.91 816.838Z" fill="#00FFE0"/>
<path d="M1726.75 521.919C1711.81 528.093 1694.87 521.033 1688.79 506.289C1682.68 491.578 1689.68 474.436 1704.62 468.329C1719.26 462.319 1736.27 469.511 1742.35 484.255C1748.42 498.933 1741.4 515.91 1726.75 521.919Z" fill="#00FFE0"/>
<path d="M1726.75 521.919C1711.81 528.093 1694.87 521.033 1688.79 506.289C1682.68 491.578 1689.68 474.436 1704.62 468.329C1719.26 462.319 1736.27 469.511 1742.35 484.255C1748.42 498.933 1741.4 515.91 1726.75 521.919Z" fill="#00FFE0"/>
<path d="M1726.75 521.919C1711.81 528.093 1694.87 521.033 1688.79 506.289C1682.68 491.578 1689.68 474.436 1704.62 468.329C1719.26 462.319 1736.27 469.511 1742.35 484.255C1748.42 498.933 1741.4 515.91 1726.75 521.919Z" fill="#00FFE0"/>
<path d="M1726.75 816.838C1711.81 823.011 1694.87 815.952 1688.79 801.209C1682.68 786.496 1689.68 769.356 1704.62 763.25C1719.26 757.238 1736.27 764.431 1742.35 779.175C1748.42 793.854 1741.4 810.829 1726.75 816.838Z" fill="#00FFE0"/>
<path d="M1726.75 816.838C1711.81 823.011 1694.87 815.952 1688.79 801.209C1682.68 786.496 1689.68 769.356 1704.62 763.25C1719.26 757.238 1736.27 764.431 1742.35 779.175C1748.42 793.854 1741.4 810.829 1726.75 816.838Z" fill="#00FFE0"/>
<path d="M1726.75 816.838C1711.81 823.011 1694.87 815.952 1688.79 801.209C1682.68 786.496 1689.68 769.356 1704.62 763.25C1719.26 757.238 1736.27 764.431 1742.35 779.175C1748.42 793.854 1741.4 810.829 1726.75 816.838Z" fill="#00FFE0"/>
<path d="M214.988 786.31C200.047 792.484 183.103 785.422 177.028 770.678C170.92 755.968 177.914 738.826 192.856 732.719C207.501 726.71 224.511 733.901 230.586 748.644C236.66 763.323 229.633 780.299 214.988 786.31Z" fill="#00FFE0"/>
<path d="M214.988 786.31C200.047 792.484 183.103 785.422 177.028 770.678C170.92 755.968 177.914 738.826 192.856 732.719C207.501 726.71 224.511 733.901 230.586 748.644C236.66 763.323 229.633 780.299 214.988 786.31Z" fill="#00FFE0"/>
<path d="M214.988 786.31C200.047 792.484 183.103 785.422 177.028 770.678C170.92 755.968 177.914 738.826 192.856 732.719C207.501 726.71 224.511 733.901 230.586 748.644C236.66 763.323 229.633 780.299 214.988 786.31Z" fill="#00FFE0"/>
<path d="M1213.8 786.31C1198.85 792.484 1181.91 785.422 1175.83 770.678C1169.73 755.968 1176.72 738.826 1191.66 732.719C1206.31 726.71 1223.32 733.901 1229.39 748.644C1235.47 763.323 1228.44 780.299 1213.8 786.31Z" fill="#00FFE0"/>
<path d="M1213.8 786.31C1198.85 792.484 1181.91 785.422 1175.83 770.678C1169.73 755.968 1176.72 738.826 1191.66 732.719C1206.31 726.71 1223.32 733.901 1229.39 748.644C1235.47 763.323 1228.44 780.299 1213.8 786.31Z" fill="#00FFE0"/>
<path d="M1213.8 786.31C1198.85 792.484 1181.91 785.422 1175.83 770.678C1169.73 755.968 1176.72 738.826 1191.66 732.719C1206.31 726.71 1223.32 733.901 1229.39 748.644C1235.47 763.323 1228.44 780.299 1213.8 786.31Z" fill="#00FFE0"/>
<path d="M1515.32 605.734C1523.28 605.734 1529.74 599.276 1529.74 591.31C1529.74 583.343 1523.28 576.886 1515.32 576.886C1507.35 576.886 1500.89 583.343 1500.89 591.31C1500.89 599.276 1507.35 605.734 1515.32 605.734Z" fill="white"/>
<path d="M1476.51 628.977C1484.48 628.977 1490.94 622.519 1490.94 614.553C1490.94 606.587 1484.48 600.129 1476.51 600.129C1468.55 600.129 1462.09 606.587 1462.09 614.553C1462.09 622.519 1468.55 628.977 1476.51 628.977Z" fill="white"/>
<path d="M1450.84 667.198C1458.81 667.198 1465.26 660.74 1465.26 652.774C1465.26 644.808 1458.81 638.351 1450.84 638.351C1442.88 638.351 1436.42 644.808 1436.42 652.774C1436.42 660.74 1442.88 667.198 1450.84 667.198Z" fill="white"/>
<path d="M1561.46 657.098C1569.42 657.098 1575.88 650.64 1575.88 642.674C1575.88 634.708 1569.42 628.25 1561.46 628.25C1553.49 628.25 1547.03 634.708 1547.03 642.674C1547.03 650.64 1553.49 657.098 1561.46 657.098Z" fill="white"/>
<path d="M1607.55 605.734C1615.51 605.734 1621.97 599.276 1621.97 591.31C1621.97 583.344 1615.51 576.886 1607.55 576.886C1599.58 576.886 1593.12 583.344 1593.12 591.31C1593.12 599.276 1599.58 605.734 1607.55 605.734Z" fill="white"/>
<path d="M1646.36 628.977C1654.32 628.977 1660.78 622.519 1660.78 614.553C1660.78 606.587 1654.32 600.129 1646.36 600.129C1638.39 600.129 1631.93 606.587 1631.93 614.553C1631.93 622.519 1638.39 628.977 1646.36 628.977Z" fill="white"/>
<path d="M1672.03 667.198C1679.99 667.198 1686.45 660.74 1686.45 652.774C1686.45 644.808 1679.99 638.351 1672.03 638.351C1664.06 638.351 1657.6 644.808 1657.6 652.774C1657.6 660.74 1664.06 667.198 1672.03 667.198Z" fill="white"/>
<path d="M1561.46 657.098C1569.42 657.098 1575.88 650.64 1575.88 642.674C1575.88 634.708 1569.42 628.25 1561.46 628.25C1553.49 628.25 1547.03 634.708 1547.03 642.674C1547.03 650.64 1553.49 657.098 1561.46 657.098Z" fill="white"/>
<path d="M1567.27 560.419C1568 559.871 1568.65 559.223 1569.2 558.494L1587.55 568.126V541.081L1569.22 546.897C1568.69 546.182 1568.06 545.543 1567.35 544.997L1574.72 521.772H1548.19L1555.56 544.997C1554.85 545.54 1554.22 546.179 1553.69 546.897L1535.37 541.081V568.126L1553.71 558.494C1554.26 559.223 1554.91 559.871 1555.64 560.419L1545.19 591.937C1541.51 603.032 1549.77 614.474 1561.45 614.474C1573.14 614.474 1581.4 603.032 1577.72 591.937L1567.27 560.419Z" fill="white"/>
<path d="M1582.43 671.4C1582.43 671.4 1569.03 686.308 1566.11 695.405C1574.87 695.126 1582.75 693.42 1591.42 684.368L1588.48 718.046C1580.5 706.848 1571.14 702.021 1565.96 702.988C1566.48 715.056 1567.74 729.635 1588.88 731.555C1603.62 732.837 1615.46 725.594 1616.69 716.633C1618.15 706.338 1608.88 699.526 1601.88 710.365C1596.41 692.431 1611.52 686.468 1621.22 697.573C1613.75 679.875 1613.95 667.3 1630.57 654.586C1642.49 670.434 1640.8 683.532 1626.02 698.28C1635.64 692.958 1650.58 698.559 1641.78 716.535C1637.18 705.354 1627.32 707.853 1625.25 717.474C1623.87 724.269 1627.99 732.265 1636.96 733.904C1644.31 735.253 1655.64 730.228 1664.72 710.667C1659.61 710.801 1655.13 713.379 1649.34 717.367L1658.86 685.617C1661.26 694.528 1664.33 700.379 1667.58 703.543C1669.76 697.129 1669.45 692.476 1667.5 682.481L1687.19 689.491C1676.73 703.758 1666.6 723.778 1658.29 758.743C1629 754.561 1596.21 752.212 1561.46 752.212C1526.72 752.212 1493.93 754.564 1464.63 758.743C1456.33 723.776 1446.2 703.755 1435.74 689.491L1455.43 682.481C1453.47 692.476 1453.16 697.129 1455.34 703.543C1458.59 700.379 1461.66 694.528 1464.06 685.617L1473.59 717.367C1467.79 713.376 1463.31 710.801 1458.2 710.667C1467.28 730.228 1478.61 735.251 1485.97 733.904C1494.93 732.265 1499.05 724.269 1497.68 717.474C1495.61 707.853 1485.74 705.354 1481.14 716.535C1472.34 698.559 1487.28 692.955 1496.9 698.28C1482.12 683.532 1480.43 670.431 1492.36 654.586C1508.97 667.297 1509.17 679.87 1501.7 697.573C1511.4 686.472 1526.51 692.431 1521.04 710.365C1514.05 699.526 1504.77 706.338 1506.23 716.633C1507.46 725.596 1519.3 732.839 1534.05 731.555C1555.18 729.635 1556.44 715.056 1556.97 702.988C1551.78 702.021 1542.42 706.846 1534.44 718.046L1531.5 684.368C1540.17 693.42 1548.05 695.123 1556.82 695.405C1553.89 686.308 1540.5 671.4 1540.5 671.4H1582.44H1582.43Z" fill="white"/>
<path d="M1515.32 605.734C1523.28 605.734 1529.74 599.276 1529.74 591.31C1529.74 583.343 1523.28 576.886 1515.32 576.886C1507.35 576.886 1500.89 583.343 1500.89 591.31C1500.89 599.276 1507.35 605.734 1515.32 605.734Z" fill="white"/>
<path d="M1476.51 628.977C1484.48 628.977 1490.94 622.519 1490.94 614.553C1490.94 606.587 1484.48 600.129 1476.51 600.129C1468.55 600.129 1462.09 606.587 1462.09 614.553C1462.09 622.519 1468.55 628.977 1476.51 628.977Z" fill="white"/>
<path d="M1450.84 667.198C1458.81 667.198 1465.26 660.74 1465.26 652.774C1465.26 644.808 1458.81 638.351 1450.84 638.351C1442.88 638.351 1436.42 644.808 1436.42 652.774C1436.42 660.74 1442.88 667.198 1450.84 667.198Z" fill="white"/>
<path d="M1561.46 657.098C1569.42 657.098 1575.88 650.64 1575.88 642.674C1575.88 634.708 1569.42 628.25 1561.46 628.25C1553.49 628.25 1547.03 634.708 1547.03 642.674C1547.03 650.64 1553.49 657.098 1561.46 657.098Z" fill="white"/>
<path d="M1607.55 605.734C1615.51 605.734 1621.97 599.276 1621.97 591.31C1621.97 583.344 1615.51 576.886 1607.55 576.886C1599.58 576.886 1593.12 583.344 1593.12 591.31C1593.12 599.276 1599.58 605.734 1607.55 605.734Z" fill="white"/>
<path d="M1646.36 628.977C1654.32 628.977 1660.78 622.519 1660.78 614.553C1660.78 606.587 1654.32 600.129 1646.36 600.129C1638.39 600.129 1631.93 606.587 1631.93 614.553C1631.93 622.519 1638.39 628.977 1646.36 628.977Z" fill="white"/>
<path d="M1672.03 667.198C1679.99 667.198 1686.45 660.74 1686.45 652.774C1686.45 644.808 1679.99 638.351 1672.03 638.351C1664.06 638.351 1657.6 644.808 1657.6 652.774C1657.6 660.74 1664.06 667.198 1672.03 667.198Z" fill="white"/>
<path d="M1561.46 657.098C1569.42 657.098 1575.88 650.64 1575.88 642.674C1575.88 634.708 1569.42 628.25 1561.46 628.25C1553.49 628.25 1547.03 634.708 1547.03 642.674C1547.03 650.64 1553.49 657.098 1561.46 657.098Z" fill="white"/>
<path d="M1567.27 560.419C1568 559.871 1568.65 559.223 1569.2 558.494L1587.55 568.126V541.081L1569.22 546.897C1568.69 546.182 1568.06 545.543 1567.35 544.997L1574.72 521.772H1548.19L1555.56 544.997C1554.85 545.54 1554.22 546.179 1553.69 546.897L1535.37 541.081V568.126L1553.71 558.494C1554.26 559.223 1554.91 559.871 1555.64 560.419L1545.19 591.937C1541.51 603.032 1549.77 614.474 1561.45 614.474C1573.14 614.474 1581.4 603.032 1577.72 591.937L1567.27 560.419Z" fill="white"/>
<path d="M1582.43 671.4C1582.43 671.4 1569.03 686.308 1566.11 695.405C1574.87 695.126 1582.75 693.42 1591.42 684.368L1588.48 718.046C1580.5 706.848 1571.14 702.021 1565.96 702.988C1566.48 715.056 1567.74 729.635 1588.88 731.555C1603.62 732.837 1615.46 725.594 1616.69 716.633C1618.15 706.338 1608.88 699.526 1601.88 710.365C1596.41 692.431 1611.52 686.468 1621.22 697.573C1613.75 679.875 1613.95 667.3 1630.57 654.586C1642.49 670.434 1640.8 683.532 1626.02 698.28C1635.64 692.958 1650.58 698.559 1641.78 716.535C1637.18 705.354 1627.32 707.853 1625.25 717.474C1623.87 724.269 1627.99 732.265 1636.96 733.904C1644.31 735.253 1655.64 730.228 1664.72 710.667C1659.61 710.801 1655.13 713.379 1649.34 717.367L1658.86 685.617C1661.26 694.528 1664.33 700.379 1667.58 703.543C1669.76 697.129 1669.45 692.476 1667.5 682.481L1687.19 689.491C1676.73 703.758 1666.6 723.778 1658.29 758.743C1629 754.561 1596.21 752.212 1561.46 752.212C1526.72 752.212 1493.93 754.564 1464.63 758.743C1456.33 723.776 1446.2 703.755 1435.74 689.491L1455.43 682.481C1453.47 692.476 1453.16 697.129 1455.34 703.543C1458.59 700.379 1461.66 694.528 1464.06 685.617L1473.59 717.367C1467.79 713.376 1463.31 710.801 1458.2 710.667C1467.28 730.228 1478.61 735.251 1485.97 733.904C1494.93 732.265 1499.05 724.269 1497.68 717.474C1495.61 707.853 1485.74 705.354 1481.14 716.535C1472.34 698.559 1487.28 692.955 1496.9 698.28C1482.12 683.532 1480.43 670.431 1492.36 654.586C1508.97 667.297 1509.17 679.87 1501.7 697.573C1511.4 686.472 1526.51 692.431 1521.04 710.365C1514.05 699.526 1504.77 706.338 1506.23 716.633C1507.46 725.596 1519.3 732.839 1534.05 731.555C1555.18 729.635 1556.44 715.056 1556.97 702.988C1551.78 702.021 1542.42 706.846 1534.44 718.046L1531.5 684.368C1540.17 693.42 1548.05 695.123 1556.82 695.405C1553.89 686.308 1540.5 671.4 1540.5 671.4H1582.44H1582.43Z" fill="white"/>
<path d="M1515.32 605.734C1523.28 605.734 1529.74 599.276 1529.74 591.31C1529.74 583.343 1523.28 576.886 1515.32 576.886C1507.35 576.886 1500.89 583.343 1500.89 591.31C1500.89 599.276 1507.35 605.734 1515.32 605.734Z" fill="white"/>
<path d="M1476.51 628.977C1484.48 628.977 1490.94 622.519 1490.94 614.553C1490.94 606.587 1484.48 600.129 1476.51 600.129C1468.55 600.129 1462.09 606.587 1462.09 614.553C1462.09 622.519 1468.55 628.977 1476.51 628.977Z" fill="white"/>
<path d="M1450.84 667.198C1458.81 667.198 1465.26 660.74 1465.26 652.774C1465.26 644.808 1458.81 638.351 1450.84 638.351C1442.88 638.351 1436.42 644.808 1436.42 652.774C1436.42 660.74 1442.88 667.198 1450.84 667.198Z" fill="white"/>
<path d="M1561.46 657.098C1569.42 657.098 1575.88 650.64 1575.88 642.674C1575.88 634.708 1569.42 628.25 1561.46 628.25C1553.49 628.25 1547.03 634.708 1547.03 642.674C1547.03 650.64 1553.49 657.098 1561.46 657.098Z" fill="white"/>
<path d="M1607.55 605.734C1615.51 605.734 1621.97 599.276 1621.97 591.31C1621.97 583.344 1615.51 576.886 1607.55 576.886C1599.58 576.886 1593.12 583.344 1593.12 591.31C1593.12 599.276 1599.58 605.734 1607.55 605.734Z" fill="white"/>
<path d="M1646.36 628.977C1654.32 628.977 1660.78 622.519 1660.78 614.553C1660.78 606.587 1654.32 600.129 1646.36 600.129C1638.39 600.129 1631.93 606.587 1631.93 614.553C1631.93 622.519 1638.39 628.977 1646.36 628.977Z" fill="white"/>
<path d="M1672.03 667.198C1679.99 667.198 1686.45 660.74 1686.45 652.774C1686.45 644.808 1679.99 638.351 1672.03 638.351C1664.06 638.351 1657.6 644.808 1657.6 652.774C1657.6 660.74 1664.06 667.198 1672.03 667.198Z" fill="white"/>
<path d="M1561.46 657.098C1569.42 657.098 1575.88 650.64 1575.88 642.674C1575.88 634.708 1569.42 628.25 1561.46 628.25C1553.49 628.25 1547.03 634.708 1547.03 642.674C1547.03 650.64 1553.49 657.098 1561.46 657.098Z" fill="white"/>
<path d="M1567.27 560.419C1568 559.871 1568.65 559.223 1569.2 558.494L1587.55 568.126V541.081L1569.22 546.897C1568.69 546.182 1568.06 545.543 1567.35 544.997L1574.72 521.772H1548.19L1555.56 544.997C1554.85 545.54 1554.22 546.179 1553.69 546.897L1535.37 541.081V568.126L1553.71 558.494C1554.26 559.223 1554.91 559.871 1555.64 560.419L1545.19 591.937C1541.51 603.032 1549.77 614.474 1561.45 614.474C1573.14 614.474 1581.4 603.032 1577.72 591.937L1567.27 560.419Z" fill="white"/>
<path d="M1582.43 671.4C1582.43 671.4 1569.03 686.308 1566.11 695.405C1574.87 695.126 1582.75 693.42 1591.42 684.368L1588.48 718.046C1580.5 706.848 1571.14 702.021 1565.96 702.988C1566.48 715.056 1567.74 729.635 1588.88 731.555C1603.62 732.837 1615.46 725.594 1616.69 716.633C1618.15 706.338 1608.88 699.526 1601.88 710.365C1596.41 692.431 1611.52 686.468 1621.22 697.573C1613.75 679.875 1613.95 667.3 1630.57 654.586C1642.49 670.434 1640.8 683.532 1626.02 698.28C1635.64 692.958 1650.58 698.559 1641.78 716.535C1637.18 705.354 1627.32 707.853 1625.25 717.474C1623.87 724.269 1627.99 732.265 1636.96 733.904C1644.31 735.253 1655.64 730.228 1664.72 710.667C1659.61 710.801 1655.13 713.379 1649.34 717.367L1658.86 685.617C1661.26 694.528 1664.33 700.379 1667.58 703.543C1669.76 697.129 1669.45 692.476 1667.5 682.481L1687.19 689.491C1676.73 703.758 1666.6 723.778 1658.29 758.743C1629 754.561 1596.21 752.212 1561.46 752.212C1526.72 752.212 1493.93 754.564 1464.63 758.743C1456.33 723.776 1446.2 703.755 1435.74 689.491L1455.43 682.481C1453.47 692.476 1453.16 697.129 1455.34 703.543C1458.59 700.379 1461.66 694.528 1464.06 685.617L1473.59 717.367C1467.79 713.376 1463.31 710.801 1458.2 710.667C1467.28 730.228 1478.61 735.251 1485.97 733.904C1494.93 732.265 1499.05 724.269 1497.68 717.474C1495.61 707.853 1485.74 705.354 1481.14 716.535C1472.34 698.559 1487.28 692.955 1496.9 698.28C1482.12 683.532 1480.43 670.431 1492.36 654.586C1508.97 667.297 1509.17 679.87 1501.7 697.573C1511.4 686.472 1526.51 692.431 1521.04 710.365C1514.05 699.526 1504.77 706.338 1506.23 716.633C1507.46 725.596 1519.3 732.839 1534.05 731.555C1555.18 729.635 1556.44 715.056 1556.97 702.988C1551.78 702.021 1542.42 706.846 1534.44 718.046L1531.5 684.368C1540.17 693.42 1548.05 695.123 1556.82 695.405C1553.89 686.308 1540.5 671.4 1540.5 671.4H1582.44H1582.43Z" fill="white"/>
</g>
<defs>
<clipPath id="clip0_1021_170">
<rect width="1920" height="1280" fill="white"/>
</clipPath>
</defs>
</svg>
