<svg width="293" height="52" viewBox="0 0 293 52" fill="none" xmlns="http://www.w3.org/2000/svg">
<rect x="0.889648" y="0.390625" width="291.894" height="51.5273" fill="#1D70B8"/>
<path d="M115.643 20.373L268.74 20.3731" stroke="#D7DEE5" stroke-dasharray="1.04 1.04"/>
<path d="M115.643 26.7012L268.74 26.7012" stroke="#D7DEE5" stroke-dasharray="1.04 1.04"/>
<path d="M115.643 33.0293L268.74 33.0293" stroke="#D7DEE5" stroke-dasharray="1.04 1.04"/>
<path d="M8.63917 26.8029C8.63917 28.3926 8.83795 29.9222 9.23553 31.3909C9.63247 32.8597 10.2371 34.1556 11.0499 35.2787C11.8622 36.4024 12.8985 37.3052 14.1602 37.9877C15.422 38.6702 16.9255 39.012 18.6709 39.012C20.4163 39.012 21.7426 38.7442 22.8575 38.2086C23.9717 37.673 24.8618 37.0032 25.5272 36.1992C26.1919 35.3958 26.6585 34.5279 26.9269 33.5947C27.1947 32.6615 27.3283 31.7974 27.3283 31.0022V30.6394H17.8156V24.9113H34.6378V45.2847H28.0544V40.9297C27.5878 41.6558 27.0086 42.3167 26.3179 42.9131C25.6266 43.5088 24.8492 44.0191 23.9844 44.442C23.1202 44.8656 22.1738 45.1986 21.1463 45.4404C20.1182 45.6822 19.0248 45.8032 17.8676 45.8032C15.1542 45.8032 12.7441 45.3106 10.6359 44.3255C8.52775 43.3404 6.75196 41.9844 5.30917 40.256C3.86639 38.5283 2.76926 36.5063 2.01716 34.1904C1.2657 31.8752 0.889648 29.3783 0.889648 26.6991C0.889648 24.0199 1.30875 21.5458 2.14694 19.2217C2.98514 16.8977 4.17723 14.8756 5.72447 13.1561C7.27108 11.4366 9.13677 10.0806 11.3228 9.08662C13.5088 8.09268 15.9582 7.5957 18.6716 7.5957C20.4341 7.5957 22.106 7.79892 23.6868 8.20473C25.2682 8.61117 26.711 9.18982 28.0158 9.94129C29.32 10.6928 30.4734 11.6006 31.4762 12.6629C32.4778 13.7253 33.2906 14.9053 33.9129 16.2013L27.3289 19.9074C26.9313 19.1128 26.4648 18.374 25.9292 17.6909C25.393 17.0091 24.7757 16.4209 24.0762 15.9284C23.376 15.4359 22.577 15.0471 21.6787 14.7623C20.7797 14.4774 19.7776 14.3343 18.6722 14.3343C16.9268 14.3343 15.4232 14.6762 14.1615 15.3586C12.8998 16.0411 11.8634 16.9439 11.0512 18.0676C10.239 19.1907 9.63437 20.4911 9.23679 21.9687C8.83922 23.4463 8.64043 24.9721 8.64043 26.5434V26.8029H8.63917Z" fill="white"/>
<path d="M58.5779 7.5957C61.3425 7.5957 63.8223 8.09268 66.0172 9.08662C68.2121 10.0806 70.0739 11.4366 71.6035 13.1561C73.1323 14.8756 74.2991 16.8977 75.1025 19.2217C75.9059 21.5458 76.3072 24.0389 76.3072 26.6991C76.3072 29.3593 75.9059 31.8752 75.1025 34.1904C74.2991 36.5063 73.1323 38.5283 71.6035 40.256C70.0746 41.9837 68.2121 43.3404 66.0172 44.3255C63.8229 45.3106 61.3425 45.8032 58.5779 45.8032C55.8132 45.8032 53.3113 45.3106 51.1259 44.3255C48.9399 43.3404 47.0824 41.9844 45.5535 40.256C44.024 38.5283 42.8579 36.5063 42.0545 34.1904C41.2511 31.8752 40.8491 29.3783 40.8491 26.6991C40.8491 24.0199 41.2511 21.5458 42.0545 19.2217C42.8579 16.8977 44.024 14.8756 45.5535 13.1561C47.0824 11.4366 48.9399 10.0806 51.1259 9.08662C53.3119 8.09268 55.7955 7.5957 58.5779 7.5957ZM58.5779 39.0114C60.2023 39.0114 61.6325 38.705 62.8676 38.0909C64.1027 37.4781 65.1448 36.6266 65.9906 35.5383C66.8376 34.4494 67.477 33.1623 67.9088 31.6758C68.3406 30.19 68.5571 28.5655 68.5571 26.8029V26.5953C68.5571 24.8499 68.3406 23.2298 67.9088 21.7351C67.477 20.2404 66.8376 18.9482 65.9906 17.8599C65.1442 16.7717 64.1027 15.9208 62.8676 15.3067C61.6325 14.6939 60.2023 14.3868 58.5779 14.3868C56.9534 14.3868 55.5195 14.6939 54.2748 15.3067C53.0308 15.9208 51.99 16.7717 51.1518 17.8599C50.3136 18.9482 49.6787 20.241 49.2469 21.7351C48.8151 23.2298 48.5986 24.8499 48.5986 26.5953V26.8029C48.5986 28.5655 48.8151 30.19 49.2469 31.6758C49.6787 33.1623 50.3136 34.4487 51.1518 35.5383C51.99 36.6266 53.0308 37.4781 54.2748 38.0909C55.5195 38.705 56.9534 39.0114 58.5779 39.0114Z" fill="white"/>
<path d="M89.5592 45.2831L79.0615 8.11328H87.4859L94.6663 36.0552H94.9252L101.95 8.11328H110.27L99.7721 45.2831H89.5599H89.5592Z" fill="white"/>
<path d="M152.844 39.0116C153.932 39.0116 154.947 38.8521 155.889 38.5324C156.831 38.2127 157.643 37.729 158.325 37.0807C159.007 36.4324 159.548 35.6126 159.945 34.618C160.342 33.6247 160.541 32.4541 160.541 31.1062V8.0625H167.929V32.2205C167.929 34.2945 167.553 36.1697 166.802 37.8455C166.052 39.5219 165.007 40.9476 163.669 42.1226C162.33 43.2982 160.737 44.2048 158.891 44.8442C157.043 45.483 155.023 45.8034 152.831 45.8034C150.639 45.8034 148.618 45.483 146.771 44.8442C144.923 44.2048 143.327 43.2976 141.979 42.1226C140.632 40.9476 139.584 39.5225 138.832 37.8455C138.081 36.1697 137.706 34.2938 137.706 32.2205V8.0625H145.145V31.1062C145.145 32.4541 145.344 33.6247 145.741 34.618C146.139 35.6126 146.679 36.4324 147.361 37.0807C148.044 37.729 148.856 38.2127 149.798 38.5324C150.74 38.8521 151.755 39.0116 152.844 39.0116Z" fill="white"/>
<path d="M174.596 8.11328H182.113V24.2095L195.385 8.11328H204.638L191.73 22.8876L205.468 45.2831H196.733L186.909 28.6158L182.113 33.9812V45.2831H174.596V8.11328Z" fill="white"/>
<path d="M122.068 32.9742C125.533 32.9742 128.343 30.1647 128.343 26.699C128.343 23.2333 125.533 20.4238 122.068 20.4238C118.602 20.4238 115.792 23.2333 115.792 26.699C115.792 30.1647 118.602 32.9742 122.068 32.9742Z" fill="#00FFE0"/>
<path d="M255.573 18.6477C257.305 18.6477 258.709 17.2435 258.709 15.5113C258.709 13.7792 257.305 12.375 255.573 12.375C253.841 12.375 252.437 13.7792 252.437 15.5113C252.437 17.2435 253.841 18.6477 255.573 18.6477Z" fill="white"/>
<path d="M247.135 23.7024C248.867 23.7024 250.271 22.2982 250.271 20.566C250.271 18.8339 248.867 17.4297 247.135 17.4297C245.403 17.4297 243.999 18.8339 243.999 20.566C243.999 22.2982 245.403 23.7024 247.135 23.7024Z" fill="white"/>
<path d="M241.552 32.0129C243.285 32.0129 244.689 30.6087 244.689 28.8766C244.689 27.1444 243.285 25.7402 241.552 25.7402C239.82 25.7402 238.416 27.1444 238.416 28.8766C238.416 30.6087 239.82 32.0129 241.552 32.0129Z" fill="white"/>
<path d="M265.605 29.8157C267.337 29.8157 268.741 28.4115 268.741 26.6793C268.741 24.9472 267.337 23.543 265.605 23.543C263.872 23.543 262.468 24.9472 262.468 26.6793C262.468 28.4115 263.872 29.8157 265.605 29.8157Z" fill="white"/>
<path d="M275.627 18.6477C277.359 18.6477 278.763 17.2435 278.763 15.5113C278.763 13.7792 277.359 12.375 275.627 12.375C273.894 12.375 272.49 13.7792 272.49 15.5113C272.49 17.2435 273.894 18.6477 275.627 18.6477Z" fill="white"/>
<path d="M284.066 23.7024C285.798 23.7024 287.202 22.2982 287.202 20.566C287.202 18.8339 285.798 17.4297 284.066 17.4297C282.333 17.4297 280.929 18.8339 280.929 20.566C280.929 22.2982 282.333 23.7024 284.066 23.7024Z" fill="white"/>
<path d="M289.648 32.0129C291.38 32.0129 292.784 30.6087 292.784 28.8766C292.784 27.1444 291.38 25.7402 289.648 25.7402C287.915 25.7402 286.511 27.1444 286.511 28.8766C286.511 30.6087 287.915 32.0129 289.648 32.0129Z" fill="white"/>
<path d="M265.605 29.8157C267.337 29.8157 268.741 28.4115 268.741 26.6793C268.741 24.9472 267.337 23.543 265.605 23.543C263.872 23.543 262.468 24.9472 262.468 26.6793C262.468 28.4115 263.872 29.8157 265.605 29.8157Z" fill="white"/>
<path d="M266.87 8.79398C267.028 8.67469 267.169 8.53383 267.289 8.37521L271.278 10.4697V4.58913L267.294 5.85369C267.178 5.69824 267.04 5.55928 266.886 5.44063L268.49 0.390625H262.721L264.324 5.44063C264.17 5.55865 264.033 5.69761 263.916 5.85369L259.932 4.58913V10.4697L263.922 8.37521C264.041 8.53383 264.182 8.67469 264.341 8.79398L262.068 15.6472C261.268 18.0596 263.064 20.5475 265.605 20.5475C268.146 20.5475 269.943 18.0596 269.143 15.6472L266.87 8.79398Z" fill="white"/>
<path d="M270.164 32.9255C270.164 32.9255 267.251 36.1672 266.616 38.145C268.522 38.0847 270.235 37.7135 272.12 35.7453L271.482 43.0681C269.746 40.6335 267.711 39.584 266.583 39.794C266.697 42.4183 266.972 45.5883 271.567 46.0058C274.773 46.2844 277.347 44.7095 277.615 42.761C277.933 40.5224 275.916 39.0415 274.395 41.398C273.206 37.4984 276.491 36.2021 278.601 38.6164C276.976 34.7681 277.019 32.0341 280.632 29.2695C283.224 32.7155 282.857 35.5638 279.644 38.7706C281.736 37.6132 284.984 38.8309 283.071 42.74C282.071 40.3086 279.925 40.8517 279.476 42.9437C279.175 44.4215 280.072 46.16 282.021 46.5166C283.621 46.8097 286.084 45.7171 288.058 41.464C286.948 41.4926 285.974 42.0535 284.713 42.9209L286.784 36.0168C287.306 37.9546 287.973 39.2268 288.68 39.9146C289.155 38.5199 289.087 37.5085 288.663 35.3354L292.944 36.8595C290.669 39.9615 288.466 44.3149 286.66 51.9175C280.291 51.0082 273.161 50.4975 265.606 50.4975C258.052 50.4975 250.921 51.0089 244.552 51.9175C242.746 44.3142 240.543 39.9609 238.269 36.8595L242.55 35.3354C242.124 37.5085 242.057 38.5199 242.532 39.9146C243.239 39.2268 243.906 37.9546 244.428 36.0168L246.499 42.9209C245.239 42.0529 244.264 41.4926 243.154 41.464C245.128 45.7171 247.591 46.8091 249.191 46.5166C251.14 46.16 252.036 44.4215 251.736 42.9437C251.287 40.8517 249.141 40.3086 248.141 42.74C246.228 38.8309 249.476 37.6126 251.568 38.7706C248.355 35.5638 247.987 32.7149 250.58 29.2695C254.193 32.0334 254.236 34.7675 252.611 38.6164C254.721 36.2027 258.006 37.4984 256.817 41.398C255.296 39.0415 253.279 40.5224 253.597 42.761C253.865 44.7102 256.439 46.285 259.645 46.0058C264.24 45.5883 264.515 42.4183 264.629 39.794C263.501 39.584 261.466 40.6328 259.731 43.0681L259.092 35.7453C260.977 37.7135 262.69 38.084 264.597 38.145C263.961 36.1672 261.048 32.9255 261.048 32.9255H270.167H270.164Z" fill="white"/>
</svg>
