<svg width="480" height="320" viewBox="0 0 480 320" fill="none" xmlns="http://www.w3.org/2000/svg">
<g clip-path="url(#clip0_1021_54)">
<rect width="480" height="320" fill="white"/>
<path d="M480 0H0V320H480V0Z" fill="#1D70B8"/>
<path d="M196.471 152.063L409.561 152.063" stroke="#D7DEE5" stroke-dasharray="1 1"/>
<path d="M196.471 160.871H409.561" stroke="#D7DEE5" stroke-dasharray="1 1"/>
<path d="M196.471 169.679H409.561" stroke="#D7DEE5" stroke-dasharray="1 1"/>
<path d="M47.5363 161.012C47.5363 163.225 47.813 165.354 48.3663 167.398C48.9188 169.442 49.7604 171.246 50.8917 172.809C52.0223 174.373 53.4647 175.63 55.2208 176.58C56.9771 177.53 59.0697 178.006 61.4991 178.006C63.9284 178.006 65.7745 177.633 67.3263 176.887C68.8771 176.142 70.116 175.21 71.0421 174.091C71.9673 172.972 72.6167 171.764 72.9903 170.466C73.3631 169.167 73.549 167.964 73.549 166.857V166.352H60.3086V158.379H83.7228V186.736H74.5596V180.675C73.9102 181.685 73.104 182.605 72.1427 183.435C71.1805 184.265 70.0984 184.975 68.8948 185.563C67.6919 186.153 66.3746 186.617 64.9445 186.953C63.5135 187.29 61.9917 187.458 60.381 187.458C56.6043 187.458 53.2498 186.772 50.3155 185.401C47.3812 184.03 44.9095 182.143 42.9014 179.737C40.8932 177.332 39.3662 174.518 38.3193 171.295C37.2734 168.072 36.75 164.597 36.75 160.868C36.75 157.139 37.3333 153.695 38.5 150.46C39.6666 147.226 41.3259 144.411 43.4794 142.018C45.6321 139.624 48.2289 137.737 51.2715 136.354C54.3141 134.97 57.7234 134.278 61.5001 134.278C63.9532 134.278 66.2803 134.561 68.4805 135.126C70.6816 135.692 72.6898 136.497 74.5059 137.543C76.3212 138.589 77.9266 139.853 79.3223 141.331C80.7164 142.81 81.8477 144.452 82.7139 146.256L73.5498 151.415C72.9964 150.309 72.3471 149.28 71.6017 148.33C70.8553 147.381 69.9961 146.562 69.0225 145.876C68.0479 145.191 66.9358 144.65 65.6855 144.253C64.4342 143.857 63.0395 143.658 61.5009 143.658C59.0715 143.658 56.9787 144.134 55.2226 145.083C53.4665 146.033 52.024 147.29 50.8935 148.854C49.763 150.417 48.9215 152.227 48.3681 154.284C47.8147 156.34 47.538 158.464 47.538 160.651V161.012H47.5363Z" fill="white"/>
<path d="M117.044 134.278C120.892 134.278 124.344 134.97 127.399 136.354C130.454 137.737 133.045 139.624 135.174 142.018C137.302 144.411 138.926 147.226 140.044 150.46C141.162 153.695 141.721 157.165 141.721 160.868C141.721 164.57 141.162 168.072 140.044 171.295C138.926 174.518 137.302 177.332 135.174 179.737C133.046 182.142 130.454 184.03 127.399 185.401C124.345 186.772 120.892 187.458 117.044 187.458C113.196 187.458 109.714 186.772 106.672 185.401C103.629 184.03 101.044 182.143 98.9161 179.737C96.7872 177.332 95.1641 174.518 94.0459 171.295C92.9277 168.072 92.3682 164.597 92.3682 160.868C92.3682 157.139 92.9277 153.695 94.0459 150.46C95.1641 147.226 96.7872 144.411 98.9161 142.018C101.044 139.624 103.629 137.737 106.672 136.354C109.715 134.97 113.172 134.278 117.044 134.278ZM117.044 178.005C119.305 178.005 121.296 177.578 123.015 176.724C124.734 175.871 126.184 174.686 127.362 173.171C128.541 171.655 129.431 169.864 130.032 167.795C130.633 165.727 130.934 163.466 130.934 161.012V160.723C130.934 158.294 130.633 156.039 130.032 153.959C129.431 151.878 128.541 150.08 127.362 148.565C126.184 147.05 124.734 145.866 123.015 145.011C121.296 144.158 119.305 143.731 117.044 143.731C114.783 143.731 112.787 144.158 111.055 145.011C109.323 145.866 107.875 147.05 106.708 148.565C105.541 150.08 104.658 151.879 104.057 153.959C103.456 156.039 103.154 158.294 103.154 160.723V161.012C103.154 163.466 103.456 165.727 104.057 167.795C104.658 169.864 105.541 171.654 106.708 173.171C107.875 174.686 109.323 175.871 111.055 176.724C112.787 177.578 114.783 178.005 117.044 178.005Z" fill="white"/>
<path d="M160.166 186.734L145.555 134.999H157.28L167.274 173.89H167.635L177.412 134.999H188.993L174.381 186.734H160.166Z" fill="white"/>
<path d="M248.25 178.005C249.764 178.005 251.177 177.783 252.488 177.338C253.799 176.893 254.929 176.22 255.879 175.318C256.828 174.415 257.581 173.274 258.133 171.89C258.686 170.507 258.963 168.878 258.963 167.002V134.928H269.246V168.553C269.246 171.44 268.723 174.05 267.677 176.382C266.633 178.715 265.179 180.7 263.317 182.335C261.453 183.972 259.236 185.233 256.666 186.123C254.094 187.012 251.283 187.458 248.232 187.458C245.181 187.458 242.368 187.012 239.797 186.123C237.225 185.233 235.003 183.971 233.127 182.335C231.252 180.7 229.794 178.716 228.747 176.382C227.702 174.05 227.18 171.439 227.18 168.553V134.928H237.534V167.002C237.534 168.878 237.811 170.507 238.363 171.89C238.917 173.274 239.669 174.415 240.618 175.318C241.569 176.22 242.699 176.893 244.01 177.338C245.321 177.783 246.734 178.005 248.25 178.005Z" fill="white"/>
<path d="M278.525 134.999H288.988V157.403L307.461 134.999H320.34L302.374 155.563L321.495 186.734H309.337L295.663 163.536L288.988 171.004V186.734H278.525V134.999Z" fill="white"/>
<path d="M205.413 169.468C210.236 169.468 214.147 165.558 214.147 160.734C214.147 155.91 210.236 152 205.413 152C200.589 152 196.678 155.91 196.678 160.734C196.678 165.558 200.589 169.468 205.413 169.468Z" fill="#00FFE0"/>
<path d="M207.054 160.398C204.802 161.328 202.248 160.264 201.332 158.042C200.412 155.824 201.466 153.241 203.718 152.32C205.926 151.414 208.49 152.498 209.405 154.721C210.321 156.933 209.262 159.492 207.054 160.398Z" fill="#0F385C"/>
<path d="M207.051 169.128C204.8 170.058 202.247 168.995 201.332 166.773C200.412 164.557 201.466 161.975 203.717 161.055C205.923 160.15 208.485 161.233 209.401 163.454C210.316 165.665 209.257 168.223 207.051 169.128Z" fill="#0F385C"/>
<path d="M391.234 149.661C393.645 149.661 395.599 147.707 395.599 145.296C395.599 142.885 393.645 140.931 391.234 140.931C388.823 140.931 386.869 142.885 386.869 145.296C386.869 147.707 388.823 149.661 391.234 149.661Z" fill="white"/>
<path d="M379.49 156.697C381.901 156.697 383.855 154.742 383.855 152.331C383.855 149.921 381.901 147.966 379.49 147.966C377.079 147.966 375.125 149.921 375.125 152.331C375.125 154.742 377.079 156.697 379.49 156.697Z" fill="white"/>
<path d="M371.719 168.264C374.131 168.264 376.086 166.309 376.086 163.899C376.086 161.488 374.131 159.533 371.719 159.533C369.309 159.533 367.354 161.488 367.354 163.899C367.354 166.309 369.309 168.264 371.719 168.264Z" fill="white"/>
<path d="M405.198 165.206C407.609 165.206 409.563 163.251 409.563 160.84C409.563 158.429 407.609 156.475 405.198 156.475C402.786 156.475 400.832 158.429 400.832 160.84C400.832 163.251 402.786 165.206 405.198 165.206Z" fill="white"/>
<path d="M419.148 149.661C421.558 149.661 423.512 147.707 423.512 145.296C423.512 142.885 421.558 140.931 419.148 140.931C416.735 140.931 414.781 142.885 414.781 145.296C414.781 147.707 416.735 149.661 419.148 149.661Z" fill="white"/>
<path d="M430.894 156.697C433.304 156.697 435.259 154.742 435.259 152.331C435.259 149.921 433.304 147.966 430.894 147.966C428.482 147.966 426.527 149.921 426.527 152.331C426.527 154.742 428.482 156.697 430.894 156.697Z" fill="white"/>
<path d="M438.662 168.264C441.073 168.264 443.027 166.309 443.027 163.899C443.027 161.488 441.073 159.533 438.662 159.533C436.25 159.533 434.296 161.488 434.296 163.899C434.296 166.309 436.25 168.264 438.662 168.264Z" fill="white"/>
<path d="M405.198 165.206C407.609 165.206 409.563 163.251 409.563 160.84C409.563 158.429 407.609 156.475 405.198 156.475C402.786 156.475 400.832 158.429 400.832 160.84C400.832 163.251 402.786 165.206 405.198 165.206Z" fill="white"/>
<path d="M406.958 135.946C407.178 135.78 407.375 135.584 407.542 135.363L413.094 138.279V130.094L407.549 131.854C407.387 131.637 407.195 131.444 406.981 131.279L409.213 124.25H401.184L403.415 131.279C403.2 131.443 403.01 131.637 402.847 131.854L397.302 130.094V138.279L402.855 135.363C403.021 135.584 403.217 135.78 403.438 135.946L400.275 145.485C399.161 148.843 401.661 152.306 405.198 152.306C408.735 152.306 411.236 148.843 410.122 145.485L406.958 135.946Z" fill="white"/>
<path d="M411.544 169.534C411.544 169.534 407.489 174.046 406.606 176.799C409.258 176.715 411.643 176.198 414.266 173.459L413.378 183.651C410.962 180.263 408.13 178.802 406.56 179.094C406.718 182.747 407.101 187.159 413.497 187.74C417.959 188.128 421.542 185.936 421.915 183.224C422.357 180.108 419.55 178.047 417.433 181.327C415.778 175.899 420.35 174.095 423.287 177.455C421.025 172.099 421.085 168.294 426.114 164.446C429.722 169.242 429.211 173.206 424.739 177.67C427.651 176.059 432.171 177.754 429.509 183.195C428.117 179.81 425.13 180.566 424.505 183.478C424.086 185.535 425.334 187.955 428.047 188.451C430.274 188.859 433.702 187.338 436.45 181.419C434.905 181.458 433.549 182.239 431.794 183.446L434.677 173.837C435.403 176.534 436.332 178.305 437.316 179.262C437.977 177.321 437.882 175.913 437.292 172.888L443.251 175.01C440.084 179.327 437.018 185.387 434.504 195.968C425.639 194.703 415.715 193.992 405.2 193.992C394.686 193.992 384.76 194.704 375.895 195.968C373.382 185.386 370.315 179.327 367.15 175.01L373.109 172.888C372.516 175.913 372.423 177.321 373.084 179.262C374.068 178.305 374.996 176.534 375.723 173.837L378.605 183.446C376.852 182.238 375.495 181.458 373.95 181.419C376.697 187.338 380.125 188.858 382.352 188.451C385.065 187.955 386.312 185.535 385.895 183.478C385.27 180.566 382.283 179.81 380.891 183.195C378.228 177.754 382.749 176.058 385.661 177.67C381.189 173.206 380.677 169.241 384.286 164.446C389.314 168.293 389.374 172.098 387.112 177.455C390.049 174.096 394.622 175.899 392.967 181.327C390.85 178.047 388.042 180.108 388.485 183.224C388.858 185.937 392.441 188.129 396.903 187.74C403.298 187.159 403.681 182.747 403.84 179.094C402.27 178.802 399.437 180.262 397.023 183.651L396.133 173.459C398.757 176.198 401.141 176.714 403.795 176.799C402.91 174.046 398.856 169.534 398.856 169.534H411.548H411.544Z" fill="white"/>
<path d="M343.272 153.97C343.478 153.97 343.644 153.955 343.773 153.925C343.902 153.891 344.002 153.84 344.073 153.77C344.143 153.7 344.19 153.611 344.213 153.502C344.239 153.391 344.253 153.255 344.253 153.096V153H345V159H344.227V154.594H343V153.97H343.272Z" fill="white"/>
<path d="M343.272 162.97C343.478 162.97 343.644 162.955 343.773 162.925C343.902 162.891 344.002 162.84 344.073 162.77C344.143 162.7 344.19 162.611 344.213 162.502C344.239 162.391 344.253 162.255 344.253 162.096V162H345V168H344.227V163.594H343V162.97H343.272Z" fill="white"/>
</g>
<defs>
<clipPath id="clip0_1021_54">
<rect width="480" height="320" fill="white"/>
</clipPath>
</defs>
</svg>
