<svg width="1920" height="1280" viewBox="0 0 1920 1280" fill="none" xmlns="http://www.w3.org/2000/svg">
<g clip-path="url(#clip0_1021_54)">
<rect width="1920" height="1280" fill="white"/>
<path d="M1920 0H0V1280H1920V0Z" fill="#1D70B8"/>
<path d="M785.885 608.251L1638.25 608.252" stroke="#D7DEE5" stroke-width="4" stroke-dasharray="4 4"/>
<path d="M785.885 643.483H1638.25" stroke="#D7DEE5" stroke-width="4" stroke-dasharray="4 4"/>
<path d="M785.885 678.714H1638.25" stroke="#D7DEE5" stroke-width="4" stroke-dasharray="4 4"/>
<path d="M190.145 644.049C190.145 652.9 191.252 661.416 193.465 669.592C195.675 677.77 199.042 684.985 203.567 691.238C208.089 697.494 213.859 702.52 220.883 706.32C227.908 710.12 236.279 712.023 245.996 712.023C255.714 712.023 263.098 710.532 269.305 707.55C275.508 704.568 280.464 700.839 284.168 696.363C287.869 691.89 290.467 687.058 291.961 681.862C293.452 676.667 294.196 671.856 294.196 667.428V665.409H241.234V633.518H334.891V746.946H298.239V722.699C295.641 726.742 292.416 730.421 288.571 733.742C284.722 737.058 280.394 739.899 275.579 742.254C270.768 744.612 265.499 746.466 259.778 747.812C254.054 749.159 247.967 749.832 241.524 749.832C226.417 749.832 212.999 747.09 201.262 741.605C189.525 736.121 179.638 728.571 171.605 718.949C163.573 709.33 157.465 698.072 153.277 685.179C149.094 672.289 147 658.387 147 643.471C147 628.555 149.333 614.78 154 601.841C158.667 588.902 165.303 577.644 173.918 568.071C182.528 558.498 192.915 550.948 205.086 545.414C217.257 539.881 230.894 537.114 246 537.114C255.813 537.114 265.121 538.245 273.922 540.505C282.727 542.767 290.759 545.989 298.024 550.173C305.285 554.357 311.706 559.411 317.289 565.325C322.866 571.24 327.391 577.81 330.855 585.025L294.199 605.659C291.986 601.235 289.389 597.121 286.407 593.318C283.421 589.522 279.985 586.248 276.09 583.506C272.192 580.764 267.743 578.599 262.742 577.014C257.737 575.427 252.158 574.631 246.004 574.631C236.286 574.631 227.915 576.534 220.89 580.333C213.866 584.133 208.096 589.159 203.574 595.416C199.052 601.668 195.686 608.908 193.472 617.135C191.259 625.361 190.152 633.856 190.152 642.604V644.049H190.145Z" fill="white"/>
<path d="M468.177 537.114C483.569 537.114 497.375 539.881 509.595 545.414C521.815 550.948 532.18 558.498 540.696 568.071C549.208 577.644 555.704 588.902 560.177 601.841C564.65 614.78 566.884 628.661 566.884 643.471C566.884 658.282 564.65 672.289 560.177 685.179C555.704 698.072 549.208 709.33 540.696 718.949C532.184 728.567 521.815 736.121 509.595 741.605C497.378 747.09 483.569 749.832 468.177 749.832C452.785 749.832 438.855 747.09 426.688 741.605C414.518 736.121 404.176 728.571 395.664 718.949C387.149 709.33 380.657 698.072 376.184 685.179C371.711 672.289 369.473 658.387 369.473 643.471C369.473 628.555 371.711 614.78 376.184 601.841C380.657 588.902 387.149 577.644 395.664 568.071C404.176 558.498 414.518 550.948 426.688 545.414C438.859 539.881 452.686 537.114 468.177 537.114ZM468.177 712.019C477.221 712.019 485.183 710.313 492.06 706.894C498.936 703.483 504.738 698.742 509.447 692.683C514.163 686.621 517.722 679.455 520.126 671.179C522.53 662.907 523.736 653.862 523.736 644.049V642.893C523.736 633.176 522.53 624.156 520.126 615.834C517.722 607.513 514.163 600.318 509.447 594.259C504.735 588.201 498.936 583.463 492.06 580.044C485.183 576.633 477.221 574.923 468.177 574.923C459.133 574.923 451.149 576.633 444.22 580.044C437.294 583.463 431.499 588.201 426.832 594.259C422.166 600.318 418.631 607.516 416.227 615.834C413.823 624.156 412.618 633.176 412.618 642.893V644.049C412.618 653.862 413.823 662.907 416.227 671.179C418.631 679.455 422.166 686.617 426.832 692.683C431.499 698.742 437.294 703.483 444.22 706.894C451.149 710.313 459.133 712.019 468.177 712.019Z" fill="white"/>
<path d="M640.664 746.937L582.219 539.996H629.121L669.098 695.561H670.539L709.649 539.996H755.971L697.524 746.937H640.664Z" fill="white"/>
<path d="M992.999 712.021C999.056 712.021 1004.71 711.133 1009.95 709.353C1015.2 707.573 1019.72 704.88 1023.51 701.27C1027.31 697.661 1030.32 693.097 1032.53 687.559C1034.74 682.029 1035.85 675.512 1035.85 668.008V539.713H1076.98V674.212C1076.98 685.758 1074.89 696.199 1070.71 705.528C1066.53 714.862 1060.72 722.799 1053.27 729.341C1045.81 735.886 1036.94 740.934 1026.67 744.493C1016.38 748.05 1005.13 749.834 992.927 749.834C980.723 749.834 969.471 748.05 959.188 744.493C948.899 740.934 940.013 735.883 932.509 729.341C925.009 722.799 919.174 714.865 914.988 705.528C910.807 696.199 908.719 685.755 908.719 674.212V539.713H950.135V668.008C950.135 675.512 951.243 682.029 953.453 687.559C955.669 693.097 958.676 697.661 962.473 701.27C966.275 704.88 970.796 707.573 976.04 709.353C981.285 711.133 986.936 712.021 992.999 712.021Z" fill="white"/>
<path d="M1114.1 539.996H1155.95V629.611L1229.84 539.996H1281.36L1209.49 622.251L1285.98 746.937H1237.35L1182.65 654.142L1155.95 684.014V746.937H1114.1V539.996Z" fill="white"/>
<path d="M821.654 678.408C840.945 678.408 856.59 662.766 856.59 643.471C856.59 624.176 840.945 608.534 821.654 608.534C802.357 608.534 786.713 624.176 786.713 643.471C786.713 662.766 802.357 678.408 821.654 678.408Z" fill="#00FFE0"/>
<path d="M1564.94 598.646C1574.58 598.646 1582.4 590.828 1582.4 581.184C1582.4 571.54 1574.58 563.723 1564.94 563.723C1555.3 563.723 1547.48 571.54 1547.48 581.184C1547.48 590.828 1555.3 598.646 1564.94 598.646Z" fill="white"/>
<path d="M1517.96 626.787C1527.6 626.787 1535.42 618.969 1535.42 609.325C1535.42 599.682 1527.6 591.864 1517.96 591.864C1508.32 591.864 1500.5 599.682 1500.5 609.325C1500.5 618.969 1508.32 626.787 1517.96 626.787Z" fill="white"/>
<path d="M1486.88 673.056C1496.53 673.056 1504.34 665.238 1504.34 655.595C1504.34 645.951 1496.53 638.133 1486.88 638.133C1477.23 638.133 1469.42 645.951 1469.42 655.595C1469.42 665.238 1477.23 673.056 1486.88 673.056Z" fill="white"/>
<path d="M1620.79 660.822C1630.43 660.822 1638.25 653.005 1638.25 643.361C1638.25 633.717 1630.43 625.899 1620.79 625.899C1611.14 625.899 1603.33 633.717 1603.33 643.361C1603.33 653.005 1611.14 660.822 1620.79 660.822Z" fill="white"/>
<path d="M1676.59 598.646C1686.23 598.646 1694.05 590.828 1694.05 581.184C1694.05 571.54 1686.23 563.723 1676.59 563.723C1666.94 563.723 1659.12 571.54 1659.12 581.184C1659.12 590.828 1666.94 598.646 1676.59 598.646Z" fill="white"/>
<path d="M1723.57 626.787C1733.22 626.787 1741.03 618.969 1741.03 609.325C1741.03 599.682 1733.22 591.864 1723.57 591.864C1713.92 591.864 1706.11 599.682 1706.11 609.325C1706.11 618.969 1713.92 626.787 1723.57 626.787Z" fill="white"/>
<path d="M1754.65 673.056C1764.29 673.056 1772.11 665.238 1772.11 655.595C1772.11 645.951 1764.29 638.133 1754.65 638.133C1745 638.133 1737.18 645.951 1737.18 655.595C1737.18 665.238 1745 673.056 1754.65 673.056Z" fill="white"/>
<path d="M1620.79 660.822C1630.43 660.822 1638.25 653.005 1638.25 643.361C1638.25 633.717 1630.43 625.899 1620.79 625.899C1611.14 625.899 1603.33 633.717 1603.33 643.361C1603.33 653.005 1611.14 660.822 1620.79 660.822Z" fill="white"/>
<path d="M1627.83 543.785C1628.71 543.121 1629.5 542.337 1630.17 541.454L1652.38 553.115V520.375L1630.19 527.415C1629.55 526.55 1628.78 525.776 1627.92 525.116L1636.85 497H1604.73L1613.66 525.116C1612.8 525.773 1612.04 526.546 1611.39 527.415L1589.21 520.375V553.115L1611.42 541.454C1612.08 542.337 1612.87 543.121 1613.75 543.785L1601.1 581.94C1596.65 595.371 1606.64 609.223 1620.79 609.223C1634.94 609.223 1644.94 595.371 1640.49 581.94L1627.83 543.785Z" fill="white"/>
<path d="M1646.17 678.137C1646.17 678.137 1629.96 696.185 1626.42 707.196C1637.03 706.86 1646.57 704.794 1657.06 693.836L1653.51 734.605C1643.85 721.051 1632.52 715.208 1626.24 716.377C1626.87 730.988 1628.4 748.636 1653.98 750.961C1671.83 752.512 1686.16 743.744 1687.66 732.896C1689.43 720.432 1678.2 712.187 1669.73 725.307C1663.11 703.596 1681.4 696.379 1693.15 709.821C1684.1 688.395 1684.34 673.174 1704.45 657.782C1718.88 676.968 1716.84 692.825 1698.95 710.679C1710.6 704.235 1728.68 711.015 1718.03 732.779C1712.47 719.242 1700.52 722.266 1698.02 733.913C1696.34 742.14 1701.34 751.819 1712.19 753.805C1721.09 755.437 1734.81 749.354 1745.8 725.675C1739.62 725.834 1734.2 728.957 1727.17 733.786L1738.7 695.348C1741.61 706.136 1745.32 713.219 1749.26 717.048C1751.91 709.283 1751.53 703.652 1749.17 691.554L1773 700.039C1760.33 717.309 1748.07 741.547 1738.01 783.874C1702.56 778.811 1662.86 775.968 1620.8 775.968C1578.74 775.968 1539.04 778.815 1503.58 783.874C1493.53 741.543 1481.26 717.306 1468.6 700.039L1492.43 691.554C1490.06 703.652 1489.69 709.283 1492.33 717.048C1496.27 713.219 1499.98 706.136 1502.89 695.348L1514.42 733.786C1507.4 728.953 1501.98 725.834 1495.8 725.675C1506.79 749.354 1520.5 755.433 1529.41 753.805C1540.26 751.819 1545.25 742.14 1543.58 733.913C1541.08 722.266 1529.13 719.242 1523.56 732.779C1512.91 711.015 1530.99 704.232 1542.64 710.679C1524.75 692.825 1522.7 676.964 1537.14 657.782C1557.26 673.17 1557.5 688.392 1548.45 709.821C1560.2 696.383 1578.48 703.596 1571.86 725.307C1563.4 712.187 1552.17 720.432 1553.94 732.896C1555.43 743.748 1569.76 752.515 1587.61 750.961C1613.19 748.636 1614.72 730.988 1615.36 716.377C1609.08 715.208 1597.75 721.047 1588.09 734.605L1584.53 693.836C1595.03 704.794 1604.56 706.857 1615.18 707.196C1611.64 696.185 1595.42 678.137 1595.42 678.137H1646.19H1646.17Z" fill="white"/>
</g>
<defs>
<clipPath id="clip0_1021_54">
<rect width="1920" height="1280" fill="white"/>
</clipPath>
</defs>
</svg>
