<svg width="480" height="320" viewBox="0 0 480 320" fill="none" xmlns="http://www.w3.org/2000/svg">
<g clip-path="url(#clip0_1539_2021)">
<path d="M480 0H0V320H480V0Z" fill="#1D70B8"/>
<path d="M274.547 171.47C280.88 171.47 286.014 166.334 286.014 159.999C286.014 153.663 280.88 148.527 274.547 148.527C268.215 148.527 263.081 153.663 263.081 159.999C263.081 166.334 268.215 171.47 274.547 171.47Z" fill="#00FFE0"/>
<path d="M67.2782 160.19C67.2782 163.096 67.6413 165.892 68.3677 168.577C69.0933 171.262 70.1983 173.631 71.6834 175.684C73.1678 177.739 75.0613 179.389 77.3667 180.637C79.6721 181.885 82.4198 182.509 85.6091 182.509C88.7984 182.509 91.2225 182.02 93.2594 181.041C95.2957 180.062 96.9221 178.837 98.138 177.367C99.3526 175.898 100.205 174.312 100.696 172.606C101.185 170.9 101.429 169.32 101.429 167.867V167.204H84.0463V156.732H114.786V193.976H102.756V186.015C101.903 187.342 100.845 188.551 99.5829 189.641C98.3196 190.73 96.8988 191.662 95.319 192.435C93.7399 193.21 92.0103 193.819 90.1323 194.26C88.2537 194.703 86.2563 194.923 84.1417 194.923C79.1832 194.923 74.7787 194.024 70.9267 192.223C67.0747 190.422 63.8296 187.943 61.1928 184.783C58.5568 181.625 56.5516 177.928 55.1774 173.695C53.8046 169.463 53.1172 164.898 53.1172 160.001C53.1172 155.103 53.8831 150.58 55.4148 146.332C56.9466 142.083 59.1248 138.387 61.9516 135.243C64.7785 132.1 68.1875 129.621 72.1822 127.804C76.1762 125.987 80.6521 125.079 85.6105 125.079C88.8309 125.079 91.8866 125.45 94.7749 126.192C97.6647 126.935 100.301 127.993 102.685 129.366C105.068 130.74 107.176 132.4 109.009 134.342C110.839 136.284 112.324 138.441 113.461 140.81L101.43 147.585C100.703 146.132 99.8514 144.782 98.8728 143.533C97.8929 142.287 96.7645 141.212 95.4864 140.311C94.2069 139.411 92.7472 138.7 91.1052 138.179C89.4625 137.659 87.6312 137.397 85.612 137.397C82.422 137.397 79.675 138.022 77.3689 139.27C75.0634 140.517 73.1699 142.167 71.6855 144.222C70.2011 146.275 69.0968 148.652 68.3705 151.353C67.6435 154.054 67.2803 156.843 67.2803 159.716V160.19H67.2782Z" fill="white"/>
<path d="M158.532 125.077C163.583 125.077 168.115 125.985 172.126 127.802C176.136 129.619 179.539 132.098 182.334 135.241C185.128 138.385 187.259 142.081 188.727 146.33C190.195 150.578 190.929 155.136 190.929 159.999C190.929 164.862 190.195 169.461 188.727 173.693C187.259 177.927 185.128 181.623 182.334 184.781C179.54 187.939 176.136 190.42 172.126 192.221C168.116 194.022 163.583 194.922 158.532 194.922C153.48 194.922 148.908 194.022 144.915 192.221C140.92 190.42 137.526 187.941 134.732 184.781C131.937 181.623 129.806 177.927 128.338 173.693C126.87 169.461 126.136 164.896 126.136 159.999C126.136 155.101 126.87 150.578 128.338 146.33C129.806 142.081 131.937 138.385 134.732 135.241C137.526 132.098 140.92 129.619 144.915 127.802C148.909 125.985 153.447 125.077 158.532 125.077ZM158.532 182.507C161.5 182.507 164.113 181.947 166.371 180.825C168.627 179.704 170.531 178.148 172.077 176.158C173.625 174.168 174.793 171.815 175.582 169.097C176.371 166.381 176.767 163.412 176.767 160.19V159.81C176.767 156.619 176.371 153.658 175.582 150.925C174.793 148.193 173.625 145.831 172.077 143.841C170.531 141.852 168.627 140.297 166.371 139.174C164.113 138.054 161.5 137.492 158.532 137.492C155.563 137.492 152.943 138.054 150.669 139.174C148.396 140.297 146.494 141.852 144.962 143.841C143.43 145.831 142.27 148.194 141.481 150.925C140.692 153.658 140.296 156.619 140.296 159.81V160.19C140.296 163.412 140.692 166.381 141.481 169.097C142.27 171.815 143.43 174.166 144.962 176.158C146.494 178.148 148.396 179.704 150.669 180.825C152.943 181.947 155.563 182.507 158.532 182.507Z" fill="white"/>
<path d="M215.145 193.974L195.962 126.025H211.356L224.477 177.105H224.95L237.786 126.025H252.99L233.807 193.974H215.146H215.145Z" fill="white"/>
<path d="M330.786 182.508C332.775 182.508 334.63 182.216 336.351 181.632C338.072 181.047 339.556 180.163 340.803 178.978C342.049 177.793 343.037 176.294 343.764 174.476C344.489 172.66 344.852 170.52 344.852 168.056V125.93H358.351V170.092C358.351 173.884 357.665 177.311 356.293 180.375C354.921 183.439 353.013 186.045 350.567 188.193C348.122 190.343 345.211 192 341.836 193.169C338.461 194.337 334.77 194.922 330.764 194.922C326.757 194.922 323.064 194.337 319.69 193.169C316.313 192 313.396 190.342 310.934 188.193C308.472 186.045 306.556 183.441 305.183 180.375C303.812 177.311 303.125 173.882 303.125 170.092V125.93H316.719V168.055C316.719 170.519 317.082 172.659 317.808 174.475C318.534 176.293 319.521 177.792 320.768 178.977C322.015 180.162 323.5 181.046 325.221 181.631C326.942 182.215 328.798 182.506 330.786 182.506V182.508Z" fill="white"/>
<path d="M370.535 126.025H384.271V155.45L408.521 126.025H425.431L401.843 153.034L426.946 193.974H410.986L393.034 163.505L384.271 173.313V193.974H370.535V126.025Z" fill="white"/>
</g>
<defs>
<clipPath id="clip0_1539_2021">
<rect width="480" height="320" fill="white"/>
</clipPath>
</defs>
</svg>
