<svg width="1920" height="1280" viewBox="0 0 1920 1280" fill="none" xmlns="http://www.w3.org/2000/svg">
<g clip-path="url(#clip0_1041_2969)">
<rect width="1920" height="1280" fill="white"/>
<path d="M1920 0H0V1280H1920V0Z" fill="#1D70B8"/>
<path d="M407.201 646.623C407.201 655.921 408.364 664.868 410.689 673.458C413.011 682.049 416.547 689.629 421.302 696.198C426.053 702.771 432.115 708.052 439.495 712.044C446.875 716.035 455.669 718.035 465.878 718.035C476.087 718.035 483.845 716.468 490.366 713.336C496.883 710.203 502.09 706.285 505.982 701.582C509.87 696.883 512.599 691.807 514.169 686.349C515.735 680.89 516.517 675.836 516.517 671.185V669.063H460.876V635.558H559.271V754.724H520.764V729.251C518.035 733.498 514.646 737.364 510.606 740.852C506.563 744.337 502.016 747.322 496.958 749.795C491.903 752.272 486.367 754.22 480.357 755.635C474.343 757.049 467.949 757.756 461.18 757.756C445.309 757.756 431.211 754.876 418.88 749.114C406.549 743.352 396.163 735.42 387.723 725.311C379.284 715.206 372.867 703.378 368.468 689.833C364.073 676.291 361.873 661.687 361.873 646.015C361.873 630.345 364.324 615.873 369.227 602.28C374.13 588.686 381.103 576.859 390.153 566.802C399.199 556.744 410.112 548.812 422.898 542.999C435.684 537.185 450.011 534.278 465.882 534.278C476.191 534.278 485.971 535.467 495.217 537.841C504.467 540.218 512.906 543.602 520.538 547.998C528.166 552.393 534.913 557.703 540.778 563.917C546.637 570.131 551.391 577.033 555.031 584.613L516.52 606.29C514.195 601.643 511.466 597.321 508.333 593.326C505.197 589.338 501.586 585.898 497.495 583.017C493.399 580.136 488.726 577.862 483.471 576.196C478.213 574.53 472.351 573.693 465.886 573.693C455.677 573.693 446.882 575.693 439.502 579.684C432.122 583.676 426.06 588.957 421.309 595.529C416.559 602.099 413.022 609.704 410.697 618.347C408.371 626.99 407.208 635.914 407.208 645.105V646.623H407.201Z" fill="white"/>
<path d="M699.3 534.278C715.47 534.278 729.975 537.185 742.813 542.999C755.652 548.812 766.541 556.744 775.486 566.802C784.432 576.859 791.256 588.686 795.956 602.28C800.652 615.873 803 630.456 803 646.015C803 661.575 800.652 676.291 795.956 689.833C791.256 703.378 784.432 715.206 775.486 725.311C766.545 735.416 755.652 743.352 742.813 749.114C729.979 754.876 715.47 757.756 699.3 757.756C683.129 757.756 668.494 754.876 655.712 749.114C642.925 743.352 632.061 735.42 623.118 725.311C614.172 715.206 607.351 703.378 602.652 689.833C597.953 676.291 595.602 661.687 595.602 646.015C595.602 630.345 597.953 615.873 602.652 602.28C607.351 588.686 614.172 576.859 623.118 566.802C632.061 556.744 642.925 548.812 655.712 542.999C668.498 537.185 683.025 534.278 699.3 534.278ZM699.3 718.031C708.801 718.031 717.166 716.239 724.391 712.647C731.615 709.062 737.71 704.082 742.658 697.716C747.611 691.347 751.353 683.819 753.878 675.125C756.403 666.434 757.669 656.932 757.669 646.623V645.408C757.669 635.199 756.403 625.723 753.878 616.981C751.353 608.238 747.611 600.68 742.658 594.315C737.706 587.949 731.615 582.972 724.391 579.381C717.166 575.796 708.801 574 699.3 574C689.798 574 681.41 575.796 674.13 579.381C666.854 582.972 660.766 587.949 655.864 594.315C650.961 600.68 647.247 608.242 644.721 616.981C642.196 625.723 640.93 635.199 640.93 645.408V646.623C640.93 656.932 642.196 666.434 644.721 675.125C647.247 683.819 650.961 691.344 655.864 697.716C660.766 704.082 666.854 709.062 674.13 712.647C681.41 716.239 689.798 718.031 699.3 718.031Z" fill="white"/>
<path d="M880.514 754.717L819.113 537.308H868.389L910.387 700.742H911.903L952.988 537.308H1001.66L940.252 754.717H880.514Z" fill="white"/>
<path d="M1250.67 718.03C1257.04 718.03 1262.98 717.097 1268.49 715.227C1273.99 713.357 1278.75 710.528 1282.74 706.736C1286.73 702.945 1289.89 698.149 1292.21 692.332C1294.54 686.522 1295.7 679.675 1295.7 671.792V537.007H1338.91V678.308C1338.91 690.44 1336.71 701.408 1332.32 711.21C1327.93 721.015 1321.82 729.354 1313.99 736.227C1306.16 743.103 1296.85 748.406 1286.04 752.146C1275.24 755.882 1263.42 757.756 1250.6 757.756C1237.78 757.756 1225.96 755.882 1215.16 752.146C1204.34 748.406 1195.01 743.099 1187.13 736.227C1179.25 729.354 1173.12 721.019 1168.72 711.21C1164.33 701.408 1162.13 690.436 1162.13 678.308V537.007H1205.64V671.792C1205.64 679.675 1206.81 686.522 1209.13 692.332C1211.45 698.149 1214.61 702.945 1218.6 706.736C1222.6 710.528 1227.35 713.357 1232.86 715.227C1238.37 717.097 1244.31 718.03 1250.67 718.03Z" fill="white"/>
<path d="M1377.91 537.308H1421.88V631.456L1499.5 537.308H1553.63L1478.13 623.724L1558.48 754.717H1507.39L1449.93 657.229L1421.88 688.611V754.717H1377.91V537.308Z" fill="white"/>
<path d="M1070.66 682.72C1090.93 682.72 1107.37 666.287 1107.37 646.016C1107.37 625.745 1090.93 609.312 1070.66 609.312C1050.39 609.312 1033.96 625.745 1033.96 646.016C1033.96 666.287 1050.39 682.72 1070.66 682.72Z" fill="#00FFE0"/>
<path d="M360.105 845.989C359.129 846.965 359.129 848.548 360.105 849.525L376.015 865.435C376.991 866.411 378.574 866.411 379.551 865.435C380.527 864.458 380.527 862.875 379.551 861.899L365.409 847.757L379.551 833.615C380.527 832.638 380.527 831.055 379.551 830.079C378.574 829.103 376.991 829.103 376.015 830.079L360.105 845.989ZM1562.49 849.525C1563.46 848.548 1563.46 846.965 1562.49 845.989L1546.58 830.079C1545.6 829.103 1544.02 829.103 1543.04 830.079C1542.06 831.055 1542.06 832.638 1543.04 833.615L1557.18 847.757L1543.04 861.899C1542.06 862.875 1542.06 864.458 1543.04 865.435C1544.02 866.411 1545.6 866.411 1546.58 865.435L1562.49 849.525ZM361.873 847.757V850.257H1560.72V847.757V845.257H361.873V847.757Z" fill="white"/>
</g>
<defs>
<clipPath id="clip0_1041_2969">
<rect width="1920" height="1280" fill="white"/>
</clipPath>
</defs>
</svg>
