<svg width="480" height="320" viewBox="0 0 480 320" fill="none" xmlns="http://www.w3.org/2000/svg">
<g clip-path="url(#clip0_1041_2969)">
<rect width="480" height="320" fill="white"/>
<path d="M480 0H0V320H480V0Z" fill="#1D70B8"/>
<path d="M101.801 161.656C101.801 163.981 102.091 166.217 102.673 168.365C103.253 170.513 104.137 172.408 105.326 174.05C106.514 175.693 108.029 177.013 109.874 178.011C111.719 179.009 113.918 179.509 116.47 179.509C119.022 179.509 120.962 179.117 122.592 178.334C124.221 177.551 125.523 176.572 126.496 175.396C127.468 174.221 128.15 172.952 128.543 171.587C128.934 170.223 129.13 168.959 129.13 167.796V167.266H115.219V158.89H139.818V188.681H130.191V182.313C129.509 183.375 128.662 184.341 127.652 185.213C126.641 186.084 125.504 186.831 124.24 187.449C122.976 188.068 121.592 188.555 120.09 188.909C118.586 189.263 116.988 189.439 115.295 189.439C111.328 189.439 107.803 188.719 104.721 187.279C101.638 185.838 99.0411 183.855 96.9314 181.328C94.8216 178.802 93.2173 175.845 92.1175 172.458C91.0186 169.073 90.4688 165.422 90.4688 161.504C90.4688 157.586 91.0816 153.969 92.3073 150.57C93.533 147.172 95.2761 144.215 97.5387 141.701C99.8003 139.186 102.528 137.203 105.725 135.75C108.922 134.297 112.503 133.57 116.471 133.57C119.048 133.57 121.493 133.867 123.805 134.46C126.117 135.055 128.227 135.901 130.135 137C132.042 138.099 133.729 139.426 135.195 140.98C136.66 142.533 137.848 144.258 138.758 146.153L129.131 151.573C128.549 150.411 127.867 149.331 127.084 148.332C126.3 147.335 125.397 146.475 124.374 145.755C123.35 145.034 122.182 144.466 120.868 144.049C119.554 143.633 118.088 143.423 116.472 143.423C113.92 143.423 111.721 143.923 109.876 144.921C108.031 145.919 106.516 147.239 105.328 148.883C104.14 150.525 103.256 152.426 102.675 154.587C102.093 156.748 101.803 158.979 101.803 161.276V161.656H101.801Z" fill="white"/>
<path d="M174.825 133.57C178.868 133.57 182.494 134.297 185.703 135.75C188.913 137.203 191.635 139.186 193.872 141.701C196.108 144.215 197.814 147.172 198.989 150.57C200.163 153.969 200.75 157.614 200.75 161.504C200.75 165.394 200.163 169.073 198.989 172.458C197.814 175.845 196.108 178.802 193.872 181.328C191.636 183.854 188.913 185.838 185.703 187.279C182.495 188.719 178.868 189.439 174.825 189.439C170.782 189.439 167.124 188.719 163.928 187.279C160.731 185.838 158.015 183.855 155.78 181.328C153.543 178.802 151.838 175.845 150.663 172.458C149.488 169.073 148.9 165.422 148.9 161.504C148.9 157.586 149.488 153.969 150.663 150.57C151.838 147.172 153.543 144.215 155.78 141.701C158.015 139.186 160.731 137.203 163.928 135.75C167.124 134.297 170.756 133.57 174.825 133.57ZM174.825 179.508C177.2 179.508 179.292 179.06 181.098 178.162C182.904 177.266 184.428 176.021 185.664 174.429C186.903 172.837 187.838 170.955 188.469 168.781C189.101 166.609 189.417 164.233 189.417 161.656V161.352C189.417 158.8 189.101 156.431 188.469 154.245C187.838 152.06 186.903 150.17 185.664 148.579C184.427 146.988 182.904 145.743 181.098 144.845C179.292 143.949 177.2 143.5 174.825 143.5C172.449 143.5 170.353 143.949 168.533 144.845C166.713 145.743 165.192 146.988 163.966 148.579C162.74 150.17 161.812 152.061 161.18 154.245C160.549 156.431 160.232 158.8 160.232 161.352V161.656C160.232 164.233 160.549 166.609 161.18 168.781C161.812 170.955 162.74 172.836 163.966 174.429C165.192 176.021 166.713 177.266 168.533 178.162C170.353 179.06 172.449 179.508 174.825 179.508Z" fill="white"/>
<path d="M220.128 188.679L204.778 134.327H217.097L227.597 175.186H227.976L238.247 134.327H250.414L235.063 188.679H220.128Z" fill="white"/>
<path d="M312.668 179.508C314.26 179.508 315.745 179.275 317.122 178.807C318.499 178.34 319.687 177.632 320.685 176.684C321.682 175.736 322.472 174.538 323.054 173.083C323.634 171.631 323.925 169.919 323.925 167.948V134.252H334.727V169.577C334.727 172.61 334.178 175.352 333.08 177.803C331.982 180.254 330.455 182.339 328.498 184.057C326.541 185.776 324.212 187.102 321.512 188.037C318.811 188.971 315.856 189.439 312.65 189.439C309.445 189.439 306.49 188.971 303.789 188.037C301.086 187.102 298.752 185.775 296.782 184.057C294.812 182.339 293.28 180.255 292.181 177.803C291.083 175.352 290.533 172.609 290.533 169.577V134.252H301.412V167.948C301.412 169.919 301.702 171.631 302.283 173.083C302.864 174.538 303.654 175.736 304.652 176.684C305.65 177.632 306.838 178.34 308.215 178.807C309.593 179.275 311.078 179.508 312.668 179.508Z" fill="white"/>
<path d="M344.477 134.327H355.469V157.864L374.876 134.327H388.407L369.531 155.931L389.62 188.679H376.847L362.482 164.307L355.469 172.153V188.679H344.477V134.327Z" fill="white"/>
<path d="M267.665 170.68C272.733 170.68 276.842 166.572 276.842 161.504C276.842 156.437 272.733 152.328 267.665 152.328C262.598 152.328 258.489 156.437 258.489 161.504C258.489 166.572 262.598 170.68 267.665 170.68Z" fill="#00FFE0"/>
<path d="M89.7616 211.232C89.3711 211.623 89.3711 212.256 89.7616 212.646L96.1256 219.01C96.5161 219.401 97.1493 219.401 97.5398 219.01C97.9303 218.62 97.9303 217.987 97.5398 217.596L91.883 211.939L97.5398 206.282C97.9303 205.892 97.9303 205.259 97.5398 204.868C97.1493 204.478 96.5161 204.478 96.1256 204.868L89.7616 211.232ZM390.887 212.646C391.278 212.256 391.278 211.623 390.887 211.232L384.523 204.868C384.133 204.478 383.5 204.478 383.109 204.868C382.719 205.259 382.719 205.892 383.109 206.282L388.766 211.939L383.109 217.596C382.719 217.987 382.719 218.62 383.109 219.01C383.5 219.401 384.133 219.401 384.523 219.01L390.887 212.646ZM90.4688 211.939V212.939H390.18V211.939V210.939H90.4688V211.939Z" fill="white"/>
</g>
<defs>
<clipPath id="clip0_1041_2969">
<rect width="480" height="320" fill="white"/>
</clipPath>
</defs>
</svg>
