<svg width="480" height="320" viewBox="0 0 480 320" fill="none" xmlns="http://www.w3.org/2000/svg">
<g clip-path="url(#clip0_972_45)">
<rect width="480" height="320" fill="white"/>
<path d="M480 0H0V320H480V0Z" fill="#1D70B8"/>
<path d="M267.644 169.114C272.71 169.114 276.817 165.006 276.817 159.937C276.817 154.869 272.71 150.76 267.644 150.76C262.578 150.76 258.471 154.869 258.471 159.937C258.471 165.006 262.578 169.114 267.644 169.114Z" fill="#00FFE0"/>
<path d="M101.829 160.091C101.829 162.416 102.119 164.653 102.7 166.801C103.281 168.949 104.165 170.844 105.353 172.486C106.541 174.13 108.055 175.45 109.9 176.448C111.744 177.446 113.942 177.946 116.494 177.946C119.045 177.946 120.984 177.554 122.614 176.771C124.243 175.988 125.544 175.008 126.517 173.833C127.488 172.658 128.171 171.388 128.563 170.024C128.954 168.659 129.149 167.395 129.149 166.232V165.702H115.243V157.325H139.835V187.119H130.211V180.75C129.529 181.812 128.682 182.779 127.673 183.651C126.662 184.523 125.525 185.268 124.261 185.887C122.998 186.507 121.614 186.994 120.112 187.347C118.609 187.701 117.011 187.877 115.32 187.877C111.353 187.877 107.829 187.158 104.748 185.717C101.666 184.276 99.0699 182.293 96.9605 179.765C94.8517 177.239 93.2476 174.282 92.1482 170.895C91.05 167.509 90.5 163.857 90.5 159.939C90.5 156.021 91.1127 152.403 92.3381 149.004C93.5635 145.605 95.3061 142.648 97.5676 140.133C99.829 137.619 102.556 135.636 105.752 134.182C108.947 132.728 112.528 132.002 116.495 132.002C119.071 132.002 121.516 132.299 123.826 132.892C126.138 133.487 128.247 134.333 130.154 135.432C132.061 136.531 133.747 137.859 135.213 139.412C136.677 140.966 137.866 142.692 138.775 144.587L129.151 150.007C128.569 148.845 127.887 147.764 127.105 146.765C126.321 145.768 125.418 144.908 124.395 144.188C123.372 143.467 122.204 142.899 120.89 142.482C119.576 142.066 118.111 141.856 116.496 141.856C113.944 141.856 111.746 142.356 109.901 143.354C108.057 144.353 106.542 145.673 105.355 147.316C104.167 148.959 103.284 150.86 102.703 153.021C102.121 155.182 101.83 157.413 101.83 159.711V160.091H101.829Z" fill="white"/>
<path d="M174.832 132C178.873 132 182.498 132.727 185.707 134.18C188.915 135.634 191.638 137.617 193.874 140.132C196.108 142.646 197.814 145.604 198.988 149.002C200.163 152.401 200.75 156.047 200.75 159.938C200.75 163.828 200.163 167.507 198.988 170.893C197.814 174.28 196.108 177.237 193.874 179.764C191.638 182.29 188.915 184.274 185.707 185.715C182.499 187.156 178.873 187.876 174.832 187.876C170.79 187.876 167.133 187.156 163.938 185.715C160.742 184.274 158.027 182.291 155.792 179.764C153.556 177.237 151.851 174.28 150.677 170.893C149.502 167.507 148.915 163.856 148.915 159.938C148.915 156.019 149.502 152.401 150.677 149.002C151.851 145.604 153.556 142.646 155.792 140.132C158.027 137.617 160.742 135.634 163.938 134.18C167.134 132.727 170.764 132 174.832 132ZM174.832 177.945C177.206 177.945 179.297 177.496 181.103 176.598C182.908 175.702 184.431 174.457 185.668 172.865C186.907 171.273 187.841 169.391 188.472 167.217C189.104 165.044 189.42 162.668 189.42 160.09V159.787C189.42 157.234 189.104 154.865 188.472 152.679C187.841 150.493 186.907 148.603 185.668 147.012C184.431 145.42 182.908 144.176 181.103 143.278C179.297 142.382 177.206 141.933 174.832 141.933C172.457 141.933 170.361 142.382 168.541 143.278C166.723 144.176 165.201 145.42 163.976 147.012C162.751 148.603 161.823 150.494 161.191 152.679C160.56 154.865 160.243 157.234 160.243 159.787V160.09C160.243 162.668 160.56 165.044 161.191 167.217C161.823 169.391 162.751 171.272 163.976 172.865C165.201 174.457 166.723 175.702 168.541 176.598C170.361 177.496 172.457 177.945 174.832 177.945Z" fill="white"/>
<path d="M220.122 187.118L204.776 132.759H217.091L227.588 173.622H227.966L238.235 132.759H250.398L235.052 187.118H220.123H220.122Z" fill="white"/>
<path d="M312.635 177.945C314.226 177.945 315.711 177.711 317.087 177.244C318.464 176.776 319.652 176.069 320.649 175.121C321.646 174.173 322.436 172.974 323.017 171.519C323.598 170.067 323.888 168.355 323.888 166.384V132.683H334.688V168.012C334.688 171.045 334.139 173.787 333.041 176.238C331.943 178.69 330.417 180.775 328.46 182.493C326.504 184.213 324.175 185.539 321.476 186.473C318.775 187.408 315.822 187.876 312.617 187.876C309.412 187.876 306.458 187.408 303.759 186.473C301.057 185.539 298.723 184.212 296.754 182.493C294.784 180.775 293.252 178.691 292.153 176.238C291.056 173.787 290.507 171.044 290.507 168.012V132.683H301.382V166.383C301.382 168.354 301.672 170.066 302.253 171.518C302.834 172.973 303.623 174.172 304.621 175.12C305.619 176.068 306.806 176.775 308.183 177.243C309.56 177.711 311.045 177.944 312.635 177.944V177.945Z" fill="white"/>
<path d="M344.434 132.759H355.423V156.299L374.823 132.759H388.351L369.48 154.365L389.563 187.118H376.794L362.433 162.743L355.423 170.589V187.118H344.434V132.759Z" fill="white"/>
</g>
<defs>
<clipPath id="clip0_972_45">
<rect width="480" height="320" fill="white"/>
</clipPath>
</defs>
</svg>
