<svg width="312" height="109" viewBox="0 0 312 109" fill="none" xmlns="http://www.w3.org/2000/svg">
<rect x="0.67041" y="0.875" width="310.881" height="107.254" fill="#1D70B8"/>
<path d="M12.4467 48.2654C12.4467 50.6811 12.7488 53.0054 13.353 55.2373C13.9562 57.4692 14.8749 59.4385 16.1102 61.1452C17.3445 62.8528 18.9193 64.2247 20.8367 65.2618C22.754 66.2988 25.0388 66.8183 27.6912 66.8183C30.3435 66.8183 32.359 66.4114 34.0531 65.5975C35.7463 64.7836 37.099 63.7658 38.1101 62.544C39.1202 61.3232 39.8292 60.0042 40.2371 58.5862C40.6441 57.1681 40.8471 55.8549 40.8471 54.6466V54.0954H26.3915V45.3908H51.9548V76.3502H41.9505V69.7324C41.2415 70.8358 40.3612 71.8402 39.3116 72.7464C38.2611 73.6517 37.0797 74.4271 35.7656 75.0697C34.4524 75.7133 33.0141 76.2194 31.4528 76.5869C29.8904 76.9544 28.229 77.1381 26.4704 77.1381C22.3471 77.1381 18.6846 76.3897 15.481 74.8927C12.2774 73.3958 9.57889 71.3351 7.3864 68.7087C5.19392 66.0833 3.5267 63.0106 2.3838 59.4914C1.24186 55.9733 0.67041 52.179 0.67041 48.1076C0.67041 44.0363 1.30728 40.2766 2.58102 36.745C3.85476 33.2134 5.66628 30.1406 8.0175 27.5277C10.3678 24.9148 13.2029 22.8541 16.5248 21.3437C19.8467 19.8333 23.5689 19.0781 27.6921 19.0781C30.3705 19.0781 32.9112 19.3869 35.3134 20.0036C37.7166 20.6212 39.9091 21.5005 41.8918 22.6425C43.8736 23.7844 45.6265 25.164 47.1503 26.7783C48.6723 28.3926 49.9075 30.1858 50.8532 32.1551L40.848 37.7869C40.2439 36.5795 39.5348 35.4568 38.721 34.4188C37.9061 33.3827 36.9681 32.4889 35.9051 31.7405C34.8411 30.992 33.627 30.4013 32.2618 29.9684C30.8957 29.5355 29.3728 29.3181 27.6931 29.3181C25.0408 29.3181 22.7559 29.8376 20.8386 30.8746C18.9212 31.9117 17.3464 33.2836 16.1121 34.9912C14.8778 36.6979 13.959 38.6739 13.3549 40.9193C12.7507 43.1647 12.4486 45.4832 12.4486 47.871V48.2654H12.4467Z" fill="white"/>
<path d="M88.3345 19.0781C92.5357 19.0781 96.304 19.8333 99.6394 21.3437C102.975 22.8541 105.804 24.9148 108.128 27.5277C110.452 30.1406 112.225 33.2134 113.446 36.745C114.666 40.2766 115.276 44.0652 115.276 48.1076C115.276 52.1501 114.666 55.9733 113.446 59.4914C112.225 63.0106 110.452 66.0833 108.128 68.7087C105.805 71.3341 102.975 73.3958 99.6394 74.8927C96.305 76.3897 92.5357 77.1381 88.3345 77.1381C84.1333 77.1381 80.3313 76.3897 77.0103 74.8927C73.6884 73.3958 70.8658 71.3351 68.5425 68.7087C66.2182 66.0833 64.4461 63.0106 63.2253 59.4914C62.0044 55.9733 61.3936 52.179 61.3936 48.1076C61.3936 44.0363 62.0044 40.2766 63.2253 36.745C64.4461 33.2134 66.2182 30.1406 68.5425 27.5277C70.8658 24.9148 73.6884 22.8541 77.0103 21.3437C80.3322 19.8333 84.1063 19.0781 88.3345 19.0781ZM88.3345 66.8174C90.8031 66.8174 92.9763 66.3517 94.8533 65.4186C96.7302 64.4873 98.3137 63.1934 99.599 61.5396C100.886 59.8849 101.858 57.9291 102.514 55.6702C103.17 53.4123 103.499 50.9437 103.499 48.2654V47.9499C103.499 45.2975 103.17 42.8357 102.514 40.5643C101.858 38.2929 100.886 36.3294 99.599 34.6757C98.3127 33.0219 96.7302 31.7289 94.8533 30.7958C92.9763 29.8645 90.8031 29.3979 88.3345 29.3979C85.8659 29.3979 83.6869 29.8645 81.7955 30.7958C79.9051 31.7289 78.3235 33.0219 77.0498 34.6757C75.776 36.3294 74.8111 38.2939 74.155 40.5643C73.4989 42.8357 73.1699 45.2975 73.1699 47.9499V48.2654C73.1699 50.9437 73.4989 53.4123 74.155 55.6702C74.8111 57.9291 75.776 59.884 77.0498 61.5396C78.3235 63.1934 79.9051 64.4873 81.7955 65.4186C83.6869 66.3517 85.8659 66.8174 88.3345 66.8174Z" fill="white"/>
<path d="M135.414 76.3485L119.462 19.8652H132.264L143.175 62.3258H143.569L154.243 19.8652H166.887L150.934 76.3485H135.415H135.414Z" fill="white"/>
<path d="M231.582 66.8173C233.236 66.8173 234.779 66.5749 236.21 66.0891C237.641 65.6032 238.876 64.8682 239.913 63.8831C240.949 62.898 241.77 61.6522 242.375 60.1408C242.978 58.6313 243.28 56.8525 243.28 54.8044V19.7871H254.506V56.4975C254.506 59.6492 253.935 62.4987 252.794 65.0453C251.653 67.5927 250.066 69.7592 248.032 71.5448C245.999 73.3313 243.578 74.7089 240.772 75.6806C237.965 76.6513 234.895 77.1381 231.563 77.1381C228.232 77.1381 225.161 76.6513 222.355 75.6806C219.546 74.7089 217.12 73.3303 215.073 71.5448C213.026 69.7592 211.433 67.5937 210.291 65.0453C209.15 62.4987 208.579 59.6482 208.579 56.4975V19.7871H219.884V54.8044C219.884 56.8525 220.186 58.6313 220.789 60.1408C221.393 61.6522 222.214 62.898 223.251 63.8831C224.288 64.8682 225.523 65.6032 226.954 66.0891C228.386 66.5749 229.929 66.8173 231.582 66.8173Z" fill="white"/>
<path d="M264.638 19.8652H276.061V44.3251L296.229 19.8652H310.291L290.675 42.3163L311.551 76.3485H298.278L283.349 51.0209L276.061 59.1741V76.3485H264.638V19.8652Z" fill="white"/>
<path d="M184.815 57.6437C190.081 57.6437 194.351 53.3744 194.351 48.108C194.351 42.8416 190.081 38.5723 184.815 38.5723C179.549 38.5723 175.279 42.8416 175.279 48.108C175.279 53.3744 179.549 57.6437 184.815 57.6437Z" fill="#00FFE0"/>
<path d="M2.52 95.8662C2.42237 95.9638 2.42237 96.1221 2.52 96.2197L4.11099 97.8107C4.20862 97.9084 4.36691 97.9084 4.46454 97.8107C4.56218 97.7131 4.56218 97.5548 4.46454 97.4572L3.05033 96.043L4.46454 94.6288C4.56218 94.5311 4.56218 94.3728 4.46454 94.2752C4.36691 94.1776 4.20862 94.1776 4.11099 94.2752L2.52 95.8662ZM311.728 96.2197C311.826 96.1221 311.826 95.9638 311.728 95.8662L310.137 94.2752C310.039 94.1776 309.881 94.1776 309.784 94.2752C309.686 94.3728 309.686 94.5311 309.784 94.6288L311.198 96.043L309.784 97.4572C309.686 97.5548 309.686 97.7131 309.784 97.8107C309.881 97.9084 310.039 97.9084 310.137 97.8107L311.728 96.2197ZM2.69678 96.043V96.293H311.551V96.043V95.793H2.69678V96.043Z" fill="white"/>
</svg>
