<svg width="538" height="134" viewBox="0 0 538 134" fill="none" xmlns="http://www.w3.org/2000/svg">
<rect x="0.354492" y="0.046875" width="537.201" height="132.966" fill="#1D70B8"/>
<path d="M318.556 99.3255C327.656 99.3255 335.033 91.9482 335.033 82.8478C335.033 73.7474 327.656 66.3701 318.556 66.3701C309.455 66.3701 302.078 73.7474 302.078 82.8478C302.078 91.9482 309.455 99.3255 318.556 99.3255Z" fill="#00FFE0"/>
<path d="M20.7039 83.121C20.7039 87.2953 21.2259 91.3117 22.2699 95.1684C23.3122 99.0252 24.8998 102.428 27.0343 105.377C29.1672 108.328 31.8885 110.699 35.2017 112.491C38.5148 114.283 42.463 115.18 47.0463 115.18C51.6295 115.18 55.1122 114.477 58.0397 113.071C60.9655 111.664 63.3028 109.906 65.05 107.794C66.7955 105.685 68.0207 103.406 68.7256 100.955C69.4288 98.5049 69.7795 96.2357 69.7795 94.1477V93.1952H44.8004V78.1538H88.9736V131.651H71.6863V120.216C70.4611 122.123 68.94 123.858 67.1264 125.424C65.311 126.988 63.2696 128.328 60.9988 129.439C58.7296 130.551 56.2443 131.425 53.5462 132.06C50.8465 132.695 47.9755 133.013 44.9367 133.013C37.8116 133.013 31.4829 131.72 25.9471 129.133C20.4113 126.546 15.7483 122.985 11.9597 118.447C8.1711 113.91 5.29016 108.601 3.31523 102.52C1.34197 96.4402 0.354492 89.8837 0.354492 82.8484C0.354492 75.8131 1.455 69.3165 3.65601 63.2138C5.85703 57.1112 8.98732 51.8015 13.0502 47.2864C17.1115 42.7713 22.0106 39.2105 27.7508 36.6005C33.4911 33.9905 39.9229 32.6855 47.0479 32.6855C51.676 32.6855 56.0664 33.2192 60.2174 34.2848C64.3701 35.352 68.1587 36.8715 71.5849 38.8447C75.0095 40.818 78.0383 43.2019 80.6716 45.9914C83.3015 48.7809 85.436 51.8796 87.0701 55.2825L69.7812 65.0142C68.7372 62.9279 67.512 60.9879 66.1057 59.1941C64.6976 57.4037 63.0768 55.8594 61.2398 54.566C59.4012 53.2727 57.3032 52.252 54.9443 51.5039C52.5837 50.7558 49.9521 50.3801 47.0496 50.3801C42.4664 50.3801 38.5182 51.2778 35.205 53.0699C31.8918 54.8619 29.1705 57.2325 27.0376 60.1833C24.9048 63.1324 23.3172 66.5469 22.2732 70.427C21.2292 74.307 20.7072 78.3134 20.7072 82.4394V83.121H20.7039Z" fill="white"/>
<path d="M151.837 32.6836C159.097 32.6836 165.608 33.9886 171.372 36.5985C177.134 39.2085 182.024 42.7694 186.041 47.2844C190.056 51.7995 193.119 57.1092 195.229 63.2119C197.338 69.3145 198.392 75.8611 198.392 82.8464C198.392 89.8318 197.338 96.4382 195.229 102.518C193.119 108.599 190.056 113.908 186.041 118.445C182.026 122.982 177.135 126.544 171.372 129.131C165.61 131.718 159.097 133.011 151.837 133.011C144.577 133.011 138.007 131.718 132.269 129.131C126.529 126.544 121.651 122.983 117.636 118.445C113.62 113.908 110.558 108.599 108.448 102.518C106.339 96.4382 105.283 89.8817 105.283 82.8464C105.283 75.8112 106.339 69.3145 108.448 63.2119C110.558 57.1092 113.62 51.7995 117.636 47.2844C121.651 42.7694 126.529 39.2085 132.269 36.5985C138.009 33.9886 144.531 32.6836 151.837 32.6836ZM151.837 115.178C156.103 115.178 159.858 114.374 163.101 112.761C166.345 111.152 169.081 108.916 171.302 106.059C173.526 103.199 175.205 99.8195 176.339 95.9162C177.473 92.0146 178.041 87.7489 178.041 83.1207V82.5755C178.041 77.9922 177.473 73.7382 176.339 69.8132C175.205 65.8883 173.526 62.4954 171.302 59.6377C169.079 56.7801 166.345 54.5458 163.101 52.9333C159.858 51.3241 156.103 50.5178 151.837 50.5178C147.571 50.5178 143.806 51.3241 140.538 52.9333C137.271 54.5458 134.538 56.7801 132.337 59.6377C130.136 62.4954 128.469 65.89 127.335 69.8132C126.201 73.7382 125.633 77.9922 125.633 82.5755V83.1207C125.633 87.7489 126.201 92.0146 127.335 95.9162C128.469 99.8195 130.136 103.198 132.337 106.059C134.538 108.916 137.271 111.152 140.538 112.761C143.806 114.374 147.571 115.178 151.837 115.178Z" fill="white"/>
<path d="M233.192 131.65L205.626 34.0469H227.747L246.602 107.418H247.282L265.728 34.0469H287.576L260.01 131.65H233.193H233.192Z" fill="white"/>
<path d="M399.37 115.179C402.227 115.179 404.894 114.76 407.366 113.92C409.839 113.081 411.972 111.811 413.764 110.109C415.555 108.406 416.975 106.253 418.018 103.642C419.061 101.033 419.583 97.9597 419.583 94.4205V33.9092H438.981V97.3446C438.981 102.791 437.996 107.715 436.024 112.115C434.052 116.517 431.309 120.261 427.795 123.346C424.281 126.433 420.098 128.814 415.249 130.493C410.398 132.17 405.093 133.011 399.336 133.011C393.58 133.011 388.273 132.17 383.424 130.493C378.571 128.814 374.379 126.432 370.841 123.346C367.304 120.261 364.551 116.519 362.578 112.115C360.606 107.715 359.62 102.789 359.62 97.3446V33.9092H379.155V94.4188C379.155 97.958 379.677 101.032 380.719 103.64C381.763 106.252 383.181 108.405 384.973 110.107C386.765 111.809 388.898 113.079 391.372 113.919C393.846 114.758 396.512 115.177 399.37 115.177V115.179Z" fill="white"/>
<path d="M456.49 34.0449H476.23V76.3114L511.078 34.0449H535.378L501.481 72.8403L537.555 131.648H514.619L488.822 87.8817L476.23 101.97V131.648H456.49V34.0449Z" fill="white"/>
</svg>
