<svg width="480" height="320" viewBox="0 0 480 320" fill="none" xmlns="http://www.w3.org/2000/svg">
<rect opacity="0.8" width="480" height="320" fill="white"/>
<path d="M27.2363 193C21.9013 193 17.2371 192.252 13.2437 190.756C9.28153 189.23 6.16169 187.061 3.8842 184.249C1.60672 181.407 0.327585 177.997 0.0467973 174.017L0 173.299H13.3373L13.4309 173.793C13.7429 175.468 14.5229 176.919 15.7708 178.146C17.0499 179.343 18.7035 180.285 20.7314 180.973C22.7593 181.631 25.0524 181.961 27.6106 181.961C30.2313 181.961 32.4775 181.631 34.3494 180.973C36.2526 180.285 37.7189 179.328 38.7484 178.101C39.8092 176.845 40.3395 175.394 40.3395 173.748V173.703C40.3395 171.519 39.4348 169.814 37.6253 168.587C35.847 167.331 32.8519 166.284 28.6401 165.446L21.5269 164.1C14.8816 162.813 9.87435 160.644 6.50487 157.593C3.13545 154.541 1.45073 150.577 1.45073 145.701V145.656C1.45073 141.707 2.55827 138.266 4.77336 135.334C6.98845 132.372 10.0303 130.084 13.8988 128.468C17.7675 126.823 22.1977 126 27.1894 126C32.3996 126 36.8921 126.778 40.6672 128.334C44.4734 129.889 47.4372 132.088 49.5587 134.93C51.6802 137.772 52.8501 141.078 53.0686 144.848L53.1153 145.701H39.778L39.7312 145.162C39.4816 143.457 38.8108 142.006 37.7189 140.809C36.6269 139.583 35.1762 138.64 33.3667 137.982C31.5884 137.324 29.5293 136.995 27.1894 136.995C24.7872 136.995 22.7124 137.339 20.9654 138.027C19.2183 138.685 17.8767 139.597 16.9408 140.764C16.036 141.931 15.5836 143.292 15.5836 144.848V144.893C15.5836 146.927 16.4884 148.573 18.2979 149.829C20.1074 151.086 22.9464 152.088 26.8151 152.836L33.9751 154.227C38.686 155.125 42.5546 156.366 45.5809 157.952C48.6071 159.537 50.8378 161.542 52.273 163.965C53.7393 166.359 54.4724 169.246 54.4724 172.626V172.671C54.4724 176.83 53.3805 180.435 51.1967 183.486C49.044 186.508 45.9241 188.856 41.8371 190.532C37.7813 192.177 32.9143 193 27.2363 193ZM63.13 191.878V127.122H107.354V138.296H77.2629V155.663H104.733V166.389H77.2629V191.878H63.13ZM141.844 171.46V160.869H158.41C162.466 160.869 165.617 159.881 167.863 157.907C170.141 155.902 171.279 153.06 171.279 149.38V149.291C171.279 145.611 170.141 142.784 167.863 140.809C165.617 138.835 162.466 137.847 158.41 137.847H141.844V127.122H161.873C166.615 127.122 170.765 128.049 174.322 129.904C177.878 131.729 180.639 134.302 182.604 137.623C184.601 140.944 185.599 144.818 185.599 149.246V149.336C185.599 153.793 184.601 157.683 182.604 161.003C180.639 164.324 177.878 166.897 174.322 168.722C170.765 170.547 166.615 171.46 161.873 171.46H141.844ZM134.73 191.878V127.122H148.863V191.878H134.73ZM192.806 191.878V143.771H206.471V152.163H206.752C207.501 149.201 208.858 146.897 210.823 145.252C212.789 143.606 215.238 142.784 218.17 142.784C218.92 142.784 219.637 142.829 220.323 142.918C221.009 143.008 221.602 143.128 222.102 143.277V154.81C221.54 154.601 220.823 154.437 219.949 154.317C219.075 154.167 218.139 154.092 217.141 154.092C214.895 154.092 212.977 154.511 211.385 155.349C209.794 156.187 208.577 157.413 207.735 159.029C206.893 160.644 206.471 162.619 206.471 164.952V191.878H192.806ZM249.15 192.865C244.065 192.865 239.666 191.863 235.954 189.859C232.241 187.854 229.371 184.982 227.343 181.243C225.315 177.503 224.301 173.03 224.301 167.825V167.735C224.301 162.559 225.331 158.116 227.39 154.407C229.449 150.667 232.334 147.795 236.048 145.79C239.76 143.786 244.112 142.784 249.104 142.784C254.127 142.784 258.495 143.786 262.207 145.79C265.951 147.765 268.852 150.622 270.912 154.362C272.97 158.071 274 162.529 274 167.735V167.825C274 173.06 272.97 177.548 270.912 181.287C268.884 185.027 266.013 187.899 262.301 189.904C258.589 191.878 254.204 192.865 249.15 192.865ZM249.197 182.589C251.412 182.589 253.331 182.02 254.953 180.883C256.607 179.717 257.871 178.041 258.744 175.857C259.649 173.644 260.101 170.966 260.101 167.825V167.735C260.101 164.623 259.649 161.976 258.744 159.792C257.839 157.608 256.56 155.947 254.907 154.81C253.253 153.644 251.319 153.06 249.104 153.06C246.92 153.06 245.002 153.644 243.348 154.81C241.726 155.947 240.462 157.608 239.557 159.792C238.653 161.976 238.2 164.623 238.2 167.735V167.825C238.2 170.966 238.637 173.644 239.511 175.857C240.415 178.041 241.694 179.717 243.348 180.883C245.002 182.02 246.951 182.589 249.197 182.589Z" fill="#858686"/>
</svg>
