<svg width="259" height="67" viewBox="0 0 259 67" fill="none" xmlns="http://www.w3.org/2000/svg">
<path d="M26.3516 66.4767C21.3418 66.4767 16.9619 65.7443 13.2119 64.2795C9.49121 62.7853 6.56152 60.6613 4.42285 57.9074C2.28418 55.1242 1.08301 51.7844 0.819336 47.8879L0.775391 47.1848H13.2998L13.3877 47.6682C13.6807 49.3088 14.4131 50.7297 15.585 51.9308C16.7861 53.1027 18.3389 54.0256 20.2432 54.6994C22.1475 55.3439 24.3008 55.6662 26.7031 55.6662C29.1641 55.6662 31.2734 55.3439 33.0312 54.6994C34.8184 54.0256 36.1953 53.0881 37.1621 51.8869C38.1582 50.6564 38.6562 49.2355 38.6562 47.6242V47.5803C38.6562 45.4416 37.8066 43.7717 36.1074 42.5705C34.4375 41.34 31.625 40.3146 27.6699 39.4943L20.9902 38.176C14.75 36.9162 10.0479 34.7922 6.88379 31.8039C3.71973 28.8156 2.1377 24.9338 2.1377 20.1584V20.1144C2.1377 16.2473 3.17773 12.8781 5.25781 10.007C7.33789 7.10663 10.1943 4.86542 13.8271 3.28339C17.46 1.67206 21.6201 0.866394 26.3076 0.866394C31.2002 0.866394 35.4189 1.62811 38.9639 3.15155C42.5381 4.67499 45.3213 6.82831 47.3135 9.61151C49.3057 12.3947 50.4043 15.632 50.6094 19.3234L50.6533 20.1584H38.1289L38.085 19.631C37.8506 17.9611 37.2207 16.5402 36.1953 15.3683C35.1699 14.1672 33.8076 13.2443 32.1084 12.5998C30.4385 11.9553 28.5049 11.633 26.3076 11.633C24.0518 11.633 22.1035 11.9699 20.4629 12.6437C18.8223 13.2883 17.5625 14.1818 16.6836 15.3244C15.834 16.467 15.4092 17.8 15.4092 19.3234V19.3674C15.4092 21.3596 16.2588 22.9709 17.958 24.2014C19.6572 25.4318 22.3232 26.4133 25.9561 27.1457L32.6797 28.508C37.1035 29.3869 40.7363 30.6027 43.5781 32.1555C46.4199 33.7082 48.5146 35.6711 49.8623 38.0441C51.2393 40.3879 51.9277 43.215 51.9277 46.5256V46.5695C51.9277 50.6418 50.9023 54.1721 48.8516 57.1603C46.8301 60.1193 43.9004 62.4191 40.0625 64.0598C36.2539 65.6711 31.6836 66.4767 26.3516 66.4767ZM60.0576 65.3781V1.96503H101.586V12.9074H73.3291V29.9142H99.125V40.4172H73.3291V65.3781H60.0576ZM133.974 45.383V35.0119H149.53C153.339 35.0119 156.298 34.0451 158.407 32.1115C160.546 30.1486 161.615 27.3654 161.615 23.7619V23.674C161.615 20.0705 160.546 17.3019 158.407 15.3683C156.298 13.4348 153.339 12.468 149.53 12.468H133.974V1.96503H152.782C157.235 1.96503 161.132 2.87323 164.472 4.68964C167.812 6.47675 170.404 8.99628 172.25 12.2482C174.125 15.5002 175.062 19.2941 175.062 23.6301V23.718C175.062 28.0832 174.125 31.8918 172.25 35.1437C170.404 38.3957 167.812 40.9152 164.472 42.7023C161.132 44.4894 157.235 45.383 152.782 45.383H133.974ZM127.294 65.3781V1.96503H140.565V65.3781H127.294ZM181.83 65.3781V18.2687H194.662V26.4865H194.926C195.629 23.5861 196.903 21.3303 198.749 19.7189C200.595 18.1076 202.895 17.3019 205.648 17.3019C206.352 17.3019 207.025 17.3459 207.67 17.4338C208.314 17.5217 208.871 17.6389 209.34 17.7853V29.0793C208.812 28.8742 208.139 28.7131 207.318 28.5959C206.498 28.4494 205.619 28.3762 204.682 28.3762C202.572 28.3762 200.771 28.7863 199.276 29.6066C197.782 30.4269 196.64 31.6281 195.849 33.2101C195.058 34.7922 194.662 36.7258 194.662 39.0109V65.3781H181.83ZM234.74 66.3449C229.965 66.3449 225.834 65.3635 222.348 63.4006C218.861 61.4377 216.166 58.6252 214.262 54.9631C212.357 51.301 211.405 46.9211 211.405 41.8234V41.7355C211.405 36.6672 212.372 32.3166 214.306 28.6838C216.239 25.0217 218.949 22.2092 222.436 20.2463C225.922 18.2834 230.009 17.3019 234.696 17.3019C239.413 17.3019 243.515 18.2834 247.001 20.2463C250.517 22.1799 253.241 24.9777 255.175 28.6398C257.108 32.2726 258.075 36.6379 258.075 41.7355V41.8234C258.075 46.9504 257.108 51.3449 255.175 55.007C253.271 58.6691 250.575 61.4816 247.089 63.4445C243.603 65.3781 239.486 66.3449 234.74 66.3449ZM234.784 56.2814C236.864 56.2814 238.666 55.7248 240.189 54.6115C241.742 53.4689 242.929 51.8283 243.749 49.6896C244.599 47.5217 245.023 44.8996 245.023 41.8234V41.7355C245.023 38.6887 244.599 36.0959 243.749 33.9572C242.899 31.8185 241.698 30.1926 240.146 29.0793C238.593 27.9367 236.776 27.3654 234.696 27.3654C232.646 27.3654 230.844 27.9367 229.291 29.0793C227.768 30.1926 226.581 31.8185 225.731 33.9572C224.882 36.0959 224.457 38.6887 224.457 41.7355V41.8234C224.457 44.8996 224.867 47.5217 225.688 49.6896C226.537 51.8283 227.738 53.4689 229.291 54.6115C230.844 55.7248 232.675 56.2814 234.784 56.2814Z" fill="#858686"/>
</svg>
