<svg width="480" height="76" viewBox="0 0 480 76" fill="none" xmlns="http://www.w3.org/2000/svg">
<g clip-path="url(#clip0_1389_815)">
<rect width="480" height="76" fill="white"/>
<rect opacity="0.8" width="480" height="76" fill="white"/>
<path d="M27.2363 71C21.9013 71 17.2371 70.2521 13.2437 68.7563C9.28153 67.2304 6.16169 65.0614 3.8842 62.2492C1.60672 59.407 0.327585 55.9965 0.0467973 52.0175L0 51.2995H13.3373L13.4309 51.7931C13.7429 53.4685 14.5229 54.9195 15.7708 56.146C17.0499 57.3427 18.7035 58.2852 20.7314 58.9732C22.7593 59.6314 25.0524 59.9605 27.6106 59.9605C30.2313 59.9605 32.4775 59.6314 34.3494 58.9732C36.2526 58.2852 37.7189 57.3278 38.7484 56.1012C39.8092 54.8446 40.3395 53.3936 40.3395 51.7482V51.7034C40.3395 49.5194 39.4348 47.8141 37.6253 46.5874C35.847 45.3309 32.8519 44.2838 28.6401 43.4461L21.5269 42.0999C14.8816 40.8134 9.87435 38.6444 6.50487 35.5928C3.13545 32.5412 1.45073 28.5772 1.45073 23.7006V23.6557C1.45073 19.7067 2.55827 16.2661 4.77336 13.3342C6.98845 10.3724 10.0303 8.08373 13.8988 6.46819C17.7675 4.82273 22.1977 4 27.1894 4C32.3996 4 36.8921 4.77785 40.6672 6.33356C44.4734 7.88927 47.4372 10.0882 49.5587 12.9303C51.6802 15.7725 52.8501 19.0784 53.0686 22.8479L53.1153 23.7006H39.778L39.7312 23.1621C39.4816 21.4568 38.8108 20.0058 37.7189 18.8091C36.6269 17.5825 35.1762 16.6401 33.3667 15.9819C31.5884 15.3238 29.5293 14.9947 27.1894 14.9947C24.7872 14.9947 22.7124 15.3387 20.9654 16.0268C19.2183 16.685 17.8767 17.5974 16.9408 18.7642C16.036 19.931 15.5836 21.2923 15.5836 22.8479V22.8929C15.5836 24.9273 16.4884 26.5727 18.2979 27.8293C20.1074 29.0857 22.9464 30.088 26.8151 30.8359L33.9751 32.2271C38.686 33.1246 42.5546 34.3661 45.5809 35.9518C48.6071 37.5374 50.8378 39.5419 52.273 41.9652C53.7393 44.3586 54.4724 47.2456 54.4724 50.6263V50.6711C54.4724 54.8297 53.3805 58.4348 51.1967 61.4863C49.044 64.5079 45.9241 66.8565 41.8371 68.5319C37.7813 70.1773 32.9143 71 27.2363 71ZM63.13 69.8781V5.12191H107.354V16.296H77.2629V33.6631H104.733V44.3885H77.2629V69.8781H63.13ZM141.844 49.4595V38.8687H158.41C162.466 38.8687 165.617 37.8815 167.863 35.9069C170.141 33.9024 171.279 31.0603 171.279 27.3805V27.2907C171.279 23.6109 170.141 20.7836 167.863 18.8091C165.617 16.8346 162.466 15.8473 158.41 15.8473H141.844V5.12191H161.873C166.615 5.12191 170.765 6.04934 174.322 7.90423C177.878 9.72919 180.639 12.3021 182.604 15.6229C184.601 18.9438 185.599 22.818 185.599 27.2459V27.3356C185.599 31.7933 184.601 35.6826 182.604 39.0033C180.639 42.3242 177.878 44.8971 174.322 46.722C170.765 48.547 166.615 49.4595 161.873 49.4595H141.844ZM134.73 69.8781V5.12191H148.863V69.8781H134.73ZM192.806 69.8781V21.7709H206.471V30.1628H206.752C207.501 27.2009 208.858 24.8974 210.823 23.2518C212.789 21.6064 215.238 20.7836 218.17 20.7836C218.92 20.7836 219.637 20.8286 220.323 20.9183C221.009 21.0081 221.602 21.1278 222.102 21.2773V32.8105C221.54 32.601 220.823 32.4365 219.949 32.3168C219.075 32.1672 218.139 32.0925 217.141 32.0925C214.895 32.0925 212.977 32.5113 211.385 33.349C209.794 34.1866 208.577 35.4133 207.735 37.0288C206.893 38.6444 206.471 40.6189 206.471 42.9524V69.8781H192.806ZM249.15 70.8654C244.065 70.8654 239.666 69.8632 235.954 67.8587C232.241 65.8543 229.371 62.9822 227.343 59.2425C225.315 55.5029 224.301 51.0302 224.301 45.8245V45.7348C224.301 40.5591 225.331 36.1164 227.39 32.4066C229.449 28.6669 232.334 25.7949 236.048 23.7904C239.76 21.7859 244.112 20.7836 249.104 20.7836C254.127 20.7836 258.495 21.7859 262.207 23.7904C265.951 25.7649 268.852 28.622 270.912 32.3617C272.97 36.0714 274 40.5292 274 45.7348V45.8245C274 51.0601 272.97 55.5477 270.912 59.2874C268.884 63.027 266.013 65.8991 262.301 67.9036C258.589 69.8781 254.204 70.8654 249.15 70.8654ZM249.197 60.5887C251.412 60.5887 253.331 60.0204 254.953 58.8835C256.607 57.7167 257.871 56.0413 258.744 53.8573C259.649 51.6435 260.101 48.9659 260.101 45.8245V45.7348C260.101 42.6234 259.649 39.9757 258.744 37.7917C257.839 35.6077 256.56 33.9474 254.907 32.8105C253.253 31.6437 251.319 31.0603 249.104 31.0603C246.92 31.0603 245.002 31.6437 243.348 32.8105C241.726 33.9474 240.462 35.6077 239.557 37.7917C238.653 39.9757 238.2 42.6234 238.2 45.7348V45.8245C238.2 48.9659 238.637 51.6435 239.511 53.8573C240.415 56.0413 241.694 57.7167 243.348 58.8835C245.002 60.0204 246.951 60.5887 249.197 60.5887Z" fill="#505A5F"/>
</g>
<defs>
<clipPath id="clip0_1389_815">
<rect width="480" height="76" fill="white"/>
</clipPath>
</defs>
</svg>
