<svg width="115" height="115" viewBox="0 0 115 115" fill="none" xmlns="http://www.w3.org/2000/svg">
<g clip-path="url(#clip0_161_1464)">
<rect width="114.669" height="114.669" rx="25.4057" fill="#1D70B8"/>
<path d="M57.334 -11.9887L57.334 126.658" stroke="#00FFE0" stroke-width="0.320555" stroke-miterlimit="10"/>
<path d="M-11.9863 57.3345H126.66" stroke="#00FFE0" stroke-width="0.320555" stroke-miterlimit="10"/>
<rect x="7.55078" y="7.55319" width="99.5628" height="99.5628" rx="19.8744" stroke="#11E0F1" stroke-width="0.641109"/>
<path d="M64.4399 38.2445C65.7431 38.2445 66.7997 37.188 66.7997 35.8847C66.7997 34.5814 65.7431 33.5249 64.4399 33.5249C63.1366 33.5249 62.0801 34.5814 62.0801 35.8847C62.0801 37.188 63.1366 38.2445 64.4399 38.2445Z" fill="#00FFE0"/>
<path d="M21.7834 35.9239C21.7834 36.5217 21.8582 37.0969 22.0077 37.6493C22.1569 38.2016 22.3843 38.6889 22.69 39.1113C22.9954 39.5338 23.3852 39.8733 23.8597 40.13C24.3341 40.3866 24.8996 40.5152 25.5559 40.5152C26.2123 40.5152 26.7111 40.4145 27.1303 40.2131C27.5493 40.0117 27.8841 39.7598 28.1343 39.4574C28.3843 39.1553 28.5597 38.8289 28.6607 38.478C28.7614 38.1271 28.8116 37.8021 28.8116 37.5031V37.3667H25.2343V35.2126H31.5604V42.874H29.0847V41.2363C28.9092 41.5094 28.6914 41.7579 28.4316 41.9822C28.1717 42.2062 27.8793 42.3981 27.5541 42.5571C27.2291 42.7164 26.8732 42.8416 26.4868 42.9326C26.1002 43.0235 25.689 43.069 25.2538 43.069C24.2334 43.069 23.3271 42.8838 22.5343 42.5133C21.7415 42.1429 21.0737 41.6329 20.5311 40.983C19.9886 40.3333 19.576 39.5729 19.2932 38.702C19.0106 37.8314 18.8691 36.8924 18.8691 35.8849C18.8691 34.8774 19.0267 33.947 19.342 33.073C19.6572 32.199 20.1055 31.4386 20.6873 30.792C21.2689 30.1454 21.9705 29.6355 22.7926 29.2617C23.6147 28.8879 24.5358 28.701 25.5562 28.701C26.219 28.701 26.8477 28.7775 27.4422 28.9301C28.0369 29.0829 28.5795 29.3005 29.0701 29.5831C29.5606 29.8657 29.9943 30.2071 30.3715 30.6066C30.7481 31.0061 31.0538 31.4498 31.2878 31.9372L28.8118 33.3308C28.6623 33.0321 28.4869 32.7542 28.2855 32.4974C28.0838 32.2409 27.8517 32.0198 27.5886 31.8346C27.3253 31.6493 27.0248 31.5032 26.687 31.396C26.349 31.2889 25.9721 31.2351 25.5564 31.2351C24.9 31.2351 24.3346 31.3636 23.8601 31.6203C23.3856 31.8769 22.9959 32.2164 22.6905 32.639C22.385 33.0613 22.1577 33.5503 22.0082 34.106C21.8586 34.6617 21.7839 35.2354 21.7839 35.8263V35.9239H21.7834Z" fill="white"/>
<path d="M40.5635 28.7006C41.6032 28.7006 42.5357 28.8875 43.3611 29.2613C44.1863 29.6351 44.8867 30.145 45.4619 30.7916C46.0368 31.4382 46.4756 32.1986 46.7777 33.0726C47.0798 33.9466 47.2308 34.8841 47.2308 35.8845C47.2308 36.8849 47.0798 37.831 46.7777 38.7016C46.4756 39.5725 46.0368 40.3329 45.4619 40.9826C44.8869 41.6323 44.1865 42.1425 43.3611 42.5129C42.536 42.8834 41.6032 43.0686 40.5635 43.0686C39.5238 43.0686 38.583 42.8834 37.7611 42.5129C36.9391 42.1425 36.2406 41.6325 35.6656 40.9826C35.0904 40.3329 34.6519 39.5725 34.3498 38.7016C34.0477 37.831 33.8965 36.892 33.8965 35.8845C33.8965 34.877 34.0477 33.9466 34.3498 33.0726C34.6519 32.1986 35.0904 31.4382 35.6656 30.7916C36.2406 30.145 36.9391 29.6351 37.7611 29.2613C38.5832 28.8875 39.5172 28.7006 40.5635 28.7006ZM40.5635 40.5148C41.1744 40.5148 41.7122 40.3995 42.1767 40.1686C42.6412 39.9382 43.0331 39.6179 43.3511 39.2087C43.6697 38.7992 43.9101 38.3152 44.0725 37.7562C44.2349 37.1975 44.3163 36.5866 44.3163 35.9238V35.8457C44.3163 35.1893 44.2349 34.5801 44.0725 34.018C43.9101 33.4559 43.6697 32.97 43.3511 32.5607C43.0328 32.1515 42.6412 31.8315 42.1767 31.6006C41.7122 31.3701 41.1744 31.2547 40.5635 31.2547C39.9526 31.2547 39.4134 31.3701 38.9453 31.6006C38.4775 31.8315 38.0861 32.1515 37.7709 32.5607C37.4557 32.97 37.2169 33.4561 37.0545 34.018C36.8922 34.5801 36.8108 35.1893 36.8108 35.8457V35.9238C36.8108 36.5866 36.8922 37.1975 37.0545 37.7562C37.2169 38.3152 37.4557 38.799 37.7709 39.2087C38.0861 39.6179 38.4775 39.9382 38.9453 40.1686C39.4134 40.3995 39.9526 40.5148 40.5635 40.5148Z" fill="white"/>
<path d="M52.2134 42.8736L48.2656 28.8959H51.4337L54.1339 39.4035H54.2313L56.873 28.8959H60.0017L56.054 42.8736H52.2136H52.2134Z" fill="white"/>
<path d="M76.0129 40.5148C76.4222 40.5148 76.804 40.4548 77.158 40.3346C77.5123 40.2144 77.8177 40.0325 78.0744 39.7887C78.3308 39.5449 78.5341 39.2366 78.6836 38.8626C78.8329 38.4891 78.9076 38.0489 78.9076 37.542V28.8761H81.6857V37.9608C81.6857 38.7407 81.5446 39.4459 81.2622 40.0761C80.9799 40.7065 80.587 41.2426 80.0837 41.6845C79.5805 42.1266 78.9815 42.4675 78.287 42.708C77.5923 42.9482 76.8326 43.0686 76.0081 43.0686C75.1837 43.0686 74.4238 42.9482 73.7293 42.708C73.0344 42.4675 72.4339 42.1263 71.9273 41.6845C71.4207 41.2426 71.0264 40.7067 70.7438 40.0761C70.4615 39.4459 70.3203 38.7405 70.3203 37.9608V28.8761H73.1179V37.5418C73.1179 38.0486 73.1927 38.4888 73.3419 38.8624C73.4915 39.2364 73.6945 39.5447 73.9512 39.7885C74.2078 40.0323 74.5133 40.2141 74.8675 40.3344C75.2218 40.4546 75.6037 40.5146 76.0129 40.5146V40.5148Z" fill="white"/>
<path d="M84.1914 28.8956H87.0183V34.9486L92.0091 28.8956H95.489L90.6347 34.4515L95.8009 42.8734H92.5161L88.8217 36.6056L87.0183 38.6233V42.8734H84.1914V28.8956Z" fill="white"/>
<path d="M49.7875 66.0487C51.0908 66.0487 52.1473 64.9922 52.1473 63.6889C52.1473 62.3857 51.0908 61.3292 49.7875 61.3292C48.4842 61.3292 47.4277 62.3857 47.4277 63.6889C47.4277 64.9922 48.4842 66.0487 49.7875 66.0487Z" fill="white"/>
<path d="M43.4379 69.8512C44.7412 69.8512 45.7977 68.7947 45.7977 67.4914C45.7977 66.1881 44.7412 65.1316 43.4379 65.1316C42.1346 65.1316 41.0781 66.1881 41.0781 67.4914C41.0781 68.7947 42.1346 69.8512 43.4379 69.8512Z" fill="white"/>
<path d="M39.2387 76.104C40.5419 76.104 41.5985 75.0475 41.5985 73.7443C41.5985 72.441 40.5419 71.3845 39.2387 71.3845C37.9354 71.3845 36.8789 72.441 36.8789 73.7443C36.8789 75.0475 37.9354 76.104 39.2387 76.104Z" fill="white"/>
<path d="M57.3363 74.4519C58.6396 74.4519 59.6961 73.3954 59.6961 72.0921C59.6961 70.7889 58.6396 69.7324 57.3363 69.7324C56.0331 69.7324 54.9766 70.7889 54.9766 72.0921C54.9766 73.3954 56.0331 74.4519 57.3363 74.4519Z" fill="white"/>
<path d="M64.8734 66.0487C66.1767 66.0487 67.2332 64.9922 67.2332 63.6889C67.2332 62.3857 66.1767 61.3292 64.8734 61.3292C63.5702 61.3292 62.5137 62.3857 62.5137 63.6889C62.5137 64.9922 63.5702 66.0487 64.8734 66.0487Z" fill="white"/>
<path d="M71.2231 69.8512C72.5263 69.8512 73.5828 68.7947 73.5828 67.4914C73.5828 66.1881 72.5263 65.1316 71.2231 65.1316C69.9198 65.1316 68.8633 66.1881 68.8633 67.4914C68.8633 68.7947 69.9198 69.8512 71.2231 69.8512Z" fill="white"/>
<path d="M75.4223 76.104C76.7255 76.104 77.782 75.0475 77.782 73.7443C77.782 72.441 76.7255 71.3845 75.4223 71.3845C74.119 71.3845 73.0625 72.441 73.0625 73.7443C73.0625 75.0475 74.119 76.104 75.4223 76.104Z" fill="white"/>
<path d="M57.3363 74.4519C58.6396 74.4519 59.6961 73.3954 59.6961 72.0921C59.6961 70.7889 58.6396 69.7324 57.3363 69.7324C56.0331 69.7324 54.9766 70.7889 54.9766 72.0921C54.9766 73.3954 56.0331 74.4519 57.3363 74.4519Z" fill="white"/>
<path d="M58.2843 58.6352C58.4037 58.5455 58.5096 58.4395 58.5994 58.3201L61.6013 59.896V55.4715L58.6037 56.423C58.5163 56.306 58.4127 56.2015 58.2967 56.1122L59.5031 52.3126H55.1626L56.369 56.1122C56.253 56.201 56.1499 56.3055 56.062 56.423L53.0645 55.4715V59.896L56.0663 58.3201C56.1561 58.4395 56.2621 58.5455 56.3814 58.6352L54.6714 63.7916C54.0694 65.6066 55.4209 67.4785 57.3329 67.4785C59.2448 67.4785 60.5964 65.6066 59.9944 63.7916L58.2843 58.6352Z" fill="white"/>
<path d="M60.7659 76.7914C60.7659 76.7914 58.5741 79.2304 58.0958 80.7185C59.5304 80.6731 60.8193 80.3939 62.2377 78.913L61.7569 84.4226C60.4513 82.5908 58.9202 81.8012 58.0714 81.9592C58.1574 83.9337 58.3641 86.3188 61.8214 86.6329C64.2337 86.8425 66.1705 85.6576 66.3719 84.1915C66.6111 82.5073 65.0935 81.393 63.9491 83.1661C63.0545 80.232 65.526 79.2567 67.1133 81.0732C65.8912 78.1778 65.9237 76.1207 68.642 74.0407C70.5921 76.6334 70.3157 78.7764 67.8982 81.1892C69.4722 80.3184 71.9164 81.2345 70.4766 84.1758C69.7247 82.3464 68.1101 82.7551 67.7717 84.329C67.5459 85.4409 68.2204 86.7489 69.687 87.0172C70.8905 87.2378 72.7438 86.4157 74.2294 83.2157C73.394 83.2372 72.6607 83.6592 71.7126 84.3118L73.2708 79.1173C73.6632 80.5753 74.1655 81.5324 74.6973 82.0499C75.0544 81.0006 75.0033 80.2397 74.6839 78.6046L77.9049 79.7513C76.1939 82.0853 74.5364 85.3607 73.1772 91.0808C68.3851 90.3967 63.0206 90.0124 57.3362 90.0124C51.6523 90.0124 46.2874 90.3972 41.4952 91.0808C40.1361 85.3602 38.4786 82.0848 36.7676 79.7513L39.9886 78.6046C39.6687 80.2397 39.6181 81.0006 39.9752 82.0499C40.507 81.5324 41.0093 80.5753 41.4017 79.1173L42.9599 84.3118C42.0118 83.6588 41.2785 83.2372 40.4431 83.2157C41.9287 86.4157 43.782 87.2373 44.9855 87.0172C46.4521 86.7489 47.1261 85.4409 46.9008 84.329C46.5623 82.7551 44.9483 82.3464 44.1959 84.1758C42.756 81.2345 45.2003 80.318 46.7743 81.1892C44.3568 78.7764 44.0799 76.6329 46.0305 74.0407C48.7488 76.1202 48.7813 78.1773 47.5591 81.0732C49.1465 79.2572 51.618 80.232 50.7233 83.1661C49.579 81.393 48.0614 82.5073 48.3005 84.1915C48.502 85.6581 50.4388 86.843 52.8511 86.6329C56.3084 86.3188 56.5151 83.9337 56.6011 81.9592C55.7522 81.8012 54.2212 82.5904 52.9155 84.4226L52.4348 78.913C53.8532 80.3939 55.1426 80.6727 56.5767 80.7185C56.0984 79.2304 53.9066 76.7914 53.9066 76.7914H60.7678H60.7659Z" fill="white"/>
</g>
<defs>
<clipPath id="clip0_161_1464">
<rect width="114.669" height="114.669" rx="25.4057" fill="white"/>
</clipPath>
</defs>
</svg>
