<svg width="137" height="137" viewBox="0 0 137 137" fill="none" xmlns="http://www.w3.org/2000/svg">
<rect width="137" height="137" rx="30.41" fill="#1D70B8"/>
<path d="M76.9893 45.6924C78.5463 45.6924 79.8086 44.4302 79.8086 42.8731C79.8086 41.316 78.5463 40.0537 76.9893 40.0537C75.4322 40.0537 74.1699 41.316 74.1699 42.8731C74.1699 44.4302 75.4322 45.6924 76.9893 45.6924Z" fill="#00FFE0"/>
<path d="M26.0248 42.9198C26.0248 43.634 26.1141 44.3212 26.2927 44.9811C26.471 45.641 26.7427 46.2233 27.1079 46.7279C27.4728 47.2327 27.9385 47.6383 28.5053 47.945C29.0722 48.2516 29.7478 48.4052 30.532 48.4052C31.3161 48.4052 31.912 48.2849 32.4129 48.0442C32.9135 47.8036 33.3135 47.5027 33.6124 47.1414C33.9111 46.7805 34.1207 46.3905 34.2413 45.9713C34.3616 45.552 34.4216 45.1637 34.4216 44.8065V44.6435H30.1477V42.0699H37.7057V51.2234H34.7479V49.2667C34.5383 49.593 34.278 49.89 33.9677 50.1579C33.6571 50.4255 33.3078 50.6548 32.9192 50.8448C32.531 51.0351 32.1057 51.1847 31.6441 51.2934C31.1822 51.402 30.691 51.4563 30.171 51.4563C28.9519 51.4563 27.8691 51.2351 26.9219 50.7925C25.9747 50.3499 25.1769 49.7406 24.5286 48.9641C23.8804 48.1879 23.3875 47.2794 23.0496 46.2389C22.7119 45.1987 22.543 44.0769 22.543 42.8732C22.543 41.6694 22.7313 40.5578 23.1079 39.5137C23.4845 38.4695 24.0201 37.561 24.7152 36.7885C25.4101 36.0159 26.2483 35.4067 27.2305 34.9601C28.2127 34.5135 29.3131 34.2903 30.5322 34.2903C31.3241 34.2903 32.0753 34.3816 32.7856 34.5639C33.4961 34.7465 34.1443 35.0065 34.7305 35.3441C35.3165 35.6817 35.8347 36.0896 36.2853 36.5669C36.7352 37.0442 37.1005 37.5744 37.3801 38.1566L34.4219 39.8217C34.2433 39.4647 34.0337 39.1328 33.793 38.8259C33.5521 38.5196 33.2748 38.2553 32.9605 38.034C32.6459 37.8127 32.2869 37.6381 31.8833 37.5101C31.4794 37.3821 31.0292 37.3178 30.5325 37.3178C29.7483 37.3178 29.0728 37.4714 28.5059 37.778C27.939 38.0847 27.4734 38.4903 27.1085 38.9951C26.7435 39.4997 26.4719 40.084 26.2933 40.7478C26.1146 41.4117 26.0253 42.0972 26.0253 42.8032V42.9198H26.0248Z" fill="white"/>
<path d="M48.4615 34.2899C49.7036 34.2899 50.8178 34.5132 51.8039 34.9597C52.7898 35.4063 53.6266 36.0156 54.3138 36.7881C55.0007 37.5606 55.5249 38.4691 55.8859 39.5133C56.2468 40.5575 56.4271 41.6776 56.4271 42.8728C56.4271 44.068 56.2468 45.1983 55.8859 46.2385C55.5249 47.279 55.0007 48.1875 54.3138 48.9637C53.6269 49.74 52.79 50.3495 51.8039 50.7921C50.818 51.2347 49.7036 51.456 48.4615 51.456C47.2193 51.456 46.0952 51.2347 45.1134 50.7921C44.1312 50.3495 43.2967 49.7402 42.6097 48.9637C41.9225 48.1875 41.3986 47.279 41.0377 46.2385C40.6767 45.1983 40.4961 44.0765 40.4961 42.8728C40.4961 41.669 40.6767 40.5575 41.0377 39.5133C41.3986 38.4691 41.9225 37.5606 42.6097 36.7881C43.2967 36.0156 44.1312 35.4063 45.1134 34.9597C46.0955 34.5132 47.2114 34.2899 48.4615 34.2899ZM48.4615 48.4048C49.1913 48.4048 49.8339 48.2671 50.3888 47.9912C50.9438 47.7159 51.4119 47.3333 51.7919 46.8444C52.1725 46.3552 52.4598 45.7769 52.6538 45.109C52.8478 44.4415 52.9451 43.7116 52.9451 42.9197V42.8264C52.9451 42.0422 52.8478 41.3144 52.6538 40.6428C52.4598 39.9712 52.1725 39.3907 51.7919 38.9018C51.4117 38.4128 50.9438 38.0305 50.3888 37.7546C49.8339 37.4793 49.1913 37.3413 48.4615 37.3413C47.7316 37.3413 47.0874 37.4793 46.5282 37.7546C45.9692 38.0305 45.5016 38.4128 45.125 38.9018C44.7484 39.3907 44.4631 39.9715 44.2692 40.6428C44.0752 41.3144 43.9779 42.0422 43.9779 42.8264V42.9197C43.9779 43.7116 44.0752 44.4415 44.2692 45.109C44.4631 45.7769 44.7484 46.3549 45.125 46.8444C45.5016 47.3333 45.9692 47.7159 46.5282 47.9912C47.0874 48.2671 47.7316 48.4048 48.4615 48.4048Z" fill="white"/>
<path d="M62.3806 51.223L57.6641 34.5231H61.4491L64.6752 47.077H64.7915L67.9476 34.5231H71.6857L66.9691 51.223H62.3809H62.3806Z" fill="white"/>
<path d="M90.8149 48.4048C91.3038 48.4048 91.76 48.3332 92.183 48.1895C92.6062 48.0459 92.9712 47.8286 93.2778 47.5373C93.5841 47.246 93.827 46.8777 94.0057 46.4308C94.184 45.9846 94.2733 45.4586 94.2733 44.8531V34.4995H97.5924V45.3534C97.5924 46.2852 97.4237 47.1277 97.0864 47.8806C96.7491 48.6338 96.2797 49.2744 95.6784 49.8023C95.0771 50.3305 94.3615 50.7378 93.5318 51.0251C92.7018 51.3121 91.7942 51.456 90.8092 51.456C89.8242 51.456 88.9162 51.3121 88.0865 51.0251C87.2563 50.7378 86.5389 50.3302 85.9336 49.8023C85.3283 49.2744 84.8573 48.6341 84.5197 47.8806C84.1823 47.1277 84.0137 46.2849 84.0137 45.3534V34.4995H87.3561V44.8528C87.3561 45.4584 87.4454 45.9843 87.6237 46.4306C87.8024 46.8774 88.045 47.2458 88.3516 47.537C88.6582 47.8283 89.0232 48.0456 89.4464 48.1892C89.8697 48.3329 90.3259 48.4046 90.8149 48.4046V48.4048Z" fill="white"/>
<path d="M100.588 34.5228H103.965V41.7547L109.928 34.5228H114.086L108.286 41.1607L114.458 51.2227H110.534L106.12 43.7343L103.965 46.1449V51.2227H100.588V34.5228Z" fill="white"/>
<path d="M63.0599 76.1907V79.4075H62.2102V75.2063H63.4085L65.0901 78.0276V75.2063H65.9398V79.4075H65.0052L63.0599 76.1907ZM66.8216 75.2063H69.6517V75.9768H67.6712V76.8704H69.4964V77.638H67.6712V78.6399H69.7659V79.4075H66.8216V75.2063ZM73.8558 78.1067H73.8675L74.4388 75.2063H75.3617L74.4242 79.4075H73.3812L72.7455 76.3958L72.1214 79.4075H71.0843L70.1468 75.2063H71.0726L71.6234 78.1067H71.6351L72.2767 75.2063H73.2318L73.8558 78.1067ZM57.4407 86.2268C57.4954 86.2893 57.5618 86.3509 57.6399 86.4114C57.718 86.4719 57.804 86.5266 57.8977 86.5755C57.9934 86.6223 58.0969 86.6604 58.2083 86.6897C58.3196 86.7171 58.4397 86.7307 58.5686 86.7307C58.8089 86.7307 58.9924 86.6809 59.1194 86.5813C59.2483 86.4798 59.3128 86.3567 59.3128 86.2122C59.3128 86.0618 59.2561 85.9475 59.1428 85.8694C59.0315 85.7913 58.8538 85.7298 58.6096 85.6848L58.4778 85.6614C58.302 85.6301 58.1272 85.5891 57.9534 85.5383C57.7795 85.4876 57.6223 85.4143 57.4817 85.3186C57.3411 85.2229 57.2268 85.1008 57.1389 84.9524C57.051 84.802 57.0071 84.6126 57.0071 84.384C57.0071 84.2512 57.0364 84.1126 57.095 83.968C57.1536 83.8215 57.2463 83.6878 57.3733 83.5667C57.5022 83.4436 57.6672 83.343 57.8684 83.2649C58.0715 83.1868 58.3167 83.1477 58.6038 83.1477C58.9436 83.1477 59.2464 83.2044 59.512 83.3176C59.7796 83.429 59.9954 83.5764 60.1594 83.76L59.594 84.2874C59.4788 84.1604 59.3303 84.0608 59.1487 83.9885C58.969 83.9163 58.7835 83.8801 58.5921 83.8801C58.3713 83.8801 58.1985 83.9221 58.0735 84.0061C57.9504 84.0901 57.8889 84.1995 57.8889 84.3342C57.8889 84.4221 57.9085 84.4954 57.9475 84.554C57.9885 84.6126 58.0452 84.6614 58.1174 84.7005C58.1897 84.7376 58.2766 84.7688 58.3782 84.7942C58.4797 84.8196 58.593 84.845 58.718 84.8704L58.7854 84.8821C58.9534 84.9133 59.1204 84.9534 59.2864 85.0022C59.4524 85.0491 59.6028 85.1194 59.7376 85.2132C59.8743 85.3049 59.9846 85.426 60.0686 85.5764C60.1526 85.7249 60.1946 85.9153 60.1946 86.1477C60.1946 86.3587 60.1507 86.5452 60.0628 86.7073C59.9749 86.8694 59.8587 87.0081 59.7141 87.1233C59.5696 87.2366 59.4026 87.3225 59.2131 87.3811C59.0237 87.4378 58.8264 87.4661 58.6213 87.4661C58.4143 87.4661 58.2219 87.4485 58.0442 87.4134C57.8684 87.3782 57.7083 87.3284 57.5637 87.2639C57.4211 87.1995 57.2932 87.1272 57.1799 87.0471C57.0686 86.9671 56.9709 86.8811 56.887 86.7893L57.4407 86.2268ZM61.4544 83.2063L62.3069 84.8264H62.3186L63.1888 83.2063H64.1409L62.7376 85.6966V87.4075H61.8792V85.6966L60.4759 83.2063H61.4544ZM66.6751 86.051L65.4329 84.4983V87.4075H64.5833V83.2063H65.4446L66.6868 84.8469L67.9671 83.2063H68.7933V87.4075H67.9407V84.4983L66.7044 86.051H66.6751ZM71.5443 83.2063C71.7201 83.2063 71.8831 83.2327 72.0335 83.2854C72.1839 83.3362 72.3148 83.4094 72.4261 83.5051C72.5374 83.6008 72.6244 83.717 72.6869 83.8538C72.7494 83.9885 72.7806 84.1389 72.7806 84.3049C72.7806 84.3909 72.7679 84.4758 72.7425 84.5598C72.7191 84.6438 72.6839 84.7229 72.6371 84.7971C72.5902 84.8694 72.5335 84.9358 72.4671 84.9964C72.4007 85.0569 72.3255 85.1067 72.2415 85.1458C72.3099 85.1692 72.389 85.2044 72.4789 85.2512C72.5706 85.2981 72.6576 85.3626 72.7396 85.4446C72.8216 85.5266 72.891 85.6282 72.9476 85.7493C73.0042 85.8684 73.0326 86.013 73.0326 86.1829C73.0326 86.3958 72.9915 86.5794 72.9095 86.7337C72.8294 86.888 72.7201 87.0149 72.5814 87.1145C72.4447 87.2141 72.2835 87.2884 72.098 87.3372C71.9144 87.3841 71.7201 87.4075 71.515 87.4075H69.6751V83.2063H71.5443ZM72.1624 86.1536C72.1624 86.0403 72.1419 85.9475 72.1009 85.8753C72.0599 85.803 72.0052 85.7454 71.9369 85.7024C71.8704 85.6594 71.7943 85.6301 71.7083 85.6145C71.6224 85.5969 71.5345 85.5882 71.4447 85.5882H70.5247V86.7366H71.4447C71.5345 86.7366 71.6224 86.7278 71.7083 86.7102C71.7943 86.6927 71.8704 86.6614 71.9369 86.6165C72.0052 86.5716 72.0599 86.512 72.1009 86.4378C72.1419 86.3635 72.1624 86.2688 72.1624 86.1536ZM71.9251 84.3899C71.9251 84.2297 71.8744 84.1047 71.7728 84.0149C71.6712 83.9251 71.5072 83.8801 71.2806 83.8801H70.5247V84.8704H71.2806C71.5033 84.8704 71.6663 84.8284 71.7699 84.7444C71.8734 84.6585 71.9251 84.5403 71.9251 84.3899ZM75.4642 83.1477C75.7767 83.1477 76.057 83.2044 76.305 83.3176C76.5531 83.429 76.7631 83.5823 76.9349 83.7776C77.1088 83.971 77.2406 84.1995 77.3304 84.4631C77.4222 84.7249 77.4681 85.0061 77.4681 85.3069C77.4681 85.6096 77.4222 85.8919 77.3304 86.1536C77.2406 86.4153 77.1088 86.6438 76.9349 86.8391C76.7631 87.0345 76.5531 87.1878 76.305 87.2991C76.057 87.4104 75.7767 87.4661 75.4642 87.4661C75.1498 87.4661 74.8685 87.4104 74.6205 87.2991C74.3744 87.1878 74.1644 87.0345 73.9906 86.8391C73.8187 86.6438 73.6869 86.4153 73.5951 86.1536C73.5052 85.8919 73.4603 85.6096 73.4603 85.3069C73.4603 85.0061 73.5052 84.7249 73.5951 84.4631C73.6869 84.1995 73.8187 83.971 73.9906 83.7776C74.1644 83.5823 74.3744 83.429 74.6205 83.3176C74.8685 83.2044 75.1498 83.1477 75.4642 83.1477ZM75.4642 86.6985C75.6478 86.6985 75.809 86.6643 75.9476 86.596C76.0882 86.5257 76.2064 86.429 76.3021 86.3059C76.3978 86.1829 76.4701 86.0374 76.5189 85.8694C76.5677 85.7014 76.5922 85.5178 76.5922 85.3186V85.2952C76.5922 85.0979 76.5677 84.9153 76.5189 84.7473C76.4701 84.5774 76.3978 84.4309 76.3021 84.3079C76.2064 84.1848 76.0882 84.0891 75.9476 84.0208C75.809 83.9504 75.6478 83.9153 75.4642 83.9153C75.2806 83.9153 75.1185 83.9504 74.9779 84.0208C74.8373 84.0891 74.7191 84.1848 74.6234 84.3079C74.5296 84.4309 74.4584 84.5774 74.4095 84.7473C74.3607 84.9153 74.3363 85.0979 74.3363 85.2952V85.3186C74.3363 85.5178 74.3607 85.7014 74.4095 85.8694C74.4584 86.0374 74.5296 86.1829 74.6234 86.3059C74.7191 86.429 74.8373 86.5257 74.9779 86.596C75.1185 86.6643 75.2806 86.6985 75.4642 86.6985ZM78.1303 83.2063H78.9799V86.6223H80.6439V87.4075H78.1303V83.2063ZM53.3508 93.3186C53.3508 93.4983 53.3733 93.6712 53.4182 93.8372C53.4631 94.0032 53.5315 94.1497 53.6233 94.2766C53.7151 94.4036 53.8323 94.5061 53.9748 94.5843C54.1174 94.6604 54.2873 94.6985 54.4846 94.6985C54.6741 94.6985 54.8313 94.6682 54.9563 94.6077C55.0832 94.5471 55.1838 94.4719 55.258 94.3821C55.3342 94.2903 55.387 94.1917 55.4163 94.0862C55.4475 93.9807 55.4631 93.8831 55.4631 93.7932V93.7522H54.3879V93.1048H56.2893V95.4075H55.5452V94.9153C55.4924 94.9973 55.427 95.0725 55.3489 95.1409C55.2707 95.2073 55.1829 95.2649 55.0852 95.3138C54.9875 95.3606 54.8801 95.3977 54.7629 95.4251C54.6477 95.4524 54.5246 95.4661 54.3938 95.4661C54.0871 95.4661 53.8147 95.4104 53.5764 95.2991C53.3381 95.1878 53.1369 95.0345 52.9729 94.8391C52.8108 94.6438 52.6867 94.4153 52.6008 94.1536C52.5168 93.8919 52.4748 93.6096 52.4748 93.3069C52.4748 93.0061 52.5217 92.7249 52.6155 92.4631C52.7112 92.1995 52.8459 91.971 53.0198 91.7776C53.1955 91.5823 53.4065 91.429 53.6526 91.3176C53.9006 91.2044 54.178 91.1477 54.4846 91.1477C54.6838 91.1477 54.8723 91.1711 55.05 91.218C55.2297 91.2629 55.3928 91.3284 55.5393 91.4143C55.6877 91.4983 55.8186 91.6008 55.9319 91.7219C56.0452 91.8411 56.137 91.9739 56.2073 92.1204L55.4631 92.5393C55.4182 92.4495 55.3655 92.3665 55.3049 92.2903C55.2444 92.2122 55.1741 92.1458 55.094 92.0911C55.0159 92.0344 54.926 91.9905 54.8245 91.9592C54.7229 91.926 54.6096 91.9094 54.4846 91.9094C54.2873 91.9094 54.1174 91.9485 53.9748 92.0266C53.8323 92.1028 53.7151 92.2044 53.6233 92.3313C53.5315 92.4583 53.4631 92.6057 53.4182 92.7737C53.3733 92.9397 53.3508 93.1116 53.3508 93.2893V93.3186ZM58.8323 91.1477C59.1448 91.1477 59.4251 91.2044 59.6731 91.3176C59.9212 91.429 60.1311 91.5823 60.303 91.7776C60.4768 91.971 60.6087 92.1995 60.6985 92.4631C60.7903 92.7249 60.8362 93.0061 60.8362 93.3069C60.8362 93.6096 60.7903 93.8919 60.6985 94.1536C60.6087 94.4153 60.4768 94.6438 60.303 94.8391C60.1311 95.0345 59.9212 95.1878 59.6731 95.2991C59.4251 95.4104 59.1448 95.4661 58.8323 95.4661C58.5178 95.4661 58.2366 95.4104 57.9885 95.2991C57.7424 95.1878 57.5325 95.0345 57.3586 94.8391C57.1868 94.6438 57.0549 94.4153 56.9631 94.1536C56.8733 93.8919 56.8284 93.6096 56.8284 93.3069C56.8284 93.0061 56.8733 92.7249 56.9631 92.4631C57.0549 92.1995 57.1868 91.971 57.3586 91.7776C57.5325 91.5823 57.7424 91.429 57.9885 91.3176C58.2366 91.2044 58.5178 91.1477 58.8323 91.1477ZM58.8323 94.6985C59.0159 94.6985 59.177 94.6643 59.3157 94.596C59.4563 94.5257 59.5745 94.429 59.6702 94.3059C59.7659 94.1829 59.8382 94.0374 59.887 93.8694C59.9358 93.7014 59.9602 93.5178 59.9602 93.3186V93.2952C59.9602 93.0979 59.9358 92.9153 59.887 92.7473C59.8382 92.5774 59.7659 92.4309 59.6702 92.3079C59.5745 92.1848 59.4563 92.0891 59.3157 92.0208C59.177 91.9504 59.0159 91.9153 58.8323 91.9153C58.6487 91.9153 58.4866 91.9504 58.346 92.0208C58.2053 92.0891 58.0872 92.1848 57.9915 92.3079C57.8977 92.4309 57.8264 92.5774 57.7776 92.7473C57.7288 92.9153 57.7044 93.0979 57.7044 93.2952V93.3186C57.7044 93.5178 57.7288 93.7014 57.7776 93.8694C57.8264 94.0374 57.8977 94.1829 57.9915 94.3059C58.0872 94.429 58.2053 94.5257 58.346 94.596C58.4866 94.6643 58.6487 94.6985 58.8323 94.6985ZM61.4983 91.2063H64.3284V91.9768H62.3479V92.8704H64.1731V93.638H62.3479V94.6399H64.4427V95.4075H61.4983V91.2063ZM65.3948 94.2268C65.4495 94.2893 65.5159 94.3509 65.594 94.4114C65.6722 94.4719 65.7581 94.5266 65.8519 94.5755C65.9476 94.6223 66.0511 94.6604 66.1624 94.6897C66.2737 94.7171 66.3939 94.7307 66.5228 94.7307C66.763 94.7307 66.9466 94.6809 67.0735 94.5813C67.2025 94.4798 67.2669 94.3567 67.2669 94.2122C67.2669 94.0618 67.2103 93.9475 67.097 93.8694C66.9857 93.7913 66.8079 93.7298 66.5638 93.6848L66.4319 93.6614C66.2562 93.6301 66.0814 93.5891 65.9075 93.5383C65.7337 93.4876 65.5765 93.4143 65.4358 93.3186C65.2952 93.2229 65.181 93.1008 65.0931 92.9524C65.0052 92.802 64.9612 92.6126 64.9612 92.384C64.9612 92.2512 64.9905 92.1126 65.0491 91.968C65.1077 91.8215 65.2005 91.6878 65.3274 91.5667C65.4564 91.4436 65.6214 91.343 65.8226 91.2649C66.0257 91.1868 66.2708 91.1477 66.5579 91.1477C66.8978 91.1477 67.2005 91.2044 67.4661 91.3176C67.7337 91.429 67.9495 91.5764 68.1136 91.76L67.5482 92.2874C67.4329 92.1604 67.2845 92.0608 67.1028 91.9885C66.9232 91.9163 66.7376 91.8801 66.5462 91.8801C66.3255 91.8801 66.1526 91.9221 66.0276 92.0061C65.9046 92.0901 65.8431 92.1995 65.8431 92.3342C65.8431 92.4221 65.8626 92.4954 65.9017 92.554C65.9427 92.6126 65.9993 92.6614 66.0716 92.7005C66.1439 92.7376 66.2308 92.7688 66.3323 92.7942C66.4339 92.8196 66.5472 92.845 66.6722 92.8704L66.7396 92.8821C66.9075 92.9133 67.0745 92.9534 67.2405 93.0022C67.4066 93.0491 67.5569 93.1194 67.6917 93.2132C67.8284 93.3049 67.9388 93.426 68.0228 93.5764C68.1068 93.7249 68.1487 93.9153 68.1487 94.1477C68.1487 94.3587 68.1048 94.5452 68.0169 94.7073C67.929 94.8694 67.8128 95.0081 67.6683 95.1233C67.5237 95.2366 67.3568 95.3225 67.1673 95.3811C66.9778 95.4378 66.7806 95.4661 66.5755 95.4661C66.3685 95.4661 66.1761 95.4485 65.9983 95.4134C65.8226 95.3782 65.6624 95.3284 65.5179 95.2639C65.3753 95.1995 65.2474 95.1272 65.1341 95.0471C65.0228 94.9671 64.9251 94.8811 64.8411 94.7893L65.3948 94.2268ZM72.6517 93.638H70.8031V95.4075H69.9534V91.2063H70.8031V92.8704H72.6517V91.2063H73.5042V95.4075H72.6517V93.638ZM74.3832 91.2063H77.2133V91.9768H75.2328V92.8704H77.058V93.638H75.2328V94.6399H77.3275V95.4075H74.3832V91.2063ZM77.9984 91.2063H79.6244C79.8744 91.2063 80.0951 91.2424 80.2865 91.3147C80.4779 91.387 80.6381 91.4837 80.767 91.6047C80.8959 91.7258 80.9936 91.8655 81.06 92.0237C81.1264 92.1799 81.1596 92.344 81.1596 92.5159C81.1596 92.6546 81.1381 92.7864 81.0951 92.9114C81.0541 93.0344 80.9965 93.1467 80.9223 93.2483C80.85 93.3479 80.7641 93.4348 80.6644 93.5091C80.5648 93.5813 80.4574 93.638 80.3422 93.679L81.2621 95.4075H80.2836L79.5219 93.8958H78.848V95.4075H77.9984V91.2063ZM80.2719 92.5452C80.2719 92.4612 80.2562 92.3831 80.225 92.3108C80.1957 92.2385 80.1498 92.176 80.0873 92.1233C80.0267 92.0706 79.9506 92.0296 79.8588 92.0003C79.767 91.971 79.6605 91.9563 79.5394 91.9563H78.848V93.1399H79.5394C79.6605 93.1399 79.767 93.1253 79.8588 93.096C79.9506 93.0647 80.0267 93.0227 80.0873 92.97C80.1498 92.9153 80.1957 92.8518 80.225 92.7796C80.2562 92.7073 80.2719 92.6292 80.2719 92.5452ZM81.8598 91.2063H84.6899V91.9768H82.7094V92.8704H84.5346V93.638H82.7094V94.6399H84.8041V95.4075H81.8598V91.2063Z" fill="#8EB8DC"/>
<rect x="45.8398" y="63.1279" width="45.6033" height="45.6033" stroke="#8EB8DC" stroke-width="1.00001" stroke-dasharray="2 2"/>
</svg>
