<svg width="137" height="137" viewBox="0 0 137 137" fill="none" xmlns="http://www.w3.org/2000/svg">
<rect width="137" height="137" rx="30.41" fill="#1D70B8"/>
<path d="M76.9893 45.6924C78.5463 45.6924 79.8086 44.4302 79.8086 42.8731C79.8086 41.316 78.5463 40.0537 76.9893 40.0537C75.4322 40.0537 74.1699 41.316 74.1699 42.8731C74.1699 44.4302 75.4322 45.6924 76.9893 45.6924Z" fill="#00FFE0"/>
<path d="M26.0248 42.9198C26.0248 43.634 26.1141 44.3212 26.2927 44.9811C26.471 45.641 26.7427 46.2233 27.1079 46.7279C27.4728 47.2327 27.9385 47.6383 28.5053 47.945C29.0722 48.2516 29.7478 48.4052 30.532 48.4052C31.3161 48.4052 31.912 48.2849 32.4129 48.0442C32.9135 47.8036 33.3135 47.5027 33.6124 47.1414C33.9111 46.7805 34.1207 46.3905 34.2413 45.9713C34.3616 45.552 34.4216 45.1637 34.4216 44.8065V44.6435H30.1477V42.0699H37.7057V51.2234H34.7479V49.2667C34.5383 49.593 34.278 49.89 33.9677 50.1579C33.6571 50.4255 33.3078 50.6548 32.9192 50.8448C32.531 51.0351 32.1057 51.1847 31.6441 51.2934C31.1822 51.402 30.691 51.4563 30.171 51.4563C28.9519 51.4563 27.8691 51.2351 26.9219 50.7925C25.9747 50.3499 25.1769 49.7406 24.5286 48.9641C23.8804 48.1879 23.3875 47.2794 23.0496 46.2389C22.7119 45.1987 22.543 44.0769 22.543 42.8732C22.543 41.6694 22.7313 40.5578 23.1079 39.5137C23.4845 38.4695 24.0201 37.561 24.7152 36.7885C25.4101 36.0159 26.2483 35.4067 27.2305 34.9601C28.2127 34.5135 29.3131 34.2903 30.5322 34.2903C31.3241 34.2903 32.0753 34.3816 32.7856 34.5639C33.4961 34.7465 34.1443 35.0065 34.7305 35.3441C35.3165 35.6817 35.8347 36.0896 36.2853 36.5669C36.7352 37.0442 37.1005 37.5744 37.3801 38.1566L34.4219 39.8217C34.2433 39.4647 34.0337 39.1328 33.793 38.8259C33.5521 38.5196 33.2748 38.2553 32.9605 38.034C32.6459 37.8127 32.2869 37.6381 31.8833 37.5101C31.4794 37.3821 31.0292 37.3178 30.5325 37.3178C29.7483 37.3178 29.0728 37.4714 28.5059 37.778C27.939 38.0847 27.4734 38.4903 27.1085 38.9951C26.7435 39.4997 26.4719 40.084 26.2933 40.7478C26.1146 41.4117 26.0253 42.0972 26.0253 42.8032V42.9198H26.0248Z" fill="white"/>
<path d="M48.4615 34.2899C49.7036 34.2899 50.8178 34.5132 51.8039 34.9597C52.7898 35.4063 53.6266 36.0156 54.3138 36.7881C55.0007 37.5606 55.5249 38.4691 55.8859 39.5133C56.2468 40.5575 56.4271 41.6776 56.4271 42.8728C56.4271 44.068 56.2468 45.1983 55.8859 46.2385C55.5249 47.279 55.0007 48.1875 54.3138 48.9637C53.6269 49.74 52.79 50.3495 51.8039 50.7921C50.818 51.2347 49.7036 51.456 48.4615 51.456C47.2193 51.456 46.0952 51.2347 45.1134 50.7921C44.1312 50.3495 43.2967 49.7402 42.6097 48.9637C41.9225 48.1875 41.3986 47.279 41.0377 46.2385C40.6767 45.1983 40.4961 44.0765 40.4961 42.8728C40.4961 41.669 40.6767 40.5575 41.0377 39.5133C41.3986 38.4691 41.9225 37.5606 42.6097 36.7881C43.2967 36.0156 44.1312 35.4063 45.1134 34.9597C46.0955 34.5132 47.2114 34.2899 48.4615 34.2899ZM48.4615 48.4048C49.1913 48.4048 49.8339 48.2671 50.3888 47.9912C50.9438 47.7159 51.4119 47.3333 51.7919 46.8444C52.1725 46.3552 52.4598 45.7769 52.6538 45.109C52.8478 44.4415 52.9451 43.7116 52.9451 42.9197V42.8264C52.9451 42.0422 52.8478 41.3144 52.6538 40.6428C52.4598 39.9712 52.1725 39.3907 51.7919 38.9018C51.4117 38.4128 50.9438 38.0305 50.3888 37.7546C49.8339 37.4793 49.1913 37.3413 48.4615 37.3413C47.7316 37.3413 47.0874 37.4793 46.5282 37.7546C45.9692 38.0305 45.5016 38.4128 45.125 38.9018C44.7484 39.3907 44.4631 39.9715 44.2692 40.6428C44.0752 41.3144 43.9779 42.0422 43.9779 42.8264V42.9197C43.9779 43.7116 44.0752 44.4415 44.2692 45.109C44.4631 45.7769 44.7484 46.3549 45.125 46.8444C45.5016 47.3333 45.9692 47.7159 46.5282 47.9912C47.0874 48.2671 47.7316 48.4048 48.4615 48.4048Z" fill="white"/>
<path d="M62.3806 51.223L57.6641 34.5231H61.4491L64.6752 47.077H64.7915L67.9476 34.5231H71.6857L66.9691 51.223H62.3809H62.3806Z" fill="white"/>
<path d="M90.8149 48.4048C91.3038 48.4048 91.76 48.3332 92.183 48.1895C92.6062 48.0459 92.9712 47.8286 93.2778 47.5373C93.5841 47.246 93.827 46.8777 94.0057 46.4308C94.184 45.9846 94.2733 45.4586 94.2733 44.8531V34.4995H97.5924V45.3534C97.5924 46.2852 97.4237 47.1277 97.0864 47.8806C96.7491 48.6338 96.2797 49.2744 95.6784 49.8023C95.0771 50.3305 94.3615 50.7378 93.5318 51.0251C92.7018 51.3121 91.7942 51.456 90.8092 51.456C89.8242 51.456 88.9162 51.3121 88.0865 51.0251C87.2563 50.7378 86.5389 50.3302 85.9336 49.8023C85.3283 49.2744 84.8573 48.6341 84.5197 47.8806C84.1823 47.1277 84.0137 46.2849 84.0137 45.3534V34.4995H87.3561V44.8528C87.3561 45.4584 87.4454 45.9843 87.6237 46.4306C87.8024 46.8774 88.045 47.2458 88.3516 47.537C88.6582 47.8283 89.0232 48.0456 89.4464 48.1892C89.8697 48.3329 90.3259 48.4046 90.8149 48.4046V48.4048Z" fill="white"/>
<path d="M100.588 34.5228H103.965V41.7547L109.928 34.5228H114.086L108.286 41.1607L114.458 51.2227H110.534L106.12 43.7343L103.965 46.1449V51.2227H100.588V34.5228Z" fill="white"/>
<path d="M59.4814 78.9114C61.0385 78.9114 62.3008 77.6492 62.3008 76.0921C62.3008 74.535 61.0385 73.2728 59.4814 73.2728C57.9244 73.2728 56.6621 74.535 56.6621 76.0921C56.6621 77.6492 57.9244 78.9114 59.4814 78.9114Z" fill="white"/>
<path d="M51.8974 83.4544C53.4545 83.4544 54.7168 82.1921 54.7168 80.635C54.7168 79.078 53.4545 77.8157 51.8974 77.8157C50.3404 77.8157 49.0781 79.078 49.0781 80.635C49.0781 82.1921 50.3404 83.4544 51.8974 83.4544Z" fill="white"/>
<path d="M46.8799 90.9251C48.4369 90.9251 49.6992 89.6629 49.6992 88.1058C49.6992 86.5487 48.4369 85.2865 46.8799 85.2865C45.3228 85.2865 44.0605 86.5487 44.0605 88.1058C44.0605 89.6629 45.3228 90.9251 46.8799 90.9251Z" fill="white"/>
<path d="M68.501 88.9511C70.058 88.9511 71.3203 87.6888 71.3203 86.1318C71.3203 84.5747 70.058 83.3124 68.501 83.3124C66.9439 83.3124 65.6816 84.5747 65.6816 86.1318C65.6816 87.6888 66.9439 88.9511 68.501 88.9511Z" fill="white"/>
<path d="M77.5088 78.9114C79.0658 78.9114 80.3281 77.6491 80.3281 76.0921C80.3281 74.535 79.0658 73.2728 77.5088 73.2728C75.9517 73.2728 74.6895 74.535 74.6895 76.0921C74.6895 77.6491 75.9517 78.9114 77.5088 78.9114Z" fill="white"/>
<path d="M85.0947 83.4544C86.6518 83.4544 87.914 82.1921 87.914 80.635C87.914 79.078 86.6518 77.8157 85.0947 77.8157C83.5376 77.8157 82.2754 79.078 82.2754 80.635C82.2754 82.1921 83.5376 83.4544 85.0947 83.4544Z" fill="white"/>
<path d="M90.1123 90.9251C91.6694 90.9251 92.9316 89.6629 92.9316 88.1058C92.9316 86.5487 91.6694 85.2865 90.1123 85.2865C88.5552 85.2865 87.293 86.5487 87.293 88.1058C87.293 89.6629 88.5552 90.9251 90.1123 90.9251Z" fill="white"/>
<path d="M68.501 88.9511C70.058 88.9511 71.3203 87.6888 71.3203 86.1318C71.3203 84.5747 70.058 83.3124 68.501 83.3124C66.9439 83.3124 65.6816 84.5747 65.6816 86.1318C65.6816 87.6888 66.9439 88.9511 68.501 88.9511Z" fill="white"/>
<path d="M69.6368 70.0541C69.7794 69.9469 69.906 69.8203 70.0132 69.6777L73.5997 71.5605V66.2743L70.0184 67.4111C69.914 67.2713 69.7902 67.1464 69.6516 67.0397L71.0929 62.5002H65.9072L67.3485 67.0397C67.2099 67.1458 67.0867 67.2707 66.9817 67.4111L63.4004 66.2743V71.5605L66.9869 69.6777C67.0941 69.8203 67.2207 69.9469 67.3633 70.0541L65.3202 76.2147C64.601 78.3832 66.2157 80.6196 68.5 80.6196C70.7844 80.6196 72.3991 78.3832 71.6798 76.2147L69.6368 70.0541Z" fill="white"/>
<path d="M72.5995 91.7464C72.5995 91.7464 69.9809 94.6604 69.4094 96.4382C71.1234 96.384 72.6634 96.0503 74.3579 94.2811L73.7836 100.864C72.2236 98.6752 70.3944 97.7318 69.3803 97.9206C69.483 100.28 69.73 103.129 73.8606 103.504C76.7426 103.755 79.0566 102.339 79.2973 100.588C79.5831 98.5754 77.7699 97.2441 76.4027 99.3625C75.3338 95.857 78.2866 94.6917 80.1831 96.862C78.7229 93.4027 78.7617 90.945 82.0094 88.4599C84.3393 91.5576 84.0091 94.1179 81.1208 97.0006C83.0013 95.9602 85.9215 97.0548 84.2013 100.569C83.303 98.3831 81.374 98.8714 80.9696 100.752C80.6998 102.08 81.5058 103.643 83.2579 103.964C84.6958 104.227 86.91 103.245 88.685 99.4218C87.6868 99.4475 86.8107 99.9517 85.678 100.731L87.5397 94.5252C88.0085 96.2671 88.6085 97.4107 89.2439 98.0289C89.6706 96.7753 89.6095 95.8661 89.2279 93.9126L93.0762 95.2826C91.032 98.0712 89.0517 101.984 87.4279 108.819C81.7025 108.001 75.2933 107.542 68.502 107.542C61.7112 107.542 55.3014 108.002 49.5761 108.819C47.9522 101.984 45.9719 98.0706 43.9277 95.2826L47.776 93.9126C47.3939 95.8661 47.3334 96.7753 47.76 98.0289C48.3954 97.4107 48.9954 96.2671 49.4643 94.5252L51.326 100.731C50.1932 99.9511 49.3171 99.4475 48.319 99.4218C50.094 103.245 52.3081 104.227 53.746 103.964C55.4982 103.643 56.3035 102.08 56.0343 100.752C55.6299 98.8714 53.7015 98.3831 52.8026 100.569C51.0824 97.0548 54.0027 95.9597 55.8832 97.0006C52.9948 94.1179 52.664 91.557 54.9946 88.4599C58.2422 90.9444 58.281 93.4021 56.8209 96.862C58.7173 94.6923 61.6701 95.857 60.6013 99.3625C59.2341 97.2441 57.4209 98.5754 57.7066 100.588C57.9473 102.34 60.2613 103.755 63.1434 103.504C67.274 103.129 67.5209 100.28 67.6236 97.9206C66.6095 97.7318 64.7803 98.6746 63.2204 100.864L62.646 94.2811C64.3406 96.0503 65.8811 96.3834 67.5945 96.4382C67.023 94.6604 64.4045 91.7464 64.4045 91.7464H72.6018H72.5995Z" fill="white"/>
</svg>
