<svg width="257" height="193" viewBox="0 0 257 193" fill="none" xmlns="http://www.w3.org/2000/svg">
<rect x="0.5" y="0.5" width="256" height="191.85" fill="#1D70B8" stroke="white"/>
<g clip-path="url(#clip0_161_1057)">
<path d="M118.531 88.3712C118.531 87.0596 119.599 85.992 120.911 85.992C122.223 85.992 123.29 87.0591 123.29 88.3712C123.29 89.6833 122.223 90.7505 120.911 90.7505C119.599 90.7505 118.531 89.6833 118.531 88.3712ZM114.526 94.5743C115.838 94.5743 116.905 93.5072 116.905 92.1951C116.905 90.883 115.838 89.8159 114.526 89.8159C113.214 89.8159 112.147 90.883 112.147 92.1951C112.147 93.5072 113.214 94.5743 114.526 94.5743ZM110.302 100.862C111.614 100.862 112.681 99.7953 112.681 98.4832C112.681 97.1711 111.614 96.104 110.302 96.104C108.99 96.104 107.923 97.1716 107.923 98.4832C107.923 99.7948 108.99 100.862 110.302 100.862ZM136.084 90.7505C137.395 90.7505 138.463 89.6833 138.463 88.3712C138.463 87.0591 137.396 85.992 136.084 85.992C134.772 85.992 133.705 87.0591 133.705 88.3712C133.705 89.6833 134.772 90.7505 136.084 90.7505ZM142.468 94.5743C143.78 94.5743 144.848 93.5072 144.848 92.1951C144.848 90.883 143.78 89.8159 142.468 89.8159C141.156 89.8159 140.089 90.883 140.089 92.1951C140.089 93.5072 141.156 94.5743 142.468 94.5743ZM146.692 100.862C148.004 100.862 149.072 99.7953 149.072 98.4832C149.072 97.1711 148.004 96.104 146.692 96.104C145.38 96.104 144.313 97.1711 144.313 98.4832C144.313 99.7953 145.38 100.862 146.692 100.862ZM128.501 94.4428C127.189 94.4428 126.122 95.5099 126.122 96.822C126.122 98.1341 127.189 99.2012 128.501 99.2012C129.813 99.2012 130.88 98.1341 130.88 96.822C130.88 95.5099 129.813 94.4428 128.501 94.4428ZM127.536 83.2919L125.819 88.473C125.529 89.3447 125.672 90.2721 126.209 91.0165C126.747 91.7614 127.582 92.1884 128.501 92.1884C129.42 92.1884 130.254 91.7614 130.792 91.0165C131.33 90.2716 131.472 89.3447 131.183 88.473L129.465 83.2919C129.583 83.2026 129.688 83.0979 129.776 82.9807L132.791 84.5632L132.799 84.568V80.1006L129.781 81.0582C129.694 80.943 129.592 80.8397 129.477 80.7508L130.689 76.9327L130.691 76.925H126.31L127.524 80.7499C127.409 80.8387 127.307 80.942 127.221 81.0573L124.202 80.0996V84.567L127.225 82.9802C127.314 83.0974 127.419 83.2021 127.536 83.2915V83.2919ZM145.948 103.366L145.938 103.363L145.94 103.373C146.26 105.011 146.311 105.78 145.957 106.826C145.393 106.272 144.9 105.256 144.531 103.886L144.526 103.866L142.953 109.11L142.948 109.126L142.962 109.117C143.972 108.421 144.673 108.04 145.481 108.016C144.013 111.171 142.164 112.054 140.923 111.826C140.074 111.67 139.6 111.2 139.351 110.832C139.011 110.33 138.884 109.71 139.002 109.129C139.168 108.355 139.655 107.821 140.243 107.769C140.517 107.744 140.792 107.831 141.037 108.019C141.31 108.228 141.536 108.55 141.712 108.976L141.717 108.989L141.723 108.977C142.538 107.312 142.044 106.479 141.678 106.131C141.382 105.849 140.957 105.679 140.483 105.652C140.032 105.626 139.563 105.73 139.157 105.946C140.374 104.723 141.027 103.578 141.151 102.444C141.278 101.286 140.861 100.087 139.877 98.7781L139.873 98.7733L139.868 98.7772C139.187 99.2982 138.675 99.8145 138.301 100.356C137.938 100.883 137.712 101.423 137.611 102.009C137.431 103.057 137.648 104.234 138.315 105.823C137.938 105.4 137.495 105.112 137.032 104.99C136.59 104.873 136.151 104.918 135.794 105.116C135.424 105.321 135.163 105.673 135.038 106.134C134.9 106.643 134.938 107.274 135.147 107.96L135.151 107.973L135.158 107.962C135.408 107.575 135.685 107.308 135.98 107.167C136.244 107.042 136.515 107.025 136.764 107.118C137.045 107.223 137.282 107.461 137.434 107.789C137.594 108.137 137.646 108.552 137.584 108.989C137.534 109.352 137.38 109.699 137.126 110.022C136.876 110.339 136.541 110.616 136.133 110.844C135.268 111.327 134.161 111.539 133.014 111.439C131.464 111.299 130.432 110.736 129.862 109.719C129.379 108.856 129.296 107.822 129.249 106.751C129.404 106.722 129.568 106.724 129.738 106.749C129.949 106.783 130.18 106.855 130.426 106.966C131.319 107.38 132.27 108.282 132.944 109.226L132.954 109.24L133.439 103.683L133.44 103.666L133.428 103.678C132.764 104.371 132.086 104.845 131.354 105.126C130.958 105.278 130.365 105.456 129.276 105.492C129.756 104.013 131.935 101.577 131.957 101.553L131.966 101.543H125.04L125.049 101.553C125.071 101.577 127.25 104.013 127.73 105.492C127.156 105.473 126.403 105.414 125.652 105.126C124.92 104.845 124.241 104.371 123.578 103.678L123.566 103.666L124.051 109.223L124.052 109.24L124.062 109.226C124.734 108.283 125.683 107.383 126.574 106.968C126.825 106.854 127.061 106.781 127.276 106.748C127.443 106.724 127.604 106.723 127.757 106.751C127.71 107.822 127.628 108.856 127.144 109.719C126.574 110.736 125.542 111.299 123.992 111.439C122.845 111.539 121.738 111.328 120.873 110.844C120.465 110.616 120.13 110.339 119.88 110.022C119.626 109.699 119.472 109.352 119.422 108.989C119.36 108.552 119.412 108.137 119.572 107.789C119.723 107.461 119.961 107.223 120.242 107.118C120.491 107.025 120.762 107.043 121.025 107.167C121.322 107.308 121.598 107.575 121.848 107.962L121.855 107.973L121.859 107.96C122.068 107.274 122.106 106.643 121.968 106.134C121.843 105.673 121.582 105.321 121.212 105.116C120.855 104.918 120.416 104.873 119.974 104.99C119.511 105.112 119.068 105.4 118.691 105.823C119.358 104.234 119.575 103.057 119.394 102.009C119.294 101.423 119.068 100.883 118.705 100.356C118.332 99.8145 117.819 99.2978 117.138 98.7772L117.133 98.7733L117.129 98.7781C116.145 100.087 115.728 101.287 115.855 102.444C115.979 103.577 116.632 104.723 117.849 105.946C117.443 105.73 116.974 105.626 116.523 105.652C116.048 105.679 115.624 105.849 115.328 106.131C114.962 106.479 114.468 107.312 115.283 108.977L115.289 108.989L115.294 108.976C115.47 108.55 115.696 108.228 115.969 108.019C116.214 107.831 116.488 107.744 116.763 107.769C117.35 107.821 117.837 108.355 118.003 109.129C118.121 109.709 117.994 110.33 117.654 110.832C117.204 111.498 116.551 111.74 116.082 111.826C114.841 112.054 112.993 111.171 111.525 108.016C112.332 108.039 113.033 108.421 114.043 109.117L114.057 109.126L112.485 103.886L112.479 103.866L112.474 103.886C112.106 105.256 111.612 106.273 111.048 106.826C110.694 105.78 110.745 105.01 111.065 103.373L111.067 103.363L107.814 104.519L107.807 104.522L107.811 104.529C108.774 105.842 109.595 107.287 110.321 108.947C111.187 110.927 111.921 113.208 112.565 115.92L112.567 115.926L112.572 115.925C117.567 115.211 122.926 114.85 128.501 114.85C134.075 114.85 139.435 115.211 144.43 115.925L144.435 115.926L144.437 115.92C145.081 113.208 145.815 110.927 146.681 108.947C147.406 107.287 148.227 105.842 149.19 104.529L149.195 104.522L145.948 103.367V103.366Z" fill="white"/>
</g>
<defs>
<clipPath id="clip0_161_1057">
<rect width="41.3884" height="39" fill="white" transform="translate(107.807 76.925)"/>
</clipPath>
</defs>
</svg>
