<svg width="669" height="180" viewBox="0 0 669 180" fill="none" xmlns="http://www.w3.org/2000/svg">
<path d="M395.99 138.078C407.315 138.078 416.496 128.897 416.496 117.572C416.496 106.247 407.315 97.0662 395.99 97.0662C384.665 97.0662 375.484 106.247 375.484 117.572C375.484 128.897 384.665 138.078 395.99 138.078Z" fill="#00FFE0"/>
<path d="M25.3241 117.911C25.3241 123.106 25.9737 128.104 27.2729 132.904C28.57 137.703 30.5457 141.938 33.2021 145.608C35.8563 149.28 39.2429 152.231 43.366 154.461C47.4891 156.691 52.4025 157.808 58.1062 157.808C63.8099 157.808 68.144 156.933 71.7871 155.183C75.4282 153.433 78.3369 151.244 80.5112 148.616C82.6834 145.991 84.2081 143.155 85.0853 140.105C85.9604 137.056 86.3969 134.232 86.3969 131.634V130.448H55.3112V111.73H110.283V178.306H88.7698V164.074C87.2451 166.447 85.3522 168.607 83.0951 170.556C80.836 172.503 78.2955 174.17 75.4696 175.552C72.6457 176.936 69.5528 178.024 66.1952 178.815C62.8354 179.605 59.2626 180 55.4809 180C46.614 180 38.7381 178.39 31.8491 175.171C24.96 171.952 19.157 167.521 14.4422 161.873C9.72747 156.227 6.14225 149.62 3.68452 142.052C1.22887 134.487 0 126.327 0 117.572C0 108.817 1.36954 100.732 4.10862 93.1376C6.84771 85.543 10.7432 78.9353 15.7994 73.3164C20.8534 67.6976 26.9502 63.2663 34.0937 60.0182C41.2373 56.7702 49.2414 55.1462 58.1083 55.1462C63.8678 55.1462 69.3315 55.8103 74.4972 57.1364C79.6651 58.4646 84.3799 60.3555 88.6436 62.8111C92.9054 65.2668 96.6747 68.2334 99.9517 71.7049C103.224 75.1763 105.881 79.0325 107.914 83.2673L86.399 95.3781C85.0998 92.7817 83.5751 90.3674 81.8249 88.1352C80.0726 85.9071 78.0556 83.9852 75.7695 82.3757C73.4815 80.7662 70.8706 79.4959 67.935 78.565C64.9973 77.634 61.7224 77.1665 58.1103 77.1665C52.4067 77.1665 47.4933 78.2836 43.3702 80.5138C39.2471 82.7439 35.8605 85.694 33.2062 89.3661C30.5519 93.0362 28.5762 97.2855 27.277 102.114C25.9778 106.943 25.3282 111.928 25.3282 117.063V117.911H25.3241Z" fill="white"/>
<path d="M188.515 55.146C197.549 55.146 205.652 56.77 212.825 60.018C219.997 63.266 226.082 67.6974 231.08 73.3162C236.076 78.935 239.889 85.5428 242.514 93.1373C245.139 100.732 246.451 108.879 246.451 117.572C246.451 126.265 245.139 134.486 242.514 142.052C239.889 149.62 236.076 156.227 231.08 161.873C226.084 167.519 219.997 171.952 212.825 175.171C205.655 178.39 197.549 180 188.515 180C179.48 180 171.304 178.39 164.163 175.171C157.019 171.952 150.949 167.521 145.953 161.873C140.955 156.227 137.144 149.62 134.519 142.052C131.894 134.486 130.58 126.327 130.58 117.572C130.58 108.817 131.894 100.732 134.519 93.1373C137.144 85.5428 140.955 78.935 145.953 73.3162C150.949 67.6974 157.019 63.266 164.163 60.018C171.306 56.77 179.422 55.146 188.515 55.146ZM188.515 157.806C193.823 157.806 198.496 156.804 202.533 154.798C206.569 152.795 209.974 150.013 212.738 146.456C215.506 142.898 217.596 138.692 219.007 133.835C220.417 128.979 221.125 123.671 221.125 117.911V117.233C221.125 111.529 220.417 106.235 219.007 101.35C217.596 96.466 215.506 92.2436 212.738 88.6873C209.972 85.1311 206.569 82.3506 202.533 80.3439C198.496 78.3413 193.823 77.3379 188.515 77.3379C183.206 77.3379 178.52 78.3413 174.453 80.3439C170.388 82.3506 166.987 85.1311 164.248 88.6873C161.509 92.2436 159.434 96.4681 158.023 101.35C156.612 106.235 155.904 111.529 155.904 117.233V117.911C155.904 123.671 156.612 128.979 158.023 133.835C159.434 138.692 161.509 142.896 164.248 146.456C166.987 150.013 170.388 152.795 174.453 154.798C178.52 156.804 183.206 157.806 188.515 157.806Z" fill="white"/>
<path d="M289.757 178.303L255.452 56.8403H282.982L306.446 148.149H307.292L330.248 56.8403H357.436L323.131 178.303H289.759H289.757Z" fill="white"/>
<path d="M496.56 157.806C500.116 157.806 503.435 157.284 506.511 156.24C509.589 155.195 512.243 153.614 514.474 151.496C516.702 149.377 518.468 146.698 519.768 143.448C521.065 140.202 521.714 136.377 521.714 131.973V56.6707H545.855V135.614C545.855 142.391 544.628 148.519 542.175 153.995C539.721 159.473 536.308 164.132 531.934 167.972C527.561 171.813 522.356 174.776 516.321 176.865C510.284 178.953 503.683 180 496.519 180C489.354 180 482.751 178.953 476.716 176.865C470.677 174.776 465.46 171.811 461.057 167.972C456.655 164.132 453.229 159.475 450.773 153.995C448.32 148.519 447.093 142.389 447.093 135.614V56.6707H471.403V131.973C471.403 136.377 472.053 140.202 473.35 143.448C474.649 146.698 476.414 149.377 478.644 151.496C480.874 153.614 483.529 155.195 486.607 156.24C489.685 157.284 493.004 157.806 496.56 157.806Z" fill="white"/>
<path d="M567.644 56.8403H592.209V109.439L635.577 56.8403H665.817L623.634 105.12L668.527 178.303H639.984L607.88 123.838L592.209 141.371V178.303H567.644V56.8403Z" fill="white"/>
<path d="M395.283 49.3434C395.674 49.7339 396.307 49.7339 396.697 49.3434L403.061 42.9794C403.452 42.5889 403.452 41.9557 403.061 41.5652C402.671 41.1747 402.038 41.1747 401.647 41.5652L395.99 47.2221L390.333 41.5652C389.943 41.1747 389.31 41.1747 388.919 41.5652C388.529 41.9557 388.529 42.5889 388.919 42.9794L395.283 49.3434ZM395.99 0L394.99 1.32525e-06L394.99 48.6363L395.99 48.6363L396.99 48.6363L396.99 -1.32526e-06L395.99 0Z" fill="white"/>
</svg>
