<svg width="153" height="75" viewBox="0 0 153 75" fill="none" xmlns="http://www.w3.org/2000/svg">
<rect x="1" y="0.5" width="151" height="74" fill="white" stroke="#F3F3F3"/>
<path d="M31.0349 38.9519C31.0349 39.3801 31.0885 39.7921 31.1956 40.1878C31.3025 40.5834 31.4654 40.9325 31.6844 41.235C31.9032 41.5377 32.1824 41.7809 32.5223 41.9648C32.8622 42.1486 33.2672 42.2407 33.7374 42.2407C34.2076 42.2407 34.5649 42.1686 34.8652 42.0243C35.1654 41.88 35.4052 41.6996 35.5844 41.483C35.7635 41.2666 35.8892 41.0328 35.9615 40.7814C36.0337 40.53 36.0696 40.2973 36.0696 40.0831V39.9853H33.507V38.4423H38.0388V43.9304H36.2653V42.7573C36.1396 42.9529 35.9835 43.1309 35.7975 43.2916C35.6112 43.452 35.4018 43.5895 35.1688 43.7034C34.936 43.8175 34.6811 43.9072 34.4043 43.9723C34.1273 44.0375 33.8328 44.0701 33.521 44.0701C32.79 44.0701 32.1408 43.9374 31.5728 43.672C31.0049 43.4067 30.5265 43.0414 30.1379 42.5758C29.7492 42.1104 29.4536 41.5657 29.251 40.9419C29.0486 40.3182 28.9473 39.6456 28.9473 38.9239C28.9473 38.2022 29.0602 37.5357 29.286 36.9097C29.5118 36.2837 29.8329 35.739 30.2497 35.2758C30.6664 34.8126 31.169 34.4473 31.7579 34.1796C32.3468 33.9118 33.0066 33.778 33.7376 33.778C34.2124 33.778 34.6628 33.8327 35.0887 33.942C35.5147 34.0515 35.9034 34.2074 36.2549 34.4098C36.6062 34.6122 36.9169 34.8568 37.1871 35.1429C37.4569 35.4291 37.6759 35.747 37.8435 36.0961L36.0698 37.0944C35.9627 36.8804 35.837 36.6814 35.6927 36.4973C35.5483 36.3137 35.382 36.1552 35.1935 36.0226C35.0049 35.8899 34.7897 35.7852 34.5477 35.7084C34.3055 35.6317 34.0355 35.5932 33.7378 35.5932C33.2676 35.5932 32.8625 35.6852 32.5226 35.8691C32.1827 36.0529 31.9035 36.2961 31.6847 36.5988C31.4659 36.9013 31.303 37.2516 31.1959 37.6497C31.0888 38.0477 31.0353 38.4587 31.0353 38.882V38.9519H31.0349Z" fill="#0B0C0C"/>
<path d="M44.4879 33.7778C45.2327 33.7778 45.9007 33.9117 46.492 34.1794C47.0833 34.4472 47.5849 34.8125 47.9969 35.2757C48.4088 35.7388 48.7231 36.2835 48.9395 36.9096C49.156 37.5356 49.2641 38.2072 49.2641 38.9238C49.2641 39.6404 49.156 40.3181 48.9395 40.9418C48.7231 41.5656 48.4088 42.1103 47.9969 42.5757C47.585 43.0411 47.0833 43.4065 46.492 43.6719C45.9009 43.9373 45.2327 44.0699 44.4879 44.0699C43.7431 44.0699 43.0691 43.9373 42.4804 43.6719C41.8915 43.4065 41.3911 43.0413 40.9792 42.5757C40.5672 42.1103 40.2531 41.5656 40.0366 40.9418C39.8202 40.3181 39.7119 39.6455 39.7119 38.9238C39.7119 38.2021 39.8202 37.5356 40.0366 36.9096C40.2531 36.2835 40.5672 35.7388 40.9792 35.2757C41.3911 34.8125 41.8915 34.4472 42.4804 34.1794C43.0693 33.9117 43.7384 33.7778 44.4879 33.7778ZM44.4879 42.2404C44.9255 42.2404 45.3108 42.1579 45.6435 41.9924C45.9763 41.8274 46.257 41.598 46.4848 41.3048C46.713 41.0115 46.8853 40.6648 47.0016 40.2644C47.1179 39.8641 47.1762 39.4265 47.1762 38.9518V38.8958C47.1762 38.4257 47.1179 37.9893 47.0016 37.5866C46.8853 37.184 46.713 36.8359 46.4848 36.5428C46.2568 36.2496 45.9763 36.0204 45.6435 35.855C45.3108 35.6899 44.9255 35.6072 44.4879 35.6072C44.0503 35.6072 43.664 35.6899 43.3287 35.855C42.9936 36.0204 42.7132 36.2496 42.4874 36.5428C42.2616 36.8359 42.0905 37.1841 41.9742 37.5866C41.8579 37.9893 41.7996 38.4257 41.7996 38.8958V38.9518C41.7996 39.4265 41.8579 39.8641 41.9742 40.2644C42.0905 40.6648 42.2616 41.0113 42.4874 41.3048C42.7132 41.598 42.9936 41.8274 43.3287 41.9924C43.664 42.1579 44.0503 42.2404 44.4879 42.2404Z" fill="#0B0C0C"/>
<path d="M52.8339 43.9301L50.0059 33.9175H52.2753L54.2097 41.4443H54.2794L56.1718 33.9175H58.4131L55.5851 43.9301H52.834H52.8339Z" fill="#0B0C0C"/>
<path d="M69.8826 42.2403C70.1758 42.2403 70.4494 42.1974 70.703 42.1112C70.9567 42.0251 71.1756 41.8948 71.3594 41.7202C71.5431 41.5456 71.6887 41.3247 71.7958 41.0568C71.9028 40.7892 71.9563 40.4739 71.9563 40.1108V33.9034H73.9464V40.411C73.9464 40.9697 73.8453 41.4748 73.643 41.9262C73.4408 42.3778 73.1594 42.7618 72.7988 43.0784C72.4383 43.395 72.0092 43.6392 71.5117 43.8115C71.014 43.9836 70.4698 44.0699 69.8792 44.0699C69.2886 44.0699 68.7442 43.9836 68.2468 43.8115C67.7489 43.6392 67.3188 43.3949 66.9559 43.0784C66.593 42.7618 66.3105 42.378 66.1081 41.9262C65.9058 41.4748 65.8047 40.9695 65.8047 40.411V33.9034H67.8088V40.1108C67.8088 40.4739 67.8623 40.7892 67.9693 41.0568C68.0764 41.3247 68.2219 41.5456 68.4057 41.7202C68.5895 41.8948 68.8084 42.0251 69.0621 42.1112C69.3159 42.1974 69.5895 42.2403 69.8826 42.2403Z" fill="#0B0C0C"/>
<path d="M75.7432 33.9175H77.7682V38.2534L81.3434 33.9175H83.8363L80.3588 37.8973L84.0597 43.9301H81.7067L79.0601 39.4403L77.7682 40.8856V43.9301H75.7432V33.9175Z" fill="#0B0C0C"/>
<path d="M61.5918 40.6141C62.5254 40.6141 63.2823 39.8573 63.2823 38.9238C63.2823 37.9902 62.5254 37.2334 61.5918 37.2334C60.6582 37.2334 59.9014 37.9902 59.9014 38.9238C59.9014 39.8573 60.6582 40.6141 61.5918 40.6141Z" fill="#1D70B8"/>
<path d="M88.6107 35.4381V43.9299H87.4184V33.9893H89.089L94.3297 42.4811V33.9893H95.522V43.9299H93.8444L88.6107 35.4381ZM100.418 36.7067C100.908 36.7067 101.354 36.7991 101.756 36.984C102.158 37.1642 102.5 37.4184 102.782 37.7465C103.068 38.07 103.29 38.4582 103.447 38.9111C103.604 39.3594 103.683 39.8539 103.683 40.3946C103.683 40.926 103.604 41.4182 103.447 41.8711C103.29 42.3194 103.068 42.7076 102.782 43.0357C102.5 43.3592 102.158 43.6134 101.756 43.7982C101.354 43.9785 100.908 44.0686 100.418 44.0686C99.9281 44.0686 99.4821 43.9785 99.0801 43.7982C98.6826 43.6134 98.3407 43.3592 98.0541 43.0357C97.7676 42.7076 97.5458 42.3194 97.3886 41.8711C97.2315 41.4182 97.153 40.926 97.153 40.3946C97.153 39.8539 97.2315 39.3594 97.3886 38.9111C97.5458 38.4582 97.7676 38.07 98.0541 37.7465C98.3407 37.4184 98.6826 37.1642 99.0801 36.984C99.4821 36.7991 99.9281 36.7067 100.418 36.7067ZM100.418 43.0496C100.755 43.0496 101.051 42.9802 101.305 42.8416C101.564 42.6983 101.779 42.5065 101.95 42.2662C102.126 42.0259 102.257 41.7486 102.345 41.4344C102.433 41.1155 102.477 40.7828 102.477 40.4362V40.353C102.477 39.9971 102.433 39.6598 102.345 39.3409C102.257 39.022 102.126 38.7447 101.95 38.509C101.779 38.2687 101.564 38.0792 101.305 37.9406C101.051 37.7973 100.755 37.7257 100.418 37.7257C100.081 37.7257 99.7825 37.7973 99.5237 37.9406C99.2696 38.0792 99.0547 38.2687 98.879 38.509C98.7081 38.7447 98.5787 39.022 98.4908 39.3409C98.403 39.6598 98.3591 39.9971 98.3591 40.353V40.4362C98.3591 40.7828 98.403 41.1155 98.4908 41.4344C98.5787 41.7486 98.7081 42.0259 98.879 42.2662C99.0547 42.5065 99.2696 42.6983 99.5237 42.8416C99.7825 42.9802 100.081 43.0496 100.418 43.0496ZM106.894 42.1692C106.894 42.2893 106.901 42.4026 106.915 42.5089C106.934 42.6105 106.973 42.7006 107.033 42.7792C107.098 42.8578 107.19 42.9202 107.31 42.9664C107.431 43.0126 107.595 43.0357 107.803 43.0357C107.858 43.0357 107.923 43.0334 107.997 43.0288C108.075 43.0241 108.156 43.0195 108.239 43.0149C108.322 43.0057 108.403 42.9964 108.482 42.9872C108.56 42.9733 108.628 42.9617 108.683 42.9525L108.808 43.9715C108.674 43.99 108.535 44.0062 108.392 44.02C108.272 44.0339 108.138 44.0455 107.99 44.0547C107.842 44.064 107.694 44.0686 107.546 44.0686C107.264 44.0686 107.01 44.0385 106.784 43.9785C106.562 43.923 106.372 43.8306 106.215 43.7012C106.058 43.5718 105.938 43.4031 105.855 43.1951C105.771 42.9825 105.73 42.7261 105.73 42.4257V37.8713H104.392V36.8453H105.73V34.53L106.894 34.121V36.8453H108.863V37.8713H106.894V42.1692ZM111.257 43.9299H110.092V36.8453H111.257V43.9299ZM109.877 34.8004C109.877 34.6895 109.898 34.5855 109.94 34.4884C109.986 34.3914 110.044 34.3059 110.113 34.2319C110.187 34.158 110.272 34.1002 110.369 34.0586C110.471 34.0124 110.577 33.9893 110.688 33.9893C110.799 33.9893 110.903 34.0124 111 34.0586C111.097 34.1002 111.18 34.158 111.25 34.2319C111.324 34.3059 111.381 34.3914 111.423 34.4884C111.469 34.5855 111.492 34.6895 111.492 34.8004C111.492 34.9113 111.469 35.0176 111.423 35.1192C111.381 35.2163 111.324 35.3018 111.25 35.3757C111.18 35.4451 111.097 35.5028 111 35.549C110.903 35.5906 110.799 35.6114 110.688 35.6114C110.577 35.6114 110.471 35.5906 110.369 35.549C110.272 35.5028 110.187 35.4451 110.113 35.3757C110.044 35.3018 109.986 35.2163 109.94 35.1192C109.898 35.0176 109.877 34.9113 109.877 34.8004ZM114.836 36.8453H116.243V37.8713H114.836V43.9299H113.671V37.8713H112.493V36.8453H113.671V35.5282C113.671 35.2232 113.72 34.9644 113.817 34.7518C113.914 34.5393 114.048 34.3683 114.219 34.2389C114.394 34.1048 114.6 34.0101 114.836 33.9547C115.076 33.8946 115.337 33.8645 115.619 33.8645C115.905 33.8645 116.143 33.8784 116.333 33.9061C116.522 33.9292 116.663 33.9477 116.756 33.9616L116.666 34.9598C116.596 34.9552 116.515 34.9483 116.423 34.939C116.335 34.9298 116.243 34.9228 116.146 34.9182C116.053 34.9136 115.963 34.909 115.875 34.9043C115.788 34.8997 115.716 34.8974 115.661 34.8974C115.494 34.8974 115.358 34.9228 115.252 34.9737C115.145 35.0199 115.06 35.0823 114.995 35.1608C114.935 35.2394 114.893 35.3295 114.87 35.4312C114.847 35.5329 114.836 35.6392 114.836 35.7501V36.8453ZM116.716 36.8453H118.033L119.78 42.696L121.444 36.8453H122.747L120.168 44.9975C120.09 45.247 119.988 45.4504 119.863 45.6075C119.739 45.7692 119.595 45.8963 119.434 45.9888C119.276 46.0858 119.101 46.1528 118.907 46.1898C118.713 46.2268 118.507 46.2453 118.29 46.2453C118.096 46.2453 117.895 46.2337 117.687 46.2106C117.479 46.1921 117.259 46.1644 117.028 46.1274L117.201 45.1084C117.294 45.1269 117.393 45.143 117.499 45.1569C117.587 45.1708 117.687 45.1823 117.798 45.1916C117.908 45.2008 118.022 45.2054 118.137 45.2054C118.391 45.2054 118.588 45.15 118.726 45.0391C118.87 44.9282 118.971 44.7479 119.031 44.4984L119.101 44.1726L116.716 36.8453Z" fill="#0B0C0C"/>
</svg>
