<svg width="152" height="75" viewBox="0 0 152 75" fill="none" xmlns="http://www.w3.org/2000/svg">
<rect x="0.734375" y="0.5" width="150" height="74" fill="white" stroke="#F3F3F3"/>
<path d="M78.6958 40.5858C79.6297 40.5858 80.3868 39.8287 80.3868 38.8948C80.3868 37.9609 79.6297 37.2039 78.6958 37.2039C77.762 37.2039 77.0049 37.9609 77.0049 38.8948C77.0049 39.8287 77.762 40.5858 78.6958 40.5858Z" fill="#1D70B8"/>
<path d="M48.1313 38.923C48.1313 39.3514 48.1848 39.7635 48.292 40.1593C48.3989 40.5551 48.5618 40.9043 48.7809 41.207C48.9998 41.5098 49.279 41.753 49.619 41.9369C49.959 42.1209 50.3642 42.213 50.8345 42.213C51.3049 42.213 51.6623 42.1408 51.9627 41.9965C52.263 41.8522 52.5028 41.6717 52.6821 41.455C52.8612 41.2385 52.987 41.0046 53.0593 40.7532C53.1315 40.5017 53.1675 40.2688 53.1675 40.0546V39.9568H50.6041V38.4132H55.1372V43.9033H53.3631V42.7297C53.2374 42.9254 53.0813 43.1035 52.8952 43.2642C52.7089 43.4247 52.4994 43.5622 52.2664 43.6762C52.0335 43.7903 51.7785 43.8801 51.5016 43.9452C51.2245 44.0104 50.9299 44.043 50.6181 44.043C49.8869 44.043 49.2374 43.9103 48.6693 43.6448C48.1012 43.3794 47.6227 43.0139 47.2339 42.5482C46.8451 42.0826 46.5495 41.5377 46.3468 40.9137C46.1443 40.2898 46.043 39.617 46.043 38.895C46.043 38.173 46.1559 37.5063 46.3818 36.8801C46.6076 36.2538 46.9289 35.7089 47.3458 35.2456C47.7626 34.7822 48.2653 34.4168 48.8544 34.149C49.4435 33.8811 50.1035 33.7472 50.8347 33.7472C51.3097 33.7472 51.7602 33.802 52.1862 33.9113C52.6123 34.0208 53.0011 34.1768 53.3527 34.3793C53.7042 34.5818 54.015 34.8264 54.2852 35.1127C54.5551 35.3989 54.7741 35.7169 54.9418 36.0661L53.1676 37.0648C53.0605 36.8507 52.9348 36.6516 52.7904 36.4676C52.6459 36.2838 52.4796 36.1253 52.2911 35.9926C52.1024 35.8599 51.8871 35.7551 51.645 35.6784C51.4028 35.6016 51.1327 35.563 50.8349 35.563C50.3645 35.563 49.9594 35.6552 49.6194 35.8391C49.2794 36.023 49.0001 36.2663 48.7812 36.5691C48.5624 36.8717 48.3994 37.2221 48.2923 37.6203C48.1852 38.0185 48.1316 38.4296 48.1316 38.853V38.923H48.1313Z" fill="#0B0C0C"/>
<path d="M61.588 33.7471C62.333 33.7471 63.0012 33.881 63.5926 34.1488C64.1839 34.4167 64.6858 34.7821 65.098 35.2454C65.51 35.7088 65.8244 36.2537 66.0409 36.8799C66.2574 37.5062 66.3655 38.178 66.3655 38.8949C66.3655 39.6117 66.2574 40.2897 66.0409 40.9136C65.8244 41.5376 65.51 42.0825 65.098 42.5481C64.686 43.0136 64.1841 43.3792 63.5926 43.6447C63.0014 43.9101 62.333 44.0429 61.588 44.0429C60.843 44.0429 60.1688 43.9101 59.5799 43.6447C58.9908 43.3792 58.4903 43.0138 58.0783 42.5481C57.6661 42.0825 57.3519 41.5376 57.1354 40.9136C56.9189 40.2897 56.8105 39.6169 56.8105 38.8949C56.8105 38.1729 56.9189 37.5062 57.1354 36.8799C57.3519 36.2537 57.6661 35.7088 58.0783 35.2454C58.4903 34.7821 58.9908 34.4167 59.5799 34.1488C60.1689 33.881 60.8382 33.7471 61.588 33.7471ZM61.588 42.2129C62.0257 42.2129 62.4111 42.1303 62.7439 41.9648C63.0768 41.7997 63.3576 41.5702 63.5855 41.2769C63.8137 40.9835 63.986 40.6367 64.1024 40.2361C64.2187 39.8357 64.2771 39.398 64.2771 38.923V38.8671C64.2771 38.3967 64.2187 37.9602 64.1024 37.5574C63.986 37.1546 63.8137 36.8064 63.5855 36.5132C63.3574 36.2199 63.0768 35.9906 62.7439 35.8251C62.4111 35.66 62.0257 35.5773 61.588 35.5773C61.1502 35.5773 60.7638 35.66 60.4284 35.8251C60.0932 35.9906 59.8127 36.2199 59.5868 36.5132C59.361 36.8064 59.1899 37.1548 59.0735 37.5574C58.9572 37.9602 58.8988 38.3967 58.8988 38.8671V38.923C58.8988 39.398 58.9572 39.8357 59.0735 40.2361C59.1899 40.6367 59.361 40.9833 59.5868 41.2769C59.8127 41.5702 60.0932 41.7997 60.4284 41.9648C60.7638 42.1303 61.1502 42.2129 61.588 42.2129Z" fill="#0B0C0C"/>
<path d="M69.9372 43.903L67.1084 33.8868H69.3785L71.3135 41.4164H71.3832L73.2762 33.8868H75.5182L72.6893 43.903H69.9374H69.9372Z" fill="#0B0C0C"/>
<path d="M86.9903 42.2128C87.2835 42.2128 87.5572 42.1698 87.8109 42.0837C88.0647 41.9975 88.2836 41.8672 88.4675 41.6925C88.6512 41.5178 88.7969 41.2969 88.9041 41.0289C89.011 40.7612 89.0646 40.4457 89.0646 40.0825V33.8729H91.0553V40.3828C91.0553 40.9417 90.9541 41.447 90.7518 41.8986C90.5495 42.3503 90.268 42.7345 89.9073 43.0511C89.5467 43.3679 89.1175 43.6122 88.6198 43.7845C88.122 43.9567 87.5777 44.043 86.9869 44.043C86.3961 44.043 85.8515 43.9567 85.3539 43.7845C84.8559 43.6122 84.4257 43.3678 84.0627 43.0511C83.6996 42.7345 83.4171 42.3505 83.2146 41.8986C83.0123 41.447 82.9111 40.9415 82.9111 40.3828V33.8729H84.9158V40.0825C84.9158 40.4457 84.9694 40.7612 85.0764 41.0289C85.1835 41.2969 85.329 41.5178 85.5129 41.6925C85.6968 41.8672 85.9157 41.9975 86.1695 42.0837C86.4234 42.1698 86.697 42.2128 86.9903 42.2128Z" fill="#0B0C0C"/>
<path d="M92.8516 33.8868H94.8772V38.2243L98.4535 33.8868H100.947L97.4686 37.8681L101.171 43.903H98.8168L96.1695 39.4117L94.8772 40.8575V43.903H92.8516V33.8868Z" fill="#0B0C0C"/>
<path d="M30.1399 34.3206C30.3175 33.8896 30.8146 33.6794 31.2427 33.855C31.6794 34.0339 31.8838 34.5347 31.7053 34.9647C31.5277 35.3957 31.0325 35.6019 30.5959 35.4214C30.1679 35.2459 29.9625 34.7499 30.1401 34.3207L30.1399 34.3206Z" fill="#0B0C0C"/>
<path d="M28.3274 36.7766C27.8993 36.6007 27.6939 36.1048 27.8715 35.6754C28.05 35.2436 28.5473 35.0334 28.9753 35.2093C29.411 35.3877 29.6154 35.8884 29.4369 36.3185C29.2593 36.7495 28.7641 36.9557 28.3275 36.7752V36.7766H28.3274Z" fill="#0B0C0C"/>
<path d="M26.3698 37.9102C26.5474 37.4793 27.0445 37.2691 27.4725 37.445C27.9092 37.6235 28.1136 38.1242 27.9352 38.5543C27.7576 38.9852 27.2623 39.1914 26.8258 39.0113C26.3978 38.8354 26.1915 38.3403 26.3699 37.9101L26.3698 37.9102Z" fill="#0B0C0C"/>
<path d="M33.1658 32.7231C33.1975 32.7654 33.2349 32.8019 33.2762 32.8335L32.6612 34.6913C32.6601 34.693 32.6593 34.6961 32.6593 34.6981C32.6593 34.6981 32.6871 34.6065 32.6593 34.6998C32.6305 34.7926 32.6151 34.8916 32.6151 34.9934C32.6151 35.4955 32.9865 35.9109 33.4691 35.982C33.4758 35.9829 33.4834 35.9846 33.4903 35.9846C33.5315 35.9894 33.5728 35.9931 33.616 35.9931C33.6592 35.9931 33.7004 35.9906 33.7417 35.9846C33.7494 35.9838 33.7571 35.982 33.7637 35.982C34.2463 35.9111 34.6177 35.4964 34.6177 34.9934C34.6177 34.8907 34.6024 34.7926 34.5736 34.6998V34.6981C34.5725 34.6959 34.5717 34.6913 34.5717 34.6913L33.9557 32.8335C33.9969 32.8018 34.0343 32.7646 34.066 32.7231L34.0679 32.7214L35.1406 33.2845V31.7041L34.0698 32.044L34.0669 32.0409C34.0372 32.0006 34.0015 31.966 33.9632 31.9351L33.9603 31.9326L34.391 30.5754H32.8432L33.2739 31.9312L33.271 31.9343C33.2316 31.9651 33.1972 32.0006 33.1675 32.04L33.1646 32.0426L32.0938 31.7033V33.2845L33.1665 32.7214L33.1683 32.7231" fill="#0B0C0C"/>
<path d="M37.1113 34.3206C36.9337 33.8896 36.4366 33.6794 36.0085 33.855C35.5718 34.0339 35.3674 34.5347 35.5459 34.9647C35.7235 35.3957 36.2185 35.6019 36.6553 35.4214C37.0833 35.2459 37.2887 34.7499 37.1111 34.3207L37.1113 34.3206Z" fill="#0B0C0C"/>
<path d="M38.9238 36.7766C39.3519 36.6007 39.5573 36.1048 39.3797 35.6754C39.2012 35.2436 38.7041 35.0334 38.2761 35.2093C37.8404 35.3877 37.636 35.8884 37.8144 36.3185C37.992 36.7495 38.4871 36.9557 38.9238 36.7752V36.7766Z" fill="#0B0C0C"/>
<path d="M40.8837 37.9102C40.7061 37.4793 40.209 37.2691 39.781 37.445C39.3443 37.6235 39.1399 38.1242 39.3183 38.5543C39.4959 38.9852 39.991 39.1914 40.4277 39.0113C40.8558 38.8354 41.0622 38.3403 40.8836 37.9101L40.8837 37.9102Z" fill="#0B0C0C"/>
<path d="M33.6191 44.0429C35.6485 44.0429 37.5686 44.1802 39.2804 44.4247C39.7659 42.3821 40.357 41.2103 40.9683 40.3774L39.8188 39.9678C39.9339 40.5511 39.9522 40.8237 39.8235 41.1987C39.6335 41.0138 39.4542 40.6719 39.314 40.151L38.7565 42.0066C39.0961 41.7734 39.3571 41.6219 39.6565 41.6151C39.126 42.7581 38.4629 43.0526 38.034 42.9731C37.5101 42.8763 37.2682 42.4091 37.3499 42.0128C37.4708 41.4513 38.0464 41.3045 38.3161 41.958C38.8313 40.9073 37.9582 40.5799 37.3959 40.8911C38.2595 40.0301 38.3585 39.2644 37.6609 38.3374C36.6888 39.0804 36.6774 39.8151 37.115 40.8495C36.5479 40.1998 35.6651 40.5482 35.9836 41.597C36.3923 40.9636 36.9345 41.3616 36.8492 41.9633C36.7772 42.487 36.0854 42.9103 35.2237 42.8354C33.9888 42.7233 33.9149 41.8712 33.8842 41.1659C34.1873 41.1103 34.7343 41.3915 35.2007 42.0459L35.3725 40.0777C34.865 40.6067 34.4043 40.7063 33.8929 40.7225C34.0637 40.1901 34.8467 39.3197 34.8467 39.3197H32.3903C32.3903 39.3197 33.1733 40.191 33.3441 40.7225C32.8316 40.7063 32.3712 40.6065 31.8645 40.0777L32.0363 42.0459C32.5027 41.3915 33.0496 41.1095 33.3528 41.1659C33.3221 41.8712 33.2482 42.7233 32.0133 42.8354C31.1516 42.9103 30.4598 42.487 30.3878 41.9633C30.3023 41.3616 30.8445 40.9636 31.2532 41.597C31.5728 40.5489 30.6899 40.2007 30.1229 40.8495C30.5594 39.8151 30.548 39.0804 29.577 38.3374C28.8802 39.2636 28.9792 40.0291 29.8427 40.8911C29.2805 40.5799 28.4073 40.9073 28.9217 41.958C29.1904 41.3045 29.767 41.4505 29.8879 42.0128C29.9686 42.4099 29.7278 42.8772 29.2039 42.9731C28.7739 43.0519 28.1119 42.7583 27.5811 41.6151C27.8795 41.6228 28.1415 41.7734 28.4804 42.0066L27.9239 40.151C27.7838 40.6719 27.6043 41.0138 27.4143 41.1987C27.2867 40.8237 27.3049 40.5521 27.4191 39.9678L26.2686 40.3774C26.8798 41.2111 27.4718 42.3811 27.9575 44.4247C29.6692 44.1804 31.5903 44.0429 33.6208 44.0429" fill="#0B0C0C"/>
<path d="M33.6184 38.4873C34.0851 38.4873 34.4634 38.109 34.4634 37.6423C34.4634 37.1757 34.0851 36.7974 33.6184 36.7974C33.1517 36.7974 32.7734 37.1757 32.7734 37.6423C32.7734 38.109 33.1517 38.4873 33.6184 38.4873Z" fill="#0B0C0C"/>
<path d="M104.566 33.9623H108.053C108.519 33.9623 108.942 34.0409 109.321 34.198C109.7 34.3505 110.024 34.5654 110.292 34.8427C110.564 35.1154 110.772 35.4435 110.916 35.8271C111.063 36.2106 111.137 36.6312 111.137 37.0887C111.137 37.5508 111.057 37.9737 110.895 38.3573C110.738 38.7362 110.516 39.062 110.229 39.3347C109.943 39.6074 109.601 39.82 109.203 39.9725C108.811 40.1203 108.381 40.1943 107.914 40.1943H105.786V43.903H104.566V33.9623ZM109.841 37.061C109.841 36.7698 109.795 36.4995 109.702 36.2499C109.61 36.0004 109.476 35.7855 109.3 35.6052C109.125 35.4204 108.91 35.2771 108.656 35.1755C108.406 35.0692 108.122 35.016 107.803 35.016H105.786V39.1475H107.803C108.122 39.1475 108.406 39.0967 108.656 38.995C108.91 38.8934 109.125 38.7547 109.3 38.5791C109.476 38.3989 109.61 38.1863 109.702 37.9414C109.795 37.6918 109.841 37.4214 109.841 37.1303V37.061ZM116.387 43.1959C116.179 43.4362 115.897 43.6372 115.541 43.799C115.19 43.9607 114.776 44.0416 114.3 44.0416C113.949 44.0416 113.623 43.9931 113.323 43.896C113.023 43.7944 112.761 43.6511 112.54 43.4662C112.318 43.2814 112.145 43.0572 112.02 42.7938C111.895 42.5304 111.833 42.2323 111.833 41.8996C111.833 41.6223 111.876 41.3704 111.964 41.144C112.057 40.9129 112.184 40.7119 112.346 40.5409C112.512 40.3699 112.711 40.2313 112.942 40.125C113.173 40.0141 113.432 39.9378 113.718 39.8962L116.221 39.5565V39.1059C116.221 38.8379 116.179 38.6138 116.096 38.4335C116.013 38.2487 115.899 38.1031 115.756 37.9968C115.618 37.8905 115.451 37.8143 115.257 37.7681C115.068 37.7218 114.862 37.6987 114.64 37.6987C114.243 37.6987 113.871 37.7542 113.524 37.8651C113.182 37.976 112.872 38.1054 112.595 38.2533L112.158 37.3313C112.565 37.1003 112.99 36.9339 113.434 36.8322C113.882 36.7306 114.324 36.6797 114.758 36.6797C115.622 36.6797 116.276 36.8761 116.72 37.2689C117.163 37.6571 117.385 38.2256 117.385 38.9742V42.2393C117.385 42.4749 117.431 42.6737 117.524 42.8354C117.616 42.9925 117.764 43.1173 117.967 43.2097L117.309 44.0416C117.087 43.9861 116.895 43.8891 116.734 43.7504C116.576 43.6072 116.466 43.4362 116.401 43.2375L116.387 43.1959ZM114.314 40.7489C114.12 40.7766 113.942 40.8159 113.781 40.8667C113.623 40.9175 113.489 40.9869 113.378 41.0747C113.268 41.1578 113.18 41.2618 113.115 41.3866C113.055 41.5114 113.025 41.6639 113.025 41.8441C113.025 42.0521 113.064 42.2369 113.143 42.3987C113.221 42.5604 113.328 42.6968 113.462 42.8077C113.596 42.9186 113.75 43.0041 113.926 43.0642C114.106 43.1196 114.293 43.1474 114.488 43.1474C114.705 43.1474 114.917 43.1173 115.125 43.0572C115.333 42.9972 115.518 42.9117 115.68 42.8008C115.842 42.6852 115.971 42.5466 116.068 42.3848C116.17 42.2231 116.221 42.0382 116.221 41.8303V40.4646L114.314 40.7489ZM118.448 36.8184H119.765L121.512 42.669L123.175 36.8184H124.479L121.9 44.9705C121.821 45.2201 121.72 45.4234 121.595 45.5805C121.47 45.7423 121.327 45.8694 121.165 45.9618C121.008 46.0588 120.832 46.1258 120.638 46.1628C120.444 46.1998 120.239 46.2183 120.021 46.2183C119.827 46.2183 119.626 46.2067 119.418 46.1836C119.21 46.1651 118.991 46.1374 118.76 46.1004L118.933 45.0814C119.025 45.0999 119.125 45.1161 119.231 45.1299C119.319 45.1438 119.418 45.1554 119.529 45.1646C119.64 45.1738 119.753 45.1785 119.869 45.1785C120.123 45.1785 120.319 45.123 120.458 45.0121C120.601 44.9012 120.703 44.7209 120.763 44.4714L120.832 44.1456L118.448 36.8184Z" fill="#0B0C0C"/>
</svg>
