<svg width="152" height="75" viewBox="0 0 152 75" fill="none" xmlns="http://www.w3.org/2000/svg">
<rect x="0.734375" y="0.5" width="150" height="74" fill="white" stroke="#F3F3F3"/>
<path d="M70.6968 40.5858C71.6307 40.5858 72.3878 39.8287 72.3878 38.8948C72.3878 37.9609 71.6307 37.2039 70.6968 37.2039C69.7629 37.2039 69.0059 37.9609 69.0059 38.8948C69.0059 39.8287 69.7629 40.5858 70.6968 40.5858Z" fill="#1D70B8"/>
<path d="M40.1313 38.9229C40.1313 39.3512 40.1848 39.7634 40.292 40.1592C40.3989 40.555 40.5618 40.9042 40.7809 41.2068C40.9998 41.5096 41.279 41.7529 41.619 41.9368C41.959 42.1207 42.3642 42.2129 42.8345 42.2129C43.3049 42.2129 43.6623 42.1407 43.9627 41.9964C44.263 41.852 44.5028 41.6715 44.6821 41.4549C44.8612 41.2384 44.987 41.0045 45.0593 40.753C45.1315 40.5016 45.1675 40.2687 45.1675 40.0544V39.9567H42.6041V38.4131H47.1372V43.9031H45.3631V42.7296C45.2374 42.9253 45.0813 43.1034 44.8952 43.2641C44.7089 43.4246 44.4994 43.5621 44.2664 43.6761C44.0335 43.7902 43.7785 43.8799 43.5016 43.9451C43.2245 44.0103 42.9299 44.0429 42.6181 44.0429C41.8869 44.0429 41.2374 43.9101 40.6693 43.6447C40.1012 43.3792 39.6227 43.0138 39.2339 42.5481C38.8451 42.0825 38.5495 41.5376 38.3468 40.9136C38.1443 40.2897 38.043 39.6169 38.043 38.8949C38.043 38.1729 38.1559 37.5062 38.3818 36.8799C38.6076 36.2537 38.9289 35.7088 39.3458 35.2454C39.7626 34.7821 40.2653 34.4167 40.8544 34.1488C41.4435 33.881 42.1035 33.7471 42.8347 33.7471C43.3097 33.7471 43.7602 33.8018 44.1862 33.9112C44.6123 34.0207 45.0011 34.1766 45.3527 34.3791C45.7042 34.5816 46.015 34.8263 46.2852 35.1125C46.5551 35.3988 46.7741 35.7168 46.9418 36.066L45.1676 37.0647C45.0605 36.8506 44.9348 36.6515 44.7904 36.4674C44.6459 36.2837 44.4796 36.1252 44.2911 35.9925C44.1024 35.8598 43.8871 35.755 43.645 35.6782C43.4028 35.6015 43.1327 35.5629 42.8349 35.5629C42.3645 35.5629 41.9594 35.655 41.6194 35.8389C41.2794 36.0229 41.0001 36.2661 40.7812 36.5689C40.5624 36.8716 40.3994 37.222 40.2923 37.6202C40.1852 38.0183 40.1316 38.4295 40.1316 38.8529V38.9229H40.1313Z" fill="#0B0C0C"/>
<path d="M53.5889 33.7469C54.3339 33.7469 55.0022 33.8809 55.5936 34.1487C56.1849 34.4165 56.6868 34.782 57.099 35.2453C57.511 35.7087 57.8254 36.2536 58.0419 36.8798C58.2584 37.5061 58.3665 38.1779 58.3665 38.8948C58.3665 39.6116 58.2584 40.2896 58.0419 40.9135C57.8254 41.5375 57.511 42.0824 57.099 42.548C56.687 43.0135 56.1851 43.3791 55.5936 43.6446C55.0023 43.91 54.3339 44.0427 53.5889 44.0427C52.8439 44.0427 52.1697 43.91 51.5808 43.6446C50.9918 43.3791 50.4912 43.0137 50.0792 42.548C49.6671 42.0824 49.3528 41.5375 49.1363 40.9135C48.9199 40.2896 48.8115 39.6167 48.8115 38.8948C48.8115 38.1728 48.9199 37.5061 49.1363 36.8798C49.3528 36.2536 49.6671 35.7087 50.0792 35.2453C50.4912 34.782 50.9918 34.4165 51.5808 34.1487C52.1699 33.8809 52.8392 33.7469 53.5889 33.7469ZM53.5889 42.2127C54.0267 42.2127 54.4121 42.1302 54.7449 41.9647C55.0777 41.7995 55.3585 41.5701 55.5865 41.2768C55.8147 40.9834 55.987 40.6366 56.1034 40.236C56.2197 39.8356 56.2781 39.3979 56.2781 38.9229V38.867C56.2781 38.3966 56.2197 37.9601 56.1034 37.5573C55.987 37.1545 55.8147 36.8063 55.5865 36.513C55.3584 36.2198 55.0777 35.9905 54.7449 35.825C54.4121 35.6599 54.0267 35.5771 53.5889 35.5771C53.1512 35.5771 52.7648 35.6599 52.4294 35.825C52.0942 35.9905 51.8137 36.2198 51.5878 36.513C51.362 36.8063 51.1908 37.1547 51.0745 37.5573C50.9581 37.9601 50.8998 38.3966 50.8998 38.867V38.9229C50.8998 39.3979 50.9581 39.8356 51.0745 40.236C51.1908 40.6366 51.362 40.9832 51.5878 41.2768C51.8137 41.5701 52.0942 41.7995 52.4294 41.9647C52.7648 42.1302 53.1512 42.2127 53.5889 42.2127Z" fill="#0B0C0C"/>
<path d="M61.9372 43.9029L59.1084 33.8867H61.3785L63.3135 41.4163H63.3832L65.2762 33.8867H67.5182L64.6893 43.9029H61.9374H61.9372Z" fill="#0B0C0C"/>
<path d="M78.9913 42.2128C79.2845 42.2128 79.5582 42.1698 79.8118 42.0837C80.0657 41.9975 80.2846 41.8672 80.4685 41.6925C80.6522 41.5178 80.7979 41.2969 80.905 41.0289C81.012 40.7612 81.0656 40.4457 81.0656 40.0825V33.8729H83.0563V40.3828C83.0563 40.9417 82.9551 41.447 82.7528 41.8986C82.5504 42.3503 82.269 42.7345 81.9083 43.0511C81.5477 43.3679 81.1184 43.6122 80.6208 43.7845C80.123 43.9567 79.5786 44.043 78.9879 44.043C78.3971 44.043 77.8525 43.9567 77.3549 43.7845C76.8569 43.6122 76.4267 43.3678 76.0636 43.0511C75.7006 42.7345 75.4181 42.3505 75.2156 41.8986C75.0133 41.447 74.9121 40.9415 74.9121 40.3828V33.8729H76.9168V40.0825C76.9168 40.4457 76.9704 40.7612 77.0773 41.0289C77.1845 41.2969 77.33 41.5178 77.5139 41.6925C77.6978 41.8672 77.9167 41.9975 78.1705 42.0837C78.4244 42.1698 78.698 42.2128 78.9913 42.2128Z" fill="#0B0C0C"/>
<path d="M84.8525 33.8867H86.8782V38.2242L90.4544 33.8867H92.9481L89.4696 37.868L93.1715 43.9029H90.8178L88.1705 39.4116L86.8782 40.8574V43.9029H84.8525V33.8867Z" fill="#0B0C0C"/>
<path d="M22.1399 34.3206C22.3175 33.8896 22.8146 33.6794 23.2427 33.855C23.6794 34.0339 23.8838 34.5347 23.7053 34.9647C23.5277 35.3957 23.0325 35.6019 22.5959 35.4214C22.1679 35.2459 21.9625 34.7499 22.1401 34.3207L22.1399 34.3206Z" fill="#0B0C0C"/>
<path d="M20.3274 36.7765C19.8993 36.6006 19.6939 36.1046 19.8715 35.6752C20.05 35.2435 20.5473 35.0333 20.9753 35.2092C21.411 35.3876 21.6154 35.8883 21.4369 36.3184C21.2593 36.7493 20.7641 36.9556 20.3275 36.7751V36.7765H20.3274Z" fill="#0B0C0C"/>
<path d="M18.3698 37.91C18.5474 37.4791 19.0445 37.2689 19.4725 37.4448C19.9092 37.6232 20.1136 38.1239 19.9352 38.554C19.7576 38.9849 19.2623 39.1912 18.8258 39.011C18.3978 38.8352 18.1915 38.3401 18.3699 37.9098L18.3698 37.91Z" fill="#0B0C0C"/>
<path d="M25.1658 32.723C25.1975 32.7653 25.2349 32.8018 25.2762 32.8334L24.6612 34.6912C24.6601 34.6929 24.6593 34.696 24.6593 34.698C24.6593 34.698 24.6871 34.6064 24.6593 34.6997C24.6305 34.7925 24.6151 34.8915 24.6151 34.9933C24.6151 35.4954 24.9865 35.9108 25.4691 35.9819C25.4758 35.9828 25.4834 35.9845 25.4903 35.9845C25.5315 35.9893 25.5728 35.993 25.616 35.993C25.6592 35.993 25.7004 35.9905 25.7417 35.9845C25.7494 35.9836 25.7571 35.9819 25.7637 35.9819C26.2463 35.911 26.6177 35.4962 26.6177 34.9933C26.6177 34.8906 26.6024 34.7925 26.5736 34.6997V34.698C26.5725 34.6958 26.5717 34.6912 26.5717 34.6912L25.9557 32.8334C25.9969 32.8016 26.0343 32.7644 26.066 32.723L26.0679 32.7213L27.1406 33.2844V31.704L26.0698 32.0438L26.0669 32.0408C26.0372 32.0005 26.0015 31.9659 25.9632 31.935L25.9603 31.9324L26.391 30.5753H24.8432L25.2739 31.9311L25.271 31.9341C25.2316 31.965 25.1972 32.0005 25.1675 32.0399L25.1646 32.0425L24.0938 31.7031V33.2844L25.1665 32.7213L25.1683 32.723" fill="#0B0C0C"/>
<path d="M29.1113 34.3206C28.9337 33.8896 28.4366 33.6794 28.0085 33.855C27.5718 34.0339 27.3674 34.5347 27.5459 34.9647C27.7235 35.3957 28.2185 35.6019 28.6553 35.4214C29.0833 35.2459 29.2887 34.7499 29.1111 34.3207L29.1113 34.3206Z" fill="#0B0C0C"/>
<path d="M30.9238 36.7765C31.3519 36.6006 31.5573 36.1046 31.3797 35.6752C31.2012 35.2435 30.7041 35.0333 30.2761 35.2092C29.8404 35.3876 29.636 35.8883 29.8144 36.3184C29.992 36.7493 30.4871 36.9556 30.9238 36.7751V36.7765Z" fill="#0B0C0C"/>
<path d="M32.8837 37.91C32.7061 37.4791 32.209 37.2689 31.781 37.4448C31.3443 37.6232 31.1399 38.1239 31.3183 38.554C31.4959 38.9849 31.991 39.1912 32.4277 39.011C32.8558 38.8352 33.0622 38.3401 32.8836 37.9098L32.8837 37.91Z" fill="#0B0C0C"/>
<path d="M25.6191 44.0429C27.6485 44.0429 29.5686 44.1802 31.2804 44.4247C31.7659 42.3821 32.357 41.2103 32.9683 40.3774L31.8188 39.9678C31.9339 40.5511 31.9522 40.8237 31.8235 41.1987C31.6335 41.0138 31.4542 40.6719 31.314 40.151L30.7565 42.0066C31.0961 41.7734 31.3571 41.6219 31.6565 41.6151C31.126 42.7581 30.4629 43.0526 30.034 42.9731C29.5101 42.8763 29.2682 42.4091 29.3499 42.0128C29.4708 41.4513 30.0464 41.3045 30.3161 41.958C30.8313 40.9073 29.9582 40.5799 29.3959 40.8911C30.2595 40.0301 30.3585 39.2644 29.6609 38.3374C28.6888 39.0804 28.6774 39.8151 29.115 40.8495C28.5479 40.1998 27.6651 40.5482 27.9836 41.597C28.3923 40.9636 28.9345 41.3616 28.8492 41.9633C28.7772 42.487 28.0854 42.9103 27.2237 42.8354C25.9888 42.7233 25.9149 41.8712 25.8842 41.1659C26.1873 41.1103 26.7343 41.3915 27.2007 42.0459L27.3725 40.0777C26.865 40.6067 26.4043 40.7063 25.8929 40.7225C26.0637 40.1901 26.8467 39.3197 26.8467 39.3197H24.3903C24.3903 39.3197 25.1733 40.191 25.3441 40.7225C24.8316 40.7063 24.3712 40.6065 23.8645 40.0777L24.0363 42.0459C24.5027 41.3915 25.0496 41.1095 25.3528 41.1659C25.3221 41.8712 25.2482 42.7233 24.0133 42.8354C23.1516 42.9103 22.4598 42.487 22.3878 41.9633C22.3023 41.3616 22.8445 40.9636 23.2532 41.597C23.5728 40.5489 22.6899 40.2007 22.1229 40.8495C22.5594 39.8151 22.548 39.0804 21.577 38.3374C20.8802 39.2636 20.9792 40.0291 21.8427 40.8911C21.2805 40.5799 20.4073 40.9073 20.9217 41.958C21.1904 41.3045 21.767 41.4505 21.8879 42.0128C21.9686 42.4099 21.7278 42.8772 21.2039 42.9731C20.7739 43.0519 20.1119 42.7583 19.5811 41.6151C19.8795 41.6228 20.1415 41.7734 20.4804 42.0066L19.9239 40.151C19.7838 40.6719 19.6043 41.0138 19.4143 41.1987C19.2867 40.8237 19.3049 40.5521 19.4191 39.9678L18.2686 40.3774C18.8798 41.2111 19.4718 42.3811 19.9575 44.4247C21.6692 44.1804 23.5903 44.0429 25.6208 44.0429" fill="#0B0C0C"/>
<path d="M25.6174 38.4873C26.0841 38.4873 26.4624 38.109 26.4624 37.6423C26.4624 37.1757 26.0841 36.7974 25.6174 36.7974C25.1508 36.7974 24.7725 37.1757 24.7725 37.6423C24.7725 38.109 25.1508 38.4873 25.6174 38.4873Z" fill="#0B0C0C"/>
<path d="M97.7581 35.4093V43.9011H96.5658V33.9605H98.2365L103.477 42.4523V33.9605H104.669V43.9011H102.992L97.7581 35.4093ZM109.565 36.6779C110.055 36.6779 110.501 36.7703 110.903 36.9552C111.305 37.1354 111.647 37.3896 111.929 37.7177C112.216 38.0412 112.438 38.4294 112.595 38.8823C112.752 39.3306 112.83 39.8251 112.83 40.3658C112.83 40.8972 112.752 41.3894 112.595 41.8423C112.438 42.2906 112.216 42.6788 111.929 43.0069C111.647 43.3304 111.305 43.5846 110.903 43.7694C110.501 43.9496 110.055 44.0398 109.565 44.0398C109.076 44.0398 108.63 43.9496 108.228 43.7694C107.83 43.5846 107.488 43.3304 107.202 43.0069C106.915 42.6788 106.693 42.2906 106.536 41.8423C106.379 41.3894 106.3 40.8972 106.3 40.3658C106.3 39.8251 106.379 39.3306 106.536 38.8823C106.693 38.4294 106.915 38.0412 107.202 37.7177C107.488 37.3896 107.83 37.1354 108.228 36.9552C108.63 36.7703 109.076 36.6779 109.565 36.6779ZM109.565 43.0207C109.903 43.0207 110.199 42.9514 110.453 42.8128C110.712 42.6695 110.926 42.4777 111.097 42.2374C111.273 41.9971 111.405 41.7198 111.493 41.4056C111.58 41.0867 111.624 40.754 111.624 40.4073V40.3242C111.624 39.9683 111.58 39.631 111.493 39.3121C111.405 38.9932 111.273 38.7159 111.097 38.4802C110.926 38.2399 110.712 38.0504 110.453 37.9118C110.199 37.7685 109.903 37.6969 109.565 37.6969C109.228 37.6969 108.93 37.7685 108.671 37.9118C108.417 38.0504 108.202 38.2399 108.027 38.4802C107.856 38.7159 107.726 38.9932 107.638 39.3121C107.551 39.631 107.507 39.9683 107.507 40.3242V40.4073C107.507 40.754 107.551 41.0867 107.638 41.4056C107.726 41.7198 107.856 41.9971 108.027 42.2374C108.202 42.4777 108.417 42.6695 108.671 42.8128C108.93 42.9514 109.228 43.0207 109.565 43.0207ZM116.042 42.1404C116.042 42.2605 116.049 42.3738 116.063 42.48C116.081 42.5817 116.121 42.6718 116.181 42.7504C116.245 42.829 116.338 42.8913 116.458 42.9376C116.578 42.9838 116.742 43.0069 116.95 43.0069C117.006 43.0069 117.07 43.0046 117.144 43C117.223 42.9953 117.304 42.9907 117.387 42.9861C117.47 42.9768 117.551 42.9676 117.629 42.9584C117.708 42.9445 117.775 42.9329 117.83 42.9237L117.955 43.9427C117.821 43.9612 117.683 43.9774 117.539 43.9912C117.419 44.0051 117.285 44.0167 117.137 44.0259C116.989 44.0351 116.841 44.0398 116.694 44.0398C116.412 44.0398 116.157 44.0097 115.931 43.9496C115.709 43.8942 115.52 43.8018 115.363 43.6724C115.205 43.543 115.085 43.3743 115.002 43.1663C114.919 42.9537 114.877 42.6972 114.877 42.3969V37.8425H113.539V36.8165H114.877V34.5012L116.042 34.0922V36.8165H118.011V37.8425H116.042V42.1404ZM120.404 43.9011H119.24V36.8165H120.404V43.9011ZM119.025 34.7716C119.025 34.6606 119.045 34.5567 119.087 34.4596C119.133 34.3626 119.191 34.2771 119.26 34.2031C119.334 34.1292 119.42 34.0714 119.517 34.0298C119.619 33.9836 119.725 33.9605 119.836 33.9605C119.947 33.9605 120.051 33.9836 120.148 34.0298C120.245 34.0714 120.328 34.1292 120.397 34.2031C120.471 34.2771 120.529 34.3626 120.571 34.4596C120.617 34.5567 120.64 34.6606 120.64 34.7716C120.64 34.8825 120.617 34.9888 120.571 35.0904C120.529 35.1875 120.471 35.273 120.397 35.3469C120.328 35.4162 120.245 35.474 120.148 35.5202C120.051 35.5618 119.947 35.5826 119.836 35.5826C119.725 35.5826 119.619 35.5618 119.517 35.5202C119.42 35.474 119.334 35.4162 119.26 35.3469C119.191 35.273 119.133 35.1875 119.087 35.0904C119.045 34.9888 119.025 34.8825 119.025 34.7716ZM123.983 36.8165H125.39V37.8425H123.983V43.9011H122.818V37.8425H121.64V36.8165H122.818V35.4994C122.818 35.1944 122.867 34.9356 122.964 34.723C123.061 34.5104 123.195 34.3395 123.366 34.2101C123.542 34.076 123.747 33.9813 123.983 33.9258C124.223 33.8658 124.484 33.8357 124.766 33.8357C125.053 33.8357 125.291 33.8496 125.48 33.8773C125.67 33.9004 125.811 33.9189 125.903 33.9328L125.813 34.931C125.744 34.9264 125.663 34.9194 125.571 34.9102C125.483 34.901 125.39 34.894 125.293 34.8894C125.201 34.8848 125.111 34.8802 125.023 34.8755C124.935 34.8709 124.863 34.8686 124.808 34.8686C124.642 34.8686 124.505 34.894 124.399 34.9449C124.293 34.9911 124.207 35.0535 124.143 35.132C124.082 35.2106 124.041 35.3007 124.018 35.4024C123.995 35.504 123.983 35.6103 123.983 35.7213V36.8165ZM125.864 36.8165H127.181L128.928 42.6672L130.591 36.8165H131.895L129.316 44.9687C129.237 45.2182 129.136 45.4216 129.011 45.5787C128.886 45.7404 128.743 45.8675 128.581 45.96C128.424 46.057 128.248 46.124 128.054 46.161C127.86 46.198 127.654 46.2164 127.437 46.2164C127.243 46.2164 127.042 46.2049 126.834 46.1818C126.626 46.1633 126.407 46.1356 126.176 46.0986L126.349 45.0796C126.441 45.0981 126.541 45.1142 126.647 45.1281C126.735 45.142 126.834 45.1535 126.945 45.1628C127.056 45.172 127.169 45.1766 127.285 45.1766C127.539 45.1766 127.735 45.1212 127.874 45.0103C128.017 44.8993 128.119 44.7191 128.179 44.4696L128.248 44.1437L125.864 36.8165Z" fill="#0B0C0C"/>
</svg>
