<svg width="153" height="75" viewBox="0 0 153 75" fill="none" xmlns="http://www.w3.org/2000/svg">
<rect x="1" y="0.5" width="151" height="74" fill="white" stroke="#F3F3F3"/>
<path d="M39.0222 38.9517C39.0222 39.3799 39.0757 39.7919 39.1828 40.1876C39.2898 40.5832 39.4526 40.9323 39.6716 41.2349C39.8904 41.5376 40.1696 41.7808 40.5095 41.9646C40.8494 42.1485 41.2544 42.2406 41.7246 42.2406C42.1948 42.2406 42.5521 42.1684 42.8524 42.0241C43.1525 41.8799 43.3923 41.6994 43.5716 41.4828C43.7506 41.2664 43.8763 41.0326 43.9486 40.7812C44.0208 40.5299 44.0568 40.2971 44.0568 40.0829V39.9851H41.4942V38.4421H46.0258V43.9303H44.2524V42.7571C44.1267 42.9528 43.9706 43.1308 43.7846 43.2914C43.5983 43.4519 43.3889 43.5894 43.156 43.7033C42.9232 43.8174 42.6682 43.9071 42.3914 43.9722C42.1144 44.0374 41.8199 44.07 41.5082 44.07C40.7772 44.07 40.128 43.9373 39.5601 43.6719C38.9922 43.4066 38.5138 43.0413 38.1251 42.5757C37.7365 42.1103 37.4409 41.5656 37.2383 40.9417C37.0359 40.318 36.9346 39.6454 36.9346 38.9237C36.9346 38.202 37.0475 37.5355 37.2733 36.9094C37.4991 36.2834 37.8202 35.7387 38.237 35.2755C38.6536 34.8123 39.1562 34.447 39.7451 34.1792C40.334 33.9115 40.9938 33.7776 41.7248 33.7776C42.1996 33.7776 42.65 33.8323 43.0758 33.9416C43.5018 34.0511 43.8905 34.207 44.242 34.4094C44.5933 34.6119 44.904 34.8564 45.1741 35.1426C45.4439 35.4288 45.6629 35.7467 45.8306 36.0958L44.0569 37.0941C43.9498 36.8801 43.8241 36.6811 43.6799 36.4971C43.5354 36.3134 43.3691 36.1549 43.1807 36.0223C42.9921 35.8896 42.7768 35.7849 42.5348 35.7081C42.2927 35.6314 42.0227 35.5928 41.7249 35.5928C41.2547 35.5928 40.8497 35.6849 40.5098 35.8688C40.1699 36.0526 39.8907 36.2958 39.6719 36.5985C39.4531 36.9011 39.2903 37.2514 39.1832 37.6494C39.0761 38.0474 39.0225 38.4585 39.0225 38.8817V38.9517H39.0222Z" fill="#0B0C0C"/>
<path d="M52.4751 33.7775C53.2198 33.7775 53.8879 33.9113 54.4791 34.1791C55.0704 34.4468 55.572 34.8121 55.984 35.2753C56.3958 35.7385 56.7102 36.2832 56.9266 36.9093C57.143 37.5354 57.2511 38.207 57.2511 38.9236C57.2511 39.6402 57.143 40.3179 56.9266 40.9416C56.7102 41.5654 56.3958 42.1102 55.984 42.5756C55.5721 43.041 55.0704 43.4064 54.4791 43.6718C53.888 43.9372 53.2198 44.0698 52.4751 44.0698C51.7303 44.0698 51.0563 43.9372 50.4676 43.6718C49.8787 43.4064 49.3784 43.0411 48.9665 42.5756C48.5545 42.1102 48.2403 41.5654 48.0239 40.9416C47.8075 40.3179 47.6992 39.6453 47.6992 38.9236C47.6992 38.2018 47.8075 37.5354 48.0239 36.9093C48.2403 36.2832 48.5545 35.7385 48.9665 35.2753C49.3784 34.8121 49.8787 34.4468 50.4676 34.1791C51.0565 33.9113 51.7255 33.7775 52.4751 33.7775ZM52.4751 42.2403C52.9127 42.2403 53.2979 42.1577 53.6307 41.9923C53.9634 41.8272 54.2441 41.5978 54.472 41.3047C54.7001 41.0113 54.8724 40.6646 54.9887 40.2642C55.105 39.8639 55.1633 39.4263 55.1633 38.9515V38.8956C55.1633 38.4254 55.105 37.989 54.9887 37.5864C54.8724 37.1837 54.7001 36.8356 54.472 36.5425C54.2439 36.2493 53.9634 36.0201 53.6307 35.8547C53.2979 35.6896 52.9127 35.6069 52.4751 35.6069C52.0375 35.6069 51.6512 35.6896 51.3159 35.8547C50.9808 36.0201 50.7004 36.2493 50.4746 36.5425C50.2488 36.8356 50.0778 37.1839 49.9615 37.5864C49.8452 37.989 49.7868 38.4254 49.7868 38.8956V38.9515C49.7868 39.4263 49.8452 39.8639 49.9615 40.2642C50.0778 40.6646 50.2488 41.0112 50.4746 41.3047C50.7004 41.5978 50.9808 41.8272 51.3159 41.9923C51.6512 42.1577 52.0375 42.2403 52.4751 42.2403Z" fill="#0B0C0C"/>
<path d="M60.8201 43.9301L57.9922 33.9172H60.2616L62.1959 41.4443H62.2656L64.158 33.9172H66.3992L63.5713 43.9301H60.8203H60.8201Z" fill="#0B0C0C"/>
<path d="M77.8689 42.2403C78.162 42.2403 78.4356 42.1973 78.6892 42.1112C78.9429 42.0251 79.1617 41.8948 79.3456 41.7202C79.5293 41.5455 79.6749 41.3247 79.782 41.0568C79.8889 40.7892 79.9425 40.4738 79.9425 40.1108V33.9032H81.9325V40.4109C81.9325 40.9696 81.8314 41.4748 81.6291 41.9262C81.4269 42.3778 81.1455 42.7618 80.785 43.0784C80.4244 43.3951 79.9953 43.6393 79.4979 43.8115C79.0002 43.9836 78.456 44.0699 77.8654 44.0699C77.2749 44.0699 76.7305 43.9836 76.233 43.8115C75.7352 43.6393 75.3051 43.3949 74.9422 43.0784C74.5793 42.7618 74.2968 42.3779 74.0944 41.9262C73.8921 41.4748 73.791 40.9694 73.791 40.4109V33.9032H75.7951V40.1108C75.7951 40.4738 75.8486 40.7892 75.9555 41.0568C76.0626 41.3247 76.2081 41.5455 76.392 41.7202C76.5758 41.8948 76.7946 42.0251 77.0484 42.1112C77.3021 42.1973 77.5757 42.2403 77.8689 42.2403Z" fill="#0B0C0C"/>
<path d="M83.7285 33.9172H85.7535V38.2533L89.3286 33.9172H91.8214L88.3441 37.8972L92.0448 43.9301H89.6919L87.0454 39.4402L85.7535 40.8856V43.9301H83.7285V33.9172Z" fill="#0B0C0C"/>
<path d="M69.5781 40.6141C70.5117 40.6141 71.2685 39.8573 71.2685 38.9237C71.2685 37.9901 70.5117 37.2333 69.5781 37.2333C68.6445 37.2333 67.8877 37.9901 67.8877 38.9237C67.8877 39.8573 68.6445 40.6141 69.5781 40.6141Z" fill="#1D70B8"/>
<path d="M95.4311 33.9894H98.9179C99.3847 33.9894 99.8075 34.068 100.186 34.2251C100.565 34.3776 100.889 34.5925 101.157 34.8698C101.43 35.1425 101.638 35.4706 101.781 35.8542C101.929 36.2377 102.003 36.6583 102.003 37.1158C102.003 37.5779 101.922 38.0008 101.76 38.3844C101.603 38.7633 101.381 39.0891 101.095 39.3618C100.808 39.6345 100.466 39.8471 100.069 39.9996C99.6758 40.1474 99.246 40.2214 98.7793 40.2214H96.6511V43.9301H95.4311V33.9894ZM100.706 37.0881C100.706 36.7969 100.66 36.5266 100.568 36.277C100.475 36.0275 100.341 35.8126 100.166 35.6323C99.9901 35.4475 99.7752 35.3042 99.521 35.2026C99.2714 35.0963 98.9872 35.0431 98.6683 35.0431H96.6511V39.1746H98.6683C98.9872 39.1746 99.2714 39.1238 99.521 39.0221C99.7752 38.9205 99.9901 38.7818 100.166 38.6062C100.341 38.426 100.475 38.2134 100.568 37.9685C100.66 37.7189 100.706 37.4485 100.706 37.1574V37.0881ZM107.252 43.223C107.044 43.4633 106.762 43.6643 106.406 43.8261C106.055 43.9878 105.642 44.0687 105.166 44.0687C104.814 44.0687 104.489 44.0202 104.188 43.9231C103.888 43.8215 103.627 43.6782 103.405 43.4933C103.183 43.3085 103.01 43.0843 102.885 42.8209C102.76 42.5575 102.698 42.2594 102.698 41.9267C102.698 41.6494 102.742 41.3975 102.83 41.1711C102.922 40.94 103.049 40.739 103.211 40.568C103.377 40.397 103.576 40.2584 103.807 40.1521C104.038 40.0412 104.297 39.9649 104.583 39.9233L107.086 39.5836V39.133C107.086 38.865 107.044 38.6409 106.961 38.4606C106.878 38.2758 106.765 38.1302 106.621 38.0239C106.483 37.9176 106.316 37.8414 106.122 37.7952C105.933 37.7489 105.727 37.7258 105.505 37.7258C105.108 37.7258 104.736 37.7813 104.389 37.8922C104.047 38.0031 103.738 38.1325 103.46 38.2804L103.024 37.3584C103.43 37.1274 103.855 36.961 104.299 36.8593C104.747 36.7576 105.189 36.7068 105.623 36.7068C106.487 36.7068 107.141 36.9032 107.585 37.296C108.029 37.6842 108.25 38.2527 108.25 39.0013V42.2664C108.25 42.502 108.297 42.7008 108.389 42.8625C108.481 43.0196 108.629 43.1444 108.833 43.2368L108.174 44.0687C107.952 44.0132 107.761 43.9162 107.599 43.7775C107.442 43.6343 107.331 43.4633 107.266 43.2646L107.252 43.223ZM105.18 40.776C104.985 40.8037 104.807 40.843 104.646 40.8938C104.489 40.9446 104.355 41.014 104.244 41.1018C104.133 41.1849 104.045 41.2889 103.98 41.4137C103.92 41.5385 103.89 41.691 103.89 41.8712C103.89 42.0792 103.929 42.264 104.008 42.4258C104.087 42.5875 104.193 42.7239 104.327 42.8348C104.461 42.9457 104.616 43.0312 104.791 43.0913C104.972 43.1467 105.159 43.1745 105.353 43.1745C105.57 43.1745 105.783 43.1444 105.991 43.0843C106.199 43.0243 106.383 42.9388 106.545 42.8279C106.707 42.7123 106.836 42.5737 106.933 42.4119C107.035 42.2502 107.086 42.0653 107.086 41.8574V40.4917L105.18 40.776ZM109.313 36.8455H110.63L112.377 42.6961L114.041 36.8455H115.344L112.765 44.9976C112.687 45.2472 112.585 45.4505 112.46 45.6076C112.335 45.7694 112.192 45.8965 112.03 45.9889C111.873 46.0859 111.698 46.1529 111.504 46.1899C111.309 46.2269 111.104 46.2454 110.887 46.2454C110.692 46.2454 110.491 46.2338 110.283 46.2107C110.076 46.1922 109.856 46.1645 109.625 46.1275L109.798 45.1085C109.891 45.127 109.99 45.1432 110.096 45.157C110.184 45.1709 110.283 45.1825 110.394 45.1917C110.505 45.2009 110.619 45.2056 110.734 45.2056C110.988 45.2056 111.185 45.1501 111.323 45.0392C111.467 44.9283 111.568 44.748 111.628 44.4985L111.698 44.1727L109.313 36.8455Z" fill="#0B0C0C"/>
</svg>
