<svg width="152" height="75" viewBox="0 0 152 75" fill="none" xmlns="http://www.w3.org/2000/svg">
<rect x="0.734375" y="0.5" width="150" height="74" fill="white" stroke="#F3F3F3"/>
<path d="M69.8414 40.5857C70.7752 40.5857 71.5323 39.8286 71.5323 38.8947C71.5323 37.9608 70.7752 37.2037 69.8414 37.2037C68.9075 37.2037 68.1504 37.9608 68.1504 38.8947C68.1504 39.8286 68.9075 40.5857 69.8414 40.5857Z" fill="#1D70B8"/>
<path d="M39.2758 38.9228C39.2758 39.3512 39.3294 39.7634 39.4365 40.1592C39.5435 40.555 39.7064 40.9042 39.9254 41.2068C40.1443 41.5096 40.4236 41.7529 40.7636 41.9368C41.1036 42.1207 41.5087 42.2128 41.9791 42.2128C42.4494 42.2128 42.8068 42.1407 43.1072 41.9963C43.4075 41.852 43.6474 41.6715 43.8267 41.4549C44.0058 41.2384 44.1315 41.0045 44.2038 40.753C44.276 40.5016 44.312 40.2687 44.312 40.0544V39.9567H41.7486V38.4131H46.2817V43.9031H44.5077V42.7296C44.382 42.9253 44.2259 43.1034 44.0397 43.2641C43.8534 43.4246 43.6439 43.5621 43.4109 43.6761C43.178 43.7902 42.923 43.8799 42.6461 43.9451C42.3691 44.0103 42.0744 44.0428 41.7626 44.0428C41.0314 44.0428 40.3819 43.9101 39.8139 43.6447C39.2458 43.3792 38.7672 43.0138 38.3784 42.5481C37.9897 42.0825 37.694 41.5376 37.4913 40.9136C37.2888 40.2897 37.1875 39.6168 37.1875 38.8949C37.1875 38.1729 37.3004 37.5062 37.5263 36.8799C37.7522 36.2537 38.0734 35.7088 38.4904 35.2454C38.9071 34.7821 39.4099 34.4167 39.999 34.1488C40.588 33.881 41.2481 33.7471 41.9793 33.7471C42.4542 33.7471 42.9047 33.8018 43.3307 33.9112C43.7569 34.0207 44.1457 34.1766 44.4973 34.3791C44.8487 34.5816 45.1595 34.8263 45.4298 35.1125C45.6996 35.3988 45.9187 35.7168 46.0864 36.066L44.3122 37.0647C44.205 36.8506 44.0793 36.6515 43.935 36.4674C43.7905 36.2837 43.6242 36.1252 43.4356 35.9925C43.247 35.8598 43.0317 35.755 42.7896 35.6782C42.5473 35.6015 42.2773 35.5629 41.9794 35.5629C41.5091 35.5629 41.1039 35.655 40.7639 35.8389C40.4239 36.0228 40.1446 36.2661 39.9258 36.5689C39.7069 36.8716 39.544 37.222 39.4368 37.6202C39.3297 38.0183 39.2761 38.4295 39.2761 38.8529V38.9228H39.2758Z" fill="#0B0C0C"/>
<path d="M52.7335 33.7469C53.4785 33.7469 54.1467 33.8809 54.7382 34.1487C55.3295 34.4165 55.8314 34.782 56.2435 35.2453C56.6555 35.7087 56.9699 36.2535 57.1864 36.8798C57.4029 37.5061 57.5111 38.1779 57.5111 38.8947C57.5111 39.6116 57.4029 40.2896 57.1864 40.9134C56.9699 41.5375 56.6555 42.0824 56.2435 42.5479C55.8315 43.0135 55.3296 43.3791 54.7382 43.6445C54.1469 43.91 53.4785 44.0427 52.7335 44.0427C51.9885 44.0427 51.3143 43.91 50.7254 43.6445C50.1363 43.3791 49.6358 43.0137 49.2238 42.5479C48.8116 42.0824 48.4974 41.5375 48.2809 40.9134C48.0644 40.2896 47.9561 39.6167 47.9561 38.8947C47.9561 38.1728 48.0644 37.5061 48.2809 36.8798C48.4974 36.2535 48.8116 35.7087 49.2238 35.2453C49.6358 34.782 50.1363 34.4165 50.7254 34.1487C51.3144 33.8809 51.9837 33.7469 52.7335 33.7469ZM52.7335 42.2127C53.1712 42.2127 53.5566 42.1301 53.8894 41.9647C54.2223 41.7995 54.5031 41.5701 54.731 41.2768C54.9593 40.9834 55.1316 40.6366 55.2479 40.236C55.3643 39.8356 55.4226 39.3978 55.4226 38.9229V38.8669C55.4226 38.3966 55.3643 37.96 55.2479 37.5573C55.1316 37.1545 54.9593 36.8063 54.731 36.513C54.5029 36.2198 54.2223 35.9905 53.8894 35.825C53.5566 35.6599 53.1712 35.5771 52.7335 35.5771C52.2957 35.5771 51.9093 35.6599 51.5739 35.825C51.2387 35.9905 50.9582 36.2198 50.7324 36.513C50.5065 36.8063 50.3354 37.1546 50.219 37.5573C50.1027 37.96 50.0443 38.3966 50.0443 38.8669V38.9229C50.0443 39.3978 50.1027 39.8356 50.219 40.236C50.3354 40.6366 50.5065 40.9832 50.7324 41.2768C50.9582 41.5701 51.2387 41.7995 51.5739 41.9647C51.9093 42.1301 52.2957 42.2127 52.7335 42.2127Z" fill="#0B0C0C"/>
<path d="M61.0828 43.9029L58.2539 33.8867H60.524L62.459 41.4162H62.5287L64.4217 33.8867H66.6637L63.8348 43.9029H61.0829H61.0828Z" fill="#0B0C0C"/>
<path d="M78.1358 42.2128C78.4291 42.2128 78.7027 42.1698 78.9564 42.0836C79.2102 41.9975 79.4291 41.8672 79.613 41.6925C79.7967 41.5178 79.9424 41.2968 80.0496 41.0288C80.1565 40.7612 80.2101 40.4457 80.2101 40.0825V33.8729H82.2008V40.3828C82.2008 40.9417 82.0996 41.447 81.8973 41.8985C81.695 42.3503 81.4135 42.7345 81.0529 43.0511C80.6922 43.3679 80.263 43.6122 79.7654 43.7845C79.2676 43.9566 78.7232 44.043 78.1324 44.043C77.5416 44.043 76.9971 43.9566 76.4994 43.7845C76.0015 43.6122 75.5712 43.3677 75.2082 43.0511C74.8451 42.7345 74.5626 42.3505 74.3601 41.8985C74.1578 41.447 74.0566 40.9415 74.0566 40.3828V33.8729H76.0613V40.0825C76.0613 40.4457 76.1149 40.7612 76.2219 41.0288C76.329 41.2968 76.4745 41.5178 76.6584 41.6925C76.8423 41.8672 77.0612 41.9975 77.3151 42.0836C77.5689 42.1698 77.8425 42.2128 78.1358 42.2128Z" fill="#0B0C0C"/>
<path d="M83.9971 33.8867H86.0227V38.2242L89.599 33.8867H92.0926L88.6141 37.868L92.3161 43.9029H89.9624L87.315 39.4115L86.0227 40.8574V43.9029H83.9971V33.8867Z" fill="#0B0C0C"/>
<path d="M21.2845 34.3204C21.462 33.8895 21.9592 33.6793 22.3872 33.8549C22.8239 34.0338 23.0283 34.5345 22.8499 34.9646C22.6723 35.3955 22.177 35.6018 21.7405 35.4213C21.3124 35.2458 21.107 34.7498 21.2846 34.3206L21.2845 34.3204Z" fill="#0B0C0C"/>
<path d="M19.4719 36.7765C19.0439 36.6006 18.8385 36.1046 19.0161 35.6752C19.1945 35.2435 19.6918 35.0333 20.1198 35.2092C20.5555 35.3876 20.7599 35.8883 20.5815 36.3184C20.4039 36.7493 19.9086 36.9556 19.4721 36.7751V36.7765H19.4719Z" fill="#0B0C0C"/>
<path d="M17.5143 37.9101C17.6919 37.4792 18.189 37.269 18.617 37.4449C19.0538 37.6233 19.2582 38.1241 19.0797 38.5541C18.9021 38.9851 18.4069 39.1913 17.9703 39.0112C17.5423 38.8353 17.336 38.3402 17.5145 37.91L17.5143 37.9101Z" fill="#0B0C0C"/>
<path d="M24.3103 32.723C24.342 32.7653 24.3794 32.8018 24.4207 32.8334L23.8057 34.6912C23.8047 34.6929 23.8038 34.6959 23.8038 34.698C23.8038 34.698 23.8316 34.6064 23.8038 34.6997C23.775 34.7925 23.7596 34.8914 23.7596 34.9933C23.7596 35.4954 24.131 35.9108 24.6136 35.9819C24.6203 35.9828 24.628 35.9845 24.6348 35.9845C24.6761 35.9892 24.7174 35.993 24.7605 35.993C24.8037 35.993 24.845 35.9904 24.8863 35.9845C24.8939 35.9836 24.9016 35.9819 24.9083 35.9819C25.3909 35.9109 25.7623 35.4962 25.7623 34.9933C25.7623 34.8906 25.7469 34.7925 25.7181 34.6997V34.698C25.7171 34.6958 25.7162 34.6912 25.7162 34.6912L25.1002 32.8334C25.1415 32.8016 25.1788 32.7644 25.2106 32.723L25.2124 32.7213L26.2852 33.2844V31.704L25.2143 32.0438L25.2114 32.0408C25.1817 32.0005 25.1461 31.9659 25.1077 31.935L25.1048 31.9324L25.5356 30.5753H23.9877L24.4185 31.9311L24.4156 31.9341C24.3762 31.965 24.3417 32.0005 24.312 32.0399L24.3091 32.0425L23.2383 31.7031V33.2844L24.311 32.7213L24.3129 32.723" fill="#0B0C0C"/>
<path d="M28.2558 34.3204C28.0782 33.8895 27.5811 33.6793 27.1531 33.8549C26.7163 34.0338 26.512 34.5345 26.6904 34.9646C26.868 35.3955 27.3631 35.6018 27.7998 35.4213C28.2278 35.2458 28.4332 34.7498 28.2556 34.3206L28.2558 34.3204Z" fill="#0B0C0C"/>
<path d="M30.0684 36.7765C30.4964 36.6006 30.7018 36.1046 30.5242 35.6752C30.3458 35.2435 29.8486 35.0333 29.4206 35.2092C28.9849 35.3876 28.7805 35.8883 28.959 36.3184C29.1366 36.7493 29.6316 36.9556 30.0684 36.7751V36.7765Z" fill="#0B0C0C"/>
<path d="M32.0283 37.9101C31.8507 37.4792 31.3536 37.269 30.9255 37.4449C30.4888 37.6233 30.2844 38.1241 30.4629 38.5541C30.6405 38.9851 31.1355 39.1913 31.5723 39.0112C32.0003 38.8353 32.2067 38.3402 32.0281 37.91L32.0283 37.9101Z" fill="#0B0C0C"/>
<path d="M24.7636 44.0429C26.7931 44.0429 28.7131 44.1802 30.4249 44.4247C30.9104 42.3821 31.5016 41.2103 32.1128 40.3774L30.9633 39.9678C31.0785 40.5511 31.0967 40.8237 30.9681 41.1987C30.7781 41.0137 30.5988 40.6719 30.4585 40.151L29.901 42.0066C30.2407 41.7734 30.5017 41.6219 30.8011 41.6151C30.2705 42.7581 29.6074 43.0526 29.1785 42.9731C28.6546 42.8763 28.4127 42.4091 28.4944 42.0128C28.6154 41.4513 29.191 41.3044 29.4607 41.958C29.9759 40.9073 29.1028 40.5799 28.5405 40.8911C29.4041 40.0301 29.503 39.2644 28.8054 38.3374C27.8334 39.0804 27.8219 39.8151 28.2595 40.8495C27.6925 40.1998 26.8096 40.5482 27.1281 41.597C27.5369 40.9636 28.079 41.3616 27.9937 41.9633C27.9217 42.487 27.23 42.9103 26.3683 42.8354C25.1333 42.7233 25.0594 41.8712 25.0287 41.1659C25.3319 41.1103 25.8788 41.3915 26.3452 42.0459L26.517 40.0777C26.0095 40.6067 25.5489 40.7063 25.0374 40.7225C25.2082 40.1901 25.9913 39.3197 25.9913 39.3197H23.5348C23.5348 39.3197 24.3179 40.191 24.4886 40.7225C23.9762 40.7063 23.5157 40.6065 23.009 40.0777L23.1808 42.0459C23.6472 41.3915 24.1942 41.1095 24.4973 41.1659C24.4666 41.8712 24.3928 42.7233 23.1578 42.8354C22.2961 42.9103 21.6043 42.487 21.5323 41.9633C21.4469 41.3616 21.989 40.9636 22.3978 41.597C22.7173 40.5489 21.8345 40.2007 21.2674 40.8495C21.704 39.8151 21.6925 39.0804 20.7215 38.3374C20.0248 39.2636 20.1237 40.0291 20.9873 40.8911C20.425 40.5799 19.5519 40.9073 20.0662 41.958C20.3349 41.3044 20.9115 41.4505 21.0325 42.0128C21.1132 42.4099 20.8723 42.8772 20.3484 42.9731C19.9185 43.0519 19.2564 42.7583 18.7257 41.6151C19.024 41.6228 19.2861 41.7734 19.6249 42.0066L19.0684 40.151C18.9283 40.6719 18.7489 41.0137 18.5588 41.1987C18.4312 40.8237 18.4495 40.5521 18.5636 39.9678L17.4131 40.3774C18.0243 41.2111 18.6163 42.3811 19.102 44.4247C20.8138 44.1804 22.7349 44.0429 24.7653 44.0429" fill="#0B0C0C"/>
<path d="M24.7629 38.4872C25.2296 38.4872 25.6079 38.1089 25.6079 37.6422C25.6079 37.1755 25.2296 36.7972 24.7629 36.7972C24.2963 36.7972 23.918 37.1755 23.918 37.6422C23.918 38.1089 24.2963 38.4872 24.7629 38.4872Z" fill="#0B0C0C"/>
<path d="M104.213 42.1421H104.282L105.974 33.9622H107.221L105.01 43.9028H103.561L101.447 35.7854L99.3397 43.9028H97.884L95.6796 33.9622H96.9135L98.6326 42.1421H98.7158L100.879 33.9622H102.057L104.213 42.1421ZM112.305 43.1958C112.097 43.4361 111.815 43.6371 111.459 43.7989C111.108 43.9606 110.694 44.0415 110.218 44.0415C109.867 44.0415 109.541 43.9929 109.241 43.8959C108.94 43.7942 108.679 43.651 108.457 43.4661C108.236 43.2813 108.062 43.0571 107.937 42.7937C107.813 42.5303 107.75 42.2322 107.75 41.8995C107.75 41.6222 107.794 41.3703 107.882 41.1439C107.974 40.9128 108.101 40.7118 108.263 40.5408C108.43 40.3698 108.628 40.2311 108.859 40.1248C109.09 40.0139 109.349 39.9377 109.636 39.8961L112.138 39.5564V39.1058C112.138 38.8378 112.097 38.6136 112.014 38.4334C111.93 38.2486 111.817 38.103 111.674 37.9967C111.535 37.8904 111.369 37.8141 111.175 37.7679C110.985 37.7217 110.78 37.6986 110.558 37.6986C110.16 37.6986 109.788 37.7541 109.442 37.865C109.1 37.9759 108.79 38.1053 108.513 38.2532L108.076 37.3312C108.483 37.1001 108.908 36.9338 109.352 36.8321C109.8 36.7304 110.241 36.6796 110.676 36.6796C111.54 36.6796 112.194 36.876 112.637 37.2688C113.081 37.657 113.303 38.2254 113.303 38.9741V42.2391C113.303 42.4748 113.349 42.6735 113.442 42.8353C113.534 42.9924 113.682 43.1172 113.885 43.2096L113.227 44.0415C113.005 43.986 112.813 43.889 112.651 43.7503C112.494 43.6071 112.383 43.4361 112.319 43.2374L112.305 43.1958ZM110.232 40.7487C110.038 40.7765 109.86 40.8157 109.698 40.8666C109.541 40.9174 109.407 40.9867 109.296 41.0745C109.185 41.1577 109.097 41.2617 109.033 41.3865C108.973 41.5113 108.943 41.6638 108.943 41.844C108.943 42.052 108.982 42.2368 109.06 42.3986C109.139 42.5603 109.245 42.6966 109.379 42.8076C109.513 42.9185 109.668 43.004 109.844 43.064C110.024 43.1195 110.211 43.1472 110.405 43.1472C110.622 43.1472 110.835 43.1172 111.043 43.0571C111.251 42.997 111.436 42.9115 111.598 42.8006C111.759 42.6851 111.889 42.5465 111.986 42.3847C112.087 42.223 112.138 42.0381 112.138 41.8301V40.4645L110.232 40.7487ZM115.156 33.9622H116.32V42.3154C116.32 42.4309 116.33 42.5326 116.348 42.6204C116.371 42.7082 116.408 42.7821 116.459 42.8422C116.51 42.9023 116.579 42.9485 116.667 42.9809C116.759 43.0086 116.873 43.0225 117.007 43.0225C117.154 43.0225 117.288 43.0178 117.409 43.0086C117.529 42.9993 117.635 42.9901 117.727 42.9809L117.845 43.9583C117.711 43.9722 117.577 43.986 117.443 43.9999C117.328 44.0091 117.201 44.0184 117.062 44.0276C116.923 44.0369 116.792 44.0415 116.667 44.0415C116.459 44.0415 116.263 44.0161 116.078 43.9652C115.893 43.919 115.731 43.8404 115.592 43.7295C115.458 43.6186 115.352 43.4754 115.274 43.2997C115.195 43.1241 115.156 42.9092 115.156 42.6551V33.9622ZM118.7 33.9622H119.865V42.3154C119.865 42.4309 119.874 42.5326 119.892 42.6204C119.915 42.7082 119.952 42.7821 120.003 42.8422C120.054 42.9023 120.123 42.9485 120.211 42.9809C120.304 43.0086 120.417 43.0225 120.551 43.0225C120.699 43.0225 120.833 43.0178 120.953 43.0086C121.073 42.9993 121.179 42.9901 121.272 42.9809L121.39 43.9583C121.256 43.9722 121.122 43.986 120.988 43.9999C120.872 44.0091 120.745 44.0184 120.606 44.0276C120.468 44.0369 120.336 44.0415 120.211 44.0415C120.003 44.0415 119.807 44.0161 119.622 43.9652C119.437 43.919 119.275 43.8404 119.137 43.7295C119.003 43.6186 118.896 43.4754 118.818 43.2997C118.739 43.1241 118.7 42.9092 118.7 42.6551V33.9622ZM123.083 40.721C123.106 41.0537 123.173 41.3611 123.284 41.643C123.395 41.9249 123.545 42.1698 123.735 42.3778C123.929 42.5811 124.155 42.7406 124.414 42.8561C124.677 42.967 124.968 43.0225 125.287 43.0225C125.68 43.0225 126.024 42.9578 126.32 42.8284C126.621 42.6943 126.896 42.528 127.145 42.3292L127.741 43.168C127.422 43.4222 127.053 43.6325 126.632 43.7989C126.216 43.9606 125.749 44.0415 125.232 44.0415C124.719 44.0415 124.254 43.9514 123.839 43.7711C123.423 43.5863 123.067 43.3321 122.771 43.0086C122.48 42.6805 122.256 42.2923 122.099 41.844C121.941 41.3911 121.863 40.8989 121.863 40.3675C121.863 39.8268 121.939 39.3323 122.092 38.884C122.249 38.4311 122.468 38.0429 122.75 37.7194C123.032 37.3913 123.369 37.1371 123.762 36.9569C124.155 36.772 124.592 36.6796 125.072 36.6796C125.539 36.6796 125.96 36.772 126.334 36.9569C126.708 37.1371 127.027 37.3913 127.291 37.7194C127.554 38.0429 127.755 38.4311 127.894 38.884C128.037 39.3323 128.109 39.8221 128.109 40.3536V40.721H123.083ZM125.031 37.6986C124.735 37.6986 124.472 37.7564 124.241 37.8719C124.01 37.9874 123.811 38.1423 123.644 38.3364C123.483 38.5305 123.353 38.7546 123.256 39.0088C123.164 39.2583 123.111 39.5171 123.097 39.7852H126.847C126.838 39.5125 126.789 39.2514 126.701 39.0018C126.618 38.7477 126.498 38.5258 126.341 38.3364C126.189 38.1423 126.001 37.9874 125.78 37.8719C125.562 37.7564 125.313 37.6986 125.031 37.6986ZM131.286 42.1421C131.286 42.2622 131.292 42.3755 131.306 42.4818C131.325 42.5834 131.364 42.6735 131.424 42.7521C131.489 42.8307 131.581 42.8931 131.701 42.9393C131.822 42.9855 131.986 43.0086 132.194 43.0086C132.249 43.0086 132.314 43.0063 132.388 43.0017C132.466 42.997 132.547 42.9924 132.63 42.9878C132.714 42.9786 132.794 42.9693 132.873 42.9601C132.952 42.9462 133.019 42.9346 133.074 42.9254L133.199 43.9444C133.065 43.9629 132.926 43.9791 132.783 43.9929C132.663 44.0068 132.529 44.0184 132.381 44.0276C132.233 44.0369 132.085 44.0415 131.937 44.0415C131.655 44.0415 131.401 44.0114 131.175 43.9514C130.953 43.8959 130.763 43.8035 130.606 43.6741C130.449 43.5447 130.329 43.376 130.246 43.168C130.163 42.9554 130.121 42.699 130.121 42.3986V37.8442H128.783V36.8182H130.121V34.5029L131.286 34.0939V36.8182H133.254V37.8442H131.286V42.1421Z" fill="#0B0C0C"/>
</svg>
