<svg width="153" height="75" viewBox="0 0 153 75" fill="none" xmlns="http://www.w3.org/2000/svg">
<rect x="1" y="0.5" width="151" height="74" fill="white" stroke="#F3F3F3"/>
<path d="M30.159 38.9519C30.159 39.3801 30.2125 39.7921 30.3196 40.1878C30.4265 40.5834 30.5894 40.9325 30.8084 41.235C31.0272 41.5377 31.3064 41.7809 31.6463 41.9647C31.9862 42.1486 32.3913 42.2407 32.8615 42.2407C33.3317 42.2407 33.689 42.1685 33.9893 42.0243C34.2895 41.88 34.5292 41.6996 34.7085 41.483C34.8876 41.2666 35.0133 41.0328 35.0856 40.7814C35.1577 40.53 35.1937 40.2972 35.1937 40.083V39.9853H32.631V38.4423H37.1628V43.9304H35.3893V42.7572C35.2636 42.9528 35.1076 43.1309 34.9215 43.2915C34.7353 43.452 34.5258 43.5894 34.2929 43.7034C34.0601 43.8175 33.8051 43.9072 33.5283 43.9723C33.2513 44.0374 32.9568 44.07 32.645 44.07C31.9141 44.07 31.2648 43.9373 30.6969 43.672C30.1289 43.4066 29.6506 43.0413 29.2619 42.5758C28.8732 42.1104 28.5776 41.5657 28.375 40.9419C28.1726 40.3182 28.0713 39.6456 28.0713 38.9239C28.0713 38.2022 28.1842 37.5357 28.41 36.9097C28.6358 36.2837 28.9569 35.739 29.3738 35.2758C29.7904 34.8126 30.293 34.4473 30.8819 34.1796C31.4708 33.9118 32.1307 33.778 32.8616 33.778C33.3364 33.778 33.7868 33.8327 34.2127 33.942C34.6387 34.0515 35.0274 34.2074 35.3789 34.4098C35.7302 34.6122 36.041 34.8568 36.3111 35.1429C36.5809 35.4291 36.7999 35.747 36.9676 36.0961L35.1939 37.0944C35.0868 36.8804 34.9611 36.6813 34.8168 36.4973C34.6723 36.3137 34.506 36.1552 34.3176 36.0226C34.129 35.8899 33.9137 35.7852 33.6717 35.7084C33.4295 35.6317 33.1596 35.5931 32.8618 35.5931C32.3916 35.5931 31.9865 35.6852 31.6466 35.8691C31.3067 36.0529 31.0276 36.2961 30.8087 36.5988C30.5899 36.9013 30.4271 37.2516 30.32 37.6497C30.2129 38.0477 30.1593 38.4587 30.1593 38.882V38.9519H30.159Z" fill="#0B0C0C"/>
<path d="M43.6119 33.7778C44.3567 33.7778 45.0248 33.9117 45.6161 34.1794C46.2073 34.4472 46.7089 34.8125 47.121 35.2757C47.5328 35.7388 47.8472 36.2835 48.0636 36.9096C48.28 37.5356 48.3881 38.2072 48.3881 38.9238C48.3881 39.6404 48.28 40.3181 48.0636 40.9417C47.8472 41.5656 47.5328 42.1103 47.121 42.5757C46.7091 43.0411 46.2073 43.4065 45.6161 43.6719C45.0249 43.9372 44.3567 44.0699 43.6119 44.0699C42.8672 44.0699 42.1932 43.9372 41.6044 43.6719C41.0155 43.4065 40.5151 43.0412 40.1033 42.5757C39.6912 42.1103 39.3771 41.5656 39.1607 40.9417C38.9442 40.3181 38.8359 39.6455 38.8359 38.9238C38.8359 38.2021 38.9442 37.5356 39.1607 36.9096C39.3771 36.2835 39.6912 35.7388 40.1033 35.2757C40.5151 34.8125 41.0155 34.4472 41.6044 34.1794C42.1933 33.9117 42.8624 33.7778 43.6119 33.7778ZM43.6119 42.2404C44.0496 42.2404 44.4348 42.1578 44.7676 41.9924C45.1003 41.8273 45.381 41.598 45.6089 41.3048C45.8371 41.0115 46.0093 40.6648 46.1256 40.2644C46.242 39.8641 46.3003 39.4265 46.3003 38.9517V38.8958C46.3003 38.4256 46.242 37.9892 46.1256 37.5866C46.0093 37.184 45.8371 36.8359 45.6089 36.5427C45.3809 36.2496 45.1003 36.0204 44.7676 35.855C44.4348 35.6899 44.0496 35.6072 43.6119 35.6072C43.1743 35.6072 42.788 35.6899 42.4527 35.855C42.1176 36.0204 41.8372 36.2496 41.6114 36.5427C41.3856 36.8359 41.2146 37.1841 41.0982 37.5866C40.9819 37.9892 40.9236 38.4256 40.9236 38.8958V38.9517C40.9236 39.4265 40.9819 39.8641 41.0982 40.2644C41.2146 40.6648 41.3856 41.0113 41.6114 41.3048C41.8372 41.598 42.1176 41.8273 42.4527 41.9924C42.788 42.1578 43.1743 42.2404 43.6119 42.2404Z" fill="#0B0C0C"/>
<path d="M51.9579 43.9302L49.1299 33.9176H51.3994L53.3337 41.4444H53.4035L55.2959 33.9176H57.5372L54.7092 43.9302H51.9581H51.9579Z" fill="#0B0C0C"/>
<path d="M69.0067 42.2404C69.2998 42.2404 69.5734 42.1975 69.827 42.1113C70.0808 42.0252 70.2996 41.8949 70.4834 41.7203C70.6671 41.5457 70.8128 41.3248 70.9199 41.0569C71.0268 40.7893 71.0804 40.474 71.0804 40.1109V33.9036H73.0705V40.4111C73.0705 40.9698 72.9693 41.4749 72.7671 41.9263C72.5648 42.3779 72.2834 42.7619 71.9229 43.0784C71.5623 43.3951 71.1332 43.6393 70.6357 43.8116C70.1381 43.9837 69.5939 44.0699 69.0033 44.0699C68.4127 44.0699 67.8683 43.9837 67.3708 43.8116C66.873 43.6393 66.4428 43.395 66.0799 43.0784C65.717 42.7619 65.4346 42.378 65.2321 41.9263C65.0298 41.4749 64.9287 40.9696 64.9287 40.4111V33.9036H66.9328V40.1109C66.9328 40.474 66.9864 40.7893 67.0933 41.0569C67.2004 41.3248 67.3459 41.5457 67.5297 41.7203C67.7136 41.8949 67.9324 42.0252 68.1862 42.1113C68.4399 42.1975 68.7135 42.2404 69.0067 42.2404Z" fill="#0B0C0C"/>
<path d="M74.8672 33.9176H76.8923V38.2535L80.4675 33.9176H82.9603L79.4829 37.8974L83.1838 43.9302H80.8307L78.1842 39.4404L76.8923 40.8857V43.9302H74.8672V33.9176Z" fill="#0B0C0C"/>
<path d="M60.7159 40.6142C61.6495 40.6142 62.4063 39.8574 62.4063 38.9239C62.4063 37.9903 61.6495 37.2335 60.7159 37.2335C59.7822 37.2335 59.0254 37.9903 59.0254 38.9239C59.0254 39.8574 59.7822 40.6142 60.7159 40.6142Z" fill="#1D70B8"/>
<path d="M95.086 42.1694H95.1553L96.8468 33.9896H98.0945L95.8832 43.9302H94.4344L92.3201 35.8127L90.2127 43.9302H88.757L86.5526 33.9896H87.7865L89.5057 42.1694H89.5889L91.7517 33.9896H92.9301L95.086 42.1694ZM103.178 43.2231C102.97 43.4634 102.688 43.6644 102.332 43.8262C101.981 43.9879 101.567 44.0688 101.091 44.0688C100.74 44.0688 100.414 44.0203 100.114 43.9232C99.8133 43.8216 99.5522 43.6783 99.3304 43.4935C99.1086 43.3086 98.9353 43.0845 98.8105 42.821C98.6857 42.5576 98.6233 42.2595 98.6233 41.9268C98.6233 41.6495 98.6672 41.3977 98.755 41.1712C98.8474 40.9401 98.9745 40.7391 99.1363 40.5681C99.3027 40.3971 99.5014 40.2585 99.7324 40.1522C99.9635 40.0413 100.222 39.965 100.509 39.9234L103.011 39.5838V39.1332C103.011 38.8651 102.97 38.641 102.887 38.4608C102.803 38.2759 102.69 38.1303 102.547 38.024C102.408 37.9177 102.242 37.8415 102.048 37.7953C101.858 37.7491 101.653 37.726 101.431 37.726C101.033 37.726 100.661 37.7814 100.315 37.8923C99.9728 38.0032 99.6631 38.1326 99.3858 38.2805L98.9491 37.3586C99.3558 37.1275 99.781 36.9611 100.225 36.8594C100.673 36.7578 101.114 36.7069 101.549 36.7069C102.413 36.7069 103.067 36.9033 103.51 37.2962C103.954 37.6844 104.176 38.2528 104.176 39.0015V42.2665C104.176 42.5022 104.222 42.7009 104.315 42.8626C104.407 43.0198 104.555 43.1445 104.758 43.237L104.1 44.0688C103.878 44.0134 103.686 43.9163 103.524 43.7777C103.367 43.6344 103.256 43.4634 103.192 43.2647L103.178 43.2231ZM101.105 40.7761C100.911 40.8038 100.733 40.8431 100.571 40.8939C100.414 40.9448 100.28 41.0141 100.169 41.1019C100.058 41.1851 99.9704 41.289 99.9057 41.4138C99.8457 41.5386 99.8156 41.6911 99.8156 41.8713C99.8156 42.0793 99.8549 42.2642 99.9335 42.4259C100.012 42.5877 100.118 42.724 100.252 42.8349C100.386 42.9458 100.541 43.0313 100.717 43.0914C100.897 43.1468 101.084 43.1746 101.278 43.1746C101.496 43.1746 101.708 43.1445 101.916 43.0845C102.124 43.0244 102.309 42.9389 102.471 42.828C102.632 42.7124 102.762 42.5738 102.859 42.412C102.96 42.2503 103.011 42.0654 103.011 41.8575V40.4919L101.105 40.7761ZM106.029 33.9896H107.193V42.3427C107.193 42.4583 107.203 42.5599 107.221 42.6477C107.244 42.7355 107.281 42.8095 107.332 42.8696C107.383 42.9296 107.452 42.9759 107.54 43.0082C107.632 43.0359 107.746 43.0498 107.88 43.0498C108.027 43.0498 108.161 43.0452 108.282 43.0359C108.402 43.0267 108.508 43.0175 108.601 43.0082L108.718 43.9856C108.584 43.9995 108.45 44.0134 108.316 44.0272C108.201 44.0365 108.074 44.0457 107.935 44.055C107.796 44.0642 107.665 44.0688 107.54 44.0688C107.332 44.0688 107.136 44.0434 106.951 43.9926C106.766 43.9464 106.604 43.8678 106.465 43.7569C106.331 43.646 106.225 43.5027 106.147 43.3271C106.068 43.1515 106.029 42.9366 106.029 42.6824V33.9896ZM109.573 33.9896H110.738V42.3427C110.738 42.4583 110.747 42.5599 110.765 42.6477C110.788 42.7355 110.825 42.8095 110.876 42.8696C110.927 42.9296 110.996 42.9759 111.084 43.0082C111.177 43.0359 111.29 43.0498 111.424 43.0498C111.572 43.0498 111.706 43.0452 111.826 43.0359C111.946 43.0267 112.052 43.0175 112.145 43.0082L112.263 43.9856C112.129 43.9995 111.995 44.0134 111.861 44.0272C111.745 44.0365 111.618 44.0457 111.479 44.055C111.341 44.0642 111.209 44.0688 111.084 44.0688C110.876 44.0688 110.68 44.0434 110.495 43.9926C110.31 43.9464 110.148 43.8678 110.01 43.7569C109.876 43.646 109.769 43.5027 109.691 43.3271C109.612 43.1515 109.573 42.9366 109.573 42.6824V33.9896ZM113.956 40.7483C113.979 41.0811 114.046 41.3884 114.157 41.6703C114.268 41.9522 114.418 42.1972 114.608 42.4051C114.802 42.6085 115.028 42.7679 115.287 42.8834C115.55 42.9943 115.842 43.0498 116.16 43.0498C116.553 43.0498 116.898 42.9851 117.193 42.8557C117.494 42.7217 117.769 42.5553 118.018 42.3566L118.614 43.1954C118.295 43.4496 117.926 43.6598 117.505 43.8262C117.089 43.9879 116.623 44.0688 116.105 44.0688C115.592 44.0688 115.128 43.9787 114.712 43.7985C114.296 43.6136 113.94 43.3594 113.644 43.0359C113.353 42.7078 113.129 42.3196 112.972 41.8713C112.815 41.4184 112.736 40.9263 112.736 40.3948C112.736 39.8541 112.812 39.3596 112.965 38.9113C113.122 38.4584 113.341 38.0702 113.623 37.7468C113.905 37.4186 114.243 37.1645 114.635 36.9842C115.028 36.7994 115.465 36.7069 115.945 36.7069C116.412 36.7069 116.833 36.7994 117.207 36.9842C117.581 37.1645 117.9 37.4186 118.164 37.7468C118.427 38.0702 118.628 38.4584 118.767 38.9113C118.91 39.3596 118.982 39.8495 118.982 40.3809V40.7483H113.956ZM115.904 37.726C115.608 37.726 115.345 37.7837 115.114 37.8993C114.883 38.0148 114.684 38.1696 114.517 38.3637C114.356 38.5578 114.226 38.7819 114.129 39.0361C114.037 39.2857 113.984 39.5445 113.97 39.8125H117.72C117.711 39.5399 117.662 39.2787 117.575 39.0292C117.491 38.775 117.371 38.5532 117.214 38.3637C117.062 38.1696 116.874 38.0148 116.653 37.8993C116.435 37.7837 116.186 37.726 115.904 37.726ZM122.159 42.1694C122.159 42.2896 122.166 42.4028 122.179 42.5091C122.198 42.6108 122.237 42.7009 122.297 42.7794C122.362 42.858 122.454 42.9204 122.575 42.9666C122.695 43.0128 122.859 43.0359 123.067 43.0359C123.122 43.0359 123.187 43.0336 123.261 43.029C123.339 43.0244 123.42 43.0198 123.503 43.0151C123.587 43.0059 123.667 42.9967 123.746 42.9874C123.825 42.9735 123.892 42.962 123.947 42.9528L124.072 43.9718C123.938 43.9903 123.799 44.0064 123.656 44.0203C123.536 44.0342 123.402 44.0457 123.254 44.055C123.106 44.0642 122.958 44.0688 122.81 44.0688C122.528 44.0688 122.274 44.0388 122.048 43.9787C121.826 43.9232 121.636 43.8308 121.479 43.7014C121.322 43.572 121.202 43.4033 121.119 43.1954C121.036 42.9828 120.994 42.7263 120.994 42.4259V37.8715H119.656V36.8456H120.994V34.5303L122.159 34.1213V36.8456H124.127V37.8715H122.159V42.1694Z" fill="#0B0C0C"/>
</svg>
