<svg width="480" height="320" viewBox="0 0 480 320" fill="none" xmlns="http://www.w3.org/2000/svg">
<g clip-path="url(#clip0_1168_21347)">
<path d="M480 0H0V320H480V0Z" fill="white"/>
<path d="M221.979 161.676C225.307 161.676 228.005 158.978 228.005 155.649C228.005 152.321 225.307 149.623 221.979 149.623C218.651 149.623 215.953 152.321 215.953 155.649C215.953 158.978 218.651 161.676 221.979 161.676Z" fill="#1D70B8"/>
<path d="M113.063 155.749C113.063 157.276 113.254 158.745 113.636 160.155C114.017 161.566 114.598 162.811 115.378 163.889C116.158 164.968 117.153 165.835 118.365 166.491C119.577 167.146 121.021 167.474 122.697 167.474C124.373 167.474 125.646 167.217 126.717 166.703C127.787 166.189 128.642 165.545 129.281 164.773C129.919 164.002 130.367 163.168 130.625 162.272C130.882 161.376 131.01 160.546 131.01 159.782V159.434H121.875V153.933H138.03V173.498H131.708V169.316C131.26 170.013 130.703 170.648 130.04 171.221C129.376 171.793 128.63 172.283 127.799 172.689C126.969 173.096 126.061 173.416 125.074 173.648C124.086 173.88 123.037 173.996 121.925 173.996C119.32 173.996 117.005 173.523 114.981 172.577C112.956 171.631 111.251 170.329 109.865 168.669C108.48 167.01 107.426 165.068 106.704 162.844C105.982 160.621 105.621 158.223 105.621 155.65C105.621 153.077 106.024 150.701 106.828 148.469C107.633 146.237 108.778 144.295 110.264 142.644C111.749 140.992 113.541 139.69 115.64 138.735C117.739 137.781 120.092 137.304 122.697 137.304C124.39 137.304 125.995 137.499 127.514 137.888C129.032 138.279 130.418 138.835 131.671 139.556C132.923 140.278 134.031 141.15 134.994 142.17C135.956 143.19 136.736 144.323 137.334 145.568L131.011 149.127C130.629 148.364 130.181 147.655 129.667 146.999C129.152 146.344 128.559 145.779 127.887 145.306C127.215 144.833 126.448 144.46 125.585 144.186C124.722 143.912 123.759 143.775 122.698 143.775C121.022 143.775 119.578 144.103 118.366 144.759C117.155 145.414 116.159 146.281 115.379 147.36C114.599 148.439 114.019 149.688 113.637 151.107C113.255 152.526 113.064 153.991 113.064 155.5V155.749H113.063Z" fill="#0B0C0C"/>
<path d="M161.017 137.303C163.672 137.303 166.054 137.781 168.161 138.735C170.269 139.69 172.057 140.992 173.526 142.643C174.994 144.295 176.115 146.237 176.886 148.468C177.658 150.7 178.043 153.095 178.043 155.649C178.043 158.204 177.658 160.62 176.886 162.844C176.115 165.068 174.994 167.01 173.526 168.669C172.058 170.328 170.269 171.631 168.161 172.577C166.054 173.523 163.672 173.996 161.017 173.996C158.362 173.996 155.96 173.523 153.861 172.577C151.762 171.631 149.978 170.329 148.51 168.669C147.041 167.01 145.921 165.068 145.15 162.844C144.378 160.62 143.992 158.222 143.992 155.649C143.992 153.076 144.378 150.7 145.15 148.468C145.921 146.237 147.041 144.295 148.51 142.643C149.978 140.992 151.762 139.69 153.861 138.735C155.96 137.781 158.345 137.303 161.017 137.303ZM161.017 167.474C162.577 167.474 163.951 167.18 165.137 166.59C166.323 166.002 167.324 165.184 168.136 164.139C168.949 163.093 169.563 161.857 169.978 160.429C170.393 159.002 170.601 157.442 170.601 155.75V155.55C170.601 153.874 170.393 152.318 169.978 150.883C169.563 149.447 168.949 148.206 168.136 147.161C167.323 146.116 166.323 145.299 165.137 144.709C163.951 144.121 162.577 143.826 161.017 143.826C159.457 143.826 158.08 144.121 156.885 144.709C155.69 145.299 154.691 146.116 153.886 147.161C153.081 148.206 152.471 149.448 152.057 150.883C151.642 152.318 151.434 153.874 151.434 155.55V155.75C151.434 157.442 151.642 159.002 152.057 160.429C152.471 161.857 153.081 163.092 153.886 164.139C154.691 165.184 155.69 166.002 156.885 166.59C158.08 167.18 159.457 167.474 161.017 167.474Z" fill="#0B0C0C"/>
<path d="M190.776 173.498L180.695 137.802H188.785L195.681 164.636H195.929L202.675 137.802H210.665L200.584 173.498H190.777H190.776Z" fill="#0B0C0C"/>
<path d="M251.552 167.474C252.597 167.474 253.573 167.321 254.477 167.014C255.381 166.707 256.161 166.243 256.817 165.62C257.471 164.997 257.991 164.21 258.372 163.255C258.754 162.301 258.945 161.177 258.945 159.882V137.752H266.039V160.952C266.039 162.944 265.678 164.745 264.957 166.354C264.236 167.964 263.233 169.334 261.948 170.462C260.663 171.591 259.133 172.462 257.36 173.076C255.586 173.689 253.646 173.997 251.54 173.997C249.435 173.997 247.494 173.689 245.721 173.076C243.946 172.462 242.413 171.59 241.119 170.462C239.826 169.334 238.819 167.965 238.097 166.354C237.376 164.745 237.016 162.944 237.016 160.952V137.752H244.16V159.882C244.16 161.177 244.351 162.301 244.732 163.255C245.114 164.21 245.632 164.997 246.288 165.62C246.943 166.243 247.723 166.707 248.628 167.014C249.532 167.321 250.507 167.474 251.552 167.474Z" fill="#0B0C0C"/>
<path d="M272.434 137.802H279.652V153.26L292.397 137.802H301.283L288.887 151.99L302.08 173.498H293.692L284.258 157.491L279.652 162.644V173.498H272.434V137.802Z" fill="#0B0C0C"/>
<path d="M48.9538 139.347C49.5866 137.811 51.3582 137.062 52.8836 137.688C54.4399 138.326 55.1683 140.11 54.5323 141.643C53.8995 143.179 52.1346 143.914 50.5788 143.271C49.0535 142.645 48.3215 140.877 48.9544 139.348L48.9538 139.347Z" fill="#0B0C0C"/>
<path d="M42.4929 148.1C40.9675 147.473 40.2355 145.706 40.8684 144.176C41.5043 142.637 43.2765 141.888 44.8019 142.515C46.3546 143.151 47.0829 144.935 46.447 146.468C45.8141 148.004 44.0492 148.739 42.4935 148.095V148.1H42.4929Z" fill="#0B0C0C"/>
<path d="M35.5019 152.14C36.1348 150.605 37.9064 149.855 39.4317 150.482C40.9881 151.118 41.7164 152.903 41.0805 154.435C40.4476 155.971 38.6827 156.706 37.127 156.064C35.6016 155.437 34.8666 153.673 35.5025 152.14L35.5019 152.14Z" fill="#0B0C0C"/>
<path d="M59.7305 133.654C59.8436 133.805 59.9768 133.935 60.1239 134.047L57.9322 140.668C57.9286 140.674 57.9255 140.685 57.9255 140.693C57.9255 140.693 58.0246 140.366 57.9255 140.699C57.8228 141.029 57.7681 141.382 57.7681 141.745C57.7681 143.534 59.0916 145.015 60.8115 145.268C60.8352 145.271 60.8626 145.278 60.8869 145.278C61.034 145.295 61.1811 145.308 61.3349 145.308C61.4887 145.308 61.6359 145.299 61.783 145.278C61.8104 145.274 61.8377 145.268 61.8614 145.268C63.5813 145.015 64.9048 143.537 64.9048 141.745C64.9048 141.379 64.8501 141.029 64.7474 140.699V140.693C64.7437 140.685 64.7407 140.668 64.7407 140.668L62.5454 134.047C62.6925 133.934 62.8256 133.802 62.9387 133.654L62.9454 133.648L66.7682 135.655V130.022L62.9521 131.234L62.9418 131.223C62.836 131.079 62.7089 130.956 62.5721 130.846L62.5618 130.837L64.0969 126H58.5809L60.116 130.832L60.1056 130.843C59.9652 130.953 59.8424 131.079 59.7366 131.22L59.7263 131.229L55.9102 130.019V135.655L59.733 133.648L59.7397 133.654" fill="#0B0C0C"/>
<path d="M73.7848 139.347C73.1519 137.811 71.3803 137.062 69.855 137.688C68.2986 138.326 67.5703 140.11 68.2062 141.643C68.8391 143.179 70.6033 143.914 72.1597 143.271C73.6851 142.645 74.417 140.877 73.7842 139.348L73.7848 139.347Z" fill="#0B0C0C"/>
<path d="M80.2496 148.1C81.775 147.473 82.5069 145.706 81.8741 144.176C81.2381 142.637 79.4666 141.888 77.9412 142.515C76.3885 143.151 75.6602 144.935 76.2961 146.468C76.929 148.004 78.6932 148.739 80.2496 148.095V148.1Z" fill="#0B0C0C"/>
<path d="M87.234 152.14C86.6011 150.605 84.8295 149.855 83.3042 150.482C81.7478 151.118 81.0195 152.903 81.6554 154.435C82.2883 155.971 84.0526 156.706 85.6089 156.064C87.1343 155.437 87.8699 153.673 87.2334 152.14L87.234 152.14Z" fill="#0B0C0C"/>
<path d="M61.3512 173.997C68.5834 173.997 75.4259 174.486 81.5261 175.357C83.2563 168.078 85.3629 163.902 87.5412 160.933L83.4448 159.474C83.8552 161.552 83.9202 162.524 83.4618 163.86C82.7846 163.201 82.1456 161.983 81.6459 160.127L79.6591 166.74C80.8695 165.909 81.7997 165.369 82.8666 165.344C80.9759 169.418 78.6128 170.467 77.0844 170.184C75.2174 169.839 74.3553 168.174 74.6465 166.762C75.0775 164.761 77.1288 164.237 78.09 166.566C79.926 162.822 76.8145 161.655 74.8106 162.764C77.8881 159.696 78.2407 156.967 75.7548 153.663C72.2907 156.311 72.25 158.929 73.8094 162.616C71.7885 160.301 68.6423 161.542 69.7774 165.28C71.2341 163.022 73.1661 164.441 72.8622 166.585C72.6056 168.452 70.1404 169.96 67.0696 169.693C62.6686 169.294 62.4054 166.257 62.2959 163.744C63.3763 163.545 65.3254 164.547 66.9875 166.88L67.5997 159.865C65.791 161.751 64.1496 162.106 62.3269 162.163C62.9355 160.266 65.726 157.164 65.726 157.164H56.9721C56.9721 157.164 59.7626 160.269 60.3711 162.163C58.5448 162.106 56.904 161.75 55.0984 159.865L55.7106 166.88C57.3727 164.547 59.3218 163.542 60.4021 163.744C60.2927 166.257 60.0295 169.294 55.6285 169.693C52.5577 169.96 50.0925 168.452 49.8359 166.585C49.5313 164.441 51.4634 163.022 52.9201 165.28C54.0588 161.544 50.9126 160.304 48.8918 162.616C50.4475 158.929 50.4068 156.311 46.9463 153.663C44.4634 156.964 44.816 159.692 47.8935 162.764C45.8897 161.655 42.7782 162.822 44.6111 166.566C45.5687 164.237 47.6236 164.758 48.0546 166.762C48.3422 168.177 47.4837 169.842 45.6167 170.184C44.0847 170.465 41.7252 169.419 39.8338 165.344C40.8972 165.372 41.831 165.909 43.0384 166.74L41.0552 160.127C40.5561 161.983 39.9165 163.201 39.2393 163.86C38.7845 162.524 38.8496 161.556 39.2563 159.474L35.1562 160.933C37.3345 163.905 39.4441 168.074 41.175 175.357C47.2752 174.487 54.1214 173.997 61.3572 173.997" fill="#0B0C0C"/>
<path d="M61.3471 154.197C63.0102 154.197 64.3583 152.849 64.3583 151.185C64.3583 149.522 63.0102 148.174 61.3471 148.174C59.6841 148.174 58.3359 149.522 58.3359 151.185C58.3359 152.849 59.6841 154.197 61.3471 154.197Z" fill="#0B0C0C"/>
<path d="M344.49 167.892H344.737L350.765 138.741H355.212L347.331 174.167H342.168L334.633 145.239L327.123 174.167H321.935L314.079 138.741H318.476L324.603 167.892H324.899L332.607 138.741H336.807L344.49 167.892ZM373.327 171.647C372.586 172.504 371.581 173.22 370.313 173.797C369.061 174.373 367.587 174.661 365.891 174.661C364.639 174.661 363.478 174.488 362.407 174.143C361.337 173.78 360.406 173.27 359.616 172.611C358.825 171.952 358.208 171.153 357.763 170.215C357.318 169.276 357.096 168.214 357.096 167.028C357.096 166.04 357.252 165.142 357.565 164.335C357.895 163.511 358.348 162.795 358.924 162.186C359.517 161.576 360.225 161.082 361.049 160.703C361.872 160.308 362.794 160.036 363.816 159.888L372.734 158.678V157.072C372.734 156.117 372.586 155.318 372.289 154.676C371.993 154.017 371.589 153.498 371.079 153.119C370.585 152.74 369.992 152.469 369.3 152.304C368.625 152.139 367.892 152.057 367.101 152.057C365.685 152.057 364.359 152.255 363.124 152.65C361.905 153.045 360.802 153.506 359.813 154.033L358.257 150.748C359.706 149.924 361.222 149.331 362.803 148.969C364.4 148.607 365.973 148.425 367.521 148.425C370.601 148.425 372.931 149.125 374.512 150.525C376.094 151.909 376.884 153.934 376.884 156.602V168.238C376.884 169.078 377.049 169.786 377.378 170.363C377.708 170.923 378.235 171.367 378.959 171.697L376.612 174.661C375.822 174.464 375.138 174.118 374.562 173.624C374.002 173.113 373.607 172.504 373.376 171.796L373.327 171.647ZM365.94 162.927C365.248 163.026 364.614 163.166 364.038 163.347C363.478 163.528 363 163.775 362.605 164.088C362.21 164.384 361.897 164.755 361.666 165.2C361.452 165.644 361.345 166.188 361.345 166.83C361.345 167.571 361.485 168.23 361.765 168.806C362.045 169.383 362.424 169.869 362.901 170.264C363.379 170.659 363.931 170.964 364.557 171.178C365.199 171.376 365.866 171.474 366.558 171.474C367.332 171.474 368.089 171.367 368.83 171.153C369.572 170.939 370.23 170.635 370.807 170.239C371.383 169.828 371.844 169.333 372.19 168.757C372.553 168.181 372.734 167.522 372.734 166.781V161.914L365.94 162.927ZM383.487 138.741H387.637V168.51C387.637 168.922 387.67 169.284 387.736 169.597C387.819 169.91 387.95 170.173 388.131 170.387C388.313 170.602 388.56 170.766 388.873 170.882C389.202 170.98 389.605 171.03 390.083 171.03C390.61 171.03 391.088 171.013 391.516 170.98C391.944 170.947 392.323 170.915 392.652 170.882L393.072 174.365C392.595 174.414 392.117 174.464 391.639 174.513C391.228 174.546 390.775 174.579 390.281 174.612C389.787 174.645 389.317 174.661 388.873 174.661C388.131 174.661 387.432 174.571 386.773 174.39C386.114 174.225 385.538 173.945 385.043 173.55C384.566 173.154 384.187 172.644 383.907 172.018C383.627 171.392 383.487 170.626 383.487 169.72V138.741ZM396.118 138.741H400.268V168.51C400.268 168.922 400.301 169.284 400.367 169.597C400.449 169.91 400.581 170.173 400.762 170.387C400.943 170.602 401.19 170.766 401.503 170.882C401.833 170.98 402.236 171.03 402.714 171.03C403.241 171.03 403.719 171.013 404.147 170.98C404.575 170.947 404.954 170.915 405.283 170.882L405.703 174.365C405.226 174.414 404.748 174.464 404.27 174.513C403.859 174.546 403.406 174.579 402.912 174.612C402.417 174.645 401.948 174.661 401.503 174.661C400.762 174.661 400.062 174.571 399.404 174.39C398.745 174.225 398.168 173.945 397.674 173.55C397.197 173.154 396.818 172.644 396.538 172.018C396.258 171.392 396.118 170.626 396.118 169.72V138.741ZM411.738 162.828C411.82 164.014 412.059 165.109 412.454 166.114C412.85 167.118 413.385 167.991 414.06 168.732C414.752 169.457 415.559 170.025 416.481 170.437C417.42 170.832 418.457 171.03 419.594 171.03C420.994 171.03 422.221 170.799 423.275 170.338C424.345 169.86 425.325 169.268 426.215 168.559L428.339 171.549C427.203 172.454 425.885 173.204 424.387 173.797C422.904 174.373 421.241 174.661 419.396 174.661C417.568 174.661 415.913 174.34 414.431 173.698C412.948 173.039 411.68 172.133 410.626 170.98C409.589 169.811 408.79 168.428 408.23 166.83C407.67 165.216 407.39 163.462 407.39 161.568C407.39 159.641 407.662 157.879 408.205 156.281C408.765 154.667 409.547 153.284 410.552 152.131C411.557 150.962 412.759 150.056 414.159 149.414C415.559 148.755 417.115 148.425 418.828 148.425C420.491 148.425 421.99 148.755 423.324 149.414C424.658 150.056 425.795 150.962 426.733 152.131C427.672 153.284 428.389 154.667 428.883 156.281C429.393 157.879 429.649 159.625 429.649 161.519V162.828H411.738ZM418.68 152.057C417.626 152.057 416.687 152.263 415.864 152.674C415.04 153.086 414.332 153.638 413.739 154.33C413.163 155.021 412.701 155.82 412.356 156.726C412.026 157.615 411.837 158.538 411.787 159.493H425.152C425.119 158.521 424.946 157.591 424.634 156.701C424.337 155.795 423.909 155.005 423.349 154.33C422.805 153.638 422.138 153.086 421.348 152.674C420.574 152.263 419.684 152.057 418.68 152.057ZM440.97 167.892C440.97 168.321 440.995 168.724 441.044 169.103C441.11 169.465 441.25 169.786 441.464 170.066C441.695 170.346 442.024 170.569 442.452 170.733C442.88 170.898 443.465 170.98 444.206 170.98C444.404 170.98 444.634 170.972 444.898 170.956C445.178 170.939 445.466 170.923 445.763 170.906C446.059 170.873 446.347 170.84 446.627 170.807C446.907 170.758 447.146 170.717 447.344 170.684L447.788 174.315C447.311 174.381 446.817 174.439 446.306 174.488C445.878 174.538 445.4 174.579 444.873 174.612C444.346 174.645 443.819 174.661 443.292 174.661C442.288 174.661 441.382 174.554 440.575 174.34C439.784 174.143 439.109 173.813 438.549 173.352C437.989 172.891 437.561 172.29 437.264 171.549C436.968 170.791 436.82 169.877 436.82 168.806V152.576H432.052V148.919H436.82V140.668L440.97 139.211V148.919H447.986V152.576H440.97V167.892Z" fill="#0B0C0C"/>
</g>
<rect x="0.5" y="0.5" width="479" height="319" stroke="#B1B4B6"/>
<defs>
<clipPath id="clip0_1168_21347">
<rect width="480" height="320" fill="white"/>
</clipPath>
</defs>
</svg>
