<svg width="480" height="320" viewBox="0 0 480 320" fill="none" xmlns="http://www.w3.org/2000/svg">
<g clip-path="url(#clip0_1212_3721)">
<path d="M480 0H0V320H480V0Z" fill="white"/>
<path d="M222.736 161.895C226.086 161.895 228.801 159.18 228.801 155.831C228.801 152.482 226.086 149.768 222.736 149.768C219.387 149.768 216.672 152.482 216.672 155.831C216.672 159.18 219.387 161.895 222.736 161.895Z" fill="#1D70B8"/>
<path d="M113.103 155.932C113.103 157.468 113.295 158.946 113.679 160.365C114.063 161.784 114.647 163.036 115.433 164.122C116.218 165.207 117.219 166.08 118.439 166.739C119.658 167.399 121.111 167.729 122.798 167.729C124.485 167.729 125.767 167.47 126.844 166.953C127.921 166.435 128.781 165.788 129.424 165.011C130.067 164.235 130.518 163.396 130.777 162.494C131.036 161.593 131.165 160.758 131.165 159.989V159.639H121.971V154.104H138.229V173.79H131.867V169.582C131.416 170.283 130.856 170.922 130.188 171.498C129.52 172.074 128.769 172.567 127.933 172.976C127.098 173.385 126.183 173.707 125.19 173.94C124.197 174.174 123.14 174.291 122.022 174.291C119.399 174.291 117.07 173.815 115.033 172.863C112.995 171.911 111.279 170.601 109.885 168.931C108.49 167.262 107.43 165.308 106.703 163.07C105.977 160.833 105.613 158.42 105.613 155.831C105.613 153.243 106.018 150.852 106.828 148.606C107.638 146.361 108.791 144.407 110.286 142.746C111.781 141.084 113.584 139.774 115.696 138.813C117.809 137.853 120.176 137.373 122.799 137.373C124.502 137.373 126.118 137.569 127.646 137.961C129.174 138.354 130.568 138.913 131.829 139.639C133.09 140.365 134.205 141.243 135.174 142.269C136.142 143.295 136.927 144.436 137.529 145.688L131.166 149.269C130.781 148.501 130.33 147.787 129.813 147.127C129.294 146.468 128.698 145.9 128.022 145.424C127.345 144.948 126.573 144.573 125.705 144.297C124.836 144.022 123.867 143.884 122.799 143.884C121.112 143.884 119.659 144.214 118.44 144.874C117.22 145.533 116.219 146.405 115.434 147.491C114.649 148.576 114.065 149.833 113.68 151.261C113.296 152.688 113.104 154.163 113.104 155.681V155.932H113.103Z" fill="#0B0C0C"/>
<path d="M161.372 137.373C164.044 137.373 166.441 137.853 168.562 138.813C170.683 139.774 172.483 141.084 173.961 142.745C175.438 144.407 176.566 146.361 177.342 148.606C178.119 150.852 178.507 153.261 178.507 155.831C178.507 158.402 178.119 160.833 177.342 163.07C176.566 165.307 175.438 167.261 173.961 168.931C172.483 170.6 170.683 171.911 168.562 172.863C166.441 173.815 164.044 174.291 161.372 174.291C158.7 174.291 156.282 173.815 154.17 172.863C152.058 171.911 150.262 170.601 148.785 168.931C147.307 167.261 146.18 165.307 145.403 163.07C144.627 160.833 144.238 158.42 144.238 155.831C144.238 153.242 144.627 150.852 145.403 148.606C146.18 146.361 147.307 144.407 148.785 142.745C150.262 141.084 152.058 139.774 154.17 138.813C156.283 137.853 158.683 137.373 161.372 137.373ZM161.372 167.729C162.942 167.729 164.324 167.433 165.518 166.839C166.712 166.247 167.719 165.424 168.536 164.373C169.355 163.321 169.973 162.077 170.39 160.641C170.807 159.205 171.017 157.635 171.017 155.932V155.732C171.017 154.045 170.807 152.48 170.39 151.035C169.973 149.591 169.355 148.343 168.536 147.291C167.718 146.239 166.712 145.417 165.518 144.824C164.324 144.232 162.942 143.935 161.372 143.935C159.802 143.935 158.416 144.232 157.214 144.824C156.011 145.417 155.005 146.239 154.195 147.291C153.385 148.343 152.772 149.592 152.354 151.035C151.937 152.48 151.728 154.045 151.728 155.732V155.932C151.728 157.635 151.937 159.205 152.354 160.641C152.772 162.077 153.385 163.32 154.195 164.373C155.005 165.424 156.011 166.247 157.214 166.839C158.416 167.433 159.802 167.729 161.372 167.729Z" fill="#0B0C0C"/>
<path d="M191.313 173.789L181.168 137.873H189.31L196.249 164.872H196.499L203.288 137.873H211.329L201.184 173.789H191.314H191.313Z" fill="#0B0C0C"/>
<path d="M252.462 167.729C253.513 167.729 254.495 167.575 255.405 167.266C256.315 166.957 257.1 166.49 257.76 165.863C258.419 165.237 258.941 164.445 259.325 163.484C259.709 162.524 259.901 161.393 259.901 160.09V137.824H267.041V161.167C267.041 163.171 266.678 164.983 265.952 166.602C265.227 168.222 264.217 169.6 262.924 170.735C261.63 171.871 260.091 172.747 258.306 173.365C256.521 173.982 254.568 174.291 252.449 174.291C250.331 174.291 248.378 173.982 246.593 173.365C244.807 172.747 243.264 171.87 241.962 170.735C240.66 169.6 239.647 168.223 238.92 166.602C238.195 164.983 237.832 163.17 237.832 161.167V137.824H245.022V160.09C245.022 161.393 245.214 162.524 245.597 163.484C245.982 164.445 246.504 165.237 247.163 165.863C247.823 166.49 248.608 166.957 249.518 167.266C250.429 167.575 251.41 167.729 252.462 167.729Z" fill="#0B0C0C"/>
<path d="M273.492 137.874H280.757V153.427L293.583 137.874H302.526L290.051 152.149L303.328 173.789H294.886L285.392 157.684L280.757 162.869V173.789H273.492V137.874Z" fill="#0B0C0C"/>
<path d="M48.5841 139.429C49.221 137.884 51.0039 137.131 52.539 137.76C54.1053 138.402 54.8383 140.197 54.1983 141.739C53.5614 143.285 51.7852 144.024 50.2196 143.377C48.6845 142.747 47.9478 140.969 48.5847 139.43L48.5841 139.429Z" fill="#0B0C0C"/>
<path d="M42.0828 148.235C40.5477 147.605 39.8111 145.827 40.448 144.287C41.088 142.739 42.8715 141.985 44.4066 142.616C45.9692 143.255 46.7022 145.051 46.0622 146.593C45.4253 148.138 43.6491 148.878 42.0834 148.231V148.235H42.0828Z" fill="#0B0C0C"/>
<path d="M35.0541 152.3C35.6911 150.755 37.474 150.001 39.0091 150.632C40.5754 151.272 41.3084 153.067 40.6684 154.61C40.0314 156.155 38.2553 156.894 36.6896 156.248C35.1545 155.618 34.4148 153.842 35.0548 152.3L35.0541 152.3Z" fill="#0B0C0C"/>
<path d="M59.4307 133.701C59.5445 133.853 59.6785 133.984 59.8266 134.097L57.6209 140.758C57.6172 140.764 57.6142 140.776 57.6142 140.783C57.6142 140.783 57.7139 140.454 57.6142 140.789C57.5108 141.122 57.4557 141.477 57.4557 141.842C57.4557 143.642 58.7877 145.132 60.5186 145.387C60.5424 145.39 60.57 145.396 60.5945 145.396C60.7425 145.413 60.8906 145.426 61.0454 145.426C61.2002 145.426 61.3482 145.417 61.4963 145.396C61.5238 145.393 61.5514 145.387 61.5752 145.387C63.3061 145.132 64.6381 143.645 64.6381 141.842C64.6381 141.473 64.583 141.122 64.4796 140.789V140.783C64.476 140.775 64.4729 140.758 64.4729 140.758L62.2635 134.097C62.4116 133.983 62.5456 133.85 62.6594 133.701L62.6661 133.695L66.5134 135.714V130.047L62.6729 131.266L62.6625 131.255C62.556 131.11 62.4281 130.986 62.2905 130.875L62.2801 130.866L63.825 126H58.2737L59.8186 130.861L59.8082 130.872C59.6669 130.983 59.5433 131.11 59.4369 131.252L59.4265 131.261L55.5859 130.044V135.714L59.4332 133.695L59.4399 133.701" fill="#0B0C0C"/>
<path d="M73.5797 139.429C72.9428 137.884 71.1599 137.131 69.6248 137.76C68.0585 138.402 67.3255 140.197 67.9655 141.739C68.6024 143.285 70.3779 144.024 71.9443 143.377C73.4794 142.747 74.216 140.969 73.5791 139.43L73.5797 139.429Z" fill="#0B0C0C"/>
<path d="M80.0849 148.235C81.62 147.605 82.3567 145.827 81.7198 144.287C81.0798 142.739 79.2969 141.985 77.7618 142.616C76.1991 143.255 75.4662 145.051 76.1061 146.593C76.7431 148.138 78.5186 148.878 80.0849 148.231V148.235Z" fill="#0B0C0C"/>
<path d="M87.1109 152.3C86.474 150.755 84.6911 150.001 83.156 150.632C81.5897 151.272 80.8567 153.067 81.4967 154.61C82.1336 156.155 83.9092 156.894 85.4755 156.248C87.0106 155.618 87.7509 153.842 87.1103 152.3L87.1109 152.3Z" fill="#0B0C0C"/>
<path d="M61.0615 174.291C68.3399 174.291 75.2262 174.783 81.3654 175.66C83.1067 168.335 85.2267 164.134 87.4189 161.147L83.2963 159.678C83.7093 161.77 83.7748 162.747 83.3135 164.092C82.6319 163.429 81.9888 162.203 81.4859 160.335L79.4864 166.989C80.7046 166.153 81.6407 165.61 82.7145 165.585C80.8117 169.684 78.4334 170.74 76.8953 170.454C75.0163 170.108 74.1487 168.432 74.4418 167.011C74.8756 164.998 76.9399 164.471 77.9073 166.815C79.755 163.047 76.6236 161.873 74.607 162.989C77.7041 159.902 78.059 157.156 75.5572 153.832C72.0709 156.496 72.0299 159.131 73.5993 162.84C71.5656 160.51 68.3993 161.759 69.5416 165.52C71.0076 163.249 72.952 164.676 72.6461 166.834C72.3879 168.712 69.9069 170.229 66.8165 169.961C62.3874 169.559 62.1224 166.503 62.0123 163.974C63.0995 163.775 65.0611 164.783 66.7339 167.13L67.35 160.072C65.5298 161.969 63.8778 162.327 62.0435 162.385C62.656 160.475 65.4643 157.354 65.4643 157.354H56.6544C56.6544 157.354 59.4628 160.479 60.0752 162.385C58.2373 162.327 56.5859 161.969 54.7687 160.072L55.3849 167.13C57.0576 164.783 59.0192 163.772 60.1064 163.974C59.9963 166.503 59.7314 169.559 55.3023 169.961C52.2119 170.229 49.7309 168.712 49.4727 166.834C49.1661 164.676 51.1106 163.249 52.5765 165.52C53.7225 161.762 50.5562 160.513 48.5225 162.84C50.0882 159.131 50.0472 156.496 46.5646 153.832C44.0659 157.153 44.4207 159.898 47.5179 162.989C45.5012 161.873 42.3698 163.047 44.2145 166.815C45.1782 164.471 47.2462 164.995 47.68 167.011C47.9694 168.435 47.1055 170.111 45.2265 170.454C43.6847 170.737 41.3101 169.684 39.4067 165.585C40.4768 165.613 41.4166 166.153 42.6317 166.989L40.6359 160.335C40.1336 162.203 39.4899 163.429 38.8083 164.092C38.3507 162.747 38.4161 161.774 38.8255 159.678L34.6992 161.147C36.8914 164.137 39.0145 168.332 40.7564 175.66C46.8956 174.784 53.7855 174.291 61.0676 174.291" fill="#0B0C0C"/>
<path d="M61.0578 154.37C62.7314 154.37 64.0882 153.014 64.0882 151.34C64.0882 149.667 62.7314 148.31 61.0578 148.31C59.3841 148.31 58.0273 149.667 58.0273 151.34C58.0273 153.014 59.3841 154.37 61.0578 154.37Z" fill="#0B0C0C"/>
<path d="M319.79 143.716V174.168H315.514V138.52H321.505L340.299 168.973V138.52H344.575V174.168H338.559L319.79 143.716ZM362.132 148.265C363.889 148.265 365.488 148.597 366.93 149.26C368.372 149.906 369.598 150.817 370.609 151.994C371.637 153.154 372.432 154.546 372.996 156.17C373.559 157.778 373.841 159.551 373.841 161.49C373.841 163.396 373.559 165.161 372.996 166.785C372.432 168.393 371.637 169.785 370.609 170.962C369.598 172.122 368.372 173.033 366.93 173.696C365.488 174.342 363.889 174.666 362.132 174.666C360.376 174.666 358.776 174.342 357.334 173.696C355.909 173.033 354.683 172.122 353.655 170.962C352.628 169.785 351.832 168.393 351.269 166.785C350.705 165.161 350.424 163.396 350.424 161.49C350.424 159.551 350.705 157.778 351.269 156.17C351.832 154.546 352.628 153.154 353.655 151.994C354.683 150.817 355.909 149.906 357.334 149.26C358.776 148.597 360.376 148.265 362.132 148.265ZM362.132 171.011C363.342 171.011 364.403 170.763 365.314 170.265C366.242 169.752 367.013 169.064 367.626 168.202C368.256 167.34 368.728 166.346 369.043 165.219C369.358 164.076 369.515 162.882 369.515 161.639V161.341C369.515 160.065 369.358 158.855 369.043 157.712C368.728 156.568 368.256 155.574 367.626 154.729C367.013 153.867 366.242 153.187 365.314 152.69C364.403 152.176 363.342 151.919 362.132 151.919C360.922 151.919 359.853 152.176 358.925 152.69C358.014 153.187 357.243 153.867 356.613 154.729C356 155.574 355.536 156.568 355.221 157.712C354.907 158.855 354.749 160.065 354.749 161.341V161.639C354.749 162.882 354.907 164.076 355.221 165.219C355.536 166.346 356 167.34 356.613 168.202C357.243 169.064 358.014 169.752 358.925 170.265C359.853 170.763 360.922 171.011 362.132 171.011ZM385.358 167.854C385.358 168.285 385.382 168.691 385.432 169.072C385.498 169.437 385.639 169.76 385.855 170.042C386.087 170.323 386.418 170.547 386.849 170.713C387.28 170.879 387.868 170.962 388.614 170.962C388.813 170.962 389.045 170.953 389.31 170.937C389.592 170.92 389.882 170.904 390.18 170.887C390.479 170.854 390.769 170.821 391.05 170.787C391.332 170.738 391.572 170.696 391.771 170.663L392.219 174.317C391.738 174.384 391.241 174.442 390.727 174.492C390.296 174.541 389.816 174.583 389.285 174.616C388.755 174.649 388.225 174.666 387.694 174.666C386.683 174.666 385.772 174.558 384.96 174.342C384.164 174.143 383.485 173.812 382.921 173.348C382.358 172.884 381.927 172.279 381.629 171.533C381.33 170.771 381.181 169.851 381.181 168.774V152.441H376.383V148.762H381.181V140.459L385.358 138.993V148.762H392.418V152.441H385.358V167.854ZM401.001 174.168H396.825V148.762H401.001V174.168ZM396.054 141.429C396.054 141.031 396.129 140.658 396.278 140.31C396.443 139.962 396.651 139.656 396.899 139.39C397.164 139.125 397.471 138.918 397.819 138.769C398.184 138.603 398.565 138.52 398.962 138.52C399.36 138.52 399.733 138.603 400.081 138.769C400.429 138.918 400.727 139.125 400.976 139.39C401.241 139.656 401.448 139.962 401.598 140.31C401.763 140.658 401.846 141.031 401.846 141.429C401.846 141.827 401.763 142.208 401.598 142.572C401.448 142.92 401.241 143.227 400.976 143.492C400.727 143.741 400.429 143.948 400.081 144.114C399.733 144.263 399.36 144.337 398.962 144.337C398.565 144.337 398.184 144.263 397.819 144.114C397.471 143.948 397.164 143.741 396.899 143.492C396.651 143.227 396.443 142.92 396.278 142.572C396.129 142.208 396.054 141.827 396.054 141.429ZM413.835 148.762H418.882V152.441H413.835V174.168H409.659V152.441H405.433V148.762H409.659V144.039C409.659 142.945 409.833 142.017 410.181 141.255C410.529 140.493 411.01 139.879 411.623 139.415C412.253 138.935 412.99 138.595 413.835 138.396C414.697 138.181 415.633 138.073 416.644 138.073C417.672 138.073 418.525 138.123 419.205 138.222C419.884 138.305 420.39 138.371 420.721 138.421L420.398 142.001C420.149 141.984 419.859 141.959 419.528 141.926C419.213 141.893 418.882 141.868 418.534 141.851C418.202 141.835 417.879 141.818 417.564 141.802C417.249 141.785 416.992 141.777 416.793 141.777C416.197 141.777 415.708 141.868 415.327 142.05C414.946 142.216 414.639 142.44 414.407 142.722C414.192 143.003 414.042 143.326 413.959 143.691C413.877 144.056 413.835 144.437 413.835 144.835V148.762ZM420.579 148.762H425.302L431.567 169.743L437.533 148.762H442.206L432.959 177.997C432.677 178.892 432.312 179.621 431.865 180.184C431.418 180.764 430.904 181.22 430.324 181.551C429.76 181.9 429.131 182.14 428.434 182.272C427.738 182.405 427.001 182.471 426.222 182.471C425.526 182.471 424.805 182.43 424.059 182.347C423.313 182.281 422.526 182.181 421.698 182.049L422.319 178.394C422.651 178.461 423.007 178.519 423.388 178.568C423.703 178.618 424.059 178.66 424.457 178.693C424.855 178.726 425.261 178.742 425.675 178.742C426.587 178.742 427.291 178.544 427.788 178.146C428.302 177.748 428.666 177.102 428.882 176.207L429.131 175.038L420.579 148.762Z" fill="#0B0C0C"/>
</g>
<rect x="0.5" y="0.5" width="479" height="319" stroke="#B1B4B6"/>
<defs>
<clipPath id="clip0_1212_3721">
<rect width="480" height="320" fill="white"/>
</clipPath>
</defs>
</svg>
