<svg width="480" height="320" viewBox="0 0 480 320" fill="none" xmlns="http://www.w3.org/2000/svg">
<g clip-path="url(#clip0_1212_3683)">
<path d="M480 0H0V320H480V0Z" fill="white"/>
<path d="M68.5342 155.649C68.5342 157.194 68.7275 158.682 69.114 160.11C69.4999 161.538 70.0877 162.798 70.878 163.89C71.6677 164.983 72.6753 165.861 73.9019 166.524C75.1286 167.188 76.5904 167.52 78.2873 167.52C79.9842 167.52 81.2737 167.26 82.3575 166.739C83.4408 166.218 84.3062 165.567 84.9531 164.785C85.5993 164.004 86.053 163.16 86.3139 162.253C86.5743 161.345 86.7041 160.505 86.7041 159.732V159.379H77.4558V153.809H93.8106V173.619H87.4101V169.385C86.9565 170.091 86.3933 170.733 85.7218 171.313C85.0497 171.893 84.2939 172.389 83.4531 172.8C82.613 173.212 81.6928 173.536 80.6939 173.771C79.6943 174.006 78.6314 174.123 77.5062 174.123C74.8682 174.123 72.5251 173.645 70.4755 172.687C68.4259 171.729 66.6994 170.41 65.2967 168.73C63.894 167.05 62.8274 165.084 62.0962 162.832C61.3656 160.581 61 158.153 61 155.548C61 152.942 61.4075 150.537 62.2224 148.277C63.0373 146.017 64.1962 144.051 65.7005 142.379C67.2042 140.707 69.018 139.389 71.1433 138.422C73.2686 137.456 75.6499 136.972 78.2879 136.972C80.0014 136.972 81.627 137.17 83.1638 137.565C84.7013 137.96 86.104 138.522 87.3726 139.253C88.6405 139.984 89.7619 140.867 90.7368 141.9C91.7106 142.932 92.5008 144.08 93.1059 145.34L86.7048 148.944C86.3182 148.171 85.8646 147.453 85.3439 146.789C84.8226 146.126 84.2225 145.554 83.5424 145.075C82.8616 144.596 82.0849 144.218 81.2115 143.941C80.3375 143.664 79.3632 143.525 78.2885 143.525C76.5916 143.525 75.1298 143.857 73.9032 144.521C72.6765 145.184 71.6689 146.062 70.8792 147.155C70.0896 148.247 69.5018 149.511 69.1153 150.948C68.7287 152.385 68.5355 153.868 68.5355 155.396V155.649H68.5342Z" fill="#0B0C0C"/>
<path d="M117.088 136.972C119.776 136.972 122.187 137.456 124.32 138.422C126.454 139.389 128.264 140.707 129.752 142.379C131.238 144.051 132.372 146.017 133.153 148.277C133.934 150.537 134.325 152.961 134.325 155.548C134.325 158.134 133.934 160.581 133.153 162.832C132.372 165.084 131.238 167.05 129.752 168.73C128.265 170.41 126.454 171.729 124.32 172.687C122.187 173.645 119.776 174.123 117.088 174.123C114.4 174.123 111.968 173.645 109.843 172.687C107.718 171.729 105.912 170.41 104.425 168.73C102.938 167.05 101.805 165.084 101.023 162.832C100.242 160.581 99.8516 158.153 99.8516 155.548C99.8516 152.942 100.242 150.537 101.023 148.277C101.805 146.017 102.938 144.051 104.425 142.379C105.912 140.707 107.718 139.389 109.843 138.422C111.968 137.456 114.383 136.972 117.088 136.972ZM117.088 167.52C118.667 167.52 120.058 167.222 121.258 166.624C122.459 166.029 123.472 165.201 124.295 164.142C125.118 163.084 125.74 161.832 126.16 160.387C126.579 158.942 126.79 157.362 126.79 155.649V155.447C126.79 153.75 126.579 152.174 126.16 150.721C125.74 149.267 125.118 148.011 124.295 146.953C123.472 145.895 122.459 145.067 121.258 144.47C120.058 143.874 118.667 143.576 117.088 143.576C115.508 143.576 114.114 143.874 112.904 144.47C111.695 145.067 110.683 145.895 109.868 146.953C109.053 148.011 108.436 149.268 108.016 150.721C107.596 152.174 107.386 153.75 107.386 155.447V155.649C107.386 157.362 107.596 158.942 108.016 160.387C108.436 161.832 109.053 163.083 109.868 164.142C110.683 165.201 111.695 166.029 112.904 166.624C114.114 167.222 115.508 167.52 117.088 167.52Z" fill="#0B0C0C"/>
<path d="M147.202 173.619L136.996 137.477H145.186L152.167 164.646H152.419L159.249 137.477H167.337L157.131 173.619H147.203H147.202Z" fill="#0B0C0C"/>
<path d="M208.729 167.519C209.787 167.519 210.774 167.364 211.689 167.053C212.605 166.742 213.395 166.272 214.058 165.642C214.721 165.011 215.247 164.214 215.633 163.247C216.019 162.281 216.213 161.143 216.213 159.832V137.426H223.395V160.916C223.395 162.932 223.03 164.756 222.3 166.385C221.57 168.015 220.554 169.402 219.253 170.544C217.952 171.687 216.403 172.569 214.608 173.19C212.812 173.812 210.848 174.123 208.716 174.123C206.585 174.123 204.62 173.812 202.825 173.19C201.028 172.569 199.476 171.687 198.166 170.544C196.857 169.402 195.837 168.016 195.107 166.385C194.377 164.756 194.012 162.932 194.012 160.916V137.426H201.244V159.832C201.244 161.143 201.438 162.281 201.824 163.247C202.21 164.214 202.735 165.011 203.399 165.642C204.062 166.272 204.852 166.742 205.768 167.053C206.683 167.364 207.671 167.519 208.729 167.519Z" fill="#0B0C0C"/>
<path d="M229.883 137.477H237.191V153.128L250.094 137.477H259.09L246.54 151.842L259.897 173.619H251.405L241.854 157.412L237.191 162.629V173.619H229.883V137.477Z" fill="#0B0C0C"/>
<path d="M178.808 161.649C182.177 161.649 184.909 158.918 184.909 155.548C184.909 152.178 182.177 149.446 178.808 149.446C175.438 149.446 172.707 152.178 172.707 155.548C172.707 158.918 175.438 161.649 178.808 161.649Z" fill="#1D70B8"/>
<path d="M276.342 144.048V174.698H272.038V138.819H278.068L296.983 169.468V138.819H301.287V174.698H295.232L276.342 144.048ZM318.958 148.627C320.726 148.627 322.335 148.96 323.787 149.628C325.238 150.278 326.472 151.196 327.49 152.38C328.524 153.547 329.324 154.949 329.892 156.583C330.459 158.201 330.742 159.986 330.742 161.937C330.742 163.856 330.459 165.632 329.892 167.267C329.324 168.885 328.524 170.286 327.49 171.47C326.472 172.638 325.238 173.555 323.787 174.222C322.335 174.873 320.726 175.198 318.958 175.198C317.19 175.198 315.58 174.873 314.129 174.222C312.694 173.555 311.46 172.638 310.426 171.47C309.392 170.286 308.591 168.885 308.024 167.267C307.457 165.632 307.173 163.856 307.173 161.937C307.173 159.986 307.457 158.201 308.024 156.583C308.591 154.949 309.392 153.547 310.426 152.38C311.46 151.196 312.694 150.278 314.129 149.628C315.58 148.96 317.19 148.627 318.958 148.627ZM318.958 171.52C320.175 171.52 321.243 171.27 322.16 170.769C323.094 170.252 323.87 169.56 324.487 168.693C325.121 167.825 325.596 166.825 325.913 165.69C326.23 164.54 326.389 163.339 326.389 162.088V161.787C326.389 160.503 326.23 159.285 325.913 158.134C325.596 156.983 325.121 155.983 324.487 155.132C323.87 154.265 323.094 153.581 322.16 153.08C321.243 152.563 320.175 152.305 318.958 152.305C317.74 152.305 316.664 152.563 315.73 153.08C314.813 153.581 314.037 154.265 313.403 155.132C312.786 155.983 312.319 156.983 312.002 158.134C311.685 159.285 311.527 160.503 311.527 161.787V162.088C311.527 163.339 311.685 164.54 312.002 165.69C312.319 166.825 312.786 167.825 313.403 168.693C314.037 169.56 314.813 170.252 315.73 170.769C316.664 171.27 317.74 171.52 318.958 171.52ZM342.333 168.343C342.333 168.776 342.358 169.185 342.409 169.569C342.475 169.935 342.617 170.261 342.834 170.544C343.067 170.828 343.401 171.053 343.835 171.22C344.268 171.387 344.86 171.47 345.611 171.47C345.811 171.47 346.045 171.462 346.312 171.445C346.595 171.428 346.887 171.412 347.187 171.395C347.488 171.362 347.779 171.328 348.063 171.295C348.347 171.245 348.588 171.203 348.789 171.17L349.239 174.848C348.755 174.914 348.255 174.973 347.738 175.023C347.304 175.073 346.82 175.115 346.287 175.148C345.753 175.181 345.219 175.198 344.685 175.198C343.668 175.198 342.75 175.09 341.933 174.873C341.132 174.673 340.449 174.339 339.881 173.872C339.314 173.405 338.881 172.796 338.58 172.046C338.28 171.278 338.13 170.352 338.13 169.268V152.83H333.301V149.127H338.13V140.771L342.333 139.294V149.127H349.439V152.83H342.333V168.343ZM358.078 174.698H353.875V149.127H358.078V174.698ZM353.099 141.746C353.099 141.346 353.174 140.971 353.324 140.62C353.491 140.27 353.7 139.962 353.95 139.695C354.217 139.428 354.525 139.219 354.875 139.069C355.242 138.902 355.626 138.819 356.026 138.819C356.427 138.819 356.802 138.902 357.152 139.069C357.503 139.219 357.803 139.428 358.053 139.695C358.32 139.962 358.528 140.27 358.679 140.62C358.845 140.971 358.929 141.346 358.929 141.746C358.929 142.147 358.845 142.53 358.679 142.897C358.528 143.248 358.32 143.556 358.053 143.823C357.803 144.073 357.503 144.282 357.152 144.448C356.802 144.599 356.427 144.674 356.026 144.674C355.626 144.674 355.242 144.599 354.875 144.448C354.525 144.282 354.217 144.073 353.95 143.823C353.7 143.556 353.491 143.248 353.324 142.897C353.174 142.53 353.099 142.147 353.099 141.746ZM370.995 149.127H376.074V152.83H370.995V174.698H366.792V152.83H362.539V149.127H366.792V144.373C366.792 143.273 366.967 142.338 367.317 141.571C367.668 140.804 368.151 140.187 368.769 139.72C369.402 139.236 370.145 138.894 370.995 138.694C371.863 138.477 372.805 138.369 373.823 138.369C374.857 138.369 375.716 138.419 376.4 138.519C377.084 138.602 377.592 138.669 377.926 138.719L377.601 142.322C377.35 142.305 377.059 142.28 376.725 142.247C376.408 142.213 376.074 142.188 375.724 142.172C375.391 142.155 375.065 142.138 374.748 142.122C374.431 142.105 374.173 142.097 373.973 142.097C373.372 142.097 372.88 142.188 372.497 142.372C372.113 142.539 371.804 142.764 371.571 143.047C371.354 143.331 371.204 143.656 371.12 144.023C371.037 144.39 370.995 144.774 370.995 145.174V149.127ZM377.783 149.127H382.537L388.842 170.244L394.846 149.127H399.55L390.243 178.551C389.959 179.451 389.592 180.185 389.142 180.752C388.691 181.336 388.174 181.795 387.591 182.129C387.023 182.479 386.39 182.721 385.689 182.854C384.989 182.988 384.246 183.054 383.462 183.054C382.762 183.054 382.036 183.013 381.286 182.929C380.535 182.862 379.743 182.762 378.909 182.629L379.534 178.951C379.868 179.018 380.226 179.076 380.61 179.126C380.927 179.176 381.286 179.218 381.686 179.251C382.086 179.285 382.495 179.301 382.912 179.301C383.829 179.301 384.538 179.101 385.039 178.701C385.556 178.301 385.923 177.65 386.139 176.749L386.39 175.573L377.783 149.127Z" fill="#0B0C0C"/>
</g>
<rect x="0.5" y="0.5" width="479" height="319" stroke="#B1B4B6"/>
<defs>
<clipPath id="clip0_1212_3683">
<rect width="480" height="320" fill="white"/>
</clipPath>
</defs>
</svg>
