<svg width="480" height="320" viewBox="0 0 480 320" fill="none" xmlns="http://www.w3.org/2000/svg">
<g clip-path="url(#clip0_1168_21185)">
<path d="M480 0H0V320H480V0Z" fill="white"/>
<path d="M110.31 156.717C110.31 158.217 110.497 159.66 110.872 161.046C111.247 162.432 111.817 163.654 112.584 164.714C113.35 165.775 114.327 166.626 115.518 167.27C116.708 167.914 118.126 168.237 119.772 168.237C121.419 168.237 122.67 167.984 123.721 167.479C124.772 166.973 125.612 166.341 126.24 165.583C126.867 164.825 127.307 164.006 127.56 163.125C127.812 162.245 127.938 161.429 127.938 160.679V160.337H118.966V154.932H134.833V174.156H128.623V170.046C128.183 170.731 127.637 171.355 126.985 171.918C126.333 172.48 125.6 172.961 124.784 173.36C123.969 173.76 123.076 174.074 122.107 174.302C121.137 174.531 120.106 174.645 119.015 174.645C116.455 174.645 114.182 174.18 112.193 173.251C110.205 172.321 108.53 171.041 107.169 169.411C105.808 167.78 104.773 165.872 104.064 163.687C103.355 161.503 103 159.147 103 156.619C103 154.091 103.395 151.756 104.186 149.563C104.977 147.37 106.101 145.462 107.56 143.84C109.019 142.218 110.779 140.938 112.841 140C114.903 139.062 117.214 138.593 119.773 138.593C121.435 138.593 123.013 138.785 124.504 139.168C125.995 139.551 127.356 140.097 128.587 140.807C129.817 141.516 130.905 142.372 131.851 143.375C132.796 144.377 133.562 145.49 134.149 146.713L127.939 150.21C127.564 149.461 127.124 148.763 126.619 148.119C126.113 147.476 125.531 146.921 124.871 146.456C124.21 145.991 123.457 145.624 122.609 145.355C121.761 145.087 120.816 144.952 119.774 144.952C118.127 144.952 116.709 145.274 115.519 145.918C114.329 146.562 113.351 147.414 112.585 148.474C111.819 149.534 111.249 150.761 110.874 152.155C110.498 153.549 110.311 154.989 110.311 156.472V156.717H110.31Z" fill="#0B0C0C"/>
<path d="M157.414 138.593C160.022 138.593 162.361 139.062 164.431 140C166.502 140.938 168.258 142.217 169.701 143.84C171.143 145.462 172.243 147.37 173.001 149.563C173.759 151.756 174.138 154.108 174.138 156.618C174.138 159.128 173.759 161.502 173.001 163.687C172.243 165.872 171.143 167.78 169.701 169.41C168.259 171.04 166.502 172.321 164.431 173.25C162.362 174.18 160.022 174.644 157.414 174.644C154.806 174.644 152.446 174.18 150.385 173.25C148.323 172.321 146.571 171.041 145.129 169.41C143.686 167.78 142.586 165.872 141.828 163.687C141.071 161.502 140.691 159.146 140.691 156.618C140.691 154.09 141.071 151.756 141.828 149.563C142.586 147.37 143.686 145.462 145.129 143.84C146.571 142.217 148.323 140.938 150.385 140C152.447 139.062 154.79 138.593 157.414 138.593ZM157.414 168.236C158.946 168.236 160.295 167.947 161.461 167.367C162.626 166.789 163.608 165.986 164.406 164.959C165.205 163.931 165.808 162.717 166.216 161.314C166.623 159.912 166.827 158.379 166.827 156.716V156.52C166.827 154.873 166.623 153.345 166.216 151.934C165.808 150.524 165.205 149.305 164.406 148.278C163.608 147.251 162.626 146.448 161.461 145.869C160.295 145.291 158.946 145.001 157.414 145.001C155.882 145.001 154.529 145.291 153.355 145.869C152.182 146.448 151.2 147.251 150.41 148.278C149.619 149.305 149.02 150.525 148.613 151.934C148.205 153.345 148.001 154.873 148.001 156.52V156.716C148.001 158.379 148.205 159.912 148.613 161.314C149.02 162.717 149.619 163.931 150.41 164.959C151.2 165.986 152.182 166.789 153.355 167.367C154.529 167.947 155.882 168.236 157.414 168.236Z" fill="#0B0C0C"/>
<path d="M186.64 174.155L176.738 139.083H184.685L191.458 165.448H191.702L198.328 139.083H206.176L196.274 174.155H186.641H186.64Z" fill="#0B0C0C"/>
<path d="M246.326 168.236C247.352 168.236 248.31 168.086 249.198 167.784C250.086 167.482 250.853 167.026 251.496 166.414C252.139 165.803 252.649 165.029 253.024 164.091C253.399 163.153 253.586 162.049 253.586 160.777V139.034H260.555V161.828C260.555 163.785 260.2 165.555 259.492 167.136C258.784 168.718 257.799 170.063 256.536 171.172C255.274 172.281 253.771 173.136 252.03 173.74C250.287 174.343 248.382 174.645 246.314 174.645C244.246 174.645 242.339 174.343 240.598 173.74C238.854 173.136 237.348 172.28 236.078 171.172C234.807 170.063 233.818 168.718 233.109 167.136C232.401 165.555 232.047 163.785 232.047 161.828V139.034H239.064V160.777C239.064 162.049 239.252 163.153 239.626 164.091C240.001 165.029 240.51 165.803 241.154 166.414C241.798 167.026 242.564 167.482 243.453 167.784C244.341 168.086 245.299 168.236 246.326 168.236Z" fill="#0B0C0C"/>
<path d="M266.844 139.083H273.934V154.271L286.453 139.083H295.181L283.005 153.023L295.964 174.155H287.725L278.458 158.428L273.934 163.491V174.155H266.844V139.083Z" fill="#0B0C0C"/>
<path d="M217.298 162.54C220.567 162.54 223.217 159.889 223.217 156.619C223.217 153.349 220.567 150.698 217.298 150.698C214.029 150.698 211.379 153.349 211.379 156.619C211.379 159.889 214.029 162.54 217.298 162.54Z" fill="#1D70B8"/>
<path d="M306.45 140.645H318.501C320.114 140.645 321.575 140.917 322.885 141.46C324.194 141.987 325.313 142.729 326.239 143.688C327.181 144.63 327.9 145.764 328.395 147.09C328.906 148.415 329.162 149.869 329.162 151.45C329.162 153.047 328.882 154.508 328.323 155.834C327.78 157.144 327.013 158.27 326.023 159.212C325.033 160.154 323.851 160.889 322.478 161.416C321.12 161.927 319.635 162.183 318.021 162.183H310.667V175H306.45V140.645ZM324.682 151.354C324.682 150.348 324.522 149.414 324.202 148.551C323.883 147.689 323.42 146.946 322.813 146.323C322.206 145.684 321.463 145.189 320.585 144.838C319.722 144.47 318.74 144.287 317.638 144.287H310.667V158.565H317.638C318.74 158.565 319.722 158.39 320.585 158.038C321.463 157.687 322.206 157.208 322.813 156.601C323.42 155.978 323.883 155.243 324.202 154.397C324.522 153.534 324.682 152.6 324.682 151.594V151.354ZM347.304 172.556C346.585 173.387 345.611 174.082 344.381 174.641C343.167 175.2 341.738 175.479 340.093 175.479C338.879 175.479 337.753 175.311 336.715 174.976C335.677 174.625 334.774 174.13 334.008 173.491C333.241 172.852 332.642 172.077 332.211 171.167C331.78 170.256 331.564 169.226 331.564 168.076C331.564 167.118 331.716 166.248 332.019 165.465C332.339 164.666 332.778 163.972 333.337 163.381C333.912 162.79 334.599 162.311 335.397 161.943C336.196 161.56 337.09 161.296 338.081 161.153L346.729 159.979V158.422C346.729 157.495 346.585 156.721 346.298 156.098C346.01 155.459 345.619 154.956 345.124 154.588C344.645 154.221 344.07 153.957 343.399 153.798C342.744 153.638 342.033 153.558 341.267 153.558C339.893 153.558 338.608 153.75 337.41 154.133C336.228 154.516 335.158 154.964 334.199 155.475L332.69 152.288C334.096 151.49 335.565 150.915 337.098 150.563C338.647 150.212 340.173 150.036 341.674 150.036C344.661 150.036 346.921 150.715 348.454 152.073C349.987 153.414 350.754 155.379 350.754 157.966V169.25C350.754 170.065 350.914 170.752 351.233 171.311C351.553 171.854 352.064 172.285 352.766 172.604L350.49 175.479C349.724 175.287 349.061 174.952 348.502 174.473C347.959 173.978 347.576 173.387 347.352 172.7L347.304 172.556ZM340.141 164.099C339.47 164.195 338.855 164.331 338.296 164.507C337.753 164.682 337.29 164.922 336.907 165.225C336.523 165.513 336.22 165.872 335.996 166.303C335.789 166.735 335.685 167.262 335.685 167.885C335.685 168.603 335.821 169.242 336.092 169.801C336.364 170.36 336.731 170.831 337.194 171.215C337.657 171.598 338.192 171.894 338.799 172.101C339.422 172.293 340.069 172.389 340.74 172.389C341.49 172.389 342.225 172.285 342.944 172.077C343.663 171.87 344.301 171.574 344.86 171.191C345.419 170.791 345.867 170.312 346.202 169.753C346.553 169.194 346.729 168.555 346.729 167.837V163.117L340.141 164.099ZM354.426 150.516H358.978L365.015 170.736L370.765 150.516H375.269L366.357 178.689C366.085 179.552 365.734 180.255 365.303 180.798C364.872 181.357 364.376 181.796 363.817 182.115C363.274 182.451 362.667 182.682 361.997 182.81C361.326 182.938 360.615 183.002 359.864 183.002C359.194 183.002 358.499 182.962 357.78 182.882C357.061 182.818 356.303 182.722 355.504 182.594L356.103 179.073C356.423 179.137 356.766 179.193 357.133 179.24C357.437 179.288 357.78 179.328 358.163 179.36C358.547 179.392 358.938 179.408 359.337 179.408C360.216 179.408 360.895 179.216 361.374 178.833C361.869 178.45 362.22 177.827 362.428 176.965L362.667 175.839L354.426 150.516Z" fill="#0B0C0C"/>
</g>
<rect x="0.5" y="0.5" width="479" height="319" stroke="#B1B4B6"/>
<defs>
<clipPath id="clip0_1168_21185">
<rect width="480" height="320" fill="white"/>
</clipPath>
</defs>
</svg>
