<svg width="480" height="320" viewBox="0 0 480 320" fill="none" xmlns="http://www.w3.org/2000/svg">
<g clip-path="url(#clip0_1168_21226)">
<path d="M480 0H0V320H480V0Z" fill="white"/>
<path d="M250.445 161.917C253.769 161.917 256.464 159.223 256.464 155.9C256.464 152.577 253.769 149.883 250.445 149.883C247.121 149.883 244.426 152.577 244.426 155.9C244.426 159.223 247.121 161.917 250.445 161.917Z" fill="#1D70B8"/>
<path d="M141.652 156.001C141.652 157.525 141.843 158.991 142.224 160.4C142.605 161.808 143.185 163.05 143.965 164.127C144.744 165.205 145.738 166.07 146.948 166.725C148.159 167.379 149.601 167.707 151.275 167.707C152.949 167.707 154.222 167.45 155.291 166.937C156.36 166.423 157.214 165.781 157.852 165.01C158.489 164.24 158.937 163.407 159.194 162.513C159.451 161.618 159.579 160.789 159.579 160.027V159.679H150.455V154.187H166.591V173.721H160.276V169.546C159.828 170.242 159.273 170.876 158.61 171.447C157.947 172.019 157.201 172.508 156.372 172.913C155.543 173.319 154.635 173.639 153.649 173.871C152.663 174.103 151.615 174.218 150.504 174.218C147.902 174.218 145.59 173.746 143.568 172.802C141.545 171.857 139.842 170.557 138.458 168.9C137.074 167.243 136.022 165.304 135.3 163.084C134.579 160.864 134.219 158.47 134.219 155.901C134.219 153.332 134.621 150.96 135.425 148.731C136.229 146.503 137.372 144.564 138.856 142.916C140.34 141.267 142.13 139.967 144.227 139.014C146.323 138.061 148.673 137.584 151.276 137.584C152.966 137.584 154.57 137.779 156.086 138.168C157.603 138.558 158.987 139.113 160.239 139.833C161.49 140.554 162.596 141.424 163.558 142.443C164.519 143.461 165.299 144.593 165.896 145.835L159.58 149.389C159.199 148.627 158.751 147.919 158.237 147.264C157.723 146.61 157.131 146.046 156.46 145.574C155.788 145.101 155.022 144.729 154.16 144.456C153.298 144.182 152.337 144.045 151.276 144.045C149.602 144.045 148.16 144.373 146.95 145.027C145.739 145.682 144.745 146.547 143.966 147.625C143.187 148.702 142.607 149.948 142.226 151.365C141.844 152.782 141.654 154.245 141.654 155.752V156.001H141.652Z" fill="#0B0C0C"/>
<path d="M189.541 137.584C192.193 137.584 194.572 138.06 196.677 139.013C198.782 139.966 200.568 141.266 202.036 142.915C203.502 144.564 204.621 146.503 205.392 148.731C206.163 150.959 206.548 153.35 206.548 155.9C206.548 158.451 206.163 160.864 205.392 163.083C204.621 165.304 203.502 167.243 202.036 168.899C200.569 170.556 198.782 171.857 196.677 172.801C194.572 173.746 192.193 174.218 189.541 174.218C186.889 174.218 184.489 173.746 182.393 172.801C180.296 171.857 178.514 170.556 177.048 168.899C175.581 167.243 174.462 165.304 173.691 163.083C172.921 160.864 172.535 158.469 172.535 155.9C172.535 153.332 172.921 150.959 173.691 148.731C174.462 146.503 175.581 144.564 177.048 142.915C178.514 141.266 180.296 139.966 182.393 139.013C184.49 138.06 186.872 137.584 189.541 137.584ZM189.541 167.706C191.099 167.706 192.471 167.413 193.656 166.824C194.841 166.236 195.84 165.42 196.652 164.376C197.464 163.332 198.077 162.098 198.492 160.673C198.906 159.248 199.113 157.691 199.113 156.001V155.802C199.113 154.128 198.906 152.575 198.492 151.141C198.077 149.708 197.464 148.469 196.652 147.426C195.84 146.382 194.841 145.567 193.656 144.978C192.471 144.39 191.099 144.096 189.541 144.096C187.983 144.096 186.607 144.39 185.413 144.978C184.22 145.567 183.222 146.382 182.418 147.426C181.614 148.469 181.005 149.709 180.591 151.141C180.176 152.575 179.969 154.128 179.969 155.802V156.001C179.969 157.691 180.176 159.248 180.591 160.673C181.005 162.098 181.614 163.332 182.418 164.376C183.222 165.42 184.22 166.236 185.413 166.824C186.607 167.413 187.983 167.706 189.541 167.706Z" fill="#0B0C0C"/>
<path d="M219.273 173.721L209.203 138.081H217.284L224.172 164.873H224.42L231.158 138.081H239.139L229.069 173.721H219.273H219.273Z" fill="#0B0C0C"/>
<path d="M279.97 167.706C281.013 167.706 281.988 167.553 282.891 167.247C283.794 166.94 284.573 166.477 285.228 165.855C285.882 165.233 286.401 164.447 286.782 163.494C287.163 162.541 287.353 161.419 287.353 160.126V138.031H294.44V161.195C294.44 163.183 294.079 164.981 293.359 166.588C292.639 168.196 291.637 169.563 290.353 170.689C289.07 171.817 287.542 172.686 285.77 173.299C283.998 173.911 282.06 174.219 279.957 174.219C277.854 174.219 275.916 173.911 274.145 173.299C272.372 172.686 270.841 171.816 269.548 170.689C268.256 169.563 267.25 168.196 266.53 166.588C265.809 164.981 265.449 163.183 265.449 161.195V138.031H272.585V160.126C272.585 161.419 272.776 162.541 273.157 163.494C273.538 164.447 274.056 165.233 274.711 165.855C275.365 166.477 276.144 166.94 277.048 167.247C277.952 167.553 278.926 167.706 279.97 167.706Z" fill="#0B0C0C"/>
<path d="M300.84 138.081H308.051V153.515L320.781 138.081H329.657L317.275 152.247L330.453 173.721H322.074L312.651 157.74L308.051 162.884V173.721H300.84V138.081Z" fill="#0B0C0C"/>
<path d="M77.6137 139.625C78.2458 138.091 80.0154 137.343 81.539 137.968C83.0936 138.605 83.8211 140.387 83.1859 141.918C82.5538 143.451 80.7909 144.185 79.2369 143.543C77.7132 142.918 76.9821 141.153 77.6143 139.625L77.6137 139.625Z" fill="#0B0C0C"/>
<path d="M71.1627 148.366C69.639 147.74 68.9079 145.975 69.54 144.447C70.1752 142.91 71.9454 142.162 73.4691 142.788C75.02 143.423 75.7475 145.205 75.1123 146.736C74.4802 148.269 72.7173 149.003 71.1633 148.361V148.366H71.1627Z" fill="#0B0C0C"/>
<path d="M64.197 152.401C64.8291 150.867 66.5987 150.119 68.1223 150.745C69.6769 151.38 70.4044 153.162 69.7692 154.693C69.1371 156.227 67.3742 156.961 65.8202 156.32C64.2965 155.694 63.5624 153.932 64.1976 152.4L64.197 152.401Z" fill="#0B0C0C"/>
<path d="M88.3825 133.939C88.4954 134.09 88.6284 134.22 88.7754 134.332L86.5862 140.944C86.5825 140.95 86.5795 140.961 86.5795 140.969C86.5795 140.969 86.6785 140.643 86.5795 140.975C86.4769 141.305 86.4222 141.657 86.4222 142.02C86.4222 143.807 87.7442 145.285 89.4622 145.538C89.4859 145.541 89.5132 145.547 89.5375 145.547C89.6845 145.564 89.8314 145.578 89.9851 145.578C90.1387 145.578 90.2857 145.569 90.4326 145.547C90.4599 145.544 90.4873 145.538 90.511 145.538C92.2289 145.286 93.5509 143.81 93.5509 142.02C93.5509 141.654 93.4963 141.305 93.3937 140.975V140.969C93.39 140.961 93.387 140.944 93.387 140.944L91.1941 134.332C91.3411 134.219 91.4741 134.087 91.587 133.939L91.5937 133.933L95.4122 135.938V130.313L91.6004 131.522L91.5901 131.511C91.4844 131.368 91.3575 131.245 91.2208 131.135L91.2105 131.126L92.7439 126.295H87.2341L88.7675 131.121L88.7572 131.132C88.6169 131.242 88.4942 131.368 88.3885 131.508L88.3782 131.517L84.5664 130.31V135.938L88.3849 133.933L88.3916 133.939" fill="#0B0C0C"/>
<path d="M102.419 139.625C101.787 138.091 100.017 137.343 98.4935 137.968C96.9389 138.605 96.2113 140.387 96.8465 141.918C97.4787 143.451 99.241 144.185 100.796 143.543C102.319 142.918 103.05 141.153 102.418 139.625L102.419 139.625Z" fill="#0B0C0C"/>
<path d="M108.874 148.366C110.397 147.74 111.129 145.975 110.496 144.447C109.861 142.91 108.092 142.162 106.568 142.788C105.017 143.423 104.29 145.205 104.925 146.736C105.557 148.269 107.319 149.003 108.874 148.361V148.366Z" fill="#0B0C0C"/>
<path d="M115.849 152.401C115.216 150.867 113.447 150.119 111.923 150.745C110.369 151.38 109.641 153.162 110.276 154.693C110.908 156.227 112.671 156.961 114.225 156.32C115.749 155.694 116.484 153.932 115.848 152.4L115.849 152.401Z" fill="#0B0C0C"/>
<path d="M89.9935 174.228C97.2175 174.228 104.052 174.717 110.146 175.587C111.874 168.317 113.978 164.146 116.154 161.182L112.062 159.724C112.472 161.8 112.537 162.77 112.079 164.105C111.403 163.447 110.764 162.23 110.265 160.376L108.281 166.981C109.49 166.151 110.419 165.611 111.485 165.587C109.596 169.655 107.236 170.703 105.709 170.42C103.844 170.076 102.983 168.413 103.274 167.002C103.704 165.004 105.753 164.481 106.713 166.808C108.547 163.068 105.439 161.903 103.438 163.01C106.512 159.946 106.864 157.221 104.381 153.921C100.921 156.566 100.88 159.181 102.438 162.862C100.419 160.55 97.2764 161.79 98.4102 165.523C99.8652 163.268 101.795 164.685 101.491 166.826C101.235 168.69 98.7727 170.197 95.7054 169.93C91.3094 169.531 91.0465 166.498 90.9372 163.988C92.0163 163.79 93.9632 164.791 95.6234 167.12L96.235 160.115C94.4283 161.998 92.7887 162.353 90.9681 162.41C91.576 160.515 94.3634 157.417 94.3634 157.417H85.6193C85.6193 157.417 88.4067 160.518 89.0145 162.41C87.1903 162.353 85.5513 161.997 83.7477 160.115L84.3592 167.12C86.0195 164.791 87.9664 163.787 89.0455 163.988C88.9362 166.498 88.6733 169.531 84.2773 169.93C81.2099 170.197 78.7475 168.69 78.4912 166.826C78.187 164.685 80.1169 163.268 81.5719 165.523C82.7093 161.792 79.5667 160.553 77.5481 162.862C79.1021 159.181 79.0614 156.566 75.6049 153.921C73.1248 157.218 73.477 159.942 76.551 163.01C74.5494 161.903 71.4414 163.068 73.2723 166.808C74.2288 164.481 76.2814 165.001 76.7119 167.002C76.9992 168.416 76.1417 170.079 74.2768 170.42C72.7465 170.701 70.3897 169.656 68.5004 165.587C69.5626 165.614 70.4953 166.151 71.7013 166.981L69.7204 160.376C69.2219 162.23 68.583 163.447 67.9065 164.105C67.4523 162.77 67.5173 161.804 67.9235 159.724L63.8281 161.182C66.004 164.149 68.1112 168.313 69.8401 175.587C75.9334 174.717 82.7718 174.228 89.9995 174.228" fill="#0B0C0C"/>
<path d="M89.9883 154.455C91.6494 154.455 92.9961 153.108 92.9961 151.447C92.9961 149.786 91.6494 148.44 89.9883 148.44C88.3271 148.44 86.9805 149.786 86.9805 151.447C86.9805 153.108 88.3271 154.455 89.9883 154.455Z" fill="#0B0C0C"/>
<path d="M342.548 139.079H354.959C356.621 139.079 358.126 139.358 359.475 139.917C360.823 140.46 361.975 141.225 362.929 142.212C363.899 143.183 364.64 144.351 365.15 145.716C365.676 147.081 365.939 148.578 365.939 150.207C365.939 151.851 365.651 153.357 365.076 154.722C364.516 156.071 363.727 157.23 362.707 158.201C361.687 159.171 360.47 159.928 359.055 160.471C357.657 160.997 356.127 161.26 354.466 161.26H346.891V174.461H342.548V139.079ZM361.325 150.108C361.325 149.072 361.161 148.109 360.832 147.221C360.503 146.333 360.026 145.568 359.401 144.926C358.775 144.268 358.011 143.758 357.106 143.397C356.218 143.018 355.206 142.829 354.071 142.829H346.891V157.535H354.071C355.206 157.535 356.218 157.354 357.106 156.992C358.011 156.63 358.775 156.136 359.401 155.511C360.026 154.87 360.503 154.113 360.832 153.241C361.161 152.353 361.325 151.391 361.325 150.355V150.108ZM384.624 171.944C383.884 172.8 382.881 173.515 381.614 174.091C380.364 174.667 378.892 174.954 377.197 174.954C375.947 174.954 374.788 174.782 373.718 174.436C372.649 174.074 371.72 173.565 370.93 172.907C370.141 172.249 369.524 171.451 369.08 170.513C368.636 169.576 368.413 168.515 368.413 167.33C368.413 166.343 368.57 165.447 368.882 164.641C369.211 163.818 369.664 163.103 370.239 162.494C370.832 161.886 371.539 161.392 372.361 161.014C373.184 160.619 374.105 160.348 375.125 160.199L384.032 158.99V157.387C384.032 156.433 383.884 155.635 383.588 154.993C383.292 154.335 382.889 153.817 382.379 153.439C381.885 153.06 381.293 152.789 380.602 152.625C379.928 152.46 379.196 152.378 378.406 152.378C376.992 152.378 375.668 152.575 374.434 152.97C373.217 153.365 372.115 153.825 371.128 154.352L369.573 151.07C371.021 150.248 372.534 149.655 374.113 149.294C375.709 148.932 377.28 148.751 378.826 148.751C381.902 148.751 384.229 149.45 385.809 150.848C387.388 152.23 388.177 154.253 388.177 156.918V168.539C388.177 169.378 388.342 170.085 388.671 170.661C389 171.22 389.526 171.665 390.25 171.994L387.906 174.954C387.116 174.757 386.434 174.412 385.858 173.918C385.299 173.408 384.904 172.8 384.674 172.092L384.624 171.944ZM377.247 163.234C376.556 163.333 375.923 163.473 375.347 163.654C374.788 163.835 374.311 164.081 373.916 164.394C373.521 164.69 373.208 165.06 372.978 165.504C372.764 165.948 372.657 166.491 372.657 167.133C372.657 167.873 372.797 168.531 373.077 169.107C373.356 169.682 373.735 170.168 374.212 170.563C374.689 170.957 375.24 171.262 375.865 171.475C376.507 171.673 377.173 171.772 377.864 171.772C378.637 171.772 379.393 171.665 380.134 171.451C380.874 171.237 381.532 170.933 382.108 170.538C382.683 170.127 383.144 169.633 383.489 169.057C383.851 168.482 384.032 167.824 384.032 167.083V162.223L377.247 163.234ZM391.959 149.244H396.647L402.865 170.069L408.787 149.244H413.426L404.247 178.261C403.967 179.149 403.605 179.873 403.161 180.432C402.717 181.008 402.207 181.46 401.632 181.789C401.072 182.135 400.447 182.373 399.756 182.505C399.065 182.636 398.333 182.702 397.56 182.702C396.869 182.702 396.154 182.661 395.414 182.579C394.673 182.513 393.892 182.414 393.07 182.283L393.686 178.656C394.015 178.721 394.369 178.779 394.747 178.828C395.06 178.878 395.414 178.919 395.808 178.952C396.203 178.985 396.606 179.001 397.017 179.001C397.922 179.001 398.621 178.804 399.115 178.409C399.625 178.014 399.987 177.373 400.2 176.484L400.447 175.325L391.959 149.244Z" fill="#0B0C0C"/>
</g>
<rect x="0.5" y="0.5" width="479" height="319" stroke="#B1B4B6"/>
<defs>
<clipPath id="clip0_1168_21226">
<rect width="480" height="320" fill="white"/>
</clipPath>
</defs>
</svg>
