<svg width="480" height="320" viewBox="0 0 480 320" fill="none" xmlns="http://www.w3.org/2000/svg">
<g clip-path="url(#clip0_1168_21325)">
<path d="M480 0H0V320H480V0Z" fill="white"/>
<path d="M63.108 155.93C63.108 157.448 63.2979 158.909 63.6776 160.312C64.0567 161.715 64.6341 162.953 65.4104 164.026C66.1861 165.1 67.1758 165.962 68.3808 166.614C69.5858 167.266 71.0217 167.592 72.6886 167.592C74.3555 167.592 75.6222 167.336 76.6869 166.825C77.751 166.313 78.6011 165.673 79.2365 164.905C79.8714 164.138 80.317 163.309 80.5733 162.418C80.8291 161.526 80.9566 160.701 80.9566 159.941V159.595H71.8718V154.123H87.9374V173.584H81.6501V169.424C81.2045 170.118 80.6513 170.749 79.9917 171.319C79.3314 171.888 78.589 172.375 77.7631 172.779C76.9378 173.184 76.0339 173.502 75.0526 173.733C74.0708 173.964 73.0266 174.079 71.9214 174.079C69.33 174.079 67.0283 173.609 65.015 172.668C63.0016 171.727 61.3057 170.431 59.9278 168.781C58.5499 167.13 57.5021 165.199 56.7838 162.987C56.0662 160.775 55.707 158.39 55.707 155.831C55.707 153.272 56.1073 150.908 56.9078 148.688C57.7083 146.468 58.8468 144.537 60.3244 142.894C61.8015 141.252 63.5832 139.956 65.671 139.007C67.7587 138.058 70.0979 137.583 72.6892 137.583C74.3725 137.583 75.9692 137.777 77.4789 138.165C78.9892 138.553 80.3671 139.106 81.6132 139.823C82.8587 140.541 83.9603 141.408 84.918 142.423C85.8745 143.438 86.6508 144.565 87.2452 145.803L80.9572 149.343C80.5775 148.584 80.132 147.878 79.6205 147.226C79.1084 146.575 78.5189 146.013 77.8508 145.542C77.1821 145.072 76.4191 144.701 75.5611 144.428C74.7026 144.156 73.7455 144.02 72.6898 144.02C71.0229 144.02 69.587 144.346 68.382 144.998C67.177 145.65 66.1873 146.512 65.4116 147.586C64.6359 148.659 64.0585 149.901 63.6788 151.312C63.2991 152.724 63.1092 154.181 63.1092 155.682V155.93H63.108Z" fill="#0B0C0C"/>
<path d="M110.81 137.582C113.451 137.582 115.819 138.057 117.915 139.006C120.011 139.956 121.789 141.251 123.25 142.893C124.71 144.536 125.825 146.467 126.592 148.687C127.359 150.907 127.742 153.289 127.742 155.83C127.742 158.371 127.359 160.774 126.592 162.986C125.825 165.198 124.71 167.129 123.25 168.78C121.79 170.43 120.011 171.726 117.915 172.667C115.819 173.608 113.451 174.078 110.81 174.078C108.17 174.078 105.781 173.608 103.693 172.667C101.606 171.726 99.8319 170.431 98.3717 168.78C96.911 167.129 95.7973 165.198 95.0301 162.986C94.2628 160.774 93.8789 158.389 93.8789 155.83C93.8789 153.271 94.2628 150.907 95.0301 148.687C95.7973 146.467 96.911 144.536 98.3717 142.893C99.8319 141.251 101.606 139.956 103.693 139.006C105.781 138.057 108.153 137.582 110.81 137.582ZM110.81 167.591C112.362 167.591 113.728 167.298 114.907 166.712C116.087 166.126 117.082 165.313 117.89 164.273C118.699 163.233 119.309 162.004 119.722 160.584C120.134 159.164 120.341 157.613 120.341 155.929V155.731C120.341 154.063 120.134 152.516 119.722 151.088C119.309 149.66 118.699 148.426 117.89 147.387C117.081 146.347 116.087 145.534 114.907 144.948C113.728 144.362 112.362 144.069 110.81 144.069C109.259 144.069 107.889 144.362 106.701 144.948C105.513 145.534 104.519 146.347 103.718 147.387C102.918 148.426 102.311 149.661 101.899 151.088C101.487 152.516 101.28 154.063 101.28 155.731V155.929C101.28 157.613 101.487 159.164 101.899 160.584C102.311 162.004 102.918 163.232 103.718 164.273C104.519 165.313 105.513 166.126 106.701 166.712C107.889 167.298 109.259 167.591 110.81 167.591Z" fill="#0B0C0C"/>
<path d="M140.381 173.583L130.355 138.078H138.401L145.258 164.768H145.506L152.214 138.078H160.16L150.135 173.583H140.382H140.381Z" fill="#0B0C0C"/>
<path d="M200.832 167.591C201.871 167.591 202.841 167.438 203.74 167.133C204.64 166.827 205.415 166.365 206.067 165.746C206.718 165.127 207.235 164.344 207.614 163.394C207.993 162.445 208.183 161.327 208.183 160.039V138.027H215.238V161.104C215.238 163.085 214.88 164.876 214.163 166.477C213.446 168.078 212.448 169.44 211.17 170.562C209.892 171.685 208.371 172.551 206.607 173.162C204.843 173.772 202.913 174.078 200.82 174.078C198.726 174.078 196.796 173.772 195.032 173.162C193.268 172.551 191.743 171.685 190.456 170.562C189.169 169.44 188.168 168.079 187.451 166.477C186.734 164.876 186.375 163.084 186.375 161.104V138.027H193.48V160.039C193.48 161.327 193.67 162.445 194.049 163.394C194.428 164.344 194.944 165.127 195.596 165.746C196.248 166.365 197.023 166.827 197.923 167.133C198.823 167.438 199.792 167.591 200.832 167.591Z" fill="#0B0C0C"/>
<path d="M221.605 138.077H228.785V153.453L241.459 138.077H250.296L237.969 152.19L251.089 173.583H242.747L233.364 157.662L228.785 162.787V173.583H221.605V138.077Z" fill="#0B0C0C"/>
<path d="M171.434 161.824C174.744 161.824 177.427 159.14 177.427 155.83C177.427 152.519 174.744 149.836 171.434 149.836C168.125 149.836 165.441 152.519 165.441 155.83C165.441 159.14 168.125 161.824 171.434 161.824Z" fill="#1D70B8"/>
<path d="M293.711 167.781H293.956L299.931 138.889H304.338L296.527 174H291.41L283.942 145.328L276.499 174H271.357L263.571 138.889H267.929L274.001 167.781H274.295L281.934 138.889H286.097L293.711 167.781ZM322.292 171.503C321.557 172.351 320.562 173.061 319.305 173.633C318.064 174.204 316.603 174.49 314.922 174.49C313.681 174.49 312.531 174.318 311.47 173.976C310.409 173.616 309.486 173.11 308.703 172.457C307.919 171.805 307.307 171.013 306.867 170.082C306.426 169.152 306.205 168.099 306.205 166.924C306.205 165.945 306.361 165.055 306.671 164.255C306.997 163.439 307.446 162.729 308.017 162.125C308.605 161.521 309.307 161.031 310.123 160.656C310.939 160.264 311.853 159.995 312.865 159.848L321.704 158.648V157.057C321.704 156.11 321.557 155.318 321.263 154.682C320.97 154.029 320.57 153.515 320.064 153.139C319.574 152.764 318.986 152.494 318.301 152.331C317.632 152.168 316.905 152.086 316.122 152.086C314.718 152.086 313.404 152.282 312.18 152.674C310.972 153.066 309.878 153.523 308.899 154.045L307.356 150.789C308.793 149.972 310.294 149.385 311.861 149.026C313.445 148.667 315.004 148.487 316.538 148.487C319.59 148.487 321.9 149.181 323.467 150.568C325.034 151.939 325.818 153.947 325.818 156.591V168.124C325.818 168.956 325.981 169.658 326.307 170.229C326.634 170.784 327.156 171.225 327.874 171.552L325.548 174.49C324.765 174.294 324.087 173.951 323.516 173.461C322.961 172.955 322.569 172.351 322.341 171.649L322.292 171.503ZM314.971 162.859C314.285 162.957 313.657 163.096 313.086 163.276C312.531 163.455 312.057 163.7 311.666 164.01C311.274 164.304 310.964 164.671 310.735 165.112C310.523 165.553 310.417 166.091 310.417 166.728C310.417 167.463 310.556 168.116 310.833 168.687C311.111 169.258 311.486 169.74 311.959 170.131C312.433 170.523 312.98 170.825 313.6 171.037C314.236 171.233 314.897 171.331 315.583 171.331C316.35 171.331 317.101 171.225 317.836 171.013C318.57 170.801 319.223 170.499 319.794 170.107C320.366 169.699 320.823 169.209 321.166 168.638C321.525 168.067 321.704 167.414 321.704 166.679V161.856L314.971 162.859ZM332.362 138.889H336.475V168.393C336.475 168.801 336.508 169.16 336.573 169.47C336.655 169.78 336.785 170.042 336.965 170.254C337.145 170.466 337.389 170.629 337.7 170.744C338.026 170.841 338.426 170.89 338.899 170.89C339.422 170.89 339.895 170.874 340.319 170.841C340.744 170.809 341.119 170.776 341.446 170.744L341.862 174.196C341.389 174.245 340.915 174.294 340.442 174.343C340.034 174.375 339.585 174.408 339.095 174.441C338.605 174.473 338.14 174.49 337.7 174.49C336.965 174.49 336.271 174.4 335.618 174.22C334.965 174.057 334.394 173.78 333.904 173.388C333.431 172.996 333.056 172.49 332.778 171.87C332.501 171.25 332.362 170.491 332.362 169.593V138.889ZM344.88 138.889H348.994V168.393C348.994 168.801 349.026 169.16 349.092 169.47C349.173 169.78 349.304 170.042 349.484 170.254C349.663 170.466 349.908 170.629 350.218 170.744C350.545 170.841 350.944 170.89 351.418 170.89C351.94 170.89 352.414 170.874 352.838 170.841C353.262 170.809 353.638 170.776 353.964 170.744L354.38 174.196C353.907 174.245 353.434 174.294 352.96 174.343C352.552 174.375 352.103 174.408 351.614 174.441C351.124 174.473 350.659 174.49 350.218 174.49C349.484 174.49 348.79 174.4 348.137 174.22C347.484 174.057 346.913 173.78 346.423 173.388C345.95 172.996 345.574 172.49 345.297 171.87C345.019 171.25 344.88 170.491 344.88 169.593V138.889ZM360.362 162.762C360.443 163.937 360.68 165.022 361.072 166.018C361.463 167.014 361.994 167.879 362.663 168.613C363.349 169.332 364.149 169.895 365.063 170.303C365.993 170.695 367.021 170.89 368.148 170.89C369.535 170.89 370.751 170.662 371.796 170.205C372.857 169.732 373.828 169.144 374.71 168.442L376.815 171.405C375.689 172.302 374.383 173.045 372.898 173.633C371.429 174.204 369.78 174.49 367.952 174.49C366.14 174.49 364.499 174.171 363.03 173.535C361.561 172.882 360.304 171.984 359.26 170.841C358.231 169.683 357.44 168.311 356.885 166.728C356.33 165.128 356.052 163.39 356.052 161.513C356.052 159.603 356.322 157.856 356.86 156.273C357.415 154.673 358.191 153.302 359.186 152.16C360.182 151.001 361.374 150.103 362.761 149.466C364.149 148.813 365.691 148.487 367.389 148.487C369.037 148.487 370.523 148.813 371.845 149.466C373.167 150.103 374.293 151.001 375.224 152.16C376.154 153.302 376.864 154.673 377.354 156.273C377.86 157.856 378.113 159.587 378.113 161.464V162.762H360.362ZM367.242 152.086C366.197 152.086 365.267 152.29 364.45 152.698C363.634 153.106 362.932 153.653 362.345 154.339C361.774 155.024 361.316 155.816 360.974 156.714C360.647 157.595 360.459 158.509 360.411 159.456H373.657C373.624 158.493 373.453 157.571 373.143 156.689C372.849 155.792 372.424 155.008 371.869 154.339C371.331 153.653 370.67 153.106 369.886 152.698C369.119 152.29 368.237 152.086 367.242 152.086ZM389.334 167.781C389.334 168.205 389.358 168.605 389.407 168.981C389.473 169.34 389.611 169.658 389.823 169.936C390.052 170.213 390.378 170.433 390.803 170.597C391.227 170.76 391.807 170.841 392.541 170.841C392.737 170.841 392.966 170.833 393.227 170.817C393.504 170.801 393.79 170.784 394.084 170.768C394.378 170.735 394.663 170.703 394.941 170.67C395.218 170.621 395.455 170.58 395.651 170.548L396.092 174.147C395.618 174.212 395.128 174.269 394.622 174.318C394.198 174.367 393.725 174.408 393.202 174.441C392.68 174.473 392.158 174.49 391.635 174.49C390.64 174.49 389.742 174.384 388.942 174.171C388.158 173.976 387.489 173.649 386.934 173.192C386.379 172.735 385.955 172.139 385.661 171.405C385.367 170.654 385.22 169.748 385.22 168.687V152.6H380.495V148.977H385.22V140.799L389.334 139.354V148.977H396.287V152.6H389.334V167.781Z" fill="#0B0C0C"/>
</g>
<rect x="0.5" y="0.5" width="479" height="319" stroke="#B1B4B6"/>
<defs>
<clipPath id="clip0_1168_21325">
<rect width="480" height="320" fill="white"/>
</clipPath>
</defs>
</svg>
