<svg width="480" height="320" viewBox="0 0 480 320" fill="none" xmlns="http://www.w3.org/2000/svg">
<g clip-path="url(#clip0_1210_2814)">
<rect width="480" height="320" fill="#F3F2F1"/>
<path d="M321.28 126.905L321.28 194.51" stroke="#858686" stroke-dasharray="3.71 3.71"/>
<path d="M496.158 138.914L48.334 138.914" stroke="#858686" stroke-dasharray="3.71 3.71"/>
<path d="M496.158 182.549L48.334 182.549" stroke="#858686" stroke-dasharray="3.71 3.71"/>
<path d="M335.671 126.905L335.671 194.51" stroke="#858686" stroke-dasharray="3.71 3.71"/>
<path d="M96.4311 160.855C96.4311 162.671 96.6582 164.418 97.1123 166.096C97.5657 167.774 98.2563 169.254 99.1848 170.537C100.113 171.821 101.296 172.852 102.738 173.632C104.179 174.412 105.896 174.802 107.89 174.802C109.884 174.802 111.399 174.496 112.672 173.884C113.945 173.273 114.962 172.507 115.722 171.589C116.481 170.671 117.014 169.68 117.321 168.614C117.626 167.548 117.779 166.561 117.779 165.652V165.238H106.913V158.694H126.128V181.968H118.608V176.993C118.076 177.822 117.414 178.577 116.625 179.258C115.835 179.939 114.947 180.522 113.959 181.005C112.972 181.489 111.891 181.869 110.718 182.146C109.543 182.422 108.294 182.56 106.972 182.56C103.873 182.56 101.12 181.997 98.7119 180.872C96.3038 179.747 94.2754 178.198 92.6274 176.223C90.9793 174.25 89.7261 171.94 88.867 169.294C88.0087 166.65 87.5791 163.797 87.5791 160.737C87.5791 157.676 88.0578 154.85 89.0153 152.195C89.9727 149.54 91.3344 147.23 93.1018 145.266C94.8684 143.302 96.9995 141.753 99.4965 140.617C101.994 139.482 104.791 138.914 107.891 138.914C109.904 138.914 111.814 139.146 113.62 139.61C115.426 140.074 117.074 140.735 118.564 141.594C120.054 142.452 121.372 143.489 122.517 144.703C123.661 145.916 124.59 147.264 125.3 148.745L117.78 152.978C117.326 152.071 116.793 151.227 116.181 150.446C115.568 149.667 114.863 148.996 114.064 148.433C113.264 147.87 112.352 147.426 111.326 147.101C110.299 146.775 109.154 146.612 107.892 146.612C105.898 146.612 104.18 147.002 102.739 147.782C101.298 148.562 100.114 149.593 99.1863 150.877C98.2585 152.16 97.5679 153.645 97.1138 155.333C96.6596 157.021 96.4326 158.764 96.4326 160.559V160.855H96.4311Z" fill="#0B0C0C"/>
<path d="M153.478 138.914C156.636 138.914 159.469 139.482 161.976 140.617C164.483 141.753 166.61 143.302 168.357 145.266C170.103 147.23 171.436 149.54 172.353 152.195C173.271 154.85 173.73 157.698 173.73 160.736C173.73 163.775 173.271 166.649 172.353 169.294C171.436 171.94 170.103 174.249 168.357 176.223C166.61 178.197 164.483 179.746 161.976 180.872C159.469 181.997 156.636 182.56 153.478 182.56C150.32 182.56 147.462 181.997 144.966 180.872C142.469 179.746 140.347 178.197 138.601 176.223C136.854 174.249 135.522 171.94 134.604 169.294C133.686 166.649 133.227 163.797 133.227 160.736C133.227 157.676 133.686 154.85 134.604 152.195C135.522 149.54 136.854 147.23 138.601 145.266C140.347 143.302 142.469 141.753 144.966 140.617C147.463 139.482 150.3 138.914 153.478 138.914ZM153.478 174.801C155.334 174.801 156.967 174.451 158.378 173.75C159.789 173.05 160.979 172.077 161.945 170.834C162.913 169.59 163.643 168.12 164.136 166.422C164.63 164.724 164.877 162.868 164.877 160.855V160.618C164.877 158.624 164.63 156.773 164.136 155.066C163.643 153.358 162.913 151.882 161.945 150.639C160.978 149.396 159.789 148.424 158.378 147.723C156.967 147.022 155.334 146.672 153.478 146.672C151.622 146.672 149.984 147.022 148.563 147.723C147.142 148.424 145.953 149.396 144.995 150.639C144.038 151.882 143.313 153.359 142.82 155.066C142.326 156.773 142.079 158.624 142.079 160.618V160.855C142.079 162.868 142.326 164.724 142.82 166.422C143.313 168.12 144.038 169.589 144.995 170.834C145.953 172.077 147.142 173.05 148.563 173.75C149.984 174.451 151.622 174.801 153.478 174.801Z" fill="#0B0C0C"/>
<path d="M188.867 181.967L176.875 139.506H186.498L194.7 171.425H194.996L203.02 139.506H212.524L200.532 181.967H188.867H188.867Z" fill="#0B0C0C"/>
<path d="M261.151 174.801C262.395 174.801 263.554 174.619 264.63 174.254C265.706 173.889 266.634 173.336 267.413 172.595C268.192 171.855 268.81 170.918 269.264 169.782C269.717 168.648 269.944 167.31 269.944 165.771V139.447H278.383V167.043C278.383 169.413 277.954 171.555 277.096 173.469C276.238 175.384 275.045 177.013 273.517 178.355C271.988 179.698 270.168 180.734 268.059 181.464C265.949 182.194 263.641 182.56 261.137 182.56C258.633 182.56 256.324 182.194 254.215 181.464C252.104 180.734 250.28 179.697 248.742 178.355C247.203 177.013 246.005 175.385 245.147 173.469C244.289 171.555 243.86 169.412 243.86 167.043V139.447H252.358V165.771C252.358 167.31 252.585 168.648 253.039 169.782C253.493 170.918 254.109 171.855 254.889 172.595C255.669 173.336 256.596 173.889 257.672 174.254C258.748 174.619 259.908 174.801 261.151 174.801Z" fill="#0B0C0C"/>
<path d="M285.998 139.506H294.584V157.894L309.743 139.506H320.314L305.569 156.384L321.261 181.967H311.284L300.062 162.927L294.584 169.056V181.967H285.998V139.506Z" fill="#0B0C0C"/>
<path d="M226.001 167.905C229.959 167.905 233.169 164.696 233.169 160.737C233.169 156.778 229.959 153.568 226.001 153.568C222.042 153.568 218.833 156.778 218.833 160.737C218.833 164.696 222.042 167.905 226.001 167.905Z" fill="#1D70B8"/>
<path d="M96.4311 160.855C96.4311 162.671 96.6582 164.418 97.1123 166.096C97.5657 167.774 98.2563 169.254 99.1848 170.537C100.113 171.821 101.296 172.852 102.738 173.632C104.179 174.412 105.896 174.802 107.89 174.802C109.884 174.802 111.399 174.496 112.672 173.884C113.945 173.273 114.962 172.507 115.722 171.589C116.481 170.671 117.014 169.68 117.321 168.614C117.626 167.548 117.779 166.561 117.779 165.652V165.238H106.913V158.694H126.128V181.968H118.608V176.993C118.076 177.822 117.414 178.577 116.625 179.258C115.835 179.939 114.947 180.522 113.959 181.005C112.972 181.489 111.891 181.869 110.718 182.146C109.543 182.422 108.294 182.56 106.972 182.56C103.873 182.56 101.12 181.997 98.7119 180.872C96.3038 179.747 94.2754 178.198 92.6274 176.223C90.9793 174.25 89.7261 171.94 88.867 169.294C88.0087 166.65 87.5791 163.797 87.5791 160.737C87.5791 157.676 88.0578 154.85 89.0153 152.195C89.9727 149.54 91.3344 147.23 93.1018 145.266C94.8684 143.302 96.9995 141.753 99.4965 140.617C101.994 139.482 104.791 138.914 107.891 138.914C109.904 138.914 111.814 139.146 113.62 139.61C115.426 140.074 117.074 140.735 118.564 141.594C120.054 142.452 121.372 143.489 122.517 144.703C123.661 145.916 124.59 147.264 125.3 148.745L117.78 152.978C117.326 152.071 116.793 151.227 116.181 150.446C115.568 149.667 114.863 148.996 114.064 148.433C113.264 147.87 112.352 147.426 111.326 147.101C110.299 146.775 109.154 146.612 107.892 146.612C105.898 146.612 104.18 147.002 102.739 147.782C101.298 148.562 100.114 149.593 99.1863 150.877C98.2585 152.16 97.5679 153.645 97.1138 155.333C96.6596 157.021 96.4326 158.764 96.4326 160.559V160.855H96.4311Z" fill="#0B0C0C"/>
<path d="M153.478 138.914C156.636 138.914 159.469 139.482 161.976 140.617C164.483 141.753 166.61 143.302 168.357 145.266C170.103 147.23 171.436 149.54 172.353 152.195C173.271 154.85 173.73 157.698 173.73 160.736C173.73 163.775 173.271 166.649 172.353 169.294C171.436 171.94 170.103 174.249 168.357 176.223C166.61 178.197 164.483 179.746 161.976 180.872C159.469 181.997 156.636 182.56 153.478 182.56C150.32 182.56 147.462 181.997 144.966 180.872C142.469 179.746 140.347 178.197 138.601 176.223C136.854 174.249 135.522 171.94 134.604 169.294C133.686 166.649 133.227 163.797 133.227 160.736C133.227 157.676 133.686 154.85 134.604 152.195C135.522 149.54 136.854 147.23 138.601 145.266C140.347 143.302 142.469 141.753 144.966 140.617C147.463 139.482 150.3 138.914 153.478 138.914ZM153.478 174.801C155.334 174.801 156.967 174.451 158.378 173.75C159.789 173.05 160.979 172.077 161.945 170.834C162.913 169.59 163.643 168.12 164.136 166.422C164.63 164.724 164.877 162.868 164.877 160.855V160.618C164.877 158.624 164.63 156.773 164.136 155.066C163.643 153.358 162.913 151.882 161.945 150.639C160.978 149.396 159.789 148.424 158.378 147.723C156.967 147.022 155.334 146.672 153.478 146.672C151.622 146.672 149.984 147.022 148.563 147.723C147.142 148.424 145.953 149.396 144.995 150.639C144.038 151.882 143.313 153.359 142.82 155.066C142.326 156.773 142.079 158.624 142.079 160.618V160.855C142.079 162.868 142.326 164.724 142.82 166.422C143.313 168.12 144.038 169.589 144.995 170.834C145.953 172.077 147.142 173.05 148.563 173.75C149.984 174.451 151.622 174.801 153.478 174.801Z" fill="#0B0C0C"/>
<path d="M188.867 181.967L176.875 139.506H186.498L194.7 171.425H194.996L203.02 139.506H212.524L200.532 181.967H188.867H188.867Z" fill="#0B0C0C"/>
<path d="M261.151 174.801C262.395 174.801 263.554 174.619 264.63 174.254C265.706 173.889 266.634 173.336 267.413 172.595C268.192 171.855 268.81 170.918 269.264 169.782C269.717 168.648 269.944 167.31 269.944 165.771V139.447H278.383V167.043C278.383 169.413 277.954 171.555 277.096 173.469C276.238 175.384 275.045 177.013 273.517 178.355C271.988 179.698 270.168 180.734 268.059 181.464C265.949 182.194 263.641 182.56 261.137 182.56C258.633 182.56 256.324 182.194 254.215 181.464C252.104 180.734 250.28 179.697 248.742 178.355C247.203 177.013 246.005 175.385 245.147 173.469C244.289 171.555 243.86 169.412 243.86 167.043V139.447H252.358V165.771C252.358 167.31 252.585 168.648 253.039 169.782C253.493 170.918 254.109 171.855 254.889 172.595C255.669 173.336 256.596 173.889 257.672 174.254C258.748 174.619 259.908 174.801 261.151 174.801Z" fill="#0B0C0C"/>
<path d="M285.998 139.506H294.584V157.894L309.743 139.506H320.314L305.569 156.384L321.261 181.967H311.284L300.062 162.927L294.584 169.056V181.967H285.998V139.506Z" fill="#0B0C0C"/>
<path d="M226.001 167.905C229.959 167.905 233.169 164.696 233.169 160.737C233.169 156.778 229.959 153.568 226.001 153.568C222.042 153.568 218.833 156.778 218.833 160.737C218.833 164.696 222.042 167.905 226.001 167.905Z" fill="#1D70B8"/>
<path d="M57.8931 160.844C57.8931 162.659 58.1179 164.407 58.5758 166.085C59.0296 167.763 59.7206 169.245 60.6489 170.527C61.5772 171.809 62.7595 172.841 64.1998 173.62C65.6401 174.398 67.3594 174.789 69.3492 174.789C71.339 174.789 72.8585 174.486 74.1323 173.874C75.4061 173.262 76.4219 172.496 77.1837 171.58C77.9413 170.664 78.4741 169.669 78.7822 168.603C79.0861 167.538 79.2401 166.551 79.2401 165.644V165.227H68.3751V158.683H87.5907V181.954H80.0727V176.979C79.5398 177.807 78.8779 178.565 78.0911 179.244C77.3002 179.926 76.4135 180.505 75.4269 180.992C74.4403 181.475 73.358 181.858 72.1841 182.133C71.0102 182.407 69.7613 182.549 68.4375 182.549C65.3404 182.549 62.5846 181.987 60.1785 180.863C57.7724 179.739 55.7409 178.19 54.0966 176.213C52.4481 174.24 51.1951 171.93 50.3376 169.286C49.48 166.643 49.0513 163.791 49.0513 160.732C49.0513 157.672 49.53 154.845 50.4874 152.189C51.4449 149.534 52.8061 147.227 54.5712 145.262C56.3362 143.298 58.4676 141.749 60.9653 140.617C63.463 139.48 66.2604 138.914 69.3575 138.914C71.3723 138.914 73.2789 139.147 75.0856 139.609C76.8923 140.071 78.5407 140.733 80.031 141.591C81.5213 142.448 82.8368 143.485 83.9815 144.7C85.1263 145.916 86.0546 147.261 86.7623 148.743L79.2442 152.976C78.7905 152.069 78.2577 151.224 77.6457 150.445C77.0338 149.667 76.3303 148.997 75.531 148.43C74.7317 147.868 73.8201 147.423 72.7919 147.098C71.7637 146.774 70.6189 146.611 69.3575 146.611C67.3635 146.611 65.6485 147.003 64.2081 147.781C62.7678 148.559 61.5814 149.592 60.6572 150.874C59.7289 152.156 59.0379 153.642 58.5841 155.328C58.1304 157.014 57.9014 158.758 57.9014 160.553V160.848L57.8931 160.844Z" fill="#858686"/>
<path d="M331.255 167.377C327.545 168.91 323.336 167.157 321.828 163.495C320.311 159.841 322.048 155.584 325.759 154.067C329.396 152.575 333.62 154.361 335.129 158.022C336.638 161.668 334.893 165.884 331.255 167.377Z" fill="#858686"/>
<path d="M335.622 139.422H350.908C352.954 139.422 354.808 139.767 356.469 140.456C358.13 141.124 359.549 142.066 360.724 143.282C361.919 144.477 362.831 145.915 363.459 147.597C364.107 149.278 364.431 151.122 364.431 153.128C364.431 155.154 364.077 157.007 363.367 158.689C362.679 160.35 361.706 161.778 360.45 162.974C359.194 164.169 357.695 165.101 355.953 165.769C354.231 166.418 352.346 166.742 350.3 166.742H340.971V183H335.622V139.422ZM358.748 153.006C358.748 151.73 358.546 150.545 358.141 149.451C357.735 148.357 357.148 147.415 356.378 146.624C355.608 145.814 354.666 145.186 353.552 144.74C352.458 144.274 351.212 144.041 349.814 144.041H340.971V162.153H349.814C351.212 162.153 352.458 161.93 353.552 161.485C354.666 161.039 355.608 160.431 356.378 159.661C357.148 158.871 357.735 157.939 358.141 156.866C358.546 155.772 358.748 154.586 358.748 153.31V153.006ZM388.378 179.9C387.466 180.954 386.23 181.835 384.67 182.544C383.13 183.253 381.317 183.608 379.23 183.608C377.691 183.608 376.262 183.395 374.946 182.97C373.629 182.524 372.484 181.896 371.512 181.085C370.539 180.275 369.78 179.293 369.233 178.138C368.685 176.983 368.412 175.676 368.412 174.218C368.412 173.002 368.604 171.898 368.989 170.905C369.395 169.892 369.952 169.011 370.661 168.261C371.39 167.512 372.261 166.904 373.274 166.438C374.287 165.952 375.422 165.618 376.678 165.435L387.648 163.946V161.971C387.648 160.796 387.466 159.813 387.101 159.023C386.737 158.213 386.24 157.575 385.612 157.109C385.004 156.643 384.275 156.308 383.424 156.106C382.593 155.903 381.692 155.802 380.72 155.802C378.977 155.802 377.346 156.045 375.827 156.531C374.328 157.017 372.97 157.585 371.755 158.233L369.84 154.191C371.623 153.178 373.487 152.449 375.432 152.003C377.397 151.558 379.332 151.335 381.236 151.335C385.025 151.335 387.891 152.196 389.836 153.918C391.781 155.62 392.754 158.111 392.754 161.393V175.707C392.754 176.74 392.956 177.611 393.361 178.32C393.766 179.009 394.415 179.556 395.306 179.961L392.419 183.608C391.447 183.365 390.606 182.939 389.897 182.331C389.208 181.703 388.722 180.954 388.438 180.083L388.378 179.9ZM379.291 169.173C378.44 169.295 377.66 169.467 376.951 169.69C376.262 169.913 375.675 170.216 375.189 170.601C374.703 170.966 374.318 171.422 374.034 171.969C373.771 172.516 373.639 173.184 373.639 173.974C373.639 174.886 373.811 175.697 374.156 176.406C374.5 177.115 374.966 177.712 375.553 178.199C376.141 178.685 376.82 179.06 377.589 179.323C378.38 179.566 379.2 179.688 380.051 179.688C381.003 179.688 381.935 179.556 382.847 179.293C383.758 179.029 384.569 178.654 385.278 178.168C385.987 177.662 386.554 177.054 386.98 176.345C387.425 175.636 387.648 174.825 387.648 173.914V167.927L379.291 169.173ZM398.345 151.943H404.119L411.777 177.591L419.07 151.943H424.783L413.479 187.68C413.134 188.774 412.689 189.665 412.142 190.354C411.595 191.063 410.967 191.62 410.258 192.026C409.569 192.451 408.799 192.745 407.948 192.907C407.097 193.069 406.196 193.15 405.243 193.15C404.392 193.15 403.511 193.099 402.6 192.998C401.688 192.917 400.726 192.795 399.713 192.633L400.472 188.166C400.877 188.247 401.313 188.318 401.779 188.379C402.164 188.44 402.6 188.49 403.086 188.531C403.572 188.571 404.068 188.592 404.575 188.592C405.689 188.592 406.55 188.348 407.158 187.862C407.786 187.376 408.232 186.586 408.495 185.492L408.799 184.064L398.345 151.943Z" fill="black"/>
</g>
<rect x="0.5" y="0.5" width="479" height="319" stroke="#B1B4B6"/>
<defs>
<clipPath id="clip0_1210_2814">
<rect width="480" height="320" fill="white"/>
</clipPath>
</defs>
</svg>
