<svg width="127" height="61" viewBox="0 0 127 61" fill="none" xmlns="http://www.w3.org/2000/svg">
<path d="M34.2748 38H37.385L41.5102 51.816L45.4389 38H48.5164L42.4269 57.2507C42.2413 57.84 42.0013 58.3202 41.7066 58.6913C41.412 59.0732 41.0736 59.3733 40.6917 59.5916C40.3206 59.8208 39.9059 59.979 39.4476 60.0663C38.9892 60.1536 38.5036 60.1973 37.9907 60.1973C37.5323 60.1973 37.0576 60.17 36.5665 60.1154C36.0754 60.0718 35.5571 60.0063 35.0114 59.919L35.4207 57.5126C35.6389 57.5563 35.8735 57.5945 36.1245 57.6272C36.3319 57.66 36.5665 57.6872 36.8284 57.7091C37.0904 57.7309 37.3577 57.7418 37.6306 57.7418C38.2308 57.7418 38.6946 57.6109 39.022 57.3489C39.3603 57.087 39.6004 56.6614 39.7422 56.0721L39.9059 55.3027L34.2748 38Z" fill="black"/>
<path d="M28.9055 53.0601C28.4144 53.6276 27.7487 54.1023 26.9084 54.4843C26.079 54.8662 25.1023 55.0572 23.9782 55.0572C23.1488 55.0572 22.3795 54.9426 21.6701 54.7134C20.9608 54.4733 20.3442 54.135 19.8203 53.6985C19.2965 53.262 18.8873 52.7327 18.5926 52.1107C18.298 51.4886 18.1506 50.7847 18.1506 49.999C18.1506 49.3442 18.2543 48.7494 18.4617 48.2147C18.6799 47.669 18.98 47.1943 19.362 46.7905C19.7549 46.3867 20.2241 46.0593 20.7698 45.8083C21.3154 45.5464 21.9266 45.3664 22.6032 45.2681L28.5126 44.466V43.402C28.5126 42.769 28.4144 42.2397 28.218 41.8141C28.0215 41.3776 27.7542 41.0338 27.4159 40.7828C27.0885 40.5318 26.6956 40.3518 26.2372 40.2426C25.7898 40.1335 25.3042 40.0789 24.7803 40.0789C23.8418 40.0789 22.9633 40.2099 22.1448 40.4718C21.3373 40.7337 20.6061 41.0393 19.9513 41.3885L18.92 39.2114C19.8804 38.6657 20.8844 38.2728 21.932 38.0327C22.9906 37.7927 24.0328 37.6726 25.0586 37.6726C27.0994 37.6726 28.6436 38.1364 29.6912 39.064C30.7389 39.9807 31.2627 41.323 31.2627 43.091V50.8011C31.2627 51.3576 31.3719 51.8269 31.5901 52.2089C31.8084 52.5799 32.1576 52.8746 32.6378 53.0928L31.0827 55.0572C30.5588 54.9262 30.1059 54.6971 29.724 54.3697C29.3529 54.0314 29.091 53.6276 28.9382 53.1583L28.9055 53.0601ZM24.011 47.2816C23.5526 47.3471 23.1325 47.4398 22.7505 47.5599C22.3795 47.6799 22.063 47.8436 21.8011 48.051C21.5392 48.2474 21.3318 48.493 21.179 48.7876C21.0372 49.0823 20.9662 49.4424 20.9662 49.868C20.9662 50.3591 21.059 50.7956 21.2445 51.1776C21.43 51.5595 21.681 51.8815 21.9975 52.1434C22.314 52.4053 22.6796 52.6072 23.0943 52.7491C23.5199 52.88 23.9619 52.9455 24.4202 52.9455C24.9331 52.9455 25.4351 52.8746 25.9262 52.7327C26.4173 52.5908 26.8538 52.3889 27.2358 52.127C27.6178 51.8542 27.9233 51.5268 28.1525 51.1448C28.3926 50.7629 28.5126 50.3264 28.5126 49.8353V46.6104L24.011 47.2816Z" fill="black"/>
<path d="M0.487793 31.2556H8.72174C9.82396 31.2556 10.8225 31.4411 11.7174 31.8122C12.6123 32.1723 13.3762 32.6798 14.0091 33.3346C14.653 33.9784 15.1441 34.7533 15.4824 35.6591C15.8316 36.5648 16.0062 37.5579 16.0062 38.6383C16.0062 39.7296 15.8153 40.7282 15.4333 41.634C15.0623 42.5289 14.5384 43.2982 13.8618 43.9421C13.1852 44.586 12.3776 45.088 11.4391 45.4481C10.5115 45.7973 9.49657 45.9719 8.39434 45.9719H3.36885V54.7297H0.487793V31.2556ZM12.9451 38.5729C12.9451 37.8853 12.836 37.2469 12.6177 36.6576C12.3995 36.0683 12.083 35.5608 11.6683 35.1352C11.2536 34.6987 10.7461 34.3604 10.1459 34.1203C9.55659 33.8693 8.88543 33.7438 8.13243 33.7438H3.36885V43.5001H8.13243C8.88543 43.5001 9.55659 43.3801 10.1459 43.14C10.7461 42.8999 11.2536 42.5725 11.6683 42.1578C12.083 41.7322 12.3995 41.2302 12.6177 40.6518C12.836 40.0625 12.9451 39.4241 12.9451 38.7366V38.5729Z" fill="black"/>
<path d="M5.11813 12.0385C5.11813 13.0166 5.24045 13.9578 5.48508 14.8616C5.72933 15.7653 6.10136 16.5627 6.60154 17.2538C7.10134 17.9453 7.73904 18.5008 8.51542 18.9207C9.29179 19.3406 10.217 19.551 11.291 19.551C12.365 19.551 13.1811 19.3862 13.8671 19.0567C14.5527 18.7271 15.1004 18.3149 15.5098 17.8202C15.9189 17.3259 16.206 16.7918 16.3711 16.2176C16.5359 15.6434 16.6181 15.1117 16.6181 14.6224V14.3992H10.7647V10.8745H21.1159V23.4107H17.0649V20.731C16.7778 21.1778 16.4214 21.5845 15.9964 21.9514C15.571 22.318 15.0926 22.632 14.5605 22.8922C14.0288 23.1528 13.4464 23.3577 12.8141 23.5065C12.1815 23.6553 11.5087 23.7297 10.7966 23.7297C9.12701 23.7297 7.64399 23.4267 6.34677 22.8205C5.04956 22.2144 3.95687 21.3799 3.06908 20.3165C2.18129 19.2534 1.50619 18.0091 1.0434 16.5842C0.581004 15.1596 0.349609 13.6232 0.349609 11.9746C0.349609 10.326 0.607493 8.80364 1.12326 7.37359C1.63903 5.94354 2.37256 4.69931 3.32462 3.64129C4.2763 2.58326 5.42431 1.74884 6.76944 1.13724C8.11457 0.525647 9.62175 0.219849 11.2914 0.219849C12.3759 0.219849 13.4047 0.344895 14.3774 0.594598C15.3505 0.844691 16.2383 1.20074 17.0412 1.66314C17.8436 2.12554 18.5534 2.68416 19.1705 3.33783C19.7867 3.9915 20.2869 4.71762 20.6699 5.51503L16.6185 7.79547C16.3739 7.30659 16.0868 6.85198 15.7572 6.43165C15.4273 6.0121 15.0474 5.65021 14.617 5.34714C14.1861 5.04407 13.6945 4.80488 13.1417 4.62958C12.5886 4.45428 11.9719 4.36624 11.2918 4.36624C10.2178 4.36624 9.29257 4.5766 8.51619 4.99654C7.73982 5.41648 7.10212 5.97198 6.60232 6.66344C6.10253 7.3545 5.7305 8.15464 5.48586 9.06386C5.24122 9.97307 5.1189 10.9119 5.1189 11.8788V12.0385H5.11813Z" fill="#0B0C0C"/>
<path d="M35.8466 0.219727C37.5478 0.219727 39.0737 0.525525 40.4242 1.13712C41.7748 1.74872 42.9205 2.58314 43.8616 3.64116C44.8024 4.69919 45.5204 5.94342 46.0147 7.37347C46.509 8.80351 46.756 10.3376 46.756 11.9745C46.756 13.6114 46.509 15.1595 46.0147 16.584C45.5204 18.009 44.8024 19.2533 43.8616 20.3163C42.9209 21.3794 41.7748 22.2142 40.4242 22.8204C39.074 23.4265 37.5478 23.7296 35.8466 23.7296C34.1454 23.7296 32.6059 23.4265 31.2612 22.8204C29.916 22.2142 28.7731 21.3798 27.8323 20.3163C26.8912 19.2533 26.1736 18.009 25.6793 16.584C25.1849 15.1595 24.9376 13.6231 24.9376 11.9745C24.9376 10.3259 25.1849 8.80351 25.6793 7.37347C26.1736 5.94342 26.8912 4.69919 27.8323 3.64116C28.7731 2.58314 29.916 1.74872 31.2612 1.13712C32.6063 0.525525 34.1345 0.219727 35.8466 0.219727ZM35.8466 19.5505C36.8462 19.5505 37.7262 19.3619 38.4862 18.9841C39.2462 18.607 39.8874 18.083 40.4079 17.4134C40.9291 16.7434 41.3225 15.9514 41.5882 15.0367C41.8539 14.1225 41.9871 13.1229 41.9871 12.0384V11.9106C41.9871 10.8366 41.8539 9.83972 41.5882 8.91999C41.3225 8.00026 40.9291 7.20518 40.4079 6.53554C39.887 5.8659 39.2462 5.34234 38.4862 4.96447C37.7262 4.58739 36.8462 4.39845 35.8466 4.39845C34.847 4.39845 33.9647 4.58739 33.1988 4.96447C32.4333 5.34234 31.7929 5.8659 31.2771 6.53554C30.7614 7.20518 30.3707 8.00065 30.105 8.91999C29.8393 9.83972 29.7061 10.8366 29.7061 11.9106V12.0384C29.7061 13.1229 29.8393 14.1225 30.105 15.0367C30.3707 15.9514 30.7614 16.743 31.2771 17.4134C31.7929 18.083 32.4333 18.607 33.1988 18.9841C33.9647 19.3619 34.847 19.5505 35.8466 19.5505Z" fill="#0B0C0C"/>
<path d="M54.9108 23.4102L48.4512 0.538818H53.635L58.0533 17.7321H58.2126L62.5351 0.538818H67.6546L61.1951 23.4102H54.9112H54.9108Z" fill="#0B0C0C"/>
<path d="M93.8519 19.5504C94.5215 19.5504 95.1464 19.4522 95.7257 19.2555C96.3053 19.0588 96.8051 18.7611 97.225 18.3622C97.6446 17.9633 97.9773 17.4589 98.2219 16.8469C98.4661 16.2357 98.5885 15.5154 98.5885 14.686V0.506714H103.134V15.3716C103.134 16.6478 102.903 17.8017 102.441 18.8328C101.979 19.8644 101.336 20.7416 100.513 21.4646C99.6893 22.188 98.7092 22.7459 97.5729 23.1393C96.4362 23.5324 95.1931 23.7295 93.8441 23.7295C92.4951 23.7295 91.2516 23.5324 90.1153 23.1393C88.9782 22.7459 87.9957 22.1876 87.1668 21.4646C86.3378 20.7416 85.6927 19.8647 85.2303 18.8328C84.7683 17.8017 84.5373 16.6474 84.5373 15.3716V0.506714H89.1149V14.686C89.1149 15.5154 89.2373 16.2357 89.4815 16.8469C89.7261 17.4589 90.0584 17.9633 90.4784 18.3622C90.8983 18.7611 91.3981 19.0588 91.9778 19.2555C92.5574 19.4522 93.1823 19.5504 93.8519 19.5504Z" fill="#0B0C0C"/>
<path d="M107.237 0.538818H111.862V10.4432L120.029 0.538818H125.723L117.78 9.6298L126.233 23.4102H120.858L114.813 13.1545L111.862 16.4559V23.4102H107.237V0.538818Z" fill="#0B0C0C"/>
<path d="M74.9141 15.8356C77.0466 15.8356 78.7754 14.1069 78.7754 11.9744C78.7754 9.8419 77.0466 8.11316 74.9141 8.11316C72.7816 8.11316 71.0529 9.8419 71.0529 11.9744C71.0529 14.1069 72.7816 15.8356 74.9141 15.8356Z" fill="#1D70B8"/>
</svg>
