<svg width="480" height="320" viewBox="0 0 480 320" fill="none" xmlns="http://www.w3.org/2000/svg">
<g clip-path="url(#clip0_1210_2910)">
<path d="M480 0H0V320H480V0Z" fill="white"/>
<path d="M131.732 128.129C131.732 129.961 131.961 131.723 132.419 133.415C132.876 135.108 133.573 136.601 134.509 137.895C135.445 139.189 136.639 140.229 138.093 141.016C139.547 141.802 141.279 142.196 143.29 142.196C145.301 142.196 146.829 141.887 148.113 141.27C149.397 140.653 150.422 139.882 151.189 138.955C151.955 138.03 152.492 137.03 152.802 135.954C153.11 134.879 153.264 133.884 153.264 132.968V132.55H142.304V125.95H161.685V149.423H154.101V144.405C153.563 145.242 152.896 146.003 152.1 146.69C151.303 147.377 150.408 147.965 149.411 148.452C148.416 148.94 147.325 149.324 146.142 149.602C144.957 149.881 143.697 150.02 142.364 150.02C139.238 150.02 136.461 149.453 134.032 148.318C131.604 147.183 129.558 145.62 127.895 143.629C126.233 141.639 124.969 139.309 124.103 136.641C123.237 133.973 122.804 131.097 122.804 128.01C122.804 124.923 123.287 122.073 124.252 119.395C125.218 116.717 126.591 114.388 128.374 112.407C130.156 110.426 132.305 108.863 134.824 107.718C137.342 106.573 140.164 106 143.29 106C145.321 106 147.247 106.234 149.069 106.702C150.891 107.17 152.553 107.837 154.056 108.703C155.559 109.569 156.888 110.614 158.043 111.838C159.197 113.062 160.133 114.422 160.85 115.915L153.265 120.185C152.807 119.27 152.269 118.418 151.652 117.631C151.034 116.846 150.323 116.168 149.517 115.601C148.71 115.033 147.79 114.585 146.755 114.257C145.719 113.929 144.565 113.764 143.291 113.764C141.28 113.764 139.548 114.158 138.094 114.944C136.641 115.73 135.447 116.771 134.511 118.065C133.575 119.359 132.879 120.857 132.421 122.56C131.963 124.262 131.733 126.02 131.733 127.83V128.129H131.732Z" fill="#0B0C0C"/>
<path d="M189.27 106C192.455 106 195.312 106.573 197.841 107.718C200.369 108.863 202.515 110.425 204.277 112.406C206.038 114.388 207.382 116.717 208.308 119.395C209.234 122.072 209.696 124.945 209.696 128.01C209.696 131.075 209.234 133.973 208.308 136.641C207.382 139.309 206.038 141.639 204.277 143.629C202.515 145.62 200.369 147.183 197.841 148.318C195.313 149.453 192.455 150.02 189.27 150.02C186.085 150.02 183.202 149.453 180.684 148.318C178.166 147.183 176.026 145.62 174.264 143.629C172.502 141.639 171.159 139.309 170.233 136.641C169.307 133.973 168.844 131.097 168.844 128.01C168.844 124.923 169.307 122.072 170.233 119.395C171.159 116.717 172.502 114.388 174.264 112.406C176.026 110.425 178.166 108.863 180.684 107.718C183.203 106.573 186.064 106 189.27 106ZM189.27 142.195C191.141 142.195 192.789 141.842 194.212 141.135C195.635 140.428 196.836 139.447 197.81 138.194C198.786 136.939 199.523 135.456 200.02 133.744C200.517 132.032 200.767 130.16 200.767 128.129V127.89C200.767 125.879 200.517 124.013 200.02 122.291C199.523 120.568 198.786 119.08 197.81 117.826C196.835 116.572 195.635 115.592 194.212 114.884C192.789 114.178 191.141 113.824 189.27 113.824C187.398 113.824 185.746 114.178 184.312 114.884C182.879 115.592 181.68 116.572 180.714 117.826C179.748 119.08 179.017 120.569 178.519 122.291C178.022 124.013 177.773 125.879 177.773 127.89V128.129C177.773 130.16 178.022 132.032 178.519 133.744C179.017 135.456 179.748 136.938 180.714 138.194C181.68 139.447 182.879 140.428 184.312 141.135C185.746 141.842 187.398 142.195 189.27 142.195Z" fill="#0B0C0C"/>
<path d="M224.963 149.422L212.869 106.598H222.574L230.847 138.79H231.145L239.239 106.598H248.824L236.73 149.422H224.964H224.963Z" fill="#0B0C0C"/>
<path d="M297.874 142.195C299.128 142.195 300.298 142.011 301.383 141.643C302.468 141.274 303.404 140.717 304.19 139.97C304.975 139.223 305.598 138.279 306.056 137.133C306.514 135.989 306.743 134.64 306.743 133.087V106.538H315.254V134.371C315.254 136.76 314.821 138.921 313.956 140.851C313.091 142.783 311.888 144.425 310.346 145.779C308.804 147.134 306.969 148.178 304.841 148.915C302.713 149.651 300.385 150.02 297.86 150.02C295.334 150.02 293.006 149.651 290.878 148.915C288.749 148.178 286.91 147.133 285.357 145.779C283.805 144.425 282.597 142.784 281.732 140.851C280.867 138.921 280.434 136.76 280.434 134.371V106.538H289.005V133.087C289.005 134.64 289.234 135.989 289.691 137.133C290.149 138.279 290.772 139.223 291.558 139.97C292.344 140.717 293.28 141.274 294.365 141.643C295.451 142.011 296.62 142.195 297.874 142.195Z" fill="#0B0C0C"/>
<path d="M322.937 106.598H331.598V125.143L346.888 106.598H357.549L342.677 123.62L358.504 149.422H348.441L337.123 130.219L331.598 136.401V149.422H322.937V106.598Z" fill="#0B0C0C"/>
<path d="M262.415 135.239C266.407 135.239 269.644 132.002 269.644 128.01C269.644 124.017 266.407 120.78 262.415 120.78C258.422 120.78 255.185 124.017 255.185 128.01C255.185 132.002 258.422 135.239 262.415 135.239Z" fill="#1D70B8"/>
<path d="M123.038 164.048H138.455C140.519 164.048 142.389 164.395 144.064 165.09C145.74 165.764 147.17 166.714 148.355 167.94C149.561 169.146 150.48 170.597 151.114 172.293C151.767 173.989 152.094 175.848 152.094 177.871C152.094 179.914 151.737 181.784 151.022 183.48C150.327 185.155 149.346 186.596 148.079 187.802C146.812 189.007 145.3 189.947 143.543 190.621C141.806 191.275 139.906 191.602 137.842 191.602H128.432V208H123.038V164.048ZM146.363 177.748C146.363 176.461 146.158 175.266 145.75 174.162C145.341 173.059 144.749 172.109 143.972 171.312C143.196 170.494 142.245 169.861 141.122 169.412C140.018 168.942 138.762 168.707 137.352 168.707H128.432V186.974H137.352C138.762 186.974 140.018 186.749 141.122 186.3C142.245 185.85 143.196 185.237 143.972 184.461C144.749 183.664 145.341 182.724 145.75 181.641C146.158 180.537 146.363 179.342 146.363 178.055V177.748ZM176.247 204.874C175.327 205.936 174.081 206.825 172.507 207.54C170.954 208.255 169.126 208.613 167.021 208.613C165.468 208.613 164.027 208.398 162.699 207.969C161.371 207.52 160.217 206.886 159.236 206.069C158.255 205.252 157.489 204.261 156.937 203.096C156.385 201.931 156.11 200.613 156.11 199.142C156.11 197.916 156.304 196.802 156.692 195.801C157.101 194.78 157.662 193.891 158.378 193.135C159.113 192.379 159.992 191.766 161.014 191.296C162.035 190.805 163.18 190.468 164.446 190.284L175.511 188.782V186.79C175.511 185.605 175.327 184.614 174.959 183.817C174.592 183 174.091 182.356 173.458 181.886C172.845 181.416 172.109 181.079 171.251 180.875C170.413 180.67 169.504 180.568 168.523 180.568C166.766 180.568 165.121 180.813 163.588 181.304C162.076 181.794 160.707 182.366 159.481 183.02L157.55 178.944C159.348 177.922 161.228 177.186 163.19 176.737C165.172 176.287 167.123 176.063 169.044 176.063C172.865 176.063 175.756 176.931 177.718 178.668C179.679 180.384 180.66 182.898 180.66 186.208V200.644C180.66 201.686 180.865 202.565 181.273 203.28C181.682 203.975 182.336 204.526 183.235 204.935L180.323 208.613C179.342 208.368 178.494 207.939 177.779 207.326C177.084 206.692 176.594 205.936 176.308 205.058L176.247 204.874ZM167.082 194.054C166.224 194.177 165.437 194.35 164.722 194.575C164.027 194.8 163.435 195.107 162.945 195.495C162.454 195.863 162.066 196.322 161.78 196.874C161.514 197.426 161.381 198.1 161.381 198.897C161.381 199.816 161.555 200.634 161.902 201.349C162.25 202.064 162.72 202.667 163.312 203.157C163.905 203.648 164.589 204.026 165.366 204.291C166.163 204.537 166.99 204.659 167.849 204.659C168.809 204.659 169.749 204.526 170.668 204.261C171.588 203.995 172.405 203.617 173.12 203.127C173.836 202.616 174.408 202.003 174.837 201.288C175.286 200.572 175.511 199.755 175.511 198.836V192.798L167.082 194.054ZM186.3 176.676H192.123L199.847 202.544L207.203 176.676H212.966L201.564 212.72C201.216 213.824 200.767 214.723 200.215 215.417C199.663 216.132 199.03 216.694 198.315 217.103C197.62 217.532 196.844 217.828 195.985 217.992C195.127 218.155 194.218 218.237 193.257 218.237C192.399 218.237 191.51 218.186 190.591 218.084C189.671 218.002 188.701 217.88 187.679 217.716L188.445 213.211C188.854 213.292 189.293 213.364 189.763 213.425C190.152 213.486 190.591 213.537 191.081 213.578C191.572 213.619 192.072 213.64 192.583 213.64C193.707 213.64 194.575 213.394 195.188 212.904C195.822 212.414 196.271 211.617 196.537 210.513L196.844 209.073L186.3 176.676Z" fill="black"/>
</g>
<rect x="0.5" y="0.5" width="479" height="319" stroke="#B1B4B6"/>
<defs>
<clipPath id="clip0_1210_2910">
<rect width="480" height="320" fill="white"/>
</clipPath>
</defs>
</svg>
