<svg width="182" height="30" viewBox="0 0 182 30" fill="none" xmlns="http://www.w3.org/2000/svg">
<path d="M5.11813 12.6449C5.11813 13.6231 5.24045 14.5642 5.48508 15.468C5.72933 16.3718 6.10136 17.1692 6.60154 17.8603C7.10134 18.5517 7.73904 19.1072 8.51542 19.5271C9.29179 19.9471 10.217 20.1574 11.291 20.1574C12.365 20.1574 13.1811 19.9927 13.8671 19.6631C14.5527 19.3335 15.1004 18.9214 15.5098 18.4267C15.9189 17.9323 16.206 17.3982 16.3711 16.824C16.5359 16.2498 16.6181 15.7181 16.6181 15.2288V15.0056H10.7647V11.4809H21.1159V24.0171H17.0649V21.3374C16.7778 21.7842 16.4214 22.1909 15.9964 22.5579C15.571 22.9244 15.0926 23.2384 14.5605 23.4986C14.0288 23.7592 13.4464 23.9642 12.8141 24.113C12.1815 24.2618 11.5087 24.3362 10.7966 24.3362C9.12701 24.3362 7.64399 24.0331 6.34677 23.427C5.04956 22.8208 3.95687 21.9864 3.06908 20.9229C2.18129 19.8598 1.50619 18.6156 1.0434 17.1906C0.581004 15.766 0.349609 14.2296 0.349609 12.581C0.349609 10.9325 0.607493 9.41008 1.12326 7.98004C1.63903 6.54999 2.37256 5.30576 3.32462 4.24773C4.2763 3.18971 5.42431 2.35529 6.76944 1.74369C8.11457 1.13209 9.62175 0.826294 11.2914 0.826294C12.3759 0.826294 13.4047 0.95134 14.3774 1.20104C15.3505 1.45114 16.2383 1.80719 17.0412 2.26959C17.8436 2.73198 18.5534 3.2906 19.1705 3.94427C19.7867 4.59794 20.2869 5.32407 20.6699 6.12148L16.6185 8.40192C16.3739 7.91303 16.0868 7.45842 15.7572 7.0381C15.4273 6.61855 15.0474 6.25665 14.617 5.95358C14.1861 5.65051 13.6945 5.41133 13.1417 5.23603C12.5886 5.06073 11.9719 4.97269 11.2918 4.97269C10.2178 4.97269 9.29257 5.18305 8.51619 5.60299C7.73982 6.02292 7.10212 6.57843 6.60232 7.26988C6.10253 7.96095 5.7305 8.76109 5.48586 9.6703C5.24122 10.5795 5.1189 11.5183 5.1189 12.4852V12.6449H5.11813Z" fill="#0B0C0C"/>
<path d="M35.8466 0.826172C37.5478 0.826172 39.0737 1.13197 40.4242 1.74357C41.7748 2.35517 42.9205 3.18959 43.8616 4.24761C44.8024 5.30563 45.5204 6.54987 46.0147 7.97991C46.509 9.40996 46.756 10.944 46.756 12.5809C46.756 14.2178 46.509 15.7659 46.0147 17.1905C45.5204 18.6155 44.8024 19.8597 43.8616 20.9228C42.9209 21.9859 41.7748 22.8207 40.4242 23.4268C39.074 24.033 37.5478 24.3361 35.8466 24.3361C34.1454 24.3361 32.6059 24.033 31.2612 23.4268C29.916 22.8207 28.7731 21.9863 27.8323 20.9228C26.8912 19.8597 26.1736 18.6155 25.6793 17.1905C25.1849 15.7659 24.9376 14.2295 24.9376 12.5809C24.9376 10.9323 25.1849 9.40996 25.6793 7.97991C26.1736 6.54987 26.8912 5.30563 27.8323 4.24761C28.7731 3.18959 29.916 2.35517 31.2612 1.74357C32.6063 1.13197 34.1345 0.826172 35.8466 0.826172ZM35.8466 20.1569C36.8462 20.1569 37.7262 19.9684 38.4862 19.5905C39.2462 19.2134 39.8874 18.6895 40.4079 18.0198C40.9291 17.3498 41.3225 16.5579 41.5882 15.6432C41.8539 14.7289 41.9871 13.7293 41.9871 12.6448V12.517C41.9871 11.443 41.8539 10.4462 41.5882 9.52644C41.3225 8.6067 40.9291 7.81163 40.4079 7.14199C39.887 6.47234 39.2462 5.94879 38.4862 5.57092C37.7262 5.19383 36.8462 5.0049 35.8466 5.0049C34.847 5.0049 33.9647 5.19383 33.1988 5.57092C32.4333 5.94879 31.7929 6.47234 31.2771 7.14199C30.7614 7.81163 30.3707 8.60709 30.105 9.52644C29.8393 10.4462 29.7061 11.443 29.7061 12.517V12.6448C29.7061 13.7293 29.8393 14.7289 30.105 15.6432C30.3707 16.5579 30.7614 17.3494 31.2771 18.0198C31.7929 18.6895 32.4333 19.2134 33.1988 19.5905C33.9647 19.9684 34.847 20.1569 35.8466 20.1569Z" fill="#0B0C0C"/>
<path d="M54.9108 24.0167L48.4512 1.14526H53.635L58.0533 18.3385H58.2126L62.5351 1.14526H67.6546L61.1951 24.0167H54.9112H54.9108Z" fill="#0B0C0C"/>
<path d="M93.8519 20.1568C94.5215 20.1568 95.1464 20.0587 95.7257 19.8619C96.3053 19.6652 96.8051 19.3676 97.225 18.9687C97.6446 18.5698 97.9773 18.0653 98.2219 17.4533C98.4661 16.8421 98.5885 16.1218 98.5885 15.2925V1.11316H103.134V15.9781C103.134 17.2543 102.903 18.4081 102.441 19.4393C101.979 20.4708 101.336 21.3481 100.513 22.0711C99.6893 22.7945 98.7092 23.3523 97.5729 23.7458C96.4362 24.1388 95.1931 24.3359 93.8441 24.3359C92.4951 24.3359 91.2516 24.1388 90.1153 23.7458C88.9782 23.3523 87.9957 22.7941 87.1668 22.0711C86.3378 21.3481 85.6927 20.4712 85.2303 19.4393C84.7683 18.4081 84.5373 17.2539 84.5373 15.9781V1.11316H89.1149V15.2925C89.1149 16.1218 89.2373 16.8421 89.4815 17.4533C89.7261 18.0653 90.0584 18.5698 90.4784 18.9687C90.8983 19.3676 91.3981 19.6652 91.9778 19.8619C92.5574 20.0587 93.1823 20.1568 93.8519 20.1568Z" fill="#0B0C0C"/>
<path d="M107.237 1.14526H111.862V11.0496L120.029 1.14526H125.723L117.78 10.2362L126.233 24.0167H120.858L114.813 13.7609L111.862 17.0624V24.0167H107.237V1.14526Z" fill="#0B0C0C"/>
<path d="M74.9141 16.4421C77.0466 16.4421 78.7754 14.7134 78.7754 12.5808C78.7754 10.4483 77.0466 8.7196 74.9141 8.7196C72.7816 8.7196 71.0529 10.4483 71.0529 12.5808C71.0529 14.7134 72.7816 16.4421 74.9141 16.4421Z" fill="#1D70B8"/>
<path d="M167.745 7.60107H170.855L174.981 21.4171L178.909 7.60107H181.987L175.897 26.8518C175.712 27.4411 175.472 27.9213 175.177 28.2923C174.882 28.6743 174.544 28.9744 174.162 29.1927C173.791 29.4218 173.376 29.5801 172.918 29.6674C172.46 29.7547 171.974 29.7983 171.461 29.7983C171.003 29.7983 170.528 29.7711 170.037 29.7165C169.546 29.6728 169.028 29.6074 168.482 29.5201L168.891 27.1137C169.109 27.1574 169.344 27.1956 169.595 27.2283C169.802 27.261 170.037 27.2883 170.299 27.3102C170.561 27.332 170.828 27.3429 171.101 27.3429C171.701 27.3429 172.165 27.2119 172.492 26.95C172.831 26.6881 173.071 26.2625 173.213 25.6732L173.376 24.9038L167.745 7.60107Z" fill="black"/>
<path d="M162.376 22.6612C161.885 23.2286 161.219 23.7034 160.379 24.0853C159.549 24.4673 158.573 24.6583 157.449 24.6583C156.619 24.6583 155.85 24.5437 155.141 24.3145C154.431 24.0744 153.815 23.7361 153.291 23.2996C152.767 22.8631 152.358 22.3338 152.063 21.7117C151.768 21.0897 151.621 20.3858 151.621 19.6C151.621 18.9453 151.725 18.3505 151.932 17.8157C152.15 17.2701 152.45 16.7954 152.832 16.3916C153.225 15.9878 153.695 15.6604 154.24 15.4094C154.786 15.1475 155.397 14.9674 156.074 14.8692L161.983 14.0671V13.0031C161.983 12.3701 161.885 11.8408 161.688 11.4152C161.492 10.9787 161.225 10.6349 160.886 10.3839C160.559 10.1329 160.166 9.95285 159.708 9.84372C159.26 9.73459 158.775 9.68002 158.251 9.68002C157.312 9.68002 156.434 9.81098 155.615 10.0729C154.808 10.3348 154.077 10.6404 153.422 10.9896L152.39 8.81243C153.351 8.26677 154.355 7.8739 155.402 7.63381C156.461 7.39373 157.503 7.27368 158.529 7.27368C160.57 7.27368 162.114 7.73749 163.162 8.6651C164.209 9.5818 164.733 10.9241 164.733 12.692V20.4022C164.733 20.9587 164.842 21.428 165.061 21.8099C165.279 22.181 165.628 22.4756 166.108 22.6939L164.553 24.6583C164.029 24.5273 163.576 24.2981 163.194 23.9707C162.823 23.6324 162.561 23.2286 162.409 22.7594L162.376 22.6612ZM157.481 16.8827C157.023 16.9482 156.603 17.0409 156.221 17.161C155.85 17.281 155.533 17.4447 155.272 17.652C155.01 17.8485 154.802 18.094 154.649 18.3887C154.508 18.6833 154.437 19.0435 154.437 19.4691C154.437 19.9602 154.529 20.3967 154.715 20.7787C154.9 21.1606 155.151 21.4826 155.468 21.7445C155.784 22.0064 156.15 22.2083 156.565 22.3501C156.99 22.4811 157.432 22.5466 157.891 22.5466C158.404 22.5466 158.906 22.4756 159.397 22.3338C159.888 22.1919 160.324 21.99 160.706 21.7281C161.088 21.4553 161.394 21.1279 161.623 20.7459C161.863 20.364 161.983 19.9274 161.983 19.4363V16.2115L157.481 16.8827Z" fill="black"/>
<path d="M133.958 0.856812H142.192C143.294 0.856812 144.293 1.04233 145.188 1.41338C146.083 1.77351 146.847 2.28097 147.48 2.93576C148.123 3.57963 148.615 4.35446 148.953 5.26025C149.302 6.16604 149.477 7.15913 149.477 8.23953C149.477 9.33084 149.286 10.3294 148.904 11.2352C148.533 12.1301 148.009 12.8994 147.332 13.5433C146.656 14.1872 145.848 14.6892 144.91 15.0493C143.982 15.3985 142.967 15.5731 141.865 15.5731H136.839V24.3309H133.958V0.856812ZM146.416 8.17405C146.416 7.48653 146.306 6.84811 146.088 6.2588C145.87 5.66949 145.553 5.16203 145.139 4.73642C144.724 4.2999 144.217 3.96159 143.616 3.7215C143.027 3.4705 142.356 3.345 141.603 3.345H136.839V13.1013H141.603C142.356 13.1013 143.027 12.9813 143.616 12.7412C144.217 12.5011 144.724 12.1737 145.139 11.759C145.553 11.3334 145.87 10.8314 146.088 10.253C146.306 9.66369 146.416 9.02527 146.416 8.33775V8.17405Z" fill="black"/>
</svg>
