<svg width="242" height="37" viewBox="0 0 242 37" fill="none" xmlns="http://www.w3.org/2000/svg">
<path d="M147.232 0.483398L147.232 36.9005" stroke="#858686" stroke-width="0.5" stroke-dasharray="2 2"/>
<path d="M241.439 6.95251L0.208979 6.95251" stroke="#858686" stroke-width="0.5" stroke-dasharray="2 2"/>
<path d="M241.439 30.4573L0.208979 30.4573" stroke="#858686" stroke-width="0.5" stroke-dasharray="2 2"/>
<path d="M154.985 0.483398L154.985 36.9005" stroke="#858686" stroke-width="0.5" stroke-dasharray="2 2"/>
<path d="M26.1181 18.7713C26.1181 19.7494 26.2404 20.6906 26.4851 21.5944C26.7293 22.4981 27.1014 23.2955 27.6015 23.9866C28.1013 24.6781 28.739 25.2336 29.5154 25.6535C30.2918 26.0734 31.217 26.2838 32.291 26.2838C33.365 26.2838 34.1811 26.119 34.8671 25.7894C35.5527 25.4599 36.1004 25.0477 36.5098 24.553C36.9189 24.0587 37.206 23.5246 37.3711 22.9504C37.5359 22.3762 37.6181 21.8444 37.6181 21.3552V21.132H31.7647V17.6073H42.1159V30.1435H38.0649V27.4637C37.7778 27.9106 37.4214 28.3172 36.9964 28.6842C36.571 29.0508 36.0926 29.3648 35.5605 29.625C35.0288 29.8856 34.4464 30.0905 33.8141 30.2393C33.1815 30.3881 32.5087 30.4625 31.7966 30.4625C30.127 30.4625 28.644 30.1594 27.3468 29.5533C26.0496 28.9472 24.9569 28.1127 24.0691 27.0493C23.1813 25.9862 22.5062 24.7419 22.0434 23.317C21.581 21.8924 21.3496 20.356 21.3496 18.7074C21.3496 17.0588 21.6075 15.5364 22.1233 14.1064C22.639 12.6763 23.3726 11.4321 24.3246 10.3741C25.2763 9.31605 26.4243 8.48163 27.7694 7.87003C29.1146 7.25844 30.6217 6.95264 32.2914 6.95264C33.3759 6.95264 34.4047 7.07768 35.3774 7.32739C36.3505 7.57748 37.2383 7.93353 38.0412 8.39593C38.8436 8.85833 39.5534 9.41695 40.1705 10.0706C40.7867 10.7243 41.2869 11.4504 41.6699 12.2478L37.6185 14.5283C37.3739 14.0394 37.0868 13.5848 36.7572 13.1644C36.4273 12.7449 36.0474 12.383 35.617 12.0799C35.1861 11.7769 34.6945 11.5377 34.1417 11.3624C33.5886 11.1871 32.9719 11.099 32.2918 11.099C31.2178 11.099 30.2926 11.3094 29.5162 11.7293C28.7398 12.1493 28.1021 12.7048 27.6023 13.3962C27.1025 14.0873 26.7305 14.8874 26.4859 15.7966C26.2412 16.7059 26.1189 17.6447 26.1189 18.6116V18.7713H26.1181Z" fill="#0B0C0C"/>
<path d="M56.8466 6.95251C58.5478 6.95251 60.0737 7.25831 61.4242 7.86991C62.7748 8.48151 63.9205 9.31593 64.8616 10.374C65.8024 11.432 66.5204 12.6762 67.0147 14.1063C67.509 15.5363 67.756 17.0704 67.756 18.7073C67.756 20.3442 67.509 21.8922 67.0147 23.3168C66.5204 24.7418 65.8024 25.986 64.8616 27.0491C63.9209 28.1122 62.7748 28.947 61.4242 29.5532C60.074 30.1593 58.5478 30.4624 56.8466 30.4624C55.1454 30.4624 53.6059 30.1593 52.2612 29.5532C50.916 28.947 49.7731 28.1126 48.8323 27.0491C47.8912 25.986 47.1736 24.7418 46.6793 23.3168C46.1849 21.8922 45.9376 20.3558 45.9376 18.7073C45.9376 17.0587 46.1849 15.5363 46.6793 14.1063C47.1736 12.6762 47.8912 11.432 48.8323 10.374C49.7731 9.31593 50.916 8.48151 52.2612 7.86991C53.6063 7.25831 55.1345 6.95251 56.8466 6.95251ZM56.8466 26.2833C57.8462 26.2833 58.7262 26.0947 59.4862 25.7169C60.2462 25.3398 60.8874 24.8158 61.4079 24.1462C61.9291 23.4762 62.3225 22.6842 62.5882 21.7695C62.8539 20.8553 62.9871 19.8557 62.9871 18.7711V18.6434C62.9871 17.5694 62.8539 16.5725 62.5882 15.6528C62.3225 14.733 61.9291 13.938 61.4079 13.2683C60.887 12.5987 60.2462 12.0751 59.4862 11.6973C58.7262 11.3202 57.8462 11.1312 56.8466 11.1312C55.847 11.1312 54.9647 11.3202 54.1988 11.6973C53.4333 12.0751 52.7929 12.5987 52.2771 13.2683C51.7614 13.938 51.3707 14.7334 51.105 15.6528C50.8393 16.5725 50.7061 17.5694 50.7061 18.6434V18.7711C50.7061 19.8557 50.8393 20.8553 51.105 21.7695C51.3707 22.6842 51.7614 23.4758 52.2771 24.1462C52.7929 24.8158 53.4333 25.3398 54.1988 25.7169C54.9647 26.0947 55.847 26.2833 56.8466 26.2833Z" fill="#0B0C0C"/>
<path d="M75.9108 30.143L69.4512 7.27161H74.635L79.0533 24.4649H79.2126L83.5351 7.27161H88.6546L82.1951 30.143H75.9112H75.9108Z" fill="#0B0C0C"/>
<path d="M114.852 26.2832C115.522 26.2832 116.146 26.185 116.726 25.9883C117.305 25.7915 117.805 25.4939 118.225 25.095C118.645 24.6961 118.977 24.1917 119.222 23.5797C119.466 22.9685 119.588 22.2482 119.588 21.4188V7.2395H124.134V22.1044C124.134 23.3806 123.903 24.5345 123.441 25.5656C122.979 26.5971 122.336 27.4744 121.513 28.1974C120.689 28.9208 119.709 29.4787 118.573 29.8721C117.436 30.2652 116.193 30.4623 114.844 30.4623C113.495 30.4623 112.252 30.2652 111.115 29.8721C109.978 29.4787 108.996 28.9204 108.167 28.1974C107.338 27.4744 106.693 26.5975 106.23 25.5656C105.768 24.5345 105.537 23.3802 105.537 22.1044V7.2395H110.115V21.4188C110.115 22.2482 110.237 22.9685 110.482 23.5797C110.726 24.1917 111.058 24.6961 111.478 25.095C111.898 25.4939 112.398 25.7915 112.978 25.9883C113.557 26.185 114.182 26.2832 114.852 26.2832Z" fill="#0B0C0C"/>
<path d="M128.237 7.27161H132.862V17.176L141.029 7.27161H146.723L138.78 16.3626L147.233 30.143H141.858L135.813 19.8873L132.862 23.1887V30.143H128.237V7.27161Z" fill="#0B0C0C"/>
<path d="M95.9141 22.5684C98.0466 22.5684 99.7754 20.8397 99.7754 18.7072C99.7754 16.5747 98.0466 14.8459 95.9141 14.8459C93.7816 14.8459 92.0529 16.5747 92.0529 18.7072C92.0529 20.8397 93.7816 22.5684 95.9141 22.5684Z" fill="#1D70B8"/>
<path d="M26.1181 18.7713C26.1181 19.7494 26.2404 20.6906 26.4851 21.5944C26.7293 22.4981 27.1014 23.2955 27.6015 23.9866C28.1013 24.6781 28.739 25.2336 29.5154 25.6535C30.2918 26.0734 31.217 26.2838 32.291 26.2838C33.365 26.2838 34.1811 26.119 34.8671 25.7894C35.5527 25.4599 36.1004 25.0477 36.5098 24.553C36.9189 24.0587 37.206 23.5246 37.3711 22.9504C37.5359 22.3762 37.6181 21.8444 37.6181 21.3552V21.132H31.7647V17.6073H42.1159V30.1435H38.0649V27.4637C37.7778 27.9106 37.4214 28.3172 36.9964 28.6842C36.571 29.0508 36.0926 29.3648 35.5605 29.625C35.0288 29.8856 34.4464 30.0905 33.8141 30.2393C33.1815 30.3881 32.5087 30.4625 31.7966 30.4625C30.127 30.4625 28.644 30.1594 27.3468 29.5533C26.0496 28.9472 24.9569 28.1127 24.0691 27.0493C23.1813 25.9862 22.5062 24.7419 22.0434 23.317C21.581 21.8924 21.3496 20.356 21.3496 18.7074C21.3496 17.0588 21.6075 15.5364 22.1233 14.1064C22.639 12.6763 23.3726 11.4321 24.3246 10.3741C25.2763 9.31605 26.4243 8.48163 27.7694 7.87003C29.1146 7.25844 30.6217 6.95264 32.2914 6.95264C33.3759 6.95264 34.4047 7.07768 35.3774 7.32739C36.3505 7.57748 37.2383 7.93353 38.0412 8.39593C38.8436 8.85833 39.5534 9.41695 40.1705 10.0706C40.7867 10.7243 41.2869 11.4504 41.6699 12.2478L37.6185 14.5283C37.3739 14.0394 37.0868 13.5848 36.7572 13.1644C36.4273 12.7449 36.0474 12.383 35.617 12.0799C35.1861 11.7769 34.6945 11.5377 34.1417 11.3624C33.5886 11.1871 32.9719 11.099 32.2918 11.099C31.2178 11.099 30.2926 11.3094 29.5162 11.7293C28.7398 12.1493 28.1021 12.7048 27.6023 13.3962C27.1025 14.0873 26.7305 14.8874 26.4859 15.7966C26.2412 16.7059 26.1189 17.6447 26.1189 18.6116V18.7713H26.1181Z" fill="#0B0C0C"/>
<path d="M56.8466 6.95251C58.5478 6.95251 60.0737 7.25831 61.4242 7.86991C62.7748 8.48151 63.9205 9.31593 64.8616 10.374C65.8024 11.432 66.5204 12.6762 67.0147 14.1063C67.509 15.5363 67.756 17.0704 67.756 18.7073C67.756 20.3442 67.509 21.8922 67.0147 23.3168C66.5204 24.7418 65.8024 25.986 64.8616 27.0491C63.9209 28.1122 62.7748 28.947 61.4242 29.5532C60.074 30.1593 58.5478 30.4624 56.8466 30.4624C55.1454 30.4624 53.6059 30.1593 52.2612 29.5532C50.916 28.947 49.7731 28.1126 48.8323 27.0491C47.8912 25.986 47.1736 24.7418 46.6793 23.3168C46.1849 21.8922 45.9376 20.3558 45.9376 18.7073C45.9376 17.0587 46.1849 15.5363 46.6793 14.1063C47.1736 12.6762 47.8912 11.432 48.8323 10.374C49.7731 9.31593 50.916 8.48151 52.2612 7.86991C53.6063 7.25831 55.1345 6.95251 56.8466 6.95251ZM56.8466 26.2833C57.8462 26.2833 58.7262 26.0947 59.4862 25.7169C60.2462 25.3398 60.8874 24.8158 61.4079 24.1462C61.9291 23.4762 62.3225 22.6842 62.5882 21.7695C62.8539 20.8553 62.9871 19.8557 62.9871 18.7711V18.6434C62.9871 17.5694 62.8539 16.5725 62.5882 15.6528C62.3225 14.733 61.9291 13.938 61.4079 13.2683C60.887 12.5987 60.2462 12.0751 59.4862 11.6973C58.7262 11.3202 57.8462 11.1312 56.8466 11.1312C55.847 11.1312 54.9647 11.3202 54.1988 11.6973C53.4333 12.0751 52.7929 12.5987 52.2771 13.2683C51.7614 13.938 51.3707 14.7334 51.105 15.6528C50.8393 16.5725 50.7061 17.5694 50.7061 18.6434V18.7711C50.7061 19.8557 50.8393 20.8553 51.105 21.7695C51.3707 22.6842 51.7614 23.4758 52.2771 24.1462C52.7929 24.8158 53.4333 25.3398 54.1988 25.7169C54.9647 26.0947 55.847 26.2833 56.8466 26.2833Z" fill="#0B0C0C"/>
<path d="M75.9108 30.143L69.4512 7.27161H74.635L79.0533 24.4649H79.2126L83.5351 7.27161H88.6546L82.1951 30.143H75.9112H75.9108Z" fill="#0B0C0C"/>
<path d="M114.852 26.2832C115.522 26.2832 116.146 26.185 116.726 25.9883C117.305 25.7915 117.805 25.4939 118.225 25.095C118.645 24.6961 118.977 24.1917 119.222 23.5797C119.466 22.9685 119.588 22.2482 119.588 21.4188V7.2395H124.134V22.1044C124.134 23.3806 123.903 24.5345 123.441 25.5656C122.979 26.5971 122.336 27.4744 121.513 28.1974C120.689 28.9208 119.709 29.4787 118.573 29.8721C117.436 30.2652 116.193 30.4623 114.844 30.4623C113.495 30.4623 112.252 30.2652 111.115 29.8721C109.978 29.4787 108.996 28.9204 108.167 28.1974C107.338 27.4744 106.693 26.5975 106.23 25.5656C105.768 24.5345 105.537 23.3802 105.537 22.1044V7.2395H110.115V21.4188C110.115 22.2482 110.237 22.9685 110.482 23.5797C110.726 24.1917 111.058 24.6961 111.478 25.095C111.898 25.4939 112.398 25.7915 112.978 25.9883C113.557 26.185 114.182 26.2832 114.852 26.2832Z" fill="#0B0C0C"/>
<path d="M128.237 7.27161H132.862V17.176L141.029 7.27161H146.723L138.78 16.3626L147.233 30.143H141.858L135.813 19.8873L132.862 23.1887V30.143H128.237V7.27161Z" fill="#0B0C0C"/>
<path d="M95.9141 22.5684C98.0466 22.5684 99.7754 20.8397 99.7754 18.7072C99.7754 16.5747 98.0466 14.8459 95.9141 14.8459C93.7816 14.8459 92.0529 16.5747 92.0529 18.7072C92.0529 20.8397 93.7816 22.5684 95.9141 22.5684Z" fill="#1D70B8"/>
<path d="M5.3527 18.7655C5.3527 19.7432 5.47379 20.685 5.72045 21.5887C5.96487 22.4923 6.33711 23.2906 6.83717 23.9813C7.33722 24.6719 7.97406 25.2281 8.74993 25.6474C9.5258 26.0667 10.4519 26.2775 11.5238 26.2775C12.5956 26.2775 13.4141 26.1138 14.1003 25.7842C14.7865 25.4545 15.3336 25.0419 15.744 24.5486C16.1521 24.0553 16.4391 23.5194 16.6051 22.9453C16.7688 22.3712 16.8517 21.8398 16.8517 21.351V21.1267H10.9991V17.6017H21.35V30.1367H17.3002V27.457C17.0132 27.9032 16.6566 28.3114 16.2328 28.6769C15.8068 29.0446 15.3291 29.3563 14.7977 29.6187C14.2662 29.8788 13.6832 30.0851 13.0509 30.2331C12.4185 30.3811 11.7458 30.4573 11.0327 30.4573C9.36435 30.4573 7.87988 30.1546 6.58377 29.5492C5.28767 28.9437 4.19338 28.1095 3.30763 27.0444C2.41964 25.9815 1.74468 24.737 1.28274 23.3131C0.82081 21.8891 0.589844 20.3531 0.589844 18.7049C0.589844 17.0568 0.847719 15.5342 1.36347 14.1035C1.87922 12.6729 2.61249 11.4306 3.56326 10.3722C4.51404 9.31376 5.66215 8.47959 7.00759 7.86966C8.35303 7.25748 9.85992 6.95251 11.5283 6.95251C12.6136 6.95251 13.6406 7.07809 14.6138 7.32699C15.587 7.5759 16.475 7.93244 17.2778 8.39438C18.0806 8.85631 18.7891 9.41467 19.4058 10.0694C20.0225 10.7242 20.5225 11.4485 20.9037 12.2468L16.854 14.5273C16.6095 14.0385 16.3225 13.5833 15.9929 13.164C15.6632 12.7446 15.2843 12.3836 14.8537 12.0786C14.4232 11.7759 13.9321 11.536 13.3782 11.3611C12.8244 11.1862 12.2077 11.0987 11.5283 11.0987C10.4542 11.0987 9.53029 11.3095 8.75442 11.7288C7.97855 12.1482 7.33946 12.7043 6.84165 13.3949C6.34159 14.0856 5.96936 14.8861 5.72494 15.7943C5.48051 16.7025 5.35718 17.642 5.35718 18.6085V18.7677L5.3527 18.7655Z" fill="#CECECE"/>
<path d="M152.606 22.2845C150.607 23.1104 148.34 22.1659 147.528 20.1934C146.71 18.2253 147.646 15.932 149.645 15.1149C151.604 14.311 153.88 15.2731 154.693 17.2456C155.505 19.2093 154.565 21.4806 152.606 22.2845Z" fill="#CECECE"/>
<path d="M188.745 13.7275H191.855L195.981 27.5435L199.909 13.7275H202.987L196.897 32.9783C196.712 33.5676 196.472 34.0478 196.177 34.4188C195.882 34.8008 195.544 35.1009 195.162 35.3191C194.791 35.5483 194.376 35.7065 193.918 35.7938C193.46 35.8812 192.974 35.9248 192.461 35.9248C192.003 35.9248 191.528 35.8975 191.037 35.843C190.546 35.7993 190.028 35.7338 189.482 35.6465L189.891 33.2402C190.109 33.2838 190.344 33.322 190.595 33.3548C190.802 33.3875 191.037 33.4148 191.299 33.4366C191.561 33.4584 191.828 33.4694 192.101 33.4694C192.701 33.4694 193.165 33.3384 193.492 33.0765C193.831 32.8146 194.071 32.389 194.213 31.7996L194.376 31.0303L188.745 13.7275Z" fill="black"/>
<path d="M183.376 28.7876C182.885 29.3551 182.219 29.8298 181.379 30.2118C180.549 30.5938 179.573 30.7847 178.449 30.7847C177.619 30.7847 176.85 30.6701 176.141 30.441C175.431 30.2009 174.815 29.8626 174.291 29.426C173.767 28.9895 173.358 28.4602 173.063 27.8382C172.768 27.2161 172.621 26.5122 172.621 25.7265C172.621 25.0717 172.725 24.477 172.932 23.9422C173.15 23.3966 173.45 22.9218 173.832 22.5181C174.225 22.1143 174.695 21.7869 175.24 21.5359C175.786 21.274 176.397 21.0939 177.074 20.9957L182.983 20.1936V19.1295C182.983 18.4966 182.885 17.9673 182.688 17.5417C182.492 17.1051 182.225 16.7614 181.886 16.5104C181.559 16.2594 181.166 16.0793 180.708 15.9702C180.26 15.8611 179.775 15.8065 179.251 15.8065C178.312 15.8065 177.434 15.9374 176.615 16.1994C175.808 16.4613 175.077 16.7668 174.422 17.1161L173.39 14.9389C174.351 14.3932 175.355 14.0004 176.402 13.7603C177.461 13.5202 178.503 13.4001 179.529 13.4001C181.57 13.4001 183.114 13.864 184.162 14.7916C185.209 15.7083 185.733 17.0506 185.733 18.8185V26.5286C185.733 27.0852 185.842 27.5544 186.061 27.9364C186.279 28.3075 186.628 28.6021 187.108 28.8204L185.553 30.7847C185.029 30.6538 184.576 30.4246 184.194 30.0972C183.823 29.7589 183.561 29.3551 183.409 28.8858L183.376 28.7876ZM178.481 23.0091C178.023 23.0746 177.603 23.1674 177.221 23.2874C176.85 23.4075 176.533 23.5712 176.272 23.7785C176.01 23.9749 175.802 24.2205 175.649 24.5151C175.508 24.8098 175.437 25.1699 175.437 25.5955C175.437 26.0866 175.529 26.5232 175.715 26.9051C175.9 27.2871 176.151 27.609 176.468 27.8709C176.784 28.1328 177.15 28.3347 177.565 28.4766C177.99 28.6076 178.432 28.673 178.891 28.673C179.404 28.673 179.906 28.6021 180.397 28.4602C180.888 28.3184 181.324 28.1165 181.706 27.8546C182.088 27.5817 182.394 27.2543 182.623 26.8724C182.863 26.4904 182.983 26.0539 182.983 25.5628V22.338L178.481 23.0091Z" fill="black"/>
<path d="M154.958 6.98315H163.192C164.294 6.98315 165.293 7.16868 166.188 7.53972C167.083 7.89986 167.847 8.40732 168.48 9.0621C169.123 9.70598 169.615 10.4808 169.953 11.3866C170.302 12.2924 170.477 13.2855 170.477 14.3659C170.477 15.4572 170.286 16.4557 169.904 17.3615C169.533 18.2564 169.009 19.0258 168.332 19.6696C167.656 20.3135 166.848 20.8155 165.91 21.1757C164.982 21.5249 163.967 21.6995 162.865 21.6995H157.839V30.4573H154.958V6.98315ZM167.416 14.3004C167.416 13.6129 167.306 12.9745 167.088 12.3851C166.87 11.7958 166.553 11.2884 166.139 10.8628C165.724 10.4262 165.217 10.0879 164.616 9.84785C164.027 9.59684 163.356 9.47134 162.603 9.47134H157.839V19.2277H162.603C163.356 19.2277 164.027 19.1076 164.616 18.8675C165.217 18.6274 165.724 18.3 166.139 17.8854C166.553 17.4597 166.87 16.9577 167.088 16.3793C167.306 15.79 167.416 15.1516 167.416 14.4641V14.3004Z" fill="black"/>
</svg>
