<svg width="480" height="320" viewBox="0 0 480 320" fill="none" xmlns="http://www.w3.org/2000/svg">
<g clip-path="url(#clip0_1210_2945)">
<path d="M480 0H0V320H480V0Z" fill="white"/>
<path d="M120.803 59L120.803 208.456" stroke="#858686" stroke-dasharray="3.83 3.83"/>
<path d="M362.15 104.065L80.9999 104.065" stroke="#858686" stroke-dasharray="3.83 3.83"/>
<path d="M362.15 149.129L80.9999 149.129" stroke="#858686" stroke-dasharray="3.83 3.83"/>
<path d="M129.943 126.724C129.943 128.599 130.177 130.403 130.646 132.136C131.114 133.869 131.828 135.398 132.787 136.723C133.745 138.048 134.967 139.113 136.456 139.918C137.944 140.724 139.718 141.127 141.777 141.127C143.836 141.127 145.401 140.811 146.716 140.179C148.031 139.547 149.081 138.757 149.866 137.809C150.65 136.861 151.201 135.837 151.517 134.736C151.833 133.635 151.991 132.616 151.991 131.678V131.25H140.768V124.492H160.614V148.527H152.847V143.389C152.297 144.246 151.614 145.025 150.799 145.729C149.983 146.432 149.066 147.034 148.046 147.533C147.026 148.032 145.91 148.425 144.698 148.711C143.485 148.996 142.195 149.138 140.83 149.138C137.629 149.138 134.785 148.557 132.298 147.395C129.811 146.233 127.716 144.633 126.014 142.594C124.312 140.556 123.018 138.171 122.13 135.439C121.244 132.707 120.8 129.762 120.8 126.601C120.8 123.44 121.295 120.522 122.284 117.78C123.272 115.038 124.679 112.653 126.504 110.624C128.329 108.596 130.53 106.996 133.109 105.823C135.687 104.651 138.577 104.064 141.778 104.064C143.857 104.064 145.83 104.304 147.695 104.783C149.56 105.262 151.263 105.945 152.802 106.832C154.34 107.718 155.701 108.789 156.884 110.042C158.066 111.296 159.025 112.688 159.759 114.217L151.991 118.589C151.522 117.651 150.972 116.78 150.34 115.974C149.708 115.17 148.979 114.476 148.154 113.895C147.328 113.314 146.386 112.855 145.326 112.519C144.265 112.183 143.083 112.014 141.779 112.014C139.72 112.014 137.946 112.417 136.457 113.222C134.969 114.028 133.746 115.093 132.788 116.418C131.83 117.743 131.117 119.277 130.648 121.02C130.179 122.764 129.944 124.564 129.944 126.417V126.724H129.943Z" fill="#0B0C0C"/>
<path d="M188.863 104.064C192.125 104.064 195.05 104.651 197.64 105.823C200.229 106.996 202.426 108.595 204.23 110.624C206.034 112.652 207.41 115.038 208.358 117.78C209.306 120.521 209.779 123.463 209.779 126.601C209.779 129.739 209.306 132.707 208.358 135.439C207.41 138.171 206.034 140.556 204.23 142.594C202.426 144.632 200.229 146.233 197.64 147.395C195.051 148.557 192.125 149.138 188.863 149.138C185.602 149.138 182.65 148.557 180.072 147.395C177.493 146.233 175.302 144.633 173.498 142.594C171.694 140.556 170.318 138.171 169.37 135.439C168.422 132.707 167.948 129.762 167.948 126.601C167.948 123.44 168.422 120.521 169.37 117.78C170.318 115.038 171.694 112.652 173.498 110.624C175.302 108.595 177.493 106.996 180.072 105.823C182.651 104.651 185.581 104.064 188.863 104.064ZM188.863 141.126C190.78 141.126 192.467 140.764 193.924 140.04C195.381 139.317 196.611 138.312 197.608 137.029C198.608 135.744 199.362 134.226 199.871 132.472C200.381 130.719 200.636 128.803 200.636 126.723V126.478C200.636 124.419 200.381 122.508 199.871 120.745C199.362 118.981 198.608 117.457 197.608 116.173C196.61 114.889 195.381 113.886 193.924 113.161C192.467 112.438 190.78 112.076 188.863 112.076C186.947 112.076 185.255 112.438 183.787 113.161C182.319 113.886 181.091 114.889 180.103 116.173C179.114 117.457 178.365 118.982 177.855 120.745C177.346 122.508 177.091 124.419 177.091 126.478V126.723C177.091 128.803 177.346 130.719 177.855 132.472C178.365 134.226 179.114 135.743 180.103 137.029C181.091 138.312 182.319 139.317 183.787 140.04C185.255 140.764 186.947 141.126 188.863 141.126Z" fill="#0B0C0C"/>
<path d="M225.406 148.526L213.021 104.676H222.96L231.431 137.64H231.736L240.023 104.676H249.839L237.454 148.526H225.407H225.406Z" fill="#0B0C0C"/>
<path d="M300.065 141.126C301.349 141.126 302.547 140.938 303.658 140.56C304.769 140.183 305.727 139.613 306.532 138.848C307.337 138.083 307.974 137.116 308.444 135.943C308.912 134.771 309.146 133.39 309.146 131.8V104.615H317.861V133.114C317.861 135.561 317.419 137.773 316.533 139.75C315.647 141.728 314.415 143.41 312.836 144.796C311.257 146.183 309.378 147.252 307.199 148.007C305.02 148.76 302.637 149.138 300.05 149.138C297.464 149.138 295.08 148.76 292.901 148.007C290.721 147.252 288.838 146.182 287.248 144.796C285.659 143.41 284.422 141.729 283.536 139.75C282.65 137.773 282.207 135.56 282.207 133.114V104.615H290.983V131.8C290.983 133.39 291.218 134.771 291.686 135.943C292.155 137.116 292.792 138.083 293.597 138.848C294.403 139.613 295.361 140.183 296.472 140.56C297.583 140.938 298.781 141.126 300.065 141.126Z" fill="#0B0C0C"/>
<path d="M325.726 104.676H334.594V123.665L350.251 104.676H361.168L345.939 122.106L362.146 148.526H351.842L340.252 128.863L334.594 135.193V148.526H325.726V104.676Z" fill="#0B0C0C"/>
<path d="M263.758 134.004C267.847 134.004 271.161 130.689 271.161 126.601C271.161 122.512 267.847 119.198 263.758 119.198C259.67 119.198 256.355 122.512 256.355 126.601C256.355 130.689 259.67 134.004 263.758 134.004Z" fill="#1D70B8"/>
<path d="M90.1374 126.713C90.1374 128.587 90.3695 130.393 90.8424 132.126C91.3111 133.858 92.0247 135.389 92.9835 136.713C93.9422 138.037 95.1632 139.103 96.6507 139.907C98.1382 140.711 99.9138 141.115 101.969 141.115C104.024 141.115 105.593 140.801 106.909 140.169C108.224 139.537 109.273 138.746 110.06 137.801C110.842 136.855 111.393 135.827 111.711 134.727C112.025 133.626 112.184 132.607 112.184 131.67V131.24H100.963V124.482H120.808V148.514H113.044V143.377C112.493 144.232 111.81 145.015 110.997 145.715C110.18 146.421 109.265 147.018 108.246 147.521C107.227 148.02 106.109 148.415 104.897 148.699C103.684 148.983 102.394 149.129 101.027 149.129C97.8287 149.129 94.9826 148.549 92.4976 147.388C90.0127 146.227 87.9147 144.628 86.2165 142.586C84.514 140.548 83.22 138.162 82.3343 135.432C81.4487 132.702 81.0059 129.757 81.0059 126.597C81.0059 123.437 81.5003 120.518 82.4891 117.775C83.4779 115.032 84.8837 112.65 86.7066 110.621C88.5295 108.592 90.7307 106.992 93.3102 105.823C95.8897 104.649 98.7788 104.065 101.977 104.065C104.058 104.065 106.027 104.305 107.893 104.783C109.759 105.26 111.461 105.943 113.001 106.829C114.54 107.715 115.898 108.785 117.081 110.041C118.263 111.296 119.222 112.685 119.952 114.215L112.188 118.587C111.719 117.65 111.169 116.777 110.537 115.974C109.905 115.17 109.179 114.477 108.353 113.893C107.528 113.312 106.586 112.852 105.524 112.517C104.462 112.182 103.28 112.014 101.977 112.014C99.9181 112.014 98.1468 112.418 96.6593 113.222C95.1718 114.026 93.9465 115.092 92.9921 116.416C92.0333 117.74 91.3197 119.275 90.851 121.016C90.3824 122.758 90.146 124.559 90.146 126.412V126.717L90.1374 126.713Z" fill="#CECECE"/>
<path d="M129.934 81.6482C129.934 83.5227 130.166 85.3284 130.639 87.0609C131.108 88.7935 131.822 90.324 132.78 91.6482C133.739 92.9724 134.96 94.0386 136.448 94.8425C137.935 95.6465 139.711 96.0506 141.766 96.0506C143.821 96.0506 145.39 95.7367 146.705 95.1048C148.021 94.4728 149.07 93.6817 149.857 92.7359C150.639 91.7901 151.19 90.7626 151.508 89.662C151.822 88.5614 151.981 87.5424 151.981 86.6052V86.1753H140.76V79.4169H160.605V103.45H152.84V98.312C152.29 99.1675 151.607 99.95 150.794 100.651C149.977 101.356 149.061 101.953 148.043 102.456C147.024 102.955 145.906 103.351 144.693 103.634C143.481 103.918 142.191 104.064 140.824 104.064C137.626 104.064 134.779 103.484 132.295 102.323C129.81 101.162 127.712 99.563 126.013 97.5209C124.311 95.4831 123.017 93.097 122.131 90.367C121.246 87.637 120.803 84.6921 120.803 81.5322C120.803 78.3722 121.297 75.4531 122.286 72.7102C123.275 69.9673 124.681 67.5855 126.503 65.5563C128.326 63.5271 130.528 61.9278 133.107 60.7584C135.687 59.5847 138.576 59 141.774 59C143.855 59 145.824 59.2408 147.69 59.718C149.556 60.1952 151.258 60.8788 152.797 61.7644C154.337 62.65 155.695 63.7205 156.877 64.9759C158.06 66.2313 159.018 67.6199 159.749 69.1504L151.985 73.5227C151.516 72.5855 150.966 71.7128 150.334 70.9088C149.702 70.1049 148.975 69.4127 148.15 68.828C147.325 68.2476 146.383 67.7876 145.321 67.4522C144.259 67.1169 143.077 66.9492 141.774 66.9492C139.715 66.9492 137.944 67.3534 136.456 68.1573C134.969 68.9613 133.743 70.0275 132.789 71.3516C131.83 72.6758 131.117 74.2106 130.648 75.9518C130.179 77.693 129.943 79.4943 129.943 81.3473V81.6525L129.934 81.6482Z" fill="#CECECE"/>
<path d="M362.15 163.993L80.9999 163.993" stroke="#858686" stroke-dasharray="3.83 3.83"/>
<path d="M267.074 163.419C263.242 165.003 258.895 163.192 257.337 159.41C255.771 155.637 257.565 151.24 261.397 149.674C265.153 148.132 269.516 149.977 271.075 153.759C272.633 157.524 270.83 161.878 267.074 163.419Z" fill="#CECECE"/>
<path d="M121.06 164.133H136.846C138.959 164.133 140.874 164.489 142.589 165.2C144.305 165.891 145.77 166.864 146.983 168.119C148.218 169.353 149.159 170.839 149.808 172.576C150.477 174.312 150.812 176.216 150.812 178.287C150.812 180.38 150.446 182.294 149.714 184.031C149.002 185.747 147.998 187.222 146.701 188.456C145.404 189.691 143.855 190.653 142.056 191.343C140.278 192.013 138.332 192.348 136.218 192.348H126.583V209.138H121.06V164.133ZM144.943 178.162C144.943 176.844 144.734 175.62 144.316 174.49C143.897 173.36 143.29 172.387 142.495 171.571C141.7 170.734 140.727 170.086 139.577 169.625C138.447 169.144 137.16 168.904 135.716 168.904H126.583V187.609H135.716C137.16 187.609 138.447 187.379 139.577 186.918C140.727 186.458 141.7 185.83 142.495 185.035C143.29 184.219 143.897 183.257 144.316 182.148C144.734 181.018 144.943 179.794 144.943 178.476V178.162ZM175.543 205.937C174.602 207.025 173.325 207.935 171.714 208.668C170.124 209.4 168.252 209.766 166.097 209.766C164.506 209.766 163.031 209.546 161.671 209.107C160.311 208.647 159.129 207.998 158.125 207.161C157.121 206.324 156.336 205.31 155.771 204.117C155.206 202.924 154.924 201.575 154.924 200.068C154.924 198.813 155.122 197.673 155.52 196.647C155.938 195.601 156.514 194.691 157.246 193.917C157.999 193.143 158.899 192.515 159.945 192.034C160.991 191.532 162.163 191.187 163.46 190.998L174.79 189.46V187.42C174.79 186.207 174.602 185.192 174.225 184.376C173.848 183.539 173.336 182.88 172.687 182.399C172.06 181.918 171.306 181.572 170.428 181.363C169.57 181.154 168.639 181.049 167.634 181.049C165.835 181.049 164.151 181.3 162.581 181.803C161.033 182.305 159.631 182.891 158.376 183.56L156.399 179.386C158.24 178.34 160.165 177.587 162.173 177.126C164.203 176.666 166.201 176.436 168.168 176.436C172.08 176.436 175.041 177.325 177.05 179.103C179.058 180.861 180.063 183.435 180.063 186.824V201.606C180.063 202.673 180.272 203.573 180.69 204.305C181.109 205.017 181.778 205.582 182.699 206L179.717 209.766C178.713 209.515 177.845 209.076 177.112 208.448C176.401 207.799 175.899 207.025 175.606 206.126L175.543 205.937ZM166.159 194.859C165.281 194.984 164.475 195.162 163.743 195.392C163.031 195.622 162.425 195.936 161.922 196.334C161.42 196.71 161.023 197.181 160.73 197.746C160.458 198.311 160.322 199.001 160.322 199.817C160.322 200.759 160.5 201.596 160.855 202.328C161.211 203.06 161.692 203.678 162.299 204.18C162.906 204.682 163.607 205.069 164.402 205.341C165.218 205.592 166.065 205.718 166.944 205.718C167.927 205.718 168.89 205.582 169.831 205.31C170.773 205.038 171.61 204.651 172.342 204.148C173.074 203.625 173.66 202.998 174.1 202.265C174.56 201.533 174.79 200.696 174.79 199.755V193.572L166.159 194.859ZM185.837 177.063H191.8L199.709 203.552L207.242 177.063H213.142L201.467 213.972C201.111 215.102 200.651 216.022 200.086 216.734C199.521 217.466 198.872 218.041 198.14 218.46C197.429 218.899 196.634 219.202 195.755 219.37C194.876 219.537 193.945 219.621 192.962 219.621C192.083 219.621 191.173 219.569 190.231 219.464C189.29 219.38 188.296 219.255 187.25 219.087L188.034 214.474C188.453 214.558 188.903 214.631 189.384 214.694C189.781 214.756 190.231 214.809 190.733 214.85C191.236 214.892 191.748 214.913 192.271 214.913C193.422 214.913 194.311 214.662 194.939 214.16C195.588 213.658 196.048 212.842 196.32 211.712L196.634 210.237L185.837 177.063Z" fill="black"/>
</g>
<rect x="0.5" y="0.5" width="479" height="319" stroke="#B1B4B6"/>
<defs>
<clipPath id="clip0_1210_2945">
<rect width="480" height="320" fill="white"/>
</clipPath>
</defs>
</svg>
