<svg width="480" height="320" viewBox="0 0 480 320" fill="none" xmlns="http://www.w3.org/2000/svg">
<rect x="0.5" y="0.5" width="479" height="319" fill="#F3F2F1"/>
<rect x="0.5" y="0.5" width="479" height="319" stroke="#B1B4B6"/>
<path d="M84.4317 160.221C84.4317 162.073 84.6632 163.855 85.1263 165.566C85.5886 167.277 86.2927 168.787 87.2394 170.095C88.1854 171.404 89.3924 172.456 90.8618 173.251C92.3313 174.046 94.0824 174.444 96.1152 174.444C98.148 174.444 99.6927 174.132 100.991 173.508C102.289 172.884 103.325 172.104 104.1 171.167C104.875 170.232 105.418 169.22 105.731 168.133C106.042 167.046 106.198 166.04 106.198 165.113V164.691H95.1191V158.018H114.711V181.751H107.044V176.678C106.5 177.524 105.826 178.294 105.021 178.989C104.216 179.683 103.311 180.277 102.304 180.77C101.297 181.263 100.195 181.651 98.9981 181.933C97.8007 182.215 96.5274 182.355 95.1796 182.355C92.0194 182.355 89.2125 181.782 86.7572 180.634C84.302 179.487 82.2338 177.907 80.5534 175.893C78.8731 173.881 77.5953 171.525 76.7194 168.827C75.8442 166.13 75.4062 163.221 75.4062 160.1C75.4062 156.979 75.8944 154.097 76.8706 151.39C77.8468 148.682 79.2351 146.327 81.0371 144.324C82.8384 142.32 85.0113 140.741 87.5572 139.583C90.1032 138.425 92.9558 137.846 96.116 137.846C98.1686 137.846 100.116 138.083 101.957 138.555C103.799 139.029 105.479 139.703 106.999 140.578C108.518 141.454 109.861 142.511 111.029 143.749C112.195 144.987 113.142 146.361 113.867 147.871L106.199 152.188C105.736 151.263 105.192 150.402 104.569 149.606C103.944 148.812 103.225 148.127 102.41 147.553C101.595 146.979 100.664 146.526 99.6182 146.195C98.5712 145.863 97.404 145.696 96.1167 145.696C94.0839 145.696 92.3328 146.094 90.8633 146.889C89.3939 147.684 88.1869 148.736 87.2409 150.045C86.2949 151.353 85.5908 152.868 85.1277 154.59C84.6647 156.311 84.4332 158.088 84.4332 159.919V160.221H84.4317Z" fill="#0B0C0C"/>
<path d="M142.595 137.845C145.814 137.845 148.702 138.424 151.259 139.582C153.815 140.74 155.983 142.32 157.765 144.323C159.545 146.326 160.904 148.682 161.84 151.389C162.776 154.097 163.243 157.001 163.243 160.1C163.243 163.199 162.776 166.13 161.84 168.827C160.904 171.525 159.545 173.88 157.765 175.893C155.984 177.906 153.815 179.486 151.259 180.634C148.703 181.781 145.814 182.355 142.595 182.355C139.375 182.355 136.461 181.781 133.916 180.634C131.37 179.486 129.206 177.906 127.426 175.893C125.644 173.88 124.286 171.525 123.351 168.827C122.415 166.13 121.947 163.221 121.947 160.1C121.947 156.979 122.415 154.097 123.351 151.389C124.286 148.682 125.644 146.326 127.426 144.323C129.206 142.32 131.37 140.74 133.916 139.582C136.462 138.424 139.354 137.845 142.595 137.845ZM142.595 174.443C144.486 174.443 146.152 174.086 147.591 173.371C149.029 172.657 150.243 171.665 151.228 170.397C152.214 169.128 152.959 167.629 153.462 165.897C153.965 164.166 154.217 162.274 154.217 160.221V159.979C154.217 157.946 153.965 156.058 153.462 154.317C152.959 152.576 152.214 151.071 151.228 149.803C150.242 148.535 149.029 147.544 147.591 146.828C146.152 146.114 144.486 145.757 142.595 145.757C140.703 145.757 139.033 146.114 137.583 146.828C136.134 147.544 134.922 148.535 133.946 149.803C132.97 151.071 132.23 152.576 131.727 154.317C131.224 156.058 130.972 157.946 130.972 159.979V160.221C130.972 162.274 131.224 164.166 131.727 165.897C132.23 167.629 132.97 169.128 133.946 170.397C134.922 171.665 136.134 172.657 137.583 173.371C139.033 174.086 140.703 174.443 142.595 174.443Z" fill="#0B0C0C"/>
<path d="M178.674 181.751L166.448 138.45H176.26L184.622 171.001H184.924L193.105 138.45H202.795L190.569 181.751H178.675H178.674Z" fill="#0B0C0C"/>
<path d="M252.372 174.443C253.639 174.443 254.822 174.257 255.918 173.885C257.015 173.513 257.961 172.949 258.756 172.194C259.55 171.439 260.18 170.484 260.643 169.325C261.105 168.168 261.337 166.804 261.337 165.234V138.389H269.94V166.532C269.94 168.948 269.503 171.133 268.629 173.085C267.754 175.038 266.538 176.699 264.979 178.067C263.42 179.437 261.565 180.493 259.414 181.238C257.263 181.982 254.91 182.355 252.357 182.355C249.804 182.355 247.45 181.982 245.299 181.238C243.147 180.493 241.288 179.436 239.719 178.067C238.15 176.699 236.929 175.039 236.053 173.085C235.179 171.133 234.742 168.947 234.742 166.532V138.389H243.406V165.234C243.406 166.804 243.637 168.168 244.1 169.325C244.563 170.484 245.192 171.439 245.986 172.194C246.781 172.949 247.727 173.513 248.824 173.885C249.922 174.257 251.104 174.443 252.372 174.443Z" fill="#0B0C0C"/>
<path d="M277.705 138.45H286.459V157.201L301.916 138.45H312.693L297.659 155.661L313.659 181.751H303.486L292.045 162.334L286.459 168.585V181.751H277.705V138.45Z" fill="#0B0C0C"/>
<path d="M216.528 167.411C220.564 167.411 223.836 164.138 223.836 160.101C223.836 156.063 220.564 152.79 216.528 152.79C212.492 152.79 209.22 156.063 209.22 160.101C209.22 164.138 212.492 167.411 216.528 167.411Z" fill="#1D70B8"/>
<path d="M326.596 139.584H341.474C343.466 139.584 345.27 139.919 346.887 140.589C348.504 141.24 349.885 142.157 351.029 143.34C352.192 144.504 353.079 145.904 353.691 147.54C354.322 149.177 354.637 150.972 354.637 152.924C354.637 154.896 354.292 156.7 353.602 158.337C352.932 159.954 351.985 161.344 350.762 162.507C349.54 163.671 348.081 164.578 346.385 165.229C344.708 165.86 342.875 166.175 340.883 166.175H331.802V182H326.596V139.584ZM349.106 152.805C349.106 151.563 348.909 150.41 348.514 149.345C348.12 148.28 347.548 147.363 346.799 146.594C346.049 145.805 345.132 145.194 344.048 144.76C342.983 144.306 341.77 144.08 340.41 144.08H331.802V161.709H340.41C341.77 161.709 342.983 161.492 344.048 161.058C345.132 160.624 346.049 160.033 346.799 159.283C347.548 158.514 348.12 157.607 348.514 156.562C348.909 155.497 349.106 154.344 349.106 153.101V152.805ZM377.037 178.983C376.15 180.008 374.947 180.866 373.428 181.556C371.93 182.247 370.165 182.592 368.134 182.592C366.635 182.592 365.245 182.385 363.963 181.971C362.681 181.537 361.567 180.925 360.621 180.137C359.674 179.348 358.935 178.391 358.402 177.267C357.87 176.143 357.603 174.872 357.603 173.452C357.603 172.269 357.791 171.194 358.165 170.228C358.56 169.242 359.102 168.384 359.792 167.654C360.502 166.925 361.35 166.333 362.336 165.879C363.322 165.406 364.426 165.081 365.649 164.903L376.327 163.454V161.531C376.327 160.388 376.15 159.431 375.795 158.662C375.44 157.873 374.957 157.252 374.345 156.799C373.754 156.345 373.044 156.02 372.216 155.823C371.407 155.625 370.53 155.527 369.583 155.527C367.887 155.527 366.3 155.763 364.821 156.237C363.362 156.71 362.04 157.262 360.857 157.893L358.994 153.959C360.729 152.973 362.543 152.263 364.436 151.829C366.349 151.395 368.232 151.179 370.086 151.179C373.773 151.179 376.564 152.017 378.457 153.693C380.35 155.349 381.296 157.775 381.296 160.969V174.901C381.296 175.907 381.494 176.755 381.888 177.445C382.282 178.115 382.913 178.648 383.781 179.042L380.971 182.592C380.024 182.355 379.206 181.941 378.516 181.349C377.845 180.738 377.372 180.008 377.096 179.161L377.037 178.983ZM368.193 168.542C367.365 168.66 366.605 168.828 365.915 169.044C365.245 169.261 364.673 169.557 364.2 169.932C363.726 170.287 363.352 170.73 363.076 171.263C362.819 171.795 362.691 172.446 362.691 173.215C362.691 174.102 362.859 174.891 363.194 175.581C363.529 176.272 363.983 176.853 364.555 177.327C365.126 177.8 365.787 178.165 366.536 178.421C367.305 178.658 368.104 178.776 368.932 178.776C369.859 178.776 370.766 178.648 371.654 178.391C372.541 178.135 373.33 177.77 374.02 177.297C374.71 176.804 375.262 176.212 375.676 175.522C376.11 174.832 376.327 174.043 376.327 173.156V167.329L368.193 168.542ZM385.83 151.77H391.45L398.904 176.735L406.003 151.77H411.564L400.561 186.555C400.226 187.62 399.792 188.488 399.259 189.158C398.727 189.848 398.116 190.391 397.425 190.785C396.755 191.199 396.006 191.485 395.177 191.643C394.349 191.801 393.472 191.88 392.545 191.88C391.717 191.88 390.859 191.83 389.971 191.732C389.084 191.653 388.147 191.534 387.161 191.377L387.901 187.029C388.295 187.107 388.719 187.176 389.173 187.236C389.547 187.295 389.971 187.344 390.445 187.384C390.918 187.423 391.401 187.443 391.894 187.443C392.979 187.443 393.817 187.206 394.408 186.733C395.02 186.26 395.453 185.49 395.71 184.426L396.006 183.035L385.83 151.77Z" fill="#0B0C0C"/>
</svg>
