<svg width="148" height="85" viewBox="0 0 148 85" fill="none" xmlns="http://www.w3.org/2000/svg">
<path d="M21.3496 0.714966L21.3496 78.6688" stroke="#858686" stroke-width="0.5" stroke-dasharray="2 2"/>
<path d="M147.233 24.22L0.589845 24.22" stroke="#858686" stroke-width="0.5" stroke-dasharray="2 2"/>
<path d="M147.233 47.7247L0.589845 47.7247" stroke="#858686" stroke-width="0.5" stroke-dasharray="2 2"/>
<path d="M26.1181 36.0385C26.1181 37.0166 26.2404 37.9578 26.4851 38.8616C26.7293 39.7653 27.1014 40.5627 27.6015 41.2538C28.1013 41.9453 28.739 42.5008 29.5154 42.9207C30.2918 43.3406 31.217 43.551 32.291 43.551C33.365 43.551 34.1811 43.3862 34.8671 43.0567C35.5527 42.7271 36.1004 42.3149 36.5098 41.8202C36.9189 41.3259 37.206 40.7918 37.3711 40.2176C37.5359 39.6434 37.6181 39.1117 37.6181 38.6224V38.3992H31.7647V34.8745H42.1159V47.4107H38.0649V44.731C37.7778 45.1778 37.4214 45.5845 36.9964 45.9514C36.571 46.318 36.0926 46.632 35.5605 46.8922C35.0288 47.1528 34.4464 47.3577 33.8141 47.5065C33.1815 47.6553 32.5087 47.7297 31.7966 47.7297C30.127 47.7297 28.644 47.4267 27.3468 46.8205C26.0496 46.2144 24.9569 45.3799 24.0691 44.3165C23.1813 43.2534 22.5062 42.0091 22.0434 40.5842C21.581 39.1596 21.3496 37.6232 21.3496 35.9746C21.3496 34.326 21.6075 32.8036 22.1233 31.3736C22.639 29.9435 23.3726 28.6993 24.3246 27.6413C25.2763 26.5833 26.4243 25.7488 27.7694 25.1372C29.1146 24.5256 30.6217 24.2198 32.2914 24.2198C33.3759 24.2198 34.4047 24.3449 35.3774 24.5946C36.3505 24.8447 37.2383 25.2007 38.0412 25.6631C38.8436 26.1255 39.5534 26.6842 40.1705 27.3378C40.7867 27.9915 41.2869 28.7176 41.6699 29.515L37.6185 31.7955C37.3739 31.3066 37.0868 30.852 36.7572 30.4317C36.4273 30.0121 36.0474 29.6502 35.617 29.3471C35.1861 29.0441 34.6945 28.8049 34.1417 28.6296C33.5886 28.4543 32.9719 28.3662 32.2918 28.3662C31.2178 28.3662 30.2926 28.5766 29.5162 28.9965C28.7398 29.4165 28.1021 29.972 27.6023 30.6634C27.1025 31.3545 26.7305 32.1546 26.4859 33.0639C26.2412 33.9731 26.1189 34.9119 26.1189 35.8788V36.0385H26.1181Z" fill="#0B0C0C"/>
<path d="M56.8466 24.2197C58.5478 24.2197 60.0737 24.5255 61.4242 25.1371C62.7748 25.7487 63.9205 26.5831 64.8616 27.6412C65.8024 28.6992 66.5204 29.9434 67.0147 31.3735C67.509 32.8035 67.756 34.3376 67.756 35.9745C67.756 37.6114 67.509 39.1595 67.0147 40.584C66.5204 42.009 65.8024 43.2533 64.8616 44.3163C63.9209 45.3794 62.7748 46.2142 61.4242 46.8204C60.074 47.4265 58.5478 47.7296 56.8466 47.7296C55.1454 47.7296 53.6059 47.4265 52.2612 46.8204C50.916 46.2142 49.7731 45.3798 48.8323 44.3163C47.8912 43.2533 47.1736 42.009 46.6793 40.584C46.1849 39.1595 45.9376 37.6231 45.9376 35.9745C45.9376 34.3259 46.1849 32.8035 46.6793 31.3735C47.1736 29.9434 47.8912 28.6992 48.8323 27.6412C49.7731 26.5831 50.916 25.7487 52.2612 25.1371C53.6063 24.5255 55.1345 24.2197 56.8466 24.2197ZM56.8466 43.5505C57.8462 43.5505 58.7262 43.3619 59.4862 42.9841C60.2462 42.607 60.8874 42.083 61.4079 41.4134C61.9291 40.7434 62.3225 39.9514 62.5882 39.0367C62.8539 38.1225 62.9871 37.1229 62.9871 36.0384V35.9106C62.9871 34.8366 62.8539 33.8397 62.5882 32.92C62.3225 32.0003 61.9291 31.2052 61.4079 30.5355C60.887 29.8659 60.2462 29.3423 59.4862 28.9645C58.7262 28.5874 57.8462 28.3985 56.8466 28.3985C55.847 28.3985 54.9647 28.5874 54.1988 28.9645C53.4333 29.3423 52.7929 29.8659 52.2771 30.5355C51.7614 31.2052 51.3707 32.0006 51.105 32.92C50.8393 33.8397 50.7061 34.8366 50.7061 35.9106V36.0384C50.7061 37.1229 50.8393 38.1225 51.105 39.0367C51.3707 39.9514 51.7614 40.743 52.2771 41.4134C52.7929 42.083 53.4333 42.607 54.1988 42.9841C54.9647 43.3619 55.847 43.5505 56.8466 43.5505Z" fill="#0B0C0C"/>
<path d="M75.9108 47.4102L69.4512 24.5388H74.635L79.0533 41.7321H79.2126L83.5351 24.5388H88.6546L82.1951 47.4102H75.9112H75.9108Z" fill="#0B0C0C"/>
<path d="M114.852 43.5504C115.522 43.5504 116.146 43.4522 116.726 43.2555C117.305 43.0588 117.805 42.7611 118.225 42.3622C118.645 41.9633 118.977 41.4589 119.222 40.8469C119.466 40.2357 119.588 39.5154 119.588 38.686V24.5067H124.134V39.3716C124.134 40.6478 123.903 41.8017 123.441 42.8328C122.979 43.8644 122.336 44.7416 121.513 45.4646C120.689 46.188 119.709 46.7459 118.573 47.1393C117.436 47.5324 116.193 47.7295 114.844 47.7295C113.495 47.7295 112.252 47.5324 111.115 47.1393C109.978 46.7459 108.996 46.1876 108.167 45.4646C107.338 44.7416 106.693 43.8647 106.23 42.8328C105.768 41.8017 105.537 40.6474 105.537 39.3716V24.5067H110.115V38.686C110.115 39.5154 110.237 40.2357 110.482 40.8469C110.726 41.4589 111.058 41.9633 111.478 42.3622C111.898 42.7611 112.398 43.0588 112.978 43.2555C113.557 43.4522 114.182 43.5504 114.852 43.5504Z" fill="#0B0C0C"/>
<path d="M128.237 24.5388H132.862V34.4432L141.029 24.5388H146.723L138.78 33.6298L147.233 47.4102H141.858L135.813 37.1545L132.862 40.4559V47.4102H128.237V24.5388Z" fill="#0B0C0C"/>
<path d="M95.9141 39.8356C98.0466 39.8356 99.7754 38.1069 99.7754 35.9744C99.7754 33.8419 98.0466 32.1132 95.9141 32.1132C93.7816 32.1132 92.0529 33.8419 92.0529 35.9744C92.0529 38.1069 93.7816 39.8356 95.9141 39.8356Z" fill="#1D70B8"/>
<path d="M5.3527 36.0329C5.3527 37.0106 5.47379 37.9524 5.72045 38.8561C5.96487 39.7598 6.33711 40.5581 6.83717 41.2487C7.33722 41.9394 7.97406 42.4955 8.74993 42.9148C9.5258 43.3342 10.4519 43.545 11.5238 43.545C12.5956 43.545 13.4141 43.3813 14.1003 43.0516C14.7865 42.722 15.3336 42.3094 15.744 41.8161C16.1521 41.3227 16.4391 40.7868 16.6051 40.2128C16.7688 39.6387 16.8517 39.1073 16.8517 38.6184V38.3942H10.9991V34.8691H21.35V47.4041H17.3002V44.7245C17.0132 45.1707 16.6566 45.5788 16.2328 45.9443C15.8068 46.3121 15.3291 46.6238 14.7977 46.8861C14.2662 47.1463 13.6832 47.3526 13.0509 47.5006C12.4185 47.6485 11.7458 47.7248 11.0327 47.7248C9.36435 47.7248 7.87988 47.4221 6.58377 46.8166C5.28767 46.2112 4.19338 45.377 3.30763 44.3119C2.41964 43.249 1.74468 42.0044 1.28274 40.5805C0.82081 39.1566 0.589844 37.6205 0.589844 35.9724C0.589844 34.3242 0.847719 32.8016 1.36347 31.371C1.87922 29.9403 2.61249 28.698 3.56326 27.6396C4.51404 26.5812 5.66215 25.747 7.00759 25.1371C8.35303 24.5249 9.85992 24.22 11.5283 24.22C12.6136 24.22 13.6406 24.3455 14.6138 24.5945C15.587 24.8434 16.475 25.1999 17.2778 25.6618C18.0806 26.1238 18.7891 26.6821 19.4058 27.3369C20.0225 27.9917 20.5225 28.716 20.9037 29.5143L16.854 31.7948C16.6095 31.306 16.3225 30.8507 15.9929 30.4314C15.6632 30.0121 15.2843 29.6511 14.8537 29.3461C14.4232 29.0434 13.9321 28.8034 13.3782 28.6285C12.8244 28.4536 12.2077 28.3662 11.5283 28.3662C10.4542 28.3662 9.53029 28.577 8.75442 28.9963C7.97855 29.4156 7.33946 29.9717 6.84165 30.6624C6.34159 31.353 5.96936 32.1536 5.72494 33.0617C5.48051 33.9699 5.35718 34.9095 5.35718 35.876V36.0352L5.3527 36.0329Z" fill="#CECECE"/>
<path d="M26.1125 12.5279C26.1125 13.5056 26.2336 14.4474 26.4802 15.3511C26.7246 16.2548 27.0969 17.0531 27.5969 17.7437C28.097 18.4344 28.7338 18.9905 29.5097 19.4098C30.2856 19.8292 31.2117 20.04 32.2835 20.04C33.3554 20.04 34.1739 19.8763 34.8601 19.5466C35.5462 19.217 36.0934 18.8044 36.5037 18.3111C36.9119 17.8177 37.1989 17.2818 37.3648 16.7078C37.5285 16.1337 37.6115 15.6022 37.6115 15.1134V14.8892H31.7588V11.3641H42.1097V23.8991H38.06V21.2195C37.7729 21.6657 37.4164 22.0738 36.9926 22.4393C36.5665 22.8071 36.0889 23.1188 35.5574 23.3811C35.026 23.6412 34.443 23.8475 33.8106 23.9955C33.1783 24.1435 32.5055 24.2198 31.7925 24.2198C30.1241 24.2198 28.6396 23.9171 27.3435 23.3116C26.0474 22.7062 24.9531 21.872 24.0674 20.8069C23.1794 19.744 22.5044 18.4994 22.0425 17.0755C21.5806 15.6516 21.3496 14.1155 21.3496 12.4674C21.3496 10.8192 21.6075 9.29662 22.1232 7.86597C22.639 6.43532 23.3723 5.19304 24.323 4.13462C25.2738 3.07621 26.4219 2.24204 27.7674 1.63211C29.1128 1.01993 30.6197 0.714966 32.288 0.714966C33.3734 0.714966 34.4004 0.84054 35.3736 1.08945C36.3468 1.33835 37.2348 1.69489 38.0375 2.15683C38.8403 2.61876 39.5489 3.17712 40.1656 3.8319C40.7822 4.48668 41.2823 5.21098 41.6635 6.00927L37.6137 8.28979C37.3693 7.80095 37.0823 7.34574 36.7526 6.92641C36.423 6.50708 36.044 6.14606 35.6135 5.84109C35.183 5.53837 34.6919 5.29843 34.138 5.12352C33.5841 4.94861 32.9675 4.86116 32.288 4.86116C31.2139 4.86116 30.2901 5.07195 29.5142 5.49127C28.7383 5.9106 28.0992 6.46672 27.6014 7.15738C27.1014 7.84804 26.7291 8.64857 26.4847 9.55674C26.2403 10.4649 26.1169 11.4045 26.1169 12.371V12.5302L26.1125 12.5279Z" fill="#CECECE"/>
<path d="M147.233 55.4775L0.589845 55.4775" stroke="#858686" stroke-width="0.5" stroke-dasharray="2 2"/>
<path d="M97.6421 55.1784C95.6432 56.0043 93.3764 55.0598 92.5636 53.0873C91.7465 51.1192 92.6823 48.826 94.6811 48.0088C96.6405 47.2049 98.9161 48.167 99.7288 50.1395C100.542 52.1032 99.6014 54.3745 97.6421 55.1784Z" fill="#CECECE"/>
<path d="M55.2745 62H58.3848L62.5099 75.816L66.4386 62H69.5161L63.4266 81.2507C63.2411 81.84 63.001 82.3202 62.7064 82.6913C62.4117 83.0732 62.0734 83.3733 61.6914 83.5916C61.3204 83.8208 60.9057 83.979 60.4473 84.0663C59.989 84.1536 59.5034 84.1973 58.9904 84.1973C58.5321 84.1973 58.0574 84.17 57.5663 84.1154C57.0752 84.0718 56.5568 84.0063 56.0112 83.919L56.4204 81.5126C56.6387 81.5563 56.8733 81.5945 57.1243 81.6272C57.3317 81.66 57.5663 81.6872 57.8282 81.7091C58.0901 81.7309 58.3575 81.7418 58.6303 81.7418C59.2305 81.7418 59.6943 81.6109 60.0217 81.3489C60.36 81.087 60.6001 80.6614 60.742 80.0721L60.9057 79.3027L55.2745 62Z" fill="black"/>
<path d="M49.9053 77.0601C49.4142 77.6276 48.7485 78.1023 47.9082 78.4843C47.0788 78.8662 46.102 79.0572 44.978 79.0572C44.1486 79.0572 43.3792 78.9426 42.6699 78.7134C41.9605 78.4733 41.3439 78.135 40.8201 77.6985C40.2963 77.262 39.887 76.7327 39.5924 76.1107C39.2977 75.4886 39.1504 74.7847 39.1504 73.999C39.1504 73.3442 39.2541 72.7494 39.4614 72.2147C39.6797 71.669 39.9798 71.1943 40.3617 70.7905C40.7546 70.3867 41.2239 70.0593 41.7695 69.8083C42.3152 69.5464 42.9263 69.3664 43.6029 69.2681L49.5124 68.466V67.402C49.5124 66.769 49.4142 66.2397 49.2177 65.8141C49.0213 65.3776 48.7539 65.0338 48.4156 64.7828C48.0882 64.5318 47.6954 64.3518 47.237 64.2426C46.7896 64.1335 46.3039 64.0789 45.7801 64.0789C44.8416 64.0789 43.9631 64.2099 43.1446 64.4718C42.337 64.7337 41.6058 65.0393 40.9511 65.3885L39.9198 63.2114C40.8801 62.6657 41.8841 62.2728 42.9318 62.0327C43.9904 61.7927 45.0326 61.6726 46.0584 61.6726C48.0991 61.6726 49.6433 62.1364 50.691 63.064C51.7387 63.9807 52.2625 65.323 52.2625 67.091V74.8011C52.2625 75.3576 52.3716 75.8269 52.5899 76.2089C52.8081 76.5799 53.1574 76.8746 53.6375 77.0928L52.0824 79.0572C51.5586 78.9262 51.1057 78.6971 50.7237 78.3697C50.3527 78.0314 50.0908 77.6276 49.938 77.1583L49.9053 77.0601ZM45.0107 71.2816C44.5524 71.3471 44.1322 71.4398 43.7503 71.5599C43.3792 71.6799 43.0627 71.8436 42.8008 72.051C42.5389 72.2474 42.3316 72.493 42.1788 72.7876C42.0369 73.0823 41.966 73.4424 41.966 73.868C41.966 74.3591 42.0587 74.7956 42.2443 75.1776C42.4298 75.5595 42.6808 75.8815 42.9973 76.1434C43.3137 76.4053 43.6793 76.6072 44.094 76.7491C44.5196 76.88 44.9616 76.9455 45.42 76.9455C45.9329 76.9455 46.4349 76.8746 46.926 76.7327C47.4171 76.5908 47.8536 76.3889 48.2356 76.127C48.6175 75.8542 48.9231 75.5268 49.1523 75.1448C49.3923 74.7629 49.5124 74.3264 49.5124 73.8353V70.6104L45.0107 71.2816Z" fill="black"/>
<path d="M21.4875 55.2556H29.7215C30.8237 55.2556 31.8223 55.4411 32.7171 55.8122C33.612 56.1723 34.3759 56.6798 35.0089 57.3346C35.6528 57.9784 36.1439 58.7533 36.4822 59.6591C36.8314 60.5648 37.006 61.5579 37.006 62.6383C37.006 63.7296 36.815 64.7282 36.4331 65.634C36.062 66.5289 35.5382 67.2982 34.8616 67.9421C34.185 68.586 33.3774 69.088 32.4389 69.4481C31.5112 69.7973 30.4963 69.9719 29.3941 69.9719H24.3686V78.7297H21.4875V55.2556ZM33.9449 62.5729C33.9449 61.8853 33.8357 61.2469 33.6175 60.6576C33.3992 60.0683 33.0827 59.5608 32.668 59.1352C32.2533 58.6987 31.7459 58.3604 31.1457 58.1203C30.5563 57.8693 29.8852 57.7438 29.1322 57.7438H24.3686V67.5001H29.1322C29.8852 67.5001 30.5563 67.3801 31.1457 67.14C31.7459 66.8999 32.2533 66.5725 32.668 66.1578C33.0827 65.7322 33.3992 65.2302 33.6175 64.6518C33.8357 64.0625 33.9449 63.4241 33.9449 62.7366V62.5729Z" fill="black"/>
</svg>
