<svg width="151" height="75" viewBox="0 0 151 75" fill="none" xmlns="http://www.w3.org/2000/svg">
<rect x="1.20312" y="0.5" width="149" height="74" fill="white" stroke="#F3F3F3"/>
<path d="M50.2323 30.8013C50.2323 31.2295 50.2858 31.6415 50.393 32.0371C50.4999 32.4327 50.6628 32.7818 50.8818 33.0843C51.1006 33.387 51.3798 33.6302 51.7197 33.814C52.0596 33.9978 52.4647 34.0899 52.9349 34.0899C53.4051 34.0899 53.7624 34.0178 54.0628 33.8735C54.363 33.7293 54.6028 33.5488 54.782 33.3323C54.9611 33.1159 55.0868 32.8821 55.1591 32.6307C55.2312 32.3793 55.2672 32.1466 55.2672 31.9324V31.8347H52.7045V30.2917H57.2365V35.7795H55.4629V34.6065C55.3372 34.8021 55.1811 34.9801 54.995 35.1407C54.8088 35.3012 54.5993 35.4386 54.3664 35.5526C54.1336 35.6666 53.8786 35.7563 53.6018 35.8215C53.3248 35.8866 53.0302 35.9192 52.7185 35.9192C51.9875 35.9192 51.3382 35.7865 50.7702 35.5212C50.2023 35.2558 49.7239 34.8906 49.3352 34.425C48.9465 33.9596 48.6509 33.415 48.4483 32.7912C48.2458 32.1675 48.1445 31.495 48.1445 30.7733C48.1445 30.0516 48.2574 29.3852 48.4833 28.7592C48.7091 28.1332 49.0302 27.5885 49.4471 27.1253C49.8637 26.6622 50.3663 26.2969 50.9553 26.0292C51.5442 25.7614 52.2041 25.6276 52.9351 25.6276C53.4099 25.6276 53.8603 25.6823 54.2862 25.7916C54.7123 25.9011 55.1009 26.057 55.4525 26.2594C55.8038 26.4618 56.1146 26.7063 56.3847 26.9925C56.6545 27.2786 56.8735 27.5965 57.0412 27.9456L55.2674 28.9439C55.1603 28.7298 55.0346 28.5308 54.8903 28.3468C54.7459 28.1632 54.5796 28.0047 54.3911 27.8721C54.2025 27.7394 53.9872 27.6347 53.7452 27.558C53.503 27.4812 53.233 27.4427 52.9352 27.4427C52.465 27.4427 52.06 27.5348 51.72 27.7186C51.3801 27.9024 51.1009 28.1456 50.8821 28.4483C50.6633 28.7508 50.5004 29.1011 50.3933 29.4991C50.2862 29.8971 50.2326 30.3081 50.2326 30.7313V30.8013H50.2323Z" fill="#0B0C0C"/>
<path d="M63.6854 25.6274C64.4302 25.6274 65.0983 25.7613 65.6896 26.029C66.2809 26.2968 66.7825 26.662 67.1946 27.1252C67.6064 27.5884 67.9208 28.133 68.1372 28.759C68.3536 29.3851 68.4618 30.0566 68.4618 30.7732C68.4618 31.4897 68.3536 32.1674 68.1372 32.791C67.9208 33.4148 67.6064 33.9595 67.1946 34.4249C66.7827 34.8903 66.2809 35.2557 65.6896 35.5211C65.0984 35.7864 64.4302 35.9191 63.6854 35.9191C62.9406 35.9191 62.2665 35.7864 61.6778 35.5211C61.0889 35.2557 60.5885 34.8904 60.1766 34.4249C59.7645 33.9595 59.4503 33.4148 59.2339 32.791C59.0175 32.1674 58.9092 31.4949 58.9092 30.7732C58.9092 30.0515 59.0175 29.3851 59.2339 28.759C59.4503 28.133 59.7645 27.5884 60.1766 27.1252C60.5885 26.662 61.0889 26.2968 61.6778 26.029C62.2667 25.7613 62.9358 25.6274 63.6854 25.6274ZM63.6854 34.0896C64.123 34.0896 64.5083 34.0071 64.8411 33.8417C65.1738 33.6766 65.4546 33.4472 65.6824 33.1541C65.9106 32.8608 66.0829 32.5141 66.1992 32.1137C66.3155 31.7135 66.3738 31.2759 66.3738 30.8011V30.7452C66.3738 30.2751 66.3155 29.8387 66.1992 29.436C66.0829 29.0334 65.9106 28.6854 65.6824 28.3922C65.4544 28.0991 65.1738 27.8699 64.8411 27.7045C64.5083 27.5394 64.123 27.4567 63.6854 27.4567C63.2477 27.4567 62.8614 27.5394 62.5261 27.7045C62.191 27.8699 61.9106 28.0991 61.6848 28.3922C61.459 28.6854 61.2879 29.0336 61.1716 29.436C61.0553 29.8387 60.9969 30.2751 60.9969 30.7452V30.8011C60.9969 31.2759 61.0553 31.7135 61.1716 32.1137C61.2879 32.5141 61.459 32.8606 61.6848 33.1541C61.9106 33.4472 62.191 33.6766 62.5261 33.8417C62.8614 34.0071 63.2477 34.0896 63.6854 34.0896Z" fill="#0B0C0C"/>
<path d="M72.0322 35.7793L69.2041 25.7672H71.4737L73.4081 33.2937H73.4779L75.3703 25.7672H77.6118L74.7836 35.7793H72.0324H72.0322Z" fill="#0B0C0C"/>
<path d="M89.082 34.0896C89.3752 34.0896 89.6488 34.0466 89.9024 33.9605C90.1562 33.8744 90.375 33.7441 90.5589 33.5694C90.7426 33.3948 90.8882 33.174 90.9953 32.9061C91.1023 32.6385 91.1558 32.3232 91.1558 31.9602V25.7531H93.146V32.2603C93.146 32.8189 93.0449 33.3241 92.8426 33.7754C92.6403 34.227 92.3589 34.611 91.9984 34.9275C91.6378 35.2442 91.2087 35.4884 90.7112 35.6607C90.2135 35.8327 89.6693 35.919 89.0786 35.919C88.488 35.919 87.9436 35.8327 87.4461 35.6607C86.9482 35.4884 86.5181 35.244 86.1552 34.9275C85.7922 34.611 85.5098 34.2272 85.3073 33.7754C85.105 33.3241 85.0039 32.8188 85.0039 32.2603V25.7531H87.0081V31.9602C87.0081 32.3232 87.0617 32.6385 87.1686 32.9061C87.2757 33.174 87.4212 33.3948 87.605 33.5694C87.7889 33.7441 88.0077 33.8744 88.2615 33.9605C88.5153 34.0466 88.7889 34.0896 89.082 34.0896Z" fill="#0B0C0C"/>
<path d="M94.9424 25.7672H96.9675V30.1029L100.543 25.7672H103.036L99.5583 29.7469L103.259 35.7793H100.906L98.2595 31.2898L96.9675 32.7351V35.7793H94.9424V25.7672Z" fill="#0B0C0C"/>
<path d="M80.7901 32.4635C81.7238 32.4635 82.4807 31.7067 82.4807 30.7732C82.4807 29.8397 81.7238 29.0829 80.7901 29.0829C79.8565 29.0829 79.0996 29.8397 79.0996 30.7732C79.0996 31.7067 79.8565 32.4635 80.7901 32.4635Z" fill="#1D70B8"/>
<path d="M65.5726 47.4803H65.642L67.3334 39.3005H68.5812L66.3698 49.2411H64.921L62.8067 41.1236L60.6994 49.2411H59.2436L57.0392 39.3005H58.2732L59.9923 47.4803H60.0755L62.2383 39.3005H63.4168L65.5726 47.4803ZM73.6643 48.534C73.4564 48.7743 73.1745 48.9754 72.8186 49.1371C72.4674 49.2989 72.0538 49.3797 71.5778 49.3797C71.2265 49.3797 70.9007 49.3312 70.6004 49.2342C70.3 49.1325 70.0389 48.9892 69.817 48.8044C69.5952 48.6195 69.4219 48.3954 69.2971 48.132C69.1723 47.8685 69.11 47.5705 69.11 47.2377C69.11 46.9604 69.1539 46.7086 69.2417 46.4821C69.3341 46.251 69.4612 46.05 69.6229 45.879C69.7893 45.708 69.988 45.5694 70.2191 45.4631C70.4502 45.3522 70.709 45.2759 70.9955 45.2343L73.498 44.8947V44.4441C73.498 44.176 73.4564 43.9519 73.3732 43.7717C73.29 43.5868 73.1768 43.4412 73.0335 43.3349C72.8949 43.2287 72.7285 43.1524 72.5344 43.1062C72.3449 43.06 72.1393 43.0369 71.9174 43.0369C71.52 43.0369 71.148 43.0923 70.8014 43.2032C70.4594 43.3142 70.1498 43.4435 69.8725 43.5914L69.4358 42.6695C69.8424 42.4384 70.2676 42.272 70.7113 42.1704C71.1595 42.0687 71.6009 42.0178 72.0353 42.0178C72.8995 42.0178 73.5534 42.2143 73.9971 42.6071C74.4407 42.9953 74.6626 43.5637 74.6626 44.3124V47.5774C74.6626 47.8131 74.7088 48.0118 74.8012 48.1735C74.8936 48.3307 75.0415 48.4555 75.2449 48.5479L74.5863 49.3797C74.3645 49.3243 74.1727 49.2272 74.0109 49.0886C73.8538 48.9453 73.7429 48.7743 73.6782 48.5756L73.6643 48.534ZM71.5916 46.087C71.3975 46.1147 71.2196 46.154 71.0579 46.2048C70.9007 46.2557 70.7667 46.325 70.6558 46.4128C70.5449 46.496 70.4571 46.6 70.3924 46.7247C70.3323 46.8495 70.3023 47.002 70.3023 47.1823C70.3023 47.3902 70.3416 47.5751 70.4201 47.7368C70.4987 47.8986 70.605 48.0349 70.739 48.1458C70.873 48.2567 71.0278 48.3422 71.2034 48.4023C71.3837 48.4578 71.5708 48.4855 71.7649 48.4855C71.9821 48.4855 72.1947 48.4555 72.4027 48.3954C72.6107 48.3353 72.7955 48.2498 72.9573 48.1389C73.119 48.0234 73.2484 47.8847 73.3455 47.723C73.4471 47.5612 73.498 47.3764 73.498 47.1684V45.8028L71.5916 46.087ZM76.5154 39.3005H77.68V47.6536C77.68 47.7692 77.6892 47.8708 77.7077 47.9587C77.7308 48.0465 77.7678 48.1204 77.8186 48.1805C77.8694 48.2406 77.9388 48.2868 78.0266 48.3191C78.119 48.3468 78.2322 48.3607 78.3662 48.3607C78.5141 48.3607 78.6481 48.3561 78.7683 48.3468C78.8885 48.3376 78.9947 48.3284 79.0872 48.3191L79.205 49.2965C79.071 49.3104 78.937 49.3243 78.803 49.3381C78.6874 49.3474 78.5603 49.3566 78.4217 49.3659C78.2831 49.3751 78.1513 49.3797 78.0266 49.3797C77.8186 49.3797 77.6222 49.3543 77.4373 49.3035C77.2525 49.2573 77.0907 49.1787 76.9521 49.0678C76.8181 48.9569 76.7118 48.8136 76.6332 48.638C76.5546 48.4624 76.5154 48.2475 76.5154 47.9933V39.3005ZM80.0596 39.3005H81.2242V47.6536C81.2242 47.7692 81.2334 47.8708 81.2519 47.9587C81.275 48.0465 81.312 48.1204 81.3628 48.1805C81.4137 48.2406 81.483 48.2868 81.5708 48.3191C81.6632 48.3468 81.7765 48.3607 81.9105 48.3607C82.0584 48.3607 82.1924 48.3561 82.3125 48.3468C82.4327 48.3376 82.539 48.3284 82.6314 48.3191L82.7493 49.2965C82.6152 49.3104 82.4812 49.3243 82.3472 49.3381C82.2317 49.3474 82.1046 49.3566 81.9659 49.3659C81.8273 49.3751 81.6956 49.3797 81.5708 49.3797C81.3628 49.3797 81.1664 49.3543 80.9816 49.3035C80.7967 49.2573 80.635 49.1787 80.4963 49.0678C80.3623 48.9569 80.256 48.8136 80.1775 48.638C80.0989 48.4624 80.0596 48.2475 80.0596 47.9933V39.3005ZM84.4426 46.0593C84.4657 46.392 84.5327 46.6993 84.6437 46.9812C84.7546 47.2631 84.9048 47.5081 85.0942 47.716C85.2883 47.9194 85.5148 48.0788 85.7736 48.1943C86.037 48.3053 86.3282 48.3607 86.647 48.3607C87.0399 48.3607 87.3841 48.296 87.6799 48.1666C87.9803 48.0326 88.2553 47.8662 88.5048 47.6675L89.101 48.5063C88.7821 48.7605 88.4124 48.9707 87.9919 49.1371C87.5759 49.2989 87.1092 49.3797 86.5916 49.3797C86.0786 49.3797 85.6142 49.2896 85.1982 49.1094C84.7823 48.9245 84.4265 48.6703 84.1307 48.3468C83.8395 48.0187 83.6154 47.6305 83.4583 47.1823C83.3011 46.7294 83.2226 46.2372 83.2226 45.7057C83.2226 45.165 83.2988 44.6705 83.4513 44.2223C83.6085 43.7694 83.828 43.3812 84.1099 43.0577C84.3918 42.7295 84.7292 42.4754 85.122 42.2951C85.5148 42.1103 85.9515 42.0178 86.4321 42.0178C86.8989 42.0178 87.3194 42.1103 87.6938 42.2951C88.0681 42.4754 88.387 42.7295 88.6504 43.0577C88.9138 43.3812 89.1149 43.7694 89.2535 44.2223C89.3968 44.6705 89.4684 45.1604 89.4684 45.6919V46.0593H84.4426ZM86.3905 43.0369C86.0948 43.0369 85.8314 43.0946 85.6003 43.2102C85.3692 43.3257 85.1705 43.4805 85.0041 43.6746C84.8424 43.8687 84.713 44.0929 84.6159 44.347C84.5235 44.5966 84.4704 44.8554 84.4565 45.1234H88.2068C88.1975 44.8508 88.149 44.5897 88.0612 44.3401C87.978 44.0859 87.8578 43.8641 87.7007 43.6746C87.5482 43.4805 87.361 43.3257 87.1392 43.2102C86.922 43.0946 86.6725 43.0369 86.3905 43.0369ZM92.6452 47.4803C92.6452 47.6005 92.6522 47.7137 92.666 47.82C92.6845 47.9217 92.7238 48.0118 92.7839 48.0904C92.8486 48.1689 92.941 48.2313 93.0612 48.2775C93.1813 48.3237 93.3454 48.3468 93.5533 48.3468C93.6088 48.3468 93.6735 48.3445 93.7474 48.3399C93.826 48.3353 93.9069 48.3307 93.9901 48.3261C94.0732 48.3168 94.1541 48.3076 94.2327 48.2983C94.3112 48.2845 94.3783 48.2729 94.4337 48.2637L94.5585 49.2827C94.4245 49.3012 94.2858 49.3173 94.1426 49.3312C94.0224 49.3451 93.8884 49.3566 93.7405 49.3659C93.5926 49.3751 93.4447 49.3797 93.2969 49.3797C93.0149 49.3797 92.7608 49.3497 92.5343 49.2896C92.3125 49.2342 92.123 49.1417 91.9659 49.0123C91.8088 48.8829 91.6886 48.7142 91.6054 48.5063C91.5222 48.2937 91.4806 48.0372 91.4806 47.7368V43.1824H90.1427V42.1565H91.4806V39.8412L92.6452 39.4322V42.1565H94.6139V43.1824H92.6452V47.4803Z" fill="#0B0C0C"/>
</svg>
