<svg width="480" height="320" viewBox="0 0 480 320" fill="none" xmlns="http://www.w3.org/2000/svg">
<g clip-path="url(#clip0_1212_3768)">
<path d="M480 0H0V320H480V0Z" fill="white"/>
<path d="M150.485 130.239C150.485 131.748 150.673 133.201 151.051 134.595C151.428 135.99 152.002 137.221 152.774 138.287C153.545 139.354 154.53 140.212 155.728 140.86C156.926 141.508 158.354 141.832 160.012 141.832C161.669 141.832 162.929 141.578 163.988 141.069C165.046 140.561 165.891 139.925 166.523 139.161C167.154 138.398 167.597 137.574 167.852 136.688C168.107 135.802 168.233 134.981 168.233 134.226V133.882H159.199V128.442H175.175V147.789H168.923V143.653C168.48 144.343 167.93 144.97 167.274 145.537C166.617 146.102 165.879 146.587 165.058 146.989C164.237 147.391 163.338 147.707 162.362 147.937C161.386 148.166 160.348 148.281 159.249 148.281C156.672 148.281 154.383 147.813 152.381 146.878C150.379 145.943 148.692 144.655 147.322 143.014C145.952 141.373 144.91 139.453 144.196 137.254C143.482 135.055 143.125 132.684 143.125 130.14C143.125 127.596 143.523 125.246 144.319 123.04C145.115 120.833 146.247 118.912 147.717 117.28C149.185 115.647 150.957 114.359 153.033 113.415C155.109 112.471 157.435 112 160.012 112C161.686 112 163.274 112.192 164.775 112.578C166.277 112.964 167.647 113.513 168.886 114.227C170.125 114.94 171.22 115.803 172.173 116.811C173.124 117.82 173.896 118.941 174.487 120.171L168.234 123.691C167.856 122.936 167.413 122.235 166.905 121.586C166.395 120.938 165.809 120.38 165.145 119.912C164.48 119.444 163.721 119.075 162.868 118.805C162.014 118.534 161.063 118.398 160.013 118.398C158.355 118.398 156.927 118.723 155.729 119.371C154.531 120.019 153.547 120.876 152.775 121.944C152.004 123.01 151.43 124.245 151.052 125.648C150.675 127.051 150.486 128.5 150.486 129.992V130.239H150.485Z" fill="#0B0C0C"/>
<path d="M197.915 111.999C200.54 111.999 202.895 112.471 204.98 113.415C207.064 114.359 208.833 115.646 210.285 117.279C211.737 118.912 212.845 120.832 213.608 123.039C214.371 125.246 214.752 127.614 214.752 130.14C214.752 132.666 214.371 135.055 213.608 137.253C212.845 139.452 211.737 141.373 210.285 143.013C208.833 144.654 207.064 145.942 204.98 146.878C202.896 147.813 200.54 148.281 197.915 148.281C195.289 148.281 192.913 147.813 190.838 146.878C188.762 145.942 186.998 144.654 185.546 143.013C184.093 141.373 182.986 139.452 182.223 137.253C181.46 135.055 181.078 132.684 181.078 130.14C181.078 127.595 181.46 125.246 182.223 123.039C182.986 120.832 184.093 118.912 185.546 117.279C186.998 115.646 188.762 114.359 190.838 113.415C192.914 112.471 195.272 111.999 197.915 111.999ZM197.915 141.831C199.458 141.831 200.816 141.54 201.989 140.957C203.162 140.375 204.151 139.567 204.955 138.533C205.759 137.499 206.366 136.277 206.776 134.865C207.186 133.455 207.392 131.912 207.392 130.238V130.041C207.392 128.384 207.186 126.845 206.776 125.426C206.366 124.006 205.759 122.779 204.955 121.746C204.151 120.713 203.162 119.905 201.989 119.321C200.816 118.74 199.458 118.448 197.915 118.448C196.372 118.448 195.01 118.74 193.828 119.321C192.647 119.905 191.659 120.713 190.862 121.746C190.066 122.779 189.463 124.007 189.053 125.426C188.643 126.845 188.438 128.384 188.438 130.041V130.238C188.438 131.912 188.643 133.455 189.053 134.865C189.463 136.277 190.066 137.499 190.862 138.533C191.659 139.567 192.647 140.375 193.828 140.957C195.01 141.54 196.372 141.831 197.915 141.831Z" fill="#0B0C0C"/>
<path d="M227.333 147.788L217.363 112.492H225.364L232.183 139.025H232.429L239.1 112.492H247.001L237.032 147.788H227.333H227.333Z" fill="#0B0C0C"/>
<path d="M287.431 141.831C288.464 141.831 289.429 141.68 290.323 141.376C291.217 141.072 291.989 140.613 292.637 139.998C293.284 139.382 293.798 138.603 294.175 137.659C294.552 136.716 294.741 135.604 294.741 134.324V112.442H301.757V135.382C301.757 137.352 301.4 139.132 300.687 140.724C299.974 142.316 298.982 143.67 297.711 144.785C296.44 145.902 294.927 146.763 293.174 147.37C291.419 147.976 289.501 148.281 287.419 148.281C285.337 148.281 283.417 147.976 281.664 147.37C279.909 146.763 278.392 145.901 277.113 144.785C275.834 143.67 274.838 142.316 274.124 140.724C273.411 139.132 273.055 137.351 273.055 135.382V112.442H280.12V134.324C280.12 135.604 280.308 136.716 280.685 137.659C281.063 138.603 281.576 139.382 282.224 139.998C282.872 140.613 283.643 141.072 284.538 141.376C285.433 141.68 286.397 141.831 287.431 141.831Z" fill="#0B0C0C"/>
<path d="M308.09 112.492H315.229V127.777L327.832 112.492H336.62L324.361 126.522L337.408 147.788H329.113L319.783 131.961L315.229 137.056V147.788H308.09V112.492Z" fill="#0B0C0C"/>
<path d="M258.205 136.099C261.497 136.099 264.165 133.431 264.165 130.14C264.165 126.849 261.497 124.181 258.205 124.181C254.914 124.181 252.246 126.849 252.246 130.14C252.246 133.431 254.914 136.099 258.205 136.099Z" fill="#1D70B8"/>
<path d="M147.018 166.463V196.4H142.814V161.355H148.704L167.179 191.292V161.355H171.383V196.4H165.469L147.018 166.463ZM188.643 170.935C190.37 170.935 191.942 171.261 193.359 171.913C194.777 172.548 195.983 173.444 196.976 174.601C197.986 175.741 198.768 177.11 199.322 178.706C199.876 180.287 200.153 182.03 200.153 183.936C200.153 185.81 199.876 187.545 199.322 189.142C198.768 190.722 197.986 192.091 196.976 193.247C195.983 194.388 194.777 195.284 193.359 195.935C191.942 196.571 190.37 196.889 188.643 196.889C186.916 196.889 185.344 196.571 183.926 195.935C182.525 195.284 181.32 194.388 180.309 193.247C179.299 192.091 178.517 190.722 177.963 189.142C177.409 187.545 177.132 185.81 177.132 183.936C177.132 182.03 177.409 180.287 177.963 178.706C178.517 177.11 179.299 175.741 180.309 174.601C181.32 173.444 182.525 172.548 183.926 171.913C185.344 171.261 186.916 170.935 188.643 170.935ZM188.643 193.296C189.832 193.296 190.875 193.052 191.771 192.563C192.683 192.058 193.441 191.382 194.044 190.535C194.663 189.687 195.127 188.71 195.437 187.602C195.746 186.478 195.901 185.305 195.901 184.083V183.79C195.901 182.535 195.746 181.346 195.437 180.222C195.127 179.097 194.663 178.12 194.044 177.289C193.441 176.442 192.683 175.774 191.771 175.285C190.875 174.78 189.832 174.528 188.643 174.528C187.454 174.528 186.403 174.78 185.49 175.285C184.594 175.774 183.837 176.442 183.218 177.289C182.615 178.12 182.159 179.097 181.849 180.222C181.54 181.346 181.385 182.535 181.385 183.79V184.083C181.385 185.305 181.54 186.478 181.849 187.602C182.159 188.71 182.615 189.687 183.218 190.535C183.837 191.382 184.594 192.058 185.49 192.563C186.403 193.052 187.454 193.296 188.643 193.296ZM211.475 190.192C211.475 190.616 211.5 191.015 211.548 191.39C211.614 191.748 211.752 192.066 211.964 192.343C212.192 192.62 212.518 192.84 212.941 193.003C213.365 193.166 213.943 193.247 214.676 193.247C214.872 193.247 215.1 193.239 215.361 193.223C215.638 193.207 215.923 193.19 216.216 193.174C216.509 193.141 216.794 193.109 217.071 193.076C217.348 193.027 217.585 192.987 217.78 192.954L218.22 196.546C217.748 196.612 217.259 196.669 216.754 196.717C216.33 196.766 215.858 196.807 215.336 196.84C214.815 196.872 214.294 196.889 213.772 196.889C212.778 196.889 211.882 196.783 211.084 196.571C210.302 196.375 209.634 196.049 209.08 195.593C208.526 195.137 208.103 194.542 207.809 193.809C207.516 193.06 207.369 192.156 207.369 191.097V175.041H202.653V171.424H207.369V163.262L211.475 161.82V171.424H218.416V175.041H211.475V190.192ZM226.854 196.4H222.748V171.424H226.854V196.4ZM221.99 164.215C221.99 163.824 222.064 163.457 222.21 163.115C222.373 162.773 222.577 162.471 222.821 162.211C223.082 161.95 223.383 161.746 223.725 161.6C224.084 161.437 224.459 161.355 224.85 161.355C225.241 161.355 225.607 161.437 225.949 161.6C226.292 161.746 226.585 161.95 226.829 162.211C227.09 162.471 227.293 162.773 227.44 163.115C227.603 163.457 227.684 163.824 227.684 164.215C227.684 164.606 227.603 164.98 227.44 165.339C227.293 165.681 227.09 165.982 226.829 166.243C226.585 166.487 226.292 166.691 225.949 166.854C225.607 167.001 225.241 167.074 224.85 167.074C224.459 167.074 224.084 167.001 223.725 166.854C223.383 166.691 223.082 166.487 222.821 166.243C222.577 165.982 222.373 165.681 222.21 165.339C222.064 164.98 221.99 164.606 221.99 164.215ZM239.471 171.424H244.432V175.041H239.471V196.4H235.365V175.041H231.21V171.424H235.365V166.781C235.365 165.705 235.536 164.793 235.878 164.044C236.22 163.294 236.693 162.691 237.296 162.235C237.915 161.763 238.64 161.429 239.471 161.233C240.318 161.021 241.238 160.915 242.232 160.915C243.242 160.915 244.081 160.964 244.749 161.062C245.417 161.144 245.914 161.209 246.24 161.258L245.922 164.777C245.678 164.76 245.393 164.736 245.067 164.703C244.757 164.671 244.432 164.646 244.089 164.63C243.764 164.614 243.446 164.597 243.136 164.581C242.827 164.565 242.574 164.557 242.379 164.557C241.792 164.557 241.312 164.646 240.937 164.826C240.562 164.988 240.261 165.208 240.033 165.485C239.821 165.762 239.674 166.08 239.593 166.438C239.511 166.797 239.471 167.172 239.471 167.563V171.424ZM246.1 171.424H250.743L256.902 192.05L262.767 171.424H267.361L258.27 200.163C257.993 201.043 257.635 201.76 257.195 202.314C256.755 202.884 256.25 203.332 255.68 203.658C255.126 204 254.507 204.236 253.823 204.367C253.138 204.497 252.413 204.562 251.648 204.562C250.963 204.562 250.255 204.521 249.522 204.44C248.788 204.375 248.015 204.277 247.2 204.147L247.811 200.554C248.137 200.619 248.487 200.676 248.862 200.725C249.171 200.774 249.522 200.815 249.913 200.848C250.304 200.88 250.703 200.896 251.11 200.896C252.006 200.896 252.699 200.701 253.187 200.31C253.692 199.919 254.051 199.283 254.263 198.404L254.507 197.255L246.1 171.424Z" fill="#0B0C0C"/>
</g>
<rect x="0.5" y="0.5" width="479" height="319" stroke="#B1B4B6"/>
<defs>
<clipPath id="clip0_1212_3768">
<rect width="480" height="320" fill="white"/>
</clipPath>
</defs>
</svg>
