<svg width="480" height="320" viewBox="0 0 480 320" fill="none" xmlns="http://www.w3.org/2000/svg">
<g clip-path="url(#clip0_1212_3631)">
<path d="M480 0H0V320H480V0Z" fill="white"/>
<path d="M295.893 135.158C299.266 135.158 302.001 132.423 302.001 129.05C302.001 125.677 299.266 122.942 295.893 122.942C292.52 122.942 289.785 125.677 289.785 129.05C289.785 132.423 292.52 135.158 295.893 135.158Z" fill="#1D70B8"/>
<path d="M185.492 129.152C185.492 130.699 185.686 132.188 186.073 133.618C186.459 135.047 187.048 136.309 187.839 137.402C188.629 138.495 189.638 139.374 190.866 140.038C192.094 140.703 193.558 141.035 195.257 141.035C196.956 141.035 198.247 140.775 199.332 140.254C200.416 139.732 201.283 139.08 201.93 138.298C202.577 137.516 203.032 136.671 203.293 135.763C203.553 134.854 203.683 134.013 203.683 133.239V132.886H194.424V127.311H210.798V147.141H204.39V142.902C203.936 143.609 203.372 144.252 202.7 144.833C202.027 145.412 201.27 145.909 200.429 146.321C199.588 146.733 198.666 147.057 197.666 147.293C196.665 147.528 195.601 147.646 194.475 147.646C191.834 147.646 189.488 147.166 187.436 146.207C185.384 145.249 183.655 143.929 182.251 142.246C180.847 140.565 179.779 138.597 179.047 136.342C178.315 134.089 177.949 131.659 177.949 129.051C177.949 126.443 178.357 124.035 179.173 121.773C179.989 119.511 181.149 117.542 182.655 115.869C184.161 114.195 185.977 112.875 188.104 111.908C190.232 110.94 192.616 110.457 195.257 110.457C196.973 110.457 198.6 110.654 200.139 111.049C201.678 111.445 203.083 112.008 204.353 112.74C205.622 113.471 206.745 114.355 207.721 115.389C208.696 116.423 209.487 117.571 210.093 118.833L203.684 122.44C203.297 121.667 202.843 120.948 202.322 120.283C201.8 119.619 201.199 119.047 200.518 118.567C199.836 118.088 199.059 117.709 198.184 117.432C197.309 117.155 196.334 117.016 195.258 117.016C193.559 117.016 192.096 117.348 190.867 118.013C189.639 118.677 188.631 119.556 187.84 120.649C187.049 121.742 186.461 123.008 186.074 124.446C185.687 125.885 185.494 127.37 185.494 128.899V129.152H185.492Z" fill="#0B0C0C"/>
<path d="M234.108 110.456C236.799 110.456 239.213 110.94 241.349 111.907C243.485 112.875 245.298 114.195 246.787 115.868C248.275 117.542 249.41 119.51 250.192 121.772C250.974 124.034 251.365 126.461 251.365 129.05C251.365 131.64 250.974 134.088 250.192 136.342C249.41 138.596 248.275 140.564 246.787 142.246C245.298 143.927 243.486 145.248 241.349 146.207C239.213 147.166 236.799 147.645 234.108 147.645C231.417 147.645 228.982 147.166 226.855 146.207C224.727 145.248 222.919 143.928 221.431 142.246C219.942 140.564 218.807 138.596 218.025 136.342C217.243 134.088 216.852 131.658 216.852 129.05C216.852 126.442 217.243 124.034 218.025 121.772C218.807 119.51 219.942 117.542 221.431 115.868C222.919 114.195 224.727 112.875 226.855 111.907C228.982 110.94 231.4 110.456 234.108 110.456ZM234.108 141.035C235.689 141.035 237.081 140.737 238.283 140.139C239.486 139.543 240.5 138.714 241.323 137.654C242.148 136.595 242.77 135.342 243.19 133.895C243.611 132.449 243.821 130.867 243.821 129.152V128.95C243.821 127.251 243.611 125.674 243.19 124.219C242.77 122.764 242.148 121.507 241.323 120.447C240.499 119.388 239.486 118.56 238.283 117.962C237.081 117.366 235.689 117.067 234.108 117.067C232.527 117.067 231.131 117.366 229.92 117.962C228.709 118.56 227.696 119.388 226.88 120.447C226.064 121.507 225.446 122.765 225.026 124.219C224.605 125.674 224.395 127.251 224.395 128.95V129.152C224.395 130.867 224.605 132.449 225.026 133.895C225.446 135.342 226.064 136.594 226.88 137.654C227.696 138.714 228.709 139.543 229.92 140.139C231.131 140.737 232.527 141.035 234.108 141.035Z" fill="#0B0C0C"/>
<path d="M264.261 147.14L254.043 110.961H262.243L269.232 138.158H269.484L276.322 110.961H284.42L274.202 147.14H264.262H264.261Z" fill="#0B0C0C"/>
<path d="M325.867 141.035C326.926 141.035 327.915 140.88 328.831 140.569C329.748 140.258 330.539 139.787 331.203 139.156C331.867 138.525 332.393 137.727 332.78 136.759C333.166 135.792 333.36 134.653 333.36 133.341V110.911H340.55V134.425C340.55 136.444 340.185 138.269 339.454 139.9C338.723 141.532 337.706 142.92 336.404 144.063C335.101 145.208 333.551 146.09 331.753 146.712C329.955 147.334 327.989 147.646 325.855 147.646C323.721 147.646 321.754 147.334 319.956 146.712C318.158 146.09 316.604 145.207 315.292 144.063C313.981 142.92 312.961 141.533 312.229 139.9C311.498 138.269 311.133 136.443 311.133 134.425V110.911H318.374V133.341C318.374 134.653 318.567 135.792 318.954 136.759C319.341 137.727 319.866 138.525 320.531 139.156C321.195 139.787 321.986 140.258 322.902 140.569C323.819 140.88 324.808 141.035 325.867 141.035Z" fill="#0B0C0C"/>
<path d="M347.027 110.961H354.344V126.628L367.262 110.961H376.269L363.705 125.341L377.076 147.14H368.574L359.012 130.917L354.344 136.139V147.14H347.027V110.961Z" fill="#0B0C0C"/>
<path d="M120.515 112.527C121.157 110.971 122.953 110.211 124.499 110.845C126.076 111.492 126.814 113.3 126.17 114.854C125.528 116.41 123.739 117.155 122.163 116.504C120.616 115.869 119.875 114.078 120.516 112.528L120.515 112.527Z" fill="#0B0C0C"/>
<path d="M113.963 121.399C112.417 120.764 111.675 118.972 112.317 117.421C112.961 115.862 114.758 115.102 116.304 115.738C117.878 116.382 118.616 118.191 117.971 119.744C117.33 121.301 115.541 122.046 113.964 121.394V121.399H113.963Z" fill="#0B0C0C"/>
<path d="M106.884 125.493C107.525 123.937 109.321 123.178 110.867 123.813C112.445 124.458 113.183 126.266 112.538 127.82C111.897 129.376 110.108 130.121 108.531 129.47C106.985 128.835 106.24 127.047 106.885 125.493L106.884 125.493Z" fill="#0B0C0C"/>
<path d="M131.439 106.757C131.553 106.91 131.688 107.042 131.837 107.156L129.616 113.867C129.612 113.873 129.609 113.884 129.609 113.891C129.609 113.891 129.71 113.56 129.609 113.898C129.505 114.233 129.45 114.59 129.45 114.958C129.45 116.772 130.791 118.272 132.534 118.529C132.558 118.532 132.586 118.538 132.611 118.538C132.76 118.556 132.909 118.569 133.065 118.569C133.221 118.569 133.37 118.56 133.519 118.538C133.547 118.535 133.574 118.529 133.599 118.529C135.342 118.273 136.683 116.775 136.683 114.958C136.683 114.587 136.628 114.233 136.524 113.898V113.891C136.52 113.883 136.517 113.867 136.517 113.867L134.292 107.156C134.441 107.042 134.576 106.907 134.69 106.757L134.697 106.751L138.572 108.785V103.077L134.704 104.304L134.694 104.293C134.586 104.148 134.458 104.023 134.319 103.911L134.308 103.902L135.864 99H130.273L131.829 103.897L131.819 103.908C131.677 104.02 131.552 104.148 131.445 104.29L131.434 104.299L127.566 103.074V108.785L131.441 106.751L131.448 106.757" fill="#0B0C0C"/>
<path d="M145.684 112.527C145.043 110.971 143.247 110.211 141.701 110.845C140.123 111.492 139.385 113.3 140.03 114.854C140.671 116.41 142.459 117.155 144.037 116.504C145.583 115.869 146.325 114.078 145.683 112.528L145.684 112.527Z" fill="#0B0C0C"/>
<path d="M152.236 121.399C153.782 120.764 154.524 118.972 153.883 117.421C153.238 115.862 151.442 115.102 149.896 115.738C148.323 116.382 147.584 118.191 148.229 119.744C148.87 121.301 150.659 122.046 152.236 121.394V121.399Z" fill="#0B0C0C"/>
<path d="M159.317 125.493C158.675 123.937 156.88 123.178 155.334 123.813C153.756 124.458 153.018 126.266 153.662 127.82C154.304 129.376 156.092 130.121 157.67 129.47C159.216 128.835 159.961 127.047 159.316 125.493L159.317 125.493Z" fill="#0B0C0C"/>
<path d="M133.078 147.645C140.409 147.645 147.344 148.141 153.527 149.024C155.281 141.647 157.416 137.414 159.624 134.405L155.472 132.926C155.888 135.033 155.954 136.017 155.489 137.372C154.803 136.704 154.155 135.469 153.648 133.588L151.635 140.29C152.862 139.448 153.804 138.901 154.886 138.876C152.969 143.005 150.574 144.068 149.025 143.781C147.133 143.432 146.259 141.744 146.554 140.312C146.991 138.284 149.07 137.754 150.044 140.115C151.905 136.319 148.751 135.137 146.72 136.261C149.84 133.151 150.197 130.385 147.677 127.037C144.166 129.72 144.125 132.374 145.706 136.11C143.657 133.764 140.468 135.022 141.619 138.811C143.095 136.523 145.054 137.96 144.745 140.134C144.485 142.026 141.987 143.554 138.874 143.284C134.413 142.879 134.147 139.801 134.036 137.254C135.131 137.053 137.106 138.068 138.791 140.432L139.412 133.323C137.578 135.234 135.915 135.593 134.067 135.652C134.684 133.729 137.512 130.585 137.512 130.585H128.64C128.64 130.585 131.468 133.732 132.085 135.652C130.234 135.593 128.57 135.233 126.74 133.323L127.361 140.432C129.046 138.068 131.021 137.05 132.116 137.254C132.005 139.801 131.738 142.879 127.278 143.284C124.165 143.554 121.666 142.026 121.406 140.134C121.098 137.96 123.056 136.523 124.532 138.811C125.687 135.025 122.498 133.767 120.449 136.11C122.026 132.374 121.985 129.72 118.478 127.037C115.961 130.382 116.318 133.147 119.438 136.261C117.407 135.137 114.253 136.319 116.111 140.115C117.081 137.754 119.164 138.281 119.601 140.312C119.892 141.747 119.022 143.435 117.13 143.781C115.577 144.066 113.186 143.005 111.268 138.876C112.346 138.904 113.293 139.448 114.517 140.29L112.506 133.588C112.001 135.469 111.352 136.704 110.666 137.372C110.205 136.017 110.271 135.036 110.683 132.926L106.527 134.405C108.735 137.417 110.873 141.643 112.628 149.024C118.811 148.142 125.75 147.645 133.084 147.645" fill="#0B0C0C"/>
<path d="M133.072 127.578C134.757 127.578 136.124 126.212 136.124 124.526C136.124 122.84 134.757 121.474 133.072 121.474C131.386 121.474 130.02 122.84 130.02 124.526C130.02 126.212 131.386 127.578 133.072 127.578Z" fill="#0B0C0C"/>
<path d="M137.077 190.462H137.327L143.437 160.916H147.944L139.956 196.822H134.723L127.086 167.501L119.474 196.822H114.216L106.254 160.916H110.711L116.92 190.462H117.221L125.033 160.916H129.29L137.077 190.462ZM166.305 194.268C165.553 195.136 164.535 195.862 163.25 196.446C161.981 197.031 160.487 197.323 158.768 197.323C157.499 197.323 156.322 197.148 155.237 196.797C154.152 196.43 153.209 195.912 152.408 195.245C151.607 194.577 150.981 193.767 150.53 192.816C150.079 191.864 149.854 190.788 149.854 189.586C149.854 188.584 150.012 187.674 150.33 186.856C150.663 186.022 151.122 185.296 151.707 184.678C152.308 184.06 153.025 183.56 153.86 183.176C154.695 182.775 155.63 182.5 156.665 182.349L165.704 181.122V179.495C165.704 178.527 165.553 177.717 165.253 177.066C164.953 176.398 164.544 175.873 164.026 175.489C163.525 175.105 162.924 174.829 162.223 174.662C161.539 174.495 160.796 174.412 159.995 174.412C158.559 174.412 157.215 174.612 155.963 175.013C154.728 175.413 153.61 175.881 152.608 176.415L151.031 173.085C152.5 172.25 154.035 171.649 155.638 171.282C157.257 170.915 158.851 170.731 160.42 170.731C163.542 170.731 165.904 171.441 167.507 172.859C169.109 174.262 169.91 176.315 169.91 179.019V190.813C169.91 191.664 170.077 192.382 170.411 192.966C170.745 193.534 171.279 193.984 172.014 194.318L169.635 197.323C168.834 197.122 168.141 196.772 167.557 196.271C166.989 195.754 166.588 195.136 166.355 194.418L166.305 194.268ZM158.818 185.429C158.117 185.529 157.474 185.671 156.89 185.855C156.322 186.038 155.838 186.289 155.438 186.606C155.037 186.906 154.72 187.282 154.486 187.733C154.269 188.183 154.161 188.734 154.161 189.385C154.161 190.137 154.302 190.804 154.586 191.389C154.87 191.973 155.254 192.465 155.738 192.866C156.222 193.266 156.781 193.575 157.416 193.792C158.067 193.993 158.743 194.093 159.444 194.093C160.228 194.093 160.996 193.984 161.747 193.767C162.499 193.55 163.166 193.241 163.751 192.841C164.335 192.423 164.802 191.923 165.153 191.338C165.52 190.754 165.704 190.086 165.704 189.335V184.403L158.818 185.429ZM176.603 160.916H180.809V191.088C180.809 191.505 180.843 191.873 180.91 192.19C180.993 192.507 181.127 192.774 181.31 192.991C181.494 193.208 181.744 193.375 182.061 193.492C182.395 193.592 182.804 193.642 183.288 193.642C183.822 193.642 184.306 193.625 184.741 193.592C185.175 193.559 185.558 193.525 185.892 193.492L186.318 197.022C185.834 197.072 185.35 197.122 184.866 197.173C184.448 197.206 183.989 197.239 183.489 197.273C182.988 197.306 182.512 197.323 182.061 197.323C181.31 197.323 180.601 197.231 179.933 197.047C179.265 196.88 178.681 196.597 178.18 196.196C177.696 195.795 177.312 195.278 177.028 194.644C176.745 194.009 176.603 193.233 176.603 192.315V160.916ZM189.405 160.916H193.611V191.088C193.611 191.505 193.645 191.873 193.712 192.19C193.795 192.507 193.929 192.774 194.112 192.991C194.296 193.208 194.546 193.375 194.863 193.492C195.197 193.592 195.606 193.642 196.09 193.642C196.624 193.642 197.109 193.625 197.543 193.592C197.977 193.559 198.361 193.525 198.694 193.492L199.12 197.022C198.636 197.072 198.152 197.122 197.668 197.173C197.25 197.206 196.791 197.239 196.291 197.273C195.79 197.306 195.314 197.323 194.863 197.323C194.112 197.323 193.403 197.231 192.735 197.047C192.067 196.88 191.483 196.597 190.982 196.196C190.498 195.795 190.114 195.278 189.83 194.644C189.547 194.009 189.405 193.233 189.405 192.315V160.916ZM205.237 185.329C205.32 186.531 205.562 187.641 205.963 188.659C206.363 189.677 206.906 190.562 207.59 191.313C208.291 192.048 209.109 192.624 210.044 193.041C210.996 193.442 212.047 193.642 213.199 193.642C214.618 193.642 215.862 193.408 216.93 192.941C218.015 192.457 219.008 191.856 219.91 191.138L222.063 194.168C220.911 195.086 219.576 195.845 218.057 196.446C216.554 197.031 214.868 197.323 212.999 197.323C211.146 197.323 209.468 196.997 207.966 196.346C206.464 195.679 205.178 194.76 204.11 193.592C203.058 192.407 202.249 191.005 201.681 189.385C201.113 187.749 200.83 185.972 200.83 184.052C200.83 182.099 201.105 180.313 201.656 178.694C202.224 177.058 203.016 175.656 204.035 174.487C205.053 173.302 206.272 172.384 207.69 171.733C209.109 171.065 210.687 170.731 212.423 170.731C214.109 170.731 215.628 171.065 216.98 171.733C218.332 172.384 219.484 173.302 220.435 174.487C221.387 175.656 222.113 177.058 222.614 178.694C223.131 180.313 223.39 182.082 223.39 184.002V185.329H205.237ZM212.273 174.412C211.204 174.412 210.253 174.621 209.418 175.038C208.584 175.455 207.866 176.014 207.265 176.716C206.681 177.417 206.213 178.226 205.863 179.144C205.529 180.046 205.337 180.981 205.287 181.949H218.833C218.8 180.964 218.624 180.021 218.307 179.119C218.007 178.201 217.573 177.4 217.005 176.716C216.454 176.014 215.778 175.455 214.977 175.038C214.192 174.621 213.291 174.412 212.273 174.412ZM234.865 190.462C234.865 190.896 234.89 191.305 234.94 191.689C235.007 192.056 235.149 192.382 235.366 192.666C235.6 192.949 235.933 193.175 236.367 193.342C236.801 193.508 237.394 193.592 238.145 193.592C238.345 193.592 238.579 193.584 238.846 193.567C239.13 193.55 239.422 193.534 239.723 193.517C240.023 193.483 240.315 193.45 240.599 193.417C240.883 193.367 241.125 193.325 241.325 193.291L241.776 196.972C241.292 197.039 240.791 197.097 240.274 197.148C239.84 197.198 239.355 197.239 238.821 197.273C238.287 197.306 237.753 197.323 237.219 197.323C236.2 197.323 235.282 197.214 234.464 196.997C233.663 196.797 232.979 196.463 232.411 195.996C231.844 195.528 231.41 194.919 231.109 194.168C230.809 193.4 230.658 192.474 230.658 191.389V174.938H225.826V171.232H230.658V162.869L234.865 161.392V171.232H241.976V174.938H234.865V190.462Z" fill="#0B0C0C"/>
</g>
<rect x="0.5" y="0.5" width="479" height="319" stroke="#B1B4B6"/>
<defs>
<clipPath id="clip0_1212_3631">
<rect width="480" height="320" fill="white"/>
</clipPath>
</defs>
</svg>
