<svg width="151" height="75" viewBox="0 0 151 75" fill="none" xmlns="http://www.w3.org/2000/svg">
<rect x="1.20312" y="0.5" width="149" height="74" fill="white" stroke="#F3F3F3"/>
<path d="M50.2333 30.8606C50.2333 31.2888 50.2868 31.7008 50.3939 32.0964C50.5009 32.4921 50.6637 32.8411 50.8827 33.1437C51.1015 33.4464 51.3807 33.6895 51.7207 33.8734C52.0606 34.0572 52.4656 34.1493 52.9359 34.1493C53.4061 34.1493 53.7634 34.0772 54.0637 33.9329C54.3639 33.7886 54.6037 33.6082 54.783 33.3916C54.962 33.1752 55.0877 32.9414 55.1601 32.6901C55.2322 32.4387 55.2682 32.2059 55.2682 31.9917V31.894H52.7054V30.3511H57.2374V35.8389H55.4638V34.6658C55.3381 34.8614 55.1821 35.0395 54.996 35.2001C54.8097 35.3606 54.6003 35.498 54.3673 35.6119C54.1345 35.726 53.8795 35.8157 53.6027 35.8809C53.3257 35.946 53.0312 35.9786 52.7194 35.9786C51.9884 35.9786 51.3391 35.8459 50.7712 35.5805C50.2032 35.3152 49.7248 34.9499 49.3361 34.4844C48.9475 34.019 48.6519 33.4743 48.4493 32.8505C48.2468 32.2269 48.1455 31.5543 48.1455 30.8326C48.1455 30.111 48.2584 29.4445 48.4842 28.8185C48.71 28.1925 49.0312 27.6478 49.448 27.1847C49.8647 26.7215 50.3673 26.3562 50.9562 26.0885C51.5452 25.8208 52.205 25.6869 52.936 25.6869C53.4109 25.6869 53.8613 25.7416 54.2872 25.8509C54.7132 25.9604 55.1019 26.1163 55.4534 26.3187C55.8047 26.5211 56.1155 26.7657 56.3857 27.0518C56.6555 27.338 56.8745 27.6558 57.0421 28.0049L55.2684 29.0032C55.1612 28.7892 55.0355 28.5902 54.8913 28.4062C54.7468 28.2225 54.5805 28.0641 54.392 27.9314C54.2034 27.7987 53.9882 27.694 53.7462 27.6173C53.504 27.5406 53.234 27.502 52.9362 27.502C52.466 27.502 52.0609 27.5941 51.721 27.7779C51.3811 27.9618 51.1019 28.2049 50.8831 28.5076C50.6642 28.8102 50.5014 29.1604 50.3943 29.5584C50.2872 29.9565 50.2336 30.3674 50.2336 30.7907V30.8606H50.2333Z" fill="#0B0C0C"/>
<path d="M63.6863 25.6868C64.4312 25.6868 65.0992 25.8206 65.6905 26.0884C66.2818 26.3561 66.7834 26.7214 67.1955 27.1845C67.6074 27.6477 67.9217 28.1924 68.1381 28.8184C68.3546 29.4444 68.4627 30.116 68.4627 30.8325C68.4627 31.5491 68.3546 32.2268 68.1381 32.8504C67.9217 33.4742 67.6074 34.0189 67.1955 34.4843C66.7836 34.9496 66.2818 35.3151 65.6905 35.5804C65.0994 35.8458 64.4312 35.9784 63.6863 35.9784C62.9415 35.9784 62.2675 35.8458 61.6788 35.5804C61.0898 35.3151 60.5894 34.9498 60.1775 34.4843C59.7655 34.0189 59.4513 33.4742 59.2349 32.8504C59.0185 32.2268 58.9102 31.5542 58.9102 30.8325C58.9102 30.1108 59.0185 29.4444 59.2349 28.8184C59.4513 28.1924 59.7655 27.6477 60.1775 27.1845C60.5894 26.7214 61.0898 26.3561 61.6788 26.0884C62.2677 25.8206 62.9368 25.6868 63.6863 25.6868ZM63.6863 34.149C64.124 34.149 64.5093 34.0665 64.842 33.901C65.1748 33.736 65.4555 33.5066 65.6834 33.2135C65.9116 32.9202 66.0838 32.5735 66.2001 32.1731C66.3165 31.7728 66.3748 31.3352 66.3748 30.8605V30.8046C66.3748 30.3344 66.3165 29.898 66.2001 29.4954C66.0838 29.0928 65.9116 28.7447 65.6834 28.4516C65.4553 28.1584 65.1748 27.9292 64.842 27.7638C64.5093 27.5988 64.124 27.516 63.6863 27.516C63.2487 27.516 62.8624 27.5988 62.5271 27.7638C62.192 27.9292 61.9116 28.1584 61.6858 28.4516C61.4599 28.7447 61.2889 29.0929 61.1726 29.4954C61.0562 29.898 60.9979 30.3344 60.9979 30.8046V30.8605C60.9979 31.3352 61.0562 31.7728 61.1726 32.1731C61.2889 32.5735 61.4599 32.92 61.6858 33.2135C61.9116 33.5066 62.192 33.736 62.5271 33.901C62.8624 34.0665 63.2487 34.149 63.6863 34.149Z" fill="#0B0C0C"/>
<path d="M72.0332 35.8386L69.2051 25.8264H71.4746L73.4091 33.3529H73.4788L75.3713 25.8264H77.6127L74.7846 35.8386H72.0334H72.0332Z" fill="#0B0C0C"/>
<path d="M89.083 34.1489C89.3762 34.1489 89.6498 34.106 89.9034 34.0198C90.1572 33.9337 90.376 33.8034 90.5598 33.6288C90.7435 33.4542 90.8892 33.2333 90.9963 32.9654C91.1032 32.6979 91.1568 32.3826 91.1568 32.0195V25.8124H93.147V32.3196C93.147 32.8783 93.0458 33.3834 92.8435 33.8348C92.6413 34.2864 92.3599 34.6704 91.9993 34.9869C91.6388 35.3036 91.2096 35.5478 90.7121 35.72C90.2145 35.8921 89.6702 35.9784 89.0796 35.9784C88.489 35.9784 87.9446 35.8921 87.447 35.72C86.9492 35.5478 86.5191 35.3034 86.1561 34.9869C85.7932 34.6704 85.5107 34.2865 85.3083 33.8348C85.106 33.3834 85.0049 32.8781 85.0049 32.3196V25.8124H87.0091V32.0195C87.0091 32.3826 87.0626 32.6979 87.1696 32.9654C87.2767 33.2333 87.4221 33.4542 87.606 33.6288C87.7899 33.8034 88.0087 33.9337 88.2625 34.0198C88.5162 34.106 88.7898 34.1489 89.083 34.1489Z" fill="#0B0C0C"/>
<path d="M94.9434 25.8264H96.9685V30.1621L100.544 25.8264H103.037L99.5592 29.8061L103.26 35.8386H100.907L98.2605 31.349L96.9685 32.7943V35.8386H94.9434V25.8264Z" fill="#0B0C0C"/>
<path d="M80.7911 32.5228C81.7248 32.5228 82.4816 31.766 82.4816 30.8325C82.4816 29.899 81.7248 29.1422 80.7911 29.1422C79.8575 29.1422 79.1006 29.899 79.1006 30.8325C79.1006 31.766 79.8575 32.5228 80.7911 32.5228Z" fill="#1D70B8"/>
<path d="M66.2733 39.3725H69.7601C70.2269 39.3725 70.6497 39.4511 71.0287 39.6082C71.4077 39.7607 71.7312 39.9756 71.9992 40.2529C72.2719 40.5255 72.4798 40.8536 72.6231 41.2372C72.771 41.6208 72.8449 42.0413 72.8449 42.4989C72.8449 42.961 72.764 43.3839 72.6023 43.7674C72.4452 44.1464 72.2233 44.4722 71.9368 44.7449C71.6503 45.0175 71.3083 45.2301 70.9109 45.3826C70.518 45.5305 70.0882 45.6044 69.6215 45.6044H67.4933V49.3131H66.2733V39.3725ZM71.5486 42.4711C71.5486 42.18 71.5024 41.9096 71.41 41.6601C71.3175 41.4105 71.1835 41.1956 71.0079 41.0154C70.8323 40.8305 70.6174 40.6873 70.3632 40.5856C70.1137 40.4793 69.8295 40.4262 69.5106 40.4262H67.4933V44.5577H69.5106C69.8295 44.5577 70.1137 44.5069 70.3632 44.4052C70.6174 44.3035 70.8323 44.1649 71.0079 43.9893C71.1835 43.809 71.3175 43.5964 71.41 43.3515C71.5024 43.102 71.5486 42.8316 71.5486 42.5405V42.4711ZM78.0944 48.606C77.8865 48.8463 77.6046 49.0474 77.2487 49.2091C76.8975 49.3709 76.4839 49.4518 76.0079 49.4518C75.6567 49.4518 75.3309 49.4032 75.0305 49.3062C74.7301 49.2045 74.469 49.0612 74.2471 48.8764C74.0253 48.6915 73.852 48.4674 73.7272 48.204C73.6024 47.9406 73.5401 47.6425 73.5401 47.3097C73.5401 47.0325 73.584 46.7806 73.6718 46.5541C73.7642 46.3231 73.8913 46.122 74.053 45.951C74.2194 45.7801 74.4181 45.6414 74.6492 45.5351C74.8803 45.4242 75.1391 45.348 75.4256 45.3064L77.9281 44.9667V44.5161C77.9281 44.2481 77.8865 44.0239 77.8033 43.8437C77.7201 43.6588 77.6069 43.5133 77.4636 43.407C77.325 43.3007 77.1586 43.2244 76.9645 43.1782C76.775 43.132 76.5694 43.1089 76.3476 43.1089C75.9501 43.1089 75.5781 43.1643 75.2315 43.2753C74.8895 43.3862 74.5799 43.5156 74.3026 43.6635L73.8659 42.7415C74.2726 42.5104 74.6977 42.344 75.1414 42.2424C75.5896 42.1407 76.031 42.0899 76.4654 42.0899C77.3296 42.0899 77.9835 42.2863 78.4272 42.6791C78.8708 43.0673 79.0927 43.6357 79.0927 44.3844V47.6494C79.0927 47.8851 79.1389 48.0838 79.2313 48.2456C79.3237 48.4027 79.4716 48.5275 79.675 48.6199L79.0164 49.4518C78.7946 49.3963 78.6028 49.2992 78.441 49.1606C78.2839 49.0173 78.173 48.8463 78.1083 48.6476L78.0944 48.606ZM76.0217 46.159C75.8277 46.1867 75.6497 46.226 75.488 46.2769C75.3309 46.3277 75.1968 46.397 75.0859 46.4848C74.975 46.568 74.8872 46.672 74.8225 46.7968C74.7624 46.9215 74.7324 47.074 74.7324 47.2543C74.7324 47.4622 74.7717 47.6471 74.8502 47.8088C74.9288 47.9706 75.0351 48.1069 75.1691 48.2178C75.3031 48.3288 75.4579 48.4142 75.6336 48.4743C75.8138 48.5298 76.001 48.5575 76.1951 48.5575C76.4123 48.5575 76.6248 48.5275 76.8328 48.4674C77.0408 48.4073 77.2256 48.3218 77.3874 48.2109C77.5491 48.0954 77.6785 47.9567 77.7756 47.795C77.8772 47.6332 77.9281 47.4484 77.9281 47.2404V45.8748L76.0217 46.159ZM80.1552 42.2285H81.4723L83.2192 48.0792L84.8829 42.2285H86.1861L83.6074 50.3807C83.5288 50.6302 83.4272 50.8335 83.3024 50.9907C83.1776 51.1524 83.0343 51.2795 82.8726 51.3719C82.7155 51.469 82.5399 51.536 82.3458 51.573C82.1517 51.6099 81.946 51.6284 81.7288 51.6284C81.5347 51.6284 81.3337 51.6169 81.1257 51.5938C80.9177 51.5753 80.6982 51.5476 80.4672 51.5106L80.6405 50.4916C80.7329 50.5101 80.8323 50.5262 80.9385 50.5401C81.0263 50.554 81.1257 50.5655 81.2366 50.5748C81.3475 50.584 81.4608 50.5886 81.5763 50.5886C81.8305 50.5886 82.0269 50.5332 82.1655 50.4222C82.3088 50.3113 82.4105 50.1311 82.4705 49.8815L82.5399 49.5557L80.1552 42.2285Z" fill="#0B0C0C"/>
</svg>
