<svg width="480" height="320" viewBox="0 0 480 320" fill="none" xmlns="http://www.w3.org/2000/svg">
<g clip-path="url(#clip0_1212_3807)">
<path d="M480 0H0V320H480V0Z" fill="white"/>
<path d="M150.025 129.974C150.025 131.461 150.211 132.892 150.583 134.267C150.954 135.641 151.52 136.854 152.28 137.905C153.04 138.956 154.01 139.801 155.191 140.44C156.371 141.078 157.778 141.398 159.411 141.398C161.045 141.398 162.286 141.148 163.329 140.647C164.371 140.145 165.204 139.519 165.827 138.766C166.449 138.014 166.885 137.202 167.137 136.329C167.387 135.456 167.512 134.647 167.512 133.903V133.564H158.611V128.203H174.352V147.268H168.192V143.193C167.755 143.872 167.213 144.491 166.567 145.049C165.92 145.606 165.192 146.084 164.383 146.479C163.575 146.876 162.689 147.187 161.728 147.414C160.766 147.64 159.743 147.753 158.66 147.753C156.121 147.753 153.866 147.292 151.893 146.37C149.92 145.449 148.259 144.18 146.909 142.562C145.559 140.946 144.532 139.054 143.828 136.886C143.125 134.72 142.773 132.383 142.773 129.876C142.773 127.369 143.166 125.054 143.95 122.879C144.734 120.705 145.85 118.812 147.297 117.203C148.745 115.594 150.49 114.325 152.536 113.395C154.581 112.465 156.873 112 159.412 112C161.061 112 162.626 112.19 164.105 112.57C165.585 112.95 166.935 113.492 168.155 114.195C169.376 114.898 170.455 115.748 171.393 116.742C172.33 117.736 173.091 118.84 173.673 120.053L167.513 123.521C167.141 122.777 166.704 122.086 166.203 121.447C165.701 120.809 165.124 120.259 164.469 119.798C163.814 119.337 163.066 118.973 162.226 118.706C161.385 118.44 160.447 118.306 159.413 118.306C157.779 118.306 156.373 118.626 155.192 119.264C154.011 119.903 153.042 120.748 152.282 121.799C151.522 122.85 150.956 124.067 150.584 125.45C150.212 126.833 150.026 128.26 150.026 129.731V129.974H150.025Z" fill="#0B0C0C"/>
<path d="M196.749 112C199.336 112 201.656 112.465 203.71 113.395C205.764 114.325 207.506 115.594 208.937 117.203C210.368 118.812 211.459 120.704 212.211 122.879C212.963 125.054 213.338 127.387 213.338 129.876C213.338 132.365 212.963 134.72 212.211 136.886C211.459 139.053 210.368 140.945 208.937 142.562C207.506 144.179 205.764 145.448 203.71 146.37C201.657 147.292 199.336 147.753 196.749 147.753C194.162 147.753 191.821 147.292 189.776 146.37C187.731 145.448 185.993 144.179 184.562 142.562C183.131 140.945 182.04 139.053 181.288 136.886C180.536 134.72 180.16 132.383 180.16 129.876C180.16 127.369 180.536 125.054 181.288 122.879C182.04 120.704 183.131 118.812 184.562 117.203C185.993 115.594 187.731 114.325 189.776 113.395C191.822 112.465 194.145 112 196.749 112ZM196.749 141.397C198.269 141.397 199.607 141.111 200.763 140.536C201.919 139.963 202.894 139.166 203.685 138.147C204.478 137.129 205.076 135.924 205.48 134.533C205.884 133.143 206.087 131.623 206.087 129.973V129.779C206.087 128.146 205.884 126.63 205.48 125.231C205.076 123.832 204.478 122.623 203.685 121.605C202.893 120.586 201.919 119.79 200.763 119.216C199.607 118.642 198.269 118.355 196.749 118.355C195.229 118.355 193.887 118.642 192.723 119.216C191.559 119.79 190.585 120.586 189.8 121.605C189.016 122.623 188.422 123.833 188.018 125.231C187.614 126.63 187.411 128.146 187.411 129.779V129.973C187.411 131.623 187.614 133.143 188.018 134.533C188.422 135.924 189.016 137.128 189.8 138.147C190.585 139.166 191.559 139.963 192.723 140.536C193.887 141.111 195.229 141.397 196.749 141.397Z" fill="#0B0C0C"/>
<path d="M225.737 147.267L215.914 112.485H223.797L230.515 138.632H230.758L237.331 112.485H245.116L235.293 147.267H225.737H225.737Z" fill="#0B0C0C"/>
<path d="M284.957 141.397C285.976 141.397 286.926 141.248 287.807 140.949C288.688 140.65 289.448 140.197 290.087 139.59C290.725 138.984 291.23 138.217 291.602 137.286C291.974 136.356 292.16 135.261 292.16 134V112.436H299.072V135.042C299.072 136.983 298.721 138.738 298.018 140.306C297.316 141.875 296.338 143.209 295.086 144.308C293.834 145.409 292.344 146.257 290.616 146.855C288.887 147.453 286.997 147.753 284.945 147.753C282.894 147.753 281.003 147.453 279.275 146.855C277.546 146.257 276.052 145.408 274.791 144.308C273.531 143.209 272.55 141.875 271.847 140.306C271.144 138.738 270.793 136.983 270.793 135.042V112.436H277.754V134C277.754 135.261 277.94 136.356 278.311 137.286C278.683 138.217 279.189 138.984 279.827 139.59C280.466 140.197 281.226 140.65 282.107 140.949C282.989 141.248 283.939 141.397 284.957 141.397Z" fill="#0B0C0C"/>
<path d="M305.309 112.485H312.342V127.548L324.76 112.485H333.419L321.341 126.311L334.195 147.267H326.022L316.83 131.671L312.342 136.691V147.267H305.309V112.485Z" fill="#0B0C0C"/>
<path d="M256.165 135.748C259.407 135.748 262.036 133.119 262.036 129.876C262.036 126.633 259.407 124.004 256.165 124.004C252.922 124.004 250.293 126.633 250.293 129.876C250.293 133.119 252.922 135.748 256.165 135.748Z" fill="#1D70B8"/>
<path d="M180.811 165.354V194.851H176.669V160.321H182.473L200.677 189.818V160.321H204.818V194.851H198.991L180.811 165.354ZM221.825 169.76C223.527 169.76 225.076 170.081 226.472 170.724C227.869 171.35 229.057 172.233 230.036 173.372C231.031 174.496 231.802 175.844 232.348 177.418C232.893 178.975 233.166 180.692 233.166 182.571C233.166 184.417 232.893 186.126 232.348 187.7C231.802 189.257 231.031 190.605 230.036 191.745C229.057 192.869 227.869 193.751 226.472 194.394C225.076 195.02 223.527 195.333 221.825 195.333C220.123 195.333 218.574 195.02 217.178 194.394C215.797 193.751 214.609 192.869 213.614 191.745C212.619 190.605 211.848 189.257 211.302 187.7C210.756 186.126 210.484 184.417 210.484 182.571C210.484 180.692 210.756 178.975 211.302 177.418C211.848 175.844 212.619 174.496 213.614 173.372C214.609 172.233 215.797 171.35 217.178 170.724C218.574 170.081 220.123 169.76 221.825 169.76ZM221.825 191.793C222.997 191.793 224.024 191.552 224.907 191.071C225.806 190.573 226.553 189.907 227.147 189.072C227.757 188.237 228.214 187.274 228.519 186.183C228.824 185.075 228.977 183.919 228.977 182.715V182.426C228.977 181.19 228.824 180.018 228.519 178.911C228.214 177.803 227.757 176.84 227.147 176.021C226.553 175.186 225.806 174.528 224.907 174.047C224.024 173.549 222.997 173.3 221.825 173.3C220.653 173.3 219.618 173.549 218.719 174.047C217.836 174.528 217.089 175.186 216.479 176.021C215.885 176.84 215.436 177.803 215.131 178.911C214.826 180.018 214.673 181.19 214.673 182.426V182.715C214.673 183.919 214.826 185.075 215.131 186.183C215.436 187.274 215.885 188.237 216.479 189.072C217.089 189.907 217.836 190.573 218.719 191.071C219.618 191.552 220.653 191.793 221.825 191.793ZM244.322 188.735C244.322 189.152 244.346 189.546 244.394 189.915C244.458 190.268 244.595 190.581 244.803 190.854C245.028 191.127 245.349 191.344 245.767 191.504C246.184 191.665 246.754 191.745 247.476 191.745C247.669 191.745 247.894 191.737 248.15 191.721C248.423 191.705 248.704 191.689 248.993 191.673C249.282 191.64 249.563 191.608 249.836 191.576C250.109 191.528 250.342 191.488 250.534 191.456L250.968 194.996C250.502 195.06 250.021 195.116 249.523 195.164C249.106 195.212 248.64 195.252 248.126 195.285C247.613 195.317 247.099 195.333 246.585 195.333C245.606 195.333 244.723 195.228 243.937 195.02C243.166 194.827 242.508 194.506 241.962 194.056C241.416 193.607 240.999 193.021 240.71 192.299C240.421 191.56 240.277 190.669 240.277 189.626V173.806H235.629V170.242H240.277V162.199L244.322 160.779V170.242H251.16V173.806H244.322V188.735ZM259.475 194.851H255.429V170.242H259.475V194.851ZM254.683 163.139C254.683 162.753 254.755 162.392 254.899 162.055C255.06 161.718 255.261 161.421 255.501 161.164C255.758 160.907 256.055 160.707 256.392 160.562C256.746 160.402 257.115 160.321 257.5 160.321C257.885 160.321 258.246 160.402 258.584 160.562C258.921 160.707 259.21 160.907 259.45 161.164C259.707 161.421 259.908 161.718 260.052 162.055C260.213 162.392 260.293 162.753 260.293 163.139C260.293 163.524 260.213 163.893 260.052 164.246C259.908 164.583 259.707 164.88 259.45 165.137C259.21 165.378 258.921 165.579 258.584 165.739C258.246 165.884 257.885 165.956 257.5 165.956C257.115 165.956 256.746 165.884 256.392 165.739C256.055 165.579 255.758 165.378 255.501 165.137C255.261 164.88 255.06 164.583 254.899 164.246C254.755 163.893 254.683 163.524 254.683 163.139ZM271.906 170.242H276.794V173.806H271.906V194.851H267.861V173.806H263.767V170.242H267.861V165.667C267.861 164.607 268.029 163.708 268.367 162.97C268.704 162.232 269.169 161.638 269.763 161.188C270.373 160.723 271.088 160.394 271.906 160.201C272.741 159.992 273.648 159.888 274.627 159.888C275.622 159.888 276.449 159.936 277.107 160.032C277.766 160.113 278.255 160.177 278.576 160.225L278.263 163.692C278.022 163.676 277.741 163.652 277.42 163.62C277.115 163.588 276.794 163.564 276.457 163.548C276.136 163.532 275.823 163.516 275.518 163.5C275.213 163.484 274.964 163.476 274.772 163.476C274.194 163.476 273.72 163.564 273.351 163.741C272.982 163.901 272.685 164.118 272.46 164.391C272.251 164.664 272.107 164.977 272.027 165.33C271.946 165.683 271.906 166.052 271.906 166.437V170.242ZM278.438 170.242H283.014L289.082 190.565L294.861 170.242H299.387L290.43 198.559C290.157 199.426 289.804 200.132 289.37 200.678C288.937 201.24 288.439 201.682 287.878 202.003C287.332 202.34 286.722 202.573 286.048 202.701C285.373 202.829 284.659 202.894 283.904 202.894C283.23 202.894 282.532 202.853 281.81 202.773C281.087 202.709 280.325 202.613 279.522 202.484L280.124 198.945C280.445 199.009 280.79 199.065 281.159 199.113C281.464 199.161 281.81 199.201 282.195 199.234C282.58 199.266 282.973 199.282 283.375 199.282C284.258 199.282 284.94 199.089 285.421 198.704C285.919 198.319 286.272 197.692 286.481 196.826L286.722 195.694L278.438 170.242Z" fill="#0B0C0C"/>
</g>
<rect x="0.5" y="0.5" width="479" height="319" stroke="#B1B4B6"/>
<defs>
<clipPath id="clip0_1212_3807">
<rect width="480" height="320" fill="white"/>
</clipPath>
</defs>
</svg>
