<svg width="480" height="320" viewBox="0 0 480 320" fill="none" xmlns="http://www.w3.org/2000/svg">
<g clip-path="url(#clip0_1212_3492)">
<path d="M480 0H0V320H480V0Z" fill="white"/>
<path d="M149.747 130.048C149.747 131.542 149.934 132.979 150.308 134.359C150.681 135.739 151.249 136.957 152.013 138.012C152.776 139.068 153.75 139.917 154.935 140.558C156.121 141.199 157.534 141.52 159.174 141.52C160.814 141.52 162.061 141.269 163.108 140.765C164.155 140.262 164.992 139.633 165.617 138.877C166.242 138.122 166.68 137.307 166.932 136.43C167.184 135.553 167.309 134.741 167.309 133.994V133.653H158.37V128.271H174.178V147.414H167.992V143.322C167.553 144.005 167.009 144.626 166.36 145.186C165.71 145.746 164.98 146.225 164.167 146.623C163.355 147.021 162.466 147.333 161.5 147.561C160.534 147.788 159.507 147.902 158.419 147.902C155.869 147.902 153.604 147.439 151.623 146.513C149.642 145.588 147.974 144.313 146.618 142.689C145.262 141.066 144.231 139.166 143.524 136.99C142.818 134.814 142.465 132.468 142.465 129.951C142.465 127.433 142.859 125.108 143.646 122.925C144.434 120.741 145.554 118.841 147.008 117.225C148.462 115.609 150.215 114.335 152.269 113.401C154.323 112.467 156.625 112 159.175 112C160.831 112 162.402 112.191 163.887 112.573C165.374 112.954 166.729 113.498 167.955 114.204C169.181 114.91 170.265 115.763 171.207 116.762C172.148 117.76 172.912 118.869 173.497 120.086L167.31 123.569C166.936 122.822 166.498 122.128 165.995 121.486C165.491 120.845 164.911 120.293 164.253 119.83C163.595 119.367 162.845 119.002 162 118.734C161.156 118.467 160.214 118.332 159.175 118.332C157.535 118.332 156.122 118.653 154.936 119.295C153.751 119.936 152.777 120.784 152.014 121.84C151.25 122.895 150.682 124.117 150.309 125.506C149.935 126.894 149.748 128.328 149.748 129.804V130.048H149.747Z" fill="#0B0C0C"/>
<path d="M196.675 112C199.273 112 201.604 112.467 203.666 113.401C205.729 114.335 207.478 115.609 208.916 117.225C210.352 118.841 211.449 120.741 212.204 122.924C212.959 125.108 213.336 127.451 213.336 129.951C213.336 132.45 212.959 134.814 212.204 136.99C211.449 139.166 210.352 141.066 208.916 142.689C207.479 144.313 205.729 145.587 203.666 146.513C201.604 147.439 199.273 147.901 196.675 147.901C194.077 147.901 191.726 147.439 189.673 146.513C187.619 145.587 185.873 144.313 184.436 142.689C182.999 141.066 181.903 139.166 181.148 136.99C180.393 134.814 180.016 132.468 180.016 129.951C180.016 127.433 180.393 125.108 181.148 122.924C181.903 120.741 182.999 118.841 184.436 117.225C185.873 115.609 187.619 114.335 189.673 113.401C191.727 112.467 194.061 112 196.675 112ZM196.675 141.52C198.202 141.52 199.546 141.232 200.707 140.655C201.867 140.079 202.846 139.279 203.641 138.256C204.437 137.233 205.038 136.024 205.444 134.627C205.849 133.231 206.053 131.704 206.053 130.048V129.853C206.053 128.213 205.849 126.691 205.444 125.286C205.038 123.882 204.437 122.667 203.641 121.645C202.846 120.622 201.867 119.823 200.707 119.246C199.546 118.67 198.202 118.381 196.675 118.381C195.149 118.381 193.801 118.67 192.632 119.246C191.463 119.823 190.485 120.622 189.697 121.645C188.909 122.667 188.313 123.882 187.907 125.286C187.501 126.691 187.298 128.213 187.298 129.853V130.048C187.298 131.704 187.501 133.231 187.907 134.627C188.313 136.024 188.909 137.232 189.697 138.256C190.485 139.279 191.463 140.079 192.632 140.655C193.801 141.232 195.149 141.52 196.675 141.52Z" fill="#0B0C0C"/>
<path d="M225.787 147.414L215.922 112.487H223.838L230.586 138.743H230.829L237.43 112.487H245.248L235.384 147.414H225.787H225.787Z" fill="#0B0C0C"/>
<path d="M285.26 141.52C286.283 141.52 287.237 141.37 288.122 141.069C289.007 140.769 289.77 140.314 290.411 139.705C291.052 139.096 291.56 138.326 291.934 137.391C292.307 136.458 292.493 135.358 292.493 134.091V112.439H299.435V135.138C299.435 137.087 299.083 138.849 298.377 140.424C297.672 141.999 296.69 143.339 295.432 144.443C294.175 145.547 292.678 146.399 290.943 147C289.207 147.6 287.308 147.901 285.248 147.901C283.188 147.901 281.289 147.6 279.554 147C277.817 146.399 276.317 145.547 275.051 144.443C273.785 143.339 272.8 142 272.093 140.424C271.388 138.849 271.035 137.087 271.035 135.138V112.439H278.026V134.091C278.026 135.358 278.213 136.458 278.586 137.391C278.959 138.326 279.467 139.096 280.108 139.705C280.749 140.314 281.513 140.769 282.398 141.069C283.283 141.37 284.237 141.52 285.26 141.52Z" fill="#0B0C0C"/>
<path d="M305.703 112.487H312.767V127.612L325.238 112.487H333.934L321.804 126.37L334.713 147.414H326.505L317.273 131.752L312.767 136.794V147.414H305.703V112.487Z" fill="#0B0C0C"/>
<path d="M256.334 135.847C259.591 135.847 262.231 133.207 262.231 129.95C262.231 126.694 259.591 124.054 256.334 124.054C253.078 124.054 250.438 126.694 250.438 129.95C250.438 133.207 253.078 135.847 256.334 135.847Z" fill="#1D70B8"/>
<path d="M145.925 161.633H158.499C160.182 161.633 161.707 161.917 163.074 162.483C164.44 163.033 165.607 163.808 166.573 164.808C167.557 165.791 168.307 166.975 168.823 168.358C169.356 169.741 169.623 171.258 169.623 172.907C169.623 174.574 169.331 176.099 168.748 177.482C168.182 178.849 167.382 180.024 166.348 181.007C165.315 181.99 164.082 182.757 162.649 183.307C161.232 183.84 159.682 184.107 157.999 184.107H150.324V197.481H145.925V161.633ZM164.948 172.807C164.948 171.758 164.782 170.783 164.448 169.883C164.115 168.983 163.632 168.208 162.999 167.558C162.365 166.891 161.59 166.375 160.674 166.008C159.774 165.625 158.749 165.433 157.599 165.433H150.324V180.332H157.599C158.749 180.332 159.774 180.149 160.674 179.782C161.59 179.415 162.365 178.915 162.999 178.282C163.632 177.632 164.115 176.866 164.448 175.982C164.782 175.082 164.948 174.107 164.948 173.057V172.807ZM189.322 194.931C188.572 195.798 187.555 196.523 186.272 197.106C185.005 197.689 183.514 197.981 181.797 197.981C180.531 197.981 179.356 197.806 178.273 197.456C177.189 197.089 176.248 196.573 175.448 195.906C174.648 195.239 174.023 194.431 173.573 193.481C173.123 192.531 172.898 191.456 172.898 190.256C172.898 189.256 173.056 188.348 173.373 187.531C173.706 186.698 174.164 185.973 174.748 185.357C175.348 184.74 176.064 184.24 176.898 183.857C177.731 183.457 178.664 183.182 179.697 183.032L188.722 181.807V180.182C188.722 179.215 188.572 178.407 188.272 177.757C187.972 177.091 187.564 176.566 187.047 176.182C186.547 175.799 185.947 175.524 185.247 175.357C184.564 175.191 183.822 175.107 183.022 175.107C181.589 175.107 180.247 175.307 178.997 175.707C177.764 176.107 176.648 176.574 175.648 177.107L174.073 173.782C175.539 172.949 177.073 172.349 178.672 171.983C180.289 171.616 181.881 171.433 183.447 171.433C186.564 171.433 188.922 172.141 190.522 173.557C192.122 174.957 192.922 177.007 192.922 179.707V191.481C192.922 192.331 193.088 193.048 193.422 193.631C193.755 194.198 194.288 194.648 195.021 194.981L192.647 197.981C191.847 197.781 191.155 197.431 190.572 196.931C190.005 196.414 189.605 195.798 189.372 195.081L189.322 194.931ZM181.847 186.107C181.147 186.207 180.506 186.348 179.922 186.532C179.356 186.715 178.872 186.965 178.473 187.282C178.073 187.581 177.756 187.956 177.523 188.406C177.306 188.856 177.198 189.406 177.198 190.056C177.198 190.806 177.339 191.473 177.623 192.056C177.906 192.639 178.289 193.131 178.772 193.531C179.256 193.931 179.814 194.239 180.447 194.456C181.097 194.656 181.772 194.756 182.472 194.756C183.256 194.756 184.022 194.648 184.772 194.431C185.522 194.214 186.189 193.906 186.772 193.506C187.355 193.089 187.822 192.589 188.172 192.006C188.539 191.423 188.722 190.756 188.722 190.006V185.082L181.847 186.107ZM197.521 171.933H202.271L208.571 193.031L214.57 171.933H219.27L209.97 201.331C209.687 202.231 209.32 202.964 208.87 203.53C208.421 204.114 207.904 204.572 207.321 204.905C206.754 205.255 206.121 205.497 205.421 205.63C204.721 205.764 203.979 205.83 203.196 205.83C202.496 205.83 201.771 205.789 201.021 205.705C200.271 205.639 199.479 205.539 198.646 205.405L199.271 201.731C199.604 201.797 199.963 201.856 200.346 201.906C200.663 201.956 201.021 201.997 201.421 202.031C201.821 202.064 202.229 202.081 202.646 202.081C203.563 202.081 204.271 201.881 204.771 201.481C205.287 201.081 205.654 200.431 205.871 199.531L206.121 198.356L197.521 171.933Z" fill="black"/>
</g>
<rect x="0.5" y="0.5" width="479" height="319" stroke="#B1B4B6"/>
<defs>
<clipPath id="clip0_1212_3492">
<rect width="480" height="320" fill="white"/>
</clipPath>
</defs>
</svg>
