<svg width="152" height="75" viewBox="0 0 152 75" fill="none" xmlns="http://www.w3.org/2000/svg">
<rect x="1.46875" y="0.5" width="150" height="74" fill="white" stroke="#F3F3F3"/>
<path d="M51.7282 30.8693C51.7282 31.2975 51.7818 31.7095 51.8889 32.1052C51.9958 32.5008 52.1587 32.8499 52.3777 33.1524C52.5965 33.4551 52.8756 33.6982 53.2155 33.8821C53.5554 34.0659 53.9605 34.158 54.4306 34.158C54.9008 34.158 55.2581 34.0858 55.5584 33.9416C55.8586 33.7973 56.0984 33.6169 56.2776 33.4003C56.4567 33.1839 56.5824 32.9501 56.6547 32.6988C56.7268 32.4474 56.7628 32.2146 56.7628 32.0005V31.9027H54.2002V30.3598H58.7319V35.8476H56.9584V34.6745C56.8327 34.8701 56.6767 35.0481 56.4906 35.2088C56.3044 35.3692 56.095 35.5067 55.862 35.6206C55.6292 35.7347 55.3743 35.8244 55.0975 35.8895C54.8205 35.9547 54.526 35.9872 54.2142 35.9872C53.4833 35.9872 52.834 35.8546 52.2661 35.5892C51.6982 35.3239 51.2198 34.9586 50.8312 34.4931C50.4425 34.0277 50.147 33.483 49.9444 32.8592C49.7419 32.2356 49.6406 31.563 49.6406 30.8414C49.6406 30.1197 49.7535 29.4533 49.9793 28.8273C50.2051 28.2013 50.5263 27.6566 50.9431 27.1934C51.3597 26.7303 51.8623 26.365 52.4512 26.0973C53.04 25.8295 53.6999 25.6957 54.4308 25.6957C54.9056 25.6957 55.356 25.7504 55.7819 25.8597C56.2079 25.9692 56.5965 26.1251 56.948 26.3275C57.2993 26.5299 57.6101 26.7744 57.8802 27.0606C58.15 27.3467 58.369 27.6646 58.5366 28.0137L56.763 29.0119C56.6559 28.7979 56.5302 28.5989 56.3859 28.4149C56.2415 28.2313 56.0752 28.0728 55.8867 27.9402C55.6981 27.8075 55.4829 27.7028 55.2409 27.6261C54.9987 27.5493 54.7288 27.5108 54.431 27.5108C53.9608 27.5108 53.5558 27.6029 53.2159 27.7867C52.876 27.9705 52.5968 28.2137 52.378 28.5164C52.1592 28.8189 51.9963 29.1692 51.8892 29.5672C51.7821 29.9652 51.7286 30.3762 51.7286 30.7994V30.8693H51.7282Z" fill="#0B0C0C"/>
<path d="M65.1811 25.6956C65.9259 25.6956 66.5939 25.8294 67.1852 26.0972C67.7764 26.3649 68.278 26.7302 68.69 27.1933C69.1019 27.6565 69.4162 28.2011 69.6326 28.8271C69.849 29.4531 69.9572 30.1247 69.9572 30.8412C69.9572 31.5578 69.849 32.2355 69.6326 32.8591C69.4162 33.4829 69.1019 34.0276 68.69 34.4929C68.2782 34.9583 67.7764 35.3238 67.1852 35.5891C66.5941 35.8544 65.9259 35.9871 65.1811 35.9871C64.4364 35.9871 63.7624 35.8544 63.1737 35.5891C62.5848 35.3238 62.0844 34.9585 61.6726 34.4929C61.2605 34.0276 60.9464 33.4829 60.73 32.8591C60.5136 32.2355 60.4053 31.5629 60.4053 30.8412C60.4053 30.1196 60.5136 29.4531 60.73 28.8271C60.9464 28.2011 61.2605 27.6565 61.6726 27.1933C62.0844 26.7302 62.5848 26.3649 63.1737 26.0972C63.7626 25.8294 64.4316 25.6956 65.1811 25.6956ZM65.1811 34.1577C65.6187 34.1577 66.004 34.0751 66.3367 33.9097C66.6695 33.7447 66.9502 33.5153 67.178 33.2222C67.4062 32.9289 67.5784 32.5822 67.6948 32.1818C67.8111 31.7815 67.8694 31.344 67.8694 30.8692V30.8133C67.8694 30.3431 67.8111 29.9068 67.6948 29.5041C67.5784 29.1015 67.4062 28.7535 67.178 28.4603C66.95 28.1672 66.6695 27.938 66.3367 27.7726C66.004 27.6075 65.6187 27.5248 65.1811 27.5248C64.7435 27.5248 64.3572 27.6075 64.022 27.7726C63.6868 27.938 63.4065 28.1672 63.1807 28.4603C62.9549 28.7535 62.7838 29.1017 62.6675 29.5041C62.5512 29.9068 62.4929 30.3431 62.4929 30.8133V30.8692C62.4929 31.344 62.5512 31.7815 62.6675 32.1818C62.7838 32.5822 62.9549 32.9287 63.1807 33.2222C63.4065 33.5153 63.6868 33.7447 64.022 33.9097C64.3572 34.0751 64.7435 34.1577 65.1811 34.1577Z" fill="#0B0C0C"/>
<path d="M73.5271 35.8474L70.6992 25.8353H72.9686L74.9029 33.3618H74.9727L76.865 25.8353H79.1063L76.2783 35.8474H73.5273H73.5271Z" fill="#0B0C0C"/>
<path d="M90.5749 34.1576C90.8681 34.1576 91.1416 34.1146 91.3952 34.0285C91.649 33.9424 91.8678 33.8121 92.0516 33.6375C92.2353 33.4629 92.3809 33.242 92.488 32.9741C92.595 32.7066 92.6485 32.3913 92.6485 32.0282V25.8212H94.6386V32.3284C94.6386 32.887 94.5375 33.3921 94.3352 33.8435C94.1329 34.2951 93.8515 34.6791 93.491 34.9956C93.1305 35.3123 92.7014 35.5565 92.2039 35.7287C91.7063 35.9008 91.1621 35.987 90.5715 35.987C89.9809 35.987 89.4365 35.9008 88.9391 35.7287C88.4413 35.5565 88.0111 35.3121 87.6482 34.9956C87.2853 34.6791 87.0029 34.2952 86.8005 33.8435C86.5982 33.3921 86.4971 32.8868 86.4971 32.3284V25.8212H88.5011V32.0282C88.5011 32.3913 88.5547 32.7066 88.6616 32.9741C88.7687 33.242 88.9142 33.4629 89.098 33.6375C89.2819 33.8121 89.5007 33.9424 89.7544 34.0285C90.0082 34.1146 90.2817 34.1576 90.5749 34.1576Z" fill="#0B0C0C"/>
<path d="M96.4355 25.8353H98.4606V30.171L102.036 25.8353H104.528L101.051 29.8149L104.752 35.8474H102.399L99.7524 31.3579L98.4606 32.8031V35.8474H96.4355V25.8353Z" fill="#0B0C0C"/>
<path d="M82.2842 32.5316C83.2178 32.5316 83.9746 31.7748 83.9746 30.8413C83.9746 29.9078 83.2178 29.151 82.2842 29.151C81.3506 29.151 80.5938 29.9078 80.5938 30.8413C80.5938 31.7748 81.3506 32.5316 82.2842 32.5316Z" fill="#1D70B8"/>
<path d="M50.7435 40.8126V49.3044H49.5512V39.3638H51.2218L56.4625 47.8556V39.3638H57.6548V49.3044H55.9772L50.7435 40.8126ZM62.5508 42.0812C63.0406 42.0812 63.4866 42.1736 63.8887 42.3585C64.2907 42.5387 64.6327 42.7929 64.9146 43.121C65.2012 43.4445 65.423 43.8327 65.5801 44.2856C65.7372 44.7339 65.8158 45.2284 65.8158 45.7691C65.8158 46.3005 65.7372 46.7927 65.5801 47.2456C65.423 47.6939 65.2012 48.0821 64.9146 48.4102C64.6327 48.7337 64.2907 48.9879 63.8887 49.1727C63.4866 49.353 63.0406 49.4431 62.5508 49.4431C62.0609 49.4431 61.6149 49.353 61.2129 49.1727C60.8154 48.9879 60.4735 48.7337 60.1869 48.4102C59.9004 48.0821 59.6786 47.6939 59.5215 47.2456C59.3643 46.7927 59.2858 46.3005 59.2858 45.7691C59.2858 45.2284 59.3643 44.7339 59.5215 44.2856C59.6786 43.8327 59.9004 43.4445 60.1869 43.121C60.4735 42.7929 60.8154 42.5387 61.2129 42.3585C61.6149 42.1736 62.0609 42.0812 62.5508 42.0812ZM62.5508 48.4241C62.8881 48.4241 63.1839 48.3547 63.4381 48.2161C63.6969 48.0728 63.9118 47.8811 64.0828 47.6407C64.2584 47.4004 64.3901 47.1231 64.4779 46.8089C64.5657 46.49 64.6096 46.1573 64.6096 45.8107V45.7275C64.6096 45.3716 64.5657 45.0343 64.4779 44.7154C64.3901 44.3965 64.2584 44.1192 64.0828 43.8835C63.9118 43.6432 63.6969 43.4538 63.4381 43.3151C63.1839 43.1719 62.8881 43.1002 62.5508 43.1002C62.2134 43.1002 61.9153 43.1719 61.6565 43.3151C61.4024 43.4538 61.1875 43.6432 61.0119 43.8835C60.8409 44.1192 60.7115 44.3965 60.6237 44.7154C60.5359 45.0343 60.492 45.3716 60.492 45.7275V45.8107C60.492 46.1573 60.5359 46.49 60.6237 46.8089C60.7115 47.1231 60.8409 47.4004 61.0119 47.6407C61.1875 47.8811 61.4024 48.0728 61.6565 48.2161C61.9153 48.3547 62.2134 48.4241 62.5508 48.4241ZM69.0273 47.5437C69.0273 47.6638 69.0342 47.7771 69.0481 47.8834C69.0666 47.985 69.1059 48.0752 69.1659 48.1537C69.2306 48.2323 69.3231 48.2947 69.4432 48.3409C69.5634 48.3871 69.7274 48.4102 69.9354 48.4102C69.9909 48.4102 70.0556 48.4079 70.1295 48.4033C70.2081 48.3987 70.2889 48.394 70.3721 48.3894C70.4553 48.3802 70.5362 48.3709 70.6147 48.3617C70.6933 48.3478 70.7603 48.3363 70.8158 48.327L70.9406 49.346C70.8065 49.3645 70.6679 49.3807 70.5246 49.3946C70.4045 49.4084 70.2704 49.42 70.1226 49.4292C69.9747 49.4385 69.8268 49.4431 69.6789 49.4431C69.397 49.4431 69.1428 49.413 68.9164 49.353C68.6946 49.2975 68.5051 49.2051 68.3479 49.0757C68.1908 48.9463 68.0707 48.7776 67.9875 48.5696C67.9043 48.3571 67.8627 48.1006 67.8627 47.8002V43.2458H66.5248V42.2198H67.8627V39.9045L69.0273 39.4955V42.2198H70.996V43.2458H69.0273V47.5437ZM73.3895 49.3044H72.2249V42.2198H73.3895V49.3044ZM72.01 40.1749C72.01 40.064 72.0308 39.96 72.0724 39.8629C72.1186 39.7659 72.1764 39.6804 72.2457 39.6064C72.3197 39.5325 72.4052 39.4747 72.5022 39.4331C72.6039 39.3869 72.7102 39.3638 72.8211 39.3638C72.932 39.3638 73.036 39.3869 73.133 39.4331C73.2301 39.4747 73.3133 39.5325 73.3826 39.6064C73.4565 39.6804 73.5143 39.7659 73.5559 39.8629C73.6021 39.96 73.6252 40.064 73.6252 40.1749C73.6252 40.2858 73.6021 40.3921 73.5559 40.4938C73.5143 40.5908 73.4565 40.6763 73.3826 40.7502C73.3133 40.8196 73.2301 40.8773 73.133 40.9235C73.036 40.9651 72.932 40.9859 72.8211 40.9859C72.7102 40.9859 72.6039 40.9651 72.5022 40.9235C72.4052 40.8773 72.3197 40.8196 72.2457 40.7502C72.1764 40.6763 72.1186 40.5908 72.0724 40.4938C72.0308 40.3921 72.01 40.2858 72.01 40.1749ZM76.9684 42.2198H78.3756V43.2458H76.9684V49.3044H75.8038V43.2458H74.6254V42.2198H75.8038V40.9027C75.8038 40.5977 75.8524 40.3389 75.9494 40.1264C76.0465 39.9138 76.1805 39.7428 76.3515 39.6134C76.5271 39.4794 76.7327 39.3846 76.9684 39.3292C77.2087 39.2691 77.4698 39.239 77.7517 39.239C78.0383 39.239 78.2763 39.2529 78.4658 39.2806C78.6552 39.3037 78.7962 39.3222 78.8886 39.3361L78.7985 40.3343C78.7292 40.3297 78.6483 40.3228 78.5559 40.3135C78.4681 40.3043 78.3756 40.2973 78.2786 40.2927C78.1862 40.2881 78.096 40.2835 78.0082 40.2789C77.9204 40.2742 77.8488 40.2719 77.7933 40.2719C77.627 40.2719 77.4906 40.2973 77.3843 40.3482C77.2781 40.3944 77.1926 40.4568 77.1279 40.5353C77.0678 40.6139 77.0262 40.704 77.0031 40.8057C76.98 40.9074 76.9684 41.0137 76.9684 41.1246V42.2198ZM78.849 42.2198H80.1661L81.9129 48.0705L83.5766 42.2198H84.8799L82.3011 50.372C82.2226 50.6215 82.1209 50.8249 81.9961 50.982C81.8714 51.1438 81.7281 51.2708 81.5663 51.3633C81.4092 51.4603 81.2336 51.5273 81.0395 51.5643C80.8454 51.6013 80.6398 51.6198 80.4225 51.6198C80.2284 51.6198 80.0274 51.6082 79.8195 51.5851C79.6115 51.5666 79.392 51.5389 79.1609 51.5019L79.3342 50.4829C79.4266 50.5014 79.526 50.5176 79.6323 50.5314C79.7201 50.5453 79.8195 50.5568 79.9304 50.5661C80.0413 50.5753 80.1545 50.5799 80.27 50.5799C80.5242 50.5799 80.7206 50.5245 80.8593 50.4136C81.0025 50.3027 81.1042 50.1224 81.1643 49.8729L81.2336 49.5471L78.849 42.2198Z" fill="#0B0C0C"/>
</svg>
