<svg width="480" height="320" viewBox="0 0 480 320" fill="none" xmlns="http://www.w3.org/2000/svg">
<g clip-path="url(#clip0_1168_21279)">
<path d="M480 0H0V320H480V0Z" fill="white"/>
<path d="M148.36 129.246C148.36 130.756 148.549 132.209 148.927 133.604C149.304 134.999 149.878 136.23 150.65 137.297C151.421 138.365 152.406 139.222 153.604 139.871C154.802 140.519 156.23 140.844 157.888 140.844C159.546 140.844 160.805 140.589 161.864 140.08C162.922 139.572 163.768 138.935 164.4 138.172C165.031 137.409 165.474 136.584 165.729 135.698C165.984 134.811 166.11 133.99 166.11 133.235V132.89H157.076V127.449H173.053V146.802H166.8V142.665C166.357 143.355 165.807 143.983 165.151 144.549C164.494 145.115 163.756 145.6 162.934 146.002C162.114 146.404 161.215 146.72 160.239 146.95C159.263 147.18 158.224 147.295 157.125 147.295C154.548 147.295 152.259 146.827 150.257 145.891C148.254 144.955 146.568 143.667 145.197 142.025C143.827 140.384 142.785 138.463 142.071 136.263C141.357 134.064 141 131.692 141 129.147C141 126.602 141.398 124.252 142.194 122.044C142.99 119.837 144.122 117.916 145.592 116.282C147.061 114.649 148.833 113.361 150.909 112.417C152.985 111.473 155.312 111 157.889 111C159.563 111 161.151 111.194 162.652 111.579C164.154 111.965 165.524 112.515 166.763 113.229C168.002 113.942 169.098 114.805 170.05 115.814C171.001 116.823 171.773 117.944 172.364 119.175L166.111 122.696C165.733 121.941 165.29 121.239 164.782 120.59C164.272 119.942 163.686 119.384 163.022 118.916C162.357 118.448 161.598 118.079 160.745 117.808C159.891 117.538 158.939 117.402 157.889 117.402C156.231 117.402 154.803 117.726 153.605 118.375C152.407 119.023 151.422 119.881 150.651 120.948C149.88 122.015 149.305 123.25 148.928 124.654C148.55 126.057 148.361 127.507 148.361 128.999V129.246H148.36Z" fill="#0B0C0C"/>
<path d="M195.791 111C198.417 111 200.772 111.472 202.857 112.416C204.941 113.36 206.71 114.649 208.162 116.282C209.615 117.915 210.723 119.836 211.486 122.044C212.249 124.252 212.63 126.62 212.63 129.147C212.63 131.674 212.249 134.064 211.486 136.263C210.723 138.463 209.615 140.384 208.162 142.025C206.71 143.666 204.941 144.955 202.857 145.891C200.773 146.826 198.417 147.294 195.791 147.294C193.165 147.294 190.789 146.826 188.714 145.891C186.637 144.955 184.873 143.667 183.421 142.025C181.969 140.384 180.861 138.463 180.098 136.263C179.335 134.064 178.953 131.692 178.953 129.147C178.953 126.602 179.335 124.252 180.098 122.044C180.861 119.836 181.969 117.915 183.421 116.282C184.873 114.649 186.637 113.36 188.714 112.416C190.79 111.472 193.149 111 195.791 111ZM195.791 140.843C197.334 140.843 198.692 140.551 199.865 139.968C201.039 139.386 202.028 138.577 202.832 137.543C203.636 136.509 204.243 135.286 204.653 133.874C205.063 132.463 205.269 130.92 205.269 129.245V129.048C205.269 127.39 205.063 125.851 204.653 124.431C204.243 123.011 203.636 121.784 202.832 120.75C202.028 119.716 201.039 118.908 199.865 118.325C198.692 117.743 197.334 117.451 195.791 117.451C194.248 117.451 192.886 117.743 191.704 118.325C190.523 118.908 189.534 119.716 188.738 120.75C187.942 121.784 187.339 123.012 186.929 124.431C186.519 125.851 186.313 127.39 186.313 129.048V129.245C186.313 130.92 186.519 132.463 186.929 133.874C187.339 135.286 187.942 136.508 188.738 137.543C189.534 138.577 190.523 139.386 191.704 139.968C192.886 140.551 194.248 140.843 195.791 140.843Z" fill="#0B0C0C"/>
<path d="M225.209 146.801L215.238 111.492H223.239L230.059 138.035H230.305L236.977 111.492H244.879L234.908 146.801H225.209H225.209Z" fill="#0B0C0C"/>
<path d="M285.322 140.842C286.356 140.842 287.32 140.691 288.215 140.387C289.109 140.083 289.881 139.624 290.529 139.008C291.176 138.392 291.69 137.613 292.067 136.669C292.444 135.725 292.633 134.613 292.633 133.333V111.443H299.65V134.391C299.65 136.361 299.293 138.143 298.58 139.735C297.867 141.327 296.875 142.681 295.604 143.798C294.332 144.914 292.82 145.775 291.066 146.383C289.311 146.99 287.393 147.294 285.31 147.294C283.228 147.294 281.309 146.99 279.555 146.383C277.8 145.775 276.283 144.914 275.004 143.798C273.724 142.681 272.729 141.328 272.015 139.735C271.302 138.143 270.945 136.361 270.945 134.391V111.443H278.011V133.333C278.011 134.613 278.2 135.725 278.577 136.669C278.954 137.613 279.467 138.392 280.115 139.008C280.764 139.624 281.535 140.083 282.43 140.387C283.324 140.691 284.289 140.842 285.322 140.842Z" fill="#0B0C0C"/>
<path d="M305.977 111.492H313.116V126.783L325.721 111.492H334.509L322.249 125.527L335.297 146.801H327.001L317.671 130.968L313.116 136.065V146.801H305.977V111.492Z" fill="#0B0C0C"/>
<path d="M256.093 135.108C259.384 135.108 262.052 132.439 262.052 129.147C262.052 125.855 259.384 123.186 256.093 123.186C252.801 123.186 250.133 125.855 250.133 129.147C250.133 132.439 252.801 135.108 256.093 135.108Z" fill="#1D70B8"/>
<path d="M204.918 160.418H217.213C218.859 160.418 220.35 160.695 221.686 161.249C223.022 161.787 224.163 162.544 225.108 163.522C226.069 164.483 226.803 165.64 227.308 166.993C227.829 168.345 228.09 169.828 228.09 171.441C228.09 173.071 227.805 174.562 227.234 175.914C226.68 177.251 225.898 178.399 224.888 179.361C223.878 180.322 222.672 181.072 221.27 181.609C219.885 182.131 218.37 182.392 216.724 182.392H209.22V195.468H204.918V160.418ZM223.519 171.344C223.519 170.317 223.356 169.364 223.03 168.484C222.704 167.604 222.232 166.846 221.613 166.211C220.993 165.559 220.236 165.054 219.339 164.695C218.459 164.321 217.457 164.133 216.333 164.133H209.22V178.701H216.333C217.457 178.701 218.459 178.522 219.339 178.163C220.236 177.805 220.993 177.316 221.613 176.697C222.232 176.061 222.704 175.311 223.03 174.448C223.356 173.568 223.519 172.615 223.519 171.588V171.344ZM246.6 192.975C245.866 193.823 244.872 194.531 243.618 195.102C242.379 195.672 240.921 195.957 239.242 195.957C238.004 195.957 236.855 195.786 235.796 195.444C234.737 195.085 233.816 194.58 233.034 193.929C232.252 193.277 231.641 192.486 231.201 191.558C230.761 190.629 230.541 189.578 230.541 188.405C230.541 187.427 230.696 186.539 231.005 185.74C231.331 184.926 231.779 184.217 232.35 183.614C232.936 183.011 233.637 182.522 234.452 182.147C235.266 181.756 236.179 181.487 237.189 181.341L246.013 180.143V178.554C246.013 177.609 245.866 176.819 245.573 176.183C245.28 175.531 244.881 175.018 244.375 174.643C243.887 174.269 243.3 174 242.616 173.837C241.947 173.674 241.222 173.592 240.44 173.592C239.039 173.592 237.727 173.788 236.505 174.179C235.299 174.57 234.207 175.026 233.23 175.548L231.69 172.297C233.124 171.482 234.623 170.896 236.187 170.537C237.768 170.179 239.324 169.999 240.856 169.999C243.903 169.999 246.209 170.692 247.773 172.077C249.337 173.446 250.119 175.45 250.119 178.09V189.602C250.119 190.433 250.282 191.134 250.608 191.704C250.934 192.258 251.456 192.698 252.173 193.024L249.85 195.957C249.068 195.762 248.392 195.419 247.822 194.931C247.268 194.426 246.877 193.823 246.649 193.122L246.6 192.975ZM239.291 184.347C238.607 184.445 237.98 184.583 237.409 184.763C236.855 184.942 236.383 185.186 235.992 185.496C235.601 185.789 235.291 186.156 235.063 186.596C234.851 187.036 234.745 187.573 234.745 188.209C234.745 188.942 234.884 189.594 235.161 190.164C235.438 190.735 235.812 191.215 236.285 191.606C236.757 191.998 237.303 192.299 237.923 192.511C238.558 192.706 239.218 192.804 239.902 192.804C240.668 192.804 241.418 192.698 242.151 192.486C242.884 192.275 243.536 191.973 244.107 191.582C244.677 191.175 245.133 190.686 245.475 190.115C245.834 189.545 246.013 188.893 246.013 188.16V183.345L239.291 184.347ZM253.866 170.488H258.51L264.669 191.118L270.536 170.488H275.131L266.038 199.233C265.761 200.112 265.403 200.829 264.963 201.383C264.523 201.954 264.018 202.402 263.447 202.728C262.893 203.07 262.274 203.306 261.59 203.437C260.905 203.567 260.18 203.632 259.414 203.632C258.73 203.632 258.021 203.591 257.288 203.51C256.555 203.445 255.781 203.347 254.966 203.217L255.577 199.624C255.903 199.689 256.253 199.746 256.628 199.795C256.938 199.844 257.288 199.884 257.679 199.917C258.07 199.95 258.469 199.966 258.877 199.966C259.773 199.966 260.465 199.77 260.954 199.379C261.459 198.988 261.818 198.353 262.03 197.473L262.274 196.324L253.866 170.488Z" fill="#0B0C0C"/>
</g>
<rect x="0.5" y="0.5" width="479" height="319" stroke="#B1B4B6"/>
<defs>
<clipPath id="clip0_1168_21279">
<rect width="480" height="320" fill="white"/>
</clipPath>
</defs>
</svg>
