<svg width="480" height="320" viewBox="0 0 480 320" fill="none" xmlns="http://www.w3.org/2000/svg">
<g clip-path="url(#clip0_1168_21370)">
<path d="M480 0H0V320H480V0Z" fill="white"/>
<path d="M150.712 130.266C150.712 131.778 150.901 133.233 151.279 134.63C151.657 136.026 152.231 137.259 153.004 138.327C153.777 139.396 154.762 140.254 155.962 140.903C157.161 141.552 158.591 141.877 160.251 141.877C161.91 141.877 163.171 141.623 164.231 141.113C165.291 140.604 166.137 139.967 166.77 139.202C167.402 138.438 167.845 137.613 168.1 136.725C168.355 135.838 168.482 135.016 168.482 134.26V133.915H159.437V128.468H175.432V147.843H169.172V143.701C168.729 144.391 168.178 145.02 167.521 145.587C166.864 146.154 166.125 146.639 165.303 147.041C164.481 147.444 163.581 147.761 162.604 147.991C161.627 148.221 160.587 148.336 159.487 148.336C156.907 148.336 154.615 147.867 152.611 146.93C150.606 145.994 148.918 144.704 147.546 143.06C146.174 141.417 145.131 139.494 144.416 137.292C143.701 135.09 143.344 132.716 143.344 130.168C143.344 127.62 143.742 125.267 144.539 123.057C145.336 120.847 146.47 118.924 147.941 117.288C149.411 115.653 151.185 114.364 153.264 113.418C155.342 112.473 157.671 112 160.251 112C161.927 112 163.517 112.194 165.02 112.58C166.523 112.966 167.895 113.516 169.136 114.231C170.376 114.946 171.473 115.809 172.426 116.819C173.378 117.83 174.151 118.952 174.743 120.184L168.483 123.709C168.105 122.953 167.661 122.251 167.152 121.601C166.642 120.953 166.055 120.393 165.39 119.925C164.724 119.456 163.964 119.087 163.11 118.816C162.256 118.545 161.303 118.409 160.252 118.409C158.592 118.409 157.163 118.734 155.963 119.383C154.763 120.032 153.778 120.891 153.006 121.959C152.233 123.027 151.658 124.264 151.28 125.669C150.902 127.074 150.713 128.525 150.713 130.02V130.266H150.712Z" fill="#0B0C0C"/>
<path d="M198.204 112C200.833 112 203.191 112.473 205.278 113.418C207.365 114.363 209.135 115.653 210.589 117.288C212.043 118.923 213.152 120.846 213.916 123.056C214.68 125.266 215.062 127.637 215.062 130.167C215.062 132.697 214.68 135.09 213.916 137.291C213.152 139.494 212.043 141.417 210.589 143.06C209.136 144.703 207.365 145.993 205.278 146.93C203.192 147.867 200.833 148.335 198.204 148.335C195.576 148.335 193.197 147.867 191.119 146.93C189.04 145.993 187.274 144.703 185.821 143.06C184.366 141.417 183.258 139.494 182.494 137.291C181.73 135.09 181.348 132.715 181.348 130.167C181.348 127.619 181.73 125.266 182.494 123.056C183.258 120.846 184.366 118.923 185.821 117.288C187.274 115.653 189.04 114.363 191.119 113.418C193.197 112.473 195.559 112 198.204 112ZM198.204 141.876C199.749 141.876 201.109 141.585 202.283 141.001C203.458 140.418 204.448 139.608 205.253 138.573C206.058 137.538 206.666 136.314 207.076 134.9C207.487 133.487 207.693 131.942 207.693 130.266V130.069C207.693 128.409 207.487 126.868 207.076 125.446C206.666 124.025 206.058 122.796 205.253 121.761C204.448 120.726 203.458 119.917 202.283 119.333C201.109 118.75 199.749 118.458 198.204 118.458C196.66 118.458 195.296 118.75 194.113 119.333C192.93 119.917 191.941 120.726 191.144 121.761C190.347 122.796 189.743 124.026 189.332 125.446C188.922 126.868 188.716 128.409 188.716 130.069V130.266C188.716 131.942 188.922 133.487 189.332 134.9C189.743 136.314 190.347 137.537 191.144 138.573C191.941 139.608 192.93 140.418 194.113 141.001C195.296 141.585 196.66 141.876 198.204 141.876Z" fill="#0B0C0C"/>
<path d="M227.653 147.842L217.672 112.494H225.682L232.509 139.066H232.755L239.434 112.494H247.345L237.364 147.842H227.654H227.653Z" fill="#0B0C0C"/>
<path d="M287.819 141.876C288.854 141.876 289.819 141.724 290.714 141.42C291.61 141.116 292.382 140.656 293.031 140.04C293.679 139.423 294.193 138.643 294.571 137.698C294.949 136.753 295.138 135.64 295.138 134.358V112.443H302.162V135.418C302.162 137.39 301.805 139.173 301.091 140.767C300.377 142.361 299.384 143.717 298.111 144.834C296.839 145.953 295.324 146.815 293.569 147.423C291.812 148.03 289.891 148.335 287.807 148.335C285.722 148.335 283.801 148.03 282.045 147.423C280.288 146.815 278.77 145.952 277.489 144.834C276.208 143.717 275.211 142.362 274.497 140.767C273.783 139.173 273.426 137.389 273.426 135.418V112.443H280.499V134.358C280.499 135.64 280.688 136.753 281.066 137.698C281.444 138.643 281.957 139.423 282.606 140.04C283.255 140.656 284.027 141.116 284.923 141.42C285.819 141.724 286.784 141.876 287.819 141.876Z" fill="#0B0C0C"/>
<path d="M308.5 112.494H315.647V127.801L328.266 112.494H337.065L324.791 126.544L337.853 147.842H329.548L320.207 131.991L315.647 137.094V147.842H308.5V112.494Z" fill="#0B0C0C"/>
<path d="M258.56 136.135C261.855 136.135 264.527 133.463 264.527 130.167C264.527 126.872 261.855 124.2 258.56 124.2C255.265 124.2 252.594 126.872 252.594 130.167C252.594 133.463 255.265 136.135 258.56 136.135Z" fill="#1D70B8"/>
<path d="M173.326 190.253H173.57L179.541 161.378H183.946L176.14 196.469H171.025L163.562 167.813L156.123 196.469H150.984L143.202 161.378H147.558L153.627 190.253H153.92L161.555 161.378H165.715L173.326 190.253ZM201.89 193.973C201.156 194.821 200.161 195.53 198.904 196.101C197.665 196.672 196.204 196.958 194.524 196.958C193.284 196.958 192.134 196.787 191.074 196.444C190.013 196.085 189.092 195.579 188.309 194.927C187.526 194.274 186.914 193.483 186.473 192.553C186.033 191.623 185.813 190.571 185.813 189.396C185.813 188.418 185.968 187.529 186.278 186.729C186.604 185.914 187.052 185.204 187.623 184.6C188.211 183.997 188.912 183.507 189.728 183.132C190.544 182.74 191.457 182.471 192.469 182.324L201.303 181.125V179.535C201.303 178.589 201.156 177.797 200.862 177.161C200.568 176.509 200.169 175.995 199.663 175.62C199.174 175.244 198.586 174.975 197.901 174.812C197.232 174.649 196.506 174.567 195.723 174.567C194.32 174.567 193.007 174.763 191.783 175.155C190.576 175.546 189.483 176.003 188.504 176.525L186.963 173.27C188.398 172.455 189.899 171.867 191.465 171.508C193.048 171.15 194.606 170.97 196.139 170.97C199.19 170.97 201.498 171.663 203.064 173.05C204.631 174.42 205.414 176.427 205.414 179.07V190.596C205.414 191.428 205.577 192.129 205.903 192.7C206.229 193.255 206.751 193.695 207.469 194.021L205.144 196.958C204.361 196.762 203.684 196.42 203.113 195.93C202.559 195.424 202.167 194.821 201.939 194.119L201.89 193.973ZM194.573 185.334C193.888 185.432 193.26 185.571 192.689 185.75C192.134 185.93 191.661 186.175 191.27 186.484C190.878 186.778 190.568 187.145 190.34 187.586C190.128 188.026 190.022 188.564 190.022 189.201C190.022 189.935 190.16 190.587 190.438 191.158C190.715 191.729 191.09 192.211 191.563 192.602C192.036 192.994 192.583 193.295 193.203 193.508C193.839 193.703 194.5 193.801 195.185 193.801C195.952 193.801 196.702 193.695 197.436 193.483C198.17 193.271 198.823 192.969 199.394 192.578C199.965 192.17 200.422 191.68 200.764 191.109C201.123 190.538 201.303 189.886 201.303 189.152V184.331L194.573 185.334ZM211.954 161.378H216.065V190.865C216.065 191.273 216.098 191.631 216.163 191.941C216.245 192.251 216.375 192.512 216.555 192.724C216.734 192.937 216.979 193.1 217.289 193.214C217.615 193.312 218.015 193.361 218.488 193.361C219.01 193.361 219.483 193.344 219.907 193.312C220.331 193.279 220.706 193.247 221.033 193.214L221.449 196.664C220.976 196.713 220.502 196.762 220.029 196.811C219.622 196.844 219.173 196.876 218.684 196.909C218.194 196.942 217.729 196.958 217.289 196.958C216.555 196.958 215.861 196.868 215.209 196.689C214.556 196.526 213.985 196.248 213.496 195.857C213.023 195.465 212.647 194.959 212.37 194.34C212.093 193.72 211.954 192.961 211.954 192.064V161.378ZM224.465 161.378H228.576V190.865C228.576 191.273 228.609 191.631 228.674 191.941C228.756 192.251 228.886 192.512 229.066 192.724C229.245 192.937 229.49 193.1 229.8 193.214C230.126 193.312 230.526 193.361 230.999 193.361C231.521 193.361 231.994 193.344 232.418 193.312C232.843 193.279 233.218 193.247 233.544 193.214L233.96 196.664C233.487 196.713 233.014 196.762 232.541 196.811C232.133 196.844 231.684 196.876 231.195 196.909C230.705 196.942 230.241 196.958 229.8 196.958C229.066 196.958 228.373 196.868 227.72 196.689C227.067 196.526 226.496 196.248 226.007 195.857C225.534 195.465 225.159 194.959 224.881 194.34C224.604 193.72 224.465 192.961 224.465 192.064V161.378ZM239.938 185.236C240.019 186.411 240.256 187.496 240.647 188.491C241.039 189.486 241.569 190.351 242.238 191.085C242.923 191.803 243.723 192.366 244.636 192.773C245.566 193.165 246.594 193.361 247.719 193.361C249.106 193.361 250.321 193.132 251.366 192.676C252.426 192.202 253.397 191.615 254.278 190.914L256.382 193.875C255.256 194.772 253.951 195.514 252.467 196.101C250.998 196.672 249.351 196.958 247.524 196.958C245.713 196.958 244.073 196.64 242.605 196.004C241.137 195.351 239.881 194.454 238.837 193.312C237.809 192.154 237.018 190.783 236.463 189.201C235.908 187.602 235.631 185.865 235.631 183.988C235.631 182.08 235.9 180.334 236.438 178.752C236.993 177.153 237.768 175.783 238.763 174.641C239.758 173.482 240.949 172.585 242.336 171.949C243.723 171.296 245.264 170.97 246.961 170.97C248.608 170.97 250.093 171.296 251.414 171.949C252.736 172.585 253.862 173.482 254.791 174.641C255.721 175.783 256.431 177.153 256.92 178.752C257.426 180.334 257.679 182.063 257.679 183.94V185.236H239.938ZM246.814 174.567C245.77 174.567 244.84 174.771 244.024 175.179C243.209 175.587 242.507 176.133 241.92 176.819C241.349 177.504 240.892 178.295 240.549 179.192C240.223 180.073 240.036 180.987 239.987 181.933H253.225C253.193 180.97 253.021 180.049 252.711 179.168C252.418 178.271 251.994 177.487 251.439 176.819C250.901 176.133 250.24 175.587 249.457 175.179C248.69 174.771 247.809 174.567 246.814 174.567ZM268.893 190.253C268.893 190.677 268.918 191.077 268.967 191.452C269.032 191.811 269.171 192.129 269.383 192.406C269.611 192.684 269.937 192.904 270.362 193.067C270.786 193.23 271.365 193.312 272.099 193.312C272.295 193.312 272.523 193.304 272.784 193.287C273.062 193.271 273.347 193.255 273.641 193.238C273.934 193.206 274.22 193.173 274.497 193.14C274.774 193.092 275.011 193.051 275.207 193.018L275.647 196.615C275.174 196.681 274.685 196.738 274.179 196.787C273.755 196.836 273.282 196.876 272.76 196.909C272.238 196.942 271.716 196.958 271.194 196.958C270.198 196.958 269.301 196.852 268.502 196.64C267.719 196.444 267.05 196.118 266.495 195.661C265.941 195.204 265.516 194.609 265.223 193.875C264.929 193.124 264.782 192.219 264.782 191.158V175.081H260.059V171.46H264.782V163.286L268.893 161.843V171.46H275.843V175.081H268.893V190.253Z" fill="#0B0C0C"/>
</g>
<rect x="0.5" y="0.5" width="479" height="319" stroke="#B1B4B6"/>
<defs>
<clipPath id="clip0_1168_21370">
<rect width="480" height="320" fill="white"/>
</clipPath>
</defs>
</svg>
