<svg width="152" height="75" viewBox="0 0 152 75" fill="none" xmlns="http://www.w3.org/2000/svg">
<rect x="1.46875" y="0.5" width="150" height="74" fill="white" stroke="#F3F3F3"/>
<path d="M51.3288 30.8799C51.3288 31.3081 51.3824 31.7201 51.4895 32.1157C51.5964 32.5113 51.7593 32.8604 51.9783 33.1629C52.1971 33.4656 52.4762 33.7088 52.8161 33.8926C53.156 34.0765 53.5611 34.1686 54.0313 34.1686C54.5014 34.1686 54.8587 34.0964 55.1591 33.9522C55.4592 33.8079 55.699 33.6275 55.8782 33.4109C56.0573 33.1945 56.183 32.9607 56.2553 32.7093C56.3274 32.458 56.3634 32.2252 56.3634 32.011V31.9133H53.8009V30.3703H58.3325V35.8582H56.559V34.6851C56.4334 34.8807 56.2773 35.0587 56.0912 35.2194C55.905 35.3798 55.6956 35.5173 55.4626 35.6312C55.2298 35.7453 54.9749 35.835 54.6981 35.9001C54.4211 35.9653 54.1266 35.9978 53.8148 35.9978C53.0839 35.9978 52.4346 35.8652 51.8667 35.5998C51.2988 35.3345 50.8204 34.9692 50.4318 34.5037C50.0431 34.0383 49.7476 33.4936 49.5449 32.8698C49.3425 32.2462 49.2412 31.5736 49.2412 30.8519C49.2412 30.1302 49.3541 29.4638 49.5799 28.8378C49.8057 28.2118 50.1268 27.6671 50.5436 27.2039C50.9603 26.7408 51.4629 26.3755 52.0518 26.1078C52.6406 25.84 53.3005 25.7062 54.0314 25.7062C54.5062 25.7062 54.9566 25.7609 55.3825 25.8702C55.8085 25.9797 56.1972 26.1356 56.5486 26.338C56.9 26.5404 57.2107 26.7849 57.4808 27.0711C57.7506 27.3572 57.9696 27.6751 58.1373 28.0242L56.3636 29.0225C56.2565 28.8085 56.1308 28.6095 55.9865 28.4254C55.8421 28.2418 55.6758 28.0834 55.4874 27.9507C55.2987 27.818 55.0835 27.7133 54.8415 27.6366C54.5993 27.5598 54.3294 27.5213 54.0316 27.5213C53.5614 27.5213 53.1564 27.6134 52.8165 27.7972C52.4766 27.981 52.1974 28.2242 51.9786 28.5269C51.7598 28.8294 51.5969 29.1797 51.4898 29.5777C51.3827 29.9757 51.3292 30.3867 51.3292 30.81V30.8799H51.3288Z" fill="#0B0C0C"/>
<path d="M64.7817 25.7061C65.5265 25.7061 66.1945 25.8399 66.7858 26.1077C67.3771 26.3754 67.8786 26.7407 68.2907 27.2038C68.7025 27.667 69.0168 28.2117 69.2333 28.8377C69.4497 29.4637 69.5578 30.1352 69.5578 30.8518C69.5578 31.5684 69.4497 32.2461 69.2333 32.8697C69.0168 33.4935 68.7025 34.0382 68.2907 34.5035C67.8788 34.9689 67.3771 35.3344 66.7858 35.5997C66.1947 35.865 65.5265 35.9977 64.7817 35.9977C64.037 35.9977 63.363 35.865 62.7743 35.5997C62.1854 35.3344 61.685 34.9691 61.2732 34.5035C60.8611 34.0382 60.547 33.4935 60.3306 32.8697C60.1142 32.2461 60.0059 31.5735 60.0059 30.8518C60.0059 30.1301 60.1142 29.4637 60.3306 28.8377C60.547 28.2117 60.8611 27.667 61.2732 27.2038C61.685 26.7407 62.1854 26.3754 62.7743 26.1077C63.3632 25.8399 64.0322 25.7061 64.7817 25.7061ZM64.7817 34.1683C65.2194 34.1683 65.6046 34.0857 65.9373 33.9203C66.2701 33.7552 66.5508 33.5259 66.7786 33.2327C67.0068 32.9394 67.1791 32.5927 67.2954 32.1923C67.4117 31.7921 67.47 31.3545 67.47 30.8798V30.8238C67.47 30.3537 67.4117 29.9173 67.2954 29.5147C67.1791 29.1121 67.0068 28.764 66.7786 28.4709C66.5506 28.1777 66.2701 27.9485 65.9373 27.7831C65.6046 27.618 65.2194 27.5353 64.7817 27.5353C64.3441 27.5353 63.9579 27.618 63.6226 27.7831C63.2874 27.9485 63.0071 28.1777 62.7813 28.4709C62.5555 28.764 62.3844 29.1122 62.2681 29.5147C62.1518 29.9173 62.0935 30.3537 62.0935 30.8238V30.8798C62.0935 31.3545 62.1518 31.7921 62.2681 32.1923C62.3844 32.5927 62.5555 32.9393 62.7813 33.2327C63.0071 33.5259 63.2874 33.7552 63.6226 33.9203C63.9579 34.0857 64.3441 34.1683 64.7817 34.1683Z" fill="#0B0C0C"/>
<path d="M73.1277 35.858L70.2998 25.8458H72.5692L74.5035 33.3723H74.5733L76.4656 25.8458H78.7069L75.879 35.858H73.1279H73.1277Z" fill="#0B0C0C"/>
<path d="M90.1755 34.1682C90.4687 34.1682 90.7422 34.1252 90.9958 34.0391C91.2496 33.953 91.4684 33.8227 91.6523 33.6481C91.8359 33.4735 91.9816 33.2526 92.0887 32.9847C92.1956 32.7172 92.2492 32.4018 92.2492 32.0388V25.8317H94.2392V32.3389C94.2392 32.8976 94.1381 33.4027 93.9358 33.8541C93.7336 34.3056 93.4522 34.6897 93.0916 35.0062C92.7311 35.3229 92.302 35.5671 91.8045 35.7393C91.3069 35.9114 90.7627 35.9976 90.1721 35.9976C89.5815 35.9976 89.0371 35.9114 88.5397 35.7393C88.0419 35.5671 87.6117 35.3227 87.2488 35.0062C86.8859 34.6897 86.6035 34.3058 86.4011 33.8541C86.1988 33.4027 86.0977 32.8974 86.0977 32.3389V25.8317H88.1017V32.0388C88.1017 32.4018 88.1553 32.7172 88.2622 32.9847C88.3693 33.2526 88.5148 33.4735 88.6986 33.6481C88.8825 33.8227 89.1013 33.953 89.355 34.0391C89.6088 34.1252 89.8824 34.1682 90.1755 34.1682Z" fill="#0B0C0C"/>
<path d="M96.0361 25.8458H98.0612V30.1816L101.636 25.8458H104.129L100.652 29.8255L104.352 35.858H102L99.353 31.3684L98.0612 32.8137V35.858H96.0361V25.8458Z" fill="#0B0C0C"/>
<path d="M81.8848 32.5421C82.8184 32.5421 83.5752 31.7853 83.5752 30.8518C83.5752 29.9183 82.8184 29.1615 81.8848 29.1615C80.9512 29.1615 80.1943 29.9183 80.1943 30.8518C80.1943 31.7853 80.9512 32.5421 81.8848 32.5421Z" fill="#1D70B8"/>
<path d="M57.7432 47.5594H57.8126L59.504 39.3796H60.7518L58.5404 49.3202H57.0916L54.9773 41.2027L52.87 49.3202H51.4142L49.2098 39.3796H50.4437L52.1629 47.5594H52.2461L54.4089 39.3796H55.5873L57.7432 47.5594ZM65.8349 48.6131C65.627 48.8534 65.3451 49.0545 64.9892 49.2162C64.638 49.378 64.2244 49.4588 63.7484 49.4588C63.3971 49.4588 63.0713 49.4103 62.7709 49.3133C62.4705 49.2116 62.2094 49.0683 61.9876 48.8835C61.7658 48.6986 61.5925 48.4745 61.4677 48.2111C61.3429 47.9476 61.2805 47.6496 61.2805 47.3168C61.2805 47.0395 61.3244 46.7877 61.4122 46.5612C61.5047 46.3301 61.6318 46.1291 61.7935 45.9581C61.9599 45.7871 62.1586 45.6485 62.3897 45.5422C62.6207 45.4313 62.8795 45.355 63.1661 45.3134L65.6686 44.9738V44.5232C65.6686 44.2551 65.627 44.031 65.5438 43.8508C65.4606 43.6659 65.3474 43.5203 65.2041 43.414C65.0655 43.3078 64.8991 43.2315 64.705 43.1853C64.5155 43.1391 64.3099 43.116 64.088 43.116C63.6906 43.116 63.3186 43.1714 62.972 43.2823C62.63 43.3933 62.3204 43.5227 62.0431 43.6705L61.6063 42.7486C62.013 42.5175 62.4382 42.3511 62.8819 42.2495C63.3301 42.1478 63.7715 42.097 64.2059 42.097C65.0701 42.097 65.724 42.2934 66.1677 42.6862C66.6113 43.0744 66.8331 43.6428 66.8331 44.3915V47.6565C66.8331 47.8922 66.8794 48.0909 66.9718 48.2526C67.0642 48.4098 67.2121 48.5346 67.4154 48.627L66.7569 49.4588C66.5351 49.4034 66.3433 49.3063 66.1815 49.1677C66.0244 49.0244 65.9135 48.8534 65.8488 48.6547L65.8349 48.6131ZM63.7622 46.1661C63.5681 46.1938 63.3902 46.2331 63.2285 46.2839C63.0713 46.3348 62.9373 46.4041 62.8264 46.4919C62.7155 46.5751 62.6277 46.6791 62.563 46.8038C62.5029 46.9286 62.4729 47.0811 62.4729 47.2614C62.4729 47.4693 62.5121 47.6542 62.5907 47.8159C62.6693 47.9777 62.7756 48.114 62.9096 48.2249C63.0436 48.3358 63.1984 48.4213 63.374 48.4814C63.5543 48.5369 63.7414 48.5646 63.9355 48.5646C64.1527 48.5646 64.3653 48.5346 64.5733 48.4745C64.7812 48.4144 64.9661 48.3289 65.1278 48.218C65.2896 48.1025 65.419 47.9638 65.516 47.8021C65.6177 47.6403 65.6686 47.4555 65.6686 47.2475V45.8819L63.7622 46.1661ZM68.686 39.3796H69.8505V47.7327C69.8505 47.8483 69.8598 47.9499 69.8783 48.0378C69.9014 48.1256 69.9384 48.1995 69.9892 48.2596C70.04 48.3197 70.1093 48.3659 70.1971 48.3982C70.2896 48.426 70.4028 48.4398 70.5368 48.4398C70.6847 48.4398 70.8187 48.4352 70.9389 48.426C71.059 48.4167 71.1653 48.4075 71.2578 48.3982L71.3756 49.3756C71.2416 49.3895 71.1076 49.4034 70.9735 49.4172C70.858 49.4265 70.7309 49.4357 70.5923 49.445C70.4536 49.4542 70.3219 49.4588 70.1971 49.4588C69.9892 49.4588 69.7928 49.4334 69.6079 49.3826C69.4231 49.3364 69.2613 49.2578 69.1227 49.1469C68.9887 49.036 68.8824 48.8927 68.8038 48.7171C68.7252 48.5415 68.686 48.3266 68.686 48.0724V39.3796ZM72.2302 39.3796H73.3948V47.7327C73.3948 47.8483 73.404 47.9499 73.4225 48.0378C73.4456 48.1256 73.4826 48.1995 73.5334 48.2596C73.5843 48.3197 73.6536 48.3659 73.7414 48.3982C73.8338 48.426 73.947 48.4398 74.0811 48.4398C74.2289 48.4398 74.363 48.4352 74.4831 48.426C74.6033 48.4167 74.7096 48.4075 74.802 48.3982L74.9198 49.3756C74.7858 49.3895 74.6518 49.4034 74.5178 49.4172C74.4022 49.4265 74.2752 49.4357 74.1365 49.445C73.9979 49.4542 73.8662 49.4588 73.7414 49.4588C73.5334 49.4588 73.337 49.4334 73.1522 49.3826C72.9673 49.3364 72.8056 49.2578 72.6669 49.1469C72.5329 49.036 72.4266 48.8927 72.348 48.7171C72.2695 48.5415 72.2302 48.3266 72.2302 48.0724V39.3796ZM76.6132 46.1384C76.6363 46.4711 76.7033 46.7784 76.8142 47.0603C76.9252 47.3422 77.0754 47.5872 77.2648 47.7951C77.4589 47.9985 77.6854 48.1579 77.9442 48.2734C78.2076 48.3844 78.4987 48.4398 78.8176 48.4398C79.2104 48.4398 79.5547 48.3751 79.8505 48.2457C80.1509 48.1117 80.4259 47.9453 80.6754 47.7466L81.2716 48.5854C80.9527 48.8396 80.583 49.0498 80.1624 49.2162C79.7465 49.378 79.2798 49.4588 78.7622 49.4588C78.2492 49.4588 77.7847 49.3687 77.3688 49.1885C76.9529 49.0036 76.597 48.7494 76.3013 48.426C76.0101 48.0978 75.786 47.7096 75.6289 47.2614C75.4717 46.8085 75.3932 46.3163 75.3932 45.7848C75.3932 45.2441 75.4694 44.7496 75.6219 44.3014C75.7791 43.8485 75.9986 43.4603 76.2805 43.1368C76.5624 42.8086 76.8997 42.5545 77.2926 42.3742C77.6854 42.1894 78.1221 42.097 78.6027 42.097C79.0695 42.097 79.49 42.1894 79.8644 42.3742C80.2387 42.5545 80.5576 42.8086 80.821 43.1368C81.0844 43.4603 81.2854 43.8485 81.4241 44.3014C81.5674 44.7496 81.639 45.2395 81.639 45.771V46.1384H76.6132ZM78.5611 43.116C78.2654 43.116 78.0019 43.1737 77.7709 43.2893C77.5398 43.4048 77.3411 43.5596 77.1747 43.7537C77.013 43.9478 76.8836 44.172 76.7865 44.4261C76.6941 44.6757 76.6409 44.9345 76.6271 45.2025H80.3773C80.3681 44.9299 80.3196 44.6688 80.2318 44.4192C80.1486 44.165 80.0284 43.9432 79.8713 43.7537C79.7188 43.5596 79.5316 43.4048 79.3098 43.2893C79.0926 43.1737 78.843 43.116 78.5611 43.116ZM84.8158 47.5594C84.8158 47.6796 84.8228 47.7928 84.8366 47.8991C84.8551 48.0008 84.8944 48.0909 84.9545 48.1695C85.0192 48.248 85.1116 48.3104 85.2317 48.3566C85.3519 48.4028 85.516 48.426 85.7239 48.426C85.7794 48.426 85.8441 48.4236 85.918 48.419C85.9966 48.4144 86.0775 48.4098 86.1606 48.4052C86.2438 48.3959 86.3247 48.3867 86.4033 48.3774C86.4818 48.3636 86.5488 48.352 86.6043 48.3428L86.7291 49.3618C86.5951 49.3803 86.4564 49.3964 86.3132 49.4103C86.193 49.4242 86.059 49.4357 85.9111 49.445C85.7632 49.4542 85.6153 49.4588 85.4674 49.4588C85.1855 49.4588 84.9314 49.4288 84.7049 49.3687C84.4831 49.3133 84.2936 49.2208 84.1365 49.0914C83.9793 48.962 83.8592 48.7934 83.776 48.5854C83.6928 48.3728 83.6512 48.1163 83.6512 47.8159V43.2615H82.3133V42.2356H83.6512V39.9203L84.8158 39.5113V42.2356H86.7845V43.2615H84.8158V47.5594Z" fill="#0B0C0C"/>
</svg>
