<svg width="153" height="75" viewBox="0 0 153 75" fill="none" xmlns="http://www.w3.org/2000/svg">
<rect x="0.9375" y="0.5" width="151" height="74" fill="white" stroke="#F3F3F3"/>
<path d="M39.6654 41.001H43.1523C43.619 41.001 44.0419 41.0796 44.4208 41.2367C44.7998 41.3892 45.1233 41.6041 45.3913 41.8814C45.664 42.1541 45.872 42.4822 46.0152 42.8658C46.1631 43.2493 46.237 43.6699 46.237 44.1274C46.237 44.5895 46.1562 45.0124 45.9944 45.396C45.8373 45.7749 45.6155 46.1007 45.3289 46.3734C45.0424 46.6461 44.7004 46.8586 44.303 47.0112C43.9102 47.159 43.4804 47.233 43.0136 47.233H40.8855V50.9417H39.6654V41.001ZM44.9407 44.0997C44.9407 43.8085 44.8945 43.5382 44.8021 43.2886C44.7097 43.0391 44.5757 42.8242 44.4 42.6439C44.2244 42.4591 44.0095 42.3158 43.7554 42.2141C43.5058 42.1079 43.2216 42.0547 42.9027 42.0547H40.8855V46.1862H42.9027C43.2216 46.1862 43.5058 46.1354 43.7554 46.0337C44.0095 45.9321 44.2244 45.7934 44.4 45.6178C44.5757 45.4376 44.7097 45.225 44.8021 44.9801C44.8945 44.7305 44.9407 44.4601 44.9407 44.169V44.0997ZM51.4866 50.2346C51.2786 50.4749 50.9967 50.6759 50.6409 50.8377C50.2896 50.9994 49.876 51.0803 49.4 51.0803C49.0488 51.0803 48.723 51.0318 48.4226 50.9347C48.1222 50.833 47.8611 50.6898 47.6393 50.5049C47.4174 50.3201 47.2441 50.0959 47.1194 49.8325C46.9946 49.5691 46.9322 49.271 46.9322 48.9383C46.9322 48.661 46.9761 48.4091 47.0639 48.1827C47.1563 47.9516 47.2834 47.7506 47.4452 47.5796C47.6115 47.4086 47.8103 47.27 48.0413 47.1637C48.2724 47.0527 48.5312 46.9765 48.8177 46.9349L51.3202 46.5952V46.1446C51.3202 45.8766 51.2786 45.6525 51.1954 45.4722C51.1123 45.2874 50.999 45.1418 50.8558 45.0355C50.7171 44.9292 50.5508 44.853 50.3567 44.8067C50.1672 44.7605 49.9615 44.7374 49.7397 44.7374C49.3423 44.7374 48.9702 44.7929 48.6236 44.9038C48.2816 45.0147 47.972 45.1441 47.6947 45.292L47.258 44.37C47.6647 44.139 48.0899 43.9726 48.5335 43.8709C48.9818 43.7692 49.4231 43.7184 49.8575 43.7184C50.7217 43.7184 51.3757 43.9148 51.8193 44.3076C52.263 44.6958 52.4848 45.2643 52.4848 46.0129V49.2779C52.4848 49.5136 52.531 49.7124 52.6234 49.8741C52.7159 50.0312 52.8638 50.156 53.0671 50.2484L52.4086 51.0803C52.1867 51.0248 51.9949 50.9278 51.8332 50.7891C51.6761 50.6459 51.5651 50.4749 51.5004 50.2762L51.4866 50.2346ZM49.4139 47.7875C49.2198 47.8153 49.0419 47.8546 48.8801 47.9054C48.723 47.9562 48.589 48.0256 48.4781 48.1134C48.3671 48.1965 48.2793 48.3005 48.2146 48.4253C48.1546 48.5501 48.1245 48.7026 48.1245 48.8828C48.1245 49.0908 48.1638 49.2756 48.2424 49.4374C48.3209 49.5991 48.4272 49.7355 48.5612 49.8464C48.6953 49.9573 48.8501 50.0428 49.0257 50.1029C49.2059 50.1583 49.3931 50.1861 49.5872 50.1861C49.8044 50.1861 50.017 50.156 50.2249 50.0959C50.4329 50.0359 50.6178 49.9504 50.7795 49.8394C50.9413 49.7239 51.0707 49.5853 51.1677 49.4235C51.2694 49.2618 51.3202 49.0769 51.3202 48.869V47.5033L49.4139 47.7875ZM53.5474 43.8571H54.8645L56.6113 49.7077L58.275 43.8571H59.5783L56.9995 52.0092C56.921 52.2587 56.8193 52.4621 56.6945 52.6192C56.5697 52.781 56.4265 52.9081 56.2647 53.0005C56.1076 53.0975 55.932 53.1645 55.7379 53.2015C55.5438 53.2385 55.3381 53.257 55.1209 53.257C54.9268 53.257 54.7258 53.2454 54.5178 53.2223C54.3099 53.2038 54.0904 53.1761 53.8593 53.1391L54.0326 52.1201C54.125 52.1386 54.2244 52.1548 54.3307 52.1686C54.4185 52.1825 54.5178 52.194 54.6288 52.2033C54.7397 52.2125 54.8529 52.2172 54.9684 52.2172C55.2226 52.2172 55.419 52.1617 55.5577 52.0508C55.7009 51.9399 55.8026 51.7596 55.8627 51.5101L55.932 51.1843L53.5474 43.8571Z" fill="#0B0C0C"/>
<path d="M92.1001 34.1617C93.034 34.1617 93.7911 33.4046 93.7911 32.4708C93.7911 31.5369 93.034 30.7798 92.1001 30.7798C91.1662 30.7798 90.4092 31.5369 90.4092 32.4708C90.4092 33.4046 91.1662 34.1617 92.1001 34.1617Z" fill="#1D70B8"/>
<path d="M61.5356 32.4988C61.5356 32.9271 61.5891 33.3393 61.6963 33.7351C61.8032 34.1309 61.9661 34.4801 62.1852 34.7827C62.4041 35.0855 62.6833 35.3288 63.0233 35.5127C63.3633 35.6966 63.7685 35.7888 64.2389 35.7888C64.7092 35.7888 65.0666 35.7166 65.367 35.5723C65.6673 35.4279 65.9071 35.2474 66.0864 35.0308C66.2656 34.8143 66.3913 34.5804 66.4636 34.3289C66.5358 34.0775 66.5718 33.8446 66.5718 33.6303V33.5326H64.0084V31.989H68.5415V37.479H66.7675V36.3055C66.6417 36.5012 66.4856 36.6793 66.2995 36.84C66.1132 37.0005 65.9037 37.138 65.6707 37.252C65.4378 37.3661 65.1828 37.4558 64.9059 37.521C64.6288 37.5862 64.3342 37.6188 64.0224 37.6188C63.2912 37.6188 62.6417 37.486 62.0736 37.2206C61.5055 36.9551 61.027 36.5897 60.6382 36.124C60.2494 35.6584 59.9538 35.1135 59.7511 34.4895C59.5486 33.8656 59.4473 33.1928 59.4473 32.4708C59.4473 31.7488 59.5602 31.0821 59.7861 30.4559C60.0119 29.8296 60.3332 29.2847 60.7501 28.8214C61.1669 28.358 61.6696 27.9926 62.2587 27.7248C62.8478 27.4569 63.5078 27.323 64.239 27.323C64.714 27.323 65.1645 27.3778 65.5905 27.4871C66.0167 27.5966 66.4054 27.7526 66.757 27.9551C67.1085 28.1576 67.4193 28.4022 67.6895 28.6885C67.9594 28.9747 68.1785 29.2927 68.3462 29.6419L66.5719 30.6406C66.4648 30.4265 66.3391 30.2274 66.1948 30.0434C66.0503 29.8596 65.8839 29.7011 65.6954 29.5684C65.5067 29.4357 65.2914 29.3309 65.0494 29.2542C64.8071 29.1774 64.5371 29.1388 64.2392 29.1388C63.7689 29.1388 63.3637 29.231 63.0237 29.4149C62.6837 29.5988 62.4044 29.842 62.1855 30.1449C61.9667 30.4475 61.8037 30.7979 61.6966 31.1961C61.5895 31.5943 61.5359 32.0054 61.5359 32.4288V32.4988H61.5356Z" fill="#0B0C0C"/>
<path d="M74.9923 27.3229C75.7373 27.3229 76.4055 27.4568 76.997 27.7246C77.5883 27.9925 78.0902 28.3579 78.5023 28.8212C78.9143 29.2846 79.2287 29.8295 79.4452 30.4557C79.6617 31.082 79.7699 31.7538 79.7699 32.4707C79.7699 33.1875 79.6617 33.8655 79.4452 34.4894C79.2287 35.1134 78.9143 35.6583 78.5023 36.1239C78.0903 36.5894 77.5884 36.955 76.997 37.2205C76.4057 37.4859 75.7373 37.6186 74.9923 37.6186C74.2473 37.6186 73.5731 37.4859 72.9842 37.2205C72.3951 36.955 71.8946 36.5896 71.4826 36.1239C71.0704 35.6583 70.7562 35.1134 70.5397 34.4894C70.3232 33.8655 70.2148 33.1926 70.2148 32.4707C70.2148 31.7487 70.3232 31.082 70.5397 30.4557C70.7562 29.8295 71.0704 29.2846 71.4826 28.8212C71.8946 28.3579 72.3951 27.9925 72.9842 27.7246C73.5732 27.4568 74.2425 27.3229 74.9923 27.3229ZM74.9923 35.7886C75.43 35.7886 75.8154 35.7061 76.1482 35.5406C76.4811 35.3754 76.7619 35.146 76.9898 34.8527C77.2181 34.5593 77.3904 34.2125 77.5067 33.8119C77.6231 33.4115 77.6814 32.9738 77.6814 32.4988V32.4429C77.6814 31.9725 77.6231 31.536 77.5067 31.1332C77.3904 30.7304 77.2181 30.3822 76.9898 30.089C76.7617 29.7957 76.4811 29.5664 76.1482 29.4009C75.8154 29.2358 75.43 29.1531 74.9923 29.1531C74.5545 29.1531 74.1681 29.2358 73.8327 29.4009C73.4975 29.5664 73.217 29.7957 72.9912 30.089C72.7653 30.3822 72.5942 30.7306 72.4778 31.1332C72.3615 31.536 72.3031 31.9725 72.3031 32.4429V32.4988C72.3031 32.9738 72.3615 33.4115 72.4778 33.8119C72.5942 34.2125 72.7653 34.5591 72.9912 34.8527C73.217 35.146 73.4975 35.3754 73.8327 35.5406C74.1681 35.7061 74.5545 35.7886 74.9923 35.7886Z" fill="#0B0C0C"/>
<path d="M83.3415 37.4789L80.5127 27.4628H82.7828L84.7178 34.9923H84.7875L86.6805 27.4628H88.9225L86.0936 37.4789H83.3417H83.3415Z" fill="#0B0C0C"/>
<path d="M100.395 35.7887C100.688 35.7887 100.961 35.7457 101.215 35.6596C101.469 35.5734 101.688 35.4431 101.872 35.2684C102.056 35.0937 102.201 34.8728 102.308 34.6048C102.415 34.3371 102.469 34.0217 102.469 33.6584V27.4489H104.46V33.9587C104.46 34.5176 104.358 35.0229 104.156 35.4745C103.954 35.9262 103.672 36.3104 103.312 36.627C102.951 36.9438 102.522 37.1881 102.024 37.3604C101.526 37.5326 100.982 37.6189 100.391 37.6189C99.8004 37.6189 99.2559 37.5326 98.7582 37.3604C98.2602 37.1881 97.83 36.9437 97.467 36.627C97.1039 36.3104 96.8214 35.9264 96.6189 35.4745C96.4166 35.0229 96.3154 34.5174 96.3154 33.9587V27.4489H98.3201V33.6584C98.3201 34.0217 98.3737 34.3371 98.4807 34.6048C98.5878 34.8728 98.7333 35.0937 98.9172 35.2684C99.1011 35.4431 99.32 35.5734 99.5739 35.6596C99.8277 35.7457 100.101 35.7887 100.395 35.7887Z" fill="#0B0C0C"/>
<path d="M106.257 27.4628H108.283V31.8002L111.859 27.4628H114.352L110.874 31.444L114.576 37.4789H112.222L109.575 32.9876L108.283 34.4334V37.4789H106.257V27.4628Z" fill="#0B0C0C"/>
<path d="M43.5442 27.8962C43.7218 27.4653 44.2189 27.2551 44.647 27.4307C45.0837 27.6096 45.2881 28.1103 45.1096 28.5404C44.932 28.9713 44.4368 29.1776 44.0002 28.9971C43.5722 28.8216 43.3668 28.3256 43.5444 27.8964L43.5442 27.8962Z" fill="#0B0C0C"/>
<path d="M41.7317 30.3524C41.3036 30.1765 41.0982 29.6806 41.2758 29.2512C41.4543 28.8194 41.9516 28.6092 42.3796 28.7851C42.8153 28.9635 43.0197 29.4643 42.8412 29.8943C42.6637 30.3253 42.1684 30.5315 41.7318 30.351V30.3524H41.7317Z" fill="#0B0C0C"/>
<path d="M39.7731 31.4859C39.9507 31.055 40.4478 30.8448 40.8758 31.0207C41.3126 31.1992 41.5169 31.6999 41.3385 32.1299C41.1609 32.5609 40.6657 32.7671 40.2291 32.587C39.8011 32.4111 39.5948 31.916 39.7733 31.4858L39.7731 31.4859Z" fill="#0B0C0C"/>
<path d="M46.5701 26.2989C46.6018 26.3412 46.6392 26.3777 46.6805 26.4093L46.0655 28.2671C46.0644 28.2688 46.0636 28.2719 46.0636 28.2739C46.0636 28.2739 46.0914 28.1823 46.0636 28.2756C46.0347 28.3684 46.0194 28.4674 46.0194 28.5692C46.0194 29.0713 46.3908 29.4867 46.8734 29.5578C46.8801 29.5587 46.8877 29.5604 46.8946 29.5604C46.9358 29.5652 46.9771 29.5689 47.0203 29.5689C47.0635 29.5689 47.1047 29.5664 47.146 29.5604C47.1537 29.5595 47.1614 29.5578 47.168 29.5578C47.6507 29.4869 48.022 29.0721 48.022 28.5692C48.022 28.4665 48.0067 28.3684 47.9779 28.2756V28.2739C47.9768 28.2717 47.976 28.2671 47.976 28.2671L47.36 26.4093C47.4012 26.3775 47.4386 26.3404 47.4703 26.2989L47.4722 26.2972L48.5449 26.8603V25.2799L47.4741 25.6198L47.4712 25.6167C47.4415 25.5764 47.4058 25.5418 47.3675 25.5109L47.3646 25.5084L47.7953 24.1512H46.2475L46.6782 25.507L46.6753 25.5101C46.6359 25.5409 46.6015 25.5764 46.5718 25.6158L46.5689 25.6184L45.498 25.2791V26.8603L46.5708 26.2972L46.5726 26.2989" fill="#0B0C0C"/>
<path d="M50.5156 27.8962C50.338 27.4653 49.8409 27.2551 49.4128 27.4307C48.9761 27.6096 48.7717 28.1103 48.9502 28.5404C49.1278 28.9713 49.6228 29.1776 50.0596 28.9971C50.4876 28.8216 50.693 28.3256 50.5154 27.8964L50.5156 27.8962Z" fill="#0B0C0C"/>
<path d="M52.3281 30.3524C52.7562 30.1765 52.9616 29.6806 52.784 29.2512C52.6055 28.8194 52.1084 28.6092 51.6804 28.7851C51.2447 28.9635 51.0403 29.4643 51.2187 29.8943C51.3963 30.3253 51.8914 30.5315 52.3281 30.351V30.3524Z" fill="#0B0C0C"/>
<path d="M54.288 31.4859C54.1105 31.055 53.6133 30.8448 53.1853 31.0207C52.7486 31.1992 52.5442 31.6999 52.7226 32.1299C52.9002 32.5609 53.3953 32.7671 53.832 32.587C54.2601 32.4111 54.4665 31.916 54.2879 31.4858L54.288 31.4859Z" fill="#0B0C0C"/>
<path d="M47.0234 37.6187C49.0528 37.6187 50.9729 37.756 52.6847 38.0005C53.1702 35.9579 53.7613 34.7861 54.3726 33.9532L53.2231 33.5436C53.3383 34.1269 53.3565 34.3995 53.2279 34.7745C53.0378 34.5895 52.8585 34.2477 52.7183 33.7268L52.1608 35.5824C52.5005 35.3492 52.7615 35.1977 53.0609 35.1909C52.5303 36.3339 51.8672 36.6284 51.4383 36.5489C50.9144 36.4521 50.6725 35.9849 50.7542 35.5886C50.8752 35.0271 51.4508 34.8802 51.7205 35.5338C52.2357 34.4831 51.3626 34.1557 50.8003 34.4669C51.6638 33.6059 51.7628 32.8402 51.0652 31.9132C50.0931 32.6562 50.0817 33.3909 50.5193 34.4253C49.9522 33.7756 49.0694 34.124 49.3879 35.1728C49.7966 34.5394 50.3388 34.9374 50.2535 35.5391C50.1815 36.0628 49.4897 36.4861 48.6281 36.4112C47.3931 36.2991 47.3192 35.447 47.2885 34.7417C47.5917 34.6861 48.1386 34.9673 48.605 35.6217L48.7768 33.6535C48.2693 34.1825 47.8087 34.2821 47.2972 34.2983C47.468 33.7659 48.251 32.8955 48.251 32.8955H45.7946C45.7946 32.8955 46.5776 33.7668 46.7484 34.2983C46.2359 34.2821 45.7755 34.1823 45.2688 33.6535L45.4406 35.6217C45.907 34.9673 46.4539 34.6853 46.7571 34.7417C46.7264 35.447 46.6525 36.2991 45.4176 36.4112C44.5559 36.4861 43.8641 36.0628 43.7921 35.5391C43.7066 34.9374 44.2488 34.5394 44.6576 35.1728C44.9771 34.1247 44.0942 33.7765 43.5272 34.4253C43.9637 33.3909 43.9523 32.6562 42.9813 31.9132C42.2845 32.8394 42.3835 33.6049 43.247 34.4669C42.6848 34.1557 41.8116 34.4831 42.326 35.5338C42.5947 34.8802 43.1713 35.0263 43.2923 35.5886C43.373 35.9857 43.1321 36.453 42.6082 36.5489C42.1783 36.6277 41.5162 36.3341 40.9854 35.1909C41.2838 35.1986 41.5458 35.3492 41.8847 35.5824L41.3282 33.7268C41.1881 34.2477 41.0086 34.5895 40.8186 34.7745C40.691 34.3995 40.7092 34.1279 40.8234 33.5436L39.6729 33.9532C40.2841 34.7869 40.8761 35.9569 41.3618 38.0005C43.0736 37.7562 44.9947 37.6187 47.0251 37.6187" fill="#0B0C0C"/>
<path d="M47.0217 32.0631C47.4884 32.0631 47.8667 31.6848 47.8667 31.2181C47.8667 30.7515 47.4884 30.3732 47.0217 30.3732C46.5551 30.3732 46.1768 30.7515 46.1768 31.2181C46.1768 31.6848 46.5551 32.0631 47.0217 32.0631Z" fill="#0B0C0C"/>
</svg>
