<svg width="152" height="75" viewBox="0 0 152 75" fill="none" xmlns="http://www.w3.org/2000/svg">
<rect x="1.46875" y="0.5" width="150" height="74" fill="white" stroke="#F3F3F3"/>
<path d="M51.7282 30.9832C51.7282 31.4114 51.7818 31.8233 51.8889 32.219C51.9958 32.6146 52.1587 32.9637 52.3777 33.2662C52.5965 33.5689 52.8756 33.8121 53.2155 33.9959C53.5554 34.1797 53.9605 34.2718 54.4306 34.2718C54.9008 34.2718 55.2581 34.1997 55.5584 34.0554C55.8586 33.9111 56.0984 33.7307 56.2776 33.5142C56.4567 33.2978 56.5824 33.064 56.6547 32.8126C56.7268 32.5612 56.7628 32.3285 56.7628 32.1143V32.0166H54.2002V30.4736H58.7319V35.9614H56.9584V34.7884C56.8327 34.9839 56.6767 35.162 56.4906 35.3226C56.3044 35.4831 56.095 35.6205 55.862 35.7345C55.6292 35.8485 55.3743 35.9382 55.0975 36.0034C54.8205 36.0685 54.526 36.1011 54.2142 36.1011C53.4833 36.1011 52.834 35.9684 52.2661 35.7031C51.6982 35.4377 51.2198 35.0725 50.8312 34.6069C50.4425 34.1415 50.147 33.5969 49.9444 32.9731C49.7419 32.3494 49.6406 31.6769 49.6406 30.9552C49.6406 30.2335 49.7535 29.5671 49.9793 28.9411C50.2051 28.315 50.5263 27.7704 50.9431 27.3072C51.3597 26.8441 51.8623 26.4788 52.4512 26.211C53.04 25.9433 53.6999 25.8094 54.4308 25.8094C54.9056 25.8094 55.356 25.8642 55.7819 25.9735C56.2079 26.083 56.5965 26.2388 56.948 26.4413C57.2993 26.6437 57.6101 26.8882 57.8802 27.1744C58.15 27.4605 58.369 27.7784 58.5366 28.1275L56.763 29.1257C56.6559 28.9117 56.5302 28.7127 56.3859 28.5287C56.2415 28.3451 56.0752 28.1866 55.8867 28.054C55.6981 27.9213 55.4829 27.8166 55.2409 27.7398C54.9987 27.6631 54.7288 27.6246 54.431 27.6246C53.9608 27.6246 53.5558 27.7167 53.2159 27.9005C52.876 28.0843 52.5968 28.3275 52.378 28.6302C52.1592 28.9327 51.9963 29.283 51.8892 29.681C51.7821 30.079 51.7286 30.49 51.7286 30.9132V30.9832H51.7282Z" fill="#0B0C0C"/>
<path d="M65.1811 25.8093C65.9259 25.8093 66.5939 25.9432 67.1852 26.2109C67.7764 26.4787 68.278 26.8439 68.69 27.3071C69.1019 27.7702 69.4162 28.3149 69.6326 28.9409C69.849 29.5669 69.9572 30.2385 69.9572 30.9551C69.9572 31.6716 69.849 32.3493 69.6326 32.9729C69.4162 33.5967 69.1019 34.1414 68.69 34.6068C68.2782 35.0722 67.7764 35.4376 67.1852 35.703C66.5941 35.9683 65.9259 36.101 65.1811 36.101C64.4364 36.101 63.7624 35.9683 63.1737 35.703C62.5848 35.4376 62.0844 35.0723 61.6726 34.6068C61.2605 34.1414 60.9464 33.5967 60.73 32.9729C60.5136 32.3493 60.4053 31.6767 60.4053 30.9551C60.4053 30.2334 60.5136 29.5669 60.73 28.9409C60.9464 28.3149 61.2605 27.7702 61.6726 27.3071C62.0844 26.8439 62.5848 26.4787 63.1737 26.2109C63.7626 25.9432 64.4316 25.8093 65.1811 25.8093ZM65.1811 34.2715C65.6187 34.2715 66.004 34.189 66.3367 34.0236C66.6695 33.8585 66.9502 33.6291 67.178 33.336C67.4062 33.0427 67.5784 32.696 67.6948 32.2956C67.8111 31.8954 67.8694 31.4578 67.8694 30.983V30.9271C67.8694 30.4569 67.8111 30.0206 67.6948 29.6179C67.5784 29.2153 67.4062 28.8673 67.178 28.5741C66.95 28.281 66.6695 28.0518 66.3367 27.8864C66.004 27.7213 65.6187 27.6386 65.1811 27.6386C64.7435 27.6386 64.3572 27.7213 64.022 27.8864C63.6868 28.0518 63.4065 28.281 63.1807 28.5741C62.9549 28.8673 62.7838 29.2155 62.6675 29.6179C62.5512 30.0206 62.4929 30.4569 62.4929 30.9271V30.983C62.4929 31.4578 62.5512 31.8954 62.6675 32.2956C62.7838 32.696 62.9549 33.0425 63.1807 33.336C63.4065 33.6291 63.6868 33.8585 64.022 34.0236C64.3572 34.189 64.7435 34.2715 65.1811 34.2715Z" fill="#0B0C0C"/>
<path d="M73.5271 35.9611L70.6992 25.949H72.9686L74.9029 33.4755H74.9727L76.865 25.949H79.1063L76.2783 35.9611H73.5273H73.5271Z" fill="#0B0C0C"/>
<path d="M90.5749 34.2715C90.8681 34.2715 91.1416 34.2285 91.3952 34.1424C91.649 34.0562 91.8678 33.926 92.0516 33.7513C92.2353 33.5767 92.3809 33.3559 92.488 33.088C92.595 32.8204 92.6485 32.5051 92.6485 32.142V25.9349H94.6386V32.4422C94.6386 33.0008 94.5375 33.5059 94.3352 33.9573C94.1329 34.4089 93.8515 34.7929 93.491 35.1094C93.1305 35.4261 92.7014 35.6703 92.2039 35.8425C91.7063 36.0146 91.1621 36.1009 90.5715 36.1009C89.9809 36.1009 89.4365 36.0146 88.9391 35.8425C88.4413 35.6703 88.0111 35.4259 87.6482 35.1094C87.2853 34.7929 87.0029 34.4091 86.8005 33.9573C86.5982 33.5059 86.4971 33.0007 86.4971 32.4422V25.9349H88.5011V32.142C88.5011 32.5051 88.5547 32.8204 88.6616 33.088C88.7687 33.3559 88.9142 33.5767 89.098 33.7513C89.2819 33.926 89.5007 34.0562 89.7544 34.1424C90.0082 34.2285 90.2817 34.2715 90.5749 34.2715Z" fill="#0B0C0C"/>
<path d="M96.4355 25.949H98.4606V30.2847L102.036 25.949H104.528L101.051 29.9286L104.752 35.9611H102.399L99.7524 31.4716L98.4606 32.9168V35.9611H96.4355V25.949Z" fill="#0B0C0C"/>
<path d="M82.2842 32.6454C83.2178 32.6454 83.9746 31.8886 83.9746 30.9551C83.9746 30.0215 83.2178 29.2648 82.2842 29.2648C81.3506 29.2648 80.5938 30.0215 80.5938 30.9551C80.5938 31.8886 81.3506 32.6454 82.2842 32.6454Z" fill="#1D70B8"/>
<path d="M49.5766 39.495H53.0634C53.5302 39.495 53.953 39.5736 54.332 39.7307C54.7109 39.8832 55.0344 40.0981 55.3025 40.3754C55.5751 40.6481 55.7831 40.9762 55.9264 41.3598C56.0742 41.7434 56.1482 42.1639 56.1482 42.6214C56.1482 43.0836 56.0673 43.5064 55.9056 43.89C55.7484 44.269 55.5266 44.5948 55.2401 44.8674C54.9536 45.1401 54.6116 45.3527 54.2141 45.5052C53.8213 45.6531 53.3915 45.727 52.9248 45.727H50.7966V49.4357H49.5766V39.495ZM54.8519 42.5937C54.8519 42.3025 54.8057 42.0322 54.7132 41.7826C54.6208 41.5331 54.4868 41.3182 54.3112 41.138C54.1356 40.9531 53.9207 40.8098 53.6665 40.7082C53.4169 40.6019 53.1327 40.5487 52.8138 40.5487H50.7966V44.6803H52.8138C53.1327 44.6803 53.4169 44.6294 53.6665 44.5277C53.9207 44.4261 54.1356 44.2874 54.3112 44.1118C54.4868 43.9316 54.6208 43.719 54.7132 43.4741C54.8057 43.2245 54.8519 42.9542 54.8519 42.663V42.5937ZM61.3977 48.7286C61.1898 48.9689 60.9078 49.1699 60.552 49.3317C60.2008 49.4934 59.7872 49.5743 59.3112 49.5743C58.9599 49.5743 58.6341 49.5258 58.3337 49.4287C58.0333 49.3271 57.7722 49.1838 57.5504 48.9989C57.3286 48.8141 57.1553 48.59 57.0305 48.3265C56.9057 48.0631 56.8433 47.765 56.8433 47.4323C56.8433 47.155 56.8872 46.9031 56.975 46.6767C57.0675 46.4456 57.1946 46.2446 57.3563 46.0736C57.5227 45.9026 57.7214 45.764 57.9525 45.6577C58.1835 45.5468 58.4423 45.4705 58.7289 45.4289L61.2313 45.0892V44.6387C61.2313 44.3706 61.1898 44.1465 61.1066 43.9662C61.0234 43.7814 60.9102 43.6358 60.7669 43.5295C60.6283 43.4232 60.4619 43.347 60.2678 43.3008C60.0783 43.2546 59.8727 43.2314 59.6508 43.2314C59.2534 43.2314 58.8814 43.2869 58.5348 43.3978C58.1928 43.5087 57.8831 43.6381 57.6059 43.786L57.1691 42.864C57.5758 42.633 58.001 42.4666 58.4446 42.3649C58.8929 42.2633 59.3343 42.2124 59.7687 42.2124C60.6329 42.2124 61.2868 42.4088 61.7305 42.8017C62.1741 43.1899 62.3959 43.7583 62.3959 44.507V47.772C62.3959 48.0077 62.4422 48.2064 62.5346 48.3681C62.627 48.5253 62.7749 48.65 62.9782 48.7425L62.3197 49.5743C62.0979 49.5189 61.9061 49.4218 61.7443 49.2832C61.5872 49.1399 61.4763 48.9689 61.4116 48.7702L61.3977 48.7286ZM59.325 46.2816C59.1309 46.3093 58.953 46.3486 58.7913 46.3994C58.6341 46.4502 58.5001 46.5196 58.3892 46.6074C58.2783 46.6906 58.1905 46.7945 58.1258 46.9193C58.0657 47.0441 58.0357 47.1966 58.0357 47.3768C58.0357 47.5848 58.0749 47.7697 58.1535 47.9314C58.2321 48.0932 58.3384 48.2295 58.4724 48.3404C58.6064 48.4513 58.7612 48.5368 58.9368 48.5969C59.1171 48.6523 59.3042 48.6801 59.4983 48.6801C59.7155 48.6801 59.9281 48.65 60.1361 48.59C60.344 48.5299 60.5289 48.4444 60.6906 48.3335C60.8524 48.2179 60.9818 48.0793 61.0788 47.9175C61.1805 47.7558 61.2313 47.5709 61.2313 47.363V45.9974L59.325 46.2816ZM63.4585 42.3511H64.7756L66.5225 48.2018L68.1862 42.3511H69.4894L66.9107 50.5032C66.8321 50.7528 66.7304 50.9561 66.6057 51.1132C66.4809 51.275 66.3376 51.4021 66.1759 51.4945C66.0187 51.5915 65.8431 51.6586 65.649 51.6955C65.4549 51.7325 65.2493 51.751 65.0321 51.751C64.838 51.751 64.6369 51.7394 64.429 51.7163C64.221 51.6978 64.0015 51.6701 63.7704 51.6331L63.9437 50.6141C64.0362 50.6326 64.1355 50.6488 64.2418 50.6626C64.3296 50.6765 64.429 50.6881 64.5399 50.6973C64.6508 50.7066 64.764 50.7112 64.8796 50.7112C65.1337 50.7112 65.3302 50.6557 65.4688 50.5448C65.6121 50.4339 65.7137 50.2537 65.7738 50.0041L65.8431 49.6783L63.4585 42.3511Z" fill="#0B0C0C"/>
</svg>
