<svg width="153" height="75" viewBox="0 0 153 75" fill="none" xmlns="http://www.w3.org/2000/svg">
<rect x="0.9375" y="0.5" width="151" height="74" fill="white" stroke="#F3F3F3"/>
<path d="M92.1011 34.0421C93.035 34.0421 93.7921 33.285 93.7921 32.3511C93.7921 31.4172 93.035 30.6602 92.1011 30.6602C91.1672 30.6602 90.4102 31.4172 90.4102 32.3511C90.4102 33.285 91.1672 34.0421 92.1011 34.0421Z" fill="#1D70B8"/>
<path d="M61.5356 32.3793C61.5356 32.8076 61.5891 33.2198 61.6963 33.6156C61.8032 34.0114 61.9661 34.3606 62.1852 34.6632C62.4041 34.966 62.6833 35.2093 63.0233 35.3932C63.3633 35.5771 63.7685 35.6692 64.2389 35.6692C64.7092 35.6692 65.0666 35.5971 65.367 35.4528C65.6673 35.3084 65.9071 35.1279 66.0864 34.9113C66.2656 34.6948 66.3913 34.4609 66.4636 34.2094C66.5358 33.958 66.5718 33.7251 66.5718 33.5108V33.4131H64.0084V31.8695H68.5415V37.3595H66.7675V36.186C66.6417 36.3817 66.4856 36.5598 66.2995 36.7205C66.1132 36.881 65.9037 37.0185 65.6707 37.1325C65.4378 37.2466 65.1828 37.3363 64.9059 37.4015C64.6288 37.4667 64.3342 37.4993 64.0224 37.4993C63.2912 37.4993 62.6417 37.3665 62.0736 37.1011C61.5055 36.8356 61.027 36.4702 60.6382 36.0045C60.2494 35.5389 59.9538 34.994 59.7511 34.37C59.5486 33.7461 59.4473 33.0733 59.4473 32.3513C59.4473 31.6293 59.5602 30.9626 59.7861 30.3364C60.0119 29.7101 60.3332 29.1652 60.7501 28.7019C61.1669 28.2385 61.6696 27.8731 62.2587 27.6052C62.8478 27.3374 63.5078 27.2035 64.239 27.2035C64.714 27.2035 65.1645 27.2583 65.5905 27.3676C66.0167 27.4771 66.4054 27.6331 66.757 27.8356C67.1085 28.0381 67.4193 28.2827 67.6895 28.569C67.9594 28.8552 68.1785 29.1732 68.3462 29.5224L66.5719 30.5211C66.4648 30.307 66.3391 30.1079 66.1948 29.9238C66.0503 29.7401 65.8839 29.5816 65.6954 29.4489C65.5067 29.3162 65.2914 29.2114 65.0494 29.1347C64.8071 29.0579 64.5371 29.0193 64.2392 29.0193C63.7689 29.0193 63.3637 29.1115 63.0237 29.2954C62.6837 29.4793 62.4044 29.7225 62.1855 30.0254C61.9667 30.328 61.8037 30.6784 61.6966 31.0766C61.5895 31.4748 61.5359 31.8859 61.5359 32.3093V32.3793H61.5356Z" fill="#0B0C0C"/>
<path d="M74.9923 27.2034C75.7373 27.2034 76.4055 27.3373 76.997 27.6051C77.5883 27.873 78.0902 28.2384 78.5023 28.7017C78.9143 29.1651 79.2287 29.71 79.4452 30.3362C79.6617 30.9625 79.7699 31.6343 79.7699 32.3512C79.7699 33.068 79.6617 33.746 79.4452 34.3698C79.2287 34.9939 78.9143 35.5388 78.5023 36.0043C78.0903 36.4699 77.5884 36.8355 76.997 37.101C76.4057 37.3664 75.7373 37.4991 74.9923 37.4991C74.2473 37.4991 73.5731 37.3664 72.9842 37.101C72.3951 36.8355 71.8946 36.4701 71.4826 36.0043C71.0704 35.5388 70.7562 34.9939 70.5397 34.3698C70.3232 33.746 70.2148 33.0731 70.2148 32.3512C70.2148 31.6292 70.3232 30.9625 70.5397 30.3362C70.7562 29.71 71.0704 29.1651 71.4826 28.7017C71.8946 28.2384 72.3951 27.873 72.9842 27.6051C73.5732 27.3373 74.2425 27.2034 74.9923 27.2034ZM74.9923 35.6691C75.43 35.6691 75.8154 35.5866 76.1482 35.4211C76.4811 35.2559 76.7619 35.0265 76.9898 34.7332C77.2181 34.4398 77.3904 34.093 77.5067 33.6924C77.6231 33.292 77.6814 32.8543 77.6814 32.3793V32.3234C77.6814 31.853 77.6231 31.4165 77.5067 31.0137C77.3904 30.6109 77.2181 30.2627 76.9898 29.9694C76.7617 29.6762 76.4811 29.4469 76.1482 29.2814C75.8154 29.1163 75.43 29.0335 74.9923 29.0335C74.5545 29.0335 74.1681 29.1163 73.8327 29.2814C73.4975 29.4469 73.217 29.6762 72.9912 29.9694C72.7653 30.2627 72.5942 30.6111 72.4778 31.0137C72.3615 31.4165 72.3031 31.853 72.3031 32.3234V32.3793C72.3031 32.8543 72.3615 33.292 72.4778 33.6924C72.5942 34.093 72.7653 34.4396 72.9912 34.7332C73.217 35.0265 73.4975 35.2559 73.8327 35.4211C74.1681 35.5866 74.5545 35.6691 74.9923 35.6691Z" fill="#0B0C0C"/>
<path d="M83.3415 37.3593L80.5127 27.3431H82.7828L84.7178 34.8727H84.7875L86.6805 27.3431H88.9225L86.0936 37.3593H83.3417H83.3415Z" fill="#0B0C0C"/>
<path d="M100.396 35.6692C100.689 35.6692 100.962 35.6262 101.216 35.5401C101.47 35.4539 101.689 35.3236 101.873 35.1489C102.057 34.9742 102.202 34.7533 102.309 34.4852C102.416 34.2176 102.47 33.9021 102.47 33.5389V27.3293H104.461V33.8392C104.461 34.3981 104.359 34.9034 104.157 35.355C103.955 35.8067 103.673 36.1909 103.313 36.5075C102.952 36.8243 102.523 37.0686 102.025 37.2409C101.527 37.4131 100.983 37.4994 100.392 37.4994C99.8014 37.4994 99.2568 37.4131 98.7592 37.2409C98.2612 37.0686 97.831 36.8241 97.4679 36.5075C97.1049 36.1909 96.8224 35.8069 96.6199 35.355C96.4176 34.9034 96.3164 34.3979 96.3164 33.8392V27.3293H98.3211V33.5389C98.3211 33.9021 98.3747 34.2176 98.4816 34.4852C98.5888 34.7533 98.7343 34.9742 98.9182 35.1489C99.1021 35.3236 99.321 35.4539 99.5748 35.5401C99.8287 35.6262 100.102 35.6692 100.396 35.6692Z" fill="#0B0C0C"/>
<path d="M106.257 27.3431H108.283V31.6806L111.859 27.3431H114.352L110.874 31.3244L114.576 37.3593H112.222L109.575 32.868L108.283 34.3138V37.3593H106.257V27.3431Z" fill="#0B0C0C"/>
<path d="M43.5442 27.7767C43.7218 27.3458 44.2189 27.1356 44.647 27.3112C45.0837 27.4901 45.2881 27.9908 45.1096 28.4209C44.932 28.8518 44.4368 29.0581 44.0002 28.8776C43.5722 28.7021 43.3668 28.2061 43.5444 27.7769L43.5442 27.7767Z" fill="#0B0C0C"/>
<path d="M41.7317 30.2329C41.3036 30.057 41.0982 29.5611 41.2758 29.1317C41.4543 28.6999 41.9516 28.4897 42.3796 28.6656C42.8153 28.844 43.0197 29.3447 42.8412 29.7748C42.6637 30.2058 42.1684 30.412 41.7318 30.2315V30.2329H41.7317Z" fill="#0B0C0C"/>
<path d="M39.7741 31.3664C39.9517 30.9355 40.4488 30.7253 40.8768 30.9012C41.3135 31.0796 41.5179 31.5804 41.3395 32.0104C41.1619 32.4414 40.6666 32.6476 40.2301 32.4675C39.802 32.2916 39.5958 31.7965 39.7742 31.3663L39.7741 31.3664Z" fill="#0B0C0C"/>
<path d="M46.5701 26.1794C46.6018 26.2217 46.6392 26.2582 46.6805 26.2898L46.0655 28.1476C46.0644 28.1493 46.0636 28.1524 46.0636 28.1544C46.0636 28.1544 46.0914 28.0628 46.0636 28.1561C46.0347 28.2489 46.0194 28.3479 46.0194 28.4497C46.0194 28.9518 46.3908 29.3672 46.8734 29.4383C46.8801 29.4392 46.8877 29.4409 46.8946 29.4409C46.9358 29.4457 46.9771 29.4494 47.0203 29.4494C47.0635 29.4494 47.1047 29.4469 47.146 29.4409C47.1537 29.44 47.1614 29.4383 47.168 29.4383C47.6507 29.3674 48.022 28.9526 48.022 28.4497C48.022 28.347 48.0067 28.2489 47.9779 28.1561V28.1544C47.9768 28.1522 47.976 28.1476 47.976 28.1476L47.36 26.2898C47.4012 26.258 47.4386 26.2209 47.4703 26.1794L47.4722 26.1777L48.5449 26.7408V25.1604L47.4741 25.5002L47.4712 25.4972C47.4415 25.4569 47.4058 25.4223 47.3675 25.3914L47.3646 25.3888L47.7953 24.0317H46.2475L46.6782 25.3875L46.6753 25.3906C46.6359 25.4214 46.6015 25.4569 46.5718 25.4963L46.5689 25.4989L45.498 25.1596V26.7408L46.5708 26.1777L46.5726 26.1794" fill="#0B0C0C"/>
<path d="M50.5156 27.7767C50.338 27.3458 49.8409 27.1356 49.4128 27.3112C48.9761 27.4901 48.7717 27.9908 48.9502 28.4209C49.1278 28.8518 49.6228 29.0581 50.0596 28.8776C50.4876 28.7021 50.693 28.2061 50.5154 27.7769L50.5156 27.7767Z" fill="#0B0C0C"/>
<path d="M52.3281 30.2329C52.7562 30.057 52.9616 29.5611 52.784 29.1317C52.6055 28.6999 52.1084 28.4897 51.6804 28.6656C51.2447 28.844 51.0403 29.3447 51.2187 29.7748C51.3963 30.2058 51.8914 30.412 52.3281 30.2315V30.2329Z" fill="#0B0C0C"/>
<path d="M54.288 31.3664C54.1105 30.9355 53.6133 30.7253 53.1853 30.9012C52.7486 31.0796 52.5442 31.5804 52.7226 32.0104C52.9002 32.4414 53.3953 32.6476 53.832 32.4675C54.2601 32.2916 54.4665 31.7965 54.2879 31.3663L54.288 31.3664Z" fill="#0B0C0C"/>
<path d="M47.0234 37.4992C49.0528 37.4992 50.9729 37.6365 52.6847 37.881C53.1702 35.8384 53.7613 34.6666 54.3726 33.8337L53.2231 33.4241C53.3383 34.0074 53.3565 34.28 53.2279 34.655C53.0378 34.47 52.8585 34.1282 52.7183 33.6073L52.1608 35.4629C52.5005 35.2297 52.7615 35.0782 53.0609 35.0714C52.5303 36.2144 51.8672 36.5089 51.4383 36.4294C50.9144 36.3326 50.6725 35.8654 50.7542 35.4691C50.8752 34.9076 51.4508 34.7607 51.7205 35.4143C52.2357 34.3636 51.3626 34.0362 50.8003 34.3474C51.6638 33.4864 51.7628 32.7207 51.0652 31.7937C50.0931 32.5367 50.0817 33.2714 50.5193 34.3058C49.9522 33.6561 49.0694 34.0045 49.3879 35.0533C49.7966 34.4199 50.3388 34.8179 50.2535 35.4196C50.1815 35.9433 49.4897 36.3666 48.6281 36.2917C47.3931 36.1796 47.3192 35.3275 47.2885 34.6222C47.5917 34.5666 48.1386 34.8477 48.605 35.5022L48.7768 33.534C48.2693 34.063 47.8087 34.1626 47.2972 34.1788C47.468 33.6464 48.251 32.776 48.251 32.776H45.7946C45.7946 32.776 46.5776 33.6472 46.7484 34.1788C46.2359 34.1626 45.7755 34.0628 45.2688 33.534L45.4406 35.5022C45.907 34.8477 46.4539 34.5657 46.7571 34.6222C46.7264 35.3275 46.6525 36.1796 45.4176 36.2917C44.5559 36.3666 43.8641 35.9433 43.7921 35.4196C43.7066 34.8179 44.2488 34.4199 44.6576 35.0533C44.9771 34.0052 44.0942 33.657 43.5272 34.3058C43.9637 33.2714 43.9523 32.5367 42.9813 31.7937C42.2845 32.7199 42.3835 33.4854 43.247 34.3474C42.6848 34.0362 41.8116 34.3636 42.326 35.4143C42.5947 34.7607 43.1713 34.9068 43.2923 35.4691C43.373 35.8662 43.1321 36.3335 42.6082 36.4294C42.1783 36.5082 41.5162 36.2146 40.9854 35.0714C41.2838 35.0791 41.5458 35.2297 41.8847 35.4629L41.3282 33.6073C41.1881 34.1282 41.0086 34.47 40.8186 34.655C40.691 34.28 40.7092 34.0084 40.8234 33.4241L39.6729 33.8337C40.2841 34.6674 40.8761 35.8374 41.3618 37.881C43.0736 37.6367 44.9947 37.4992 47.0251 37.4992" fill="#0B0C0C"/>
<path d="M47.0227 31.9436C47.4894 31.9436 47.8677 31.5653 47.8677 31.0986C47.8677 30.632 47.4894 30.2537 47.0227 30.2537C46.556 30.2537 46.1777 30.632 46.1777 31.0986C46.1777 31.5653 46.556 31.9436 47.0227 31.9436Z" fill="#0B0C0C"/>
<path d="M48.1299 49.0642H48.1993L49.8907 40.8843H51.1385L48.9271 50.825H47.4783L45.364 42.7075L43.2567 50.825H41.8009L39.5965 40.8843H40.8305L42.5496 49.0642H42.6328L44.7956 40.8843H45.9741L48.1299 49.0642ZM56.2216 50.1179C56.0137 50.3582 55.7318 50.5592 55.3759 50.721C55.0247 50.8827 54.6111 50.9636 54.1351 50.9636C53.7839 50.9636 53.458 50.9151 53.1577 50.818C52.8573 50.7163 52.5962 50.5731 52.3743 50.3882C52.1525 50.2034 51.9792 49.9792 51.8544 49.7158C51.7296 49.4524 51.6673 49.1543 51.6673 48.8216C51.6673 48.5443 51.7112 48.2924 51.799 48.066C51.8914 47.8349 52.0185 47.6339 52.1802 47.4629C52.3466 47.2919 52.5453 47.1533 52.7764 47.047C53.0075 46.936 53.2663 46.8598 53.5528 46.8182L56.0553 46.4785V46.0279C56.0553 45.7599 56.0137 45.5358 55.9305 45.3555C55.8473 45.1707 55.7341 45.0251 55.5908 44.9188C55.4522 44.8125 55.2858 44.7363 55.0917 44.6901C54.9022 44.6438 54.6966 44.6207 54.4748 44.6207C54.0773 44.6207 53.7053 44.6762 53.3587 44.7871C53.0167 44.898 52.7071 45.0274 52.4298 45.1753L51.9931 44.2533C52.3997 44.0223 52.8249 43.8559 53.2686 43.7542C53.7168 43.6525 54.1582 43.6017 54.5926 43.6017C55.4568 43.6017 56.1107 43.7981 56.5544 44.1909C56.998 44.5791 57.2199 45.1476 57.2199 45.8962V49.1612C57.2199 49.3969 57.2661 49.5957 57.3585 49.7574C57.4509 49.9145 57.5988 50.0393 57.8022 50.1317L57.1436 50.9636C56.9218 50.9081 56.73 50.8111 56.5682 50.6724C56.4111 50.5292 56.3002 50.3582 56.2355 50.1595L56.2216 50.1179ZM54.1489 47.6708C53.9548 47.6986 53.7769 47.7379 53.6152 47.7887C53.458 47.8395 53.324 47.9089 53.2131 47.9967C53.1022 48.0798 53.0144 48.1838 52.9497 48.3086C52.8896 48.4334 52.8596 48.5859 52.8596 48.7661C52.8596 48.9741 52.8989 49.1589 52.9774 49.3207C53.056 49.4824 53.1623 49.6188 53.2963 49.7297C53.4303 49.8406 53.5851 49.9261 53.7607 49.9862C53.941 50.0416 54.1281 50.0694 54.3222 50.0694C54.5395 50.0694 54.752 50.0393 54.96 49.9792C55.168 49.9192 55.3528 49.8337 55.5146 49.7227C55.6763 49.6072 55.8057 49.4686 55.9028 49.3068C56.0044 49.1451 56.0553 48.9602 56.0553 48.7523V47.3866L54.1489 47.6708ZM59.0727 40.8843H60.2373V49.2375C60.2373 49.353 60.2465 49.4547 60.265 49.5425C60.2881 49.6303 60.3251 49.7043 60.3759 49.7643C60.4267 49.8244 60.4961 49.8706 60.5839 49.903C60.6763 49.9307 60.7895 49.9446 60.9235 49.9446C61.0714 49.9446 61.2054 49.94 61.3256 49.9307C61.4458 49.9215 61.552 49.9122 61.6445 49.903L61.7623 50.8804C61.6283 50.8943 61.4943 50.9081 61.3603 50.922C61.2447 50.9312 61.1176 50.9405 60.979 50.9497C60.8404 50.959 60.7086 50.9636 60.5839 50.9636C60.3759 50.9636 60.1795 50.9382 59.9946 50.8873C59.8098 50.8411 59.648 50.7626 59.5094 50.6516C59.3754 50.5407 59.2691 50.3975 59.1905 50.2219C59.112 50.0462 59.0727 49.8314 59.0727 49.5772V40.8843ZM62.6169 40.8843H63.7815V49.2375C63.7815 49.353 63.7907 49.4547 63.8092 49.5425C63.8323 49.6303 63.8693 49.7043 63.9201 49.7643C63.971 49.8244 64.0403 49.8706 64.1281 49.903C64.2205 49.9307 64.3338 49.9446 64.4678 49.9446C64.6157 49.9446 64.7497 49.94 64.8698 49.9307C64.99 49.9215 65.0963 49.9122 65.1887 49.903L65.3066 50.8804C65.1725 50.8943 65.0385 50.9081 64.9045 50.922C64.789 50.9312 64.6619 50.9405 64.5232 50.9497C64.3846 50.959 64.2529 50.9636 64.1281 50.9636C63.9201 50.9636 63.7237 50.9382 63.5389 50.8873C63.354 50.8411 63.1923 50.7626 63.0536 50.6516C62.9196 50.5407 62.8133 50.3975 62.7348 50.2219C62.6562 50.0462 62.6169 49.8314 62.6169 49.5772V40.8843ZM66.9999 47.6431C67.023 47.9759 67.0901 48.2832 67.201 48.5651C67.3119 48.847 67.4621 49.0919 67.6516 49.2999C67.8456 49.5032 68.0721 49.6627 68.3309 49.7782C68.5943 49.8891 68.8855 49.9446 69.2043 49.9446C69.5972 49.9446 69.9415 49.8799 70.2372 49.7505C70.5376 49.6165 70.8126 49.4501 71.0621 49.2514L71.6583 50.0901C71.3394 50.3443 70.9697 50.5546 70.5492 50.721C70.1332 50.8827 69.6665 50.9636 69.1489 50.9636C68.6359 50.9636 68.1715 50.8735 67.7555 50.6932C67.3396 50.5084 66.9838 50.2542 66.688 49.9307C66.3968 49.6026 66.1727 49.2144 66.0156 48.7661C65.8584 48.3132 65.7799 47.821 65.7799 47.2896C65.7799 46.7489 65.8561 46.2544 66.0086 45.8061C66.1658 45.3532 66.3853 44.965 66.6672 44.6415C66.9491 44.3134 67.2865 44.0592 67.6793 43.879C68.0721 43.6941 68.5088 43.6017 68.9894 43.6017C69.4562 43.6017 69.8768 43.6941 70.2511 43.879C70.6254 44.0592 70.9443 44.3134 71.2077 44.6415C71.4711 44.965 71.6722 45.3532 71.8108 45.8061C71.9541 46.2544 72.0257 46.7443 72.0257 47.2757V47.6431H66.9999ZM68.9479 44.6207C68.6521 44.6207 68.3887 44.6785 68.1576 44.794C67.9265 44.9096 67.7278 45.0644 67.5614 45.2585C67.3997 45.4526 67.2703 45.6767 67.1732 45.9309C67.0808 46.1804 67.0277 46.4392 67.0138 46.7073H70.7641C70.7548 46.4346 70.7063 46.1735 70.6185 45.924C70.5353 45.6698 70.4151 45.448 70.258 45.2585C70.1055 45.0644 69.9183 44.9096 69.6965 44.794C69.4793 44.6785 69.2298 44.6207 68.9479 44.6207ZM75.2025 49.0642C75.2025 49.1844 75.2095 49.2976 75.2233 49.4039C75.2418 49.5055 75.2811 49.5957 75.3412 49.6742C75.4059 49.7528 75.4983 49.8152 75.6185 49.8614C75.7386 49.9076 75.9027 49.9307 76.1106 49.9307C76.1661 49.9307 76.2308 49.9284 76.3047 49.9238C76.3833 49.9192 76.4642 49.9145 76.5474 49.9099C76.6305 49.9007 76.7114 49.8914 76.79 49.8822C76.8686 49.8683 76.9356 49.8568 76.991 49.8475L77.1158 50.8665C76.9818 50.885 76.8431 50.9012 76.6999 50.9151C76.5797 50.9289 76.4457 50.9405 76.2978 50.9497C76.1499 50.959 76.002 50.9636 75.8542 50.9636C75.5722 50.9636 75.3181 50.9336 75.0916 50.8735C74.8698 50.818 74.6803 50.7256 74.5232 50.5962C74.3661 50.4668 74.2459 50.2981 74.1627 50.0901C74.0795 49.8776 74.0379 49.6211 74.0379 49.3207V44.7663H72.7001V43.7404H74.0379V41.425L75.2025 41.016V43.7404H77.1713V44.7663H75.2025V49.0642Z" fill="#0B0C0C"/>
</svg>
