<svg width="480" height="320" viewBox="0 0 480 320" fill="none" xmlns="http://www.w3.org/2000/svg">
<g clip-path="url(#clip0_1168_21302)">
<path d="M480 0H0V320H480V0Z" fill="white"/>
<path d="M105.909 160.839H118.443C120.121 160.839 121.641 161.121 123.003 161.686C124.365 162.234 125.528 163.007 126.492 164.003C127.472 164.983 128.219 166.163 128.734 167.542C129.266 168.921 129.532 170.432 129.532 172.077C129.532 173.738 129.241 175.258 128.66 176.637C128.095 177.999 127.297 179.17 126.267 180.151C125.237 181.131 124.008 181.895 122.579 182.443C121.167 182.975 119.622 183.24 117.945 183.24H110.295V196.572H105.909V160.839ZM124.872 171.977C124.872 170.931 124.706 169.959 124.374 169.062C124.041 168.165 123.56 167.392 122.928 166.744C122.297 166.08 121.525 165.565 120.611 165.199C119.714 164.817 118.692 164.626 117.546 164.626H110.295V179.478H117.546C118.692 179.478 119.714 179.295 120.611 178.93C121.525 178.564 122.297 178.066 122.928 177.434C123.56 176.787 124.041 176.022 124.374 175.142C124.706 174.245 124.872 173.273 124.872 172.226V171.977ZM148.402 194.03C147.654 194.894 146.641 195.617 145.362 196.198C144.099 196.779 142.613 197.07 140.902 197.07C139.639 197.07 138.468 196.896 137.388 196.547C136.308 196.181 135.37 195.666 134.572 195.002C133.775 194.337 133.152 193.532 132.703 192.585C132.255 191.638 132.031 190.566 132.031 189.37C132.031 188.374 132.188 187.468 132.504 186.654C132.836 185.824 133.293 185.101 133.874 184.486C134.473 183.872 135.187 183.373 136.017 182.991C136.848 182.593 137.778 182.318 138.808 182.169L147.804 180.948V179.328C147.804 178.365 147.654 177.559 147.355 176.911C147.056 176.247 146.649 175.723 146.134 175.341C145.636 174.959 145.038 174.685 144.34 174.519C143.659 174.353 142.92 174.27 142.123 174.27C140.694 174.27 139.357 174.469 138.111 174.868C136.881 175.267 135.768 175.732 134.772 176.263L133.202 172.949C134.664 172.118 136.192 171.52 137.787 171.155C139.398 170.789 140.985 170.607 142.546 170.607C145.653 170.607 148.003 171.313 149.598 172.725C151.193 174.12 151.99 176.164 151.99 178.855V190.591C151.99 191.439 152.156 192.153 152.489 192.734C152.821 193.299 153.352 193.748 154.083 194.08L151.716 197.07C150.919 196.871 150.229 196.522 149.648 196.024C149.083 195.509 148.684 194.894 148.452 194.18L148.402 194.03ZM140.951 185.234C140.254 185.334 139.614 185.475 139.033 185.658C138.468 185.84 137.986 186.089 137.587 186.405C137.189 186.704 136.873 187.078 136.64 187.526C136.424 187.975 136.317 188.523 136.317 189.171C136.317 189.919 136.458 190.583 136.74 191.165C137.023 191.746 137.405 192.236 137.886 192.635C138.368 193.033 138.925 193.341 139.556 193.557C140.204 193.756 140.877 193.856 141.574 193.856C142.355 193.856 143.119 193.748 143.867 193.532C144.614 193.316 145.279 193.008 145.86 192.61C146.442 192.194 146.907 191.696 147.256 191.115C147.621 190.533 147.804 189.869 147.804 189.121V184.212L140.951 185.234ZM155.81 171.105H160.544L166.824 192.136L172.804 171.105H177.489L168.219 200.409C167.937 201.306 167.571 202.037 167.123 202.602C166.674 203.184 166.159 203.64 165.578 203.973C165.013 204.321 164.382 204.562 163.684 204.695C162.986 204.828 162.247 204.895 161.466 204.895C160.769 204.895 160.046 204.853 159.298 204.77C158.551 204.704 157.762 204.604 156.931 204.471L157.554 200.808C157.886 200.874 158.243 200.933 158.626 200.982C158.941 201.032 159.298 201.074 159.697 201.107C160.096 201.14 160.503 201.157 160.918 201.157C161.832 201.157 162.538 200.957 163.036 200.559C163.551 200.16 163.917 199.512 164.133 198.615L164.382 197.444L155.81 171.105Z" fill="#0B0C0C"/>
<path d="M294.379 134.984C297.736 134.984 300.458 132.263 300.458 128.906C300.458 125.549 297.736 122.827 294.379 122.827C291.022 122.827 288.301 125.549 288.301 128.906C288.301 132.263 291.022 134.984 294.379 134.984Z" fill="#1D70B8"/>
<path d="M184.515 129.007C184.515 130.546 184.707 132.028 185.092 133.451C185.477 134.873 186.062 136.129 186.85 137.217C187.637 138.305 188.64 139.18 189.863 139.841C191.085 140.502 192.541 140.833 194.232 140.833C195.923 140.833 197.207 140.573 198.287 140.055C199.367 139.536 200.229 138.887 200.873 138.108C201.517 137.33 201.969 136.489 202.229 135.585C202.489 134.681 202.618 133.844 202.618 133.074V132.723H193.403V127.174H209.699V146.909H203.321V142.69C202.869 143.394 202.308 144.034 201.639 144.612C200.97 145.189 200.217 145.683 199.379 146.093C198.542 146.503 197.625 146.825 196.63 147.06C195.634 147.294 194.575 147.411 193.454 147.411C190.825 147.411 188.491 146.934 186.449 145.98C184.407 145.026 182.686 143.712 181.289 142.038C179.891 140.364 178.829 138.406 178.1 136.162C177.372 133.92 177.008 131.501 177.008 128.906C177.008 126.311 177.414 123.914 178.226 121.663C179.038 119.412 180.192 117.453 181.691 115.787C183.189 114.122 184.997 112.808 187.114 111.846C189.232 110.883 191.604 110.401 194.233 110.401C195.94 110.401 197.559 110.598 199.091 110.991C200.623 111.385 202.02 111.946 203.284 112.673C204.547 113.401 205.665 114.281 206.636 115.31C207.606 116.339 208.394 117.482 208.996 118.737L202.619 122.327C202.234 121.557 201.782 120.842 201.263 120.18C200.743 119.52 200.145 118.95 199.468 118.473C198.79 117.996 198.016 117.619 197.145 117.343C196.275 117.067 195.304 116.929 194.233 116.929C192.542 116.929 191.086 117.26 189.864 117.921C188.642 118.582 187.638 119.456 186.851 120.545C186.064 121.633 185.479 122.892 185.093 124.324C184.708 125.755 184.516 127.233 184.516 128.755V129.007H184.515Z" fill="#0B0C0C"/>
<path d="M232.884 110.401C235.562 110.401 237.964 110.882 240.09 111.845C242.216 112.808 244.02 114.121 245.502 115.787C246.983 117.453 248.113 119.411 248.891 121.663C249.669 123.914 250.058 126.329 250.058 128.906C250.058 131.482 249.669 133.919 248.891 136.162C248.113 138.405 246.983 140.364 245.502 142.037C244.021 143.711 242.216 145.025 240.09 145.979C237.965 146.934 235.562 147.411 232.884 147.411C230.206 147.411 227.783 146.934 225.666 145.979C223.548 145.025 221.749 143.712 220.268 142.037C218.786 140.364 217.657 138.405 216.879 136.162C216.1 133.919 215.711 131.501 215.711 128.906C215.711 126.31 216.1 123.914 216.879 121.663C217.657 119.411 218.786 117.453 220.268 115.787C221.749 114.121 223.548 112.808 225.666 111.845C227.783 110.882 230.189 110.401 232.884 110.401ZM232.884 140.832C234.458 140.832 235.843 140.536 237.039 139.941C238.236 139.347 239.245 138.522 240.065 137.468C240.885 136.413 241.504 135.167 241.923 133.727C242.341 132.288 242.551 130.714 242.551 129.007V128.806C242.551 127.115 242.341 125.546 241.923 124.098C241.504 122.65 240.885 121.398 240.065 120.344C239.245 119.29 238.236 118.466 237.039 117.871C235.843 117.277 234.458 116.98 232.884 116.98C231.311 116.98 229.922 117.277 228.716 117.871C227.511 118.466 226.503 119.29 225.691 120.344C224.879 121.398 224.264 122.65 223.846 124.098C223.427 125.546 223.218 127.115 223.218 128.806V129.007C223.218 130.714 223.427 132.288 223.846 133.727C224.264 135.167 224.879 136.413 225.691 137.468C226.503 138.522 227.511 139.347 228.716 139.941C229.922 140.536 231.311 140.832 232.884 140.832Z" fill="#0B0C0C"/>
<path d="M262.903 146.908L252.734 110.904H260.895L267.85 137.97H268.101L274.906 110.904H282.965L272.796 146.908H262.904H262.903Z" fill="#0B0C0C"/>
<path d="M324.198 140.833C325.253 140.833 326.236 140.678 327.148 140.369C328.061 140.059 328.847 139.59 329.508 138.962C330.169 138.334 330.693 137.54 331.078 136.577C331.462 135.615 331.655 134.481 331.655 133.175V110.854H338.811V134.255C338.811 136.263 338.447 138.08 337.72 139.703C336.992 141.327 335.981 142.708 334.684 143.846C333.388 144.985 331.845 145.863 330.056 146.483C328.267 147.101 326.31 147.412 324.186 147.412C322.062 147.412 320.105 147.101 318.316 146.483C316.526 145.863 314.98 144.984 313.675 143.846C312.37 142.708 311.354 141.328 310.626 139.703C309.899 138.08 309.535 136.263 309.535 134.255V110.854H316.741V133.175C316.741 134.481 316.934 135.615 317.318 136.577C317.704 137.54 318.227 138.334 318.888 138.962C319.549 139.59 320.336 140.059 321.248 140.369C322.161 140.678 323.144 140.833 324.198 140.833Z" fill="#0B0C0C"/>
<path d="M345.273 110.904H352.555V126.495L365.41 110.904H374.374L361.87 125.215L375.178 146.908H366.717L357.2 130.764L352.555 135.961V146.908H345.273V110.904Z" fill="#0B0C0C"/>
<path d="M119.85 112.462C120.489 110.913 122.276 110.157 123.814 110.788C125.384 111.432 126.119 113.232 125.477 114.778C124.839 116.327 123.059 117.068 121.489 116.419C119.951 115.788 119.212 114.005 119.851 112.463L119.85 112.462Z" fill="#0B0C0C"/>
<path d="M113.329 121.291C111.791 120.659 111.052 118.876 111.691 117.333C112.332 115.78 114.12 115.025 115.658 115.657C117.225 116.299 117.959 118.098 117.318 119.644C116.679 121.194 114.899 121.935 113.33 121.286V121.291H113.329Z" fill="#0B0C0C"/>
<path d="M106.285 125.366C106.924 123.817 108.711 123.061 110.249 123.693C111.819 124.335 112.554 126.135 111.912 127.681C111.274 129.23 109.494 129.971 107.924 129.324C106.386 128.691 105.644 126.912 106.286 125.365L106.285 125.366Z" fill="#0B0C0C"/>
<path d="M130.721 106.72C130.835 106.872 130.969 107.003 131.118 107.117L128.907 113.795C128.903 113.801 128.9 113.812 128.9 113.82C128.9 113.82 129 113.49 128.9 113.826C128.796 114.159 128.741 114.515 128.741 114.881C128.741 116.686 130.076 118.179 131.811 118.435C131.835 118.438 131.863 118.444 131.887 118.444C132.036 118.461 132.184 118.475 132.339 118.475C132.494 118.475 132.643 118.466 132.791 118.444C132.819 118.441 132.846 118.435 132.87 118.435C134.605 118.18 135.94 116.689 135.94 114.881C135.94 114.512 135.885 114.159 135.781 113.826V113.82C135.778 113.812 135.775 113.795 135.775 113.795L133.56 107.117C133.709 107.003 133.843 106.869 133.957 106.72L133.964 106.714L137.82 108.738V103.057L133.97 104.279L133.96 104.268C133.853 104.123 133.725 103.999 133.587 103.888L133.577 103.878L135.125 99H129.561L131.11 103.873L131.099 103.884C130.958 103.995 130.834 104.123 130.727 104.265L130.717 104.274L126.867 103.054V108.738L130.723 106.714L130.73 106.72" fill="#0B0C0C"/>
<path d="M144.898 112.462C144.259 110.913 142.472 110.157 140.934 110.788C139.364 111.432 138.629 113.232 139.271 114.778C139.909 116.327 141.689 117.068 143.259 116.419C144.797 115.788 145.536 114.005 144.897 112.463L144.898 112.462Z" fill="#0B0C0C"/>
<path d="M151.423 121.291C152.961 120.659 153.7 118.876 153.061 117.333C152.42 115.78 150.633 115.025 149.094 115.657C147.528 116.299 146.793 118.098 147.435 119.644C148.073 121.194 149.853 121.935 151.423 121.286V121.291Z" fill="#0B0C0C"/>
<path d="M158.464 125.366C157.826 123.817 156.039 123.061 154.5 123.693C152.93 124.335 152.196 126.135 152.837 127.681C153.475 129.23 155.255 129.971 156.825 129.324C158.364 128.691 159.106 126.912 158.464 125.365L158.464 125.366Z" fill="#0B0C0C"/>
<path d="M132.352 147.411C139.648 147.411 146.55 147.905 152.703 148.783C154.448 141.441 156.573 137.229 158.77 134.235L154.638 132.762C155.052 134.859 155.118 135.839 154.655 137.187C153.972 136.522 153.328 135.293 152.824 133.421L150.82 140.091C152.041 139.253 152.979 138.708 154.055 138.684C152.148 142.793 149.764 143.851 148.223 143.565C146.339 143.218 145.47 141.538 145.763 140.113C146.198 138.095 148.267 137.567 149.237 139.916C151.089 136.139 147.95 134.963 145.929 136.081C149.033 132.986 149.389 130.234 146.881 126.902C143.387 129.572 143.346 132.214 144.919 135.932C142.881 133.596 139.707 134.849 140.852 138.619C142.321 136.342 144.27 137.773 143.964 139.935C143.705 141.818 141.218 143.34 138.121 143.07C133.681 142.667 133.416 139.604 133.305 137.069C134.395 136.869 136.361 137.88 138.038 140.232L138.655 133.157C136.831 135.059 135.175 135.417 133.337 135.475C133.951 133.561 136.765 130.433 136.765 130.433H127.935C127.935 130.433 130.75 133.564 131.364 135.475C129.522 135.417 127.867 135.058 126.045 133.157L126.663 140.232C128.339 137.88 130.305 136.866 131.395 137.069C131.285 139.604 131.019 142.667 126.58 143.07C123.483 143.34 120.996 141.818 120.737 139.935C120.43 137.773 122.379 136.342 123.848 138.619C124.997 134.851 121.823 133.599 119.785 135.932C121.354 132.214 121.313 129.572 117.822 126.902C115.318 130.231 115.673 132.983 118.778 136.081C116.756 134.963 113.618 136.139 115.467 139.916C116.433 137.567 118.505 138.092 118.94 140.113C119.23 141.541 118.364 143.221 116.481 143.565C114.936 143.849 112.556 142.793 110.648 138.684C111.721 138.711 112.662 139.253 113.88 140.091L111.88 133.421C111.377 135.293 110.731 136.522 110.048 137.187C109.59 135.839 109.655 134.863 110.065 132.762L105.93 134.235C108.127 137.232 110.255 141.437 112.001 148.783C118.154 147.905 125.06 147.411 132.359 147.411" fill="#0B0C0C"/>
<path d="M132.342 127.44C134.02 127.44 135.379 126.081 135.379 124.403C135.379 122.726 134.02 121.366 132.342 121.366C130.665 121.366 129.305 122.726 129.305 124.403C129.305 126.081 130.665 127.44 132.342 127.44Z" fill="#0B0C0C"/>
</g>
<rect x="0.5" y="0.5" width="479" height="319" stroke="#B1B4B6"/>
<defs>
<clipPath id="clip0_1168_21302">
<rect width="480" height="320" fill="white"/>
</clipPath>
</defs>
</svg>
