<svg width="151" height="75" viewBox="0 0 151 75" fill="none" xmlns="http://www.w3.org/2000/svg">
<rect x="1.20312" y="0.5" width="149" height="74" fill="white" stroke="#F3F3F3"/>
<path d="M50.2333 30.87C50.2333 31.2982 50.2868 31.7102 50.3939 32.1058C50.5009 32.5015 50.6637 32.8505 50.8827 33.1531C51.1016 33.4558 51.3807 33.6989 51.7207 33.8828C52.0606 34.0666 52.4656 34.1587 52.9359 34.1587C53.4061 34.1587 53.7634 34.0865 54.0637 33.9423C54.3639 33.798 54.6037 33.6176 54.783 33.401C54.962 33.1846 55.0877 32.9508 55.1601 32.6995C55.2322 32.4481 55.2682 32.2153 55.2682 32.0011V31.9034H52.7054V30.3605H57.2374V35.8483H55.4638V34.6752C55.3381 34.8708 55.1821 35.0488 54.996 35.2095C54.8097 35.37 54.6003 35.5074 54.3673 35.6213C54.1345 35.7354 53.8795 35.8251 53.6027 35.8902C53.3257 35.9554 53.0312 35.988 52.7194 35.988C51.9884 35.988 51.3391 35.8553 50.7712 35.5899C50.2032 35.3246 49.7248 34.9593 49.3361 34.4938C48.9475 34.0284 48.6519 33.4837 48.4493 32.8599C48.2468 32.2363 48.1455 31.5637 48.1455 30.842C48.1455 30.1204 48.2584 29.4539 48.4842 28.8279C48.71 28.2019 49.0312 27.6572 49.448 27.1941C49.8647 26.7309 50.3673 26.3656 50.9562 26.0979C51.5452 25.8302 52.205 25.6963 52.936 25.6963C53.4109 25.6963 53.8613 25.751 54.2872 25.8603C54.7132 25.9698 55.1019 26.1257 55.4534 26.3281C55.8048 26.5305 56.1155 26.7751 56.3857 27.0612C56.6555 27.3474 56.8745 27.6652 57.0421 28.0143L55.2684 29.0126C55.1613 28.7986 55.0356 28.5996 54.8913 28.4156C54.7468 28.2319 54.5805 28.0735 54.3921 27.9408C54.2034 27.8081 53.9882 27.7034 53.7462 27.6267C53.504 27.55 53.234 27.5114 52.9362 27.5114C52.466 27.5114 52.0609 27.6035 51.721 27.7873C51.3811 27.9712 51.1019 28.2143 50.8831 28.517C50.6643 28.8195 50.5014 29.1698 50.3943 29.5678C50.2872 29.9659 50.2336 30.3768 50.2336 30.8001V30.87H50.2333Z" fill="#0B0C0C"/>
<path d="M63.6864 25.6962C64.4312 25.6962 65.0992 25.83 65.6905 26.0978C66.2818 26.3655 66.7834 26.7308 67.1955 27.1939C67.6074 27.6571 67.9217 28.2018 68.1382 28.8278C68.3546 29.4538 68.4627 30.1253 68.4627 30.8419C68.4627 31.5585 68.3546 32.2362 68.1382 32.8598C67.9217 33.4836 67.6074 34.0283 67.1955 34.4936C66.7836 34.959 66.2818 35.3245 65.6905 35.5898C65.0994 35.8552 64.4312 35.9878 63.6864 35.9878C62.9415 35.9878 62.2675 35.8552 61.6788 35.5898C61.0898 35.3245 60.5894 34.9592 60.1775 34.4936C59.7655 34.0283 59.4513 33.4836 59.2349 32.8598C59.0185 32.2362 58.9102 31.5636 58.9102 30.8419C58.9102 30.1202 59.0185 29.4538 59.2349 28.8278C59.4513 28.2018 59.7655 27.6571 60.1775 27.1939C60.5894 26.7308 61.0898 26.3655 61.6788 26.0978C62.2677 25.83 62.9368 25.6962 63.6864 25.6962ZM63.6864 34.1584C64.124 34.1584 64.5093 34.0758 64.842 33.9104C65.1748 33.7454 65.4555 33.516 65.6834 33.2229C65.9116 32.9295 66.0838 32.5829 66.2001 32.1825C66.3165 31.7822 66.3748 31.3446 66.3748 30.8699V30.8139C66.3748 30.3438 66.3165 29.9074 66.2001 29.5048C66.0838 29.1022 65.9116 28.7541 65.6834 28.461C65.4553 28.1678 65.1748 27.9386 64.842 27.7732C64.5093 27.6082 64.124 27.5254 63.6864 27.5254C63.2487 27.5254 62.8624 27.6082 62.5271 27.7732C62.192 27.9386 61.9116 28.1678 61.6858 28.461C61.4599 28.7541 61.2889 29.1023 61.1726 29.5048C61.0562 29.9074 60.9979 30.3438 60.9979 30.8139V30.8699C60.9979 31.3446 61.0562 31.7822 61.1726 32.1825C61.2889 32.5829 61.4599 32.9294 61.6858 33.2229C61.9116 33.516 62.192 33.7454 62.5271 33.9104C62.8624 34.0758 63.2487 34.1584 63.6864 34.1584Z" fill="#0B0C0C"/>
<path d="M72.0332 35.8481L69.2051 25.8359H71.4746L73.4091 33.3625H73.4788L75.3713 25.8359H77.6127L74.7846 35.8481H72.0334H72.0332Z" fill="#0B0C0C"/>
<path d="M89.083 34.1583C89.3762 34.1583 89.6498 34.1153 89.9034 34.0292C90.1572 33.9431 90.376 33.8128 90.5598 33.6382C90.7435 33.4636 90.8892 33.2427 90.9963 32.9748C91.1032 32.7073 91.1568 32.392 91.1568 32.0289V25.8218H93.147V32.329C93.147 32.8877 93.0458 33.3928 92.8436 33.8442C92.6413 34.2958 92.3599 34.6798 91.9993 34.9963C91.6388 35.313 91.2096 35.5572 90.7121 35.7294C90.2145 35.9015 89.6702 35.9878 89.0796 35.9878C88.489 35.9878 87.9446 35.9015 87.4471 35.7294C86.9492 35.5572 86.5191 35.3128 86.1561 34.9963C85.7932 34.6798 85.5107 34.2959 85.3083 33.8442C85.106 33.3928 85.0049 32.8875 85.0049 32.329V25.8218H87.0091V32.0289C87.0091 32.392 87.0626 32.7073 87.1696 32.9748C87.2767 33.2427 87.4221 33.4636 87.606 33.6382C87.7899 33.8128 88.0087 33.9431 88.2625 34.0292C88.5163 34.1153 88.7898 34.1583 89.083 34.1583Z" fill="#0B0C0C"/>
<path d="M94.9434 25.8359H96.9685V30.1717L100.544 25.8359H103.037L99.5592 29.8156L103.26 35.8481H100.907L98.2605 31.3586L96.9685 32.8038V35.8481H94.9434V25.8359Z" fill="#0B0C0C"/>
<path d="M80.7911 32.5322C81.7248 32.5322 82.4817 31.7754 82.4817 30.8419C82.4817 29.9084 81.7248 29.1516 80.7911 29.1516C79.8575 29.1516 79.1006 29.9084 79.1006 30.8419C79.1006 31.7754 79.8575 32.5322 80.7911 32.5322Z" fill="#1D70B8"/>
<path d="M59.0999 40.8121V49.304H57.9076V39.3633H59.5782L64.8189 47.8551V39.3633H66.0112V49.304H64.3337L59.0999 40.8121ZM70.9072 42.0807C71.3971 42.0807 71.8431 42.1731 72.2451 42.358C72.6472 42.5382 72.9892 42.7924 73.2711 43.1205C73.5576 43.444 73.7794 43.8322 73.9366 44.2851C74.0937 44.7334 74.1722 45.2279 74.1722 45.7686C74.1722 46.3 74.0937 46.7922 73.9366 47.2451C73.7794 47.6934 73.5576 48.0816 73.2711 48.4097C72.9892 48.7332 72.6472 48.9874 72.2451 49.1722C71.8431 49.3525 71.3971 49.4426 70.9072 49.4426C70.4174 49.4426 69.9714 49.3525 69.5693 49.1722C69.1719 48.9874 68.8299 48.7332 68.5434 48.4097C68.2569 48.0816 68.035 47.6934 67.8779 47.2451C67.7208 46.7922 67.6422 46.3 67.6422 45.7686C67.6422 45.2279 67.7208 44.7334 67.8779 44.2851C68.035 43.8322 68.2569 43.444 68.5434 43.1205C68.8299 42.7924 69.1719 42.5382 69.5693 42.358C69.9714 42.1731 70.4174 42.0807 70.9072 42.0807ZM70.9072 48.4236C71.2446 48.4236 71.5404 48.3543 71.7945 48.2156C72.0533 48.0724 72.2682 47.8806 72.4392 47.6403C72.6148 47.3999 72.7465 47.1227 72.8343 46.8084C72.9222 46.4895 72.9661 46.1568 72.9661 45.8102V45.727C72.9661 45.3711 72.9222 45.0338 72.8343 44.7149C72.7465 44.396 72.6148 44.1188 72.4392 43.8831C72.2682 43.6427 72.0533 43.4533 71.7945 43.3146C71.5404 43.1714 71.2446 43.0997 70.9072 43.0997C70.5699 43.0997 70.2718 43.1714 70.013 43.3146C69.7588 43.4533 69.5439 43.6427 69.3683 43.8831C69.1973 44.1188 69.0679 44.396 68.9801 44.7149C68.8923 45.0338 68.8484 45.3711 68.8484 45.727V45.8102C68.8484 46.1568 68.8923 46.4895 68.9801 46.8084C69.0679 47.1227 69.1973 47.3999 69.3683 47.6403C69.5439 47.8806 69.7588 48.0724 70.013 48.2156C70.2718 48.3543 70.5699 48.4236 70.9072 48.4236ZM77.3837 47.5432C77.3837 47.6634 77.3907 47.7766 77.4045 47.8829C77.423 47.9845 77.4623 48.0747 77.5224 48.1532C77.5871 48.2318 77.6795 48.2942 77.7997 48.3404C77.9198 48.3866 78.0839 48.4097 78.2918 48.4097C78.3473 48.4097 78.412 48.4074 78.4859 48.4028C78.5645 48.3982 78.6454 48.3935 78.7286 48.3889C78.8118 48.3797 78.8926 48.3704 78.9712 48.3612C79.0498 48.3473 79.1168 48.3358 79.1722 48.3265L79.297 49.3455C79.163 49.364 79.0243 49.3802 78.8811 49.3941C78.7609 49.4079 78.6269 49.4195 78.479 49.4287C78.3311 49.438 78.1832 49.4426 78.0354 49.4426C77.7535 49.4426 77.4993 49.4126 77.2728 49.3525C77.051 49.297 76.8615 49.2046 76.7044 49.0752C76.5473 48.9458 76.4271 48.7771 76.3439 48.5692C76.2607 48.3566 76.2191 48.1001 76.2191 47.7997V43.2453H74.8813V42.2194H76.2191V39.904L77.3837 39.495V42.2194H79.3525V43.2453H77.3837V47.5432ZM81.746 49.304H80.5814V42.2194H81.746V49.304ZM80.3665 40.1744C80.3665 40.0635 80.3873 39.9595 80.4289 39.8624C80.4751 39.7654 80.5329 39.6799 80.6022 39.606C80.6761 39.532 80.7616 39.4742 80.8587 39.4327C80.9603 39.3864 81.0666 39.3633 81.1775 39.3633C81.2884 39.3633 81.3924 39.3864 81.4895 39.4327C81.5865 39.4742 81.6697 39.532 81.739 39.606C81.813 39.6799 81.8707 39.7654 81.9123 39.8624C81.9586 39.9595 81.9817 40.0635 81.9817 40.1744C81.9817 40.2853 81.9586 40.3916 81.9123 40.4933C81.8707 40.5903 81.813 40.6758 81.739 40.7498C81.6697 40.8191 81.5865 40.8768 81.4895 40.9231C81.3924 40.9646 81.2884 40.9854 81.1775 40.9854C81.0666 40.9854 80.9603 40.9646 80.8587 40.9231C80.7616 40.8768 80.6761 40.8191 80.6022 40.7498C80.5329 40.6758 80.4751 40.5903 80.4289 40.4933C80.3873 40.3916 80.3665 40.2853 80.3665 40.1744ZM85.3249 42.2194H86.7321V43.2453H85.3249V49.304H84.1603V43.2453H82.9818V42.2194H84.1603V40.9023C84.1603 40.5972 84.2088 40.3385 84.3058 40.1259C84.4029 39.9133 84.5369 39.7423 84.7079 39.6129C84.8835 39.4789 85.0892 39.3841 85.3249 39.3287C85.5652 39.2686 85.8263 39.2386 86.1082 39.2386C86.3947 39.2386 86.6327 39.2524 86.8222 39.2802C87.0117 39.3033 87.1526 39.3217 87.2451 39.3356L87.1549 40.3338C87.0856 40.3292 87.0047 40.3223 86.9123 40.313C86.8245 40.3038 86.7321 40.2969 86.635 40.2922C86.5426 40.2876 86.4525 40.283 86.3647 40.2784C86.2769 40.2738 86.2052 40.2714 86.1498 40.2714C85.9834 40.2714 85.8471 40.2969 85.7408 40.3477C85.6345 40.3939 85.549 40.4563 85.4843 40.5349C85.4242 40.6134 85.3826 40.7035 85.3595 40.8052C85.3364 40.9069 85.3249 41.0132 85.3249 41.1241V42.2194ZM87.2054 42.2194H88.5225L90.2694 48.07L91.9331 42.2194H93.2363L90.6576 50.3715C90.579 50.6211 90.4774 50.8244 90.3526 50.9815C90.2278 51.1433 90.0845 51.2704 89.9228 51.3628C89.7657 51.4598 89.59 51.5268 89.3959 51.5638C89.2018 51.6008 88.9962 51.6193 88.779 51.6193C88.5849 51.6193 88.3839 51.6077 88.1759 51.5846C87.9679 51.5661 87.7484 51.5384 87.5174 51.5014L87.6907 50.4824C87.7831 50.5009 87.8824 50.5171 87.9887 50.5309C88.0765 50.5448 88.1759 50.5564 88.2868 50.5656C88.3977 50.5748 88.5109 50.5795 88.6265 50.5795C88.8807 50.5795 89.0771 50.524 89.2157 50.4131C89.359 50.3022 89.4606 50.1219 89.5207 49.8724L89.59 49.5466L87.2054 42.2194Z" fill="#0B0C0C"/>
</svg>
