<svg width="480" height="320" viewBox="0 0 480 320" fill="none" xmlns="http://www.w3.org/2000/svg">
<g clip-path="url(#clip0_1212_3553)">
<path d="M480 0H0V320H480V0Z" fill="white"/>
<path d="M149.409 130.361C149.409 131.88 149.599 133.342 149.979 134.746C150.359 136.15 150.937 137.389 151.714 138.463C152.491 139.537 153.481 140.4 154.688 141.052C155.894 141.705 157.331 142.032 159 142.032C160.669 142.032 161.937 141.776 163.003 141.264C164.068 140.752 164.919 140.111 165.555 139.343C166.191 138.575 166.637 137.745 166.894 136.853C167.15 135.961 167.277 135.135 167.277 134.375V134.028H158.182V128.553H174.266V148.028H167.971V143.865C167.525 144.559 166.972 145.191 166.311 145.761C165.65 146.33 164.907 146.818 164.08 147.222C163.254 147.627 162.349 147.945 161.367 148.176C160.384 148.408 159.339 148.523 158.232 148.523C155.638 148.523 153.334 148.052 151.318 147.111C149.303 146.169 147.605 144.873 146.225 143.221C144.846 141.569 143.797 139.636 143.078 137.423C142.36 135.209 142 132.823 142 130.262C142 127.7 142.401 125.335 143.202 123.114C144.003 120.892 145.143 118.959 146.622 117.316C148.101 115.672 149.885 114.376 151.975 113.426C154.065 112.476 156.407 112 159.001 112C160.686 112 162.284 112.195 163.796 112.583C165.308 112.971 166.687 113.524 167.935 114.243C169.181 114.961 170.284 115.829 171.243 116.844C172.201 117.86 172.978 118.988 173.573 120.227L167.278 123.769C166.898 123.01 166.452 122.304 165.94 121.651C165.427 120.999 164.837 120.437 164.168 119.966C163.499 119.495 162.735 119.123 161.876 118.851C161.016 118.579 160.058 118.442 159.001 118.442C157.333 118.442 155.895 118.769 154.689 119.421C153.483 120.073 152.492 120.936 151.715 122.011C150.939 123.084 150.361 124.327 149.98 125.74C149.6 127.152 149.41 128.611 149.41 130.113V130.361H149.409Z" fill="#0B0C0C"/>
<path d="M197.157 112C199.8 112 202.171 112.475 204.269 113.425C206.368 114.375 208.148 115.672 209.61 117.315C211.072 118.959 212.188 120.892 212.956 123.113C213.724 125.335 214.108 127.718 214.108 130.261C214.108 132.804 213.724 135.209 212.956 137.422C212.188 139.636 211.072 141.569 209.61 143.22C208.149 144.872 206.368 146.169 204.269 147.11C202.172 148.052 199.8 148.523 197.157 148.523C194.514 148.523 192.122 148.052 190.032 147.11C187.942 146.169 186.167 144.872 184.705 143.22C183.242 141.569 182.128 139.636 181.359 137.422C180.591 135.209 180.207 132.822 180.207 130.261C180.207 127.7 180.591 125.335 181.359 123.113C182.128 120.892 183.242 118.959 184.705 117.315C186.167 115.672 187.942 114.375 190.032 113.425C192.122 112.475 194.497 112 197.157 112ZM197.157 142.03C198.71 142.03 200.077 141.738 201.258 141.15C202.439 140.565 203.435 139.751 204.244 138.71C205.054 137.67 205.665 136.439 206.078 135.018C206.491 133.598 206.698 132.045 206.698 130.36V130.162C206.698 128.493 206.491 126.945 206.078 125.516C205.665 124.087 205.054 122.852 204.244 121.812C203.435 120.771 202.439 119.958 201.258 119.371C200.077 118.785 198.71 118.492 197.157 118.492C195.604 118.492 194.233 118.785 193.043 119.371C191.854 119.958 190.859 120.771 190.057 121.812C189.256 122.852 188.649 124.088 188.236 125.516C187.823 126.945 187.616 128.493 187.616 130.162V130.36C187.616 132.045 187.823 133.598 188.236 135.018C188.649 136.439 189.256 137.669 190.057 138.71C190.859 139.751 191.854 140.565 193.043 141.15C194.233 141.738 195.604 142.03 197.157 142.03Z" fill="#0B0C0C"/>
<path d="M226.767 148.027L216.73 112.496H224.785L231.65 139.206H231.897L238.613 112.496H246.568L236.531 148.027H226.768H226.767Z" fill="#0B0C0C"/>
<path d="M287.277 142.03C288.318 142.03 289.289 141.878 290.189 141.572C291.089 141.266 291.866 140.804 292.518 140.184C293.17 139.565 293.687 138.781 294.067 137.83C294.447 136.881 294.637 135.762 294.637 134.473V112.446H301.7V135.539C301.7 137.521 301.341 139.314 300.623 140.915C299.905 142.518 298.906 143.881 297.627 145.004C296.347 146.128 294.824 146.994 293.059 147.606C291.293 148.216 289.361 148.522 287.265 148.522C285.169 148.522 283.237 148.216 281.472 147.606C279.705 146.994 278.178 146.127 276.89 145.004C275.602 143.881 274.6 142.519 273.881 140.915C273.164 139.314 272.805 137.52 272.805 135.539V112.446H279.917V134.473C279.917 135.762 280.107 136.881 280.487 137.83C280.867 138.781 281.383 139.565 282.036 140.184C282.688 140.804 283.465 141.266 284.365 141.572C285.266 141.878 286.237 142.03 287.277 142.03Z" fill="#0B0C0C"/>
<path d="M308.074 112.496H315.261V127.882L327.949 112.496H336.797L324.455 126.619L337.59 148.027H329.239L319.846 132.094L315.261 137.223V148.027H308.074V112.496Z" fill="#0B0C0C"/>
<path d="M257.863 136.259C261.176 136.259 263.862 133.574 263.862 130.261C263.862 126.948 261.176 124.263 257.863 124.263C254.549 124.263 251.863 126.948 251.863 130.261C251.863 133.574 254.549 136.259 257.863 136.259Z" fill="#1D70B8"/>
<path d="M203.85 190.418H204.096L210.098 161.388H214.527L206.679 196.666H201.537L194.034 167.859L186.555 196.666H181.389L173.566 161.388H177.945L184.046 190.418H184.341L192.017 161.388H196.199L203.85 190.418ZM232.566 194.157C231.828 195.01 230.827 195.723 229.565 196.297C228.318 196.871 226.85 197.158 225.161 197.158C223.915 197.158 222.758 196.986 221.692 196.642C220.626 196.281 219.7 195.772 218.912 195.116C218.125 194.46 217.51 193.665 217.067 192.73C216.625 191.795 216.403 190.737 216.403 189.557C216.403 188.573 216.559 187.679 216.871 186.875C217.199 186.055 217.65 185.342 218.224 184.735C218.814 184.128 219.519 183.636 220.339 183.259C221.159 182.865 222.078 182.595 223.095 182.447L231.976 181.241V179.642C231.976 178.691 231.828 177.896 231.533 177.256C231.238 176.6 230.836 176.083 230.327 175.706C229.835 175.329 229.245 175.058 228.556 174.894C227.884 174.73 227.154 174.648 226.367 174.648C224.956 174.648 223.636 174.845 222.406 175.239C221.192 175.632 220.093 176.092 219.109 176.616L217.559 173.345C219.003 172.525 220.511 171.934 222.086 171.573C223.677 171.212 225.243 171.032 226.785 171.032C229.852 171.032 232.172 171.729 233.747 173.123C235.321 174.501 236.108 176.518 236.108 179.175V190.762C236.108 191.598 236.272 192.304 236.601 192.878C236.929 193.435 237.453 193.878 238.175 194.206L235.838 197.158C235.051 196.961 234.37 196.617 233.796 196.125C233.238 195.617 232.845 195.01 232.615 194.305L232.566 194.157ZM225.21 185.473C224.521 185.571 223.89 185.711 223.316 185.891C222.758 186.071 222.283 186.317 221.889 186.629C221.496 186.924 221.184 187.293 220.954 187.736C220.741 188.179 220.634 188.72 220.634 189.36C220.634 190.098 220.774 190.754 221.053 191.328C221.332 191.902 221.709 192.386 222.184 192.779C222.66 193.173 223.209 193.476 223.833 193.69C224.472 193.886 225.136 193.985 225.825 193.985C226.596 193.985 227.351 193.878 228.089 193.665C228.827 193.452 229.483 193.148 230.057 192.755C230.631 192.345 231.09 191.853 231.434 191.279C231.795 190.705 231.976 190.049 231.976 189.311V184.464L225.21 185.473ZM242.684 161.388H246.817V191.033C246.817 191.443 246.85 191.803 246.915 192.115C246.997 192.427 247.128 192.689 247.309 192.902C247.489 193.116 247.735 193.28 248.047 193.394C248.375 193.493 248.777 193.542 249.252 193.542C249.777 193.542 250.253 193.526 250.679 193.493C251.106 193.46 251.483 193.427 251.811 193.394L252.229 196.863C251.753 196.912 251.278 196.961 250.802 197.011C250.392 197.043 249.941 197.076 249.449 197.109C248.957 197.142 248.49 197.158 248.047 197.158C247.309 197.158 246.612 197.068 245.956 196.888C245.3 196.724 244.726 196.445 244.234 196.051C243.758 195.658 243.381 195.149 243.102 194.526C242.823 193.903 242.684 193.14 242.684 192.238V161.388ZM255.262 161.388H259.395V191.033C259.395 191.443 259.428 191.803 259.493 192.115C259.575 192.427 259.706 192.689 259.887 192.902C260.067 193.116 260.313 193.28 260.625 193.394C260.953 193.493 261.355 193.542 261.83 193.542C262.355 193.542 262.831 193.526 263.257 193.493C263.684 193.46 264.061 193.427 264.389 193.394L264.807 196.863C264.331 196.912 263.856 196.961 263.38 197.011C262.97 197.043 262.519 197.076 262.027 197.109C261.535 197.142 261.068 197.158 260.625 197.158C259.887 197.158 259.19 197.068 258.534 196.888C257.878 196.724 257.304 196.445 256.812 196.051C256.336 195.658 255.959 195.149 255.68 194.526C255.401 193.903 255.262 193.14 255.262 192.238V161.388ZM270.817 185.374C270.899 186.555 271.136 187.646 271.53 188.646C271.924 189.647 272.457 190.516 273.129 191.254C273.818 191.976 274.621 192.542 275.54 192.952C276.475 193.345 277.508 193.542 278.64 193.542C280.034 193.542 281.256 193.312 282.305 192.853C283.371 192.377 284.347 191.787 285.233 191.082L287.348 194.059C286.217 194.961 284.905 195.707 283.412 196.297C281.936 196.871 280.28 197.158 278.443 197.158C276.622 197.158 274.974 196.838 273.498 196.199C272.022 195.543 270.759 194.641 269.709 193.493C268.676 192.328 267.881 190.951 267.323 189.36C266.766 187.753 266.487 186.006 266.487 184.12C266.487 182.201 266.757 180.446 267.299 178.855C267.856 177.248 268.635 175.87 269.636 174.722C270.636 173.558 271.833 172.656 273.227 172.016C274.621 171.36 276.171 171.032 277.877 171.032C279.533 171.032 281.026 171.36 282.354 172.016C283.683 172.656 284.814 173.558 285.749 174.722C286.684 175.87 287.398 177.248 287.89 178.855C288.398 180.446 288.652 182.184 288.652 184.071V185.374H270.817ZM277.729 174.648C276.68 174.648 275.745 174.853 274.925 175.263C274.105 175.673 273.4 176.223 272.809 176.912C272.235 177.601 271.776 178.396 271.432 179.298C271.104 180.184 270.915 181.102 270.866 182.053H284.175C284.142 181.086 283.97 180.159 283.658 179.273C283.363 178.371 282.937 177.584 282.379 176.912C281.838 176.223 281.174 175.673 280.386 175.263C279.615 174.853 278.73 174.648 277.729 174.648ZM299.926 190.418C299.926 190.844 299.951 191.246 300 191.623C300.066 191.984 300.205 192.304 300.418 192.583C300.648 192.861 300.976 193.083 301.402 193.247C301.829 193.411 302.411 193.493 303.149 193.493C303.346 193.493 303.575 193.485 303.838 193.468C304.117 193.452 304.404 193.435 304.699 193.419C304.994 193.386 305.281 193.353 305.56 193.321C305.839 193.271 306.077 193.23 306.273 193.198L306.716 196.814C306.241 196.879 305.749 196.937 305.24 196.986C304.814 197.035 304.338 197.076 303.813 197.109C303.288 197.142 302.764 197.158 302.239 197.158C301.238 197.158 300.336 197.052 299.533 196.838C298.745 196.642 298.073 196.314 297.515 195.854C296.958 195.395 296.531 194.797 296.236 194.059C295.941 193.304 295.793 192.394 295.793 191.328V175.165H291.045V171.524H295.793V163.307L299.926 161.856V171.524H306.913V175.165H299.926V190.418Z" fill="#0B0C0C"/>
</g>
<rect x="0.5" y="0.5" width="479" height="319" stroke="#B1B4B6"/>
<defs>
<clipPath id="clip0_1212_3553">
<rect width="480" height="320" fill="white"/>
</clipPath>
</defs>
</svg>
