<svg width="153" height="75" viewBox="0 0 153 75" fill="none" xmlns="http://www.w3.org/2000/svg">
<rect x="0.9375" y="0.5" width="151" height="74" fill="white" stroke="#F3F3F3"/>
<path d="M92.1011 34.1441C93.035 34.1441 93.7921 33.3871 93.7921 32.4532C93.7921 31.5193 93.035 30.7622 92.1011 30.7622C91.1672 30.7622 90.4102 31.5193 90.4102 32.4532C90.4102 33.3871 91.1672 34.1441 92.1011 34.1441Z" fill="#1D70B8"/>
<path d="M61.5356 32.4812C61.5356 32.9096 61.5891 33.3217 61.6963 33.7175C61.8032 34.1133 61.9661 34.4625 62.1852 34.7652C62.4041 35.068 62.6833 35.3112 63.0233 35.4951C63.3633 35.6791 63.7685 35.7712 64.2389 35.7712C64.7092 35.7712 65.0666 35.699 65.367 35.5547C65.6673 35.4104 65.9071 35.2299 66.0864 35.0132C66.2656 34.7967 66.3913 34.5628 66.4636 34.3114C66.5358 34.0599 66.5718 33.827 66.5718 33.6128V33.515H64.0084V31.9714H68.5415V37.4615H66.7675V36.2879C66.6417 36.4836 66.4856 36.6617 66.2995 36.8224C66.1132 36.9829 65.9037 37.1204 65.6707 37.2344C65.4378 37.3485 65.1828 37.4383 64.9059 37.5034C64.6288 37.5686 64.3342 37.6012 64.0224 37.6012C63.2912 37.6012 62.6417 37.4685 62.0736 37.203C61.5055 36.9376 61.027 36.5721 60.6382 36.1064C60.2494 35.6408 59.9538 35.0959 59.7511 34.4719C59.5486 33.848 59.4473 33.1752 59.4473 32.4532C59.4473 31.7312 59.5602 31.0645 59.7861 30.4383C60.0119 29.812 60.3332 29.2671 60.7501 28.8038C61.1669 28.3404 61.6696 27.975 62.2587 27.7072C62.8478 27.4393 63.5078 27.3054 64.239 27.3054C64.714 27.3054 65.1645 27.3602 65.5905 27.4695C66.0167 27.5791 66.4054 27.735 66.757 27.9375C67.1085 28.14 67.4193 28.3846 67.6895 28.6709C67.9594 28.9571 68.1785 29.2751 68.3462 29.6244L66.5719 30.623C66.4648 30.4089 66.3391 30.2099 66.1948 30.0258C66.0503 29.842 65.8839 29.6836 65.6954 29.5508C65.5067 29.4181 65.2914 29.3134 65.0494 29.2366C64.8071 29.1598 64.5371 29.1213 64.2392 29.1213C63.7689 29.1213 63.3637 29.2134 63.0237 29.3973C62.6837 29.5812 62.4044 29.8245 62.1855 30.1273C61.9667 30.4299 61.8037 30.7803 61.6966 31.1785C61.5895 31.5767 61.5359 31.9878 61.5359 32.4112V32.4812H61.5356Z" fill="#0B0C0C"/>
<path d="M74.9923 27.3053C75.7373 27.3053 76.4055 27.4392 76.997 27.7071C77.5883 27.9749 78.0902 28.3403 78.5023 28.8037C78.9143 29.267 79.2287 29.8119 79.4452 30.4382C79.6617 31.0644 79.7699 31.7362 79.7699 32.4531C79.7699 33.1699 79.6617 33.8479 79.4452 34.4718C79.2287 35.0958 78.9143 35.6407 78.5023 36.1063C78.0903 36.5718 77.5884 36.9374 76.997 37.2029C76.4057 37.4683 75.7373 37.6011 74.9923 37.6011C74.2473 37.6011 73.5731 37.4683 72.9842 37.2029C72.3951 36.9374 71.8946 36.572 71.4826 36.1063C71.0704 35.6407 70.7562 35.0958 70.5397 34.4718C70.3232 33.8479 70.2148 33.1751 70.2148 32.4531C70.2148 31.7311 70.3232 31.0644 70.5397 30.4382C70.7562 29.8119 71.0704 29.267 71.4826 28.8037C71.8946 28.3403 72.3951 27.9749 72.9842 27.7071C73.5732 27.4392 74.2425 27.3053 74.9923 27.3053ZM74.9923 35.7711C75.43 35.7711 75.8154 35.6885 76.1482 35.523C76.4811 35.3579 76.7619 35.1284 76.9898 34.8352C77.2181 34.5417 77.3904 34.1949 77.5067 33.7943C77.6231 33.3939 77.6814 32.9562 77.6814 32.4812V32.4253C77.6814 31.9549 77.6231 31.5184 77.5067 31.1156C77.3904 30.7128 77.2181 30.3646 76.9898 30.0714C76.7617 29.7781 76.4811 29.5488 76.1482 29.3834C75.8154 29.2182 75.43 29.1355 74.9923 29.1355C74.5545 29.1355 74.1681 29.2182 73.8327 29.3834C73.4975 29.5488 73.217 29.7781 72.9912 30.0714C72.7653 30.3646 72.5942 30.713 72.4778 31.1156C72.3615 31.5184 72.3031 31.9549 72.3031 32.4253V32.4812C72.3031 32.9562 72.3615 33.3939 72.4778 33.7943C72.5942 34.1949 72.7653 34.5416 72.9912 34.8352C73.217 35.1284 73.4975 35.3579 73.8327 35.523C74.1681 35.6885 74.5545 35.7711 74.9923 35.7711Z" fill="#0B0C0C"/>
<path d="M83.3415 37.4612L80.5127 27.4451H82.7828L84.7178 34.9746H84.7875L86.6805 27.4451H88.9225L86.0936 37.4612H83.3417H83.3415Z" fill="#0B0C0C"/>
<path d="M100.396 35.7711C100.689 35.7711 100.962 35.7281 101.216 35.642C101.47 35.5558 101.689 35.4255 101.873 35.2508C102.057 35.0761 102.202 34.8552 102.309 34.5872C102.416 34.3195 102.47 34.0041 102.47 33.6409V27.4313H104.461V33.9411C104.461 34.5 104.359 35.0053 104.157 35.4569C103.955 35.9086 103.673 36.2928 103.313 36.6094C102.952 36.9262 102.523 37.1705 102.025 37.3428C101.527 37.515 100.983 37.6013 100.392 37.6013C99.8014 37.6013 99.2568 37.515 98.7592 37.3428C98.2612 37.1705 97.831 36.9261 97.4679 36.6094C97.1049 36.2928 96.8224 35.9088 96.6199 35.4569C96.4176 35.0053 96.3164 34.4998 96.3164 33.9411V27.4313H98.3211V33.6409C98.3211 34.0041 98.3747 34.3195 98.4816 34.5872C98.5888 34.8552 98.7343 35.0761 98.9182 35.2508C99.1021 35.4255 99.321 35.5558 99.5748 35.642C99.8287 35.7281 100.102 35.7711 100.396 35.7711Z" fill="#0B0C0C"/>
<path d="M106.257 27.4451H108.283V31.7825L111.859 27.4451H114.352L110.874 31.4263L114.576 37.4612H112.222L109.575 32.9699L108.283 34.4157V37.4612H106.257V27.4451Z" fill="#0B0C0C"/>
<path d="M43.5442 27.8789C43.7218 27.448 44.2189 27.2378 44.647 27.4133C45.0837 27.5923 45.2881 28.093 45.1096 28.5231C44.932 28.954 44.4368 29.1603 44.0002 28.9798C43.5722 28.8042 43.3668 28.3083 43.5444 27.8791L43.5442 27.8789Z" fill="#0B0C0C"/>
<path d="M41.7317 30.3348C41.3036 30.1589 41.0982 29.663 41.2758 29.2336C41.4543 28.8018 41.9516 28.5916 42.3796 28.7675C42.8153 28.946 43.0197 29.4467 42.8412 29.8768C42.6637 30.3077 42.1684 30.5139 41.7318 30.3334V30.3348H41.7317Z" fill="#0B0C0C"/>
<path d="M39.7741 31.4685C39.9517 31.0375 40.4488 30.8274 40.8768 31.0033C41.3135 31.1817 41.5179 31.6824 41.3395 32.1125C41.1619 32.5434 40.6666 32.7497 40.2301 32.5695C39.802 32.3936 39.5958 31.8986 39.7742 31.4683L39.7741 31.4685Z" fill="#0B0C0C"/>
<path d="M46.5701 26.2813C46.6018 26.3236 46.6392 26.3601 46.6805 26.3917L46.0655 28.2495C46.0644 28.2512 46.0636 28.2543 46.0636 28.2563C46.0636 28.2563 46.0914 28.1647 46.0636 28.258C46.0347 28.3508 46.0194 28.4498 46.0194 28.5516C46.0194 29.0537 46.3908 29.4691 46.8734 29.5403C46.8801 29.5411 46.8877 29.5428 46.8946 29.5428C46.9358 29.5476 46.9771 29.5513 47.0203 29.5513C47.0635 29.5513 47.1047 29.5488 47.146 29.5428C47.1537 29.542 47.1614 29.5403 47.168 29.5403C47.6507 29.4693 48.022 29.0546 48.022 28.5516C48.022 28.4489 48.0067 28.3508 47.9779 28.258V28.2563C47.9768 28.2541 47.976 28.2495 47.976 28.2495L47.36 26.3917C47.4012 26.36 47.4386 26.3228 47.4703 26.2813L47.4722 26.2796L48.5449 26.8428V25.2623L47.4741 25.6022L47.4712 25.5991C47.4415 25.5588 47.4058 25.5242 47.3675 25.4933L47.3646 25.4908L47.7953 24.1337H46.2475L46.6782 25.4894L46.6753 25.4925C46.6359 25.5234 46.6015 25.5588 46.5718 25.5983L46.5689 25.6008L45.498 25.2615V26.8428L46.5708 26.2796L46.5726 26.2813" fill="#0B0C0C"/>
<path d="M50.5156 27.8789C50.338 27.448 49.8409 27.2378 49.4128 27.4133C48.9761 27.5923 48.7717 28.093 48.9502 28.5231C49.1278 28.954 49.6228 29.1603 50.0596 28.9798C50.4876 28.8042 50.693 28.3083 50.5154 27.8791L50.5156 27.8789Z" fill="#0B0C0C"/>
<path d="M52.3281 30.3348C52.7562 30.1589 52.9616 29.663 52.784 29.2336C52.6055 28.8018 52.1084 28.5916 51.6804 28.7675C51.2447 28.946 51.0403 29.4467 51.2187 29.8768C51.3963 30.3077 51.8914 30.5139 52.3281 30.3334V30.3348Z" fill="#0B0C0C"/>
<path d="M54.288 31.4685C54.1105 31.0375 53.6133 30.8274 53.1853 31.0033C52.7486 31.1817 52.5442 31.6824 52.7226 32.1125C52.9002 32.5434 53.3953 32.7497 53.832 32.5695C54.2601 32.3936 54.4665 31.8986 54.2879 31.4683L54.288 31.4685Z" fill="#0B0C0C"/>
<path d="M47.0234 37.6012C49.0528 37.6012 50.9729 37.7386 52.6847 37.983C53.1702 35.9405 53.7613 34.7686 54.3726 33.9358L53.2231 33.5262C53.3383 34.1094 53.3565 34.382 53.2279 34.757C53.0378 34.5721 52.8585 34.2302 52.7183 33.7094L52.1608 35.565C52.5005 35.3318 52.7615 35.1803 53.0609 35.1735C52.5303 36.3165 51.8672 36.6109 51.4383 36.5314C50.9144 36.4347 50.6725 35.9674 50.7542 35.5711C50.8752 35.0097 51.4508 34.8628 51.7205 35.5164C52.2357 34.4656 51.3626 34.1383 50.8003 34.4494C51.6638 33.5884 51.7628 32.8228 51.0652 31.8958C50.0931 32.6387 50.0817 33.3735 50.5193 34.4078C49.9522 33.7582 49.0694 34.1065 49.3879 35.1554C49.7966 34.5219 50.3388 34.9199 50.2535 35.5216C50.1815 36.0454 49.4897 36.4686 48.6281 36.3937C47.3931 36.2817 47.3192 35.4295 47.2885 34.7243C47.5917 34.6687 48.1386 34.9498 48.605 35.6042L48.7768 33.636C48.2693 34.165 47.8087 34.2647 47.2972 34.2809C47.468 33.7484 48.251 32.8781 48.251 32.8781H45.7946C45.7946 32.8781 46.5776 33.7493 46.7484 34.2809C46.2359 34.2647 45.7755 34.1649 45.2688 33.636L45.4406 35.6042C45.907 34.9498 46.4539 34.6678 46.7571 34.7243C46.7264 35.4295 46.6525 36.2817 45.4176 36.3937C44.5559 36.4686 43.8641 36.0454 43.7921 35.5216C43.7066 34.9199 44.2488 34.5219 44.6576 35.1554C44.9771 34.1072 44.0942 33.759 43.5272 34.4078C43.9637 33.3735 43.9523 32.6387 42.9813 31.8958C42.2845 32.8219 42.3835 33.5874 43.247 34.4494C42.6848 34.1383 41.8116 34.4656 42.326 35.5164C42.5947 34.8628 43.1713 35.0088 43.2923 35.5711C43.373 35.9683 43.1321 36.4355 42.6082 36.5314C42.1783 36.6102 41.5162 36.3166 40.9854 35.1735C41.2838 35.1811 41.5458 35.3318 41.8847 35.565L41.3282 33.7094C41.1881 34.2302 41.0086 34.5721 40.8186 34.757C40.691 34.382 40.7092 34.1105 40.8234 33.5262L39.6729 33.9358C40.2841 34.7695 40.8761 35.9394 41.3618 37.983C43.0736 37.7387 44.9947 37.6012 47.0251 37.6012" fill="#0B0C0C"/>
<path d="M47.0227 32.0457C47.4894 32.0457 47.8677 31.6673 47.8677 31.2007C47.8677 30.734 47.4894 30.3557 47.0227 30.3557C46.556 30.3557 46.1777 30.734 46.1777 31.2007C46.1777 31.6673 46.556 32.0457 47.0227 32.0457Z" fill="#0B0C0C"/>
<path d="M40.8851 42.4284V50.9202H39.6928V40.9795H41.3634L46.6041 49.4714V40.9795H47.7964V50.9202H46.1188L40.8851 42.4284ZM52.6924 43.6969C53.1823 43.6969 53.6282 43.7894 54.0303 43.9742C54.4323 44.1544 54.7743 44.4086 55.0562 44.7367C55.3428 45.0602 55.5646 45.4484 55.7217 45.9013C55.8788 46.3496 55.9574 46.8441 55.9574 47.3848C55.9574 47.9163 55.8788 48.4084 55.7217 48.8613C55.5646 49.3096 55.3428 49.6978 55.0562 50.0259C54.7743 50.3494 54.4323 50.6036 54.0303 50.7885C53.6282 50.9687 53.1823 51.0588 52.6924 51.0588C52.2025 51.0588 51.7566 50.9687 51.3545 50.7885C50.957 50.6036 50.6151 50.3494 50.3285 50.0259C50.042 49.6978 49.8202 49.3096 49.6631 48.8613C49.5059 48.4084 49.4274 47.9163 49.4274 47.3848C49.4274 46.8441 49.5059 46.3496 49.6631 45.9013C49.8202 45.4484 50.042 45.0602 50.3285 44.7367C50.6151 44.4086 50.957 44.1544 51.3545 43.9742C51.7566 43.7894 52.2025 43.6969 52.6924 43.6969ZM52.6924 50.0398C53.0297 50.0398 53.3255 49.9705 53.5797 49.8318C53.8385 49.6886 54.0534 49.4968 54.2244 49.2565C54.4 49.0162 54.5317 48.7389 54.6195 48.4246C54.7073 48.1057 54.7512 47.773 54.7512 47.4264V47.3432C54.7512 46.9874 54.7073 46.65 54.6195 46.3311C54.5317 46.0122 54.4 45.735 54.2244 45.4993C54.0534 45.259 53.8385 45.0695 53.5797 44.9308C53.3255 44.7876 53.0297 44.7159 52.6924 44.7159C52.355 44.7159 52.0569 44.7876 51.7981 44.9308C51.544 45.0695 51.3291 45.259 51.1535 45.4993C50.9825 45.735 50.8531 46.0122 50.7653 46.3311C50.6775 46.65 50.6336 46.9874 50.6336 47.3432V47.4264C50.6336 47.773 50.6775 48.1057 50.7653 48.4246C50.8531 48.7389 50.9825 49.0162 51.1535 49.2565C51.3291 49.4968 51.544 49.6886 51.7981 49.8318C52.0569 49.9705 52.355 50.0398 52.6924 50.0398ZM59.1689 49.1594C59.1689 49.2796 59.1758 49.3928 59.1897 49.4991C59.2082 49.6008 59.2475 49.6909 59.3075 49.7694C59.3722 49.848 59.4647 49.9104 59.5848 49.9566C59.705 50.0028 59.869 50.0259 60.077 50.0259C60.1325 50.0259 60.1972 50.0236 60.2711 50.019C60.3497 50.0144 60.4305 50.0098 60.5137 50.0051C60.5969 49.9959 60.6778 49.9866 60.7563 49.9774C60.8349 49.9635 60.9019 49.952 60.9574 49.9427L61.0822 50.9618C60.9481 50.9802 60.8095 50.9964 60.6662 51.0103C60.5461 51.0241 60.4121 51.0357 60.2642 51.0449C60.1163 51.0542 59.9684 51.0588 59.8205 51.0588C59.5386 51.0588 59.2844 51.0288 59.058 50.9687C58.8362 50.9132 58.6467 50.8208 58.4896 50.6914C58.3324 50.562 58.2123 50.3933 58.1291 50.1854C58.0459 49.9728 58.0043 49.7163 58.0043 49.4159V44.8615H56.6664V43.8356H58.0043V41.5203L59.1689 41.1113V43.8356H61.1376V44.8615H59.1689V49.1594ZM63.5311 50.9202H62.3665V43.8356H63.5311V50.9202ZM62.1516 41.7906C62.1516 41.6797 62.1724 41.5757 62.214 41.4787C62.2602 41.3816 62.318 41.2961 62.3873 41.2222C62.4613 41.1482 62.5468 41.0905 62.6438 41.0489C62.7455 41.0027 62.8518 40.9795 62.9627 40.9795C63.0736 40.9795 63.1776 41.0027 63.2746 41.0489C63.3717 41.0905 63.4549 41.1482 63.5242 41.2222C63.5981 41.2961 63.6559 41.3816 63.6975 41.4787C63.7437 41.5757 63.7668 41.6797 63.7668 41.7906C63.7668 41.9015 63.7437 42.0078 63.6975 42.1095C63.6559 42.2065 63.5981 42.292 63.5242 42.366C63.4549 42.4353 63.3717 42.4931 63.2746 42.5393C63.1776 42.5809 63.0736 42.6017 62.9627 42.6017C62.8518 42.6017 62.7455 42.5809 62.6438 42.5393C62.5468 42.4931 62.4613 42.4353 62.3873 42.366C62.318 42.292 62.2602 42.2065 62.214 42.1095C62.1724 42.0078 62.1516 41.9015 62.1516 41.7906ZM67.11 43.8356H68.5172V44.8615H67.11V50.9202H65.9454V44.8615H64.767V43.8356H65.9454V42.5185C65.9454 42.2135 65.994 41.9547 66.091 41.7421C66.1881 41.5295 66.3221 41.3585 66.4931 41.2291C66.6687 41.0951 66.8743 41.0003 67.11 40.9449C67.3503 40.8848 67.6114 40.8548 67.8933 40.8548C68.1799 40.8548 68.4179 40.8686 68.6074 40.8964C68.7968 40.9195 68.9378 40.938 69.0302 40.9518L68.9401 41.95C68.8708 41.9454 68.7899 41.9385 68.6975 41.9292C68.6097 41.92 68.5172 41.9131 68.4202 41.9084C68.3278 41.9038 68.2376 41.8992 68.1498 41.8946C68.062 41.89 67.9904 41.8877 67.9349 41.8877C67.7686 41.8877 67.6322 41.9131 67.5259 41.9639C67.4197 42.0101 67.3342 42.0725 67.2695 42.1511C67.2094 42.2296 67.1678 42.3198 67.1447 42.4214C67.1216 42.5231 67.11 42.6294 67.11 42.7403V43.8356ZM68.9906 43.8356H70.3077L72.0545 49.6863L73.7182 43.8356H75.0215L72.4427 51.9877C72.3642 52.2373 72.2625 52.4406 72.1377 52.5977C72.013 52.7595 71.8697 52.8866 71.7079 52.979C71.5508 53.076 71.3752 53.1431 71.1811 53.18C70.987 53.217 70.7814 53.2355 70.5641 53.2355C70.37 53.2355 70.169 53.2239 69.9611 53.2008C69.7531 53.1823 69.5336 53.1546 69.3025 53.1176L69.4758 52.0986C69.5682 52.1171 69.6676 52.1333 69.7739 52.1471C69.8617 52.161 69.9611 52.1726 70.072 52.1818C70.1829 52.191 70.2961 52.1957 70.4116 52.1957C70.6658 52.1957 70.8622 52.1402 71.0009 52.0293C71.1441 51.9184 71.2458 51.7382 71.3059 51.4886L71.3752 51.1628L68.9906 43.8356Z" fill="#0B0C0C"/>
</svg>
