<svg width="480" height="320" viewBox="0 0 480 320" fill="none" xmlns="http://www.w3.org/2000/svg">
<g clip-path="url(#clip0_1212_3847)">
<path d="M480 0H0V320H480V0Z" fill="white"/>
<path d="M295.556 135.015C298.898 135.015 301.608 132.305 301.608 128.962C301.608 125.62 298.898 122.91 295.556 122.91C292.213 122.91 289.504 125.62 289.504 128.962C289.504 132.305 292.213 135.015 295.556 135.015Z" fill="#1D70B8"/>
<path d="M186.169 129.063C186.169 130.596 186.361 132.071 186.745 133.488C187.127 134.904 187.711 136.154 188.494 137.237C189.278 138.321 190.277 139.192 191.494 139.85C192.711 140.508 194.161 140.838 195.845 140.838C197.528 140.838 198.807 140.579 199.882 140.063C200.957 139.546 201.815 138.9 202.457 138.125C203.098 137.35 203.548 136.513 203.807 135.613C204.065 134.713 204.194 133.88 204.194 133.113V132.763H195.02V127.238H211.244V146.887H204.895V142.687C204.445 143.387 203.886 144.025 203.22 144.6C202.553 145.175 201.803 145.667 200.969 146.075C200.136 146.483 199.223 146.804 198.232 147.038C197.24 147.271 196.186 147.387 195.07 147.387C192.453 147.387 190.128 146.912 188.095 145.962C186.062 145.012 184.349 143.704 182.958 142.037C181.566 140.371 180.508 138.421 179.783 136.188C179.058 133.955 178.695 131.547 178.695 128.963C178.695 126.379 179.1 123.992 179.908 121.751C180.716 119.51 181.866 117.559 183.358 115.901C184.85 114.243 186.649 112.935 188.758 111.976C190.866 111.018 193.228 110.538 195.845 110.538C197.545 110.538 199.158 110.734 200.682 111.126C202.207 111.518 203.599 112.076 204.857 112.801C206.115 113.525 207.228 114.401 208.195 115.425C209.161 116.45 209.945 117.588 210.545 118.838L204.195 122.412C203.811 121.646 203.361 120.933 202.845 120.275C202.328 119.617 201.732 119.05 201.058 118.575C200.382 118.1 199.612 117.725 198.745 117.45C197.878 117.175 196.912 117.037 195.846 117.037C194.162 117.037 192.712 117.367 191.495 118.025C190.279 118.683 189.279 119.554 188.496 120.638C187.712 121.721 187.129 122.975 186.746 124.4C186.362 125.825 186.171 127.297 186.171 128.812V129.063H186.169Z" fill="#0B0C0C"/>
<path d="M234.337 110.538C237.003 110.538 239.395 111.017 241.512 111.976C243.628 112.934 245.424 114.242 246.9 115.901C248.374 117.559 249.499 119.509 250.274 121.751C251.049 123.992 251.436 126.397 251.436 128.962C251.436 131.528 251.049 133.954 250.274 136.187C249.499 138.421 248.374 140.371 246.9 142.037C245.425 143.703 243.629 145.012 241.512 145.962C239.396 146.912 237.003 147.387 234.337 147.387C231.671 147.387 229.258 146.912 227.15 145.962C225.041 145.012 223.25 143.704 221.775 142.037C220.3 140.371 219.176 138.421 218.401 136.187C217.626 133.954 217.238 131.546 217.238 128.962C217.238 126.378 217.626 123.992 218.401 121.751C219.176 119.509 220.3 117.559 221.775 115.901C223.25 114.242 225.041 112.934 227.15 111.976C229.258 111.017 231.653 110.538 234.337 110.538ZM234.337 140.837C235.904 140.837 237.283 140.542 238.474 139.95C239.665 139.359 240.67 138.537 241.486 137.488C242.303 136.438 242.92 135.196 243.336 133.763C243.753 132.33 243.961 130.763 243.961 129.063V128.863C243.961 127.179 243.753 125.617 243.336 124.175C242.92 122.734 242.303 121.487 241.486 120.438C240.67 119.388 239.665 118.568 238.474 117.975C237.283 117.384 235.904 117.088 234.337 117.088C232.77 117.088 231.387 117.384 230.187 117.975C228.987 118.568 227.983 119.388 227.175 120.438C226.366 121.487 225.754 122.734 225.338 124.175C224.921 125.617 224.712 127.179 224.712 128.863V129.063C224.712 130.763 224.921 132.33 225.338 133.763C225.754 135.196 226.366 136.437 227.175 137.488C227.983 138.537 228.987 139.359 230.187 139.95C231.387 140.542 232.77 140.837 234.337 140.837Z" fill="#0B0C0C"/>
<path d="M264.214 146.887L254.09 111.038H262.215L269.14 137.987H269.39L276.165 111.038H284.189L274.064 146.887H264.215H264.214Z" fill="#0B0C0C"/>
<path d="M325.256 140.838C326.305 140.838 327.285 140.684 328.193 140.375C329.101 140.067 329.885 139.601 330.543 138.975C331.2 138.35 331.722 137.559 332.105 136.6C332.488 135.642 332.68 134.513 332.68 133.213V110.989H339.805V134.288C339.805 136.288 339.443 138.097 338.718 139.713C337.994 141.33 336.987 142.705 335.696 143.838C334.405 144.972 332.869 145.846 331.088 146.463C329.306 147.079 327.358 147.388 325.244 147.388C323.129 147.388 321.18 147.079 319.399 146.463C317.617 145.846 316.077 144.971 314.778 143.838C313.478 142.705 312.467 141.33 311.742 139.713C311.018 138.097 310.656 136.287 310.656 134.288V110.989H317.831V133.213C317.831 134.513 318.023 135.642 318.406 136.6C318.789 137.559 319.31 138.35 319.968 138.975C320.626 139.601 321.41 140.067 322.318 140.375C323.227 140.684 324.206 140.838 325.256 140.838Z" fill="#0B0C0C"/>
<path d="M346.227 111.038H353.477V126.562L366.276 111.038H375.201L362.751 125.287L376.001 146.887H367.577L358.102 130.812L353.477 135.987V146.887H346.227V111.038Z" fill="#0B0C0C"/>
<path d="M121.783 112.591C122.418 111.048 124.198 110.296 125.73 110.924C127.293 111.565 128.024 113.357 127.386 114.896C126.75 116.439 124.977 117.177 123.415 116.531C121.883 115.903 121.148 114.128 121.783 112.591L121.783 112.591Z" fill="#0B0C0C"/>
<path d="M115.29 121.38C113.758 120.751 113.023 118.976 113.658 117.439C114.297 115.894 116.077 115.142 117.609 115.771C119.168 116.41 119.9 118.202 119.261 119.741C118.626 121.283 116.853 122.022 115.291 121.376V121.38H115.29Z" fill="#0B0C0C"/>
<path d="M108.276 125.438C108.912 123.896 110.691 123.143 112.223 123.773C113.786 124.411 114.518 126.204 113.879 127.743C113.243 129.285 111.471 130.023 109.908 129.379C108.376 128.749 107.638 126.977 108.277 125.437L108.276 125.438Z" fill="#0B0C0C"/>
<path d="M132.606 106.873C132.72 107.024 132.854 107.155 133.001 107.268L130.8 113.917C130.797 113.923 130.794 113.934 130.794 113.942C130.794 113.942 130.893 113.614 130.794 113.948C130.69 114.28 130.635 114.634 130.635 114.998C130.635 116.795 131.965 118.282 133.692 118.537C133.716 118.54 133.743 118.546 133.768 118.546C133.915 118.563 134.063 118.576 134.218 118.576C134.372 118.576 134.52 118.567 134.668 118.546C134.695 118.543 134.723 118.537 134.746 118.537C136.474 118.283 137.803 116.798 137.803 114.998C137.803 114.631 137.748 114.28 137.645 113.948V113.942C137.641 113.934 137.638 113.917 137.638 113.917L135.433 107.268C135.581 107.154 135.715 107.021 135.828 106.873L135.835 106.867L139.674 108.882V103.226L135.842 104.442L135.831 104.431C135.725 104.287 135.598 104.163 135.46 104.053L135.45 104.043L136.992 99.1863H131.452L132.994 104.039L132.983 104.05C132.842 104.16 132.719 104.287 132.613 104.428L132.602 104.437L128.77 103.223V108.882L132.609 106.867L132.616 106.873" fill="#0B0C0C"/>
<path d="M146.724 112.591C146.088 111.048 144.309 110.296 142.777 110.924C141.214 111.565 140.483 113.357 141.121 114.896C141.757 116.439 143.529 117.177 145.092 116.531C146.624 115.903 147.359 114.128 146.723 112.591L146.724 112.591Z" fill="#0B0C0C"/>
<path d="M153.217 121.38C154.749 120.751 155.484 118.976 154.848 117.439C154.21 115.894 152.43 115.142 150.899 115.771C149.339 116.41 148.608 118.202 149.246 119.741C149.882 121.283 151.654 122.022 153.217 121.376V121.38Z" fill="#0B0C0C"/>
<path d="M160.232 125.438C159.596 123.896 157.817 123.143 156.285 123.773C154.722 124.411 153.99 126.204 154.629 127.743C155.265 129.285 157.037 130.023 158.6 129.379C160.132 128.749 160.87 126.977 160.231 125.437L160.232 125.438Z" fill="#0B0C0C"/>
<path d="M134.23 147.387C141.493 147.387 148.365 147.879 154.492 148.754C156.23 141.444 158.345 137.249 160.533 134.269L156.419 132.803C156.831 134.89 156.896 135.866 156.436 137.208C155.756 136.546 155.114 135.322 154.612 133.458L152.617 140.1C153.833 139.265 154.767 138.723 155.838 138.698C153.939 142.789 151.566 143.843 150.031 143.559C148.156 143.212 147.29 141.54 147.583 140.122C148.016 138.112 150.076 137.586 151.041 139.926C152.885 136.165 149.76 134.993 147.747 136.107C150.838 133.025 151.192 130.285 148.696 126.967C145.217 129.626 145.176 132.256 146.742 135.958C144.712 133.633 141.553 134.88 142.693 138.634C144.155 136.367 146.096 137.791 145.791 139.945C145.533 141.819 143.057 143.334 139.973 143.066C135.553 142.665 135.289 139.615 135.179 137.091C136.264 136.892 138.221 137.898 139.891 140.24L140.505 133.196C138.689 135.089 137.04 135.446 135.21 135.504C135.821 133.598 138.624 130.483 138.624 130.483H129.832C129.832 130.483 132.634 133.601 133.246 135.504C131.411 135.446 129.764 135.089 127.95 133.196L128.565 140.24C130.234 137.898 132.192 136.889 133.277 137.091C133.167 139.615 132.902 142.665 128.483 143.066C125.398 143.334 122.923 141.819 122.665 139.945C122.359 137.791 124.299 136.367 125.762 138.634C126.906 134.882 123.746 133.636 121.717 135.958C123.279 132.256 123.238 129.626 119.763 126.967C117.269 130.282 117.623 133.022 120.714 136.107C118.702 134.993 115.577 136.165 117.418 139.926C118.379 137.586 120.443 138.109 120.876 140.122C121.165 141.543 120.303 143.215 118.427 143.559C116.889 143.841 114.519 142.79 112.62 138.698C113.688 138.726 114.625 139.265 115.838 140.1L113.846 133.458C113.345 135.322 112.703 136.546 112.023 137.208C111.566 135.866 111.631 134.894 112.04 132.803L107.922 134.269C110.11 137.252 112.228 141.44 113.967 148.754C120.093 147.88 126.969 147.387 134.236 147.387" fill="#0B0C0C"/>
<path d="M134.223 127.504C135.894 127.504 137.248 126.15 137.248 124.48C137.248 122.809 135.894 121.455 134.223 121.455C132.553 121.455 131.199 122.809 131.199 124.48C131.199 126.15 132.553 127.504 134.223 127.504Z" fill="#0B0C0C"/>
<path d="M112.268 165.136V195.529H108.001V159.951H113.98L132.737 190.344V159.951H137.004V195.529H131L112.268 165.136ZM154.527 169.677C156.28 169.677 157.877 170.008 159.316 170.669C160.755 171.314 161.979 172.224 162.988 173.398C164.013 174.556 164.807 175.945 165.369 177.566C165.932 179.171 166.213 180.941 166.213 182.876C166.213 184.778 165.932 186.539 165.369 188.16C164.807 189.765 164.013 191.154 162.988 192.329C161.979 193.486 160.755 194.396 159.316 195.058C157.877 195.703 156.28 196.025 154.527 196.025C152.774 196.025 151.178 195.703 149.739 195.058C148.316 194.396 147.092 193.486 146.067 192.329C145.041 191.154 144.247 189.765 143.685 188.16C143.123 186.539 142.842 184.778 142.842 182.876C142.842 180.941 143.123 179.171 143.685 177.566C144.247 175.945 145.041 174.556 146.067 173.398C147.092 172.224 148.316 171.314 149.739 170.669C151.178 170.008 152.774 169.677 154.527 169.677ZM154.527 192.378C155.735 192.378 156.793 192.13 157.703 191.634C158.629 191.121 159.398 190.435 160.01 189.575C160.639 188.714 161.11 187.722 161.424 186.597C161.739 185.456 161.896 184.265 161.896 183.025V182.727C161.896 181.453 161.739 180.246 161.424 179.105C161.11 177.963 160.639 176.971 160.01 176.127C159.398 175.267 158.629 174.589 157.703 174.093C156.793 173.58 155.735 173.324 154.527 173.324C153.32 173.324 152.253 173.58 151.327 174.093C150.417 174.589 149.648 175.267 149.019 176.127C148.407 176.971 147.944 177.963 147.63 179.105C147.316 180.246 147.159 181.453 147.159 182.727V183.025C147.159 184.265 147.316 185.456 147.63 186.597C147.944 187.722 148.407 188.714 149.019 189.575C149.648 190.435 150.417 191.121 151.327 191.634C152.253 192.13 153.32 192.378 154.527 192.378ZM177.707 189.227C177.707 189.657 177.732 190.063 177.781 190.443C177.848 190.807 177.988 191.129 178.203 191.411C178.435 191.692 178.766 191.915 179.196 192.08C179.626 192.246 180.213 192.329 180.957 192.329C181.156 192.329 181.387 192.32 181.652 192.304C181.933 192.287 182.222 192.271 182.52 192.254C182.818 192.221 183.107 192.188 183.389 192.155C183.67 192.105 183.91 192.064 184.108 192.031L184.555 195.678C184.075 195.744 183.579 195.802 183.066 195.852C182.636 195.901 182.156 195.943 181.627 195.976C181.098 196.009 180.568 196.025 180.039 196.025C179.03 196.025 178.12 195.918 177.31 195.703C176.516 195.504 175.838 195.173 175.276 194.71C174.713 194.247 174.283 193.643 173.985 192.899C173.688 192.138 173.539 191.22 173.539 190.145V173.845H168.75V170.173H173.539V161.886L177.707 160.422V170.173H184.753V173.845H177.707V189.227ZM193.32 195.529H189.151V170.173H193.32V195.529ZM188.382 162.854C188.382 162.457 188.457 162.085 188.606 161.737C188.771 161.39 188.978 161.084 189.226 160.819C189.491 160.555 189.797 160.348 190.144 160.199C190.508 160.034 190.888 159.951 191.285 159.951C191.682 159.951 192.054 160.034 192.402 160.199C192.749 160.348 193.047 160.555 193.295 160.819C193.559 161.084 193.766 161.39 193.915 161.737C194.08 162.085 194.163 162.457 194.163 162.854C194.163 163.251 194.08 163.631 193.915 163.995C193.766 164.342 193.559 164.648 193.295 164.913C193.047 165.161 192.749 165.368 192.402 165.533C192.054 165.682 191.682 165.757 191.285 165.757C190.888 165.757 190.508 165.682 190.144 165.533C189.797 165.368 189.491 165.161 189.226 164.913C188.978 164.648 188.771 164.342 188.606 163.995C188.457 163.631 188.382 163.251 188.382 162.854ZM206.129 170.173H211.165V173.845H206.129V195.529H201.961V173.845H197.743V170.173H201.961V165.459C201.961 164.367 202.134 163.441 202.482 162.68C202.829 161.919 203.309 161.307 203.921 160.844C204.549 160.365 205.285 160.025 206.129 159.827C206.989 159.612 207.923 159.504 208.932 159.504C209.958 159.504 210.81 159.554 211.488 159.653C212.166 159.736 212.67 159.802 213.001 159.852L212.679 163.425C212.43 163.408 212.141 163.383 211.81 163.35C211.496 163.317 211.165 163.292 210.818 163.276C210.487 163.259 210.164 163.243 209.85 163.226C209.536 163.209 209.28 163.201 209.081 163.201C208.486 163.201 207.998 163.292 207.617 163.474C207.237 163.64 206.931 163.863 206.699 164.144C206.484 164.425 206.335 164.748 206.253 165.112C206.17 165.475 206.129 165.856 206.129 166.253V170.173ZM212.859 170.173H217.573L223.825 191.113L229.78 170.173H234.444L225.215 199.35C224.934 200.243 224.57 200.971 224.123 201.533C223.677 202.112 223.164 202.567 222.585 202.898C222.022 203.245 221.394 203.485 220.699 203.617C220.005 203.75 219.269 203.816 218.491 203.816C217.796 203.816 217.077 203.774 216.333 203.692C215.588 203.625 214.803 203.526 213.976 203.394L214.596 199.747C214.927 199.813 215.282 199.871 215.663 199.92C215.977 199.97 216.333 200.011 216.73 200.045C217.127 200.078 217.532 200.094 217.945 200.094C218.855 200.094 219.558 199.896 220.054 199.499C220.567 199.102 220.931 198.457 221.146 197.563L221.394 196.397L212.859 170.173Z" fill="#0B0C0C"/>
</g>
<rect x="0.5" y="0.5" width="479" height="319" stroke="#B1B4B6"/>
<defs>
<clipPath id="clip0_1212_3847">
<rect width="480" height="320" fill="white"/>
</clipPath>
</defs>
</svg>
