<svg width="200" height="200" viewBox="0 0 200 200" fill="none" xmlns="http://www.w3.org/2000/svg">
<g clip-path="url(#clip0_59_497)">
<rect width="200" height="200" fill="#651B3E"/>
<path d="M56.2793 86.5439C87.3616 86.5439 112.559 111.743 112.559 142.829C112.559 173.915 87.3616 199.114 56.2793 199.114C25.1969 199.114 0 173.915 0 142.829C0 111.743 25.1969 86.5439 56.2793 86.5439Z" fill="#CA357C"/>
<path d="M44.3531 130.172V140.579H42.1976V133.698H40.3105V131.796H40.7746C41.0849 131.796 41.3366 131.768 41.5323 131.713C41.7279 131.657 41.8817 131.57 41.9935 131.455C42.1054 131.341 42.1808 131.19 42.2172 131.008C42.2535 130.826 42.2759 130.608 42.2759 130.351V130.169H44.3503L44.3531 130.172Z" fill="white"/>
<path d="M46.1387 139.405C46.1387 139.226 46.1722 139.058 46.2449 138.902C46.3176 138.745 46.4099 138.605 46.5329 138.488C46.6559 138.37 46.7957 138.275 46.9578 138.205C47.12 138.136 47.2905 138.099 47.4694 138.099C47.6483 138.099 47.8189 138.136 47.9782 138.205C48.1376 138.275 48.2774 138.37 48.4004 138.488C48.5234 138.605 48.6156 138.745 48.6883 138.902C48.761 139.058 48.7945 139.226 48.7945 139.405C48.7945 139.584 48.761 139.76 48.6883 139.919C48.6156 140.079 48.5234 140.219 48.4004 140.342C48.2774 140.465 48.1404 140.557 47.9782 140.624C47.8161 140.691 47.6483 140.725 47.4694 140.725C47.2905 140.725 47.12 140.691 46.9578 140.624C46.7957 140.557 46.6531 140.462 46.5329 140.342C46.4126 140.221 46.3176 140.082 46.2449 139.919C46.1722 139.757 46.1387 139.589 46.1387 139.405Z" fill="white"/>
<path d="M50.0688 135.484C50.0688 135.014 50.1052 134.553 50.1807 134.1C50.2562 133.647 50.3708 133.219 50.5301 132.817C50.6895 132.414 50.888 132.04 51.1284 131.698C51.3688 131.357 51.6596 131.064 51.9979 130.818C52.3361 130.572 52.7247 130.379 53.1636 130.236C53.6026 130.094 54.0918 130.026 54.6342 130.026C55.0759 130.026 55.484 130.08 55.8642 130.189C56.2445 130.298 56.5855 130.449 56.8875 130.639C57.1894 130.829 57.4522 131.055 57.6758 131.313C57.8995 131.57 58.0728 131.849 58.1986 132.151L56.2528 132.906C56.0851 132.576 55.8531 132.33 55.5595 132.163C55.266 131.995 54.9361 131.911 54.5699 131.911C54.2036 131.911 53.8961 131.984 53.6193 132.126C53.3426 132.269 53.1105 132.465 52.9204 132.711C52.7303 132.957 52.5821 133.245 52.4815 133.575C52.3809 133.904 52.3249 134.251 52.3138 134.62C52.434 134.5 52.5766 134.383 52.7415 134.268C52.9064 134.153 53.0882 134.055 53.2894 133.974C53.4907 133.893 53.7088 133.826 53.9436 133.776C54.1785 133.726 54.4245 133.7 54.6789 133.7C55.1877 133.7 55.6602 133.781 56.0963 133.946C56.5324 134.111 56.9154 134.341 57.2369 134.64C57.5584 134.939 57.8128 135.291 57.9945 135.702C58.1763 136.113 58.2713 136.566 58.2713 137.058C58.2713 137.581 58.1791 138.065 57.9917 138.512C57.8044 138.96 57.5416 139.348 57.2006 139.673C56.8595 139.997 56.4485 140.257 55.9705 140.441C55.4924 140.626 54.9557 140.721 54.3658 140.721C53.7172 140.721 53.1301 140.606 52.6017 140.377C52.0733 140.148 51.6232 139.818 51.2486 139.387C50.874 138.957 50.5832 138.431 50.3792 137.813C50.1751 137.195 50.0716 136.494 50.0716 135.716V135.484H50.0688ZM52.4116 137.176C52.4116 137.422 52.4563 137.651 52.543 137.866C52.6297 138.082 52.7555 138.263 52.9176 138.423C53.0798 138.582 53.2755 138.705 53.5019 138.797C53.7284 138.89 53.98 138.934 54.2567 138.934C54.5335 138.934 54.7991 138.89 55.0256 138.797C55.252 138.705 55.4449 138.582 55.6015 138.423C55.758 138.263 55.8782 138.082 55.9593 137.866C56.0404 137.651 56.0823 137.425 56.0823 137.176C56.0823 136.927 56.0404 136.709 55.9593 136.496C55.8782 136.284 55.758 136.102 55.6015 135.946C55.4449 135.789 55.252 135.663 55.0256 135.571C54.7991 135.479 54.5419 135.434 54.2567 135.434C53.9716 135.434 53.7284 135.479 53.5019 135.571C53.2755 135.663 53.0798 135.786 52.9176 135.946C52.7555 136.105 52.6297 136.287 52.543 136.496C52.4563 136.706 52.4116 136.932 52.4116 137.176Z" fill="white"/>
<path d="M66.2131 140.579H64.2114V136.058C64.2114 135.781 64.1806 135.549 64.1219 135.359C64.0632 135.169 63.9794 135.012 63.8703 134.895C63.7613 134.778 63.6411 134.691 63.5013 134.641C63.3615 134.59 63.2078 134.565 63.0428 134.565C62.8499 134.565 62.6682 134.599 62.5033 134.666C62.3383 134.733 62.1901 134.839 62.0671 134.985C61.9441 135.13 61.8463 135.314 61.7764 135.541C61.7065 135.767 61.6701 136.033 61.6701 136.343V140.582H59.6685V132.809H61.6701V133.491C61.9273 133.206 62.2237 132.997 62.5648 132.86C62.9058 132.725 63.2721 132.656 63.6635 132.656C64.0548 132.656 64.4406 132.737 64.7901 132.902C65.1396 133.067 65.4303 133.338 65.6651 133.715C65.8021 133.522 65.9559 133.357 66.132 133.22C66.3081 133.086 66.4983 132.977 66.7023 132.893C66.9064 132.812 67.1161 132.751 67.3369 132.711C67.5578 132.672 67.7843 132.653 68.0163 132.653C68.4524 132.653 68.841 132.725 69.1821 132.868C69.5232 133.011 69.8139 133.204 70.0487 133.444C70.2836 133.684 70.4681 133.964 70.5939 134.28C70.7197 134.596 70.7812 134.926 70.7812 135.275V140.582H68.7571V136.061C68.7571 135.784 68.7264 135.552 68.6677 135.362C68.6062 135.172 68.5223 135.015 68.4161 134.898C68.3098 134.78 68.184 134.694 68.0415 134.643C67.8989 134.593 67.7451 134.568 67.5802 134.568C67.3873 134.568 67.2055 134.601 67.0406 134.669C66.8757 134.736 66.7303 134.842 66.6073 134.987C66.4843 135.133 66.3864 135.317 66.3165 135.544C66.2466 135.77 66.2103 136.036 66.2103 136.346V140.585L66.2131 140.579Z" fill="white"/>
<path d="M32.7231 149.014C32.8909 149.014 33.0558 148.987 33.2124 148.933C33.3689 148.88 33.5059 148.794 33.6261 148.682C33.7463 148.567 33.8414 148.425 33.9141 148.248C33.9868 148.072 34.0231 147.863 34.0231 147.619V144.295H34.6465V147.706C34.6465 147.991 34.5962 148.248 34.4984 148.478C34.4005 148.707 34.2635 148.903 34.093 149.065C33.9225 149.227 33.7184 149.353 33.4835 149.439C33.2487 149.526 32.9971 149.571 32.7259 149.571C32.4547 149.571 32.2059 149.526 31.9739 149.439C31.7391 149.353 31.5378 149.227 31.3644 149.065C31.1911 148.903 31.0541 148.707 30.9563 148.478C30.8584 148.248 30.8081 147.991 30.8081 147.706V144.295H31.4399V147.619C31.4399 147.863 31.4763 148.072 31.5462 148.248C31.6161 148.425 31.7111 148.567 31.8313 148.682C31.9515 148.796 32.0857 148.88 32.2423 148.933C32.3988 148.987 32.5582 149.014 32.7259 149.014H32.7231Z" fill="white"/>
<path d="M35.8172 145.789H36.4267V146.214C36.5525 146.044 36.7091 145.918 36.8936 145.837C37.0781 145.756 37.285 145.717 37.5114 145.717C37.7155 145.717 37.8972 145.75 38.051 145.817C38.2047 145.884 38.3361 145.977 38.4396 146.094C38.543 146.211 38.6213 146.346 38.6744 146.497C38.7247 146.65 38.7527 146.81 38.7527 146.98V149.499H38.1432V147.173C38.1432 147.011 38.1237 146.874 38.0817 146.757C38.0426 146.642 37.9867 146.55 37.9196 146.477C37.8497 146.404 37.7686 146.354 37.6764 146.32C37.5841 146.287 37.4835 146.27 37.3772 146.27C37.2598 146.27 37.1452 146.293 37.0334 146.334C36.9215 146.376 36.8181 146.441 36.7286 146.525C36.6364 146.608 36.5637 146.715 36.5078 146.843C36.4519 146.972 36.4239 147.123 36.4239 147.296V149.497H35.8145V145.789H35.8172Z" fill="white"/>
<path d="M39.7231 144.717C39.7231 144.658 39.7343 144.605 39.7567 144.555C39.7791 144.505 39.8098 144.46 39.8489 144.421C39.8853 144.382 39.93 144.351 39.9831 144.328C40.0363 144.306 40.0894 144.295 40.1481 144.295C40.2068 144.295 40.2599 144.306 40.3102 144.328C40.3606 144.351 40.4053 144.382 40.4444 144.421C40.4808 144.46 40.5115 144.505 40.5339 144.555C40.5562 144.605 40.5674 144.661 40.5674 144.717C40.5674 144.773 40.5562 144.829 40.5339 144.882C40.5115 144.935 40.4808 144.98 40.4444 145.016C40.4081 145.053 40.3633 145.083 40.3102 145.106C40.2571 145.128 40.204 145.139 40.1481 145.139C40.0922 145.139 40.0363 145.128 39.9831 145.106C39.9328 145.083 39.8853 145.053 39.8489 145.016C39.8126 144.98 39.7819 144.935 39.7567 144.882C39.7343 144.829 39.7231 144.776 39.7231 144.717ZM40.4444 149.498H39.835V145.791H40.4444V149.498Z" fill="white"/>
<path d="M42.3537 149.499L41.1768 145.791H41.8701L42.7591 148.934L43.6453 145.791H44.3386L43.1617 149.499H42.3537Z" fill="white"/>
<path d="M45.4167 147.833C45.4279 148.006 45.4642 148.168 45.5229 148.317C45.5817 148.465 45.6599 148.591 45.7606 148.7C45.8612 148.809 45.9786 148.89 46.1156 148.951C46.2526 149.01 46.4036 149.041 46.5713 149.041C46.7754 149.041 46.9571 149.007 47.1137 148.937C47.2702 148.867 47.4128 148.781 47.5442 148.677L47.8573 149.116C47.6896 149.251 47.4967 149.36 47.2786 149.443C47.0606 149.53 46.8145 149.572 46.5434 149.572C46.2722 149.572 46.0318 149.525 45.8137 149.429C45.5956 149.334 45.4111 149.2 45.2574 149.03C45.1036 148.859 44.9862 148.655 44.9023 148.42C44.8184 148.185 44.7793 147.928 44.7793 147.648C44.7793 147.369 44.8212 147.106 44.9023 146.871C44.9834 146.636 45.098 146.432 45.2462 146.262C45.3943 146.091 45.5705 145.957 45.7746 145.862C45.9786 145.767 46.2079 145.719 46.4595 145.719C46.7111 145.719 46.9236 145.767 47.1193 145.862C47.315 145.957 47.4827 146.091 47.6197 146.262C47.7567 146.432 47.8629 146.636 47.9356 146.871C48.0083 147.106 48.0474 147.363 48.0474 147.643V147.836H45.4167V147.833ZM46.4371 146.25C46.2834 146.25 46.1436 146.281 46.0234 146.34C45.9032 146.399 45.7997 146.483 45.713 146.583C45.6264 146.684 45.5593 146.801 45.509 146.933C45.4586 147.064 45.4307 147.201 45.4223 147.341H47.3849C47.3793 147.198 47.3541 147.061 47.3094 146.93C47.2646 146.798 47.2031 146.681 47.1221 146.58C47.041 146.48 46.9431 146.399 46.8285 146.34C46.7139 146.278 46.5825 146.25 46.4343 146.25H46.4371Z" fill="white"/>
<path d="M50.7896 146.334H50.6918C50.5352 146.334 50.3843 146.35 50.2417 146.387C50.0991 146.423 49.9733 146.487 49.8643 146.582C49.7552 146.677 49.6686 146.806 49.6043 146.968C49.54 147.13 49.5064 147.34 49.5064 147.594V149.496H48.897V145.788H49.5064V146.375C49.5512 146.266 49.6127 146.171 49.6909 146.087C49.7692 146.004 49.8559 145.936 49.9537 145.883C50.0516 145.83 50.1578 145.788 50.2696 145.763C50.3815 145.738 50.4961 145.724 50.6135 145.724H50.7924V146.334H50.7896Z" fill="white"/>
<path d="M53.9887 148.47C53.9887 148.643 53.9524 148.8 53.8741 148.937C53.7986 149.074 53.698 149.189 53.5722 149.284C53.4464 149.379 53.301 149.449 53.1389 149.499C52.9739 149.547 52.809 149.572 52.6356 149.572C52.3645 149.572 52.1045 149.524 51.8529 149.432C51.6013 149.34 51.3804 149.205 51.1875 149.032L51.5202 148.602C51.5789 148.652 51.646 148.705 51.7215 148.761C51.797 148.817 51.8836 148.867 51.9759 148.915C52.0681 148.962 52.1716 149.001 52.2806 149.032C52.3896 149.063 52.5043 149.077 52.6245 149.077C52.7251 149.077 52.8174 149.063 52.9096 149.038C52.9991 149.013 53.0802 148.976 53.1473 148.926C53.2144 148.876 53.2675 148.817 53.3094 148.747C53.3485 148.677 53.3681 148.599 53.3681 148.512C53.3681 148.414 53.3457 148.333 53.3038 148.269C53.2619 148.204 53.2032 148.149 53.1305 148.101C53.0578 148.053 52.9739 148.014 52.8761 147.981C52.7782 147.947 52.6776 147.914 52.5713 147.88L52.3393 147.805C52.2079 147.76 52.0821 147.712 51.9619 147.656C51.8417 147.601 51.7327 147.533 51.6404 147.452C51.5481 147.371 51.4727 147.276 51.4195 147.164C51.3636 147.053 51.3385 146.921 51.3385 146.765C51.3385 146.639 51.3664 146.513 51.4195 146.39C51.4727 146.267 51.5537 146.152 51.6628 146.054C51.7718 145.957 51.9144 145.875 52.0821 145.814C52.2498 145.752 52.4511 145.722 52.6804 145.722C52.9348 145.722 53.1696 145.764 53.3877 145.847C53.6029 145.931 53.7875 146.038 53.9384 146.163L53.6197 146.602C53.5666 146.552 53.5023 146.505 53.4324 146.457C53.3625 146.409 53.2814 146.37 53.2004 146.337C53.1193 146.303 53.0326 146.272 52.9432 146.25C52.8537 146.228 52.7642 146.217 52.6776 146.217C52.5434 146.217 52.4316 146.231 52.3393 146.261C52.2471 146.292 52.1744 146.331 52.1185 146.379C52.0625 146.426 52.0206 146.482 51.9982 146.541C51.9731 146.602 51.9591 146.661 51.9591 146.72C51.9591 146.804 51.9759 146.876 52.0122 146.932C52.0486 146.988 52.0961 147.039 52.1548 147.081C52.2135 147.122 52.2806 147.156 52.3589 147.187C52.4344 147.215 52.5154 147.245 52.5965 147.273L52.9012 147.374C53.0466 147.422 53.178 147.475 53.301 147.528C53.424 147.581 53.5275 147.645 53.6197 147.715C53.7371 147.807 53.8266 147.914 53.8909 148.034C53.9552 148.154 53.986 148.302 53.986 148.473L53.9887 148.47Z" fill="white"/>
<path d="M57.0346 149.126C56.9256 149.252 56.7774 149.358 56.5929 149.442C56.4084 149.526 56.1903 149.568 55.9415 149.568C55.757 149.568 55.5865 149.543 55.4299 149.49C55.2733 149.437 55.1363 149.364 55.0189 149.266C54.9015 149.168 54.8121 149.051 54.7478 148.914C54.6835 148.777 54.6499 148.62 54.6499 148.447C54.6499 148.302 54.6723 148.17 54.7198 148.05C54.7673 147.93 54.8316 147.826 54.9183 147.737C55.005 147.647 55.1084 147.575 55.2286 147.516C55.3488 147.457 55.4858 147.421 55.634 147.398L56.9451 147.22V146.985C56.9451 146.845 56.9228 146.727 56.8808 146.63C56.8389 146.532 56.7774 146.459 56.7047 146.403C56.632 146.347 56.5454 146.308 56.4447 146.283C56.3441 146.258 56.235 146.247 56.1204 146.247C55.9107 146.247 55.7178 146.275 55.5389 146.333C55.36 146.392 55.1951 146.459 55.0525 146.537L54.8232 146.054C55.0357 145.933 55.2594 145.847 55.4942 145.794C55.7262 145.74 55.9583 145.713 56.1847 145.713C56.6376 145.713 56.9787 145.816 57.2107 146.02C57.4428 146.224 57.5602 146.523 57.5602 146.915V148.623C57.5602 148.746 57.5853 148.85 57.6329 148.933C57.6804 149.017 57.7587 149.082 57.8649 149.132L57.521 149.568C57.4036 149.54 57.3058 149.487 57.2219 149.414C57.138 149.342 57.0793 149.252 57.0458 149.149L57.0374 149.126H57.0346ZM55.9499 147.846C55.8492 147.86 55.7542 147.882 55.6731 147.907C55.5892 147.932 55.5194 147.969 55.4606 148.014C55.4019 148.058 55.3572 148.114 55.3237 148.179C55.2901 148.243 55.2733 148.324 55.2733 148.419C55.2733 148.528 55.2929 148.626 55.3348 148.71C55.3768 148.794 55.4327 148.866 55.5026 148.925C55.5725 148.984 55.6535 149.029 55.7458 149.056C55.8381 149.087 55.9359 149.101 56.0393 149.101C56.154 149.101 56.263 149.084 56.372 149.054C56.4811 149.023 56.5761 148.975 56.6628 148.917C56.7494 148.858 56.8165 148.785 56.8669 148.701C56.9172 148.618 56.9451 148.52 56.9451 148.411V147.695L55.9471 147.843L55.9499 147.846Z" fill="white"/>
<path d="M58.6343 144.295H59.2437V148.667C59.2437 148.729 59.2493 148.782 59.2605 148.827C59.2717 148.872 59.2885 148.911 59.3164 148.944C59.3444 148.978 59.3807 149 59.4282 149.014C59.4758 149.031 59.5345 149.036 59.6044 149.036C59.6826 149.036 59.7525 149.036 59.814 149.028C59.8755 149.02 59.9315 149.017 59.9818 149.014L60.0433 149.526C59.9734 149.534 59.9035 149.54 59.8336 149.548C59.7721 149.554 59.7078 149.559 59.6351 149.562C59.5624 149.565 59.4925 149.57 59.4282 149.57C59.3192 149.57 59.2158 149.557 59.1207 149.531C59.0257 149.506 58.939 149.464 58.8691 149.406C58.7992 149.347 58.7433 149.271 58.7014 149.182C58.6594 149.092 58.6399 148.978 58.6399 148.844V144.292L58.6343 144.295Z" fill="white"/>
<path d="M61.7646 146.904C61.7646 146.532 61.8178 146.183 61.9212 145.859C62.0246 145.534 62.1756 145.249 62.3713 145.009C62.567 144.768 62.8046 144.578 63.0842 144.438C63.3638 144.298 63.6797 144.229 64.0291 144.229C64.2724 144.229 64.4988 144.259 64.7029 144.324C64.907 144.388 65.0915 144.477 65.2536 144.595C65.4158 144.712 65.5584 144.855 65.6758 145.02C65.796 145.185 65.8938 145.369 65.9721 145.573L65.3627 145.78C65.3235 145.663 65.2676 145.543 65.1921 145.425C65.1166 145.308 65.0244 145.202 64.9126 145.106C64.8007 145.011 64.6721 144.936 64.524 144.877C64.3758 144.818 64.2109 144.788 64.0291 144.788C63.758 144.788 63.5231 144.846 63.3218 144.961C63.1233 145.076 62.9584 145.229 62.827 145.42C62.6956 145.61 62.5978 145.831 62.5363 146.082C62.472 146.334 62.4384 146.591 62.4384 146.859V146.949C62.4384 147.217 62.4692 147.477 62.5363 147.726C62.6006 147.975 62.6984 148.196 62.827 148.386C62.9556 148.576 63.1233 148.727 63.3218 148.845C63.5231 148.959 63.758 149.018 64.0291 149.018C64.2109 149.018 64.3758 148.987 64.524 148.929C64.6721 148.87 64.8007 148.791 64.9126 148.699C65.0244 148.607 65.1166 148.498 65.1921 148.38C65.2676 148.263 65.3235 148.143 65.3627 148.023L65.9721 148.232C65.8938 148.436 65.796 148.618 65.6758 148.783C65.5556 148.948 65.4158 149.088 65.2536 149.205C65.0915 149.323 64.907 149.412 64.7029 149.477C64.4988 149.541 64.2752 149.572 64.0291 149.572C63.6797 149.572 63.3638 149.502 63.0842 149.365C62.8046 149.228 62.567 149.038 62.3713 148.8C62.1756 148.562 62.0246 148.277 61.9212 147.956C61.8178 147.634 61.7646 147.282 61.7646 146.907V146.904Z" fill="white"/>
<path d="M68.7872 146.334H68.6893C68.5328 146.334 68.3818 146.35 68.2392 146.387C68.0967 146.423 67.9709 146.487 67.8618 146.582C67.7528 146.677 67.6661 146.806 67.6018 146.968C67.5375 147.13 67.504 147.34 67.504 147.594V149.496H66.8945V145.788H67.504V146.375C67.5487 146.266 67.6102 146.171 67.6885 146.087C67.7668 146.004 67.8534 145.936 67.9513 145.883C68.0491 145.83 68.1554 145.788 68.2672 145.763C68.379 145.738 68.4937 145.724 68.6111 145.724H68.79V146.334H68.7872Z" fill="white"/>
<path d="M69.8239 147.833C69.8351 148.006 69.8715 148.168 69.9302 148.317C69.9889 148.465 70.0671 148.591 70.1678 148.7C70.2684 148.809 70.3859 148.89 70.5228 148.951C70.6598 149.01 70.8108 149.041 70.9785 149.041C71.1826 149.041 71.3643 149.007 71.5209 148.937C71.6774 148.867 71.82 148.781 71.9514 148.677L72.2645 149.116C72.0968 149.251 71.9039 149.36 71.6858 149.443C71.4678 149.53 71.2218 149.572 70.9506 149.572C70.6794 149.572 70.439 149.525 70.2209 149.429C70.0029 149.334 69.8183 149.2 69.6646 149.03C69.5108 148.859 69.3934 148.655 69.3095 148.42C69.2257 148.185 69.1865 147.928 69.1865 147.648C69.1865 147.369 69.2285 147.106 69.3095 146.871C69.3906 146.636 69.5052 146.432 69.6534 146.262C69.8016 146.091 69.9777 145.957 70.1818 145.862C70.3859 145.767 70.6151 145.719 70.8667 145.719C71.1183 145.719 71.3308 145.767 71.5265 145.862C71.7222 145.957 71.8899 146.091 72.0269 146.262C72.1639 146.432 72.2701 146.636 72.3428 146.871C72.4155 147.106 72.4546 147.363 72.4546 147.643V147.836H69.8239V147.833ZM70.8415 146.25C70.6878 146.25 70.548 146.281 70.4278 146.34C70.3076 146.399 70.2041 146.483 70.1175 146.583C70.0308 146.684 69.9637 146.801 69.9134 146.933C69.8631 147.064 69.8351 147.201 69.8267 147.341H71.7893C71.7837 147.198 71.7585 147.061 71.7138 146.93C71.6691 146.798 71.6076 146.681 71.5265 146.58C71.4454 146.48 71.3476 146.399 71.2329 146.34C71.1183 146.278 70.9869 146.25 70.8388 146.25H70.8415Z" fill="white"/>
<path d="M75.7456 149.073C75.6366 149.227 75.4884 149.347 75.3011 149.437C75.1138 149.526 74.9013 149.571 74.6609 149.571C74.4204 149.571 74.2052 149.524 74.0123 149.429C73.8194 149.333 73.6544 149.199 73.5146 149.029C73.3749 148.858 73.2714 148.657 73.1959 148.422C73.1233 148.187 73.0869 147.93 73.0869 147.65C73.0869 147.371 73.1233 147.111 73.1959 146.876C73.2686 146.641 73.3749 146.437 73.5146 146.264C73.6544 146.09 73.8194 145.959 74.0123 145.864C74.2052 145.769 74.4232 145.721 74.6609 145.721C74.8985 145.721 75.1138 145.766 75.3011 145.855C75.4884 145.945 75.6366 146.065 75.7456 146.219V144.298H76.355V149.501H75.7456V149.076V149.073ZM73.7159 147.661C73.7159 147.854 73.7383 148.036 73.7858 148.201C73.8334 148.366 73.9005 148.511 73.9899 148.634C74.0794 148.758 74.1884 148.853 74.3198 148.922C74.4512 148.992 74.6022 149.029 74.7727 149.029C74.9348 149.029 75.0774 149.001 75.1976 148.945C75.3206 148.889 75.4213 148.813 75.5052 148.716C75.589 148.618 75.6477 148.503 75.6897 148.372C75.7316 148.24 75.7512 148.098 75.7512 147.941V147.34C75.7512 147.186 75.7316 147.041 75.6897 146.909C75.6477 146.778 75.5862 146.663 75.5052 146.565C75.4241 146.468 75.3206 146.392 75.1976 146.336C75.0746 146.28 74.9348 146.252 74.7727 146.252C74.5994 146.252 74.4484 146.289 74.3198 146.359C74.1912 146.428 74.0794 146.524 73.9899 146.647C73.9005 146.77 73.8334 146.912 73.7858 147.08C73.7383 147.248 73.7159 147.427 73.7159 147.62V147.656V147.661Z" fill="white"/>
<path d="M77.3633 144.717C77.3633 144.658 77.3745 144.605 77.3968 144.555C77.4192 144.505 77.45 144.46 77.4891 144.421C77.5254 144.382 77.5702 144.351 77.6233 144.328C77.6764 144.306 77.7295 144.295 77.7882 144.295C77.8469 144.295 77.9 144.306 77.9504 144.328C78.0007 144.351 78.0454 144.382 78.0846 144.421C78.1209 144.46 78.1517 144.505 78.174 144.555C78.1964 144.605 78.2076 144.661 78.2076 144.717C78.2076 144.773 78.1964 144.829 78.174 144.882C78.1517 144.935 78.1209 144.98 78.0846 145.016C78.0482 145.053 78.0035 145.083 77.9504 145.106C77.8973 145.128 77.8441 145.139 77.7882 145.139C77.7323 145.139 77.6764 145.128 77.6233 145.106C77.573 145.083 77.5254 145.053 77.4891 145.016C77.4527 144.98 77.422 144.935 77.3968 144.882C77.3745 144.829 77.3633 144.776 77.3633 144.717ZM78.0846 149.498H77.4751V145.791H78.0846V149.498Z" fill="white"/>
<path d="M80.1562 148.576C80.1562 148.638 80.1618 148.697 80.1701 148.752C80.1785 148.806 80.1981 148.856 80.2316 148.895C80.2652 148.937 80.3127 148.968 80.3742 148.993C80.4357 149.018 80.5224 149.029 80.6314 149.029C80.6594 149.029 80.6957 149.029 80.7349 149.026C80.774 149.026 80.8159 149.021 80.8607 149.018C80.9054 149.015 80.9473 149.01 80.9865 149.004C81.0256 148.998 81.0619 148.993 81.0927 148.987L81.157 149.521C81.0871 149.533 81.0144 149.538 80.9389 149.546C80.8746 149.555 80.8048 149.56 80.7293 149.563C80.6538 149.566 80.5755 149.572 80.4972 149.572C80.3491 149.572 80.2177 149.558 80.1002 149.527C79.9828 149.496 79.8822 149.449 79.8011 149.379C79.72 149.309 79.6557 149.222 79.6138 149.113C79.5719 149.004 79.5495 148.87 79.5495 148.713V146.328H78.8506V145.792H79.5495V144.578L80.159 144.363V145.789H81.1906V146.326H80.159V148.576H80.1562Z" fill="white"/>
<path d="M45.5832 157.214C45.8097 157.468 46.0557 157.653 46.3185 157.765C46.5813 157.879 46.8552 157.935 47.1432 157.935C47.3417 157.935 47.5178 157.91 47.6744 157.86C47.8309 157.809 47.9623 157.742 48.0686 157.655C48.1748 157.569 48.2559 157.468 48.309 157.359C48.3649 157.247 48.3901 157.13 48.3901 157.007C48.3901 156.834 48.3537 156.691 48.281 156.585C48.2083 156.478 48.1133 156.392 47.9931 156.325C47.8729 156.258 47.7387 156.207 47.5821 156.168C47.4255 156.132 47.2634 156.095 47.0957 156.062L47.023 156.048C46.9084 156.025 46.7909 156.003 46.6679 155.978C46.5449 155.953 46.4247 155.922 46.3073 155.883C46.1899 155.844 46.0725 155.793 45.9634 155.737C45.8544 155.682 45.7537 155.609 45.6699 155.525C45.5553 155.422 45.463 155.293 45.3903 155.142C45.3176 154.991 45.2785 154.804 45.2785 154.58C45.2785 154.423 45.312 154.258 45.3819 154.091C45.449 153.92 45.5608 153.766 45.7118 153.627C45.8628 153.487 46.0557 153.372 46.2905 153.283C46.5253 153.193 46.8105 153.148 47.1432 153.148C47.5122 153.148 47.8533 153.216 48.1664 153.347C48.295 153.403 48.418 153.467 48.5354 153.545C48.6528 153.621 48.7675 153.716 48.8821 153.831L48.3984 154.225C48.2195 154.046 48.0154 153.915 47.7862 153.831C47.5569 153.747 47.3221 153.705 47.0817 153.705C46.9084 153.705 46.7546 153.724 46.612 153.766C46.4722 153.808 46.3492 153.867 46.2486 153.945C46.1479 154.024 46.0697 154.113 46.0137 154.214C45.9578 154.314 45.9327 154.426 45.9327 154.544C45.9327 154.709 45.969 154.84 46.0389 154.943C46.1116 155.044 46.2038 155.128 46.3213 155.189C46.4387 155.251 46.5701 155.299 46.7155 155.332C46.8608 155.366 47.009 155.399 47.16 155.43L47.1963 155.438C47.4367 155.486 47.6716 155.542 47.898 155.606C48.1245 155.67 48.323 155.76 48.4907 155.872C48.6584 155.984 48.7926 156.126 48.8961 156.297C48.9995 156.467 49.0498 156.688 49.0498 156.957C49.0498 157.147 49.0107 157.337 48.9296 157.521C48.8485 157.706 48.7311 157.874 48.5718 158.016C48.4124 158.162 48.2139 158.276 47.9735 158.36C47.7331 158.444 47.4535 158.489 47.1292 158.489C46.8776 158.489 46.6456 158.461 46.4331 158.408C46.2206 158.354 46.0249 158.282 45.846 158.195C45.7118 158.125 45.5832 158.044 45.4602 157.952C45.3344 157.86 45.2114 157.751 45.0884 157.622L45.5888 157.211L45.5832 157.214Z" fill="white"/>
<path d="M49.7583 153.637C49.7583 153.578 49.7695 153.525 49.7918 153.475C49.8142 153.425 49.845 153.38 49.8841 153.341C49.9204 153.302 49.9652 153.271 50.0183 153.248C50.0714 153.226 50.1245 153.215 50.1832 153.215C50.2419 153.215 50.2951 153.226 50.3454 153.248C50.3957 153.271 50.4404 153.302 50.4796 153.341C50.5159 153.38 50.5467 153.425 50.569 153.475C50.5914 153.525 50.6026 153.581 50.6026 153.637C50.6026 153.693 50.5914 153.749 50.569 153.802C50.5467 153.855 50.5159 153.9 50.4796 153.936C50.4432 153.973 50.3985 154.003 50.3454 154.026C50.2923 154.048 50.2392 154.059 50.1832 154.059C50.1273 154.059 50.0714 154.048 50.0183 154.026C49.968 154.003 49.9204 153.973 49.8841 153.936C49.8478 153.9 49.817 153.855 49.7918 153.802C49.7695 153.749 49.7583 153.696 49.7583 153.637ZM50.4796 158.418H49.8701V154.711H50.4796V158.418Z" fill="white"/>
<path d="M51.3828 156.361C51.3828 156.118 51.4164 155.889 51.489 155.679C51.5617 155.469 51.6596 155.288 51.791 155.134C51.9224 154.98 52.0789 154.86 52.2634 154.77C52.448 154.681 52.6548 154.639 52.8869 154.639C53.091 154.639 53.2839 154.678 53.4684 154.756C53.6529 154.835 53.8066 154.96 53.9352 155.137V154.712H54.5447V158.419C54.5447 158.648 54.4972 158.841 54.4049 158.998C54.3127 159.154 54.1897 159.28 54.0415 159.372C53.8933 159.465 53.7228 159.535 53.5327 159.577C53.3426 159.619 53.1497 159.638 52.954 159.638C52.8449 159.638 52.7331 159.632 52.6157 159.621C52.4983 159.61 52.3809 159.591 52.2634 159.568C52.146 159.546 52.0286 159.512 51.914 159.476C51.7994 159.44 51.6903 159.395 51.5869 159.344L51.8078 158.833C51.8804 158.866 51.9559 158.9 52.037 158.933C52.1181 158.967 52.2019 158.995 52.297 159.023C52.3893 159.048 52.4899 159.071 52.5961 159.087C52.7024 159.104 52.8198 159.112 52.9456 159.112C53.0993 159.112 53.2391 159.096 53.3649 159.065C53.4879 159.034 53.5942 158.984 53.678 158.917C53.7619 158.85 53.829 158.766 53.8737 158.662C53.9185 158.559 53.9436 158.436 53.9436 158.293V157.589C53.815 157.762 53.6585 157.888 53.4768 157.969C53.295 158.05 53.0993 158.086 52.8953 158.086C52.666 158.086 52.4591 158.042 52.2718 157.955C52.0873 157.865 51.928 157.745 51.7994 157.591C51.6708 157.438 51.5673 157.256 51.4974 157.046C51.4275 156.837 51.3912 156.61 51.3912 156.367L51.3828 156.361ZM53.9492 156.344C53.9492 156.177 53.9325 156.023 53.8961 155.883C53.8598 155.743 53.8039 155.617 53.7256 155.514C53.6473 155.411 53.5494 155.327 53.4292 155.268C53.309 155.209 53.1664 155.179 52.9987 155.179C52.831 155.179 52.6828 155.209 52.5598 155.268C52.4368 155.327 52.3333 155.411 52.2523 155.517C52.1712 155.623 52.1097 155.746 52.0733 155.889C52.037 156.031 52.0146 156.185 52.0146 156.347V156.375C52.0146 156.537 52.0342 156.688 52.0733 156.831C52.1125 156.974 52.1712 157.097 52.2523 157.2C52.3333 157.306 52.434 157.387 52.5598 157.449C52.6856 157.51 52.831 157.538 52.9987 157.538C53.1664 157.538 53.309 157.508 53.4292 157.449C53.5494 157.39 53.6473 157.309 53.7256 157.203C53.8039 157.097 53.8598 156.976 53.8961 156.834C53.9325 156.691 53.9492 156.537 53.9492 156.372V156.344Z" fill="white"/>
<path d="M55.6595 154.709H56.269V155.134C56.3948 154.963 56.5513 154.837 56.7359 154.756C56.9204 154.675 57.1273 154.636 57.3537 154.636C57.5578 154.636 57.7395 154.669 57.8933 154.737C58.047 154.804 58.1784 154.896 58.2819 155.013C58.3853 155.131 58.4636 155.265 58.5167 155.416C58.567 155.57 58.595 155.729 58.595 155.9V158.419H57.9855V156.093C57.9855 155.93 57.966 155.793 57.924 155.676C57.8849 155.561 57.829 155.469 57.7619 155.396C57.692 155.324 57.6109 155.273 57.5186 155.24C57.4264 155.206 57.3257 155.189 57.2195 155.189C57.1021 155.189 56.9875 155.212 56.8756 155.254C56.7638 155.296 56.6604 155.36 56.5709 155.444C56.4787 155.528 56.406 155.634 56.3501 155.763C56.2941 155.891 56.2662 156.042 56.2662 156.216V158.416H55.6567V154.709H55.6595Z" fill="white"/>
<path d="M61.3262 153.212H61.9636V158.416H61.3262V153.212Z" fill="white"/>
<path d="M63.1825 154.709H63.7919V155.134C63.9177 154.963 64.0743 154.837 64.2588 154.756C64.4433 154.675 64.6502 154.636 64.8767 154.636C65.0807 154.636 65.2625 154.669 65.4162 154.737C65.57 154.804 65.7014 154.896 65.8048 155.013C65.9083 155.131 65.9865 155.265 66.0396 155.416C66.09 155.57 66.1179 155.729 66.1179 155.9V158.419H65.5085V156.093C65.5085 155.93 65.4889 155.793 65.447 155.676C65.4078 155.561 65.3519 155.469 65.2848 155.396C65.2149 155.324 65.1339 155.273 65.0416 155.24C64.9493 155.206 64.8487 155.189 64.7425 155.189C64.625 155.189 64.5104 155.212 64.3986 155.254C64.2868 155.296 64.1833 155.36 64.0939 155.444C64.0016 155.528 63.9289 155.634 63.873 155.763C63.8171 155.891 63.7891 156.042 63.7891 156.216V158.416H63.1797V154.709H63.1825Z" fill="white"/>
<path d="M155.294 89.0006C179.415 89.0006 198.97 108.557 198.97 132.68C198.97 156.803 179.415 176.36 155.294 176.36C131.174 176.36 111.619 156.803 111.619 132.68C111.619 108.557 131.174 89.0006 155.294 89.0006Z" fill="#F4D7E5"/>
<path d="M146.734 127.514C146.734 127.983 146.698 128.442 146.625 128.892C146.552 129.342 146.44 129.77 146.287 130.173C146.133 130.575 145.94 130.95 145.702 131.291C145.465 131.632 145.18 131.926 144.847 132.172C144.514 132.418 144.131 132.611 143.698 132.753C143.265 132.896 142.778 132.963 142.236 132.963C141.791 132.963 141.38 132.91 141.003 132.801C140.625 132.692 140.284 132.544 139.98 132.353C139.675 132.163 139.412 131.94 139.189 131.682C138.965 131.425 138.792 131.146 138.666 130.844L140.611 130.08C140.785 130.41 141.02 130.656 141.31 130.824C141.601 130.992 141.937 131.076 142.308 131.076C142.68 131.076 142.991 131.003 143.267 130.86C143.544 130.718 143.771 130.522 143.952 130.276C144.134 130.03 144.271 129.742 144.363 129.415C144.456 129.088 144.5 128.741 144.495 128.372C144.374 128.492 144.232 128.61 144.067 128.722C143.902 128.833 143.72 128.931 143.519 129.015C143.318 129.099 143.1 129.169 142.865 129.219C142.63 129.27 142.384 129.295 142.13 129.295C141.621 129.295 141.148 129.211 140.712 129.043C140.276 128.875 139.893 128.643 139.572 128.347C139.25 128.051 138.996 127.695 138.814 127.284C138.632 126.873 138.537 126.423 138.537 125.934C138.537 125.411 138.629 124.925 138.817 124.475C139.004 124.024 139.267 123.636 139.608 123.309C139.949 122.981 140.36 122.724 140.838 122.54C141.316 122.355 141.853 122.26 142.443 122.26C143.091 122.26 143.678 122.375 144.207 122.604C144.735 122.833 145.185 123.163 145.56 123.594C145.934 124.024 146.225 124.55 146.429 125.168C146.633 125.786 146.737 126.488 146.737 127.265V127.505L146.734 127.514ZM144.391 125.814C144.391 125.568 144.346 125.338 144.26 125.123C144.173 124.908 144.047 124.726 143.885 124.567C143.723 124.407 143.527 124.287 143.301 124.198C143.074 124.108 142.823 124.064 142.546 124.064C142.269 124.064 142.004 124.108 141.777 124.198C141.551 124.287 141.355 124.41 141.196 124.567C141.036 124.723 140.913 124.908 140.83 125.123C140.746 125.338 140.704 125.565 140.704 125.814C140.704 126.063 140.746 126.284 140.83 126.496C140.913 126.708 141.036 126.893 141.196 127.052C141.355 127.212 141.548 127.332 141.777 127.421C142.007 127.511 142.261 127.556 142.546 127.556C142.831 127.556 143.074 127.511 143.301 127.421C143.527 127.332 143.723 127.209 143.885 127.052C144.047 126.896 144.173 126.711 144.26 126.496C144.346 126.281 144.391 126.057 144.391 125.814Z" fill="#0B0C0C"/>
<path d="M152.875 124.408H147.628V122.411H155.045V124.436L151.016 132.818H148.548L152.873 124.405L152.875 124.408Z" fill="#0B0C0C"/>
<path d="M157.824 129.639C157.902 129.885 158.011 130.1 158.151 130.282C158.291 130.463 158.456 130.612 158.64 130.732C158.825 130.852 159.029 130.939 159.249 130.992C159.47 131.045 159.697 131.076 159.934 131.076C160.264 131.076 160.544 131.037 160.773 130.956C161.002 130.874 161.19 130.771 161.332 130.642C161.475 130.514 161.578 130.368 161.64 130.206C161.701 130.044 161.735 129.879 161.735 129.709C161.735 129.298 161.564 128.973 161.223 128.733C160.882 128.492 160.359 128.375 159.652 128.375H159.071V126.619H159.512C160.15 126.619 160.65 126.516 161.011 126.306C161.371 126.096 161.55 125.78 161.55 125.355C161.55 125.171 161.508 125.006 161.427 124.858C161.346 124.709 161.232 124.586 161.089 124.483C160.946 124.379 160.776 124.301 160.58 124.248C160.385 124.195 160.172 124.164 159.946 124.164C159.686 124.164 159.445 124.201 159.23 124.273C159.015 124.346 158.822 124.444 158.654 124.57C158.486 124.695 158.338 124.844 158.215 125.011C158.092 125.179 157.994 125.361 157.922 125.548L156.062 124.802C156.174 124.396 156.359 124.036 156.613 123.72C156.868 123.404 157.17 123.141 157.516 122.926C157.863 122.71 158.243 122.545 158.66 122.431C159.076 122.316 159.498 122.26 159.929 122.26C160.466 122.26 160.963 122.324 161.424 122.456C161.886 122.587 162.286 122.777 162.627 123.026C162.968 123.275 163.236 123.583 163.429 123.943C163.622 124.304 163.72 124.721 163.72 125.185C163.72 125.461 163.675 125.719 163.586 125.956C163.496 126.194 163.376 126.412 163.222 126.602C163.068 126.792 162.889 126.957 162.683 127.092C162.476 127.226 162.252 127.332 162.014 127.405C162.28 127.463 162.529 127.558 162.761 127.695C162.993 127.832 163.197 128 163.37 128.204C163.544 128.408 163.681 128.643 163.781 128.909C163.882 129.175 163.929 129.465 163.929 129.778C163.929 130.257 163.826 130.693 163.622 131.084C163.418 131.476 163.135 131.811 162.778 132.085C162.42 132.359 161.998 132.574 161.511 132.728C161.025 132.882 160.499 132.957 159.932 132.957C159.434 132.957 158.953 132.893 158.495 132.765C158.036 132.636 157.622 132.451 157.253 132.214C156.884 131.976 156.577 131.682 156.325 131.336C156.074 130.989 155.903 130.6 155.816 130.164L157.818 129.636L157.824 129.639Z" fill="#0B0C0C"/>
<path d="M167.409 128.096L170.001 125.048H172.498L169.688 128.227L172.576 132.821H170.166L168.229 129.656L167.409 130.548V132.818H165.408V122.411H167.409V128.096Z" fill="#0B0C0C"/>
<path d="M137.076 139.144C137.076 138.772 137.129 138.422 137.232 138.098C137.336 137.774 137.487 137.489 137.682 137.248C137.878 137.008 138.116 136.818 138.395 136.678C138.675 136.538 138.991 136.468 139.34 136.468C139.583 136.468 139.81 136.499 140.014 136.563C140.218 136.627 140.403 136.717 140.565 136.834C140.727 136.952 140.869 137.094 140.987 137.259C141.107 137.424 141.205 137.609 141.283 137.813L140.674 138.02C140.635 137.902 140.579 137.782 140.503 137.665C140.428 137.547 140.335 137.441 140.224 137.346C140.112 137.251 139.983 137.175 139.835 137.117C139.687 137.058 139.522 137.027 139.34 137.027C139.069 137.027 138.834 137.086 138.633 137.201C138.434 137.315 138.269 137.469 138.138 137.659C138.007 137.849 137.909 138.07 137.847 138.322C137.783 138.573 137.749 138.831 137.749 139.099V139.188C137.749 139.457 137.78 139.717 137.847 139.966C137.912 140.215 138.009 140.435 138.138 140.626C138.267 140.816 138.434 140.967 138.633 141.084C138.834 141.199 139.069 141.257 139.34 141.257C139.522 141.257 139.687 141.227 139.835 141.168C139.983 141.109 140.112 141.031 140.224 140.939C140.335 140.846 140.428 140.737 140.503 140.62C140.579 140.503 140.635 140.382 140.674 140.262L141.283 140.472C141.205 140.676 141.107 140.858 140.987 141.023C140.867 141.188 140.727 141.327 140.565 141.445C140.403 141.562 140.218 141.652 140.014 141.716C139.81 141.78 139.586 141.811 139.34 141.811C138.991 141.811 138.675 141.741 138.395 141.604C138.116 141.467 137.878 141.277 137.682 141.039C137.487 140.802 137.336 140.517 137.232 140.195C137.129 139.873 137.076 139.521 137.076 139.147V139.144Z" fill="#0B0C0C"/>
<path d="M142.202 136.534H142.812V138.455C142.937 138.284 143.094 138.158 143.278 138.077C143.463 137.996 143.67 137.957 143.896 137.957C144.1 137.957 144.282 137.991 144.436 138.058C144.59 138.125 144.721 138.217 144.824 138.335C144.928 138.452 145.006 138.586 145.059 138.737C145.11 138.891 145.138 139.05 145.138 139.221V141.74H144.528V139.414C144.528 139.252 144.509 139.115 144.467 138.997C144.428 138.883 144.372 138.79 144.304 138.718C144.235 138.645 144.154 138.595 144.061 138.561C143.969 138.528 143.868 138.511 143.762 138.511C143.645 138.511 143.53 138.533 143.418 138.575C143.306 138.617 143.203 138.681 143.114 138.765C143.024 138.849 142.951 138.955 142.895 139.084C142.84 139.213 142.812 139.364 142.812 139.537V141.737H142.202V136.534Z" fill="#0B0C0C"/>
<path d="M146.635 140.072C146.647 140.245 146.683 140.407 146.742 140.555C146.8 140.704 146.879 140.829 146.979 140.938C147.08 141.047 147.197 141.128 147.334 141.19C147.471 141.249 147.622 141.279 147.79 141.279C147.994 141.279 148.176 141.246 148.332 141.176C148.489 141.106 148.632 141.019 148.763 140.916L149.076 141.355C148.908 141.489 148.715 141.598 148.497 141.682C148.279 141.769 148.033 141.811 147.762 141.811C147.491 141.811 147.251 141.763 147.032 141.668C146.814 141.573 146.63 141.439 146.476 141.268C146.322 141.098 146.205 140.894 146.121 140.659C146.037 140.424 145.998 140.167 145.998 139.887C145.998 139.607 146.04 139.345 146.121 139.11C146.202 138.875 146.317 138.671 146.465 138.5C146.613 138.33 146.789 138.196 146.993 138.1C147.197 138.005 147.427 137.958 147.678 137.958C147.93 137.958 148.142 138.005 148.338 138.1C148.534 138.196 148.701 138.33 148.838 138.5C148.975 138.671 149.082 138.875 149.154 139.11C149.227 139.345 149.266 139.602 149.266 139.881V140.074H146.635V140.072ZM147.656 138.492C147.502 138.492 147.362 138.523 147.242 138.581C147.122 138.64 147.018 138.724 146.932 138.825C146.845 138.925 146.778 139.043 146.728 139.174C146.677 139.306 146.649 139.443 146.641 139.582H148.604C148.598 139.44 148.573 139.303 148.528 139.171C148.483 139.04 148.422 138.922 148.341 138.822C148.26 138.721 148.162 138.64 148.047 138.581C147.933 138.52 147.801 138.492 147.653 138.492H147.656Z" fill="#0B0C0C"/>
<path d="M150.525 139.902C150.525 140.089 150.547 140.265 150.595 140.43C150.642 140.595 150.709 140.743 150.799 140.866C150.888 140.989 151 141.09 151.134 141.163C151.269 141.235 151.425 141.274 151.604 141.274C151.721 141.274 151.828 141.258 151.926 141.224C152.023 141.191 152.11 141.146 152.188 141.093C152.267 141.037 152.336 140.973 152.398 140.894C152.459 140.819 152.515 140.738 152.56 140.648L153.069 140.939C153.005 141.07 152.926 141.188 152.829 141.297C152.731 141.406 152.619 141.495 152.493 141.571C152.367 141.646 152.23 141.705 152.079 141.744C151.928 141.783 151.772 141.806 151.604 141.806C151.347 141.806 151.115 141.758 150.905 141.663C150.695 141.568 150.516 141.434 150.366 141.263C150.215 141.093 150.1 140.891 150.016 140.657C149.932 140.422 149.893 140.164 149.893 139.885C149.893 139.605 149.935 139.342 150.016 139.108C150.097 138.873 150.215 138.669 150.366 138.498C150.516 138.328 150.695 138.193 150.905 138.098C151.115 138.003 151.347 137.956 151.604 137.956C151.772 137.956 151.928 137.975 152.079 138.017C152.23 138.059 152.367 138.115 152.493 138.191C152.619 138.266 152.731 138.356 152.829 138.465C152.926 138.574 153.007 138.691 153.069 138.822L152.56 139.113C152.515 139.027 152.459 138.945 152.398 138.867C152.336 138.792 152.267 138.725 152.188 138.669C152.11 138.613 152.021 138.568 151.926 138.537C151.828 138.504 151.721 138.487 151.604 138.487C151.425 138.487 151.269 138.523 151.134 138.599C151 138.671 150.888 138.772 150.799 138.895C150.709 139.018 150.642 139.166 150.595 139.331C150.547 139.496 150.525 139.675 150.525 139.86V139.896V139.902Z" fill="#0B0C0C"/>
<path d="M154.529 139.85L156.274 138.027H157.04L155.628 139.501L157.104 141.737H156.36L155.195 139.909L154.526 140.594V141.737H153.917V136.534H154.526V139.85H154.529Z" fill="#0B0C0C"/>
<path d="M163.487 136.534H164.276V141.737H163.63V137.289L161.852 139.716H161.843L160.054 137.292V141.737H159.431V136.534H160.244L161.863 138.748L163.487 136.534Z" fill="#0B0C0C"/>
<path d="M165.398 139.144C165.398 138.772 165.452 138.422 165.555 138.098C165.661 137.774 165.812 137.489 166.008 137.248C166.204 137.008 166.441 136.818 166.724 136.678C167.006 136.538 167.319 136.468 167.671 136.468C168.024 136.468 168.337 136.538 168.619 136.678C168.901 136.818 169.139 137.008 169.335 137.248C169.53 137.489 169.684 137.771 169.788 138.098C169.894 138.422 169.947 138.772 169.947 139.144C169.947 139.516 169.894 139.868 169.788 140.192C169.684 140.517 169.53 140.799 169.335 141.037C169.136 141.277 168.899 141.464 168.619 141.601C168.339 141.738 168.024 141.808 167.671 141.808C167.319 141.808 167.006 141.738 166.724 141.601C166.441 141.464 166.204 141.274 166.008 141.037C165.812 140.799 165.661 140.514 165.555 140.192C165.452 139.868 165.398 139.518 165.398 139.144ZM169.27 139.093C169.27 138.825 169.24 138.565 169.178 138.316C169.117 138.067 169.022 137.846 168.89 137.656C168.759 137.466 168.594 137.312 168.393 137.198C168.191 137.083 167.951 137.027 167.671 137.027C167.392 137.027 167.154 137.083 166.953 137.198C166.752 137.312 166.587 137.463 166.455 137.656C166.324 137.849 166.229 138.067 166.167 138.316C166.106 138.565 166.075 138.825 166.075 139.093V139.191C166.075 139.46 166.106 139.72 166.167 139.969C166.229 140.217 166.327 140.438 166.455 140.628C166.584 140.819 166.752 140.969 166.953 141.087C167.154 141.204 167.395 141.26 167.671 141.26C167.948 141.26 168.188 141.202 168.393 141.087C168.594 140.972 168.762 140.819 168.89 140.628C169.019 140.438 169.117 140.22 169.178 139.969C169.24 139.72 169.27 139.46 169.27 139.191V139.093Z" fill="#0B0C0C"/>
<path d="M170.404 136.534H173.971V137.107H172.509V141.737H171.866V137.107H170.404V136.534Z" fill="#0B0C0C"/>
<path d="M147.743 148.268H145.004V150.659H144.366V145.456H145.004V147.718H147.743V145.456H148.386V150.659H147.743V148.268Z" fill="#0B0C0C"/>
<path d="M149.497 145.88C149.497 145.821 149.508 145.768 149.531 145.718C149.553 145.667 149.584 145.623 149.623 145.584C149.659 145.544 149.704 145.514 149.757 145.491C149.81 145.469 149.863 145.458 149.922 145.458C149.981 145.458 150.034 145.469 150.084 145.491C150.134 145.514 150.179 145.544 150.218 145.584C150.255 145.623 150.285 145.667 150.308 145.718C150.33 145.768 150.341 145.824 150.341 145.88C150.341 145.936 150.33 145.992 150.308 146.045C150.285 146.098 150.255 146.143 150.218 146.179C150.182 146.215 150.137 146.246 150.084 146.269C150.031 146.291 149.978 146.302 149.922 146.302C149.866 146.302 149.81 146.291 149.757 146.269C149.707 146.246 149.659 146.215 149.623 146.179C149.587 146.143 149.556 146.098 149.531 146.045C149.508 145.992 149.497 145.939 149.497 145.88ZM150.218 150.658H149.609V146.951H150.218V150.658Z" fill="#0B0C0C"/>
<path d="M153.814 149.632C153.814 149.805 153.778 149.962 153.699 150.099C153.624 150.236 153.523 150.35 153.397 150.445C153.272 150.54 153.126 150.61 152.964 150.661C152.799 150.708 152.634 150.733 152.461 150.733C152.19 150.733 151.93 150.686 151.678 150.594C151.426 150.501 151.206 150.367 151.013 150.194L151.345 149.763C151.404 149.813 151.471 149.867 151.547 149.923C151.622 149.978 151.709 150.029 151.801 150.076C151.893 150.124 151.997 150.163 152.106 150.194C152.215 150.224 152.329 150.238 152.45 150.238C152.55 150.238 152.643 150.224 152.735 150.199C152.824 150.174 152.905 150.138 152.972 150.087C153.04 150.037 153.093 149.978 153.135 149.909C153.174 149.839 153.193 149.76 153.193 149.674C153.193 149.576 153.171 149.495 153.129 149.43C153.087 149.366 153.028 149.31 152.956 149.263C152.883 149.215 152.799 149.176 152.701 149.142C152.603 149.109 152.503 149.075 152.397 149.042L152.165 148.966C152.033 148.922 151.907 148.874 151.787 148.818C151.667 148.762 151.558 148.695 151.466 148.614C151.373 148.533 151.298 148.438 151.245 148.326C151.189 148.214 151.164 148.083 151.164 147.926C151.164 147.8 151.192 147.675 151.245 147.552C151.298 147.429 151.379 147.314 151.488 147.216C151.597 147.118 151.74 147.037 151.907 146.976C152.075 146.914 152.276 146.883 152.506 146.883C152.76 146.883 152.995 146.925 153.213 147.009C153.428 147.093 153.613 147.199 153.764 147.325L153.445 147.764C153.392 147.714 153.328 147.666 153.258 147.619C153.188 147.571 153.107 147.532 153.026 147.498C152.944 147.465 152.858 147.434 152.768 147.412C152.679 147.389 152.589 147.378 152.503 147.378C152.369 147.378 152.257 147.392 152.165 147.423C152.072 147.454 152 147.493 151.944 147.54C151.888 147.588 151.846 147.644 151.823 147.703C151.798 147.764 151.784 147.823 151.784 147.881C151.784 147.965 151.801 148.038 151.837 148.094C151.874 148.15 151.921 148.2 151.98 148.242C152.039 148.284 152.106 148.318 152.184 148.348C152.26 148.376 152.341 148.407 152.422 148.435L152.726 148.536C152.872 148.583 153.003 148.636 153.126 148.689C153.249 148.743 153.353 148.807 153.445 148.877C153.562 148.969 153.652 149.075 153.716 149.196C153.78 149.316 153.811 149.464 153.811 149.635L153.814 149.632Z" fill="#0B0C0C"/>
<path d="M155.708 149.736C155.708 149.797 155.714 149.856 155.722 149.912C155.731 149.965 155.75 150.015 155.784 150.054C155.817 150.096 155.865 150.127 155.926 150.152C155.988 150.177 156.075 150.189 156.184 150.189C156.212 150.189 156.248 150.189 156.287 150.186C156.326 150.186 156.368 150.18 156.413 150.177C156.458 150.175 156.5 150.169 156.539 150.163C156.578 150.158 156.614 150.152 156.645 150.147L156.709 150.681C156.639 150.692 156.567 150.697 156.491 150.706C156.427 150.714 156.357 150.72 156.282 150.723C156.206 150.725 156.128 150.731 156.049 150.731C155.901 150.731 155.77 150.717 155.653 150.686C155.535 150.655 155.434 150.608 155.353 150.538C155.272 150.468 155.208 150.381 155.166 150.272C155.124 150.163 155.102 150.029 155.102 149.873V147.488H154.403V146.951H155.102V145.737L155.711 145.522V146.948H156.743V147.485H155.711V149.736H155.708Z" fill="#0B0C0C"/>
<path d="M158.979 146.876C159.236 146.876 159.468 146.923 159.677 147.018C159.887 147.113 160.069 147.248 160.217 147.418C160.365 147.589 160.483 147.793 160.564 148.028C160.645 148.263 160.687 148.523 160.687 148.805C160.687 149.087 160.645 149.339 160.564 149.577C160.483 149.814 160.365 150.016 160.217 150.186C160.069 150.357 159.89 150.491 159.677 150.586C159.465 150.681 159.233 150.729 158.979 150.729C158.724 150.729 158.489 150.681 158.28 150.586C158.07 150.491 157.891 150.357 157.74 150.186C157.589 150.016 157.474 149.811 157.391 149.577C157.307 149.342 157.268 149.085 157.268 148.805C157.268 148.525 157.31 148.263 157.391 148.028C157.472 147.793 157.589 147.589 157.74 147.418C157.891 147.248 158.07 147.113 158.28 147.018C158.489 146.923 158.721 146.876 158.979 146.876ZM158.979 150.197C159.155 150.197 159.311 150.161 159.445 150.085C159.58 150.013 159.691 149.912 159.781 149.786C159.873 149.66 159.94 149.515 159.985 149.35C160.03 149.185 160.055 149.012 160.055 148.83V148.785C160.055 148.598 160.032 148.422 159.985 148.257C159.937 148.092 159.87 147.944 159.781 147.821C159.691 147.695 159.577 147.597 159.445 147.524C159.311 147.452 159.155 147.413 158.979 147.413C158.802 147.413 158.646 147.449 158.512 147.524C158.377 147.597 158.266 147.698 158.176 147.821C158.084 147.947 158.017 148.092 157.972 148.257C157.927 148.422 157.902 148.601 157.902 148.785V148.83C157.902 149.012 157.925 149.185 157.972 149.35C158.02 149.515 158.087 149.66 158.176 149.786C158.266 149.912 158.38 150.013 158.512 150.085C158.646 150.158 158.802 150.197 158.979 150.197Z" fill="#0B0C0C"/>
<path d="M163.474 147.493H163.376C163.22 147.493 163.069 147.51 162.926 147.546C162.784 147.582 162.658 147.647 162.549 147.742C162.44 147.837 162.353 147.965 162.289 148.128C162.225 148.29 162.191 148.499 162.191 148.754V150.655H161.582V146.948H162.191V147.535C162.236 147.426 162.297 147.331 162.376 147.247C162.454 147.163 162.54 147.096 162.638 147.043C162.736 146.99 162.842 146.948 162.954 146.922C163.066 146.897 163.181 146.883 163.298 146.883H163.477V147.493H163.474Z" fill="#0B0C0C"/>
<path d="M163.78 146.948H164.471L165.385 150.01L166.254 146.948H166.937L165.586 151.215C165.544 151.347 165.491 151.453 165.427 151.537C165.363 151.621 165.287 151.688 165.203 151.735C165.119 151.785 165.027 151.819 164.926 151.839C164.826 151.858 164.717 151.867 164.602 151.867C164.502 151.867 164.395 151.861 164.286 151.85C164.177 151.839 164.063 151.825 163.942 151.805L164.032 151.271C164.079 151.282 164.133 151.288 164.188 151.296C164.233 151.305 164.286 151.31 164.345 151.313C164.404 151.316 164.462 151.321 164.524 151.321C164.658 151.321 164.762 151.293 164.834 151.235C164.907 151.176 164.96 151.081 164.991 150.952L165.027 150.782L163.78 146.946V146.948Z" fill="#0B0C0C"/>
<path d="M29.9292 22.2429H356.489" stroke="white" stroke-width="1.21322" stroke-linecap="round" stroke-dasharray="0.04 3.24"/>
<path d="M109.736 0C137.634 0 160.248 22.6158 160.248 50.5165C160.248 78.4171 137.634 101.033 109.736 101.033C81.8386 101.033 59.2251 78.4171 59.2251 50.5165C59.2251 22.6158 81.8386 0 109.736 0Z" fill="#FF52EE"/>
<path d="M98.3804 37.1348V47.5413H96.225V40.6604H94.3379V38.7592H94.802C95.1123 38.7592 95.3639 38.7312 95.5596 38.6753C95.7553 38.6194 95.9091 38.5327 96.0209 38.4181C96.1327 38.3035 96.2082 38.1525 96.2445 37.9707C96.2809 37.789 96.3032 37.5709 96.3032 37.3137V37.132H98.3776L98.3804 37.1348Z" fill="#0B0C0C"/>
<path d="M100.161 46.3676C100.161 46.1887 100.195 46.0209 100.267 45.8643C100.34 45.7078 100.432 45.568 100.555 45.4505C100.678 45.3331 100.818 45.238 100.98 45.1681C101.142 45.0982 101.313 45.0619 101.492 45.0619C101.671 45.0619 101.841 45.0982 102.001 45.1681C102.16 45.238 102.3 45.3331 102.423 45.4505C102.546 45.568 102.638 45.7078 102.711 45.8643C102.783 46.0209 102.817 46.1887 102.817 46.3676C102.817 46.5465 102.783 46.7227 102.711 46.882C102.638 47.0414 102.546 47.1812 102.423 47.3042C102.3 47.4273 102.163 47.5195 102.001 47.5866C101.839 47.6537 101.671 47.6873 101.492 47.6873C101.313 47.6873 101.142 47.6537 100.98 47.5866C100.818 47.5195 100.676 47.4245 100.555 47.3042C100.435 47.184 100.34 47.0442 100.267 46.882C100.195 46.7199 100.161 46.5521 100.161 46.3676Z" fill="#0B0C0C"/>
<path d="M106.008 44.3619C106.087 44.6079 106.196 44.8232 106.335 45.005C106.475 45.1867 106.64 45.3349 106.825 45.4551C107.009 45.5753 107.213 45.662 107.434 45.7151C107.655 45.7683 107.881 45.799 108.119 45.799C108.449 45.799 108.728 45.7599 108.958 45.6788C109.187 45.5977 109.374 45.4943 109.517 45.3656C109.659 45.237 109.763 45.0916 109.824 44.9295C109.886 44.7673 109.919 44.6024 109.919 44.4318C109.919 44.0208 109.749 43.6965 109.408 43.456C109.067 43.2156 108.544 43.0981 107.837 43.0981H107.255V41.3423H107.697C108.334 41.3423 108.835 41.2388 109.195 41.0291C109.556 40.8194 109.735 40.5035 109.735 40.0785C109.735 39.894 109.693 39.729 109.612 39.5808C109.531 39.4327 109.416 39.3096 109.274 39.2062C109.131 39.1027 108.96 39.0244 108.765 38.9713C108.569 38.9182 108.357 38.8874 108.13 38.8874C107.87 38.8874 107.63 38.9238 107.414 38.9965C107.199 39.0692 107.006 39.167 106.839 39.2929C106.671 39.4187 106.523 39.5669 106.4 39.7346C106.277 39.9024 106.179 40.0841 106.106 40.2714L104.247 39.5249C104.359 39.1195 104.543 38.7588 104.798 38.4429C105.052 38.1269 105.354 37.8641 105.701 37.6488C106.047 37.4335 106.428 37.2686 106.844 37.154C107.261 37.0393 107.683 36.9834 108.113 36.9834C108.65 36.9834 109.148 37.0477 109.609 37.1791C110.07 37.3105 110.47 37.5007 110.811 37.7495C111.152 37.9983 111.421 38.3059 111.614 38.6666C111.806 39.0272 111.904 39.4438 111.904 39.908C111.904 40.1848 111.86 40.442 111.77 40.6796C111.681 40.9173 111.56 41.1354 111.407 41.3255C111.253 41.5156 111.074 41.6806 110.867 41.8148C110.66 41.949 110.437 42.0552 110.199 42.1279C110.465 42.1867 110.713 42.2817 110.945 42.4187C111.177 42.5557 111.382 42.7235 111.555 42.9276C111.728 43.1317 111.865 43.3665 111.966 43.6322C112.066 43.8978 112.114 44.1886 112.114 44.5017C112.114 44.9798 112.011 45.416 111.806 45.8074C111.602 46.1988 111.32 46.5344 110.962 46.8084C110.604 47.0824 110.182 47.2976 109.696 47.4514C109.209 47.6052 108.684 47.6807 108.116 47.6807C107.619 47.6807 107.138 47.6164 106.679 47.4878C106.221 47.3592 105.807 47.1746 105.438 46.937C105.069 46.6993 104.761 46.4057 104.51 46.059C104.258 45.7123 104.088 45.3237 104.001 44.8875L106.003 44.3591L106.008 44.3619Z" fill="#0B0C0C"/>
<path d="M120.137 47.5419H118.136V43.0208C118.136 42.744 118.105 42.512 118.046 42.3218C117.988 42.1317 117.904 41.9751 117.795 41.8577C117.686 41.7403 117.565 41.6536 117.426 41.6033C117.286 41.553 117.132 41.5278 116.967 41.5278C116.774 41.5278 116.593 41.5613 116.428 41.6284C116.263 41.6955 116.114 41.8018 115.991 41.9472C115.868 42.0926 115.771 42.2771 115.701 42.5036C115.631 42.73 115.594 42.9957 115.594 43.306V47.5447H113.593V39.7719H115.594V40.4541C115.852 40.169 116.148 39.9593 116.489 39.8223C116.83 39.688 117.196 39.6182 117.588 39.6182C117.979 39.6182 118.365 39.6992 118.714 39.8642C119.064 40.0292 119.355 40.3004 119.589 40.6778C119.726 40.4849 119.88 40.3199 120.056 40.1829C120.232 40.0487 120.423 39.9397 120.627 39.8558C120.831 39.7747 121.04 39.7132 121.261 39.6741C121.482 39.6349 121.709 39.6154 121.941 39.6154C122.377 39.6154 122.765 39.688 123.106 39.8306C123.447 39.9732 123.738 40.1662 123.973 40.4066C124.208 40.6471 124.392 40.9267 124.518 41.2426C124.644 41.5585 124.706 41.8885 124.706 42.238V47.5447H122.681V43.0236C122.681 42.7468 122.651 42.5148 122.592 42.3246C122.53 42.1345 122.447 41.9779 122.34 41.8605C122.234 41.7431 122.108 41.6564 121.966 41.6061C121.823 41.5557 121.669 41.5306 121.504 41.5306C121.312 41.5306 121.13 41.5641 120.965 41.6312C120.8 41.6983 120.655 41.8046 120.532 41.95C120.409 42.0954 120.311 42.2799 120.241 42.5064C120.171 42.7328 120.135 42.9985 120.135 43.3088V47.5475L120.137 47.5419Z" fill="#0B0C0C"/>
<path d="M99.3256 55.9775C99.5129 55.9775 99.6807 55.9523 99.8288 55.9048C99.9742 55.8572 100.103 55.7929 100.209 55.7119C100.318 55.6308 100.408 55.5413 100.483 55.4351C100.558 55.3288 100.617 55.2226 100.662 55.1107C100.707 54.9989 100.74 54.887 100.76 54.7724C100.782 54.6606 100.791 54.5543 100.791 54.4593V54.244H99.3312V53.7072H101.361V56.4584H100.785V55.7594C100.695 55.902 100.595 56.0222 100.48 56.1229C100.366 56.2235 100.245 56.3018 100.117 56.3633C99.9882 56.4248 99.854 56.4668 99.7114 56.4947C99.5688 56.5199 99.4263 56.5339 99.2809 56.5339C98.9258 56.5339 98.6099 56.464 98.3332 56.327C98.0564 56.19 97.8243 55.9998 97.6342 55.7622C97.4441 55.5217 97.2988 55.2393 97.2009 54.9178C97.1031 54.5963 97.0527 54.244 97.0527 53.8693C97.0527 53.4947 97.1059 53.148 97.2149 52.8236C97.3239 52.4993 97.4777 52.2141 97.679 51.9737C97.8802 51.7332 98.1235 51.5431 98.4058 51.4033C98.691 51.2635 99.0097 51.1936 99.362 51.1936C99.58 51.1936 99.7869 51.2188 99.9798 51.2719C100.175 51.325 100.354 51.3977 100.519 51.4928C100.684 51.5878 100.832 51.7025 100.961 51.8339C101.09 51.9653 101.202 52.1107 101.291 52.27L100.751 52.5524C100.687 52.4322 100.614 52.3232 100.528 52.2253C100.441 52.1275 100.34 52.0436 100.226 51.9737C100.111 51.9038 99.9854 51.8479 99.8428 51.8115C99.703 51.7724 99.5465 51.7528 99.3759 51.7528C99.1047 51.7528 98.8671 51.8115 98.6602 51.9261C98.4534 52.0408 98.2828 52.1946 98.143 52.3847C98.0033 52.5748 97.8998 52.7957 97.8299 53.0473C97.76 53.299 97.7237 53.5562 97.7237 53.8246V53.9141C97.7237 54.1825 97.7544 54.4425 97.8215 54.6913C97.8858 54.9402 97.9837 55.1611 98.1151 55.3512C98.2465 55.5413 98.4142 55.6923 98.6155 55.8097C98.8168 55.9271 99.0516 55.9831 99.3228 55.9831L99.3256 55.9775Z" fill="#0B0C0C"/>
<path d="M102.275 53.8666C102.275 53.4948 102.328 53.1453 102.431 52.821C102.538 52.4966 102.689 52.2114 102.884 51.971C103.08 51.7305 103.318 51.5404 103.6 51.4006C103.882 51.2608 104.196 51.1909 104.548 51.1909C104.9 51.1909 105.213 51.2608 105.496 51.4006C105.778 51.5404 106.015 51.7305 106.211 51.971C106.407 52.2114 106.561 52.4938 106.664 52.821C106.77 53.1453 106.823 53.4948 106.823 53.8666C106.823 54.2385 106.77 54.5908 106.664 54.9151C106.561 55.2395 106.407 55.5218 106.211 55.7595C106.013 55.9999 105.775 56.1873 105.496 56.3243C105.216 56.4613 104.9 56.5312 104.548 56.5312C104.196 56.5312 103.882 56.4613 103.6 56.3243C103.318 56.1873 103.08 55.9971 102.884 55.7595C102.689 55.5218 102.538 55.2367 102.431 54.9151C102.328 54.5908 102.275 54.2413 102.275 53.8666ZM106.147 53.8163C106.147 53.5479 106.116 53.2879 106.055 53.039C105.993 52.7902 105.898 52.5693 105.767 52.3792C105.635 52.1891 105.47 52.0353 105.269 51.9207C105.068 51.806 104.827 51.7501 104.548 51.7501C104.268 51.7501 104.031 51.806 103.829 51.9207C103.628 52.0353 103.463 52.1863 103.332 52.3792C103.2 52.5721 103.105 52.7902 103.044 53.039C102.982 53.2879 102.951 53.5479 102.951 53.8163V53.9142C102.951 54.1826 102.982 54.4426 103.044 54.6914C103.105 54.9403 103.203 55.1612 103.332 55.3513C103.46 55.5414 103.628 55.6924 103.829 55.8098C104.031 55.9273 104.271 55.9832 104.548 55.9832C104.825 55.9832 105.065 55.9245 105.269 55.8098C105.47 55.6952 105.638 55.5414 105.767 55.3513C105.895 55.1612 105.993 54.9431 106.055 54.6914C106.116 54.4426 106.147 54.1826 106.147 53.9142V53.8163Z" fill="#0B0C0C"/>
<path d="M110.727 51.2572H111.406L109.79 56.4605H108.867L107.243 51.2572H107.948L109.315 55.9097H109.376L110.727 51.2572Z" fill="#0B0C0C"/>
<path d="M111.688 56.1115C111.688 56.0528 111.699 55.9997 111.721 55.9466C111.743 55.8935 111.774 55.8488 111.81 55.8125C111.847 55.7762 111.891 55.7455 111.945 55.7231C111.998 55.7008 112.051 55.6896 112.107 55.6896C112.162 55.6896 112.218 55.7008 112.271 55.7231C112.322 55.7455 112.369 55.7762 112.405 55.8125C112.442 55.8488 112.473 55.8935 112.498 55.9466C112.52 55.9997 112.531 56.0528 112.531 56.1115C112.531 56.1702 112.52 56.2233 112.498 56.2735C112.475 56.3238 112.445 56.3685 112.405 56.4049C112.369 56.4412 112.324 56.4719 112.271 56.4943C112.218 56.5166 112.165 56.5278 112.107 56.5278C112.048 56.5278 111.995 56.5166 111.945 56.4943C111.894 56.4719 111.85 56.4412 111.81 56.4049C111.774 56.3685 111.743 56.3238 111.721 56.2735C111.699 56.2233 111.688 56.1674 111.688 56.1115Z" fill="#0B0C0C"/>
<path d="M115.671 55.9768C115.839 55.9768 116.004 55.9488 116.16 55.8957C116.317 55.8426 116.454 55.7559 116.574 55.644C116.694 55.5294 116.789 55.3868 116.862 55.2107C116.935 55.0345 116.971 54.8248 116.971 54.5816V51.2572H117.594V54.6683C117.594 54.9534 117.544 55.2107 117.446 55.4399C117.348 55.6692 117.211 55.8649 117.041 56.0271C116.87 56.1893 116.666 56.3151 116.431 56.4017C116.196 56.4884 115.945 56.5332 115.674 56.5332C115.402 56.5332 115.154 56.4884 114.922 56.4017C114.687 56.3151 114.486 56.1893 114.312 56.0271C114.139 55.8649 114.002 55.6692 113.904 55.4399C113.806 55.2107 113.756 54.9534 113.756 54.6683V51.2572H114.388V54.5816C114.388 54.8248 114.424 55.0345 114.494 55.2107C114.564 55.3868 114.659 55.5294 114.779 55.644C114.899 55.7587 115.033 55.8426 115.19 55.8957C115.347 55.9488 115.506 55.9768 115.674 55.9768H115.671Z" fill="#0B0C0C"/>
<path d="M118.971 51.2572H119.608V54.0448L121.859 51.2572H122.639L120.936 53.3122L122.809 56.4633H122.063L120.508 53.7819L119.608 54.8947V56.4633H118.971V51.26V51.2572Z" fill="#0B0C0C"/>
<path d="M96.2014 62.9908H93.4616V65.3814H92.8242V60.1781H93.4616V62.44H96.2014V60.1781H96.8444V65.3814H96.2014V62.9908Z" fill="#0B0C0C"/>
<path d="M99.5151 61.5983C99.7723 61.5983 100.004 61.6458 100.214 61.7409C100.424 61.8359 100.605 61.9701 100.754 62.1407C100.902 62.3112 101.019 62.5153 101.1 62.7502C101.181 62.9851 101.223 63.2451 101.223 63.5275C101.223 63.8099 101.181 64.0615 101.1 64.2992C101.019 64.5368 100.902 64.7381 100.754 64.9087C100.605 65.0792 100.427 65.2134 100.214 65.3085C100.002 65.4036 99.7695 65.4511 99.5151 65.4511C99.2607 65.4511 99.0259 65.4036 98.8162 65.3085C98.6066 65.2134 98.4276 65.0792 98.2767 64.9087C98.1257 64.7381 98.0111 64.534 97.9272 64.2992C97.8433 64.0643 97.8042 63.8071 97.8042 63.5275C97.8042 63.2479 97.8461 62.9851 97.9272 62.7502C98.0083 62.5153 98.1257 62.3112 98.2767 62.1407C98.4276 61.9701 98.6066 61.8359 98.8162 61.7409C99.0259 61.6458 99.2579 61.5983 99.5151 61.5983ZM99.5151 64.9199C99.6913 64.9199 99.8478 64.8835 99.982 64.808C100.116 64.7353 100.228 64.6347 100.317 64.5088C100.41 64.383 100.477 64.2376 100.522 64.0727C100.566 63.9077 100.591 63.7344 100.591 63.5526V63.5079C100.591 63.3206 100.569 63.1444 100.522 62.9795C100.474 62.8145 100.407 62.6663 100.317 62.5433C100.228 62.4175 100.113 62.3196 99.982 62.2469C99.8478 62.1742 99.6913 62.1351 99.5151 62.1351C99.339 62.1351 99.1825 62.1714 99.0483 62.2469C98.9141 62.3196 98.8022 62.4203 98.7128 62.5433C98.6205 62.6691 98.5534 62.8145 98.5087 62.9795C98.464 63.1444 98.4388 63.3234 98.4388 63.5079V63.5526C98.4388 63.7344 98.4612 63.9077 98.5087 64.0727C98.5562 64.2376 98.6233 64.383 98.7128 64.5088C98.8022 64.6347 98.9169 64.7353 99.0483 64.808C99.1825 64.8807 99.339 64.9199 99.5151 64.9199Z" fill="#0B0C0C"/>
<path d="M104.896 65.3814H104.287V63.0468C104.287 62.8818 104.267 62.742 104.228 62.6302C104.186 62.5156 104.136 62.4233 104.069 62.3534C104.002 62.2835 103.923 62.2332 103.831 62.1996C103.742 62.1689 103.644 62.1521 103.543 62.1521C103.442 62.1521 103.342 62.1717 103.244 62.2108C103.146 62.2499 103.059 62.3143 102.984 62.3981C102.909 62.482 102.847 62.5911 102.799 62.7197C102.752 62.8483 102.73 63.0049 102.73 63.1866V65.3786H102.12V61.6712H102.73V62.0962C102.853 61.9256 102.998 61.7998 103.16 61.7187C103.325 61.6376 103.504 61.5985 103.702 61.5985C103.784 61.5985 103.876 61.6097 103.971 61.632C104.066 61.6544 104.164 61.6908 104.256 61.7383C104.348 61.7858 104.435 61.8501 104.513 61.9284C104.591 62.0067 104.656 62.1018 104.703 62.2136C104.77 62.099 104.849 62.0039 104.938 61.9256C105.028 61.8473 105.12 61.783 105.218 61.7355C105.316 61.688 105.416 61.6516 105.522 61.6293C105.626 61.6069 105.732 61.5957 105.836 61.5957C106.037 61.5957 106.216 61.6293 106.37 61.6964C106.523 61.7635 106.655 61.8557 106.761 61.9676C106.867 62.0794 106.948 62.2136 107.001 62.3618C107.054 62.5128 107.082 62.6693 107.082 62.8343V65.3758H106.473V63.0412C106.473 62.8762 106.453 62.7364 106.411 62.6246C106.37 62.5128 106.314 62.4177 106.244 62.3478C106.174 62.2779 106.093 62.2276 106 62.194C105.908 62.1605 105.813 62.1465 105.713 62.1465C105.612 62.1465 105.511 62.1661 105.413 62.2052C105.316 62.2444 105.229 62.3087 105.153 62.3925C105.078 62.4764 105.016 62.5855 104.969 62.7141C104.921 62.8427 104.899 62.9993 104.899 63.181V65.373L104.896 65.3814Z" fill="#0B0C0C"/>
<path d="M108.579 63.7152C108.59 63.8885 108.626 64.0507 108.685 64.1989C108.744 64.3471 108.822 64.4729 108.923 64.5819C109.023 64.691 109.141 64.772 109.278 64.8336C109.415 64.8923 109.566 64.923 109.733 64.923C109.937 64.923 110.119 64.8895 110.276 64.8196C110.432 64.7497 110.575 64.663 110.706 64.5595L111.019 64.9985C110.852 65.1327 110.659 65.2418 110.441 65.3256C110.223 65.4123 109.977 65.4543 109.705 65.4543C109.434 65.4543 109.194 65.4067 108.976 65.3117C108.758 65.2166 108.573 65.0824 108.419 64.9118C108.266 64.7413 108.148 64.5372 108.064 64.3023C107.981 64.0675 107.941 63.8102 107.941 63.5306C107.941 63.251 107.983 62.9882 108.064 62.7534C108.145 62.5185 108.26 62.3144 108.408 62.1439C108.556 61.9733 108.733 61.8391 108.937 61.744C109.141 61.649 109.37 61.6014 109.622 61.6014C109.873 61.6014 110.086 61.649 110.281 61.744C110.477 61.8391 110.645 61.9733 110.782 62.1439C110.919 62.3144 111.025 62.5185 111.098 62.7534C111.17 62.9882 111.21 63.2455 111.21 63.5251V63.718H108.579V63.7152ZM109.599 62.1327C109.445 62.1327 109.306 62.1634 109.185 62.2221C109.065 62.2809 108.962 62.3647 108.875 62.4654C108.788 62.566 108.721 62.6835 108.671 62.8149C108.621 62.9463 108.593 63.0833 108.584 63.2231H110.547C110.541 63.0805 110.516 62.9435 110.471 62.8121C110.427 62.6807 110.365 62.5632 110.284 62.4626C110.203 62.3619 110.105 62.2809 109.991 62.2221C109.876 62.1606 109.745 62.1327 109.596 62.1327H109.599Z" fill="#0B0C0C"/>
<path d="M112.67 61.671V62.0959C112.78 61.9422 112.928 61.8219 113.112 61.7325C113.297 61.643 113.512 61.5983 113.755 61.5983C113.998 61.5983 114.211 61.6458 114.404 61.7409C114.597 61.8359 114.762 61.9701 114.901 62.1407C115.041 62.3112 115.145 62.5153 115.217 62.753C115.29 62.9879 115.329 63.2479 115.329 63.5275C115.329 63.8071 115.293 64.0643 115.217 64.2992C115.145 64.534 115.038 64.7353 114.901 64.9059C114.764 65.0764 114.597 65.2106 114.404 65.3057C114.211 65.4008 113.993 65.4483 113.755 65.4483C113.518 65.4483 113.3 65.4036 113.112 65.3141C112.925 65.2246 112.78 65.1044 112.67 64.9506V66.5052H112.061V61.6682H112.67V61.671ZM114.7 63.5079C114.7 63.315 114.678 63.1332 114.63 62.9683C114.583 62.8033 114.516 62.6579 114.426 62.5349C114.337 62.4119 114.225 62.3168 114.093 62.2469C113.962 62.177 113.811 62.1407 113.643 62.1407C113.476 62.1407 113.339 62.1686 113.216 62.2246C113.093 62.2805 112.992 62.356 112.908 62.4538C112.824 62.5517 112.763 62.6663 112.721 62.7977C112.679 62.9291 112.657 63.0717 112.657 63.2283V63.8294C112.657 63.9832 112.679 64.1286 112.721 64.26C112.763 64.3914 112.827 64.5061 112.908 64.6039C112.989 64.7018 113.093 64.7773 113.216 64.8332C113.339 64.8891 113.481 64.9171 113.643 64.9171C113.806 64.9171 113.962 64.8807 114.093 64.8108C114.225 64.7409 114.337 64.6459 114.426 64.5228C114.516 64.3998 114.583 64.2572 114.63 64.0895C114.678 63.9217 114.7 63.7428 114.7 63.5498V63.5135V63.5079Z" fill="#0B0C0C"/>
<path d="M118.335 65.0096C118.226 65.1354 118.078 65.2416 117.893 65.3255C117.709 65.4094 117.491 65.4513 117.242 65.4513C117.057 65.4513 116.887 65.4261 116.73 65.373C116.574 65.3199 116.437 65.2472 116.319 65.1493C116.202 65.0515 116.112 64.9341 116.048 64.7971C115.984 64.6601 115.95 64.5035 115.95 64.3301C115.95 64.1847 115.973 64.0533 116.02 63.9331C116.068 63.8129 116.132 63.7094 116.219 63.62C116.305 63.5305 116.409 63.4578 116.529 63.3991C116.649 63.3404 116.786 63.304 116.934 63.2817L118.245 63.1027V62.8679C118.245 62.7281 118.223 62.6106 118.181 62.5128C118.139 62.4149 118.078 62.3422 118.005 62.2863C117.932 62.2304 117.846 62.1912 117.745 62.1661C117.644 62.1409 117.535 62.1297 117.421 62.1297C117.211 62.1297 117.018 62.1577 116.839 62.2164C116.66 62.2751 116.495 62.3422 116.353 62.4205L116.124 61.9368C116.336 61.8166 116.56 61.7299 116.794 61.6768C117.027 61.6237 117.259 61.5957 117.485 61.5957C117.938 61.5957 118.279 61.6991 118.511 61.9033C118.743 62.1074 118.86 62.4065 118.86 62.798V64.5063C118.86 64.6293 118.886 64.7328 118.933 64.8166C118.981 64.9005 119.059 64.9648 119.165 65.0151L118.821 65.4513C118.704 65.4233 118.606 65.3702 118.522 65.2975C118.438 65.2248 118.38 65.1354 118.346 65.0319L118.338 65.0096H118.335ZM117.25 63.729C117.15 63.743 117.054 63.7654 116.973 63.7905C116.89 63.8157 116.82 63.852 116.761 63.8968C116.702 63.9415 116.657 63.9974 116.624 64.0617C116.59 64.126 116.574 64.2071 116.574 64.3022C116.574 64.4112 116.593 64.5091 116.635 64.593C116.677 64.6768 116.733 64.7495 116.803 64.8082C116.873 64.867 116.954 64.9117 117.046 64.9397C117.138 64.9704 117.236 64.9844 117.34 64.9844C117.454 64.9844 117.563 64.9676 117.672 64.9369C117.781 64.9061 117.876 64.8586 117.963 64.7999C118.05 64.7411 118.117 64.6684 118.167 64.5846C118.217 64.5007 118.245 64.4028 118.245 64.2938V63.578L117.247 63.7262L117.25 63.729Z" fill="#0B0C0C"/>
<path d="M119.756 63.3237C119.756 63.0805 119.79 62.8512 119.863 62.6415C119.935 62.4318 120.033 62.2501 120.165 62.0963C120.296 61.9425 120.452 61.8223 120.637 61.7329C120.821 61.6434 121.028 61.6014 121.26 61.6014C121.464 61.6014 121.657 61.6406 121.842 61.7189C122.026 61.7972 122.18 61.923 122.309 62.0991V61.6741H122.918V65.3816C122.918 65.6108 122.871 65.8037 122.778 65.9603C122.686 66.1169 122.563 66.2427 122.415 66.335C122.267 66.4272 122.096 66.4971 121.906 66.5391C121.716 66.581 121.523 66.6006 121.328 66.6006C121.218 66.6006 121.107 66.595 120.989 66.5838C120.872 66.5726 120.754 66.5531 120.637 66.5307C120.52 66.5083 120.402 66.4748 120.288 66.4384C120.173 66.4021 120.064 66.3573 119.96 66.307L120.181 65.7954C120.254 65.8289 120.329 65.8625 120.411 65.896C120.492 65.9296 120.575 65.9575 120.671 65.9855C120.763 66.0106 120.863 66.033 120.97 66.0498C121.076 66.0666 121.193 66.075 121.319 66.075C121.473 66.075 121.613 66.0582 121.738 66.0274C121.861 65.9967 121.968 65.9463 122.052 65.8792C122.135 65.8121 122.203 65.7283 122.247 65.6248C122.292 65.5214 122.317 65.3983 122.317 65.2557V64.5512C122.189 64.7245 122.032 64.8503 121.85 64.9314C121.669 65.0125 121.473 65.0488 121.269 65.0488C121.04 65.0488 120.833 65.0041 120.645 64.9174C120.461 64.828 120.301 64.7077 120.173 64.554C120.044 64.4002 119.941 64.2184 119.871 64.0087C119.801 63.7991 119.765 63.5726 119.765 63.3293L119.756 63.3237ZM122.32 63.3098C122.32 63.142 122.303 62.9882 122.267 62.8484C122.231 62.7086 122.175 62.5828 122.096 62.4794C122.018 62.3759 121.92 62.292 121.8 62.2333C121.68 62.1746 121.537 62.1439 121.369 62.1439C121.202 62.1439 121.054 62.1746 120.931 62.2333C120.808 62.292 120.704 62.3759 120.623 62.4822C120.542 62.5884 120.48 62.7114 120.444 62.854C120.408 62.9966 120.385 63.1504 120.385 63.3126V63.3405C120.385 63.5027 120.405 63.6537 120.444 63.7963C120.483 63.9389 120.542 64.0619 120.623 64.1653C120.704 64.2716 120.805 64.3527 120.931 64.4142C121.056 64.4757 121.202 64.5036 121.369 64.5036C121.537 64.5036 121.68 64.4729 121.8 64.4142C121.92 64.3554 122.018 64.2744 122.096 64.1681C122.175 64.0619 122.231 63.9416 122.267 63.7991C122.303 63.6565 122.32 63.5027 122.32 63.3377V63.3098Z" fill="#0B0C0C"/>
<path d="M124.445 63.7152C124.456 63.8885 124.493 64.0507 124.551 64.1989C124.61 64.3471 124.688 64.4729 124.789 64.5819C124.89 64.691 125.007 64.772 125.144 64.8336C125.281 64.8923 125.432 64.923 125.6 64.923C125.804 64.923 125.985 64.8895 126.142 64.8196C126.299 64.7497 126.441 64.663 126.573 64.5595L126.886 64.9985C126.718 65.1327 126.525 65.2418 126.307 65.3256C126.089 65.4123 125.843 65.4543 125.572 65.4543C125.3 65.4543 125.06 65.4067 124.842 65.3117C124.624 65.2166 124.439 65.0824 124.286 64.9118C124.132 64.7413 124.014 64.5372 123.931 64.3023C123.847 64.0675 123.808 63.8102 123.808 63.5306C123.808 63.251 123.85 62.9882 123.931 62.7534C124.012 62.5185 124.126 62.3144 124.274 62.1439C124.423 61.9733 124.599 61.8391 124.803 61.744C125.007 61.649 125.236 61.6014 125.488 61.6014C125.739 61.6014 125.952 61.649 126.148 61.744C126.343 61.8391 126.511 61.9733 126.648 62.1439C126.785 62.3144 126.891 62.5185 126.964 62.7534C127.037 62.9882 127.076 63.2455 127.076 63.5251V63.718H124.445V63.7152ZM125.463 62.1327C125.309 62.1327 125.169 62.1634 125.049 62.2221C124.929 62.2809 124.825 62.3647 124.739 62.4654C124.652 62.566 124.585 62.6835 124.534 62.8149C124.484 62.9463 124.456 63.0833 124.448 63.2231H126.41C126.405 63.0805 126.38 62.9435 126.335 62.8121C126.29 62.6807 126.229 62.5632 126.148 62.4626C126.067 62.3619 125.969 62.2809 125.854 62.2221C125.739 62.1606 125.608 62.1327 125.46 62.1327H125.463Z" fill="#0B0C0C"/>
<rect x="7.28174" y="16.9855" width="46.1763" height="10.2353" rx="5.11763" fill="white"/>
<path d="M17.5876 22.4146L16.4991 21.0541V23.6031H15.7547V19.922H16.5094L17.5978 21.3596L18.7196 19.922H19.4435V23.6031H18.6965V21.0541L17.6132 22.4146H17.5876ZM21.3457 20.7999C21.5494 20.7999 21.7342 20.8367 21.9002 20.9103C22.0662 20.9822 22.2082 21.0823 22.3263 21.2107C22.4444 21.339 22.5351 21.4905 22.5984 21.665C22.6635 21.8396 22.696 22.0278 22.696 22.2298C22.696 22.4334 22.6635 22.6225 22.5984 22.7971C22.5334 22.9699 22.4418 23.1197 22.3237 23.2463C22.2057 23.373 22.0636 23.4731 21.8976 23.5467C21.7316 23.6186 21.5476 23.6545 21.3457 23.6545C21.1421 23.6545 20.9572 23.6186 20.7912 23.5467C20.6252 23.4731 20.4832 23.373 20.3651 23.2463C20.247 23.1197 20.1555 22.9699 20.0904 22.7971C20.0254 22.6225 19.9929 22.4334 19.9929 22.2298C19.9929 22.0278 20.0245 21.8396 20.0879 21.665C20.1529 21.4905 20.2444 21.339 20.3625 21.2107C20.4806 21.0823 20.6227 20.9822 20.7887 20.9103C20.9564 20.8367 21.1421 20.7999 21.3457 20.7999ZM21.3457 22.9973C21.4467 22.9973 21.5357 22.9785 21.6127 22.9409C21.6914 22.9032 21.7573 22.851 21.8103 22.7843C21.8634 22.7175 21.9036 22.6379 21.931 22.5455C21.9584 22.4514 21.9721 22.3487 21.9721 22.2375V22.2195C21.9721 22.1083 21.9584 22.0064 21.931 21.914C21.9036 21.8199 21.8634 21.7395 21.8103 21.6727C21.7573 21.6043 21.6914 21.5512 21.6127 21.5136C21.5357 21.4759 21.4467 21.4571 21.3457 21.4571C21.2447 21.4571 21.1549 21.4759 21.0762 21.5136C20.9992 21.5512 20.9341 21.6043 20.8811 21.6727C20.828 21.7395 20.7878 21.8199 20.7604 21.914C20.733 22.0064 20.7193 22.1083 20.7193 22.2195V22.2375C20.7193 22.3487 20.733 22.4514 20.7604 22.5455C20.7878 22.6379 20.828 22.7175 20.8811 22.7843C20.9341 22.851 20.9992 22.9032 21.0762 22.9409C21.1549 22.9785 21.2447 22.9973 21.3457 22.9973ZM23.3608 22.7252C23.4618 22.8159 23.5825 22.8938 23.7228 22.9588C23.8631 23.0239 24.0052 23.0564 24.1489 23.0564C24.2533 23.0564 24.3355 23.0367 24.3953 22.9973C24.4552 22.9563 24.4852 22.9041 24.4852 22.8407C24.4852 22.7329 24.3697 22.6491 24.1386 22.5892L23.9384 22.5353C23.8392 22.5113 23.739 22.4788 23.6381 22.4377C23.5371 22.3949 23.4438 22.3393 23.3583 22.2709C23.2744 22.2024 23.206 22.1194 23.1529 22.0219C23.1016 21.9226 23.0759 21.8011 23.0759 21.6573C23.0759 21.5427 23.1007 21.434 23.1503 21.3313C23.2017 21.2269 23.2736 21.1354 23.366 21.0566C23.4601 20.9779 23.5739 20.9155 23.7074 20.8692C23.8409 20.823 23.9898 20.7999 24.154 20.7999C24.3885 20.7999 24.5973 20.8367 24.7804 20.9103C24.9652 20.9839 25.1107 21.0669 25.2168 21.1593L24.8471 21.6317C24.7599 21.5683 24.6563 21.5144 24.5365 21.4699C24.4185 21.4237 24.2995 21.4006 24.1797 21.4006C24.0685 21.4006 23.9821 21.4212 23.9204 21.4622C23.8588 21.5016 23.828 21.5495 23.828 21.606C23.828 21.6659 23.8546 21.7147 23.9076 21.7523C23.9624 21.7883 24.0411 21.8199 24.1438 21.8473L24.4416 21.932C24.7256 22.0124 24.9293 22.1211 25.0525 22.258C25.1757 22.3949 25.2373 22.5678 25.2373 22.7766C25.2373 22.8929 25.2134 23.0042 25.1655 23.1103C25.1175 23.2147 25.0474 23.3079 24.955 23.3901C24.8625 23.4722 24.7479 23.5373 24.611 23.5852C24.4741 23.6314 24.3183 23.6545 24.1438 23.6545C24.0103 23.6545 23.8845 23.6425 23.7664 23.6186C23.6501 23.5946 23.5414 23.5621 23.4404 23.521C23.3411 23.4782 23.2513 23.4303 23.1709 23.3772C23.0904 23.3242 23.022 23.2711 22.9655 23.2181L23.3608 22.7252ZM26.7108 22.7843C26.7108 22.8168 26.7151 22.8476 26.7237 22.8767C26.7322 22.9058 26.7468 22.9314 26.7673 22.9537C26.7895 22.9742 26.8203 22.9905 26.8597 23.0025C26.8991 23.0144 26.9496 23.0204 27.0112 23.0204C27.0368 23.0204 27.0659 23.0196 27.0984 23.0179C27.131 23.0144 27.1635 23.011 27.196 23.0076C27.2285 23.0042 27.2585 22.9999 27.2858 22.9948C27.3149 22.9896 27.3389 22.9853 27.3577 22.9819L27.4219 23.6083C27.3551 23.6168 27.2858 23.6245 27.214 23.6314C27.1524 23.6382 27.0839 23.6434 27.0086 23.6468C26.9333 23.6519 26.8571 23.6545 26.7801 23.6545C26.5354 23.6545 26.3446 23.5989 26.2077 23.4876C26.0708 23.3764 26.0023 23.1993 26.0023 22.9563V21.4699H25.5069V20.8538H26.0023V20.076L26.7108 19.8861V20.8538H27.4322V21.4699H26.7108V22.7843ZM29.2881 23.6031L28.4461 20.8538H29.2368L29.7297 22.7458L30.2354 20.8538H31.0132L30.1763 23.6031H29.2881ZM32.0734 23.6031H31.3649V20.8538H32.0734V23.6031ZM31.2904 20.1325C31.2904 20.0743 31.3015 20.0196 31.3238 19.9682C31.346 19.9152 31.376 19.8698 31.4136 19.8322C31.453 19.7928 31.4984 19.762 31.5497 19.7398C31.601 19.7175 31.6567 19.7064 31.7166 19.7064C31.7747 19.7064 31.8295 19.7175 31.8808 19.7398C31.9339 19.762 31.9792 19.7928 32.0169 19.8322C32.0563 19.8698 32.0871 19.9152 32.1093 19.9682C32.1316 20.0196 32.1427 20.0743 32.1427 20.1325C32.1427 20.1924 32.1316 20.248 32.1093 20.2994C32.0871 20.3507 32.0563 20.3961 32.0169 20.4354C31.9792 20.4731 31.9339 20.503 31.8808 20.5253C31.8295 20.5475 31.7747 20.5586 31.7166 20.5586C31.6567 20.5586 31.601 20.5475 31.5497 20.5253C31.4984 20.503 31.453 20.4731 31.4136 20.4354C31.376 20.3961 31.346 20.3507 31.3238 20.2994C31.3015 20.248 31.2904 20.1924 31.2904 20.1325ZM33.2773 22.4737C33.2893 22.5558 33.315 22.6311 33.3543 22.6996C33.3954 22.768 33.4467 22.827 33.5083 22.8767C33.57 22.9246 33.641 22.9622 33.7214 22.9896C33.8018 23.017 33.8874 23.0307 33.9781 23.0307C34.0825 23.0307 34.1955 23.011 34.317 22.9717C34.4385 22.9306 34.5497 22.8715 34.6507 22.7945L34.9921 23.2925C34.8637 23.4004 34.7063 23.4876 34.5198 23.5544C34.3332 23.6211 34.1347 23.6545 33.9242 23.6545C33.7342 23.6545 33.5554 23.622 33.3877 23.5569C33.22 23.4919 33.0728 23.3978 32.9462 23.2746C32.8212 23.1514 32.722 23.0016 32.6484 22.8253C32.5765 22.6491 32.5406 22.4505 32.5406 22.2298C32.5406 22.0278 32.5722 21.8396 32.6356 21.665C32.7006 21.4905 32.7904 21.339 32.9051 21.2107C33.0215 21.0823 33.1601 20.9822 33.321 20.9103C33.4818 20.8367 33.6598 20.7999 33.8549 20.7999C34.0363 20.7999 34.2049 20.8333 34.3606 20.9001C34.5163 20.9651 34.6515 21.0575 34.7662 21.1773C34.8809 21.2954 34.9707 21.4374 35.0357 21.6034C35.1008 21.7694 35.1333 21.9525 35.1333 22.1528V22.4737H33.2773ZM33.8523 21.416C33.7 21.416 33.5708 21.4674 33.4647 21.5701C33.3603 21.671 33.2996 21.7934 33.2824 21.9371H34.3914C34.388 21.7917 34.3349 21.6685 34.2323 21.5675C34.1296 21.4665 34.0029 21.416 33.8523 21.416ZM38.0777 22.7047L38.414 20.8538H39.1635L38.5295 23.6031H37.6875L37.2768 21.8165L36.8404 23.6031H36.0112L35.3746 20.8538H36.1473L36.4733 22.7047L36.9508 20.8538H37.6284L38.0777 22.7047ZM40.157 22.4737C40.169 22.5558 40.1946 22.6311 40.234 22.6996C40.2751 22.768 40.3264 22.827 40.388 22.8767C40.4496 22.9246 40.5206 22.9622 40.6011 22.9896C40.6815 23.017 40.7671 23.0307 40.8578 23.0307C40.9622 23.0307 41.0751 23.011 41.1966 22.9717C41.3181 22.9306 41.4294 22.8715 41.5304 22.7945L41.8718 23.2925C41.7434 23.4004 41.586 23.4876 41.3994 23.5544C41.2129 23.6211 41.0144 23.6545 40.8039 23.6545C40.6139 23.6545 40.4351 23.622 40.2674 23.5569C40.0997 23.4919 39.9525 23.3978 39.8258 23.2746C39.7009 23.1514 39.6016 23.0016 39.5281 22.8253C39.4562 22.6491 39.4202 22.4505 39.4202 22.2298C39.4202 22.0278 39.4519 21.8396 39.5152 21.665C39.5803 21.4905 39.6701 21.339 39.7848 21.2107C39.9011 21.0823 40.0398 20.9822 40.2006 20.9103C40.3615 20.8367 40.5395 20.7999 40.7346 20.7999C40.916 20.7999 41.0845 20.8333 41.2403 20.9001C41.396 20.9651 41.5312 21.0575 41.6459 21.1773C41.7605 21.2954 41.8504 21.4374 41.9154 21.6034C41.9804 21.7694 42.013 21.9525 42.013 22.1528V22.4737H40.157ZM40.732 21.416C40.5797 21.416 40.4505 21.4674 40.3444 21.5701C40.24 21.671 40.1792 21.7934 40.1621 21.9371H41.2711C41.2677 21.7917 41.2146 21.6685 41.1119 21.5675C41.0092 21.4665 40.8826 21.416 40.732 21.416ZM44.2309 23.6031V23.367C44.1932 23.4081 44.1513 23.4466 44.1051 23.4825C44.0606 23.5167 44.0101 23.5467 43.9536 23.5723C43.8989 23.598 43.8381 23.6177 43.7714 23.6314C43.7063 23.6468 43.6336 23.6545 43.5532 23.6545C43.3718 23.6545 43.2058 23.6186 43.0552 23.5467C42.9046 23.4748 42.7754 23.3755 42.6676 23.2489C42.5597 23.1223 42.4759 22.9717 42.416 22.7971C42.3578 22.6225 42.3287 22.4334 42.3287 22.2298C42.3287 22.0261 42.3578 21.837 42.416 21.6625C42.4742 21.4879 42.5555 21.3373 42.6599 21.2107C42.766 21.0823 42.8935 20.9822 43.0423 20.9103C43.1912 20.8367 43.3564 20.7999 43.5378 20.7999C43.6986 20.7999 43.8347 20.8282 43.9459 20.8847C44.0589 20.9394 44.1539 21.0079 44.2309 21.09V19.922H44.9394V23.6031H44.2309ZM44.2514 21.9731C44.2514 21.8995 44.2377 21.831 44.2103 21.7677C44.1847 21.7044 44.147 21.6496 44.0974 21.6034C44.0478 21.5572 43.9879 21.5213 43.9177 21.4956C43.8492 21.4699 43.7714 21.4571 43.6841 21.4571C43.5831 21.4571 43.4933 21.4759 43.4146 21.5136C43.3376 21.5512 43.2725 21.6043 43.2195 21.6727C43.1664 21.7395 43.1262 21.8191 43.0988 21.9115C43.0714 22.0039 43.0577 22.1049 43.0577 22.2144V22.2478C43.0577 22.3573 43.0714 22.4582 43.0988 22.5507C43.1262 22.6414 43.1664 22.7201 43.2195 22.7868C43.2725 22.8536 43.3376 22.9058 43.4146 22.9434C43.4933 22.9794 43.5831 22.9973 43.6841 22.9973C43.7714 22.9973 43.8492 22.9845 43.9177 22.9588C43.9879 22.9332 44.0478 22.8972 44.0974 22.851C44.147 22.8048 44.1847 22.7509 44.2103 22.6893C44.2377 22.626 44.2514 22.5575 44.2514 22.4839V21.9731Z" fill="#0B0C0C"/>
</g>
<defs>
<clipPath id="clip0_59_497">
<rect width="200" height="200" fill="white"/>
</clipPath>
</defs>
</svg>
