<svg width="200" height="200" viewBox="0 0 200 200" fill="none" xmlns="http://www.w3.org/2000/svg">
<g clip-path="url(#clip0_59_494)">
<rect width="200" height="200" fill="#FCFF52"/>
<circle cx="99.8532" cy="99.8531" r="83.4494" fill="#0F385C"/>
<path d="M74.9414 89.71H67.8234V96.5234H64.5521V80.3473H67.8234V86.7546H74.9414V80.3473H78.224V96.5234H74.9414V89.71ZM86.5714 84.2052C87.4664 84.2052 88.2785 84.3669 89.008 84.6902C89.7375 85.0061 90.3617 85.446 90.8806 86.01C91.3995 86.5741 91.798 87.2396 92.0763 88.0067C92.3621 88.7737 92.5049 89.601 92.5049 90.4884C92.5049 91.3833 92.3621 92.2143 92.0763 92.9813C91.7905 93.7409 91.3882 94.3989 90.8693 94.9554C90.3504 95.5119 89.7262 95.9518 88.9967 96.2752C88.2673 96.5911 87.4588 96.749 86.5714 96.749C85.6765 96.749 84.8643 96.5911 84.1349 96.2752C83.4054 95.9518 82.7812 95.5119 82.2623 94.9554C81.7434 94.3989 81.3411 93.7409 81.0553 92.9813C80.7696 92.2143 80.6267 91.3833 80.6267 90.4884C80.6267 89.601 80.7658 88.7737 81.0441 88.0067C81.3298 87.2396 81.7322 86.5741 82.2511 86.01C82.77 85.446 83.3941 85.0061 84.1236 84.6902C84.8606 84.3669 85.6765 84.2052 86.5714 84.2052ZM86.5714 93.8612C87.0151 93.8612 87.4062 93.7785 87.7446 93.613C88.0905 93.4476 88.3801 93.2182 88.6132 92.9249C88.8463 92.6316 89.0231 92.2819 89.1434 91.8759C89.2637 91.4622 89.3239 91.011 89.3239 90.5222V90.4432C89.3239 89.9544 89.2637 89.507 89.1434 89.1009C89.0231 88.6873 88.8463 88.3338 88.6132 88.0405C88.3801 87.7397 88.0905 87.5066 87.7446 87.3411C87.4062 87.1757 87.0151 87.093 86.5714 87.093C86.1278 87.093 85.7329 87.1757 85.387 87.3411C85.0486 87.5066 84.7628 87.7397 84.5297 88.0405C84.2966 88.3338 84.1198 88.6873 83.9995 89.1009C83.8792 89.507 83.819 89.9544 83.819 90.4432V90.5222C83.819 91.011 83.8792 91.4622 83.9995 91.8759C84.1198 92.2819 84.2966 92.6316 84.5297 92.9249C84.7628 93.2182 85.0486 93.4476 85.387 93.613C85.7329 93.7785 86.1278 93.8612 86.5714 93.8612ZM105.523 92.5752L107 84.4421H110.294L107.508 96.5234H103.808L102.003 88.6722L100.085 96.5234H96.4418L93.6443 84.4421H97.0397L98.4723 92.5752L100.57 84.4421H103.548L105.523 92.5752ZM120.21 92.9249C120.21 93.0678 120.228 93.2032 120.266 93.331C120.304 93.4589 120.368 93.5717 120.458 93.6694C120.556 93.7597 120.691 93.8311 120.864 93.8838C121.037 93.9364 121.259 93.9627 121.529 93.9627C121.642 93.9627 121.77 93.959 121.913 93.9514C122.056 93.9364 122.199 93.9214 122.342 93.9063C122.484 93.8913 122.616 93.8725 122.736 93.8499C122.864 93.8274 122.97 93.8086 123.052 93.7935L123.334 96.5459C123.041 96.5835 122.736 96.6174 122.421 96.6475C122.15 96.6775 121.849 96.7001 121.518 96.7151C121.187 96.7377 120.853 96.749 120.514 96.749C119.439 96.749 118.6 96.5046 117.999 96.0158C117.397 95.5269 117.096 94.7486 117.096 93.6807V87.1494H114.919V84.4421H117.096V81.0241L120.21 80.1894V84.4421H123.379V87.1494H120.21V92.9249ZM130.655 84.2052C131.55 84.2052 132.362 84.3669 133.092 84.6902C133.821 85.0061 134.445 85.446 134.964 86.01C135.483 86.5741 135.882 87.2396 136.16 88.0067C136.446 88.7737 136.589 89.601 136.589 90.4884C136.589 91.3833 136.446 92.2143 136.16 92.9813C135.874 93.7409 135.472 94.3989 134.953 94.9554C134.434 95.5119 133.81 95.9518 133.081 96.2752C132.351 96.5911 131.543 96.749 130.655 96.749C129.76 96.749 128.948 96.5911 128.219 96.2752C127.489 95.9518 126.865 95.5119 126.346 94.9554C125.827 94.3989 125.425 93.7409 125.139 92.9813C124.853 92.2143 124.71 91.3833 124.71 90.4884C124.71 89.601 124.85 88.7737 125.128 88.0067C125.414 87.2396 125.816 86.5741 126.335 86.01C126.854 85.446 127.478 85.0061 128.207 84.6902C128.944 84.3669 129.76 84.2052 130.655 84.2052ZM130.655 93.8612C131.099 93.8612 131.49 93.7785 131.828 93.613C132.174 93.4476 132.464 93.2182 132.697 92.9249C132.93 92.6316 133.107 92.2819 133.227 91.8759C133.347 91.4622 133.408 91.011 133.408 90.5222V90.4432C133.408 89.9544 133.347 89.507 133.227 89.1009C133.107 88.6873 132.93 88.3338 132.697 88.0405C132.464 87.7397 132.174 87.5066 131.828 87.3411C131.49 87.1757 131.099 87.093 130.655 87.093C130.212 87.093 129.817 87.1757 129.471 87.3411C129.132 87.5066 128.847 87.7397 128.613 88.0405C128.38 88.3338 128.204 88.6873 128.083 89.1009C127.963 89.507 127.903 89.9544 127.903 90.4432V90.5222C127.903 91.011 127.963 91.4622 128.083 91.8759C128.204 92.2819 128.38 92.6316 128.613 92.9249C128.847 93.2182 129.132 93.4476 129.471 93.613C129.817 93.7785 130.212 93.8612 130.655 93.8612ZM65.071 110.465H64.7439C64.3002 110.465 63.8753 110.51 63.4692 110.601C63.0706 110.691 62.7172 110.856 62.4088 111.097C62.1005 111.33 61.8523 111.653 61.6643 112.067C61.4838 112.481 61.3936 113.011 61.3936 113.658V119.523H58.2802V107.442H61.3936V108.807C61.5214 108.604 61.6869 108.408 61.8899 108.22C62.093 108.032 62.3299 107.867 62.6006 107.724C62.8713 107.574 63.1759 107.453 63.5143 107.363C63.8527 107.273 64.2175 107.228 64.6085 107.228H65.071V110.465ZM69.617 114.56C69.6696 114.921 69.7825 115.252 69.9554 115.553C70.1359 115.853 70.3615 116.113 70.6322 116.331C70.903 116.542 71.2151 116.707 71.5685 116.827C71.922 116.948 72.298 117.008 72.6966 117.008C73.1553 117.008 73.6516 116.921 74.1856 116.748C74.7195 116.568 75.2083 116.308 75.652 115.97L77.1523 118.158C76.5883 118.632 75.8964 119.016 75.0767 119.309C74.257 119.602 73.3847 119.749 72.4597 119.749C71.6249 119.749 70.839 119.606 70.1021 119.32C69.3651 119.035 68.7183 118.621 68.1618 118.079C67.6129 117.538 67.1767 116.88 66.8533 116.105C66.5375 115.331 66.3795 114.458 66.3795 113.488C66.3795 112.601 66.5187 111.774 66.7969 111.007C67.0827 110.24 67.4775 109.574 67.9813 109.01C68.4927 108.446 69.1019 108.006 69.8088 107.69C70.5157 107.367 71.2978 107.205 72.1551 107.205C72.9522 107.205 73.693 107.352 74.3773 107.645C75.0617 107.931 75.6558 108.337 76.1596 108.863C76.6635 109.382 77.0583 110.006 77.3441 110.736C77.6298 111.465 77.7727 112.27 77.7727 113.15V114.56H69.617ZM72.1438 109.912C71.4745 109.912 70.9067 110.138 70.4405 110.589C69.9817 111.033 69.7148 111.571 69.6396 112.202H74.5127C74.4977 111.563 74.2645 111.022 73.8133 110.578C73.3621 110.134 72.8056 109.912 72.1438 109.912ZM87.1016 117.38C86.8234 117.719 86.4323 117.989 85.9285 118.192C85.4321 118.388 84.8907 118.486 84.3041 118.486C83.4919 118.486 82.77 118.343 82.1382 118.057C81.5065 117.771 80.9726 117.38 80.5364 116.884C80.1078 116.38 79.7769 115.786 79.5438 115.101C79.3181 114.417 79.2053 113.665 79.2053 112.845C79.2053 112.048 79.3181 111.304 79.5438 110.612C79.7769 109.912 80.1078 109.315 80.5364 108.818C80.9726 108.314 81.5065 107.92 82.1382 107.634C82.77 107.348 83.4919 107.205 84.3041 107.205C84.8907 107.205 85.4321 107.307 85.9285 107.51C86.4323 107.713 86.8234 107.984 87.1016 108.322V107.442H90.2263V119.411C90.2263 120.148 90.0872 120.779 89.8089 121.306C89.5307 121.84 89.1471 122.276 88.6583 122.614C88.177 122.953 87.6168 123.197 86.9775 123.347C86.3383 123.505 85.6577 123.584 84.9358 123.584C84.0559 123.584 83.1384 123.479 82.1834 123.268C81.2283 123.065 80.4048 122.81 79.713 122.501L80.5928 119.986C80.8034 120.076 81.0629 120.174 81.3712 120.279C81.6795 120.392 82.0104 120.49 82.3639 120.572C82.7173 120.655 83.0858 120.723 83.4693 120.776C83.8604 120.836 84.2402 120.866 84.6087 120.866C84.932 120.866 85.2441 120.832 85.5449 120.764C85.8457 120.704 86.1089 120.599 86.3346 120.448C86.5677 120.305 86.7519 120.114 86.8873 119.873C87.0302 119.64 87.1016 119.339 87.1016 118.971V117.38ZM82.409 112.891C82.409 113.289 82.4503 113.665 82.5331 114.019C82.6233 114.364 82.7624 114.662 82.9504 114.91C83.146 115.15 83.3941 115.342 83.6949 115.485C83.9958 115.62 84.3605 115.688 84.7891 115.688C85.6389 115.688 86.2443 115.421 86.6053 114.887C86.9663 114.346 87.1467 113.68 87.1467 112.891V112.8C87.1467 112.402 87.1054 112.029 87.0227 111.683C86.9399 111.338 86.8046 111.041 86.6166 110.792C86.4286 110.544 86.1842 110.352 85.8833 110.217C85.5901 110.074 85.2253 110.003 84.7891 110.003C83.9469 110.003 83.3377 110.27 82.9617 110.804C82.5932 111.338 82.409 112.003 82.409 112.8V112.891ZM96.0244 119.523H92.911V107.442H96.0244V119.523ZM92.5839 104.272C92.5839 104.017 92.6328 103.776 92.7305 103.55C92.8283 103.317 92.9599 103.118 93.1254 102.952C93.2983 102.78 93.4976 102.644 93.7232 102.546C93.9488 102.449 94.1932 102.4 94.4564 102.4C94.7121 102.4 94.9528 102.449 95.1784 102.546C95.4115 102.644 95.6108 102.78 95.7762 102.952C95.9492 103.118 96.0846 103.317 96.1823 103.55C96.2801 103.776 96.329 104.017 96.329 104.272C96.329 104.535 96.2801 104.78 96.1823 105.006C96.0846 105.231 95.9492 105.43 95.7762 105.603C95.6108 105.769 95.4115 105.9 95.1784 105.998C94.9528 106.096 94.7121 106.145 94.4564 106.145C94.1932 106.145 93.9488 106.096 93.7232 105.998C93.4976 105.9 93.2983 105.769 93.1254 105.603C92.9599 105.43 92.8283 105.231 92.7305 105.006C92.6328 104.78 92.5839 104.535 92.5839 104.272ZM99.5665 115.665C100.01 116.064 100.54 116.406 101.157 116.692C101.774 116.978 102.398 117.121 103.03 117.121C103.488 117.121 103.849 117.034 104.112 116.861C104.376 116.681 104.507 116.451 104.507 116.173C104.507 115.699 104 115.331 102.984 115.068L102.105 114.831C101.668 114.725 101.228 114.583 100.785 114.402C100.341 114.214 99.9312 113.97 99.5552 113.669C99.1867 113.368 98.8859 113.003 98.6528 112.575C98.4271 112.138 98.3143 111.605 98.3143 110.973C98.3143 110.469 98.4234 109.991 98.6415 109.54C98.8671 109.081 99.1829 108.679 99.589 108.333C100.003 107.987 100.503 107.713 101.089 107.51C101.676 107.307 102.33 107.205 103.052 107.205C104.082 107.205 105 107.367 105.805 107.69C106.617 108.014 107.256 108.378 107.722 108.784L106.098 110.86C105.714 110.582 105.259 110.345 104.733 110.149C104.214 109.946 103.691 109.845 103.165 109.845C102.676 109.845 102.296 109.935 102.026 110.116C101.755 110.288 101.619 110.499 101.619 110.747C101.619 111.01 101.736 111.225 101.969 111.39C102.21 111.548 102.556 111.687 103.007 111.808L104.316 112.18C105.564 112.533 106.459 113.011 107 113.612C107.542 114.214 107.812 114.974 107.812 115.891C107.812 116.402 107.707 116.891 107.497 117.358C107.286 117.816 106.978 118.226 106.572 118.587C106.165 118.948 105.662 119.234 105.06 119.444C104.458 119.647 103.774 119.749 103.007 119.749C102.42 119.749 101.868 119.696 101.349 119.591C100.837 119.486 100.36 119.343 99.9162 119.162C99.48 118.974 99.0852 118.764 98.7317 118.531C98.3783 118.298 98.0775 118.064 97.8293 117.831L99.5665 115.665ZM114.287 115.925C114.287 116.068 114.306 116.203 114.344 116.331C114.381 116.459 114.445 116.572 114.536 116.669C114.633 116.76 114.769 116.831 114.942 116.884C115.115 116.936 115.336 116.963 115.607 116.963C115.72 116.963 115.848 116.959 115.991 116.951C116.134 116.936 116.276 116.921 116.419 116.906C116.562 116.891 116.694 116.872 116.814 116.85C116.942 116.827 117.047 116.809 117.13 116.794L117.412 119.546C117.119 119.584 116.814 119.617 116.498 119.647C116.228 119.678 115.927 119.7 115.596 119.715C115.265 119.738 114.93 119.749 114.592 119.749C113.517 119.749 112.678 119.505 112.076 119.016C111.475 118.527 111.174 117.749 111.174 116.681V110.149H108.997V107.442H111.174V104.024L114.287 103.189V107.442H117.457V110.149H114.287V115.925ZM122.026 114.56C122.078 114.921 122.191 115.252 122.364 115.553C122.545 115.853 122.77 116.113 123.041 116.331C123.312 116.542 123.624 116.707 123.977 116.827C124.331 116.948 124.707 117.008 125.105 117.008C125.564 117.008 126.06 116.921 126.594 116.748C127.128 116.568 127.617 116.308 128.061 115.97L129.561 118.158C128.997 118.632 128.305 119.016 127.485 119.309C126.666 119.602 125.793 119.749 124.868 119.749C124.034 119.749 123.248 119.606 122.511 119.32C121.774 119.035 121.127 118.621 120.571 118.079C120.022 117.538 119.585 116.88 119.262 116.105C118.946 115.331 118.788 114.458 118.788 113.488C118.788 112.601 118.927 111.774 119.206 111.007C119.491 110.24 119.886 109.574 120.39 109.01C120.901 108.446 121.511 108.006 122.217 107.69C122.924 107.367 123.707 107.205 124.564 107.205C125.361 107.205 126.102 107.352 126.786 107.645C127.47 107.931 128.065 108.337 128.568 108.863C129.072 109.382 129.467 110.006 129.753 110.736C130.039 111.465 130.181 112.27 130.181 113.15V114.56H122.026ZM124.553 109.912C123.883 109.912 123.315 110.138 122.849 110.589C122.39 111.033 122.123 111.571 122.048 112.202H126.921C126.906 111.563 126.673 111.022 126.222 110.578C125.771 110.134 125.214 109.912 124.553 109.912ZM138.958 110.465H138.63C138.187 110.465 137.762 110.51 137.356 110.601C136.957 110.691 136.604 110.856 136.295 111.097C135.987 111.33 135.739 111.653 135.551 112.067C135.37 112.481 135.28 113.011 135.28 113.658V119.523H132.167V107.442H135.28V108.807C135.408 108.604 135.573 108.408 135.777 108.22C135.98 108.032 136.216 107.867 136.487 107.724C136.758 107.574 137.063 107.453 137.401 107.363C137.739 107.273 138.104 107.228 138.495 107.228H138.958V110.465ZM68.9515 138.925C68.9515 139.068 68.9703 139.203 69.0079 139.331C69.0455 139.459 69.1094 139.572 69.1996 139.669C69.2974 139.76 69.4328 139.831 69.6057 139.884C69.7787 139.936 70.0005 139.963 70.2713 139.963C70.3841 139.963 70.5119 139.959 70.6548 139.951C70.7977 139.936 70.9406 139.921 71.0835 139.906C71.2263 139.891 71.3579 139.872 71.4783 139.85C71.6061 139.827 71.7114 139.809 71.7941 139.794L72.0761 142.546C71.7828 142.584 71.4783 142.617 71.1624 142.647C70.8917 142.678 70.5909 142.7 70.26 142.715C69.9291 142.738 69.5944 142.749 69.256 142.749C68.1806 142.749 67.3421 142.505 66.7405 142.016C66.1389 141.527 65.8381 140.749 65.8381 139.681V133.149H63.661V130.442H65.8381V127.024L68.9515 126.189V130.442H72.1213V133.149H68.9515V138.925ZM79.3971 130.205C80.292 130.205 81.1042 130.367 81.8337 130.69C82.5631 131.006 83.1873 131.446 83.7062 132.01C84.2251 132.574 84.6237 133.24 84.9019 134.007C85.1877 134.774 85.3306 135.601 85.3306 136.488C85.3306 137.383 85.1877 138.214 84.9019 138.981C84.6162 139.741 84.2138 140.399 83.6949 140.955C83.176 141.512 82.5519 141.952 81.8224 142.275C81.0929 142.591 80.2845 142.749 79.3971 142.749C78.5022 142.749 77.69 142.591 76.9605 142.275C76.2311 141.952 75.6069 141.512 75.088 140.955C74.5691 140.399 74.1668 139.741 73.881 138.981C73.5952 138.214 73.4523 137.383 73.4523 136.488C73.4523 135.601 73.5915 134.774 73.8697 134.007C74.1555 133.24 74.5578 132.574 75.0767 132.01C75.5956 131.446 76.2198 131.006 76.9493 130.69C77.6863 130.367 78.5022 130.205 79.3971 130.205ZM79.3971 139.861C79.8408 139.861 80.2319 139.778 80.5703 139.613C80.9162 139.448 81.2057 139.218 81.4389 138.925C81.672 138.632 81.8487 138.282 81.969 137.876C82.0894 137.462 82.1495 137.011 82.1495 136.522V136.443C82.1495 135.954 82.0894 135.507 81.969 135.101C81.8487 134.687 81.672 134.334 81.4389 134.041C81.2057 133.74 80.9162 133.507 80.5703 133.341C80.2319 133.176 79.8408 133.093 79.3971 133.093C78.9534 133.093 78.5586 133.176 78.2127 133.341C77.8743 133.507 77.5885 133.74 77.3554 134.041C77.1222 134.334 76.9455 134.687 76.8252 135.101C76.7049 135.507 76.6447 135.954 76.6447 136.443V136.522C76.6447 137.011 76.7049 137.462 76.8252 137.876C76.9455 138.282 77.1222 138.632 77.3554 138.925C77.5885 139.218 77.8743 139.448 78.2127 139.613C78.5586 139.778 78.9534 139.861 79.3971 139.861ZM93.5879 142.523L89.8879 130.442H93.3622L95.5281 138.756L97.7503 130.442H101.168L97.4909 142.523H93.5879ZM108.027 130.205C108.922 130.205 109.734 130.367 110.463 130.69C111.193 131.006 111.817 131.446 112.336 132.01C112.855 132.574 113.253 133.24 113.532 134.007C113.817 134.774 113.96 135.601 113.96 136.488C113.96 137.383 113.817 138.214 113.532 138.981C113.246 139.741 112.843 140.399 112.325 140.955C111.806 141.512 111.182 141.952 110.452 142.275C109.723 142.591 108.914 142.749 108.027 142.749C107.132 142.749 106.32 142.591 105.59 142.275C104.861 141.952 104.237 141.512 103.718 140.955C103.199 140.399 102.796 139.741 102.511 138.981C102.225 138.214 102.082 137.383 102.082 136.488C102.082 135.601 102.221 134.774 102.499 134.007C102.785 133.24 103.187 132.574 103.706 132.01C104.225 131.446 104.849 131.006 105.579 130.69C106.316 130.367 107.132 130.205 108.027 130.205ZM108.027 139.861C108.47 139.861 108.862 139.778 109.2 139.613C109.546 139.448 109.835 139.218 110.069 138.925C110.302 138.632 110.478 138.282 110.599 137.876C110.719 137.462 110.779 137.011 110.779 136.522V136.443C110.779 135.954 110.719 135.507 110.599 135.101C110.478 134.687 110.302 134.334 110.069 134.041C109.835 133.74 109.546 133.507 109.2 133.341C108.862 133.176 108.47 133.093 108.027 133.093C107.583 133.093 107.188 133.176 106.842 133.341C106.504 133.507 106.218 133.74 105.985 134.041C105.752 134.334 105.575 134.687 105.455 135.101C105.335 135.507 105.274 135.954 105.274 136.443V136.522C105.274 137.011 105.335 137.462 105.455 137.876C105.575 138.282 105.752 138.632 105.985 138.925C106.218 139.218 106.504 139.448 106.842 139.613C107.188 139.778 107.583 139.861 108.027 139.861ZM120.48 138.925C120.48 139.068 120.499 139.203 120.537 139.331C120.574 139.459 120.638 139.572 120.728 139.669C120.826 139.76 120.962 139.831 121.135 139.884C121.308 139.936 121.529 139.963 121.8 139.963C121.913 139.963 122.041 139.959 122.184 139.951C122.327 139.936 122.469 139.921 122.612 139.906C122.755 139.891 122.887 139.872 123.007 139.85C123.135 139.827 123.24 139.809 123.323 139.794L123.605 142.546C123.312 142.584 123.007 142.617 122.691 142.647C122.421 142.678 122.12 142.7 121.789 142.715C121.458 142.738 121.123 142.749 120.785 142.749C119.709 142.749 118.871 142.505 118.269 142.016C117.668 141.527 117.367 140.749 117.367 139.681V133.149H115.19V130.442H117.367V127.024L120.48 126.189V130.442H123.65V133.149H120.48V138.925ZM128.219 137.56C128.271 137.921 128.384 138.252 128.557 138.553C128.738 138.853 128.963 139.113 129.234 139.331C129.505 139.542 129.817 139.707 130.17 139.827C130.524 139.948 130.9 140.008 131.298 140.008C131.757 140.008 132.253 139.921 132.787 139.748C133.321 139.568 133.81 139.308 134.254 138.97L135.754 141.158C135.19 141.632 134.498 142.016 133.678 142.309C132.859 142.602 131.986 142.749 131.061 142.749C130.227 142.749 129.441 142.606 128.704 142.32C127.967 142.035 127.32 141.621 126.764 141.079C126.215 140.538 125.778 139.88 125.455 139.105C125.139 138.331 124.981 137.458 124.981 136.488C124.981 135.601 125.12 134.774 125.399 134.007C125.684 133.24 126.079 132.574 126.583 132.01C127.094 131.446 127.704 131.006 128.41 130.69C129.117 130.367 129.899 130.205 130.757 130.205C131.554 130.205 132.295 130.352 132.979 130.645C133.663 130.931 134.257 131.337 134.761 131.863C135.265 132.382 135.66 133.006 135.946 133.736C136.232 134.465 136.374 135.27 136.374 136.15V137.56H128.219ZM130.745 132.912C130.076 132.912 129.508 133.138 129.042 133.589C128.583 134.033 128.316 134.571 128.241 135.202H133.114C133.099 134.563 132.866 134.022 132.415 133.578C131.964 133.134 131.407 132.912 130.745 132.912Z" fill="white"/>
<path d="M70.0061 54.4978C70.1091 54.6154 70.2341 54.7312 70.3811 54.8452C70.5282 54.9592 70.69 55.0621 70.8665 55.1541C71.0466 55.2423 71.2415 55.314 71.451 55.3691C71.6606 55.4206 71.8867 55.4463 72.1294 55.4463C72.5816 55.4463 72.9272 55.3526 73.1662 55.1651C73.4088 54.9739 73.5301 54.7423 73.5301 54.4702C73.5301 54.1871 73.4235 53.972 73.2103 53.825C73.0007 53.6779 72.6661 53.5621 72.2066 53.4775L71.9584 53.4334C71.6275 53.3746 71.2985 53.2974 70.9712 53.2018C70.644 53.1062 70.3481 52.9683 70.0833 52.7882C69.8186 52.608 69.6036 52.3782 69.4381 52.0988C69.2727 51.8157 69.1899 51.4591 69.1899 51.0289C69.1899 50.7789 69.2451 50.5179 69.3554 50.2458C69.4657 49.9701 69.6403 49.7182 69.8793 49.4903C70.122 49.2587 70.4326 49.0693 70.8113 48.9223C71.1937 48.7752 71.6551 48.7017 72.1955 48.7017C72.8353 48.7017 73.4051 48.8083 73.9051 49.0215C74.4088 49.2311 74.8151 49.5087 75.1239 49.8543L74.0596 50.8469C73.8426 50.608 73.5632 50.4205 73.2213 50.2844C72.8831 50.1484 72.5338 50.0804 72.1735 50.0804C71.758 50.0804 71.4326 50.1594 71.1973 50.3175C70.9657 50.4756 70.8499 50.6815 70.8499 50.9352C70.8499 51.1006 70.8867 51.2385 70.9602 51.3488C71.0374 51.4591 71.144 51.551 71.2801 51.6245C71.4161 51.6944 71.5797 51.7532 71.7709 51.801C71.9621 51.8488 72.1753 51.8966 72.4106 51.9444L72.5375 51.9665C72.8536 52.0253 73.168 52.1007 73.4805 52.1926C73.793 52.2808 74.0761 52.4132 74.3298 52.5896C74.5871 52.7624 74.7949 52.9904 74.953 53.2735C75.1111 53.5529 75.1901 53.9114 75.1901 54.3489C75.1901 54.746 75.1074 55.0971 74.9419 55.4022C74.7765 55.7074 74.5577 55.9684 74.2857 56.1853C74.0136 56.3986 73.6993 56.5603 73.3426 56.6706C72.986 56.7773 72.6147 56.8306 72.2286 56.8306C71.8389 56.8306 71.4768 56.7975 71.1422 56.7313C70.8113 56.6651 70.5098 56.5714 70.2378 56.45C69.9694 56.3287 69.7286 56.1927 69.5153 56.0419C69.3058 55.8912 69.1219 55.7294 68.9638 55.5566L70.0061 54.4978ZM78.5542 54.961C78.5542 55.0309 78.5634 55.0971 78.5817 55.1596C78.6001 55.2221 78.6314 55.2772 78.6755 55.325C78.7233 55.3691 78.7895 55.4041 78.874 55.4298C78.9586 55.4555 79.0671 55.4684 79.1994 55.4684C79.2546 55.4684 79.3171 55.4666 79.3869 55.4629C79.4568 55.4555 79.5266 55.4482 79.5965 55.4408C79.6663 55.4335 79.7307 55.4243 79.7895 55.4133C79.852 55.4022 79.9035 55.393 79.9439 55.3857L80.0818 56.7313C79.9384 56.7497 79.7895 56.7662 79.6351 56.7809C79.5027 56.7956 79.3557 56.8067 79.1939 56.814C79.0321 56.8251 78.8685 56.8306 78.7031 56.8306C78.1773 56.8306 77.7674 56.7111 77.4733 56.4721C77.1791 56.2331 77.0321 55.8526 77.0321 55.3305V52.1374H75.9677V50.8139H77.0321V49.1429L78.5542 48.7348V50.8139H80.1038V52.1374H78.5542V54.961ZM82.3374 54.2937C82.3631 54.4702 82.4183 54.632 82.5028 54.779C82.5911 54.9261 82.7013 55.0529 82.8337 55.1596C82.9661 55.2625 83.1186 55.3434 83.2914 55.4022C83.4642 55.461 83.6481 55.4905 83.8429 55.4905C84.0672 55.4905 84.3098 55.4482 84.5709 55.3636C84.8319 55.2754 85.0709 55.1485 85.2878 54.9831L86.0213 56.053C85.7456 56.2846 85.4073 56.4721 85.0066 56.6155C84.6058 56.7589 84.1793 56.8306 83.7271 56.8306C83.319 56.8306 82.9348 56.7607 82.5745 56.621C82.2142 56.4813 81.898 56.2791 81.6259 56.0144C81.3576 55.7497 81.1443 55.428 80.9862 55.0493C80.8318 54.6706 80.7546 54.2441 80.7546 53.7698C80.7546 53.336 80.8226 52.9316 80.9587 52.5566C81.0984 52.1815 81.2914 51.8562 81.5377 51.5804C81.7877 51.3047 82.0855 51.0896 82.4311 50.9352C82.7767 50.7771 83.1591 50.698 83.5782 50.698C83.9679 50.698 84.3301 50.7697 84.6646 50.9131C84.9992 51.0528 85.2897 51.2514 85.536 51.5087C85.7823 51.7624 85.9753 52.0676 86.115 52.4242C86.2548 52.7808 86.3246 53.1742 86.3246 53.6044V54.2937H82.3374ZM83.5727 52.0216C83.2455 52.0216 82.9679 52.1319 82.74 52.3525C82.5157 52.5694 82.3852 52.8323 82.3484 53.1411H84.7308C84.7235 52.8286 84.6095 52.5639 84.3889 52.347C84.1683 52.1301 83.8962 52.0216 83.5727 52.0216ZM88.8173 58.5843H87.2952V50.8139H88.8173V51.3212C88.9828 51.1484 89.1868 51.0014 89.4295 50.88C89.6721 50.7587 89.9663 50.698 90.3119 50.698C90.7016 50.698 91.0545 50.7771 91.3707 50.9352C91.6906 51.0896 91.9645 51.3047 92.1924 51.5804C92.4204 51.8525 92.5968 52.176 92.7218 52.551C92.8469 52.9261 92.9094 53.3323 92.9094 53.7698C92.9094 54.2073 92.845 54.6136 92.7163 54.9886C92.5877 55.3636 92.4075 55.6872 92.1759 55.9592C91.9443 56.2313 91.6667 56.4445 91.3431 56.5989C91.0196 56.7534 90.663 56.8306 90.2733 56.8306C90.1005 56.8306 89.9424 56.814 89.799 56.7809C89.6593 56.7515 89.5306 56.7092 89.4129 56.6541C89.2953 56.5989 89.1868 56.5346 89.0876 56.4611C88.9883 56.3839 88.8982 56.3011 88.8173 56.2129V58.5843ZM88.7732 54.3158C88.7732 54.4739 88.8008 54.621 88.8559 54.757C88.9148 54.8893 88.9975 55.0052 89.1041 55.1044C89.2107 55.2037 89.3376 55.2809 89.4846 55.336C89.6354 55.3912 89.8045 55.4188 89.992 55.4188C90.2089 55.4188 90.4001 55.3802 90.5655 55.303C90.7347 55.2221 90.8762 55.1099 90.9902 54.9666C91.1042 54.8232 91.1906 54.654 91.2494 54.4592C91.3082 54.2606 91.3376 54.0437 91.3376 53.8084V53.7367C91.3376 53.5014 91.3082 53.2845 91.2494 53.086C91.1906 52.8874 91.1042 52.7165 90.9902 52.5731C90.8762 52.426 90.7347 52.3121 90.5655 52.2312C90.4001 52.1503 90.2089 52.1099 89.992 52.1099C89.8045 52.1099 89.6354 52.1374 89.4846 52.1926C89.3376 52.2477 89.2107 52.3249 89.1041 52.4242C88.9975 52.5235 88.9148 52.6411 88.8559 52.7772C88.8008 52.9132 88.7732 53.0602 88.7732 53.2183V54.3158ZM101.579 53.7698C101.579 54.2073 101.514 54.6136 101.386 54.9886C101.257 55.3636 101.077 55.6872 100.845 55.9592C100.614 56.2313 100.336 56.4445 100.012 56.5989C99.689 56.7534 99.3323 56.8306 98.9426 56.8306C98.7698 56.8306 98.6117 56.814 98.4683 56.7809C98.3286 56.7515 98.1999 56.7092 98.0823 56.6541C97.9646 56.5989 97.8562 56.5346 97.7569 56.4611C97.6576 56.3839 97.5676 56.3011 97.4867 56.2129V56.7203H95.9646V48.812H97.4867V51.3212C97.6521 51.1484 97.8562 51.0014 98.0988 50.88C98.3415 50.7587 98.6356 50.698 98.9812 50.698C99.3709 50.698 99.7239 50.7771 100.04 50.9352C100.36 51.0896 100.634 51.3047 100.862 51.5804C101.09 51.8525 101.266 52.176 101.391 52.551C101.516 52.9261 101.579 53.3323 101.579 53.7698ZM97.4426 54.3158C97.4426 54.4739 97.4701 54.621 97.5253 54.757C97.5841 54.8893 97.6668 55.0052 97.7735 55.1044C97.8801 55.2037 98.0069 55.2809 98.154 55.336C98.3047 55.3912 98.4738 55.4188 98.6614 55.4188C98.8783 55.4188 99.0695 55.3802 99.2349 55.303C99.404 55.2221 99.5456 55.1099 99.6595 54.9666C99.7735 54.8232 99.8599 54.654 99.9187 54.4592C99.9776 54.2606 100.007 54.0437 100.007 53.8084V53.7367C100.007 53.5014 99.9776 53.2845 99.9187 53.086C99.8599 52.8874 99.7735 52.7165 99.6595 52.5731C99.5456 52.426 99.404 52.3121 99.2349 52.2312C99.0695 52.1503 98.8783 52.1099 98.6614 52.1099C98.4738 52.1099 98.3047 52.1374 98.154 52.1926C98.0069 52.2477 97.8801 52.3249 97.7735 52.4242C97.6668 52.5235 97.5841 52.6411 97.5253 52.7772C97.4701 52.9132 97.4426 53.0602 97.4426 53.2183V54.3158ZM103.404 57.4096C103.577 57.4096 103.704 57.3784 103.785 57.3159C103.869 57.2534 103.935 57.1523 103.983 57.0126L104.038 56.8306L101.992 50.8139H103.685L104.86 54.8893L105.836 50.8139H107.507L105.516 57.4538C105.45 57.6743 105.358 57.8637 105.241 58.0218C105.123 58.1799 104.983 58.3086 104.821 58.4078C104.66 58.5108 104.48 58.5861 104.281 58.6339C104.086 58.6817 103.877 58.7056 103.652 58.7056C103.56 58.7056 103.454 58.7019 103.332 58.6946C103.215 58.6872 103.092 58.6762 102.963 58.6615C102.838 58.6505 102.713 58.6358 102.588 58.6174C102.467 58.599 102.354 58.5769 102.252 58.5512L102.538 57.3049C102.627 57.3269 102.718 57.3453 102.814 57.36C102.899 57.3747 102.991 57.3857 103.09 57.3931C103.193 57.4041 103.298 57.4096 103.404 57.4096ZM110.436 54.8342C110.652 55.0291 110.912 55.1963 111.213 55.336C111.515 55.4758 111.82 55.5456 112.129 55.5456C112.353 55.5456 112.529 55.5033 112.658 55.4188C112.787 55.3305 112.851 55.2184 112.851 55.0824C112.851 54.8507 112.603 54.6706 112.107 54.5419L111.676 54.4261C111.463 54.3746 111.248 54.3048 111.031 54.2165C110.814 54.1246 110.614 54.0051 110.43 53.8581C110.25 53.711 110.103 53.5327 109.989 53.3231C109.879 53.1099 109.823 52.8488 109.823 52.54C109.823 52.2937 109.877 52.0602 109.983 51.8396C110.094 51.6154 110.248 51.4187 110.447 51.2495C110.649 51.0804 110.893 50.9462 111.18 50.8469C111.467 50.7477 111.787 50.698 112.14 50.698C112.643 50.698 113.092 50.7771 113.485 50.9352C113.882 51.0933 114.195 51.2716 114.423 51.4701L113.629 52.4849C113.441 52.3488 113.219 52.233 112.961 52.1374C112.708 52.0382 112.452 51.9885 112.195 51.9885C111.956 51.9885 111.77 52.0326 111.638 52.1209C111.505 52.2054 111.439 52.3084 111.439 52.4297C111.439 52.5584 111.496 52.6632 111.61 52.7441C111.728 52.8213 111.897 52.8893 112.118 52.9481L112.757 53.1301C113.368 53.3029 113.805 53.5364 114.07 53.8305C114.335 54.1246 114.467 54.4959 114.467 54.9445C114.467 55.1945 114.415 55.4335 114.313 55.6614C114.21 55.8857 114.059 56.0861 113.86 56.2625C113.662 56.439 113.415 56.5787 113.121 56.6817C112.827 56.7809 112.493 56.8306 112.118 56.8306C111.831 56.8306 111.561 56.8048 111.307 56.7534C111.057 56.7019 110.823 56.632 110.607 56.5438C110.393 56.4519 110.2 56.3489 110.027 56.235C109.855 56.121 109.708 56.007 109.586 55.893L110.436 54.8342ZM117.632 54.961C117.632 55.0309 117.642 55.0971 117.66 55.1596C117.678 55.2221 117.71 55.2772 117.754 55.325C117.802 55.3691 117.868 55.4041 117.952 55.4298C118.037 55.4555 118.145 55.4684 118.278 55.4684C118.333 55.4684 118.395 55.4666 118.465 55.4629C118.535 55.4555 118.605 55.4482 118.675 55.4408C118.745 55.4335 118.809 55.4243 118.868 55.4133C118.93 55.4022 118.982 55.393 119.022 55.3857L119.16 56.7313C119.017 56.7497 118.868 56.7662 118.713 56.7809C118.581 56.7956 118.434 56.8067 118.272 56.814C118.11 56.8251 117.947 56.8306 117.781 56.8306C117.256 56.8306 116.846 56.7111 116.552 56.4721C116.257 56.2331 116.11 55.8526 116.11 55.3305V52.1374H115.046V50.8139H116.11V49.1429L117.632 48.7348V50.8139H119.182V52.1374H117.632V54.961ZM121.416 54.2937C121.441 54.4702 121.497 54.632 121.581 54.779C121.669 54.9261 121.78 55.0529 121.912 55.1596C122.044 55.2625 122.197 55.3434 122.37 55.4022C122.543 55.461 122.726 55.4905 122.921 55.4905C123.145 55.4905 123.388 55.4482 123.649 55.3636C123.91 55.2754 124.149 55.1485 124.366 54.9831L125.1 56.053C124.824 56.2846 124.486 56.4721 124.085 56.6155C123.684 56.7589 123.258 56.8306 122.805 56.8306C122.397 56.8306 122.013 56.7607 121.653 56.621C121.293 56.4813 120.976 56.2791 120.704 56.0144C120.436 55.7497 120.223 55.428 120.065 55.0493C119.91 54.6706 119.833 54.2441 119.833 53.7698C119.833 53.336 119.901 52.9316 120.037 52.5566C120.177 52.1815 120.37 51.8562 120.616 51.5804C120.866 51.3047 121.164 51.0896 121.509 50.9352C121.855 50.7771 122.237 50.698 122.657 50.698C123.046 50.698 123.408 50.7697 123.743 50.9131C124.078 51.0528 124.368 51.2514 124.614 51.5087C124.861 51.7624 125.054 52.0676 125.193 52.4242C125.333 52.7808 125.403 53.1742 125.403 53.6044V54.2937H121.416ZM122.651 52.0216C122.324 52.0216 122.046 52.1319 121.818 52.3525C121.594 52.5694 121.463 52.8323 121.427 53.1411H123.809C123.802 52.8286 123.688 52.5639 123.467 52.347C123.247 52.1301 122.975 52.0216 122.651 52.0216ZM127.896 58.5843H126.374V50.8139H127.896V51.3212C128.061 51.1484 128.265 51.0014 128.508 50.88C128.75 50.7587 129.045 50.698 129.39 50.698C129.78 50.698 130.133 50.7771 130.449 50.9352C130.769 51.0896 131.043 51.3047 131.271 51.5804C131.499 51.8525 131.675 52.176 131.8 52.551C131.925 52.9261 131.988 53.3323 131.988 53.7698C131.988 54.2073 131.923 54.6136 131.795 54.9886C131.666 55.3636 131.486 55.6872 131.254 55.9592C131.023 56.2313 130.745 56.4445 130.421 56.5989C130.098 56.7534 129.741 56.8306 129.352 56.8306C129.179 56.8306 129.021 56.814 128.877 56.7809C128.738 56.7515 128.609 56.7092 128.491 56.6541C128.374 56.5989 128.265 56.5346 128.166 56.4611C128.067 56.3839 127.977 56.3011 127.896 56.2129V58.5843ZM127.852 54.3158C127.852 54.4739 127.879 54.621 127.934 54.757C127.993 54.8893 128.076 55.0052 128.182 55.1044C128.289 55.2037 128.416 55.2809 128.563 55.336C128.714 55.3912 128.883 55.4188 129.07 55.4188C129.287 55.4188 129.478 55.3802 129.644 55.303C129.813 55.2221 129.955 55.1099 130.068 54.9666C130.182 54.8232 130.269 54.654 130.328 54.4592C130.387 54.2606 130.416 54.0437 130.416 53.8084V53.7367C130.416 53.5014 130.387 53.2845 130.328 53.086C130.269 52.8874 130.182 52.7165 130.068 52.5731C129.955 52.426 129.813 52.3121 129.644 52.2312C129.478 52.1503 129.287 52.1099 129.07 52.1099C128.883 52.1099 128.714 52.1374 128.563 52.1926C128.416 52.2477 128.289 52.3249 128.182 52.4242C128.076 52.5235 127.993 52.6411 127.934 52.7772C127.879 52.9132 127.852 53.0602 127.852 53.2183V54.3158ZM90.5104 66.6725C90.3744 66.8379 90.1832 66.9703 89.9368 67.0695C89.6942 67.1651 89.4295 67.2129 89.1427 67.2129C88.7456 67.2129 88.3927 67.1431 88.0839 67.0033C87.775 66.8636 87.514 66.6725 87.3007 66.4298C87.0912 66.1835 86.9294 65.893 86.8154 65.5585C86.7051 65.2239 86.65 64.8562 86.65 64.4555C86.65 64.0658 86.7051 63.7018 86.8154 63.3635C86.9294 63.0216 87.0912 62.7293 87.3007 62.4867C87.514 62.2403 87.775 62.0473 88.0839 61.9076C88.3927 61.7679 88.7456 61.698 89.1427 61.698C89.4295 61.698 89.6942 61.7477 89.9368 61.8469C90.1832 61.9462 90.3744 62.0786 90.5104 62.244V61.8139H92.038V67.6651C92.038 68.0254 91.97 68.3343 91.834 68.5916C91.6979 68.8527 91.5104 69.0659 91.2714 69.2313C91.0361 69.3968 90.7622 69.5163 90.4497 69.5898C90.1372 69.667 89.8045 69.7056 89.4515 69.7056C89.0214 69.7056 88.5728 69.6542 88.1059 69.5512C87.639 69.4519 87.2364 69.3269 86.8982 69.1762L87.3283 67.9464C87.4313 67.9905 87.5581 68.0383 87.7088 68.0898C87.8596 68.1449 88.0213 68.1927 88.1941 68.2332C88.3669 68.2736 88.5471 68.3067 88.7346 68.3324C88.9258 68.3618 89.1115 68.3765 89.2916 68.3765C89.4497 68.3765 89.6023 68.36 89.7493 68.3269C89.8964 68.2975 90.0251 68.246 90.1354 68.1725C90.2494 68.1026 90.3394 68.0089 90.4056 67.8912C90.4755 67.7773 90.5104 67.6302 90.5104 67.45V66.6725ZM88.2162 64.4775C88.2162 64.6724 88.2364 64.8562 88.2769 65.029C88.321 65.1981 88.389 65.3434 88.4809 65.4647C88.5765 65.5823 88.6978 65.6761 88.8449 65.746C88.992 65.8121 89.1703 65.8452 89.3798 65.8452C89.7953 65.8452 90.0913 65.7147 90.2677 65.4537C90.4442 65.189 90.5324 64.8636 90.5324 64.4775V64.4334C90.5324 64.2386 90.5122 64.0566 90.4718 63.8874C90.4313 63.7183 90.3652 63.5731 90.2733 63.4518C90.1813 63.3304 90.0618 63.2367 89.9148 63.1705C89.7714 63.1007 89.5931 63.0657 89.3798 63.0657C88.9681 63.0657 88.6703 63.1963 88.4864 63.4573C88.3063 63.7183 88.2162 64.0437 88.2162 64.4334V64.4775ZM98.3746 67.7203H96.8525V67.2129C96.7679 67.2938 96.676 67.3728 96.5767 67.45C96.4775 67.5236 96.3672 67.5898 96.2458 67.6486C96.1245 67.7037 95.9885 67.7479 95.8377 67.7809C95.6907 67.814 95.5271 67.8306 95.3469 67.8306C95.0271 67.8306 94.7403 67.7791 94.4866 67.6762C94.2329 67.5695 94.0178 67.4261 93.8414 67.246C93.6686 67.0622 93.5362 66.8471 93.4443 66.6008C93.3524 66.3544 93.3064 66.0879 93.3064 65.8011V61.8139H94.8285V65.2441C94.8285 65.4537 94.8506 65.632 94.8947 65.779C94.9425 65.9261 95.0068 66.0456 95.0877 66.1375C95.1723 66.2257 95.2716 66.2919 95.3855 66.336C95.4995 66.3765 95.6227 66.3967 95.755 66.3967C95.9094 66.3967 96.0528 66.3691 96.1852 66.314C96.3212 66.2588 96.4389 66.1761 96.5381 66.0658C96.6374 65.9518 96.7146 65.8103 96.7698 65.6412C96.8249 65.4721 96.8525 65.2735 96.8525 65.0456V61.8139H98.3746V67.7203ZM101.215 67.7203H99.6926V61.8139H101.215V67.7203ZM99.5327 60.2642C99.5327 60.1392 99.5566 60.0215 99.6044 59.9112C99.6522 59.7973 99.7165 59.6998 99.7974 59.6189C99.882 59.5344 99.9794 59.4682 100.09 59.4204C100.2 59.3726 100.319 59.3487 100.448 59.3487C100.573 59.3487 100.691 59.3726 100.801 59.4204C100.915 59.4682 101.013 59.5344 101.093 59.6189C101.178 59.6998 101.244 59.7973 101.292 59.9112C101.34 60.0215 101.364 60.1392 101.364 60.2642C101.364 60.3929 101.34 60.5124 101.292 60.6227C101.244 60.7329 101.178 60.8304 101.093 60.9149C101.013 60.9958 100.915 61.0602 100.801 61.108C100.691 61.1558 100.573 61.1797 100.448 61.1797C100.319 61.1797 100.2 61.1558 100.09 61.108C99.9794 61.0602 99.882 60.9958 99.7974 60.9149C99.7165 60.8304 99.6522 60.7329 99.6044 60.6227C99.5566 60.5124 99.5327 60.3929 99.5327 60.2642ZM106.321 67.7203V67.2129C106.241 67.3011 106.151 67.3839 106.051 67.4611C105.956 67.5346 105.847 67.5989 105.726 67.6541C105.608 67.7092 105.478 67.7515 105.334 67.7809C105.195 67.814 105.038 67.8306 104.866 67.8306C104.476 67.8306 104.119 67.7534 103.796 67.5989C103.472 67.4445 103.195 67.2313 102.963 66.9592C102.731 66.6872 102.551 66.3636 102.422 65.9886C102.297 65.6136 102.235 65.2073 102.235 64.7698C102.235 64.3323 102.297 63.9261 102.422 63.551C102.547 63.176 102.722 62.8525 102.946 62.5804C103.174 62.3047 103.448 62.0896 103.768 61.9352C104.088 61.7771 104.443 61.698 104.832 61.698C105.178 61.698 105.47 61.7587 105.709 61.88C105.952 61.9977 106.156 62.1448 106.321 62.3212V59.812H107.844V67.7203H106.321ZM106.366 64.2183C106.366 64.0602 106.336 63.9132 106.277 63.7772C106.222 63.6411 106.141 63.5235 106.035 63.4242C105.928 63.3249 105.799 63.2477 105.649 63.1926C105.502 63.1374 105.334 63.1099 105.147 63.1099C104.93 63.1099 104.737 63.1503 104.568 63.2312C104.402 63.3121 104.263 63.426 104.149 63.5731C104.035 63.7165 103.948 63.8874 103.889 64.086C103.831 64.2845 103.801 64.5014 103.801 64.7367V64.8084C103.801 65.0437 103.831 65.2606 103.889 65.4592C103.948 65.654 104.035 65.8232 104.149 65.9666C104.263 66.1099 104.402 66.2221 104.568 66.303C104.737 66.3802 104.93 66.4188 105.147 66.4188C105.334 66.4188 105.502 66.3912 105.649 66.336C105.799 66.2809 105.928 66.2037 106.035 66.1044C106.141 66.0052 106.222 65.8893 106.277 65.757C106.336 65.621 106.366 65.4739 106.366 65.3158V64.2183ZM110.43 65.2937C110.456 65.4702 110.511 65.632 110.596 65.779C110.684 65.9261 110.794 66.0529 110.926 66.1596C111.059 66.2625 111.211 66.3434 111.384 66.4022C111.557 66.461 111.741 66.4905 111.936 66.4905C112.16 66.4905 112.403 66.4482 112.664 66.3636C112.925 66.2754 113.164 66.1485 113.381 65.9831L114.114 67.053C113.838 67.2846 113.5 67.4721 113.099 67.6155C112.699 67.7589 112.272 67.8306 111.82 67.8306C111.412 67.8306 111.028 67.7607 110.667 67.621C110.307 67.4813 109.991 67.2791 109.719 67.0144C109.45 66.7497 109.237 66.428 109.079 66.0493C108.925 65.6706 108.847 65.2441 108.847 64.7698C108.847 64.336 108.915 63.9316 109.051 63.5566C109.191 63.1815 109.384 62.8562 109.63 62.5804C109.88 62.3047 110.178 62.0896 110.524 61.9352C110.869 61.7771 111.252 61.698 111.671 61.698C112.061 61.698 112.423 61.7697 112.757 61.9131C113.092 62.0528 113.382 62.2514 113.629 62.5087C113.875 62.7624 114.068 63.0676 114.208 63.4242C114.347 63.7808 114.417 64.1742 114.417 64.6044V65.2937H110.43ZM111.665 63.0216C111.338 63.0216 111.061 63.1319 110.833 63.3525C110.608 63.5694 110.478 63.8323 110.441 64.1411H112.824C112.816 63.8286 112.702 63.5639 112.482 63.347C112.261 63.1301 111.989 63.0216 111.665 63.0216Z" fill="#FCFF52"/>
<line x1="286.958" y1="101.137" x2="156.698" y2="101.137" stroke="#0F385C" stroke-width="2.56692"/>
</g>
<defs>
<clipPath id="clip0_59_494">
<rect width="200" height="200" fill="white"/>
</clipPath>
</defs>
</svg>
