<svg width="200" height="200" viewBox="0 0 200 200" fill="none" xmlns="http://www.w3.org/2000/svg">
<rect width="200" height="200" fill="#F4F8FB"/>
<rect x="44.7148" y="58.2594" width="109.808" height="29.2628" rx="14.6314" fill="#0F385C"/>
<path d="M69.7632 107.664L71.2364 99.5554H74.5201L71.7424 111.599H68.0539L66.2546 103.773L64.3428 111.599H60.7105L57.9216 99.5554H61.3065L62.7347 107.664L64.8264 99.5554H67.7952L69.7632 107.664ZM79.3782 111.599H76.2744V99.5554H79.3782V111.599ZM75.9483 96.3954C75.9483 96.1405 75.997 95.9006 76.0945 95.6757C76.1919 95.4433 76.3231 95.2446 76.4881 95.0797C76.6605 94.9072 76.8592 94.7723 77.0841 94.6748C77.309 94.5774 77.5527 94.5286 77.8151 94.5286C78.07 94.5286 78.3099 94.5774 78.5348 94.6748C78.7672 94.7723 78.9659 94.9072 79.1308 95.0797C79.3032 95.2446 79.4382 95.4433 79.5356 95.6757C79.6331 95.9006 79.6818 96.1405 79.6818 96.3954C79.6818 96.6578 79.6331 96.9015 79.5356 97.1264C79.4382 97.3513 79.3032 97.55 79.1308 97.7224C78.9659 97.8873 78.7672 98.0185 78.5348 98.116C78.3099 98.2135 78.07 98.2622 77.8151 98.2622C77.5527 98.2622 77.309 98.2135 77.0841 98.116C76.8592 98.0185 76.6605 97.8873 76.4881 97.7224C76.3231 97.55 76.1919 97.3513 76.0945 97.1264C75.997 96.9015 75.9483 96.6578 75.9483 96.3954ZM86.4967 108.012C86.4967 108.155 86.5154 108.29 86.5529 108.417C86.5904 108.544 86.6541 108.657 86.7441 108.754C86.8415 108.844 86.9765 108.916 87.1489 108.968C87.3214 109.02 87.5425 109.047 87.8124 109.047C87.9249 109.047 88.0523 109.043 88.1948 109.035C88.3372 109.02 88.4797 109.005 88.6221 108.991C88.7645 108.976 88.8957 108.957 89.0157 108.934C89.1431 108.912 89.2481 108.893 89.3306 108.878L89.6117 111.622C89.3193 111.659 89.0157 111.693 88.7008 111.723C88.4309 111.753 88.131 111.776 87.8012 111.791C87.4713 111.813 87.1377 111.824 86.8003 111.824C85.7282 111.824 84.8923 111.581 84.2925 111.093C83.6928 110.606 83.3929 109.83 83.3929 108.766V102.254H81.2225V99.5554H83.3929V96.148L86.4967 95.3158V99.5554H89.6567V102.254H86.4967V108.012ZM91.6134 95.4733H94.7172V100.59C94.8822 100.425 95.0658 100.268 95.2683 100.118C95.4782 99.9603 95.7068 99.8253 95.9542 99.7129C96.2016 99.5929 96.4753 99.4992 96.7752 99.4317C97.0826 99.3568 97.4199 99.3193 97.7873 99.3193C98.4395 99.3193 99.0243 99.428 99.5416 99.6454C100.059 99.8553 100.494 100.148 100.846 100.523C101.206 100.897 101.48 101.336 101.667 101.838C101.854 102.341 101.948 102.884 101.948 103.469V111.599H98.8444V104.593C98.8444 104.166 98.7956 103.806 98.6982 103.514C98.6007 103.214 98.4658 102.974 98.2933 102.794C98.1284 102.607 97.9297 102.472 97.6973 102.389C97.4724 102.299 97.225 102.254 96.9551 102.254C96.6402 102.254 96.3441 102.311 96.0667 102.423C95.7968 102.536 95.5606 102.708 95.3582 102.94C95.1558 103.165 94.9984 103.45 94.8859 103.795C94.7735 104.14 94.7172 104.545 94.7172 105.01V111.599H91.6134V95.4733ZM112.676 108.012C112.676 108.155 112.695 108.29 112.733 108.417C112.77 108.544 112.834 108.657 112.924 108.754C113.021 108.844 113.156 108.916 113.329 108.968C113.501 109.02 113.722 109.047 113.992 109.047C114.105 109.047 114.232 109.043 114.375 109.035C114.517 109.02 114.659 109.005 114.802 108.991C114.944 108.976 115.076 108.957 115.195 108.934C115.323 108.912 115.428 108.893 115.51 108.878L115.792 111.622C115.499 111.659 115.195 111.693 114.881 111.723C114.611 111.753 114.311 111.776 113.981 111.791C113.651 111.813 113.317 111.824 112.98 111.824C111.908 111.824 111.072 111.581 110.472 111.093C109.873 110.606 109.573 109.83 109.573 108.766V102.254H107.402V99.5554H109.573V96.148L112.676 95.3158V99.5554H115.836V102.254H112.676V108.012ZM117.793 95.4733H120.897V100.59C121.062 100.425 121.246 100.268 121.448 100.118C121.658 99.9603 121.887 99.8253 122.134 99.7129C122.381 99.5929 122.655 99.4992 122.955 99.4317C123.262 99.3568 123.6 99.3193 123.967 99.3193C124.619 99.3193 125.204 99.428 125.721 99.6454C126.239 99.8553 126.674 100.148 127.026 100.523C127.386 100.897 127.659 101.336 127.847 101.838C128.034 102.341 128.128 102.884 128.128 103.469V111.599H125.024V104.593C125.024 104.166 124.975 103.806 124.878 103.514C124.781 103.214 124.646 102.974 124.473 102.794C124.308 102.607 124.11 102.472 123.877 102.389C123.652 102.299 123.405 102.254 123.135 102.254C122.82 102.254 122.524 102.311 122.246 102.423C121.977 102.536 121.74 102.708 121.538 102.94C121.336 103.165 121.178 103.45 121.066 103.795C120.953 104.14 120.897 104.545 120.897 105.01V111.599H117.793V95.4733ZM133.323 106.651C133.376 107.011 133.488 107.341 133.661 107.641C133.841 107.941 134.066 108.2 134.336 108.417C134.605 108.627 134.917 108.792 135.269 108.912C135.621 109.032 135.996 109.092 136.393 109.092C136.851 109.092 137.346 109.005 137.878 108.833C138.41 108.653 138.898 108.394 139.34 108.057L140.836 110.239C140.273 110.711 139.583 111.093 138.766 111.386C137.949 111.678 137.079 111.824 136.157 111.824C135.325 111.824 134.542 111.682 133.807 111.397C133.072 111.112 132.428 110.7 131.873 110.16C131.325 109.62 130.891 108.964 130.568 108.192C130.253 107.42 130.096 106.55 130.096 105.583C130.096 104.698 130.235 103.874 130.512 103.109C130.797 102.344 131.191 101.681 131.693 101.119C132.203 100.556 132.81 100.118 133.515 99.8028C134.219 99.4805 134.999 99.3193 135.854 99.3193C136.648 99.3193 137.387 99.4655 138.069 99.7579C138.751 100.043 139.344 100.448 139.846 100.972C140.348 101.49 140.742 102.112 141.027 102.839C141.312 103.566 141.454 104.369 141.454 105.246V106.651H133.323ZM135.842 102.018C135.175 102.018 134.609 102.243 134.144 102.693C133.687 103.135 133.421 103.671 133.346 104.301H138.204C138.189 103.664 137.957 103.124 137.507 102.682C137.057 102.239 136.502 102.018 135.842 102.018ZM67.739 127.639C67.739 128.029 67.7915 128.423 67.8964 128.82C68.0014 129.21 68.1626 129.562 68.38 129.877C68.5974 130.192 68.8748 130.451 69.2122 130.653C69.557 130.848 69.9656 130.946 70.4379 130.946C70.7453 130.946 71.0227 130.904 71.2701 130.822C71.525 130.739 71.7499 130.627 71.9448 130.484C72.1473 130.335 72.3234 130.162 72.4734 129.967C72.6308 129.765 72.7658 129.547 72.8782 129.315L75.5997 130.721C75.4047 131.193 75.1349 131.62 74.79 132.003C74.4526 132.385 74.059 132.711 73.6092 132.981C73.1594 133.251 72.6608 133.457 72.1135 133.599C71.5662 133.749 70.9852 133.824 70.3705 133.824C69.5233 133.824 68.7436 133.667 68.0314 133.352C67.3191 133.03 66.7044 132.591 66.1871 132.036C65.6698 131.482 65.2649 130.826 64.9726 130.068C64.6802 129.304 64.534 128.475 64.534 127.583C64.534 126.698 64.6802 125.874 64.9726 125.109C65.2649 124.344 65.6698 123.681 66.1871 123.119C66.7044 122.556 67.3191 122.118 68.0314 121.803C68.7436 121.48 69.5233 121.319 70.3705 121.319C70.9852 121.319 71.5662 121.394 72.1135 121.544C72.6608 121.687 73.1594 121.897 73.6092 122.174C74.059 122.444 74.4526 122.77 74.79 123.152C75.1349 123.535 75.4047 123.962 75.5997 124.434L72.8782 125.84C72.7658 125.608 72.6308 125.394 72.4734 125.199C72.3234 124.997 72.1473 124.824 71.9448 124.682C71.7499 124.532 71.525 124.416 71.2701 124.333C71.0227 124.243 70.7453 124.198 70.4379 124.198C69.9656 124.198 69.557 124.299 69.2122 124.502C68.8748 124.697 68.5974 124.955 68.38 125.278C68.1626 125.593 68.0014 125.949 67.8964 126.346C67.7915 126.743 67.739 127.141 67.739 127.538V127.639ZM82.8081 121.319C83.7003 121.319 84.51 121.48 85.2372 121.803C85.9644 122.118 86.5866 122.556 87.1039 123.119C87.6212 123.681 88.0186 124.344 88.296 125.109C88.5809 125.874 88.7233 126.698 88.7233 127.583C88.7233 128.475 88.5809 129.304 88.296 130.068C88.0111 130.826 87.61 131.482 87.0927 132.036C86.5754 132.591 85.9531 133.03 85.2259 133.352C84.4987 133.667 83.6928 133.824 82.8081 133.824C81.916 133.824 81.1063 133.667 80.3791 133.352C79.6518 133.03 79.0296 132.591 78.5123 132.036C77.995 131.482 77.5939 130.826 77.309 130.068C77.0241 129.304 76.8817 128.475 76.8817 127.583C76.8817 126.698 77.0204 125.874 77.2978 125.109C77.5826 124.344 77.9837 123.681 78.501 123.119C79.0183 122.556 79.6406 122.118 80.3678 121.803C81.1025 121.48 81.916 121.319 82.8081 121.319ZM82.8081 130.946C83.2504 130.946 83.6403 130.863 83.9777 130.698C84.3225 130.533 84.6112 130.305 84.8436 130.012C85.076 129.72 85.2522 129.371 85.3721 128.966C85.4921 128.554 85.552 128.104 85.552 127.617V127.538C85.552 127.051 85.4921 126.605 85.3721 126.2C85.2522 125.788 85.076 125.435 84.8436 125.143C84.6112 124.843 84.3225 124.61 83.9777 124.446C83.6403 124.281 83.2504 124.198 82.8081 124.198C82.3658 124.198 81.9722 124.281 81.6273 124.446C81.29 124.61 81.0051 124.843 80.7727 125.143C80.5402 125.435 80.3641 125.788 80.2441 126.2C80.1242 126.605 80.0642 127.051 80.0642 127.538V127.617C80.0642 128.104 80.1242 128.554 80.2441 128.966C80.3641 129.371 80.5402 129.72 80.7727 130.012C81.0051 130.305 81.29 130.533 81.6273 130.698C81.9722 130.863 82.3658 130.946 82.8081 130.946ZM91.6359 129.753C92.0783 130.151 92.6068 130.492 93.2216 130.777C93.8363 131.062 94.4586 131.204 95.0883 131.204C95.5456 131.204 95.9055 131.118 96.1679 130.946C96.4303 130.766 96.5615 130.537 96.5615 130.26C96.5615 129.787 96.0555 129.42 95.0433 129.157L94.1662 128.921C93.7314 128.816 93.2928 128.674 92.8504 128.494C92.4081 128.307 91.9995 128.063 91.6247 127.763C91.2573 127.463 90.9574 127.1 90.725 126.672C90.5001 126.237 90.3877 125.705 90.3877 125.075C90.3877 124.573 90.4964 124.097 90.7138 123.647C90.9387 123.19 91.2536 122.789 91.6584 122.444C92.0708 122.099 92.5693 121.825 93.1541 121.623C93.7389 121.42 94.3911 121.319 95.1108 121.319C96.1379 121.319 97.0526 121.48 97.8548 121.803C98.6644 122.125 99.3017 122.489 99.7665 122.894L98.1471 124.963C97.7648 124.685 97.3112 124.449 96.7864 124.254C96.2691 124.052 95.7481 123.951 95.2233 123.951C94.736 123.951 94.3574 124.041 94.0875 124.221C93.8176 124.393 93.6826 124.603 93.6826 124.85C93.6826 125.113 93.7988 125.326 94.0312 125.491C94.2711 125.649 94.616 125.788 95.0658 125.907L96.3703 126.279C97.6148 126.631 98.507 127.107 99.0468 127.707C99.5866 128.307 99.8565 129.064 99.8565 129.978C99.8565 130.488 99.7515 130.976 99.5416 131.44C99.3317 131.898 99.0243 132.306 98.6195 132.666C98.2146 133.026 97.7123 133.311 97.1125 133.521C96.5128 133.723 95.8305 133.824 95.0658 133.824C94.4811 133.824 93.93 133.772 93.4127 133.667C92.9029 133.562 92.4269 133.42 91.9845 133.24C91.5497 133.052 91.1561 132.842 90.8037 132.61C90.4514 132.377 90.1515 132.145 89.9041 131.913L91.6359 129.753ZM106.311 130.012C106.311 130.155 106.33 130.29 106.368 130.417C106.405 130.544 106.469 130.657 106.559 130.754C106.656 130.844 106.791 130.916 106.964 130.968C107.136 131.02 107.357 131.047 107.627 131.047C107.74 131.047 107.867 131.043 108.01 131.035C108.152 131.02 108.294 131.005 108.437 130.991C108.579 130.976 108.711 130.957 108.83 130.934C108.958 130.912 109.063 130.893 109.145 130.878L109.426 133.622C109.134 133.659 108.83 133.693 108.516 133.723C108.246 133.753 107.946 133.776 107.616 133.791C107.286 133.813 106.952 133.824 106.615 133.824C105.543 133.824 104.707 133.581 104.107 133.093C103.508 132.606 103.208 131.83 103.208 130.766V124.254H101.037V121.555H103.208V118.148L106.311 117.316V121.555H109.471V124.254H106.311V130.012ZM120.886 121.319C121.778 121.319 122.588 121.48 123.315 121.803C124.042 122.118 124.664 122.556 125.182 123.119C125.699 123.681 126.096 124.344 126.374 125.109C126.659 125.874 126.801 126.698 126.801 127.583C126.801 128.475 126.659 129.304 126.374 130.068C126.089 130.826 125.688 131.482 125.17 132.036C124.653 132.591 124.031 133.03 123.304 133.352C122.576 133.667 121.77 133.824 120.886 133.824C119.994 133.824 119.184 133.667 118.457 133.352C117.73 133.03 117.107 132.591 116.59 132.036C116.073 131.482 115.672 130.826 115.387 130.068C115.102 129.304 114.959 128.475 114.959 127.583C114.959 126.698 115.098 125.874 115.375 125.109C115.66 124.344 116.061 123.681 116.579 123.119C117.096 122.556 117.718 122.118 118.445 121.803C119.18 121.48 119.994 121.319 120.886 121.319ZM120.886 130.946C121.328 130.946 121.718 130.863 122.055 130.698C122.4 130.533 122.689 130.305 122.921 130.012C123.154 129.72 123.33 129.371 123.45 128.966C123.57 128.554 123.63 128.104 123.63 127.617V127.538C123.63 127.051 123.57 126.605 123.45 126.2C123.33 125.788 123.154 125.435 122.921 125.143C122.689 124.843 122.4 124.61 122.055 124.446C121.718 124.281 121.328 124.198 120.886 124.198C120.443 124.198 120.05 124.281 119.705 124.446C119.368 124.61 119.083 124.843 118.85 125.143C118.618 125.435 118.442 125.788 118.322 126.2C118.202 126.605 118.142 127.051 118.142 127.538V127.617C118.142 128.104 118.202 128.554 118.322 128.966C118.442 129.371 118.618 129.72 118.85 130.012C119.083 130.305 119.368 130.533 119.705 130.698C120.05 130.863 120.443 130.946 120.886 130.946ZM133.02 121.555H135.325V124.254H133.02V133.599H129.916V124.254H128.004V121.555H129.916V120.082C129.916 119.557 130.006 119.104 130.186 118.722C130.366 118.332 130.613 118.013 130.928 117.766C131.25 117.511 131.633 117.323 132.075 117.203C132.525 117.076 133.02 117.012 133.56 117.012C133.829 117.012 134.092 117.02 134.347 117.035C134.602 117.05 134.838 117.065 135.055 117.08C135.273 117.095 135.464 117.113 135.629 117.136C135.801 117.158 135.932 117.173 136.022 117.181L135.764 119.824C135.674 119.809 135.561 119.794 135.426 119.779C135.299 119.764 135.164 119.752 135.022 119.745C134.879 119.73 134.74 119.722 134.605 119.722C134.47 119.715 134.351 119.711 134.246 119.711C133.803 119.711 133.488 119.797 133.301 119.97C133.114 120.135 133.02 120.348 133.02 120.611V121.555ZM73.0919 140.473H76.1957V153.327C76.1957 153.582 76.2669 153.777 76.4094 153.912C76.5593 154.047 76.7955 154.114 77.1178 154.114C77.2678 154.114 77.3952 154.107 77.5002 154.092C77.6126 154.069 77.7551 154.039 77.9275 154.002L78.1749 156.644C77.965 156.674 77.7401 156.704 77.5002 156.734C77.2978 156.757 77.0616 156.776 76.7917 156.791C76.5293 156.813 76.2557 156.824 75.9708 156.824C75.5284 156.824 75.1311 156.768 74.7787 156.656C74.4264 156.543 74.1227 156.378 73.8678 156.161C73.6204 155.936 73.4293 155.659 73.2943 155.329C73.1594 154.999 73.0919 154.617 73.0919 154.182V140.473ZM82.988 156.599H79.8843V144.555H82.988V156.599ZM79.5581 141.395C79.5581 141.141 79.6069 140.901 79.7043 140.676C79.8018 140.443 79.933 140.245 80.0979 140.08C80.2704 139.907 80.469 139.772 80.6939 139.675C80.9188 139.577 81.1625 139.529 81.4249 139.529C81.6798 139.529 81.9197 139.577 82.1446 139.675C82.377 139.772 82.5757 139.907 82.7406 140.08C82.9131 140.245 83.048 140.443 83.1455 140.676C83.2429 140.901 83.2917 141.141 83.2917 141.395C83.2917 141.658 83.2429 141.901 83.1455 142.126C83.048 142.351 82.9131 142.55 82.7406 142.722C82.5757 142.887 82.377 143.019 82.1446 143.116C81.9197 143.213 81.6798 143.262 81.4249 143.262C81.1625 143.262 80.9188 143.213 80.6939 143.116C80.469 143.019 80.2704 142.887 80.0979 142.722C79.933 142.55 79.8018 142.351 79.7043 142.126C79.6069 141.901 79.5581 141.658 79.5581 141.395ZM88.2173 156.599L84.5287 144.555H87.9923L90.1515 152.843L92.3669 144.555H95.7743L92.1082 156.599H88.2173ZM100.419 156.599H97.315V144.555H100.419V156.599ZM96.9888 141.395C96.9888 141.141 97.0376 140.901 97.135 140.676C97.2325 140.443 97.3637 140.245 97.5286 140.08C97.7011 139.907 97.8997 139.772 98.1246 139.675C98.3496 139.577 98.5932 139.529 98.8556 139.529C99.1105 139.529 99.3504 139.577 99.5753 139.675C99.8077 139.772 100.006 139.907 100.171 140.08C100.344 140.245 100.479 140.443 100.576 140.676C100.674 140.901 100.722 141.141 100.722 141.395C100.722 141.658 100.674 141.901 100.576 142.126C100.479 142.351 100.344 142.55 100.171 142.722C100.006 142.887 99.8077 143.019 99.5753 143.116C99.3504 143.213 99.1105 143.262 98.8556 143.262C98.5932 143.262 98.3496 143.213 98.1246 143.116C97.8997 143.019 97.7011 142.887 97.5286 142.722C97.3637 142.55 97.2325 142.351 97.135 142.126C97.0376 141.901 96.9888 141.658 96.9888 141.395ZM103.095 144.555H106.199V145.59C106.364 145.425 106.548 145.268 106.75 145.118C106.96 144.96 107.189 144.825 107.436 144.713C107.683 144.593 107.957 144.499 108.257 144.432C108.564 144.357 108.902 144.319 109.269 144.319C109.921 144.319 110.506 144.428 111.023 144.645C111.541 144.855 111.975 145.148 112.328 145.523C112.688 145.897 112.961 146.336 113.149 146.838C113.336 147.341 113.43 147.884 113.43 148.469V156.599H110.326V149.593C110.326 149.166 110.277 148.806 110.18 148.514C110.082 148.214 109.948 147.974 109.775 147.794C109.61 147.607 109.411 147.472 109.179 147.389C108.954 147.299 108.707 147.254 108.437 147.254C108.122 147.254 107.826 147.311 107.548 147.423C107.279 147.536 107.042 147.708 106.84 147.94C106.638 148.165 106.48 148.45 106.368 148.795C106.255 149.14 106.199 149.545 106.199 150.01V156.599H103.095V144.555ZM123.349 154.463C123.071 154.8 122.681 155.07 122.179 155.273C121.684 155.467 121.144 155.565 120.56 155.565C119.75 155.565 119.03 155.422 118.4 155.138C117.771 154.853 117.238 154.463 116.804 153.968C116.376 153.466 116.046 152.873 115.814 152.191C115.589 151.509 115.477 150.759 115.477 149.942C115.477 149.147 115.589 148.405 115.814 147.715C116.046 147.018 116.376 146.422 116.804 145.927C117.238 145.425 117.771 145.031 118.4 144.747C119.03 144.462 119.75 144.319 120.56 144.319C121.144 144.319 121.684 144.42 122.179 144.623C122.681 144.825 123.071 145.095 123.349 145.433V144.555H126.464V156.487C126.464 157.222 126.325 157.851 126.048 158.376C125.77 158.909 125.388 159.343 124.9 159.681C124.421 160.018 123.862 160.262 123.225 160.412C122.588 160.569 121.909 160.648 121.189 160.648C120.312 160.648 119.398 160.543 118.445 160.333C117.493 160.131 116.672 159.876 115.983 159.568L116.86 157.061C117.07 157.151 117.328 157.248 117.636 157.353C117.943 157.465 118.273 157.563 118.625 157.645C118.978 157.728 119.345 157.795 119.727 157.848C120.117 157.908 120.496 157.938 120.863 157.938C121.186 157.938 121.497 157.904 121.797 157.837C122.097 157.777 122.359 157.672 122.584 157.522C122.816 157.379 123 157.188 123.135 156.948C123.277 156.716 123.349 156.416 123.349 156.048V154.463ZM118.67 149.987C118.67 150.384 118.712 150.759 118.794 151.112C118.884 151.456 119.023 151.753 119.21 152C119.405 152.24 119.653 152.431 119.952 152.574C120.252 152.709 120.616 152.776 121.043 152.776C121.89 152.776 122.494 152.51 122.854 151.978C123.214 151.438 123.394 150.774 123.394 149.987V149.897C123.394 149.5 123.352 149.129 123.27 148.784C123.187 148.439 123.052 148.143 122.865 147.895C122.678 147.648 122.434 147.457 122.134 147.322C121.842 147.179 121.478 147.108 121.043 147.108C120.204 147.108 119.596 147.374 119.221 147.907C118.854 148.439 118.67 149.102 118.67 149.897V149.987Z" fill="#1D70B8"/>
<path d="M60.6992 76.1859C61.1416 76.5832 61.6701 76.9243 62.2849 77.2092C62.8996 77.4941 63.5219 77.6365 64.1516 77.6365C64.609 77.6365 64.9688 77.5503 65.2312 77.3779C65.4936 77.198 65.6248 76.9693 65.6248 76.6919C65.6248 76.2196 65.1188 75.8522 64.1067 75.5898L63.2295 75.3537C62.7947 75.2487 62.3561 75.1063 61.9138 74.9263C61.4714 74.7389 61.0628 74.4953 60.688 74.1954C60.3206 73.8955 60.0207 73.5319 59.7883 73.1046C59.5634 72.6697 59.451 72.1374 59.451 71.5077C59.451 71.0054 59.5597 70.5293 59.7771 70.0795C60.002 69.6222 60.3169 69.2211 60.7217 68.8762C61.1341 68.5313 61.6326 68.2577 62.2174 68.0553C62.8022 67.8529 63.4544 67.7516 64.1741 67.7516C65.2012 67.7516 66.1159 67.9128 66.9181 68.2352C67.7277 68.5576 68.365 68.9212 68.8298 69.326L67.2104 71.3952C66.8281 71.1178 66.3745 70.8817 65.8497 70.6868C65.3324 70.4843 64.8114 70.3831 64.2866 70.3831C63.7993 70.3831 63.4207 70.4731 63.1508 70.653C62.8809 70.8254 62.7459 71.0354 62.7459 71.2828C62.7459 71.5452 62.8621 71.7588 63.0945 71.9238C63.3345 72.0812 63.6793 72.2199 64.1291 72.3399L65.4336 72.711C66.6781 73.0633 67.5703 73.5394 68.1101 74.1392C68.6499 74.7389 68.9198 75.4961 68.9198 76.4108C68.9198 76.9206 68.8148 77.4079 68.6049 77.8727C68.395 78.33 68.0876 78.7386 67.6828 79.0985C67.2779 79.4583 66.7756 79.7432 66.1758 79.9531C65.5761 80.1556 64.8938 80.2568 64.1291 80.2568C63.5444 80.2568 62.9933 80.2043 62.476 80.0993C61.9662 79.9944 61.4902 79.8519 61.0478 79.672C60.613 79.4846 60.2194 79.2747 59.8671 79.0422C59.5147 78.8098 59.2148 78.5774 58.9674 78.345L60.6992 76.1859ZM81.1775 80.0319H78.0737V78.9973C77.9013 79.1622 77.7138 79.3234 77.5114 79.4808C77.309 79.6308 77.0841 79.7657 76.8367 79.8857C76.5893 79.9981 76.3119 80.0881 76.0045 80.1556C75.7046 80.223 75.371 80.2568 75.0037 80.2568C74.3514 80.2568 73.7666 80.1518 73.2493 79.9419C72.732 79.7245 72.2935 79.4321 71.9336 79.0647C71.5812 78.6899 71.3113 78.2513 71.1239 77.749C70.9365 77.2467 70.8428 76.7032 70.8428 76.1184V67.9878H73.9466V74.9826C73.9466 75.4099 73.9915 75.7735 74.0815 76.0734C74.179 76.3733 74.3102 76.6169 74.4751 76.8044C74.6475 76.9843 74.85 77.1192 75.0824 77.2092C75.3148 77.2917 75.5659 77.3329 75.8358 77.3329C76.1507 77.3329 76.4431 77.2767 76.713 77.1642C76.9904 77.0518 77.2303 76.8831 77.4327 76.6582C77.6351 76.4258 77.7926 76.1371 77.905 75.7923C78.0175 75.4474 78.0737 75.0426 78.0737 74.5777V67.9878H81.1775V80.0319ZM86.969 83.8329H83.8652V67.9878H86.969V69.0224C87.3064 68.67 87.7224 68.3702 88.2173 68.1228C88.7121 67.8753 89.3118 67.7516 90.0166 67.7516C90.8112 67.7516 91.531 67.9128 92.1757 68.2352C92.828 68.5501 93.3865 68.9887 93.8513 69.5509C94.3161 70.1057 94.676 70.7655 94.9309 71.5302C95.1858 72.2949 95.3132 73.1233 95.3132 74.0155C95.3132 74.9076 95.182 75.736 94.9196 76.5007C94.6572 77.2654 94.2899 77.9252 93.8176 78.48C93.3453 79.0347 92.7792 79.4696 92.1195 79.7845C91.4597 80.0993 90.7325 80.2568 89.9378 80.2568C89.5855 80.2568 89.2631 80.223 88.9707 80.1556C88.6858 80.0956 88.4234 80.0094 88.1835 79.8969C87.9436 79.7845 87.7224 79.6533 87.52 79.5033C87.3176 79.3459 87.1339 79.1772 86.969 78.9973V83.8329ZM86.879 75.1288C86.879 75.4511 86.9353 75.751 87.0477 76.0284C87.1677 76.2983 87.3363 76.5345 87.5538 76.7369C87.7712 76.9393 88.0298 77.0968 88.3297 77.2092C88.6371 77.3217 88.982 77.3779 89.3643 77.3779C89.8066 77.3779 90.1965 77.2992 90.5339 77.1417C90.8787 76.9768 91.1674 76.7481 91.3998 76.4558C91.6322 76.1634 91.8084 75.8185 91.9283 75.4212C92.0483 75.0163 92.1082 74.574 92.1082 74.0942V73.948C92.1082 73.4682 92.0483 73.0258 91.9283 72.621C91.8084 72.2162 91.6322 71.8675 91.3998 71.5752C91.1674 71.2753 90.8787 71.0429 90.5339 70.8779C90.1965 70.713 89.8066 70.6305 89.3643 70.6305C88.982 70.6305 88.6371 70.6868 88.3297 70.7992C88.0298 70.9117 87.7712 71.0691 87.5538 71.2715C87.3363 71.4739 87.1677 71.7139 87.0477 71.9912C86.9353 72.2686 86.879 72.5685 86.879 72.8909V75.1288ZM100.486 83.8329H97.3824V67.9878H100.486V69.0224C100.824 68.67 101.24 68.3702 101.734 68.1228C102.229 67.8753 102.829 67.7516 103.534 67.7516C104.328 67.7516 105.048 67.9128 105.693 68.2352C106.345 68.5501 106.904 68.9887 107.369 69.5509C107.833 70.1057 108.193 70.7655 108.448 71.5302C108.703 72.2949 108.83 73.1233 108.83 74.0155C108.83 74.9076 108.699 75.736 108.437 76.5007C108.174 77.2654 107.807 77.9252 107.335 78.48C106.862 79.0347 106.296 79.4696 105.637 79.7845C104.977 80.0993 104.25 80.2568 103.455 80.2568C103.103 80.2568 102.78 80.223 102.488 80.1556C102.203 80.0956 101.941 80.0094 101.701 79.8969C101.461 79.7845 101.24 79.6533 101.037 79.5033C100.835 79.3459 100.651 79.1772 100.486 78.9973V83.8329ZM100.396 75.1288C100.396 75.4511 100.452 75.751 100.565 76.0284C100.685 76.2983 100.854 76.5345 101.071 76.7369C101.288 76.9393 101.547 77.0968 101.847 77.2092C102.154 77.3217 102.499 77.3779 102.882 77.3779C103.324 77.3779 103.714 77.2992 104.051 77.1417C104.396 76.9768 104.685 76.7481 104.917 76.4558C105.149 76.1634 105.326 75.8185 105.446 75.4212C105.565 75.0163 105.625 74.574 105.625 74.0942V73.948C105.625 73.4682 105.565 73.0258 105.446 72.621C105.326 72.2162 105.149 71.8675 104.917 71.5752C104.685 71.2753 104.396 71.0429 104.051 70.8779C103.714 70.713 103.324 70.6305 102.882 70.6305C102.499 70.6305 102.154 70.6868 101.847 70.7992C101.547 70.9117 101.288 71.0691 101.071 71.2715C100.854 71.4739 100.685 71.7139 100.565 71.9912C100.452 72.2686 100.396 72.5685 100.396 72.8909V75.1288ZM116.196 67.7516C117.089 67.7516 117.898 67.9128 118.625 68.2352C119.353 68.5501 119.975 68.9887 120.492 69.5509C121.009 70.1132 121.407 70.7767 121.684 71.5414C121.969 72.3061 122.112 73.1308 122.112 74.0155C122.112 74.9076 121.969 75.736 121.684 76.5007C121.399 77.2579 120.998 77.9139 120.481 78.4687C119.964 79.0235 119.341 79.4621 118.614 79.7845C117.887 80.0993 117.081 80.2568 116.196 80.2568C115.304 80.2568 114.495 80.0993 113.767 79.7845C113.04 79.4621 112.418 79.0235 111.901 78.4687C111.383 77.9139 110.982 77.2579 110.697 76.5007C110.412 75.736 110.27 74.9076 110.27 74.0155C110.27 73.1308 110.409 72.3061 110.686 71.5414C110.971 70.7767 111.372 70.1132 111.889 69.5509C112.407 68.9887 113.029 68.5501 113.756 68.2352C114.491 67.9128 115.304 67.7516 116.196 67.7516ZM116.196 77.3779C116.639 77.3779 117.029 77.2954 117.366 77.1305C117.711 76.9656 117.999 76.7369 118.232 76.4445C118.464 76.1521 118.64 75.8035 118.76 75.3987C118.88 74.9863 118.94 74.5365 118.94 74.0492V73.9705C118.94 73.4832 118.88 73.0371 118.76 72.6322C118.64 72.2199 118.464 71.8675 118.232 71.5752C117.999 71.2753 117.711 71.0429 117.366 70.8779C117.029 70.713 116.639 70.6305 116.196 70.6305C115.754 70.6305 115.36 70.713 115.016 70.8779C114.678 71.0429 114.393 71.2753 114.161 71.5752C113.928 71.8675 113.752 72.2199 113.632 72.6322C113.512 73.0371 113.452 73.4832 113.452 73.9705V74.0492C113.452 74.5365 113.512 74.9863 113.632 75.3987C113.752 75.8035 113.928 76.1521 114.161 76.4445C114.393 76.7369 114.678 76.9656 115.016 77.1305C115.36 77.2954 115.754 77.3779 116.196 77.3779ZM130.939 71.0016H130.613C130.171 71.0016 129.747 71.0466 129.342 71.1366C128.945 71.2265 128.593 71.3915 128.285 71.6314C127.978 71.8638 127.731 72.1862 127.543 72.5985C127.363 73.0108 127.273 73.5394 127.273 74.1841V80.0319H124.169V67.9878H127.273V69.3485C127.401 69.1461 127.566 68.9512 127.768 68.7638C127.971 68.5763 128.207 68.4114 128.477 68.2689C128.746 68.119 129.05 67.999 129.387 67.9091C129.725 67.8191 130.088 67.7741 130.478 67.7741H130.939V71.0016ZM137.316 76.4445C137.316 76.587 137.334 76.7219 137.372 76.8494C137.409 76.9768 137.473 77.0893 137.563 77.1867C137.66 77.2767 137.795 77.3479 137.968 77.4004C138.14 77.4529 138.361 77.4791 138.631 77.4791C138.744 77.4791 138.871 77.4754 139.014 77.4679C139.156 77.4529 139.299 77.4379 139.441 77.4229C139.583 77.4079 139.715 77.3891 139.835 77.3666C139.962 77.3442 140.067 77.3254 140.15 77.3104L140.431 80.0544C140.138 80.0918 139.835 80.1256 139.52 80.1556C139.25 80.1856 138.95 80.208 138.62 80.223C138.29 80.2455 137.957 80.2568 137.619 80.2568C136.547 80.2568 135.711 80.0131 135.111 79.5258C134.512 79.0385 134.212 78.2625 134.212 77.198V70.6868H132.041V67.9878H134.212V64.5804L137.316 63.7482V67.9878H140.476V70.6868H137.316V76.4445Z" fill="white"/>
<path d="M84.5526 43.863C84.5526 44.5527 84.6389 45.2162 84.8113 45.8535C84.9837 46.4907 85.2461 47.053 85.5985 47.5403C85.9509 48.0276 86.4007 48.4212 86.948 48.7211C87.4953 49.0135 88.1475 49.1597 88.9047 49.1597C89.6319 49.1597 90.2354 49.0435 90.7152 48.811C91.2026 48.5786 91.5887 48.29 91.8735 47.9451C92.1659 47.5928 92.3684 47.2142 92.4808 46.8093C92.6008 46.4045 92.6607 46.0296 92.6607 45.6848V45.5273H88.5336V43.042H95.832V51.8811H92.9756V49.9918C92.7732 50.3067 92.522 50.5954 92.2222 50.8578C91.9223 51.1127 91.5849 51.3338 91.2101 51.5212C90.8352 51.7012 90.4229 51.8436 89.973 51.9486C89.5307 52.0535 89.0584 52.106 88.5561 52.106C87.379 52.106 86.3332 51.8923 85.4186 51.465C84.5039 51.0377 83.7317 50.4492 83.102 49.6995C82.4797 48.9497 82.0036 48.0726 81.6738 47.068C81.3514 46.0634 81.1902 44.98 81.1902 43.818C81.1902 42.6634 81.3701 41.5839 81.73 40.5793C82.0974 39.5672 82.6147 38.69 83.2819 37.9478C83.9566 37.1981 84.7663 36.6096 85.7109 36.1822C86.6631 35.7474 87.7277 35.53 88.9047 35.53C89.6694 35.53 90.3929 35.6199 91.0751 35.7999C91.7648 35.9723 92.3908 36.2235 92.9531 36.5533C93.5229 36.8757 94.0252 37.2693 94.46 37.7341C94.8949 38.1914 95.2472 38.7012 95.5171 39.2635L92.6607 40.8716C92.4883 40.5268 92.2859 40.2082 92.0535 39.9158C91.8211 39.6159 91.5512 39.361 91.2438 39.1511C90.9439 38.9336 90.599 38.765 90.2092 38.645C89.8193 38.5176 89.3845 38.4538 88.9047 38.4538C88.1475 38.4538 87.4953 38.6038 86.948 38.9037C86.4007 39.196 85.9509 39.5859 85.5985 40.0732C85.2461 40.5605 84.9837 41.1265 84.8113 41.7713C84.6389 42.4085 84.5526 43.0683 84.5526 43.7505V43.863ZM100.96 46.933C101.012 47.2929 101.125 47.6228 101.297 47.9226C101.477 48.2225 101.702 48.4812 101.972 48.6986C102.242 48.9085 102.553 49.0734 102.905 49.1934C103.258 49.3134 103.633 49.3733 104.03 49.3733C104.487 49.3733 104.982 49.2871 105.514 49.1147C106.047 48.9348 106.534 48.6761 106.976 48.3387L108.472 50.5204C107.91 50.9927 107.22 51.3751 106.403 51.6674C105.586 51.9598 104.716 52.106 103.794 52.106C102.962 52.106 102.178 51.9636 101.444 51.6787C100.709 51.3938 100.064 50.9815 99.5093 50.4417C98.962 49.9019 98.5272 49.2459 98.2048 48.4737C97.89 47.7015 97.7325 46.8318 97.7325 45.8647C97.7325 44.98 97.8712 44.1554 98.1486 43.3907C98.4335 42.626 98.8271 41.9625 99.3294 41.4002C99.8392 40.8379 100.446 40.3993 101.151 40.0844C101.856 39.7621 102.636 39.6009 103.49 39.6009C104.285 39.6009 105.023 39.7471 105.706 40.0395C106.388 40.3244 106.98 40.7292 107.482 41.254C107.985 41.7713 108.378 42.3935 108.663 43.1208C108.948 43.848 109.091 44.6502 109.091 45.5273V46.933H100.96ZM103.479 42.2998C102.812 42.2998 102.246 42.5247 101.781 42.9746C101.324 43.4169 101.057 43.9529 100.982 44.5827H105.841C105.826 43.9454 105.593 43.4057 105.143 42.9633C104.694 42.521 104.139 42.2998 103.479 42.2998ZM115.512 48.2938C115.512 48.4362 115.531 48.5711 115.568 48.6986C115.606 48.826 115.669 48.9385 115.759 49.036C115.857 49.1259 115.992 49.1971 116.164 49.2496C116.337 49.3021 116.558 49.3283 116.828 49.3283C116.94 49.3283 117.067 49.3246 117.21 49.3171C117.352 49.3021 117.495 49.2871 117.637 49.2721C117.78 49.2571 117.911 49.2384 118.031 49.2159C118.158 49.1934 118.263 49.1747 118.346 49.1597L118.627 51.9036C118.334 51.9411 118.031 51.9748 117.716 52.0048C117.446 52.0348 117.146 52.0573 116.816 52.0723C116.486 52.0948 116.153 52.106 115.815 52.106C114.743 52.106 113.907 51.8624 113.308 51.3751C112.708 50.8877 112.408 50.1118 112.408 49.0472V42.536H110.238V39.837H112.408V36.4296L115.512 35.5974V39.837H118.672V42.536H115.512V48.2938Z" fill="#1D70B8"/>
</svg>
