<svg width="480" height="320" viewBox="0 0 480 320" fill="none" xmlns="http://www.w3.org/2000/svg">
<g clip-path="url(#clip0_1745_1139)">
<path d="M480 0H0V320H480V0Z" fill="white"/>
<path d="M27.8317 233.404C27.9659 233.741 28.1703 234.018 28.4451 234.233C28.72 234.446 29.0847 234.552 29.5395 234.552C29.7881 234.552 30.0056 234.52 30.1921 234.454C30.3819 234.386 30.5405 234.292 30.6681 234.175C30.7957 234.057 30.8906 233.921 30.9527 233.767C31.0182 233.614 31.0509 233.447 31.0509 233.267C31.0509 232.871 30.8955 232.565 30.5847 232.349C30.2772 232.13 29.8797 232.02 29.3922 232.02H29.088V231.265H29.3628C29.6311 231.265 29.8633 231.229 30.0596 231.157C30.2559 231.081 30.4195 230.983 30.5503 230.862C30.6812 230.741 30.7777 230.605 30.8399 230.455C30.9053 230.304 30.938 230.152 30.938 229.999C30.938 229.851 30.9069 229.707 30.8448 229.567C30.7859 229.426 30.6992 229.3 30.5847 229.189C30.4735 229.078 30.3295 228.991 30.1529 228.929C29.9795 228.867 29.7832 228.835 29.564 228.835C29.1747 228.835 28.8443 228.935 28.5727 229.135C28.3012 229.334 28.1016 229.583 27.9741 229.881L27.2527 229.527C27.4522 229.066 27.7581 228.71 28.1703 228.458C28.5825 228.206 29.0471 228.08 29.564 228.08C29.8911 228.08 30.1921 228.127 30.4669 228.222C30.7417 228.314 30.9789 228.446 31.1785 228.62C31.3813 228.79 31.5383 228.991 31.6496 229.223C31.7641 229.452 31.8213 229.701 31.8213 229.969C31.8213 230.185 31.787 230.381 31.7183 230.558C31.6528 230.735 31.5612 230.893 31.4435 231.034C31.329 231.175 31.1899 231.292 31.0263 231.387C30.866 231.479 30.6959 231.543 30.516 231.579C30.7254 231.611 30.9184 231.678 31.095 231.78C31.2717 231.878 31.4238 232.001 31.5514 232.148C31.679 232.295 31.7788 232.465 31.8508 232.658C31.926 232.848 31.9636 233.048 31.9636 233.257C31.9636 233.591 31.8982 233.885 31.7673 234.14C31.6365 234.395 31.4582 234.61 31.2325 234.783C31.01 234.956 30.7532 235.087 30.462 235.176C30.1709 235.261 29.8633 235.303 29.5395 235.303C28.9637 235.303 28.4484 235.171 27.9937 234.906C27.5389 234.637 27.2167 234.255 27.027 233.757L27.8317 233.404ZM35.6097 228.08C35.9074 228.08 36.1953 228.122 36.4734 228.207C36.7547 228.289 37.0033 228.41 37.2193 228.571C37.4385 228.728 37.6135 228.924 37.7443 229.159C37.8752 229.395 37.9406 229.665 37.9406 229.969C37.9406 230.126 37.9194 230.285 37.8768 230.445C37.8376 230.602 37.7705 230.753 37.6756 230.897C37.584 231.037 37.4614 231.165 37.3076 231.279C37.1538 231.394 36.9657 231.487 36.7433 231.559C36.9919 231.628 37.2045 231.726 37.3812 231.853C37.5611 231.978 37.7084 232.12 37.8229 232.28C37.9406 232.441 38.0257 232.612 38.078 232.796C38.1336 232.976 38.1615 233.159 38.1615 233.345C38.1615 233.666 38.0895 233.949 37.9455 234.194C37.8016 234.44 37.6102 234.644 37.3714 234.808C37.1326 234.971 36.8594 235.095 36.5519 235.181C36.2476 235.262 35.9336 235.303 35.6097 235.303C35.2858 235.303 34.9701 235.262 34.6626 235.181C34.3551 235.095 34.0819 234.971 33.8431 234.808C33.6043 234.644 33.4129 234.44 33.2689 234.194C33.125 233.949 33.053 233.666 33.053 233.345C33.053 233.159 33.0792 232.976 33.1315 232.796C33.1872 232.612 33.2722 232.441 33.3867 232.28C33.5045 232.12 33.6517 231.978 33.8284 231.853C34.0083 231.726 34.2226 231.628 34.4712 231.559C34.2488 231.487 34.0606 231.394 33.9069 231.279C33.7564 231.165 33.6337 231.037 33.5388 230.897C33.4472 230.753 33.3802 230.602 33.3376 230.445C33.2984 230.285 33.2788 230.126 33.2788 229.969C33.2788 229.665 33.3442 229.395 33.4751 229.159C33.6059 228.924 33.7793 228.728 33.9952 228.571C34.2111 228.41 34.4581 228.289 34.7362 228.207C35.0176 228.122 35.3087 228.08 35.6097 228.08ZM34.1424 230.038C34.1424 230.231 34.1833 230.404 34.2651 230.558C34.3469 230.708 34.4549 230.836 34.589 230.941C34.7231 231.042 34.8785 231.121 35.0552 231.176C35.2318 231.229 35.4167 231.255 35.6097 231.255C35.7994 231.255 35.9826 231.229 36.1593 231.176C36.336 231.121 36.4914 231.042 36.6255 230.941C36.7629 230.836 36.8725 230.708 36.9543 230.558C37.0361 230.404 37.077 230.231 37.077 230.038C37.077 229.845 37.0361 229.673 36.9543 229.523C36.8725 229.372 36.7629 229.246 36.6255 229.145C36.4914 229.04 36.336 228.961 36.1593 228.909C35.9826 228.853 35.7994 228.826 35.6097 228.826C35.4167 228.826 35.2318 228.853 35.0552 228.909C34.8785 228.961 34.7231 229.04 34.589 229.145C34.4549 229.246 34.3469 229.372 34.2651 229.523C34.1833 229.673 34.1424 229.845 34.1424 230.038ZM33.9314 233.277C33.9314 233.496 33.9772 233.685 34.0688 233.846C34.1604 234.006 34.2831 234.14 34.4369 234.248C34.5906 234.353 34.7689 234.431 34.9718 234.484C35.1746 234.536 35.3872 234.562 35.6097 234.562C35.8289 234.562 36.0399 234.536 36.2427 234.484C36.4456 234.431 36.6239 234.353 36.7776 234.248C36.9346 234.14 37.059 234.006 37.1506 233.846C37.2422 233.685 37.288 233.496 37.288 233.277C37.288 233.057 37.2422 232.868 37.1506 232.707C37.059 232.547 36.9346 232.415 36.7776 232.31C36.6239 232.202 36.4456 232.122 36.2427 232.069C36.0399 232.017 35.8289 231.991 35.6097 231.991C35.3872 231.991 35.1746 232.017 34.9718 232.069C34.7689 232.122 34.5906 232.202 34.4369 232.31C34.2831 232.415 34.1604 232.547 34.0688 232.707C33.9772 232.868 33.9314 233.057 33.9314 233.277ZM38.8779 231.971H40.988V232.693H38.8779V231.971ZM45.1297 232.663V228.914L42.416 232.663H45.1297ZM45.1297 235.205V233.384H41.5916V232.531L44.7764 228.168H45.9934V232.663H47.1466V233.384H45.9934V235.205H45.1297ZM51.4895 232.663V228.914L48.7758 232.663H51.4895ZM51.4895 235.205V233.384H47.9514V232.531L51.1362 228.168H52.3532V232.663H53.5064V233.384H52.3532V235.205H51.4895Z" fill="#0B0C0C"/>
<path d="M31.5465 83.6354C31.7755 83.6354 31.962 83.6174 32.1059 83.5814C32.2499 83.5421 32.3611 83.4816 32.4396 83.3998C32.5181 83.318 32.5705 83.2133 32.5967 83.0857C32.6261 82.9549 32.6408 82.7962 32.6408 82.6097V82.4969H33.4751V89.5338H32.6114V84.3665H31.2423V83.6354H31.5465ZM38.7454 83.282H35.0159V82.4969H39.6287V83.282L37.0132 89.5338H36.0513L38.7454 83.282ZM39.8888 86.3H41.9989V87.0213H39.8888V86.3ZM43.9422 88.7781H47.4508V89.5338H42.7644V88.7094C43.2126 88.4085 43.6167 88.1304 43.9765 87.8752C44.3364 87.62 44.6537 87.3796 44.9285 87.1538C45.2033 86.9248 45.4389 86.7073 45.6352 86.5012C45.8347 86.2951 45.9983 86.0906 46.1259 85.8878C46.2535 85.6849 46.3467 85.4805 46.4056 85.2744C46.4645 85.0683 46.4939 84.8507 46.4939 84.6217C46.4939 84.4254 46.4596 84.2389 46.3909 84.0623C46.3254 83.8856 46.2289 83.7319 46.1013 83.601C45.977 83.4669 45.8216 83.3606 45.6352 83.282C45.452 83.2035 45.2426 83.1643 45.007 83.1643C44.8173 83.1643 44.6341 83.1921 44.4574 83.2477C44.284 83.3 44.1286 83.3851 43.9912 83.5029C43.8571 83.6206 43.7475 83.7728 43.6625 83.9592C43.5774 84.1424 43.53 84.3633 43.5201 84.6217L42.7055 84.5285C42.7186 84.2013 42.7824 83.9069 42.8969 83.6452C43.0114 83.3835 43.1685 83.161 43.368 82.9778C43.5709 82.7946 43.8113 82.6539 44.0894 82.5558C44.3707 82.4576 44.6832 82.4086 45.0267 82.4086C45.3604 82.4086 45.6695 82.4642 45.9541 82.5754C46.242 82.6834 46.4907 82.8355 46.7 83.0318C46.9127 83.2281 47.0779 83.4603 47.1957 83.7286C47.3167 83.9969 47.3772 84.2897 47.3772 84.607C47.3772 84.9832 47.3118 85.3365 47.1809 85.6669C47.0533 85.9974 46.8571 86.3229 46.5921 86.6435C46.3271 86.9608 45.9901 87.2814 45.5812 87.6053C45.1755 87.9292 44.6962 88.2711 44.1434 88.6309L43.9422 88.7585V88.7781ZM49.1978 87.7329C49.3319 88.0699 49.5364 88.3463 49.8112 88.5622C50.086 88.7749 50.4508 88.8812 50.9055 88.8812C51.1542 88.8812 51.3717 88.8485 51.5582 88.783C51.7479 88.7143 51.9066 88.6211 52.0342 88.5033C52.1618 88.3856 52.2566 88.2498 52.3188 88.096C52.3842 87.9423 52.4169 87.7754 52.4169 87.5955C52.4169 87.1996 52.2616 86.8938 51.9508 86.6778C51.6432 86.4586 51.2458 86.3491 50.7583 86.3491H50.4541V85.5933H50.7289C50.9971 85.5933 51.2294 85.5574 51.4257 85.4854C51.622 85.4101 51.7856 85.312 51.9164 85.1909C52.0473 85.0699 52.1438 84.9341 52.2059 84.7836C52.2714 84.6332 52.3041 84.481 52.3041 84.3273C52.3041 84.1801 52.273 84.0361 52.2108 83.8954C52.152 83.7548 52.0653 83.6288 51.9508 83.5176C51.8395 83.4064 51.6956 83.3197 51.5189 83.2575C51.3455 83.1953 51.1492 83.1643 50.9301 83.1643C50.5408 83.1643 50.2103 83.264 49.9388 83.4636C49.6673 83.6632 49.4677 83.9118 49.3401 84.2095L48.6188 83.8562C48.8183 83.3949 49.1242 83.0383 49.5364 82.7864C49.9486 82.5345 50.4132 82.4086 50.9301 82.4086C51.2572 82.4086 51.5582 82.456 51.833 82.5509C52.1078 82.6425 52.345 82.775 52.5445 82.9483C52.7474 83.1185 52.9044 83.3197 53.0156 83.5519C53.1301 83.7809 53.1874 84.0296 53.1874 84.2978C53.1874 84.5138 53.153 84.71 53.0843 84.8867C53.0189 85.0634 52.9273 85.222 52.8095 85.3627C52.695 85.5034 52.556 85.6211 52.3924 85.716C52.2321 85.8076 52.062 85.8714 51.8821 85.9074C52.0914 85.9401 52.2845 86.0072 52.4611 86.1086C52.6378 86.2067 52.7899 86.3294 52.9175 86.4766C53.0451 86.6239 53.1449 86.794 53.2168 86.987C53.2921 87.1767 53.3297 87.3763 53.3297 87.5857C53.3297 87.9194 53.2643 88.2138 53.1334 88.469C53.0025 88.7242 52.8242 88.9384 52.5985 89.1118C52.3761 89.2852 52.1192 89.4161 51.8281 89.5044C51.5369 89.5895 51.2294 89.632 50.9055 89.632C50.3297 89.632 49.8145 89.4995 49.3597 89.2345C48.905 88.9662 48.5828 88.5835 48.393 88.0862L49.1978 87.7329Z" fill="#0B0C0C"/>
<path d="M28.5531 135.66H32.0618V136.416H27.3754V135.591C27.8236 135.29 28.2276 135.012 28.5875 134.757C28.9473 134.502 29.2647 134.261 29.5395 134.036C29.8143 133.807 30.0498 133.589 30.2461 133.383C30.4457 133.177 30.6092 132.972 30.7368 132.77C30.8644 132.567 30.9576 132.362 31.0165 132.156C31.0754 131.95 31.1049 131.733 31.1049 131.504C31.1049 131.307 31.0705 131.121 31.0018 130.944C30.9364 130.767 30.8399 130.614 30.7123 130.483C30.588 130.349 30.4326 130.242 30.2461 130.164C30.0629 130.085 29.8535 130.046 29.618 130.046C29.4282 130.046 29.245 130.074 29.0684 130.13C28.895 130.182 28.7396 130.267 28.6022 130.385C28.468 130.503 28.3585 130.655 28.2734 130.841C28.1883 131.024 28.1409 131.245 28.1311 131.504L27.3165 131.41C27.3296 131.083 27.3934 130.789 27.5079 130.527C27.6224 130.265 27.7794 130.043 27.979 129.86C28.1818 129.676 28.4222 129.536 28.7003 129.438C28.9817 129.339 29.2941 129.29 29.6376 129.29C29.9713 129.29 30.2804 129.346 30.5651 129.457C30.853 129.565 31.1016 129.717 31.311 129.914C31.5236 130.11 31.6888 130.342 31.8066 130.61C31.9276 130.879 31.9882 131.172 31.9882 131.489C31.9882 131.865 31.9227 132.218 31.7919 132.549C31.6643 132.879 31.468 133.205 31.203 133.525C30.938 133.843 30.6011 134.163 30.1921 134.487C29.7865 134.811 29.3072 135.153 28.7543 135.513L28.5531 135.64V135.66ZM36.6402 133.874V130.125L33.9265 133.874H36.6402ZM36.6402 136.416V134.595H33.1021V133.741L36.2869 129.379H37.5039V133.874H38.6571V134.595H37.5039V136.416H36.6402ZM39.2607 133.182H41.3708V133.903H39.2607V133.182ZM42.8871 134.615C43.0212 134.952 43.2257 135.228 43.5005 135.444C43.7753 135.657 44.1401 135.763 44.5948 135.763C44.8435 135.763 45.061 135.73 45.2475 135.665C45.4372 135.596 45.5959 135.503 45.7235 135.385C45.8511 135.267 45.946 135.132 46.0081 134.978C46.0735 134.824 46.1063 134.657 46.1063 134.477C46.1063 134.082 45.9509 133.776 45.6401 133.56C45.3325 133.341 44.9351 133.231 44.4476 133.231H44.1434V132.475H44.4182C44.6864 132.475 44.9187 132.439 45.115 132.367C45.3113 132.292 45.4749 132.194 45.6057 132.073C45.7366 131.952 45.8331 131.816 45.8952 131.666C45.9607 131.515 45.9934 131.363 45.9934 131.209C45.9934 131.062 45.9623 130.918 45.9001 130.777C45.8413 130.637 45.7546 130.511 45.6401 130.399C45.5288 130.288 45.3849 130.202 45.2082 130.139C45.0348 130.077 44.8386 130.046 44.6194 130.046C44.2301 130.046 43.8996 130.146 43.6281 130.345C43.3566 130.545 43.157 130.794 43.0294 131.091L42.3081 130.738C42.5076 130.277 42.8135 129.92 43.2257 129.668C43.6379 129.416 44.1025 129.29 44.6194 129.29C44.9465 129.29 45.2475 129.338 45.5223 129.433C45.7971 129.524 46.0343 129.657 46.2338 129.83C46.4367 130 46.5937 130.202 46.7049 130.434C46.8194 130.663 46.8767 130.911 46.8767 131.18C46.8767 131.396 46.8423 131.592 46.7736 131.769C46.7082 131.945 46.6166 132.104 46.4988 132.245C46.3843 132.385 46.2453 132.503 46.0817 132.598C45.9214 132.689 45.7513 132.753 45.5714 132.789C45.7807 132.822 45.9738 132.889 46.1504 132.99C46.3271 133.089 46.4792 133.211 46.6068 133.359C46.7344 133.506 46.8342 133.676 46.9061 133.869C46.9814 134.059 47.019 134.258 47.019 134.468C47.019 134.801 46.9536 135.096 46.8227 135.351C46.6918 135.606 46.5136 135.82 46.2878 135.994C46.0654 136.167 45.8085 136.298 45.5174 136.386C45.2262 136.471 44.9187 136.514 44.5948 136.514C44.019 136.514 43.5038 136.381 43.0491 136.116C42.5943 135.848 42.2721 135.465 42.0823 134.968L42.8871 134.615ZM50.7534 135.753C50.9824 135.753 51.1951 135.693 51.3913 135.572C51.5909 135.451 51.761 135.277 51.9017 135.052C52.0456 134.822 52.1585 134.543 52.2403 134.212C52.3221 133.879 52.363 133.501 52.363 133.079V132.725C52.363 132.303 52.3221 131.927 52.2403 131.597C52.1585 131.266 52.0456 130.987 51.9017 130.758C51.761 130.529 51.5909 130.355 51.3913 130.238C51.1951 130.116 50.9824 130.056 50.7534 130.056C50.5211 130.056 50.3068 130.116 50.1106 130.238C49.9143 130.355 49.7441 130.529 49.6002 130.758C49.4595 130.987 49.3483 131.266 49.2665 131.597C49.1847 131.927 49.1438 132.303 49.1438 132.725V133.079C49.1438 133.501 49.1847 133.879 49.2665 134.212C49.3483 134.543 49.4595 134.822 49.6002 135.052C49.7441 135.277 49.9143 135.451 50.1106 135.572C50.3068 135.693 50.5211 135.753 50.7534 135.753ZM50.7534 129.29C51.0544 129.29 51.3259 129.338 51.568 129.433C51.8101 129.528 52.0227 129.658 52.2059 129.825C52.3924 129.989 52.5511 130.185 52.6819 130.414C52.8161 130.643 52.9257 130.892 53.0107 131.16C53.0958 131.425 53.1579 131.706 53.1972 132.004C53.2365 132.302 53.2561 132.603 53.2561 132.907C53.2561 133.211 53.2365 133.512 53.1972 133.81C53.1579 134.104 53.0958 134.386 53.0107 134.654C52.9257 134.919 52.8161 135.166 52.6819 135.395C52.5511 135.621 52.3924 135.817 52.2059 135.984C52.0227 136.151 51.8101 136.282 51.568 136.376C51.3259 136.468 51.0544 136.514 50.7534 136.514C50.4524 136.514 50.1809 136.468 49.9388 136.376C49.6967 136.282 49.4824 136.151 49.296 135.984C49.1128 135.817 48.9541 135.621 48.82 135.395C48.6891 135.166 48.5811 134.919 48.4961 134.654C48.411 134.386 48.3489 134.104 48.3096 133.81C48.2703 133.512 48.2507 133.211 48.2507 132.907C48.2507 132.603 48.2703 132.302 48.3096 132.004C48.3489 131.706 48.411 131.425 48.4961 131.16C48.5811 130.892 48.6891 130.643 48.82 130.414C48.9541 130.185 49.1128 129.989 49.296 129.825C49.4824 129.658 49.6967 129.528 49.9388 129.433C50.1809 129.338 50.4524 129.29 50.7534 129.29Z" fill="#0B0C0C"/>
<path d="M31.6398 184.847C31.7739 185.184 31.9783 185.461 32.2532 185.677C32.528 185.889 32.8927 185.996 33.3475 185.996C33.5961 185.996 33.8137 185.963 34.0001 185.897C34.1899 185.829 34.3485 185.735 34.4761 185.618C34.6037 185.5 34.6986 185.364 34.7607 185.21C34.8262 185.057 34.8589 184.89 34.8589 184.71C34.8589 184.314 34.7035 184.008 34.3927 183.792C34.0852 183.573 33.6877 183.463 33.2002 183.463H32.896V182.708H33.1708C33.4391 182.708 33.6713 182.672 33.8676 182.6C34.0639 182.525 34.2275 182.426 34.3584 182.305C34.4892 182.184 34.5857 182.049 34.6479 181.898C34.7133 181.748 34.746 181.595 34.746 181.442C34.746 181.294 34.7149 181.15 34.6528 181.01C34.5939 180.869 34.5072 180.743 34.3927 180.632C34.2815 180.521 34.1375 180.434 33.9609 180.372C33.7875 180.31 33.5912 180.279 33.372 180.279C32.9827 180.279 32.6523 180.378 32.3807 180.578C32.1092 180.778 31.9096 181.026 31.7821 181.324L31.0607 180.971C31.2603 180.509 31.5661 180.153 31.9783 179.901C32.3906 179.649 32.8551 179.523 33.372 179.523C33.6991 179.523 34.0001 179.57 34.2749 179.665C34.5497 179.757 34.7869 179.889 34.9865 180.063C35.1893 180.233 35.3463 180.434 35.4576 180.666C35.5721 180.895 35.6293 181.144 35.6293 181.412C35.6293 181.628 35.595 181.824 35.5263 182.001C35.4608 182.178 35.3692 182.336 35.2515 182.477C35.137 182.618 34.9979 182.736 34.8344 182.83C34.6741 182.922 34.5039 182.986 34.324 183.022C34.5334 183.054 34.7264 183.122 34.9031 183.223C35.0797 183.321 35.2318 183.444 35.3594 183.591C35.487 183.738 35.5868 183.908 35.6588 184.101C35.734 184.291 35.7716 184.491 35.7716 184.7C35.7716 185.034 35.7062 185.328 35.5753 185.583C35.4445 185.839 35.2662 186.053 35.0405 186.226C34.818 186.4 34.5612 186.53 34.27 186.619C33.9789 186.704 33.6713 186.746 33.3475 186.746C32.7717 186.746 32.2564 186.614 31.8017 186.349C31.347 186.081 31.0247 185.698 30.835 185.201L31.6398 184.847ZM36.9641 180.75C37.1931 180.75 37.3796 180.732 37.5235 180.696C37.6675 180.657 37.7787 180.596 37.8572 180.514C37.9357 180.432 37.9881 180.328 38.0142 180.2C38.0437 180.069 38.0584 179.911 38.0584 179.724V179.611H38.8926V186.648H38.029V181.481H36.6598V180.75H36.9641ZM40.2617 183.414H42.3719V184.136H40.2617V183.414ZM43.8882 184.847C44.0223 185.184 44.2268 185.461 44.5016 185.677C44.7764 185.889 45.1412 185.996 45.5959 185.996C45.8445 185.996 46.0621 185.963 46.2486 185.897C46.4383 185.829 46.597 185.735 46.7246 185.618C46.8522 185.5 46.947 185.364 47.0092 185.21C47.0746 185.057 47.1073 184.89 47.1073 184.71C47.1073 184.314 46.9519 184.008 46.6411 183.792C46.3336 183.573 45.9361 183.463 45.4487 183.463H45.1444V182.708H45.4192C45.6875 182.708 45.9198 182.672 46.1161 182.6C46.3124 182.525 46.4759 182.426 46.6068 182.305C46.7377 182.184 46.8342 182.049 46.8963 181.898C46.9617 181.748 46.9945 181.595 46.9945 181.442C46.9945 181.294 46.9634 181.15 46.9012 181.01C46.8423 180.869 46.7556 180.743 46.6411 180.632C46.5299 180.521 46.386 180.434 46.2093 180.372C46.0359 180.31 45.8396 180.279 45.6204 180.279C45.2311 180.279 44.9007 180.378 44.6292 180.578C44.3576 180.778 44.1581 181.026 44.0305 181.324L43.3091 180.971C43.5087 180.509 43.8146 180.153 44.2268 179.901C44.639 179.649 45.1035 179.523 45.6204 179.523C45.9476 179.523 46.2486 179.57 46.5234 179.665C46.7982 179.757 47.0354 179.889 47.2349 180.063C47.4377 180.233 47.5948 180.434 47.706 180.666C47.8205 180.895 47.8778 181.144 47.8778 181.412C47.8778 181.628 47.8434 181.824 47.7747 182.001C47.7093 182.178 47.6177 182.336 47.4999 182.477C47.3854 182.618 47.2464 182.736 47.0828 182.83C46.9225 182.922 46.7524 182.986 46.5724 183.022C46.7818 183.054 46.9748 183.122 47.1515 183.223C47.3282 183.321 47.4803 183.444 47.6079 183.591C47.7355 183.738 47.8352 183.908 47.9072 184.101C47.9825 184.291 48.0201 184.491 48.0201 184.7C48.0201 185.034 47.9546 185.328 47.8238 185.583C47.6929 185.839 47.5146 186.053 47.2889 186.226C47.0664 186.4 46.8096 186.53 46.5185 186.619C46.2273 186.704 45.9198 186.746 45.5959 186.746C45.0201 186.746 44.5049 186.614 44.0501 186.349C43.5954 186.081 43.2731 185.698 43.0834 185.201L43.8882 184.847ZM52.7016 180.396H48.9721V179.611H53.5849V180.396L50.9693 186.648H50.0075L52.7016 180.396Z" fill="#0B0C0C"/>
<path d="M59.769 276.402C59.998 276.402 60.2106 276.341 60.4069 276.22C60.6065 276.099 60.7766 275.926 60.9173 275.7C61.0612 275.471 61.1741 275.192 61.2559 274.861C61.3377 274.527 61.3786 274.15 61.3786 273.728V273.374C61.3786 272.952 61.3377 272.576 61.2559 272.246C61.1741 271.915 61.0612 271.635 60.9173 271.406C60.7766 271.177 60.6065 271.004 60.4069 270.886C60.2106 270.765 59.998 270.705 59.769 270.705C59.5367 270.705 59.3224 270.765 59.1261 270.886C58.9298 271.004 58.7597 271.177 58.6158 271.406C58.4751 271.635 58.3639 271.915 58.2821 272.246C58.2003 272.576 58.1594 272.952 58.1594 273.374V273.728C58.1594 274.15 58.2003 274.527 58.2821 274.861C58.3639 275.192 58.4751 275.471 58.6158 275.7C58.7597 275.926 58.9298 276.099 59.1261 276.22C59.3224 276.341 59.5367 276.402 59.769 276.402ZM59.769 269.939C60.07 269.939 60.3415 269.987 60.5836 270.081C60.8257 270.176 61.0383 270.307 61.2215 270.474C61.408 270.638 61.5667 270.834 61.6975 271.063C61.8317 271.292 61.9412 271.541 62.0263 271.809C62.1114 272.074 62.1735 272.355 62.2128 272.653C62.252 272.951 62.2717 273.252 62.2717 273.556C62.2717 273.86 62.252 274.161 62.2128 274.459C62.1735 274.753 62.1114 275.034 62.0263 275.303C61.9412 275.568 61.8317 275.815 61.6975 276.044C61.5667 276.269 61.408 276.466 61.2215 276.633C61.0383 276.799 60.8257 276.93 60.5836 277.025C60.3415 277.117 60.07 277.163 59.769 277.163C59.468 277.163 59.1965 277.117 58.9544 277.025C58.7123 276.93 58.498 276.799 58.3115 276.633C58.1283 276.466 57.9697 276.269 57.8355 276.044C57.7047 275.815 57.5967 275.568 57.5117 275.303C57.4266 275.034 57.3644 274.753 57.3252 274.459C57.2859 274.161 57.2663 273.86 57.2663 273.556C57.2663 273.252 57.2859 272.951 57.3252 272.653C57.3644 272.355 57.4266 272.074 57.5117 271.809C57.5967 271.541 57.7047 271.292 57.8355 271.063C57.9697 270.834 58.1283 270.638 58.3115 270.474C58.498 270.307 58.7123 270.176 58.9544 270.081C59.1965 269.987 59.468 269.939 59.769 269.939Z" fill="#0B0C0C"/>
<path d="M145.319 276.309H148.828V277.064H144.141V276.24C144.59 275.939 144.994 275.661 145.353 275.406C145.713 275.151 146.031 274.91 146.305 274.684C146.58 274.455 146.816 274.238 147.012 274.032C147.212 273.826 147.375 273.621 147.503 273.418C147.63 273.216 147.724 273.011 147.783 272.805C147.841 272.599 147.871 272.381 147.871 272.152C147.871 271.956 147.837 271.77 147.768 271.593C147.702 271.416 147.606 271.262 147.478 271.132C147.354 270.997 147.199 270.891 147.012 270.813C146.829 270.734 146.62 270.695 146.384 270.695C146.194 270.695 146.011 270.723 145.834 270.778C145.661 270.831 145.506 270.916 145.368 271.033C145.234 271.151 145.124 271.303 145.039 271.49C144.954 271.673 144.907 271.894 144.897 272.152L144.083 272.059C144.096 271.732 144.159 271.437 144.274 271.176C144.388 270.914 144.545 270.692 144.745 270.508C144.948 270.325 145.188 270.185 145.466 270.086C145.748 269.988 146.06 269.939 146.404 269.939C146.737 269.939 147.046 269.995 147.331 270.106C147.619 270.214 147.868 270.366 148.077 270.562C148.29 270.759 148.455 270.991 148.573 271.259C148.694 271.527 148.754 271.82 148.754 272.138C148.754 272.514 148.689 272.867 148.558 273.198C148.43 273.528 148.234 273.853 147.969 274.174C147.704 274.491 147.367 274.812 146.958 275.136C146.552 275.46 146.073 275.802 145.52 276.162L145.319 276.289V276.309ZM150.202 273.487L150.57 270.027H154.589V270.783H151.267L151.056 272.785C151.245 272.602 151.473 272.465 151.738 272.373C152.003 272.278 152.274 272.231 152.552 272.231C152.886 272.231 153.194 272.293 153.475 272.417C153.76 272.538 154.005 272.707 154.211 272.923C154.42 273.139 154.582 273.394 154.697 273.688C154.815 273.983 154.874 274.3 154.874 274.64C154.874 275.02 154.811 275.365 154.687 275.676C154.566 275.986 154.394 276.253 154.172 276.476C153.949 276.695 153.684 276.865 153.377 276.986C153.069 277.104 152.731 277.163 152.361 277.163C152.07 277.163 151.793 277.13 151.532 277.064C151.273 276.996 151.039 276.894 150.83 276.76C150.621 276.623 150.441 276.454 150.29 276.255C150.143 276.052 150.038 275.816 149.976 275.548L150.835 275.367C150.871 275.507 150.931 275.641 151.016 275.769C151.101 275.893 151.209 276.004 151.34 276.103C151.471 276.198 151.622 276.273 151.792 276.328C151.962 276.384 152.152 276.412 152.361 276.412C152.613 276.412 152.839 276.369 153.038 276.284C153.238 276.199 153.406 276.081 153.544 275.931C153.681 275.777 153.786 275.596 153.858 275.386C153.933 275.177 153.971 274.949 153.971 274.704C153.971 274.449 153.933 274.217 153.858 274.007C153.786 273.798 153.679 273.618 153.539 273.467C153.401 273.314 153.233 273.196 153.033 273.114C152.834 273.029 152.606 272.987 152.351 272.987C152.23 272.987 152.106 273.001 151.978 273.031C151.854 273.06 151.733 273.101 151.615 273.153C151.501 273.206 151.393 273.27 151.291 273.345C151.19 273.42 151.103 273.503 151.031 273.595L150.202 273.487ZM161.204 270.027H162.009L157.725 277.064H156.92L161.204 270.027ZM157.572 273.247C157.34 273.247 157.123 273.204 156.92 273.119C156.72 273.034 156.544 272.918 156.39 272.771C156.239 272.62 156.12 272.443 156.032 272.241C155.947 272.038 155.904 271.82 155.904 271.588C155.904 271.356 155.947 271.14 156.032 270.94C156.12 270.737 156.239 270.562 156.39 270.415C156.544 270.268 156.72 270.152 156.92 270.067C157.123 269.982 157.34 269.939 157.572 269.939C157.808 269.939 158.027 269.982 158.23 270.067C158.433 270.152 158.61 270.268 158.76 270.415C158.914 270.562 159.033 270.737 159.118 270.94C159.207 271.14 159.251 271.356 159.251 271.588C159.251 271.82 159.207 272.038 159.118 272.241C159.033 272.443 158.914 272.62 158.76 272.771C158.61 272.918 158.433 273.034 158.23 273.119C158.027 273.204 157.808 273.247 157.572 273.247ZM157.572 270.651C157.438 270.651 157.316 270.674 157.204 270.719C157.096 270.765 157.003 270.831 156.925 270.916C156.846 270.997 156.786 271.096 156.743 271.21C156.701 271.325 156.679 271.451 156.679 271.588C156.679 271.722 156.701 271.848 156.743 271.966C156.786 272.08 156.846 272.18 156.925 272.265C157.003 272.347 157.096 272.412 157.204 272.461C157.316 272.507 157.438 272.53 157.572 272.53C157.71 272.53 157.834 272.507 157.945 272.461C158.06 272.412 158.156 272.347 158.235 272.265C158.313 272.18 158.374 272.08 158.417 271.966C158.459 271.848 158.48 271.722 158.48 271.588C158.48 271.451 158.459 271.325 158.417 271.21C158.374 271.096 158.313 270.997 158.235 270.916C158.156 270.831 158.06 270.765 157.945 270.719C157.834 270.674 157.71 270.651 157.572 270.651ZM161.405 277.163C161.173 277.163 160.955 277.12 160.752 277.035C160.55 276.95 160.373 276.834 160.222 276.687C160.072 276.536 159.952 276.361 159.864 276.162C159.779 275.959 159.737 275.741 159.737 275.509C159.737 275.277 159.779 275.061 159.864 274.861C159.952 274.658 160.072 274.483 160.222 274.336C160.373 274.189 160.55 274.073 160.752 273.988C160.955 273.903 161.173 273.86 161.405 273.86C161.637 273.86 161.855 273.903 162.058 273.988C162.264 274.073 162.442 274.189 162.593 274.336C162.746 274.483 162.866 274.658 162.951 274.861C163.039 275.061 163.083 275.277 163.083 275.509C163.083 275.741 163.039 275.959 162.951 276.162C162.866 276.361 162.746 276.536 162.593 276.687C162.442 276.834 162.264 276.95 162.058 277.035C161.855 277.12 161.637 277.163 161.405 277.163ZM161.405 274.572C161.268 274.572 161.143 274.594 161.032 274.64C160.924 274.686 160.831 274.752 160.752 274.837C160.674 274.918 160.613 275.017 160.571 275.131C160.528 275.246 160.507 275.371 160.507 275.509C160.507 275.643 160.528 275.769 160.571 275.887C160.613 276.001 160.674 276.101 160.752 276.186C160.831 276.268 160.924 276.333 161.032 276.382C161.143 276.428 161.268 276.451 161.405 276.451C161.542 276.451 161.667 276.428 161.778 276.382C161.889 276.333 161.984 276.268 162.063 276.186C162.141 276.101 162.202 276.001 162.244 275.887C162.287 275.769 162.308 275.643 162.308 275.509C162.308 275.371 162.287 275.246 162.244 275.131C162.202 275.017 162.141 274.918 162.063 274.837C161.984 274.752 161.889 274.686 161.778 274.64C161.667 274.594 161.542 274.572 161.405 274.572Z" fill="#0B0C0C"/>
<path d="M236.981 273.487L237.349 270.027H241.368V270.783H238.046L237.835 272.785C238.024 272.602 238.252 272.465 238.517 272.373C238.782 272.278 239.053 272.231 239.331 272.231C239.665 272.231 239.972 272.293 240.254 272.417C240.538 272.538 240.784 272.707 240.99 272.923C241.199 273.139 241.361 273.394 241.476 273.688C241.593 273.983 241.652 274.3 241.652 274.64C241.652 275.02 241.59 275.365 241.466 275.676C241.345 275.986 241.173 276.253 240.951 276.476C240.728 276.695 240.463 276.865 240.156 276.986C239.848 277.104 239.51 277.163 239.14 277.163C238.849 277.163 238.572 277.13 238.311 277.064C238.052 276.996 237.818 276.894 237.609 276.76C237.399 276.623 237.219 276.454 237.069 276.255C236.922 276.052 236.817 275.816 236.755 275.548L237.614 275.367C237.65 275.507 237.71 275.641 237.795 275.769C237.88 275.893 237.988 276.004 238.119 276.103C238.25 276.198 238.4 276.273 238.571 276.328C238.741 276.384 238.93 276.412 239.14 276.412C239.392 276.412 239.617 276.369 239.817 276.284C240.017 276.199 240.185 276.081 240.322 275.931C240.46 275.777 240.565 275.596 240.637 275.386C240.712 275.177 240.749 274.949 240.749 274.704C240.749 274.449 240.712 274.217 240.637 274.007C240.565 273.798 240.458 273.618 240.318 273.467C240.18 273.314 240.012 273.196 239.812 273.114C239.613 273.029 239.385 272.987 239.13 272.987C239.009 272.987 238.885 273.001 238.757 273.031C238.633 273.06 238.512 273.101 238.394 273.153C238.279 273.206 238.171 273.27 238.07 273.345C237.969 273.42 237.882 273.503 237.81 273.595L236.981 273.487ZM245.338 276.402C245.567 276.402 245.779 276.341 245.976 276.22C246.175 276.099 246.345 275.926 246.486 275.7C246.63 275.471 246.743 275.192 246.825 274.861C246.906 274.527 246.947 274.15 246.947 273.728V273.374C246.947 272.952 246.906 272.576 246.825 272.246C246.743 271.915 246.63 271.635 246.486 271.406C246.345 271.177 246.175 271.004 245.976 270.886C245.779 270.765 245.567 270.705 245.338 270.705C245.105 270.705 244.891 270.765 244.695 270.886C244.499 271.004 244.328 271.177 244.184 271.406C244.044 271.635 243.933 271.915 243.851 272.246C243.769 272.576 243.728 272.952 243.728 273.374V273.728C243.728 274.15 243.769 274.527 243.851 274.861C243.933 275.192 244.044 275.471 244.184 275.7C244.328 275.926 244.499 276.099 244.695 276.22C244.891 276.341 245.105 276.402 245.338 276.402ZM245.338 269.939C245.639 269.939 245.91 269.987 246.152 270.081C246.394 270.176 246.607 270.307 246.79 270.474C246.977 270.638 247.135 270.834 247.266 271.063C247.4 271.292 247.51 271.541 247.595 271.809C247.68 272.074 247.742 272.355 247.781 272.653C247.821 272.951 247.84 273.252 247.84 273.556C247.84 273.86 247.821 274.161 247.781 274.459C247.742 274.753 247.68 275.034 247.595 275.303C247.51 275.568 247.4 275.815 247.266 276.044C247.135 276.269 246.977 276.466 246.79 276.633C246.607 276.799 246.394 276.93 246.152 277.025C245.91 277.117 245.639 277.163 245.338 277.163C245.037 277.163 244.765 277.117 244.523 277.025C244.281 276.93 244.067 276.799 243.88 276.633C243.697 276.466 243.538 276.269 243.404 276.044C243.273 275.815 243.165 275.568 243.08 275.303C242.995 275.034 242.933 274.753 242.894 274.459C242.855 274.161 242.835 273.86 242.835 273.556C242.835 273.252 242.855 272.951 242.894 272.653C242.933 272.355 242.995 272.074 243.08 271.809C243.165 271.541 243.273 271.292 243.404 271.063C243.538 270.834 243.697 270.638 243.88 270.474C244.067 270.307 244.281 270.176 244.523 270.081C244.765 269.987 245.037 269.939 245.338 269.939ZM254.293 270.027H255.098L250.814 277.064H250.009L254.293 270.027ZM250.662 273.247C250.43 273.247 250.212 273.204 250.009 273.119C249.81 273.034 249.633 272.918 249.479 272.771C249.329 272.62 249.209 272.443 249.121 272.241C249.036 272.038 248.994 271.82 248.994 271.588C248.994 271.356 249.036 271.14 249.121 270.94C249.209 270.737 249.329 270.562 249.479 270.415C249.633 270.268 249.81 270.152 250.009 270.067C250.212 269.982 250.43 269.939 250.662 269.939C250.898 269.939 251.117 269.982 251.32 270.067C251.522 270.152 251.699 270.268 251.85 270.415C252.003 270.562 252.123 270.737 252.208 270.94C252.296 271.14 252.34 271.356 252.34 271.588C252.34 271.82 252.296 272.038 252.208 272.241C252.123 272.443 252.003 272.62 251.85 272.771C251.699 272.918 251.522 273.034 251.32 273.119C251.117 273.204 250.898 273.247 250.662 273.247ZM250.662 270.651C250.528 270.651 250.405 270.674 250.294 270.719C250.186 270.765 250.093 270.831 250.014 270.916C249.936 270.997 249.875 271.096 249.833 271.21C249.79 271.325 249.769 271.451 249.769 271.588C249.769 271.722 249.79 271.848 249.833 271.966C249.875 272.08 249.936 272.18 250.014 272.265C250.093 272.347 250.186 272.412 250.294 272.461C250.405 272.507 250.528 272.53 250.662 272.53C250.799 272.53 250.924 272.507 251.035 272.461C251.149 272.412 251.246 272.347 251.324 272.265C251.403 272.18 251.464 272.08 251.506 271.966C251.549 271.848 251.57 271.722 251.57 271.588C251.57 271.451 251.549 271.325 251.506 271.21C251.464 271.096 251.403 270.997 251.324 270.916C251.246 270.831 251.149 270.765 251.035 270.719C250.924 270.674 250.799 270.651 250.662 270.651ZM254.495 277.163C254.262 277.163 254.045 277.12 253.842 277.035C253.639 276.95 253.462 276.834 253.312 276.687C253.161 276.536 253.042 276.361 252.954 276.162C252.869 275.959 252.826 275.741 252.826 275.509C252.826 275.277 252.869 275.061 252.954 274.861C253.042 274.658 253.161 274.483 253.312 274.336C253.462 274.189 253.639 274.073 253.842 273.988C254.045 273.903 254.262 273.86 254.495 273.86C254.727 273.86 254.944 273.903 255.147 273.988C255.353 274.073 255.532 274.189 255.682 274.336C255.836 274.483 255.955 274.658 256.04 274.861C256.129 275.061 256.173 275.277 256.173 275.509C256.173 275.741 256.129 275.959 256.04 276.162C255.955 276.361 255.836 276.536 255.682 276.687C255.532 276.834 255.353 276.95 255.147 277.035C254.944 277.12 254.727 277.163 254.495 277.163ZM254.495 274.572C254.357 274.572 254.233 274.594 254.122 274.64C254.014 274.686 253.92 274.752 253.842 274.837C253.763 274.918 253.703 275.017 253.66 275.131C253.618 275.246 253.597 275.371 253.597 275.509C253.597 275.643 253.618 275.769 253.66 275.887C253.703 276.001 253.763 276.101 253.842 276.186C253.92 276.268 254.014 276.333 254.122 276.382C254.233 276.428 254.357 276.451 254.495 276.451C254.632 276.451 254.756 276.428 254.867 276.382C254.979 276.333 255.074 276.268 255.152 276.186C255.231 276.101 255.291 276.001 255.334 275.887C255.376 275.769 255.397 275.643 255.397 275.509C255.397 275.371 255.376 275.246 255.334 275.131C255.291 275.017 255.231 274.918 255.152 274.837C255.074 274.752 254.979 274.686 254.867 274.64C254.756 274.594 254.632 274.572 254.495 274.572Z" fill="#0B0C0C"/>
<path d="M333.775 270.813H330.046V270.027H334.659V270.813L332.043 277.064H331.081L333.775 270.813ZM335.719 273.487L336.087 270.027H340.106V270.783H336.784L336.573 272.785C336.762 272.602 336.99 272.465 337.255 272.373C337.52 272.278 337.791 272.231 338.069 272.231C338.403 272.231 338.71 272.293 338.992 272.417C339.276 272.538 339.522 272.707 339.728 272.923C339.937 273.139 340.099 273.394 340.214 273.688C340.331 273.983 340.39 274.3 340.39 274.64C340.39 275.02 340.328 275.365 340.204 275.676C340.083 275.986 339.911 276.253 339.689 276.476C339.466 276.695 339.201 276.865 338.894 276.986C338.586 277.104 338.248 277.163 337.878 277.163C337.587 277.163 337.31 277.13 337.049 277.064C336.79 276.996 336.556 276.894 336.347 276.76C336.137 276.623 335.958 276.454 335.807 276.255C335.66 276.052 335.555 275.816 335.493 275.548L336.352 275.367C336.388 275.507 336.448 275.641 336.533 275.769C336.618 275.893 336.726 276.004 336.857 276.103C336.988 276.198 337.139 276.273 337.309 276.328C337.479 276.384 337.668 276.412 337.878 276.412C338.13 276.412 338.356 276.369 338.555 276.284C338.755 276.199 338.923 276.081 339.061 275.931C339.198 275.777 339.303 275.596 339.375 275.386C339.45 275.177 339.487 274.949 339.487 274.704C339.487 274.449 339.45 274.217 339.375 274.007C339.303 273.798 339.196 273.618 339.056 273.467C338.918 273.314 338.75 273.196 338.55 273.114C338.351 273.029 338.123 272.987 337.868 272.987C337.747 272.987 337.623 273.001 337.495 273.031C337.371 273.06 337.25 273.101 337.132 273.153C337.017 273.206 336.91 273.27 336.808 273.345C336.707 273.42 336.62 273.503 336.548 273.595L335.719 273.487ZM346.721 270.027H347.525L343.241 277.064H342.437L346.721 270.027ZM343.089 273.247C342.857 273.247 342.64 273.204 342.437 273.119C342.237 273.034 342.06 272.918 341.907 272.771C341.756 272.62 341.637 272.443 341.548 272.241C341.463 272.038 341.421 271.82 341.421 271.588C341.421 271.356 341.463 271.14 341.548 270.94C341.637 270.737 341.756 270.562 341.907 270.415C342.06 270.268 342.237 270.152 342.437 270.067C342.64 269.982 342.857 269.939 343.089 269.939C343.325 269.939 343.544 269.982 343.747 270.067C343.95 270.152 344.126 270.268 344.277 270.415C344.431 270.562 344.55 270.737 344.635 270.94C344.723 271.14 344.768 271.356 344.768 271.588C344.768 271.82 344.723 272.038 344.635 272.241C344.55 272.443 344.431 272.62 344.277 272.771C344.126 272.918 343.95 273.034 343.747 273.119C343.544 273.204 343.325 273.247 343.089 273.247ZM343.089 270.651C342.955 270.651 342.833 270.674 342.721 270.719C342.613 270.765 342.52 270.831 342.442 270.916C342.363 270.997 342.303 271.096 342.26 271.21C342.217 271.325 342.196 271.451 342.196 271.588C342.196 271.722 342.217 271.848 342.26 271.966C342.303 272.08 342.363 272.18 342.442 272.265C342.52 272.347 342.613 272.412 342.721 272.461C342.833 272.507 342.955 272.53 343.089 272.53C343.227 272.53 343.351 272.507 343.462 272.461C343.577 272.412 343.673 272.347 343.752 272.265C343.83 272.18 343.891 272.08 343.933 271.966C343.976 271.848 343.997 271.722 343.997 271.588C343.997 271.451 343.976 271.325 343.933 271.21C343.891 271.096 343.83 270.997 343.752 270.916C343.673 270.831 343.577 270.765 343.462 270.719C343.351 270.674 343.227 270.651 343.089 270.651ZM346.922 277.163C346.69 277.163 346.472 277.12 346.269 277.035C346.066 276.95 345.89 276.834 345.739 276.687C345.589 276.536 345.469 276.361 345.381 276.162C345.296 275.959 345.253 275.741 345.253 275.509C345.253 275.277 345.296 275.061 345.381 274.861C345.469 274.658 345.589 274.483 345.739 274.336C345.89 274.189 346.066 274.073 346.269 273.988C346.472 273.903 346.69 273.86 346.922 273.86C347.154 273.86 347.372 273.903 347.575 273.988C347.781 274.073 347.959 274.189 348.109 274.336C348.263 274.483 348.383 274.658 348.468 274.861C348.556 275.061 348.6 275.277 348.6 275.509C348.6 275.741 348.556 275.959 348.468 276.162C348.383 276.361 348.263 276.536 348.109 276.687C347.959 276.834 347.781 276.95 347.575 277.035C347.372 277.12 347.154 277.163 346.922 277.163ZM346.922 274.572C346.784 274.572 346.66 274.594 346.549 274.64C346.441 274.686 346.348 274.752 346.269 274.837C346.191 274.918 346.13 275.017 346.088 275.131C346.045 275.246 346.024 275.371 346.024 275.509C346.024 275.643 346.045 275.769 346.088 275.887C346.13 276.001 346.191 276.101 346.269 276.186C346.348 276.268 346.441 276.333 346.549 276.382C346.66 276.428 346.784 276.451 346.922 276.451C347.059 276.451 347.184 276.428 347.295 276.382C347.406 276.333 347.501 276.268 347.579 276.186C347.658 276.101 347.718 276.001 347.761 275.887C347.804 275.769 347.825 275.643 347.825 275.509C347.825 275.371 347.804 275.246 347.761 275.131C347.718 275.017 347.658 274.918 347.579 274.837C347.501 274.752 347.406 274.686 347.295 274.64C347.184 274.594 347.059 274.572 346.922 274.572Z" fill="#0B0C0C"/>
<path d="M424.022 271.166C424.251 271.166 424.437 271.148 424.581 271.112C424.725 271.073 424.836 271.012 424.915 270.93C424.993 270.849 425.046 270.744 425.072 270.616C425.101 270.485 425.116 270.327 425.116 270.14V270.027H425.95V277.064H425.087V271.897H423.717V271.166H424.022ZM430.273 276.402C430.502 276.402 430.715 276.341 430.911 276.22C431.111 276.099 431.281 275.926 431.422 275.7C431.566 275.471 431.679 275.192 431.76 274.861C431.842 274.527 431.883 274.15 431.883 273.728V273.374C431.883 272.952 431.842 272.576 431.76 272.246C431.679 271.915 431.566 271.635 431.422 271.406C431.281 271.177 431.111 271.004 430.911 270.886C430.715 270.765 430.502 270.705 430.273 270.705C430.041 270.705 429.827 270.765 429.631 270.886C429.434 271.004 429.264 271.177 429.12 271.406C428.98 271.635 428.868 271.915 428.787 272.246C428.705 272.576 428.664 272.952 428.664 273.374V273.728C428.664 274.15 428.705 274.527 428.787 274.861C428.868 275.192 428.98 275.471 429.12 275.7C429.264 275.926 429.434 276.099 429.631 276.22C429.827 276.341 430.041 276.402 430.273 276.402ZM430.273 269.939C430.574 269.939 430.846 269.987 431.088 270.081C431.33 270.176 431.543 270.307 431.726 270.474C431.912 270.638 432.071 270.834 432.202 271.063C432.336 271.292 432.446 271.541 432.531 271.809C432.616 272.074 432.678 272.355 432.717 272.653C432.756 272.951 432.776 273.252 432.776 273.556C432.776 273.86 432.756 274.161 432.717 274.459C432.678 274.753 432.616 275.034 432.531 275.303C432.446 275.568 432.336 275.815 432.202 276.044C432.071 276.269 431.912 276.466 431.726 276.633C431.543 276.799 431.33 276.93 431.088 277.025C430.846 277.117 430.574 277.163 430.273 277.163C429.972 277.163 429.701 277.117 429.459 277.025C429.217 276.93 429.002 276.799 428.816 276.633C428.633 276.466 428.474 276.269 428.34 276.044C428.209 275.815 428.101 275.568 428.016 275.303C427.931 275.034 427.869 274.753 427.83 274.459C427.79 274.161 427.771 273.86 427.771 273.556C427.771 273.252 427.79 272.951 427.83 272.653C427.869 272.355 427.931 272.074 428.016 271.809C428.101 271.541 428.209 271.292 428.34 271.063C428.474 270.834 428.633 270.638 428.816 270.474C429.002 270.307 429.217 270.176 429.459 270.081C429.701 269.987 429.972 269.939 430.273 269.939ZM436.584 276.402C436.813 276.402 437.026 276.341 437.222 276.22C437.422 276.099 437.592 275.926 437.732 275.7C437.876 275.471 437.989 275.192 438.071 274.861C438.153 274.527 438.194 274.15 438.194 273.728V273.374C438.194 272.952 438.153 272.576 438.071 272.246C437.989 271.915 437.876 271.635 437.732 271.406C437.592 271.177 437.422 271.004 437.222 270.886C437.026 270.765 436.813 270.705 436.584 270.705C436.352 270.705 436.138 270.765 435.941 270.886C435.745 271.004 435.575 271.177 435.431 271.406C435.29 271.635 435.179 271.915 435.097 272.246C435.015 272.576 434.975 272.952 434.975 273.374V273.728C434.975 274.15 435.015 274.527 435.097 274.861C435.179 275.192 435.29 275.471 435.431 275.7C435.575 275.926 435.745 276.099 435.941 276.22C436.138 276.341 436.352 276.402 436.584 276.402ZM436.584 269.939C436.885 269.939 437.157 269.987 437.399 270.081C437.641 270.176 437.853 270.307 438.037 270.474C438.223 270.638 438.382 270.834 438.513 271.063C438.647 271.292 438.756 271.541 438.841 271.809C438.927 272.074 438.989 272.355 439.028 272.653C439.067 272.951 439.087 273.252 439.087 273.556C439.087 273.86 439.067 274.161 439.028 274.459C438.989 274.753 438.927 275.034 438.841 275.303C438.756 275.568 438.647 275.815 438.513 276.044C438.382 276.269 438.223 276.466 438.037 276.633C437.853 276.799 437.641 276.93 437.399 277.025C437.157 277.117 436.885 277.163 436.584 277.163C436.283 277.163 436.012 277.117 435.77 277.025C435.527 276.93 435.313 276.799 435.127 276.633C434.943 276.466 434.785 276.269 434.651 276.044C434.52 275.815 434.412 275.568 434.327 275.303C434.242 275.034 434.18 274.753 434.14 274.459C434.101 274.161 434.081 273.86 434.081 273.556C434.081 273.252 434.101 272.951 434.14 272.653C434.18 272.355 434.242 272.074 434.327 271.809C434.412 271.541 434.52 271.292 434.651 271.063C434.785 270.834 434.943 270.638 435.127 270.474C435.313 270.307 435.527 270.176 435.77 270.081C436.012 269.987 436.283 269.939 436.584 269.939ZM445.54 270.027H446.345L442.061 277.064H441.256L445.54 270.027ZM441.908 273.247C441.676 273.247 441.459 273.204 441.256 273.119C441.056 273.034 440.88 272.918 440.726 272.771C440.575 272.62 440.456 272.443 440.368 272.241C440.283 272.038 440.24 271.82 440.24 271.588C440.24 271.356 440.283 271.14 440.368 270.94C440.456 270.737 440.575 270.562 440.726 270.415C440.88 270.268 441.056 270.152 441.256 270.067C441.459 269.982 441.676 269.939 441.908 269.939C442.144 269.939 442.363 269.982 442.566 270.067C442.769 270.152 442.946 270.268 443.096 270.415C443.25 270.562 443.369 270.737 443.454 270.94C443.543 271.14 443.587 271.356 443.587 271.588C443.587 271.82 443.543 272.038 443.454 272.241C443.369 272.443 443.25 272.62 443.096 272.771C442.946 272.918 442.769 273.034 442.566 273.119C442.363 273.204 442.144 273.247 441.908 273.247ZM441.908 270.651C441.774 270.651 441.652 270.674 441.54 270.719C441.432 270.765 441.339 270.831 441.261 270.916C441.182 270.997 441.122 271.096 441.079 271.21C441.037 271.325 441.015 271.451 441.015 271.588C441.015 271.722 441.037 271.848 441.079 271.966C441.122 272.08 441.182 272.18 441.261 272.265C441.339 272.347 441.432 272.412 441.54 272.461C441.652 272.507 441.774 272.53 441.908 272.53C442.046 272.53 442.17 272.507 442.281 272.461C442.396 272.412 442.492 272.347 442.571 272.265C442.649 272.18 442.71 272.08 442.753 271.966C442.795 271.848 442.816 271.722 442.816 271.588C442.816 271.451 442.795 271.325 442.753 271.21C442.71 271.096 442.649 270.997 442.571 270.916C442.492 270.831 442.396 270.765 442.281 270.719C442.17 270.674 442.046 270.651 441.908 270.651ZM445.741 277.163C445.509 277.163 445.291 277.12 445.088 277.035C444.886 276.95 444.709 276.834 444.558 276.687C444.408 276.536 444.288 276.361 444.2 276.162C444.115 275.959 444.073 275.741 444.073 275.509C444.073 275.277 444.115 275.061 444.2 274.861C444.288 274.658 444.408 274.483 444.558 274.336C444.709 274.189 444.886 274.073 445.088 273.988C445.291 273.903 445.509 273.86 445.741 273.86C445.973 273.86 446.191 273.903 446.394 273.988C446.6 274.073 446.778 274.189 446.929 274.336C447.082 274.483 447.202 274.658 447.287 274.861C447.375 275.061 447.419 275.277 447.419 275.509C447.419 275.741 447.375 275.959 447.287 276.162C447.202 276.361 447.082 276.536 446.929 276.687C446.778 276.834 446.6 276.95 446.394 277.035C446.191 277.12 445.973 277.163 445.741 277.163ZM445.741 274.572C445.604 274.572 445.479 274.594 445.368 274.64C445.26 274.686 445.167 274.752 445.088 274.837C445.01 274.918 444.949 275.017 444.907 275.131C444.864 275.246 444.843 275.371 444.843 275.509C444.843 275.643 444.864 275.769 444.907 275.887C444.949 276.001 445.01 276.101 445.088 276.186C445.167 276.268 445.26 276.333 445.368 276.382C445.479 276.428 445.604 276.451 445.741 276.451C445.878 276.451 446.003 276.428 446.114 276.382C446.225 276.333 446.32 276.268 446.399 276.186C446.477 276.101 446.538 276.001 446.58 275.887C446.623 275.769 446.644 275.643 446.644 275.509C446.644 275.371 446.623 275.246 446.58 275.131C446.538 275.017 446.477 274.918 446.399 274.837C446.32 274.752 446.225 274.686 446.114 274.64C446.003 274.594 445.878 274.572 445.741 274.572Z" fill="#0B0C0C"/>
<path d="M304.935 40.963H305.853L303.669 48H302.423L300.225 40.963H301.177L303.027 47.2541H303.11L304.935 40.963ZM306.884 45.7476C306.9 45.9831 306.947 46.2007 307.026 46.4002C307.104 46.5998 307.211 46.7732 307.345 46.9204C307.482 47.0644 307.643 47.1772 307.826 47.259C308.012 47.3375 308.218 47.3768 308.444 47.3768C308.722 47.3768 308.966 47.331 309.175 47.2394C309.388 47.1445 309.583 47.0267 309.759 46.8861L310.181 47.4798C309.956 47.6598 309.694 47.8086 309.396 47.9264C309.102 48.0409 308.771 48.0981 308.405 48.0981C308.042 48.0981 307.713 48.0344 307.419 47.9068C307.124 47.7759 306.872 47.596 306.663 47.367C306.457 47.1347 306.298 46.8599 306.187 46.5426C306.076 46.2219 306.02 45.8735 306.02 45.4973C306.02 45.1146 306.074 44.7645 306.182 44.4472C306.293 44.1266 306.449 43.8518 306.648 43.6228C306.848 43.3905 307.086 43.2105 307.365 43.083C307.643 42.9521 307.952 42.8867 308.292 42.8867C308.622 42.8867 308.92 42.9521 309.185 43.083C309.45 43.2105 309.676 43.3905 309.862 43.6228C310.049 43.8518 310.191 44.1266 310.289 44.4472C310.391 44.7645 310.441 45.1113 310.441 45.4875V45.7476H306.884ZM308.263 43.608C308.053 43.608 307.867 43.6489 307.703 43.7307C307.54 43.8125 307.399 43.9221 307.281 44.0595C307.167 44.1969 307.075 44.3556 307.006 44.5355C306.941 44.7122 306.903 44.8954 306.893 45.0851H309.548C309.542 44.8921 309.507 44.7073 309.445 44.5306C309.386 44.3507 309.301 44.1936 309.19 44.0595C309.082 43.9221 308.95 43.8125 308.793 43.7307C308.639 43.6489 308.462 43.608 308.263 43.608ZM314.156 43.7209H314.024C313.811 43.7209 313.608 43.7454 313.415 43.7945C313.222 43.8436 313.052 43.9319 312.905 44.0595C312.758 44.1871 312.64 44.3621 312.551 44.5846C312.463 44.8038 312.419 45.0851 312.419 45.4286V48H311.595V42.9848H312.419V43.7798C312.481 43.6326 312.565 43.5033 312.669 43.3921C312.774 43.2809 312.892 43.1893 313.023 43.1173C313.157 43.0421 313.299 42.9865 313.45 42.9505C313.603 42.9145 313.759 42.8965 313.916 42.8965H314.156V43.7209ZM314.573 42.9848H315.506L316.742 47.1265L317.92 42.9848H318.843L317.017 48.7557C316.961 48.9324 316.889 49.0763 316.801 49.1875C316.713 49.3021 316.611 49.392 316.497 49.4574C316.386 49.5261 316.261 49.5736 316.124 49.5998C315.987 49.6259 315.841 49.639 315.687 49.639C315.55 49.639 315.407 49.6308 315.26 49.6145C315.113 49.6014 314.958 49.5818 314.794 49.5556L314.917 48.8342C314.982 48.8473 315.053 48.8588 315.128 48.8686C315.19 48.8784 315.26 48.8866 315.339 48.8931C315.417 48.8997 315.497 48.9029 315.579 48.9029C315.759 48.9029 315.898 48.8637 315.996 48.7852C316.098 48.7066 316.17 48.5791 316.212 48.4024L316.261 48.1718L314.573 42.9848ZM324.476 47.3473C324.731 47.3473 324.957 47.3146 325.153 47.2492C325.353 47.1838 325.525 47.0971 325.669 46.9891C325.816 46.8812 325.94 46.7568 326.041 46.6162C326.143 46.4755 326.223 46.3299 326.282 46.1794C326.344 46.0257 326.388 45.8735 326.414 45.723C326.444 45.5693 326.459 45.427 326.459 45.2961V45.0066H324.486V44.2803H327.229V48H326.449V47.0529C326.328 47.2459 326.19 47.4095 326.037 47.5436C325.883 47.6778 325.719 47.7857 325.546 47.8675C325.372 47.9493 325.189 48.0082 324.996 48.0442C324.806 48.0802 324.613 48.0981 324.417 48.0981C323.936 48.0981 323.509 48.0049 323.136 47.8184C322.763 47.632 322.448 47.3768 322.189 47.0529C321.934 46.729 321.739 46.3479 321.605 45.9095C321.471 45.4711 321.404 44.9984 321.404 44.4913C321.404 43.9875 321.478 43.5164 321.625 43.0781C321.772 42.6364 321.982 42.2536 322.253 41.9298C322.525 41.6026 322.852 41.3458 323.235 41.1593C323.621 40.9696 324.052 40.8747 324.53 40.8747C324.824 40.8747 325.103 40.9107 325.364 40.9827C325.629 41.0514 325.873 41.1511 326.095 41.282C326.318 41.4096 326.517 41.5634 326.694 41.7433C326.871 41.9199 327.02 42.1162 327.141 42.3322L326.409 42.7149C326.324 42.5513 326.223 42.4041 326.105 42.2733C325.987 42.1391 325.852 42.0246 325.698 41.9298C325.544 41.8349 325.371 41.7613 325.178 41.7089C324.988 41.6566 324.779 41.6304 324.55 41.6304C324.183 41.6304 323.861 41.7089 323.583 41.866C323.305 42.0197 323.071 42.2258 322.881 42.4843C322.695 42.7427 322.554 43.0421 322.459 43.3823C322.364 43.7193 322.317 44.0693 322.317 44.4324V44.5551C322.317 44.9183 322.359 45.2683 322.444 45.6053C322.533 45.9422 322.665 46.2399 322.842 46.4984C323.022 46.7536 323.248 46.9597 323.519 47.1167C323.791 47.2705 324.11 47.3473 324.476 47.3473ZM330.679 42.8867C331.026 42.8867 331.341 42.9521 331.626 43.083C331.91 43.2105 332.153 43.3905 332.352 43.6228C332.555 43.8518 332.712 44.1266 332.823 44.4472C332.934 44.7645 332.99 45.1146 332.99 45.4973C332.99 45.8735 332.934 46.2219 332.823 46.5426C332.712 46.8599 332.555 47.1347 332.352 47.367C332.153 47.596 331.91 47.7759 331.626 47.9068C331.341 48.0344 331.026 48.0981 330.679 48.0981C330.332 48.0981 330.016 48.0344 329.732 47.9068C329.45 47.7759 329.208 47.596 329.005 47.367C328.803 47.1347 328.646 46.8599 328.534 46.5426C328.423 46.2219 328.367 45.8735 328.367 45.4973C328.367 45.1146 328.423 44.7645 328.534 44.4472C328.646 44.1266 328.803 43.8518 329.005 43.6228C329.208 43.3905 329.45 43.2105 329.732 43.083C330.016 42.9521 330.332 42.8867 330.679 42.8867ZM330.679 47.3768C330.918 47.3768 331.127 47.3277 331.307 47.2296C331.49 47.1281 331.642 46.9924 331.763 46.8223C331.888 46.6521 331.981 46.4559 332.043 46.2334C332.105 46.0077 332.136 45.7721 332.136 45.5268V45.4679C332.136 45.216 332.105 44.9771 332.043 44.7514C331.981 44.5257 331.888 44.3294 331.763 44.1625C331.642 43.9924 331.49 43.8583 331.307 43.7602C331.127 43.6587 330.918 43.608 330.679 43.608C330.44 43.608 330.229 43.6587 330.046 43.7602C329.866 43.8583 329.714 43.9924 329.589 44.1625C329.468 44.3294 329.377 44.5257 329.315 44.7514C329.252 44.9771 329.221 45.216 329.221 45.4679V45.5268C329.221 45.7721 329.252 46.0077 329.315 46.2334C329.377 46.4559 329.468 46.6521 329.589 46.8223C329.714 46.9924 329.866 47.1281 330.046 47.2296C330.229 47.3277 330.44 47.3768 330.679 47.3768ZM336.204 42.8867C336.551 42.8867 336.867 42.9521 337.151 43.083C337.436 43.2105 337.678 43.3905 337.878 43.6228C338.081 43.8518 338.238 44.1266 338.349 44.4472C338.46 44.7645 338.516 45.1146 338.516 45.4973C338.516 45.8735 338.46 46.2219 338.349 46.5426C338.238 46.8599 338.081 47.1347 337.878 47.367C337.678 47.596 337.436 47.7759 337.151 47.9068C336.867 48.0344 336.551 48.0981 336.204 48.0981C335.858 48.0981 335.542 48.0344 335.257 47.9068C334.976 47.7759 334.734 47.596 334.531 47.367C334.328 47.1347 334.171 46.8599 334.06 46.5426C333.949 46.2219 333.893 45.8735 333.893 45.4973C333.893 45.1146 333.949 44.7645 334.06 44.4472C334.171 44.1266 334.328 43.8518 334.531 43.6228C334.734 43.3905 334.976 43.2105 335.257 43.083C335.542 42.9521 335.858 42.8867 336.204 42.8867ZM336.204 47.3768C336.443 47.3768 336.653 47.3277 336.832 47.2296C337.016 47.1281 337.168 46.9924 337.289 46.8223C337.413 46.6521 337.506 46.4559 337.569 46.2334C337.631 46.0077 337.662 45.7721 337.662 45.5268V45.4679C337.662 45.216 337.631 44.9771 337.569 44.7514C337.506 44.5257 337.413 44.3294 337.289 44.1625C337.168 43.9924 337.016 43.8583 336.832 43.7602C336.653 43.6587 336.443 43.608 336.204 43.608C335.966 43.608 335.754 43.6587 335.571 43.7602C335.391 43.8583 335.239 43.9924 335.115 44.1625C334.994 44.3294 334.902 44.5257 334.84 44.7514C334.778 44.9771 334.747 45.216 334.747 45.4679V45.5268C334.747 45.7721 334.778 46.0077 334.84 46.2334C334.902 46.4559 334.994 46.6521 335.115 46.8223C335.239 46.9924 335.391 47.1281 335.571 47.2296C335.754 47.3277 335.966 47.3768 336.204 47.3768ZM343.025 47.4259C342.878 47.632 342.677 47.7955 342.422 47.9166C342.17 48.0376 341.882 48.0981 341.558 48.0981C341.234 48.0981 340.941 48.0344 340.68 47.9068C340.418 47.7759 340.194 47.596 340.007 47.367C339.821 47.1347 339.677 46.8599 339.576 46.5426C339.477 46.2252 339.428 45.8768 339.428 45.4973C339.428 45.1178 339.477 44.7694 339.576 44.4521C339.677 44.1315 339.821 43.855 340.007 43.6228C340.194 43.3905 340.418 43.2105 340.68 43.083C340.941 42.9521 341.234 42.8867 341.558 42.8867C341.882 42.8867 342.17 42.9472 342.422 43.0682C342.677 43.1893 342.878 43.3529 343.025 43.559V40.963H343.85V48H343.025V47.4259ZM340.282 45.5169C340.282 45.7787 340.313 46.0224 340.375 46.2481C340.438 46.4739 340.529 46.6701 340.65 46.837C340.771 47.0006 340.92 47.1298 341.097 47.2247C341.273 47.3195 341.478 47.367 341.71 47.367C341.929 47.367 342.121 47.3293 342.284 47.2541C342.451 47.1789 342.59 47.0758 342.701 46.9449C342.813 46.8141 342.896 46.6603 342.952 46.4837C343.007 46.3037 343.035 46.1091 343.035 45.8997V45.0851C343.035 44.8757 343.007 44.6827 342.952 44.5061C342.896 44.3261 342.813 44.1707 342.701 44.0399C342.59 43.909 342.451 43.806 342.284 43.7307C342.121 43.6555 341.929 43.6178 341.71 43.6178C341.478 43.6178 341.273 43.6653 341.097 43.7602C340.92 43.855 340.771 43.9859 340.65 44.1527C340.529 44.3163 340.438 44.511 340.375 44.7367C340.313 44.9624 340.282 45.2062 340.282 45.4679V45.5169Z" fill="#0B0C0C"/>
<circle cx="291.67" cy="44.0231" r="5.02312" fill="#1D70B8"/>
<path d="M246.74 46.3473C246.995 46.3473 247.221 46.3146 247.417 46.2492C247.616 46.1838 247.788 46.0971 247.932 45.9891C248.079 45.8812 248.204 45.7568 248.305 45.6162C248.407 45.4755 248.487 45.3299 248.546 45.1794C248.608 45.0257 248.652 44.8735 248.678 44.723C248.708 44.5693 248.722 44.427 248.722 44.2961V44.0066H246.75V43.2803H249.493V47H248.712V46.0529C248.591 46.2459 248.454 46.4095 248.3 46.5436C248.146 46.6778 247.983 46.7857 247.809 46.8675C247.636 46.9493 247.453 47.0082 247.26 47.0442C247.07 47.0802 246.877 47.0981 246.681 47.0981C246.2 47.0981 245.773 47.0049 245.4 46.8184C245.027 46.632 244.711 46.3768 244.453 46.0529C244.198 45.729 244.003 45.3479 243.869 44.9095C243.735 44.4711 243.668 43.9984 243.668 43.4913C243.668 42.9875 243.741 42.5164 243.889 42.0781C244.036 41.6364 244.245 41.2536 244.517 40.9298C244.788 40.6026 245.115 40.3458 245.498 40.1593C245.884 39.9696 246.316 39.8747 246.794 39.8747C247.088 39.8747 247.366 39.9107 247.628 39.9827C247.893 40.0514 248.137 40.1511 248.359 40.282C248.582 40.4096 248.781 40.5634 248.958 40.7433C249.134 40.9199 249.283 41.1162 249.404 41.3322L248.673 41.7149C248.588 41.5513 248.487 41.4041 248.369 41.2733C248.251 41.1391 248.115 41.0246 247.962 40.9298C247.808 40.8349 247.634 40.7613 247.441 40.7089C247.252 40.6566 247.042 40.6304 246.813 40.6304C246.447 40.6304 246.125 40.7089 245.847 40.866C245.569 41.0197 245.335 41.2258 245.145 41.4843C244.958 41.7427 244.818 42.0421 244.723 42.3823C244.628 42.7193 244.581 43.0693 244.581 43.4324V43.5551C244.581 43.9183 244.623 44.2683 244.708 44.6053C244.796 44.9422 244.929 45.2399 245.106 45.4984C245.286 45.7536 245.511 45.9597 245.783 46.1167C246.054 46.2705 246.373 46.3473 246.74 46.3473ZM252.942 41.8867C253.289 41.8867 253.605 41.9521 253.89 42.083C254.174 42.2105 254.416 42.3905 254.616 42.6228C254.819 42.8518 254.976 43.1266 255.087 43.4472C255.198 43.7645 255.254 44.1146 255.254 44.4973C255.254 44.8735 255.198 45.2219 255.087 45.5426C254.976 45.8599 254.819 46.1347 254.616 46.367C254.416 46.596 254.174 46.7759 253.89 46.9068C253.605 47.0344 253.289 47.0981 252.942 47.0981C252.596 47.0981 252.28 47.0344 251.995 46.9068C251.714 46.7759 251.472 46.596 251.269 46.367C251.066 46.1347 250.909 45.8599 250.798 45.5426C250.687 45.2219 250.631 44.8735 250.631 44.4973C250.631 44.1146 250.687 43.7645 250.798 43.4472C250.909 43.1266 251.066 42.8518 251.269 42.6228C251.472 42.3905 251.714 42.2105 251.995 42.083C252.28 41.9521 252.596 41.8867 252.942 41.8867ZM252.942 46.3768C253.181 46.3768 253.391 46.3277 253.571 46.2296C253.754 46.1281 253.906 45.9924 254.027 45.8223C254.151 45.6521 254.245 45.4559 254.307 45.2334C254.369 45.0077 254.4 44.7721 254.4 44.5268V44.4679C254.4 44.216 254.369 43.9771 254.307 43.7514C254.245 43.5257 254.151 43.3294 254.027 43.1625C253.906 42.9924 253.754 42.8583 253.571 42.7602C253.391 42.6587 253.181 42.608 252.942 42.608C252.704 42.608 252.493 42.6587 252.309 42.7602C252.129 42.8583 251.977 42.9924 251.853 43.1625C251.732 43.3294 251.64 43.5257 251.578 43.7514C251.516 43.9771 251.485 44.216 251.485 44.4679V44.5268C251.485 44.7721 251.516 45.0077 251.578 45.2334C251.64 45.4559 251.732 45.6521 251.853 45.8223C251.977 45.9924 252.129 46.1281 252.309 46.2296C252.493 46.3277 252.704 46.3768 252.942 46.3768ZM258.468 41.8867C258.815 41.8867 259.13 41.9521 259.415 42.083C259.7 42.2105 259.942 42.3905 260.141 42.6228C260.344 42.8518 260.501 43.1266 260.612 43.4472C260.724 43.7645 260.779 44.1146 260.779 44.4973C260.779 44.8735 260.724 45.2219 260.612 45.5426C260.501 45.8599 260.344 46.1347 260.141 46.367C259.942 46.596 259.7 46.7759 259.415 46.9068C259.13 47.0344 258.815 47.0981 258.468 47.0981C258.121 47.0981 257.806 47.0344 257.521 46.9068C257.24 46.7759 256.997 46.596 256.795 46.367C256.592 46.1347 256.435 45.8599 256.324 45.5426C256.212 45.2219 256.157 44.8735 256.157 44.4973C256.157 44.1146 256.212 43.7645 256.324 43.4472C256.435 43.1266 256.592 42.8518 256.795 42.6228C256.997 42.3905 257.24 42.2105 257.521 42.083C257.806 41.9521 258.121 41.8867 258.468 41.8867ZM258.468 46.3768C258.707 46.3768 258.916 46.3277 259.096 46.2296C259.279 46.1281 259.431 45.9924 259.552 45.8223C259.677 45.6521 259.77 45.4559 259.832 45.2334C259.894 45.0077 259.925 44.7721 259.925 44.5268V44.4679C259.925 44.216 259.894 43.9771 259.832 43.7514C259.77 43.5257 259.677 43.3294 259.552 43.1625C259.431 42.9924 259.279 42.8583 259.096 42.7602C258.916 42.6587 258.707 42.608 258.468 42.608C258.229 42.608 258.018 42.6587 257.835 42.7602C257.655 42.8583 257.503 42.9924 257.379 43.1625C257.258 43.3294 257.166 43.5257 257.104 43.7514C257.042 43.9771 257.011 44.216 257.011 44.4679V44.5268C257.011 44.7721 257.042 45.0077 257.104 45.2334C257.166 45.4559 257.258 45.6521 257.379 45.8223C257.503 45.9924 257.655 46.1281 257.835 46.2296C258.018 46.3277 258.229 46.3768 258.468 46.3768ZM265.289 46.4259C265.142 46.632 264.941 46.7955 264.685 46.9166C264.434 47.0376 264.146 47.0981 263.822 47.0981C263.498 47.0981 263.205 47.0344 262.943 46.9068C262.682 46.7759 262.458 46.596 262.271 46.367C262.085 46.1347 261.941 45.8599 261.839 45.5426C261.741 45.2252 261.692 44.8768 261.692 44.4973C261.692 44.1178 261.741 43.7694 261.839 43.4521C261.941 43.1315 262.085 42.855 262.271 42.6228C262.458 42.3905 262.682 42.2105 262.943 42.083C263.205 41.9521 263.498 41.8867 263.822 41.8867C264.146 41.8867 264.434 41.9472 264.685 42.0682C264.941 42.1893 265.142 42.3529 265.289 42.559V39.963H266.113V47H265.289V46.4259ZM262.546 44.5169C262.546 44.7787 262.577 45.0224 262.639 45.2481C262.701 45.4739 262.793 45.6701 262.914 45.837C263.035 46.0006 263.184 46.1298 263.36 46.2247C263.537 46.3195 263.742 46.367 263.974 46.367C264.193 46.367 264.384 46.3293 264.548 46.2541C264.715 46.1789 264.854 46.0758 264.965 45.9449C265.076 45.8141 265.16 45.6603 265.215 45.4837C265.271 45.3037 265.299 45.1091 265.299 44.8997V44.0851C265.299 43.8757 265.271 43.6827 265.215 43.5061C265.16 43.3261 265.076 43.1707 264.965 43.0399C264.854 42.909 264.715 42.806 264.548 42.7307C264.384 42.6555 264.193 42.6178 263.974 42.6178C263.742 42.6178 263.537 42.6653 263.36 42.7602C263.184 42.855 263.035 42.9859 262.914 43.1527C262.793 43.3163 262.701 43.511 262.639 43.7367C262.577 43.9624 262.546 44.2062 262.546 44.4679V44.5169Z" fill="#0B0C0C"/>
<circle cx="234.742" cy="44.0231" r="5.02312" fill="#8EB8DC"/>
<path d="M116.138 40.963C116.416 40.963 116.678 41.0056 116.923 41.0906C117.169 41.1724 117.383 41.2902 117.566 41.4439C117.749 41.5977 117.893 41.7842 117.998 42.0034C118.106 42.2193 118.16 42.4597 118.16 42.7247C118.16 42.8981 118.13 43.0666 118.072 43.2302C118.016 43.3937 117.939 43.5459 117.841 43.6865C117.743 43.824 117.627 43.9466 117.493 44.0546C117.358 44.1593 117.213 44.2411 117.056 44.3C117.232 44.3261 117.411 44.3834 117.591 44.4717C117.774 44.5568 117.937 44.6729 118.081 44.8201C118.225 44.9641 118.343 45.1358 118.435 45.3354C118.526 45.5349 118.572 45.759 118.572 46.0077C118.572 46.3512 118.507 46.6489 118.376 46.9008C118.248 47.1527 118.075 47.3604 117.856 47.524C117.636 47.6843 117.38 47.8037 117.085 47.8822C116.794 47.9607 116.485 48 116.158 48H113.478V40.963H116.138ZM117.679 45.9979C117.679 45.7852 117.638 45.6004 117.556 45.4433C117.478 45.283 117.368 45.1522 117.228 45.0508C117.09 44.9461 116.927 44.8692 116.737 44.8201C116.55 44.7678 116.351 44.7416 116.138 44.7416H114.342V47.2786H116.168C116.374 47.2786 116.568 47.2541 116.752 47.205C116.935 47.156 117.095 47.0807 117.232 46.9793C117.37 46.8746 117.478 46.7421 117.556 46.5818C117.638 46.4182 117.679 46.2236 117.679 45.9979ZM117.286 42.8425C117.286 42.6855 117.26 42.5383 117.208 42.4009C117.159 42.2602 117.077 42.1375 116.963 42.0328C116.851 41.9281 116.707 41.8447 116.531 41.7825C116.354 41.7204 116.14 41.6893 115.888 41.6893H114.342V44.0301H115.888C116.14 44.0301 116.354 43.999 116.531 43.9368C116.707 43.8714 116.851 43.7847 116.963 43.6767C117.077 43.5688 117.159 43.4428 117.208 43.2989C117.26 43.1549 117.286 43.0028 117.286 42.8425ZM122.684 47.4995C122.537 47.6696 122.338 47.8119 122.086 47.9264C121.837 48.0409 121.544 48.0981 121.207 48.0981C120.959 48.0981 120.728 48.0638 120.515 47.9951C120.303 47.9231 120.118 47.8217 119.961 47.6908C119.804 47.56 119.681 47.4013 119.593 47.2148C119.505 47.0284 119.46 46.8174 119.46 46.5818C119.46 46.3855 119.491 46.2072 119.554 46.0469C119.619 45.8833 119.709 45.741 119.823 45.62C119.941 45.499 120.082 45.4008 120.246 45.3256C120.409 45.247 120.592 45.1931 120.795 45.1636L122.567 44.9232V44.6042C122.567 44.4145 122.537 44.2558 122.478 44.1282C122.419 43.9973 122.339 43.8943 122.238 43.819C122.14 43.7438 122.022 43.6898 121.885 43.6571C121.75 43.6244 121.605 43.608 121.448 43.608C121.166 43.608 120.903 43.6473 120.658 43.7258C120.416 43.8043 120.196 43.8959 120 44.0006L119.691 43.3479C119.979 43.1844 120.28 43.0666 120.594 42.9946C120.911 42.9227 121.224 42.8867 121.531 42.8867C122.143 42.8867 122.606 43.0257 122.92 43.3038C123.234 43.5786 123.391 43.981 123.391 44.511V46.8223C123.391 46.9891 123.424 47.1298 123.489 47.2443C123.555 47.3555 123.659 47.4438 123.803 47.5093L123.337 48.0981C123.18 48.0589 123.044 47.9902 122.93 47.892C122.819 47.7906 122.74 47.6696 122.694 47.5289L122.684 47.4995ZM121.217 45.7672C121.08 45.7868 120.954 45.8146 120.839 45.8506C120.728 45.8866 120.633 45.9357 120.555 45.9979C120.476 46.0567 120.414 46.1303 120.368 46.2187C120.326 46.307 120.304 46.415 120.304 46.5426C120.304 46.6898 120.332 46.8206 120.388 46.9351C120.443 47.0496 120.519 47.1461 120.614 47.2247C120.708 47.3032 120.818 47.3637 120.942 47.4062C121.07 47.4455 121.202 47.4651 121.34 47.4651C121.494 47.4651 121.644 47.4438 121.791 47.4013C121.939 47.3588 122.069 47.2983 122.184 47.2198C122.298 47.138 122.39 47.0398 122.459 46.9253C122.531 46.8108 122.567 46.68 122.567 46.5327V45.566L121.217 45.7672ZM128.19 47.4259C128.043 47.632 127.842 47.7955 127.587 47.9166C127.335 48.0376 127.047 48.0981 126.723 48.0981C126.399 48.0981 126.106 48.0344 125.845 47.9068C125.583 47.7759 125.359 47.596 125.172 47.367C124.986 47.1347 124.842 46.8599 124.741 46.5426C124.642 46.2252 124.593 45.8768 124.593 45.4973C124.593 45.1178 124.642 44.7694 124.741 44.4521C124.842 44.1315 124.986 43.855 125.172 43.6228C125.359 43.3905 125.583 43.2105 125.845 43.083C126.106 42.9521 126.399 42.8867 126.723 42.8867C127.047 42.8867 127.335 42.9472 127.587 43.0682C127.842 43.1893 128.043 43.3529 128.19 43.559V40.963H129.015V48H128.19V47.4259ZM125.447 45.5169C125.447 45.7787 125.478 46.0224 125.54 46.2481C125.603 46.4739 125.694 46.6701 125.815 46.837C125.936 47.0006 126.085 47.1298 126.262 47.2247C126.438 47.3195 126.643 47.367 126.875 47.367C127.094 47.367 127.286 47.3293 127.449 47.2541C127.616 47.1789 127.755 47.0758 127.866 46.9449C127.978 46.8141 128.061 46.6603 128.117 46.4837C128.172 46.3037 128.2 46.1091 128.2 45.8997V45.0851C128.2 44.8757 128.172 44.6827 128.117 44.5061C128.061 44.3261 127.978 44.1707 127.866 44.0399C127.755 43.909 127.616 43.806 127.449 43.7307C127.286 43.6555 127.094 43.6178 126.875 43.6178C126.643 43.6178 126.438 43.6653 126.262 43.7602C126.085 43.855 125.936 43.9859 125.815 44.1527C125.694 44.3163 125.603 44.511 125.54 44.7367C125.478 44.9624 125.447 45.2062 125.447 45.4679V45.5169Z" fill="#0B0C0C"/>
<circle cx="104.14" cy="44.0231" r="5.02312" fill="#E59A9A"/>
<path d="M47.082 39.963H47.9996L45.8159 47H44.5695L42.371 39.963H43.323L45.173 46.2541H45.2565L47.082 39.963ZM49.0301 44.7476C49.0465 44.9831 49.0939 45.2007 49.1724 45.4002C49.251 45.5998 49.3573 45.7732 49.4914 45.9204C49.6288 46.0644 49.7891 46.1772 49.9723 46.259C50.1588 46.3375 50.3649 46.3768 50.5906 46.3768C50.8687 46.3768 51.1124 46.331 51.3218 46.2394C51.5344 46.1445 51.7291 46.0267 51.9058 45.8861L52.3278 46.4798C52.1021 46.6598 51.8403 46.8086 51.5426 46.9264C51.2482 47.0409 50.9178 47.0981 50.5514 47.0981C50.1882 47.0981 49.8594 47.0344 49.565 46.9068C49.2706 46.7759 49.0187 46.596 48.8093 46.367C48.6032 46.1347 48.4445 45.8599 48.3333 45.5426C48.2221 45.2219 48.1665 44.8735 48.1665 44.4973C48.1665 44.1146 48.2204 43.7645 48.3284 43.4472C48.4396 43.1266 48.595 42.8518 48.7946 42.6228C48.9941 42.3905 49.233 42.2105 49.511 42.083C49.7891 41.9521 50.0983 41.8867 50.4385 41.8867C50.7689 41.8867 51.0666 41.9521 51.3316 42.083C51.5966 42.2105 51.8223 42.3905 52.0088 42.6228C52.1953 42.8518 52.3376 43.1266 52.4357 43.4472C52.5372 43.7645 52.5879 44.1113 52.5879 44.4875V44.7476H49.0301ZM50.4091 42.608C50.1997 42.608 50.0132 42.6489 49.8496 42.7307C49.6861 42.8125 49.5454 42.9221 49.4276 43.0595C49.3131 43.1969 49.2215 43.3556 49.1528 43.5355C49.0874 43.7122 49.0498 43.8954 49.0399 44.0851H51.6948C51.6882 43.8921 51.6539 43.7073 51.5917 43.5306C51.5328 43.3507 51.4478 43.1936 51.3365 43.0595C51.2286 42.9221 51.0961 42.8125 50.939 42.7307C50.7853 42.6489 50.6086 42.608 50.4091 42.608ZM56.3026 42.7209H56.1701C55.9575 42.7209 55.7547 42.7454 55.5616 42.7945C55.3686 42.8436 55.1985 42.9319 55.0513 43.0595C54.9041 43.1871 54.7863 43.3621 54.698 43.5846C54.6096 43.8038 54.5655 44.0851 54.5655 44.4286V47H53.7411V41.9848H54.5655V42.7798C54.6276 42.6326 54.7111 42.5033 54.8157 42.3921C54.9204 42.2809 55.0382 42.1893 55.1691 42.1173C55.3032 42.0421 55.4455 41.9865 55.596 41.9505C55.7498 41.9145 55.9052 41.8965 56.0622 41.8965H56.3026V42.7209ZM56.7198 41.9848H57.6521L58.8887 46.1265L60.0665 41.9848H60.989L59.1635 47.7557C59.1079 47.9324 59.036 48.0763 58.9476 48.1875C58.8593 48.3021 58.7579 48.392 58.6434 48.4574C58.5322 48.5261 58.4078 48.5736 58.2704 48.5998C58.133 48.6259 57.9875 48.639 57.8337 48.639C57.6963 48.639 57.554 48.6308 57.4068 48.6145C57.2595 48.6014 57.1042 48.5818 56.9406 48.5556L57.0633 47.8342C57.1287 47.8473 57.199 47.8588 57.2743 47.8686C57.3364 47.8784 57.4068 47.8866 57.4853 47.8931C57.5638 47.8997 57.6439 47.9029 57.7257 47.9029C57.9057 47.9029 58.0447 47.8637 58.1428 47.7852C58.2443 47.7066 58.3162 47.5791 58.3588 47.4024L58.4078 47.1718L56.7198 41.9848ZM64.5762 47H63.7518V39.963H64.5762V42.559C64.7234 42.3529 64.923 42.1893 65.1749 42.0682C65.4268 41.9472 65.7163 41.8867 66.0435 41.8867C66.3674 41.8867 66.6602 41.9521 66.9219 42.083C67.1836 42.2105 67.4077 42.3905 67.5942 42.6228C67.7806 42.855 67.9229 43.1315 68.0211 43.4521C68.1225 43.7694 68.1732 44.1178 68.1732 44.4973C68.1732 44.8768 68.1225 45.2252 68.0211 45.5426C67.9229 45.8599 67.7806 46.1347 67.5942 46.367C67.4077 46.596 67.1836 46.7759 66.9219 46.9068C66.6602 47.0344 66.3674 47.0981 66.0435 47.0981C65.7163 47.0981 65.4268 47.0376 65.1749 46.9166C64.923 46.7955 64.7234 46.632 64.5762 46.4259V47ZM67.3194 44.4679C67.3194 44.2062 67.2883 43.9624 67.2261 43.7367C67.164 43.511 67.0724 43.3163 66.9513 43.1527C66.8303 42.9859 66.6798 42.855 66.4999 42.7602C66.3232 42.6653 66.1204 42.6178 65.8914 42.6178C65.6722 42.6178 65.4792 42.6555 65.3123 42.7307C65.1487 42.806 65.0113 42.909 64.9001 43.0399C64.7889 43.1707 64.7038 43.3261 64.6449 43.5061C64.5893 43.6827 64.5615 43.8757 64.5615 44.0851V44.8997C64.5615 45.1091 64.5893 45.3037 64.6449 45.4837C64.7038 45.6603 64.7889 45.8141 64.9001 45.9449C65.0113 46.0758 65.1487 46.1789 65.3123 46.2541C65.4792 46.3293 65.6722 46.367 65.8914 46.367C66.1204 46.367 66.3232 46.3195 66.4999 46.2247C66.6798 46.1298 66.8303 46.0006 66.9513 45.837C67.0724 45.6701 67.164 45.4739 67.2261 45.2481C67.2883 45.0224 67.3194 44.7787 67.3194 44.5169V44.4679ZM72.2462 46.4995C72.099 46.6696 71.8994 46.8119 71.6475 46.9264C71.3989 47.0409 71.1061 47.0981 70.7691 47.0981C70.5205 47.0981 70.2899 47.0638 70.0772 46.9951C69.8646 46.9231 69.6797 46.8217 69.5227 46.6908C69.3657 46.56 69.243 46.4013 69.1547 46.2148C69.0663 46.0284 69.0222 45.8174 69.0222 45.5818C69.0222 45.3855 69.0532 45.2072 69.1154 45.0469C69.1808 44.8833 69.2708 44.741 69.3853 44.62C69.5031 44.499 69.6438 44.4008 69.8073 44.3256C69.9709 44.247 70.1541 44.1931 70.3569 44.1636L72.1284 43.9232V43.6042C72.1284 43.4145 72.099 43.2558 72.0401 43.1282C71.9812 42.9973 71.9011 42.8943 71.7997 42.819C71.7015 42.7438 71.5837 42.6898 71.4463 42.6571C71.3122 42.6244 71.1666 42.608 71.0096 42.608C70.7282 42.608 70.4649 42.6473 70.2195 42.7258C69.9774 42.8043 69.7583 42.8959 69.562 43.0006L69.2528 42.3479C69.5407 42.1844 69.8417 42.0666 70.1557 41.9946C70.4731 41.9227 70.7855 41.8867 71.093 41.8867C71.7048 41.8867 72.1677 42.0257 72.4818 42.3038C72.7958 42.5786 72.9529 42.981 72.9529 43.511V45.8223C72.9529 45.9891 72.9856 46.1298 73.051 46.2443C73.1164 46.3555 73.2211 46.4438 73.3651 46.5093L72.8989 47.0981C72.7418 47.0589 72.6061 46.9902 72.4916 46.892C72.3803 46.7906 72.3018 46.6696 72.256 46.5289L72.2462 46.4995ZM70.779 44.7672C70.6416 44.7868 70.5156 44.8146 70.4011 44.8506C70.2899 44.8866 70.195 44.9357 70.1165 44.9979C70.038 45.0567 69.9758 45.1303 69.93 45.2187C69.8875 45.307 69.8662 45.415 69.8662 45.5426C69.8662 45.6898 69.894 45.8206 69.9496 45.9351C70.0052 46.0496 70.0805 46.1461 70.1754 46.2247C70.2702 46.3032 70.3798 46.3637 70.5042 46.4062C70.6317 46.4455 70.7642 46.4651 70.9016 46.4651C71.0554 46.4651 71.2059 46.4438 71.3531 46.4013C71.5003 46.3588 71.6312 46.2983 71.7457 46.2198C71.8602 46.138 71.9518 46.0398 72.0205 45.9253C72.0925 45.8108 72.1284 45.68 72.1284 45.5327V44.566L70.779 44.7672ZM77.7521 46.4259C77.6049 46.632 77.4037 46.7955 77.1485 46.9166C76.8966 47.0376 76.6087 47.0981 76.2849 47.0981C75.961 47.0981 75.6682 47.0344 75.4065 46.9068C75.1448 46.7759 74.9207 46.596 74.7342 46.367C74.5477 46.1347 74.4038 45.8599 74.3023 45.5426C74.2042 45.2252 74.1551 44.8768 74.1551 44.4973C74.1551 44.1178 74.2042 43.7694 74.3023 43.4521C74.4038 43.1315 74.5477 42.855 74.7342 42.6228C74.9207 42.3905 75.1448 42.2105 75.4065 42.083C75.6682 41.9521 75.961 41.8867 76.2849 41.8867C76.6087 41.8867 76.8966 41.9472 77.1485 42.0682C77.4037 42.1893 77.6049 42.3529 77.7521 42.559V39.963H78.5765V47H77.7521V46.4259ZM75.009 44.5169C75.009 44.7787 75.0401 45.0224 75.1022 45.2481C75.1644 45.4739 75.256 45.6701 75.377 45.837C75.4981 46.0006 75.6469 46.1298 75.8236 46.2247C76.0002 46.3195 76.2047 46.367 76.437 46.367C76.6562 46.367 76.8476 46.3293 77.0111 46.2541C77.178 46.1789 77.317 46.0758 77.4282 45.9449C77.5395 45.8141 77.6229 45.6603 77.6785 45.4837C77.7341 45.3037 77.7619 45.1091 77.7619 44.8997V44.0851C77.7619 43.8757 77.7341 43.6827 77.6785 43.5061C77.6229 43.3261 77.5395 43.1707 77.4282 43.0399C77.317 42.909 77.178 42.806 77.0111 42.7307C76.8476 42.6555 76.6562 42.6178 76.437 42.6178C76.2047 42.6178 76.0002 42.6653 75.8236 42.7602C75.6469 42.855 75.4981 42.9859 75.377 43.1527C75.256 43.3163 75.1644 43.511 75.1022 43.7367C75.0401 43.9624 75.009 44.2062 75.009 44.4679V44.5169Z" fill="#0B0C0C"/>
<circle cx="33.8161" cy="44.0231" r="5.02312" fill="#CA3535"/>
<path d="M167.521 44.4815C167.521 45.0082 167.456 45.4891 167.325 45.9242C167.194 46.3561 166.995 46.7258 166.726 47.0333C166.458 47.3408 166.121 47.5796 165.716 47.7497C165.313 47.9166 164.839 48 164.292 48H162.035V40.963H164.292C164.839 40.963 165.313 41.0481 165.716 41.2182C166.121 41.3851 166.458 41.6222 166.726 41.9298C166.995 42.2373 167.194 42.6086 167.325 43.0437C167.456 43.4755 167.521 43.9548 167.521 44.4815ZM166.594 44.3441C166.594 43.9777 166.548 43.6342 166.456 43.3136C166.365 42.993 166.224 42.7149 166.034 42.4794C165.848 42.2406 165.608 42.0524 165.313 41.915C165.022 41.7776 164.675 41.7089 164.273 41.7089H162.899V47.2541H164.273C164.675 47.2541 165.022 47.187 165.313 47.0529C165.608 46.9155 165.848 46.729 166.034 46.4935C166.224 46.2547 166.365 45.975 166.456 45.6543C166.548 45.3337 166.594 44.9902 166.594 44.6238V44.3441ZM170.868 42.8867C171.215 42.8867 171.531 42.9521 171.815 43.083C172.1 43.2105 172.342 43.3905 172.541 43.6228C172.744 43.8518 172.901 44.1266 173.013 44.4472C173.124 44.7645 173.179 45.1146 173.179 45.4973C173.179 45.8735 173.124 46.2219 173.013 46.5426C172.901 46.8599 172.744 47.1347 172.541 47.367C172.342 47.596 172.1 47.7759 171.815 47.9068C171.531 48.0344 171.215 48.0981 170.868 48.0981C170.521 48.0981 170.206 48.0344 169.921 47.9068C169.64 47.7759 169.398 47.596 169.195 47.367C168.992 47.1347 168.835 46.8599 168.724 46.5426C168.612 46.2219 168.557 45.8735 168.557 45.4973C168.557 45.1146 168.612 44.7645 168.724 44.4472C168.835 44.1266 168.992 43.8518 169.195 43.6228C169.398 43.3905 169.64 43.2105 169.921 43.083C170.206 42.9521 170.521 42.8867 170.868 42.8867ZM170.868 47.3768C171.107 47.3768 171.316 47.3277 171.496 47.2296C171.679 47.1281 171.832 46.9924 171.953 46.8223C172.077 46.6521 172.17 46.4559 172.232 46.2334C172.294 46.0077 172.326 45.7721 172.326 45.5268V45.4679C172.326 45.216 172.294 44.9771 172.232 44.7514C172.17 44.5257 172.077 44.3294 171.953 44.1625C171.832 43.9924 171.679 43.8583 171.496 43.7602C171.316 43.6587 171.107 43.608 170.868 43.608C170.629 43.608 170.418 43.6587 170.235 43.7602C170.055 43.8583 169.903 43.9924 169.779 44.1625C169.658 44.3294 169.566 44.5257 169.504 44.7514C169.442 44.9771 169.411 45.216 169.411 45.4679V45.5268C169.411 45.7721 169.442 46.0077 169.504 46.2334C169.566 46.4559 169.658 46.6521 169.779 46.8223C169.903 46.9924 170.055 47.1281 170.235 47.2296C170.418 47.3277 170.629 47.3768 170.868 47.3768ZM174.387 42.9848H175.211V43.559C175.381 43.3267 175.59 43.1566 175.839 43.0486C176.091 42.9406 176.371 42.8867 176.678 42.8867C176.956 42.8867 177.2 42.9325 177.409 43.0241C177.619 43.1157 177.794 43.24 177.934 43.397C178.075 43.5541 178.18 43.7356 178.249 43.9417C178.321 44.1478 178.357 44.3654 178.357 44.5944V48H177.532V44.8545C177.532 44.6353 177.504 44.4488 177.449 44.295C177.396 44.138 177.323 44.0121 177.228 43.9172C177.136 43.819 177.027 43.7487 176.899 43.7062C176.775 43.6604 176.641 43.6375 176.497 43.6375C176.34 43.6375 176.184 43.6669 176.03 43.7258C175.88 43.7814 175.743 43.8665 175.618 43.981C175.497 44.0955 175.399 44.2394 175.324 44.4128C175.249 44.5862 175.211 44.7907 175.211 45.0262V48H174.387V42.9848ZM180.216 40.8747C180.308 40.8747 180.395 40.8927 180.476 40.9287C180.561 40.9647 180.633 41.0154 180.692 41.0808C180.755 41.143 180.804 41.2198 180.84 41.3115C180.876 41.4031 180.894 41.5028 180.894 41.6108C180.894 41.7286 180.872 41.8496 180.83 41.9739C180.787 42.0982 180.722 42.216 180.633 42.3272C180.545 42.4385 180.434 42.5399 180.3 42.6315C180.166 42.7231 180.007 42.7934 179.824 42.8425L179.716 42.8769L179.613 42.5432L179.677 42.5235C179.827 42.4712 179.96 42.3976 180.074 42.3027C180.189 42.2078 180.267 42.1031 180.31 41.9886H180.207C180.128 41.9886 180.054 41.9756 179.986 41.9494C179.92 41.9199 179.861 41.8807 179.809 41.8316C179.76 41.7825 179.721 41.7253 179.691 41.6599C179.662 41.5912 179.647 41.5176 179.647 41.439C179.647 41.3605 179.662 41.2869 179.691 41.2182C179.721 41.1495 179.76 41.0906 179.809 41.0416C179.861 40.9892 179.922 40.9483 179.991 40.9189C180.063 40.8894 180.138 40.8747 180.216 40.8747ZM183.681 46.7536C183.681 46.8386 183.686 46.9188 183.696 46.994C183.709 47.066 183.736 47.1298 183.779 47.1854C183.825 47.241 183.89 47.2852 183.975 47.3179C184.06 47.3506 184.176 47.367 184.324 47.367C184.363 47.367 184.409 47.3653 184.461 47.3621C184.517 47.3588 184.574 47.3555 184.633 47.3522C184.692 47.3457 184.749 47.3392 184.805 47.3326C184.86 47.3228 184.908 47.3146 184.947 47.3081L185.035 48.0294C184.94 48.0425 184.842 48.054 184.741 48.0638C184.656 48.0736 184.561 48.0818 184.456 48.0883C184.352 48.0949 184.247 48.0981 184.142 48.0981C183.943 48.0981 183.763 48.0769 183.602 48.0344C183.445 47.9951 183.311 47.9297 183.2 47.8381C183.089 47.7465 183.004 47.6271 182.945 47.4798C182.886 47.3293 182.856 47.1478 182.856 46.9351V43.7111H181.909V42.9848H182.856V41.3458L183.681 41.0563V42.9848H185.075V43.7111H183.681V46.7536ZM188.932 45.4482L191.292 42.9848H192.327L190.418 44.9771L192.416 48H191.41L189.835 45.5268L188.932 46.4542V48H188.107V40.963H188.932V45.4482ZM193.348 42.9848H194.173V43.559C194.343 43.3267 194.552 43.1566 194.801 43.0486C195.053 42.9406 195.332 42.8867 195.64 42.8867C195.918 42.8867 196.162 42.9325 196.371 43.0241C196.58 43.1157 196.755 43.24 196.896 43.397C197.037 43.5541 197.141 43.7356 197.21 43.9417C197.282 44.1478 197.318 44.3654 197.318 44.5944V48H196.494V44.8545C196.494 44.6353 196.466 44.4488 196.41 44.295C196.358 44.138 196.284 44.0121 196.189 43.9172C196.098 43.819 195.988 43.7487 195.861 43.7062C195.736 43.6604 195.602 43.6375 195.458 43.6375C195.301 43.6375 195.146 43.6669 194.992 43.7258C194.842 43.7814 194.704 43.8665 194.58 43.981C194.459 44.0955 194.361 44.2394 194.285 44.4128C194.21 44.5862 194.173 44.7907 194.173 45.0262V48H193.348V42.9848ZM200.792 42.8867C201.139 42.8867 201.455 42.9521 201.739 43.083C202.024 43.2105 202.266 43.3905 202.466 43.6228C202.669 43.8518 202.826 44.1266 202.937 44.4472C203.048 44.7645 203.104 45.1146 203.104 45.4973C203.104 45.8735 203.048 46.2219 202.937 46.5426C202.826 46.8599 202.669 47.1347 202.466 47.367C202.266 47.596 202.024 47.7759 201.739 47.9068C201.455 48.0344 201.139 48.0981 200.792 48.0981C200.446 48.0981 200.13 48.0344 199.845 47.9068C199.564 47.7759 199.322 47.596 199.119 47.367C198.916 47.1347 198.759 46.8599 198.648 46.5426C198.537 46.2219 198.481 45.8735 198.481 45.4973C198.481 45.1146 198.537 44.7645 198.648 44.4472C198.759 44.1266 198.916 43.8518 199.119 43.6228C199.322 43.3905 199.564 43.2105 199.845 43.083C200.13 42.9521 200.446 42.8867 200.792 42.8867ZM200.792 47.3768C201.031 47.3768 201.241 47.3277 201.42 47.2296C201.604 47.1281 201.756 46.9924 201.877 46.8223C202.001 46.6521 202.094 46.4559 202.157 46.2334C202.219 46.0077 202.25 45.7721 202.25 45.5268V45.4679C202.25 45.216 202.219 44.9771 202.157 44.7514C202.094 44.5257 202.001 44.3294 201.877 44.1625C201.756 43.9924 201.604 43.8583 201.42 43.7602C201.241 43.6587 201.031 43.608 200.792 43.608C200.554 43.608 200.343 43.6587 200.159 43.7602C199.979 43.8583 199.827 43.9924 199.703 44.1625C199.582 44.3294 199.49 44.5257 199.428 44.7514C199.366 44.9771 199.335 45.216 199.335 45.4679V45.5268C199.335 45.7721 199.366 46.0077 199.428 46.2334C199.49 46.4559 199.582 46.6521 199.703 46.8223C199.827 46.9924 199.979 47.1281 200.159 47.2296C200.343 47.3277 200.554 47.3768 200.792 47.3768ZM208.6 47.0235L209.508 42.9848H210.381L209.154 48H208.099L207.083 43.981L206.048 48H205.032L203.815 42.9848H204.703L205.577 47.0235L206.632 42.9848H207.564L208.6 47.0235Z" fill="#0B0C0C"/>
<circle cx="152.697" cy="44.0231" r="5.02312" fill="#CECECE"/>
<path d="M151.439 262.033C150.703 262.033 150.106 262.63 150.106 263.366C150.106 264.103 150.703 264.7 151.439 264.7C152.176 264.7 152.773 264.103 152.773 263.366C152.773 262.63 152.176 262.033 151.439 262.033ZM151.439 64.1157L151.189 64.1157L151.189 263.366L151.439 263.366L151.689 263.366L151.689 64.1157L151.439 64.1157Z" fill="#CECECE"/>
<path d="M245.205 262.033C244.469 262.033 243.872 262.63 243.872 263.366C243.872 264.103 244.469 264.7 245.205 264.7C245.941 264.7 246.538 264.103 246.538 263.366C246.538 262.63 245.941 262.033 245.205 262.033ZM245.205 64.1157L244.955 64.1157L244.955 263.366L245.205 263.366L245.455 263.366L245.455 64.1157L245.205 64.1157Z" fill="#CECECE"/>
<path d="M337.297 262.033C336.56 262.033 335.964 262.63 335.964 263.366C335.964 264.103 336.56 264.7 337.297 264.7C338.033 264.7 338.63 264.103 338.63 263.366C338.63 262.63 338.033 262.033 337.297 262.033ZM337.297 64.1157L337.047 64.1157L337.047 263.366L337.297 263.366L337.547 263.366L337.547 64.1157L337.297 64.1157Z" fill="#CECECE"/>
<path d="M68.4473 216.634L68.4473 249.822L59.3555 249.822L59.3555 216.634L68.4473 216.634Z" fill="#CA3535" stroke="white" stroke-width="0.3"/>
<path d="M72.1768 216.634L72.1768 249.82L68.748 249.82L68.748 216.634L72.1768 216.634Z" fill="#E59A9A" stroke="white" stroke-width="0.3"/>
<path d="M105.664 216.634L105.664 249.822L72.4766 249.822L72.4766 216.634L105.664 216.634Z" fill="#CECECE" stroke="white" stroke-width="0.3"/>
<path d="M204.452 216.634L204.452 249.822L105.965 249.822L105.965 216.634L204.452 216.634Z" fill="#8EB8DC" stroke="white" stroke-width="0.3"/>
<path d="M435.516 216.634L435.516 249.822L204.752 249.822L204.752 216.634L435.516 216.634Z" fill="#1D70B8" stroke="white" stroke-width="0.3"/>
<path d="M68.4473 70.9636L68.4473 104.151L59.3555 104.151L59.3555 70.9636L68.4473 70.9636Z" fill="#CA3535" stroke="white" stroke-width="0.3"/>
<path d="M72.1768 70.9636L72.1768 104.149L68.748 104.149L68.748 70.9636L72.1768 70.9636Z" fill="#E59A9A" stroke="white" stroke-width="0.3"/>
<path d="M87.2451 70.9636L87.2451 104.151L72.4766 104.151L72.4766 70.9636L87.2451 70.9636Z" fill="#CECECE" stroke="white" stroke-width="0.3"/>
<path d="M279.799 70.9636L279.799 104.151L84.1973 104.151L84.1973 70.9636L279.799 70.9636Z" fill="#8EB8DC" stroke="white" stroke-width="0.3"/>
<path d="M435.516 70.9636L435.516 104.151L280.1 104.151L280.1 70.9636L435.516 70.9636Z" fill="#1D70B8" stroke="white" stroke-width="0.3"/>
<path d="M73.8506 119.52L73.8506 152.708L59.082 152.708L59.082 119.52L73.8506 119.52Z" fill="#CA3535" stroke="white" stroke-width="0.3"/>
<path d="M80.5479 119.52L80.5479 152.706L74.1504 152.706L74.1504 119.52L80.5479 119.52Z" fill="#E59A9A" stroke="white" stroke-width="0.3"/>
<path d="M83.8965 119.521L83.8965 152.708L80.8476 152.708L80.8477 119.521L83.8965 119.521Z" fill="#CECECE" stroke="white" stroke-width="0.3"/>
<path d="M204.452 119.521L204.452 152.708L84.1973 152.708L84.1973 119.521L204.452 119.521Z" fill="#8EB8DC" stroke="white" stroke-width="0.3"/>
<path d="M435.516 119.521L435.516 152.708L204.752 152.708L204.752 119.521L435.516 119.521Z" fill="#1D70B8" stroke="white" stroke-width="0.3"/>
<path d="M68.4473 168.077L68.4473 201.265L59.3555 201.265L59.3555 168.077L68.4473 168.077Z" fill="#CA3535" stroke="white" stroke-width="0.3"/>
<path d="M72.1768 168.077L72.1768 201.263L68.748 201.263L68.748 168.077L72.1768 168.077Z" fill="#E59A9A" stroke="white" stroke-width="0.3"/>
<path d="M83.8965 168.077L83.8965 201.265L72.4766 201.265L72.4766 168.077L83.8965 168.077Z" fill="#CECECE" stroke="white" stroke-width="0.3"/>
<path d="M150.872 168.077L150.872 201.265L84.1973 201.265L84.1973 168.077L150.872 168.077Z" fill="#8EB8DC" stroke="white" stroke-width="0.3"/>
<path d="M435.516 168.077L435.516 201.265L151.172 201.265L151.172 168.077L435.516 168.077Z" fill="#1D70B8" stroke="white" stroke-width="0.3"/>
<path d="M435.666 262.033C434.93 262.033 434.333 262.63 434.333 263.366C434.333 264.103 434.93 264.7 435.666 264.7C436.402 264.7 436.999 264.103 436.999 263.366C436.999 262.63 436.402 262.033 435.666 262.033ZM435.666 64.1157L435.416 64.1157L435.416 263.366L435.666 263.366L435.916 263.366L435.916 64.1157L435.666 64.1157Z" fill="#CECECE"/>
<path d="M59.3516 262.033C58.6152 262.033 58.0182 262.63 58.0182 263.366C58.0182 264.103 58.6152 264.7 59.3516 264.7C60.0879 264.7 60.6849 264.103 60.6849 263.366C60.6849 262.63 60.0879 262.033 59.3516 262.033ZM59.3516 64.1157L59.1016 64.1157L59.1016 263.366L59.3516 263.366L59.6016 263.366L59.6016 64.1157L59.3516 64.1157Z" fill="#CECECE"/>
</g>
<defs>
<clipPath id="clip0_1745_1139">
<rect width="480" height="320" fill="white"/>
</clipPath>
</defs>
</svg>
