<svg width="480" height="321" viewBox="0 0 480 321" fill="none" xmlns="http://www.w3.org/2000/svg">
<g clip-path="url(#clip0_1144_21645)">
<rect width="480" height="320" transform="translate(0 0.5)" fill="white"/>
<path d="M480 0.5H0V320.5H480V0.5Z" fill="#2A1950"/>
<rect x="142.196" y="118.199" width="300.672" height="87.2811" rx="25.4512" fill="#FCFF52"/>
<path d="M188.162 141.99H202.151C203.958 141.99 205.586 142.291 207.034 142.894C208.499 143.479 209.736 144.293 210.745 145.335C211.754 146.36 212.527 147.581 213.064 148.997C213.618 150.413 213.895 151.951 213.895 153.611C213.895 155.271 213.593 156.81 212.991 158.226C212.405 159.642 211.567 160.87 210.477 161.912C209.402 162.938 208.108 163.743 206.595 164.329C205.081 164.915 203.413 165.208 201.59 165.208H195.242V177H188.162V141.99ZM206.595 153.489C206.595 152.659 206.448 151.927 206.155 151.292C205.862 150.641 205.439 150.088 204.886 149.632C204.332 149.176 203.665 148.834 202.884 148.606C202.103 148.362 201.224 148.24 200.247 148.24H195.242V158.958H200.247C201.224 158.958 202.103 158.844 202.884 158.616C203.665 158.372 204.332 158.022 204.886 157.566C205.439 157.111 205.862 156.565 206.155 155.931C206.448 155.28 206.595 154.539 206.595 153.709V153.489ZM223.318 166.258C223.432 167.039 223.676 167.755 224.051 168.406C224.441 169.057 224.93 169.619 225.516 170.091C226.102 170.547 226.777 170.905 227.542 171.165C228.307 171.425 229.121 171.556 229.983 171.556C230.976 171.556 232.05 171.368 233.206 170.994C234.362 170.604 235.42 170.042 236.38 169.31L239.627 174.046C238.406 175.071 236.909 175.901 235.135 176.536C233.361 177.171 231.473 177.488 229.471 177.488C227.664 177.488 225.963 177.179 224.368 176.561C222.773 175.942 221.373 175.047 220.169 173.875C218.981 172.703 218.037 171.279 217.337 169.603C216.653 167.926 216.312 166.038 216.312 163.938C216.312 162.018 216.613 160.228 217.215 158.567C217.833 156.907 218.688 155.467 219.778 154.246C220.885 153.025 222.203 152.073 223.733 151.39C225.263 150.69 226.956 150.34 228.812 150.34C230.537 150.34 232.14 150.657 233.621 151.292C235.102 151.91 236.388 152.789 237.479 153.929C238.569 155.052 239.424 156.403 240.042 157.981C240.66 159.56 240.97 161.302 240.97 163.206V166.258H223.318ZM228.787 156.199C227.339 156.199 226.11 156.688 225.101 157.664C224.108 158.624 223.53 159.788 223.367 161.155H233.914C233.882 159.772 233.377 158.6 232.4 157.64C231.424 156.679 230.219 156.199 228.787 156.199ZM245.267 150.853H252.005V153.099C252.363 152.741 252.762 152.399 253.201 152.073C253.657 151.731 254.153 151.438 254.69 151.194C255.228 150.934 255.822 150.73 256.473 150.584C257.14 150.421 257.872 150.34 258.67 150.34C260.086 150.34 261.355 150.576 262.479 151.048C263.602 151.504 264.546 152.138 265.311 152.952C266.092 153.766 266.686 154.718 267.093 155.809C267.5 156.899 267.703 158.079 267.703 159.349V177H260.965V161.79C260.965 160.862 260.859 160.081 260.647 159.446C260.436 158.795 260.143 158.274 259.769 157.884C259.41 157.477 258.979 157.184 258.475 157.005C257.986 156.81 257.449 156.712 256.863 156.712C256.18 156.712 255.537 156.834 254.935 157.078C254.349 157.322 253.836 157.697 253.396 158.201C252.957 158.689 252.615 159.308 252.371 160.057C252.127 160.805 252.005 161.684 252.005 162.693V177H245.267V150.853ZM275.198 168.65C276.159 169.513 277.306 170.254 278.641 170.872C279.975 171.491 281.326 171.8 282.693 171.8C283.686 171.8 284.467 171.613 285.037 171.238C285.607 170.848 285.892 170.351 285.892 169.749C285.892 168.724 284.793 167.926 282.596 167.356L280.691 166.844C279.747 166.616 278.795 166.307 277.835 165.916C276.875 165.509 275.988 164.98 275.174 164.329C274.376 163.678 273.725 162.889 273.221 161.961C272.732 161.017 272.488 159.861 272.488 158.494C272.488 157.404 272.724 156.37 273.196 155.394C273.685 154.401 274.368 153.53 275.247 152.781C276.142 152.033 277.225 151.438 278.494 150.999C279.764 150.56 281.18 150.34 282.742 150.34C284.972 150.34 286.958 150.69 288.699 151.39C290.457 152.09 291.84 152.879 292.85 153.758L289.334 158.25C288.504 157.648 287.519 157.135 286.38 156.712C285.257 156.272 284.126 156.053 282.986 156.053C281.928 156.053 281.106 156.248 280.521 156.639C279.935 157.013 279.642 157.469 279.642 158.006C279.642 158.576 279.894 159.039 280.398 159.397C280.919 159.739 281.668 160.04 282.645 160.301L285.477 161.106C288.178 161.871 290.115 162.905 291.287 164.207C292.459 165.509 293.045 167.153 293.045 169.139C293.045 170.245 292.817 171.303 292.361 172.312C291.906 173.305 291.238 174.192 290.359 174.974C289.48 175.755 288.39 176.373 287.088 176.829C285.786 177.269 284.305 177.488 282.645 177.488C281.375 177.488 280.179 177.374 279.056 177.146C277.949 176.919 276.915 176.609 275.955 176.219C275.011 175.812 274.157 175.356 273.392 174.852C272.627 174.347 271.976 173.842 271.438 173.338L275.198 168.65ZM304.153 177H297.415V150.853H304.153V177ZM296.707 143.992C296.707 143.439 296.813 142.918 297.024 142.43C297.236 141.925 297.521 141.494 297.879 141.136C298.253 140.761 298.685 140.468 299.173 140.257C299.661 140.045 300.19 139.939 300.76 139.939C301.313 139.939 301.834 140.045 302.322 140.257C302.827 140.468 303.258 140.761 303.616 141.136C303.991 141.494 304.284 141.925 304.495 142.43C304.707 142.918 304.812 143.439 304.812 143.992C304.812 144.562 304.707 145.091 304.495 145.579C304.284 146.067 303.991 146.499 303.616 146.873C303.258 147.231 302.827 147.516 302.322 147.728C301.834 147.939 301.313 148.045 300.76 148.045C300.19 148.045 299.661 147.939 299.173 147.728C298.685 147.516 298.253 147.231 297.879 146.873C297.521 146.499 297.236 146.067 297.024 145.579C296.813 145.091 296.707 144.562 296.707 143.992ZM321.463 150.34C323.4 150.34 325.158 150.69 326.736 151.39C328.315 152.073 329.666 153.025 330.789 154.246C331.912 155.467 332.775 156.907 333.377 158.567C333.995 160.228 334.305 162.018 334.305 163.938C334.305 165.875 333.995 167.674 333.377 169.334C332.758 170.978 331.888 172.402 330.765 173.606C329.642 174.811 328.291 175.763 326.712 176.463C325.133 177.146 323.383 177.488 321.463 177.488C319.526 177.488 317.768 177.146 316.189 176.463C314.611 175.763 313.26 174.811 312.137 173.606C311.014 172.402 310.143 170.978 309.524 169.334C308.906 167.674 308.597 165.875 308.597 163.938C308.597 162.018 308.898 160.228 309.5 158.567C310.118 156.907 310.989 155.467 312.112 154.246C313.235 153.025 314.586 152.073 316.165 151.39C317.76 150.69 319.526 150.34 321.463 150.34ZM321.463 171.238C322.423 171.238 323.27 171.059 324.002 170.701C324.751 170.343 325.377 169.847 325.882 169.212C326.386 168.577 326.769 167.82 327.029 166.941C327.29 166.046 327.42 165.07 327.42 164.012V163.841C327.42 162.783 327.29 161.814 327.029 160.936C326.769 160.04 326.386 159.275 325.882 158.641C325.377 157.99 324.751 157.485 324.002 157.127C323.27 156.769 322.423 156.59 321.463 156.59C320.503 156.59 319.648 156.769 318.899 157.127C318.167 157.485 317.549 157.99 317.044 158.641C316.539 159.275 316.157 160.04 315.896 160.936C315.636 161.814 315.506 162.783 315.506 163.841V164.012C315.506 165.07 315.636 166.046 315.896 166.941C316.157 167.82 316.539 168.577 317.044 169.212C317.549 169.847 318.167 170.343 318.899 170.701C319.648 171.059 320.503 171.238 321.463 171.238ZM338.772 150.853H345.511V153.099C345.869 152.741 346.268 152.399 346.707 152.073C347.163 151.731 347.659 151.438 348.196 151.194C348.733 150.934 349.327 150.73 349.979 150.584C350.646 150.421 351.378 150.34 352.176 150.34C353.592 150.34 354.861 150.576 355.984 151.048C357.107 151.504 358.051 152.138 358.816 152.952C359.598 153.766 360.192 154.718 360.599 155.809C361.006 156.899 361.209 158.079 361.209 159.349V177H354.471V161.79C354.471 160.862 354.365 160.081 354.153 159.446C353.942 158.795 353.649 158.274 353.274 157.884C352.916 157.477 352.485 157.184 351.98 157.005C351.492 156.81 350.955 156.712 350.369 156.712C349.686 156.712 349.043 156.834 348.44 157.078C347.854 157.322 347.342 157.697 346.902 158.201C346.463 158.689 346.121 159.308 345.877 160.057C345.633 160.805 345.511 161.684 345.511 162.693V177H338.772V150.853ZM368.704 168.65C369.664 169.513 370.812 170.254 372.146 170.872C373.481 171.491 374.832 171.8 376.199 171.8C377.192 171.8 377.973 171.613 378.543 171.238C379.113 170.848 379.397 170.351 379.397 169.749C379.397 168.724 378.299 167.926 376.102 167.356L374.197 166.844C373.253 166.616 372.301 166.307 371.341 165.916C370.381 165.509 369.493 164.98 368.68 164.329C367.882 163.678 367.231 162.889 366.727 161.961C366.238 161.017 365.994 159.861 365.994 158.494C365.994 157.404 366.23 156.37 366.702 155.394C367.19 154.401 367.874 153.53 368.753 152.781C369.648 152.033 370.73 151.438 372 150.999C373.27 150.56 374.686 150.34 376.248 150.34C378.478 150.34 380.464 150.69 382.205 151.39C383.963 152.09 385.346 152.879 386.355 153.758L382.84 158.25C382.01 157.648 381.025 157.135 379.886 156.712C378.763 156.272 377.632 156.053 376.492 156.053C375.434 156.053 374.612 156.248 374.026 156.639C373.44 157.013 373.147 157.469 373.147 158.006C373.147 158.576 373.4 159.039 373.904 159.397C374.425 159.739 375.174 160.04 376.15 160.301L378.982 161.106C381.684 161.871 383.621 162.905 384.793 164.207C385.965 165.509 386.551 167.153 386.551 169.139C386.551 170.245 386.323 171.303 385.867 172.312C385.411 173.305 384.744 174.192 383.865 174.974C382.986 175.755 381.896 176.373 380.594 176.829C379.292 177.269 377.811 177.488 376.15 177.488C374.881 177.488 373.685 177.374 372.562 177.146C371.455 176.919 370.421 176.609 369.461 176.219C368.517 175.812 367.662 175.356 366.897 174.852C366.132 174.347 365.481 173.842 364.944 173.338L368.704 168.65Z" fill="#F47738"/>
<circle cx="82.7165" cy="160.467" r="45.7165" fill="#BA4AFF"/>
<path d="M0 320.5L480 0.5" stroke="#CA3535" stroke-width="7.5"/>
</g>
<defs>
<clipPath id="clip0_1144_21645">
<rect width="480" height="320" fill="white" transform="translate(0 0.5)"/>
</clipPath>
</defs>
</svg>
