<svg width="480" height="320" viewBox="0 0 480 320" fill="none" xmlns="http://www.w3.org/2000/svg">
<g clip-path="url(#clip0_1144_21586)">
<rect width="480" height="320" fill="white"/>
<path d="M480 0H0V320H480V0Z" fill="#FFDD00"/>
<path d="M92.8564 125.735H113.84C116.55 125.735 118.992 126.187 121.165 127.09C123.362 127.969 125.217 129.19 126.731 130.752C128.245 132.291 129.404 134.122 130.21 136.246C131.04 138.37 131.455 140.677 131.455 143.167C131.455 145.657 131.003 147.964 130.1 150.088C129.221 152.212 127.964 154.056 126.328 155.618C124.717 157.156 122.776 158.365 120.505 159.244C118.235 160.123 115.732 160.562 112.998 160.562H103.477V178.25H92.8564V125.735ZM120.505 142.984C120.505 141.739 120.286 140.64 119.846 139.688C119.407 138.711 118.772 137.881 117.942 137.198C117.112 136.514 116.111 136.001 114.939 135.66C113.767 135.293 112.449 135.11 110.984 135.11H103.477V151.187H110.984C112.449 151.187 113.767 151.016 114.939 150.674C116.111 150.308 117.112 149.783 117.942 149.1C118.772 148.416 119.407 147.598 119.846 146.646C120.286 145.669 120.505 144.559 120.505 143.313V142.984ZM145.591 162.137C145.762 163.309 146.128 164.383 146.689 165.359C147.275 166.336 148.008 167.178 148.887 167.886C149.766 168.57 150.779 169.107 151.926 169.498C153.074 169.888 154.294 170.083 155.588 170.083C157.078 170.083 158.689 169.803 160.422 169.241C162.156 168.655 163.743 167.813 165.183 166.714L170.054 173.819C168.223 175.357 165.977 176.602 163.315 177.554C160.654 178.506 157.822 178.982 154.819 178.982C152.109 178.982 149.558 178.519 147.166 177.591C144.773 176.663 142.673 175.32 140.867 173.562C139.084 171.805 137.668 169.668 136.619 167.154C135.593 164.639 135.081 161.807 135.081 158.658C135.081 155.777 135.532 153.091 136.436 150.601C137.363 148.111 138.645 145.95 140.281 144.119C141.941 142.288 143.918 140.86 146.213 139.834C148.508 138.785 151.047 138.26 153.831 138.26C156.418 138.26 158.823 138.736 161.045 139.688C163.267 140.616 165.195 141.934 166.831 143.643C168.467 145.328 169.749 147.354 170.676 149.722C171.604 152.09 172.068 154.703 172.068 157.559V162.137H145.591ZM153.794 147.049C151.621 147.049 149.778 147.781 148.264 149.246C146.775 150.687 145.908 152.432 145.664 154.483H161.484C161.436 152.408 160.679 150.65 159.214 149.209C157.749 147.769 155.942 147.049 153.794 147.049ZM178.513 139.029H188.621V142.398C189.158 141.861 189.756 141.348 190.415 140.86C191.099 140.347 191.843 139.908 192.649 139.542C193.455 139.151 194.346 138.846 195.322 138.626C196.323 138.382 197.422 138.26 198.618 138.26C200.742 138.26 202.646 138.614 204.331 139.322C206.016 140.005 207.432 140.958 208.579 142.178C209.751 143.399 210.642 144.827 211.252 146.463C211.863 148.099 212.168 149.869 212.168 151.773V178.25H202.061V155.435C202.061 154.043 201.902 152.872 201.584 151.919C201.267 150.943 200.828 150.162 200.266 149.576C199.729 148.965 199.082 148.526 198.325 148.257C197.593 147.964 196.787 147.818 195.908 147.818C194.883 147.818 193.918 148.001 193.015 148.367C192.136 148.733 191.367 149.295 190.708 150.052C190.049 150.784 189.536 151.712 189.17 152.835C188.804 153.958 188.621 155.276 188.621 156.79V178.25H178.513V139.029ZM223.411 165.726C224.851 167.02 226.572 168.13 228.574 169.058C230.576 169.986 232.603 170.45 234.653 170.45C236.143 170.45 237.314 170.169 238.169 169.607C239.023 169.021 239.451 168.277 239.451 167.374C239.451 165.835 237.803 164.639 234.507 163.785L231.65 163.016C230.234 162.674 228.806 162.21 227.366 161.624C225.925 161.014 224.595 160.22 223.374 159.244C222.178 158.267 221.201 157.083 220.444 155.691C219.712 154.275 219.346 152.542 219.346 150.491C219.346 148.855 219.7 147.305 220.408 145.84C221.14 144.351 222.166 143.045 223.484 141.922C224.827 140.799 226.45 139.908 228.354 139.249C230.259 138.589 232.383 138.26 234.727 138.26C238.071 138.26 241.05 138.785 243.662 139.834C246.299 140.884 248.374 142.068 249.888 143.387L244.614 150.125C243.369 149.222 241.892 148.453 240.183 147.818C238.499 147.159 236.802 146.829 235.093 146.829C233.506 146.829 232.273 147.122 231.394 147.708C230.515 148.27 230.076 148.953 230.076 149.759C230.076 150.613 230.454 151.309 231.211 151.846C231.992 152.359 233.115 152.811 234.58 153.201L238.828 154.41C242.881 155.557 245.786 157.107 247.544 159.061C249.302 161.014 250.181 163.479 250.181 166.458C250.181 168.118 249.839 169.705 249.155 171.219C248.472 172.708 247.471 174.039 246.152 175.21C244.834 176.382 243.198 177.31 241.245 177.994C239.292 178.653 237.07 178.982 234.58 178.982C232.676 178.982 230.881 178.812 229.197 178.47C227.537 178.128 225.986 177.664 224.546 177.078C223.13 176.468 221.848 175.784 220.701 175.027C219.553 174.271 218.577 173.514 217.771 172.757L223.411 165.726ZM266.843 178.25H256.736V139.029H266.843V178.25ZM255.674 128.738C255.674 127.908 255.833 127.127 256.15 126.395C256.467 125.638 256.895 124.991 257.432 124.454C257.993 123.892 258.64 123.453 259.373 123.135C260.105 122.818 260.898 122.659 261.753 122.659C262.583 122.659 263.364 122.818 264.097 123.135C264.854 123.453 265.5 123.892 266.038 124.454C266.599 124.991 267.039 125.638 267.356 126.395C267.673 127.127 267.832 127.908 267.832 128.738C267.832 129.593 267.673 130.386 267.356 131.119C267.039 131.851 266.599 132.498 266.038 133.06C265.5 133.597 264.854 134.024 264.097 134.341C263.364 134.659 262.583 134.817 261.753 134.817C260.898 134.817 260.105 134.659 259.373 134.341C258.64 134.024 257.993 133.597 257.432 133.06C256.895 132.498 256.467 131.851 256.15 131.119C255.833 130.386 255.674 129.593 255.674 128.738ZM292.808 138.26C295.713 138.26 298.35 138.785 300.718 139.834C303.086 140.86 305.112 142.288 306.797 144.119C308.481 145.95 309.775 148.111 310.679 150.601C311.606 153.091 312.07 155.777 312.07 158.658C312.07 161.563 311.606 164.261 310.679 166.751C309.751 169.217 308.445 171.353 306.76 173.16C305.076 174.966 303.049 176.395 300.681 177.444C298.313 178.47 295.688 178.982 292.808 178.982C289.902 178.982 287.266 178.47 284.897 177.444C282.529 176.395 280.503 174.966 278.818 173.16C277.134 171.353 275.828 169.217 274.9 166.751C273.972 164.261 273.508 161.563 273.508 158.658C273.508 155.777 273.96 153.091 274.863 150.601C275.791 148.111 277.097 145.95 278.782 144.119C280.466 142.288 282.493 140.86 284.861 139.834C287.253 138.785 289.902 138.26 292.808 138.26ZM292.808 169.607C294.248 169.607 295.518 169.339 296.616 168.802C297.739 168.265 298.679 167.52 299.436 166.568C300.193 165.616 300.767 164.48 301.157 163.162C301.548 161.819 301.743 160.354 301.743 158.768V158.511C301.743 156.924 301.548 155.472 301.157 154.153C300.767 152.811 300.193 151.663 299.436 150.711C298.679 149.734 297.739 148.978 296.616 148.44C295.518 147.903 294.248 147.635 292.808 147.635C291.367 147.635 290.085 147.903 288.962 148.44C287.864 148.978 286.936 149.734 286.179 150.711C285.422 151.663 284.849 152.811 284.458 154.153C284.067 155.472 283.872 156.924 283.872 158.511V158.768C283.872 160.354 284.067 161.819 284.458 163.162C284.849 164.48 285.422 165.616 286.179 166.568C286.936 167.52 287.864 168.265 288.962 168.802C290.085 169.339 291.367 169.607 292.808 169.607ZM318.772 139.029H328.879V142.398C329.417 141.861 330.015 141.348 330.674 140.86C331.357 140.347 332.102 139.908 332.908 139.542C333.713 139.151 334.604 138.846 335.581 138.626C336.582 138.382 337.681 138.26 338.877 138.26C341.001 138.26 342.905 138.614 344.59 139.322C346.274 140.005 347.69 140.958 348.838 142.178C350.01 143.399 350.901 144.827 351.511 146.463C352.122 148.099 352.427 149.869 352.427 151.773V178.25H342.319V155.435C342.319 154.043 342.161 152.872 341.843 151.919C341.526 150.943 341.086 150.162 340.525 149.576C339.988 148.965 339.341 148.526 338.584 148.257C337.852 147.964 337.046 147.818 336.167 147.818C335.142 147.818 334.177 148.001 333.274 148.367C332.395 148.733 331.626 149.295 330.967 150.052C330.308 150.784 329.795 151.712 329.429 152.835C329.062 153.958 328.879 155.276 328.879 156.79V178.25H318.772V139.029ZM363.669 165.726C365.11 167.02 366.831 168.13 368.833 169.058C370.835 169.986 372.861 170.45 374.912 170.45C376.401 170.45 377.573 170.169 378.428 169.607C379.282 169.021 379.709 168.277 379.709 167.374C379.709 165.835 378.062 164.639 374.766 163.785L371.909 163.016C370.493 162.674 369.065 162.21 367.625 161.624C366.184 161.014 364.854 160.22 363.633 159.244C362.437 158.267 361.46 157.083 360.703 155.691C359.971 154.275 359.604 152.542 359.604 150.491C359.604 148.855 359.958 147.305 360.667 145.84C361.399 144.351 362.424 143.045 363.743 141.922C365.085 140.799 366.709 139.908 368.613 139.249C370.518 138.589 372.642 138.26 374.985 138.26C378.33 138.26 381.309 138.785 383.921 139.834C386.558 140.884 388.633 142.068 390.146 143.387L384.873 150.125C383.628 149.222 382.151 148.453 380.442 147.818C378.757 147.159 377.061 146.829 375.352 146.829C373.765 146.829 372.532 147.122 371.653 147.708C370.774 148.27 370.334 148.953 370.334 149.759C370.334 150.613 370.713 151.309 371.47 151.846C372.251 152.359 373.374 152.811 374.839 153.201L379.087 154.41C383.14 155.557 386.045 157.107 387.803 159.061C389.561 161.014 390.439 163.479 390.439 166.458C390.439 168.118 390.098 169.705 389.414 171.219C388.73 172.708 387.729 174.039 386.411 175.21C385.093 176.382 383.457 177.31 381.504 177.994C379.551 178.653 377.329 178.982 374.839 178.982C372.935 178.982 371.14 178.812 369.456 178.47C367.795 178.128 366.245 177.664 364.805 177.078C363.389 176.468 362.107 175.784 360.959 175.027C359.812 174.271 358.835 173.514 358.03 172.757L363.669 165.726Z" fill="#F47738"/>
<path d="M0 320L480 0" stroke="#CA3535" stroke-width="7.5"/>
</g>
<defs>
<clipPath id="clip0_1144_21586">
<rect width="480" height="320" fill="white"/>
</clipPath>
</defs>
</svg>
