<svg width="438" height="378" viewBox="0 0 438 378" fill="none" xmlns="http://www.w3.org/2000/svg">
<rect width="438" height="378" fill="#1D70B8"/>
<path d="M246.167 198.025C251.152 198.025 255.192 193.984 255.192 189C255.192 184.015 251.152 179.974 246.167 179.974C241.183 179.974 237.142 184.015 237.142 189C237.142 193.984 241.183 198.025 246.167 198.025Z" fill="#00FFE0"/>
<path d="M83.0276 189.149C83.0276 191.435 83.3135 193.635 83.8853 195.748C84.4563 197.86 85.3258 199.724 86.4949 201.339C87.6631 202.955 89.1537 204.254 90.9684 205.235C92.783 206.217 94.9456 206.709 97.4559 206.709C99.9662 206.709 101.874 206.323 103.477 205.553C105.08 204.783 106.36 203.819 107.317 202.663C108.273 201.508 108.944 200.259 109.33 198.917C109.715 197.575 109.907 196.332 109.907 195.189V194.667H96.2258V186.428H120.42V215.73H110.952V209.467C110.281 210.511 109.448 211.462 108.454 212.319C107.46 213.176 106.342 213.91 105.098 214.518C103.855 215.127 102.494 215.606 101.016 215.954C99.5374 216.302 97.9649 216.476 96.3004 216.476C92.3979 216.476 88.9315 215.767 85.8994 214.351C82.8674 212.934 80.3133 210.983 78.2382 208.498C76.1631 206.013 74.5852 203.105 73.5035 199.774C72.4227 196.444 71.8818 192.853 71.8818 189C71.8818 185.146 72.4846 181.588 73.6901 178.245C74.8957 174.903 76.6102 171.995 78.8356 169.522C81.06 167.049 83.7433 165.098 86.8874 163.669C90.0314 162.239 93.5543 161.524 97.4568 161.524C99.9917 161.524 102.396 161.817 104.67 162.4C106.945 162.985 109.02 163.817 110.896 164.898C112.772 165.979 114.431 167.284 115.873 168.812C117.314 170.34 118.483 172.037 119.378 173.901L109.908 179.231C109.336 178.089 108.665 177.026 107.895 176.044C107.124 175.063 106.236 174.217 105.23 173.509C104.223 172.8 103.074 172.241 101.782 171.832C100.489 171.422 99.0475 171.216 97.4577 171.216C94.9474 171.216 92.7849 171.708 90.9702 172.689C89.1555 173.671 87.665 174.969 86.4967 176.585C85.3285 178.201 84.459 180.071 83.8872 182.196C83.3154 184.321 83.0295 186.516 83.0295 188.776V189.149H83.0276Z" fill="white"/>
<path d="M154.852 161.524C158.829 161.524 162.395 162.239 165.552 163.669C168.709 165.098 171.387 167.049 173.586 169.522C175.785 171.995 177.463 174.903 178.619 178.245C179.774 181.588 180.352 185.174 180.352 189C180.352 192.826 179.774 196.444 178.619 199.774C177.463 203.105 175.785 206.013 173.586 208.498C171.387 210.983 168.709 212.934 165.552 214.351C162.396 215.767 158.829 216.476 154.852 216.476C150.876 216.476 147.278 215.767 144.134 214.351C140.99 212.934 138.319 210.983 136.12 208.498C133.92 206.013 132.243 203.105 131.087 199.774C129.932 196.444 129.354 192.853 129.354 189C129.354 185.146 129.932 181.588 131.087 178.245C132.243 174.903 133.92 171.995 136.12 169.522C138.319 167.049 140.99 165.098 144.134 163.669C147.278 162.239 150.85 161.524 154.852 161.524ZM154.852 206.708C157.189 206.708 159.246 206.267 161.022 205.384C162.798 204.502 164.297 203.278 165.514 201.712C166.732 200.146 167.652 198.295 168.273 196.157C168.894 194.02 169.205 191.684 169.205 189.149V188.85C169.205 186.34 168.894 184.01 168.273 181.86C167.652 179.71 166.732 177.852 165.514 176.287C164.296 174.722 162.798 173.498 161.022 172.615C159.246 171.733 157.189 171.292 154.852 171.292C152.516 171.292 150.453 171.733 148.663 172.615C146.874 173.498 145.377 174.722 144.172 176.287C142.966 177.852 142.053 179.711 141.432 181.86C140.811 184.01 140.5 186.34 140.5 188.85V189.149C140.5 191.684 140.811 194.02 141.432 196.157C142.053 198.295 142.966 200.145 144.172 201.712C145.377 203.278 146.874 204.502 148.663 205.384C150.453 206.267 152.516 206.708 154.852 206.708Z" fill="white"/>
<path d="M199.412 215.729L184.313 162.27H196.43L206.757 202.457H207.13L217.233 162.27H229.199L214.101 215.729H199.413H199.412Z" fill="white"/>
<path d="M290.431 206.707C291.996 206.707 293.457 206.478 294.811 206.018C296.165 205.558 297.334 204.863 298.315 203.93C299.296 202.998 300.073 201.819 300.645 200.388C301.216 198.96 301.502 197.276 301.502 195.338V162.195H312.127V196.94C312.127 199.923 311.587 202.62 310.507 205.03C309.427 207.441 307.925 209.492 306 211.182C304.075 212.873 301.784 214.177 299.128 215.096C296.471 216.015 293.566 216.476 290.413 216.476C287.259 216.476 284.353 216.015 281.697 215.096C279.039 214.177 276.743 212.872 274.805 211.182C272.868 209.492 271.36 207.442 270.279 205.03C269.199 202.62 268.659 199.922 268.659 196.94V162.195H279.359V195.338C279.359 197.276 279.645 198.96 280.216 200.388C280.787 201.819 281.564 202.998 282.546 203.93C283.527 204.863 284.695 205.558 286.05 206.018C287.405 206.478 288.866 206.707 290.431 206.707Z" fill="white"/>
<path d="M321.716 162.27H332.528V185.42L351.615 162.27H364.925L346.359 183.519L366.117 215.729H353.555L339.425 191.758L332.528 199.474V215.729H321.716V162.27Z" fill="white"/>
</svg>
