<svg width="700" height="700" viewBox="0 0 700 700" fill="none" xmlns="http://www.w3.org/2000/svg">
<path d="M478.872 657.975C306.813 729.067 111.687 647.765 41.729 477.975C-28.6071 308.563 51.939 111.169 223.998 40.8328C392.653 -28.3688 588.535 54.4461 658.493 224.236C728.451 393.269 647.527 588.773 478.872 657.975Z" fill="#00FFE0"/>
<path d="M165.069 16.2764H534.928" stroke="#FF5E5E" stroke-width="1.92355" stroke-miterlimit="10"/>
<path d="M362.478 3.80713H337.541V28.7448H362.478V3.80713Z" fill="white"/>
<path d="M360.574 5.71085V26.8413H339.444V5.71085H360.574ZM364.381 1.90356H335.636V30.6486H364.381V1.90356Z" fill="#FF5E5E"/>
<path d="M165.071 30.6486C173.009 30.6486 179.444 24.2138 179.444 16.2761C179.444 8.33835 173.009 1.90356 165.071 1.90356C157.133 1.90356 150.699 8.33835 150.699 16.2761C150.699 24.2138 157.133 30.6486 165.071 30.6486Z" fill="white" stroke="#FF5E5E" stroke-width="1.92355" stroke-miterlimit="10"/>
<path d="M534.929 30.6486C542.867 30.6486 549.301 24.2138 549.301 16.2761C549.301 8.33835 542.867 1.90356 534.929 1.90356C526.991 1.90356 520.556 8.33835 520.556 16.2761C520.556 24.2138 526.991 30.6486 534.929 30.6486Z" fill="white" stroke="#FF5E5E" stroke-width="1.92355" stroke-miterlimit="10"/>
<path d="M165.069 683.726H534.928" stroke="#FF5E5E" stroke-width="1.92355" stroke-miterlimit="10"/>
<path d="M362.478 671.257H337.541V696.195H362.478V671.257Z" fill="white"/>
<path d="M360.574 673.161V694.291H339.444V673.161H360.574ZM364.381 669.353H335.636V698.098H364.381V669.353Z" fill="#FF5E5E"/>
<path d="M165.071 698.098C173.009 698.098 179.444 691.663 179.444 683.726C179.444 675.788 173.009 669.353 165.071 669.353C157.133 669.353 150.699 675.788 150.699 683.726C150.699 691.663 157.133 698.098 165.071 698.098Z" fill="white" stroke="#FF5E5E" stroke-width="1.92355" stroke-miterlimit="10"/>
<path d="M534.929 698.098C542.867 698.098 549.301 691.663 549.301 683.726C549.301 675.788 542.867 669.353 534.929 669.353C526.991 669.353 520.556 675.788 520.556 683.726C520.556 691.663 526.991 698.098 534.929 698.098Z" fill="white" stroke="#FF5E5E" stroke-width="1.92355" stroke-miterlimit="10"/>
<g clip-path="url(#clip0_52_278)">
<path d="M683.724 165.072L683.724 534.93" stroke="#FF5E5E" stroke-width="1.92355" stroke-miterlimit="10"/>
<path d="M696.193 362.48L696.193 337.542L671.255 337.542L671.255 362.48L696.193 362.48Z" fill="white"/>
<path d="M694.289 360.576L673.158 360.576L673.158 339.445L694.289 339.445L694.289 360.576ZM698.096 364.383L698.096 335.638L669.351 335.638L669.351 364.383L698.096 364.383Z" fill="#FF5E5E"/>
<path d="M669.351 165.073C669.351 173.01 675.786 179.445 683.724 179.445C691.661 179.445 698.096 173.01 698.096 165.073C698.096 157.135 691.661 150.7 683.724 150.7C675.786 150.7 669.351 157.135 669.351 165.073Z" fill="white" stroke="#FF5E5E" stroke-width="1.92355" stroke-miterlimit="10"/>
<path d="M669.351 534.931C669.351 542.869 675.786 549.303 683.724 549.303C691.661 549.303 698.096 542.869 698.096 534.931C698.096 526.993 691.661 520.558 683.724 520.558C675.786 520.558 669.351 526.993 669.351 534.931Z" fill="white" stroke="#FF5E5E" stroke-width="1.92355" stroke-miterlimit="10"/>
</g>
<g clip-path="url(#clip1_52_278)">
<path d="M16.2762 165.072L16.2762 534.93" stroke="#FF5E5E" stroke-width="1.92355" stroke-miterlimit="10"/>
<path d="M28.7443 362.48L28.7443 337.542L3.80655 337.542L3.80655 362.48L28.7443 362.48Z" fill="white"/>
<path d="M26.841 360.576L5.71057 360.576L5.71058 339.445L26.841 339.445L26.841 360.576ZM30.6483 364.383L30.6483 335.638L1.90329 335.638L1.90329 364.383L30.6483 364.383Z" fill="#FF5E5E"/>
<path d="M1.90329 165.073C1.90329 173.01 8.33808 179.445 16.2758 179.445C24.2135 179.445 30.6483 173.01 30.6483 165.073C30.6483 157.135 24.2135 150.7 16.2758 150.7C8.33808 150.7 1.90329 157.135 1.90329 165.073Z" fill="white" stroke="#FF5E5E" stroke-width="1.92355" stroke-miterlimit="10"/>
<path d="M1.90329 534.931C1.90329 542.869 8.33808 549.303 16.2758 549.303C24.2135 549.303 30.6483 542.869 30.6483 534.931C30.6483 526.993 24.2135 520.558 16.2758 520.558C8.33808 520.558 1.90329 526.993 1.90329 534.931Z" fill="white" stroke="#FF5E5E" stroke-width="1.92355" stroke-miterlimit="10"/>
</g>
<defs>
<clipPath id="clip0_52_278">
<rect width="402.411" height="32.5523" fill="white" transform="translate(700 148.796) rotate(90)"/>
</clipPath>
<clipPath id="clip1_52_278">
<rect width="402.411" height="32.5523" fill="white" transform="translate(32.5522 148.796) rotate(90)"/>
</clipPath>
</defs>
</svg>
