<svg width="174" height="59" viewBox="0 0 174 59" fill="none" xmlns="http://www.w3.org/2000/svg">
<path d="M162.957 57.5783V0.112305H173.972V57.5783H162.957Z" fill="#CECECE"/>
<path d="M126.502 28.6494L116.506 26.8462C117.629 22.8218 119.563 19.8426 122.307 17.9088C125.051 15.975 129.128 15.0081 134.537 15.0081C139.45 15.0081 143.109 15.596 145.513 16.772C147.917 17.9219 149.603 19.3984 150.57 21.2015C151.563 22.9786 152.059 26.2582 152.059 31.0405L151.942 43.8979C151.942 47.5564 152.112 50.2612 152.451 52.0121C152.817 53.7368 153.484 55.5923 154.451 57.5784H143.553C143.266 56.8466 142.913 55.7621 142.495 54.3248C142.312 53.6715 142.181 53.2403 142.103 53.0313C140.221 54.8606 138.209 56.2325 136.066 57.1472C133.923 58.0618 131.637 58.5191 129.206 58.5191C124.92 58.5191 121.536 57.3562 119.054 55.0304C116.597 52.7046 115.369 49.7647 115.369 46.2106C115.369 43.8587 115.931 41.768 117.055 39.9387C118.178 38.0833 119.746 36.6721 121.758 35.7052C123.797 34.7122 126.724 33.8498 130.539 33.1181C135.687 32.1512 139.254 31.2496 141.24 30.4133V29.3158C141.24 27.199 140.718 25.6964 139.672 24.8079C138.627 23.8932 136.654 23.4359 133.753 23.4359C131.793 23.4359 130.265 23.8279 129.167 24.6119C128.069 25.3697 127.181 26.7155 126.502 28.6494ZM141.24 37.5868C139.829 38.0572 137.595 38.619 134.537 39.2723C131.48 39.9257 129.481 40.5659 128.54 41.1931C127.103 42.2123 126.384 43.5059 126.384 45.0738C126.384 46.6157 126.959 47.9484 128.109 49.0721C129.259 50.1959 130.722 50.7577 132.499 50.7577C134.485 50.7577 136.38 50.1044 138.183 48.7977C139.516 47.8047 140.391 46.5895 140.809 45.1522C141.097 44.2114 141.24 42.4213 141.24 39.7819V37.5868Z" fill="#CECECE"/>
<path d="M95.9261 10.3041V0.112305H106.941V10.3041H95.9261ZM95.9261 57.5783V15.9488H106.941V57.5783H95.9261Z" fill="#CECECE"/>
<path d="M75.1898 57.5784H64.1748V15.9488H74.4058V21.8679C76.1567 19.0717 77.7247 17.2293 79.1097 16.3408C80.5209 15.4523 82.115 15.0081 83.892 15.0081C86.4007 15.0081 88.818 15.7006 91.1438 17.0856L87.7335 26.6894C85.8781 25.4873 84.1533 24.8863 82.5592 24.8863C81.0174 24.8863 79.7107 25.3174 78.6393 26.1798C77.5679 27.0161 76.7185 28.5448 76.0914 30.7661C75.4903 32.9874 75.1898 37.639 75.1898 44.721V57.5784Z" fill="#CECECE"/>
<path d="M58.5302 57.5783H45.908L40.8905 44.525H17.9198L13.1767 57.5783H0.868164L23.2509 0.112305H35.5202L58.5302 57.5783ZM37.1666 34.8428L29.2484 13.5184L21.4869 34.8428H37.1666Z" fill="#CECECE"/>
</svg>
