<svg width="481" height="69" viewBox="0 0 481 69" fill="none" xmlns="http://www.w3.org/2000/svg">
<g clip-path="url(#clip0_1389_814)">
<rect width="480.363" height="68.6703" fill="white"/>
<rect opacity="0.8" width="480" height="62" fill="white"/>
<path d="M11.057 31.0815C11.057 33.275 11.3312 35.3852 11.8795 37.4118C12.428 39.4386 13.2625 41.2268 14.3831 42.7766C15.5038 44.3264 16.9344 45.5782 18.6749 46.5319C20.4154 47.4618 22.4898 47.9267 24.898 47.9267C27.2108 47.9267 29.1301 47.5571 30.6561 46.818C32.2059 46.0789 33.4339 45.1609 34.3399 44.0642C35.2698 42.9435 35.9136 41.7394 36.2712 40.4519C36.6527 39.1643 36.8435 37.9722 36.8435 36.8754V36.3747H23.7177V28.4706H46.9291V56.5818H37.8448V50.5733C37.2011 51.5748 36.4024 52.4927 35.4486 53.3272C34.4949 54.1379 33.422 54.8412 32.2298 55.4374C31.0376 56.0096 29.7262 56.4626 28.2956 56.7964C26.8889 57.1302 25.3868 57.2971 23.7893 57.2971C20.0459 57.2971 16.7198 56.6176 13.8109 55.2585C10.902 53.8995 8.44616 52.0278 6.44331 49.6434C4.46432 47.2591 2.95027 44.4695 1.90117 41.2745C0.875908 38.0794 0.363281 34.6341 0.363281 30.9384C0.363281 27.2666 0.935523 23.8332 2.08 20.6382C3.24831 17.4193 4.8935 14.6297 7.01555 12.2692C9.16145 9.88483 11.7366 8.01314 14.7408 6.65408C17.7689 5.27117 21.1546 4.57971 24.898 4.57971C27.33 4.57971 29.6309 4.86583 31.8006 5.43807C33.9942 5.98646 35.9851 6.78521 37.7733 7.83431C39.5854 8.85958 41.1829 10.1113 42.5658 11.5896C43.9487 13.044 45.0694 14.6654 45.9278 16.4537L36.8435 21.5681C36.295 20.4712 35.6513 19.4579 34.9121 18.528C34.173 17.5743 33.3146 16.7636 32.3371 16.096C31.3834 15.4045 30.2865 14.868 29.0467 14.4866C27.8068 14.0812 26.4239 13.8786 24.898 13.8786C22.4898 13.8786 20.4154 14.3554 18.6749 15.3092C16.9344 16.2391 15.5038 17.4789 14.3831 19.0287C13.2625 20.5785 12.428 22.3787 11.8795 24.4292C11.3312 26.4559 11.057 28.5541 11.057 30.7239V31.0815ZM99.7893 30.9384C99.7893 34.7772 99.2652 38.2822 98.2161 41.4533C97.1907 44.6006 95.6411 47.2949 93.5666 49.5362C91.5157 51.7774 88.9407 53.518 85.8415 54.7578C82.7416 55.9738 79.1175 56.5818 74.9688 56.5818H56.0849V5.29501H74.9688C79.1175 5.29501 82.7416 5.91493 85.8415 7.15478C88.9407 8.37079 91.5157 10.0994 93.5666 12.3407C95.6411 14.582 97.1907 17.2882 98.2161 20.4593C99.2652 23.6066 99.7893 27.0996 99.7893 30.9384ZM89.0245 29.937C89.0245 27.7672 88.7502 25.7526 88.2017 23.8927C87.6776 22.0091 86.819 20.3759 85.6267 18.993C84.4588 17.6101 82.9328 16.5252 81.0489 15.7384C79.1652 14.9277 76.8882 14.5223 74.2177 14.5223H66.4568V47.3545H74.2177C76.8644 47.3545 79.1295 46.9611 81.0131 46.1742C82.897 45.3636 84.423 44.2668 85.5909 42.8839C86.7832 41.4771 87.6532 39.832 88.2017 37.9483C88.7502 36.0648 89.0245 34.05 89.0245 31.904V29.937ZM111.592 42.1686C112.26 42.9316 113.071 43.6826 114.024 44.4218C114.978 45.1609 116.027 45.8285 117.172 46.4246C118.339 46.9969 119.603 47.4618 120.962 47.8194C122.322 48.1533 123.788 48.3201 125.361 48.3201C128.294 48.3201 130.536 47.7122 132.085 46.4961C133.659 45.2563 134.445 43.7542 134.445 41.9897C134.445 40.1539 133.755 38.759 132.372 37.8053C131.013 36.8515 128.843 36.1005 125.863 35.5521L124.253 35.266C122.107 34.8845 119.973 34.3838 117.851 33.7638C115.729 33.1439 113.809 32.2498 112.093 31.0815C110.376 29.9132 108.981 28.423 107.908 26.6108C106.836 24.775 106.298 22.4622 106.298 19.6725C106.298 18.0512 106.657 16.3583 107.372 14.5939C108.087 12.8057 109.219 11.1724 110.77 9.69409C112.343 8.19196 114.358 6.96404 116.813 6.01031C119.293 5.05658 122.286 4.57971 125.791 4.57971C129.939 4.57971 133.635 5.27117 136.878 6.65408C140.144 8.01314 142.779 9.8133 144.782 12.0546L137.879 18.4923C136.473 16.9425 134.66 15.7264 132.443 14.8442C130.249 13.962 127.984 13.521 125.648 13.521C122.953 13.521 120.844 14.0335 119.318 15.0588C117.815 16.0841 117.064 17.4193 117.064 19.0645C117.064 20.1374 117.303 21.0316 117.779 21.7469C118.28 22.4622 118.972 23.0582 119.854 23.5351C120.736 23.9881 121.797 24.3696 123.037 24.6796C124.276 24.9896 125.66 25.2995 127.186 25.6095L128.008 25.7526C130.059 26.134 132.098 26.6228 134.124 27.2189C136.15 27.7911 137.987 28.6495 139.631 29.794C141.301 30.9146 142.648 32.3928 143.673 34.2288C144.698 36.0409 145.211 38.3656 145.211 41.2029C145.211 43.778 144.675 46.055 143.601 48.034C142.529 50.013 141.11 51.7059 139.346 53.1126C137.581 54.4955 135.543 55.5447 133.23 56.26C130.917 56.9514 128.508 57.2971 126.005 57.2971C123.478 57.2971 121.129 57.0825 118.96 56.6534C116.813 56.2242 114.859 55.6162 113.094 54.8294C111.353 54.0425 109.792 53.1603 108.409 52.1827C107.05 51.2052 105.857 50.1561 104.833 49.0355L111.592 42.1686ZM160.983 5.29501H200.074V14.9157H185.733V56.5818H175.325V14.9157H160.983V5.29501ZM222.928 27.8626H221.891C220.484 27.8626 219.137 28.0057 217.85 28.2918C216.586 28.5779 215.465 29.1025 214.488 29.8655C213.51 30.6046 212.723 31.6299 212.127 32.9413C211.555 34.2526 211.269 35.9336 211.269 37.9841V56.5818H201.398V18.2777H211.269V22.6052C211.674 21.9615 212.199 21.3415 212.843 20.7454C213.487 20.1494 214.237 19.6248 215.096 19.1718C215.954 18.6949 216.919 18.3134 217.993 18.0273C219.065 17.7412 220.222 17.5981 221.461 17.5981H222.928V27.8626ZM241.454 41.0241C240.239 41.2149 239.26 41.644 238.521 42.3116C237.782 42.9554 237.413 43.8376 237.413 44.9583C237.413 46.1981 237.866 47.2711 238.772 48.1771C239.678 49.0593 241.013 49.5004 242.778 49.5004C244.637 49.5004 246.104 48.964 247.177 47.891C248.249 46.818 248.786 45.3994 248.786 43.6349V39.7723L241.454 41.0241ZM250.395 52.9696C249.99 53.4226 249.49 53.9114 248.893 54.436C248.321 54.9366 247.63 55.4016 246.819 55.8308C246.032 56.2361 245.102 56.5818 244.03 56.868C242.956 57.154 241.752 57.2971 240.417 57.2971C238.51 57.2971 236.746 56.9991 235.124 56.403C233.527 55.7831 232.12 54.9247 230.904 53.8279C229.688 52.7312 228.734 51.4674 228.042 50.0368C227.351 48.5824 227.005 47.0088 227.005 45.3159C227.005 42.2401 227.959 39.7246 229.867 37.7695C231.774 35.8143 234.409 34.5864 237.77 34.0857L248.786 32.4763V31.761C248.786 30.0443 248.262 28.6853 247.212 27.6838C246.163 26.6824 244.458 26.1817 242.098 26.1817C241.121 26.1817 240.131 26.3009 239.129 26.5394C238.128 26.7539 237.162 27.0043 236.233 27.2904C235.326 27.5766 234.48 27.9103 233.694 28.2918C232.907 28.6495 232.215 28.9713 231.619 29.2575L227.757 21.7111C229.95 20.4951 232.382 19.4936 235.053 18.7068C237.747 17.92 240.536 17.5266 243.422 17.5266C245.186 17.5266 246.962 17.7173 248.751 18.0989C250.562 18.4565 252.196 19.1241 253.65 20.1017C255.129 21.0793 256.332 22.4145 257.263 24.1074C258.192 25.7764 258.657 27.9103 258.657 30.5093V46.2458C258.657 47.3664 258.943 48.201 259.515 48.7493C260.112 49.2739 260.923 49.7627 261.947 50.2157L257.477 57.2971C255.665 57.1064 254.211 56.6415 253.114 55.9023C252.017 55.1394 251.111 54.1618 250.395 52.9696ZM266.919 18.2777H276.79V21.5681C277.314 21.0435 277.899 20.5428 278.542 20.0659C279.21 19.5652 279.937 19.136 280.724 18.7784C281.511 18.3969 282.381 18.0989 283.335 17.8843C284.313 17.6458 285.385 17.5266 286.554 17.5266C288.628 17.5266 290.488 17.8723 292.133 18.5637C293.779 19.2314 295.161 20.1612 296.282 21.3535C297.426 22.5456 298.297 23.9404 298.893 25.5379C299.488 27.1354 299.787 28.8641 299.787 30.7239V56.5818H289.916V34.3003C289.916 32.9413 289.761 31.7968 289.45 30.8669C289.141 29.9132 288.711 29.1502 288.163 28.5779C287.639 27.9819 287.006 27.5527 286.267 27.2904C285.552 27.0043 284.766 26.8613 283.907 26.8613C282.905 26.8613 281.964 27.0401 281.082 27.3977C280.224 27.7554 279.473 28.3037 278.829 29.0429C278.185 29.7582 277.684 30.6642 277.327 31.761C276.968 32.8578 276.79 34.1454 276.79 35.6237V56.5818H266.919V18.2777ZM310.767 44.3502C312.173 45.614 313.855 46.6988 315.809 47.6048C317.764 48.5109 319.744 48.964 321.746 48.964C323.201 48.964 324.345 48.6897 325.18 48.1413C326.014 47.5691 326.432 46.8418 326.432 45.9597C326.432 44.4576 324.822 43.2892 321.603 42.4547L318.814 41.7037C317.431 41.3698 316.036 40.9169 314.629 40.3446C313.222 39.7485 311.923 38.9736 310.731 38.0199C309.562 37.0661 308.608 35.9097 307.869 34.5507C307.154 33.1678 306.797 31.4749 306.797 29.4721C306.797 27.8746 307.143 26.3605 307.834 24.9299C308.549 23.4755 309.551 22.1999 310.838 21.1031C312.15 20.0063 313.735 19.136 315.595 18.4923C317.455 17.8484 319.529 17.5266 321.818 17.5266C325.085 17.5266 327.994 18.0392 330.545 19.0645C333.12 20.0897 335.146 21.2461 336.624 22.5337L331.474 29.1144C330.258 28.2322 328.816 27.4812 327.147 26.8613C325.502 26.2174 323.845 25.8955 322.175 25.8955C320.626 25.8955 319.422 26.1817 318.563 26.7539C317.705 27.3024 317.276 27.97 317.276 28.7568C317.276 29.5913 317.645 30.2708 318.384 30.7953C319.148 31.2961 320.244 31.7372 321.675 32.1186L325.824 33.2989C329.782 34.4196 332.619 35.9336 334.336 37.8411C336.052 39.7485 336.911 42.1567 336.911 45.0655C336.911 46.6869 336.577 48.2367 335.909 49.715C335.242 51.1694 334.264 52.4689 332.977 53.6134C331.689 54.7578 330.092 55.6639 328.184 56.3315C326.276 56.9752 324.107 57.2971 321.675 57.2971C319.815 57.2971 318.063 57.1302 316.417 56.7964C314.796 56.4626 313.282 56.0096 311.875 55.4374C310.493 54.8412 309.241 54.1736 308.12 53.4345C306.999 52.6954 306.046 51.9562 305.259 51.2171L310.767 44.3502ZM353.184 68.6703H343.313V18.2777H353.184V21.5681C354.257 20.4474 355.58 19.4936 357.154 18.7068C358.727 17.92 360.635 17.5266 362.876 17.5266C365.404 17.5266 367.692 18.0392 369.743 19.0645C371.817 20.0659 373.594 21.4607 375.072 23.249C376.55 25.0134 377.695 27.1116 378.505 29.5436C379.316 31.9756 379.721 34.6103 379.721 37.4477C379.721 40.285 379.304 42.9197 378.469 45.3517C377.635 47.7837 376.466 49.8819 374.965 51.6463C373.463 53.4107 371.662 54.7936 369.564 55.795C367.466 56.7964 365.153 57.2971 362.626 57.2971C361.505 57.2971 360.48 57.1899 359.55 56.9752C358.644 56.7845 357.81 56.5103 357.046 56.1527C356.284 55.795 355.58 55.3777 354.936 54.9009C354.292 54.4001 353.708 53.8637 353.184 53.2914V68.6703ZM352.897 40.9884C352.897 42.0136 353.076 42.9673 353.434 43.8496C353.815 44.7079 354.352 45.4589 355.043 46.1027C355.735 46.7465 356.557 47.2472 357.511 47.6048C358.489 47.9625 359.586 48.1413 360.801 48.1413C362.209 48.1413 363.448 47.891 364.522 47.3903C365.618 46.8657 366.536 46.1385 367.275 45.2086C368.015 44.2787 368.575 43.182 368.956 41.9182C369.338 40.6307 369.528 39.224 369.528 37.698V37.233C369.528 35.7071 369.338 34.3003 368.956 33.0128C368.575 31.7252 368.015 30.6165 367.275 29.6866C366.536 28.733 365.618 27.9938 364.522 27.4692C363.448 26.9447 362.209 26.6824 360.801 26.6824C359.586 26.6824 358.489 26.8613 357.511 27.2189C356.557 27.5766 355.735 28.0772 355.043 28.721C354.352 29.3647 353.815 30.1277 353.434 31.0099C353.076 31.8922 352.897 32.8459 352.897 33.8711V40.9884ZM403.148 17.5266C405.985 17.5266 408.56 18.0392 410.873 19.0645C413.186 20.0659 415.164 21.4607 416.81 23.249C418.455 25.0372 419.718 27.1473 420.601 29.5794C421.507 32.0114 421.96 34.6341 421.96 37.4477C421.96 40.285 421.507 42.9197 420.601 45.3517C419.695 47.7599 418.419 49.8461 416.774 51.6105C415.128 53.3749 413.15 54.7698 410.837 55.795C408.524 56.7964 405.961 57.2971 403.148 57.2971C400.31 57.2971 397.735 56.7964 395.422 55.795C393.11 54.7698 391.13 53.3749 389.485 51.6105C387.84 49.8461 386.565 47.7599 385.658 45.3517C384.752 42.9197 384.299 40.285 384.299 37.4477C384.299 34.6341 384.74 32.0114 385.622 29.5794C386.529 27.1473 387.804 25.0372 389.449 23.249C391.095 21.4607 393.074 20.0659 395.386 19.0645C397.723 18.0392 400.31 17.5266 403.148 17.5266ZM403.148 48.1413C404.554 48.1413 405.794 47.8791 406.867 47.3545C407.964 46.83 408.881 46.1027 409.621 45.1729C410.36 44.243 410.92 43.1343 411.302 41.8467C411.683 40.5353 411.874 39.1047 411.874 37.5549V37.3046C411.874 35.7548 411.683 34.3361 411.302 33.0486C410.92 31.7372 410.36 30.6165 409.621 29.6866C408.881 28.733 407.964 27.9938 406.867 27.4692C405.794 26.9447 404.554 26.6824 403.148 26.6824C401.741 26.6824 400.489 26.9447 399.392 27.4692C398.319 27.9938 397.413 28.733 396.673 29.6866C395.935 30.6165 395.375 31.7372 394.993 33.0486C394.611 34.3361 394.421 35.7548 394.421 37.3046V37.5549C394.421 39.1047 394.611 40.5353 394.993 41.8467C395.375 43.1343 395.935 44.243 396.673 45.1729C397.413 46.1027 398.319 46.83 399.392 47.3545C400.489 47.8791 401.741 48.1413 403.148 48.1413ZM450.035 27.8626H448.998C447.591 27.8626 446.244 28.0057 444.957 28.2918C443.693 28.5779 442.572 29.1025 441.595 29.8655C440.617 30.6046 439.83 31.6299 439.234 32.9413C438.662 34.2526 438.376 35.9336 438.376 37.9841V56.5818H428.505V18.2777H438.376V22.6052C438.781 21.9615 439.305 21.3415 439.949 20.7454C440.593 20.1494 441.344 19.6248 442.203 19.1718C443.061 18.6949 444.027 18.3134 445.099 18.0273C446.173 17.7412 447.329 17.5981 448.569 17.5981H450.035V27.8626ZM470.314 45.1729C470.314 45.6259 470.373 46.055 470.493 46.4604C470.612 46.8657 470.814 47.2234 471.101 47.5333C471.411 47.8194 471.84 48.0459 472.388 48.2128C472.937 48.3798 473.64 48.4632 474.498 48.4632C474.856 48.4632 475.261 48.4513 475.715 48.4275C476.167 48.3798 476.62 48.3321 477.074 48.2844C477.526 48.2367 477.944 48.1771 478.325 48.1056C478.731 48.034 479.064 47.9744 479.326 47.9267L480.221 56.6534C479.291 56.7726 478.325 56.8799 477.324 56.9752C476.465 57.0706 475.512 57.1422 474.463 57.1899C473.413 57.2614 472.353 57.2971 471.279 57.2971C467.87 57.2971 465.211 56.5223 463.304 54.9724C461.397 53.4226 460.443 50.9549 460.443 47.5691V26.8613H453.54V18.2777H460.443V7.4409L470.314 4.7943V18.2777H480.363V26.8613H470.314V45.1729Z" fill="#0B0C0C"/>
</g>
<defs>
<clipPath id="clip0_1389_814">
<rect width="480.363" height="68.6703" fill="white"/>
</clipPath>
</defs>
</svg>
