<svg width="591" height="80" viewBox="0 0 591 80" fill="none" xmlns="http://www.w3.org/2000/svg">
<path d="M13.8921 33.0451C13.8921 35.7404 14.229 38.3332 14.9028 40.8234C15.5767 43.3137 16.6021 45.5109 17.979 47.4152C19.356 49.3195 21.1138 50.8576 23.2524 52.0295C25.3911 53.1721 27.9399 53.7433 30.8989 53.7433C33.7407 53.7433 36.0991 53.2892 37.9741 52.381C39.8784 51.4728 41.3872 50.3449 42.5005 48.9973C43.6431 47.6203 44.4341 46.1408 44.8735 44.5588C45.3423 42.9767 45.5767 41.5119 45.5767 40.1642V39.549H29.4487V29.8371H57.9692V64.3781H46.8071V56.9953C46.0161 58.2258 45.0347 59.3537 43.8628 60.3791C42.6909 61.3752 41.3726 62.2394 39.9077 62.9719C38.4429 63.675 36.8315 64.2316 35.0737 64.6418C33.3452 65.0519 31.4995 65.257 29.5366 65.257C24.937 65.257 20.8501 64.4221 17.2759 62.7521C13.7017 61.0822 10.6841 58.7824 8.22314 55.8527C5.7915 52.923 3.93115 49.4953 2.64209 45.5695C1.38232 41.6437 0.752441 37.4103 0.752441 32.8693C0.752441 28.3576 1.45557 24.1389 2.86182 20.2131C4.29736 16.258 6.31885 12.8303 8.92627 9.92987C11.563 7.00018 14.7271 4.70038 18.4185 3.03046C22.1392 1.33124 26.2993 0.481628 30.8989 0.481628C33.8872 0.481628 36.7144 0.833191 39.3804 1.53632C42.0757 2.21014 44.522 3.19159 46.7192 4.48065C48.9458 5.74042 50.9087 7.2785 52.6079 9.09491C54.3071 10.882 55.6841 12.8742 56.7388 15.0715L45.5767 21.3557C44.9028 20.008 44.1118 18.7629 43.2036 17.6203C42.2954 16.4484 41.2407 15.4523 40.0396 14.632C38.8677 13.7824 37.52 13.1232 35.9966 12.6545C34.4731 12.1564 32.7739 11.9074 30.8989 11.9074C27.9399 11.9074 25.3911 12.4933 23.2524 13.6652C21.1138 14.8078 19.356 16.3312 17.979 18.2355C16.6021 20.1398 15.5767 22.3517 14.9028 24.8713C14.229 27.3615 13.8921 29.9396 13.8921 32.6057V33.0451ZM122.92 32.8693C122.92 37.5861 122.276 41.8928 120.987 45.7892C119.727 49.6564 117.823 52.967 115.274 55.7209C112.754 58.4748 109.59 60.6135 105.782 62.1369C101.973 63.631 97.52 64.3781 92.4224 64.3781H69.2192V1.36053H92.4224C97.52 1.36053 101.973 2.12225 105.782 3.64569C109.59 5.13983 112.754 7.26385 115.274 10.0178C117.823 12.7717 119.727 16.0969 120.987 19.9933C122.276 23.8605 122.92 28.1525 122.92 32.8693ZM109.693 31.6389C109.693 28.9728 109.356 26.4973 108.682 24.2121C108.038 21.8976 106.983 19.8908 105.518 18.1916C104.083 16.4924 102.208 15.1594 99.8931 14.1926C97.5786 13.1965 94.7808 12.6984 91.4995 12.6984H81.9634V53.0402H91.4995C94.7515 53.0402 97.5347 52.5568 99.8491 51.59C102.164 50.5939 104.039 49.2463 105.474 47.5471C106.939 45.8185 108.008 43.7971 108.682 41.4826C109.356 39.1682 109.693 36.6926 109.693 34.0558V31.6389ZM137.422 46.6682C138.243 47.6057 139.239 48.5285 140.411 49.4367C141.583 50.3449 142.872 51.1652 144.278 51.8976C145.713 52.6008 147.266 53.1721 148.936 53.6115C150.606 54.0217 152.408 54.2267 154.341 54.2267C157.945 54.2267 160.699 53.4797 162.603 51.9855C164.537 50.4621 165.503 48.6164 165.503 46.4484C165.503 44.1926 164.654 42.4787 162.955 41.3068C161.285 40.1349 158.619 39.2121 154.957 38.5383L152.979 38.1867C150.342 37.718 147.72 37.1027 145.113 36.341C142.505 35.5793 140.147 34.4807 138.038 33.0451C135.928 31.6096 134.214 29.7785 132.896 27.5519C131.578 25.2961 130.918 22.4543 130.918 19.0266C130.918 17.0344 131.358 14.9543 132.237 12.7863C133.116 10.5891 134.507 8.58221 136.412 6.76581C138.345 4.9201 140.821 3.41132 143.838 2.23944C146.885 1.06757 150.562 0.481628 154.869 0.481628C159.966 0.481628 164.507 1.33124 168.492 3.03046C172.505 4.70038 175.743 6.91229 178.204 9.6662L169.722 17.5764C167.994 15.6721 165.767 14.1779 163.042 13.0939C160.347 12.0099 157.564 11.468 154.693 11.468C151.382 11.468 148.79 12.0978 146.915 13.3576C145.069 14.6174 144.146 16.258 144.146 18.2795C144.146 19.5978 144.439 20.6965 145.025 21.5754C145.64 22.4543 146.49 23.1867 147.574 23.7726C148.658 24.3293 149.961 24.798 151.485 25.1789C153.008 25.5598 154.708 25.9406 156.583 26.3215L157.593 26.4973C160.113 26.966 162.618 27.5666 165.108 28.299C167.598 29.0021 169.854 30.0568 171.875 31.4631C173.926 32.84 175.582 34.6564 176.841 36.9123C178.101 39.1389 178.731 41.9953 178.731 45.4816C178.731 48.6457 178.072 51.4435 176.753 53.8752C175.435 56.3068 173.692 58.3869 171.524 60.1154C169.356 61.8146 166.851 63.1037 164.009 63.9826C161.167 64.8322 158.208 65.257 155.132 65.257C152.027 65.257 149.141 64.9933 146.475 64.466C143.838 63.9387 141.436 63.1916 139.268 62.2248C137.129 61.258 135.21 60.174 133.511 58.9728C131.841 57.7717 130.376 56.4826 129.117 55.1057L137.422 46.6682ZM198.111 1.36053H246.143V13.1818H228.521V64.3781H215.733V13.1818H198.111V1.36053ZM274.224 29.09H272.95C271.221 29.09 269.566 29.2658 267.984 29.6174C266.431 29.9689 265.054 30.6135 263.853 31.551C262.652 32.4592 261.685 33.7189 260.953 35.3303C260.25 36.9416 259.898 39.007 259.898 41.5266V64.3781H247.769V17.3127H259.898V22.6301C260.396 21.8391 261.041 21.0773 261.832 20.3449C262.623 19.6125 263.545 18.968 264.6 18.4113C265.655 17.8254 266.841 17.3566 268.16 17.0051C269.478 16.6535 270.899 16.4777 272.422 16.4777H274.224V29.09ZM296.988 45.2619C295.494 45.4963 294.292 46.0236 293.384 46.8439C292.476 47.6349 292.022 48.7189 292.022 50.0959C292.022 51.6193 292.579 52.9377 293.692 54.051C294.805 55.1349 296.446 55.6769 298.614 55.6769C300.899 55.6769 302.701 55.0178 304.019 53.6994C305.337 52.381 305.997 50.6379 305.997 48.4699V43.7238L296.988 45.2619ZM307.974 59.9396C307.476 60.4963 306.861 61.0969 306.128 61.7414C305.425 62.3566 304.576 62.9279 303.58 63.4553C302.613 63.9533 301.47 64.3781 300.152 64.7297C298.833 65.0812 297.354 65.257 295.713 65.257C293.37 65.257 291.202 64.8908 289.209 64.1584C287.247 63.3967 285.518 62.342 284.024 60.9943C282.53 59.6467 281.358 58.0939 280.508 56.3361C279.659 54.549 279.234 52.6154 279.234 50.5353C279.234 46.756 280.406 43.6652 282.75 41.2629C285.093 38.8605 288.331 37.3517 292.461 36.7365L305.997 34.759V33.8801C305.997 31.7707 305.352 30.1008 304.063 28.8703C302.774 27.6398 300.679 27.0246 297.779 27.0246C296.578 27.0246 295.362 27.1711 294.131 27.4641C292.901 27.7277 291.714 28.0353 290.572 28.3869C289.458 28.7385 288.418 29.1486 287.452 29.6174C286.485 30.0568 285.635 30.4523 284.903 30.8039L280.157 21.5314C282.852 20.0373 285.84 18.8068 289.122 17.84C292.432 16.8732 295.86 16.3898 299.405 16.3898C301.573 16.3898 303.755 16.6242 305.953 17.093C308.179 17.5324 310.186 18.3527 311.973 19.5539C313.79 20.7551 315.269 22.3957 316.412 24.4758C317.554 26.5266 318.125 29.1486 318.125 32.342V51.6779C318.125 53.0549 318.477 54.0803 319.18 54.7541C319.913 55.3986 320.909 55.9992 322.168 56.5558L316.675 65.257C314.449 65.0226 312.662 64.4514 311.314 63.5432C309.966 62.6057 308.853 61.4045 307.974 59.9396ZM328.277 17.3127H340.406V21.3557C341.05 20.7111 341.768 20.0959 342.559 19.5099C343.379 18.8947 344.273 18.3674 345.24 17.9279C346.207 17.4592 347.276 17.093 348.448 16.8293C349.649 16.5363 350.967 16.3898 352.403 16.3898C354.952 16.3898 357.237 16.8146 359.258 17.6642C361.28 18.4846 362.979 19.6271 364.356 21.092C365.762 22.5568 366.832 24.2707 367.564 26.2336C368.296 28.1965 368.663 30.3205 368.663 32.6057V64.3781H356.534V37.0002C356.534 35.3303 356.343 33.924 355.962 32.7814C355.582 31.6096 355.054 30.6721 354.38 29.9689C353.736 29.2365 352.959 28.7092 352.051 28.3869C351.172 28.0353 350.206 27.8596 349.151 27.8596C347.92 27.8596 346.763 28.0793 345.679 28.5187C344.625 28.9582 343.702 29.632 342.911 30.5402C342.12 31.4191 341.504 32.5324 341.065 33.8801C340.625 35.2277 340.406 36.8098 340.406 38.6262V64.3781H328.277V17.3127ZM382.154 49.3488C383.882 50.9016 385.948 52.2346 388.35 53.3478C390.752 54.4611 393.184 55.0178 395.645 55.0178C397.432 55.0178 398.838 54.6808 399.864 54.007C400.889 53.3039 401.402 52.4103 401.402 51.3264C401.402 49.4807 399.424 48.0451 395.469 47.0197L392.042 46.0969C390.342 45.6867 388.628 45.1301 386.9 44.4269C385.171 43.6945 383.575 42.7424 382.11 41.5705C380.674 40.3986 379.502 38.9777 378.594 37.3078C377.715 35.6086 377.276 33.5285 377.276 31.0676C377.276 29.1047 377.701 27.2443 378.55 25.4865C379.429 23.6994 380.66 22.132 382.242 20.7844C383.853 19.4367 385.801 18.3674 388.086 17.5764C390.372 16.7853 392.92 16.3898 395.733 16.3898C399.747 16.3898 403.321 17.0197 406.456 18.2795C409.62 19.5392 412.11 20.9601 413.926 22.5422L407.598 30.6281C406.104 29.5441 404.332 28.6213 402.281 27.8596C400.259 27.0685 398.223 26.673 396.172 26.673C394.268 26.673 392.789 27.0246 391.734 27.7277C390.679 28.4016 390.152 29.2219 390.152 30.1887C390.152 31.2141 390.606 32.049 391.514 32.6935C392.452 33.3088 393.799 33.8508 395.557 34.3195L400.655 35.7697C405.518 37.1467 409.004 39.007 411.114 41.3508C413.223 43.6945 414.278 46.6535 414.278 50.2277C414.278 52.2199 413.868 54.1242 413.047 55.9406C412.227 57.7277 411.026 59.3244 409.444 60.7307C407.862 62.1369 405.899 63.2502 403.555 64.0705C401.211 64.8615 398.545 65.257 395.557 65.257C393.272 65.257 391.119 65.0519 389.097 64.6418C387.105 64.2316 385.245 63.675 383.516 62.9719C381.817 62.2394 380.279 61.4191 378.902 60.5109C377.525 59.6027 376.353 58.6945 375.386 57.7863L382.154 49.3488ZM434.273 79.2316H422.144V17.3127H434.273V21.3557C435.591 19.9787 437.217 18.8068 439.151 17.84C441.084 16.8732 443.428 16.3898 446.182 16.3898C449.288 16.3898 452.1 17.0197 454.62 18.2795C457.168 19.5099 459.351 21.2238 461.167 23.4211C462.984 25.5891 464.39 28.1672 465.386 31.1555C466.382 34.1437 466.88 37.381 466.88 40.8674C466.88 44.3537 466.368 47.591 465.342 50.5793C464.317 53.5676 462.881 56.1457 461.036 58.3137C459.19 60.4816 456.978 62.1808 454.4 63.4113C451.822 64.6418 448.98 65.257 445.875 65.257C444.498 65.257 443.238 65.1252 442.095 64.8615C440.982 64.6271 439.957 64.2902 439.019 63.8508C438.082 63.4113 437.217 62.8986 436.426 62.3127C435.635 61.6974 434.917 61.0383 434.273 60.3351V79.2316ZM433.921 45.218C433.921 46.4777 434.141 47.6496 434.581 48.7336C435.049 49.7883 435.708 50.7111 436.558 51.5021C437.408 52.2932 438.418 52.9084 439.59 53.3478C440.792 53.7873 442.139 54.007 443.633 54.007C445.362 54.007 446.885 53.6994 448.204 53.0842C449.551 52.4396 450.679 51.5461 451.587 50.4035C452.496 49.2609 453.184 47.9133 453.653 46.3605C454.122 44.7785 454.356 43.05 454.356 41.175V40.6037C454.356 38.7287 454.122 37.0002 453.653 35.4182C453.184 33.8361 452.496 32.4738 451.587 31.3312C450.679 30.1594 449.551 29.2512 448.204 28.6066C446.885 27.9621 445.362 27.6398 443.633 27.6398C442.139 27.6398 440.792 27.8596 439.59 28.299C438.418 28.7385 437.408 29.3537 436.558 30.1447C435.708 30.9357 435.049 31.8732 434.581 32.9572C434.141 34.0412 433.921 35.2131 433.921 36.4728V45.218ZM495.665 16.3898C499.151 16.3898 502.315 17.0197 505.157 18.2795C507.999 19.5099 510.43 21.2238 512.452 23.4211C514.473 25.6183 516.026 28.2111 517.11 31.1994C518.223 34.1877 518.78 37.4103 518.78 40.8674C518.78 44.3537 518.223 47.591 517.11 50.5793C515.997 53.5383 514.429 56.1017 512.408 58.2697C510.386 60.4377 507.955 62.1516 505.113 63.4113C502.271 64.6418 499.122 65.257 495.665 65.257C492.178 65.257 489.014 64.6418 486.172 63.4113C483.331 62.1516 480.899 60.4377 478.877 58.2697C476.856 56.1017 475.289 53.5383 474.175 50.5793C473.062 47.591 472.505 44.3537 472.505 40.8674C472.505 37.4103 473.047 34.1877 474.131 31.1994C475.245 28.2111 476.812 25.6183 478.833 23.4211C480.855 21.2238 483.287 19.5099 486.128 18.2795C489 17.0197 492.178 16.3898 495.665 16.3898ZM495.665 54.007C497.393 54.007 498.917 53.6848 500.235 53.0402C501.583 52.3957 502.71 51.5021 503.619 50.3596C504.527 49.217 505.215 47.8547 505.684 46.2726C506.153 44.6613 506.387 42.9035 506.387 40.9992V40.6916C506.387 38.7873 506.153 37.0441 505.684 35.4621C505.215 33.8508 504.527 32.4738 503.619 31.3312C502.71 30.1594 501.583 29.2512 500.235 28.6066C498.917 27.9621 497.393 27.6398 495.665 27.6398C493.936 27.6398 492.398 27.9621 491.05 28.6066C489.732 29.2512 488.619 30.1594 487.71 31.3312C486.802 32.4738 486.114 33.8508 485.645 35.4621C485.176 37.0441 484.942 38.7873 484.942 40.6916V40.9992C484.942 42.9035 485.176 44.6613 485.645 46.2726C486.114 47.8547 486.802 49.217 487.71 50.3596C488.619 51.5021 489.732 52.3957 491.05 53.0402C492.398 53.6848 493.936 54.007 495.665 54.007ZM553.277 29.09H552.002C550.274 29.09 548.619 29.2658 547.037 29.6174C545.484 29.9689 544.107 30.6135 542.906 31.551C541.705 32.4592 540.738 33.7189 540.005 35.3303C539.302 36.9416 538.951 39.007 538.951 41.5266V64.3781H526.822V17.3127H538.951V22.6301C539.449 21.8391 540.093 21.0773 540.884 20.3449C541.675 19.6125 542.598 18.968 543.653 18.4113C544.708 17.8254 545.894 17.3566 547.212 17.0051C548.531 16.6535 549.952 16.4777 551.475 16.4777H553.277V29.09ZM578.194 50.3596C578.194 50.9162 578.267 51.4435 578.414 51.9416C578.56 52.4396 578.809 52.8791 579.161 53.2599C579.542 53.6115 580.069 53.8898 580.743 54.0949C581.417 54.3 582.281 54.4025 583.335 54.4025C583.775 54.4025 584.273 54.3879 584.83 54.3586C585.386 54.3 585.943 54.2414 586.5 54.1828C587.056 54.1242 587.569 54.051 588.038 53.9631C588.536 53.8752 588.946 53.8019 589.268 53.7433L590.367 64.466C589.224 64.6125 588.038 64.7443 586.807 64.8615C585.752 64.9787 584.581 65.0666 583.292 65.1252C582.002 65.2131 580.699 65.257 579.38 65.257C575.191 65.257 571.924 64.3049 569.581 62.4006C567.237 60.4963 566.065 57.4641 566.065 53.3039V27.8596H557.583V17.3127H566.065V3.99725L578.194 0.7453V17.3127H590.542V27.8596H578.194V50.3596Z" fill="#0B0C0C"/>
</svg>
