<svg width="481" height="320" viewBox="0 0 481 320" fill="none" xmlns="http://www.w3.org/2000/svg">
<rect opacity="0.8" width="480" height="320" fill="white"/>
<path d="M11.057 154.081C11.057 156.275 11.3312 158.385 11.8795 160.412C12.428 162.439 13.2625 164.227 14.3831 165.777C15.5038 167.326 16.9344 168.578 18.6749 169.532C20.4154 170.462 22.4898 170.927 24.898 170.927C27.2108 170.927 29.1301 170.557 30.6561 169.818C32.2059 169.079 33.4339 168.161 34.3399 167.064C35.2698 165.944 35.9136 164.739 36.2712 163.452C36.6527 162.164 36.8435 160.972 36.8435 159.875V159.375H23.7177V151.471H46.9291V179.582H37.8448V173.573C37.2011 174.575 36.4024 175.493 35.4486 176.327C34.4949 177.138 33.422 177.841 32.2298 178.437C31.0376 179.01 29.7262 179.463 28.2956 179.796C26.8889 180.13 25.3868 180.297 23.7893 180.297C20.0459 180.297 16.7198 179.618 13.8109 178.259C10.902 176.899 8.44616 175.028 6.44331 172.643C4.46432 170.259 2.95027 167.469 1.90117 164.274C0.875908 161.079 0.363281 157.634 0.363281 153.938C0.363281 150.267 0.935523 146.833 2.08 143.638C3.24831 140.419 4.8935 137.63 7.01555 135.269C9.16145 132.885 11.7366 131.013 14.7408 129.654C17.7689 128.271 21.1546 127.58 24.898 127.58C27.33 127.58 29.6309 127.866 31.8006 128.438C33.9942 128.986 35.9851 129.785 37.7733 130.834C39.5854 131.86 41.1829 133.111 42.5658 134.59C43.9487 136.044 45.0694 137.665 45.9278 139.454L36.8435 144.568C36.295 143.471 35.6513 142.458 34.9121 141.528C34.173 140.574 33.3146 139.764 32.3371 139.096C31.3834 138.405 30.2865 137.868 29.0467 137.487C27.8068 137.081 26.4239 136.879 24.898 136.879C22.4898 136.879 20.4154 137.355 18.6749 138.309C16.9344 139.239 15.5038 140.479 14.3831 142.029C13.2625 143.579 12.428 145.379 11.8795 147.429C11.3312 149.456 11.057 151.554 11.057 153.724V154.081ZM99.7893 153.938C99.7893 157.777 99.2652 161.282 98.2161 164.453C97.1907 167.601 95.6411 170.295 93.5666 172.536C91.5157 174.777 88.9407 176.518 85.8415 177.758C82.7416 178.974 79.1175 179.582 74.9688 179.582H56.0849V128.295H74.9688C79.1175 128.295 82.7416 128.915 85.8415 130.155C88.9407 131.371 91.5157 133.099 93.5666 135.341C95.6411 137.582 97.1907 140.288 98.2161 143.459C99.2652 146.607 99.7893 150.1 99.7893 153.938ZM89.0245 152.937C89.0245 150.767 88.7502 148.753 88.2017 146.893C87.6776 145.009 86.819 143.376 85.6267 141.993C84.4588 140.61 82.9328 139.525 81.0489 138.738C79.1652 137.928 76.8882 137.522 74.2177 137.522H66.4568V170.354H74.2177C76.8644 170.354 79.1295 169.961 81.0131 169.174C82.897 168.364 84.423 167.267 85.5909 165.884C86.7832 164.477 87.6532 162.832 88.2017 160.948C88.7502 159.065 89.0245 157.05 89.0245 154.904V152.937ZM111.592 165.169C112.26 165.932 113.071 166.683 114.024 167.422C114.978 168.161 116.027 168.829 117.172 169.425C118.339 169.997 119.603 170.462 120.962 170.819C122.322 171.153 123.788 171.32 125.361 171.32C128.294 171.32 130.536 170.712 132.085 169.496C133.659 168.256 134.445 166.754 134.445 164.99C134.445 163.154 133.755 161.759 132.372 160.805C131.013 159.852 128.843 159.1 125.863 158.552L124.253 158.266C122.107 157.885 119.973 157.384 117.851 156.764C115.729 156.144 113.809 155.25 112.093 154.081C110.376 152.913 108.981 151.423 107.908 149.611C106.836 147.775 106.298 145.462 106.298 142.673C106.298 141.051 106.657 139.358 107.372 137.594C108.087 135.806 109.219 134.172 110.77 132.694C112.343 131.192 114.358 129.964 116.813 129.01C119.293 128.057 122.286 127.58 125.791 127.58C129.939 127.58 133.635 128.271 136.878 129.654C140.144 131.013 142.779 132.813 144.782 135.055L137.879 141.492C136.473 139.942 134.66 138.726 132.443 137.844C130.249 136.962 127.984 136.521 125.648 136.521C122.953 136.521 120.844 137.034 119.318 138.059C117.815 139.084 117.064 140.419 117.064 142.065C117.064 143.137 117.303 144.032 117.779 144.747C118.28 145.462 118.972 146.058 119.854 146.535C120.736 146.988 121.797 147.37 123.037 147.68C124.276 147.99 125.66 148.299 127.186 148.609L128.008 148.753C130.059 149.134 132.098 149.623 134.124 150.219C136.15 150.791 137.987 151.649 139.631 152.794C141.301 153.915 142.648 155.393 143.673 157.229C144.698 159.041 145.211 161.366 145.211 164.203C145.211 166.778 144.675 169.055 143.601 171.034C142.529 173.013 141.11 174.706 139.346 176.113C137.581 177.496 135.543 178.545 133.23 179.26C130.917 179.951 128.508 180.297 126.005 180.297C123.478 180.297 121.129 180.083 118.96 179.653C116.813 179.224 114.859 178.616 113.094 177.829C111.353 177.043 109.792 176.16 108.409 175.183C107.05 174.205 105.857 173.156 104.833 172.035L111.592 165.169ZM160.983 128.295H200.074V137.916H185.733V179.582H175.325V137.916H160.983V128.295ZM222.928 150.863H221.891C220.484 150.863 219.137 151.006 217.85 151.292C216.586 151.578 215.465 152.103 214.488 152.866C213.51 153.605 212.723 154.63 212.127 155.941C211.555 157.253 211.269 158.934 211.269 160.984V179.582H201.398V141.278H211.269V145.605C211.674 144.961 212.199 144.341 212.843 143.745C213.487 143.149 214.237 142.625 215.096 142.172C215.954 141.695 216.919 141.313 217.993 141.027C219.065 140.741 220.222 140.598 221.461 140.598H222.928V150.863ZM241.454 164.024C240.239 164.215 239.26 164.644 238.521 165.312C237.782 165.955 237.413 166.838 237.413 167.958C237.413 169.198 237.866 170.271 238.772 171.177C239.678 172.059 241.013 172.5 242.778 172.5C244.637 172.5 246.104 171.964 247.177 170.891C248.249 169.818 248.786 168.399 248.786 166.635V162.772L241.454 164.024ZM250.395 175.97C249.99 176.423 249.49 176.911 248.893 177.436C248.321 177.937 247.63 178.402 246.819 178.831C246.032 179.236 245.102 179.582 244.03 179.868C242.956 180.154 241.752 180.297 240.417 180.297C238.51 180.297 236.746 179.999 235.124 179.403C233.527 178.783 232.12 177.925 230.904 176.828C229.688 175.731 228.734 174.467 228.042 173.037C227.351 171.582 227.005 170.009 227.005 168.316C227.005 165.24 227.959 162.725 229.867 160.77C231.774 158.814 234.409 157.586 237.77 157.086L248.786 155.476V154.761C248.786 153.044 248.262 151.685 247.212 150.684C246.163 149.682 244.458 149.182 242.098 149.182C241.121 149.182 240.131 149.301 239.129 149.539C238.128 149.754 237.162 150.004 236.233 150.29C235.326 150.577 234.48 150.91 233.694 151.292C232.907 151.649 232.215 151.971 231.619 152.257L227.757 144.711C229.95 143.495 232.382 142.494 235.053 141.707C237.747 140.92 240.536 140.527 243.422 140.527C245.186 140.527 246.962 140.717 248.751 141.099C250.562 141.456 252.196 142.124 253.65 143.102C255.129 144.079 256.332 145.414 257.263 147.107C258.192 148.776 258.657 150.91 258.657 153.509V169.246C258.657 170.366 258.943 171.201 259.515 171.749C260.112 172.274 260.923 172.763 261.947 173.216L257.477 180.297C255.665 180.106 254.211 179.641 253.114 178.902C252.017 178.139 251.111 177.162 250.395 175.97ZM266.919 141.278H276.79V144.568C277.314 144.043 277.899 143.543 278.542 143.066C279.21 142.565 279.937 142.136 280.724 141.778C281.511 141.397 282.381 141.099 283.335 140.884C284.313 140.646 285.385 140.527 286.554 140.527C288.628 140.527 290.488 140.872 292.133 141.564C293.779 142.231 295.161 143.161 296.282 144.353C297.426 145.546 298.297 146.94 298.893 148.538C299.488 150.135 299.787 151.864 299.787 153.724V179.582H289.916V157.3C289.916 155.941 289.761 154.797 289.45 153.867C289.141 152.913 288.711 152.15 288.163 151.578C287.639 150.982 287.006 150.553 286.267 150.29C285.552 150.004 284.766 149.861 283.907 149.861C282.905 149.861 281.964 150.04 281.082 150.398C280.224 150.755 279.473 151.304 278.829 152.043C278.185 152.758 277.684 153.664 277.327 154.761C276.968 155.858 276.79 157.145 276.79 158.624V179.582H266.919V141.278ZM310.767 167.35C312.173 168.614 313.855 169.699 315.809 170.605C317.764 171.511 319.744 171.964 321.746 171.964C323.201 171.964 324.345 171.69 325.18 171.141C326.014 170.569 326.432 169.842 326.432 168.96C326.432 167.458 324.822 166.289 321.603 165.455L318.814 164.704C317.431 164.37 316.036 163.917 314.629 163.345C313.222 162.748 311.923 161.974 310.731 161.02C309.562 160.066 308.608 158.91 307.869 157.551C307.154 156.168 306.797 154.475 306.797 152.472C306.797 150.875 307.143 149.361 307.834 147.93C308.549 146.475 309.551 145.2 310.838 144.103C312.15 143.006 313.735 142.136 315.595 141.492C317.455 140.848 319.529 140.527 321.818 140.527C325.085 140.527 327.994 141.039 330.545 142.065C333.12 143.09 335.146 144.246 336.624 145.534L331.474 152.114C330.258 151.232 328.816 150.481 327.147 149.861C325.502 149.217 323.845 148.896 322.175 148.896C320.626 148.896 319.422 149.182 318.563 149.754C317.705 150.302 317.276 150.97 317.276 151.757C317.276 152.591 317.645 153.271 318.384 153.795C319.148 154.296 320.244 154.737 321.675 155.119L325.824 156.299C329.782 157.42 332.619 158.934 334.336 160.841C336.052 162.748 336.911 165.157 336.911 168.066C336.911 169.687 336.577 171.237 335.909 172.715C335.242 174.169 334.264 175.469 332.977 176.613C331.689 177.758 330.092 178.664 328.184 179.331C326.276 179.975 324.107 180.297 321.675 180.297C319.815 180.297 318.063 180.13 316.417 179.796C314.796 179.463 313.282 179.01 311.875 178.437C310.493 177.841 309.241 177.174 308.12 176.435C306.999 175.695 306.046 174.956 305.259 174.217L310.767 167.35ZM353.184 191.67H343.313V141.278H353.184V144.568C354.257 143.447 355.58 142.494 357.154 141.707C358.727 140.92 360.635 140.527 362.876 140.527C365.404 140.527 367.692 141.039 369.743 142.065C371.817 143.066 373.594 144.461 375.072 146.249C376.55 148.013 377.695 150.112 378.505 152.544C379.316 154.976 379.721 157.61 379.721 160.448C379.721 163.285 379.304 165.92 378.469 168.352C377.635 170.784 376.466 172.882 374.965 174.646C373.463 176.411 371.662 177.794 369.564 178.795C367.466 179.796 365.153 180.297 362.626 180.297C361.505 180.297 360.48 180.19 359.55 179.975C358.644 179.784 357.81 179.51 357.046 179.153C356.284 178.795 355.58 178.378 354.936 177.901C354.292 177.4 353.708 176.864 353.184 176.291V191.67ZM352.897 163.988C352.897 165.014 353.076 165.967 353.434 166.85C353.815 167.708 354.352 168.459 355.043 169.103C355.735 169.747 356.557 170.247 357.511 170.605C358.489 170.963 359.586 171.141 360.801 171.141C362.209 171.141 363.448 170.891 364.522 170.39C365.618 169.866 366.536 169.139 367.275 168.209C368.015 167.279 368.575 166.182 368.956 164.918C369.338 163.631 369.528 162.224 369.528 160.698V160.233C369.528 158.707 369.338 157.3 368.956 156.013C368.575 154.725 368.015 153.617 367.275 152.687C366.536 151.733 365.618 150.994 364.522 150.469C363.448 149.945 362.209 149.682 360.801 149.682C359.586 149.682 358.489 149.861 357.511 150.219C356.557 150.577 355.735 151.077 355.043 151.721C354.352 152.365 353.815 153.128 353.434 154.01C353.076 154.892 352.897 155.846 352.897 156.871V163.988ZM403.148 140.527C405.985 140.527 408.56 141.039 410.873 142.065C413.186 143.066 415.164 144.461 416.81 146.249C418.455 148.037 419.718 150.147 420.601 152.579C421.507 155.011 421.96 157.634 421.96 160.448C421.96 163.285 421.507 165.92 420.601 168.352C419.695 170.76 418.419 172.846 416.774 174.611C415.128 176.375 413.15 177.77 410.837 178.795C408.524 179.796 405.961 180.297 403.148 180.297C400.31 180.297 397.735 179.796 395.422 178.795C393.11 177.77 391.13 176.375 389.485 174.611C387.84 172.846 386.565 170.76 385.658 168.352C384.752 165.92 384.299 163.285 384.299 160.448C384.299 157.634 384.74 155.011 385.622 152.579C386.529 150.147 387.804 148.037 389.449 146.249C391.095 144.461 393.074 143.066 395.386 142.065C397.723 141.039 400.31 140.527 403.148 140.527ZM403.148 171.141C404.554 171.141 405.794 170.879 406.867 170.354C407.964 169.83 408.881 169.103 409.621 168.173C410.36 167.243 410.92 166.134 411.302 164.847C411.683 163.535 411.874 162.105 411.874 160.555V160.305C411.874 158.755 411.683 157.336 411.302 156.049C410.92 154.737 410.36 153.617 409.621 152.687C408.881 151.733 407.964 150.994 406.867 150.469C405.794 149.945 404.554 149.682 403.148 149.682C401.741 149.682 400.489 149.945 399.392 150.469C398.319 150.994 397.413 151.733 396.673 152.687C395.935 153.617 395.375 154.737 394.993 156.049C394.611 157.336 394.421 158.755 394.421 160.305V160.555C394.421 162.105 394.611 163.535 394.993 164.847C395.375 166.134 395.935 167.243 396.673 168.173C397.413 169.103 398.319 169.83 399.392 170.354C400.489 170.879 401.741 171.141 403.148 171.141ZM450.035 150.863H448.998C447.591 150.863 446.244 151.006 444.957 151.292C443.693 151.578 442.572 152.103 441.595 152.866C440.617 153.605 439.83 154.63 439.234 155.941C438.662 157.253 438.376 158.934 438.376 160.984V179.582H428.505V141.278H438.376V145.605C438.781 144.961 439.305 144.341 439.949 143.745C440.593 143.149 441.344 142.625 442.203 142.172C443.061 141.695 444.027 141.313 445.099 141.027C446.173 140.741 447.329 140.598 448.569 140.598H450.035V150.863ZM470.314 168.173C470.314 168.626 470.373 169.055 470.493 169.46C470.612 169.866 470.814 170.223 471.101 170.533C471.411 170.819 471.84 171.046 472.388 171.213C472.937 171.38 473.64 171.463 474.498 171.463C474.856 171.463 475.261 171.451 475.715 171.427C476.167 171.38 476.62 171.332 477.074 171.284C477.526 171.237 477.944 171.177 478.325 171.106C478.731 171.034 479.064 170.974 479.326 170.927L480.221 179.653C479.291 179.773 478.325 179.88 477.324 179.975C476.465 180.071 475.512 180.142 474.463 180.19C473.413 180.261 472.353 180.297 471.279 180.297C467.87 180.297 465.211 179.522 463.304 177.972C461.397 176.423 460.443 173.955 460.443 170.569V149.861H453.54V141.278H460.443V130.441L470.314 127.794V141.278H480.363V149.861H470.314V168.173Z" fill="#0B0C0C"/>
</svg>
