<svg width="208" height="112" viewBox="0 0 208 112" fill="none" xmlns="http://www.w3.org/2000/svg">
<g clip-path="url(#clip0_1334_18692)">
<rect width="207" height="112" transform="translate(0.1875)" fill="white"/>
<g clip-path="url(#clip1_1334_18692)">
<rect x="0.1875" width="207.375" height="207.375" fill="white"/>
</g>
<path d="M4.39551 5H7.66113V28.6758H18.293V31.6074H4.39551V5Z" fill="#0B0C0C"/>
<path d="M25.084 31.6074H21.9668V12.6445H25.084V31.6074ZM21.3916 7.1709C21.3916 6.87402 21.4473 6.5957 21.5586 6.33594C21.6823 6.07617 21.8369 5.84733 22.0225 5.64941C22.2204 5.4515 22.4492 5.29688 22.709 5.18555C22.9811 5.06185 23.2656 5 23.5625 5C23.8594 5 24.1377 5.06185 24.3975 5.18555C24.6572 5.29688 24.8799 5.4515 25.0654 5.64941C25.2633 5.84733 25.418 6.07617 25.5293 6.33594C25.653 6.5957 25.7148 6.87402 25.7148 7.1709C25.7148 7.46777 25.653 7.75228 25.5293 8.02441C25.418 8.28418 25.2633 8.51302 25.0654 8.71094C24.8799 8.89648 24.6572 9.05111 24.3975 9.1748C24.1377 9.28613 23.8594 9.3418 23.5625 9.3418C23.2656 9.3418 22.9811 9.28613 22.709 9.1748C22.4492 9.05111 22.2204 8.89648 22.0225 8.71094C21.8369 8.51302 21.6823 8.28418 21.5586 8.02441C21.4473 7.75228 21.3916 7.46777 21.3916 7.1709Z" fill="#0B0C0C"/>
<path d="M29.7227 21.0869C29.7227 19.8376 29.902 18.6748 30.2607 17.5986C30.6195 16.5225 31.1328 15.5947 31.8008 14.8154C32.4688 14.0238 33.2728 13.4053 34.2129 12.96C35.1654 12.5023 36.2292 12.2734 37.4043 12.2734C38.4434 12.2734 39.4329 12.4775 40.373 12.8857C41.3132 13.2816 42.111 13.9248 42.7666 14.8154V12.6445H45.8838V31.6074C45.8838 32.7826 45.6426 33.766 45.1602 34.5576C44.6901 35.3617 44.0716 36.0049 43.3047 36.4873C42.5378 36.9697 41.6657 37.3161 40.6885 37.5264C39.7236 37.7367 38.7402 37.8418 37.7383 37.8418C37.1816 37.8418 36.6003 37.8109 35.9941 37.749C35.4004 37.6872 34.8005 37.5944 34.1943 37.4707C33.5882 37.347 32.9883 37.1862 32.3945 36.9883C31.8132 36.8027 31.2565 36.5801 30.7246 36.3203L31.8564 33.7041C32.2275 33.8773 32.6172 34.0443 33.0254 34.2051C33.4336 34.3783 33.8727 34.5329 34.3428 34.6689C34.8252 34.805 35.3385 34.9163 35.8828 35.0029C36.4271 35.0895 37.0208 35.1328 37.6641 35.1328C38.4557 35.1328 39.167 35.0524 39.7979 34.8916C40.4411 34.7308 40.9792 34.4772 41.4121 34.1309C41.8451 33.7969 42.179 33.3639 42.4141 32.832C42.6491 32.3125 42.7666 31.6878 42.7666 30.958V27.3584C42.111 28.249 41.3132 28.8984 40.373 29.3066C39.4329 29.7025 38.4434 29.9004 37.4043 29.9004C36.2292 29.9004 35.1654 29.6777 34.2129 29.2324C33.2728 28.7747 32.4688 28.1501 31.8008 27.3584C31.1328 26.5667 30.6195 25.639 30.2607 24.5752C29.902 23.499 29.7227 22.3363 29.7227 21.0869ZM42.8408 21.0127C42.8408 20.1592 42.748 19.3737 42.5625 18.6562C42.377 17.9264 42.0863 17.2956 41.6904 16.7637C41.2946 16.2194 40.7874 15.7988 40.1689 15.502C39.5628 15.1927 38.833 15.0381 37.9795 15.0381C37.1136 15.0381 36.3652 15.1927 35.7344 15.502C35.1035 15.8112 34.5778 16.238 34.1572 16.7822C33.749 17.3141 33.446 17.945 33.248 18.6748C33.0501 19.4046 32.9512 20.1839 32.9512 21.0127V21.1611C32.9512 21.9899 33.0501 22.7692 33.248 23.499C33.446 24.2165 33.749 24.8473 34.1572 25.3916C34.5778 25.9235 35.1035 26.3441 35.7344 26.6533C36.3652 26.9626 37.1136 27.1172 37.9795 27.1172C38.833 27.1172 39.5628 26.9688 40.1689 26.6719C40.7874 26.3626 41.2946 25.9421 41.6904 25.4102C42.0863 24.8783 42.377 24.2474 42.5625 23.5176C42.748 22.7878 42.8408 22.0023 42.8408 21.1611V21.0127Z" fill="#0B0C0C"/>
<path d="M51.5801 5H54.6973V14.8154C55.3405 13.9372 56.1322 13.2939 57.0723 12.8857C58.0247 12.4775 59.0824 12.2734 60.2451 12.2734C61.2966 12.2734 62.2181 12.4466 63.0098 12.793C63.8014 13.1393 64.4632 13.6094 64.9951 14.2031C65.527 14.7969 65.9229 15.4834 66.1826 16.2627C66.4548 17.042 66.5908 17.8646 66.5908 18.7305V31.6074H63.4736V19.7139C63.4736 18.8851 63.3685 18.18 63.1582 17.5986C62.9603 17.0049 62.682 16.5286 62.3232 16.1699C61.9769 15.7988 61.5625 15.5329 61.0801 15.3721C60.61 15.1989 60.1029 15.1123 59.5586 15.1123C58.9648 15.1123 58.3773 15.2236 57.7959 15.4463C57.2145 15.6566 56.695 15.9782 56.2373 16.4111C55.7796 16.8441 55.4085 17.3883 55.124 18.0439C54.8395 18.6995 54.6973 19.4727 54.6973 20.3633V31.6074H51.5801V5Z" fill="#0B0C0C"/>
<path d="M77.0371 26.8945C77.0371 27.2161 77.0557 27.5192 77.0928 27.8037C77.1423 28.0758 77.2474 28.3171 77.4082 28.5273C77.5814 28.7376 77.8288 28.9046 78.1504 29.0283C78.472 29.152 78.9111 29.2139 79.4678 29.2139C79.6162 29.2139 79.7894 29.2077 79.9873 29.1953C80.1976 29.1829 80.4141 29.1706 80.6367 29.1582C80.8594 29.1335 81.0758 29.1087 81.2861 29.084C81.4964 29.0469 81.6758 29.016 81.8242 28.9912L82.1582 31.7188C81.7995 31.7682 81.4284 31.8115 81.0449 31.8486C80.7233 31.8857 80.3646 31.9167 79.9688 31.9414C79.5729 31.9661 79.1771 31.9785 78.7812 31.9785C78.0267 31.9785 77.3464 31.8981 76.7402 31.7373C76.1465 31.5889 75.6393 31.3415 75.2188 30.9951C74.7982 30.6488 74.4766 30.1973 74.2539 29.6406C74.0312 29.0716 73.9199 28.3851 73.9199 27.5811V15.3906H70.3389V12.6445H73.9199V6.44727L77.0371 5.35254V12.6445H82.3066V15.3906H77.0371V26.8945Z" fill="#0B0C0C"/>
<path d="M88.3184 27.6553C88.6647 27.6553 88.9925 27.7233 89.3018 27.8594C89.6234 27.9954 89.8955 28.1872 90.1182 28.4346C90.3532 28.6696 90.5387 28.9603 90.6748 29.3066C90.8109 29.653 90.8789 30.0303 90.8789 30.4385C90.8789 30.8838 90.7985 31.3415 90.6377 31.8115C90.4769 32.2816 90.2295 32.7269 89.8955 33.1475C89.5615 33.568 89.141 33.9515 88.6338 34.2979C88.1266 34.6442 87.5267 34.9102 86.834 35.0957L86.4258 35.2256L86.0361 33.9639L86.2773 33.8896C86.8464 33.6917 87.3473 33.4134 87.7803 33.0547C88.2132 32.696 88.5101 32.3001 88.6709 31.8672H88.2812C87.9844 31.8672 87.7061 31.8115 87.4463 31.7002C87.1989 31.6012 86.9762 31.459 86.7783 31.2734C86.5928 31.0879 86.4443 30.8714 86.333 30.624C86.2217 30.3643 86.166 30.0859 86.166 29.7891C86.166 29.4922 86.2217 29.2139 86.333 28.9541C86.4443 28.6943 86.5928 28.4717 86.7783 28.2861C86.9762 28.0882 87.2051 27.9336 87.4648 27.8223C87.737 27.7109 88.0215 27.6553 88.3184 27.6553Z" fill="#0B0C0C"/>
<path d="M111.716 12.2734C113.027 12.2734 114.221 12.5208 115.297 13.0156C116.373 13.498 117.288 14.1784 118.043 15.0566C118.81 15.9225 119.404 16.9616 119.824 18.1738C120.245 19.3737 120.455 20.6973 120.455 22.1445C120.455 23.5671 120.245 24.8844 119.824 26.0967C119.404 27.2965 118.81 28.3356 118.043 29.2139C117.288 30.0798 116.373 30.7601 115.297 31.2549C114.221 31.7373 113.027 31.9785 111.716 31.9785C110.405 31.9785 109.211 31.7373 108.135 31.2549C107.071 30.7601 106.156 30.0798 105.389 29.2139C104.622 28.3356 104.028 27.2965 103.607 26.0967C103.187 24.8844 102.977 23.5671 102.977 22.1445C102.977 20.6973 103.187 19.3737 103.607 18.1738C104.028 16.9616 104.622 15.9225 105.389 15.0566C106.156 14.1784 107.071 13.498 108.135 13.0156C109.211 12.5208 110.405 12.2734 111.716 12.2734ZM111.716 29.251C112.619 29.251 113.41 29.0654 114.091 28.6943C114.784 28.3109 115.359 27.7975 115.816 27.1543C116.286 26.5111 116.639 25.7689 116.874 24.9277C117.109 24.0742 117.227 23.1836 117.227 22.2559V22.0332C117.227 21.0807 117.109 20.1777 116.874 19.3242C116.639 18.4707 116.286 17.7285 115.816 17.0977C115.359 16.4544 114.784 15.9473 114.091 15.5762C113.41 15.1927 112.619 15.001 111.716 15.001C110.813 15.001 110.015 15.1927 109.322 15.5762C108.642 15.9473 108.067 16.4544 107.597 17.0977C107.139 17.7285 106.793 18.4707 106.558 19.3242C106.323 20.1777 106.205 21.0807 106.205 22.0332V22.2559C106.205 23.1836 106.323 24.0742 106.558 24.9277C106.793 25.7689 107.139 26.5111 107.597 27.1543C108.067 27.7975 108.642 28.3109 109.322 28.6943C110.015 29.0654 110.813 29.251 111.716 29.251Z" fill="#0B0C0C"/>
<path d="M128.712 31.6074L122.7 12.6445H126.244L130.79 28.7129L135.317 12.6445H138.861L132.85 31.6074H128.712Z" fill="#0B0C0C"/>
<path d="M144.391 23.0908C144.452 23.9814 144.632 24.804 144.929 25.5586C145.226 26.3132 145.628 26.9688 146.135 27.5254C146.654 28.0697 147.26 28.4964 147.953 28.8057C148.658 29.1025 149.438 29.251 150.291 29.251C151.342 29.251 152.264 29.0778 153.056 28.7314C153.86 28.3727 154.596 27.9274 155.264 27.3955L156.859 29.6406C156.006 30.321 155.016 30.8838 153.891 31.3291C152.777 31.762 151.528 31.9785 150.143 31.9785C148.77 31.9785 147.526 31.7373 146.413 31.2549C145.3 30.7601 144.347 30.0798 143.556 29.2139C142.776 28.3356 142.176 27.2965 141.756 26.0967C141.335 24.8844 141.125 23.5671 141.125 22.1445C141.125 20.6973 141.329 19.3737 141.737 18.1738C142.158 16.9616 142.745 15.9225 143.5 15.0566C144.255 14.1784 145.158 13.498 146.209 13.0156C147.26 12.5208 148.429 12.2734 149.716 12.2734C150.965 12.2734 152.091 12.5208 153.093 13.0156C154.095 13.498 154.948 14.1784 155.653 15.0566C156.358 15.9225 156.896 16.9616 157.268 18.1738C157.651 19.3737 157.843 20.6849 157.843 22.1074V23.0908H144.391ZM149.604 15.001C148.813 15.001 148.108 15.1556 147.489 15.4648C146.871 15.7741 146.339 16.1885 145.894 16.708C145.461 17.2275 145.114 17.8275 144.854 18.5078C144.607 19.1758 144.465 19.8685 144.428 20.5859H154.466C154.441 19.8561 154.311 19.1572 154.076 18.4893C153.854 17.8089 153.532 17.2152 153.111 16.708C152.703 16.1885 152.202 15.7741 151.608 15.4648C151.027 15.1556 150.359 15.001 149.604 15.001Z" fill="#0B0C0C"/>
<path d="M171.889 15.4277H171.388C170.584 15.4277 169.817 15.5205 169.087 15.7061C168.357 15.8916 167.714 16.2256 167.157 16.708C166.601 17.1904 166.155 17.8522 165.821 18.6934C165.487 19.5221 165.32 20.5859 165.32 21.8848V31.6074H162.203V12.6445H165.32V15.6504C165.555 15.0938 165.871 14.6051 166.267 14.1846C166.662 13.764 167.108 13.4176 167.603 13.1455C168.11 12.861 168.648 12.6507 169.217 12.5146C169.798 12.3786 170.386 12.3105 170.979 12.3105H171.889V15.4277Z" fill="#0B0C0C"/>
<path d="M14.3779 66.7148C13.8213 67.3581 13.0667 67.8962 12.1143 68.3291C11.1742 68.762 10.0671 68.9785 8.79297 68.9785C7.85286 68.9785 6.98079 68.8486 6.17676 68.5889C5.37272 68.3167 4.67383 67.9333 4.08008 67.4385C3.48633 66.9437 3.02246 66.3438 2.68848 65.6387C2.35449 64.9336 2.1875 64.1357 2.1875 63.2451C2.1875 62.5029 2.30501 61.8288 2.54004 61.2227C2.78743 60.6042 3.1276 60.0661 3.56055 59.6084C4.00586 59.1507 4.53776 58.7796 5.15625 58.4951C5.77474 58.1982 6.46745 57.9941 7.23438 57.8828L13.9326 56.9736V55.7676C13.9326 55.0501 13.8213 54.4502 13.5986 53.9678C13.376 53.473 13.0729 53.0833 12.6895 52.7988C12.3184 52.5143 11.873 52.3102 11.3535 52.1865C10.8464 52.0628 10.2959 52.001 9.70215 52.001C8.63835 52.001 7.64258 52.1494 6.71484 52.4463C5.79948 52.7432 4.9707 53.0895 4.22852 53.4854L3.05957 51.0176C4.14811 50.3991 5.28613 49.9538 6.47363 49.6816C7.6735 49.4095 8.85482 49.2734 10.0176 49.2734C12.3307 49.2734 14.0811 49.7992 15.2686 50.8506C16.4561 51.8896 17.0498 53.4111 17.0498 55.415V64.1543C17.0498 64.7852 17.1735 65.3171 17.4209 65.75C17.6683 66.1706 18.0641 66.5046 18.6084 66.752L16.8457 68.9785C16.252 68.8301 15.7386 68.5703 15.3057 68.1992C14.8851 67.8158 14.5882 67.3581 14.415 66.8262L14.3779 66.7148ZM8.83008 60.165C8.31055 60.2393 7.83431 60.3444 7.40137 60.4805C6.98079 60.6165 6.62207 60.8021 6.3252 61.0371C6.02832 61.2598 5.79329 61.5381 5.62012 61.8721C5.45931 62.2061 5.37891 62.6143 5.37891 63.0967C5.37891 63.6533 5.48405 64.1481 5.69434 64.5811C5.90462 65.014 6.18913 65.3789 6.54785 65.6758C6.90658 65.9727 7.32096 66.2015 7.79102 66.3623C8.27344 66.5107 8.77441 66.585 9.29395 66.585C9.87533 66.585 10.4443 66.5046 11.001 66.3438C11.5576 66.1829 12.0524 65.9541 12.4854 65.6572C12.9183 65.348 13.2646 64.9769 13.5244 64.5439C13.7965 64.111 13.9326 63.6162 13.9326 63.0596V59.4043L8.83008 60.165Z" fill="#0B0C0C"/>
<path d="M44.5293 68.6074H41.4121V56.6768C41.4121 55.8356 41.307 55.1243 41.0967 54.543C40.8988 53.9616 40.6266 53.4915 40.2803 53.1328C39.9463 52.7741 39.5443 52.5143 39.0742 52.3535C38.6165 52.1927 38.1279 52.1123 37.6084 52.1123C37.0889 52.1123 36.5755 52.2174 36.0684 52.4277C35.5736 52.6257 35.1283 52.9411 34.7324 53.374C34.349 53.807 34.0335 54.3574 33.7861 55.0254C33.5511 55.681 33.4336 56.4727 33.4336 57.4004V68.6074H30.3164V49.6445H33.4336V51.8154C34.0645 50.9372 34.7943 50.2939 35.623 49.8857C36.4642 49.4775 37.3919 49.2734 38.4062 49.2734C38.8268 49.2734 39.2845 49.3353 39.7793 49.459C40.2741 49.5703 40.7565 49.7497 41.2266 49.9971C41.709 50.2445 42.1481 50.5723 42.5439 50.9805C42.9521 51.3763 43.2799 51.8587 43.5273 52.4277C43.8737 51.8464 44.2695 51.3577 44.7148 50.9619C45.1725 50.5537 45.6488 50.2259 46.1436 49.9785C46.6507 49.7311 47.1702 49.5518 47.7021 49.4404C48.2464 49.3291 48.7845 49.2734 49.3164 49.2734C50.3431 49.2734 51.2523 49.4466 52.0439 49.793C52.8356 50.1393 53.5036 50.6032 54.0479 51.1846C54.5921 51.7659 55.0003 52.4401 55.2725 53.207C55.557 53.974 55.6992 54.778 55.6992 55.6191V68.6074H52.582V56.6768C52.582 55.8356 52.4769 55.1243 52.2666 54.543C52.0563 53.9616 51.7718 53.4915 51.4131 53.1328C51.0544 52.7741 50.64 52.5143 50.1699 52.3535C49.6999 52.1927 49.2113 52.1123 48.7041 52.1123C48.1846 52.1123 47.6712 52.2174 47.1641 52.4277C46.6693 52.6257 46.224 52.9411 45.8281 53.374C45.4447 53.807 45.1292 54.3574 44.8818 55.0254C44.6468 55.681 44.5293 56.4727 44.5293 57.4004V68.6074Z" fill="#0B0C0C"/>
<path d="M72.0459 66.7148C71.4893 67.3581 70.7347 67.8962 69.7822 68.3291C68.8421 68.762 67.735 68.9785 66.4609 68.9785C65.5208 68.9785 64.6488 68.8486 63.8447 68.5889C63.0407 68.3167 62.3418 67.9333 61.748 67.4385C61.1543 66.9437 60.6904 66.3438 60.3564 65.6387C60.0225 64.9336 59.8555 64.1357 59.8555 63.2451C59.8555 62.5029 59.973 61.8288 60.208 61.2227C60.4554 60.6042 60.7956 60.0661 61.2285 59.6084C61.6738 59.1507 62.2057 58.7796 62.8242 58.4951C63.4427 58.1982 64.1354 57.9941 64.9023 57.8828L71.6006 56.9736V55.7676C71.6006 55.0501 71.4893 54.4502 71.2666 53.9678C71.0439 53.473 70.7409 53.0833 70.3574 52.7988C69.9863 52.5143 69.541 52.3102 69.0215 52.1865C68.5143 52.0628 67.9639 52.001 67.3701 52.001C66.3063 52.001 65.3105 52.1494 64.3828 52.4463C63.4674 52.7432 62.6387 53.0895 61.8965 53.4854L60.7275 51.0176C61.8161 50.3991 62.9541 49.9538 64.1416 49.6816C65.3415 49.4095 66.5228 49.2734 67.6855 49.2734C69.9987 49.2734 71.749 49.7992 72.9365 50.8506C74.124 51.8896 74.7178 53.4111 74.7178 55.415V64.1543C74.7178 64.7852 74.8415 65.3171 75.0889 65.75C75.3363 66.1706 75.7321 66.5046 76.2764 66.752L74.5137 68.9785C73.9199 68.8301 73.4066 68.5703 72.9736 68.1992C72.5531 67.8158 72.2562 67.3581 72.083 66.8262L72.0459 66.7148ZM66.498 60.165C65.9785 60.2393 65.5023 60.3444 65.0693 60.4805C64.6488 60.6165 64.29 60.8021 63.9932 61.0371C63.6963 61.2598 63.4613 61.5381 63.2881 61.8721C63.1273 62.2061 63.0469 62.6143 63.0469 63.0967C63.0469 63.6533 63.152 64.1481 63.3623 64.5811C63.5726 65.014 63.8571 65.3789 64.2158 65.6758C64.5745 65.9727 64.9889 66.2015 65.459 66.3623C65.9414 66.5107 66.4424 66.585 66.9619 66.585C67.5433 66.585 68.1123 66.5046 68.6689 66.3438C69.2256 66.1829 69.7204 65.9541 70.1533 65.6572C70.5863 65.348 70.9326 64.9769 71.1924 64.5439C71.4645 64.111 71.6006 63.6162 71.6006 63.0596V59.4043L66.498 60.165Z" fill="#0B0C0C"/>
<path d="M84.5889 58.6064L78.7812 49.6445H82.3438L86.4072 56.1758L90.2852 49.6445H93.9033L88.1143 58.6064L94.7012 68.6074H90.9717L86.2217 61.2412L81.8984 68.6074H78.2061L84.5889 58.6064Z" fill="#0B0C0C"/>
<path d="M101.27 68.6074H98.1523V49.6445H101.27V68.6074ZM97.5771 44.1709C97.5771 43.874 97.6328 43.5957 97.7441 43.3359C97.8678 43.0762 98.0225 42.8473 98.208 42.6494C98.4059 42.4515 98.6348 42.2969 98.8945 42.1855C99.1667 42.0618 99.4512 42 99.748 42C100.045 42 100.323 42.0618 100.583 42.1855C100.843 42.2969 101.065 42.4515 101.251 42.6494C101.449 42.8473 101.604 43.0762 101.715 43.3359C101.839 43.5957 101.9 43.874 101.9 44.1709C101.9 44.4678 101.839 44.7523 101.715 45.0244C101.604 45.2842 101.449 45.513 101.251 45.7109C101.065 45.8965 100.843 46.0511 100.583 46.1748C100.323 46.2861 100.045 46.3418 99.748 46.3418C99.4512 46.3418 99.1667 46.2861 98.8945 46.1748C98.6348 46.0511 98.4059 45.8965 98.208 45.7109C98.0225 45.513 97.8678 45.2842 97.7441 45.0244C97.6328 44.7523 97.5771 44.4678 97.5771 44.1709Z" fill="#0B0C0C"/>
<path d="M121.197 68.6074H118.08V56.6768C118.08 55.8356 117.975 55.1243 117.765 54.543C117.567 53.9616 117.295 53.4915 116.948 53.1328C116.614 52.7741 116.212 52.5143 115.742 52.3535C115.285 52.1927 114.796 52.1123 114.276 52.1123C113.757 52.1123 113.243 52.2174 112.736 52.4277C112.242 52.6257 111.796 52.9411 111.4 53.374C111.017 53.807 110.701 54.3574 110.454 55.0254C110.219 55.681 110.102 56.4727 110.102 57.4004V68.6074H106.984V49.6445H110.102V51.8154C110.732 50.9372 111.462 50.2939 112.291 49.8857C113.132 49.4775 114.06 49.2734 115.074 49.2734C115.495 49.2734 115.952 49.3353 116.447 49.459C116.942 49.5703 117.424 49.7497 117.895 49.9971C118.377 50.2445 118.816 50.5723 119.212 50.9805C119.62 51.3763 119.948 51.8587 120.195 52.4277C120.542 51.8464 120.938 51.3577 121.383 50.9619C121.84 50.5537 122.317 50.2259 122.812 49.9785C123.319 49.7311 123.838 49.5518 124.37 49.4404C124.914 49.3291 125.452 49.2734 125.984 49.2734C127.011 49.2734 127.92 49.4466 128.712 49.793C129.504 50.1393 130.172 50.6032 130.716 51.1846C131.26 51.7659 131.668 52.4401 131.94 53.207C132.225 53.974 132.367 54.778 132.367 55.6191V68.6074H129.25V56.6768C129.25 55.8356 129.145 55.1243 128.935 54.543C128.724 53.9616 128.44 53.4915 128.081 53.1328C127.722 52.7741 127.308 52.5143 126.838 52.3535C126.368 52.1927 125.879 52.1123 125.372 52.1123C124.853 52.1123 124.339 52.2174 123.832 52.4277C123.337 52.6257 122.892 52.9411 122.496 53.374C122.113 53.807 121.797 54.3574 121.55 55.0254C121.315 55.681 121.197 56.4727 121.197 57.4004V68.6074Z" fill="#0B0C0C"/>
<path d="M152.777 68.6074H149.66V66.4365C149.017 67.3148 148.219 67.958 147.267 68.3662C146.326 68.7744 145.275 68.9785 144.112 68.9785C143.061 68.9785 142.139 68.8053 141.348 68.459C140.556 68.1126 139.894 67.6426 139.362 67.0488C138.83 66.4551 138.428 65.7686 138.156 64.9893C137.896 64.21 137.767 63.3874 137.767 62.5215V49.6445H140.884V61.5381C140.884 62.3792 140.983 63.0905 141.181 63.6719C141.391 64.2533 141.669 64.7295 142.016 65.1006C142.374 65.4593 142.789 65.7253 143.259 65.8984C143.741 66.0592 144.255 66.1396 144.799 66.1396C145.442 66.1396 146.054 66.0345 146.636 65.8242C147.229 65.6016 147.749 65.2738 148.194 64.8408C148.64 64.4079 148.992 63.8636 149.252 63.208C149.524 62.5524 149.66 61.7793 149.66 60.8887V49.6445H152.777V68.6074Z" fill="#0B0C0C"/>
<path d="M172.705 68.6074H169.588V56.6768C169.588 55.8356 169.483 55.1243 169.272 54.543C169.075 53.9616 168.802 53.4915 168.456 53.1328C168.122 52.7741 167.72 52.5143 167.25 52.3535C166.792 52.1927 166.304 52.1123 165.784 52.1123C165.265 52.1123 164.751 52.2174 164.244 52.4277C163.749 52.6257 163.304 52.9411 162.908 53.374C162.525 53.807 162.209 54.3574 161.962 55.0254C161.727 55.681 161.609 56.4727 161.609 57.4004V68.6074H158.492V49.6445H161.609V51.8154C162.24 50.9372 162.97 50.2939 163.799 49.8857C164.64 49.4775 165.568 49.2734 166.582 49.2734C167.003 49.2734 167.46 49.3353 167.955 49.459C168.45 49.5703 168.932 49.7497 169.402 49.9971C169.885 50.2445 170.324 50.5723 170.72 50.9805C171.128 51.3763 171.456 51.8587 171.703 52.4277C172.049 51.8464 172.445 51.3577 172.891 50.9619C173.348 50.5537 173.825 50.2259 174.319 49.9785C174.826 49.7311 175.346 49.5518 175.878 49.4404C176.422 49.3291 176.96 49.2734 177.492 49.2734C178.519 49.2734 179.428 49.4466 180.22 49.793C181.011 50.1393 181.679 50.6032 182.224 51.1846C182.768 51.7659 183.176 52.4401 183.448 53.207C183.733 53.974 183.875 54.778 183.875 55.6191V68.6074H180.758V56.6768C180.758 55.8356 180.653 55.1243 180.442 54.543C180.232 53.9616 179.948 53.4915 179.589 53.1328C179.23 52.7741 178.816 52.5143 178.346 52.3535C177.876 52.1927 177.387 52.1123 176.88 52.1123C176.36 52.1123 175.847 52.2174 175.34 52.4277C174.845 52.6257 174.4 52.9411 174.004 53.374C173.62 53.807 173.305 54.3574 173.058 55.0254C172.823 55.681 172.705 56.4727 172.705 57.4004V68.6074Z" fill="#0B0C0C"/>
<path d="M3.52344 93.0811L4.91504 80H20.1113V82.8574H7.5498L6.75195 90.4277C7.4694 89.735 8.3291 89.2155 9.33105 88.8691C10.333 88.5104 11.3597 88.3311 12.4111 88.3311C13.6729 88.3311 14.8356 88.5661 15.8994 89.0361C16.9756 89.4938 17.9033 90.1309 18.6826 90.9473C19.4743 91.7637 20.0866 92.7285 20.5195 93.8418C20.9648 94.9551 21.1875 96.1549 21.1875 97.4414C21.1875 98.8763 20.9525 100.181 20.4824 101.356C20.0247 102.532 19.3753 103.54 18.5342 104.381C17.693 105.21 16.6911 105.853 15.5283 106.311C14.3656 106.756 13.0853 106.979 11.6875 106.979C10.5866 106.979 9.54134 106.855 8.55176 106.607C7.57454 106.348 6.6901 105.964 5.89844 105.457C5.10677 104.938 4.42643 104.3 3.85742 103.546C3.30078 102.779 2.90495 101.888 2.66992 100.874L5.91699 100.188C6.05306 100.719 6.2819 101.227 6.60352 101.709C6.92513 102.179 7.33333 102.6 7.82812 102.971C8.32292 103.329 8.89193 103.614 9.53516 103.824C10.1784 104.035 10.8958 104.14 11.6875 104.14C12.64 104.14 13.4935 103.979 14.248 103.657C15.0026 103.336 15.6396 102.89 16.1592 102.321C16.6787 101.74 17.0745 101.053 17.3467 100.262C17.6312 99.4701 17.7734 98.6104 17.7734 97.6826C17.7734 96.7178 17.6312 95.8395 17.3467 95.0479C17.0745 94.2562 16.6725 93.5758 16.1406 93.0068C15.6211 92.4255 14.984 91.9801 14.2295 91.6709C13.4749 91.3493 12.6152 91.1885 11.6504 91.1885C11.1927 91.1885 10.7227 91.2441 10.2402 91.3555C9.77018 91.4668 9.3125 91.6214 8.86719 91.8193C8.43424 92.0173 8.02604 92.2585 7.64258 92.543C7.25911 92.8275 6.93131 93.1429 6.65918 93.4893L3.52344 93.0811Z" fill="#0B0C0C"/>
<path d="M33.5264 80H36.6436V102.358C36.6436 102.668 36.6683 102.94 36.7178 103.175C36.7796 103.41 36.8786 103.608 37.0146 103.769C37.1507 103.929 37.3363 104.053 37.5713 104.14C37.8187 104.214 38.1217 104.251 38.4805 104.251C38.8763 104.251 39.235 104.239 39.5566 104.214C39.8783 104.189 40.1628 104.164 40.4102 104.14L40.7256 106.756C40.3669 106.793 40.0081 106.83 39.6494 106.867C39.3402 106.892 39 106.917 38.6289 106.941C38.2578 106.966 37.9053 106.979 37.5713 106.979C37.0146 106.979 36.4889 106.91 35.9941 106.774C35.4993 106.651 35.0664 106.44 34.6953 106.144C34.3366 105.847 34.0521 105.463 33.8418 104.993C33.6315 104.523 33.5264 103.948 33.5264 103.268V80Z" fill="#0B0C0C"/>
<path d="M46.8301 106.607H43.7129V87.6445H46.8301V106.607ZM43.1377 82.1709C43.1377 81.874 43.1934 81.5957 43.3047 81.3359C43.4284 81.0762 43.583 80.8473 43.7686 80.6494C43.9665 80.4515 44.1953 80.2969 44.4551 80.1855C44.7272 80.0619 45.0117 80 45.3086 80C45.6055 80 45.8838 80.0619 46.1436 80.1855C46.4033 80.2969 46.626 80.4515 46.8115 80.6494C47.0094 80.8473 47.1641 81.0762 47.2754 81.3359C47.3991 81.5957 47.4609 81.874 47.4609 82.1709C47.4609 82.4678 47.3991 82.7523 47.2754 83.0244C47.1641 83.2842 47.0094 83.513 46.8115 83.7109C46.626 83.8965 46.4033 84.0511 46.1436 84.1748C45.8838 84.2861 45.6055 84.3418 45.3086 84.3418C45.0117 84.3418 44.7272 84.2861 44.4551 84.1748C44.1953 84.0511 43.9665 83.8965 43.7686 83.7109C43.583 83.513 43.4284 83.2842 43.3047 83.0244C43.1934 82.7523 43.1377 82.4678 43.1377 82.1709Z" fill="#0B0C0C"/>
<path d="M52.5449 87.6445H55.6621V89.8154C56.3053 88.9372 57.097 88.2939 58.0371 87.8857C58.9896 87.4775 60.0472 87.2734 61.21 87.2734C62.2614 87.2734 63.1829 87.4466 63.9746 87.793C64.7663 88.1393 65.4281 88.6094 65.96 89.2031C66.4919 89.7969 66.8877 90.4834 67.1475 91.2627C67.4196 92.042 67.5557 92.8646 67.5557 93.7305V106.607H64.4385V94.7139C64.4385 93.8851 64.3333 93.18 64.123 92.5986C63.9251 92.0049 63.6468 91.5286 63.2881 91.1699C62.9417 90.7988 62.5273 90.5329 62.0449 90.3721C61.5749 90.1989 61.0677 90.1123 60.5234 90.1123C59.9297 90.1123 59.3421 90.2236 58.7607 90.4463C58.1917 90.6566 57.6722 90.9782 57.2021 91.4111C56.7445 91.8441 56.3734 92.3883 56.0889 93.0439C55.8044 93.6995 55.6621 94.4727 55.6621 95.3633V106.607H52.5449V87.6445Z" fill="#0B0C0C"/>
<path d="M75.2188 98.0908C75.2806 98.9814 75.46 99.804 75.7568 100.559C76.0537 101.313 76.4557 101.969 76.9629 102.525C77.4824 103.07 78.0885 103.496 78.7812 103.806C79.4863 104.103 80.2656 104.251 81.1191 104.251C82.1706 104.251 83.0921 104.078 83.8838 103.731C84.6878 103.373 85.4238 102.927 86.0918 102.396L87.6875 104.641C86.834 105.321 85.8444 105.884 84.7188 106.329C83.6055 106.762 82.3561 106.979 80.9707 106.979C79.5977 106.979 78.3545 106.737 77.2412 106.255C76.1279 105.76 75.1755 105.08 74.3838 104.214C73.6045 103.336 73.0046 102.297 72.584 101.097C72.1634 99.8844 71.9531 98.5671 71.9531 97.1445C71.9531 95.6973 72.1572 94.3737 72.5654 93.1738C72.986 91.9616 73.5736 90.9225 74.3281 90.0566C75.0827 89.1784 75.9857 88.498 77.0371 88.0156C78.0885 87.5208 79.2575 87.2734 80.5439 87.2734C81.7933 87.2734 82.9189 87.5208 83.9209 88.0156C84.9229 88.498 85.7764 89.1784 86.4814 90.0566C87.1865 90.9225 87.7246 91.9616 88.0957 93.1738C88.4792 94.3737 88.6709 95.6849 88.6709 97.1074V98.0908H75.2188ZM80.4326 90.001C79.641 90.001 78.9359 90.1556 78.3174 90.4648C77.6989 90.7741 77.167 91.1885 76.7217 91.708C76.2887 92.2275 75.9424 92.8275 75.6826 93.5078C75.4352 94.1758 75.293 94.8685 75.2559 95.5859H85.2939C85.2692 94.8561 85.1393 94.1572 84.9043 93.4893C84.6816 92.8089 84.36 92.2152 83.9395 91.708C83.5312 91.1885 83.0303 90.7741 82.4365 90.4648C81.8551 90.1556 81.1872 90.001 80.4326 90.001Z" fill="#0B0C0C"/>
<path d="M105.723 101.356C105.723 102.247 105.525 103.045 105.129 103.75C104.745 104.443 104.232 105.03 103.589 105.513C102.946 105.995 102.203 106.36 101.362 106.607C100.534 106.855 99.68 106.979 98.8018 106.979C97.4163 106.979 96.0804 106.743 94.7939 106.273C93.5199 105.791 92.388 105.104 91.3984 104.214L93.1055 102.006C93.4023 102.266 93.7425 102.538 94.126 102.822C94.5218 103.107 94.9609 103.373 95.4434 103.62C95.9258 103.855 96.4453 104.053 97.002 104.214C97.5586 104.362 98.1462 104.437 98.7646 104.437C99.2718 104.437 99.7542 104.375 100.212 104.251C100.682 104.115 101.09 103.923 101.437 103.676C101.783 103.416 102.055 103.113 102.253 102.767C102.463 102.408 102.568 102.006 102.568 101.561C102.568 101.066 102.457 100.651 102.234 100.317C102.024 99.9834 101.733 99.6989 101.362 99.4639C100.991 99.2288 100.558 99.0247 100.063 98.8516C99.5687 98.6784 99.0492 98.5052 98.5049 98.332L97.3174 97.9424C96.6494 97.7197 96.0062 97.4661 95.3877 97.1816C94.7692 96.8971 94.2188 96.5508 93.7363 96.1426C93.2663 95.722 92.889 95.2272 92.6045 94.6582C92.3324 94.0892 92.1963 93.4089 92.1963 92.6172C92.1963 91.974 92.3324 91.3369 92.6045 90.7061C92.8766 90.0628 93.291 89.4876 93.8477 88.9805C94.4167 88.4733 95.1341 88.0651 96 87.7559C96.8659 87.4342 97.8864 87.2734 99.0615 87.2734C100.36 87.2734 101.56 87.4899 102.661 87.9229C103.774 88.3558 104.715 88.8939 105.481 89.5371L103.849 91.7822C103.576 91.5225 103.255 91.2751 102.884 91.04C102.513 90.805 102.117 90.6009 101.696 90.4277C101.276 90.2422 100.837 90.0938 100.379 89.9824C99.9212 89.8711 99.4697 89.8154 99.0244 89.8154C98.3441 89.8154 97.7689 89.8958 97.2988 90.0566C96.8288 90.2051 96.4515 90.403 96.167 90.6504C95.8825 90.8978 95.6722 91.1761 95.5361 91.4854C95.4124 91.7946 95.3506 92.0977 95.3506 92.3945C95.3506 92.8275 95.4434 93.1924 95.6289 93.4893C95.8145 93.7738 96.0557 94.0212 96.3525 94.2314C96.6618 94.4417 97.0081 94.6211 97.3916 94.7695C97.7874 94.918 98.1956 95.0664 98.6162 95.2148L100.175 95.7344C100.917 95.9818 101.597 96.2477 102.216 96.5322C102.834 96.8044 103.379 97.1198 103.849 97.4785C104.442 97.9486 104.9 98.4928 105.222 99.1113C105.556 99.7298 105.723 100.478 105.723 101.356Z" fill="#0B0C0C"/>
</g>
<defs>
<clipPath id="clip0_1334_18692">
<rect width="207" height="112" fill="white" transform="translate(0.1875)"/>
</clipPath>
<clipPath id="clip1_1334_18692">
<rect width="207.375" height="207.375" fill="white" transform="translate(0.1875)"/>
</clipPath>
</defs>
</svg>
