<svg width="320" height="174" viewBox="0 0 320 174" fill="none" xmlns="http://www.w3.org/2000/svg">
<rect width="320" height="173.14" fill="#F4F8FB"/>
<path d="M33.9194 27.4355H37.7056V54.8857H50.0324V58.2847H33.9194V27.4355Z" fill="#0B0C0C"/>
<path d="M57.906 58.2847H54.2919V36.2988H57.906V58.2847ZM53.625 29.9525C53.625 29.6083 53.6895 29.2856 53.8186 28.9845C53.962 28.6833 54.1413 28.418 54.3564 28.1885C54.5859 27.959 54.8512 27.7797 55.1524 27.6507C55.4679 27.5073 55.7978 27.4355 56.142 27.4355C56.4862 27.4355 56.8089 27.5073 57.1101 27.6507C57.4112 27.7797 57.6694 27.959 57.8845 28.1885C58.114 28.418 58.2933 28.6833 58.4223 28.9845C58.5657 29.2856 58.6375 29.6083 58.6375 29.9525C58.6375 30.2967 58.5657 30.6266 58.4223 30.9421C58.2933 31.2433 58.114 31.5086 57.8845 31.7381C57.6694 31.9532 57.4112 32.1325 57.1101 32.2759C56.8089 32.405 56.4862 32.4695 56.142 32.4695C55.7978 32.4695 55.4679 32.405 55.1524 32.2759C54.8512 32.1325 54.5859 31.9532 54.3564 31.7381C54.1413 31.5086 53.962 31.2433 53.8186 30.9421C53.6895 30.6266 53.625 30.2967 53.625 29.9525Z" fill="#0B0C0C"/>
<path d="M63.2842 46.087C63.2842 44.6385 63.4921 43.2904 63.9081 42.0427C64.324 40.7949 64.9192 39.7193 65.6936 38.8158C66.4681 37.8979 67.4003 37.1808 68.4903 36.6645C69.5946 36.1338 70.828 35.8685 72.1904 35.8685C73.3952 35.8685 74.5425 36.1052 75.6325 36.5784C76.7224 37.0374 77.6475 37.7831 78.4076 38.8158V36.2988H82.0217V58.2847C82.0217 59.6472 81.7421 60.7874 81.1827 61.7052C80.6378 62.6375 79.9207 63.3832 79.0315 63.9426C78.1423 64.5019 77.1312 64.9035 75.9982 65.1473C74.8795 65.3911 73.7394 65.513 72.5777 65.513C71.9323 65.513 71.2582 65.4771 70.5555 65.4054C69.8671 65.3337 69.1715 65.2262 68.4687 65.0827C67.766 64.9393 67.0704 64.7529 66.382 64.5234C65.708 64.3083 65.0626 64.0501 64.4459 63.749L65.7582 60.7157C66.1884 60.9164 66.6402 61.1101 67.1134 61.2965C67.5867 61.4973 68.0959 61.6766 68.6409 61.8343C69.2002 61.9921 69.7954 62.1212 70.4264 62.2216C71.0574 62.3219 71.7458 62.3721 72.4916 62.3721C73.4095 62.3721 74.2341 62.2789 74.9656 62.0925C75.7114 61.906 76.3352 61.612 76.8372 61.2105C77.3391 60.8232 77.7264 60.3213 77.9989 59.7046C78.2714 59.1022 78.4076 58.378 78.4076 57.5318V53.3583C77.6475 54.3909 76.7224 55.1439 75.6325 55.6172C74.5425 56.0761 73.3952 56.3056 72.1904 56.3056C70.828 56.3056 69.5946 56.0474 68.4903 55.5311C67.4003 55.0005 66.4681 54.2762 65.6936 53.3583C64.9192 52.4405 64.324 51.3648 63.9081 50.1314C63.4921 48.8837 63.2842 47.5356 63.2842 46.087ZM78.4937 46.001C78.4937 45.0114 78.3861 44.1007 78.171 43.2689C77.9558 42.4227 77.6188 41.6913 77.1599 41.0746C76.7009 40.4435 76.1129 39.9559 75.3958 39.6117C74.6931 39.2532 73.8469 39.0739 72.8573 39.0739C71.8534 39.0739 70.9857 39.2532 70.2543 39.6117C69.5229 39.9703 68.9133 40.4651 68.4257 41.0961C67.9524 41.7128 67.6011 42.4442 67.3716 43.2904C67.1421 44.1366 67.0274 45.0401 67.0274 46.001V46.1731C67.0274 47.134 67.1421 48.0375 67.3716 48.8837C67.6011 49.7155 67.9524 50.4469 68.4257 51.078C68.9133 51.6947 69.5229 52.1823 70.2543 52.5408C70.9857 52.8994 71.8534 53.0787 72.8573 53.0787C73.8469 53.0787 74.6931 52.9066 75.3958 52.5624C76.1129 52.2038 76.7009 51.7162 77.1599 51.0995C77.6188 50.4828 77.9558 49.7514 78.171 48.9052C78.3861 48.059 78.4937 47.1483 78.4937 46.1731V46.001Z" fill="#0B0C0C"/>
<path d="M88.6261 27.4355H92.2403V38.8158C92.986 37.7975 93.9039 37.0517 94.9939 36.5784C96.0982 36.1052 97.3244 35.8685 98.6726 35.8685C99.8916 35.8685 100.96 36.0693 101.878 36.4709C102.796 36.8724 103.563 37.4174 104.18 38.1058C104.796 38.7942 105.255 39.5902 105.557 40.4937C105.872 41.3973 106.03 42.351 106.03 43.3549V58.2847H102.416V44.4951C102.416 43.5342 102.294 42.7167 102.05 42.0427C101.821 41.3543 101.498 40.8021 101.082 40.3862C100.68 39.9559 100.2 39.6476 99.6406 39.4611C99.0956 39.2604 98.5076 39.16 97.8766 39.16C97.1882 39.16 96.5069 39.289 95.8329 39.5472C95.1588 39.791 94.5565 40.1639 94.0258 40.6658C93.4952 41.1678 93.0649 41.7988 92.7351 42.559C92.4052 43.3191 92.2403 44.2154 92.2403 45.248V58.2847H88.6261V27.4355Z" fill="#0B0C0C"/>
<path d="M118.142 52.8205C118.142 53.1934 118.163 53.5448 118.206 53.8746C118.263 54.1902 118.385 54.4698 118.572 54.7136C118.773 54.9574 119.059 55.1511 119.432 55.2945C119.805 55.4379 120.314 55.5096 120.96 55.5096C121.132 55.5096 121.333 55.5024 121.562 55.4881C121.806 55.4737 122.057 55.4594 122.315 55.4451C122.573 55.4164 122.824 55.3877 123.068 55.359C123.312 55.316 123.52 55.2801 123.692 55.2514L124.079 58.4138C123.663 58.4712 123.233 58.5214 122.788 58.5644C122.415 58.6074 121.999 58.6433 121.541 58.672C121.082 58.7006 120.623 58.715 120.164 58.715C119.289 58.715 118.5 58.6218 117.797 58.4353C117.109 58.2632 116.521 57.9764 116.033 57.5748C115.546 57.1732 115.173 56.6498 114.915 56.0044C114.656 55.3447 114.527 54.5487 114.527 53.6165V39.4826H110.375V36.2988H114.527V29.1135L118.142 27.8443V36.2988H124.251V39.4826H118.142V52.8205Z" fill="#0B0C0C"/>
<path d="M131.221 53.7025C131.623 53.7025 132.003 53.7814 132.361 53.9392C132.734 54.0969 133.05 54.3192 133.308 54.6061C133.58 54.8786 133.796 55.2156 133.953 55.6172C134.111 56.0187 134.19 56.4562 134.19 56.9294C134.19 57.4457 134.097 57.9764 133.91 58.5214C133.724 59.0664 133.437 59.5827 133.05 60.0703C132.663 60.5579 132.175 61.0025 131.587 61.4041C130.999 61.8056 130.303 62.114 129.5 62.3291L129.027 62.4797L128.575 61.0168L128.855 60.9308C129.515 60.7013 130.095 60.3786 130.597 59.9627C131.099 59.5468 131.444 59.0879 131.63 58.5859H131.178C130.834 58.5859 130.511 58.5214 130.21 58.3923C129.923 58.2776 129.665 58.1126 129.436 57.8975C129.221 57.6824 129.048 57.4314 128.919 57.1446C128.79 56.8434 128.726 56.5207 128.726 56.1765C128.726 55.8323 128.79 55.5096 128.919 55.2084C129.048 54.9072 129.221 54.6491 129.436 54.434C129.665 54.2045 129.93 54.0252 130.232 53.8961C130.547 53.7671 130.877 53.7025 131.221 53.7025Z" fill="#0B0C0C"/>
<path d="M158.349 35.8685C159.869 35.8685 161.253 36.1554 162.501 36.729C163.748 37.2884 164.81 38.0772 165.685 39.0954C166.574 40.0993 167.262 41.3041 167.75 42.7095C168.237 44.1007 168.481 45.6353 168.481 47.3133C168.481 48.9626 168.237 50.49 167.75 51.8955C167.262 53.2866 166.574 54.4913 165.685 55.5096C164.81 56.5135 163.748 57.3023 162.501 57.876C161.253 58.4353 159.869 58.715 158.349 58.715C156.828 58.715 155.445 58.4353 154.197 57.876C152.963 57.3023 151.902 56.5135 151.013 55.5096C150.124 54.4913 149.435 53.2866 148.948 51.8955C148.46 50.49 148.216 48.9626 148.216 47.3133C148.216 45.6353 148.46 44.1007 148.948 42.7095C149.435 41.3041 150.124 40.0993 151.013 39.0954C151.902 38.0772 152.963 37.2884 154.197 36.729C155.445 36.1554 156.828 35.8685 158.349 35.8685ZM158.349 55.5526C159.396 55.5526 160.314 55.3375 161.102 54.9072C161.905 54.4626 162.572 53.8675 163.103 53.1217C163.648 52.3759 164.057 51.5154 164.329 50.5402C164.602 49.5506 164.738 48.518 164.738 47.4423V47.1842C164.738 46.0799 164.602 45.0329 164.329 44.0433C164.057 43.0538 163.648 42.1932 163.103 41.4618C162.572 40.716 161.905 40.128 161.102 39.6978C160.314 39.2532 159.396 39.0309 158.349 39.0309C157.302 39.0309 156.377 39.2532 155.574 39.6978C154.785 40.128 154.118 40.716 153.573 41.4618C153.042 42.1932 152.641 43.0538 152.368 44.0433C152.096 45.0329 151.959 46.0799 151.959 47.1842V47.4423C151.959 48.518 152.096 49.5506 152.368 50.5402C152.641 51.5154 153.042 52.3759 153.573 53.1217C154.118 53.8675 154.785 54.4626 155.574 54.9072C156.377 55.3375 157.302 55.5526 158.349 55.5526Z" fill="#0B0C0C"/>
<path d="M178.054 58.2847L171.084 36.2988H175.193L180.464 54.9288L185.713 36.2988H189.822L182.852 58.2847H178.054Z" fill="#0B0C0C"/>
<path d="M196.233 48.4104C196.304 49.443 196.512 50.3967 196.856 51.2716C197.201 52.1464 197.667 52.9066 198.255 53.5519C198.857 54.183 199.56 54.6778 200.363 55.0363C201.18 55.3805 202.084 55.5526 203.074 55.5526C204.293 55.5526 205.361 55.3518 206.279 54.9503C207.211 54.5344 208.065 54.018 208.839 53.4014L210.689 56.0044C209.699 56.7932 208.552 57.4457 207.247 57.962C205.956 58.464 204.508 58.715 202.901 58.715C201.31 58.715 199.868 58.4353 198.577 57.876C197.287 57.3023 196.182 56.5135 195.264 55.5096C194.361 54.4913 193.665 53.2866 193.178 51.8955C192.69 50.49 192.446 48.9626 192.446 47.3133C192.446 45.6353 192.683 44.1007 193.156 42.7095C193.644 41.3041 194.325 40.0993 195.2 39.0954C196.075 38.0772 197.122 37.2884 198.341 36.729C199.56 36.1554 200.915 35.8685 202.407 35.8685C203.855 35.8685 205.16 36.1554 206.322 36.729C207.484 37.2884 208.473 38.0772 209.291 39.0954C210.108 40.0993 210.732 41.3041 211.162 42.7095C211.607 44.1007 211.829 45.6209 211.829 47.2702V48.4104H196.233ZM202.278 39.0309C201.36 39.0309 200.542 39.2102 199.825 39.5687C199.108 39.9272 198.491 40.4077 197.975 41.01C197.473 41.6124 197.072 42.308 196.77 43.0968C196.484 43.8712 196.319 44.6744 196.276 45.5062H207.914C207.885 44.66 207.735 43.8497 207.462 43.0753C207.204 42.2865 206.831 41.5981 206.344 41.01C205.87 40.4077 205.289 39.9272 204.601 39.5687C203.927 39.2102 203.152 39.0309 202.278 39.0309Z" fill="#0B0C0C"/>
<path d="M228.114 39.5257H227.534C226.601 39.5257 225.712 39.6332 224.866 39.8484C224.02 40.0635 223.274 40.4507 222.629 41.01C221.983 41.5694 221.467 42.3367 221.08 43.3119C220.692 44.2728 220.499 45.5062 220.499 47.0121V58.2847H216.885V36.2988H220.499V39.7838C220.771 39.1384 221.137 38.5719 221.596 38.0843C222.055 37.5967 222.571 37.1951 223.145 36.8796C223.733 36.5498 224.357 36.3059 225.017 36.1482C225.691 35.9904 226.372 35.9115 227.06 35.9115H228.114V39.5257Z" fill="#0B0C0C"/>
<path d="M45.4932 98.989C44.8478 99.7348 43.973 100.359 42.8687 100.861C41.7787 101.363 40.4951 101.614 39.0179 101.614C37.9279 101.614 36.9168 101.463 35.9846 101.162C35.0524 100.846 34.2421 100.402 33.5537 99.828C32.8653 99.2543 32.3274 98.5587 31.9402 97.7413C31.553 96.9238 31.3594 95.9987 31.3594 94.9661C31.3594 94.1056 31.4956 93.324 31.7681 92.6212C32.055 91.9041 32.4494 91.2803 32.9513 90.7496C33.4676 90.219 34.0843 89.7887 34.8014 89.4589C35.5185 89.1147 36.3216 88.878 37.2108 88.749L44.9769 87.6948V86.2965C44.9769 85.4647 44.8478 84.7691 44.5897 84.2098C44.3315 83.6361 43.9801 83.1843 43.5356 82.8545C43.1053 82.5246 42.589 82.288 41.9866 82.1446C41.3986 82.0011 40.7604 81.9294 40.072 81.9294C38.8386 81.9294 37.6841 82.1015 36.6085 82.4457C35.5472 82.7899 34.5863 83.1915 33.7258 83.6504L32.3705 80.7893C33.6325 80.0722 34.952 79.5559 36.3288 79.2403C37.72 78.9248 39.0896 78.7671 40.4377 78.7671C43.1196 78.7671 45.149 79.3766 46.5258 80.5956C47.9026 81.8004 48.591 83.5644 48.591 85.8878V96.0202C48.591 96.7517 48.7344 97.3684 49.0213 97.8703C49.3081 98.3579 49.7671 98.7452 50.3981 99.032L48.3544 101.614C47.666 101.441 47.0708 101.14 46.5688 100.71C46.0812 100.265 45.737 99.7348 45.5362 99.1181L45.4932 98.989ZM39.0609 91.395C38.4586 91.4811 37.9064 91.603 37.4044 91.7607C36.9168 91.9185 36.5009 92.1336 36.1567 92.4061C35.8125 92.6643 35.54 92.9869 35.3392 93.3742C35.1528 93.7614 35.0596 94.2347 35.0596 94.794C35.0596 95.4394 35.1815 96.0131 35.4253 96.515C35.6691 97.017 35.9989 97.4401 36.4149 97.7843C36.8308 98.1285 37.3112 98.3938 37.8562 98.5802C38.4155 98.7523 38.9964 98.8384 39.5987 98.8384C40.2728 98.8384 40.9325 98.7452 41.5779 98.5587C42.2233 98.3723 42.797 98.107 43.2989 97.7628C43.8009 97.4042 44.2024 96.974 44.5036 96.472C44.8191 95.97 44.9769 95.3964 44.9769 94.751V90.513L39.0609 91.395Z" fill="#0B0C0C"/>
<path d="M80.4513 101.183H76.8372V87.3506C76.8372 86.3754 76.7153 85.5507 76.4715 84.8767C76.242 84.2026 75.9265 83.6576 75.5249 83.2417C75.1377 82.8258 74.6716 82.5246 74.1266 82.3382C73.5959 82.1517 73.0294 82.0585 72.4271 82.0585C71.8247 82.0585 71.2295 82.1804 70.6415 82.4242C70.0679 82.6537 69.5516 83.0194 69.0926 83.5214C68.648 84.0233 68.2823 84.6615 67.9955 85.436C67.723 86.1961 67.5867 87.114 67.5867 88.1896V101.183H63.9726V79.1973H67.5867V81.7143C68.3182 80.696 69.1643 79.9503 70.1252 79.477C71.1005 79.0037 72.1761 78.7671 73.3521 78.7671C73.8397 78.7671 74.3704 78.8388 74.9441 78.9822C75.5177 79.1113 76.0771 79.3192 76.6221 79.6061C77.1814 79.8929 77.6905 80.273 78.1495 80.7462C78.6227 81.2052 79.0028 81.7645 79.2896 82.4242C79.6912 81.7502 80.1501 81.1837 80.6664 80.7247C81.1971 80.2514 81.7492 79.8714 82.3229 79.5845C82.9109 79.2977 83.5133 79.0898 84.13 78.9607C84.761 78.8316 85.3849 78.7671 86.0016 78.7671C87.192 78.7671 88.2461 78.9679 89.1639 79.3694C90.0818 79.771 90.8563 80.3088 91.4873 80.9829C92.1184 81.6569 92.5916 82.4386 92.9072 83.3278C93.237 84.2169 93.4019 85.1492 93.4019 86.1244V101.183H89.7878V87.3506C89.7878 86.3754 89.6659 85.5507 89.4221 84.8767C89.1783 84.2026 88.8484 83.6576 88.4325 83.2417C88.0166 82.8258 87.5362 82.5246 86.9912 82.3382C86.4462 82.1517 85.8797 82.0585 85.2917 82.0585C84.6893 82.0585 84.0941 82.1804 83.5061 82.4242C82.9324 82.6537 82.4161 83.0194 81.9572 83.5214C81.5126 84.0233 81.1469 84.6615 80.8601 85.436C80.5876 86.1961 80.4513 87.114 80.4513 88.1896V101.183Z" fill="#0B0C0C"/>
<path d="M112.355 98.989C111.709 99.7348 110.834 100.359 109.73 100.861C108.64 101.363 107.357 101.614 105.879 101.614C104.789 101.614 103.778 101.463 102.846 101.162C101.914 100.846 101.103 100.402 100.415 99.828C99.7267 99.2543 99.1889 98.5587 98.8016 97.7413C98.4144 96.9238 98.2208 95.9987 98.2208 94.9661C98.2208 94.1056 98.357 93.324 98.6295 92.6212C98.9164 91.9041 99.3108 91.2803 99.8127 90.7496C100.329 90.219 100.946 89.7887 101.663 89.4589C102.38 89.1147 103.183 88.878 104.072 88.749L111.838 87.6948V86.2965C111.838 85.4647 111.709 84.7691 111.451 84.2098C111.193 83.6361 110.842 83.1843 110.397 82.8545C109.967 82.5246 109.45 82.288 108.848 82.1446C108.26 82.0011 107.622 81.9294 106.933 81.9294C105.7 81.9294 104.546 82.1015 103.47 82.4457C102.409 82.7899 101.448 83.1915 100.587 83.6504L99.2319 80.7893C100.494 80.0722 101.813 79.5559 103.19 79.2403C104.581 78.9248 105.951 78.7671 107.299 78.7671C109.981 78.7671 112.01 79.3766 113.387 80.5956C114.764 81.8004 115.452 83.5644 115.452 85.8878V96.0202C115.452 96.7517 115.596 97.3684 115.883 97.8703C116.17 98.3579 116.628 98.7452 117.26 99.032L115.216 101.614C114.527 101.441 113.932 101.14 113.43 100.71C112.943 100.265 112.598 99.7348 112.398 99.1181L112.355 98.989ZM105.922 91.395C105.32 91.4811 104.768 91.603 104.266 91.7607C103.778 91.9185 103.362 92.1336 103.018 92.4061C102.674 92.6643 102.401 92.9869 102.201 93.3742C102.014 93.7614 101.921 94.2347 101.921 94.794C101.921 95.4394 102.043 96.0131 102.287 96.515C102.53 97.017 102.86 97.4401 103.276 97.7843C103.692 98.1285 104.173 98.3938 104.718 98.5802C105.277 98.7523 105.858 98.8384 106.46 98.8384C107.134 98.8384 107.794 98.7452 108.439 98.5587C109.085 98.3723 109.658 98.107 110.16 97.7628C110.662 97.4042 111.064 96.974 111.365 96.472C111.681 95.97 111.838 95.3964 111.838 94.751V90.513L105.922 91.395Z" fill="#0B0C0C"/>
<path d="M126.897 89.5879L120.164 79.1973H124.294L129.005 86.7698L133.502 79.1973H137.697L130.985 89.5879L138.622 101.183H134.298L128.79 92.6427L123.778 101.183H119.497L126.897 89.5879Z" fill="#0B0C0C"/>
<path d="M146.237 101.183H142.623V79.1973H146.237V101.183ZM141.956 72.8511C141.956 72.5069 142.021 72.1842 142.15 71.883C142.293 71.5818 142.472 71.3165 142.687 71.087C142.917 70.8576 143.182 70.6783 143.483 70.5492C143.799 70.4058 144.129 70.3341 144.473 70.3341C144.817 70.3341 145.14 70.4058 145.441 70.5492C145.742 70.6783 146 70.8576 146.216 71.087C146.445 71.3165 146.624 71.5818 146.753 71.883C146.897 72.1842 146.969 72.5069 146.969 72.8511C146.969 73.1953 146.897 73.5251 146.753 73.8407C146.624 74.1418 146.445 74.4072 146.216 74.6366C146 74.8518 145.742 75.031 145.441 75.1744C145.14 75.3035 144.817 75.3681 144.473 75.3681C144.129 75.3681 143.799 75.3035 143.483 75.1744C143.182 75.031 142.917 74.8518 142.687 74.6366C142.472 74.4072 142.293 74.1418 142.15 73.8407C142.021 73.5251 141.956 73.1953 141.956 72.8511Z" fill="#0B0C0C"/>
<path d="M169.342 101.183H165.728V87.3506C165.728 86.3754 165.606 85.5507 165.362 84.8767C165.132 84.2026 164.817 83.6576 164.415 83.2417C164.028 82.8258 163.562 82.5246 163.017 82.3382C162.486 82.1517 161.92 82.0585 161.317 82.0585C160.715 82.0585 160.12 82.1804 159.532 82.4242C158.958 82.6537 158.442 83.0194 157.983 83.5214C157.538 84.0233 157.173 84.6615 156.886 85.436C156.613 86.1961 156.477 87.114 156.477 88.1896V101.183H152.863V79.1973H156.477V81.7143C157.209 80.696 158.055 79.9503 159.016 79.477C159.991 79.0037 161.066 78.7671 162.243 78.7671C162.73 78.7671 163.261 78.8388 163.834 78.9822C164.408 79.1113 164.967 79.3192 165.512 79.6061C166.072 79.8929 166.581 80.273 167.04 80.7462C167.513 81.2052 167.893 81.7645 168.18 82.4242C168.582 81.7502 169.041 81.1837 169.557 80.7247C170.087 80.2514 170.64 79.8714 171.213 79.5845C171.801 79.2977 172.404 79.0898 173.02 78.9607C173.651 78.8316 174.275 78.7671 174.892 78.7671C176.082 78.7671 177.136 78.9679 178.054 79.3694C178.972 79.771 179.747 80.3088 180.378 80.9829C181.009 81.6569 181.482 82.4386 181.798 83.3278C182.127 84.2169 182.292 85.1492 182.292 86.1244V101.183H178.678V87.3506C178.678 86.3754 178.556 85.5507 178.312 84.8767C178.069 84.2026 177.739 83.6576 177.323 83.2417C176.907 82.8258 176.427 82.5246 175.882 82.3382C175.337 82.1517 174.77 82.0585 174.182 82.0585C173.58 82.0585 172.985 82.1804 172.397 82.4242C171.823 82.6537 171.307 83.0194 170.848 83.5214C170.403 84.0233 170.037 84.6615 169.75 85.436C169.478 86.1961 169.342 87.114 169.342 88.1896V101.183Z" fill="#0B0C0C"/>
<path d="M205.956 101.183H202.342V98.6663C201.596 99.6846 200.671 100.43 199.567 100.904C198.477 101.377 197.258 101.614 195.91 101.614C194.691 101.614 193.622 101.413 192.704 101.011C191.787 100.61 191.019 100.065 190.403 99.3762C189.786 98.6878 189.32 97.8918 189.004 96.9883C188.703 96.0848 188.553 95.131 188.553 94.1271V79.1973H192.167V92.9869C192.167 93.9622 192.281 94.7868 192.511 95.4609C192.755 96.135 193.077 96.6871 193.479 97.1174C193.895 97.5333 194.375 97.8416 194.92 98.0424C195.48 98.2289 196.075 98.3221 196.706 98.3221C197.452 98.3221 198.162 98.2002 198.836 97.9564C199.524 97.6982 200.126 97.3182 200.643 96.8162C201.159 96.3142 201.568 95.6832 201.869 94.9231C202.184 94.163 202.342 93.2666 202.342 92.234V79.1973H205.956V101.183Z" fill="#0B0C0C"/>
<path d="M229.061 101.183H225.447V87.3506C225.447 86.3754 225.325 85.5507 225.081 84.8767C224.852 84.2026 224.536 83.6576 224.135 83.2417C223.747 82.8258 223.281 82.5246 222.736 82.3382C222.206 82.1517 221.639 82.0585 221.037 82.0585C220.434 82.0585 219.839 82.1804 219.251 82.4242C218.677 82.6537 218.161 83.0194 217.702 83.5214C217.258 84.0233 216.892 84.6615 216.605 85.436C216.333 86.1961 216.196 87.114 216.196 88.1896V101.183H212.582V79.1973H216.196V81.7143C216.928 80.696 217.774 79.9503 218.735 79.477C219.71 79.0037 220.786 78.7671 221.962 78.7671C222.449 78.7671 222.98 78.8388 223.554 78.9822C224.127 79.1113 224.687 79.3192 225.232 79.6061C225.791 79.8929 226.3 80.273 226.759 80.7462C227.232 81.2052 227.612 81.7645 227.899 82.4242C228.301 81.7502 228.76 81.1837 229.276 80.7247C229.807 80.2514 230.359 79.8714 230.933 79.5845C231.521 79.2977 232.123 79.0898 232.74 78.9607C233.371 78.8316 233.994 78.7671 234.611 78.7671C235.802 78.7671 236.856 78.9679 237.774 79.3694C238.691 79.771 239.466 80.3088 240.097 80.9829C240.728 81.6569 241.201 82.4386 241.517 83.3278C241.847 84.2169 242.012 85.1492 242.012 86.1244V101.183H238.397V87.3506C238.397 86.3754 238.276 85.5507 238.032 84.8767C237.788 84.2026 237.458 83.6576 237.042 83.2417C236.626 82.8258 236.146 82.5246 235.601 82.3382C235.056 82.1517 234.489 82.0585 233.901 82.0585C233.299 82.0585 232.704 82.1804 232.116 82.4242C231.542 82.6537 231.026 83.0194 230.567 83.5214C230.122 84.0233 229.756 84.6615 229.47 85.436C229.197 86.1961 229.061 87.114 229.061 88.1896V101.183Z" fill="#0B0C0C"/>
<path d="M32.9083 129.559L34.5217 114.392H52.1406V117.705H37.5765L36.6515 126.482C37.4833 125.679 38.4801 125.077 39.6418 124.675C40.8034 124.259 41.9938 124.051 43.2129 124.051C44.6757 124.051 46.0239 124.324 47.2572 124.869C48.505 125.399 49.5806 126.138 50.4841 127.085C51.402 128.031 52.1119 129.15 52.6139 130.441C53.1302 131.731 53.3884 133.122 53.3884 134.614C53.3884 136.278 53.1159 137.791 52.5709 139.153C52.0402 140.516 51.2873 141.684 50.312 142.66C49.3368 143.621 48.1751 144.366 46.827 144.897C45.4789 145.413 43.9945 145.672 42.3739 145.672C41.0974 145.672 39.8856 145.528 38.7382 145.241C37.6052 144.94 36.5798 144.495 35.6619 143.907C34.744 143.305 33.9552 142.567 33.2955 141.692C32.6501 140.802 32.1912 139.77 31.9187 138.594L35.6834 137.798C35.8412 138.415 36.1065 139.003 36.4794 139.562C36.8523 140.107 37.3256 140.595 37.8992 141.025C38.4729 141.441 39.1326 141.771 39.8784 142.014C40.6242 142.258 41.456 142.38 42.3739 142.38C43.4782 142.38 44.4678 142.194 45.3426 141.821C46.2175 141.448 46.9561 140.932 47.5584 140.272C48.1608 139.598 48.6197 138.802 48.9352 137.884C49.2651 136.966 49.43 135.969 49.43 134.894C49.43 133.775 49.2651 132.757 48.9352 131.839C48.6197 130.921 48.1536 130.132 47.5369 129.472C46.9346 128.798 46.196 128.282 45.3211 127.924C44.4463 127.551 43.4495 127.364 42.3308 127.364C41.8002 127.364 41.2552 127.429 40.6959 127.558C40.1509 127.687 39.6202 127.866 39.1039 128.096C38.602 128.325 38.1287 128.605 37.6841 128.935C37.2395 129.264 36.8595 129.63 36.5439 130.032L32.9083 129.559Z" fill="#0B0C0C"/>
<path d="M67.6943 114.392H71.3084V140.315C71.3084 140.673 71.3371 140.989 71.3945 141.261C71.4662 141.534 71.5809 141.763 71.7387 141.95C71.8964 142.136 72.1116 142.28 72.3841 142.38C72.6709 142.466 73.0223 142.509 73.4382 142.509C73.8971 142.509 74.313 142.495 74.6859 142.466C75.0588 142.437 75.3887 142.409 75.6755 142.38L76.0412 145.413C75.6253 145.456 75.2094 145.499 74.7935 145.542C74.4349 145.571 74.0405 145.6 73.6103 145.628C73.18 145.657 72.7713 145.672 72.3841 145.672C71.7387 145.672 71.1292 145.593 70.5555 145.435C69.9818 145.291 69.4798 145.048 69.0496 144.703C68.6337 144.359 68.3038 143.915 68.06 143.37C67.8162 142.825 67.6943 142.158 67.6943 141.369V114.392Z" fill="#0B0C0C"/>
<path d="M83.1189 145.241H79.5048V123.255H83.1189V145.241ZM78.8379 116.909C78.8379 116.565 78.9024 116.242 79.0315 115.941C79.1749 115.64 79.3542 115.374 79.5693 115.145C79.7988 114.916 80.0641 114.736 80.3653 114.607C80.6808 114.464 81.0106 114.392 81.3548 114.392C81.699 114.392 82.0217 114.464 82.3229 114.607C82.6241 114.736 82.8822 114.916 83.0974 115.145C83.3268 115.374 83.5061 115.64 83.6352 115.941C83.7786 116.242 83.8503 116.565 83.8503 116.909C83.8503 117.253 83.7786 117.583 83.6352 117.899C83.5061 118.2 83.3268 118.465 83.0974 118.695C82.8822 118.91 82.6241 119.089 82.3229 119.232C82.0217 119.361 81.699 119.426 81.3548 119.426C81.0106 119.426 80.6808 119.361 80.3653 119.232C80.0641 119.089 79.7988 118.91 79.5693 118.695C79.3542 118.465 79.1749 118.2 79.0315 117.899C78.9024 117.583 78.8379 117.253 78.8379 116.909Z" fill="#0B0C0C"/>
<path d="M89.7448 123.255H93.3589V125.772C94.1047 124.754 95.0226 124.008 96.1125 123.535C97.2169 123.062 98.4431 122.825 99.7912 122.825C101.01 122.825 102.079 123.026 102.997 123.427C103.914 123.829 104.682 124.374 105.298 125.062C105.915 125.751 106.374 126.547 106.675 127.45C106.991 128.354 107.149 129.308 107.149 130.311V145.241H103.534V131.452C103.534 130.491 103.413 129.673 103.169 128.999C102.939 128.311 102.617 127.759 102.201 127.343C101.799 126.912 101.319 126.604 100.759 126.418C100.214 126.217 99.6263 126.116 98.9952 126.116C98.3068 126.116 97.6256 126.246 96.9515 126.504C96.2918 126.748 95.6895 127.12 95.1445 127.622C94.6138 128.124 94.1836 128.755 93.8537 129.515C93.5239 130.276 93.3589 131.172 93.3589 132.205V145.241H89.7448V123.255Z" fill="#0B0C0C"/>
<path d="M116.033 135.367C116.105 136.4 116.313 137.353 116.657 138.228C117.001 139.103 117.467 139.863 118.055 140.508C118.658 141.139 119.361 141.634 120.164 141.993C120.981 142.337 121.885 142.509 122.874 142.509C124.093 142.509 125.162 142.308 126.08 141.907C127.012 141.491 127.865 140.975 128.64 140.358L130.49 142.961C129.5 143.75 128.353 144.402 127.048 144.919C125.757 145.421 124.308 145.672 122.702 145.672C121.11 145.672 119.669 145.392 118.378 144.833C117.087 144.259 115.983 143.47 115.065 142.466C114.162 141.448 113.466 140.243 112.978 138.852C112.491 137.446 112.247 135.919 112.247 134.27C112.247 132.592 112.484 131.057 112.957 129.666C113.445 128.261 114.126 127.056 115.001 126.052C115.876 125.034 116.922 124.245 118.142 123.686C119.361 123.112 120.716 122.825 122.207 122.825C123.656 122.825 124.961 123.112 126.123 123.686C127.284 124.245 128.274 125.034 129.091 126.052C129.909 127.056 130.533 128.261 130.963 129.666C131.408 131.057 131.63 132.577 131.63 134.227V135.367H116.033ZM122.078 125.987C121.16 125.987 120.343 126.167 119.626 126.525C118.909 126.884 118.292 127.364 117.776 127.967C117.274 128.569 116.872 129.264 116.571 130.053C116.284 130.828 116.119 131.631 116.076 132.463H127.715C127.686 131.617 127.535 130.806 127.263 130.032C127.005 129.243 126.632 128.555 126.144 127.967C125.671 127.364 125.09 126.884 124.402 126.525C123.728 126.167 122.953 125.987 122.078 125.987Z" fill="#0B0C0C"/>
<path d="M151.4 139.153C151.4 140.186 151.171 141.111 150.712 141.928C150.267 142.731 149.672 143.413 148.926 143.972C148.18 144.531 147.32 144.954 146.345 145.241C145.384 145.528 144.394 145.672 143.376 145.672C141.77 145.672 140.221 145.399 138.729 144.854C137.252 144.295 135.94 143.499 134.792 142.466L136.772 139.906C137.116 140.207 137.51 140.523 137.955 140.853C138.414 141.183 138.923 141.491 139.482 141.778C140.041 142.05 140.644 142.28 141.289 142.466C141.935 142.638 142.616 142.724 143.333 142.724C143.921 142.724 144.48 142.653 145.011 142.509C145.556 142.351 146.029 142.129 146.431 141.842C146.832 141.541 147.148 141.19 147.377 140.788C147.621 140.372 147.743 139.906 147.743 139.39C147.743 138.816 147.614 138.336 147.356 137.948C147.112 137.561 146.775 137.231 146.345 136.959C145.914 136.686 145.412 136.45 144.839 136.249C144.265 136.048 143.663 135.847 143.032 135.647L141.655 135.195C140.88 134.937 140.135 134.643 139.418 134.313C138.7 133.983 138.062 133.581 137.503 133.108C136.958 132.62 136.521 132.047 136.191 131.387C135.875 130.727 135.717 129.939 135.717 129.021C135.717 128.275 135.875 127.536 136.191 126.805C136.506 126.059 136.987 125.392 137.632 124.804C138.292 124.216 139.124 123.743 140.127 123.384C141.131 123.011 142.315 122.825 143.677 122.825C145.183 122.825 146.574 123.076 147.851 123.578C149.141 124.08 150.231 124.704 151.12 125.45L149.227 128.053C148.912 127.751 148.539 127.465 148.109 127.192C147.678 126.92 147.22 126.683 146.732 126.482C146.244 126.267 145.735 126.095 145.204 125.966C144.674 125.837 144.15 125.772 143.634 125.772C142.845 125.772 142.178 125.865 141.633 126.052C141.088 126.224 140.651 126.454 140.321 126.74C139.991 127.027 139.747 127.35 139.59 127.708C139.446 128.067 139.375 128.418 139.375 128.763C139.375 129.264 139.482 129.688 139.697 130.032C139.912 130.362 140.192 130.648 140.536 130.892C140.895 131.136 141.296 131.344 141.741 131.516C142.2 131.688 142.673 131.86 143.161 132.032L144.968 132.635C145.828 132.922 146.617 133.23 147.334 133.56C148.051 133.875 148.682 134.241 149.227 134.657C149.916 135.202 150.446 135.833 150.819 136.55C151.207 137.267 151.4 138.135 151.4 139.153Z" fill="#0B0C0C"/>
</svg>
