<svg width="320" height="174" viewBox="0 0 320 174" fill="none" xmlns="http://www.w3.org/2000/svg">
<rect width="320" height="173.14" fill="#F4F8FB"/>
<path d="M45.8374 27.4355C47.1282 27.4355 48.3257 27.6291 49.43 28.0163C50.5343 28.3892 51.4952 28.927 52.3127 29.6298C53.1302 30.3325 53.7684 31.1859 54.2274 32.1898C54.6863 33.1794 54.9158 34.2837 54.9158 35.5027C54.9158 36.1338 54.8225 36.7576 54.6361 37.3743C54.464 37.991 54.2058 38.5719 53.8616 39.1169C53.5174 39.6475 53.1015 40.1351 52.6139 40.5797C52.1263 41.0243 51.5741 41.39 50.9574 41.6769C51.4594 41.849 52.0402 42.1071 52.7 42.4513C53.374 42.7955 54.0122 43.2688 54.6146 43.8712C55.2169 44.4735 55.7261 45.2193 56.142 46.1085C56.5579 46.9833 56.7659 48.0446 56.7659 49.2924C56.7659 50.8556 56.4647 52.2038 55.8623 53.3368C55.2743 54.4698 54.4712 55.402 53.4529 56.1334C52.449 56.8648 51.2658 57.4098 49.9033 57.7684C48.5552 58.1126 47.1282 58.2847 45.6223 58.2847H32.1123V27.4355H45.8374ZM50.3766 49.0772C50.3766 48.2454 50.226 47.5642 49.9248 47.0335C49.6236 46.5029 49.2221 46.0798 48.7201 45.7643C48.2325 45.4488 47.6732 45.2336 47.0421 45.1189C46.4111 44.9898 45.7657 44.9253 45.106 44.9253H38.351V53.3583H45.106C45.7657 53.3583 46.4111 53.2937 47.0421 53.1647C47.6732 53.0356 48.2325 52.8061 48.7201 52.4762C49.2221 52.1464 49.6236 51.709 49.9248 51.164C50.226 50.619 50.3766 49.9234 50.3766 49.0772ZM48.6341 36.1266C48.6341 34.9506 48.2612 34.0327 47.5154 33.373C46.7696 32.7133 45.5649 32.3834 43.9013 32.3834H38.351V39.6547H43.9013C45.5362 39.6547 46.7338 39.3463 47.4939 38.7296C48.254 38.0986 48.6341 37.2309 48.6341 36.1266Z" fill="#0B0C0C"/>
<path d="M70.9212 34.7928C72.6279 34.7928 74.1768 35.1012 75.5679 35.7179C76.9591 36.3202 78.1495 37.1592 79.139 38.2349C80.1286 39.3105 80.8887 40.5797 81.4194 42.0426C81.9644 43.5055 82.2369 45.0831 82.2369 46.7754C82.2369 48.4821 81.9644 50.0668 81.4194 51.5297C80.8744 52.9782 80.1071 54.2331 79.1175 55.2944C78.1279 56.3557 76.9376 57.1947 75.5464 57.8114C74.1553 58.4137 72.6135 58.7149 70.9212 58.7149C69.2145 58.7149 67.6656 58.4137 66.2745 57.8114C64.8833 57.1947 63.6929 56.3557 62.7034 55.2944C61.7138 54.2331 60.9465 52.9782 60.4015 51.5297C59.8565 50.0668 59.584 48.4821 59.584 46.7754C59.584 45.0831 59.8493 43.5055 60.38 42.0426C60.925 40.5797 61.6923 39.3105 62.6818 38.2349C63.6714 37.1592 64.8618 36.3202 66.2529 35.7179C67.6584 35.1012 69.2145 34.7928 70.9212 34.7928ZM70.9212 53.2077C71.7674 53.2077 72.5131 53.0499 73.1585 52.7344C73.8182 52.4189 74.3704 51.9815 74.815 51.4221C75.2596 50.8628 75.5966 50.1959 75.8261 49.4214C76.0556 48.6326 76.1703 47.7721 76.1703 46.8399V46.6893C76.1703 45.7571 76.0556 44.9038 75.8261 44.1293C75.5966 43.3405 75.2596 42.6665 74.815 42.1071C74.3704 41.5335 73.8182 41.0889 73.1585 40.7733C72.5131 40.4578 71.7674 40.3001 70.9212 40.3001C70.075 40.3001 69.3221 40.4578 68.6624 40.7733C68.017 41.0889 67.472 41.5335 67.0274 42.1071C66.5828 42.6665 66.2458 43.3405 66.0163 44.1293C65.7868 44.9038 65.6721 45.7571 65.6721 46.6893V46.8399C65.6721 47.7721 65.7868 48.6326 66.0163 49.4214C66.2458 50.1959 66.5828 50.8628 67.0274 51.4221C67.472 51.9815 68.017 52.4189 68.6624 52.7344C69.3221 53.0499 70.075 53.2077 70.9212 53.2077Z" fill="#0B0C0C"/>
<path d="M86.0876 27.4355H92.0251V52.0245C92.0251 52.5121 92.1614 52.885 92.4339 53.1431C92.7207 53.4013 93.1725 53.5304 93.7892 53.5304C94.076 53.5304 94.3198 53.516 94.5206 53.4873C94.7357 53.4443 95.0082 53.3869 95.3381 53.3152L95.8114 58.3707C95.4098 58.4281 94.9795 58.4855 94.5206 58.5428C94.1334 58.5858 93.6816 58.6217 93.1653 58.6504C92.6633 58.6934 92.1399 58.7149 91.5949 58.7149C90.7487 58.7149 89.9886 58.6074 89.3145 58.3922C88.6405 58.1771 88.0596 57.8616 87.572 57.4457C87.0987 57.0154 86.733 56.4848 86.4749 55.8537C86.2167 55.2227 86.0876 54.4913 86.0876 53.6594V27.4355Z" fill="#0B0C0C"/>
<path d="M113.882 58.2847V56.3055C113.567 56.6497 113.215 56.9724 112.828 57.2736C112.455 57.5604 112.032 57.8114 111.559 58.0265C111.1 58.2416 110.591 58.4066 110.031 58.5213C109.486 58.6504 108.877 58.7149 108.203 58.7149C106.682 58.7149 105.291 58.4137 104.029 57.8114C102.767 57.209 101.684 56.3772 100.781 55.3159C99.8773 54.2546 99.1745 52.9926 98.6726 51.5297C98.1849 50.0668 97.9411 48.4821 97.9411 46.7754C97.9411 45.0687 98.1849 43.4839 98.6726 42.0211C99.1602 40.5582 99.8414 39.2961 100.716 38.2349C101.605 37.1592 102.674 36.3202 103.922 35.7179C105.169 35.1012 106.553 34.7928 108.074 34.7928C109.422 34.7928 110.562 35.0295 111.494 35.5027C112.441 35.9617 113.237 36.5353 113.882 37.2238V27.4355H119.82V58.2847H113.882ZM114.054 44.6241C114.054 44.0074 113.939 43.4337 113.71 42.9031C113.495 42.3725 113.179 41.9135 112.763 41.5263C112.347 41.1391 111.845 40.8379 111.257 40.6228C110.684 40.4076 110.031 40.3001 109.3 40.3001C108.454 40.3001 107.701 40.4578 107.041 40.7733C106.396 41.0889 105.851 41.5335 105.406 42.1071C104.961 42.6665 104.624 43.3334 104.395 44.1078C104.165 44.8823 104.051 45.7284 104.051 46.6463V46.926C104.051 47.8438 104.165 48.69 104.395 49.4645C104.624 50.2246 104.961 50.8843 105.406 51.4436C105.851 52.003 106.396 52.4404 107.041 52.7559C107.701 53.0571 108.454 53.2077 109.3 53.2077C110.031 53.2077 110.684 53.1001 111.257 52.885C111.845 52.6699 112.347 52.3687 112.763 51.9815C113.179 51.5942 113.495 51.1425 113.71 50.6262C113.939 50.0955 114.054 49.5218 114.054 48.9051V44.6241Z" fill="#0B0C0C"/>
<path d="M128.468 50.9273C129.142 50.9273 129.744 51.0564 130.275 51.3146C130.82 51.5727 131.279 51.9241 131.652 52.3687C132.039 52.8133 132.333 53.3368 132.534 53.9391C132.749 54.5271 132.856 55.1653 132.856 55.8537C132.856 56.6282 132.734 57.4313 132.49 58.2632C132.261 59.0806 131.859 59.8408 131.286 60.5435C130.726 61.2606 129.981 61.8773 129.048 62.3936C128.131 62.9099 126.983 63.2469 125.606 63.4047L124.853 61.1459L125.456 60.9738C126.202 60.7586 126.811 60.5148 127.284 60.2423C127.772 59.9698 128.159 59.683 128.446 59.3818C128.733 59.0806 128.941 58.7795 129.07 58.4783C129.213 58.1914 129.307 57.919 129.35 57.6608C129.192 57.8042 128.991 57.9118 128.747 57.9835C128.503 58.0409 128.245 58.0695 127.973 58.0695C127.514 58.0695 127.076 57.9978 126.661 57.8544C126.259 57.6967 125.9 57.4744 125.585 57.1875C125.284 56.9007 125.04 56.5421 124.853 56.1119C124.667 55.6816 124.574 55.1868 124.574 54.6275C124.574 54.1112 124.674 53.6308 124.875 53.1862C125.09 52.7272 125.377 52.3328 125.736 52.003C126.094 51.6731 126.51 51.415 126.983 51.2285C127.457 51.0277 127.951 50.9273 128.468 50.9273Z" fill="#0B0C0C"/>
<path d="M155.681 34.7928C157.388 34.7928 158.937 35.1012 160.328 35.7179C161.719 36.3202 162.909 37.1592 163.899 38.2349C164.889 39.3105 165.649 40.5797 166.179 42.0426C166.724 43.5055 166.997 45.0831 166.997 46.7754C166.997 48.4821 166.724 50.0668 166.179 51.5297C165.634 52.9782 164.867 54.2331 163.878 55.2944C162.888 56.3557 161.698 57.1947 160.306 57.8114C158.915 58.4137 157.373 58.7149 155.681 58.7149C153.974 58.7149 152.426 58.4137 151.034 57.8114C149.643 57.1947 148.453 56.3557 147.463 55.2944C146.474 54.2331 145.706 52.9782 145.161 51.5297C144.616 50.0668 144.344 48.4821 144.344 46.7754C144.344 45.0831 144.609 43.5055 145.14 42.0426C145.685 40.5797 146.452 39.3105 147.442 38.2349C148.431 37.1592 149.622 36.3202 151.013 35.7179C152.418 35.1012 153.974 34.7928 155.681 34.7928ZM155.681 53.2077C156.527 53.2077 157.273 53.0499 157.918 52.7344C158.578 52.4189 159.13 51.9815 159.575 51.4221C160.02 50.8628 160.357 50.1959 160.586 49.4214C160.816 48.6326 160.93 47.7721 160.93 46.8399V46.6893C160.93 45.7571 160.816 44.9038 160.586 44.1293C160.357 43.3405 160.02 42.6665 159.575 42.1071C159.13 41.5335 158.578 41.0889 157.918 40.7733C157.273 40.4578 156.527 40.3001 155.681 40.3001C154.835 40.3001 154.082 40.4578 153.422 40.7733C152.777 41.0889 152.232 41.5335 151.787 42.1071C151.343 42.6665 151.006 43.3405 150.776 44.1293C150.547 44.9038 150.432 45.7571 150.432 46.6893V46.8399C150.432 47.7721 150.547 48.6326 150.776 49.4214C151.006 50.1959 151.343 50.8628 151.787 51.4221C152.232 51.9815 152.777 52.4189 153.422 52.7344C154.082 53.0499 154.835 53.2077 155.681 53.2077Z" fill="#0B0C0C"/>
<path d="M175.817 58.2847L168.761 35.2446H175.387L179.517 51.0994L183.755 35.2446H190.274L183.26 58.2847H175.817Z" fill="#0B0C0C"/>
<path d="M198.19 48.8191C198.291 49.5075 198.506 50.1385 198.836 50.7122C199.18 51.2859 199.61 51.7807 200.126 52.1966C200.643 52.5982 201.238 52.9137 201.912 53.1431C202.586 53.3726 203.303 53.4873 204.063 53.4873C204.938 53.4873 205.885 53.3224 206.903 52.9926C207.921 52.6483 208.853 52.1536 209.7 51.5082L212.561 55.6816C211.485 56.5852 210.166 57.3166 208.602 57.8759C207.039 58.4353 205.375 58.7149 203.611 58.7149C202.019 58.7149 200.521 58.4424 199.115 57.8974C197.71 57.3525 196.476 56.5637 195.415 55.531C194.368 54.4984 193.536 53.2435 192.92 51.7663C192.317 50.2891 192.016 48.6255 192.016 46.7754C192.016 45.0831 192.281 43.5055 192.812 42.0426C193.357 40.5797 194.11 39.3105 195.071 38.2349C196.046 37.1592 197.208 36.3202 198.556 35.7179C199.904 35.1012 201.396 34.7928 203.031 34.7928C204.551 34.7928 205.963 35.0725 207.269 35.6318C208.574 36.1768 209.707 36.9513 210.668 37.9552C211.628 38.9448 212.381 40.1351 212.926 41.5263C213.471 42.9174 213.744 44.452 213.744 46.13V48.8191H198.19ZM203.009 39.9559C201.733 39.9559 200.65 40.3861 199.761 41.2466C198.886 42.0928 198.377 43.1182 198.233 44.3229H207.527C207.498 43.1039 207.053 42.0713 206.193 41.2251C205.332 40.3789 204.271 39.9559 203.009 39.9559Z" fill="#0B0C0C"/>
<path d="M230.481 41.01H229.857C229.011 41.01 228.2 41.096 227.426 41.2681C226.666 41.4402 225.992 41.7558 225.404 42.2147C224.816 42.6593 224.342 43.276 223.984 44.0648C223.64 44.8536 223.468 45.8647 223.468 47.0981V58.2847H217.53V35.2446H223.468V37.8476C223.711 37.4604 224.027 37.0875 224.414 36.729C224.801 36.3704 225.253 36.0549 225.769 35.7824C226.286 35.4956 226.867 35.2661 227.512 35.094C228.157 34.9219 228.853 34.8358 229.599 34.8358H230.481V41.01Z" fill="#0B0C0C"/>
<path d="M248.637 48.9267C247.906 49.0414 247.318 49.2995 246.873 49.7011C246.429 50.0883 246.207 50.619 246.207 51.293C246.207 52.0388 246.479 52.6842 247.024 53.2292C247.569 53.7598 248.372 54.0252 249.433 54.0252C250.552 54.0252 251.434 53.7025 252.079 53.0571C252.725 52.4117 253.048 51.5584 253.048 50.4971V48.1737L248.637 48.9267ZM254.016 56.1119C253.772 56.3844 253.471 56.6784 253.112 56.9939C252.768 57.2951 252.352 57.5748 251.864 57.8329C251.391 58.0767 250.832 58.2847 250.186 58.4568C249.541 58.6289 248.817 58.7149 248.014 58.7149C246.866 58.7149 245.805 58.5357 244.83 58.1771C243.869 57.8042 243.023 57.2879 242.291 56.6282C241.56 55.9685 240.986 55.2084 240.57 54.3478C240.154 53.473 239.946 52.5264 239.946 51.5082C239.946 49.6581 240.52 48.145 241.667 46.969C242.815 45.793 244.399 45.0544 246.422 44.7532L253.048 43.7851V43.3549C253.048 42.3223 252.732 41.5048 252.101 40.9024C251.47 40.3001 250.445 39.9989 249.025 39.9989C248.437 39.9989 247.842 40.0706 247.239 40.214C246.637 40.3431 246.056 40.4937 245.497 40.6658C244.952 40.8379 244.442 41.0387 243.969 41.2681C243.496 41.4833 243.08 41.6769 242.721 41.849L240.398 37.3098C241.718 36.5784 243.18 35.976 244.787 35.5027C246.407 35.0295 248.085 34.7928 249.821 34.7928C250.882 34.7928 251.95 34.9076 253.026 35.137C254.116 35.3522 255.098 35.7537 255.973 36.3417C256.862 36.9297 257.587 37.7329 258.146 38.7512C258.705 39.7551 258.985 41.0387 258.985 42.6019V52.0675C258.985 52.7416 259.157 53.2435 259.501 53.5734C259.86 53.8889 260.348 54.1829 260.964 54.4554L258.275 58.7149C257.185 58.6002 256.31 58.3205 255.651 57.8759C254.991 57.417 254.446 56.829 254.016 56.1119Z" fill="#0B0C0C"/>
<path d="M50.8714 102.343H44.9124V88.9402C44.9124 88.1228 44.8191 87.4344 44.6327 86.875C44.4606 86.3014 44.2168 85.8424 43.9013 85.4982C43.5857 85.1397 43.22 84.8887 42.8041 84.7453C42.3882 84.5875 41.9364 84.5086 41.4488 84.5086C40.8752 84.5086 40.3373 84.609 39.8354 84.8098C39.3478 85.0106 38.9175 85.3261 38.5446 85.7564C38.1861 86.1866 37.8992 86.7388 37.6841 87.4128C37.4833 88.0726 37.3829 88.8614 37.3829 89.7792V102.343H31.4454V79.3026H37.3829V81.3248C38.143 80.4786 39.0251 79.8547 40.029 79.4531C41.0473 79.0516 42.1372 78.8508 43.2989 78.8508C44.4893 78.8508 45.6008 79.0946 46.6334 79.5822C47.6803 80.0698 48.548 80.873 49.2364 81.9916C49.638 81.418 50.0969 80.9304 50.6132 80.5288C51.1439 80.1272 51.7104 79.8045 52.3127 79.5607C52.9151 79.3169 53.539 79.1376 54.1843 79.0229C54.8441 78.9082 55.5181 78.8508 56.2065 78.8508C57.4973 78.8508 58.6446 79.0659 59.6486 79.4962C60.6668 79.9121 61.5273 80.4786 62.2301 81.1957C62.9328 81.9128 63.4706 82.7374 63.8435 83.6696C64.2164 84.6018 64.4029 85.5843 64.4029 86.6169V102.343H58.4008V88.9402C58.4008 88.1228 58.3076 87.4344 58.1212 86.875C57.9491 86.3014 57.7052 85.8424 57.3897 85.4982C57.0742 85.1397 56.7013 84.8887 56.2711 84.7453C55.8551 84.5875 55.4034 84.5086 54.9158 84.5086C54.3421 84.5086 53.8114 84.609 53.3238 84.8098C52.8362 85.0106 52.4059 85.3261 52.0331 85.7564C51.6745 86.1866 51.3877 86.7388 51.1726 87.4128C50.9718 88.0726 50.8714 88.8614 50.8714 89.7792V102.343Z" fill="#0B0C0C"/>
<path d="M76.7942 92.9846C76.0627 93.0994 75.4747 93.3575 75.0301 93.7591C74.5855 94.1463 74.3632 94.677 74.3632 95.351C74.3632 96.0968 74.6357 96.7422 75.1807 97.2872C75.7257 97.8178 76.5288 98.0831 77.5901 98.0831C78.7088 98.0831 79.5908 97.7604 80.2362 97.1151C80.8816 96.4697 81.2043 95.6163 81.2043 94.555V92.2317L76.7942 92.9846ZM82.1723 100.17C81.9285 100.442 81.6273 100.736 81.2688 101.052C80.9246 101.353 80.5087 101.633 80.0211 101.891C79.5478 102.135 78.9885 102.343 78.3431 102.515C77.6977 102.687 76.9734 102.773 76.1703 102.773C75.0229 102.773 73.9617 102.594 72.9864 102.235C72.0255 101.862 71.1794 101.346 70.4479 100.686C69.7165 100.026 69.1428 99.2663 68.7269 98.4058C68.311 97.531 68.103 96.5844 68.103 95.5661C68.103 93.7161 68.6767 92.203 69.8241 91.027C70.9714 89.8509 72.5562 89.1123 74.5784 88.8112L81.2043 87.8431V87.4128C81.2043 86.3802 80.8887 85.5627 80.2577 84.9604C79.6267 84.358 78.6012 84.0569 77.1814 84.0569C76.5934 84.0569 75.9982 84.1286 75.3958 84.272C74.7935 84.4011 74.2126 84.5517 73.6533 84.7238C73.1083 84.8959 72.5992 85.0966 72.1259 85.3261C71.6526 85.5412 71.2367 85.7348 70.8782 85.907L68.5548 81.3678C69.8742 80.6363 71.3371 80.034 72.9434 79.5607C74.564 79.0874 76.242 78.8508 77.9774 78.8508C79.0387 78.8508 80.1071 78.9655 81.1827 79.195C82.2727 79.4101 83.2551 79.8117 84.13 80.3997C85.0192 80.9877 85.7434 81.7909 86.3028 82.8091C86.8621 83.8131 87.1418 85.0966 87.1418 86.6599V96.1255C87.1418 96.7995 87.3139 97.3015 87.6581 97.6314C88.0166 97.9469 88.5042 98.2409 89.1209 98.5134L86.4318 102.773C85.3419 102.658 84.467 102.378 83.8073 101.934C83.1476 101.475 82.6026 100.887 82.1723 100.17Z" fill="#0B0C0C"/>
<path d="M97.4463 90.274L90.4332 79.3026H97.2957L100.824 85.5197L104.524 79.3026H111.451L104.309 90.3171L112.247 102.343H105.234L100.695 95.2865L96.5643 102.343H89.6372L97.4463 90.274Z" fill="#0B0C0C"/>
<path d="M120.809 102.343H114.872V79.3026H120.809V102.343ZM114.248 73.2575C114.248 72.7699 114.341 72.3109 114.527 71.8807C114.714 71.4361 114.965 71.056 115.28 70.7405C115.61 70.4107 115.99 70.1525 116.421 69.9661C116.851 69.7796 117.317 69.6864 117.819 69.6864C118.306 69.6864 118.765 69.7796 119.196 69.9661C119.64 70.1525 120.02 70.4107 120.336 70.7405C120.666 71.056 120.924 71.4361 121.11 71.8807C121.297 72.3109 121.39 72.7699 121.39 73.2575C121.39 73.7595 121.297 74.2256 121.11 74.6558C120.924 75.0861 120.666 75.4661 120.336 75.796C120.02 76.1115 119.64 76.3625 119.196 76.5489C118.765 76.7354 118.306 76.8286 117.819 76.8286C117.317 76.8286 116.851 76.7354 116.421 76.5489C115.99 76.3625 115.61 76.1115 115.28 75.796C114.965 75.4661 114.714 75.0861 114.527 74.6558C114.341 74.2256 114.248 73.7595 114.248 73.2575Z" fill="#0B0C0C"/>
<path d="M145.355 102.343H139.396V88.9402C139.396 88.1228 139.303 87.4344 139.116 86.875C138.944 86.3014 138.7 85.8424 138.385 85.4982C138.069 85.1397 137.704 84.8887 137.288 84.7453C136.872 84.5875 136.42 84.5086 135.933 84.5086C135.359 84.5086 134.821 84.609 134.319 84.8098C133.831 85.0106 133.401 85.3261 133.028 85.7564C132.67 86.1866 132.383 86.7388 132.168 87.4128C131.967 88.0726 131.867 88.8614 131.867 89.7792V102.343H125.929V79.3026H131.867V81.3248C132.627 80.4786 133.509 79.8547 134.513 79.4531C135.531 79.0516 136.621 78.8508 137.783 78.8508C138.973 78.8508 140.084 79.0946 141.117 79.5822C142.164 80.0698 143.032 80.873 143.72 81.9916C144.122 81.418 144.581 80.9304 145.097 80.5288C145.628 80.1272 146.194 79.8045 146.796 79.5607C147.399 79.3169 148.023 79.1376 148.668 79.0229C149.328 78.9082 150.002 78.8508 150.69 78.8508C151.981 78.8508 153.128 79.0659 154.132 79.4962C155.151 79.9121 156.011 80.4786 156.714 81.1957C157.417 81.9128 157.954 82.7374 158.327 83.6696C158.7 84.6018 158.887 85.5843 158.887 86.6169V102.343H152.885V88.9402C152.885 88.1228 152.791 87.4344 152.605 86.875C152.433 86.3014 152.189 85.8424 151.873 85.4982C151.558 85.1397 151.185 84.8887 150.755 84.7453C150.339 84.5875 149.887 84.5086 149.399 84.5086C148.826 84.5086 148.295 84.609 147.808 84.8098C147.32 85.0106 146.89 85.3261 146.517 85.7564C146.158 86.1866 145.871 86.7388 145.656 87.4128C145.455 88.0726 145.355 88.8614 145.355 89.7792V102.343Z" fill="#0B0C0C"/>
<path d="M183.433 102.343H177.495V100.363C177.165 100.679 176.807 100.987 176.419 101.289C176.032 101.575 175.602 101.834 175.129 102.063C174.655 102.278 174.125 102.45 173.537 102.579C172.963 102.708 172.325 102.773 171.622 102.773C170.374 102.773 169.256 102.572 168.266 102.171C167.277 101.755 166.438 101.195 165.749 100.493C165.075 99.7755 164.559 98.9365 164.2 97.9756C163.842 97.0147 163.662 95.9749 163.662 94.8562V79.3026H169.6V92.6834C169.6 93.5009 169.686 94.1965 169.858 94.7702C170.044 95.3438 170.295 95.81 170.611 96.1685C170.941 96.5127 171.328 96.7709 171.773 96.943C172.217 97.1007 172.698 97.1796 173.214 97.1796C173.816 97.1796 174.376 97.072 174.892 96.8569C175.423 96.6418 175.882 96.3191 176.269 95.8888C176.656 95.4442 176.957 94.8921 177.172 94.2324C177.387 93.5726 177.495 92.7982 177.495 91.909V79.3026H183.433V102.343Z" fill="#0B0C0C"/>
<path d="M208 102.343H202.041V88.9402C202.041 88.1228 201.948 87.4344 201.761 86.875C201.589 86.3014 201.345 85.8424 201.03 85.4982C200.714 85.1397 200.349 84.8887 199.933 84.7453C199.517 84.5875 199.065 84.5086 198.577 84.5086C198.004 84.5086 197.466 84.609 196.964 84.8098C196.476 85.0106 196.046 85.3261 195.673 85.7564C195.315 86.1866 195.028 86.7388 194.813 87.4128C194.612 88.0726 194.512 88.8614 194.512 89.7792V102.343H188.574V79.3026H194.512V81.3248C195.272 80.4786 196.154 79.8547 197.158 79.4531C198.176 79.0516 199.266 78.8508 200.428 78.8508C201.618 78.8508 202.729 79.0946 203.762 79.5822C204.809 80.0698 205.677 80.873 206.365 81.9916C206.767 81.418 207.226 80.9304 207.742 80.5288C208.273 80.1272 208.839 79.8045 209.441 79.5607C210.044 79.3169 210.668 79.1376 211.313 79.0229C211.973 78.9082 212.647 78.8508 213.335 78.8508C214.626 78.8508 215.773 79.0659 216.777 79.4962C217.795 79.9121 218.656 80.4786 219.359 81.1957C220.061 81.9128 220.599 82.7374 220.972 83.6696C221.345 84.6018 221.531 85.5843 221.531 86.6169V102.343H215.529V88.9402C215.529 88.1228 215.436 87.4344 215.25 86.875C215.078 86.3014 214.834 85.8424 214.518 85.4982C214.203 85.1397 213.83 84.8887 213.4 84.7453C212.984 84.5875 212.532 84.5086 212.044 84.5086C211.471 84.5086 210.94 84.609 210.452 84.8098C209.965 85.0106 209.535 85.3261 209.162 85.7564C208.803 86.1866 208.516 86.7388 208.301 87.4128C208.1 88.0726 208 88.8614 208 89.7792V102.343Z" fill="#0B0C0C"/>
<path d="M234.159 88.3379L235.88 71.4935H255.672V77.1513H241.13L240.506 82.8737C240.85 82.5868 241.251 82.3287 241.71 82.0992C242.169 81.8697 242.664 81.6761 243.195 81.5184C243.725 81.3606 244.263 81.2387 244.808 81.1526C245.368 81.0666 245.92 81.0236 246.465 81.0236C248.014 81.0236 249.448 81.2746 250.767 81.7765C252.087 82.2785 253.227 82.9884 254.188 83.9063C255.149 84.8241 255.902 85.9285 256.447 87.2192C256.992 88.51 257.264 89.937 257.264 91.5002C257.264 93.2069 256.949 94.7558 256.317 96.147C255.701 97.5238 254.84 98.707 253.736 99.6966C252.646 100.672 251.355 101.432 249.864 101.977C248.386 102.508 246.795 102.773 245.088 102.773C243.711 102.773 242.384 102.594 241.108 102.235C239.846 101.877 238.691 101.36 237.644 100.686C236.598 100.012 235.687 99.1803 234.912 98.1907C234.152 97.2011 233.593 96.0753 233.234 94.8132L239.15 92.8771C239.595 94.2108 240.291 95.2578 241.237 96.0179C242.184 96.7637 243.439 97.1366 245.002 97.1366C245.934 97.1366 246.759 96.9788 247.476 96.6633C248.193 96.3478 248.788 95.939 249.261 95.4371C249.749 94.9208 250.115 94.3399 250.358 93.6945C250.617 93.0348 250.746 92.3608 250.746 91.6723C250.746 90.9983 250.617 90.3457 250.358 89.7147C250.1 89.0693 249.72 88.5028 249.218 88.0152C248.731 87.5132 248.128 87.1117 247.411 86.8105C246.708 86.5093 245.905 86.3587 245.002 86.3587C244.442 86.3587 243.912 86.4376 243.41 86.5954C242.908 86.7388 242.449 86.9324 242.033 87.1762C241.617 87.4057 241.259 87.6782 240.957 87.9937C240.656 88.2949 240.42 88.596 240.248 88.8972L234.159 88.3379Z" fill="#0B0C0C"/>
<path d="M31.3594 114.392H37.2969V138.981C37.2969 139.469 37.4331 139.842 37.7056 140.1C37.9925 140.358 38.4442 140.487 39.0609 140.487C39.3478 140.487 39.5916 140.473 39.7923 140.444C40.0075 140.401 40.28 140.343 40.6098 140.272L41.0831 145.327C40.6815 145.385 40.2513 145.442 39.7923 145.499C39.4051 145.542 38.9534 145.578 38.437 145.607C37.9351 145.65 37.4116 145.671 36.8666 145.671C36.0205 145.671 35.2603 145.564 34.5863 145.349C33.9122 145.134 33.3314 144.818 32.8438 144.402C32.3705 143.972 32.0048 143.441 31.7466 142.81C31.4885 142.179 31.3594 141.448 31.3594 140.616V114.392Z" fill="#0B0C0C"/>
<path d="M50.2905 145.241H44.353V122.201H50.2905V145.241ZM43.7292 116.156C43.7292 115.668 43.8224 115.209 44.0088 114.779C44.1953 114.335 44.4463 113.955 44.7618 113.639C45.0916 113.309 45.4717 113.051 45.9019 112.865C46.3322 112.678 46.7983 112.585 47.3003 112.585C47.7879 112.585 48.2468 112.678 48.6771 112.865C49.1217 113.051 49.5017 113.309 49.8173 113.639C50.1471 113.955 50.4053 114.335 50.5917 114.779C50.7782 115.209 50.8714 115.668 50.8714 116.156C50.8714 116.658 50.7782 117.124 50.5917 117.554C50.4053 117.985 50.1471 118.365 49.8173 118.695C49.5017 119.01 49.1217 119.261 48.6771 119.447C48.2468 119.634 47.7879 119.727 47.3003 119.727C46.7983 119.727 46.3322 119.634 45.9019 119.447C45.4717 119.261 45.0916 119.01 44.7618 118.695C44.4463 118.365 44.1953 117.985 44.0088 117.554C43.8224 117.124 43.7292 116.658 43.7292 116.156Z" fill="#0B0C0C"/>
<path d="M55.4106 122.201H61.3481V124.18C61.6636 123.865 62.0149 123.564 62.4022 123.277C62.8037 122.976 63.2412 122.717 63.7144 122.502C64.1877 122.273 64.7112 122.094 65.2849 121.964C65.8729 121.821 66.5183 121.749 67.221 121.749C68.4688 121.749 69.5874 121.957 70.577 122.373C71.5666 122.775 72.3984 123.334 73.0725 124.051C73.7609 124.768 74.2843 125.607 74.6429 126.568C75.0014 127.529 75.1807 128.569 75.1807 129.688V145.241H69.2432V131.839C69.2432 131.021 69.15 130.333 68.9635 129.774C68.7771 129.2 68.5189 128.741 68.1891 128.397C67.8736 128.038 67.4935 127.78 67.0489 127.622C66.6187 127.45 66.1454 127.364 65.6291 127.364C65.0267 127.364 64.4602 127.472 63.9296 127.687C63.4133 127.902 62.9615 128.232 62.5743 128.676C62.187 129.107 61.8859 129.652 61.6707 130.311C61.4556 130.971 61.3481 131.746 61.3481 132.635V145.241H55.4106V122.201Z" fill="#0B0C0C"/>
<path d="M85.1196 135.776C85.22 136.464 85.4351 137.095 85.7649 137.669C86.1092 138.242 86.5394 138.737 87.0557 139.153C87.572 139.555 88.1672 139.87 88.8413 140.1C89.5153 140.329 90.2324 140.444 90.9925 140.444C91.8674 140.444 92.8139 140.279 93.8322 139.949C94.8505 139.605 95.7827 139.11 96.6289 138.465L99.49 142.638C98.4144 143.542 97.095 144.273 95.5317 144.832C93.9685 145.392 92.3048 145.671 90.5408 145.671C88.9488 145.671 87.4501 145.399 86.0446 144.854C84.6391 144.309 83.4057 143.52 82.3444 142.488C81.2975 141.455 80.4657 140.2 79.849 138.723C79.2466 137.246 78.9454 135.582 78.9454 133.732C78.9454 132.04 79.2108 130.462 79.7414 128.999C80.2864 127.536 81.0393 126.267 82.0002 125.191C82.9755 124.116 84.1372 123.277 85.4853 122.674C86.8334 122.058 88.325 121.749 89.9599 121.749C91.4802 121.749 92.8928 122.029 94.1979 122.588C95.503 123.133 96.636 123.908 97.5969 124.912C98.5578 125.901 99.3108 127.092 99.8558 128.483C100.401 129.874 100.673 131.409 100.673 133.087V135.776H85.1196ZM89.9384 126.912C88.662 126.912 87.5792 127.343 86.69 128.203C85.8151 129.049 85.306 130.075 85.1626 131.279H94.4561C94.4274 130.06 93.9828 129.028 93.1223 128.182C92.2618 127.335 91.2005 126.912 89.9384 126.912Z" fill="#0B0C0C"/>
<path d="M106.094 137.884C106.941 138.644 107.952 139.297 109.128 139.842C110.304 140.386 111.494 140.659 112.699 140.659C113.574 140.659 114.262 140.494 114.764 140.164C115.266 139.82 115.517 139.383 115.517 138.852C115.517 137.948 114.549 137.246 112.613 136.744L110.935 136.292C110.103 136.091 109.264 135.819 108.418 135.474C107.572 135.116 106.79 134.65 106.073 134.076C105.37 133.502 104.797 132.807 104.352 131.989C103.922 131.158 103.707 130.139 103.707 128.935C103.707 127.974 103.914 127.063 104.33 126.202C104.761 125.328 105.363 124.56 106.137 123.901C106.926 123.241 107.88 122.717 108.999 122.33C110.117 121.943 111.365 121.749 112.742 121.749C114.707 121.749 116.456 122.058 117.991 122.674C119.54 123.291 120.759 123.987 121.648 124.761L118.55 128.719C117.819 128.189 116.951 127.737 115.947 127.364C114.958 126.977 113.961 126.783 112.957 126.783C112.025 126.783 111.301 126.955 110.784 127.3C110.268 127.629 110.01 128.031 110.01 128.504C110.01 129.006 110.232 129.415 110.677 129.731C111.136 130.032 111.795 130.297 112.656 130.527L115.151 131.236C117.532 131.91 119.239 132.821 120.271 133.969C121.304 135.116 121.82 136.564 121.82 138.314C121.82 139.289 121.619 140.222 121.218 141.111C120.816 141.986 120.228 142.767 119.454 143.456C118.679 144.144 117.718 144.689 116.571 145.091C115.424 145.478 114.119 145.671 112.656 145.671C111.537 145.671 110.483 145.571 109.493 145.37C108.518 145.169 107.607 144.897 106.761 144.553C105.93 144.194 105.177 143.793 104.502 143.348C103.828 142.903 103.255 142.459 102.781 142.014L106.094 137.884Z" fill="#0B0C0C"/>
</svg>
