<svg width="208" height="208" viewBox="0 0 208 208" fill="none" xmlns="http://www.w3.org/2000/svg">
<g clip-path="url(#clip0_1334_18681)">
<g clip-path="url(#clip1_1334_18681)">
<rect width="207.375" height="207.375" fill="white"/>
</g>
<path d="M14.6201 2.39258C15.7334 2.39258 16.7663 2.55957 17.7188 2.89355C18.6712 3.21517 19.5 3.67904 20.2051 4.28516C20.9102 4.89128 21.4606 5.62728 21.8564 6.49316C22.2523 7.34668 22.4502 8.29915 22.4502 9.35059C22.4502 9.89486 22.3698 10.4329 22.209 10.9648C22.0605 11.4967 21.8379 11.9977 21.541 12.4678C21.2441 12.9255 20.8854 13.346 20.4648 13.7295C20.0443 14.113 19.568 14.4284 19.0361 14.6758C19.4691 14.8242 19.9701 15.0469 20.5391 15.3438C21.1204 15.6406 21.6709 16.0488 22.1904 16.5684C22.71 17.0879 23.1491 17.7311 23.5078 18.498C23.8665 19.2526 24.0459 20.168 24.0459 21.2441C24.0459 22.5924 23.7861 23.7552 23.2666 24.7324C22.7594 25.7096 22.0667 26.5137 21.1885 27.1445C20.3226 27.7754 19.3021 28.2454 18.127 28.5547C16.9642 28.8516 15.7334 29 14.4346 29H2.78223V2.39258H14.6201ZM18.5352 21.0586C18.5352 20.3411 18.4053 19.7536 18.1455 19.2959C17.8857 18.8382 17.5394 18.4733 17.1064 18.2012C16.6859 17.929 16.2035 17.7435 15.6592 17.6445C15.1149 17.5332 14.5583 17.4775 13.9893 17.4775H8.16309V24.751H13.9893C14.5583 24.751 15.1149 24.6953 15.6592 24.584C16.2035 24.4727 16.6859 24.2747 17.1064 23.9902C17.5394 23.7057 17.8857 23.3285 18.1455 22.8584C18.4053 22.3883 18.5352 21.7884 18.5352 21.0586ZM17.0322 9.88867C17.0322 8.87435 16.7106 8.08268 16.0674 7.51367C15.4242 6.94466 14.3851 6.66016 12.9502 6.66016H8.16309V12.9316H12.9502C14.3604 12.9316 15.3932 12.6657 16.0488 12.1338C16.7044 11.5895 17.0322 10.8411 17.0322 9.88867Z" fill="#0B0C0C"/>
<path d="M36.2549 8.73828C37.7269 8.73828 39.0628 9.00423 40.2627 9.53613C41.4626 10.0557 42.4893 10.7793 43.3428 11.707C44.1963 12.6348 44.8519 13.7295 45.3096 14.9912C45.7796 16.2529 46.0146 17.6136 46.0146 19.0732C46.0146 20.5452 45.7796 21.9121 45.3096 23.1738C44.8395 24.4232 44.1777 25.5055 43.3242 26.4209C42.4707 27.3363 41.444 28.0599 40.2441 28.5918C39.0443 29.1113 37.7145 29.3711 36.2549 29.3711C34.7829 29.3711 33.4469 29.1113 32.2471 28.5918C31.0472 28.0599 30.0205 27.3363 29.167 26.4209C28.3135 25.5055 27.6517 24.4232 27.1816 23.1738C26.7116 21.9121 26.4766 20.5452 26.4766 19.0732C26.4766 17.6136 26.7054 16.2529 27.1631 14.9912C27.6331 13.7295 28.2949 12.6348 29.1484 11.707C30.002 10.7793 31.0286 10.0557 32.2285 9.53613C33.4408 9.00423 34.7829 8.73828 36.2549 8.73828ZM36.2549 24.6211C36.9847 24.6211 37.6279 24.485 38.1846 24.2129C38.7536 23.9408 39.2298 23.5635 39.6133 23.0811C39.9967 22.5986 40.2874 22.0234 40.4854 21.3555C40.6833 20.6751 40.7822 19.9329 40.7822 19.1289V18.999C40.7822 18.195 40.6833 17.459 40.4854 16.791C40.2874 16.1107 39.9967 15.5293 39.6133 15.0469C39.2298 14.5521 38.7536 14.1686 38.1846 13.8965C37.6279 13.6243 36.9847 13.4883 36.2549 13.4883C35.5251 13.4883 34.8757 13.6243 34.3066 13.8965C33.75 14.1686 33.2799 14.5521 32.8965 15.0469C32.513 15.5293 32.2223 16.1107 32.0244 16.791C31.8265 17.459 31.7275 18.195 31.7275 18.999V19.1289C31.7275 19.9329 31.8265 20.6751 32.0244 21.3555C32.2223 22.0234 32.513 22.5986 32.8965 23.0811C33.2799 23.5635 33.75 23.9408 34.3066 24.2129C34.8757 24.485 35.5251 24.6211 36.2549 24.6211Z" fill="#0B0C0C"/>
<path d="M49.3359 2.39258H54.457V23.6006C54.457 24.0212 54.5745 24.3428 54.8096 24.5654C55.057 24.7881 55.4466 24.8994 55.9785 24.8994C56.2259 24.8994 56.4362 24.887 56.6094 24.8623C56.7949 24.8252 57.0299 24.7757 57.3145 24.7139L57.7227 29.0742C57.3763 29.1237 57.0052 29.1732 56.6094 29.2227C56.2754 29.2598 55.8857 29.2907 55.4404 29.3154C55.0075 29.3525 54.556 29.3711 54.0859 29.3711C53.3561 29.3711 52.7005 29.2783 52.1191 29.0928C51.5378 28.9072 51.0368 28.6351 50.6162 28.2764C50.208 27.9053 49.8926 27.4476 49.6699 26.9033C49.4473 26.359 49.3359 25.7282 49.3359 25.0107V2.39258Z" fill="#0B0C0C"/>
<path d="M73.3086 29V27.293C73.0365 27.5898 72.7334 27.8682 72.3994 28.1279C72.0778 28.3753 71.7129 28.5918 71.3047 28.7773C70.9089 28.9629 70.4697 29.1051 69.9873 29.2041C69.5173 29.3154 68.9915 29.3711 68.4102 29.3711C67.099 29.3711 65.8991 29.1113 64.8105 28.5918C63.722 28.0723 62.7881 27.3548 62.0088 26.4395C61.2295 25.5241 60.6234 24.4355 60.1904 23.1738C59.7699 21.9121 59.5596 20.5452 59.5596 19.0732C59.5596 17.6012 59.7699 16.2344 60.1904 14.9727C60.611 13.7109 61.1986 12.6224 61.9531 11.707C62.7201 10.7793 63.6416 10.0557 64.7178 9.53613C65.7939 9.00423 66.9876 8.73828 68.2988 8.73828C69.4616 8.73828 70.445 8.94238 71.249 9.35059C72.0654 9.74642 72.752 10.2412 73.3086 10.835V2.39258H78.4297V29H73.3086ZM73.457 17.2178C73.457 16.6859 73.3581 16.1911 73.1602 15.7334C72.9746 15.2757 72.7025 14.8799 72.3438 14.5459C71.985 14.2119 71.5521 13.9521 71.0449 13.7666C70.5501 13.5811 69.9873 13.4883 69.3564 13.4883C68.6266 13.4883 67.9772 13.6243 67.4082 13.8965C66.8516 14.1686 66.3815 14.5521 65.998 15.0469C65.6146 15.5293 65.3239 16.1045 65.126 16.7725C64.9281 17.4404 64.8291 18.1702 64.8291 18.9619V19.2031C64.8291 19.9948 64.9281 20.7246 65.126 21.3926C65.3239 22.0482 65.6146 22.6172 65.998 23.0996C66.3815 23.582 66.8516 23.9593 67.4082 24.2314C67.9772 24.4912 68.6266 24.6211 69.3564 24.6211C69.9873 24.6211 70.5501 24.5283 71.0449 24.3428C71.5521 24.1572 71.985 23.8975 72.3438 23.5635C72.7025 23.2295 72.9746 22.8398 73.1602 22.3945C73.3581 21.9368 73.457 21.4421 73.457 20.9102V17.2178Z" fill="#0B0C0C"/>
<path d="M85.8887 22.6543C86.4701 22.6543 86.9896 22.7656 87.4473 22.9883C87.9173 23.2109 88.3132 23.514 88.6348 23.8975C88.9688 24.2809 89.2223 24.7324 89.3955 25.252C89.5811 25.7591 89.6738 26.3096 89.6738 26.9033C89.6738 27.5713 89.5687 28.264 89.3584 28.9814C89.1605 29.6865 88.8141 30.3421 88.3193 30.9482C87.8369 31.5667 87.1937 32.0986 86.3896 32.5439C85.598 32.9893 84.6084 33.2799 83.4209 33.416L82.7715 31.4678L83.291 31.3193C83.9342 31.1338 84.46 30.9235 84.8682 30.6885C85.2887 30.4535 85.6227 30.2061 85.8701 29.9463C86.1175 29.6865 86.2969 29.4268 86.4082 29.167C86.5319 28.9196 86.6123 28.6846 86.6494 28.4619C86.5133 28.5856 86.3402 28.6784 86.1299 28.7402C85.9196 28.7897 85.6969 28.8145 85.4619 28.8145C85.0661 28.8145 84.6888 28.7526 84.3301 28.6289C83.9837 28.4928 83.6745 28.3011 83.4023 28.0537C83.1426 27.8063 82.9323 27.4971 82.7715 27.126C82.6107 26.7549 82.5303 26.3281 82.5303 25.8457C82.5303 25.4004 82.6169 24.986 82.79 24.6025C82.9756 24.2067 83.223 23.8665 83.5322 23.582C83.8415 23.2975 84.2002 23.0749 84.6084 22.9141C85.0166 22.7409 85.4434 22.6543 85.8887 22.6543Z" fill="#0B0C0C"/>
<path d="M109.36 8.73828C110.832 8.73828 112.168 9.00423 113.368 9.53613C114.568 10.0557 115.595 10.7793 116.448 11.707C117.302 12.6348 117.957 13.7295 118.415 14.9912C118.885 16.2529 119.12 17.6136 119.12 19.0732C119.12 20.5452 118.885 21.9121 118.415 23.1738C117.945 24.4232 117.283 25.5055 116.43 26.4209C115.576 27.3363 114.549 28.0599 113.35 28.5918C112.15 29.1113 110.82 29.3711 109.36 29.3711C107.888 29.3711 106.552 29.1113 105.353 28.5918C104.153 28.0599 103.126 27.3363 102.272 26.4209C101.419 25.5055 100.757 24.4232 100.287 23.1738C99.8171 21.9121 99.582 20.5452 99.582 19.0732C99.582 17.6136 99.8109 16.2529 100.269 14.9912C100.739 13.7295 101.4 12.6348 102.254 11.707C103.107 10.7793 104.134 10.0557 105.334 9.53613C106.546 9.00423 107.888 8.73828 109.36 8.73828ZM109.36 24.6211C110.09 24.6211 110.733 24.485 111.29 24.2129C111.859 23.9408 112.335 23.5635 112.719 23.0811C113.102 22.5986 113.393 22.0234 113.591 21.3555C113.789 20.6751 113.888 19.9329 113.888 19.1289V18.999C113.888 18.195 113.789 17.459 113.591 16.791C113.393 16.1107 113.102 15.5293 112.719 15.0469C112.335 14.5521 111.859 14.1686 111.29 13.8965C110.733 13.6243 110.09 13.4883 109.36 13.4883C108.631 13.4883 107.981 13.6243 107.412 13.8965C106.855 14.1686 106.385 14.5521 106.002 15.0469C105.618 15.5293 105.328 16.1107 105.13 16.791C104.932 17.459 104.833 18.195 104.833 18.999V19.1289C104.833 19.9329 104.932 20.6751 105.13 21.3555C105.328 22.0234 105.618 22.5986 106.002 23.0811C106.385 23.5635 106.855 23.9408 107.412 24.2129C107.981 24.485 108.631 24.6211 109.36 24.6211Z" fill="#0B0C0C"/>
<path d="M126.728 29L120.642 9.12793H126.356L129.919 22.8027L133.574 9.12793H139.196L133.147 29H126.728Z" fill="#0B0C0C"/>
<path d="M146.024 20.8359C146.111 21.4297 146.297 21.974 146.581 22.4688C146.878 22.9635 147.249 23.3903 147.694 23.749C148.14 24.0954 148.653 24.3675 149.234 24.5654C149.816 24.7633 150.434 24.8623 151.09 24.8623C151.844 24.8623 152.661 24.7201 153.539 24.4355C154.417 24.1387 155.221 23.7119 155.951 23.1553L158.419 26.7549C157.491 27.5342 156.353 28.165 155.005 28.6475C153.657 29.1299 152.222 29.3711 150.7 29.3711C149.327 29.3711 148.035 29.1361 146.822 28.666C145.61 28.196 144.546 27.5156 143.631 26.625C142.728 25.7344 142.01 24.652 141.479 23.3779C140.959 22.1038 140.699 20.6689 140.699 19.0732C140.699 17.6136 140.928 16.2529 141.386 14.9912C141.856 13.7295 142.505 12.6348 143.334 11.707C144.175 10.7793 145.177 10.0557 146.34 9.53613C147.503 9.00423 148.789 8.73828 150.199 8.73828C151.51 8.73828 152.729 8.97949 153.854 9.46191C154.98 9.93197 155.957 10.5999 156.786 11.4658C157.615 12.3193 158.264 13.346 158.734 14.5459C159.204 15.7458 159.439 17.0693 159.439 18.5166V20.8359H146.024ZM150.181 13.1914C149.08 13.1914 148.146 13.5625 147.379 14.3047C146.624 15.0345 146.185 15.9189 146.062 16.958H154.077C154.052 15.9066 153.669 15.016 152.927 14.2861C152.185 13.5563 151.269 13.1914 150.181 13.1914Z" fill="#0B0C0C"/>
<path d="M173.875 14.1006H173.337C172.607 14.1006 171.908 14.1748 171.24 14.3232C170.585 14.4717 170.003 14.7438 169.496 15.1396C168.989 15.5231 168.581 16.055 168.271 16.7354C167.975 17.4157 167.826 18.2878 167.826 19.3516V29H162.705V9.12793H167.826V11.373C168.036 11.0391 168.309 10.7174 168.643 10.4082C168.977 10.099 169.366 9.82682 169.812 9.5918C170.257 9.3444 170.758 9.14648 171.314 8.99805C171.871 8.84961 172.471 8.77539 173.114 8.77539H173.875V14.1006Z" fill="#0B0C0C"/>
<path d="M189.535 20.9287C188.904 21.0277 188.397 21.2503 188.014 21.5967C187.63 21.9307 187.438 22.3883 187.438 22.9697C187.438 23.613 187.674 24.1696 188.144 24.6396C188.614 25.0973 189.306 25.3262 190.222 25.3262C191.187 25.3262 191.947 25.0479 192.504 24.4912C193.061 23.9346 193.339 23.1986 193.339 22.2832V20.2793L189.535 20.9287ZM194.174 27.126C193.964 27.361 193.704 27.6146 193.395 27.8867C193.098 28.1465 192.739 28.3877 192.318 28.6104C191.91 28.8206 191.428 29 190.871 29.1484C190.314 29.2969 189.69 29.3711 188.997 29.3711C188.007 29.3711 187.092 29.2165 186.251 28.9072C185.422 28.5856 184.692 28.1403 184.062 27.5713C183.431 27.0023 182.936 26.3467 182.577 25.6045C182.218 24.8499 182.039 24.0335 182.039 23.1553C182.039 21.5596 182.534 20.2546 183.523 19.2402C184.513 18.2259 185.88 17.5889 187.624 17.3291L193.339 16.4941V16.123C193.339 15.2324 193.067 14.5273 192.522 14.0078C191.978 13.4883 191.094 13.2285 189.869 13.2285C189.362 13.2285 188.849 13.2904 188.329 13.4141C187.81 13.5254 187.309 13.6553 186.826 13.8037C186.356 13.9521 185.917 14.1253 185.509 14.3232C185.101 14.5088 184.742 14.6758 184.433 14.8242L182.429 10.9092C183.567 10.2783 184.828 9.75879 186.214 9.35059C187.612 8.94238 189.059 8.73828 190.556 8.73828C191.471 8.73828 192.393 8.83724 193.32 9.03516C194.26 9.2207 195.108 9.56706 195.862 10.0742C196.629 10.5814 197.254 11.2741 197.736 12.1523C198.219 13.0182 198.46 14.1253 198.46 15.4736V23.6377C198.46 24.2191 198.608 24.652 198.905 24.9365C199.215 25.2087 199.635 25.4622 200.167 25.6973L197.848 29.3711C196.908 29.2721 196.153 29.0309 195.584 28.6475C195.015 28.2516 194.545 27.7445 194.174 27.126Z" fill="#0B0C0C"/>
<path d="M18.9619 67H13.8223V55.4404C13.8223 54.7354 13.7419 54.1416 13.5811 53.6592C13.4326 53.1644 13.2223 52.7686 12.9502 52.4717C12.6781 52.1624 12.3626 51.946 12.0039 51.8223C11.6452 51.6862 11.2555 51.6182 10.835 51.6182C10.3402 51.6182 9.8763 51.7048 9.44336 51.8779C9.02279 52.0511 8.65169 52.3232 8.33008 52.6943C8.02083 53.0654 7.77344 53.5417 7.58789 54.123C7.41471 54.6921 7.32812 55.3724 7.32812 56.1641V67H2.20703V47.1279H7.32812V48.8721C7.98372 48.1423 8.74447 47.6042 9.61035 47.2578C10.4886 46.9115 11.4287 46.7383 12.4307 46.7383C13.4574 46.7383 14.416 46.9486 15.3066 47.3691C16.2096 47.7897 16.958 48.4824 17.5518 49.4473C17.8981 48.9525 18.2939 48.5319 18.7393 48.1855C19.1969 47.8392 19.6855 47.5609 20.2051 47.3506C20.7246 47.1403 21.2627 46.9857 21.8193 46.8867C22.3883 46.7878 22.9697 46.7383 23.5635 46.7383C24.6768 46.7383 25.6663 46.9238 26.5322 47.2949C27.4105 47.6536 28.1527 48.1423 28.7588 48.7607C29.3649 49.3792 29.8288 50.0905 30.1504 50.8945C30.472 51.6986 30.6328 52.5459 30.6328 53.4365V67H25.4561V55.4404C25.4561 54.7354 25.3757 54.1416 25.2148 53.6592C25.0664 53.1644 24.8561 52.7686 24.584 52.4717C24.3118 52.1624 23.9902 51.946 23.6191 51.8223C23.2604 51.6862 22.8708 51.6182 22.4502 51.6182C21.9554 51.6182 21.4977 51.7048 21.0771 51.8779C20.6566 52.0511 20.2855 52.3232 19.9639 52.6943C19.6546 53.0654 19.4072 53.5417 19.2217 54.123C19.0485 54.6921 18.9619 55.3724 18.9619 56.1641V67Z" fill="#0B0C0C"/>
<path d="M41.3203 58.9287C40.6895 59.0277 40.1823 59.2503 39.7988 59.5967C39.4154 59.9307 39.2236 60.3883 39.2236 60.9697C39.2236 61.613 39.4587 62.1696 39.9287 62.6396C40.3988 63.0973 41.0915 63.3262 42.0068 63.3262C42.9717 63.3262 43.7324 63.0479 44.2891 62.4912C44.8457 61.9346 45.124 61.1986 45.124 60.2832V58.2793L41.3203 58.9287ZM45.959 65.126C45.7487 65.361 45.4889 65.6146 45.1797 65.8867C44.8828 66.1465 44.5241 66.3877 44.1035 66.6104C43.6953 66.8206 43.2129 67 42.6562 67.1484C42.0996 67.2969 41.4749 67.3711 40.7822 67.3711C39.7926 67.3711 38.8773 67.2165 38.0361 66.9072C37.2074 66.5856 36.4775 66.1403 35.8467 65.5713C35.2158 65.0023 34.721 64.3467 34.3623 63.6045C34.0036 62.8499 33.8242 62.0335 33.8242 61.1553C33.8242 59.5596 34.319 58.2546 35.3086 57.2402C36.2982 56.2259 37.665 55.5889 39.4092 55.3291L45.124 54.4941V54.123C45.124 53.2324 44.8519 52.5273 44.3076 52.0078C43.7633 51.4883 42.8789 51.2285 41.6543 51.2285C41.1471 51.2285 40.6338 51.2904 40.1143 51.4141C39.5947 51.5254 39.0938 51.6553 38.6113 51.8037C38.1413 51.9521 37.7021 52.1253 37.2939 52.3232C36.8857 52.5088 36.527 52.6758 36.2178 52.8242L34.2139 48.9092C35.3519 48.2783 36.6136 47.7588 37.999 47.3506C39.3968 46.9424 40.8441 46.7383 42.3408 46.7383C43.2562 46.7383 44.1777 46.8372 45.1055 47.0352C46.0456 47.2207 46.8929 47.5671 47.6475 48.0742C48.4144 48.5814 49.0391 49.2741 49.5215 50.1523C50.0039 51.0182 50.2451 52.1253 50.2451 53.4736V61.6377C50.2451 62.2191 50.3936 62.652 50.6904 62.9365C50.9997 63.2087 51.4202 63.4622 51.9521 63.6973L49.6328 67.3711C48.6927 67.2721 47.9382 67.0309 47.3691 66.6475C46.8001 66.2516 46.3301 65.7445 45.959 65.126Z" fill="#0B0C0C"/>
<path d="M59.1328 56.5908L53.084 47.1279H59.0029L62.0459 52.4902L65.2373 47.1279H71.2119L65.0518 56.6279L71.8984 67H65.8496L61.9346 60.9141L58.3721 67H52.3975L59.1328 56.5908Z" fill="#0B0C0C"/>
<path d="M79.2832 67H74.1621V47.1279H79.2832V67ZM73.624 41.9141C73.624 41.4935 73.7044 41.0977 73.8652 40.7266C74.026 40.3431 74.2425 40.0153 74.5146 39.7432C74.7992 39.4587 75.127 39.236 75.498 39.0752C75.8691 38.9144 76.2712 38.834 76.7041 38.834C77.1247 38.834 77.5205 38.9144 77.8916 39.0752C78.2751 39.236 78.6029 39.4587 78.875 39.7432C79.1595 40.0153 79.3822 40.3431 79.543 40.7266C79.7038 41.0977 79.7842 41.4935 79.7842 41.9141C79.7842 42.347 79.7038 42.749 79.543 43.1201C79.3822 43.4912 79.1595 43.819 78.875 44.1035C78.6029 44.3757 78.2751 44.5921 77.8916 44.7529C77.5205 44.9137 77.1247 44.9941 76.7041 44.9941C76.2712 44.9941 75.8691 44.9137 75.498 44.7529C75.127 44.5921 74.7992 44.3757 74.5146 44.1035C74.2425 43.819 74.026 43.4912 73.8652 43.1201C73.7044 42.749 73.624 42.347 73.624 41.9141Z" fill="#0B0C0C"/>
<path d="M100.454 67H95.3145V55.4404C95.3145 54.7354 95.234 54.1416 95.0732 53.6592C94.9248 53.1644 94.7145 52.7686 94.4424 52.4717C94.1702 52.1624 93.8548 51.946 93.4961 51.8223C93.1374 51.6862 92.7477 51.6182 92.3271 51.6182C91.8324 51.6182 91.3685 51.7048 90.9355 51.8779C90.515 52.0511 90.1439 52.3232 89.8223 52.6943C89.513 53.0654 89.2656 53.5417 89.0801 54.123C88.9069 54.6921 88.8203 55.3724 88.8203 56.1641V67H83.6992V47.1279H88.8203V48.8721C89.4759 48.1423 90.2367 47.6042 91.1025 47.2578C91.9808 46.9115 92.9209 46.7383 93.9229 46.7383C94.9495 46.7383 95.9082 46.9486 96.7988 47.3691C97.7018 47.7897 98.4502 48.4824 99.0439 49.4473C99.3903 48.9525 99.7861 48.5319 100.231 48.1855C100.689 47.8392 101.178 47.5609 101.697 47.3506C102.217 47.1403 102.755 46.9857 103.312 46.8867C103.881 46.7878 104.462 46.7383 105.056 46.7383C106.169 46.7383 107.159 46.9238 108.024 47.2949C108.903 47.6536 109.645 48.1423 110.251 48.7607C110.857 49.3792 111.321 50.0905 111.643 50.8945C111.964 51.6986 112.125 52.5459 112.125 53.4365V67H106.948V55.4404C106.948 54.7354 106.868 54.1416 106.707 53.6592C106.559 53.1644 106.348 52.7686 106.076 52.4717C105.804 52.1624 105.482 51.946 105.111 51.8223C104.753 51.6862 104.363 51.6182 103.942 51.6182C103.448 51.6182 102.99 51.7048 102.569 51.8779C102.149 52.0511 101.778 52.3232 101.456 52.6943C101.147 53.0654 100.899 53.5417 100.714 54.123C100.541 54.6921 100.454 55.3724 100.454 56.1641V67Z" fill="#0B0C0C"/>
<path d="M133.296 67H128.175V65.293C127.89 65.5651 127.581 65.8311 127.247 66.0908C126.913 66.3382 126.542 66.5609 126.134 66.7588C125.726 66.9443 125.268 67.0928 124.761 67.2041C124.266 67.3154 123.715 67.3711 123.109 67.3711C122.033 67.3711 121.068 67.1979 120.215 66.8516C119.361 66.4928 118.638 66.0104 118.044 65.4043C117.463 64.7858 117.017 64.0622 116.708 63.2334C116.399 62.4046 116.244 61.5078 116.244 60.543V47.1279H121.365V58.6689C121.365 59.374 121.439 59.974 121.588 60.4688C121.749 60.9635 121.965 61.3656 122.237 61.6748C122.522 61.9717 122.856 62.1943 123.239 62.3428C123.623 62.4788 124.037 62.5469 124.482 62.5469C125.002 62.5469 125.484 62.4541 125.93 62.2686C126.387 62.083 126.783 61.8047 127.117 61.4336C127.451 61.0501 127.711 60.5739 127.896 60.0049C128.082 59.4359 128.175 58.7679 128.175 58.001V47.1279H133.296V67Z" fill="#0B0C0C"/>
<path d="M154.485 67H149.346V55.4404C149.346 54.7354 149.265 54.1416 149.104 53.6592C148.956 53.1644 148.746 52.7686 148.474 52.4717C148.201 52.1624 147.886 51.946 147.527 51.8223C147.169 51.6862 146.779 51.6182 146.358 51.6182C145.864 51.6182 145.4 51.7048 144.967 51.8779C144.546 52.0511 144.175 52.3232 143.854 52.6943C143.544 53.0654 143.297 53.5417 143.111 54.123C142.938 54.6921 142.852 55.3724 142.852 56.1641V67H137.73V47.1279H142.852V48.8721C143.507 48.1423 144.268 47.6042 145.134 47.2578C146.012 46.9115 146.952 46.7383 147.954 46.7383C148.981 46.7383 149.939 46.9486 150.83 47.3691C151.733 47.7897 152.481 48.4824 153.075 49.4473C153.422 48.9525 153.817 48.5319 154.263 48.1855C154.72 47.8392 155.209 47.5609 155.729 47.3506C156.248 47.1403 156.786 46.9857 157.343 46.8867C157.912 46.7878 158.493 46.7383 159.087 46.7383C160.2 46.7383 161.19 46.9238 162.056 47.2949C162.934 47.6536 163.676 48.1423 164.282 48.7607C164.888 49.3792 165.352 50.0905 165.674 50.8945C165.995 51.6986 166.156 52.5459 166.156 53.4365V67H160.979V55.4404C160.979 54.7354 160.899 54.1416 160.738 53.6592C160.59 53.1644 160.38 52.7686 160.107 52.4717C159.835 52.1624 159.514 51.946 159.143 51.8223C158.784 51.6862 158.394 51.6182 157.974 51.6182C157.479 51.6182 157.021 51.7048 156.601 51.8779C156.18 52.0511 155.809 52.3232 155.487 52.6943C155.178 53.0654 154.931 53.5417 154.745 54.123C154.572 54.6921 154.485 55.3724 154.485 56.1641V67Z" fill="#0B0C0C"/>
<path d="M177.048 54.9209L178.532 40.3926H195.603V45.2725H183.06L182.521 50.208C182.818 49.9606 183.165 49.738 183.561 49.54C183.956 49.3421 184.383 49.1751 184.841 49.0391C185.299 48.903 185.762 48.7979 186.232 48.7236C186.715 48.6494 187.191 48.6123 187.661 48.6123C188.997 48.6123 190.234 48.8288 191.372 49.2617C192.51 49.6947 193.493 50.307 194.322 51.0986C195.151 51.8903 195.8 52.8428 196.271 53.9561C196.741 55.0693 196.976 56.3001 196.976 57.6484C196.976 59.1204 196.703 60.4564 196.159 61.6562C195.627 62.8438 194.885 63.8643 193.933 64.7178C192.993 65.5589 191.879 66.2145 190.593 66.6846C189.319 67.1423 187.946 67.3711 186.474 67.3711C185.286 67.3711 184.142 67.2165 183.041 66.9072C181.952 66.598 180.957 66.1527 180.054 65.5713C179.151 64.9899 178.365 64.2725 177.697 63.4189C177.042 62.5654 176.559 61.5944 176.25 60.5059L181.353 58.8359C181.736 59.9863 182.336 60.8893 183.152 61.5449C183.969 62.1882 185.051 62.5098 186.399 62.5098C187.203 62.5098 187.915 62.3737 188.533 62.1016C189.152 61.8294 189.665 61.4769 190.073 61.0439C190.494 60.5986 190.809 60.0977 191.02 59.541C191.242 58.972 191.354 58.3906 191.354 57.7969C191.354 57.2155 191.242 56.6527 191.02 56.1084C190.797 55.5518 190.469 55.0632 190.036 54.6426C189.616 54.2096 189.096 53.8633 188.478 53.6035C187.871 53.3438 187.179 53.2139 186.399 53.2139C185.917 53.2139 185.459 53.2819 185.026 53.418C184.593 53.5417 184.198 53.7087 183.839 53.9189C183.48 54.1169 183.171 54.3519 182.911 54.624C182.651 54.8838 182.447 55.1436 182.299 55.4033L177.048 54.9209Z" fill="#0B0C0C"/>
<path d="M2.13281 77.3926H7.25391V98.6006C7.25391 99.0212 7.37142 99.3428 7.60645 99.5654C7.85384 99.7881 8.24349 99.8994 8.77539 99.8994C9.02279 99.8994 9.23307 99.887 9.40625 99.8623C9.5918 99.8252 9.82682 99.7757 10.1113 99.7139L10.5195 104.074C10.1732 104.124 9.80208 104.173 9.40625 104.223C9.07227 104.26 8.68262 104.291 8.2373 104.315C7.80436 104.353 7.35286 104.371 6.88281 104.371C6.15299 104.371 5.4974 104.278 4.91602 104.093C4.33464 103.907 3.83366 103.635 3.41309 103.276C3.00488 102.905 2.68945 102.448 2.4668 101.903C2.24414 101.359 2.13281 100.728 2.13281 100.011V77.3926Z" fill="#0B0C0C"/>
<path d="M18.4609 104H13.3398V84.1279H18.4609V104ZM12.8018 78.9141C12.8018 78.4935 12.8822 78.0977 13.043 77.7266C13.2038 77.3431 13.4202 77.0153 13.6924 76.7432C13.9769 76.4587 14.3047 76.236 14.6758 76.0752C15.0469 75.9144 15.4489 75.834 15.8818 75.834C16.3024 75.834 16.6982 75.9144 17.0693 76.0752C17.4528 76.236 17.7806 76.4587 18.0527 76.7432C18.3372 77.0153 18.5599 77.3431 18.7207 77.7266C18.8815 78.0977 18.9619 78.4935 18.9619 78.9141C18.9619 79.347 18.8815 79.749 18.7207 80.1201C18.5599 80.4912 18.3372 80.819 18.0527 81.1035C17.7806 81.3757 17.4528 81.5921 17.0693 81.7529C16.6982 81.9137 16.3024 81.9941 15.8818 81.9941C15.4489 81.9941 15.0469 81.9137 14.6758 81.7529C14.3047 81.5921 13.9769 81.3757 13.6924 81.1035C13.4202 80.819 13.2038 80.4912 13.043 80.1201C12.8822 79.749 12.8018 79.347 12.8018 78.9141Z" fill="#0B0C0C"/>
<path d="M22.877 84.1279H27.998V85.835C28.2702 85.5628 28.5732 85.3031 28.9072 85.0557C29.2536 84.7959 29.6309 84.5732 30.0391 84.3877C30.4473 84.1898 30.8988 84.0352 31.3936 83.9238C31.9007 83.8001 32.4574 83.7383 33.0635 83.7383C34.1396 83.7383 35.1045 83.9176 35.958 84.2764C36.8115 84.6227 37.529 85.1051 38.1104 85.7236C38.7041 86.3421 39.1556 87.0658 39.4648 87.8945C39.7741 88.7233 39.9287 89.6201 39.9287 90.585V104H34.8076V92.4404C34.8076 91.7354 34.7272 91.1416 34.5664 90.6592C34.4056 90.1644 34.1829 89.7686 33.8984 89.4717C33.6263 89.1624 33.2985 88.9398 32.915 88.8037C32.5439 88.6553 32.1357 88.5811 31.6904 88.5811C31.1709 88.5811 30.6823 88.6738 30.2246 88.8594C29.7793 89.0449 29.3896 89.3294 29.0557 89.7129C28.7217 90.084 28.4619 90.554 28.2764 91.123C28.0908 91.6921 27.998 92.36 27.998 93.127V104H22.877V84.1279Z" fill="#0B0C0C"/>
<path d="M48.501 95.8359C48.5876 96.4297 48.7731 96.974 49.0576 97.4688C49.3545 97.9635 49.7256 98.3903 50.1709 98.749C50.6162 99.0954 51.1296 99.3675 51.7109 99.5654C52.2923 99.7633 52.9108 99.8623 53.5664 99.8623C54.321 99.8623 55.1374 99.7201 56.0156 99.4355C56.8939 99.1387 57.6979 98.7119 58.4277 98.1553L60.8955 101.755C59.9678 102.534 58.8298 103.165 57.4814 103.647C56.1331 104.13 54.6982 104.371 53.1768 104.371C51.8037 104.371 50.5111 104.136 49.2988 103.666C48.0866 103.196 47.0228 102.516 46.1074 101.625C45.2044 100.734 44.487 99.652 43.9551 98.3779C43.4355 97.1038 43.1758 95.6689 43.1758 94.0732C43.1758 92.6136 43.4046 91.2529 43.8623 89.9912C44.3324 88.7295 44.9818 87.6348 45.8105 86.707C46.6517 85.7793 47.6536 85.0557 48.8164 84.5361C49.9792 84.0042 51.2656 83.7383 52.6758 83.7383C53.987 83.7383 55.2054 83.9795 56.3311 84.4619C57.4567 84.932 58.4339 85.5999 59.2627 86.4658C60.0915 87.3193 60.7409 88.346 61.2109 89.5459C61.681 90.7458 61.916 92.0693 61.916 93.5166V95.8359H48.501ZM52.6572 88.1914C51.5563 88.1914 50.6224 88.5625 49.8555 89.3047C49.1009 90.0345 48.6618 90.9189 48.5381 91.958H56.5537C56.529 90.9066 56.1455 90.016 55.4033 89.2861C54.6611 88.5563 53.7458 88.1914 52.6572 88.1914Z" fill="#0B0C0C"/>
<path d="M66.5918 97.6543C67.3216 98.3099 68.1937 98.8727 69.208 99.3428C70.2223 99.8128 71.249 100.048 72.2881 100.048C73.0426 100.048 73.6364 99.9056 74.0693 99.6211C74.5023 99.3242 74.7188 98.9469 74.7188 98.4893C74.7188 97.71 73.8838 97.1038 72.2139 96.6709L70.7666 96.2812C70.0492 96.1081 69.3255 95.873 68.5957 95.5762C67.8659 95.2669 67.1917 94.8649 66.5732 94.3701C65.9671 93.8753 65.4723 93.2754 65.0889 92.5703C64.7178 91.8529 64.5322 90.9746 64.5322 89.9355C64.5322 89.1068 64.7116 88.3213 65.0703 87.5791C65.4414 86.8245 65.9609 86.1628 66.6289 85.5938C67.3092 85.0247 68.1318 84.5732 69.0967 84.2393C70.0615 83.9053 71.1377 83.7383 72.3252 83.7383C74.0199 83.7383 75.529 84.0042 76.8525 84.5361C78.1885 85.068 79.2399 85.668 80.0068 86.3359L77.335 89.75C76.7041 89.2923 75.9557 88.9027 75.0898 88.5811C74.2363 88.2471 73.3766 88.0801 72.5107 88.0801C71.7067 88.0801 71.082 88.2285 70.6367 88.5254C70.1914 88.8099 69.9688 89.1562 69.9688 89.5645C69.9688 89.9974 70.1605 90.3499 70.5439 90.6221C70.9398 90.8818 71.5088 91.1107 72.251 91.3086L74.4033 91.9209C76.4567 92.5023 77.9287 93.2878 78.8193 94.2773C79.71 95.2669 80.1553 96.5163 80.1553 98.0254C80.1553 98.8665 79.9821 99.6706 79.6357 100.438C79.2894 101.192 78.7822 101.866 78.1143 102.46C77.4463 103.054 76.6175 103.524 75.6279 103.87C74.6383 104.204 73.5127 104.371 72.251 104.371C71.2861 104.371 70.377 104.285 69.5234 104.111C68.6823 103.938 67.8968 103.703 67.167 103.406C66.4495 103.097 65.8001 102.751 65.2188 102.367C64.6374 101.984 64.1426 101.6 63.7344 101.217L66.5918 97.6543Z" fill="#0B0C0C"/>
</g>
<defs>
<clipPath id="clip0_1334_18681">
<rect width="207.375" height="207.375" fill="white"/>
</clipPath>
<clipPath id="clip1_1334_18681">
<rect width="207.375" height="207.375" fill="white"/>
</clipPath>
</defs>
</svg>
