<svg width="208" height="112" viewBox="0 0 208 112" fill="none" xmlns="http://www.w3.org/2000/svg">
<rect width="207" height="112" transform="translate(0.1875)" fill="white"/>
<path d="M14.6748 5C15.7881 5 16.821 5.16699 17.7734 5.50098C18.7259 5.82259 19.5547 6.28646 20.2598 6.89258C20.9648 7.4987 21.5153 8.2347 21.9111 9.10059C22.307 9.9541 22.5049 10.9066 22.5049 11.958C22.5049 12.5023 22.4245 13.0404 22.2637 13.5723C22.1152 14.1042 21.8926 14.6051 21.5957 15.0752C21.2988 15.5329 20.9401 15.9535 20.5195 16.3369C20.099 16.7204 19.6227 17.0358 19.0908 17.2832C19.5238 17.4316 20.0247 17.6543 20.5938 17.9512C21.1751 18.248 21.7256 18.6562 22.2451 19.1758C22.7646 19.6953 23.2038 20.3385 23.5625 21.1055C23.9212 21.86 24.1006 22.7754 24.1006 23.8516C24.1006 25.1999 23.8408 26.3626 23.3213 27.3398C22.8141 28.3171 22.1214 29.1211 21.2432 29.752C20.3773 30.3828 19.3568 30.8529 18.1816 31.1621C17.0189 31.459 15.7881 31.6074 14.4893 31.6074H2.83691V5H14.6748ZM18.5898 23.666C18.5898 22.9486 18.46 22.361 18.2002 21.9033C17.9404 21.4456 17.5941 21.0807 17.1611 20.8086C16.7406 20.5365 16.2581 20.3509 15.7139 20.252C15.1696 20.1406 14.613 20.085 14.0439 20.085H8.21777V27.3584H14.0439C14.613 27.3584 15.1696 27.3027 15.7139 27.1914C16.2581 27.0801 16.7406 26.8822 17.1611 26.5977C17.5941 26.3132 17.9404 25.9359 18.2002 25.4658C18.46 24.9958 18.5898 24.3958 18.5898 23.666ZM17.0869 12.4961C17.0869 11.4818 16.7653 10.6901 16.1221 10.1211C15.4788 9.55208 14.4398 9.26758 13.0049 9.26758H8.21777V15.5391H13.0049C14.415 15.5391 15.4479 15.2731 16.1035 14.7412C16.7591 14.1969 17.0869 13.4486 17.0869 12.4961Z" fill="#0B0C0C"/>
<path d="M36.3096 11.3457C37.7816 11.3457 39.1175 11.6117 40.3174 12.1436C41.5173 12.6631 42.5439 13.3867 43.3975 14.3145C44.251 15.2422 44.9066 16.3369 45.3643 17.5986C45.8343 18.8604 46.0693 20.221 46.0693 21.6807C46.0693 23.1527 45.8343 24.5195 45.3643 25.7812C44.8942 27.0306 44.2324 28.113 43.3789 29.0283C42.5254 29.9437 41.4987 30.6673 40.2988 31.1992C39.099 31.7188 37.7692 31.9785 36.3096 31.9785C34.8376 31.9785 33.5016 31.7188 32.3018 31.1992C31.1019 30.6673 30.0752 29.9437 29.2217 29.0283C28.3682 28.113 27.7064 27.0306 27.2363 25.7812C26.7663 24.5195 26.5312 23.1527 26.5312 21.6807C26.5312 20.221 26.7601 18.8604 27.2178 17.5986C27.6878 16.3369 28.3496 15.2422 29.2031 14.3145C30.0566 13.3867 31.0833 12.6631 32.2832 12.1436C33.4954 11.6117 34.8376 11.3457 36.3096 11.3457ZM36.3096 27.2285C37.0394 27.2285 37.6826 27.0924 38.2393 26.8203C38.8083 26.5482 39.2845 26.1709 39.668 25.6885C40.0514 25.2061 40.3421 24.6309 40.54 23.9629C40.738 23.2826 40.8369 22.5404 40.8369 21.7363V21.6064C40.8369 20.8024 40.738 20.0664 40.54 19.3984C40.3421 18.7181 40.0514 18.1367 39.668 17.6543C39.2845 17.1595 38.8083 16.776 38.2393 16.5039C37.6826 16.2318 37.0394 16.0957 36.3096 16.0957C35.5798 16.0957 34.9303 16.2318 34.3613 16.5039C33.8047 16.776 33.3346 17.1595 32.9512 17.6543C32.5677 18.1367 32.277 18.7181 32.0791 19.3984C31.8812 20.0664 31.7822 20.8024 31.7822 21.6064V21.7363C31.7822 22.5404 31.8812 23.2826 32.0791 23.9629C32.277 24.6309 32.5677 25.2061 32.9512 25.6885C33.3346 26.1709 33.8047 26.5482 34.3613 26.8203C34.9303 27.0924 35.5798 27.2285 36.3096 27.2285Z" fill="#0B0C0C"/>
<path d="M49.3906 5H54.5117V26.208C54.5117 26.6286 54.6292 26.9502 54.8643 27.1729C55.1117 27.3955 55.5013 27.5068 56.0332 27.5068C56.2806 27.5068 56.4909 27.4945 56.6641 27.4697C56.8496 27.4326 57.0846 27.3831 57.3691 27.3213L57.7773 31.6816C57.431 31.7311 57.0599 31.7806 56.6641 31.8301C56.3301 31.8672 55.9404 31.8981 55.4951 31.9229C55.0622 31.96 54.6107 31.9785 54.1406 31.9785C53.4108 31.9785 52.7552 31.8857 52.1738 31.7002C51.5924 31.5146 51.0915 31.2425 50.6709 30.8838C50.2627 30.5127 49.9473 30.055 49.7246 29.5107C49.502 28.9665 49.3906 28.3356 49.3906 27.6182V5Z" fill="#0B0C0C"/>
<path d="M73.3633 31.6074V29.9004C73.0911 30.1973 72.7881 30.4756 72.4541 30.7354C72.1325 30.9827 71.7676 31.1992 71.3594 31.3848C70.9635 31.5703 70.5244 31.7126 70.042 31.8115C69.5719 31.9229 69.0462 31.9785 68.4648 31.9785C67.1536 31.9785 65.9538 31.7188 64.8652 31.1992C63.7767 30.6797 62.8428 29.9622 62.0635 29.0469C61.2842 28.1315 60.6781 27.043 60.2451 25.7812C59.8245 24.5195 59.6143 23.1527 59.6143 21.6807C59.6143 20.2087 59.8245 18.8418 60.2451 17.5801C60.6657 16.3184 61.2533 15.2298 62.0078 14.3145C62.7747 13.3867 63.6963 12.6631 64.7725 12.1436C65.8486 11.6117 67.0423 11.3457 68.3535 11.3457C69.5163 11.3457 70.4997 11.5498 71.3037 11.958C72.1201 12.3538 72.8066 12.8486 73.3633 13.4424V5H78.4844V31.6074H73.3633ZM73.5117 19.8252C73.5117 19.2933 73.4128 18.7985 73.2148 18.3408C73.0293 17.8831 72.7572 17.4873 72.3984 17.1533C72.0397 16.8193 71.6068 16.5596 71.0996 16.374C70.6048 16.1885 70.042 16.0957 69.4111 16.0957C68.6813 16.0957 68.0319 16.2318 67.4629 16.5039C66.9062 16.776 66.4362 17.1595 66.0527 17.6543C65.6693 18.1367 65.3786 18.7119 65.1807 19.3799C64.9827 20.0479 64.8838 20.7777 64.8838 21.5693V21.8105C64.8838 22.6022 64.9827 23.332 65.1807 24C65.3786 24.6556 65.6693 25.2246 66.0527 25.707C66.4362 26.1895 66.9062 26.5667 67.4629 26.8389C68.0319 27.0986 68.6813 27.2285 69.4111 27.2285C70.042 27.2285 70.6048 27.1357 71.0996 26.9502C71.6068 26.7646 72.0397 26.5049 72.3984 26.1709C72.7572 25.8369 73.0293 25.4473 73.2148 25.002C73.4128 24.5443 73.5117 24.0495 73.5117 23.5176V19.8252Z" fill="#0B0C0C"/>
<path d="M85.9434 25.2617C86.5247 25.2617 87.0443 25.373 87.502 25.5957C87.972 25.8184 88.3678 26.1214 88.6895 26.5049C89.0234 26.8883 89.277 27.3398 89.4502 27.8594C89.6357 28.3665 89.7285 28.917 89.7285 29.5107C89.7285 30.1787 89.6234 30.8714 89.4131 31.5889C89.2152 32.2939 88.8688 32.9495 88.374 33.5557C87.8916 34.1742 87.2484 34.7061 86.4443 35.1514C85.6527 35.5967 84.6631 35.8874 83.4756 36.0234L82.8262 34.0752L83.3457 33.9268C83.9889 33.7412 84.5146 33.5309 84.9229 33.2959C85.3434 33.0609 85.6774 32.8135 85.9248 32.5537C86.1722 32.2939 86.3516 32.0342 86.4629 31.7744C86.5866 31.527 86.667 31.292 86.7041 31.0693C86.568 31.193 86.3949 31.2858 86.1846 31.3477C85.9743 31.3971 85.7516 31.4219 85.5166 31.4219C85.1208 31.4219 84.7435 31.36 84.3848 31.2363C84.0384 31.1003 83.7292 30.9085 83.457 30.6611C83.1973 30.4137 82.987 30.1045 82.8262 29.7334C82.6654 29.3623 82.585 28.9355 82.585 28.4531C82.585 28.0078 82.6715 27.5934 82.8447 27.21C83.0303 26.8141 83.2777 26.474 83.5869 26.1895C83.8962 25.9049 84.2549 25.6823 84.6631 25.5215C85.0713 25.3483 85.498 25.2617 85.9434 25.2617Z" fill="#0B0C0C"/>
<path d="M109.415 11.3457C110.887 11.3457 112.223 11.6117 113.423 12.1436C114.623 12.6631 115.649 13.3867 116.503 14.3145C117.356 15.2422 118.012 16.3369 118.47 17.5986C118.94 18.8604 119.175 20.221 119.175 21.6807C119.175 23.1527 118.94 24.5195 118.47 25.7812C118 27.0306 117.338 28.113 116.484 29.0283C115.631 29.9437 114.604 30.6673 113.404 31.1992C112.204 31.7188 110.875 31.9785 109.415 31.9785C107.943 31.9785 106.607 31.7188 105.407 31.1992C104.207 30.6673 103.181 29.9437 102.327 29.0283C101.474 28.113 100.812 27.0306 100.342 25.7812C99.8717 24.5195 99.6367 23.1527 99.6367 21.6807C99.6367 20.221 99.8656 18.8604 100.323 17.5986C100.793 16.3369 101.455 15.2422 102.309 14.3145C103.162 13.3867 104.189 12.6631 105.389 12.1436C106.601 11.6117 107.943 11.3457 109.415 11.3457ZM109.415 27.2285C110.145 27.2285 110.788 27.0924 111.345 26.8203C111.914 26.5482 112.39 26.1709 112.773 25.6885C113.157 25.2061 113.448 24.6309 113.646 23.9629C113.843 23.2826 113.942 22.5404 113.942 21.7363V21.6064C113.942 20.8024 113.843 20.0664 113.646 19.3984C113.448 18.7181 113.157 18.1367 112.773 17.6543C112.39 17.1595 111.914 16.776 111.345 16.5039C110.788 16.2318 110.145 16.0957 109.415 16.0957C108.685 16.0957 108.036 16.2318 107.467 16.5039C106.91 16.776 106.44 17.1595 106.057 17.6543C105.673 18.1367 105.382 18.7181 105.185 19.3984C104.987 20.0664 104.888 20.8024 104.888 21.6064V21.7363C104.888 22.5404 104.987 23.2826 105.185 23.9629C105.382 24.6309 105.673 25.2061 106.057 25.6885C106.44 26.1709 106.91 26.5482 107.467 26.8203C108.036 27.0924 108.685 27.2285 109.415 27.2285Z" fill="#0B0C0C"/>
<path d="M126.782 31.6074L120.696 11.7354H126.411L129.974 25.4102L133.629 11.7354H139.251L133.202 31.6074H126.782Z" fill="#0B0C0C"/>
<path d="M146.079 23.4434C146.166 24.0371 146.351 24.5814 146.636 25.0762C146.933 25.571 147.304 25.9977 147.749 26.3564C148.194 26.7028 148.708 26.9749 149.289 27.1729C149.87 27.3708 150.489 27.4697 151.145 27.4697C151.899 27.4697 152.715 27.3275 153.594 27.043C154.472 26.7461 155.276 26.3193 156.006 25.7627L158.474 29.3623C157.546 30.1416 156.408 30.7725 155.06 31.2549C153.711 31.7373 152.276 31.9785 150.755 31.9785C149.382 31.9785 148.089 31.7435 146.877 31.2734C145.665 30.8034 144.601 30.123 143.686 29.2324C142.783 28.3418 142.065 27.2594 141.533 25.9854C141.014 24.7113 140.754 23.2764 140.754 21.6807C140.754 20.221 140.983 18.8604 141.44 17.5986C141.91 16.3369 142.56 15.2422 143.389 14.3145C144.23 13.3867 145.232 12.6631 146.395 12.1436C147.557 11.6117 148.844 11.3457 150.254 11.3457C151.565 11.3457 152.784 11.5869 153.909 12.0693C155.035 12.5394 156.012 13.2074 156.841 14.0732C157.67 14.9268 158.319 15.9535 158.789 17.1533C159.259 18.3532 159.494 19.6768 159.494 21.124V23.4434H146.079ZM150.235 15.7988C149.134 15.7988 148.201 16.1699 147.434 16.9121C146.679 17.6419 146.24 18.5264 146.116 19.5654H154.132C154.107 18.514 153.724 17.6234 152.981 16.8936C152.239 16.1637 151.324 15.7988 150.235 15.7988Z" fill="#0B0C0C"/>
<path d="M173.93 16.708H173.392C172.662 16.708 171.963 16.7822 171.295 16.9307C170.639 17.0791 170.058 17.3512 169.551 17.7471C169.044 18.1305 168.635 18.6624 168.326 19.3428C168.029 20.0231 167.881 20.8952 167.881 21.959V31.6074H162.76V11.7354H167.881V13.9805C168.091 13.6465 168.363 13.3249 168.697 13.0156C169.031 12.7064 169.421 12.4342 169.866 12.1992C170.312 11.9518 170.812 11.7539 171.369 11.6055C171.926 11.457 172.526 11.3828 173.169 11.3828H173.93V16.708Z" fill="#0B0C0C"/>
<path d="M189.59 23.5361C188.959 23.6351 188.452 23.8577 188.068 24.2041C187.685 24.5381 187.493 24.9958 187.493 25.5771C187.493 26.2204 187.728 26.777 188.198 27.2471C188.668 27.7048 189.361 27.9336 190.276 27.9336C191.241 27.9336 192.002 27.6553 192.559 27.0986C193.115 26.542 193.394 25.806 193.394 24.8906V22.8867L189.59 23.5361ZM194.229 29.7334C194.018 29.9684 193.758 30.222 193.449 30.4941C193.152 30.7539 192.794 30.9951 192.373 31.2178C191.965 31.4281 191.482 31.6074 190.926 31.7559C190.369 31.9043 189.744 31.9785 189.052 31.9785C188.062 31.9785 187.147 31.8239 186.306 31.5146C185.477 31.193 184.747 30.7477 184.116 30.1787C183.485 29.6097 182.991 28.9541 182.632 28.2119C182.273 27.4574 182.094 26.641 182.094 25.7627C182.094 24.167 182.589 22.862 183.578 21.8477C184.568 20.8333 185.935 20.1963 187.679 19.9365L193.394 19.1016V18.7305C193.394 17.8398 193.121 17.1348 192.577 16.6152C192.033 16.0957 191.148 15.8359 189.924 15.8359C189.417 15.8359 188.903 15.8978 188.384 16.0215C187.864 16.1328 187.363 16.2627 186.881 16.4111C186.411 16.5596 185.972 16.7327 185.563 16.9307C185.155 17.1162 184.797 17.2832 184.487 17.4316L182.483 13.5166C183.621 12.8857 184.883 12.3662 186.269 11.958C187.666 11.5498 189.114 11.3457 190.61 11.3457C191.526 11.3457 192.447 11.4447 193.375 11.6426C194.315 11.8281 195.162 12.1745 195.917 12.6816C196.684 13.1888 197.309 13.8815 197.791 14.7598C198.273 15.6257 198.515 16.7327 198.515 18.0811V26.2451C198.515 26.8265 198.663 27.2594 198.96 27.5439C199.269 27.8161 199.69 28.0697 200.222 28.3047L197.902 31.9785C196.962 31.8796 196.208 31.6383 195.639 31.2549C195.07 30.859 194.6 30.3519 194.229 29.7334Z" fill="#0B0C0C"/>
<path d="M19.0166 69.6074H13.877V58.0479C13.877 57.3428 13.7965 56.749 13.6357 56.2666C13.4873 55.7718 13.277 55.376 13.0049 55.0791C12.7327 54.7699 12.4173 54.5534 12.0586 54.4297C11.6999 54.2936 11.3102 54.2256 10.8896 54.2256C10.3949 54.2256 9.93099 54.3122 9.49805 54.4854C9.07747 54.6585 8.70638 54.9307 8.38477 55.3018C8.07552 55.6729 7.82812 56.1491 7.64258 56.7305C7.4694 57.2995 7.38281 57.9798 7.38281 58.7715V69.6074H2.26172V49.7354H7.38281V51.4795C8.03841 50.7497 8.79915 50.2116 9.66504 49.8652C10.5433 49.5189 11.4834 49.3457 12.4854 49.3457C13.512 49.3457 14.4707 49.556 15.3613 49.9766C16.2643 50.3971 17.0127 51.0898 17.6064 52.0547C17.9528 51.5599 18.3486 51.1393 18.7939 50.793C19.2516 50.4466 19.7402 50.1683 20.2598 49.958C20.7793 49.7477 21.3174 49.5931 21.874 49.4941C22.443 49.3952 23.0244 49.3457 23.6182 49.3457C24.7314 49.3457 25.721 49.5312 26.5869 49.9023C27.4652 50.2611 28.2074 50.7497 28.8135 51.3682C29.4196 51.9867 29.8835 52.6979 30.2051 53.502C30.5267 54.306 30.6875 55.1533 30.6875 56.0439V69.6074H25.5107V58.0479C25.5107 57.3428 25.4303 56.749 25.2695 56.2666C25.1211 55.7718 24.9108 55.376 24.6387 55.0791C24.3665 54.7699 24.0449 54.5534 23.6738 54.4297C23.3151 54.2936 22.9255 54.2256 22.5049 54.2256C22.0101 54.2256 21.5524 54.3122 21.1318 54.4854C20.7113 54.6585 20.3402 54.9307 20.0186 55.3018C19.7093 55.6729 19.4619 56.1491 19.2764 56.7305C19.1032 57.2995 19.0166 57.9798 19.0166 58.7715V69.6074Z" fill="#0B0C0C"/>
<path d="M41.375 61.5361C40.7441 61.6351 40.237 61.8577 39.8535 62.2041C39.4701 62.5381 39.2783 62.9958 39.2783 63.5771C39.2783 64.2204 39.5133 64.777 39.9834 65.2471C40.4535 65.7048 41.1462 65.9336 42.0615 65.9336C43.0264 65.9336 43.7871 65.6553 44.3438 65.0986C44.9004 64.542 45.1787 63.806 45.1787 62.8906V60.8867L41.375 61.5361ZM46.0137 67.7334C45.8034 67.9684 45.5436 68.222 45.2344 68.4941C44.9375 68.7539 44.5788 68.9951 44.1582 69.2178C43.75 69.4281 43.2676 69.6074 42.7109 69.7559C42.1543 69.9043 41.5296 69.9785 40.8369 69.9785C39.8473 69.9785 38.932 69.8239 38.0908 69.5146C37.262 69.193 36.5322 68.7477 35.9014 68.1787C35.2705 67.6097 34.7757 66.9541 34.417 66.2119C34.0583 65.4574 33.8789 64.641 33.8789 63.7627C33.8789 62.167 34.3737 60.862 35.3633 59.8477C36.3529 58.8333 37.7197 58.1963 39.4639 57.9365L45.1787 57.1016V56.7305C45.1787 55.8398 44.9066 55.1348 44.3623 54.6152C43.818 54.0957 42.9336 53.8359 41.709 53.8359C41.2018 53.8359 40.6885 53.8978 40.1689 54.0215C39.6494 54.1328 39.1484 54.2627 38.666 54.4111C38.196 54.5596 37.7568 54.7327 37.3486 54.9307C36.9404 55.1162 36.5817 55.2832 36.2725 55.4316L34.2686 51.5166C35.4066 50.8857 36.6683 50.3662 38.0537 49.958C39.4515 49.5498 40.8988 49.3457 42.3955 49.3457C43.3109 49.3457 44.2324 49.4447 45.1602 49.6426C46.1003 49.8281 46.9476 50.1745 47.7021 50.6816C48.4691 51.1888 49.0938 51.8815 49.5762 52.7598C50.0586 53.6257 50.2998 54.7327 50.2998 56.0811V64.2451C50.2998 64.8265 50.4482 65.2594 50.7451 65.5439C51.0544 65.8161 51.4749 66.0697 52.0068 66.3047L49.6875 69.9785C48.7474 69.8796 47.9928 69.6383 47.4238 69.2549C46.8548 68.859 46.3848 68.3519 46.0137 67.7334Z" fill="#0B0C0C"/>
<path d="M59.1875 59.1982L53.1387 49.7354H59.0576L62.1006 55.0977L65.292 49.7354H71.2666L65.1064 59.2354L71.9531 69.6074H65.9043L61.9893 63.5215L58.4268 69.6074H52.4521L59.1875 59.1982Z" fill="#0B0C0C"/>
<path d="M79.3379 69.6074H74.2168V49.7354H79.3379V69.6074ZM73.6787 44.5215C73.6787 44.1009 73.7591 43.7051 73.9199 43.334C74.0807 42.9505 74.2972 42.6227 74.5693 42.3506C74.8538 42.0661 75.1816 41.8434 75.5527 41.6826C75.9238 41.5218 76.3258 41.4414 76.7588 41.4414C77.1794 41.4414 77.5752 41.5218 77.9463 41.6826C78.3298 41.8434 78.6576 42.0661 78.9297 42.3506C79.2142 42.6227 79.4368 42.9505 79.5977 43.334C79.7585 43.7051 79.8389 44.1009 79.8389 44.5215C79.8389 44.9544 79.7585 45.3564 79.5977 45.7275C79.4368 46.0986 79.2142 46.4264 78.9297 46.7109C78.6576 46.9831 78.3298 47.1995 77.9463 47.3604C77.5752 47.5212 77.1794 47.6016 76.7588 47.6016C76.3258 47.6016 75.9238 47.5212 75.5527 47.3604C75.1816 47.1995 74.8538 46.9831 74.5693 46.7109C74.2972 46.4264 74.0807 46.0986 73.9199 45.7275C73.7591 45.3564 73.6787 44.9544 73.6787 44.5215Z" fill="#0B0C0C"/>
<path d="M100.509 69.6074H95.3691V58.0479C95.3691 57.3428 95.2887 56.749 95.1279 56.2666C94.9795 55.7718 94.7692 55.376 94.4971 55.0791C94.2249 54.7699 93.9095 54.5534 93.5508 54.4297C93.1921 54.2936 92.8024 54.2256 92.3818 54.2256C91.887 54.2256 91.4232 54.3122 90.9902 54.4854C90.5697 54.6585 90.1986 54.9307 89.877 55.3018C89.5677 55.6729 89.3203 56.1491 89.1348 56.7305C88.9616 57.2995 88.875 57.9798 88.875 58.7715V69.6074H83.7539V49.7354H88.875V51.4795C89.5306 50.7497 90.2913 50.2116 91.1572 49.8652C92.0355 49.5189 92.9756 49.3457 93.9775 49.3457C95.0042 49.3457 95.9629 49.556 96.8535 49.9766C97.7565 50.3971 98.5049 51.0898 99.0986 52.0547C99.445 51.5599 99.8408 51.1393 100.286 50.793C100.744 50.4466 101.232 50.1683 101.752 49.958C102.271 49.7477 102.81 49.5931 103.366 49.4941C103.935 49.3952 104.517 49.3457 105.11 49.3457C106.224 49.3457 107.213 49.5312 108.079 49.9023C108.957 50.2611 109.7 50.7497 110.306 51.3682C110.912 51.9867 111.376 52.6979 111.697 53.502C112.019 54.306 112.18 55.1533 112.18 56.0439V69.6074H107.003V58.0479C107.003 57.3428 106.923 56.749 106.762 56.2666C106.613 55.7718 106.403 55.376 106.131 55.0791C105.859 54.7699 105.537 54.5534 105.166 54.4297C104.807 54.2936 104.418 54.2256 103.997 54.2256C103.502 54.2256 103.045 54.3122 102.624 54.4854C102.203 54.6585 101.832 54.9307 101.511 55.3018C101.201 55.6729 100.954 56.1491 100.769 56.7305C100.595 57.2995 100.509 57.9798 100.509 58.7715V69.6074Z" fill="#0B0C0C"/>
<path d="M133.351 69.6074H128.229V67.9004C127.945 68.1725 127.636 68.4385 127.302 68.6982C126.968 68.9456 126.597 69.1683 126.188 69.3662C125.78 69.5518 125.323 69.7002 124.815 69.8115C124.321 69.9229 123.77 69.9785 123.164 69.9785C122.088 69.9785 121.123 69.8053 120.27 69.459C119.416 69.1003 118.692 68.6178 118.099 68.0117C117.517 67.3932 117.072 66.6696 116.763 65.8408C116.453 65.012 116.299 64.1152 116.299 63.1504V49.7354H121.42V61.2764C121.42 61.9814 121.494 62.5814 121.643 63.0762C121.803 63.571 122.02 63.973 122.292 64.2822C122.576 64.5791 122.91 64.8018 123.294 64.9502C123.677 65.0863 124.092 65.1543 124.537 65.1543C125.057 65.1543 125.539 65.0615 125.984 64.876C126.442 64.6904 126.838 64.4121 127.172 64.041C127.506 63.6576 127.766 63.1813 127.951 62.6123C128.137 62.0433 128.229 61.3753 128.229 60.6084V49.7354H133.351V69.6074Z" fill="#0B0C0C"/>
<path d="M154.54 69.6074H149.4V58.0479C149.4 57.3428 149.32 56.749 149.159 56.2666C149.011 55.7718 148.8 55.376 148.528 55.0791C148.256 54.7699 147.941 54.5534 147.582 54.4297C147.223 54.2936 146.834 54.2256 146.413 54.2256C145.918 54.2256 145.454 54.3122 145.021 54.4854C144.601 54.6585 144.23 54.9307 143.908 55.3018C143.599 55.6729 143.352 56.1491 143.166 56.7305C142.993 57.2995 142.906 57.9798 142.906 58.7715V69.6074H137.785V49.7354H142.906V51.4795C143.562 50.7497 144.323 50.2116 145.188 49.8652C146.067 49.5189 147.007 49.3457 148.009 49.3457C149.035 49.3457 149.994 49.556 150.885 49.9766C151.788 50.3971 152.536 51.0898 153.13 52.0547C153.476 51.5599 153.872 51.1393 154.317 50.793C154.775 50.4466 155.264 50.1683 155.783 49.958C156.303 49.7477 156.841 49.5931 157.397 49.4941C157.966 49.3952 158.548 49.3457 159.142 49.3457C160.255 49.3457 161.244 49.5312 162.11 49.9023C162.989 50.2611 163.731 50.7497 164.337 51.3682C164.943 51.9867 165.407 52.6979 165.729 53.502C166.05 54.306 166.211 55.1533 166.211 56.0439V69.6074H161.034V58.0479C161.034 57.3428 160.954 56.749 160.793 56.2666C160.645 55.7718 160.434 55.376 160.162 55.0791C159.89 54.7699 159.568 54.5534 159.197 54.4297C158.839 54.2936 158.449 54.2256 158.028 54.2256C157.534 54.2256 157.076 54.3122 156.655 54.4854C156.235 54.6585 155.864 54.9307 155.542 55.3018C155.233 55.6729 154.985 56.1491 154.8 56.7305C154.627 57.2995 154.54 57.9798 154.54 58.7715V69.6074Z" fill="#0B0C0C"/>
<path d="M177.103 57.5283L178.587 43H195.657V47.8799H183.114L182.576 52.8154C182.873 52.568 183.219 52.3454 183.615 52.1475C184.011 51.9495 184.438 51.7826 184.896 51.6465C185.353 51.5104 185.817 51.4053 186.287 51.3311C186.77 51.2568 187.246 51.2197 187.716 51.2197C189.052 51.2197 190.289 51.4362 191.427 51.8691C192.565 52.3021 193.548 52.9144 194.377 53.7061C195.206 54.4977 195.855 55.4502 196.325 56.5635C196.795 57.6768 197.03 58.9076 197.03 60.2559C197.03 61.7279 196.758 63.0638 196.214 64.2637C195.682 65.4512 194.94 66.4717 193.987 67.3252C193.047 68.1663 191.934 68.8219 190.647 69.292C189.373 69.7497 188 69.9785 186.528 69.9785C185.341 69.9785 184.197 69.8239 183.096 69.5146C182.007 69.2054 181.011 68.7601 180.108 68.1787C179.205 67.5973 178.42 66.8799 177.752 66.0264C177.096 65.1729 176.614 64.2018 176.305 63.1133L181.407 61.4434C181.791 62.5938 182.391 63.4967 183.207 64.1523C184.023 64.7956 185.106 65.1172 186.454 65.1172C187.258 65.1172 187.969 64.9811 188.588 64.709C189.206 64.4368 189.72 64.0843 190.128 63.6514C190.549 63.2061 190.864 62.7051 191.074 62.1484C191.297 61.5794 191.408 60.998 191.408 60.4043C191.408 59.8229 191.297 59.2601 191.074 58.7158C190.852 58.1592 190.524 57.6706 190.091 57.25C189.67 56.8171 189.151 56.4707 188.532 56.2109C187.926 55.9512 187.233 55.8213 186.454 55.8213C185.972 55.8213 185.514 55.8893 185.081 56.0254C184.648 56.1491 184.252 56.3161 183.894 56.5264C183.535 56.7243 183.226 56.9593 182.966 57.2314C182.706 57.4912 182.502 57.751 182.354 58.0107L177.103 57.5283Z" fill="#0B0C0C"/>
<path d="M2.1875 80H7.30859V101.208C7.30859 101.629 7.42611 101.95 7.66113 102.173C7.90853 102.396 8.29818 102.507 8.83008 102.507C9.07747 102.507 9.28776 102.494 9.46094 102.47C9.64648 102.433 9.88151 102.383 10.166 102.321L10.5742 106.682C10.2279 106.731 9.85677 106.781 9.46094 106.83C9.12695 106.867 8.7373 106.898 8.29199 106.923C7.85905 106.96 7.40755 106.979 6.9375 106.979C6.20768 106.979 5.55208 106.886 4.9707 106.7C4.38932 106.515 3.88835 106.243 3.46777 105.884C3.05957 105.513 2.74414 105.055 2.52148 104.511C2.29883 103.966 2.1875 103.336 2.1875 102.618V80Z" fill="#0B0C0C"/>
<path d="M18.5156 106.607H13.3945V86.7354H18.5156V106.607ZM12.8564 81.5215C12.8564 81.1009 12.9368 80.7051 13.0977 80.334C13.2585 79.9505 13.4749 79.6227 13.7471 79.3506C14.0316 79.0661 14.3594 78.8434 14.7305 78.6826C15.1016 78.5218 15.5036 78.4414 15.9365 78.4414C16.3571 78.4414 16.7529 78.5218 17.124 78.6826C17.5075 78.8434 17.8353 79.0661 18.1074 79.3506C18.3919 79.6227 18.6146 79.9505 18.7754 80.334C18.9362 80.7051 19.0166 81.1009 19.0166 81.5215C19.0166 81.9544 18.9362 82.3564 18.7754 82.7275C18.6146 83.0986 18.3919 83.4264 18.1074 83.7109C17.8353 83.9831 17.5075 84.1995 17.124 84.3604C16.7529 84.5212 16.3571 84.6016 15.9365 84.6016C15.5036 84.6016 15.1016 84.5212 14.7305 84.3604C14.3594 84.1995 14.0316 83.9831 13.7471 83.7109C13.4749 83.4264 13.2585 83.0986 13.0977 82.7275C12.9368 82.3564 12.8564 81.9544 12.8564 81.5215Z" fill="#0B0C0C"/>
<path d="M22.9316 86.7354H28.0527V88.4424C28.3249 88.1702 28.6279 87.9105 28.9619 87.6631C29.3083 87.4033 29.6855 87.1807 30.0938 86.9951C30.502 86.7972 30.9535 86.6426 31.4482 86.5312C31.9554 86.4076 32.512 86.3457 33.1182 86.3457C34.1943 86.3457 35.1592 86.5251 36.0127 86.8838C36.8662 87.2301 37.5837 87.7126 38.165 88.3311C38.7588 88.9495 39.2103 89.6732 39.5195 90.502C39.8288 91.3307 39.9834 92.2275 39.9834 93.1924V106.607H34.8623V95.0479C34.8623 94.3428 34.7819 93.749 34.6211 93.2666C34.4603 92.7718 34.2376 92.376 33.9531 92.0791C33.681 91.7699 33.3532 91.5472 32.9697 91.4111C32.5986 91.2627 32.1904 91.1885 31.7451 91.1885C31.2256 91.1885 30.737 91.2812 30.2793 91.4668C29.834 91.6523 29.4443 91.9368 29.1104 92.3203C28.7764 92.6914 28.5166 93.1615 28.3311 93.7305C28.1455 94.2995 28.0527 94.9674 28.0527 95.7344V106.607H22.9316V86.7354Z" fill="#0B0C0C"/>
<path d="M48.5557 98.4434C48.6423 99.0371 48.8278 99.5814 49.1123 100.076C49.4092 100.571 49.7803 100.998 50.2256 101.356C50.6709 101.703 51.1842 101.975 51.7656 102.173C52.347 102.371 52.9655 102.47 53.6211 102.47C54.3757 102.47 55.1921 102.327 56.0703 102.043C56.9486 101.746 57.7526 101.319 58.4824 100.763L60.9502 104.362C60.0225 105.142 58.8844 105.772 57.5361 106.255C56.1878 106.737 54.7529 106.979 53.2314 106.979C51.8584 106.979 50.5658 106.743 49.3535 106.273C48.1413 105.803 47.0775 105.123 46.1621 104.232C45.2591 103.342 44.5417 102.259 44.0098 100.985C43.4902 99.7113 43.2305 98.2764 43.2305 96.6807C43.2305 95.221 43.4593 93.8604 43.917 92.5986C44.387 91.3369 45.0365 90.2422 45.8652 89.3145C46.7064 88.3867 47.7083 87.6631 48.8711 87.1436C50.0339 86.6117 51.3203 86.3457 52.7305 86.3457C54.0417 86.3457 55.2601 86.5869 56.3857 87.0693C57.5114 87.5394 58.4886 88.2074 59.3174 89.0732C60.1462 89.9268 60.7956 90.9535 61.2656 92.1533C61.7357 93.3532 61.9707 94.6768 61.9707 96.124V98.4434H48.5557ZM52.7119 90.7988C51.611 90.7988 50.6771 91.1699 49.9102 91.9121C49.1556 92.6419 48.7165 93.5264 48.5928 94.5654H56.6084C56.5837 93.514 56.2002 92.6234 55.458 91.8936C54.7158 91.1637 53.8005 90.7988 52.7119 90.7988Z" fill="#0B0C0C"/>
<path d="M66.6465 100.262C67.3763 100.917 68.2484 101.48 69.2627 101.95C70.277 102.42 71.3037 102.655 72.3428 102.655C73.0973 102.655 73.6911 102.513 74.124 102.229C74.557 101.932 74.7734 101.554 74.7734 101.097C74.7734 100.317 73.9385 99.7113 72.2686 99.2783L70.8213 98.8887C70.1038 98.7155 69.3802 98.4805 68.6504 98.1836C67.9206 97.8743 67.2464 97.4723 66.6279 96.9775C66.0218 96.4827 65.527 95.8828 65.1436 95.1777C64.7725 94.4603 64.5869 93.582 64.5869 92.543C64.5869 91.7142 64.7663 90.9287 65.125 90.1865C65.4961 89.432 66.0156 88.7702 66.6836 88.2012C67.3639 87.6322 68.1865 87.1807 69.1514 86.8467C70.1162 86.5127 71.1924 86.3457 72.3799 86.3457C74.0745 86.3457 75.5837 86.6117 76.9072 87.1436C78.2432 87.6755 79.2946 88.2754 80.0615 88.9434L77.3896 92.3574C76.7588 91.8997 76.0104 91.5101 75.1445 91.1885C74.291 90.8545 73.4313 90.6875 72.5654 90.6875C71.7614 90.6875 71.1367 90.8359 70.6914 91.1328C70.2461 91.4173 70.0234 91.7637 70.0234 92.1719C70.0234 92.6048 70.2152 92.9574 70.5986 93.2295C70.9945 93.4893 71.5635 93.7181 72.3057 93.916L74.458 94.5283C76.5114 95.1097 77.9834 95.8952 78.874 96.8848C79.7646 97.8743 80.21 99.1237 80.21 100.633C80.21 101.474 80.0368 102.278 79.6904 103.045C79.3441 103.799 78.8369 104.474 78.1689 105.067C77.501 105.661 76.6722 106.131 75.6826 106.478C74.693 106.812 73.5674 106.979 72.3057 106.979C71.3408 106.979 70.4316 106.892 69.5781 106.719C68.737 106.546 67.9515 106.311 67.2217 106.014C66.5042 105.704 65.8548 105.358 65.2734 104.975C64.6921 104.591 64.1973 104.208 63.7891 103.824L66.6465 100.262Z" fill="#0B0C0C"/>
</svg>
