<svg width="208" height="208" viewBox="0 0 208 208" fill="none" xmlns="http://www.w3.org/2000/svg">
<g clip-path="url(#clip0_1334_18692)">
<g clip-path="url(#clip1_1334_18692)">
<rect width="207.375" height="207.375" fill="white"/>
</g>
<path d="M3.65527 3.39258H6.9209V27.0684H17.5527V30H3.65527V3.39258Z" fill="#0B0C0C"/>
<path d="M24.3438 30H21.2266V11.0371H24.3438V30ZM20.6514 5.56348C20.6514 5.2666 20.707 4.98828 20.8184 4.72852C20.9421 4.46875 21.0967 4.23991 21.2822 4.04199C21.4801 3.84408 21.709 3.68945 21.9688 3.57812C22.2409 3.45443 22.5254 3.39258 22.8223 3.39258C23.1191 3.39258 23.3975 3.45443 23.6572 3.57812C23.917 3.68945 24.1396 3.84408 24.3252 4.04199C24.5231 4.23991 24.6777 4.46875 24.7891 4.72852C24.9128 4.98828 24.9746 5.2666 24.9746 5.56348C24.9746 5.86035 24.9128 6.14486 24.7891 6.41699C24.6777 6.67676 24.5231 6.9056 24.3252 7.10352C24.1396 7.28906 23.917 7.44368 23.6572 7.56738C23.3975 7.67871 23.1191 7.73438 22.8223 7.73438C22.5254 7.73438 22.2409 7.67871 21.9688 7.56738C21.709 7.44368 21.4801 7.28906 21.2822 7.10352C21.0967 6.9056 20.9421 6.67676 20.8184 6.41699C20.707 6.14486 20.6514 5.86035 20.6514 5.56348Z" fill="#0B0C0C"/>
<path d="M28.9824 19.4795C28.9824 18.2301 29.1618 17.0674 29.5205 15.9912C29.8792 14.915 30.3926 13.9873 31.0605 13.208C31.7285 12.4163 32.5326 11.7979 33.4727 11.3525C34.4251 10.8949 35.4889 10.666 36.6641 10.666C37.7031 10.666 38.6927 10.8701 39.6328 11.2783C40.5729 11.6742 41.3708 12.3174 42.0264 13.208V11.0371H45.1436V30C45.1436 31.1751 44.9023 32.1585 44.4199 32.9502C43.9499 33.7542 43.3314 34.3975 42.5645 34.8799C41.7975 35.3623 40.9255 35.7087 39.9482 35.9189C38.9834 36.1292 38 36.2344 36.998 36.2344C36.4414 36.2344 35.86 36.2035 35.2539 36.1416C34.6602 36.0798 34.0602 35.987 33.4541 35.8633C32.848 35.7396 32.248 35.5788 31.6543 35.3809C31.0729 35.1953 30.5163 34.9727 29.9844 34.7129L31.1162 32.0967C31.4873 32.2699 31.877 32.4368 32.2852 32.5977C32.6934 32.7708 33.1325 32.9255 33.6025 33.0615C34.085 33.1976 34.5983 33.3089 35.1426 33.3955C35.6868 33.4821 36.2806 33.5254 36.9238 33.5254C37.7155 33.5254 38.4268 33.445 39.0576 33.2842C39.7008 33.1234 40.2389 32.8698 40.6719 32.5234C41.1048 32.1895 41.4388 31.7565 41.6738 31.2246C41.9089 30.7051 42.0264 30.0804 42.0264 29.3506V25.751C41.3708 26.6416 40.5729 27.291 39.6328 27.6992C38.6927 28.0951 37.7031 28.293 36.6641 28.293C35.4889 28.293 34.4251 28.0703 33.4727 27.625C32.5326 27.1673 31.7285 26.5426 31.0605 25.751C30.3926 24.9593 29.8792 24.0316 29.5205 22.9678C29.1618 21.8916 28.9824 20.7288 28.9824 19.4795ZM42.1006 19.4053C42.1006 18.5518 42.0078 17.7663 41.8223 17.0488C41.6367 16.319 41.346 15.6882 40.9502 15.1562C40.5544 14.612 40.0472 14.1914 39.4287 13.8945C38.8226 13.5853 38.0928 13.4307 37.2393 13.4307C36.3734 13.4307 35.625 13.5853 34.9941 13.8945C34.3633 14.2038 33.8376 14.6305 33.417 15.1748C33.0088 15.7067 32.7057 16.3376 32.5078 17.0674C32.3099 17.7972 32.2109 18.5765 32.2109 19.4053V19.5537C32.2109 20.3825 32.3099 21.1618 32.5078 21.8916C32.7057 22.609 33.0088 23.2399 33.417 23.7842C33.8376 24.3161 34.3633 24.7367 34.9941 25.0459C35.625 25.3551 36.3734 25.5098 37.2393 25.5098C38.0928 25.5098 38.8226 25.3613 39.4287 25.0645C40.0472 24.7552 40.5544 24.3346 40.9502 23.8027C41.346 23.2708 41.6367 22.64 41.8223 21.9102C42.0078 21.1803 42.1006 20.3949 42.1006 19.5537V19.4053Z" fill="#0B0C0C"/>
<path d="M50.8398 3.39258H53.957V13.208C54.6003 12.3298 55.3919 11.6865 56.332 11.2783C57.2845 10.8701 58.3421 10.666 59.5049 10.666C60.5563 10.666 61.4779 10.8392 62.2695 11.1855C63.0612 11.5319 63.723 12.002 64.2549 12.5957C64.7868 13.1895 65.1826 13.876 65.4424 14.6553C65.7145 15.4346 65.8506 16.2572 65.8506 17.123V30H62.7334V18.1064C62.7334 17.2777 62.6283 16.5726 62.418 15.9912C62.2201 15.3975 61.9417 14.9212 61.583 14.5625C61.2367 14.1914 60.8223 13.9255 60.3398 13.7646C59.8698 13.5915 59.3626 13.5049 58.8184 13.5049C58.2246 13.5049 57.637 13.6162 57.0557 13.8389C56.4743 14.0492 55.9548 14.3708 55.4971 14.8037C55.0394 15.2367 54.6683 15.7809 54.3838 16.4365C54.0993 17.0921 53.957 17.8652 53.957 18.7559V30H50.8398V3.39258Z" fill="#0B0C0C"/>
<path d="M76.2969 25.2871C76.2969 25.6087 76.3154 25.9118 76.3525 26.1963C76.402 26.4684 76.5072 26.7096 76.668 26.9199C76.8411 27.1302 77.0885 27.2972 77.4102 27.4209C77.7318 27.5446 78.1709 27.6064 78.7275 27.6064C78.876 27.6064 79.0492 27.6003 79.2471 27.5879C79.4574 27.5755 79.6738 27.5632 79.8965 27.5508C80.1191 27.526 80.3356 27.5013 80.5459 27.4766C80.7562 27.4395 80.9355 27.4085 81.084 27.3838L81.418 30.1113C81.0592 30.1608 80.6882 30.2041 80.3047 30.2412C79.9831 30.2783 79.6243 30.3092 79.2285 30.334C78.8327 30.3587 78.4368 30.3711 78.041 30.3711C77.2865 30.3711 76.6061 30.2907 76 30.1299C75.4062 29.9814 74.8991 29.734 74.4785 29.3877C74.0579 29.0413 73.7363 28.5898 73.5137 28.0332C73.291 27.4642 73.1797 26.7777 73.1797 25.9736V13.7832H69.5986V11.0371H73.1797V4.83984L76.2969 3.74512V11.0371H81.5664V13.7832H76.2969V25.2871Z" fill="#0B0C0C"/>
<path d="M87.5781 26.0479C87.9245 26.0479 88.2523 26.1159 88.5615 26.252C88.8831 26.388 89.1553 26.5798 89.3779 26.8271C89.613 27.0622 89.7985 27.3529 89.9346 27.6992C90.0706 28.0456 90.1387 28.4229 90.1387 28.8311C90.1387 29.2764 90.0583 29.734 89.8975 30.2041C89.7367 30.6742 89.4893 31.1195 89.1553 31.54C88.8213 31.9606 88.4007 32.3441 87.8936 32.6904C87.3864 33.0368 86.7865 33.3027 86.0938 33.4883L85.6855 33.6182L85.2959 32.3564L85.5371 32.2822C86.1061 32.0843 86.6071 31.806 87.04 31.4473C87.473 31.0885 87.7699 30.6927 87.9307 30.2598H87.541C87.2441 30.2598 86.9658 30.2041 86.7061 30.0928C86.4587 29.9938 86.236 29.8516 86.0381 29.666C85.8525 29.4805 85.7041 29.264 85.5928 29.0166C85.4814 28.7568 85.4258 28.4785 85.4258 28.1816C85.4258 27.8848 85.4814 27.6064 85.5928 27.3467C85.7041 27.0869 85.8525 26.8643 86.0381 26.6787C86.236 26.4808 86.4648 26.3262 86.7246 26.2148C86.9967 26.1035 87.2812 26.0479 87.5781 26.0479Z" fill="#0B0C0C"/>
<path d="M110.976 10.666C112.287 10.666 113.48 10.9134 114.557 11.4082C115.633 11.8906 116.548 12.571 117.303 13.4492C118.07 14.3151 118.663 15.3542 119.084 16.5664C119.505 17.7663 119.715 19.0898 119.715 20.5371C119.715 21.9596 119.505 23.277 119.084 24.4893C118.663 25.6891 118.07 26.7282 117.303 27.6064C116.548 28.4723 115.633 29.1527 114.557 29.6475C113.48 30.1299 112.287 30.3711 110.976 30.3711C109.664 30.3711 108.471 30.1299 107.395 29.6475C106.331 29.1527 105.415 28.4723 104.648 27.6064C103.882 26.7282 103.288 25.6891 102.867 24.4893C102.447 23.277 102.236 21.9596 102.236 20.5371C102.236 19.0898 102.447 17.7663 102.867 16.5664C103.288 15.3542 103.882 14.3151 104.648 13.4492C105.415 12.571 106.331 11.8906 107.395 11.4082C108.471 10.9134 109.664 10.666 110.976 10.666ZM110.976 27.6436C111.879 27.6436 112.67 27.458 113.351 27.0869C114.043 26.7035 114.618 26.1901 115.076 25.5469C115.546 24.9036 115.899 24.1615 116.134 23.3203C116.369 22.4668 116.486 21.5762 116.486 20.6484V20.4258C116.486 19.4733 116.369 18.5703 116.134 17.7168C115.899 16.8633 115.546 16.1211 115.076 15.4902C114.618 14.847 114.043 14.3398 113.351 13.9688C112.67 13.5853 111.879 13.3936 110.976 13.3936C110.073 13.3936 109.275 13.5853 108.582 13.9688C107.902 14.3398 107.326 14.847 106.856 15.4902C106.399 16.1211 106.052 16.8633 105.817 17.7168C105.582 18.5703 105.465 19.4733 105.465 20.4258V20.6484C105.465 21.5762 105.582 22.4668 105.817 23.3203C106.052 24.1615 106.399 24.9036 106.856 25.5469C107.326 26.1901 107.902 26.7035 108.582 27.0869C109.275 27.458 110.073 27.6436 110.976 27.6436Z" fill="#0B0C0C"/>
<path d="M127.972 30L121.96 11.0371H125.504L130.05 27.1055L134.577 11.0371H138.121L132.109 30H127.972Z" fill="#0B0C0C"/>
<path d="M143.65 21.4834C143.712 22.374 143.892 23.1966 144.188 23.9512C144.485 24.7057 144.887 25.3613 145.395 25.918C145.914 26.4622 146.52 26.889 147.213 27.1982C147.918 27.4951 148.697 27.6436 149.551 27.6436C150.602 27.6436 151.524 27.4704 152.315 27.124C153.119 26.7653 153.855 26.32 154.523 25.7881L156.119 28.0332C155.266 28.7135 154.276 29.2764 153.15 29.7217C152.037 30.1546 150.788 30.3711 149.402 30.3711C148.029 30.3711 146.786 30.1299 145.673 29.6475C144.56 29.1527 143.607 28.4723 142.815 27.6064C142.036 26.7282 141.436 25.6891 141.016 24.4893C140.595 23.277 140.385 21.9596 140.385 20.5371C140.385 19.0898 140.589 17.7663 140.997 16.5664C141.418 15.3542 142.005 14.3151 142.76 13.4492C143.514 12.571 144.417 11.8906 145.469 11.4082C146.52 10.9134 147.689 10.666 148.976 10.666C150.225 10.666 151.351 10.9134 152.353 11.4082C153.354 11.8906 154.208 12.571 154.913 13.4492C155.618 14.3151 156.156 15.3542 156.527 16.5664C156.911 17.7663 157.103 19.0775 157.103 20.5V21.4834H143.65ZM148.864 13.3936C148.073 13.3936 147.368 13.5482 146.749 13.8574C146.131 14.1667 145.599 14.5811 145.153 15.1006C144.72 15.6201 144.374 16.2201 144.114 16.9004C143.867 17.5684 143.725 18.2611 143.688 18.9785H153.726C153.701 18.2487 153.571 17.5498 153.336 16.8818C153.113 16.2015 152.792 15.6077 152.371 15.1006C151.963 14.5811 151.462 14.1667 150.868 13.8574C150.287 13.5482 149.619 13.3936 148.864 13.3936Z" fill="#0B0C0C"/>
<path d="M171.148 13.8203H170.647C169.843 13.8203 169.076 13.9131 168.347 14.0986C167.617 14.2842 166.974 14.6182 166.417 15.1006C165.86 15.583 165.415 16.2448 165.081 17.0859C164.747 17.9147 164.58 18.9785 164.58 20.2773V30H161.463V11.0371H164.58V14.043C164.815 13.4863 165.131 12.9977 165.526 12.5771C165.922 12.1566 166.368 11.8102 166.862 11.5381C167.369 11.2536 167.908 11.0433 168.477 10.9072C169.058 10.7712 169.646 10.7031 170.239 10.7031H171.148V13.8203Z" fill="#0B0C0C"/>
<path d="M13.6377 65.1074C13.0811 65.7507 12.3265 66.2887 11.374 66.7217C10.4339 67.1546 9.32682 67.3711 8.05273 67.3711C7.11263 67.3711 6.24056 67.2412 5.43652 66.9814C4.63249 66.7093 3.93359 66.3258 3.33984 65.8311C2.74609 65.3363 2.28223 64.7363 1.94824 64.0312C1.61426 63.3262 1.44727 62.5283 1.44727 61.6377C1.44727 60.8955 1.56478 60.2214 1.7998 59.6152C2.0472 58.9967 2.38737 58.4587 2.82031 58.001C3.26562 57.5433 3.79753 57.1722 4.41602 56.8877C5.03451 56.5908 5.72721 56.3867 6.49414 56.2754L13.1924 55.3662V54.1602C13.1924 53.4427 13.0811 52.8428 12.8584 52.3604C12.6357 51.8656 12.3327 51.4759 11.9492 51.1914C11.5781 50.9069 11.1328 50.7028 10.6133 50.5791C10.1061 50.4554 9.55566 50.3936 8.96191 50.3936C7.89811 50.3936 6.90234 50.542 5.97461 50.8389C5.05924 51.1357 4.23047 51.4821 3.48828 51.8779L2.31934 49.4102C3.40788 48.7917 4.5459 48.3464 5.7334 48.0742C6.93327 47.8021 8.11458 47.666 9.27734 47.666C11.5905 47.666 13.3408 48.1917 14.5283 49.2432C15.7158 50.2822 16.3096 51.8037 16.3096 53.8076V62.5469C16.3096 63.1777 16.4333 63.7096 16.6807 64.1426C16.9281 64.5632 17.3239 64.8971 17.8682 65.1445L16.1055 67.3711C15.5117 67.2227 14.9984 66.9629 14.5654 66.5918C14.1449 66.2083 13.848 65.7507 13.6748 65.2188L13.6377 65.1074ZM8.08984 58.5576C7.57031 58.6318 7.09408 58.737 6.66113 58.873C6.24056 59.0091 5.88184 59.1947 5.58496 59.4297C5.28809 59.6523 5.05306 59.9307 4.87988 60.2646C4.71908 60.5986 4.63867 61.0068 4.63867 61.4893C4.63867 62.0459 4.74382 62.5407 4.9541 62.9736C5.16439 63.4066 5.44889 63.7715 5.80762 64.0684C6.16634 64.3652 6.58073 64.5941 7.05078 64.7549C7.5332 64.9033 8.03418 64.9775 8.55371 64.9775C9.13509 64.9775 9.7041 64.8971 10.2607 64.7363C10.8174 64.5755 11.3122 64.3467 11.7451 64.0498C12.1781 63.7406 12.5244 63.3695 12.7842 62.9365C13.0563 62.5036 13.1924 62.0088 13.1924 61.4521V57.7969L8.08984 58.5576Z" fill="#0B0C0C"/>
<path d="M43.7891 67H40.6719V55.0693C40.6719 54.2282 40.5667 53.5169 40.3564 52.9355C40.1585 52.3542 39.8864 51.8841 39.54 51.5254C39.2061 51.1667 38.804 50.9069 38.334 50.7461C37.8763 50.5853 37.3877 50.5049 36.8682 50.5049C36.3486 50.5049 35.8353 50.61 35.3281 50.8203C34.8333 51.0182 34.388 51.3337 33.9922 51.7666C33.6087 52.1995 33.2933 52.75 33.0459 53.418C32.8109 54.0736 32.6934 54.8652 32.6934 55.793V67H29.5762V48.0371H32.6934V50.208C33.3242 49.3298 34.054 48.6865 34.8828 48.2783C35.724 47.8701 36.6517 47.666 37.666 47.666C38.0866 47.666 38.5443 47.7279 39.0391 47.8516C39.5339 47.9629 40.0163 48.1423 40.4863 48.3896C40.9688 48.637 41.4079 48.9648 41.8037 49.373C42.2119 49.7689 42.5397 50.2513 42.7871 50.8203C43.1335 50.2389 43.5293 49.7503 43.9746 49.3545C44.4323 48.9463 44.9085 48.6185 45.4033 48.3711C45.9105 48.1237 46.43 47.9443 46.9619 47.833C47.5062 47.7217 48.0443 47.666 48.5762 47.666C49.6029 47.666 50.512 47.8392 51.3037 48.1855C52.0954 48.5319 52.7633 48.9958 53.3076 49.5771C53.8519 50.1585 54.2601 50.8327 54.5322 51.5996C54.8167 52.3665 54.959 53.1706 54.959 54.0117V67H51.8418V55.0693C51.8418 54.2282 51.7367 53.5169 51.5264 52.9355C51.3161 52.3542 51.0316 51.8841 50.6729 51.5254C50.3141 51.1667 49.8997 50.9069 49.4297 50.7461C48.9596 50.5853 48.471 50.5049 47.9639 50.5049C47.4443 50.5049 46.931 50.61 46.4238 50.8203C45.929 51.0182 45.4837 51.3337 45.0879 51.7666C44.7044 52.1995 44.389 52.75 44.1416 53.418C43.9066 54.0736 43.7891 54.8652 43.7891 55.793V67Z" fill="#0B0C0C"/>
<path d="M71.3057 65.1074C70.749 65.7507 69.9945 66.2887 69.042 66.7217C68.1019 67.1546 66.9948 67.3711 65.7207 67.3711C64.7806 67.3711 63.9085 67.2412 63.1045 66.9814C62.3005 66.7093 61.6016 66.3258 61.0078 65.8311C60.4141 65.3363 59.9502 64.7363 59.6162 64.0312C59.2822 63.3262 59.1152 62.5283 59.1152 61.6377C59.1152 60.8955 59.2327 60.2214 59.4678 59.6152C59.7152 58.9967 60.0553 58.4587 60.4883 58.001C60.9336 57.5433 61.4655 57.1722 62.084 56.8877C62.7025 56.5908 63.3952 56.3867 64.1621 56.2754L70.8604 55.3662V54.1602C70.8604 53.4427 70.749 52.8428 70.5264 52.3604C70.3037 51.8656 70.0007 51.4759 69.6172 51.1914C69.2461 50.9069 68.8008 50.7028 68.2812 50.5791C67.7741 50.4554 67.2236 50.3936 66.6299 50.3936C65.5661 50.3936 64.5703 50.542 63.6426 50.8389C62.7272 51.1357 61.8984 51.4821 61.1562 51.8779L59.9873 49.4102C61.0758 48.7917 62.2139 48.3464 63.4014 48.0742C64.6012 47.8021 65.7826 47.666 66.9453 47.666C69.2585 47.666 71.0088 48.1917 72.1963 49.2432C73.3838 50.2822 73.9775 51.8037 73.9775 53.8076V62.5469C73.9775 63.1777 74.1012 63.7096 74.3486 64.1426C74.596 64.5632 74.9919 64.8971 75.5361 65.1445L73.7734 67.3711C73.1797 67.2227 72.6663 66.9629 72.2334 66.5918C71.8128 66.2083 71.516 65.7507 71.3428 65.2188L71.3057 65.1074ZM65.7578 58.5576C65.2383 58.6318 64.762 58.737 64.3291 58.873C63.9085 59.0091 63.5498 59.1947 63.2529 59.4297C62.9561 59.6523 62.721 59.9307 62.5479 60.2646C62.387 60.5986 62.3066 61.0068 62.3066 61.4893C62.3066 62.0459 62.4118 62.5407 62.6221 62.9736C62.8324 63.4066 63.1169 63.7715 63.4756 64.0684C63.8343 64.3652 64.2487 64.5941 64.7188 64.7549C65.2012 64.9033 65.7021 64.9775 66.2217 64.9775C66.8031 64.9775 67.3721 64.8971 67.9287 64.7363C68.4854 64.5755 68.9801 64.3467 69.4131 64.0498C69.846 63.7406 70.1924 63.3695 70.4521 62.9365C70.7243 62.5036 70.8604 62.0088 70.8604 61.4521V57.7969L65.7578 58.5576Z" fill="#0B0C0C"/>
<path d="M83.8486 56.999L78.041 48.0371H81.6035L85.667 54.5684L89.5449 48.0371H93.1631L87.374 56.999L93.9609 67H90.2314L85.4814 59.6338L81.1582 67H77.4658L83.8486 56.999Z" fill="#0B0C0C"/>
<path d="M100.529 67H97.4121V48.0371H100.529V67ZM96.8369 42.5635C96.8369 42.2666 96.8926 41.9883 97.0039 41.7285C97.1276 41.4688 97.2822 41.2399 97.4678 41.042C97.6657 40.8441 97.8945 40.6895 98.1543 40.5781C98.4264 40.4544 98.7109 40.3926 99.0078 40.3926C99.3047 40.3926 99.583 40.4544 99.8428 40.5781C100.103 40.6895 100.325 40.8441 100.511 41.042C100.709 41.2399 100.863 41.4688 100.975 41.7285C101.098 41.9883 101.16 42.2666 101.16 42.5635C101.16 42.8604 101.098 43.1449 100.975 43.417C100.863 43.6768 100.709 43.9056 100.511 44.1035C100.325 44.2891 100.103 44.4437 99.8428 44.5674C99.583 44.6787 99.3047 44.7344 99.0078 44.7344C98.7109 44.7344 98.4264 44.6787 98.1543 44.5674C97.8945 44.4437 97.6657 44.2891 97.4678 44.1035C97.2822 43.9056 97.1276 43.6768 97.0039 43.417C96.8926 43.1449 96.8369 42.8604 96.8369 42.5635Z" fill="#0B0C0C"/>
<path d="M120.457 67H117.34V55.0693C117.34 54.2282 117.235 53.5169 117.024 52.9355C116.826 52.3542 116.554 51.8841 116.208 51.5254C115.874 51.1667 115.472 50.9069 115.002 50.7461C114.544 50.5853 114.056 50.5049 113.536 50.5049C113.017 50.5049 112.503 50.61 111.996 50.8203C111.501 51.0182 111.056 51.3337 110.66 51.7666C110.277 52.1995 109.961 52.75 109.714 53.418C109.479 54.0736 109.361 54.8652 109.361 55.793V67H106.244V48.0371H109.361V50.208C109.992 49.3298 110.722 48.6865 111.551 48.2783C112.392 47.8701 113.32 47.666 114.334 47.666C114.755 47.666 115.212 47.7279 115.707 47.8516C116.202 47.9629 116.684 48.1423 117.154 48.3896C117.637 48.637 118.076 48.9648 118.472 49.373C118.88 49.7689 119.208 50.2513 119.455 50.8203C119.801 50.2389 120.197 49.7503 120.643 49.3545C121.1 48.9463 121.576 48.6185 122.071 48.3711C122.578 48.1237 123.098 47.9443 123.63 47.833C124.174 47.7217 124.712 47.666 125.244 47.666C126.271 47.666 127.18 47.8392 127.972 48.1855C128.763 48.5319 129.431 48.9958 129.976 49.5771C130.52 50.1585 130.928 50.8327 131.2 51.5996C131.485 52.3665 131.627 53.1706 131.627 54.0117V67H128.51V55.0693C128.51 54.2282 128.405 53.5169 128.194 52.9355C127.984 52.3542 127.7 51.8841 127.341 51.5254C126.982 51.1667 126.568 50.9069 126.098 50.7461C125.628 50.5853 125.139 50.5049 124.632 50.5049C124.112 50.5049 123.599 50.61 123.092 50.8203C122.597 51.0182 122.152 51.3337 121.756 51.7666C121.372 52.1995 121.057 52.75 120.81 53.418C120.575 54.0736 120.457 54.8652 120.457 55.793V67Z" fill="#0B0C0C"/>
<path d="M152.037 67H148.92V64.8291C148.277 65.7074 147.479 66.3506 146.526 66.7588C145.586 67.167 144.535 67.3711 143.372 67.3711C142.321 67.3711 141.399 67.1979 140.607 66.8516C139.816 66.5052 139.154 66.0352 138.622 65.4414C138.09 64.8477 137.688 64.1611 137.416 63.3818C137.156 62.6025 137.026 61.7799 137.026 60.9141V48.0371H140.144V59.9307C140.144 60.7718 140.243 61.4831 140.44 62.0645C140.651 62.6458 140.929 63.1221 141.275 63.4932C141.634 63.8519 142.049 64.1178 142.519 64.291C143.001 64.4518 143.514 64.5322 144.059 64.5322C144.702 64.5322 145.314 64.4271 145.896 64.2168C146.489 63.9941 147.009 63.6663 147.454 63.2334C147.899 62.8005 148.252 62.2562 148.512 61.6006C148.784 60.945 148.92 60.1719 148.92 59.2812V48.0371H152.037V67Z" fill="#0B0C0C"/>
<path d="M171.965 67H168.848V55.0693C168.848 54.2282 168.743 53.5169 168.532 52.9355C168.334 52.3542 168.062 51.8841 167.716 51.5254C167.382 51.1667 166.98 50.9069 166.51 50.7461C166.052 50.5853 165.563 50.5049 165.044 50.5049C164.524 50.5049 164.011 50.61 163.504 50.8203C163.009 51.0182 162.564 51.3337 162.168 51.7666C161.785 52.1995 161.469 52.75 161.222 53.418C160.987 54.0736 160.869 54.8652 160.869 55.793V67H157.752V48.0371H160.869V50.208C161.5 49.3298 162.23 48.6865 163.059 48.2783C163.9 47.8701 164.827 47.666 165.842 47.666C166.262 47.666 166.72 47.7279 167.215 47.8516C167.71 47.9629 168.192 48.1423 168.662 48.3896C169.145 48.637 169.584 48.9648 169.979 49.373C170.388 49.7689 170.715 50.2513 170.963 50.8203C171.309 50.2389 171.705 49.7503 172.15 49.3545C172.608 48.9463 173.084 48.6185 173.579 48.3711C174.086 48.1237 174.606 47.9443 175.138 47.833C175.682 47.7217 176.22 47.666 176.752 47.666C177.779 47.666 178.688 47.8392 179.479 48.1855C180.271 48.5319 180.939 48.9958 181.483 49.5771C182.028 50.1585 182.436 50.8327 182.708 51.5996C182.993 52.3665 183.135 53.1706 183.135 54.0117V67H180.018V55.0693C180.018 54.2282 179.912 53.5169 179.702 52.9355C179.492 52.3542 179.207 51.8841 178.849 51.5254C178.49 51.1667 178.076 50.9069 177.605 50.7461C177.135 50.5853 176.647 50.5049 176.14 50.5049C175.62 50.5049 175.107 50.61 174.6 50.8203C174.105 51.0182 173.66 51.3337 173.264 51.7666C172.88 52.1995 172.565 52.75 172.317 53.418C172.082 54.0736 171.965 54.8652 171.965 55.793V67Z" fill="#0B0C0C"/>
<path d="M2.7832 91.4736L4.1748 78.3926H19.3711V81.25H6.80957L6.01172 88.8203C6.72917 88.1276 7.58887 87.6081 8.59082 87.2617C9.59277 86.903 10.6195 86.7236 11.6709 86.7236C12.9326 86.7236 14.0954 86.9587 15.1592 87.4287C16.2354 87.8864 17.1631 88.5234 17.9424 89.3398C18.734 90.1562 19.3464 91.1211 19.7793 92.2344C20.2246 93.3477 20.4473 94.5475 20.4473 95.834C20.4473 97.2689 20.2122 98.5739 19.7422 99.749C19.2845 100.924 18.6351 101.932 17.7939 102.773C16.9528 103.602 15.9508 104.245 14.7881 104.703C13.6253 105.148 12.3451 105.371 10.9473 105.371C9.84635 105.371 8.80111 105.247 7.81152 105C6.83431 104.74 5.94987 104.357 5.1582 103.85C4.36654 103.33 3.6862 102.693 3.11719 101.938C2.56055 101.172 2.16471 100.281 1.92969 99.2666L5.17676 98.5801C5.31283 99.112 5.54167 99.6191 5.86328 100.102C6.1849 100.572 6.5931 100.992 7.08789 101.363C7.58268 101.722 8.15169 102.007 8.79492 102.217C9.43815 102.427 10.1556 102.532 10.9473 102.532C11.8997 102.532 12.7533 102.371 13.5078 102.05C14.2624 101.728 14.8994 101.283 15.4189 100.714C15.9385 100.132 16.3343 99.446 16.6064 98.6543C16.891 97.8626 17.0332 97.0029 17.0332 96.0752C17.0332 95.1104 16.891 94.2321 16.6064 93.4404C16.3343 92.6488 15.9323 91.9684 15.4004 91.3994C14.8809 90.818 14.2438 90.3727 13.4893 90.0635C12.7347 89.7419 11.875 89.5811 10.9102 89.5811C10.4525 89.5811 9.98242 89.6367 9.5 89.748C9.02995 89.8594 8.57227 90.014 8.12695 90.2119C7.69401 90.4098 7.28581 90.651 6.90234 90.9355C6.51888 91.2201 6.19108 91.5355 5.91895 91.8818L2.7832 91.4736Z" fill="#0B0C0C"/>
<path d="M32.7861 78.3926H35.9033V100.751C35.9033 101.06 35.9281 101.332 35.9775 101.567C36.0394 101.802 36.1383 102 36.2744 102.161C36.4105 102.322 36.596 102.446 36.8311 102.532C37.0785 102.606 37.3815 102.644 37.7402 102.644C38.1361 102.644 38.4948 102.631 38.8164 102.606C39.138 102.582 39.4225 102.557 39.6699 102.532L39.9854 105.148C39.6266 105.186 39.2679 105.223 38.9092 105.26C38.5999 105.285 38.2598 105.309 37.8887 105.334C37.5176 105.359 37.165 105.371 36.8311 105.371C36.2744 105.371 35.7487 105.303 35.2539 105.167C34.7591 105.043 34.3262 104.833 33.9551 104.536C33.5964 104.239 33.3118 103.856 33.1016 103.386C32.8913 102.916 32.7861 102.34 32.7861 101.66V78.3926Z" fill="#0B0C0C"/>
<path d="M46.0898 105H42.9727V86.0371H46.0898V105ZM42.3975 80.5635C42.3975 80.2666 42.4531 79.9883 42.5645 79.7285C42.6882 79.4688 42.8428 79.2399 43.0283 79.042C43.2262 78.8441 43.4551 78.6895 43.7148 78.5781C43.987 78.4544 44.2715 78.3926 44.5684 78.3926C44.8652 78.3926 45.1436 78.4544 45.4033 78.5781C45.6631 78.6895 45.8857 78.8441 46.0713 79.042C46.2692 79.2399 46.4238 79.4688 46.5352 79.7285C46.6589 79.9883 46.7207 80.2666 46.7207 80.5635C46.7207 80.8604 46.6589 81.1449 46.5352 81.417C46.4238 81.6768 46.2692 81.9056 46.0713 82.1035C45.8857 82.2891 45.6631 82.4437 45.4033 82.5674C45.1436 82.6787 44.8652 82.7344 44.5684 82.7344C44.2715 82.7344 43.987 82.6787 43.7148 82.5674C43.4551 82.4437 43.2262 82.2891 43.0283 82.1035C42.8428 81.9056 42.6882 81.6768 42.5645 81.417C42.4531 81.1449 42.3975 80.8604 42.3975 80.5635Z" fill="#0B0C0C"/>
<path d="M51.8047 86.0371H54.9219V88.208C55.5651 87.3298 56.3568 86.6865 57.2969 86.2783C58.2493 85.8701 59.307 85.666 60.4697 85.666C61.5212 85.666 62.4427 85.8392 63.2344 86.1855C64.026 86.5319 64.6878 87.002 65.2197 87.5957C65.7516 88.1895 66.1475 88.876 66.4072 89.6553C66.6794 90.4346 66.8154 91.2572 66.8154 92.123V105H63.6982V93.1064C63.6982 92.2777 63.5931 91.5726 63.3828 90.9912C63.1849 90.3975 62.9066 89.9212 62.5479 89.5625C62.2015 89.1914 61.7871 88.9255 61.3047 88.7646C60.8346 88.5915 60.3275 88.5049 59.7832 88.5049C59.1895 88.5049 58.6019 88.6162 58.0205 88.8389C57.4515 89.0492 56.932 89.3708 56.4619 89.8037C56.0042 90.2367 55.6331 90.7809 55.3486 91.4365C55.0641 92.0921 54.9219 92.8652 54.9219 93.7559V105H51.8047V86.0371Z" fill="#0B0C0C"/>
<path d="M74.4785 96.4834C74.5404 97.374 74.7197 98.1966 75.0166 98.9512C75.3135 99.7057 75.7155 100.361 76.2227 100.918C76.7422 101.462 77.3483 101.889 78.041 102.198C78.7461 102.495 79.5254 102.644 80.3789 102.644C81.4303 102.644 82.3519 102.47 83.1436 102.124C83.9476 101.765 84.6836 101.32 85.3516 100.788L86.9473 103.033C86.0938 103.714 85.1042 104.276 83.9785 104.722C82.8652 105.155 81.6159 105.371 80.2305 105.371C78.8574 105.371 77.6143 105.13 76.501 104.647C75.3877 104.153 74.4352 103.472 73.6436 102.606C72.8643 101.728 72.2643 100.689 71.8438 99.4893C71.4232 98.277 71.2129 96.9596 71.2129 95.5371C71.2129 94.0898 71.417 92.7663 71.8252 91.5664C72.2458 90.3542 72.8333 89.3151 73.5879 88.4492C74.3424 87.571 75.2454 86.8906 76.2969 86.4082C77.3483 85.9134 78.5173 85.666 79.8037 85.666C81.0531 85.666 82.1787 85.9134 83.1807 86.4082C84.1826 86.8906 85.0361 87.571 85.7412 88.4492C86.4463 89.3151 86.9844 90.3542 87.3555 91.5664C87.7389 92.7663 87.9307 94.0775 87.9307 95.5V96.4834H74.4785ZM79.6924 88.3936C78.9007 88.3936 78.1956 88.5482 77.5771 88.8574C76.9587 89.1667 76.4268 89.5811 75.9814 90.1006C75.5485 90.6201 75.2021 91.2201 74.9424 91.9004C74.695 92.5684 74.5527 93.2611 74.5156 93.9785H84.5537C84.529 93.2487 84.3991 92.5498 84.1641 91.8818C83.9414 91.2015 83.6198 90.6077 83.1992 90.1006C82.791 89.5811 82.29 89.1667 81.6963 88.8574C81.1149 88.5482 80.4469 88.3936 79.6924 88.3936Z" fill="#0B0C0C"/>
<path d="M104.982 99.749C104.982 100.64 104.785 101.438 104.389 102.143C104.005 102.835 103.492 103.423 102.849 103.905C102.205 104.388 101.463 104.753 100.622 105C99.7933 105.247 98.9398 105.371 98.0615 105.371C96.6761 105.371 95.3402 105.136 94.0537 104.666C92.7796 104.184 91.6478 103.497 90.6582 102.606L92.3652 100.398C92.6621 100.658 93.0023 100.93 93.3857 101.215C93.7816 101.499 94.2207 101.765 94.7031 102.013C95.1855 102.248 95.7051 102.446 96.2617 102.606C96.8184 102.755 97.4059 102.829 98.0244 102.829C98.5316 102.829 99.014 102.767 99.4717 102.644C99.9417 102.507 100.35 102.316 100.696 102.068C101.043 101.809 101.315 101.506 101.513 101.159C101.723 100.8 101.828 100.398 101.828 99.9531C101.828 99.4583 101.717 99.0439 101.494 98.71C101.284 98.376 100.993 98.0915 100.622 97.8564C100.251 97.6214 99.818 97.4173 99.3232 97.2441C98.8285 97.071 98.3089 96.8978 97.7646 96.7246L96.5771 96.335C95.9092 96.1123 95.266 95.8587 94.6475 95.5742C94.029 95.2897 93.4785 94.9434 92.9961 94.5352C92.526 94.1146 92.1488 93.6198 91.8643 93.0508C91.5921 92.4818 91.4561 91.8014 91.4561 91.0098C91.4561 90.3665 91.5921 89.7295 91.8643 89.0986C92.1364 88.4554 92.5508 87.8802 93.1074 87.373C93.6764 86.8659 94.3939 86.4577 95.2598 86.1484C96.1257 85.8268 97.1462 85.666 98.3213 85.666C99.6201 85.666 100.82 85.8825 101.921 86.3154C103.034 86.7484 103.974 87.2865 104.741 87.9297L103.108 90.1748C102.836 89.915 102.515 89.6676 102.144 89.4326C101.772 89.1976 101.377 88.9935 100.956 88.8203C100.535 88.6348 100.096 88.4863 99.6387 88.375C99.181 88.2637 98.7295 88.208 98.2842 88.208C97.6038 88.208 97.0286 88.2884 96.5586 88.4492C96.0885 88.5977 95.7113 88.7956 95.4268 89.043C95.1423 89.2904 94.932 89.5687 94.7959 89.8779C94.6722 90.1872 94.6104 90.4902 94.6104 90.7871C94.6104 91.2201 94.7031 91.585 94.8887 91.8818C95.0742 92.1663 95.3154 92.4137 95.6123 92.624C95.9215 92.8343 96.2679 93.0137 96.6514 93.1621C97.0472 93.3105 97.4554 93.459 97.876 93.6074L99.4346 94.127C100.177 94.3743 100.857 94.6403 101.476 94.9248C102.094 95.1969 102.638 95.5124 103.108 95.8711C103.702 96.3411 104.16 96.8854 104.481 97.5039C104.815 98.1224 104.982 98.8708 104.982 99.749Z" fill="#0B0C0C"/>
</g>
<defs>
<clipPath id="clip0_1334_18692">
<rect width="207.375" height="207.375" fill="white"/>
</clipPath>
<clipPath id="clip1_1334_18692">
<rect width="207.375" height="207.375" fill="white"/>
</clipPath>
</defs>
</svg>
