<svg width="570" height="59" viewBox="0 0 570 59" fill="none" xmlns="http://www.w3.org/2000/svg">
<path d="M557.898 32.691C557.362 29.8009 556.399 27.6066 555.007 26.1081C553.669 24.6095 551.609 23.8602 548.826 23.8602C547.006 23.8602 545.481 24.1813 544.25 24.8236C543.073 25.4123 542.109 26.1616 541.36 27.0714C540.664 27.9812 540.156 28.9446 539.835 29.9615C539.567 30.9784 539.406 31.8882 539.353 32.691H557.898ZM539.353 39.9162C539.513 43.6091 540.45 46.2851 542.163 47.9442C543.875 49.6033 546.337 50.4329 549.548 50.4329C551.85 50.4329 553.83 49.8709 555.489 48.747C557.148 47.5695 558.165 46.3386 558.54 45.0541H568.575C566.969 50.0315 564.507 53.5905 561.189 55.7313C557.871 57.8721 553.857 58.9425 549.147 58.9425C545.882 58.9425 542.939 58.4341 540.316 57.4172C537.694 56.3468 535.473 54.8483 533.653 52.9215C531.833 50.9948 530.415 48.6935 529.398 46.0175C528.435 43.3415 527.953 40.3979 527.953 37.1867C527.953 34.0825 528.462 31.1924 529.478 28.5164C530.495 25.8405 531.94 23.5391 533.814 21.6124C535.687 19.6321 537.908 18.0801 540.477 16.9561C543.099 15.8322 545.989 15.2703 549.147 15.2703C552.679 15.2703 555.757 15.966 558.379 17.3575C561.002 18.6955 563.142 20.5152 564.802 22.8166C566.514 25.1179 567.745 27.7404 568.495 30.684C569.244 33.6276 569.511 36.705 569.297 39.9162H539.353Z" fill="#858686"/>
<path d="M521.308 57.8988H510.47V52.1186H510.229C508.784 54.527 506.911 56.2664 504.61 57.3368C502.309 58.4072 499.954 58.9424 497.545 58.9424C494.495 58.9424 491.979 58.541 489.999 57.7382C488.072 56.9354 486.547 55.8115 485.423 54.3664C484.299 52.8679 483.496 51.075 483.015 48.9877C482.586 46.8469 482.372 44.492 482.372 41.9231V16.394H493.772V39.8358C493.772 43.2611 494.307 45.83 495.378 47.5427C496.448 49.2018 498.348 50.0313 501.078 50.0313C504.182 50.0313 506.43 49.1215 507.821 47.3018C509.213 45.4286 509.908 42.378 509.908 38.1499V16.394H521.308V57.8988Z" fill="#858686"/>
<path d="M464.211 32.691C463.676 29.8009 462.713 27.6066 461.321 26.1081C459.983 24.6095 457.923 23.8602 455.14 23.8602C453.32 23.8602 451.795 24.1813 450.564 24.8236C449.386 25.4123 448.423 26.1616 447.674 27.0714C446.978 27.9812 446.47 28.9446 446.148 29.9615C445.881 30.9784 445.72 31.8882 445.667 32.691H464.211ZM445.667 39.9162C445.827 43.6091 446.764 46.2851 448.477 47.9442C450.189 49.6033 452.651 50.4329 455.862 50.4329C458.164 50.4329 460.144 49.8709 461.803 48.747C463.462 47.5695 464.479 46.3386 464.854 45.0541H474.889C473.283 50.0315 470.821 53.5905 467.503 55.7313C464.185 57.8721 460.171 58.9425 455.461 58.9425C452.196 58.9425 449.253 58.4341 446.63 57.4172C444.008 56.3468 441.787 54.8483 439.967 52.9215C438.147 50.9948 436.729 48.6935 435.712 46.0175C434.749 43.3415 434.267 40.3979 434.267 37.1867C434.267 34.0825 434.776 31.1924 435.792 28.5164C436.809 25.8405 438.254 23.5391 440.128 21.6124C442.001 19.6321 444.222 18.0801 446.791 16.9561C449.413 15.8322 452.303 15.2703 455.461 15.2703C458.993 15.2703 462.071 15.966 464.693 17.3575C467.316 18.6955 469.456 20.5152 471.116 22.8166C472.828 25.1179 474.059 27.7404 474.808 30.684C475.558 33.6276 475.825 36.705 475.611 39.9162H445.667Z" fill="#858686"/>
<path d="M377.974 0.579102H390.498L414.421 39.0332H414.582V0.579102H426.383V57.899H413.779L389.936 19.5252H389.775V57.899H377.974V0.579102Z" fill="#858686"/>
<path d="M307.846 29.1587C308.007 26.4827 308.676 24.2616 309.853 22.4955C311.031 20.7293 312.529 19.311 314.349 18.2406C316.169 17.1702 318.202 16.4209 320.45 15.9928C322.752 15.5111 325.053 15.2703 327.354 15.2703C329.442 15.2703 331.556 15.4308 333.697 15.7519C335.837 16.0195 337.791 16.5815 339.557 17.4378C341.323 18.2941 342.768 19.4983 343.892 21.0504C345.016 22.549 345.578 24.556 345.578 27.0714V48.6667C345.578 50.5399 345.685 52.3328 345.899 54.0455C346.113 55.7581 346.488 57.0426 347.023 57.8989H335.463C335.249 57.2567 335.061 56.6144 334.901 55.9722C334.794 55.2764 334.713 54.5807 334.66 53.8849C332.84 55.7581 330.699 57.0693 328.237 57.8186C325.776 58.5679 323.26 58.9425 320.691 58.9425C318.711 58.9425 316.864 58.7017 315.152 58.22C313.439 57.7383 311.941 56.9891 310.656 55.9722C309.372 54.9553 308.355 53.6708 307.606 52.1187C306.91 50.5667 306.562 48.7202 306.562 46.5794C306.562 44.2246 306.963 42.2978 307.766 40.7993C308.622 39.2472 309.693 38.0162 310.977 37.1064C312.315 36.1966 313.814 35.5276 315.473 35.0994C317.186 34.6177 318.898 34.2431 320.611 33.9755C322.324 33.7079 324.009 33.4938 325.668 33.3332C327.328 33.1727 328.799 32.9318 330.084 32.6107C331.368 32.2896 332.385 31.8347 333.135 31.246C333.884 30.6037 334.232 29.6939 334.178 28.5164C334.178 27.2855 333.964 26.3221 333.536 25.6264C333.161 24.8771 332.626 24.3151 331.93 23.9405C331.288 23.5123 330.512 23.2447 329.602 23.1377C328.746 22.9771 327.809 22.8969 326.792 22.8969C324.545 22.8969 322.778 23.3785 321.494 24.3419C320.209 25.3053 319.46 26.9109 319.246 29.1587H307.846ZM334.178 37.5881C333.696 38.0162 333.081 38.3641 332.332 38.6317C331.636 38.8458 330.86 39.0331 330.004 39.1937C329.201 39.3542 328.345 39.488 327.435 39.5951C326.525 39.7021 325.615 39.8359 324.705 39.9965C323.849 40.157 322.992 40.3711 322.136 40.6387C321.333 40.9063 320.611 41.281 319.969 41.7626C319.38 42.1908 318.898 42.7528 318.524 43.4485C318.149 44.1443 317.962 45.0274 317.962 46.0978C317.962 47.1146 318.149 47.971 318.524 48.6667C318.898 49.3625 319.407 49.9244 320.049 50.3526C320.691 50.7272 321.44 50.9948 322.297 51.1554C323.153 51.3159 324.036 51.3962 324.946 51.3962C327.194 51.3962 328.933 51.0216 330.164 50.2723C331.395 49.523 332.305 48.6399 332.894 47.6231C333.482 46.5527 333.83 45.4823 333.937 44.4119C334.098 43.3415 334.178 42.4852 334.178 41.8429V37.5881Z" fill="#858686"/>
<path d="M290.488 31.0051C289.739 26.2419 286.929 23.8602 282.059 23.8602C280.239 23.8602 278.714 24.2884 277.483 25.1447C276.252 25.9475 275.235 27.0179 274.432 28.3559C273.683 29.6404 273.148 31.0854 272.827 32.691C272.506 34.2431 272.345 35.7952 272.345 37.3472C272.345 38.8458 272.506 40.3711 272.827 41.9232C273.148 43.4753 273.656 44.8936 274.352 46.178C275.101 47.409 276.091 48.4259 277.322 49.2287C278.553 50.0315 280.052 50.4329 281.818 50.4329C284.548 50.4329 286.635 49.6836 288.08 48.185C289.578 46.6329 290.515 44.5724 290.89 42.0035H301.888C301.139 47.516 298.998 51.7173 295.466 54.6074C291.933 57.4975 287.411 58.9425 281.898 58.9425C278.794 58.9425 275.931 58.4341 273.308 57.4172C270.739 56.3468 268.545 54.875 266.725 53.0018C264.906 51.1286 263.488 48.9076 262.471 46.3386C261.454 43.7161 260.945 40.8528 260.945 37.7486C260.945 34.5374 261.4 31.5671 262.31 28.8376C263.273 26.0545 264.665 23.6729 266.485 21.6927C268.304 19.6589 270.525 18.0801 273.148 16.9561C275.77 15.8322 278.767 15.2703 282.139 15.2703C284.601 15.2703 286.956 15.5914 289.204 16.2336C291.505 16.8759 293.539 17.866 295.305 19.204C297.125 20.4885 298.597 22.1208 299.721 24.1011C300.844 26.0278 301.487 28.3291 301.647 31.0051H290.488Z" fill="#858686"/>
<path d="M253.253 9.97186H241.854V0.579102H253.253V9.97186ZM241.854 16.3942H253.253V57.899H241.854V16.3942Z" fill="#858686"/>
<path d="M227.76 16.3941H236.109V24.0207H227.76V44.5723C227.76 46.499 228.081 47.7835 228.723 48.4258C229.365 49.068 230.65 49.3891 232.576 49.3891C233.219 49.3891 233.834 49.3624 234.423 49.3088C235.012 49.2553 235.573 49.175 236.109 49.068V57.8988C235.145 58.0593 234.075 58.1664 232.897 58.2199C231.72 58.2734 230.569 58.3002 229.445 58.3002C227.679 58.3002 225.993 58.1664 224.388 57.8988C222.836 57.6847 221.444 57.2298 220.213 56.534C219.036 55.8383 218.099 54.8482 217.403 53.5637C216.708 52.2792 216.36 50.5933 216.36 48.506V24.0207H209.456V16.3941H216.36V3.95068H227.76V16.3941Z" fill="#858686"/>
<path d="M195.148 32.691C194.613 29.8009 193.65 27.6066 192.258 26.1081C190.92 24.6095 188.86 23.8602 186.077 23.8602C184.257 23.8602 182.732 24.1813 181.501 24.8236C180.323 25.4123 179.36 26.1616 178.611 27.0714C177.915 27.9812 177.407 28.9446 177.085 29.9615C176.818 30.9784 176.657 31.8882 176.604 32.691H195.148ZM176.604 39.9162C176.764 43.6091 177.701 46.2851 179.414 47.9442C181.126 49.6033 183.588 50.4329 186.799 50.4329C189.101 50.4329 191.081 49.8709 192.74 48.747C194.399 47.5695 195.416 46.3386 195.791 45.0541H205.826C204.22 50.0315 201.758 53.5905 198.44 55.7313C195.122 57.8721 191.108 58.9425 186.398 58.9425C183.133 58.9425 180.19 58.4341 177.567 57.4172C174.945 56.3468 172.724 54.8483 170.904 52.9215C169.084 50.9948 167.666 48.6935 166.649 46.0175C165.686 43.3415 165.204 40.3979 165.204 37.1867C165.204 34.0825 165.712 31.1924 166.729 28.5164C167.746 25.8405 169.191 23.5391 171.064 21.6124C172.938 19.6321 175.159 18.0801 177.728 16.9561C180.35 15.8322 183.24 15.2703 186.398 15.2703C189.93 15.2703 193.008 15.966 195.63 17.3575C198.253 18.6955 200.393 20.5152 202.052 22.8166C203.765 25.1179 204.996 27.7404 205.745 30.684C206.495 33.6276 206.762 36.705 206.548 39.9162H176.604Z" fill="#858686"/>
<path d="M148.463 57.8988H135.779L121.569 16.394H133.531L142.282 44.7329H142.442L151.193 16.394H162.512L148.463 57.8988Z" fill="#858686"/>
<path d="M105.127 0.579102H116.527V57.899H105.127V0.579102Z" fill="#858686"/>
<path d="M86.6451 32.691C86.1099 29.8009 85.1465 27.6066 83.755 26.1081C82.417 24.6095 80.3565 23.8602 77.5735 23.8602C75.7538 23.8602 74.2285 24.1813 72.9975 24.8236C71.8201 25.4123 70.8567 26.1616 70.1074 27.0714C69.4117 27.9812 68.9032 28.9446 68.5821 29.9615C68.3145 30.9784 68.1539 31.8882 68.1004 32.691H86.6451ZM68.1004 39.9162C68.261 43.6091 69.1976 46.2851 70.9102 47.9442C72.6229 49.6033 75.0848 50.4329 78.296 50.4329C80.5973 50.4329 82.5776 49.8709 84.2367 48.747C85.8958 47.5695 86.9127 46.3386 87.2873 45.0541H97.3223C95.7167 50.0315 93.2548 53.5905 89.9366 55.7313C86.6183 57.8721 82.6043 58.9425 77.8946 58.9425C74.6299 58.9425 71.6863 58.4341 69.0638 57.4172C66.4413 56.3468 64.2202 54.8483 62.4006 52.9215C60.5809 50.9948 59.1626 48.6935 58.1457 46.0175C57.1824 43.3415 56.7007 40.3979 56.7007 37.1867C56.7007 34.0825 57.2091 31.1924 58.226 28.5164C59.2429 25.8405 60.6879 23.5391 62.5611 21.6124C64.4343 19.6321 66.6554 18.0801 69.2244 16.9561C71.8468 15.8322 74.7369 15.2703 77.8946 15.2703C81.4269 15.2703 84.5043 15.966 87.1268 17.3575C89.7493 18.6955 91.89 20.5152 93.5492 22.8166C95.2618 25.1179 96.4928 27.7404 97.242 30.684C97.9913 33.6276 98.2589 36.705 98.0448 39.9162H68.1004Z" fill="#858686"/>
<path d="M0.407471 0.579102H13.0114V22.5758H36.2123V0.579102H48.8163V57.899H36.2123V33.1727H13.0114V57.899H0.407471V0.579102Z" fill="#858686"/>
</svg>
