<svg width="481" height="116" viewBox="0 0 481 116" fill="none" xmlns="http://www.w3.org/2000/svg">
<g clip-path="url(#clip0_1391_820)">
<rect width="480.48" height="116" fill="white"/>
<rect opacity="0.8" x="0.480469" width="480" height="116" fill="white"/>
<path d="M470.324 32.0907C469.871 29.6525 469.059 27.8013 467.885 26.5371C466.756 25.2728 465.018 24.6406 462.67 24.6406C461.135 24.6406 459.848 24.9115 458.809 25.4534C457.816 25.9501 457.003 26.5822 456.371 27.3498C455.784 28.1173 455.356 28.9301 455.085 29.788C454.859 30.6459 454.723 31.4134 454.678 32.0907H470.324ZM454.678 38.1862C454.813 41.3017 455.604 43.5593 457.049 44.959C458.493 46.3587 460.57 47.0586 463.279 47.0586C465.221 47.0586 466.892 46.5845 468.291 45.6363C469.691 44.6429 470.549 43.6045 470.865 42.5208H479.331C477.976 46.72 475.899 49.7225 473.1 51.5286C470.301 53.3347 466.914 54.2377 462.941 54.2377C460.186 54.2377 457.703 53.8088 455.491 52.9509C453.278 52.0478 451.405 50.7836 449.869 49.1581C448.334 47.5327 447.138 45.5912 446.28 43.3336C445.467 41.076 445.061 38.5926 445.061 35.8835C445.061 33.2646 445.49 30.8264 446.347 28.5688C447.205 26.3113 448.424 24.3697 450.005 22.7443C451.585 21.0736 453.459 19.7643 455.626 18.816C457.838 17.8678 460.277 17.3938 462.941 17.3938C465.921 17.3938 468.517 17.9807 470.729 19.1547C472.942 20.2835 474.748 21.8186 476.148 23.7602C477.592 25.7017 478.631 27.9142 479.264 30.3975C479.896 32.8809 480.121 35.4771 479.94 38.1862H454.678Z" fill="#0B0C0C"/>
<path d="M439.454 53.3574H430.31V48.481H430.107C428.888 50.5128 427.308 51.9803 425.366 52.8833C423.425 53.7863 421.438 54.2379 419.406 54.2379C416.833 54.2379 414.71 53.8992 413.04 53.2219C411.414 52.5447 410.128 51.5965 409.179 50.3773C408.231 49.1131 407.554 47.6006 407.148 45.8396C406.786 44.0335 406.605 42.0468 406.605 39.8796V18.342H416.223V38.1186C416.223 41.0084 416.674 43.1756 417.578 44.6205C418.481 46.0202 420.084 46.72 422.387 46.72C425.005 46.72 426.902 45.9525 428.075 44.4173C429.25 42.837 429.836 40.2634 429.836 36.6963V18.342H439.454V53.3574Z" fill="#0B0C0C"/>
<path d="M391.286 32.0907C390.834 29.6525 390.022 27.8013 388.847 26.5371C387.719 25.2728 385.981 24.6406 383.633 24.6406C382.097 24.6406 380.811 24.9115 379.772 25.4534C378.779 25.9501 377.966 26.5822 377.334 27.3498C376.747 28.1173 376.318 28.9301 376.047 29.788C375.822 30.6459 375.686 31.4134 375.641 32.0907H391.286ZM375.641 38.1862C375.776 41.3017 376.566 43.5593 378.012 44.959C379.456 46.3587 381.533 47.0586 384.242 47.0586C386.184 47.0586 387.854 46.5845 389.254 45.6363C390.654 44.6429 391.512 43.6045 391.828 42.5208H400.294C398.939 46.72 396.862 49.7225 394.063 51.5286C391.264 53.3347 387.877 54.2377 383.904 54.2377C381.149 54.2377 378.666 53.8088 376.453 52.9509C374.241 52.0478 372.368 50.7836 370.832 49.1581C369.297 47.5327 368.101 45.5912 367.243 43.3336C366.43 41.076 366.023 38.5926 366.023 35.8835C366.023 33.2646 366.453 30.8264 367.31 28.5688C368.168 26.3113 369.387 24.3697 370.968 22.7443C372.548 21.0736 374.422 19.7643 376.589 18.816C378.801 17.8678 381.239 17.3938 383.904 17.3938C386.883 17.3938 389.48 17.9807 391.692 19.1547C393.905 20.2835 395.711 21.8186 397.111 23.7602C398.555 25.7017 399.594 27.9142 400.226 30.3975C400.858 32.8809 401.084 35.4771 400.903 38.1862H375.641Z" fill="#0B0C0C"/>
<path d="M318.531 5H329.097L349.28 37.4417H349.415V5H359.371V53.3577H348.738L328.623 20.9838H328.487V53.3577H318.531V5Z" fill="#0B0C0C"/>
<path d="M259.368 29.1107C259.504 26.8531 260.069 24.9793 261.062 23.4893C262.055 21.9993 263.319 20.8027 264.855 19.8997C266.39 18.9966 268.105 18.3645 270.002 18.0033C271.944 17.5969 273.885 17.3938 275.826 17.3938C277.588 17.3938 279.371 17.5292 281.177 17.8001C282.983 18.0259 284.631 18.5 286.121 19.2224C287.611 19.9448 288.83 20.9607 289.778 22.2702C290.727 23.5344 291.201 25.2276 291.201 27.3498V45.5686C291.201 47.1489 291.291 48.6615 291.472 50.1064C291.652 51.5512 291.969 52.6349 292.42 53.3573H282.667C282.487 52.8155 282.328 52.2736 282.193 51.7318C282.103 51.1448 282.035 50.5579 281.99 49.9709C280.454 51.5512 278.648 52.6574 276.571 53.2895C274.495 53.9217 272.372 54.2377 270.205 54.2377C268.535 54.2377 266.976 54.0346 265.532 53.6282C264.087 53.2218 262.823 52.5897 261.739 51.7318C260.656 50.8739 259.798 49.7902 259.166 48.4808C258.579 47.1715 258.285 45.6137 258.285 43.8076C258.285 41.821 258.623 40.1955 259.301 38.9313C260.023 37.6218 260.927 36.5833 262.01 35.8158C263.139 35.0482 264.403 34.4838 265.803 34.1226C267.248 33.7162 268.692 33.4001 270.138 33.1744C271.583 32.9486 273.004 32.768 274.404 32.6325C275.804 32.4971 277.045 32.2939 278.129 32.023C279.213 31.7521 280.071 31.3683 280.703 30.8716C281.335 30.3298 281.629 29.5622 281.583 28.5688C281.583 27.5304 281.403 26.7176 281.042 26.1307C280.725 25.4985 280.274 25.0244 279.687 24.7084C279.145 24.3471 278.49 24.1214 277.723 24.0311C277.001 23.8956 276.21 23.828 275.352 23.828C273.456 23.828 271.966 24.2343 270.882 25.047C269.798 25.8598 269.167 27.2144 268.986 29.1107H259.368ZM281.583 36.2221C281.177 36.5833 280.658 36.8768 280.026 37.1026C279.439 37.2832 278.784 37.4412 278.062 37.5767C277.384 37.7121 276.662 37.825 275.895 37.9153C275.127 38.0056 274.359 38.1185 273.591 38.254C272.869 38.3894 272.146 38.57 271.424 38.7958C270.747 39.0215 270.138 39.3376 269.596 39.7439C269.099 40.1052 268.692 40.5793 268.377 41.1662C268.06 41.7533 267.903 42.4983 267.903 43.4013C267.903 44.2591 268.06 44.9816 268.377 45.5686C268.692 46.1556 269.122 46.6296 269.663 46.9909C270.205 47.3069 270.837 47.5327 271.56 47.6681C272.282 47.8035 273.027 47.8713 273.795 47.8713C275.691 47.8713 277.158 47.5553 278.197 46.9231C279.235 46.291 280.003 45.5459 280.5 44.6881C280.996 43.7851 281.29 42.8821 281.38 41.979C281.516 41.076 281.583 40.3536 281.583 39.8117V36.2221Z" fill="#0B0C0C"/>
<path d="M244.723 30.6684C244.091 26.65 241.72 24.6406 237.612 24.6406C236.076 24.6406 234.79 25.0019 233.751 25.7243C232.713 26.4016 231.855 27.3046 231.177 28.4334C230.545 29.5171 230.094 30.7362 229.823 32.0907C229.552 33.4001 229.416 34.7096 229.416 36.0189C229.416 37.2832 229.552 38.57 229.823 39.8794C230.094 41.1889 230.522 42.3854 231.11 43.469C231.741 44.5075 232.577 45.3654 233.615 46.0427C234.654 46.72 235.918 47.0586 237.408 47.0586C239.711 47.0586 241.472 46.4265 242.691 45.1622C243.955 43.8528 244.745 42.1144 245.062 39.9472H254.34C253.708 44.5978 251.902 48.1422 248.922 50.5804C245.942 53.0186 242.127 54.2377 237.476 54.2377C234.857 54.2377 232.442 53.8088 230.229 52.9509C228.062 52.0478 226.211 50.8062 224.675 49.2259C223.141 47.6455 221.944 45.7718 221.086 43.6045C220.228 41.392 219.799 38.9764 219.799 36.3575C219.799 33.6484 220.183 31.1425 220.95 28.8398C221.763 26.4919 222.937 24.4826 224.473 22.812C226.007 21.0962 227.881 19.7643 230.094 18.816C232.306 17.8678 234.834 17.3938 237.679 17.3938C239.756 17.3938 241.743 17.6647 243.639 18.2065C245.581 18.7484 247.297 19.5837 248.787 20.7125C250.322 21.7961 251.564 23.1732 252.512 24.8439C253.459 26.4693 254.002 28.4108 254.137 30.6684H244.723Z" fill="#0B0C0C"/>
<path d="M213.31 12.9242H203.693V5H213.31V12.9242ZM203.693 18.3424H213.31V53.3577H203.693V18.3424Z" fill="#0B0C0C"/>
<path d="M191.803 18.3421H198.847V24.7762H191.803V42.1145C191.803 43.74 192.074 44.8236 192.616 45.3655C193.157 45.9073 194.242 46.1782 195.866 46.1782C196.409 46.1782 196.928 46.1557 197.425 46.1105C197.922 46.0653 198.395 45.9976 198.847 45.9073V53.3574C198.034 53.4928 197.131 53.5831 196.137 53.6283C195.144 53.6734 194.173 53.696 193.225 53.696C191.735 53.696 190.313 53.5831 188.959 53.3574C187.649 53.1768 186.475 52.793 185.436 52.206C184.443 51.6191 183.653 50.7838 183.066 49.7001C182.479 48.6164 182.186 47.1941 182.186 45.4332V24.7762H176.361V18.3421H182.186V7.84424H191.803V18.3421Z" fill="#0B0C0C"/>
<path d="M164.291 32.0907C163.84 29.6525 163.028 27.8013 161.853 26.5371C160.725 25.2728 158.987 24.6406 156.639 24.6406C155.103 24.6406 153.817 24.9115 152.778 25.4534C151.784 25.9501 150.972 26.5822 150.34 27.3498C149.753 28.1173 149.324 28.9301 149.053 29.788C148.827 30.6459 148.692 31.4134 148.647 32.0907H164.291ZM148.647 38.1862C148.782 41.3017 149.572 43.5593 151.018 44.959C152.462 46.3587 154.539 47.0586 157.248 47.0586C159.19 47.0586 160.86 46.5845 162.26 45.6363C163.66 44.6429 164.518 43.6045 164.834 42.5208H173.3C171.945 46.72 169.868 49.7225 167.069 51.5286C164.27 53.3347 160.883 54.2377 156.91 54.2377C154.155 54.2377 151.672 53.8088 149.459 52.9509C147.247 52.0478 145.374 50.7836 143.838 49.1581C142.303 47.5327 141.106 45.5912 140.248 43.3336C139.436 41.076 139.029 38.5926 139.029 35.8835C139.029 33.2646 139.458 30.8264 140.316 28.5688C141.174 26.3113 142.393 24.3697 143.973 22.7443C145.554 21.0736 147.428 19.7643 149.595 18.816C151.807 17.8678 154.245 17.3938 156.91 17.3938C159.889 17.3938 162.486 17.9807 164.698 19.1547C166.911 20.2835 168.716 21.8186 170.116 23.7602C171.561 25.7017 172.6 27.9142 173.232 30.3975C173.864 32.8809 174.09 35.4771 173.909 38.1862H148.647Z" fill="#0B0C0C"/>
<path d="M124.904 53.3574H114.203L102.215 18.342H112.307L119.689 42.2501H119.824L127.207 18.342H136.756L124.904 53.3574Z" fill="#0B0C0C"/>
<path d="M88.3438 5H97.9613V53.3577H88.3438V5Z" fill="#0B0C0C"/>
<path d="M72.7527 32.0907C72.3012 29.6525 71.4884 27.8013 70.3145 26.5371C69.1857 25.2728 67.4474 24.6406 65.0995 24.6406C63.5643 24.6406 62.2775 24.9115 61.239 25.4534C60.2457 25.9501 59.4329 26.5822 58.8008 27.3498C58.2138 28.1173 57.7848 28.9301 57.5139 29.788C57.2882 30.6459 57.1527 31.4134 57.1076 32.0907H72.7527ZM57.1076 38.1862C57.243 41.3017 58.0332 43.5593 59.478 44.959C60.9229 46.3587 62.9999 47.0586 65.709 47.0586C67.6505 47.0586 69.3212 46.5845 70.7209 45.6363C72.1206 44.6429 72.9785 43.6045 73.2945 42.5208H81.7605C80.406 46.72 78.329 49.7225 75.5296 51.5286C72.7301 53.3347 69.3437 54.2377 65.3704 54.2377C62.6161 54.2377 60.1328 53.8088 57.9203 52.9509C55.7079 52.0478 53.834 50.7836 52.2989 49.1581C50.7638 47.5327 49.5672 45.5912 48.7093 43.3336C47.8966 41.076 47.4902 38.5926 47.4902 35.8835C47.4902 33.2646 47.9191 30.8264 48.7771 28.5688C49.635 26.3113 50.854 24.3697 52.4343 22.7443C54.0147 21.0736 55.8885 19.7643 58.0558 18.816C60.2682 17.8678 62.7064 17.3938 65.3704 17.3938C68.3504 17.3938 70.9466 17.9807 73.1591 19.1547C75.3716 20.2835 77.1776 21.8186 78.5774 23.7602C80.0222 25.7017 81.0607 27.9142 81.6928 30.3975C82.3249 32.8809 82.5507 35.4771 82.37 38.1862H57.1076Z" fill="#0B0C0C"/>
<path d="M0 5H10.6333V23.5574H30.2066V5H40.8399V53.3577H30.2066V32.4975H10.6333V53.3577H0V5Z" fill="#0B0C0C"/>
<path d="M49.0926 110.447H38.4515L34.2214 99.4422H14.8559L10.8572 110.447H0.480469L19.3503 62H29.694L49.0926 110.447ZM31.082 91.2796L24.4065 73.3021L17.8632 91.2796H31.082Z" fill="#505A5F"/>
<path d="M63.1375 110.447H53.8513V75.351H62.4766V80.3411C63.9527 77.9837 65.2746 76.4305 66.4422 75.6814C67.6319 74.9324 68.9758 74.5579 70.474 74.5579C72.589 74.5579 74.6269 75.1417 76.5877 76.3093L73.7126 84.4059C72.1484 83.3924 70.6943 82.8857 69.3504 82.8857C68.0505 82.8857 66.949 83.2492 66.0457 83.9762C65.1424 84.6812 64.4264 85.9701 63.8976 87.8427C63.3909 89.7154 63.1375 93.637 63.1375 99.6075V110.447Z" fill="#505A5F"/>
<path d="M80.6194 70.5922V62H89.9056V70.5922H80.6194ZM80.6194 110.447V75.351H89.9056V110.447H80.6194Z" fill="#505A5F"/>
<path d="M106.396 86.0582L97.9691 84.538C98.9164 81.1452 100.547 78.6336 102.86 77.0033C105.173 75.373 108.61 74.5579 113.171 74.5579C117.313 74.5579 120.397 75.0536 122.424 76.045C124.451 77.0143 125.872 78.2591 126.687 79.7793C127.524 81.2774 127.943 84.0423 127.943 88.0741L127.844 98.9135C127.844 101.998 127.987 104.278 128.273 105.754C128.582 107.208 129.143 108.772 129.959 110.447H120.771C120.529 109.83 120.232 108.916 119.879 107.704C119.725 107.153 119.615 106.79 119.549 106.613C117.962 108.156 116.266 109.312 114.46 110.083C112.653 110.854 110.725 111.24 108.676 111.24C105.063 111.24 102.21 110.26 100.117 108.299C98.0462 106.338 97.0107 103.86 97.0107 100.863C97.0107 98.8804 97.4844 97.1179 98.4317 95.5757C99.3791 94.0115 100.701 92.8218 102.397 92.0067C104.116 91.1695 106.583 90.4424 109.8 89.8256C114.14 89.0104 117.147 88.2503 118.822 87.5453V86.62C118.822 84.8355 118.381 83.5687 117.5 82.8196C116.619 82.0485 114.955 81.663 112.51 81.663C110.857 81.663 109.569 81.9934 108.643 82.6544C107.718 83.2933 106.969 84.4279 106.396 86.0582ZM118.822 93.5929C117.632 93.9895 115.748 94.4632 113.171 95.0139C110.593 95.5647 108.908 96.1045 108.114 96.6332C106.903 97.4925 106.297 98.583 106.297 99.9049C106.297 101.205 106.782 102.328 107.751 103.276C108.72 104.223 109.954 104.697 111.452 104.697C113.127 104.697 114.724 104.146 116.244 103.044C117.368 102.207 118.106 101.183 118.458 99.971C118.701 99.1779 118.822 97.6687 118.822 95.4435V93.5929Z" fill="#505A5F"/>
<path d="M137.13 110.447V62H146.416V110.447H137.13Z" fill="#505A5F"/>
</g>
<defs>
<clipPath id="clip0_1391_820">
<rect width="480.48" height="116" fill="white"/>
</clipPath>
</defs>
</svg>
