<svg width="578" height="172" viewBox="0 0 578 172" fill="none" xmlns="http://www.w3.org/2000/svg">
<path d="M5.57545 14.079H18.1794V36.0757H41.3803V14.079H53.9842V71.3989H41.3803V46.6726H18.1794V71.3989H5.57545V14.079ZM91.813 46.191C91.2778 43.3009 90.3145 41.1066 88.9229 39.608C87.5849 38.1095 85.5244 37.3602 82.7414 37.3602C80.9217 37.3602 79.3964 37.6813 78.1654 38.3235C76.988 38.9123 76.0246 39.6615 75.2753 40.5714C74.5796 41.4812 74.0712 42.4446 73.75 43.4615C73.4824 44.4783 73.3219 45.3882 73.2684 46.191H91.813ZM73.2684 53.4162C73.4289 57.109 74.3655 59.785 76.0781 61.4442C77.7908 63.1033 80.2527 63.9328 83.4639 63.9328C85.7653 63.9328 87.7455 63.3709 89.4046 62.247C91.0637 61.0695 92.0806 59.8386 92.4553 58.5541H102.49C100.885 63.5314 98.4227 67.0905 95.1045 69.2313C91.7863 71.3721 87.7723 72.4425 83.0625 72.4425C79.7978 72.4425 76.8542 71.9341 74.2317 70.9172C71.6092 69.8468 69.3882 68.3482 67.5685 66.4215C65.7488 64.4948 64.3305 62.1934 63.3136 59.5174C62.3503 56.8414 61.8686 53.8978 61.8686 50.6866C61.8686 47.5825 62.377 44.6924 63.3939 42.0164C64.4108 39.3404 65.8558 37.0391 67.729 35.1123C69.6022 33.1321 71.8233 31.58 74.3923 30.4561C77.0147 29.3322 79.9048 28.7702 83.0625 28.7702C86.5948 28.7702 89.6722 29.466 92.2947 30.8575C94.9172 32.1955 97.058 34.0152 98.7171 36.3165C100.43 38.6179 101.661 41.2404 102.41 44.184C103.159 47.1276 103.427 50.205 103.213 53.4162H73.2684ZM110.295 14.079H121.695V71.3989H110.295V14.079ZM153.631 71.3989H140.947L126.737 29.8941H138.699L147.45 58.233H147.61L156.361 29.8941H167.68L153.631 71.3989ZM200.316 46.191C199.781 43.3009 198.818 41.1066 197.426 39.608C196.088 38.1095 194.028 37.3602 191.245 37.3602C189.425 37.3602 187.9 37.6813 186.669 38.3235C185.491 38.9123 184.528 39.6615 183.779 40.5714C183.083 41.4812 182.574 42.4446 182.253 43.4615C181.986 44.4783 181.825 45.3882 181.772 46.191H200.316ZM181.772 53.4162C181.932 57.109 182.869 59.785 184.581 61.4442C186.294 63.1033 188.756 63.9328 191.967 63.9328C194.269 63.9328 196.249 63.3709 197.908 62.247C199.567 61.0695 200.584 59.8386 200.959 58.5541H210.994C209.388 63.5314 206.926 67.0905 203.608 69.2313C200.29 71.3721 196.276 72.4425 191.566 72.4425C188.301 72.4425 185.358 71.9341 182.735 70.9172C180.113 69.8468 177.891 68.3482 176.072 66.4215C174.252 64.4948 172.834 62.1934 171.817 59.5174C170.854 56.8414 170.372 53.8978 170.372 50.6866C170.372 47.5825 170.88 44.6924 171.897 42.0164C172.914 39.3404 174.359 37.0391 176.232 35.1123C178.106 33.1321 180.327 31.58 182.896 30.4561C185.518 29.3322 188.408 28.7702 191.566 28.7702C195.098 28.7702 198.176 29.466 200.798 30.8575C203.42 32.1955 205.561 34.0152 207.22 36.3165C208.933 38.6179 210.164 41.2404 210.913 44.184C211.663 47.1276 211.93 50.205 211.716 53.4162H181.772ZM232.928 29.8941H241.277V37.5207H232.928V58.0724C232.928 59.9991 233.249 61.2836 233.891 61.9258C234.533 62.5681 235.818 62.8892 237.744 62.8892C238.387 62.8892 239.002 62.8624 239.591 62.8089C240.179 62.7554 240.741 62.6751 241.277 62.5681V71.3989C240.313 71.5594 239.243 71.6665 238.065 71.72C236.888 71.7735 235.737 71.8003 234.613 71.8003C232.847 71.8003 231.161 71.6665 229.556 71.3989C228.004 71.1848 226.612 70.7299 225.381 70.0341C224.204 69.3383 223.267 68.3482 222.571 67.0637C221.876 65.7793 221.528 64.0934 221.528 62.0061V37.5207H214.624V29.8941H221.528V17.4508H232.928V29.8941ZM258.421 23.4718H247.022V14.079H258.421V23.4718ZM247.022 29.8941H258.421V71.3989H247.022V29.8941ZM295.656 44.5051C294.907 39.7418 292.097 37.3602 287.227 37.3602C285.407 37.3602 283.882 37.7883 282.651 38.6447C281.42 39.4475 280.403 40.5179 279.6 41.8559C278.851 43.1403 278.316 44.5854 277.995 46.191C277.674 47.743 277.513 49.2951 277.513 50.8472C277.513 52.3458 277.674 53.8711 277.995 55.4232C278.316 56.9752 278.824 58.3935 279.52 59.678C280.269 60.909 281.259 61.9258 282.49 62.7286C283.721 63.5314 285.22 63.9328 286.986 63.9328C289.716 63.9328 291.803 63.1836 293.248 61.685C294.746 60.1329 295.683 58.0724 296.058 55.5034H307.056C306.307 61.016 304.166 65.2173 300.634 68.1074C297.101 70.9975 292.579 72.4425 287.066 72.4425C283.962 72.4425 281.099 71.9341 278.476 70.9172C275.907 69.8468 273.713 68.375 271.893 66.5018C270.074 64.6286 268.655 62.4075 267.639 59.8386C266.622 57.2161 266.113 54.3528 266.113 51.2486C266.113 48.0374 266.568 45.0671 267.478 42.3375C268.441 39.5545 269.833 37.1729 271.653 35.1926C273.472 33.1589 275.693 31.58 278.316 30.4561C280.938 29.3322 283.935 28.7702 287.307 28.7702C289.769 28.7702 292.124 29.0913 294.372 29.7336C296.673 30.3758 298.707 31.3659 300.473 32.7039C302.293 33.9884 303.765 35.6208 304.888 37.601C306.012 39.5277 306.655 41.8291 306.815 44.5051H295.656ZM313.014 42.6587C313.175 39.9827 313.844 37.7616 315.021 35.9954C316.199 34.2293 317.697 32.811 319.517 31.7406C321.337 30.6702 323.37 29.9209 325.618 29.4927C327.92 29.0111 330.221 28.7702 332.522 28.7702C334.61 28.7702 336.724 28.9308 338.864 29.2519C341.005 29.5195 342.959 30.0815 344.725 30.9378C346.491 31.7941 347.936 32.9983 349.06 34.5504C350.184 36.0489 350.746 38.0559 350.746 40.5714V62.1667C350.746 64.0399 350.853 65.8328 351.067 67.5454C351.281 69.2581 351.656 70.5425 352.191 71.3989H340.631C340.417 70.7566 340.229 70.1144 340.069 69.4721C339.962 68.7764 339.881 68.0806 339.828 67.3849C338.008 69.2581 335.867 70.5693 333.405 71.3186C330.943 72.0679 328.428 72.4425 325.859 72.4425C323.879 72.4425 322.032 72.2017 320.32 71.72C318.607 71.2383 317.109 70.489 315.824 69.4721C314.54 68.4553 313.523 67.1708 312.773 65.6187C312.078 64.0666 311.73 62.2202 311.73 60.0794C311.73 57.7245 312.131 55.7978 312.934 54.2992C313.79 52.7472 314.861 51.5162 316.145 50.6064C317.483 49.6965 318.982 49.0275 320.641 48.5994C322.354 48.1177 324.066 47.743 325.779 47.4754C327.491 47.2079 329.177 46.9938 330.836 46.8332C332.496 46.6726 333.967 46.4318 335.252 46.1107C336.536 45.7896 337.553 45.3347 338.302 44.7459C339.052 44.1037 339.4 43.1939 339.346 42.0164C339.346 40.7855 339.132 39.8221 338.704 39.1263C338.329 38.3771 337.794 37.8151 337.098 37.4405C336.456 37.0123 335.68 36.7447 334.77 36.6377C333.914 36.4771 332.977 36.3968 331.96 36.3968C329.713 36.3968 327.946 36.8785 326.662 37.8419C325.377 38.8052 324.628 40.4108 324.414 42.6587H313.014ZM339.346 51.088C338.864 51.5162 338.249 51.8641 337.5 52.1317C336.804 52.3458 336.028 52.5331 335.172 52.6936C334.369 52.8542 333.512 52.988 332.603 53.095C331.693 53.2021 330.783 53.3359 329.873 53.4964C329.017 53.657 328.16 53.8711 327.304 54.1387C326.501 54.4063 325.779 54.7809 325.137 55.2626C324.548 55.6908 324.066 56.2527 323.692 56.9485C323.317 57.6442 323.13 58.5273 323.13 59.5977C323.13 60.6146 323.317 61.4709 323.692 62.1667C324.066 62.8624 324.575 63.4244 325.217 63.8526C325.859 64.2272 326.608 64.4948 327.465 64.6554C328.321 64.8159 329.204 64.8962 330.114 64.8962C332.362 64.8962 334.101 64.5216 335.332 63.7723C336.563 63.023 337.473 62.1399 338.062 61.123C338.65 60.0526 338.998 58.9822 339.105 57.9118C339.266 56.8414 339.346 55.9851 339.346 55.3429V51.088ZM383.142 14.079H395.666L419.589 52.5331H419.75V14.079H431.551V71.3989H418.947L395.104 33.0251H394.943V71.3989H383.142V14.079ZM469.379 46.191C468.844 43.3009 467.881 41.1066 466.489 39.608C465.151 38.1095 463.091 37.3602 460.308 37.3602C458.488 37.3602 456.963 37.6813 455.732 38.3235C454.554 38.9123 453.591 39.6615 452.842 40.5714C452.146 41.4812 451.638 42.4446 451.317 43.4615C451.049 44.4783 450.888 45.3882 450.835 46.191H469.379ZM450.835 53.4162C450.995 57.109 451.932 59.785 453.645 61.4442C455.357 63.1033 457.819 63.9328 461.03 63.9328C463.332 63.9328 465.312 63.3709 466.971 62.247C468.63 61.0695 469.647 59.8386 470.022 58.5541H480.057C478.451 63.5314 475.989 67.0905 472.671 69.2313C469.353 71.3721 465.339 72.4425 460.629 72.4425C457.364 72.4425 454.421 71.9341 451.798 70.9172C449.176 69.8468 446.955 68.3482 445.135 66.4215C443.315 64.4948 441.897 62.1934 440.88 59.5174C439.917 56.8414 439.435 53.8978 439.435 50.6866C439.435 47.5825 439.944 44.6924 440.96 42.0164C441.977 39.3404 443.422 37.0391 445.296 35.1123C447.169 33.1321 449.39 31.58 451.959 30.4561C454.581 29.3322 457.471 28.7702 460.629 28.7702C464.161 28.7702 467.239 29.466 469.861 30.8575C472.484 32.1955 474.624 34.0152 476.284 36.3165C477.996 38.6179 479.227 41.2404 479.976 44.184C480.726 47.1276 480.993 50.205 480.779 53.4162H450.835ZM526.476 71.3989H515.638V65.6187H515.397C513.952 68.0271 512.079 69.7665 509.778 70.8369C507.476 71.9073 505.122 72.4425 502.713 72.4425C499.663 72.4425 497.147 72.0411 495.167 71.2383C493.24 70.4355 491.715 69.3116 490.591 67.8665C489.467 66.368 488.664 64.5751 488.183 62.4878C487.754 60.347 487.54 57.9921 487.54 55.4232V29.8941H498.94V53.3359C498.94 56.7612 499.475 59.3301 500.546 61.0428C501.616 62.7019 503.516 63.5314 506.246 63.5314C509.35 63.5314 511.598 62.6216 512.989 60.8019C514.381 58.9287 515.076 55.8781 515.076 51.65V29.8941H526.476V71.3989ZM563.065 46.191C562.53 43.3009 561.567 41.1066 560.175 39.608C558.837 38.1095 556.777 37.3602 553.994 37.3602C552.174 37.3602 550.649 37.6813 549.418 38.3235C548.24 38.9123 547.277 39.6615 546.528 40.5714C545.832 41.4812 545.324 42.4446 545.003 43.4615C544.735 44.4783 544.574 45.3882 544.521 46.191H563.065ZM544.521 53.4162C544.681 57.109 545.618 59.785 547.331 61.4442C549.043 63.1033 551.505 63.9328 554.716 63.9328C557.018 63.9328 558.998 63.3709 560.657 62.247C562.316 61.0695 563.333 59.8386 563.708 58.5541H573.743C572.137 63.5314 569.675 67.0905 566.357 69.2313C563.039 71.3721 559.025 72.4425 554.315 72.4425C551.05 72.4425 548.107 71.9341 545.484 70.9172C542.862 69.8468 540.641 68.3482 538.821 66.4215C537.001 64.4948 535.583 62.1934 534.566 59.5174C533.603 56.8414 533.121 53.8978 533.121 50.6866C533.121 47.5825 533.63 44.6924 534.646 42.0164C535.663 39.3404 537.108 37.0391 538.982 35.1123C540.855 33.1321 543.076 31.58 545.645 30.4561C548.267 29.3322 551.157 28.7702 554.315 28.7702C557.847 28.7702 560.925 29.466 563.547 30.8575C566.17 32.1955 568.31 34.0152 569.97 36.3165C571.682 38.6179 572.913 41.2404 573.662 44.184C574.412 47.1276 574.679 50.205 574.465 53.4162H544.521Z" fill="#858686"/>
<path d="M57.6981 158.078H45.076L40.0585 145.025H17.0878L12.3447 158.078H0.0361328L22.4189 100.612H34.6882L57.6981 158.078ZM36.3346 135.343L28.4163 114.018L20.6549 135.343H36.3346ZM74.3578 158.078H63.3428V116.449H73.5738V122.368C75.3247 119.572 76.8927 117.729 78.2777 116.841C79.6889 115.952 81.283 115.508 83.06 115.508C85.5687 115.508 87.986 116.201 90.3118 117.586L86.9015 127.189C85.0461 125.987 83.3213 125.386 81.7272 125.386C80.1854 125.386 78.8787 125.817 77.8073 126.68C76.7359 127.516 75.8865 129.045 75.2594 131.266C74.6583 133.487 74.3578 138.139 74.3578 145.221V158.078ZM95.0941 110.804V100.612H106.109V110.804H95.0941ZM95.0941 158.078V116.449H106.109V158.078H95.0941ZM125.669 129.149L115.674 127.346C116.797 123.322 118.731 120.343 121.475 118.409C124.219 116.475 128.296 115.508 133.705 115.508C138.618 115.508 142.277 116.096 144.681 117.272C147.085 118.422 148.771 119.898 149.738 121.702C150.731 123.479 151.227 126.758 151.227 131.541L151.11 144.398C151.11 148.056 151.28 150.761 151.619 152.512C151.985 154.237 152.652 156.092 153.619 158.078H142.721C142.434 157.347 142.081 156.262 141.663 154.825C141.48 154.172 141.349 153.74 141.271 153.531C139.389 155.361 137.377 156.733 135.234 157.647C133.091 158.562 130.805 159.019 128.374 159.019C124.088 159.019 120.704 157.856 118.222 155.53C115.765 153.205 114.537 150.265 114.537 146.711C114.537 144.359 115.099 142.268 116.222 140.439C117.346 138.583 118.914 137.172 120.926 136.205C122.965 135.212 125.892 134.35 129.707 133.618C134.855 132.651 138.422 131.75 140.408 130.913V129.816C140.408 127.699 139.886 126.196 138.84 125.308C137.795 124.393 135.822 123.936 132.921 123.936C130.961 123.936 129.433 124.328 128.335 125.112C127.237 125.87 126.349 127.216 125.669 129.149ZM140.408 138.087C138.997 138.557 136.763 139.119 133.705 139.772C130.648 140.426 128.649 141.066 127.708 141.693C126.271 142.712 125.552 144.006 125.552 145.574C125.552 147.116 126.127 148.448 127.277 149.572C128.426 150.696 129.89 151.258 131.667 151.258C133.653 151.258 135.548 150.604 137.351 149.298C138.684 148.305 139.559 147.09 139.977 145.652C140.265 144.711 140.408 142.921 140.408 140.282V138.087ZM162.125 158.078V100.612H173.14V158.078H162.125Z" fill="#CECECE"/>
</svg>
