<svg width="481" height="320" viewBox="0 0 481 320" fill="none" xmlns="http://www.w3.org/2000/svg">
<rect opacity="0.8" x="1" width="480" height="320" fill="white"/>
<path d="M470.843 134.091C470.391 131.652 469.578 129.801 468.404 128.537C467.275 127.273 465.537 126.641 463.19 126.641C461.654 126.641 460.368 126.912 459.329 127.453C458.336 127.95 457.523 128.582 456.891 129.35C456.304 130.117 455.875 130.93 455.604 131.788C455.378 132.646 455.242 133.413 455.198 134.091H470.843ZM455.198 140.186C455.333 143.302 456.123 145.559 457.568 146.959C459.013 148.359 461.09 149.059 463.799 149.059C465.741 149.059 467.411 148.584 468.811 147.636C470.21 146.643 471.068 145.604 471.385 144.521H479.851C478.496 148.72 476.419 151.723 473.62 153.529C470.82 155.335 467.434 156.238 463.46 156.238C460.706 156.238 458.223 155.809 456.01 154.951C453.798 154.048 451.924 152.784 450.389 151.158C448.853 149.533 447.657 147.591 446.799 145.334C445.987 143.076 445.58 140.593 445.58 137.883C445.58 135.265 446.01 132.826 446.867 130.569C447.725 128.311 448.944 126.37 450.525 124.744C452.105 123.074 453.979 121.764 456.146 120.816C458.358 119.868 460.796 119.394 463.46 119.394C466.44 119.394 469.037 119.981 471.249 121.155C473.462 122.283 475.267 123.819 476.668 125.76C478.112 127.702 479.15 129.914 479.783 132.398C480.415 134.881 480.64 137.477 480.46 140.186H455.198Z" fill="#858686"/>
<path d="M439.973 155.357H430.83V150.481H430.626C429.407 152.513 427.827 153.98 425.886 154.883C423.945 155.786 421.958 156.238 419.926 156.238C417.353 156.238 415.23 155.899 413.559 155.222C411.934 154.545 410.647 153.596 409.699 152.377C408.751 151.113 408.073 149.601 407.667 147.84C407.306 146.034 407.125 144.047 407.125 141.88V120.342H416.743V140.119C416.743 143.008 417.194 145.176 418.097 146.621C419 148.02 420.603 148.72 422.906 148.72C425.525 148.72 427.421 147.952 428.595 146.417C429.769 144.837 430.356 142.263 430.356 138.696V120.342H439.973V155.357Z" fill="#858686"/>
<path d="M391.805 134.091C391.354 131.652 390.541 129.801 389.367 128.537C388.238 127.273 386.5 126.641 384.152 126.641C382.617 126.641 381.33 126.912 380.292 127.453C379.298 127.95 378.486 128.582 377.854 129.35C377.267 130.117 376.838 130.93 376.566 131.788C376.341 132.646 376.205 133.413 376.161 134.091H391.805ZM376.161 140.186C376.296 143.302 377.086 145.559 378.531 146.959C379.976 148.359 382.053 149.059 384.762 149.059C386.704 149.059 388.374 148.584 389.774 147.636C391.173 146.643 392.031 145.604 392.348 144.521H400.814C399.459 148.72 397.382 151.723 394.582 153.529C391.783 155.335 388.397 156.238 384.423 156.238C381.669 156.238 379.186 155.809 376.973 154.951C374.761 154.048 372.887 152.784 371.352 151.158C369.816 149.533 368.62 147.591 367.762 145.334C366.95 143.076 366.543 140.593 366.543 137.883C366.543 135.265 366.972 132.826 367.83 130.569C368.688 128.311 369.907 126.37 371.488 124.744C373.068 123.074 374.941 121.764 377.109 120.816C379.321 119.868 381.759 119.394 384.423 119.394C387.403 119.394 390 119.981 392.212 121.155C394.425 122.283 396.23 123.819 397.631 125.76C399.075 127.702 400.113 129.914 400.745 132.398C401.378 134.881 401.603 137.477 401.423 140.186H376.161Z" fill="#858686"/>
<path d="M319.051 107H329.617L349.799 139.442H349.935V107H359.891V155.358H349.258L329.142 122.984H329.007V155.358H319.051V107Z" fill="#858686"/>
<path d="M259.888 131.111C260.024 128.853 260.588 126.979 261.581 125.489C262.575 123.999 263.839 122.803 265.374 121.9C266.91 120.997 268.625 120.364 270.521 120.003C272.463 119.597 274.405 119.394 276.346 119.394C278.107 119.394 279.891 119.529 281.697 119.8C283.502 120.026 285.151 120.5 286.641 121.222C288.131 121.945 289.35 122.961 290.298 124.27C291.246 125.534 291.72 127.228 291.72 129.35V147.569C291.72 149.149 291.811 150.661 291.991 152.106C292.172 153.551 292.488 154.635 292.939 155.357H283.187C283.006 154.815 282.848 154.274 282.713 153.732C282.623 153.145 282.554 152.558 282.509 151.971C280.974 153.551 279.168 154.657 277.091 155.29C275.015 155.922 272.892 156.238 270.725 156.238C269.054 156.238 267.496 156.035 266.052 155.628C264.606 155.222 263.343 154.59 262.259 153.732C261.175 152.874 260.317 151.79 259.685 150.481C259.098 149.171 258.805 147.614 258.805 145.808C258.805 143.821 259.143 142.195 259.82 140.931C260.543 139.622 261.446 138.583 262.529 137.816C263.658 137.048 264.923 136.484 266.322 136.123C267.768 135.716 269.212 135.4 270.657 135.174C272.102 134.949 273.524 134.768 274.923 134.633C276.324 134.497 277.565 134.294 278.649 134.023C279.732 133.752 280.59 133.368 281.223 132.872C281.855 132.33 282.148 131.562 282.103 130.569C282.103 129.53 281.922 128.718 281.561 128.131C281.245 127.499 280.793 127.024 280.206 126.708C279.665 126.347 279.01 126.121 278.242 126.031C277.52 125.896 276.73 125.828 275.872 125.828C273.976 125.828 272.485 126.234 271.402 127.047C270.318 127.86 269.686 129.214 269.505 131.111H259.888ZM282.103 138.222C281.696 138.583 281.177 138.877 280.545 139.103C279.958 139.283 279.304 139.441 278.581 139.577C277.904 139.712 277.182 139.825 276.414 139.915C275.646 140.006 274.879 140.118 274.111 140.254C273.389 140.389 272.666 140.57 271.944 140.796C271.266 141.022 270.657 141.338 270.115 141.744C269.619 142.105 269.212 142.579 268.896 143.166C268.58 143.753 268.422 144.498 268.422 145.401C268.422 146.259 268.58 146.982 268.896 147.569C269.212 148.156 269.641 148.63 270.183 148.991C270.725 149.307 271.356 149.533 272.079 149.668C272.802 149.804 273.547 149.871 274.314 149.871C276.211 149.871 277.678 149.555 278.716 148.923C279.755 148.291 280.523 147.546 281.02 146.688C281.516 145.785 281.809 144.882 281.9 143.979C282.035 143.076 282.103 142.354 282.103 141.812V138.222Z" fill="#858686"/>
<path d="M245.242 132.668C244.61 128.65 242.24 126.641 238.131 126.641C236.596 126.641 235.309 127.002 234.271 127.724C233.232 128.402 232.374 129.305 231.697 130.433C231.065 131.517 230.613 132.736 230.343 134.091C230.072 135.4 229.936 136.71 229.936 138.019C229.936 139.283 230.072 140.57 230.343 141.879C230.613 143.189 231.042 144.385 231.629 145.469C232.261 146.508 233.096 147.365 234.135 148.043C235.173 148.72 236.438 149.059 237.928 149.059C240.231 149.059 241.992 148.426 243.211 147.162C244.474 145.853 245.265 144.114 245.581 141.947H254.86C254.228 146.598 252.422 150.142 249.442 152.58C246.461 155.019 242.646 156.238 237.995 156.238C235.377 156.238 232.961 155.809 230.748 154.951C228.581 154.048 226.73 152.806 225.195 151.226C223.66 149.646 222.464 147.772 221.606 145.604C220.748 143.392 220.318 140.976 220.318 138.358C220.318 135.648 220.702 133.143 221.47 130.84C222.282 128.492 223.457 126.483 224.992 124.812C226.527 123.096 228.4 121.764 230.613 120.816C232.825 119.868 235.354 119.394 238.199 119.394C240.276 119.394 242.262 119.665 244.159 120.206C246.1 120.748 247.816 121.584 249.306 122.712C250.841 123.796 252.083 125.173 253.032 126.844C253.979 128.469 254.521 130.411 254.656 132.668H245.242Z" fill="#858686"/>
<path d="M213.83 114.924H204.213V107H213.83V114.924ZM204.213 120.342H213.83V155.358H204.213V120.342Z" fill="#858686"/>
<path d="M192.323 120.342H199.367V126.776H192.323V144.115C192.323 145.74 192.594 146.824 193.135 147.366C193.677 147.907 194.761 148.178 196.386 148.178C196.928 148.178 197.447 148.156 197.944 148.11C198.441 148.065 198.914 147.998 199.367 147.907V155.357C198.553 155.493 197.651 155.583 196.657 155.628C195.664 155.673 194.693 155.696 193.745 155.696C192.255 155.696 190.832 155.583 189.478 155.357C188.169 155.177 186.994 154.793 185.956 154.206C184.963 153.619 184.173 152.784 183.585 151.7C182.999 150.616 182.705 149.194 182.705 147.433V126.776H176.881V120.342H182.705V109.844H192.323V120.342Z" fill="#858686"/>
<path d="M164.811 134.091C164.36 131.652 163.547 129.801 162.373 128.537C161.244 127.273 159.506 126.641 157.158 126.641C155.623 126.641 154.336 126.912 153.298 127.453C152.304 127.95 151.491 128.582 150.86 129.35C150.272 130.117 149.844 130.93 149.572 131.788C149.347 132.646 149.211 133.413 149.166 134.091H164.811ZM149.166 140.186C149.301 143.302 150.092 145.559 151.537 146.959C152.981 148.359 155.058 149.059 157.767 149.059C159.709 149.059 161.38 148.584 162.779 147.636C164.179 146.643 165.037 145.604 165.353 144.521H173.819C172.465 148.72 170.387 151.723 167.588 153.529C164.789 155.335 161.403 156.238 157.429 156.238C154.675 156.238 152.192 155.809 149.979 154.951C147.767 154.048 145.893 152.784 144.358 151.158C142.822 149.533 141.626 147.591 140.768 145.334C139.955 143.076 139.549 140.593 139.549 137.883C139.549 135.265 139.977 132.826 140.835 130.569C141.693 128.311 142.912 126.37 144.493 124.744C146.074 123.074 147.947 121.764 150.115 120.816C152.327 119.868 154.765 119.394 157.429 119.394C160.409 119.394 163.006 119.981 165.218 121.155C167.431 122.283 169.236 123.819 170.636 125.76C172.081 127.702 173.119 129.914 173.751 132.398C174.384 134.881 174.609 137.477 174.429 140.186H149.166Z" fill="#858686"/>
<path d="M125.423 155.357H114.723L102.734 120.342H112.826L120.209 144.25H120.344L127.727 120.342H137.276L125.423 155.357Z" fill="#858686"/>
<path d="M88.8633 107H98.4809V155.358H88.8633V107Z" fill="#858686"/>
<path d="M73.2723 134.091C72.8207 131.652 72.008 129.801 70.834 128.537C69.7052 127.273 67.9669 126.641 65.619 126.641C64.0839 126.641 62.797 126.912 61.7585 127.453C60.7652 127.95 59.9524 128.582 59.3203 129.35C58.7334 130.117 58.3044 130.93 58.0335 131.788C57.8077 132.646 57.6722 133.413 57.6271 134.091H73.2723ZM57.6271 140.186C57.7626 143.302 58.5527 145.559 59.9976 146.959C61.4425 148.359 63.5194 149.059 66.2286 149.059C68.1701 149.059 69.8407 148.584 71.2404 147.636C72.6401 146.643 73.498 145.604 73.814 144.521H82.28C80.9255 148.72 78.8485 151.723 76.0491 153.529C73.2496 155.335 69.8633 156.238 65.8899 156.238C63.1357 156.238 60.6523 155.809 58.4399 154.951C56.2274 154.048 54.3536 152.784 52.8185 151.158C51.2833 149.533 50.0867 147.591 49.2288 145.334C48.4161 143.076 48.0098 140.593 48.0098 137.883C48.0098 135.265 48.4387 132.826 49.2966 130.569C50.1545 128.311 51.3736 126.37 52.9539 124.744C54.5342 123.074 56.408 121.764 58.5753 120.816C60.7877 119.868 63.2259 119.394 65.8899 119.394C68.8699 119.394 71.4662 119.981 73.6786 121.155C75.8911 122.283 77.6971 123.819 79.0969 125.76C80.5417 127.702 81.5802 129.914 82.2123 132.398C82.8444 134.881 83.0702 137.477 82.8896 140.186H57.6271Z" fill="#858686"/>
<path d="M0.519531 107H11.1528V125.557H30.7262V107H41.3595V155.358H30.7262V134.497H11.1528V155.358H0.519531V107Z" fill="#858686"/>
<path d="M49.6121 212.447H38.971L34.741 201.442H15.3754L11.3768 212.447H1L19.8698 164H30.2135L49.6121 212.447ZM31.6015 193.28L24.926 175.302L18.3827 193.28H31.6015Z" fill="#CECECE"/>
<path d="M63.6571 212.447H54.3709V177.351H62.9961V182.341C64.4722 179.984 65.7941 178.431 66.9618 177.681C68.1515 176.932 69.4954 176.558 70.9935 176.558C73.1085 176.558 75.1464 177.142 77.1072 178.309L74.2321 186.406C72.6679 185.392 71.2138 184.886 69.8699 184.886C68.5701 184.886 67.4685 185.249 66.5652 185.976C65.6619 186.681 64.9459 187.97 64.4172 189.843C63.9104 191.715 63.6571 195.637 63.6571 201.607V212.447Z" fill="#CECECE"/>
<path d="M81.1389 172.592V164H90.4251V172.592H81.1389ZM81.1389 212.447V177.351H90.4251V212.447H81.1389Z" fill="#CECECE"/>
<path d="M106.916 188.058L98.4886 186.538C99.4359 183.145 101.066 180.634 103.38 179.003C105.693 177.373 109.13 176.558 113.69 176.558C117.832 176.558 120.916 177.054 122.943 178.045C124.97 179.014 126.391 180.259 127.206 181.779C128.044 183.277 128.462 186.042 128.462 190.074L128.363 200.913C128.363 203.998 128.506 206.278 128.793 207.754C129.101 209.208 129.663 210.772 130.478 212.447H121.291C121.049 211.83 120.751 210.916 120.399 209.704C120.245 209.153 120.134 208.79 120.068 208.613C118.482 210.156 116.786 211.312 114.979 212.083C113.172 212.854 111.245 213.24 109.196 213.24C105.583 213.24 102.73 212.26 100.637 210.299C98.5657 208.338 97.5302 205.86 97.5302 202.863C97.5302 200.88 98.0039 199.118 98.9512 197.576C99.8986 196.012 101.22 194.822 102.917 194.007C104.635 193.169 107.103 192.442 110.319 191.826C114.66 191.01 117.667 190.25 119.341 189.545V188.62C119.341 186.835 118.901 185.569 118.019 184.82C117.138 184.049 115.475 183.663 113.029 183.663C111.377 183.663 110.088 183.993 109.163 184.654C108.237 185.293 107.488 186.428 106.916 188.058ZM119.341 195.593C118.152 195.989 116.268 196.463 113.69 197.014C111.113 197.565 109.427 198.104 108.634 198.633C107.422 199.492 106.816 200.583 106.816 201.905C106.816 203.205 107.301 204.328 108.271 205.276C109.24 206.223 110.474 206.697 111.972 206.697C113.646 206.697 115.243 206.146 116.764 205.044C117.887 204.207 118.625 203.183 118.978 201.971C119.22 201.178 119.341 199.669 119.341 197.444V195.593Z" fill="#CECECE"/>
<path d="M137.649 212.447V164H146.935V212.447H137.649Z" fill="#CECECE"/>
</svg>
