<svg width="208" height="208" viewBox="0 0 208 208" fill="none" xmlns="http://www.w3.org/2000/svg">
<g clip-path="url(#clip0_1322_2648)">
<rect width="207.375" height="207.375" fill="#1D70B8"/>
<path d="M20.1562 19.9556H34.4688V23.4781H29.2178V38.7334H25.4072V23.4781H20.1562V19.9556Z" fill="white"/>
<path d="M39.1279 19.9556H42.742V25.9137C42.9341 25.7216 43.148 25.5383 43.3837 25.3637C43.6281 25.1804 43.8944 25.0232 44.1824 24.8923C44.4705 24.7526 44.7892 24.6435 45.1383 24.5649C45.4963 24.4776 45.8891 24.434 46.3169 24.434C47.0764 24.434 47.7573 24.5606 48.3596 24.8137C48.962 25.0582 49.4683 25.3986 49.8786 25.8351C50.2977 26.2716 50.6163 26.7823 50.8345 27.3672C51.0528 27.9521 51.1619 28.585 51.1619 29.2659V38.7334H47.5478V30.5754C47.5478 30.0778 47.491 29.6588 47.3775 29.3183C47.2641 28.9691 47.1069 28.6898 46.9061 28.4802C46.7141 28.262 46.4827 28.1049 46.2121 28.0088C45.9502 27.9041 45.6621 27.8517 45.3479 27.8517C44.9812 27.8517 44.6364 27.9172 44.3134 28.0481C43.9991 28.1791 43.7241 28.3798 43.4884 28.6505C43.2527 28.9124 43.0694 29.2441 42.9384 29.6457C42.8075 30.0472 42.742 30.5186 42.742 31.0599V38.7334H39.1279V19.9556Z" fill="white"/>
<path d="M60.4827 38.7334H56.8686V24.709H60.4827V38.7334ZM56.4888 21.0293C56.4888 20.7325 56.5456 20.4532 56.6591 20.1913C56.7726 19.9207 56.9253 19.6893 57.1174 19.4973C57.3182 19.2965 57.5495 19.1393 57.8114 19.0259C58.0733 18.9124 58.357 18.8556 58.6626 18.8556C58.9594 18.8556 59.2387 18.9124 59.5006 19.0259C59.7713 19.1393 60.0026 19.2965 60.1947 19.4973C60.3954 19.6893 60.5526 19.9207 60.6661 20.1913C60.7795 20.4532 60.8363 20.7325 60.8363 21.0293C60.8363 21.3349 60.7795 21.6186 60.6661 21.8805C60.5526 22.1424 60.3954 22.3737 60.1947 22.5745C60.0026 22.7666 59.7713 22.9193 59.5006 23.0328C59.2387 23.1463 58.9594 23.2031 58.6626 23.2031C58.357 23.2031 58.0733 23.1463 57.8114 23.0328C57.5495 22.9193 57.3182 22.7666 57.1174 22.5745C56.9253 22.3737 56.7726 22.1424 56.6591 21.8805C56.5456 21.6186 56.4888 21.3349 56.4888 21.0293Z" fill="white"/>
<path d="M67.2763 34.255C67.7913 34.7177 68.4068 35.1149 69.1226 35.4466C69.8385 35.7784 70.563 35.9442 71.2964 35.9442C71.8289 35.9442 72.2479 35.8438 72.5534 35.643C72.859 35.4335 73.0118 35.1673 73.0118 34.8443C73.0118 34.2943 72.4225 33.8665 71.244 33.561L70.2226 33.286C69.7163 33.1638 69.2056 32.9979 68.6905 32.7884C68.1754 32.5702 67.6997 32.2864 67.2632 31.9372C66.8354 31.5881 66.4862 31.1647 66.2156 30.6671C65.9537 30.1607 65.8228 29.5409 65.8228 28.8076C65.8228 28.2227 65.9493 27.6684 66.2025 27.1446C66.4644 26.6121 66.8311 26.145 67.3025 25.7434C67.7826 25.3419 68.3631 25.0232 69.0441 24.7875C69.725 24.5518 70.4845 24.434 71.3225 24.434C72.5185 24.434 73.5836 24.6217 74.5177 24.997C75.4605 25.3724 76.2025 25.7958 76.7438 26.2672L74.8581 28.6767C74.4129 28.3537 73.8847 28.0787 73.2737 27.8517C72.6713 27.616 72.0646 27.4981 71.4535 27.4981C70.8861 27.4981 70.4452 27.6029 70.1309 27.8124C69.8167 28.0132 69.6595 28.2576 69.6595 28.5457C69.6595 28.8513 69.7948 29.1001 70.0654 29.2921C70.3448 29.4754 70.7464 29.6369 71.2702 29.7766L72.7892 30.2087C74.2383 30.619 75.2771 31.1734 75.9057 31.8718C76.5342 32.5702 76.8485 33.4519 76.8485 34.5169C76.8485 35.1105 76.7263 35.678 76.4819 36.2192C76.2374 36.7517 75.8795 37.2275 75.4081 37.6465C74.9367 38.0656 74.3518 38.3973 73.6534 38.6417C72.955 38.8774 72.1606 38.9953 71.2702 38.9953C70.5892 38.9953 69.9476 38.9342 69.3452 38.812C68.7516 38.6898 68.1973 38.5239 67.6822 38.3144C67.1759 38.0961 66.7176 37.8517 66.3073 37.5811C65.897 37.3104 65.5478 37.0398 65.2597 36.7692L67.2763 34.255Z" fill="white"/>
<path d="M93.0153 38.7334H89.4011V24.709H93.0153V38.7334ZM89.0214 21.0293C89.0214 20.7325 89.0781 20.4532 89.1916 20.1913C89.3051 19.9207 89.4579 19.6893 89.6499 19.4973C89.8507 19.2965 90.082 19.1393 90.3439 19.0259C90.6058 18.9124 90.8895 18.8556 91.1951 18.8556C91.4919 18.8556 91.7712 18.9124 92.0331 19.0259C92.3038 19.1393 92.5351 19.2965 92.7272 19.4973C92.928 19.6893 93.0851 19.9207 93.1986 20.1913C93.3121 20.4532 93.3688 20.7325 93.3688 21.0293C93.3688 21.3349 93.3121 21.6186 93.1986 21.8805C93.0851 22.1424 92.928 22.3737 92.7272 22.5745C92.5351 22.7666 92.3038 22.9193 92.0331 23.0328C91.7712 23.1463 91.4919 23.2031 91.1951 23.2031C90.8895 23.2031 90.6058 23.1463 90.3439 23.0328C90.082 22.9193 89.8507 22.7666 89.6499 22.5745C89.4579 22.3737 89.3051 22.1424 89.1916 21.8805C89.0781 21.6186 89.0214 21.3349 89.0214 21.0293Z" fill="white"/>
<path d="M99.8088 34.255C100.324 34.7177 100.939 35.1149 101.655 35.4466C102.371 35.7784 103.096 35.9442 103.829 35.9442C104.361 35.9442 104.78 35.8438 105.086 35.643C105.392 35.4335 105.544 35.1673 105.544 34.8443C105.544 34.2943 104.955 33.8665 103.776 33.561L102.755 33.286C102.249 33.1638 101.738 32.9979 101.223 32.7884C100.708 32.5702 100.232 32.2864 99.7957 31.9372C99.3679 31.5881 99.0187 31.1647 98.7481 30.6671C98.4862 30.1607 98.3553 29.5409 98.3553 28.8076C98.3553 28.2227 98.4819 27.6684 98.735 27.1446C98.9969 26.6121 99.3636 26.145 99.835 25.7434C100.315 25.3419 100.896 25.0232 101.577 24.7875C102.258 24.5518 103.017 24.434 103.855 24.434C105.051 24.434 106.116 24.6217 107.05 24.997C107.993 25.3724 108.735 25.7958 109.276 26.2672L107.391 28.6767C106.945 28.3537 106.417 28.0787 105.806 27.8517C105.204 27.616 104.597 27.4981 103.986 27.4981C103.419 27.4981 102.978 27.6029 102.663 27.8124C102.349 28.0132 102.192 28.2576 102.192 28.5457C102.192 28.8513 102.327 29.1001 102.598 29.2921C102.877 29.4754 103.279 29.6369 103.803 29.7766L105.322 30.2087C106.771 30.619 107.81 31.1734 108.438 31.8718C109.067 32.5702 109.381 33.4519 109.381 34.5169C109.381 35.1105 109.259 35.678 109.014 36.2192C108.77 36.7517 108.412 37.2275 107.941 37.6465C107.469 38.0656 106.884 38.3973 106.186 38.6417C105.488 38.8774 104.693 38.9953 103.803 38.9953C103.122 38.9953 102.48 38.9342 101.878 38.812C101.284 38.6898 100.73 38.5239 100.215 38.3144C99.7084 38.0961 99.2501 37.8517 98.8398 37.5811C98.4295 37.3104 98.0803 37.0398 97.7922 36.7692L99.8088 34.255Z" fill="white"/>
<path d="M126.556 34.5562C126.556 34.7221 126.578 34.8792 126.622 35.0276C126.665 35.176 126.739 35.3069 126.844 35.4204C126.958 35.5252 127.115 35.6081 127.316 35.6692C127.516 35.7303 127.774 35.7609 128.088 35.7609C128.219 35.7609 128.367 35.7565 128.533 35.7478C128.699 35.7303 128.865 35.7129 129.031 35.6954C129.197 35.678 129.35 35.6561 129.489 35.63C129.638 35.6038 129.76 35.5819 129.856 35.5645L130.183 38.7596C129.843 38.8032 129.489 38.8425 129.123 38.8774C128.808 38.9124 128.459 38.9386 128.075 38.956C127.691 38.9822 127.302 38.9953 126.91 38.9953C125.661 38.9953 124.688 38.7116 123.989 38.1441C123.291 37.5767 122.942 36.6732 122.942 35.4335V27.8517H120.415V24.709H122.942V20.7413L126.556 19.7723V24.709H130.236V27.8517H126.556V34.5562Z" fill="white"/>
<path d="M141.364 24.434C142.402 24.434 143.345 24.6217 144.192 24.997C145.039 25.3637 145.763 25.8744 146.366 26.5291C146.968 27.1839 147.431 27.9564 147.754 28.8469C148.086 29.7373 148.251 30.6976 148.251 31.7277C148.251 32.7666 148.086 33.7312 147.754 34.6217C147.422 35.5034 146.955 36.2672 146.353 36.9132C145.75 37.5592 145.026 38.0699 144.179 38.4453C143.332 38.812 142.394 38.9953 141.364 38.9953C140.325 38.9953 139.382 38.812 138.535 38.4453C137.688 38.0699 136.964 37.5592 136.361 36.9132C135.759 36.2672 135.292 35.5034 134.96 34.6217C134.629 33.7312 134.463 32.7666 134.463 31.7277C134.463 30.6976 134.624 29.7373 134.947 28.8469C135.279 27.9564 135.746 27.1839 136.348 26.5291C136.951 25.8744 137.675 25.3637 138.522 24.997C139.378 24.6217 140.325 24.434 141.364 24.434ZM141.364 35.643C141.879 35.643 142.333 35.547 142.725 35.355C143.127 35.1629 143.463 34.8966 143.734 34.5562C144.004 34.2157 144.209 33.8098 144.349 33.3384C144.489 32.8582 144.559 32.3344 144.559 31.767V31.6753C144.559 31.1079 144.489 30.5885 144.349 30.1171C144.209 29.6369 144.004 29.2266 143.734 28.8862C143.463 28.537 143.127 28.2664 142.725 28.0743C142.333 27.8822 141.879 27.7862 141.364 27.7862C140.848 27.7862 140.39 27.8822 139.989 28.0743C139.596 28.2664 139.264 28.537 138.993 28.8862C138.723 29.2266 138.518 29.6369 138.378 30.1171C138.238 30.5885 138.168 31.1079 138.168 31.6753V31.767C138.168 32.3344 138.238 32.8582 138.378 33.3384C138.518 33.8098 138.723 34.2157 138.993 34.5562C139.264 34.8966 139.596 35.1629 139.989 35.355C140.39 35.547 140.848 35.643 141.364 35.643Z" fill="white"/>
<path d="M159.497 24.434C160.536 24.434 161.479 24.6217 162.326 24.997C163.172 25.3637 163.897 25.8744 164.499 26.5291C165.102 27.1839 165.564 27.9564 165.887 28.8469C166.219 29.7373 166.385 30.6976 166.385 31.7277C166.385 32.7666 166.219 33.7312 165.887 34.6217C165.556 35.5034 165.089 36.2672 164.486 36.9132C163.884 37.5592 163.159 38.0699 162.312 38.4453C161.466 38.812 160.527 38.9953 159.497 38.9953C158.458 38.9953 157.515 38.812 156.669 38.4453C155.822 38.0699 155.097 37.5592 154.495 36.9132C153.893 36.2672 153.426 35.5034 153.094 34.6217C152.762 33.7312 152.596 32.7666 152.596 31.7277C152.596 30.6976 152.758 29.7373 153.081 28.8469C153.412 27.9564 153.879 27.1839 154.482 26.5291C155.084 25.8744 155.809 25.3637 156.656 24.997C157.511 24.6217 158.458 24.434 159.497 24.434ZM159.497 35.643C160.012 35.643 160.466 35.547 160.859 35.355C161.261 35.1629 161.597 34.8966 161.867 34.5562C162.138 34.2157 162.343 33.8098 162.483 33.3384C162.622 32.8582 162.692 32.3344 162.692 31.767V31.6753C162.692 31.1079 162.622 30.5885 162.483 30.1171C162.343 29.6369 162.138 29.2266 161.867 28.8862C161.597 28.537 161.261 28.2664 160.859 28.0743C160.466 27.8822 160.012 27.7862 159.497 27.7862C158.982 27.7862 158.524 27.8822 158.122 28.0743C157.729 28.2664 157.398 28.537 157.127 28.8862C156.856 29.2266 156.651 29.6369 156.512 30.1171C156.372 30.5885 156.302 31.1079 156.302 31.6753V31.767C156.302 32.3344 156.372 32.8582 156.512 33.3384C156.651 33.8098 156.856 34.2157 157.127 34.5562C157.398 34.8966 157.729 35.1629 158.122 35.355C158.524 35.547 158.982 35.643 159.497 35.643Z" fill="white"/>
<path d="M34.0236 63.1502L35.739 53.709H39.5626L36.3282 67.7334H32.0332L29.938 58.6195L27.7119 67.7334H23.4823L20.2348 53.709H24.1763L25.8394 63.1502L28.275 53.709H31.732L34.0236 63.1502Z" fill="white"/>
<path d="M47.9013 67.7334H44.2872V53.709H47.9013V67.7334ZM43.9074 50.0293C43.9074 49.7325 43.9642 49.4532 44.0777 49.1913C44.1912 48.9207 44.3439 48.6893 44.536 48.4973C44.7368 48.2965 44.9681 48.1393 45.23 48.0259C45.4919 47.9124 45.7756 47.8556 46.0812 47.8556C46.378 47.8556 46.6573 47.9124 46.9192 48.0259C47.1899 48.1393 47.4212 48.2965 47.6133 48.4973C47.814 48.6893 47.9712 48.9207 48.0847 49.1913C48.1981 49.4532 48.2549 49.7325 48.2549 50.0293C48.2549 50.3349 48.1981 50.6186 48.0847 50.8805C47.9712 51.1424 47.814 51.3737 47.6133 51.5745C47.4212 51.7666 47.1899 51.9193 46.9192 52.0328C46.6573 52.1463 46.378 52.2031 46.0812 52.2031C45.7756 52.2031 45.4919 52.1463 45.23 52.0328C44.9681 51.9193 44.7368 51.7666 44.536 51.5745C44.3439 51.3737 44.1912 51.1424 44.0777 50.8805C43.9642 50.6186 43.9074 50.3349 43.9074 50.0293Z" fill="white"/>
<path d="M62.7088 67.7334V66.5287C62.5168 66.7382 62.3029 66.9346 62.0672 67.1179C61.8402 67.2925 61.5827 67.4453 61.2946 67.5763C61.0153 67.7072 60.7053 67.8076 60.3649 67.8774C60.0332 67.956 59.6621 67.9953 59.2518 67.9953C58.3265 67.9953 57.4797 67.812 56.7115 67.4453C55.9432 67.0787 55.2841 66.5723 54.7342 65.9263C54.1842 65.2803 53.7564 64.5121 53.4509 63.6217C53.1541 62.7312 53.0057 61.7666 53.0057 60.7277C53.0057 59.6889 53.1541 58.7242 53.4509 57.8338C53.7477 56.9434 54.1624 56.1751 54.6949 55.5291C55.2361 54.8744 55.8865 54.3637 56.646 53.997C57.4055 53.6217 58.2479 53.434 59.1733 53.434C59.9939 53.434 60.6879 53.578 61.2553 53.8661C61.8315 54.1455 62.316 54.4946 62.7088 54.9137V48.9556H66.323V67.7334H62.7088ZM62.8136 59.4183C62.8136 59.0429 62.7438 58.6937 62.6041 58.3707C62.4731 58.0477 62.2811 57.7683 62.0279 57.5326C61.7748 57.2969 61.4692 57.1136 61.1113 56.9826C60.7621 56.8517 60.3649 56.7862 59.9197 56.7862C59.4046 56.7862 58.9463 56.8822 58.5447 57.0743C58.1519 57.2664 57.8201 57.537 57.5495 57.8862C57.2789 58.2266 57.0737 58.6326 56.9341 59.104C56.7944 59.5754 56.7246 60.0905 56.7246 60.6492V60.8194C56.7246 61.3781 56.7944 61.8932 56.9341 62.3646C57.0737 62.8272 57.2789 63.2288 57.5495 63.5693C57.8201 63.9097 58.1519 64.176 58.5447 64.3681C58.9463 64.5514 59.4046 64.643 59.9197 64.643C60.3649 64.643 60.7621 64.5776 61.1113 64.4466C61.4692 64.3157 61.7748 64.1324 62.0279 63.8966C62.2811 63.6609 62.4731 63.386 62.6041 63.0717C62.7438 62.7487 62.8136 62.3995 62.8136 62.0241V59.4183Z" fill="white"/>
<path d="M75.1462 61.9717C75.2073 62.3908 75.3383 62.7749 75.539 63.1241C75.7486 63.4733 76.0105 63.7744 76.3247 64.0276C76.639 64.272 77.0013 64.4641 77.4116 64.6038C77.8219 64.7434 78.2584 64.8133 78.7211 64.8133C79.2536 64.8133 79.8297 64.7129 80.4496 64.5121C81.0694 64.3026 81.6368 64.0014 82.1519 63.6086L83.8935 66.1489C83.2387 66.6989 82.4356 67.1441 81.484 67.4846C80.5325 67.8251 79.5198 67.9953 78.4461 67.9953C77.4771 67.9953 76.5648 67.8294 75.7093 67.4977C74.8538 67.166 74.103 66.6858 73.457 66.0573C72.8197 65.4287 72.3134 64.6649 71.938 63.7657C71.5713 62.8665 71.388 61.8539 71.388 60.7277C71.388 59.6976 71.5495 58.7373 71.8725 57.8469C72.2043 56.9564 72.6626 56.1839 73.2475 55.5291C73.8411 54.8744 74.5482 54.3637 75.3688 53.997C76.1894 53.6217 77.0973 53.434 78.0925 53.434C79.0179 53.434 79.8778 53.6042 80.6722 53.9447C81.4666 54.2764 82.1562 54.7478 82.7411 55.3589C83.326 55.9613 83.7843 56.6858 84.1161 57.5326C84.4478 58.3794 84.6137 59.3135 84.6137 60.3349V61.9717H75.1462ZM78.0794 56.5767C77.3025 56.5767 76.6434 56.8386 76.1021 57.3624C75.5696 57.8774 75.2597 58.5016 75.1724 59.2349H80.8293C80.8118 58.4929 80.5412 57.8643 80.0174 57.3493C79.4936 56.8342 78.8476 56.5767 78.0794 56.5767Z" fill="white"/>
<path d="M89.5478 48.9556H93.1619V63.9228C93.1619 64.2196 93.2448 64.4466 93.4107 64.6038C93.5853 64.7609 93.8603 64.8395 94.2357 64.8395C94.4103 64.8395 94.5587 64.8307 94.6809 64.8133C94.8118 64.7871 94.9777 64.7522 95.1785 64.7085L95.4666 67.7858C95.2221 67.8207 94.9603 67.8556 94.6809 67.8905C94.4452 67.9167 94.1702 67.9385 93.8559 67.956C93.5504 67.9822 93.2317 67.9953 92.9 67.9953C92.385 67.9953 91.9223 67.9298 91.512 67.7989C91.1017 67.6679 90.7481 67.4759 90.4513 67.2227C90.1632 66.9608 89.9406 66.6378 89.7835 66.2537C89.6263 65.8696 89.5478 65.4244 89.5478 64.918V48.9556Z" fill="white"/>
<path d="M101.592 69.3702C102.003 69.3702 102.304 69.296 102.496 69.1476C102.697 68.9992 102.854 68.7592 102.967 68.4274L103.098 67.9953L98.24 53.709H102.26L105.049 63.386L107.367 53.709H111.335L106.608 69.475C106.45 69.9988 106.232 70.4484 105.953 70.8238C105.673 71.1991 105.342 71.5047 104.958 71.7404C104.574 71.9848 104.146 72.1638 103.674 72.2773C103.212 72.3908 102.714 72.4475 102.182 72.4475C101.963 72.4475 101.71 72.4388 101.422 72.4213C101.143 72.4038 100.85 72.3777 100.545 72.3427C100.248 72.3165 99.9511 72.2816 99.6543 72.238C99.3662 72.1943 99.0999 72.142 98.8555 72.0808L99.5364 69.1214C99.7459 69.1738 99.9642 69.2175 100.191 69.2524C100.392 69.2873 100.61 69.3135 100.846 69.331C101.09 69.3571 101.339 69.3702 101.592 69.3702Z" fill="white"/>
<path d="M26.481 92.5562C26.481 92.722 26.5028 92.8792 26.5465 93.0276C26.5901 93.176 26.6643 93.3069 26.7691 93.4204C26.8826 93.5252 27.0397 93.6081 27.2405 93.6692C27.4413 93.7303 27.6988 93.7609 28.0131 93.7609C28.144 93.7609 28.2924 93.7565 28.4583 93.7478C28.6242 93.7303 28.79 93.7129 28.9559 93.6954C29.1218 93.678 29.2745 93.6561 29.4142 93.63C29.5626 93.6038 29.6848 93.5819 29.7809 93.5645L30.1082 96.7596C29.7678 96.8032 29.4142 96.8425 29.0476 96.8774C28.7333 96.9124 28.3841 96.9385 28 96.956C27.6159 96.9822 27.2274 96.9953 26.8346 96.9953C25.5862 96.9953 24.6128 96.7116 23.9144 96.1441C23.216 95.5767 22.8669 94.6732 22.8669 93.4335V85.8517H20.3396V82.709H22.8669V78.7413L26.481 77.7723V82.709H30.1606V85.8517H26.481V92.5562Z" fill="white"/>
<path d="M43.0039 86.2183H42.6242C42.1091 86.2183 41.6159 86.2707 41.1445 86.3755C40.6818 86.4802 40.2715 86.6723 39.9136 86.9516C39.5556 87.2223 39.2676 87.5976 39.0493 88.0778C38.8398 88.5579 38.735 89.1734 38.735 89.9241V96.7334H35.1209V82.709H38.735V84.2934C38.8834 84.0577 39.0755 83.8307 39.3112 83.6125C39.5469 83.3943 39.8219 83.2022 40.1362 83.0363C40.4504 82.8617 40.804 82.7221 41.1968 82.6173C41.5897 82.5125 42.0131 82.4602 42.467 82.4602H43.0039V86.2183Z" fill="white"/>
<path d="M52.4688 91.0372C52.0235 91.107 51.6656 91.2642 51.395 91.5086C51.1244 91.7443 50.9891 92.0673 50.9891 92.4776C50.9891 92.9316 51.1549 93.3244 51.4867 93.6561C51.8184 93.9791 52.3073 94.1406 52.9533 94.1406C53.6342 94.1406 54.1711 93.9442 54.5639 93.5514C54.9568 93.1585 55.1532 92.6391 55.1532 91.9931V90.5789L52.4688 91.0372ZM55.7425 95.4108C55.594 95.5767 55.4107 95.7557 55.1925 95.9477C54.983 96.131 54.7298 96.3013 54.433 96.4584C54.1449 96.6068 53.8044 96.7334 53.4116 96.8382C53.0187 96.9429 52.5779 96.9953 52.089 96.9953C51.3906 96.9953 50.7446 96.8862 50.151 96.6679C49.5661 96.4409 49.051 96.1267 48.6058 95.7251C48.1606 95.3235 47.8114 94.8609 47.5583 94.3371C47.3051 93.8045 47.1785 93.2284 47.1785 92.6086C47.1785 91.4824 47.5277 90.5614 48.2261 89.8456C48.9245 89.1297 49.8891 88.6802 51.12 88.4968L55.1532 87.9076V87.6457C55.1532 87.0171 54.9611 86.5195 54.577 86.1529C54.1929 85.7862 53.5687 85.6029 52.7045 85.6029C52.3466 85.6029 51.9843 85.6465 51.6176 85.7338C51.251 85.8124 50.8974 85.9041 50.5569 86.0088C50.2252 86.1136 49.9153 86.2358 49.6272 86.3755C49.3391 86.5064 49.086 86.6243 48.8677 86.729L47.4535 83.966C48.2566 83.5208 49.1471 83.1542 50.1248 82.8661C51.1113 82.578 52.1327 82.434 53.189 82.434C53.835 82.434 54.4854 82.5038 55.1401 82.6435C55.8036 82.7744 56.4015 83.0189 56.9341 83.3768C57.4753 83.7347 57.9162 84.2236 58.2566 84.8434C58.5971 85.4545 58.7673 86.2358 58.7673 87.1874V92.949C58.7673 93.3593 58.8721 93.6649 59.0816 93.8657C59.2998 94.0577 59.5967 94.2367 59.972 94.4025L58.3352 96.9953C57.6717 96.9255 57.1392 96.7552 56.7376 96.4846C56.3361 96.2052 56.0043 95.8473 55.7425 95.4108Z" fill="white"/>
<path d="M67.4727 89.7932C67.4727 90.2471 67.5338 90.7055 67.656 91.1681C67.7782 91.6221 67.9659 92.0324 68.2191 92.399C68.4723 92.7657 68.7953 93.0669 69.1881 93.3026C69.5897 93.5296 70.0655 93.643 70.6154 93.643C70.9734 93.643 71.2964 93.595 71.5844 93.499C71.8812 93.403 72.1431 93.272 72.3701 93.1062C72.6058 92.9316 72.811 92.7308 72.9856 92.5038C73.1689 92.2681 73.326 92.0149 73.457 91.7443L76.6259 93.3811C76.3989 93.9311 76.0847 94.4287 75.6831 94.8739C75.2902 95.3192 74.8319 95.6989 74.3081 96.0132C73.7843 96.3275 73.2038 96.5675 72.5665 96.7334C71.9293 96.908 71.2527 96.9953 70.5369 96.9953C69.5504 96.9953 68.6425 96.812 67.8132 96.4453C66.9838 96.0699 66.268 95.5592 65.6656 94.9132C65.0633 94.2672 64.5919 93.5034 64.2514 92.6217C63.9109 91.7312 63.7407 90.7666 63.7407 89.7277C63.7407 88.6976 63.9109 87.7373 64.2514 86.8469C64.5919 85.9564 65.0633 85.1839 65.6656 84.5291C66.268 83.8744 66.9838 83.3637 67.8132 82.997C68.6425 82.6217 69.5504 82.434 70.5369 82.434C71.2527 82.434 71.9293 82.5213 72.5665 82.6959C73.2038 82.8617 73.7843 83.1062 74.3081 83.4292C74.8319 83.7434 75.2902 84.1232 75.6831 84.5684C76.0847 85.0136 76.3989 85.5112 76.6259 86.0612L73.457 87.698C73.326 87.4274 73.1689 87.1786 72.9856 86.9516C72.811 86.7159 72.6058 86.5152 72.3701 86.3493C72.1431 86.1747 71.8812 86.0394 71.5844 85.9434C71.2964 85.8386 70.9734 85.7862 70.6154 85.7862C70.0655 85.7862 69.5897 85.9041 69.1881 86.1398C68.7953 86.3668 68.4723 86.6679 68.2191 87.0433C67.9659 87.41 67.7782 87.8246 67.656 88.2873C67.5338 88.75 67.4727 89.2127 67.4727 89.6753V89.7932Z" fill="white"/>
<path d="M85.1479 88.2087L89.8228 82.709H94.3273L89.2597 88.4444L94.4714 96.7334H90.1239L86.6276 91.0241L85.1479 92.6348V96.7334H81.5338V77.9556H85.1479V88.2087Z" fill="white"/>
<path d="M100.938 90.9717C100.999 91.3908 101.13 91.7749 101.33 92.1241C101.54 92.4733 101.802 92.7744 102.116 93.0276C102.43 93.272 102.793 93.4641 103.203 93.6038C103.613 93.7434 104.05 93.8133 104.512 93.8133C105.045 93.8133 105.621 93.7129 106.241 93.5121C106.861 93.3026 107.428 93.0014 107.943 92.6086L109.685 95.1489C109.03 95.6989 108.227 96.1441 107.275 96.4846C106.324 96.8251 105.311 96.9953 104.237 96.9953C103.268 96.9953 102.356 96.8294 101.501 96.4977C100.645 96.166 99.8943 95.6858 99.2483 95.0573C98.6111 94.4287 98.1047 93.6649 97.7293 92.7657C97.3627 91.8665 97.1794 90.8539 97.1794 89.7277C97.1794 88.6976 97.3409 87.7373 97.6639 86.8469C97.9956 85.9564 98.4539 85.1839 99.0388 84.5291C99.6324 83.8744 100.34 83.3637 101.16 82.997C101.981 82.6217 102.889 82.434 103.884 82.434C104.809 82.434 105.669 82.6042 106.464 82.9447C107.258 83.2764 107.948 83.7478 108.532 84.3589C109.117 84.9613 109.576 85.6858 109.907 86.5326C110.239 87.3794 110.405 88.3135 110.405 89.3349V90.9717H100.938ZM103.871 85.5767C103.094 85.5767 102.435 85.8386 101.893 86.3624C101.361 86.8774 101.051 87.5016 100.964 88.2349H106.621C106.603 87.4929 106.333 86.8643 105.809 86.3493C105.285 85.8342 104.639 85.5767 103.871 85.5767Z" fill="white"/>
<path d="M124.401 96.7334V95.5287C124.209 95.7382 123.995 95.9346 123.759 96.118C123.532 96.2925 123.275 96.4453 122.986 96.5763C122.707 96.7072 122.397 96.8076 122.057 96.8774C121.725 96.956 121.354 96.9953 120.944 96.9953C120.018 96.9953 119.172 96.812 118.403 96.4453C117.635 96.0787 116.976 95.5723 116.426 94.9263C115.876 94.2803 115.448 93.5121 115.143 92.6217C114.846 91.7312 114.697 90.7666 114.697 89.7277C114.697 88.6889 114.846 87.7242 115.143 86.8338C115.44 85.9434 115.854 85.1751 116.387 84.5291C116.928 83.8744 117.578 83.3637 118.338 82.997C119.097 82.6217 119.94 82.434 120.865 82.434C121.686 82.434 122.38 82.578 122.947 82.8661C123.523 83.1455 124.008 83.4946 124.401 83.9137V77.9556H128.015V96.7334H124.401ZM124.505 88.4183C124.505 88.0429 124.436 87.6937 124.296 87.3707C124.165 87.0477 123.973 86.7683 123.72 86.5326C123.467 86.2969 123.161 86.1136 122.803 85.9826C122.454 85.8517 122.057 85.7862 121.611 85.7862C121.096 85.7862 120.638 85.8822 120.237 86.0743C119.844 86.2664 119.512 86.537 119.241 86.8862C118.971 87.2266 118.766 87.6326 118.626 88.104C118.486 88.5754 118.416 89.0905 118.416 89.6492V89.8194C118.416 90.3781 118.486 90.8932 118.626 91.3646C118.766 91.8272 118.971 92.2288 119.241 92.5693C119.512 92.9097 119.844 93.176 120.237 93.3681C120.638 93.5514 121.096 93.643 121.611 93.643C122.057 93.643 122.454 93.5776 122.803 93.4466C123.161 93.3157 123.467 93.1323 123.72 92.8966C123.973 92.6609 124.165 92.386 124.296 92.0717C124.436 91.7487 124.505 91.3995 124.505 91.0241V88.4183Z" fill="white"/>
<path d="M34.0236 121.15L35.739 111.709H39.5626L36.3282 125.733H32.0332L29.938 116.619L27.7119 125.733H23.4823L20.2348 111.709H24.1763L25.8394 121.15L28.275 111.709H31.732L34.0236 121.15Z" fill="white"/>
<path d="M47.9013 125.733H44.2872V111.709H47.9013V125.733ZM43.9074 108.029C43.9074 107.733 43.9642 107.453 44.0777 107.191C44.1912 106.921 44.3439 106.689 44.536 106.497C44.7368 106.296 44.9681 106.139 45.23 106.026C45.4919 105.912 45.7756 105.856 46.0812 105.856C46.378 105.856 46.6573 105.912 46.9192 106.026C47.1899 106.139 47.4212 106.296 47.6133 106.497C47.814 106.689 47.9712 106.921 48.0847 107.191C48.1981 107.453 48.2549 107.733 48.2549 108.029C48.2549 108.335 48.1981 108.619 48.0847 108.881C47.9712 109.142 47.814 109.374 47.6133 109.575C47.4212 109.767 47.1899 109.919 46.9192 110.033C46.6573 110.146 46.378 110.203 46.0812 110.203C45.7756 110.203 45.4919 110.146 45.23 110.033C44.9681 109.919 44.7368 109.767 44.536 109.575C44.3439 109.374 44.1912 109.142 44.0777 108.881C43.9642 108.619 43.9074 108.335 43.9074 108.029Z" fill="white"/>
<path d="M58.8721 121.556C58.8721 121.722 58.8939 121.879 58.9376 122.028C58.9812 122.176 59.0554 122.307 59.1602 122.42C59.2737 122.525 59.4308 122.608 59.6316 122.669C59.8324 122.73 60.0899 122.761 60.4042 122.761C60.5351 122.761 60.6835 122.757 60.8494 122.748C61.0153 122.73 61.1811 122.713 61.347 122.695C61.5129 122.678 61.6656 122.656 61.8053 122.63C61.9537 122.604 62.0759 122.582 62.172 122.564L62.4993 125.76C62.1589 125.803 61.8053 125.843 61.4387 125.877C61.1244 125.912 60.7752 125.939 60.3911 125.956C60.007 125.982 59.6185 125.995 59.2256 125.995C57.9773 125.995 57.0039 125.712 56.3055 125.144C55.6071 124.577 55.2579 123.673 55.2579 122.434V114.852H52.7307V111.709H55.2579V107.741L58.8721 106.772V111.709H62.5517V114.852H58.8721V121.556Z" fill="white"/>
<path d="M67.512 106.956H71.1261V112.914C71.3182 112.722 71.5321 112.538 71.7678 112.364C72.0122 112.18 72.2785 112.023 72.5665 111.892C72.8546 111.753 73.1733 111.643 73.5225 111.565C73.8804 111.478 74.2732 111.434 74.701 111.434C75.4605 111.434 76.1414 111.561 76.7438 111.814C77.3461 112.058 77.8524 112.399 78.2627 112.835C78.6818 113.272 79.0004 113.782 79.2187 114.367C79.4369 114.952 79.546 115.585 79.546 116.266V125.733H75.9319V117.575C75.9319 117.078 75.8751 116.659 75.7617 116.318C75.6482 115.969 75.491 115.69 75.2902 115.48C75.0982 115.262 74.8668 115.105 74.5962 115.009C74.3343 114.904 74.0462 114.852 73.732 114.852C73.3653 114.852 73.0205 114.917 72.6975 115.048C72.3832 115.179 72.1082 115.38 71.8725 115.65C71.6368 115.912 71.4535 116.244 71.3225 116.646C71.1916 117.047 71.1261 117.519 71.1261 118.06V125.733H67.512V106.956Z" fill="white"/>
<path d="M112.445 121.15L114.161 111.709H117.984L114.75 125.733H110.455L108.36 116.619L106.134 125.733H101.904L98.6564 111.709H102.598L104.261 121.15L106.697 111.709H110.154L112.445 121.15Z" fill="white"/>
<path d="M126.323 125.733H122.709V111.709H126.323V125.733ZM122.329 108.029C122.329 107.733 122.386 107.453 122.499 107.191C122.613 106.921 122.766 106.689 122.958 106.497C123.158 106.296 123.39 106.139 123.652 106.026C123.914 105.912 124.197 105.856 124.503 105.856C124.8 105.856 125.079 105.912 125.341 106.026C125.611 106.139 125.843 106.296 126.035 106.497C126.236 106.689 126.393 106.921 126.506 107.191C126.62 107.453 126.677 107.733 126.677 108.029C126.677 108.335 126.62 108.619 126.506 108.881C126.393 109.142 126.236 109.374 126.035 109.575C125.843 109.767 125.611 109.919 125.341 110.033C125.079 110.146 124.8 110.203 124.503 110.203C124.197 110.203 123.914 110.146 123.652 110.033C123.39 109.919 123.158 109.767 122.958 109.575C122.766 109.374 122.613 109.142 122.499 108.881C122.386 108.619 122.329 108.335 122.329 108.029Z" fill="white"/>
<path d="M141.13 125.733V124.529C140.938 124.738 140.725 124.935 140.489 125.118C140.262 125.293 140.004 125.445 139.716 125.576C139.437 125.707 139.127 125.808 138.787 125.877C138.455 125.956 138.084 125.995 137.673 125.995C136.748 125.995 135.901 125.812 135.133 125.445C134.365 125.079 133.706 124.572 133.156 123.926C132.606 123.28 132.178 122.512 131.873 121.622C131.576 120.731 131.427 119.767 131.427 118.728C131.427 117.689 131.576 116.724 131.873 115.834C132.169 114.943 132.584 114.175 133.117 113.529C133.658 112.874 134.308 112.364 135.068 111.997C135.827 111.622 136.67 111.434 137.595 111.434C138.415 111.434 139.11 111.578 139.677 111.866C140.253 112.145 140.738 112.495 141.13 112.914V106.956H144.745V125.733H141.13ZM141.235 117.418C141.235 117.043 141.165 116.694 141.026 116.371C140.895 116.048 140.703 115.768 140.45 115.533C140.196 115.297 139.891 115.114 139.533 114.983C139.184 114.852 138.787 114.786 138.341 114.786C137.826 114.786 137.368 114.882 136.966 115.074C136.574 115.266 136.242 115.537 135.971 115.886C135.701 116.227 135.495 116.633 135.356 117.104C135.216 117.575 135.146 118.09 135.146 118.649V118.819C135.146 119.378 135.216 119.893 135.356 120.365C135.495 120.827 135.701 121.229 135.971 121.569C136.242 121.91 136.574 122.176 136.966 122.368C137.368 122.551 137.826 122.643 138.341 122.643C138.787 122.643 139.184 122.578 139.533 122.447C139.891 122.316 140.196 122.132 140.45 121.897C140.703 121.661 140.895 121.386 141.026 121.072C141.165 120.749 141.235 120.399 141.235 120.024V117.418Z" fill="white"/>
<path d="M153.568 119.972C153.629 120.391 153.76 120.775 153.961 121.124C154.17 121.473 154.432 121.774 154.746 122.028C155.061 122.272 155.423 122.464 155.833 122.604C156.244 122.743 156.68 122.813 157.143 122.813C157.675 122.813 158.251 122.713 158.871 122.512C159.491 122.303 160.058 122.001 160.574 121.609L162.315 124.149C161.66 124.699 160.857 125.144 159.906 125.485C158.954 125.825 157.941 125.995 156.868 125.995C155.899 125.995 154.986 125.829 154.131 125.498C153.275 125.166 152.525 124.686 151.879 124.057C151.241 123.429 150.735 122.665 150.36 121.766C149.993 120.867 149.81 119.854 149.81 118.728C149.81 117.698 149.971 116.737 150.294 115.847C150.626 114.956 151.084 114.184 151.669 113.529C152.263 112.874 152.97 112.364 153.79 111.997C154.611 111.622 155.519 111.434 156.514 111.434C157.44 111.434 158.299 111.604 159.094 111.945C159.888 112.276 160.578 112.748 161.163 113.359C161.748 113.961 162.206 114.686 162.538 115.533C162.869 116.379 163.035 117.313 163.035 118.335V119.972H153.568ZM156.501 114.577C155.724 114.577 155.065 114.839 154.524 115.362C153.991 115.877 153.681 116.502 153.594 117.235H159.251C159.233 116.493 158.963 115.864 158.439 115.349C157.915 114.834 157.269 114.577 156.501 114.577Z" fill="white"/>
<path d="M21.2562 135.956H24.8703V150.923C24.8703 151.22 24.9533 151.447 25.1191 151.604C25.2937 151.761 25.5687 151.839 25.9441 151.839C26.1187 151.839 26.2671 151.831 26.3893 151.813C26.5203 151.787 26.6861 151.752 26.8869 151.709L27.175 154.786C26.9306 154.821 26.6687 154.856 26.3893 154.891C26.1536 154.917 25.8786 154.939 25.5644 154.956C25.2588 154.982 24.9402 154.995 24.6085 154.995C24.0934 154.995 23.6307 154.93 23.2204 154.799C22.8101 154.668 22.4566 154.476 22.1597 154.223C21.8717 153.961 21.649 153.638 21.4919 153.254C21.3348 152.87 21.2562 152.424 21.2562 151.918V135.956Z" fill="white"/>
<path d="M35.4614 154.733H31.8472V140.709H35.4614V154.733ZM31.4675 137.029C31.4675 136.733 31.5242 136.453 31.6377 136.191C31.7512 135.921 31.904 135.689 32.096 135.497C32.2968 135.296 32.5281 135.139 32.79 135.026C33.0519 134.912 33.3356 134.856 33.6412 134.856C33.938 134.856 34.2174 134.912 34.4793 135.026C34.7499 135.139 34.9812 135.296 35.1733 135.497C35.3741 135.689 35.5312 135.921 35.6447 136.191C35.7582 136.453 35.8149 136.733 35.8149 137.029C35.8149 137.335 35.7582 137.619 35.6447 137.881C35.5312 138.142 35.3741 138.374 35.1733 138.575C34.9812 138.767 34.7499 138.919 34.4793 139.033C34.2174 139.146 33.938 139.203 33.6412 139.203C33.3356 139.203 33.0519 139.146 32.79 139.033C32.5281 138.919 32.2968 138.767 32.096 138.575C31.904 138.374 31.7512 138.142 31.6377 137.881C31.5242 137.619 31.4675 137.335 31.4675 137.029Z" fill="white"/>
<path d="M41.2597 140.709H44.8738V141.914C45.0659 141.722 45.2798 141.538 45.5155 141.364C45.7599 141.18 46.0262 141.023 46.3143 140.892C46.6023 140.753 46.921 140.643 47.2702 140.565C47.6281 140.478 48.0209 140.434 48.4487 140.434C49.2082 140.434 49.8891 140.561 50.4915 140.814C51.0938 141.058 51.6002 141.399 52.0105 141.835C52.4295 142.272 52.7481 142.782 52.9664 143.367C53.1846 143.952 53.2937 144.585 53.2937 145.266V154.733H49.6796V146.575C49.6796 146.078 49.6229 145.659 49.5094 145.318C49.3959 144.969 49.2387 144.69 49.038 144.48C48.8459 144.262 48.6146 144.105 48.3439 144.009C48.082 143.904 47.794 143.852 47.4797 143.852C47.113 143.852 46.7682 143.917 46.4452 144.048C46.1309 144.179 45.8559 144.38 45.6202 144.65C45.3845 144.912 45.2012 145.244 45.0703 145.646C44.9393 146.047 44.8738 146.519 44.8738 147.06V154.733H41.2597V140.709Z" fill="white"/>
<path d="M62.0253 148.972C62.0864 149.391 62.2174 149.775 62.4181 150.124C62.6277 150.473 62.8895 150.774 63.2038 151.028C63.5181 151.272 63.8804 151.464 64.2907 151.604C64.701 151.743 65.1375 151.813 65.6002 151.813C66.1327 151.813 66.7088 151.713 67.3287 151.512C67.9485 151.303 68.5159 151.001 69.031 150.609L70.7726 153.149C70.1178 153.699 69.3147 154.144 68.3631 154.485C67.4116 154.825 66.3989 154.995 65.3252 154.995C64.3562 154.995 63.4439 154.829 62.5884 154.498C61.7328 154.166 60.9821 153.686 60.3361 153.057C59.6988 152.429 59.1925 151.665 58.8171 150.766C58.4504 149.867 58.2671 148.854 58.2671 147.728C58.2671 146.698 58.4286 145.737 58.7516 144.847C59.0833 143.956 59.5417 143.184 60.1266 142.529C60.7202 141.874 61.4273 141.364 62.2479 140.997C63.0685 140.622 63.9764 140.434 64.9716 140.434C65.897 140.434 66.7569 140.604 67.5513 140.945C68.3457 141.276 69.0353 141.748 69.6202 142.359C70.2051 142.961 70.6634 143.686 70.9952 144.533C71.3269 145.379 71.4928 146.313 71.4928 147.335V148.972H62.0253ZM64.9585 143.577C64.1816 143.577 63.5225 143.839 62.9812 144.362C62.4487 144.877 62.1388 145.502 62.0515 146.235H67.7084C67.6909 145.493 67.4203 144.864 66.8965 144.349C66.3727 143.834 65.7267 143.577 64.9585 143.577Z" fill="white"/>
<path d="M22.3038 179.255C22.8188 179.718 23.4343 180.115 24.1501 180.447C24.866 180.778 25.5906 180.944 26.3239 180.944C26.8564 180.944 27.2754 180.844 27.581 180.643C27.8865 180.434 28.0393 180.167 28.0393 179.844C28.0393 179.294 27.45 178.867 26.2715 178.561L25.2501 178.286C24.7438 178.164 24.2331 177.998 23.718 177.788C23.203 177.57 22.7272 177.286 22.2907 176.937C21.8629 176.588 21.5137 176.165 21.2431 175.667C20.9812 175.161 20.8503 174.541 20.8503 173.808C20.8503 173.223 20.9769 172.668 21.23 172.145C21.4919 171.612 21.8586 171.145 22.33 170.743C22.8101 170.342 23.3906 170.023 24.0716 169.788C24.7525 169.552 25.512 169.434 26.3501 169.434C27.546 169.434 28.6111 169.622 29.5452 169.997C30.488 170.372 31.23 170.796 31.7713 171.267L29.8856 173.677C29.4404 173.354 28.9123 173.079 28.3012 172.852C27.6988 172.616 27.0921 172.498 26.481 172.498C25.9136 172.498 25.4727 172.603 25.1584 172.812C24.8442 173.013 24.687 173.258 24.687 173.546C24.687 173.851 24.8223 174.1 25.093 174.292C25.3723 174.475 25.7739 174.637 26.2977 174.777L27.8167 175.209C29.2658 175.619 30.3047 176.173 30.9332 176.872C31.5617 177.57 31.876 178.452 31.876 179.517C31.876 180.111 31.7538 180.678 31.5094 181.219C31.2649 181.752 30.907 182.228 30.4356 182.647C29.9642 183.066 29.3793 183.397 28.6809 183.642C27.9825 183.877 27.1881 183.995 26.2977 183.995C25.6167 183.995 24.9751 183.934 24.3727 183.812C23.7791 183.69 23.2248 183.524 22.7097 183.314C22.2034 183.096 21.7451 182.852 21.3348 182.581C20.9245 182.31 20.5753 182.04 20.2872 181.769L22.3038 179.255Z" fill="white"/>
<path d="M40.5159 188.159H36.9018V169.709H40.5159V170.914C40.9088 170.503 41.3933 170.154 41.9694 169.866C42.5456 169.578 43.244 169.434 44.0646 169.434C44.9899 169.434 45.828 169.622 46.5788 169.997C47.3383 170.364 47.9886 170.874 48.5299 171.529C49.0711 172.175 49.4902 172.943 49.787 173.834C50.0838 174.724 50.2322 175.689 50.2322 176.728C50.2322 177.767 50.0794 178.731 49.7739 179.622C49.4683 180.512 49.0406 181.28 48.4906 181.926C47.9406 182.572 47.2815 183.079 46.5133 183.445C45.7451 183.812 44.8983 183.995 43.9729 183.995C43.5626 183.995 43.1872 183.956 42.8468 183.877C42.515 183.808 42.2095 183.707 41.9301 183.576C41.6508 183.445 41.3933 183.293 41.1576 183.118C40.9218 182.935 40.708 182.738 40.5159 182.529V188.159ZM40.4112 178.024C40.4112 178.399 40.4766 178.749 40.6076 179.072C40.7473 179.386 40.9437 179.661 41.1968 179.897C41.45 180.132 41.7512 180.316 42.1004 180.447C42.4583 180.578 42.8599 180.643 43.3051 180.643C43.8201 180.643 44.2741 180.551 44.6669 180.368C45.0685 180.176 45.4046 179.91 45.6752 179.569C45.9459 179.229 46.151 178.827 46.2907 178.365C46.4304 177.893 46.5002 177.378 46.5002 176.819V176.649C46.5002 176.09 46.4304 175.575 46.2907 175.104C46.151 174.633 45.9459 174.227 45.6752 173.886C45.4046 173.537 45.0685 173.266 44.6669 173.074C44.2741 172.882 43.8201 172.786 43.3051 172.786C42.8599 172.786 42.4583 172.852 42.1004 172.983C41.7512 173.114 41.45 173.297 41.1968 173.533C40.9437 173.768 40.7473 174.048 40.6076 174.371C40.4766 174.694 40.4112 175.043 40.4112 175.418V178.024Z" fill="white"/>
<path d="M59.8542 178.037C59.409 178.107 59.051 178.264 58.7804 178.509C58.5098 178.744 58.3745 179.067 58.3745 179.478C58.3745 179.932 58.5404 180.324 58.8721 180.656C59.2038 180.979 59.6927 181.141 60.3387 181.141C61.0196 181.141 61.5565 180.944 61.9493 180.551C62.3422 180.159 62.5386 179.639 62.5386 178.993V177.579L59.8542 178.037ZM63.1279 182.411C62.9795 182.577 62.7961 182.756 62.5779 182.948C62.3684 183.131 62.1152 183.301 61.8184 183.458C61.5303 183.607 61.1898 183.733 60.797 183.838C60.4042 183.943 59.9633 183.995 59.4744 183.995C58.7761 183.995 58.13 183.886 57.5364 183.668C56.9515 183.441 56.4365 183.127 55.9912 182.725C55.546 182.324 55.1968 181.861 54.9437 181.337C54.6905 180.805 54.5639 180.228 54.5639 179.609C54.5639 178.482 54.9131 177.561 55.6115 176.846C56.3099 176.13 57.2745 175.68 58.5054 175.497L62.5386 174.908V174.646C62.5386 174.017 62.3465 173.52 61.9624 173.153C61.5783 172.786 60.9541 172.603 60.0899 172.603C59.732 172.603 59.3697 172.647 59.003 172.734C58.6364 172.812 58.2828 172.904 57.9424 173.009C57.6106 173.114 57.3007 173.236 57.0126 173.375C56.7246 173.506 56.4714 173.624 56.2531 173.729L54.8389 170.966C55.6421 170.521 56.5325 170.154 57.5102 169.866C58.4967 169.578 59.5181 169.434 60.5744 169.434C61.2204 169.434 61.8708 169.504 62.5255 169.643C63.189 169.774 63.787 170.019 64.3195 170.377C64.8607 170.735 65.3016 171.224 65.6421 171.843C65.9825 172.454 66.1527 173.236 66.1527 174.187V179.949C66.1527 180.359 66.2575 180.665 66.467 180.866C66.6853 181.058 66.9821 181.237 67.3575 181.403L65.7206 183.995C65.0572 183.925 64.5246 183.755 64.1231 183.485C63.7215 183.205 63.3898 182.847 63.1279 182.411Z" fill="white"/>
<path d="M74.8581 176.793C74.8581 177.247 74.9192 177.705 75.0414 178.168C75.1637 178.622 75.3513 179.032 75.6045 179.399C75.8577 179.766 76.1807 180.067 76.5735 180.303C76.9751 180.53 77.4509 180.643 78.0008 180.643C78.3588 180.643 78.6818 180.595 78.9699 180.499C79.2667 180.403 79.5286 180.272 79.7555 180.106C79.9912 179.932 80.1964 179.731 80.371 179.504C80.5543 179.268 80.7115 179.015 80.8424 178.744L84.0113 180.381C83.7843 180.931 83.4701 181.429 83.0685 181.874C82.6757 182.319 82.2173 182.699 81.6936 183.013C81.1698 183.327 80.5892 183.568 79.952 183.733C79.3147 183.908 78.6381 183.995 77.9223 183.995C76.9358 183.995 76.0279 183.812 75.1986 183.445C74.3692 183.07 73.6534 182.559 73.051 181.913C72.4487 181.267 71.9773 180.503 71.6368 179.622C71.2964 178.731 71.1261 177.767 71.1261 176.728C71.1261 175.698 71.2964 174.737 71.6368 173.847C71.9773 172.956 72.4487 172.184 73.051 171.529C73.6534 170.874 74.3692 170.364 75.1986 169.997C76.0279 169.622 76.9358 169.434 77.9223 169.434C78.6381 169.434 79.3147 169.521 79.952 169.696C80.5892 169.862 81.1698 170.106 81.6936 170.429C82.2173 170.743 82.6757 171.123 83.0685 171.568C83.4701 172.014 83.7843 172.511 84.0113 173.061L80.8424 174.698C80.7115 174.427 80.5543 174.179 80.371 173.952C80.1964 173.716 79.9912 173.515 79.7555 173.349C79.5286 173.175 79.2667 173.039 78.9699 172.943C78.6818 172.839 78.3588 172.786 78.0008 172.786C77.4509 172.786 76.9751 172.904 76.5735 173.14C76.1807 173.367 75.8577 173.668 75.6045 174.043C75.3513 174.41 75.1637 174.825 75.0414 175.287C74.9192 175.75 74.8581 176.213 74.8581 176.675V176.793Z" fill="white"/>
<path d="M92.5334 183.733H88.9192V169.709H92.5334V183.733ZM88.5395 166.029C88.5395 165.733 88.5962 165.453 88.7097 165.191C88.8232 164.921 88.976 164.689 89.168 164.497C89.3688 164.296 89.6001 164.139 89.862 164.026C90.1239 163.912 90.4077 163.856 90.7132 163.856C91.01 163.856 91.2894 163.912 91.5513 164.026C91.8219 164.139 92.0532 164.296 92.2453 164.497C92.4461 164.689 92.6032 164.921 92.7167 165.191C92.8302 165.453 92.8869 165.733 92.8869 166.029C92.8869 166.335 92.8302 166.619 92.7167 166.88C92.6032 167.142 92.4461 167.374 92.2453 167.575C92.0532 167.767 91.8219 167.919 91.5513 168.033C91.2894 168.146 91.01 168.203 90.7132 168.203C90.4077 168.203 90.1239 168.146 89.862 168.033C89.6001 167.919 89.3688 167.767 89.168 167.575C88.976 167.374 88.8232 167.142 88.7097 166.88C88.5962 166.619 88.5395 166.335 88.5395 166.029Z" fill="white"/>
<path d="M98.3317 169.709H101.946V170.914C102.138 170.722 102.352 170.538 102.587 170.364C102.832 170.18 103.098 170.023 103.386 169.892C103.674 169.753 103.993 169.643 104.342 169.565C104.7 169.478 105.093 169.434 105.521 169.434C106.28 169.434 106.961 169.561 107.563 169.814C108.166 170.058 108.672 170.399 109.082 170.835C109.501 171.272 109.82 171.782 110.038 172.367C110.257 172.952 110.366 173.585 110.366 174.266V183.733H106.752V175.575C106.752 175.078 106.695 174.659 106.581 174.318C106.468 173.969 106.311 173.69 106.11 173.48C105.918 173.262 105.687 173.105 105.416 173.009C105.154 172.904 104.866 172.852 104.552 172.852C104.185 172.852 103.84 172.917 103.517 173.048C103.203 173.179 102.928 173.38 102.692 173.65C102.457 173.912 102.273 174.244 102.142 174.646C102.011 175.047 101.946 175.519 101.946 176.06V183.733H98.3317V169.709Z" fill="white"/>
<path d="M124.597 181.245C124.274 181.638 123.82 181.953 123.235 182.188C122.659 182.415 122.031 182.529 121.35 182.529C120.407 182.529 119.569 182.363 118.835 182.031C118.102 181.699 117.482 181.245 116.976 180.669C116.478 180.084 116.094 179.395 115.824 178.6C115.562 177.806 115.431 176.933 115.431 175.981C115.431 175.056 115.562 174.192 115.824 173.389C116.094 172.577 116.478 171.883 116.976 171.307C117.482 170.722 118.102 170.263 118.835 169.932C119.569 169.6 120.407 169.434 121.35 169.434C122.031 169.434 122.659 169.552 123.235 169.788C123.82 170.023 124.274 170.338 124.597 170.73V169.709H128.224V183.602C128.224 184.458 128.063 185.191 127.74 185.802C127.417 186.422 126.972 186.929 126.404 187.321C125.845 187.714 125.195 187.998 124.453 188.173C123.711 188.356 122.921 188.447 122.083 188.447C121.062 188.447 119.996 188.325 118.888 188.081C117.779 187.845 116.823 187.548 116.02 187.19L117.041 184.27C117.286 184.375 117.587 184.489 117.945 184.611C118.303 184.742 118.687 184.855 119.097 184.951C119.508 185.047 119.935 185.126 120.381 185.187C120.835 185.257 121.275 185.292 121.703 185.292C122.079 185.292 122.441 185.252 122.79 185.174C123.139 185.104 123.445 184.982 123.707 184.807C123.977 184.641 124.191 184.419 124.348 184.139C124.514 183.869 124.597 183.52 124.597 183.092V181.245ZM119.15 176.034C119.15 176.496 119.198 176.933 119.294 177.343C119.398 177.745 119.56 178.09 119.778 178.378C120.005 178.657 120.293 178.88 120.642 179.045C120.992 179.203 121.415 179.281 121.913 179.281C122.899 179.281 123.602 178.971 124.021 178.351C124.44 177.723 124.649 176.95 124.649 176.034V175.929C124.649 175.466 124.601 175.034 124.505 174.633C124.409 174.231 124.252 173.886 124.034 173.598C123.816 173.31 123.532 173.087 123.183 172.93C122.842 172.764 122.419 172.681 121.913 172.681C120.935 172.681 120.228 172.991 119.791 173.611C119.364 174.231 119.15 175.004 119.15 175.929V176.034Z" fill="white"/>
</g>
<defs>
<clipPath id="clip0_1322_2648">
<rect width="207.375" height="207.375" fill="white"/>
</clipPath>
</defs>
</svg>
