<svg width="208" height="208" viewBox="0 0 208 208" fill="none" xmlns="http://www.w3.org/2000/svg">
<g clip-path="url(#clip0_1322_2659)">
<g clip-path="url(#clip1_1322_2659)">
<rect width="207.375" height="207.375" fill="#1D70B8"/>
<path d="M19.1562 19.7222H33.4688V23.2447H28.2178V38.5H24.4072V23.2447H19.1562V19.7222Z" fill="white"/>
<path d="M35.4461 19.7222H39.0602V25.6803C39.2523 25.4882 39.4662 25.3049 39.7019 25.1303C39.9463 24.947 40.2126 24.7898 40.5006 24.6589C40.7887 24.5192 41.1074 24.4101 41.4566 24.3315C41.8145 24.2442 42.2073 24.2006 42.6351 24.2006C43.3946 24.2006 44.0755 24.3272 44.6779 24.5803C45.2802 24.8248 45.7865 25.1652 46.1968 25.6017C46.6159 26.0382 46.9345 26.5489 47.1528 27.1338C47.371 27.7187 47.4801 28.3516 47.4801 29.0325V38.5H43.866V30.342C43.866 29.8444 43.8092 29.4254 43.6957 29.0849C43.5823 28.7357 43.4251 28.4564 43.2243 28.2468C43.0323 28.0286 42.8009 27.8715 42.5303 27.7754C42.2684 27.6707 41.9803 27.6183 41.6661 27.6183C41.2994 27.6183 40.9546 27.6838 40.6316 27.8147C40.3173 27.9457 40.0423 28.1464 39.8066 28.4171C39.5709 28.679 39.3876 29.0107 39.2566 29.4123C39.1257 29.8138 39.0602 30.2852 39.0602 30.8265V38.5H35.4461V19.7222Z" fill="white"/>
<path d="M54.1191 38.5H50.505V24.4756H54.1191V38.5ZM50.1253 20.7959C50.1253 20.4991 50.182 20.2198 50.2955 19.9579C50.409 19.6873 50.5617 19.4559 50.7538 19.2639C50.9546 19.0631 51.1859 18.9059 51.4478 18.7925C51.7097 18.679 51.9934 18.6222 52.299 18.6222C52.5958 18.6222 52.8751 18.679 53.137 18.7925C53.4077 18.9059 53.639 19.0631 53.8311 19.2639C54.0318 19.4559 54.189 19.6873 54.3025 19.9579C54.416 20.2198 54.4727 20.4991 54.4727 20.7959C54.4727 21.1015 54.416 21.3852 54.3025 21.6471C54.189 21.909 54.0318 22.1403 53.8311 22.3411C53.639 22.5332 53.4077 22.6859 53.137 22.7994C52.8751 22.9129 52.5958 22.9697 52.299 22.9697C51.9934 22.9697 51.7097 22.9129 51.4478 22.7994C51.1859 22.6859 50.9546 22.5332 50.7538 22.3411C50.5617 22.1403 50.409 21.909 50.2955 21.6471C50.182 21.3852 50.1253 21.1015 50.1253 20.7959Z" fill="white"/>
<path d="M58.2309 34.0216C58.7459 34.4843 59.3614 34.8815 60.0772 35.2132C60.7931 35.545 61.5177 35.7108 62.251 35.7108C62.7835 35.7108 63.2025 35.6104 63.5081 35.4096C63.8136 35.2001 63.9664 34.9339 63.9664 34.6109C63.9664 34.0609 63.3771 33.6331 62.1986 33.3276L61.1772 33.0526C60.6709 32.9304 60.1602 32.7645 59.6451 32.555C59.1301 32.3368 58.6543 32.053 58.2178 31.7038C57.79 31.3547 57.4408 30.9313 57.1702 30.4337C56.9083 29.9273 56.7774 29.3075 56.7774 28.5742C56.7774 27.9893 56.9039 27.435 57.1571 26.9112C57.419 26.3787 57.7857 25.9116 58.2571 25.51C58.7372 25.1085 59.3177 24.7898 59.9987 24.5541C60.6796 24.3184 61.4391 24.2006 62.2771 24.2006C63.4731 24.2006 64.5382 24.3883 65.4723 24.7636C66.4151 25.139 67.1571 25.5624 67.6984 26.0338L65.8127 28.4433C65.3675 28.1203 64.8393 27.8453 64.2283 27.6183C63.6259 27.3826 63.0192 27.2647 62.4081 27.2647C61.8407 27.2647 61.3998 27.3695 61.0855 27.579C60.7713 27.7798 60.6141 28.0242 60.6141 28.3123C60.6141 28.6179 60.7494 28.8667 61.0201 29.0587C61.2994 29.242 61.701 29.4035 62.2248 29.5432L63.7438 29.9753C65.1929 30.3856 66.2318 30.94 66.8603 31.6384C67.4888 32.3368 67.8031 33.2185 67.8031 34.2835C67.8031 34.8771 67.6809 35.4446 67.4365 35.9858C67.192 36.5183 66.8341 36.9941 66.3627 37.4131C65.8913 37.8322 65.3064 38.1639 64.608 38.4083C63.9096 38.644 63.1152 38.7619 62.2248 38.7619C61.5438 38.7619 60.9022 38.7008 60.2998 38.5786C59.7062 38.4564 59.1519 38.2905 58.6368 38.081C58.1305 37.8627 57.6722 37.6183 57.2619 37.3477C56.8516 37.077 56.5024 36.8064 56.2143 36.5358L58.2309 34.0216Z" fill="white"/>
<path d="M78.6063 38.5H74.9921V24.4756H78.6063V38.5ZM74.6124 20.7959C74.6124 20.4991 74.6691 20.2198 74.7826 19.9579C74.8961 19.6873 75.0489 19.4559 75.2409 19.2639C75.4417 19.0631 75.673 18.9059 75.9349 18.7925C76.1968 18.679 76.4806 18.6222 76.7861 18.6222C77.0829 18.6222 77.3623 18.679 77.6242 18.7925C77.8948 18.9059 78.1261 19.0631 78.3182 19.2639C78.519 19.4559 78.6761 19.6873 78.7896 19.9579C78.9031 20.2198 78.9598 20.4991 78.9598 20.7959C78.9598 21.1015 78.9031 21.3852 78.7896 21.6471C78.6761 21.909 78.519 22.1403 78.3182 22.3411C78.1261 22.5332 77.8948 22.6859 77.6242 22.7994C77.3623 22.9129 77.0829 22.9697 76.7861 22.9697C76.4806 22.9697 76.1968 22.9129 75.9349 22.7994C75.673 22.6859 75.4417 22.5332 75.2409 22.3411C75.0489 22.1403 74.8961 21.909 74.7826 21.6471C74.6691 21.3852 74.6124 21.1015 74.6124 20.7959Z" fill="white"/>
<path d="M82.718 34.0216C83.2331 34.4843 83.8485 34.8815 84.5644 35.2132C85.2802 35.545 86.0048 35.7108 86.7381 35.7108C87.2706 35.7108 87.6896 35.6104 87.9952 35.4096C88.3007 35.2001 88.4535 34.9339 88.4535 34.6109C88.4535 34.0609 87.8642 33.6331 86.6857 33.3276L85.6643 33.0526C85.158 32.9304 84.6473 32.7645 84.1322 32.555C83.6172 32.3368 83.1414 32.053 82.7049 31.7038C82.2771 31.3547 81.9279 30.9313 81.6573 30.4337C81.3954 29.9273 81.2645 29.3075 81.2645 28.5742C81.2645 27.9893 81.3911 27.435 81.6442 26.9112C81.9061 26.3787 82.2728 25.9116 82.7442 25.51C83.2243 25.1085 83.8049 24.7898 84.4858 24.5541C85.1667 24.3184 85.9262 24.2006 86.7643 24.2006C87.9603 24.2006 89.0253 24.3883 89.9594 24.7636C90.9022 25.139 91.6442 25.5624 92.1855 26.0338L90.2998 28.4433C89.8546 28.1203 89.3265 27.8453 88.7154 27.6183C88.113 27.3826 87.5063 27.2647 86.8952 27.2647C86.3278 27.2647 85.8869 27.3695 85.5726 27.579C85.2584 27.7798 85.1012 28.0242 85.1012 28.3123C85.1012 28.6179 85.2365 28.8667 85.5072 29.0587C85.7865 29.242 86.1881 29.4035 86.7119 29.5432L88.2309 29.9753C89.68 30.3856 90.7189 30.94 91.3474 31.6384C91.976 32.3368 92.2902 33.2185 92.2902 34.2835C92.2902 34.8771 92.168 35.4446 91.9236 35.9858C91.6791 36.5183 91.3212 36.9941 90.8498 37.4131C90.3784 37.8322 89.7935 38.1639 89.0951 38.4083C88.3967 38.644 87.6023 38.7619 86.7119 38.7619C86.031 38.7619 85.3893 38.7008 84.787 38.5786C84.1933 38.4564 83.639 38.2905 83.1239 38.081C82.6176 37.8627 82.1593 37.6183 81.749 37.3477C81.3387 37.077 80.9895 36.8064 80.7014 36.5358L82.718 34.0216Z" fill="white"/>
<path d="M102.504 32.7383C102.565 33.1574 102.696 33.5415 102.897 33.8907C103.106 34.2399 103.368 34.541 103.683 34.7942C103.997 35.0386 104.359 35.2307 104.769 35.3704C105.18 35.51 105.616 35.5799 106.079 35.5799C106.611 35.5799 107.188 35.4795 107.807 35.2787C108.427 35.0692 108.995 34.768 109.51 34.3752L111.251 36.9155C110.597 37.4655 109.794 37.9107 108.842 38.2512C107.89 38.5917 106.878 38.7619 105.804 38.7619C104.835 38.7619 103.923 38.596 103.067 38.2643C102.212 37.9326 101.461 37.4524 100.815 36.8239C100.178 36.1953 99.6713 35.4315 99.2959 34.5323C98.9293 33.6331 98.7459 32.6205 98.7459 31.4943C98.7459 30.4642 98.9074 29.5039 99.2304 28.6135C99.5622 27.7231 100.02 26.9505 100.605 26.2957C101.199 25.641 101.906 25.1303 102.727 24.7636C103.547 24.3883 104.455 24.2006 105.45 24.2006C106.376 24.2006 107.236 24.3708 108.03 24.7113C108.824 25.043 109.514 25.5144 110.099 26.1255C110.684 26.7279 111.142 27.4524 111.474 28.2992C111.806 29.146 111.972 30.0801 111.972 31.1015V32.7383H102.504ZM105.437 27.3433C104.66 27.3433 104.001 27.6052 103.46 28.129C102.928 28.644 102.618 29.2682 102.53 30.0015H108.187C108.17 29.2595 107.899 28.631 107.375 28.1159C106.852 27.6008 106.206 27.3433 105.437 27.3433Z" fill="white"/>
<path d="M118.807 32.8038C118.362 32.8736 118.004 33.0308 117.733 33.2752C117.463 33.5109 117.327 33.8339 117.327 34.2442C117.327 34.6982 117.493 35.091 117.825 35.4227C118.157 35.7457 118.646 35.9072 119.292 35.9072C119.972 35.9072 120.509 35.7108 120.902 35.318C121.295 34.9251 121.491 34.4057 121.491 33.7597V32.3455L118.807 32.8038ZM122.081 37.1774C121.932 37.3433 121.749 37.5223 121.531 37.7143C121.321 37.8976 121.068 38.0679 120.771 38.225C120.483 38.3734 120.143 38.5 119.75 38.6048C119.357 38.7095 118.916 38.7619 118.427 38.7619C117.729 38.7619 117.083 38.6528 116.489 38.4345C115.904 38.2076 115.389 37.8933 114.944 37.4917C114.499 37.0901 114.15 36.6275 113.897 36.1037C113.643 35.5711 113.517 34.995 113.517 34.3752C113.517 33.249 113.866 32.328 114.564 31.6122C115.263 30.8963 116.227 30.4468 117.458 30.2634L121.491 29.6742V29.4123C121.491 28.7837 121.299 28.2861 120.915 27.9195C120.531 27.5528 119.907 27.3695 119.043 27.3695C118.685 27.3695 118.323 27.4131 117.956 27.5004C117.589 27.579 117.236 27.6707 116.895 27.7754C116.563 27.8802 116.254 28.0024 115.965 28.1421C115.677 28.273 115.424 28.3909 115.206 28.4956L113.792 25.7327C114.595 25.2874 115.485 24.9208 116.463 24.6327C117.45 24.3446 118.471 24.2006 119.527 24.2006C120.173 24.2006 120.824 24.2704 121.478 24.4101C122.142 24.541 122.74 24.7855 123.272 25.1434C123.814 25.5013 124.254 25.9902 124.595 26.61C124.935 27.2211 125.106 28.0024 125.106 28.954V34.7156C125.106 35.1259 125.21 35.4315 125.42 35.6323C125.638 35.8243 125.935 36.0033 126.31 36.1691L124.673 38.7619C124.01 38.6921 123.477 38.5218 123.076 38.2512C122.674 37.9718 122.343 37.6139 122.081 37.1774Z" fill="white"/>
<path d="M129.126 34.0216C129.641 34.4843 130.256 34.8815 130.972 35.2132C131.688 35.545 132.412 35.7108 133.146 35.7108C133.678 35.7108 134.097 35.6104 134.403 35.4096C134.708 35.2001 134.861 34.9339 134.861 34.6109C134.861 34.0609 134.272 33.6331 133.093 33.3276L132.072 33.0526C131.566 32.9304 131.055 32.7645 130.54 32.555C130.025 32.3368 129.549 32.053 129.113 31.7038C128.685 31.3547 128.336 30.9313 128.065 30.4337C127.803 29.9273 127.672 29.3075 127.672 28.5742C127.672 27.9893 127.799 27.435 128.052 26.9112C128.314 26.3787 128.68 25.9116 129.152 25.51C129.632 25.1085 130.213 24.7898 130.893 24.5541C131.574 24.3184 132.334 24.2006 133.172 24.2006C134.368 24.2006 135.433 24.3883 136.367 24.7636C137.31 25.139 138.052 25.5624 138.593 26.0338L136.708 28.4433C136.262 28.1203 135.734 27.8453 135.123 27.6183C134.521 27.3826 133.914 27.2647 133.303 27.2647C132.735 27.2647 132.295 27.3695 131.98 27.579C131.666 27.7798 131.509 28.0242 131.509 28.3123C131.509 28.6179 131.644 28.8667 131.915 29.0587C132.194 29.242 132.596 29.4035 133.12 29.5432L134.639 29.9753C136.088 30.3856 137.127 30.94 137.755 31.6384C138.384 32.3368 138.698 33.2185 138.698 34.2835C138.698 34.8771 138.576 35.4446 138.331 35.9858C138.087 36.5183 137.729 36.9941 137.257 37.4131C136.786 37.8322 136.201 38.1639 135.503 38.4083C134.804 38.644 134.01 38.7619 133.12 38.7619C132.439 38.7619 131.797 38.7008 131.195 38.5786C130.601 38.4564 130.047 38.2905 129.532 38.081C129.025 37.8627 128.567 37.6183 128.157 37.3477C127.746 37.077 127.397 36.8064 127.109 36.5358L129.126 34.0216Z" fill="white"/>
<path d="M142.967 40.1368C143.377 40.1368 143.678 40.0626 143.87 39.9142C144.071 39.7658 144.228 39.5258 144.342 39.194L144.473 38.7619L139.615 24.4756H143.635L146.424 34.1526L148.742 24.4756H152.709L147.982 40.2416C147.825 40.7654 147.607 41.215 147.327 41.5904C147.048 41.9657 146.716 42.2713 146.332 42.507C145.948 42.7514 145.52 42.9304 145.049 43.0439C144.586 43.1574 144.089 43.2141 143.556 43.2141C143.338 43.2141 143.085 43.2054 142.797 43.1879C142.517 43.1705 142.225 43.1443 141.919 43.1093C141.622 43.0832 141.326 43.0482 141.029 43.0046C140.741 42.9609 140.474 42.9086 140.23 42.8474L140.911 39.888C141.12 39.9404 141.339 39.9841 141.566 40.019C141.766 40.0539 141.985 40.0801 142.22 40.0976C142.465 40.1237 142.714 40.1368 142.967 40.1368Z" fill="white"/>
<path d="M25.481 64.3228C25.481 64.4887 25.5028 64.6458 25.5465 64.7942C25.5901 64.9426 25.6643 65.0736 25.7691 65.187C25.8826 65.2918 26.0397 65.3747 26.2405 65.4358C26.4413 65.4969 26.6988 65.5275 27.0131 65.5275C27.144 65.5275 27.2924 65.5231 27.4583 65.5144C27.6242 65.4969 27.79 65.4795 27.9559 65.462C28.1218 65.4446 28.2745 65.4227 28.4142 65.3966C28.5626 65.3704 28.6848 65.3485 28.7809 65.3311L29.1082 68.5262C28.7678 68.5698 28.4142 68.6091 28.0476 68.644C27.7333 68.679 27.3841 68.7052 27 68.7226C26.6159 68.7488 26.2274 68.7619 25.8346 68.7619C24.5862 68.7619 23.6128 68.4782 22.9144 67.9107C22.216 67.3433 21.8669 66.4398 21.8669 65.2001V57.6183H19.3396V54.4756H21.8669V50.5079L25.481 49.5389V54.4756H29.1606V57.6183H25.481V64.3228Z" fill="white"/>
<path d="M37.6067 54.2006C38.6456 54.2006 39.5884 54.3883 40.4352 54.7636C41.282 55.1303 42.0065 55.641 42.6089 56.2957C43.2112 56.9505 43.6739 57.7231 43.9969 58.6135C44.3287 59.5039 44.4945 60.4642 44.4945 61.4943C44.4945 62.5332 44.3287 63.4978 43.9969 64.3883C43.6652 65.27 43.1981 66.0338 42.5958 66.6798C41.9934 67.3258 41.2689 67.8365 40.4221 68.2119C39.5753 68.5786 38.6368 68.7619 37.6067 68.7619C36.5679 68.7619 35.625 68.5786 34.7782 68.2119C33.9315 67.8365 33.2069 67.3258 32.6045 66.6798C32.0022 66.0338 31.5351 65.27 31.2034 64.3883C30.8717 63.4978 30.7058 62.5332 30.7058 61.4943C30.7058 60.4642 30.8673 59.5039 31.1903 58.6135C31.522 57.7231 31.9891 56.9505 32.5914 56.2957C33.1938 55.641 33.9184 55.1303 34.7652 54.7636C35.6207 54.3883 36.5679 54.2006 37.6067 54.2006ZM37.6067 65.4096C38.1218 65.4096 38.5757 65.3136 38.9686 65.1216C39.3701 64.9295 39.7062 64.6633 39.9768 64.3228C40.2475 63.9823 40.4526 63.5764 40.5923 63.105C40.732 62.6248 40.8018 62.101 40.8018 61.5336V61.4419C40.8018 60.8745 40.732 60.3551 40.5923 59.8837C40.4526 59.4035 40.2475 58.9932 39.9768 58.6528C39.7062 58.3036 39.3701 58.033 38.9686 57.8409C38.5757 57.6488 38.1218 57.5528 37.6067 57.5528C37.0916 57.5528 36.6333 57.6488 36.2318 57.8409C35.8389 58.033 35.5072 58.3036 35.2366 58.6528C34.9659 58.9932 34.7608 59.4035 34.6211 59.8837C34.4814 60.3551 34.4116 60.8745 34.4116 61.4419V61.5336C34.4116 62.101 34.4814 62.6248 34.6211 63.105C34.7608 63.5764 34.9659 63.9823 35.2366 64.3228C35.5072 64.6633 35.8389 64.9295 36.2318 65.1216C36.6333 65.3136 37.0916 65.4096 37.6067 65.4096Z" fill="white"/>
<path d="M56.5809 54.4756H59.2654V57.6183H56.5809V68.5H52.9668V57.6183H50.7407V54.4756H52.9668V52.7602C52.9668 52.1491 53.0716 51.6209 53.2811 51.1757C53.4906 50.7217 53.7787 50.3507 54.1453 50.0626C54.5207 49.7658 54.9659 49.5476 55.481 49.4079C56.0048 49.2595 56.5809 49.1853 57.2095 49.1853C57.5238 49.1853 57.8293 49.194 58.1261 49.2115C58.4229 49.2289 58.6979 49.2464 58.9511 49.2639C59.2043 49.2813 59.4269 49.3031 59.6189 49.3293C59.8197 49.3555 59.9725 49.373 60.0772 49.3817L59.7761 52.459C59.6713 52.4415 59.5404 52.4241 59.3832 52.4066C59.2348 52.3891 59.0777 52.376 58.9118 52.3673C58.7459 52.3499 58.5844 52.3411 58.4273 52.3411C58.2702 52.3324 58.1305 52.328 58.0083 52.328C57.4932 52.328 57.1266 52.4284 56.9083 52.6292C56.6901 52.8213 56.5809 53.0701 56.5809 53.3756V54.4756Z" fill="white"/>
<path d="M67.515 54.2006C68.5539 54.2006 69.4967 54.3883 70.3435 54.7636C71.1903 55.1303 71.9149 55.641 72.5172 56.2957C73.1196 56.9505 73.5823 57.7231 73.9053 58.6135C74.237 59.5039 74.4029 60.4642 74.4029 61.4943C74.4029 62.5332 74.237 63.4978 73.9053 64.3883C73.5735 65.27 73.1065 66.0338 72.5041 66.6798C71.9018 67.3258 71.1772 67.8365 70.3304 68.2119C69.4836 68.5786 68.5452 68.7619 67.515 68.7619C66.4762 68.7619 65.5334 68.5786 64.6866 68.2119C63.8398 67.8365 63.1152 67.3258 62.5129 66.6798C61.9105 66.0338 61.4435 65.27 61.1117 64.3883C60.78 63.4978 60.6141 62.5332 60.6141 61.4943C60.6141 60.4642 60.7756 59.5039 61.0986 58.6135C61.4304 57.7231 61.8974 56.9505 62.4998 56.2957C63.1021 55.641 63.8267 55.1303 64.6735 54.7636C65.529 54.3883 66.4762 54.2006 67.515 54.2006ZM67.515 65.4096C68.0301 65.4096 68.484 65.3136 68.8769 65.1216C69.2785 64.9295 69.6146 64.6633 69.8852 64.3228C70.1558 63.9823 70.361 63.5764 70.5006 63.105C70.6403 62.6248 70.7101 62.101 70.7101 61.5336V61.4419C70.7101 60.8745 70.6403 60.3551 70.5006 59.8837C70.361 59.4035 70.1558 58.9932 69.8852 58.6528C69.6146 58.3036 69.2785 58.033 68.8769 57.8409C68.484 57.6488 68.0301 57.5528 67.515 57.5528C67 57.5528 66.5417 57.6488 66.1401 57.8409C65.7472 58.033 65.4155 58.3036 65.1449 58.6528C64.8743 58.9932 64.6691 59.4035 64.5294 59.8837C64.3898 60.3551 64.3199 60.8745 64.3199 61.4419V61.5336C64.3199 62.101 64.3898 62.6248 64.5294 63.105C64.6691 63.5764 64.8743 63.9823 65.1449 64.3228C65.4155 64.6633 65.7472 64.9295 66.1401 65.1216C66.5417 65.3136 67 65.4096 67.515 65.4096Z" fill="white"/>
<path d="M76.7468 49.7222H80.361V64.6894C80.361 64.9863 80.4439 65.2132 80.6098 65.3704C80.7843 65.5275 81.0593 65.6061 81.4347 65.6061C81.6093 65.6061 81.7577 65.5973 81.8799 65.5799C82.0109 65.5537 82.1768 65.5188 82.3775 65.4751L82.6656 68.5524C82.4212 68.5873 82.1593 68.6222 81.8799 68.6571C81.6442 68.6833 81.3692 68.7052 81.055 68.7226C80.7494 68.7488 80.4308 68.7619 80.0991 68.7619C79.584 68.7619 79.1213 68.6964 78.711 68.5655C78.3007 68.4345 77.9472 68.2425 77.6503 67.9893C77.3623 67.7274 77.1397 67.4044 76.9825 67.0203C76.8254 66.6362 76.7468 66.191 76.7468 65.6846V49.7222Z" fill="white"/>
<path d="M84.6036 49.7222H88.2178V64.6894C88.2178 64.9863 88.3007 65.2132 88.4666 65.3704C88.6412 65.5275 88.9162 65.6061 89.2915 65.6061C89.4661 65.6061 89.6146 65.5973 89.7368 65.5799C89.8677 65.5537 90.0336 65.5188 90.2344 65.4751L90.5225 68.5524C90.278 68.5873 90.0161 68.6222 89.7368 68.6571C89.5011 68.6833 89.2261 68.7052 88.9118 68.7226C88.6063 68.7488 88.2876 68.7619 87.9559 68.7619C87.4408 68.7619 86.9781 68.6964 86.5678 68.5655C86.1575 68.4345 85.804 68.2425 85.5072 67.9893C85.2191 67.7274 84.9965 67.4044 84.8393 67.0203C84.6822 66.6362 84.6036 66.191 84.6036 65.6846V49.7222Z" fill="white"/>
<path d="M98.6805 54.2006C99.7193 54.2006 100.662 54.3883 101.509 54.7636C102.356 55.1303 103.08 55.641 103.683 56.2957C104.285 56.9505 104.748 57.7231 105.071 58.6135C105.402 59.5039 105.568 60.4642 105.568 61.4943C105.568 62.5332 105.402 63.4978 105.071 64.3883C104.739 65.27 104.272 66.0338 103.67 66.6798C103.067 67.3258 102.343 67.8365 101.496 68.2119C100.649 68.5786 99.7106 68.7619 98.6805 68.7619C97.6416 68.7619 96.6988 68.5786 95.852 68.2119C95.0052 67.8365 94.2806 67.3258 93.6783 66.6798C93.0759 66.0338 92.6089 65.27 92.2771 64.3883C91.9454 63.4978 91.7795 62.5332 91.7795 61.4943C91.7795 60.4642 91.941 59.5039 92.264 58.6135C92.5958 57.7231 93.0628 56.9505 93.6652 56.2957C94.2675 55.641 94.9921 55.1303 95.8389 54.7636C96.6944 54.3883 97.6416 54.2006 98.6805 54.2006ZM98.6805 65.4096C99.1955 65.4096 99.6495 65.3136 100.042 65.1216C100.444 64.9295 100.78 64.6633 101.051 64.3228C101.321 63.9823 101.526 63.5764 101.666 63.105C101.806 62.6248 101.876 62.101 101.876 61.5336V61.4419C101.876 60.8745 101.806 60.3551 101.666 59.8837C101.526 59.4035 101.321 58.9932 101.051 58.6528C100.78 58.3036 100.444 58.033 100.042 57.8409C99.6495 57.6488 99.1955 57.5528 98.6805 57.5528C98.1654 57.5528 97.7071 57.6488 97.3055 57.8409C96.9127 58.033 96.5809 58.3036 96.3103 58.6528C96.0397 58.9932 95.8345 59.4035 95.6949 59.8837C95.5552 60.3551 95.4853 60.8745 95.4853 61.4419V61.5336C95.4853 62.101 95.5552 62.6248 95.6949 63.105C95.8345 63.5764 96.0397 63.9823 96.3103 64.3228C96.5809 64.6633 96.9127 64.9295 97.3055 65.1216C97.7071 65.3136 98.1654 65.4096 98.6805 65.4096Z" fill="white"/>
<path d="M120.68 63.9169L122.395 54.4756H126.219L122.984 68.5H118.689L116.594 59.3861L114.368 68.5H110.138L106.891 54.4756H110.832L112.495 63.9169L114.931 54.4756H118.388L120.68 63.9169Z" fill="white"/>
<path d="M137.637 62.8038C137.192 62.8736 136.834 63.0308 136.563 63.2752C136.293 63.5109 136.158 63.8339 136.158 64.2442C136.158 64.6982 136.323 65.091 136.655 65.4227C136.987 65.7457 137.476 65.9072 138.122 65.9072C138.803 65.9072 139.34 65.7108 139.732 65.318C140.125 64.9251 140.322 64.4057 140.322 63.7597V62.3455L137.637 62.8038ZM140.911 67.1774C140.763 67.3433 140.579 67.5223 140.361 67.7143C140.151 67.8976 139.898 68.0679 139.601 68.225C139.313 68.3734 138.973 68.5 138.58 68.6048C138.187 68.7095 137.746 68.7619 137.257 68.7619C136.559 68.7619 135.913 68.6528 135.319 68.4345C134.735 68.2076 134.22 67.8933 133.774 67.4917C133.329 67.0901 132.98 66.6275 132.727 66.1037C132.474 65.5711 132.347 64.995 132.347 64.3752C132.347 63.249 132.696 62.328 133.395 61.6122C134.093 60.8963 135.058 60.4467 136.288 60.2634L140.322 59.6742V59.4123C140.322 58.7837 140.13 58.2861 139.745 57.9195C139.361 57.5528 138.737 57.3695 137.873 57.3695C137.515 57.3695 137.153 57.4131 136.786 57.5004C136.419 57.579 136.066 57.6707 135.725 57.7754C135.394 57.8802 135.084 58.0024 134.796 58.1421C134.508 58.273 134.254 58.3909 134.036 58.4956L132.622 55.7327C133.425 55.2874 134.316 54.9208 135.293 54.6327C136.28 54.3446 137.301 54.2006 138.357 54.2006C139.003 54.2006 139.654 54.2704 140.309 54.4101C140.972 54.541 141.57 54.7855 142.103 55.1434C142.644 55.5013 143.085 55.9902 143.425 56.61C143.766 57.2211 143.936 58.0024 143.936 58.954V64.7156C143.936 65.1259 144.041 65.4315 144.25 65.6323C144.468 65.8243 144.765 66.0033 145.141 66.1691L143.504 68.7619C142.84 68.6921 142.308 68.5218 141.906 68.2512C141.505 67.9718 141.173 67.6139 140.911 67.1774Z" fill="white"/>
<path d="M146.961 54.4756H150.575V55.6803C150.767 55.4882 150.981 55.3049 151.216 55.1303C151.461 54.947 151.727 54.7898 152.015 54.6589C152.303 54.5192 152.622 54.4101 152.971 54.3315C153.329 54.2442 153.722 54.2006 154.15 54.2006C154.909 54.2006 155.59 54.3272 156.192 54.5803C156.795 54.8248 157.301 55.1652 157.711 55.6017C158.13 56.0382 158.449 56.5489 158.667 57.1338C158.886 57.7187 158.995 58.3516 158.995 59.0325V68.5H155.381V60.342C155.381 59.8444 155.324 59.4254 155.21 59.0849C155.097 58.7357 154.94 58.4564 154.739 58.2468C154.547 58.0286 154.316 57.8715 154.045 57.7754C153.783 57.6707 153.495 57.6183 153.181 57.6183C152.814 57.6183 152.469 57.6838 152.146 57.8147C151.832 57.9457 151.557 58.1464 151.321 58.4171C151.086 58.679 150.902 59.0107 150.771 59.4123C150.64 59.8138 150.575 60.2852 150.575 60.8265V68.5H146.961V54.4756Z" fill="white"/>
<path d="M171.029 68.5V67.2953C170.837 67.5048 170.623 67.7012 170.387 67.8845C170.16 68.0591 169.903 68.2119 169.615 68.3429C169.335 68.4738 169.025 68.5742 168.685 68.644C168.353 68.7226 167.982 68.7619 167.572 68.7619C166.646 68.7619 165.8 68.5786 165.031 68.2119C164.263 67.8453 163.604 67.3389 163.054 66.6929C162.504 66.0469 162.076 65.2787 161.771 64.3883C161.474 63.4978 161.326 62.5332 161.326 61.4943C161.326 60.4555 161.474 59.4908 161.771 58.6004C162.068 57.71 162.482 56.9417 163.015 56.2957C163.556 55.641 164.206 55.1303 164.966 54.7636C165.725 54.3883 166.568 54.2006 167.493 54.2006C168.314 54.2006 169.008 54.3446 169.575 54.6327C170.151 54.9121 170.636 55.2612 171.029 55.6803V49.7222H174.643V68.5H171.029ZM171.134 60.1849C171.134 59.8095 171.064 59.4603 170.924 59.1373C170.793 58.8143 170.601 58.5349 170.348 58.2992C170.095 58.0635 169.789 57.8802 169.431 57.7492C169.082 57.6183 168.685 57.5528 168.24 57.5528C167.725 57.5528 167.266 57.6488 166.865 57.8409C166.472 58.033 166.14 58.3036 165.869 58.6528C165.599 58.9932 165.394 59.3992 165.254 59.8706C165.114 60.342 165.044 60.8571 165.044 61.4158V61.586C165.044 62.1447 165.114 62.6598 165.254 63.1312C165.394 63.5938 165.599 63.9954 165.869 64.3359C166.14 64.6763 166.472 64.9426 166.865 65.1347C167.266 65.318 167.725 65.4096 168.24 65.4096C168.685 65.4096 169.082 65.3442 169.431 65.2132C169.789 65.0823 170.095 64.899 170.348 64.6632C170.601 64.4275 170.793 64.1526 170.924 63.8383C171.064 63.5153 171.134 63.1661 171.134 62.7907V60.1849Z" fill="white"/>
<path d="M28.1916 86.9849H27.8119C27.2968 86.9849 26.8036 87.0373 26.3322 87.1421C25.8695 87.2468 25.4592 87.4389 25.1013 87.7182C24.7433 87.9889 24.4552 88.3643 24.237 88.8444C24.0275 89.3245 23.9227 89.94 23.9227 90.6908V97.5H20.3086V83.4756H23.9227V85.06C24.0711 84.8243 24.2632 84.5973 24.4989 84.3791C24.7346 84.1609 25.0096 83.9688 25.3239 83.8029C25.6381 83.6283 25.9917 83.4887 26.3845 83.3839C26.7774 83.2791 27.2008 83.2268 27.6547 83.2268H28.1916V86.9849Z" fill="white"/>
<path d="M33.4688 91.7383C33.5299 92.1574 33.6608 92.5415 33.8616 92.8907C34.0711 93.2399 34.333 93.541 34.6473 93.7942C34.9616 94.0386 35.3239 94.2307 35.7342 94.3704C36.1445 94.51 36.581 94.5799 37.0436 94.5799C37.5762 94.5799 38.1523 94.4795 38.7721 94.2787C39.392 94.0692 39.9594 93.768 40.4744 93.3752L42.216 95.9155C41.5613 96.4655 40.7582 96.9107 39.8066 97.2512C38.8551 97.5917 37.8424 97.7619 36.7686 97.7619C35.7996 97.7619 34.8874 97.596 34.0318 97.2643C33.1763 96.9326 32.4256 96.4524 31.7796 95.8239C31.1423 95.1953 30.636 94.4315 30.2606 93.5323C29.8939 92.6331 29.7106 91.6205 29.7106 90.4943C29.7106 89.4642 29.8721 88.5039 30.1951 87.6135C30.5268 86.723 30.9851 85.9505 31.57 85.2957C32.1637 84.641 32.8708 84.1303 33.6914 83.7636C34.512 83.3883 35.4199 83.2006 36.4151 83.2006C37.3404 83.2006 38.2003 83.3708 38.9947 83.7113C39.7892 84.043 40.4788 84.5144 41.0637 85.1255C41.6486 85.7279 42.1069 86.4524 42.4387 87.2992C42.7704 88.146 42.9363 89.0801 42.9363 90.1015V91.7383H33.4688ZM36.402 86.3433C35.625 86.3433 34.9659 86.6052 34.4247 87.129C33.8922 87.644 33.5823 88.2682 33.495 89.0015H39.1519C39.1344 88.2595 38.8638 87.6309 38.34 87.1159C37.8162 86.6008 37.1702 86.3433 36.402 86.3433Z" fill="white"/>
<path d="M49.7717 91.8038C49.3265 91.8736 48.9686 92.0308 48.6979 92.2752C48.4273 92.5109 48.292 92.8339 48.292 93.2442C48.292 93.6982 48.4579 94.091 48.7896 94.4227C49.1213 94.7457 49.6102 94.9072 50.2562 94.9072C50.9371 94.9072 51.474 94.7108 51.8668 94.318C52.2597 93.9251 52.4561 93.4057 52.4561 92.7597V91.3455L49.7717 91.8038ZM53.0454 96.1774C52.897 96.3433 52.7136 96.5223 52.4954 96.7143C52.2859 96.8976 52.0327 97.0679 51.7359 97.225C51.4478 97.3734 51.1074 97.5 50.7145 97.6048C50.3217 97.7095 49.8808 97.7619 49.3919 97.7619C48.6936 97.7619 48.0476 97.6528 47.4539 97.4345C46.869 97.2075 46.354 96.8933 45.9088 96.4917C45.4635 96.0901 45.1143 95.6275 44.8612 95.1037C44.608 94.5711 44.4814 93.995 44.4814 93.3752C44.4814 92.249 44.8306 91.328 45.529 90.6122C46.2274 89.8963 47.192 89.4468 48.4229 89.2634L52.4561 88.6742V88.4123C52.4561 87.7837 52.2641 87.2861 51.8799 86.9195C51.4958 86.5528 50.8717 86.3695 50.0074 86.3695C49.6495 86.3695 49.2872 86.4131 48.9205 86.5004C48.5539 86.579 48.2003 86.6707 47.8599 86.7754C47.5281 86.8802 47.2182 87.0024 46.9301 87.1421C46.6421 87.273 46.3889 87.3909 46.1706 87.4956L44.7564 84.7327C45.5596 84.2874 46.45 83.9208 47.4277 83.6327C48.4142 83.3446 49.4356 83.2006 50.4919 83.2006C51.1379 83.2006 51.7883 83.2704 52.443 83.4101C53.1065 83.541 53.7045 83.7855 54.237 84.1434C54.7782 84.5013 55.2191 84.9902 55.5596 85.61C55.9 86.2211 56.0703 87.0024 56.0703 87.954V93.7156C56.0703 94.1259 56.175 94.4315 56.3845 94.6323C56.6028 94.8243 56.8996 95.0033 57.275 95.1691L55.6381 97.7619C54.9747 97.6921 54.4421 97.5218 54.0406 97.2512C53.639 96.9719 53.3073 96.6139 53.0454 96.1774Z" fill="white"/>
<path d="M68.1043 97.5V96.2953C67.9122 96.5048 67.6984 96.7012 67.4627 96.8846C67.2357 97.0591 66.9782 97.2119 66.6901 97.3429C66.4107 97.4738 66.1008 97.5742 65.7603 97.644C65.4286 97.7226 65.0576 97.7619 64.6473 97.7619C63.7219 97.7619 62.8751 97.5786 62.1069 97.2119C61.3387 96.8453 60.6796 96.3389 60.1296 95.6929C59.5796 95.0469 59.1519 94.2787 58.8463 93.3883C58.5495 92.4978 58.4011 91.5332 58.4011 90.4943C58.4011 89.4555 58.5495 88.4908 58.8463 87.6004C59.1431 86.71 59.5578 85.9417 60.0903 85.2957C60.6316 84.641 61.2819 84.1303 62.0414 83.7636C62.8009 83.3883 63.6434 83.2006 64.5687 83.2006C65.3893 83.2006 66.0833 83.3446 66.6508 83.6327C67.227 83.9121 67.7115 84.2612 68.1043 84.6803V78.7222H71.7184V97.5H68.1043ZM68.2091 89.1849C68.2091 88.8095 68.1392 88.4603 67.9995 88.1373C67.8686 87.8143 67.6765 87.5349 67.4234 87.2992C67.1702 87.0635 66.8647 86.8802 66.5067 86.7492C66.1576 86.6183 65.7603 86.5528 65.3151 86.5528C64.8001 86.5528 64.3417 86.6488 63.9402 86.8409C63.5473 87.033 63.2156 87.3036 62.945 87.6528C62.6744 87.9932 62.4692 88.3992 62.3295 88.8706C62.1899 89.342 62.12 89.8571 62.12 90.4158V90.586C62.12 91.1447 62.1899 91.6598 62.3295 92.1312C62.4692 92.5938 62.6744 92.9954 62.945 93.3359C63.2156 93.6763 63.5473 93.9426 63.9402 94.1347C64.3417 94.318 64.8001 94.4096 65.3151 94.4096C65.7603 94.4096 66.1576 94.3442 66.5067 94.2132C66.8647 94.0823 67.1702 93.899 67.4234 93.6632C67.6765 93.4275 67.8686 93.1526 67.9995 92.8383C68.1392 92.5153 68.2091 92.1661 68.2091 91.7907V89.1849Z" fill="white"/>
</g>
</g>
<defs>
<clipPath id="clip0_1322_2659">
<rect width="207.375" height="207.375" fill="white"/>
</clipPath>
<clipPath id="clip1_1322_2659">
<rect width="207.375" height="207.375" fill="white"/>
</clipPath>
</defs>
</svg>
