<svg width="208" height="208" viewBox="0 0 208 208" fill="none" xmlns="http://www.w3.org/2000/svg">
<g clip-path="url(#clip0_1322_2654)">
<rect width="207.375" height="207.375" fill="#1D70B8"/>
<path d="M19.1562 20.0054H33.4688V23.5279H28.2178V38.7832H24.4072V23.5279H19.1562V20.0054Z" fill="white"/>
<path d="M34.1052 20.0054H37.7193V25.9635C37.9114 25.7714 38.1253 25.5881 38.361 25.4135C38.6054 25.2302 38.8717 25.073 39.1597 24.9421C39.4478 24.8024 39.7665 24.6933 40.1157 24.6147C40.4736 24.5274 40.8664 24.4838 41.2942 24.4838C42.0537 24.4838 42.7346 24.6104 43.337 24.8635C43.9393 25.108 44.4456 25.4484 44.8559 25.8849C45.275 26.3214 45.5936 26.8321 45.8119 27.417C46.0301 28.0019 46.1392 28.6348 46.1392 29.3157V38.7832H42.5251V30.6252C42.5251 30.1276 42.4683 29.7086 42.3548 29.3681C42.2414 29.0189 42.0842 28.7396 41.8834 28.53C41.6914 28.3118 41.46 28.1547 41.1894 28.0586C40.9275 27.9539 40.6394 27.9015 40.3252 27.9015C39.9585 27.9015 39.6137 27.967 39.2907 28.0979C38.9764 28.2289 38.7014 28.4296 38.4657 28.7003C38.23 28.9622 38.0467 29.2939 37.9157 29.6955C37.7848 30.097 37.7193 30.5685 37.7193 31.1097V38.7832H34.1052V20.0054Z" fill="white"/>
<path d="M51.4373 38.7832H47.8232V24.7588H51.4373V38.7832ZM47.4435 21.0791C47.4435 20.7823 47.5002 20.503 47.6137 20.2411C47.7272 19.9705 47.8799 19.7391 48.072 19.5471C48.2728 19.3463 48.5041 19.1891 48.766 19.0757C49.0279 18.9622 49.3116 18.9054 49.6172 18.9054C49.914 18.9054 50.1933 18.9622 50.4552 19.0757C50.7259 19.1891 50.9572 19.3463 51.1493 19.5471C51.35 19.7391 51.5072 19.9705 51.6207 20.2411C51.7342 20.503 51.7909 20.7823 51.7909 21.0791C51.7909 21.3847 51.7342 21.6684 51.6207 21.9303C51.5072 22.1922 51.35 22.4235 51.1493 22.6243C50.9572 22.8164 50.7259 22.9692 50.4552 23.0826C50.1933 23.1961 49.914 23.2529 49.6172 23.2529C49.3116 23.2529 49.0279 23.1961 48.766 23.0826C48.5041 22.9692 48.2728 22.8164 48.072 22.6243C47.8799 22.4235 47.7272 22.1922 47.6137 21.9303C47.5002 21.6684 47.4435 21.3847 47.4435 21.0791Z" fill="white"/>
<path d="M54.2082 34.3048C54.7232 34.7675 55.3387 35.1647 56.0545 35.4964C56.7704 35.8282 57.495 35.994 58.2283 35.994C58.7608 35.994 59.1798 35.8936 59.4854 35.6929C59.7909 35.4833 59.9437 35.2171 59.9437 34.8941C59.9437 34.3441 59.3544 33.9163 58.1759 33.6108L57.1545 33.3358C56.6482 33.2136 56.1375 33.0477 55.6224 32.8382C55.1074 32.62 54.6316 32.3362 54.1951 31.987C53.7673 31.6379 53.4181 31.2145 53.1475 30.7169C52.8856 30.2105 52.7547 29.5907 52.7547 28.8574C52.7547 28.2725 52.8813 27.7182 53.1344 27.1944C53.3963 26.6619 53.763 26.1948 54.2344 25.7932C54.7145 25.3917 55.295 25.073 55.976 24.8373C56.6569 24.6016 57.4164 24.4838 58.2545 24.4838C59.4504 24.4838 60.5155 24.6715 61.4496 25.0468C62.3924 25.4222 63.1344 25.8456 63.6757 26.317L61.79 28.7265C61.3448 28.4035 60.8166 28.1285 60.2056 27.9015C59.6032 27.6658 58.9965 27.5479 58.3854 27.5479C57.818 27.5479 57.3771 27.6527 57.0628 27.8622C56.7486 28.063 56.5914 28.3074 56.5914 28.5955C56.5914 28.9011 56.7267 29.1499 56.9974 29.3419C57.2767 29.5252 57.6783 29.6867 58.2021 29.8264L59.7211 30.2585C61.1702 30.6688 62.2091 31.2232 62.8376 31.9216C63.4661 32.62 63.7804 33.5017 63.7804 34.5667C63.7804 35.1603 63.6582 35.7278 63.4138 36.269C63.1693 36.8015 62.8114 37.2773 62.34 37.6963C61.8686 38.1154 61.2837 38.4471 60.5853 38.6915C59.8869 38.9272 59.0925 39.0451 58.2021 39.0451C57.5211 39.0451 56.8795 38.984 56.2771 38.8618C55.6835 38.7396 55.1292 38.5737 54.6141 38.3642C54.1078 38.1459 53.6495 37.9015 53.2392 37.6309C52.8289 37.3602 52.4797 37.0896 52.1916 36.819L54.2082 34.3048Z" fill="white"/>
<path d="M71.9018 38.7832H68.2876V24.7588H71.9018V38.7832ZM67.9079 21.0791C67.9079 20.7823 67.9646 20.503 68.0781 20.2411C68.1916 19.9705 68.3444 19.7391 68.5364 19.5471C68.7372 19.3463 68.9685 19.1891 69.2304 19.0757C69.4923 18.9622 69.7761 18.9054 70.0816 18.9054C70.3784 18.9054 70.6578 18.9622 70.9197 19.0757C71.1903 19.1891 71.4216 19.3463 71.6137 19.5471C71.8145 19.7391 71.9716 19.9705 72.0851 20.2411C72.1986 20.503 72.2553 20.7823 72.2553 21.0791C72.2553 21.3847 72.1986 21.6684 72.0851 21.9303C71.9716 22.1922 71.8145 22.4235 71.6137 22.6243C71.4216 22.8164 71.1903 22.9692 70.9197 23.0826C70.6578 23.1961 70.3784 23.2529 70.0816 23.2529C69.7761 23.2529 69.4923 23.1961 69.2304 23.0826C68.9685 22.9692 68.7372 22.8164 68.5364 22.6243C68.3444 22.4235 68.1916 22.1922 68.0781 21.9303C67.9646 21.6684 67.9079 21.3847 67.9079 21.0791Z" fill="white"/>
<path d="M74.6726 34.3048C75.1877 34.7675 75.8031 35.1647 76.519 35.4964C77.2348 35.8282 77.9594 35.994 78.6927 35.994C79.2252 35.994 79.6442 35.8936 79.9498 35.6929C80.2553 35.4833 80.4081 35.2171 80.4081 34.8941C80.4081 34.3441 79.8188 33.9163 78.6403 33.6108L77.6189 33.3358C77.1126 33.2136 76.6019 33.0477 76.0868 32.8382C75.5718 32.62 75.096 32.3362 74.6595 31.987C74.2318 31.6379 73.8826 31.2145 73.6119 30.7169C73.35 30.2105 73.2191 29.5907 73.2191 28.8574C73.2191 28.2725 73.3457 27.7182 73.5988 27.1944C73.8607 26.6619 74.2274 26.1948 74.6988 25.7932C75.1789 25.3917 75.7595 25.073 76.4404 24.8373C77.1213 24.6016 77.8808 24.4838 78.7189 24.4838C79.9149 24.4838 80.9799 24.6715 81.914 25.0468C82.8568 25.4222 83.5988 25.8456 84.1401 26.317L82.2544 28.7265C81.8092 28.4035 81.2811 28.1285 80.67 27.9015C80.0676 27.6658 79.4609 27.5479 78.8498 27.5479C78.2824 27.5479 77.8415 27.6527 77.5273 27.8622C77.213 28.063 77.0558 28.3074 77.0558 28.5955C77.0558 28.9011 77.1912 29.1499 77.4618 29.3419C77.7411 29.5252 78.1427 29.6867 78.6665 29.8264L80.1855 30.2585C81.6346 30.6688 82.6735 31.2232 83.302 31.9216C83.9306 32.62 84.2448 33.5017 84.2448 34.5667C84.2448 35.1603 84.1226 35.7278 83.8782 36.269C83.6338 36.8015 83.2758 37.2773 82.8044 37.6963C82.333 38.1154 81.7481 38.4471 81.0497 38.6915C80.3513 38.9272 79.5569 39.0451 78.6665 39.0451C77.9856 39.0451 77.3439 38.984 76.7416 38.8618C76.1479 38.7396 75.5936 38.5737 75.0785 38.3642C74.5722 38.1459 74.1139 37.9015 73.7036 37.6309C73.2933 37.3602 72.9441 37.0896 72.656 36.819L74.6726 34.3048Z" fill="white"/>
<path d="M93.3745 34.606C93.3745 34.7719 93.3963 34.929 93.4399 35.0774C93.4836 35.2258 93.5578 35.3568 93.6626 35.4702C93.776 35.575 93.9332 35.6579 94.134 35.719C94.3348 35.7802 94.5923 35.8107 94.9066 35.8107C95.0375 35.8107 95.1859 35.8063 95.3518 35.7976C95.5176 35.7801 95.6835 35.7627 95.8494 35.7452C96.0152 35.7278 96.168 35.7059 96.3077 35.6798C96.4561 35.6536 96.5783 35.6317 96.6743 35.6143L97.0017 38.8094C96.6612 38.853 96.3077 38.8923 95.941 38.9272C95.6268 38.9622 95.2776 38.9884 94.8935 39.0058C94.5094 39.032 94.1209 39.0451 93.728 39.0451C92.4797 39.0451 91.5063 38.7614 90.8079 38.1939C90.1095 37.6265 89.7603 36.723 89.7603 35.4833V27.9015H87.2331V24.7588H89.7603V20.7911L93.3745 19.8221V24.7588H97.0541V27.9015H93.3745V34.606Z" fill="white"/>
<path d="M104.159 24.4838C105.198 24.4838 106.141 24.6715 106.988 25.0468C107.835 25.4135 108.559 25.9242 109.161 26.5789C109.764 27.2337 110.227 28.0063 110.55 28.8967C110.881 29.7871 111.047 30.7474 111.047 31.7775C111.047 32.8164 110.881 33.781 110.55 34.6715C110.218 35.5532 109.751 36.317 109.148 36.963C108.546 37.609 107.821 38.1197 106.975 38.4951C106.128 38.8618 105.189 39.0451 104.159 39.0451C103.12 39.0451 102.178 38.8618 101.331 38.4951C100.484 38.1197 99.7595 37.609 99.1571 36.963C98.5547 36.317 98.0877 35.5532 97.756 34.6715C97.4242 33.781 97.2584 32.8164 97.2584 31.7775C97.2584 30.7474 97.4199 29.7871 97.7429 28.8967C98.0746 28.0063 98.5417 27.2337 99.144 26.5789C99.7464 25.9242 100.471 25.4135 101.318 25.0468C102.173 24.6715 103.12 24.4838 104.159 24.4838ZM104.159 35.6929C104.674 35.6929 105.128 35.5968 105.521 35.4048C105.923 35.2127 106.259 34.9465 106.529 34.606C106.8 34.2655 107.005 33.8596 107.145 33.3882C107.285 32.908 107.354 32.3843 107.354 31.8168V31.7252C107.354 31.1577 107.285 30.6383 107.145 30.1669C107.005 29.6867 106.8 29.2764 106.529 28.936C106.259 28.5868 105.923 28.3162 105.521 28.1241C105.128 27.932 104.674 27.836 104.159 27.836C103.644 27.836 103.186 27.932 102.784 28.1241C102.391 28.3162 102.06 28.5868 101.789 28.936C101.519 29.2764 101.313 29.6867 101.174 30.1669C101.034 30.6383 100.964 31.1577 100.964 31.7252V31.8168C100.964 32.3843 101.034 32.908 101.174 33.3882C101.313 33.8596 101.519 34.2655 101.789 34.606C102.06 34.9465 102.391 35.2127 102.784 35.4048C103.186 35.5968 103.644 35.6929 104.159 35.6929Z" fill="white"/>
<path d="M118.27 24.4838C119.309 24.4838 120.252 24.6715 121.099 25.0468C121.945 25.4135 122.67 25.9242 123.272 26.5789C123.875 27.2337 124.337 28.0063 124.66 28.8967C124.992 29.7871 125.158 30.7474 125.158 31.7775C125.158 32.8164 124.992 33.781 124.66 34.6715C124.329 35.5532 123.862 36.317 123.259 36.963C122.657 37.609 121.932 38.1197 121.086 38.4951C120.239 38.8618 119.3 39.0451 118.27 39.0451C117.231 39.0451 116.288 38.8618 115.442 38.4951C114.595 38.1197 113.87 37.609 113.268 36.963C112.666 36.317 112.199 35.5532 111.867 34.6715C111.535 33.781 111.369 32.8164 111.369 31.7775C111.369 30.7474 111.531 29.7871 111.854 28.8967C112.185 28.0063 112.653 27.2337 113.255 26.5789C113.857 25.9242 114.582 25.4135 115.429 25.0468C116.284 24.6715 117.231 24.4838 118.27 24.4838ZM118.27 35.6929C118.785 35.6929 119.239 35.5968 119.632 35.4048C120.034 35.2127 120.37 34.9465 120.64 34.606C120.911 34.2655 121.116 33.8596 121.256 33.3882C121.395 32.908 121.465 32.3843 121.465 31.8168V31.7252C121.465 31.1577 121.395 30.6383 121.256 30.1669C121.116 29.6867 120.911 29.2764 120.64 28.936C120.37 28.5868 120.034 28.3162 119.632 28.1241C119.239 27.932 118.785 27.836 118.27 27.836C117.755 27.836 117.297 27.932 116.895 28.1241C116.502 28.3162 116.171 28.5868 115.9 28.936C115.629 29.2764 115.424 29.6867 115.285 30.1669C115.145 30.6383 115.075 31.1577 115.075 31.7252V31.8168C115.075 32.3843 115.145 32.908 115.285 33.3882C115.424 33.8596 115.629 34.2655 115.9 34.606C116.171 34.9465 116.502 35.2127 116.895 35.4048C117.297 35.5968 117.755 35.6929 118.27 35.6929Z" fill="white"/>
<path d="M25.481 52.606C25.481 52.7719 25.5028 52.929 25.5465 53.0774C25.5901 53.2258 25.6643 53.3568 25.7691 53.4702C25.8826 53.575 26.0397 53.6579 26.2405 53.719C26.4413 53.7801 26.6988 53.8107 27.0131 53.8107C27.144 53.8107 27.2924 53.8063 27.4583 53.7976C27.6242 53.7802 27.79 53.7627 27.9559 53.7452C28.1218 53.7278 28.2745 53.7059 28.4142 53.6798C28.5626 53.6536 28.6848 53.6317 28.7809 53.6143L29.1082 56.8094C28.7678 56.853 28.4142 56.8923 28.0476 56.9272C27.7333 56.9622 27.3841 56.9884 27 57.0058C26.6159 57.032 26.2274 57.0451 25.8346 57.0451C24.5862 57.0451 23.6128 56.7614 22.9144 56.1939C22.216 55.6265 21.8669 54.723 21.8669 53.4833V45.9015H19.3396V42.7588H21.8669V38.7911L25.481 37.8221V42.7588H29.1606V45.9015H25.481V52.606Z" fill="white"/>
<path d="M33.7123 56.7832H30.0982V42.7588H33.7123V56.7832ZM29.7184 39.0791C29.7184 38.7823 29.7752 38.503 29.8887 38.2411C30.0022 37.9705 30.1549 37.7391 30.347 37.5471C30.5478 37.3463 30.7791 37.1891 31.041 37.0757C31.3029 36.9622 31.5866 36.9054 31.8922 36.9054C32.189 36.9054 32.4683 36.9622 32.7302 37.0757C33.0009 37.1891 33.2322 37.3463 33.4243 37.5471C33.625 37.7391 33.7822 37.9705 33.8957 38.2411C34.0091 38.503 34.0659 38.7823 34.0659 39.0791C34.0659 39.3847 34.0091 39.6684 33.8957 39.9303C33.7822 40.1922 33.625 40.4235 33.4243 40.6243C33.2322 40.8164 33.0009 40.9692 32.7302 41.0826C32.4683 41.1961 32.189 41.2529 31.8922 41.2529C31.5866 41.2529 31.3029 41.1961 31.041 41.0826C30.7791 40.9692 30.5478 40.8164 30.347 40.6243C30.1549 40.4235 30.0022 40.1922 29.8887 39.9303C29.7752 39.6684 29.7184 39.3847 29.7184 39.0791Z" fill="white"/>
<path d="M44.0126 54.2952C43.6896 54.688 43.2357 55.0023 42.6508 55.238C42.0746 55.465 41.4461 55.5785 40.7652 55.5785C39.8223 55.5785 38.9843 55.4126 38.251 55.0809C37.5177 54.7492 36.8978 54.2952 36.3915 53.719C35.8939 53.1341 35.5098 52.4445 35.2392 51.6501C34.9773 50.8557 34.8463 49.9827 34.8463 49.0311C34.8463 48.1058 34.9773 47.2415 35.2392 46.4384C35.5098 45.6265 35.8939 44.9325 36.3915 44.3563C36.8978 43.7714 37.5177 43.3131 38.251 42.9814C38.9843 42.6496 39.8223 42.4838 40.7652 42.4838C41.4461 42.4838 42.0746 42.6016 42.6508 42.8373C43.2357 43.073 43.6896 43.3873 44.0126 43.7802V42.7588H47.6399V56.6523C47.6399 57.5078 47.4784 58.2411 47.1554 58.8522C46.8324 59.472 46.3871 59.9783 45.8197 60.3712C45.261 60.764 44.6106 61.0477 43.8686 61.2223C43.1266 61.4056 42.3365 61.4973 41.4985 61.4973C40.4771 61.4973 39.412 61.3751 38.3033 61.1306C37.1947 60.8949 36.2387 60.5981 35.4356 60.2402L36.457 57.3201C36.7014 57.4248 37.0026 57.5383 37.3605 57.6605C37.7184 57.7915 38.1026 57.905 38.5129 58.001C38.9232 58.097 39.3509 58.1756 39.7961 58.2367C40.2501 58.3066 40.6909 58.3415 41.1187 58.3415C41.4941 58.3415 41.8564 58.3022 42.2056 58.2236C42.5548 58.1538 42.8603 58.0316 43.1222 57.857C43.3928 57.6911 43.6067 57.4685 43.7638 57.1891C43.9297 56.9185 44.0126 56.5693 44.0126 56.1416V54.2952ZM38.5652 49.0835C38.5652 49.5462 38.6133 49.9827 38.7093 50.393C38.814 50.7946 38.9755 51.1394 39.1938 51.4275C39.4208 51.7068 39.7088 51.9294 40.058 52.0953C40.4072 52.2524 40.8306 52.331 41.3282 52.331C42.3147 52.331 43.0174 52.0211 43.4365 51.4013C43.8555 50.7727 44.065 50.0001 44.065 49.0835V48.9788C44.065 48.5161 44.017 48.0839 43.921 47.6824C43.8249 47.2808 43.6678 46.936 43.4496 46.6479C43.2313 46.3598 42.9476 46.1372 42.5984 45.9801C42.2579 45.8142 41.8346 45.7313 41.3282 45.7313C40.3505 45.7313 39.6434 46.0412 39.2069 46.661C38.7791 47.2808 38.5652 48.0534 38.5652 48.9788V49.0835Z" fill="white"/>
<path d="M49.4155 38.0054H53.0297V43.9635C53.2217 43.7714 53.4356 43.5881 53.6713 43.4135C53.9157 43.2302 54.182 43.073 54.4701 42.9421C54.7582 42.8024 55.0768 42.6933 55.426 42.6147C55.7839 42.5274 56.1768 42.4838 56.6045 42.4838C57.364 42.4838 58.0449 42.6104 58.6473 42.8635C59.2497 43.108 59.756 43.4484 60.1663 43.8849C60.5853 44.3214 60.904 44.8321 61.1222 45.417C61.3404 46.0019 61.4496 46.6348 61.4496 47.3157V56.7832H57.8354V48.6252C57.8354 48.1276 57.7787 47.7086 57.6652 47.3681C57.5517 47.0189 57.3946 46.7396 57.1938 46.53C57.0017 46.3118 56.7704 46.1547 56.4998 46.0586C56.2379 45.9539 55.9498 45.9015 55.6355 45.9015C55.2689 45.9015 54.924 45.967 54.601 46.0979C54.2868 46.2289 54.0118 46.4296 53.7761 46.7003C53.5404 46.9622 53.357 47.2939 53.2261 47.6955C53.0951 48.097 53.0297 48.5685 53.0297 49.1097V56.7832H49.4155V38.0054Z" fill="white"/>
<path d="M68.306 52.606C68.306 52.7719 68.3278 52.929 68.3714 53.0774C68.4151 53.2258 68.4893 53.3568 68.594 53.4702C68.7075 53.575 68.8647 53.6579 69.0654 53.719C69.2662 53.7801 69.5238 53.8107 69.838 53.8107C69.969 53.8107 70.1174 53.8063 70.2833 53.7976C70.4491 53.7802 70.615 53.7627 70.7809 53.7452C70.9467 53.7278 71.0995 53.7059 71.2392 53.6798C71.3876 53.6536 71.5098 53.6317 71.6058 53.6143L71.9332 56.8094C71.5927 56.853 71.2392 56.8923 70.8725 56.9272C70.5582 56.9622 70.2091 56.9884 69.8249 57.0058C69.4408 57.032 69.0524 57.0451 68.6595 57.0451C67.4112 57.0451 66.4378 56.7614 65.7394 56.1939C65.041 55.6265 64.6918 54.723 64.6918 53.4833V45.9015H62.1645V42.7588H64.6918V38.7911L68.306 37.8221V42.7588H71.9856V45.9015H68.306V52.606Z" fill="white"/>
<path d="M72.8708 38.0054H76.4849V52.9726C76.4849 53.2695 76.5678 53.4964 76.7337 53.6536C76.9083 53.8107 77.1833 53.8893 77.5587 53.8893C77.7333 53.8893 77.8817 53.8805 78.0039 53.8631C78.1348 53.8369 78.3007 53.802 78.5015 53.7583L78.7896 56.8356C78.5452 56.8705 78.2833 56.9054 78.0039 56.9403C77.7682 56.9665 77.4932 56.9884 77.1789 57.0058C76.8734 57.032 76.5548 57.0451 76.223 57.0451C75.708 57.0451 75.2453 56.9796 74.835 56.8487C74.4247 56.7177 74.0711 56.5257 73.7743 56.2725C73.4862 56.0106 73.2636 55.6876 73.1065 55.3035C72.9493 54.9194 72.8708 54.4742 72.8708 53.9678V38.0054Z" fill="white"/>
<path d="M80.8926 58.42C81.3029 58.42 81.6041 58.3458 81.7961 58.1974C81.9969 58.049 82.1541 57.809 82.2675 57.4772L82.3985 57.0451L77.5403 42.7588H81.5604L84.3496 52.4358L86.6674 42.7588H90.6351L85.9079 58.5248C85.7507 59.0486 85.5325 59.4982 85.2531 59.8736C84.9738 60.2489 84.642 60.5545 84.2579 60.7902C83.8738 61.0346 83.4461 61.2136 82.9747 61.3271C82.512 61.4406 82.0144 61.4973 81.4819 61.4973C81.2636 61.4973 81.0105 61.4886 80.7224 61.4711C80.443 61.4537 80.1506 61.4275 79.845 61.3925C79.5482 61.3664 79.2514 61.3314 78.9546 61.2878C78.6665 61.2441 78.4002 61.1918 78.1558 61.1306L78.8367 58.1712C79.0462 58.2236 79.2645 58.2673 79.4915 58.3022C79.6922 58.3371 79.9105 58.3633 80.1462 58.3808C80.3906 58.4069 80.6394 58.42 80.8926 58.42Z" fill="white"/>
<path d="M25.481 70.606C25.481 70.7719 25.5028 70.929 25.5465 71.0774C25.5901 71.2258 25.6643 71.3568 25.7691 71.4702C25.8826 71.575 26.0397 71.6579 26.2405 71.719C26.4413 71.7801 26.6988 71.8107 27.0131 71.8107C27.144 71.8107 27.2924 71.8063 27.4583 71.7976C27.6242 71.7802 27.79 71.7627 27.9559 71.7452C28.1218 71.7278 28.2745 71.7059 28.4142 71.6798C28.5626 71.6536 28.6848 71.6317 28.7809 71.6143L29.1082 74.8094C28.7678 74.853 28.4142 74.8923 28.0476 74.9272C27.7333 74.9622 27.3841 74.9884 27 75.0058C26.6159 75.032 26.2274 75.0451 25.8346 75.0451C24.5862 75.0451 23.6128 74.7614 22.9144 74.1939C22.216 73.6265 21.8669 72.723 21.8669 71.4833V63.9015H19.3396V60.7588H21.8669V56.7911L25.481 55.8221V60.7588H29.1606V63.9015H25.481V70.606Z" fill="white"/>
<path d="M37.9812 64.2681H37.6015C37.0864 64.2681 36.5932 64.3205 36.1218 64.4253C35.6591 64.53 35.2488 64.7221 34.8909 65.0015C34.5329 65.2721 34.2449 65.6475 34.0266 66.1276C33.8171 66.6077 33.7123 67.2232 33.7123 67.974V74.7832H30.0982V60.7588H33.7123V62.3432C33.8607 62.1075 34.0528 61.8805 34.2885 61.6623C34.5242 61.4441 34.7992 61.252 35.1135 61.0861C35.4277 60.9115 35.7813 60.7719 36.1741 60.6671C36.567 60.5623 36.9904 60.51 37.4443 60.51H37.9812V64.2681Z" fill="white"/>
<path d="M43.4234 69.087C42.9782 69.1568 42.6202 69.314 42.3496 69.5584C42.079 69.7941 41.9437 70.1171 41.9437 70.5274C41.9437 70.9814 42.1095 71.3742 42.4413 71.7059C42.773 72.029 43.2619 72.1905 43.9079 72.1905C44.5888 72.1905 45.1257 71.994 45.5185 71.6012C45.9114 71.2083 46.1078 70.6889 46.1078 70.0429V68.6287L43.4234 69.087ZM46.6971 73.4606C46.5486 73.6265 46.3653 73.8055 46.1471 73.9975C45.9376 74.1808 45.6844 74.3511 45.3876 74.5082C45.0995 74.6566 44.759 74.7832 44.3662 74.888C43.9734 74.9927 43.5325 75.0451 43.0436 75.0451C42.3452 75.0451 41.6992 74.936 41.1056 74.7177C40.5207 74.4908 40.0057 74.1765 39.5604 73.7749C39.1152 73.3733 38.766 72.9107 38.5129 72.3869C38.2597 71.8544 38.1331 71.2782 38.1331 70.6584C38.1331 69.5322 38.4823 68.6112 39.1807 67.8954C39.8791 67.1795 40.8437 66.73 42.0746 66.5466L46.1078 65.9574V65.6955C46.1078 65.0669 45.9157 64.5693 45.5316 64.2027C45.1475 63.836 44.5233 63.6527 43.6591 63.6527C43.3012 63.6527 42.9389 63.6963 42.5722 63.7836C42.2056 63.8622 41.852 63.9539 41.5115 64.0586C41.1798 64.1634 40.8699 64.2856 40.5818 64.4253C40.2937 64.5562 40.0406 64.6741 39.8223 64.7788L38.4081 62.0159C39.2112 61.5706 40.1017 61.204 41.0794 60.9159C42.0659 60.6278 43.0873 60.4838 44.1436 60.4838C44.7896 60.4838 45.44 60.5536 46.0947 60.6933C46.7582 60.8242 47.3562 61.0687 47.8887 61.4266C48.4299 61.7845 48.8708 62.2734 49.2112 62.8932C49.5517 63.5043 49.7219 64.2856 49.7219 65.2372V70.9988C49.7219 71.4091 49.8267 71.7147 50.0362 71.9155C50.2545 72.1075 50.5513 72.2865 50.9266 72.4523L49.2898 75.0451C48.6263 74.9753 48.0938 74.805 47.6923 74.5344C47.2907 74.2551 46.959 73.8971 46.6971 73.4606Z" fill="white"/>
<path d="M54.4046 67.843C54.4046 68.297 54.4657 68.7553 54.5879 69.2179C54.7101 69.6719 54.8978 70.0822 55.151 70.4489C55.4042 70.8155 55.7272 71.1167 56.12 71.3524C56.5216 71.5794 56.9974 71.6929 57.5473 71.6929C57.9053 71.6929 58.2283 71.6448 58.5163 71.5488C58.8132 71.4528 59.0751 71.3218 59.302 71.156C59.5377 70.9814 59.7429 70.7806 59.9175 70.5536C60.1008 70.3179 60.2579 70.0647 60.3889 69.7941L63.5578 71.431C63.3308 71.9809 63.0166 72.4785 62.615 72.9238C62.2221 73.369 61.7638 73.7487 61.24 74.063C60.7163 74.3773 60.1357 74.6173 59.4985 74.7832C58.8612 74.9578 58.1846 75.0451 57.4688 75.0451C56.4823 75.0451 55.5744 74.8618 54.7451 74.4951C53.9157 74.1197 53.1999 73.609 52.5975 72.963C51.9952 72.317 51.5238 71.5532 51.1833 70.6715C50.8428 69.781 50.6726 68.8164 50.6726 67.7775C50.6726 66.7474 50.8428 65.7871 51.1833 64.8967C51.5238 64.0063 51.9952 63.2337 52.5975 62.5789C53.1999 61.9242 53.9157 61.4135 54.7451 61.0468C55.5744 60.6715 56.4823 60.4838 57.4688 60.4838C58.1846 60.4838 58.8612 60.5711 59.4985 60.7457C60.1357 60.9115 60.7163 61.156 61.24 61.479C61.7638 61.7932 62.2221 62.173 62.615 62.6182C63.0166 63.0634 63.3308 63.561 63.5578 64.111L60.3889 65.7479C60.2579 65.4772 60.1008 65.2284 59.9175 65.0015C59.7429 64.7657 59.5377 64.565 59.302 64.3991C59.0751 64.2245 58.8132 64.0892 58.5163 63.9932C58.2283 63.8884 57.9053 63.836 57.5473 63.836C56.9974 63.836 56.5216 63.9539 56.12 64.1896C55.7272 64.4166 55.4042 64.7177 55.151 65.0931C54.8978 65.4598 54.7101 65.8744 54.5879 66.3371C54.4657 66.7998 54.4046 67.2625 54.4046 67.7252V67.843Z" fill="white"/>
<path d="M68.0572 66.2585L72.732 60.7588H77.2366L72.1689 66.4943L77.3806 74.7832H73.0331L69.5369 69.0739L68.0572 70.6846V74.7832H64.443V56.0054H68.0572V66.2585Z" fill="white"/>
<path d="M79.8241 69.0215C79.8852 69.4406 80.0161 69.8247 80.2169 70.1739C80.4264 70.5231 80.6883 70.8242 81.0026 71.0774C81.3169 71.3218 81.6792 71.5139 82.0895 71.6536C82.4998 71.7932 82.9362 71.8631 83.3989 71.8631C83.9314 71.8631 84.5076 71.7627 85.1274 71.5619C85.7472 71.3524 86.3147 71.0512 86.8297 70.6584L88.5713 73.1987C87.9166 73.7487 87.1135 74.1939 86.1619 74.5344C85.2104 74.8749 84.1977 75.0451 83.1239 75.0451C82.1549 75.0451 81.2427 74.8792 80.3871 74.5475C79.5316 74.2158 78.7809 73.7356 78.1348 73.1071C77.4976 72.4785 76.9912 71.7147 76.6159 70.8155C76.2492 69.9163 76.0659 68.9037 76.0659 67.7775C76.0659 66.7474 76.2274 65.7871 76.5504 64.8967C76.8821 64.0063 77.3404 63.2337 77.9253 62.5789C78.519 61.9242 79.2261 61.4135 80.0467 61.0468C80.8673 60.6715 81.7752 60.4838 82.7704 60.4838C83.6957 60.4838 84.5556 60.654 85.35 60.9945C86.1444 61.3262 86.8341 61.7976 87.419 62.4087C88.0039 63.0111 88.4622 63.7356 88.7939 64.5824C89.1257 65.4292 89.2915 66.3633 89.2915 67.3847V69.0215H79.8241ZM82.7573 63.6265C81.9803 63.6265 81.3212 63.8884 80.78 64.4122C80.2475 64.9272 79.9376 65.5514 79.8503 66.2847H85.5072C85.4897 65.5427 85.2191 64.9142 84.6953 64.3991C84.1715 63.884 83.5255 63.6265 82.7573 63.6265Z" fill="white"/>
<path d="M99.2645 74.7832V73.5785C99.0724 73.788 98.8585 73.9844 98.6228 74.1678C98.3959 74.3423 98.1383 74.4951 97.8503 74.6261C97.5709 74.757 97.261 74.8574 96.9205 74.9272C96.5888 75.0058 96.2178 75.0451 95.8075 75.0451C94.8821 75.0451 94.0353 74.8618 93.2671 74.4951C92.4989 74.1285 91.8398 73.6221 91.2898 72.9761C90.7398 72.3301 90.3121 71.5619 90.0065 70.6715C89.7097 69.781 89.5613 68.8164 89.5613 67.7775C89.5613 66.7387 89.7097 65.774 90.0065 64.8836C90.3033 63.9932 90.718 63.2249 91.2505 62.5789C91.7918 61.9242 92.4421 61.4135 93.2016 61.0468C93.9611 60.6715 94.8035 60.4838 95.7289 60.4838C96.5495 60.4838 97.2435 60.6278 97.811 60.9159C98.3871 61.1953 98.8716 61.5444 99.2645 61.9635V56.0054H102.879V74.7832H99.2645ZM99.3692 66.4681C99.3692 66.0927 99.2994 65.7435 99.1597 65.4205C99.0288 65.0975 98.8367 64.8181 98.5836 64.5824C98.3304 64.3467 98.0248 64.1634 97.6669 64.0324C97.3177 63.9015 96.9205 63.836 96.4753 63.836C95.9602 63.836 95.5019 63.9321 95.1004 64.1241C94.7075 64.3162 94.3758 64.5868 94.1052 64.936C93.8345 65.2764 93.6294 65.6824 93.4897 66.1538C93.35 66.6252 93.2802 67.1403 93.2802 67.699V67.8692C93.2802 68.4279 93.35 68.943 93.4897 69.4144C93.6294 69.8771 93.8345 70.2786 94.1052 70.6191C94.3758 70.9595 94.7075 71.2258 95.1004 71.4179C95.5019 71.6012 95.9602 71.6929 96.4753 71.6929C96.9205 71.6929 97.3177 71.6274 97.6669 71.4964C98.0248 71.3655 98.3304 71.1822 98.5836 70.9465C98.8367 70.7107 99.0288 70.4358 99.1597 70.1215C99.2994 69.7985 99.3692 69.4493 99.3692 69.0739V66.4681Z" fill="white"/>
<path d="M120.297 70.2001L122.013 60.7588H125.836L122.602 74.7832H118.307L116.212 65.6693L113.986 74.7832H109.756L106.508 60.7588H110.45L112.113 70.2001L114.549 60.7588H118.006L120.297 70.2001Z" fill="white"/>
<path d="M130.152 74.7832H126.538V60.7588H130.152V74.7832ZM126.158 57.0791C126.158 56.7823 126.215 56.503 126.329 56.2411C126.442 55.9705 126.595 55.7391 126.787 55.5471C126.988 55.3463 127.219 55.1891 127.481 55.0757C127.743 54.9622 128.027 54.9054 128.332 54.9054C128.629 54.9054 128.908 54.9622 129.17 55.0757C129.441 55.1891 129.672 55.3463 129.864 55.5471C130.065 55.7391 130.222 55.9705 130.336 56.2411C130.449 56.503 130.506 56.7823 130.506 57.0791C130.506 57.3847 130.449 57.6684 130.336 57.9303C130.222 58.1922 130.065 58.4235 129.864 58.6243C129.672 58.8164 129.441 58.9692 129.17 59.0826C128.908 59.1961 128.629 59.2529 128.332 59.2529C128.027 59.2529 127.743 59.1961 127.481 59.0826C127.219 58.9692 126.988 58.8164 126.787 58.6243C126.595 58.4235 126.442 58.1922 126.329 57.9303C126.215 57.6684 126.158 57.3847 126.158 57.0791Z" fill="white"/>
<path d="M137.1 70.606C137.1 70.7719 137.122 70.929 137.166 71.0774C137.209 71.2258 137.284 71.3568 137.388 71.4702C137.502 71.575 137.659 71.6579 137.86 71.719C138.061 71.7801 138.318 71.8107 138.632 71.8107C138.763 71.8107 138.912 71.8063 139.078 71.7976C139.244 71.7802 139.409 71.7627 139.575 71.7452C139.741 71.7278 139.894 71.7059 140.034 71.6798C140.182 71.6536 140.304 71.6317 140.4 71.6143L140.728 74.8094C140.387 74.853 140.034 74.8923 139.667 74.9272C139.353 74.9622 139.003 74.9884 138.619 75.0058C138.235 75.032 137.847 75.0451 137.454 75.0451C136.206 75.0451 135.232 74.7614 134.534 74.1939C133.835 73.6265 133.486 72.723 133.486 71.4833V63.9015H130.959V60.7588H133.486V56.7911L137.1 55.8221V60.7588H140.78V63.9015H137.1V70.606Z" fill="white"/>
<path d="M141.718 56.0054H145.332V61.9635C145.524 61.7714 145.738 61.5881 145.973 61.4135C146.218 61.2302 146.484 61.073 146.772 60.9421C147.06 60.8024 147.379 60.6933 147.728 60.6147C148.086 60.5274 148.479 60.4838 148.907 60.4838C149.666 60.4838 150.347 60.6104 150.949 60.8635C151.552 61.108 152.058 61.4484 152.468 61.8849C152.887 62.3214 153.206 62.8321 153.424 63.417C153.642 64.0019 153.752 64.6348 153.752 65.3157V74.7832H150.137V66.6252C150.137 66.1276 150.081 65.7086 149.967 65.3681C149.854 65.0189 149.697 64.7396 149.496 64.53C149.304 64.3118 149.072 64.1547 148.802 64.0586C148.54 63.9539 148.252 63.9015 147.938 63.9015C147.571 63.9015 147.226 63.967 146.903 64.0979C146.589 64.2289 146.314 64.4296 146.078 64.7003C145.842 64.9622 145.659 65.2939 145.528 65.6955C145.397 66.097 145.332 66.5685 145.332 67.1097V74.7832H141.718V56.0054Z" fill="white"/>
<path d="M25.481 88.606C25.481 88.7719 25.5028 88.929 25.5465 89.0774C25.5901 89.2258 25.6643 89.3568 25.7691 89.4702C25.8826 89.575 26.0397 89.6579 26.2405 89.719C26.4413 89.7801 26.6988 89.8107 27.0131 89.8107C27.144 89.8107 27.2924 89.8063 27.4583 89.7976C27.6242 89.7801 27.79 89.7627 27.9559 89.7452C28.1218 89.7278 28.2745 89.7059 28.4142 89.6798C28.5626 89.6536 28.6848 89.6317 28.7809 89.6143L29.1082 92.8094C28.7678 92.853 28.4142 92.8923 28.0476 92.9272C27.7333 92.9622 27.3841 92.9884 27 93.0058C26.6159 93.032 26.2274 93.0451 25.8346 93.0451C24.5862 93.0451 23.6128 92.7614 22.9144 92.1939C22.216 91.6265 21.8669 90.723 21.8669 89.4833V81.9015H19.3396V78.7588H21.8669V74.7911L25.481 73.8221V78.7588H29.1606V81.9015H25.481V88.606Z" fill="white"/>
<path d="M33.7123 92.7832H30.0982V78.7588H33.7123V92.7832ZM29.7184 75.0791C29.7184 74.7823 29.7752 74.503 29.8887 74.2411C30.0022 73.9705 30.1549 73.7391 30.347 73.5471C30.5478 73.3463 30.7791 73.1891 31.041 73.0757C31.3029 72.9622 31.5866 72.9054 31.8922 72.9054C32.189 72.9054 32.4683 72.9622 32.7302 73.0757C33.0009 73.1891 33.2322 73.3463 33.4243 73.5471C33.625 73.7391 33.7822 73.9705 33.8957 74.2411C34.0091 74.503 34.0659 74.7823 34.0659 75.0791C34.0659 75.3847 34.0091 75.6684 33.8957 75.9303C33.7822 76.1922 33.625 76.4235 33.4243 76.6243C33.2322 76.8164 33.0009 76.9692 32.7302 77.0826C32.4683 77.1961 32.189 77.2529 31.8922 77.2529C31.5866 77.2529 31.3029 77.1961 31.041 77.0826C30.7791 76.9692 30.5478 76.8164 30.347 76.6243C30.1549 76.4235 30.0022 76.1922 29.8887 75.9303C29.7752 75.6684 29.7184 75.3847 29.7184 75.0791Z" fill="white"/>
<path d="M44.0126 90.2952C43.6896 90.6881 43.2357 91.0023 42.6508 91.238C42.0746 91.465 41.4461 91.5785 40.7652 91.5785C39.8223 91.5785 38.9843 91.4126 38.251 91.0809C37.5177 90.7492 36.8978 90.2952 36.3915 89.719C35.8939 89.1341 35.5098 88.4445 35.2392 87.6501C34.9773 86.8557 34.8463 85.9827 34.8463 85.0311C34.8463 84.1058 34.9773 83.2415 35.2392 82.4384C35.5098 81.6265 35.8939 80.9325 36.3915 80.3563C36.8978 79.7714 37.5177 79.3131 38.251 78.9814C38.9843 78.6496 39.8223 78.4838 40.7652 78.4838C41.4461 78.4838 42.0746 78.6016 42.6508 78.8373C43.2357 79.073 43.6896 79.3873 44.0126 79.7802V78.7588H47.6399V92.6523C47.6399 93.5078 47.4784 94.2411 47.1554 94.8522C46.8324 95.472 46.3871 95.9783 45.8197 96.3712C45.261 96.764 44.6106 97.0477 43.8686 97.2223C43.1266 97.4056 42.3365 97.4973 41.4985 97.4973C40.4771 97.4973 39.412 97.3751 38.3033 97.1307C37.1947 96.8949 36.2387 96.5981 35.4356 96.2402L36.457 93.3201C36.7014 93.4248 37.0026 93.5383 37.3605 93.6606C37.7184 93.7915 38.1026 93.905 38.5129 94.001C38.9232 94.097 39.3509 94.1756 39.7961 94.2367C40.2501 94.3066 40.6909 94.3415 41.1187 94.3415C41.4941 94.3415 41.8564 94.3022 42.2056 94.2236C42.5548 94.1538 42.8603 94.0316 43.1222 93.857C43.3928 93.6911 43.6067 93.4685 43.7638 93.1891C43.9297 92.9185 44.0126 92.5693 44.0126 92.1416V90.2952ZM38.5652 85.0835C38.5652 85.5462 38.6133 85.9827 38.7093 86.393C38.814 86.7946 38.9755 87.1394 39.1938 87.4275C39.4208 87.7068 39.7088 87.9294 40.058 88.0953C40.4072 88.2524 40.8306 88.331 41.3282 88.331C42.3147 88.331 43.0174 88.0211 43.4365 87.4013C43.8555 86.7727 44.065 86.0001 44.065 85.0835V84.9788C44.065 84.5161 44.017 84.084 43.921 83.6824C43.8249 83.2808 43.6678 82.936 43.4496 82.6479C43.2313 82.3598 42.9476 82.1372 42.5984 81.9801C42.2579 81.8142 41.8346 81.7313 41.3282 81.7313C40.3505 81.7313 39.6434 82.0412 39.2069 82.661C38.7791 83.2808 38.5652 84.0534 38.5652 84.9788V85.0835Z" fill="white"/>
<path d="M49.4155 74.0054H53.0297V79.9635C53.2217 79.7714 53.4356 79.5881 53.6713 79.4135C53.9157 79.2302 54.182 79.073 54.4701 78.9421C54.7582 78.8024 55.0768 78.6933 55.426 78.6147C55.7839 78.5274 56.1768 78.4838 56.6045 78.4838C57.364 78.4838 58.0449 78.6104 58.6473 78.8635C59.2497 79.108 59.756 79.4484 60.1663 79.8849C60.5853 80.3214 60.904 80.8321 61.1222 81.417C61.3404 82.0019 61.4496 82.6348 61.4496 83.3157V92.7832H57.8354V84.6252C57.8354 84.1276 57.7787 83.7086 57.6652 83.3681C57.5517 83.0189 57.3946 82.7396 57.1938 82.53C57.0017 82.3118 56.7704 82.1547 56.4998 82.0586C56.2379 81.9539 55.9498 81.9015 55.6355 81.9015C55.2689 81.9015 54.924 81.967 54.601 82.0979C54.2868 82.2289 54.0118 82.4296 53.7761 82.7003C53.5404 82.9622 53.357 83.2939 53.2261 83.6955C53.0951 84.097 53.0297 84.5685 53.0297 85.1097V92.7832H49.4155V74.0054Z" fill="white"/>
<path d="M68.306 88.606C68.306 88.7719 68.3278 88.929 68.3714 89.0774C68.4151 89.2258 68.4893 89.3568 68.594 89.4702C68.7075 89.575 68.8647 89.6579 69.0654 89.719C69.2662 89.7801 69.5238 89.8107 69.838 89.8107C69.969 89.8107 70.1174 89.8063 70.2833 89.7976C70.4491 89.7801 70.615 89.7627 70.7809 89.7452C70.9467 89.7278 71.0995 89.7059 71.2392 89.6798C71.3876 89.6536 71.5098 89.6317 71.6058 89.6143L71.9332 92.8094C71.5927 92.853 71.2392 92.8923 70.8725 92.9272C70.5582 92.9622 70.2091 92.9884 69.8249 93.0058C69.4408 93.032 69.0524 93.0451 68.6595 93.0451C67.4112 93.0451 66.4378 92.7614 65.7394 92.1939C65.041 91.6265 64.6918 90.723 64.6918 89.4833V81.9015H62.1645V78.7588H64.6918V74.7911L68.306 73.8221V78.7588H71.9856V81.9015H68.306V88.606Z" fill="white"/>
<path d="M76.3749 74.0054H79.9891V88.9726C79.9891 89.2695 80.072 89.4964 80.2379 89.6536C80.4125 89.8107 80.6874 89.8893 81.0628 89.8893C81.2374 89.8893 81.3858 89.8805 81.508 89.8631C81.639 89.8369 81.8049 89.802 82.0056 89.7583L82.2937 92.8356C82.0493 92.8705 81.7874 92.9054 81.508 92.9403C81.2723 92.9665 80.9974 92.9884 80.6831 93.0058C80.3775 93.032 80.0589 93.0451 79.7272 93.0451C79.2121 93.0451 78.7494 92.9796 78.3391 92.8487C77.9288 92.7177 77.5753 92.5257 77.2785 92.2725C76.9904 92.0106 76.7678 91.6876 76.6106 91.3035C76.4535 90.9194 76.3749 90.4742 76.3749 89.9678V74.0054Z" fill="white"/>
<path d="M86.5574 92.7832H82.9432V78.7588H86.5574V92.7832ZM82.5635 75.0791C82.5635 74.7823 82.6202 74.503 82.7337 74.2411C82.8472 73.9705 83 73.7391 83.192 73.5471C83.3928 73.3463 83.6242 73.1891 83.886 73.0757C84.1479 72.9622 84.4317 72.9054 84.7372 72.9054C85.034 72.9054 85.3134 72.9622 85.5753 73.0757C85.8459 73.1891 86.0772 73.3463 86.2693 73.5471C86.4701 73.7391 86.6272 73.9705 86.7407 74.2411C86.8542 74.503 86.9109 74.7823 86.9109 75.0791C86.9109 75.3847 86.8542 75.6684 86.7407 75.9303C86.6272 76.1922 86.4701 76.4235 86.2693 76.6243C86.0772 76.8164 85.8459 76.9692 85.5753 77.0826C85.3134 77.1961 85.034 77.2529 84.7372 77.2529C84.4317 77.2529 84.1479 77.1961 83.886 77.0826C83.6242 76.9692 83.3928 76.8164 83.192 76.6243C83 76.4235 82.8472 76.1922 82.7337 75.9303C82.6202 75.6684 82.5635 75.3847 82.5635 75.0791Z" fill="white"/>
<path d="M88.333 78.7588H91.9472V79.9635C92.1392 79.7714 92.3531 79.5881 92.5888 79.4135C92.8332 79.2302 93.0995 79.073 93.3876 78.9421C93.6757 78.8024 93.9943 78.6933 94.3435 78.6147C94.7014 78.5274 95.0943 78.4838 95.522 78.4838C96.2815 78.4838 96.9624 78.6104 97.5648 78.8635C98.1671 79.108 98.6735 79.4484 99.0838 79.8849C99.5028 80.3214 99.8214 80.8321 100.04 81.417C100.258 82.0019 100.367 82.6348 100.367 83.3157V92.7832H96.7529V84.6252C96.7529 84.1276 96.6962 83.7086 96.5827 83.3681C96.4692 83.0189 96.3121 82.7396 96.1113 82.53C95.9192 82.3118 95.6879 82.1547 95.4173 82.0586C95.1554 81.9539 94.8673 81.9015 94.553 81.9015C94.1863 81.9015 93.8415 81.967 93.5185 82.0979C93.2043 82.2289 92.9293 82.4296 92.6936 82.7003C92.4579 82.9622 92.2745 83.2939 92.1436 83.6955C92.0126 84.097 91.9472 84.5685 91.9472 85.1097V92.7832H88.333V78.7588Z" fill="white"/>
<path d="M105.076 87.0215C105.137 87.4406 105.268 87.8247 105.469 88.1739C105.678 88.5231 105.94 88.8242 106.254 89.0774C106.569 89.3218 106.931 89.5139 107.341 89.6536C107.752 89.7932 108.188 89.8631 108.651 89.8631C109.183 89.8631 109.759 89.7627 110.379 89.5619C110.999 89.3524 111.567 89.0512 112.082 88.6584L113.823 91.1987C113.168 91.7487 112.365 92.1939 111.414 92.5344C110.462 92.8749 109.45 93.0451 108.376 93.0451C107.407 93.0451 106.495 92.8792 105.639 92.5475C104.783 92.2158 104.033 91.7356 103.387 91.1071C102.749 90.4785 102.243 89.7147 101.868 88.8155C101.501 87.9163 101.318 86.9037 101.318 85.7775C101.318 84.7474 101.479 83.7871 101.802 82.8967C102.134 82.0063 102.592 81.2337 103.177 80.5789C103.771 79.9242 104.478 79.4135 105.299 79.0468C106.119 78.6715 107.027 78.4838 108.022 78.4838C108.948 78.4838 109.807 78.654 110.602 78.9945C111.396 79.3262 112.086 79.7976 112.671 80.4087C113.256 81.0111 113.714 81.7356 114.046 82.5824C114.378 83.4292 114.543 84.3633 114.543 85.3847V87.0215H105.076ZM108.009 81.6265C107.232 81.6265 106.573 81.8884 106.032 82.4122C105.499 82.9272 105.189 83.5514 105.102 84.2847H110.759C110.742 83.5427 110.471 82.9142 109.947 82.3991C109.423 81.884 108.777 81.6265 108.009 81.6265Z" fill="white"/>
<path d="M21.3038 106.305C21.8188 106.767 22.4343 107.165 23.1501 107.496C23.866 107.828 24.5906 107.994 25.3239 107.994C25.8564 107.994 26.2754 107.894 26.581 107.693C26.8865 107.483 27.0393 107.217 27.0393 106.894C27.0393 106.344 26.45 105.916 25.2715 105.611L24.2501 105.336C23.7438 105.214 23.2331 105.048 22.718 104.838C22.203 104.62 21.7272 104.336 21.2907 103.987C20.8629 103.638 20.5137 103.214 20.2431 102.717C19.9812 102.211 19.8503 101.591 19.8503 100.857C19.8503 100.273 19.9769 99.7182 20.23 99.1944C20.4919 98.6619 20.8586 98.1948 21.33 97.7932C21.8101 97.3917 22.3906 97.073 23.0716 96.8373C23.7525 96.6016 24.512 96.4838 25.3501 96.4838C26.546 96.4838 27.6111 96.6715 28.5452 97.0468C29.488 97.4222 30.23 97.8456 30.7713 98.317L28.8856 100.726C28.4404 100.403 27.9123 100.128 27.3012 99.9015C26.6988 99.6658 26.0921 99.5479 25.481 99.5479C24.9136 99.5479 24.4727 99.6527 24.1584 99.8622C23.8442 100.063 23.687 100.307 23.687 100.596C23.687 100.901 23.8223 101.15 24.093 101.342C24.3723 101.525 24.7739 101.687 25.2977 101.826L26.8167 102.259C28.2658 102.669 29.3047 103.223 29.9332 103.922C30.5617 104.62 30.876 105.502 30.876 106.567C30.876 107.16 30.7538 107.728 30.5094 108.269C30.2649 108.802 29.907 109.277 29.4356 109.696C28.9642 110.115 28.3793 110.447 27.6809 110.692C26.9825 110.927 26.1881 111.045 25.2977 111.045C24.6167 111.045 23.9751 110.984 23.3727 110.862C22.7791 110.74 22.2248 110.574 21.7097 110.364C21.2034 110.146 20.7451 109.901 20.3348 109.631C19.9245 109.36 19.5753 109.09 19.2872 108.819L21.3038 106.305Z" fill="white"/>
<path d="M35.4932 115.209H31.8791V96.7588H35.4932V97.9635C35.8861 97.5532 36.3706 97.204 36.9467 96.9159C37.5229 96.6278 38.2213 96.4838 39.0419 96.4838C39.9672 96.4838 40.8053 96.6715 41.5561 97.0468C42.3156 97.4135 42.9659 97.9242 43.5072 98.5789C44.0484 99.2249 44.4675 99.9932 44.7643 100.884C45.0611 101.774 45.2095 102.739 45.2095 103.778C45.2095 104.816 45.0567 105.781 44.7512 106.671C44.4456 107.562 44.0179 108.33 43.4679 108.976C42.9179 109.622 42.2588 110.128 41.4906 110.495C40.7224 110.862 39.8756 111.045 38.9502 111.045C38.5399 111.045 38.1645 111.006 37.8241 110.927C37.4923 110.857 37.1868 110.757 36.9074 110.626C36.6281 110.495 36.3706 110.342 36.1349 110.168C35.8992 109.984 35.6853 109.788 35.4932 109.578V115.209ZM35.3885 105.074C35.3885 105.449 35.4539 105.798 35.5849 106.121C35.7246 106.436 35.921 106.711 36.1741 106.946C36.4273 107.182 36.7285 107.365 37.0777 107.496C37.4356 107.627 37.8372 107.693 38.2824 107.693C38.7975 107.693 39.2514 107.601 39.6442 107.418C40.0458 107.226 40.3819 106.96 40.6525 106.619C40.9232 106.279 41.1283 105.877 41.268 105.414C41.4077 104.943 41.4775 104.428 41.4775 103.869V103.699C41.4775 103.14 41.4077 102.625 41.268 102.154C41.1283 101.682 40.9232 101.276 40.6525 100.936C40.3819 100.587 40.0458 100.316 39.6442 100.124C39.2514 99.9321 38.7975 99.836 38.2824 99.836C37.8372 99.836 37.4356 99.9015 37.0777 100.032C36.7285 100.163 36.4273 100.347 36.1741 100.582C35.921 100.818 35.7246 101.097 35.5849 101.42C35.4539 101.743 35.3885 102.093 35.3885 102.468V105.074Z" fill="white"/>
<path d="M50.8088 105.087C50.3636 105.157 50.0057 105.314 49.735 105.558C49.4644 105.794 49.3291 106.117 49.3291 106.527C49.3291 106.981 49.495 107.374 49.8267 107.706C50.1584 108.029 50.6473 108.19 51.2933 108.19C51.9742 108.19 52.5111 107.994 52.9039 107.601C53.2968 107.208 53.4932 106.689 53.4932 106.043V104.629L50.8088 105.087ZM54.0825 109.461C53.9341 109.627 53.7507 109.805 53.5325 109.998C53.323 110.181 53.0698 110.351 52.773 110.508C52.4849 110.657 52.1445 110.783 51.7516 110.888C51.3588 110.993 50.9179 111.045 50.4291 111.045C49.7307 111.045 49.0847 110.936 48.491 110.718C47.9061 110.491 47.3911 110.176 46.9459 109.775C46.5006 109.373 46.1514 108.911 45.8983 108.387C45.6451 107.854 45.5185 107.278 45.5185 106.658C45.5185 105.532 45.8677 104.611 46.5661 103.895C47.2645 103.18 48.2291 102.73 49.46 102.547L53.4932 101.957V101.695C53.4932 101.067 53.3012 100.569 52.917 100.203C52.5329 99.836 51.9088 99.6527 51.0445 99.6527C50.6866 99.6527 50.3243 99.6963 49.9576 99.7836C49.591 99.8622 49.2374 99.9539 48.897 100.059C48.5652 100.163 48.2553 100.286 47.9672 100.425C47.6792 100.556 47.426 100.674 47.2078 100.779L45.7935 98.0159C46.5967 97.5706 47.4871 97.204 48.4648 96.9159C49.4513 96.6278 50.4727 96.4838 51.529 96.4838C52.175 96.4838 52.8254 96.5536 53.4801 96.6933C54.1436 96.8242 54.7416 97.0687 55.2741 97.4266C55.8153 97.7845 56.2562 98.2734 56.5967 98.8932C56.9371 99.5043 57.1074 100.286 57.1074 101.237V106.999C57.1074 107.409 57.2121 107.715 57.4216 107.915C57.6399 108.108 57.9367 108.286 58.3121 108.452L56.6752 111.045C56.0118 110.975 55.4792 110.805 55.0777 110.534C54.6761 110.255 54.3444 109.897 54.0825 109.461Z" fill="white"/>
<path d="M61.79 103.843C61.79 104.297 61.8511 104.755 61.9734 105.218C62.0956 105.672 62.2833 106.082 62.5364 106.449C62.7896 106.816 63.1126 107.117 63.5054 107.352C63.907 107.579 64.3828 107.693 64.9328 107.693C65.2907 107.693 65.6137 107.645 65.9018 107.549C66.1986 107.453 66.4605 107.322 66.6875 107.156C66.9232 106.981 67.1283 106.781 67.3029 106.554C67.4862 106.318 67.6434 106.065 67.7743 105.794L70.9432 107.431C70.7163 107.981 70.402 108.479 70.0004 108.924C69.6076 109.369 69.1493 109.749 68.6255 110.063C68.1017 110.377 67.5211 110.617 66.8839 110.783C66.2466 110.958 65.57 111.045 64.8542 111.045C63.8677 111.045 62.9598 110.862 62.1305 110.495C61.3012 110.12 60.5853 109.609 59.983 108.963C59.3806 108.317 58.9092 107.553 58.5687 106.671C58.2283 105.781 58.058 104.816 58.058 103.778C58.058 102.747 58.2283 101.787 58.5687 100.897C58.9092 100.006 59.3806 99.2337 59.983 98.5789C60.5853 97.9242 61.3012 97.4135 62.1305 97.0468C62.9598 96.6715 63.8677 96.4838 64.8542 96.4838C65.57 96.4838 66.2466 96.5711 66.8839 96.7457C67.5211 96.9115 68.1017 97.156 68.6255 97.479C69.1493 97.7932 69.6076 98.173 70.0004 98.6182C70.402 99.0634 70.7163 99.561 70.9432 100.111L67.7743 101.748C67.6434 101.477 67.4862 101.228 67.3029 101.001C67.1283 100.766 66.9232 100.565 66.6875 100.399C66.4605 100.224 66.1986 100.089 65.9018 99.9932C65.6137 99.8884 65.2907 99.836 64.9328 99.836C64.3828 99.836 63.907 99.9539 63.5054 100.19C63.1126 100.417 62.7896 100.718 62.5364 101.093C62.2833 101.46 62.0956 101.874 61.9734 102.337C61.8511 102.8 61.79 103.262 61.79 103.725V103.843Z" fill="white"/>
<path d="M75.4426 110.783H71.8284V96.7588H75.4426V110.783ZM71.4487 93.0791C71.4487 92.7823 71.5054 92.503 71.6189 92.2411C71.7324 91.9705 71.8852 91.7391 72.0772 91.5471C72.278 91.3463 72.5094 91.1891 72.7713 91.0757C73.0331 90.9622 73.3169 90.9054 73.6224 90.9054C73.9192 90.9054 74.1986 90.9622 74.4605 91.0757C74.7311 91.1891 74.9624 91.3463 75.1545 91.5471C75.3553 91.7391 75.5124 91.9705 75.6259 92.2411C75.7394 92.503 75.7961 92.7823 75.7961 93.0791C75.7961 93.3847 75.7394 93.6684 75.6259 93.9303C75.5124 94.1922 75.3553 94.4235 75.1545 94.6243C74.9624 94.8164 74.7311 94.9692 74.4605 95.0826C74.1986 95.1961 73.9192 95.2529 73.6224 95.2529C73.3169 95.2529 73.0331 95.1961 72.7713 95.0826C72.5094 94.9692 72.278 94.8164 72.0772 94.6243C71.8852 94.4235 71.7324 94.1922 71.6189 93.9303C71.5054 93.6684 71.4487 93.3847 71.4487 93.0791Z" fill="white"/>
<path d="M77.2182 96.7588H80.8324V97.9635C81.0244 97.7714 81.2383 97.5881 81.474 97.4135C81.7184 97.2302 81.9847 97.073 82.2728 96.9421C82.5609 96.8024 82.8795 96.6933 83.2287 96.6147C83.5866 96.5274 83.9795 96.4838 84.4072 96.4838C85.1667 96.4838 85.8476 96.6104 86.45 96.8635C87.0524 97.108 87.5587 97.4484 87.969 97.8849C88.388 98.3214 88.7067 98.8321 88.9249 99.417C89.1431 100.002 89.2523 100.635 89.2523 101.316V110.783H85.6381V102.625C85.6381 102.128 85.5814 101.709 85.4679 101.368C85.3544 101.019 85.1973 100.74 84.9965 100.53C84.8044 100.312 84.5731 100.155 84.3025 100.059C84.0406 99.9539 83.7525 99.9015 83.4382 99.9015C83.0716 99.9015 82.7267 99.967 82.4037 100.098C82.0895 100.229 81.8145 100.43 81.5788 100.7C81.3431 100.962 81.1597 101.294 81.0288 101.695C80.8978 102.097 80.8324 102.568 80.8324 103.11V110.783H77.2182V96.7588Z" fill="white"/>
<path d="M99.4609 108.295C99.1379 108.688 98.6839 109.002 98.0991 109.238C97.5229 109.465 96.8943 109.578 96.2134 109.578C95.2706 109.578 94.4325 109.413 93.6992 109.081C92.9659 108.749 92.3461 108.295 91.8398 107.719C91.3422 107.134 90.9581 106.444 90.6874 105.65C90.4255 104.856 90.2946 103.983 90.2946 103.031C90.2946 102.106 90.4255 101.242 90.6874 100.438C90.9581 99.6265 91.3422 98.9325 91.8398 98.3563C92.3461 97.7714 92.9659 97.3131 93.6992 96.9814C94.4325 96.6496 95.2706 96.4838 96.2134 96.4838C96.8943 96.4838 97.5229 96.6016 98.0991 96.8373C98.6839 97.073 99.1379 97.3873 99.4609 97.7802V96.7588H103.088V110.652C103.088 111.508 102.927 112.241 102.604 112.852C102.281 113.472 101.835 113.978 101.268 114.371C100.709 114.764 100.059 115.048 99.3169 115.222C98.5748 115.406 97.7848 115.497 96.9467 115.497C95.9253 115.497 94.8603 115.375 93.7516 115.131C92.6429 114.895 91.687 114.598 90.8839 114.24L91.9053 111.32C92.1497 111.425 92.4509 111.538 92.8088 111.661C93.1667 111.792 93.5508 111.905 93.9611 112.001C94.3714 112.097 94.7992 112.176 95.2444 112.237C95.6984 112.307 96.1392 112.341 96.567 112.341C96.9424 112.341 97.3046 112.302 97.6538 112.224C98.003 112.154 98.3086 112.032 98.5705 111.857C98.8411 111.691 99.055 111.468 99.2121 111.189C99.378 110.919 99.4609 110.569 99.4609 110.142V108.295ZM94.0135 103.084C94.0135 103.546 94.0615 103.983 94.1575 104.393C94.2623 104.795 94.4238 105.139 94.642 105.427C94.869 105.707 95.1571 105.929 95.5063 106.095C95.8555 106.252 96.2789 106.331 96.7765 106.331C97.763 106.331 98.4657 106.021 98.8847 105.401C99.3038 104.773 99.5133 104 99.5133 103.084V102.979C99.5133 102.516 99.4653 102.084 99.3692 101.682C99.2732 101.281 99.1161 100.936 98.8978 100.648C98.6796 100.36 98.3959 100.137 98.0467 99.9801C97.7062 99.8142 97.2828 99.7313 96.7765 99.7313C95.7987 99.7313 95.0916 100.041 94.6551 100.661C94.2274 101.281 94.0135 102.053 94.0135 102.979V103.084Z" fill="white"/>
</g>
<defs>
<clipPath id="clip0_1322_2654">
<rect width="207.375" height="207.375" fill="white"/>
</clipPath>
</defs>
</svg>
