<svg width="480" height="320" viewBox="0 0 480 320" fill="none" xmlns="http://www.w3.org/2000/svg">
<g clip-path="url(#clip0_1710_36542)">
<path d="M480 0H0V320H480V0Z" fill="white"/>
<path d="M108.365 256.398C108.594 256.398 108.807 256.338 109.003 256.217C109.202 256.096 109.372 255.923 109.513 255.697C109.657 255.468 109.77 255.188 109.851 254.858C109.933 254.524 109.974 254.147 109.974 253.725V253.372C109.974 252.95 109.933 252.574 109.851 252.243C109.77 251.913 109.657 251.634 109.513 251.405C109.372 251.176 109.202 251.002 109.003 250.885C108.807 250.764 108.594 250.703 108.365 250.703C108.133 250.703 107.919 250.764 107.723 250.885C107.526 251.002 107.356 251.176 107.212 251.405C107.072 251.634 106.961 251.913 106.879 252.243C106.797 252.574 106.756 252.95 106.756 253.372V253.725C106.756 254.147 106.797 254.524 106.879 254.858C106.961 255.188 107.072 255.468 107.212 255.697C107.356 255.923 107.526 256.096 107.723 256.217C107.919 256.338 108.133 256.398 108.365 256.398ZM108.365 249.938C108.666 249.938 108.937 249.985 109.179 250.08C109.421 250.175 109.634 250.306 109.817 250.473C110.004 250.636 110.162 250.832 110.293 251.061C110.427 251.29 110.537 251.539 110.622 251.807C110.707 252.072 110.769 252.353 110.808 252.651C110.847 252.948 110.867 253.249 110.867 253.553C110.867 253.857 110.847 254.158 110.808 254.456C110.769 254.75 110.707 255.031 110.622 255.3C110.537 255.564 110.427 255.811 110.293 256.04C110.162 256.266 110.004 256.462 109.817 256.629C109.634 256.796 109.421 256.927 109.179 257.021C108.937 257.113 108.666 257.159 108.365 257.159C108.064 257.159 107.793 257.113 107.551 257.021C107.309 256.927 107.095 256.796 106.908 256.629C106.725 256.462 106.566 256.266 106.432 256.04C106.302 255.811 106.194 255.564 106.109 255.3C106.024 255.031 105.961 254.75 105.922 254.456C105.883 254.158 105.863 253.857 105.863 253.553C105.863 253.249 105.883 252.948 105.922 252.651C105.961 252.353 106.024 252.072 106.109 251.807C106.194 251.539 106.302 251.29 106.432 251.061C106.566 250.832 106.725 250.636 106.908 250.473C107.095 250.306 107.309 250.175 107.551 250.08C107.793 249.985 108.064 249.938 108.365 249.938Z" fill="#0B0C0C"/>
<path d="M107.05 206.074H110.558V206.829H105.873V206.005C106.321 205.704 106.725 205.426 107.085 205.171C107.445 204.916 107.762 204.676 108.036 204.45C108.311 204.221 108.547 204.003 108.743 203.797C108.942 203.591 109.106 203.387 109.233 203.184C109.361 202.982 109.454 202.777 109.513 202.571C109.572 202.365 109.601 202.148 109.601 201.919C109.601 201.722 109.567 201.536 109.498 201.359C109.433 201.183 109.336 201.029 109.209 200.898C109.085 200.764 108.929 200.658 108.743 200.579C108.56 200.501 108.35 200.462 108.115 200.462C107.925 200.462 107.742 200.49 107.566 200.545C107.392 200.597 107.237 200.682 107.1 200.8C106.965 200.918 106.856 201.07 106.771 201.256C106.686 201.44 106.638 201.66 106.629 201.919L105.814 201.825C105.827 201.498 105.891 201.204 106.006 200.942C106.12 200.681 106.277 200.458 106.477 200.275C106.679 200.092 106.92 199.952 107.198 199.853C107.479 199.755 107.791 199.706 108.135 199.706C108.468 199.706 108.777 199.762 109.062 199.873C109.349 199.981 109.598 200.133 109.807 200.329C110.02 200.526 110.185 200.758 110.303 201.026C110.424 201.294 110.484 201.587 110.484 201.904C110.484 202.28 110.419 202.633 110.288 202.964C110.161 203.294 109.964 203.619 109.699 203.94C109.435 204.257 109.098 204.577 108.689 204.901C108.283 205.225 107.804 205.567 107.252 205.926L107.05 206.054V206.074ZM111.931 203.253L112.299 199.795H116.317V200.55H112.996L112.785 202.551C112.975 202.368 113.202 202.231 113.467 202.139C113.732 202.045 114.003 201.997 114.281 201.997C114.615 201.997 114.922 202.059 115.203 202.184C115.488 202.305 115.733 202.473 115.939 202.689C116.148 202.905 116.31 203.16 116.425 203.454C116.543 203.748 116.601 204.066 116.601 204.406C116.601 204.785 116.539 205.13 116.415 205.441C116.294 205.751 116.122 206.018 115.9 206.24C115.678 206.459 115.413 206.63 115.105 206.751C114.798 206.868 114.459 206.927 114.09 206.927C113.799 206.927 113.522 206.894 113.261 206.829C113.002 206.76 112.769 206.659 112.559 206.525C112.35 206.388 112.17 206.219 112.02 206.02C111.873 205.817 111.768 205.581 111.706 205.313L112.564 205.132C112.6 205.272 112.661 205.406 112.746 205.534C112.831 205.658 112.939 205.769 113.069 205.868C113.2 205.962 113.351 206.038 113.521 206.093C113.691 206.149 113.88 206.177 114.09 206.177C114.342 206.177 114.567 206.134 114.767 206.049C114.966 205.964 115.135 205.846 115.272 205.696C115.409 205.542 115.514 205.361 115.586 205.151C115.661 204.942 115.699 204.715 115.699 204.469C115.699 204.214 115.661 203.982 115.586 203.773C115.514 203.564 115.408 203.384 115.267 203.233C115.13 203.08 114.961 202.962 114.762 202.88C114.562 202.795 114.335 202.753 114.08 202.753C113.959 202.753 113.835 202.767 113.707 202.797C113.583 202.826 113.462 202.867 113.344 202.919C113.23 202.972 113.122 203.035 113.02 203.111C112.919 203.186 112.832 203.269 112.76 203.361L111.931 203.253ZM122.929 199.795H123.734L119.451 206.829H118.647L122.929 199.795ZM119.299 203.013C119.067 203.013 118.85 202.97 118.647 202.885C118.447 202.8 118.271 202.684 118.117 202.537C117.967 202.386 117.847 202.21 117.759 202.007C117.674 201.804 117.632 201.587 117.632 201.355C117.632 201.122 117.674 200.907 117.759 200.707C117.847 200.504 117.967 200.329 118.117 200.182C118.271 200.035 118.447 199.919 118.647 199.834C118.85 199.749 119.067 199.706 119.299 199.706C119.535 199.706 119.754 199.749 119.957 199.834C120.159 199.919 120.336 200.035 120.486 200.182C120.64 200.329 120.76 200.504 120.845 200.707C120.933 200.907 120.977 201.122 120.977 201.355C120.977 201.587 120.933 201.804 120.845 202.007C120.76 202.21 120.64 202.386 120.486 202.537C120.336 202.684 120.159 202.8 119.957 202.885C119.754 202.97 119.535 203.013 119.299 203.013ZM119.299 200.418C119.165 200.418 119.043 200.44 118.931 200.486C118.824 200.532 118.73 200.597 118.652 200.682C118.573 200.764 118.513 200.862 118.47 200.977C118.428 201.091 118.407 201.217 118.407 201.355C118.407 201.489 118.428 201.615 118.47 201.732C118.513 201.847 118.573 201.946 118.652 202.031C118.73 202.113 118.824 202.179 118.931 202.228C119.043 202.273 119.165 202.296 119.299 202.296C119.437 202.296 119.561 202.273 119.672 202.228C119.787 202.179 119.883 202.113 119.962 202.031C120.04 201.946 120.101 201.847 120.143 201.732C120.186 201.615 120.207 201.489 120.207 201.355C120.207 201.217 120.186 201.091 120.143 200.977C120.101 200.862 120.04 200.764 119.962 200.682C119.883 200.597 119.787 200.532 119.672 200.486C119.561 200.44 119.437 200.418 119.299 200.418ZM123.131 206.927C122.898 206.927 122.681 206.885 122.478 206.8C122.275 206.715 122.099 206.598 121.948 206.451C121.798 206.301 121.678 206.126 121.59 205.926C121.505 205.724 121.463 205.506 121.463 205.274C121.463 205.042 121.505 204.826 121.59 204.626C121.678 204.424 121.798 204.249 121.948 204.102C122.099 203.954 122.275 203.838 122.478 203.753C122.681 203.668 122.898 203.626 123.131 203.626C123.363 203.626 123.58 203.668 123.783 203.753C123.989 203.838 124.167 203.954 124.318 204.102C124.471 204.249 124.591 204.424 124.676 204.626C124.764 204.826 124.808 205.042 124.808 205.274C124.808 205.506 124.764 205.724 124.676 205.926C124.591 206.126 124.471 206.301 124.318 206.451C124.167 206.598 123.989 206.715 123.783 206.8C123.58 206.885 123.363 206.927 123.131 206.927ZM123.131 204.337C122.993 204.337 122.869 204.36 122.758 204.406C122.65 204.452 122.557 204.517 122.478 204.602C122.4 204.684 122.339 204.782 122.297 204.896C122.254 205.011 122.233 205.137 122.233 205.274C122.233 205.408 122.254 205.534 122.297 205.652C122.339 205.766 122.4 205.866 122.478 205.951C122.557 206.033 122.65 206.098 122.758 206.147C122.869 206.193 122.993 206.216 123.131 206.216C123.268 206.216 123.392 206.193 123.503 206.147C123.615 206.098 123.709 206.033 123.788 205.951C123.866 205.866 123.927 205.766 123.969 205.652C124.012 205.534 124.033 205.408 124.033 205.274C124.033 205.137 124.012 205.011 123.969 204.896C123.927 204.782 123.866 204.684 123.788 204.602C123.709 204.517 123.615 204.452 123.503 204.406C123.392 204.36 123.268 204.337 123.131 204.337Z" fill="#0B0C0C"/>
<path d="M105.947 149.673L106.315 146.215H110.332V146.97H107.011L106.8 148.972C106.99 148.789 107.217 148.651 107.482 148.56C107.747 148.465 108.018 148.417 108.296 148.417C108.63 148.417 108.937 148.48 109.219 148.604C109.503 148.725 109.748 148.893 109.954 149.109C110.164 149.325 110.326 149.58 110.44 149.874C110.558 150.169 110.617 150.486 110.617 150.826C110.617 151.205 110.555 151.55 110.43 151.861C110.309 152.172 110.138 152.438 109.915 152.661C109.693 152.88 109.428 153.05 109.121 153.171C108.813 153.288 108.475 153.347 108.105 153.347C107.814 153.347 107.538 153.315 107.276 153.249C107.018 153.181 106.784 153.079 106.575 152.945C106.365 152.808 106.185 152.639 106.035 152.44C105.888 152.237 105.783 152.002 105.721 151.733L106.58 151.552C106.616 151.693 106.676 151.827 106.761 151.954C106.846 152.078 106.954 152.19 107.085 152.288C107.216 152.383 107.366 152.458 107.536 152.513C107.706 152.569 107.896 152.597 108.105 152.597C108.357 152.597 108.583 152.554 108.782 152.469C108.982 152.384 109.15 152.267 109.287 152.116C109.425 151.962 109.529 151.781 109.601 151.572C109.677 151.362 109.714 151.135 109.714 150.89C109.714 150.635 109.677 150.402 109.601 150.193C109.529 149.984 109.423 149.804 109.282 149.654C109.145 149.5 108.977 149.382 108.777 149.3C108.578 149.215 108.35 149.173 108.095 149.173C107.974 149.173 107.85 149.188 107.723 149.217C107.598 149.246 107.477 149.287 107.36 149.34C107.245 149.392 107.137 149.456 107.036 149.531C106.934 149.606 106.848 149.69 106.776 149.781L105.947 149.673ZM114.301 152.587C114.53 152.587 114.742 152.527 114.938 152.406C115.138 152.285 115.308 152.111 115.449 151.886C115.592 151.657 115.705 151.377 115.787 151.047C115.869 150.713 115.91 150.335 115.91 149.914V149.56C115.91 149.138 115.869 148.762 115.787 148.432C115.705 148.102 115.592 147.822 115.449 147.593C115.308 147.364 115.138 147.191 114.938 147.073C114.742 146.952 114.53 146.892 114.301 146.892C114.069 146.892 113.854 146.952 113.658 147.073C113.462 147.191 113.292 147.364 113.148 147.593C113.007 147.822 112.896 148.102 112.814 148.432C112.733 148.762 112.692 149.138 112.692 149.56V149.914C112.692 150.335 112.733 150.713 112.814 151.047C112.896 151.377 113.007 151.657 113.148 151.886C113.292 152.111 113.462 152.285 113.658 152.406C113.854 152.527 114.069 152.587 114.301 152.587ZM114.301 146.127C114.602 146.127 114.873 146.174 115.115 146.269C115.357 146.364 115.57 146.494 115.753 146.661C115.939 146.825 116.098 147.021 116.229 147.25C116.363 147.479 116.472 147.727 116.557 147.996C116.642 148.26 116.704 148.542 116.744 148.839C116.783 149.137 116.802 149.438 116.802 149.742C116.802 150.046 116.783 150.347 116.744 150.644C116.704 150.939 116.642 151.22 116.557 151.488C116.472 151.753 116.363 152 116.229 152.229C116.098 152.455 115.939 152.651 115.753 152.818C115.57 152.984 115.357 153.115 115.115 153.21C114.873 153.302 114.602 153.347 114.301 153.347C114 153.347 113.728 153.302 113.486 153.21C113.244 153.115 113.03 152.984 112.844 152.818C112.661 152.651 112.502 152.455 112.368 152.229C112.237 152 112.129 151.753 112.044 151.488C111.959 151.22 111.897 150.939 111.858 150.644C111.819 150.347 111.799 150.046 111.799 149.742C111.799 149.438 111.819 149.137 111.858 148.839C111.897 148.542 111.959 148.26 112.044 147.996C112.129 147.727 112.237 147.479 112.368 147.25C112.502 147.021 112.661 146.825 112.844 146.661C113.03 146.494 113.244 146.364 113.486 146.269C113.728 146.174 114 146.127 114.301 146.127ZM123.253 146.215H124.058L119.775 153.249H118.971L123.253 146.215ZM119.623 149.433C119.391 149.433 119.173 149.39 118.971 149.305C118.771 149.22 118.595 149.104 118.441 148.957C118.29 148.807 118.171 148.63 118.083 148.427C117.998 148.224 117.955 148.007 117.955 147.775C117.955 147.543 117.998 147.327 118.083 147.127C118.171 146.924 118.29 146.75 118.441 146.602C118.595 146.455 118.771 146.339 118.971 146.254C119.173 146.169 119.391 146.127 119.623 146.127C119.859 146.127 120.078 146.169 120.28 146.254C120.483 146.339 120.66 146.455 120.81 146.602C120.964 146.75 121.083 146.924 121.168 147.127C121.257 147.327 121.301 147.543 121.301 147.775C121.301 148.007 121.257 148.224 121.168 148.427C121.083 148.63 120.964 148.807 120.81 148.957C120.66 149.104 120.483 149.22 120.28 149.305C120.078 149.39 119.859 149.433 119.623 149.433ZM119.623 146.838C119.489 146.838 119.366 146.861 119.255 146.907C119.147 146.952 119.054 147.018 118.976 147.103C118.897 147.184 118.837 147.283 118.794 147.397C118.752 147.512 118.73 147.637 118.73 147.775C118.73 147.909 118.752 148.035 118.794 148.152C118.837 148.267 118.897 148.367 118.976 148.452C119.054 148.533 119.147 148.599 119.255 148.648C119.366 148.694 119.489 148.717 119.623 148.717C119.76 148.717 119.885 148.694 119.996 148.648C120.11 148.599 120.207 148.533 120.285 148.452C120.364 148.367 120.424 148.267 120.467 148.152C120.509 148.035 120.531 147.909 120.531 147.775C120.531 147.637 120.509 147.512 120.467 147.397C120.424 147.283 120.364 147.184 120.285 147.103C120.207 147.018 120.11 146.952 119.996 146.907C119.885 146.861 119.76 146.838 119.623 146.838ZM123.454 153.347C123.222 153.347 123.005 153.305 122.802 153.22C122.599 153.135 122.422 153.019 122.272 152.872C122.122 152.721 122.002 152.546 121.914 152.347C121.829 152.144 121.786 151.926 121.786 151.694C121.786 151.462 121.829 151.246 121.914 151.047C122.002 150.844 122.122 150.669 122.272 150.522C122.422 150.375 122.599 150.259 122.802 150.174C123.005 150.088 123.222 150.046 123.454 150.046C123.686 150.046 123.904 150.088 124.107 150.174C124.313 150.259 124.491 150.375 124.641 150.522C124.795 150.669 124.914 150.844 124.999 151.047C125.088 151.246 125.132 151.462 125.132 151.694C125.132 151.926 125.088 152.144 124.999 152.347C124.914 152.546 124.795 152.721 124.641 152.872C124.491 153.019 124.313 153.135 124.107 153.22C123.904 153.305 123.686 153.347 123.454 153.347ZM123.454 150.757C123.317 150.757 123.193 150.78 123.081 150.826C122.974 150.872 122.88 150.937 122.802 151.022C122.723 151.104 122.663 151.202 122.62 151.316C122.578 151.431 122.557 151.557 122.557 151.694C122.557 151.828 122.578 151.954 122.62 152.072C122.663 152.186 122.723 152.286 122.802 152.371C122.88 152.453 122.974 152.518 123.081 152.567C123.193 152.613 123.317 152.636 123.454 152.636C123.592 152.636 123.716 152.613 123.827 152.567C123.938 152.518 124.033 152.453 124.112 152.371C124.19 152.286 124.251 152.186 124.293 152.072C124.336 151.954 124.357 151.828 124.357 151.694C124.357 151.557 124.336 151.431 124.293 151.316C124.251 151.202 124.19 151.104 124.112 151.022C124.033 150.937 123.938 150.872 123.827 150.826C123.716 150.78 123.592 150.757 123.454 150.757Z" fill="#0B0C0C"/>
<path d="M109.312 93.4188H105.584V92.6339H110.195V93.4188L107.58 99.6683H106.619L109.312 93.4188ZM111.254 96.0923L111.622 92.6339H115.64V93.3894H112.319L112.108 95.3908C112.298 95.2077 112.525 95.0703 112.79 94.9787C113.055 94.8839 113.326 94.8365 113.604 94.8365C113.938 94.8365 114.245 94.8986 114.526 95.0229C114.811 95.1439 115.056 95.3123 115.262 95.5281C115.471 95.744 115.633 95.9991 115.748 96.2934C115.866 96.5877 115.924 96.9049 115.924 97.245C115.924 97.6244 115.862 97.9694 115.738 98.2801C115.617 98.5908 115.445 98.8573 115.223 99.0797C115.001 99.2988 114.736 99.4688 114.428 99.5898C114.121 99.7076 113.782 99.7664 113.413 99.7664C113.122 99.7664 112.845 99.7337 112.584 99.6683C112.325 99.5997 112.092 99.4983 111.882 99.3642C111.673 99.2268 111.493 99.0584 111.343 98.8589C111.196 98.6562 111.091 98.4207 111.029 98.1526L111.887 97.9711C111.923 98.1117 111.984 98.2458 112.069 98.3733C112.154 98.4976 112.262 98.6088 112.393 98.7069C112.523 98.8017 112.674 98.8769 112.844 98.9325C113.014 98.9881 113.204 99.0159 113.413 99.0159C113.665 99.0159 113.89 98.9734 114.09 98.8884C114.289 98.8033 114.458 98.6856 114.595 98.5352C114.732 98.3815 114.837 98.2 114.909 97.9907C114.984 97.7814 115.022 97.5541 115.022 97.3088C115.022 97.0537 114.984 96.8215 114.909 96.6122C114.837 96.4029 114.731 96.2231 114.59 96.0726C114.453 95.9189 114.284 95.8012 114.085 95.7195C113.885 95.6344 113.658 95.5919 113.403 95.5919C113.282 95.5919 113.158 95.6066 113.03 95.6361C112.906 95.6655 112.785 95.7064 112.667 95.7587C112.553 95.811 112.445 95.8748 112.343 95.95C112.242 96.0252 112.155 96.1086 112.083 96.2002L111.254 96.0923ZM122.252 92.6339H123.057L118.774 99.6683H117.97L122.252 92.6339ZM118.622 95.8519C118.39 95.8519 118.173 95.8094 117.97 95.7244C117.77 95.6393 117.594 95.5232 117.44 95.3761C117.29 95.2256 117.17 95.049 117.082 94.8463C116.997 94.6435 116.955 94.4261 116.955 94.1939C116.955 93.9617 116.997 93.7458 117.082 93.5463C117.17 93.3436 117.29 93.1686 117.44 93.0215C117.594 92.8743 117.77 92.7582 117.97 92.6732C118.173 92.5882 118.39 92.5456 118.622 92.5456C118.858 92.5456 119.077 92.5882 119.28 92.6732C119.482 92.7582 119.659 92.8743 119.81 93.0215C119.963 93.1686 120.083 93.3436 120.168 93.5463C120.256 93.7458 120.3 93.9617 120.3 94.1939C120.3 94.4261 120.256 94.6435 120.168 94.8463C120.083 95.049 119.963 95.2256 119.81 95.3761C119.659 95.5232 119.482 95.6393 119.28 95.7244C119.077 95.8094 118.858 95.8519 118.622 95.8519ZM118.622 93.2569C118.488 93.2569 118.366 93.2798 118.255 93.3256C118.147 93.3714 118.053 93.4368 117.975 93.5218C117.896 93.6036 117.836 93.7017 117.793 93.8161C117.751 93.9306 117.73 94.0565 117.73 94.1939C117.73 94.3279 117.751 94.4539 117.793 94.5716C117.836 94.686 117.896 94.7858 117.975 94.8708C118.053 94.9526 118.147 95.018 118.255 95.067C118.366 95.1128 118.488 95.1357 118.622 95.1357C118.76 95.1357 118.884 95.1128 118.995 95.067C119.11 95.018 119.206 94.9526 119.285 94.8708C119.363 94.7858 119.424 94.686 119.466 94.5716C119.509 94.4539 119.53 94.3279 119.53 94.1939C119.53 94.0565 119.509 93.9306 119.466 93.8161C119.424 93.7017 119.363 93.6036 119.285 93.5218C119.206 93.4368 119.11 93.3714 118.995 93.3256C118.884 93.2798 118.76 93.2569 118.622 93.2569ZM122.454 99.7664C122.221 99.7664 122.004 99.7239 121.801 99.6389C121.598 99.5539 121.422 99.4378 121.271 99.2906C121.121 99.1402 121.002 98.9652 120.913 98.7657C120.828 98.563 120.786 98.3455 120.786 98.1133C120.786 97.8811 120.828 97.6653 120.913 97.4658C121.002 97.263 121.121 97.0881 121.271 96.9409C121.422 96.7937 121.598 96.6777 121.801 96.5926C122.004 96.5076 122.221 96.4651 122.454 96.4651C122.686 96.4651 122.903 96.5076 123.106 96.5926C123.312 96.6777 123.49 96.7937 123.641 96.9409C123.794 97.0881 123.914 97.263 123.999 97.4658C124.087 97.6653 124.131 97.8811 124.131 98.1133C124.131 98.3455 124.087 98.563 123.999 98.7657C123.914 98.9652 123.794 99.1402 123.641 99.2906C123.49 99.4378 123.312 99.5539 123.106 99.6389C122.903 99.7239 122.686 99.7664 122.454 99.7664ZM122.454 97.1764C122.316 97.1764 122.192 97.1993 122.081 97.245C121.973 97.2908 121.88 97.3562 121.801 97.4413C121.723 97.523 121.662 97.6211 121.62 97.7356C121.577 97.8501 121.556 97.976 121.556 98.1133C121.556 98.2474 121.577 98.3733 121.62 98.491C121.662 98.6055 121.723 98.7052 121.801 98.7903C121.88 98.872 121.973 98.9374 122.081 98.9865C122.192 99.0323 122.316 99.0552 122.454 99.0552C122.591 99.0552 122.715 99.0323 122.826 98.9865C122.938 98.9374 123.032 98.872 123.111 98.7903C123.189 98.7052 123.25 98.6055 123.292 98.491C123.335 98.3733 123.356 98.2474 123.356 98.1133C123.356 97.976 123.335 97.8501 123.292 97.7356C123.25 97.6211 123.189 97.523 123.111 97.4413C123.032 97.3562 122.938 97.2908 122.826 97.245C122.715 97.1993 122.591 97.1764 122.454 97.1764Z" fill="#0B0C0C"/>
<path d="M106.965 43.5404C107.194 43.5404 107.381 43.5224 107.525 43.4864C107.669 43.4472 107.78 43.3867 107.858 43.3049C107.937 43.2232 107.989 43.1185 108.015 42.991C108.045 42.8602 108.059 42.7016 108.059 42.5152V42.4023H108.893V49.4367H108.03V44.2713H106.661V43.5404H106.965ZM113.215 48.7745C113.444 48.7745 113.656 48.714 113.853 48.593C114.052 48.472 114.222 48.2987 114.363 48.073C114.507 47.8441 114.62 47.5645 114.701 47.2342C114.783 46.9006 114.824 46.5229 114.824 46.101V45.7478C114.824 45.326 114.783 44.9499 114.701 44.6196C114.62 44.2893 114.507 44.0097 114.363 43.7808C114.222 43.5518 114.052 43.3785 113.853 43.2608C113.656 43.1398 113.444 43.0793 113.215 43.0793C112.983 43.0793 112.769 43.1398 112.572 43.2608C112.376 43.3785 112.206 43.5518 112.062 43.7808C111.922 44.0097 111.81 44.2893 111.729 44.6196C111.647 44.9499 111.606 45.326 111.606 45.7478V46.101C111.606 46.5229 111.647 46.9006 111.729 47.2342C111.81 47.5645 111.922 47.8441 112.062 48.073C112.206 48.2987 112.376 48.472 112.572 48.593C112.769 48.714 112.983 48.7745 113.215 48.7745ZM113.215 42.314C113.516 42.314 113.787 42.3615 114.029 42.4563C114.271 42.5511 114.484 42.6819 114.667 42.8487C114.853 43.0122 115.012 43.2085 115.143 43.4374C115.277 43.6663 115.386 43.9148 115.471 44.183C115.557 44.4479 115.619 44.7291 115.658 45.0267C115.697 45.3243 115.717 45.6252 115.717 45.9293C115.717 46.2335 115.697 46.5344 115.658 46.8319C115.619 47.1263 115.557 47.4075 115.471 47.6757C115.386 47.9406 115.277 48.1875 115.143 48.4164C115.012 48.6421 114.853 48.8383 114.667 49.0051C114.484 49.1718 114.271 49.3027 114.029 49.3975C113.787 49.4891 113.516 49.5348 113.215 49.5348C112.914 49.5348 112.643 49.4891 112.401 49.3975C112.159 49.3027 111.944 49.1718 111.758 49.0051C111.575 48.8383 111.416 48.6421 111.282 48.4164C111.151 48.1875 111.044 47.9406 110.958 47.6757C110.873 47.4075 110.811 47.1263 110.772 46.8319C110.733 46.5344 110.713 46.2335 110.713 45.9293C110.713 45.6252 110.733 45.3243 110.772 45.0267C110.811 44.7291 110.873 44.4479 110.958 44.183C111.044 43.9148 111.151 43.6663 111.282 43.4374C111.416 43.2085 111.575 43.0122 111.758 42.8487C111.944 42.6819 112.159 42.5511 112.401 42.4563C112.643 42.3615 112.914 42.314 113.215 42.314ZM119.523 48.7745C119.752 48.7745 119.965 48.714 120.161 48.593C120.361 48.472 120.531 48.2987 120.671 48.073C120.815 47.8441 120.928 47.5645 121.01 47.2342C121.091 46.9006 121.132 46.5229 121.132 46.101V45.7478C121.132 45.326 121.091 44.9499 121.01 44.6196C120.928 44.2893 120.815 44.0097 120.671 43.7808C120.531 43.5518 120.361 43.3785 120.161 43.2608C119.965 43.1398 119.752 43.0793 119.523 43.0793C119.291 43.0793 119.077 43.1398 118.881 43.2608C118.685 43.3785 118.514 43.5518 118.371 43.7808C118.23 44.0097 118.119 44.2893 118.037 44.6196C117.955 44.9499 117.914 45.326 117.914 45.7478V46.101C117.914 46.5229 117.955 46.9006 118.037 47.2342C118.119 47.5645 118.23 47.8441 118.371 48.073C118.514 48.2987 118.685 48.472 118.881 48.593C119.077 48.714 119.291 48.7745 119.523 48.7745ZM119.523 42.314C119.824 42.314 120.096 42.3615 120.338 42.4563C120.58 42.5511 120.792 42.6819 120.975 42.8487C121.162 43.0122 121.32 43.2085 121.451 43.4374C121.585 43.6663 121.695 43.9148 121.78 44.183C121.865 44.4479 121.927 44.7291 121.966 45.0267C122.006 45.3243 122.025 45.6252 122.025 45.9293C122.025 46.2335 122.006 46.5344 121.966 46.8319C121.927 47.1263 121.865 47.4075 121.78 47.6757C121.695 47.9406 121.585 48.1875 121.451 48.4164C121.32 48.6421 121.162 48.8383 120.975 49.0051C120.792 49.1718 120.58 49.3027 120.338 49.3975C120.096 49.4891 119.824 49.5348 119.523 49.5348C119.223 49.5348 118.951 49.4891 118.709 49.3975C118.467 49.3027 118.253 49.1718 118.066 49.0051C117.883 48.8383 117.725 48.6421 117.591 48.4164C117.46 48.1875 117.352 47.9406 117.267 47.6757C117.182 47.4075 117.12 47.1263 117.08 46.8319C117.041 46.5344 117.022 46.2335 117.022 45.9293C117.022 45.6252 117.041 45.3243 117.08 45.0267C117.12 44.7291 117.182 44.4479 117.267 44.183C117.352 43.9148 117.46 43.6663 117.591 43.4374C117.725 43.2085 117.883 43.0122 118.066 42.8487C118.253 42.6819 118.467 42.5511 118.709 42.4563C118.951 42.3615 119.223 42.314 119.523 42.314ZM128.476 42.4023H129.28L124.998 49.4367H124.193L128.476 42.4023ZM124.846 45.6203C124.614 45.6203 124.396 45.5778 124.193 45.4928C123.994 45.4077 123.817 45.2916 123.664 45.1445C123.513 44.994 123.394 44.8174 123.305 44.6147C123.22 44.4119 123.178 44.1945 123.178 43.9623C123.178 43.7301 123.22 43.5142 123.305 43.3147C123.394 43.112 123.513 42.937 123.664 42.7899C123.817 42.6427 123.994 42.5266 124.193 42.4416C124.396 42.3566 124.614 42.314 124.846 42.314C125.081 42.314 125.3 42.3566 125.503 42.4416C125.706 42.5266 125.882 42.6427 126.033 42.7899C126.187 42.937 126.306 43.112 126.391 43.3147C126.479 43.5142 126.523 43.7301 126.523 43.9623C126.523 44.1945 126.479 44.4119 126.391 44.6147C126.306 44.8174 126.187 44.994 126.033 45.1445C125.882 45.2916 125.706 45.4077 125.503 45.4928C125.3 45.5778 125.081 45.6203 124.846 45.6203ZM124.846 43.0253C124.712 43.0253 124.589 43.0482 124.478 43.094C124.37 43.1398 124.277 43.2052 124.198 43.2902C124.12 43.372 124.059 43.4701 124.017 43.5845C123.974 43.699 123.953 43.8249 123.953 43.9623C123.953 44.0963 123.974 44.2223 124.017 44.34C124.059 44.4544 124.12 44.5542 124.198 44.6392C124.277 44.721 124.37 44.7864 124.478 44.8354C124.589 44.8812 124.712 44.9041 124.846 44.9041C124.983 44.9041 125.107 44.8812 125.219 44.8354C125.333 44.7864 125.43 44.721 125.508 44.6392C125.587 44.5542 125.647 44.4544 125.69 44.34C125.732 44.2223 125.753 44.0963 125.753 43.9623C125.753 43.8249 125.732 43.699 125.69 43.5845C125.647 43.4701 125.587 43.372 125.508 43.2902C125.43 43.2052 125.333 43.1398 125.219 43.094C125.107 43.0482 124.983 43.0253 124.846 43.0253ZM128.677 49.5348C128.445 49.5348 128.227 49.4923 128.025 49.4073C127.822 49.3223 127.645 49.2062 127.495 49.059C127.344 48.9086 127.225 48.7336 127.137 48.5341C127.052 48.3314 127.009 48.1139 127.009 47.8817C127.009 47.6495 127.052 47.4337 127.137 47.2342C127.225 47.0314 127.344 46.8565 127.495 46.7093C127.645 46.5621 127.822 46.4461 128.025 46.361C128.227 46.276 128.445 46.2335 128.677 46.2335C128.909 46.2335 129.127 46.276 129.329 46.361C129.535 46.4461 129.714 46.5621 129.864 46.7093C130.018 46.8565 130.137 47.0314 130.222 47.2342C130.31 47.4337 130.355 47.6495 130.355 47.8817C130.355 48.1139 130.31 48.3314 130.222 48.5341C130.137 48.7336 130.018 48.9086 129.864 49.059C129.714 49.2062 129.535 49.3223 129.329 49.4073C129.127 49.4923 128.909 49.5348 128.677 49.5348ZM128.677 46.9448C128.54 46.9448 128.415 46.9677 128.304 47.0134C128.196 47.0592 128.103 47.1246 128.025 47.2097C127.946 47.2914 127.886 47.3895 127.843 47.504C127.8 47.6185 127.779 47.7444 127.779 47.8817C127.779 48.0158 127.8 48.1417 127.843 48.2594C127.886 48.3739 127.946 48.4736 128.025 48.5587C128.103 48.6404 128.196 48.7058 128.304 48.7549C128.415 48.8007 128.54 48.8236 128.677 48.8236C128.814 48.8236 128.939 48.8007 129.05 48.7549C129.161 48.7058 129.256 48.6404 129.334 48.5587C129.413 48.4736 129.473 48.3739 129.516 48.2594C129.558 48.1417 129.58 48.0158 129.58 47.8817C129.58 47.7444 129.558 47.6185 129.516 47.504C129.473 47.3895 129.413 47.2914 129.334 47.2097C129.256 47.1246 129.161 47.0592 129.05 47.0134C128.939 46.9677 128.814 46.9448 128.677 46.9448Z" fill="#0B0C0C"/>
<path d="M105.211 208.55H374.788" stroke="#CECECE" stroke-width="0.837195" stroke-miterlimit="10"/>
<path d="M105.211 154.97H374.788" stroke="#CECECE" stroke-width="0.837195" stroke-miterlimit="10"/>
<path d="M105.211 101.389H374.788" stroke="#CECECE" stroke-width="0.837195" stroke-miterlimit="10"/>
<path d="M105.211 51.1575H374.788" stroke="#CECECE" stroke-width="0.837195" stroke-miterlimit="10"/>
<path d="M326.547 275.325C326.547 275.851 326.481 276.332 326.35 276.767C326.22 277.199 326.02 277.568 325.752 277.876C325.484 278.183 325.147 278.422 324.741 278.592C324.339 278.759 323.865 278.842 323.319 278.842H321.062V271.808H323.319C323.865 271.808 324.339 271.893 324.741 272.063C325.147 272.229 325.484 272.467 325.752 272.774C326.02 273.081 326.22 273.453 326.35 273.887C326.481 274.319 326.547 274.798 326.547 275.325ZM325.619 275.187C325.619 274.821 325.574 274.478 325.482 274.157C325.391 273.837 325.25 273.559 325.06 273.323C324.874 273.085 324.633 272.897 324.339 272.759C324.048 272.622 323.701 272.553 323.299 272.553H321.926V278.096H323.299C323.701 278.096 324.048 278.029 324.339 277.895C324.633 277.758 324.874 277.571 325.06 277.336C325.25 277.097 325.391 276.818 325.482 276.497C325.574 276.177 325.619 275.833 325.619 275.467V275.187ZM330.677 278.342C330.53 278.512 330.33 278.654 330.079 278.768C329.83 278.883 329.537 278.94 329.2 278.94C328.952 278.94 328.721 278.906 328.509 278.837C328.296 278.765 328.111 278.664 327.954 278.533C327.797 278.402 327.675 278.244 327.587 278.057C327.498 277.871 327.454 277.66 327.454 277.424C327.454 277.228 327.485 277.05 327.547 276.89C327.613 276.726 327.703 276.584 327.817 276.463C327.935 276.342 328.075 276.244 328.239 276.169C328.402 276.09 328.586 276.036 328.788 276.007L330.559 275.766V275.447C330.559 275.258 330.53 275.099 330.471 274.972C330.412 274.841 330.332 274.738 330.231 274.663C330.132 274.587 330.015 274.533 329.877 274.501C329.743 274.468 329.598 274.452 329.441 274.452C329.16 274.452 328.896 274.491 328.651 274.569C328.409 274.648 328.19 274.739 327.994 274.844L327.685 274.192C327.972 274.028 328.273 273.91 328.587 273.838C328.904 273.766 329.217 273.731 329.524 273.731C330.136 273.731 330.598 273.869 330.912 274.147C331.226 274.422 331.383 274.824 331.383 275.354V277.665C331.383 277.831 331.416 277.972 331.481 278.087C331.547 278.198 331.652 278.286 331.795 278.351L331.329 278.94C331.172 278.901 331.037 278.832 330.922 278.734C330.811 278.633 330.733 278.512 330.687 278.371L330.677 278.342ZM329.21 276.61C329.073 276.63 328.947 276.657 328.833 276.693C328.721 276.729 328.626 276.778 328.548 276.841C328.47 276.899 328.407 276.973 328.362 277.061C328.319 277.15 328.298 277.258 328.298 277.385C328.298 277.532 328.326 277.663 328.381 277.777C328.437 277.892 328.512 277.988 328.607 278.067C328.702 278.145 328.811 278.206 328.936 278.248C329.063 278.288 329.196 278.307 329.333 278.307C329.487 278.307 329.637 278.286 329.784 278.244C329.931 278.201 330.062 278.141 330.177 278.062C330.291 277.98 330.383 277.882 330.451 277.768C330.523 277.653 330.559 277.522 330.559 277.375V276.409L329.21 276.61ZM334.175 277.596C334.175 277.681 334.179 277.761 334.189 277.836C334.202 277.908 334.23 277.972 334.273 278.028C334.318 278.083 334.384 278.127 334.469 278.16C334.554 278.193 334.67 278.209 334.817 278.209C334.856 278.209 334.902 278.208 334.955 278.204C335.01 278.201 335.067 278.198 335.126 278.194C335.185 278.188 335.242 278.181 335.298 278.175C335.353 278.165 335.401 278.157 335.44 278.15L335.528 278.871C335.434 278.884 335.336 278.896 335.234 278.906C335.149 278.916 335.054 278.924 334.95 278.93C334.845 278.937 334.74 278.94 334.636 278.94C334.436 278.94 334.256 278.919 334.096 278.876C333.939 278.837 333.805 278.772 333.694 278.68C333.583 278.589 333.498 278.469 333.439 278.322C333.38 278.172 333.35 277.99 333.35 277.777V274.555H332.404V273.829H333.35V272.19L334.175 271.901V273.829H335.568V274.555H334.175V277.596ZM339.438 278.342C339.291 278.512 339.091 278.654 338.84 278.768C338.591 278.883 338.298 278.94 337.962 278.94C337.713 278.94 337.482 278.906 337.27 278.837C337.057 278.765 336.873 278.664 336.716 278.533C336.559 278.402 336.436 278.244 336.348 278.057C336.259 277.871 336.215 277.66 336.215 277.424C336.215 277.228 336.246 277.05 336.308 276.89C336.374 276.726 336.464 276.584 336.578 276.463C336.696 276.342 336.837 276.244 337 276.169C337.164 276.09 337.347 276.036 337.549 276.007L339.32 275.766V275.447C339.32 275.258 339.291 275.099 339.232 274.972C339.173 274.841 339.093 274.738 338.992 274.663C338.894 274.587 338.776 274.533 338.638 274.501C338.504 274.468 338.359 274.452 338.202 274.452C337.921 274.452 337.657 274.491 337.412 274.569C337.17 274.648 336.951 274.739 336.755 274.844L336.446 274.192C336.734 274.028 337.034 273.91 337.348 273.838C337.666 273.766 337.978 273.731 338.285 273.731C338.897 273.731 339.36 273.869 339.674 274.147C339.987 274.422 340.144 274.824 340.144 275.354V277.665C340.144 277.831 340.177 277.972 340.243 278.087C340.308 278.198 340.413 278.286 340.557 278.351L340.091 278.94C339.934 278.901 339.798 278.832 339.683 278.734C339.572 278.633 339.494 278.512 339.448 278.371L339.438 278.342ZM337.971 276.61C337.834 276.63 337.708 276.657 337.594 276.693C337.482 276.729 337.388 276.778 337.309 276.841C337.231 276.899 337.169 276.973 337.123 277.061C337.08 277.15 337.059 277.258 337.059 277.385C337.059 277.532 337.087 277.663 337.142 277.777C337.198 277.892 337.273 277.988 337.368 278.067C337.463 278.145 337.572 278.206 337.697 278.248C337.824 278.288 337.957 278.307 338.094 278.307C338.248 278.307 338.398 278.286 338.545 278.244C338.692 278.201 338.823 278.141 338.938 278.062C339.052 277.98 339.144 277.882 339.212 277.768C339.284 277.653 339.32 277.522 339.32 277.375V276.409L337.971 276.61ZM343.618 271.808H344.442V277.719C344.442 277.8 344.448 277.872 344.461 277.934C344.478 277.997 344.504 278.049 344.54 278.091C344.576 278.134 344.625 278.167 344.687 278.19C344.752 278.209 344.832 278.219 344.927 278.219C345.032 278.219 345.127 278.216 345.212 278.209C345.297 278.203 345.372 278.196 345.437 278.19L345.521 278.881C345.426 278.891 345.331 278.901 345.236 278.911C345.155 278.917 345.065 278.924 344.967 278.93C344.868 278.937 344.775 278.94 344.687 278.94C344.54 278.94 344.401 278.922 344.27 278.886C344.139 278.853 344.025 278.798 343.927 278.719C343.832 278.641 343.757 278.539 343.701 278.415C343.645 278.291 343.618 278.139 343.618 277.959V271.808ZM349.161 278.342C349.014 278.512 348.814 278.654 348.562 278.768C348.314 278.883 348.021 278.94 347.684 278.94C347.436 278.94 347.205 278.906 346.992 278.837C346.78 278.765 346.595 278.664 346.438 278.533C346.281 278.402 346.159 278.244 346.07 278.057C345.982 277.871 345.938 277.66 345.938 277.424C345.938 277.228 345.969 277.05 346.031 276.89C346.096 276.726 346.186 276.584 346.301 276.463C346.419 276.342 346.559 276.244 346.723 276.169C346.886 276.09 347.069 276.036 347.272 276.007L349.043 275.766V275.447C349.043 275.258 349.014 275.099 348.955 274.972C348.896 274.841 348.816 274.738 348.714 274.663C348.616 274.587 348.498 274.533 348.361 274.501C348.227 274.468 348.081 274.452 347.924 274.452C347.643 274.452 347.38 274.491 347.135 274.569C346.893 274.648 346.674 274.739 346.477 274.844L346.168 274.192C346.456 274.028 346.757 273.91 347.071 273.838C347.388 273.766 347.7 273.731 348.008 273.731C348.619 273.731 349.082 273.869 349.396 274.147C349.71 274.422 349.867 274.824 349.867 275.354V277.665C349.867 277.831 349.9 277.972 349.965 278.087C350.031 278.198 350.135 278.286 350.279 278.351L349.813 278.94C349.656 278.901 349.52 278.832 349.406 278.734C349.295 278.633 349.216 278.512 349.17 278.371L349.161 278.342ZM347.694 276.61C347.557 276.63 347.431 276.657 347.316 276.693C347.205 276.729 347.11 276.778 347.032 276.841C346.953 276.899 346.891 276.973 346.845 277.061C346.803 277.15 346.782 277.258 346.782 277.385C346.782 277.532 346.809 277.663 346.865 277.777C346.921 277.892 346.996 277.988 347.091 278.067C347.185 278.145 347.295 278.206 347.419 278.248C347.547 278.288 347.679 278.307 347.817 278.307C347.97 278.307 348.121 278.286 348.268 278.244C348.415 278.201 348.546 278.141 348.66 278.062C348.775 277.98 348.866 277.882 348.935 277.768C349.007 277.653 349.043 277.522 349.043 277.375V276.409L347.694 276.61ZM352.187 278.842H351.363V271.808H352.187V274.403C352.334 274.197 352.534 274.033 352.786 273.912C353.038 273.791 353.327 273.731 353.654 273.731C353.978 273.731 354.271 273.796 354.532 273.927C354.794 274.054 355.018 274.234 355.204 274.466C355.391 274.699 355.533 274.975 355.631 275.295C355.732 275.613 355.783 275.961 355.783 276.34C355.783 276.72 355.732 277.068 355.631 277.385C355.533 277.702 355.391 277.977 355.204 278.209C355.018 278.438 354.794 278.618 354.532 278.749C354.271 278.876 353.978 278.94 353.654 278.94C353.327 278.94 353.038 278.88 352.786 278.759C352.534 278.638 352.334 278.474 352.187 278.268V278.842ZM354.929 276.311C354.929 276.049 354.898 275.806 354.836 275.58C354.774 275.354 354.683 275.16 354.562 274.996C354.441 274.829 354.29 274.699 354.11 274.604C353.934 274.509 353.731 274.461 353.502 274.461C353.283 274.461 353.09 274.499 352.923 274.574C352.76 274.649 352.622 274.752 352.511 274.883C352.4 275.014 352.315 275.169 352.256 275.349C352.2 275.526 352.173 275.719 352.173 275.928V276.742C352.173 276.952 352.2 277.146 352.256 277.326C352.315 277.503 352.4 277.656 352.511 277.787C352.622 277.918 352.76 278.021 352.923 278.096C353.09 278.172 353.283 278.209 353.502 278.209C353.731 278.209 353.934 278.162 354.11 278.067C354.29 277.972 354.441 277.843 354.562 277.679C354.683 277.513 354.774 277.316 354.836 277.091C354.898 276.865 354.929 276.621 354.929 276.36V276.311ZM357.564 276.59C357.58 276.826 357.627 277.043 357.706 277.243C357.784 277.442 357.891 277.616 358.025 277.763C358.162 277.907 358.322 278.02 358.506 278.101C358.692 278.18 358.898 278.219 359.124 278.219C359.402 278.219 359.645 278.173 359.855 278.082C360.067 277.987 360.262 277.869 360.438 277.728L360.86 278.322C360.634 278.502 360.373 278.651 360.075 278.768C359.781 278.883 359.451 278.94 359.084 278.94C358.721 278.94 358.393 278.876 358.098 278.749C357.804 278.618 357.552 278.438 357.343 278.209C357.137 277.977 356.978 277.702 356.867 277.385C356.756 277.065 356.7 276.716 356.7 276.34C356.7 275.958 356.754 275.608 356.862 275.29C356.973 274.97 357.129 274.695 357.328 274.466C357.528 274.234 357.766 274.054 358.044 273.927C358.322 273.796 358.631 273.731 358.972 273.731C359.302 273.731 359.599 273.796 359.864 273.927C360.129 274.054 360.355 274.234 360.541 274.466C360.728 274.695 360.87 274.97 360.968 275.29C361.069 275.608 361.12 275.954 361.12 276.33V276.59H357.564ZM358.942 274.452C358.733 274.452 358.546 274.492 358.383 274.574C358.219 274.656 358.079 274.766 357.961 274.903C357.847 275.04 357.755 275.199 357.686 275.379C357.621 275.555 357.583 275.738 357.573 275.928H360.227C360.221 275.735 360.186 275.55 360.124 275.374C360.065 275.194 359.98 275.037 359.869 274.903C359.761 274.766 359.629 274.656 359.472 274.574C359.318 274.492 359.142 274.452 358.942 274.452ZM362.239 271.808H363.063V277.719C363.063 277.8 363.069 277.872 363.082 277.934C363.099 277.997 363.125 278.049 363.161 278.091C363.197 278.134 363.246 278.167 363.308 278.19C363.373 278.209 363.453 278.219 363.548 278.219C363.653 278.219 363.748 278.216 363.833 278.209C363.918 278.203 363.993 278.196 364.058 278.19L364.142 278.881C364.047 278.891 363.952 278.901 363.857 278.911C363.776 278.917 363.686 278.924 363.588 278.93C363.489 278.937 363.396 278.94 363.308 278.94C363.161 278.94 363.022 278.922 362.891 278.886C362.76 278.853 362.646 278.798 362.548 278.719C362.453 278.641 362.378 278.539 362.322 278.415C362.266 278.291 362.239 278.139 362.239 277.959V271.808Z" fill="#0B0C0C"/>
<path d="M263.757 275.311C263.757 275.837 263.691 276.318 263.561 276.753C263.43 277.184 263.23 277.554 262.962 277.861C262.694 278.169 262.357 278.408 261.952 278.578C261.549 278.744 261.075 278.828 260.529 278.828H258.273V271.793H260.529C261.075 271.793 261.549 271.878 261.952 272.048C262.357 272.215 262.694 272.452 262.962 272.76C263.23 273.067 263.43 273.438 263.561 273.873C263.691 274.305 263.757 274.784 263.757 275.311ZM262.83 275.173C262.83 274.807 262.784 274.464 262.692 274.143C262.601 273.823 262.46 273.545 262.27 273.309C262.084 273.07 261.844 272.882 261.549 272.745C261.258 272.608 260.912 272.539 260.509 272.539H259.136V278.082H260.509C260.912 278.082 261.258 278.015 261.549 277.881C261.844 277.744 262.084 277.557 262.27 277.322C262.46 277.083 262.601 276.803 262.692 276.483C262.784 276.162 262.83 275.819 262.83 275.453V275.173ZM267.887 278.327C267.74 278.497 267.541 278.64 267.289 278.754C267.04 278.869 266.748 278.926 266.411 278.926C266.162 278.926 265.932 278.892 265.719 278.823C265.506 278.751 265.322 278.65 265.165 278.519C265.008 278.388 264.885 278.229 264.797 278.043C264.708 277.856 264.664 277.646 264.664 277.41C264.664 277.214 264.695 277.036 264.758 276.875C264.823 276.712 264.913 276.57 265.027 276.449C265.145 276.328 265.286 276.23 265.449 276.154C265.613 276.076 265.796 276.022 265.999 275.992L267.769 275.752V275.433C267.769 275.244 267.74 275.085 267.681 274.957C267.622 274.827 267.542 274.724 267.441 274.648C267.343 274.573 267.225 274.519 267.088 274.486C266.954 274.454 266.808 274.437 266.651 274.437C266.37 274.437 266.107 274.477 265.861 274.555C265.619 274.634 265.4 274.725 265.204 274.83L264.895 274.177C265.183 274.014 265.484 273.896 265.797 273.824C266.115 273.752 266.427 273.716 266.734 273.716C267.346 273.716 267.809 273.855 268.123 274.133C268.437 274.408 268.594 274.81 268.594 275.34V277.65C268.594 277.817 268.626 277.958 268.692 278.072C268.757 278.184 268.862 278.272 269.006 278.337L268.54 278.926C268.383 278.887 268.247 278.818 268.132 278.72C268.021 278.618 267.943 278.497 267.897 278.357L267.887 278.327ZM266.42 276.596C266.283 276.615 266.157 276.643 266.043 276.679C265.932 276.715 265.837 276.764 265.758 276.826C265.68 276.885 265.618 276.959 265.572 277.047C265.529 277.135 265.508 277.243 265.508 277.371C265.508 277.518 265.536 277.649 265.591 277.763C265.647 277.878 265.722 277.974 265.817 278.053C265.912 278.131 266.022 278.192 266.146 278.234C266.273 278.273 266.406 278.293 266.543 278.293C266.697 278.293 266.847 278.272 266.994 278.229C267.142 278.187 267.272 278.126 267.387 278.048C267.501 277.966 267.593 277.868 267.662 277.753C267.734 277.639 267.769 277.508 267.769 277.361V276.395L266.42 276.596ZM271.385 277.582C271.385 277.667 271.39 277.747 271.4 277.822C271.413 277.894 271.44 277.958 271.483 278.013C271.529 278.069 271.594 278.113 271.679 278.146C271.764 278.179 271.88 278.195 272.027 278.195C272.067 278.195 272.112 278.193 272.165 278.19C272.22 278.187 272.278 278.184 272.336 278.18C272.395 278.174 272.453 278.167 272.508 278.161C272.564 278.151 272.611 278.143 272.65 278.136L272.739 278.857C272.644 278.87 272.546 278.882 272.444 278.892C272.359 278.901 272.264 278.91 272.16 278.916C272.055 278.923 271.951 278.926 271.846 278.926C271.646 278.926 271.467 278.905 271.306 278.862C271.149 278.823 271.015 278.757 270.904 278.666C270.793 278.574 270.708 278.455 270.649 278.308C270.59 278.157 270.561 277.976 270.561 277.763V274.54H269.614V273.814H270.561V272.176L271.385 271.887V273.814H272.778V274.54H271.385V277.582ZM276.648 278.327C276.501 278.497 276.302 278.64 276.05 278.754C275.801 278.869 275.509 278.926 275.172 278.926C274.923 278.926 274.693 278.892 274.48 278.823C274.268 278.751 274.083 278.65 273.926 278.519C273.769 278.388 273.646 278.229 273.558 278.043C273.47 277.856 273.425 277.646 273.425 277.41C273.425 277.214 273.457 277.036 273.519 276.875C273.584 276.712 273.674 276.57 273.788 276.449C273.906 276.328 274.047 276.23 274.21 276.154C274.374 276.076 274.557 276.022 274.76 275.992L276.531 275.752V275.433C276.531 275.244 276.501 275.085 276.442 274.957C276.383 274.827 276.303 274.724 276.202 274.648C276.104 274.573 275.986 274.519 275.849 274.486C275.715 274.454 275.569 274.437 275.412 274.437C275.131 274.437 274.868 274.477 274.622 274.555C274.38 274.634 274.161 274.725 273.965 274.83L273.656 274.177C273.944 274.014 274.245 273.896 274.559 273.824C274.876 273.752 275.188 273.716 275.496 273.716C276.107 273.716 276.57 273.855 276.884 274.133C277.198 274.408 277.355 274.81 277.355 275.34V277.65C277.355 277.817 277.387 277.958 277.453 278.072C277.518 278.184 277.623 278.272 277.767 278.337L277.301 278.926C277.144 278.887 277.008 278.818 276.894 278.72C276.782 278.618 276.704 278.497 276.658 278.357L276.648 278.327ZM275.182 276.596C275.044 276.615 274.918 276.643 274.804 276.679C274.693 276.715 274.598 276.764 274.519 276.826C274.441 276.885 274.379 276.959 274.333 277.047C274.29 277.135 274.269 277.243 274.269 277.371C274.269 277.518 274.297 277.649 274.353 277.763C274.408 277.878 274.483 277.974 274.578 278.053C274.673 278.131 274.783 278.192 274.907 278.234C275.034 278.273 275.167 278.293 275.304 278.293C275.458 278.293 275.608 278.272 275.756 278.229C275.903 278.187 276.034 278.126 276.148 278.048C276.262 277.966 276.354 277.868 276.423 277.753C276.495 277.639 276.531 277.508 276.531 277.361V276.395L275.182 276.596ZM280.828 271.793H281.652V277.704C281.652 277.786 281.658 277.858 281.671 277.92C281.688 277.982 281.714 278.035 281.75 278.077C281.786 278.12 281.835 278.152 281.897 278.175C281.963 278.195 282.043 278.205 282.138 278.205C282.242 278.205 282.337 278.202 282.422 278.195C282.507 278.188 282.582 278.182 282.648 278.175L282.731 278.867C282.636 278.877 282.541 278.887 282.447 278.896C282.365 278.903 282.275 278.91 282.177 278.916C282.079 278.923 281.985 278.926 281.897 278.926C281.75 278.926 281.611 278.908 281.48 278.872C281.349 278.839 281.235 278.784 281.137 278.705C281.042 278.627 280.967 278.525 280.911 278.401C280.856 278.277 280.828 278.125 280.828 277.945V271.793ZM286.371 278.327C286.224 278.497 286.024 278.64 285.772 278.754C285.524 278.869 285.231 278.926 284.894 278.926C284.646 278.926 284.415 278.892 284.203 278.823C283.99 278.751 283.805 278.65 283.648 278.519C283.491 278.388 283.369 278.229 283.28 278.043C283.192 277.856 283.148 277.646 283.148 277.41C283.148 277.214 283.179 277.036 283.241 276.875C283.307 276.712 283.397 276.57 283.511 276.449C283.629 276.328 283.769 276.23 283.933 276.154C284.096 276.076 284.28 276.022 284.482 275.992L286.253 275.752V275.433C286.253 275.244 286.224 275.085 286.165 274.957C286.106 274.827 286.026 274.724 285.925 274.648C285.826 274.573 285.709 274.519 285.571 274.486C285.437 274.454 285.292 274.437 285.135 274.437C284.853 274.437 284.59 274.477 284.345 274.555C284.103 274.634 283.884 274.725 283.688 274.83L283.379 274.177C283.666 274.014 283.967 273.896 284.281 273.824C284.598 273.752 284.911 273.716 285.218 273.716C285.83 273.716 286.292 273.855 286.606 274.133C286.92 274.408 287.077 274.81 287.077 275.34V277.65C287.077 277.817 287.11 277.958 287.175 278.072C287.241 278.184 287.345 278.272 287.489 278.337L287.023 278.926C286.866 278.887 286.731 278.818 286.616 278.72C286.505 278.618 286.427 278.497 286.381 278.357L286.371 278.327ZM284.904 276.596C284.767 276.615 284.641 276.643 284.526 276.679C284.415 276.715 284.32 276.764 284.242 276.826C284.163 276.885 284.101 276.959 284.056 277.047C284.013 277.135 283.992 277.243 283.992 277.371C283.992 277.518 284.02 277.649 284.075 277.763C284.131 277.878 284.206 277.974 284.301 278.053C284.396 278.131 284.505 278.192 284.629 278.234C284.757 278.273 284.889 278.293 285.027 278.293C285.181 278.293 285.331 278.272 285.478 278.229C285.625 278.187 285.756 278.126 285.871 278.048C285.985 277.966 286.077 277.868 286.145 277.753C286.217 277.639 286.253 277.508 286.253 277.361V276.395L284.904 276.596ZM289.398 278.828H288.573V271.793H289.398V274.388C289.545 274.182 289.744 274.019 289.996 273.898C290.248 273.777 290.537 273.716 290.864 273.716C291.188 273.716 291.481 273.782 291.742 273.913C292.004 274.04 292.228 274.22 292.414 274.452C292.601 274.684 292.743 274.961 292.841 275.281C292.943 275.598 292.993 275.947 292.993 276.326C292.993 276.705 292.943 277.054 292.841 277.371C292.743 277.688 292.601 277.963 292.414 278.195C292.228 278.424 292.004 278.604 291.742 278.735C291.481 278.862 291.188 278.926 290.864 278.926C290.537 278.926 290.248 278.865 289.996 278.744C289.744 278.623 289.545 278.46 289.398 278.254V278.828ZM292.14 276.297C292.14 276.035 292.109 275.791 292.047 275.566C291.984 275.34 291.893 275.145 291.772 274.982C291.651 274.815 291.5 274.684 291.321 274.589C291.144 274.495 290.941 274.447 290.712 274.447C290.493 274.447 290.3 274.485 290.133 274.56C289.97 274.635 289.833 274.738 289.721 274.869C289.61 275 289.525 275.155 289.466 275.335C289.411 275.512 289.383 275.705 289.383 275.914V276.728C289.383 276.938 289.411 277.132 289.466 277.312C289.525 277.489 289.61 277.642 289.721 277.773C289.833 277.904 289.97 278.007 290.133 278.082C290.3 278.157 290.493 278.195 290.712 278.195C290.941 278.195 291.144 278.148 291.321 278.053C291.5 277.958 291.651 277.829 291.772 277.665C291.893 277.498 291.984 277.302 292.047 277.077C292.109 276.851 292.14 276.607 292.14 276.346V276.297ZM294.774 276.576C294.79 276.812 294.838 277.029 294.916 277.229C294.995 277.428 295.101 277.601 295.235 277.749C295.372 277.892 295.533 278.005 295.716 278.087C295.902 278.166 296.108 278.205 296.334 278.205C296.612 278.205 296.855 278.159 297.065 278.067C297.277 277.973 297.472 277.855 297.649 277.714L298.07 278.308C297.845 278.488 297.583 278.636 297.286 278.754C296.991 278.869 296.661 278.926 296.295 278.926C295.932 278.926 295.603 278.862 295.309 278.735C295.014 278.604 294.762 278.424 294.553 278.195C294.347 277.963 294.189 277.688 294.077 277.371C293.966 277.05 293.911 276.702 293.911 276.326C293.911 275.943 293.965 275.593 294.072 275.276C294.184 274.956 294.339 274.681 294.538 274.452C294.738 274.22 294.977 274.04 295.255 273.913C295.533 273.782 295.842 273.716 296.182 273.716C296.512 273.716 296.81 273.782 297.075 273.913C297.339 274.04 297.565 274.22 297.752 274.452C297.938 274.681 298.08 274.956 298.178 275.276C298.28 275.593 298.33 275.94 298.33 276.316V276.576H294.774ZM296.152 274.437C295.943 274.437 295.757 274.478 295.593 274.56C295.43 274.642 295.289 274.751 295.171 274.889C295.057 275.026 294.965 275.185 294.897 275.365C294.831 275.541 294.794 275.724 294.784 275.914H297.438C297.431 275.721 297.397 275.536 297.335 275.36C297.276 275.18 297.191 275.023 297.079 274.889C296.972 274.751 296.839 274.642 296.682 274.56C296.528 274.478 296.352 274.437 296.152 274.437ZM299.449 271.793H300.273V277.704C300.273 277.786 300.279 277.858 300.293 277.92C300.309 277.982 300.335 278.035 300.371 278.077C300.407 278.12 300.456 278.152 300.518 278.175C300.584 278.195 300.664 278.205 300.759 278.205C300.863 278.205 300.958 278.202 301.043 278.195C301.128 278.188 301.203 278.182 301.269 278.175L301.352 278.867C301.257 278.877 301.162 278.887 301.068 278.896C300.986 278.903 300.896 278.91 300.798 278.916C300.7 278.923 300.606 278.926 300.518 278.926C300.371 278.926 300.232 278.908 300.101 278.872C299.97 278.839 299.856 278.784 299.758 278.705C299.663 278.627 299.588 278.525 299.532 278.401C299.477 278.277 299.449 278.125 299.449 277.945V271.793Z" fill="#0B0C0C"/>
<path d="M205.153 275.325C205.153 275.851 205.087 276.332 204.957 276.767C204.826 277.199 204.626 277.568 204.358 277.876C204.09 278.183 203.753 278.422 203.348 278.592C202.945 278.759 202.471 278.842 201.925 278.842H199.668V271.808H201.925C202.471 271.808 202.945 271.893 203.348 272.063C203.753 272.23 204.09 272.467 204.358 272.774C204.626 273.081 204.826 273.453 204.957 273.888C205.087 274.319 205.153 274.798 205.153 275.325ZM204.226 275.188C204.226 274.821 204.18 274.478 204.088 274.157C203.997 273.837 203.856 273.559 203.666 273.323C203.48 273.085 203.24 272.897 202.945 272.759C202.654 272.622 202.308 272.553 201.905 272.553H200.532V278.096H201.905C202.308 278.096 202.654 278.029 202.945 277.895C203.24 277.758 203.48 277.572 203.666 277.336C203.856 277.097 203.997 276.818 204.088 276.497C204.18 276.177 204.226 275.833 204.226 275.467V275.188ZM209.283 278.342C209.136 278.512 208.936 278.654 208.685 278.768C208.436 278.883 208.143 278.94 207.807 278.94C207.558 278.94 207.327 278.906 207.115 278.837C206.902 278.765 206.718 278.664 206.561 278.533C206.404 278.402 206.281 278.244 206.193 278.057C206.104 277.871 206.06 277.66 206.06 277.424C206.06 277.228 206.091 277.05 206.153 276.89C206.219 276.726 206.309 276.584 206.423 276.463C206.541 276.342 206.682 276.244 206.845 276.169C207.009 276.09 207.192 276.036 207.395 276.007L209.165 275.766V275.448C209.165 275.258 209.136 275.099 209.077 274.972C209.018 274.841 208.938 274.738 208.837 274.663C208.739 274.587 208.621 274.533 208.484 274.501C208.349 274.468 208.204 274.452 208.047 274.452C207.766 274.452 207.502 274.491 207.257 274.569C207.015 274.648 206.796 274.739 206.6 274.844L206.291 274.192C206.579 274.028 206.879 273.91 207.193 273.839C207.511 273.767 207.823 273.731 208.13 273.731C208.742 273.731 209.205 273.87 209.519 274.148C209.833 274.422 209.99 274.825 209.99 275.354V277.665C209.99 277.832 210.022 277.972 210.088 278.087C210.153 278.198 210.258 278.286 210.402 278.352L209.936 278.94C209.779 278.901 209.643 278.832 209.528 278.734C209.417 278.633 209.339 278.512 209.293 278.371L209.283 278.342ZM207.816 276.61C207.679 276.63 207.553 276.658 207.439 276.693C207.327 276.729 207.233 276.779 207.154 276.841C207.076 276.9 207.014 276.973 206.968 277.061C206.925 277.15 206.904 277.258 206.904 277.385C206.904 277.532 206.932 277.663 206.987 277.778C207.043 277.892 207.118 277.989 207.213 278.067C207.308 278.145 207.417 278.206 207.542 278.249C207.669 278.288 207.802 278.307 207.939 278.307C208.093 278.307 208.243 278.286 208.39 278.244C208.538 278.201 208.668 278.141 208.783 278.062C208.897 277.98 208.989 277.882 209.057 277.768C209.129 277.653 209.165 277.523 209.165 277.375V276.409L207.816 276.61ZM212.781 277.596C212.781 277.681 212.786 277.761 212.795 277.836C212.809 277.908 212.836 277.972 212.879 278.028C212.925 278.083 212.99 278.128 213.075 278.16C213.16 278.193 213.276 278.209 213.423 278.209C213.463 278.209 213.508 278.208 213.561 278.204C213.616 278.201 213.674 278.198 213.732 278.195C213.791 278.188 213.848 278.181 213.904 278.175C213.96 278.165 214.007 278.157 214.046 278.15L214.135 278.872C214.04 278.885 213.942 278.896 213.84 278.906C213.755 278.916 213.66 278.924 213.556 278.93C213.451 278.937 213.346 278.94 213.242 278.94C213.042 278.94 212.862 278.919 212.702 278.876C212.545 278.837 212.411 278.772 212.3 278.68C212.189 278.589 212.104 278.469 212.045 278.322C211.986 278.172 211.957 277.99 211.957 277.778V274.555H211.01V273.829H211.957V272.19L212.781 271.901V273.829H214.174V274.555H212.781V277.596ZM218.044 278.342C217.897 278.512 217.698 278.654 217.446 278.768C217.197 278.883 216.905 278.94 216.568 278.94C216.319 278.94 216.089 278.906 215.876 278.837C215.663 278.765 215.479 278.664 215.322 278.533C215.165 278.402 215.042 278.244 214.954 278.057C214.866 277.871 214.821 277.66 214.821 277.424C214.821 277.228 214.852 277.05 214.915 276.89C214.98 276.726 215.07 276.584 215.184 276.463C215.302 276.342 215.443 276.244 215.606 276.169C215.77 276.09 215.953 276.036 216.156 276.007L217.927 275.766V275.448C217.927 275.258 217.897 275.099 217.838 274.972C217.779 274.841 217.699 274.738 217.598 274.663C217.5 274.587 217.382 274.533 217.245 274.501C217.111 274.468 216.965 274.452 216.808 274.452C216.527 274.452 216.264 274.491 216.018 274.569C215.776 274.648 215.557 274.739 215.361 274.844L215.052 274.192C215.34 274.028 215.641 273.91 215.955 273.839C216.272 273.767 216.584 273.731 216.891 273.731C217.503 273.731 217.966 273.87 218.28 274.148C218.594 274.422 218.751 274.825 218.751 275.354V277.665C218.751 277.832 218.783 277.972 218.849 278.087C218.914 278.198 219.019 278.286 219.163 278.352L218.697 278.94C218.54 278.901 218.404 278.832 218.29 278.734C218.178 278.633 218.1 278.512 218.054 278.371L218.044 278.342ZM216.578 276.61C216.44 276.63 216.314 276.658 216.2 276.693C216.089 276.729 215.994 276.779 215.915 276.841C215.837 276.9 215.775 276.973 215.729 277.061C215.686 277.15 215.665 277.258 215.665 277.385C215.665 277.532 215.693 277.663 215.749 277.778C215.804 277.892 215.879 277.989 215.974 278.067C216.069 278.145 216.179 278.206 216.303 278.249C216.43 278.288 216.563 278.307 216.7 278.307C216.854 278.307 217.004 278.286 217.151 278.244C217.299 278.201 217.429 278.141 217.544 278.062C217.658 277.98 217.75 277.882 217.819 277.768C217.891 277.653 217.927 277.523 217.927 277.375V276.409L216.578 276.61ZM222.224 271.808H223.048V277.719C223.048 277.8 223.054 277.872 223.067 277.935C223.084 277.997 223.11 278.049 223.146 278.092C223.182 278.134 223.231 278.167 223.293 278.19C223.358 278.209 223.439 278.219 223.533 278.219C223.638 278.219 223.733 278.216 223.818 278.209C223.903 278.203 223.978 278.196 224.044 278.19L224.127 278.881C224.032 278.891 223.937 278.901 223.842 278.911C223.761 278.917 223.671 278.924 223.573 278.93C223.475 278.937 223.381 278.94 223.293 278.94C223.146 278.94 223.007 278.922 222.876 278.886C222.745 278.854 222.631 278.798 222.533 278.719C222.438 278.641 222.363 278.54 222.307 278.415C222.251 278.291 222.224 278.139 222.224 277.959V271.808ZM227.767 278.342C227.62 278.512 227.42 278.654 227.168 278.768C226.92 278.883 226.627 278.94 226.29 278.94C226.042 278.94 225.811 278.906 225.599 278.837C225.386 278.765 225.201 278.664 225.044 278.533C224.887 278.402 224.765 278.244 224.676 278.057C224.588 277.871 224.544 277.66 224.544 277.424C224.544 277.228 224.575 277.05 224.637 276.89C224.703 276.726 224.792 276.584 224.907 276.463C225.025 276.342 225.165 276.244 225.329 276.169C225.492 276.09 225.675 276.036 225.878 276.007L227.649 275.766V275.448C227.649 275.258 227.62 275.099 227.561 274.972C227.502 274.841 227.422 274.738 227.32 274.663C227.222 274.587 227.105 274.533 226.967 274.501C226.833 274.468 226.688 274.452 226.531 274.452C226.249 274.452 225.986 274.491 225.741 274.569C225.499 274.648 225.28 274.739 225.084 274.844L224.775 274.192C225.062 274.028 225.363 273.91 225.677 273.839C225.994 273.767 226.307 273.731 226.614 273.731C227.226 273.731 227.688 273.87 228.002 274.148C228.316 274.422 228.473 274.825 228.473 275.354V277.665C228.473 277.832 228.506 277.972 228.571 278.087C228.637 278.198 228.741 278.286 228.885 278.352L228.419 278.94C228.262 278.901 228.127 278.832 228.012 278.734C227.901 278.633 227.822 278.512 227.777 278.371L227.767 278.342ZM226.3 276.61C226.163 276.63 226.037 276.658 225.922 276.693C225.811 276.729 225.716 276.779 225.638 276.841C225.559 276.9 225.497 276.973 225.451 277.061C225.409 277.15 225.388 277.258 225.388 277.385C225.388 277.532 225.415 277.663 225.471 277.778C225.527 277.892 225.602 277.989 225.697 278.067C225.792 278.145 225.901 278.206 226.025 278.249C226.153 278.288 226.285 278.307 226.423 278.307C226.576 278.307 226.727 278.286 226.874 278.244C227.021 278.201 227.152 278.141 227.266 278.062C227.381 277.98 227.473 277.882 227.541 277.768C227.613 277.653 227.649 277.523 227.649 277.375V276.409L226.3 276.61ZM230.793 278.842H229.969V271.808H230.793V274.403C230.941 274.197 231.14 274.033 231.392 273.912C231.644 273.791 231.933 273.731 232.26 273.731C232.584 273.731 232.877 273.796 233.138 273.927C233.4 274.054 233.624 274.234 233.81 274.466C233.997 274.699 234.139 274.975 234.237 275.295C234.338 275.613 234.389 275.961 234.389 276.34C234.389 276.72 234.338 277.068 234.237 277.385C234.139 277.702 233.997 277.977 233.81 278.209C233.624 278.438 233.4 278.618 233.138 278.749C232.877 278.876 232.584 278.94 232.26 278.94C231.933 278.94 231.644 278.88 231.392 278.759C231.14 278.638 230.941 278.474 230.793 278.268V278.842ZM233.536 276.311C233.536 276.049 233.505 275.806 233.442 275.58C233.38 275.354 233.289 275.16 233.168 274.996C233.047 274.829 232.896 274.699 232.716 274.604C232.54 274.509 232.337 274.462 232.108 274.462C231.889 274.462 231.696 274.499 231.529 274.574C231.366 274.65 231.228 274.753 231.117 274.883C231.006 275.014 230.921 275.17 230.862 275.349C230.807 275.526 230.779 275.719 230.779 275.928V276.743C230.779 276.952 230.807 277.146 230.862 277.326C230.921 277.503 231.006 277.657 231.117 277.787C231.228 277.918 231.366 278.021 231.529 278.096C231.696 278.172 231.889 278.209 232.108 278.209C232.337 278.209 232.54 278.162 232.716 278.067C232.896 277.972 233.047 277.843 233.168 277.679C233.289 277.513 233.38 277.316 233.442 277.091C233.505 276.865 233.536 276.622 233.536 276.36V276.311ZM236.17 276.59C236.186 276.826 236.234 277.043 236.312 277.243C236.391 277.442 236.497 277.616 236.631 277.763C236.768 277.907 236.929 278.02 237.112 278.101C237.298 278.18 237.504 278.219 237.73 278.219C238.008 278.219 238.251 278.173 238.461 278.082C238.673 277.987 238.868 277.869 239.044 277.729L239.466 278.322C239.241 278.502 238.979 278.651 238.681 278.768C238.387 278.883 238.057 278.94 237.691 278.94C237.328 278.94 236.999 278.876 236.705 278.749C236.41 278.618 236.158 278.438 235.949 278.209C235.743 277.977 235.584 277.702 235.473 277.385C235.362 277.065 235.306 276.716 235.306 276.34C235.306 275.958 235.36 275.608 235.468 275.291C235.58 274.97 235.735 274.695 235.934 274.466C236.134 274.234 236.373 274.054 236.651 273.927C236.929 273.796 237.238 273.731 237.578 273.731C237.908 273.731 238.206 273.796 238.47 273.927C238.735 274.054 238.961 274.234 239.147 274.466C239.334 274.695 239.476 274.97 239.574 275.291C239.676 275.608 239.726 275.954 239.726 276.33V276.59H236.17ZM237.548 274.452C237.339 274.452 237.153 274.493 236.989 274.574C236.826 274.656 236.685 274.766 236.567 274.903C236.453 275.04 236.361 275.199 236.292 275.379C236.227 275.555 236.189 275.739 236.18 275.928H238.834C238.827 275.735 238.793 275.551 238.73 275.374C238.672 275.194 238.587 275.037 238.475 274.903C238.367 274.766 238.235 274.656 238.078 274.574C237.924 274.493 237.748 274.452 237.548 274.452ZM240.845 271.808H241.669V277.719C241.669 277.8 241.675 277.872 241.688 277.935C241.705 277.997 241.731 278.049 241.767 278.092C241.803 278.134 241.852 278.167 241.914 278.19C241.98 278.209 242.06 278.219 242.154 278.219C242.259 278.219 242.354 278.216 242.439 278.209C242.524 278.203 242.599 278.196 242.665 278.19L242.748 278.881C242.653 278.891 242.558 278.901 242.464 278.911C242.382 278.917 242.292 278.924 242.194 278.93C242.096 278.937 242.002 278.94 241.914 278.94C241.767 278.94 241.628 278.922 241.497 278.886C241.366 278.854 241.252 278.798 241.154 278.719C241.059 278.641 240.984 278.54 240.928 278.415C240.873 278.291 240.845 278.139 240.845 277.959V271.808Z" fill="#0B0C0C"/>
<path d="M149.06 275.325C149.06 275.851 148.995 276.332 148.864 276.767C148.733 277.199 148.534 277.568 148.266 277.876C147.997 278.183 147.661 278.422 147.255 278.592C146.853 278.759 146.379 278.842 145.832 278.842H143.576V271.808H145.832C146.379 271.808 146.853 271.893 147.255 272.063C147.661 272.23 147.997 272.467 148.266 272.774C148.534 273.081 148.733 273.453 148.864 273.888C148.995 274.319 149.06 274.798 149.06 275.325ZM148.133 275.188C148.133 274.821 148.087 274.478 147.996 274.157C147.904 273.837 147.764 273.559 147.574 273.323C147.388 273.085 147.147 272.897 146.853 272.759C146.562 272.622 146.215 272.553 145.813 272.553H144.439V278.096H145.813C146.215 278.096 146.562 278.029 146.853 277.895C147.147 277.758 147.388 277.572 147.574 277.336C147.764 277.097 147.904 276.818 147.996 276.497C148.087 276.177 148.133 275.833 148.133 275.467V275.188ZM153.191 278.342C153.043 278.512 152.844 278.654 152.592 278.768C152.344 278.883 152.051 278.94 151.714 278.94C151.466 278.94 151.235 278.906 151.022 278.837C150.81 278.765 150.625 278.664 150.468 278.533C150.311 278.402 150.189 278.244 150.1 278.057C150.012 277.871 149.968 277.66 149.968 277.424C149.968 277.228 149.999 277.05 150.061 276.89C150.126 276.726 150.216 276.584 150.331 276.463C150.449 276.342 150.589 276.244 150.753 276.169C150.916 276.09 151.099 276.036 151.302 276.007L153.073 275.766V275.448C153.073 275.258 153.043 275.099 152.985 274.972C152.926 274.841 152.846 274.738 152.744 274.663C152.646 274.587 152.528 274.533 152.391 274.501C152.257 274.468 152.111 274.452 151.954 274.452C151.673 274.452 151.41 274.491 151.165 274.569C150.923 274.648 150.704 274.739 150.507 274.844L150.198 274.192C150.486 274.028 150.787 273.91 151.101 273.839C151.418 273.767 151.73 273.731 152.038 273.731C152.649 273.731 153.112 273.87 153.426 274.148C153.74 274.422 153.897 274.825 153.897 275.354V277.665C153.897 277.832 153.93 277.972 153.995 278.087C154.061 278.198 154.165 278.286 154.309 278.352L153.843 278.94C153.686 278.901 153.55 278.832 153.436 278.734C153.325 278.633 153.246 278.512 153.2 278.371L153.191 278.342ZM151.724 276.61C151.587 276.63 151.461 276.658 151.346 276.693C151.235 276.729 151.14 276.779 151.062 276.841C150.983 276.9 150.921 276.973 150.875 277.061C150.833 277.15 150.812 277.258 150.812 277.385C150.812 277.532 150.839 277.663 150.895 277.778C150.95 277.892 151.026 277.989 151.121 278.067C151.215 278.145 151.325 278.206 151.449 278.249C151.577 278.288 151.709 278.307 151.847 278.307C152 278.307 152.151 278.286 152.298 278.244C152.445 278.201 152.576 278.141 152.69 278.062C152.805 277.98 152.896 277.882 152.965 277.768C153.037 277.653 153.073 277.523 153.073 277.375V276.409L151.724 276.61ZM156.688 277.596C156.688 277.681 156.693 277.761 156.703 277.836C156.716 277.908 156.744 277.972 156.786 278.028C156.832 278.083 156.898 278.128 156.983 278.16C157.068 278.193 157.184 278.209 157.331 278.209C157.37 278.209 157.416 278.208 157.468 278.204C157.524 278.201 157.581 278.198 157.64 278.195C157.699 278.188 157.756 278.181 157.812 278.175C157.867 278.165 157.915 278.157 157.954 278.15L158.042 278.872C157.947 278.885 157.849 278.896 157.748 278.906C157.663 278.916 157.568 278.924 157.463 278.93C157.359 278.937 157.254 278.94 157.149 278.94C156.95 278.94 156.77 278.919 156.61 278.876C156.453 278.837 156.319 278.772 156.207 278.68C156.096 278.589 156.011 278.469 155.952 278.322C155.894 278.172 155.864 277.99 155.864 277.778V274.555H154.917V273.829H155.864V272.19L156.688 271.901V273.829H158.081V274.555H156.688V277.596ZM161.952 278.342C161.805 278.512 161.605 278.654 161.353 278.768C161.105 278.883 160.812 278.94 160.475 278.94C160.227 278.94 159.996 278.906 159.784 278.837C159.571 278.765 159.386 278.664 159.229 278.533C159.072 278.402 158.95 278.244 158.861 278.057C158.773 277.871 158.729 277.66 158.729 277.424C158.729 277.228 158.76 277.05 158.822 276.89C158.887 276.726 158.977 276.584 159.092 276.463C159.21 276.342 159.35 276.244 159.514 276.169C159.677 276.09 159.86 276.036 160.063 276.007L161.834 275.766V275.448C161.834 275.258 161.805 275.099 161.746 274.972C161.687 274.841 161.607 274.738 161.505 274.663C161.407 274.587 161.29 274.533 161.152 274.501C161.018 274.468 160.873 274.452 160.716 274.452C160.434 274.452 160.171 274.491 159.926 274.569C159.684 274.648 159.465 274.739 159.268 274.844L158.959 274.192C159.247 274.028 159.548 273.91 159.862 273.839C160.179 273.767 160.492 273.731 160.799 273.731C161.411 273.731 161.873 273.87 162.187 274.148C162.501 274.422 162.658 274.825 162.658 275.354V277.665C162.658 277.832 162.691 277.972 162.756 278.087C162.822 278.198 162.926 278.286 163.07 278.352L162.604 278.94C162.447 278.901 162.311 278.832 162.197 278.734C162.086 278.633 162.007 278.512 161.962 278.371L161.952 278.342ZM160.485 276.61C160.348 276.63 160.222 276.658 160.107 276.693C159.996 276.729 159.901 276.779 159.823 276.841C159.744 276.9 159.682 276.973 159.636 277.061C159.594 277.15 159.573 277.258 159.573 277.385C159.573 277.532 159.6 277.663 159.656 277.778C159.712 277.892 159.787 277.989 159.882 278.067C159.977 278.145 160.086 278.206 160.21 278.249C160.338 278.288 160.47 278.307 160.608 278.307C160.761 278.307 160.912 278.286 161.059 278.244C161.206 278.201 161.337 278.141 161.451 278.062C161.566 277.98 161.657 277.882 161.726 277.768C161.798 277.653 161.834 277.523 161.834 277.375V276.409L160.485 276.61ZM166.131 271.808H166.955V277.719C166.955 277.8 166.962 277.872 166.975 277.935C166.991 277.997 167.017 278.049 167.053 278.092C167.089 278.134 167.138 278.167 167.201 278.19C167.266 278.209 167.346 278.219 167.441 278.219C167.546 278.219 167.64 278.216 167.725 278.209C167.81 278.203 167.886 278.196 167.951 278.19L168.035 278.881C167.94 278.891 167.845 278.901 167.75 278.911C167.668 278.917 167.578 278.924 167.48 278.93C167.382 278.937 167.289 278.94 167.201 278.94C167.053 278.94 166.914 278.922 166.784 278.886C166.653 278.854 166.538 278.798 166.44 278.719C166.345 278.641 166.27 278.54 166.215 278.415C166.159 278.291 166.131 278.139 166.131 277.959V271.808ZM171.674 278.342C171.527 278.512 171.328 278.654 171.076 278.768C170.827 278.883 170.535 278.94 170.198 278.94C169.949 278.94 169.719 278.906 169.506 278.837C169.294 278.765 169.109 278.664 168.952 278.533C168.795 278.402 168.672 278.244 168.584 278.057C168.496 277.871 168.451 277.66 168.451 277.424C168.451 277.228 168.483 277.05 168.545 276.89C168.61 276.726 168.7 276.584 168.814 276.463C168.932 276.342 169.073 276.244 169.236 276.169C169.4 276.09 169.583 276.036 169.786 276.007L171.557 275.766V275.448C171.557 275.258 171.527 275.099 171.468 274.972C171.409 274.841 171.329 274.738 171.228 274.663C171.13 274.587 171.012 274.533 170.875 274.501C170.741 274.468 170.595 274.452 170.438 274.452C170.157 274.452 169.894 274.491 169.648 274.569C169.406 274.648 169.187 274.739 168.991 274.844L168.682 274.192C168.97 274.028 169.271 273.91 169.585 273.839C169.902 273.767 170.214 273.731 170.522 273.731C171.133 273.731 171.596 273.87 171.91 274.148C172.224 274.422 172.381 274.825 172.381 275.354V277.665C172.381 277.832 172.413 277.972 172.479 278.087C172.544 278.198 172.649 278.286 172.793 278.352L172.327 278.94C172.17 278.901 172.034 278.832 171.92 278.734C171.808 278.633 171.73 278.512 171.684 278.371L171.674 278.342ZM170.208 276.61C170.07 276.63 169.944 276.658 169.83 276.693C169.719 276.729 169.624 276.779 169.545 276.841C169.467 276.9 169.405 276.973 169.359 277.061C169.316 277.15 169.295 277.258 169.295 277.385C169.295 277.532 169.323 277.663 169.379 277.778C169.434 277.892 169.509 277.989 169.604 278.067C169.699 278.145 169.809 278.206 169.933 278.249C170.06 278.288 170.193 278.307 170.33 278.307C170.484 278.307 170.634 278.286 170.782 278.244C170.929 278.201 171.06 278.141 171.174 278.062C171.288 277.98 171.38 277.882 171.449 277.768C171.521 277.653 171.557 277.523 171.557 277.375V276.409L170.208 276.61ZM174.701 278.842H173.877V271.808H174.701V274.403C174.848 274.197 175.048 274.033 175.299 273.912C175.551 273.791 175.841 273.731 176.168 273.731C176.491 273.731 176.784 273.796 177.046 273.927C177.307 274.054 177.531 274.234 177.718 274.466C177.904 274.699 178.047 274.975 178.145 275.295C178.246 275.613 178.297 275.961 178.297 276.34C178.297 276.72 178.246 277.068 178.145 277.385C178.047 277.702 177.904 277.977 177.718 278.209C177.531 278.438 177.307 278.618 177.046 278.749C176.784 278.876 176.491 278.94 176.168 278.94C175.841 278.94 175.551 278.88 175.299 278.759C175.048 278.638 174.848 278.474 174.701 278.268V278.842ZM177.443 276.311C177.443 276.049 177.412 275.806 177.35 275.58C177.288 275.354 177.196 275.16 177.075 274.996C176.954 274.829 176.804 274.699 176.624 274.604C176.447 274.509 176.245 274.462 176.016 274.462C175.797 274.462 175.604 274.499 175.437 274.574C175.273 274.65 175.136 274.753 175.025 274.883C174.914 275.014 174.829 275.17 174.77 275.349C174.714 275.526 174.686 275.719 174.686 275.928V276.743C174.686 276.952 174.714 277.146 174.77 277.326C174.829 277.503 174.914 277.657 175.025 277.787C175.136 277.918 175.273 278.021 175.437 278.096C175.604 278.172 175.797 278.209 176.016 278.209C176.245 278.209 176.447 278.162 176.624 278.067C176.804 277.972 176.954 277.843 177.075 277.679C177.196 277.513 177.288 277.316 177.35 277.091C177.412 276.865 177.443 276.622 177.443 276.36V276.311ZM180.077 276.59C180.094 276.826 180.141 277.043 180.22 277.243C180.298 277.442 180.404 277.616 180.538 277.763C180.676 277.907 180.836 278.02 181.019 278.101C181.206 278.18 181.412 278.219 181.637 278.219C181.915 278.219 182.159 278.173 182.368 278.082C182.581 277.987 182.775 277.869 182.952 277.729L183.374 278.322C183.148 278.502 182.887 278.651 182.589 278.768C182.295 278.883 181.964 278.94 181.598 278.94C181.235 278.94 180.906 278.876 180.612 278.749C180.318 278.618 180.066 278.438 179.857 278.209C179.651 277.977 179.492 277.702 179.381 277.385C179.27 277.065 179.214 276.716 179.214 276.34C179.214 275.958 179.268 275.608 179.376 275.291C179.487 274.97 179.642 274.695 179.842 274.466C180.041 274.234 180.28 274.054 180.558 273.927C180.836 273.796 181.145 273.731 181.485 273.731C181.816 273.731 182.113 273.796 182.378 273.927C182.643 274.054 182.869 274.234 183.055 274.466C183.241 274.695 183.384 274.97 183.482 275.291C183.583 275.608 183.634 275.954 183.634 276.33V276.59H180.077ZM181.456 274.452C181.246 274.452 181.06 274.493 180.897 274.574C180.733 274.656 180.592 274.766 180.475 274.903C180.36 275.04 180.269 275.199 180.2 275.379C180.135 275.555 180.097 275.739 180.087 275.928H182.741C182.734 275.735 182.7 275.551 182.638 275.374C182.579 275.194 182.494 275.037 182.383 274.903C182.275 274.766 182.143 274.656 181.986 274.574C181.832 274.493 181.655 274.452 181.456 274.452ZM184.752 271.808H185.576V277.719C185.576 277.8 185.583 277.872 185.596 277.935C185.612 277.997 185.638 278.049 185.674 278.092C185.71 278.134 185.759 278.167 185.822 278.19C185.887 278.209 185.967 278.219 186.062 278.219C186.167 278.219 186.261 278.216 186.347 278.209C186.432 278.203 186.507 278.196 186.572 278.19L186.656 278.881C186.561 278.891 186.466 278.901 186.371 278.911C186.289 278.917 186.199 278.924 186.101 278.93C186.003 278.937 185.91 278.94 185.822 278.94C185.674 278.94 185.535 278.922 185.405 278.886C185.274 278.854 185.159 278.798 185.061 278.719C184.966 278.641 184.891 278.54 184.836 278.415C184.78 278.291 184.752 278.139 184.752 277.959V271.808Z" fill="#0B0C0C"/>
<path d="M260.087 95.8366C260.087 93.9871 261.586 92.4878 263.436 92.4878L295.578 92.4878C297.427 92.4878 298.927 93.9871 298.927 95.8366L298.926 126.939H260.087L260.087 95.8366Z" fill="#1D70B8"/>
<path d="M260.087 126.939H298.926L298.927 143.016H260.087V126.939Z" fill="#1D70B8"/>
<path d="M260.087 143.016H298.927V156.031H260.087V143.016Z" fill="#1D70B8"/>
<path d="M260.087 156.031H298.927L298.926 188.95H260.087V156.031Z" fill="#1D70B8"/>
<path d="M260.087 188.954H298.927L298.926 260.154H260.087L260.087 188.954Z" fill="#1D70B8"/>
<path d="M201.879 119.227C201.879 117.378 203.378 115.879 205.228 115.879L237.37 115.879C239.219 115.879 240.719 117.378 240.719 119.227L240.719 136.459H201.879L201.879 119.227Z" fill="#1D70B8"/>
<path d="M201.879 135.945L240.719 135.945L240.719 167.844L201.879 167.844L201.879 135.945Z" fill="#1D70B8"/>
<path d="M201.879 167.844L240.719 167.844L240.719 182.25H201.879L201.879 167.844Z" fill="#1D70B8"/>
<path d="M201.879 182.25H240.719L240.719 231.129H201.879L201.879 182.25Z" fill="#1D70B8"/>
<path d="M201.879 231.129H240.719L240.719 260.456H201.879L201.879 231.129Z" fill="#1D70B8"/>
<path d="M145.395 129.763C145.395 127.914 146.894 126.415 148.743 126.415H180.885C182.735 126.415 184.234 127.914 184.234 129.763L184.234 160.956L145.395 160.956L145.395 129.763Z" fill="#1D70B8"/>
<path d="M145.395 160.956L184.234 160.956L184.234 174.876H145.395L145.395 160.956Z" fill="#1D70B8"/>
<path d="M145.395 174.876H184.234V185.702L145.395 185.702L145.395 174.876Z" fill="#1D70B8"/>
<path d="M145.395 249.114L184.234 249.114L184.234 260.456H145.395L145.395 249.114Z" fill="#1D70B8"/>
<path d="M145.395 185.702L184.234 185.702L184.234 249.114L145.395 249.114L145.395 185.702Z" fill="#1D70B8"/>
<path d="M322.475 69.1773C322.475 67.3278 323.974 65.8285 325.824 65.8285L357.864 65.8285C359.713 65.8285 361.212 67.3278 361.212 69.1773V85.6529L322.475 85.6529L322.475 69.1773Z" fill="#1D70B8"/>
<path d="M322.491 85.6436L361.314 85.6436V98.8886H322.491V85.6436Z" fill="#1D70B8"/>
<path d="M322.491 98.8886H361.314V114.542H322.491V98.8886Z" fill="#1D70B8"/>
<path d="M322.491 114.542H361.314L361.314 166.318H322.491L322.491 114.542Z" fill="#1D70B8"/>
<path d="M322.491 166.318H361.314L361.314 260.839H322.491L322.491 166.318Z" fill="#1D70B8"/>
<path d="M105.211 260.456H374.788" stroke="#0F385C" stroke-width="0.837195" stroke-miterlimit="10"/>
</g>
<defs>
<clipPath id="clip0_1710_36542">
<rect width="480" height="320" fill="white"/>
</clipPath>
</defs>
</svg>
