<svg width="480" height="320" viewBox="0 0 480 320" fill="none" xmlns="http://www.w3.org/2000/svg">
<g clip-path="url(#clip0_1710_36603)">
<path d="M480 0H0V320H480V0Z" fill="white"/>
<path d="M28.1248 236.85C28.2589 237.187 28.4633 237.463 28.738 237.679C29.0127 237.891 29.3774 237.998 29.8319 237.998C30.0805 237.998 30.2979 237.965 30.4844 237.899C30.674 237.831 30.8326 237.738 30.9602 237.62C31.0877 237.502 31.1826 237.366 31.2447 237.213C31.3101 237.059 31.3428 236.892 31.3428 236.712C31.3428 236.317 31.1875 236.011 30.8768 235.795C30.5694 235.576 30.172 235.466 29.6848 235.466H29.3806V234.711H29.6553C29.9235 234.711 30.1557 234.675 30.3519 234.603C30.5481 234.528 30.7116 234.43 30.8425 234.309C30.9733 234.188 31.0697 234.052 31.1319 233.902C31.1973 233.751 31.23 233.599 31.23 233.445C31.23 233.298 31.1989 233.154 31.1368 233.014C31.0779 232.873 30.9913 232.747 30.8768 232.636C30.7656 232.525 30.6217 232.438 30.4451 232.376C30.2718 232.314 30.0756 232.283 29.8565 232.283C29.4673 232.283 29.137 232.382 28.8656 232.582C28.5941 232.781 28.3946 233.03 28.2671 233.328L27.546 232.974C27.7455 232.513 28.0513 232.157 28.4633 231.905C28.8754 231.653 29.3398 231.527 29.8565 231.527C30.1835 231.527 30.4844 231.575 30.7591 231.67C31.0338 231.761 31.2709 231.894 31.4703 232.067C31.6731 232.237 31.8301 232.438 31.9413 232.67C32.0557 232.899 32.113 233.148 32.113 233.416C32.113 233.632 32.0786 233.828 32.0099 234.005C31.9445 234.181 31.853 234.34 31.7352 234.48C31.6208 234.621 31.4818 234.739 31.3183 234.834C31.158 234.925 30.988 234.989 30.8081 235.025C31.0174 235.058 31.2104 235.125 31.387 235.226C31.5636 235.324 31.7156 235.447 31.8432 235.594C31.9707 235.741 32.0704 235.911 32.1424 236.104C32.2176 236.294 32.2552 236.493 32.2552 236.703C32.2552 237.036 32.1898 237.33 32.059 237.585C31.9282 237.841 31.75 238.055 31.5243 238.228C31.3019 238.401 31.0452 238.532 30.7542 238.621C30.4631 238.706 30.1557 238.748 29.8319 238.748C29.2564 238.748 28.7413 238.616 28.2867 238.351C27.8321 238.083 27.51 237.7 27.3203 237.203L28.1248 236.85ZM35.9 231.527C36.1976 231.527 36.4853 231.57 36.7633 231.655C37.0446 231.737 37.2931 231.858 37.5089 232.018C37.7281 232.175 37.903 232.371 38.0338 232.606C38.1646 232.842 38.23 233.112 38.23 233.416C38.23 233.573 38.2088 233.731 38.1663 233.892C38.127 234.049 38.06 234.199 37.9652 234.343C37.8736 234.484 37.7509 234.611 37.5972 234.726C37.4435 234.84 37.2555 234.933 37.0331 235.005C37.2817 235.074 37.4942 235.172 37.6708 235.3C37.8507 235.424 37.9979 235.566 38.1123 235.726C38.23 235.887 38.3151 236.058 38.3674 236.241C38.423 236.421 38.4508 236.604 38.4508 236.791C38.4508 237.111 38.3788 237.394 38.235 237.639C38.0911 237.885 37.8997 238.089 37.661 238.253C37.4223 238.416 37.1492 238.54 36.8418 238.625C36.5377 238.707 36.2237 238.748 35.9 238.748C35.5762 238.748 35.2606 238.707 34.9532 238.625C34.6458 238.54 34.3727 238.416 34.134 238.253C33.8953 238.089 33.704 237.885 33.5601 237.639C33.4162 237.394 33.3442 237.111 33.3442 236.791C33.3442 236.604 33.3704 236.421 33.4227 236.241C33.4783 236.058 33.5633 235.887 33.6778 235.726C33.7955 235.566 33.9427 235.424 34.1193 235.3C34.2992 235.172 34.5134 235.074 34.7619 235.005C34.5395 234.933 34.3515 234.84 34.1978 234.726C34.0473 234.611 33.9247 234.484 33.8299 234.343C33.7383 234.199 33.6713 234.049 33.6287 233.892C33.5895 233.731 33.5699 233.573 33.5699 233.416C33.5699 233.112 33.6353 232.842 33.7661 232.606C33.8969 232.371 34.0702 232.175 34.2861 232.018C34.5019 231.858 34.7488 231.737 35.0268 231.655C35.308 231.57 35.5991 231.527 35.9 231.527ZM34.4332 233.485C34.4332 233.677 34.4741 233.851 34.5559 234.005C34.6376 234.155 34.7455 234.282 34.8796 234.387C35.0137 234.489 35.1691 234.567 35.3456 234.623C35.5222 234.675 35.707 234.701 35.9 234.701C36.0896 234.701 36.2728 234.675 36.4494 234.623C36.626 234.567 36.7813 234.489 36.9154 234.387C37.0527 234.282 37.1623 234.155 37.2441 234.005C37.3258 233.851 37.3667 233.677 37.3667 233.485C37.3667 233.292 37.3258 233.12 37.2441 232.969C37.1623 232.819 37.0527 232.693 36.9154 232.592C36.7813 232.487 36.626 232.409 36.4494 232.356C36.2728 232.301 36.0896 232.273 35.9 232.273C35.707 232.273 35.5222 232.301 35.3456 232.356C35.1691 232.409 35.0137 232.487 34.8796 232.592C34.7455 232.693 34.6376 232.819 34.5559 232.969C34.4741 233.12 34.4332 233.292 34.4332 233.485ZM34.2223 236.722C34.2223 236.941 34.2681 237.131 34.3597 237.291C34.4512 237.451 34.5739 237.585 34.7276 237.693C34.8813 237.798 35.0595 237.877 35.2623 237.929C35.465 237.981 35.6776 238.007 35.9 238.007C36.1191 238.007 36.33 237.981 36.5328 237.929C36.7355 237.877 36.9138 237.798 37.0675 237.693C37.2244 237.585 37.3487 237.451 37.4403 237.291C37.5318 237.131 37.5776 236.941 37.5776 236.722C37.5776 236.503 37.5318 236.313 37.4403 236.153C37.3487 235.993 37.2244 235.86 37.0675 235.756C36.9138 235.648 36.7355 235.568 36.5328 235.515C36.33 235.463 36.1191 235.437 35.9 235.437C35.6776 235.437 35.465 235.463 35.2623 235.515C35.0595 235.568 34.8813 235.648 34.7276 235.756C34.5739 235.86 34.4512 235.993 34.3597 236.153C34.2681 236.313 34.2223 236.503 34.2223 236.722ZM39.167 235.417H41.2763V236.138H39.167V235.417ZM45.4165 236.109V232.361L42.7038 236.109H45.4165ZM45.4165 238.65V236.83H41.8797V235.977L45.0633 231.616H46.2799V236.109H47.4326V236.83H46.2799V238.65H45.4165ZM51.774 236.109V232.361L49.0613 236.109H51.774ZM51.774 238.65V236.83H48.2371V235.977L51.4208 231.616H52.6373V236.109H53.7901V236.83H52.6373V238.65H51.774Z" fill="#0B0C0C"/>
<path d="M31.8383 87.0817C32.0672 87.0817 32.2536 87.0637 32.3975 87.0277C32.5414 86.9885 32.6526 86.928 32.731 86.8462C32.8095 86.7645 32.8619 86.6598 32.888 86.5323C32.9175 86.4015 32.9322 86.2428 32.9322 86.0564V85.9436H33.7661V92.978H32.9027V87.8126H31.5341V87.0817H31.8383ZM39.0345 86.7285H35.3064V85.9436H39.9175V86.7285L37.3029 92.978H36.3414L39.0345 86.7285ZM40.1775 89.7453H42.2868V90.4664H40.1775V89.7453ZM44.2294 92.2226H47.7368V92.978H43.0521V92.1539C43.5001 91.853 43.904 91.5751 44.2637 91.32C44.6235 91.0649 44.9407 90.8245 45.2154 90.5989C45.4901 90.37 45.7256 90.1525 45.9218 89.9465C46.1213 89.7404 46.2848 89.536 46.4123 89.3333C46.5399 89.1305 46.6331 88.9261 46.6919 88.7201C46.7508 88.5141 46.7802 88.2966 46.7802 88.0677C46.7802 87.8715 46.7459 87.685 46.6772 87.5085C46.6118 87.3319 46.5153 87.1782 46.3878 87.0473C46.2635 86.9133 46.1082 86.807 45.9218 86.7285C45.7386 86.65 45.5293 86.6108 45.2939 86.6108C45.1042 86.6108 44.9211 86.6386 44.7445 86.6941C44.5711 86.7465 44.4158 86.8315 44.2785 86.9492C44.1444 87.067 44.0348 87.219 43.9498 87.4054C43.8648 87.5886 43.8173 87.8093 43.8075 88.0677L42.9932 87.9745C43.0063 87.6474 43.0701 87.3531 43.1845 87.0915C43.299 86.8299 43.456 86.6075 43.6555 86.4243C43.8582 86.2412 44.0986 86.1006 44.3766 86.0025C44.6578 85.9044 44.9701 85.8553 45.3135 85.8553C45.6471 85.8553 45.9561 85.9109 46.2406 86.0221C46.5284 86.13 46.777 86.2821 46.9863 86.4783C47.1988 86.6745 47.364 86.9067 47.4817 87.1749C47.6027 87.443 47.6632 87.7357 47.6632 88.053C47.6632 88.429 47.5978 88.7822 47.467 89.1125C47.3394 89.4428 47.1432 89.7682 46.8783 90.0887C46.6134 90.4059 46.2766 90.7264 45.8678 91.0502C45.4623 91.3739 44.9832 91.7157 44.4305 92.0754L44.2294 92.203V92.2226ZM49.4831 91.1777C49.6172 91.5146 49.8216 91.7909 50.0963 92.0067C50.371 92.2193 50.7356 92.3256 51.1902 92.3256C51.4388 92.3256 51.6562 92.2929 51.8426 92.2275C52.0323 92.1588 52.1909 92.0656 52.3185 91.9479C52.446 91.8301 52.5408 91.6944 52.603 91.5407C52.6684 91.387 52.7011 91.2202 52.7011 91.0404C52.7011 90.6447 52.5458 90.3389 52.2351 90.123C51.9277 89.9039 51.5303 89.7944 51.0431 89.7944H50.7389V89.0389H51.0136C51.2818 89.0389 51.514 89.003 51.7102 88.931C51.9064 88.8558 52.0699 88.7577 52.2007 88.6367C52.3315 88.5157 52.428 88.38 52.4902 88.2296C52.5556 88.0791 52.5883 87.927 52.5883 87.7733C52.5883 87.6262 52.5572 87.4823 52.4951 87.3417C52.4362 87.201 52.3495 87.0751 52.2351 86.9639C52.1239 86.8528 51.98 86.7661 51.8034 86.704C51.6301 86.6418 51.4339 86.6108 51.2147 86.6108C50.8256 86.6108 50.4953 86.7105 50.2238 86.91C49.9524 87.1095 49.7529 87.358 49.6254 87.6556L48.9043 87.3024C49.1038 86.8413 49.4095 86.4848 49.8216 86.233C50.2337 85.9812 50.698 85.8553 51.2147 85.8553C51.5418 85.8553 51.8426 85.9027 52.1173 85.9976C52.392 86.0891 52.6291 86.2216 52.8286 86.3949C53.0314 86.565 53.1884 86.7661 53.2996 86.9983C53.414 87.2272 53.4712 87.4757 53.4712 87.7439C53.4712 87.9598 53.4369 88.156 53.3682 88.3326C53.3028 88.5092 53.2113 88.6678 53.0935 88.8084C52.9791 88.949 52.8401 89.0667 52.6766 89.1616C52.5163 89.2532 52.3463 89.3169 52.1664 89.3529C52.3757 89.3856 52.5686 89.4526 52.7452 89.554C52.9218 89.6521 53.0739 89.7748 53.2014 89.9219C53.329 90.0691 53.4287 90.2391 53.5007 90.4321C53.5759 90.6218 53.6135 90.8213 53.6135 91.0306C53.6135 91.3641 53.5481 91.6585 53.4173 91.9135C53.2865 92.1686 53.1082 92.3828 52.8826 92.5561C52.6602 92.7295 52.4035 92.8603 52.1124 92.9486C51.8214 93.0336 51.514 93.0761 51.1902 93.0761C50.6146 93.0761 50.0996 92.9437 49.645 92.6788C49.1904 92.4106 48.8683 92.028 48.6786 91.5309L49.4831 91.1777Z" fill="#0B0C0C"/>
<path d="M28.8459 139.106H32.3533V139.861H27.6686V139.037C28.1167 138.736 28.5205 138.458 28.8803 138.203C29.24 137.948 29.5572 137.707 29.8319 137.482C30.1066 137.253 30.3421 137.035 30.5383 136.829C30.7378 136.623 30.9013 136.419 31.0289 136.216C31.1564 136.013 31.2496 135.809 31.3085 135.603C31.3673 135.397 31.3968 135.18 31.3968 134.951C31.3968 134.754 31.3624 134.568 31.2938 134.391C31.2283 134.215 31.1319 134.061 31.0043 133.93C30.8801 133.796 30.7247 133.69 30.5383 133.611C30.3552 133.533 30.1459 133.494 29.9104 133.494C29.7207 133.494 29.5376 133.521 29.361 133.577C29.1877 133.629 29.0323 133.714 28.895 133.832C28.7609 133.95 28.6514 134.102 28.5663 134.288C28.4813 134.471 28.4339 134.692 28.4241 134.951L27.6098 134.857C27.6228 134.53 27.6866 134.236 27.8011 133.974C27.9155 133.713 28.0725 133.49 28.272 133.307C28.4748 133.124 28.7151 132.984 28.9931 132.885C29.2743 132.787 29.5867 132.738 29.93 132.738C30.2636 132.738 30.5727 132.794 30.8572 132.905C31.145 133.013 31.3935 133.165 31.6028 133.361C31.8154 133.557 31.9805 133.79 32.0982 134.058C32.2192 134.326 32.2797 134.619 32.2797 134.936C32.2797 135.312 32.2143 135.665 32.0835 135.995C31.956 136.326 31.7598 136.651 31.4949 136.972C31.23 137.289 30.8931 137.609 30.4844 137.933C30.0788 138.257 29.5997 138.599 29.0471 138.958L28.8459 139.086V139.106ZM36.9301 137.32V133.572L34.2174 137.32H36.9301ZM36.9301 139.861V138.041H33.3933V137.187L36.5769 132.827H37.7935V137.32H38.9462V138.041H37.7935V139.861H36.9301ZM39.5496 136.628H41.6589V137.349H39.5496V136.628ZM43.1747 138.061C43.3088 138.397 43.5132 138.674 43.7879 138.89C44.0626 139.102 44.4272 139.209 44.8818 139.209C45.1304 139.209 45.3478 139.176 45.5342 139.11C45.7239 139.042 45.8825 138.949 46.0101 138.831C46.1376 138.713 46.2325 138.577 46.2946 138.424C46.36 138.27 46.3927 138.103 46.3927 137.923C46.3927 137.528 46.2374 137.222 45.9267 137.006C45.6193 136.787 45.2219 136.677 44.7347 136.677H44.4305V135.922H44.7052C44.9734 135.922 45.2056 135.886 45.4018 135.814C45.598 135.739 45.7615 135.641 45.8923 135.52C46.0232 135.399 46.1196 135.263 46.1818 135.112C46.2472 134.962 46.2799 134.81 46.2799 134.656C46.2799 134.509 46.2488 134.365 46.1867 134.225C46.1278 134.084 46.0411 133.958 45.9267 133.847C45.8155 133.736 45.6716 133.649 45.495 133.587C45.3217 133.525 45.1255 133.494 44.9063 133.494C44.5172 133.494 44.1869 133.593 43.9154 133.793C43.644 133.992 43.4445 134.241 43.317 134.539L42.5959 134.185C42.7954 133.724 43.1011 133.368 43.5132 133.116C43.9253 132.864 44.3896 132.738 44.9063 132.738C45.2334 132.738 45.5342 132.786 45.8089 132.881C46.0837 132.972 46.3207 133.105 46.5202 133.278C46.723 133.448 46.88 133.649 46.9912 133.881C47.1056 134.11 47.1628 134.359 47.1628 134.627C47.1628 134.843 47.1285 135.039 47.0598 135.215C46.9944 135.392 46.9029 135.551 46.7851 135.691C46.6707 135.832 46.5317 135.95 46.3682 136.045C46.2079 136.136 46.0379 136.2 45.858 136.236C46.0673 136.269 46.2602 136.336 46.4368 136.437C46.6134 136.535 46.7655 136.658 46.8931 136.805C47.0206 136.952 47.1203 137.122 47.1923 137.315C47.2675 137.505 47.3051 137.704 47.3051 137.913C47.3051 138.247 47.2397 138.541 47.1089 138.796C46.9781 139.052 46.7998 139.266 46.5742 139.439C46.3518 139.612 46.0951 139.743 45.804 139.832C45.513 139.917 45.2056 139.959 44.8818 139.959C44.3062 139.959 43.7912 139.827 43.3366 139.562C42.882 139.294 42.5599 138.911 42.3702 138.414L43.1747 138.061ZM51.0381 139.199C51.2671 139.199 51.4796 139.138 51.6759 139.017C51.8753 138.896 52.0454 138.723 52.186 138.497C52.3299 138.268 52.4427 137.989 52.5245 137.658C52.6063 137.325 52.6471 136.947 52.6471 136.525V136.172C52.6471 135.75 52.6063 135.374 52.5245 135.044C52.4427 134.714 52.3299 134.434 52.186 134.205C52.0454 133.976 51.8753 133.803 51.6759 133.685C51.4796 133.564 51.2671 133.503 51.0381 133.503C50.806 133.503 50.5918 133.564 50.3955 133.685C50.1993 133.803 50.0293 133.976 49.8854 134.205C49.7447 134.434 49.6336 134.714 49.5518 135.044C49.47 135.374 49.4292 135.75 49.4292 136.172V136.525C49.4292 136.947 49.47 137.325 49.5518 137.658C49.6336 137.989 49.7447 138.268 49.8854 138.497C50.0293 138.723 50.1993 138.896 50.3955 139.017C50.5918 139.138 50.806 139.199 51.0381 139.199ZM51.0381 132.738C51.339 132.738 51.6104 132.786 51.8525 132.881C52.0945 132.975 52.307 133.106 52.4902 133.273C52.6766 133.436 52.8352 133.633 52.966 133.862C53.1001 134.091 53.2096 134.339 53.2946 134.607C53.3797 134.872 53.4418 135.153 53.4811 135.451C53.5203 135.749 53.5399 136.049 53.5399 136.354C53.5399 136.658 53.5203 136.959 53.4811 137.256C53.4418 137.55 53.3797 137.832 53.2946 138.1C53.2096 138.365 53.1001 138.612 52.966 138.841C52.8352 139.066 52.6766 139.262 52.4902 139.429C52.307 139.596 52.0945 139.727 51.8525 139.822C51.6104 139.913 51.339 139.959 51.0381 139.959C50.7373 139.959 50.4658 139.913 50.2238 139.822C49.9818 139.727 49.7676 139.596 49.5812 139.429C49.3981 139.262 49.2395 139.066 49.1054 138.841C48.9746 138.612 48.8667 138.365 48.7816 138.1C48.6966 137.832 48.6345 137.55 48.5952 137.256C48.556 136.959 48.5364 136.658 48.5364 136.354C48.5364 136.049 48.556 135.749 48.5952 135.451C48.6345 135.153 48.6966 134.872 48.7816 134.607C48.8667 134.339 48.9746 134.091 49.1054 133.862C49.2395 133.633 49.3981 133.436 49.5812 133.273C49.7676 133.106 49.9818 132.975 50.2238 132.881C50.4658 132.786 50.7373 132.738 51.0381 132.738Z" fill="#0B0C0C"/>
<path d="M31.9315 188.292C32.0655 188.629 32.2699 188.906 32.5446 189.121C32.8193 189.334 33.184 189.44 33.6386 189.44C33.8871 189.44 34.1046 189.408 34.291 189.342C34.4807 189.273 34.6393 189.18 34.7668 189.063C34.8943 188.945 34.9892 188.809 35.0513 188.655C35.1167 188.502 35.1494 188.335 35.1494 188.155C35.1494 187.759 34.9941 187.454 34.6834 187.238C34.376 187.019 33.9787 186.909 33.4914 186.909H33.1873V186.154H33.462C33.7301 186.154 33.9623 186.118 34.1585 186.046C34.3547 185.97 34.5183 185.872 34.6491 185.751C34.7799 185.63 34.8764 185.495 34.9385 185.344C35.0039 185.194 35.0366 185.042 35.0366 184.888C35.0366 184.741 35.0055 184.597 34.9434 184.456C34.8845 184.316 34.7979 184.19 34.6834 184.079C34.5722 183.967 34.4283 183.881 34.2517 183.819C34.0784 183.756 33.8822 183.725 33.6631 183.725C33.2739 183.725 32.9436 183.825 32.6722 184.025C32.4007 184.224 32.2013 184.473 32.0737 184.77L31.3526 184.417C31.5521 183.956 31.8579 183.599 32.2699 183.348C32.682 183.096 33.1464 182.97 33.6631 182.97C33.9901 182.97 34.291 183.017 34.5657 183.112C34.8404 183.204 35.0775 183.336 35.277 183.51C35.4797 183.68 35.6367 183.881 35.7479 184.113C35.8624 184.342 35.9196 184.59 35.9196 184.859C35.9196 185.074 35.8852 185.271 35.8166 185.447C35.7512 185.624 35.6596 185.782 35.5419 185.923C35.4274 186.064 35.2884 186.181 35.1249 186.276C34.9647 186.368 34.7946 186.432 34.6147 186.468C34.824 186.5 35.017 186.567 35.1936 186.669C35.3702 186.767 35.5222 186.889 35.6498 187.037C35.7773 187.184 35.8771 187.354 35.949 187.547C36.0242 187.736 36.0618 187.936 36.0618 188.145C36.0618 188.479 35.9964 188.773 35.8656 189.028C35.7348 189.283 35.5566 189.497 35.3309 189.671C35.1085 189.844 34.8518 189.975 34.5608 190.063C34.2697 190.148 33.9623 190.191 33.6386 190.191C33.063 190.191 32.5479 190.058 32.0933 189.793C31.6388 189.525 31.3166 189.143 31.127 188.646L31.9315 188.292ZM37.2539 184.196C37.4828 184.196 37.6692 184.178 37.8131 184.142C37.957 184.103 38.0682 184.043 38.1467 183.961C38.2251 183.879 38.2775 183.774 38.3036 183.647C38.3331 183.516 38.3478 183.357 38.3478 183.171V183.058H39.1817V190.093H38.3183V184.927H36.9497V184.196H37.2539ZM40.5503 186.86H42.6597V187.581H40.5503V186.86ZM44.1754 188.292C44.3095 188.629 44.5139 188.906 44.7886 189.121C45.0633 189.334 45.428 189.44 45.8825 189.44C46.1311 189.44 46.3485 189.408 46.535 189.342C46.7246 189.273 46.8832 189.18 47.0108 189.063C47.1383 188.945 47.2332 188.809 47.2953 188.655C47.3607 188.502 47.3934 188.335 47.3934 188.155C47.3934 187.759 47.2381 187.454 46.9274 187.238C46.62 187.019 46.2226 186.909 45.7354 186.909H45.4312V186.154H45.7059C45.9741 186.154 46.2063 186.118 46.4025 186.046C46.5987 185.97 46.7622 185.872 46.8931 185.751C47.0239 185.63 47.1203 185.495 47.1825 185.344C47.2479 185.194 47.2806 185.042 47.2806 184.888C47.2806 184.741 47.2495 184.597 47.1874 184.456C47.1285 184.316 47.0418 184.19 46.9274 184.079C46.8162 183.967 46.6723 183.881 46.4957 183.819C46.3224 183.756 46.1262 183.725 45.9071 183.725C45.5179 183.725 45.1876 183.825 44.9162 184.025C44.6447 184.224 44.4452 184.473 44.3177 184.77L43.5966 184.417C43.7961 183.956 44.1019 183.599 44.5139 183.348C44.926 183.096 45.3904 182.97 45.9071 182.97C46.2341 182.97 46.535 183.017 46.8097 183.112C47.0844 183.204 47.3215 183.336 47.5209 183.51C47.7237 183.68 47.8807 183.881 47.9919 184.113C48.1063 184.342 48.1636 184.59 48.1636 184.859C48.1636 185.074 48.1292 185.271 48.0605 185.447C47.9951 185.624 47.9036 185.782 47.7858 185.923C47.6714 186.064 47.5324 186.181 47.3689 186.276C47.2086 186.368 47.0386 186.432 46.8587 186.468C47.068 186.5 47.261 186.567 47.4376 186.669C47.6142 186.767 47.7662 186.889 47.8938 187.037C48.0213 187.184 48.121 187.354 48.193 187.547C48.2682 187.736 48.3058 187.936 48.3058 188.145C48.3058 188.479 48.2404 188.773 48.1096 189.028C47.9788 189.283 47.8006 189.497 47.5749 189.671C47.3525 189.844 47.0958 189.975 46.8048 190.063C46.5137 190.148 46.2063 190.191 45.8825 190.191C45.307 190.191 44.7919 190.058 44.3373 189.793C43.8827 189.525 43.5606 189.143 43.3709 188.646L44.1754 188.292ZM52.9856 183.843H49.2575V183.058H53.8686V183.843L51.254 190.093H50.2925L52.9856 183.843Z" fill="#0B0C0C"/>
<path d="M60.0524 279.848C60.2813 279.848 60.4939 279.787 60.6901 279.666C60.8896 279.545 61.0596 279.372 61.2002 279.146C61.3441 278.917 61.457 278.638 61.5387 278.307C61.6205 277.974 61.6613 277.596 61.6613 277.174V276.821C61.6613 276.399 61.6205 276.023 61.5387 275.693C61.457 275.362 61.3441 275.083 61.2002 274.854C61.0596 274.625 60.8896 274.452 60.6901 274.334C60.4939 274.213 60.2813 274.152 60.0524 274.152C59.8202 274.152 59.606 274.213 59.4097 274.334C59.2135 274.452 59.0435 274.625 58.8996 274.854C58.759 275.083 58.6478 275.362 58.566 275.693C58.4843 276.023 58.4434 276.399 58.4434 276.821V277.174C58.4434 277.596 58.4843 277.974 58.566 278.307C58.6478 278.638 58.759 278.917 58.8996 279.146C59.0435 279.372 59.2135 279.545 59.4097 279.666C59.606 279.787 59.8202 279.848 60.0524 279.848ZM60.0524 273.387C60.3532 273.387 60.6247 273.434 60.8667 273.529C61.1087 273.624 61.3212 273.755 61.5044 273.922C61.6908 274.085 61.8494 274.281 61.9802 274.51C62.1143 274.739 62.2238 274.988 62.3089 275.256C62.3939 275.521 62.456 275.802 62.4953 276.1C62.5345 276.397 62.5541 276.698 62.5541 277.002C62.5541 277.307 62.5345 277.607 62.4953 277.905C62.456 278.199 62.3939 278.481 62.3089 278.749C62.2238 279.014 62.1143 279.261 61.9802 279.489C61.8494 279.715 61.6908 279.911 61.5044 280.078C61.3212 280.245 61.1087 280.376 60.8667 280.471C60.6247 280.562 60.3532 280.608 60.0524 280.608C59.7515 280.608 59.4801 280.562 59.2381 280.471C58.9961 280.376 58.7819 280.245 58.5954 280.078C58.4123 279.911 58.2537 279.715 58.1196 279.489C57.9888 279.261 57.8809 279.014 57.7959 278.749C57.7108 278.481 57.6487 278.199 57.6095 277.905C57.5702 277.607 57.5506 277.307 57.5506 277.002C57.5506 276.698 57.5702 276.397 57.6095 276.1C57.6487 275.802 57.7108 275.521 57.7959 275.256C57.8809 274.988 57.9888 274.739 58.1196 274.51C58.2537 274.281 58.4123 274.085 58.5954 273.922C58.7819 273.755 58.9961 273.624 59.2381 273.529C59.4801 273.434 59.7515 273.387 60.0524 273.387Z" fill="#0B0C0C"/>
<path d="M145.607 279.754H149.115V280.51H144.43V279.686C144.878 279.385 145.282 279.107 145.642 278.852C146.001 278.597 146.319 278.356 146.593 278.131C146.868 277.902 147.104 277.684 147.3 277.478C147.499 277.272 147.663 277.068 147.79 276.865C147.918 276.662 148.011 276.458 148.07 276.252C148.129 276.046 148.158 275.828 148.158 275.599C148.158 275.403 148.124 275.217 148.055 275.04C147.99 274.864 147.893 274.71 147.766 274.579C147.641 274.445 147.486 274.339 147.3 274.26C147.117 274.182 146.907 274.142 146.672 274.142C146.482 274.142 146.299 274.17 146.122 274.226C145.949 274.278 145.794 274.363 145.656 274.481C145.522 274.599 145.413 274.751 145.328 274.937C145.243 275.12 145.195 275.341 145.186 275.599L144.371 275.506C144.384 275.179 144.448 274.885 144.563 274.623C144.677 274.362 144.834 274.139 145.033 273.956C145.236 273.773 145.477 273.632 145.755 273.534C146.036 273.436 146.348 273.387 146.691 273.387C147.025 273.387 147.334 273.443 147.619 273.554C147.906 273.662 148.155 273.814 148.364 274.01C148.577 274.206 148.742 274.438 148.86 274.707C148.981 274.975 149.041 275.267 149.041 275.585C149.041 275.961 148.976 276.314 148.845 276.644C148.717 276.975 148.521 277.3 148.256 277.62C147.991 277.938 147.655 278.258 147.246 278.582C146.84 278.906 146.361 279.247 145.808 279.607L145.607 279.735V279.754ZM150.488 276.934L150.856 273.475H154.874V274.231H151.553L151.342 276.232C151.532 276.049 151.759 275.912 152.024 275.82C152.289 275.725 152.56 275.678 152.838 275.678C153.172 275.678 153.479 275.74 153.76 275.864C154.045 275.985 154.29 276.154 154.496 276.37C154.705 276.585 154.867 276.84 154.982 277.135C155.099 277.429 155.158 277.746 155.158 278.086C155.158 278.466 155.096 278.811 154.972 279.122C154.851 279.432 154.679 279.699 154.457 279.921C154.234 280.14 153.97 280.31 153.662 280.431C153.355 280.549 153.016 280.608 152.647 280.608C152.356 280.608 152.079 280.575 151.818 280.51C151.559 280.441 151.325 280.34 151.116 280.206C150.907 280.068 150.727 279.9 150.577 279.7C150.429 279.498 150.325 279.262 150.263 278.994L151.121 278.812C151.157 278.953 151.218 279.087 151.303 279.215C151.388 279.339 151.496 279.45 151.626 279.548C151.757 279.643 151.908 279.718 152.078 279.774C152.248 279.83 152.437 279.857 152.647 279.857C152.898 279.857 153.124 279.815 153.324 279.73C153.523 279.645 153.692 279.527 153.829 279.377C153.966 279.223 154.071 279.041 154.143 278.832C154.218 278.623 154.256 278.396 154.256 278.15C154.256 277.895 154.218 277.663 154.143 277.454C154.071 277.244 153.965 277.064 153.824 276.914C153.687 276.76 153.518 276.643 153.319 276.561C153.119 276.476 152.892 276.433 152.637 276.433C152.516 276.433 152.392 276.448 152.264 276.477C152.14 276.507 152.019 276.548 151.901 276.6C151.787 276.652 151.679 276.716 151.577 276.791C151.476 276.867 151.389 276.95 151.317 277.042L150.488 276.934ZM161.486 273.475H162.291L158.008 280.51H157.204L161.486 273.475ZM157.856 276.693C157.624 276.693 157.407 276.651 157.204 276.566C157.004 276.481 156.828 276.365 156.674 276.217C156.524 276.067 156.404 275.89 156.316 275.688C156.231 275.485 156.188 275.267 156.188 275.035C156.188 274.803 156.231 274.587 156.316 274.388C156.404 274.185 156.524 274.01 156.674 273.863C156.828 273.716 157.004 273.6 157.204 273.515C157.407 273.43 157.624 273.387 157.856 273.387C158.092 273.387 158.311 273.43 158.514 273.515C158.716 273.6 158.893 273.716 159.043 273.863C159.197 274.01 159.316 274.185 159.401 274.388C159.49 274.587 159.534 274.803 159.534 275.035C159.534 275.267 159.49 275.485 159.401 275.688C159.316 275.89 159.197 276.067 159.043 276.217C158.893 276.365 158.716 276.481 158.514 276.566C158.311 276.651 158.092 276.693 157.856 276.693ZM157.856 274.098C157.722 274.098 157.6 274.121 157.488 274.167C157.38 274.213 157.287 274.278 157.209 274.363C157.13 274.445 157.07 274.543 157.027 274.658C156.985 274.772 156.963 274.898 156.963 275.035C156.963 275.169 156.985 275.295 157.027 275.413C157.07 275.527 157.13 275.627 157.209 275.712C157.287 275.794 157.38 275.859 157.488 275.908C157.6 275.954 157.722 275.977 157.856 275.977C157.994 275.977 158.118 275.954 158.229 275.908C158.344 275.859 158.44 275.794 158.518 275.712C158.597 275.627 158.657 275.527 158.7 275.413C158.743 275.295 158.764 275.169 158.764 275.035C158.764 274.898 158.743 274.772 158.7 274.658C158.657 274.543 158.597 274.445 158.518 274.363C158.44 274.278 158.344 274.213 158.229 274.167C158.118 274.121 157.994 274.098 157.856 274.098ZM161.687 280.608C161.455 280.608 161.238 280.565 161.035 280.48C160.832 280.395 160.656 280.279 160.505 280.132C160.355 279.982 160.235 279.807 160.147 279.607C160.062 279.404 160.02 279.187 160.02 278.955C160.02 278.723 160.062 278.507 160.147 278.307C160.235 278.104 160.355 277.929 160.505 277.782C160.656 277.635 160.832 277.519 161.035 277.434C161.238 277.349 161.455 277.306 161.687 277.306C161.92 277.306 162.137 277.349 162.34 277.434C162.546 277.519 162.724 277.635 162.875 277.782C163.028 277.929 163.148 278.104 163.233 278.307C163.321 278.507 163.365 278.723 163.365 278.955C163.365 279.187 163.321 279.404 163.233 279.607C163.148 279.807 163.028 279.982 162.875 280.132C162.724 280.279 162.546 280.395 162.34 280.48C162.137 280.565 161.92 280.608 161.687 280.608ZM161.687 278.018C161.55 278.018 161.426 278.041 161.315 278.086C161.207 278.132 161.113 278.198 161.035 278.283C160.956 278.364 160.896 278.463 160.853 278.577C160.811 278.691 160.79 278.817 160.79 278.955C160.79 279.089 160.811 279.215 160.853 279.332C160.896 279.447 160.956 279.547 161.035 279.632C161.113 279.713 161.207 279.779 161.315 279.828C161.426 279.874 161.55 279.897 161.687 279.897C161.825 279.897 161.949 279.874 162.06 279.828C162.171 279.779 162.266 279.713 162.345 279.632C162.423 279.547 162.484 279.447 162.526 279.332C162.569 279.215 162.59 279.089 162.59 278.955C162.59 278.817 162.569 278.691 162.526 278.577C162.484 278.463 162.423 278.364 162.345 278.283C162.266 278.198 162.171 278.132 162.06 278.086C161.949 278.041 161.825 278.018 161.687 278.018Z" fill="#0B0C0C"/>
<path d="M237.269 276.934L237.637 273.475H241.655V274.231H238.334L238.123 276.232C238.313 276.049 238.54 275.912 238.805 275.82C239.07 275.725 239.341 275.678 239.619 275.678C239.953 275.678 240.26 275.74 240.541 275.864C240.826 275.985 241.071 276.154 241.277 276.37C241.486 276.585 241.648 276.84 241.763 277.135C241.88 277.429 241.939 277.746 241.939 278.086C241.939 278.466 241.877 278.811 241.753 279.121C241.632 279.432 241.46 279.699 241.238 279.921C241.015 280.14 240.751 280.31 240.443 280.431C240.136 280.549 239.797 280.608 239.428 280.608C239.137 280.608 238.86 280.575 238.599 280.51C238.34 280.441 238.107 280.34 237.897 280.206C237.688 280.068 237.508 279.9 237.358 279.7C237.211 279.498 237.106 279.262 237.044 278.994L237.902 278.812C237.938 278.953 237.999 279.087 238.084 279.215C238.169 279.339 238.277 279.45 238.407 279.548C238.538 279.643 238.689 279.718 238.859 279.774C239.029 279.829 239.218 279.857 239.428 279.857C239.68 279.857 239.905 279.815 240.105 279.73C240.304 279.645 240.473 279.527 240.61 279.377C240.747 279.223 240.852 279.041 240.924 278.832C240.999 278.623 241.037 278.395 241.037 278.15C241.037 277.895 240.999 277.663 240.924 277.454C240.852 277.244 240.746 277.064 240.605 276.914C240.468 276.76 240.299 276.643 240.1 276.561C239.9 276.476 239.673 276.433 239.418 276.433C239.297 276.433 239.173 276.448 239.045 276.477C238.921 276.507 238.8 276.548 238.682 276.6C238.568 276.652 238.46 276.716 238.358 276.791C238.257 276.867 238.17 276.95 238.098 277.042L237.269 276.934ZM245.623 279.847C245.852 279.847 246.065 279.787 246.261 279.666C246.461 279.545 246.631 279.372 246.771 279.146C246.915 278.917 247.028 278.637 247.11 278.307C247.191 277.974 247.232 277.596 247.232 277.174V276.821C247.232 276.399 247.191 276.023 247.11 275.693C247.028 275.362 246.915 275.083 246.771 274.854C246.631 274.625 246.461 274.451 246.261 274.334C246.065 274.213 245.852 274.152 245.623 274.152C245.391 274.152 245.177 274.213 244.981 274.334C244.785 274.451 244.614 274.625 244.471 274.854C244.33 275.083 244.219 275.362 244.137 275.693C244.055 276.023 244.014 276.399 244.014 276.821V277.174C244.014 277.596 244.055 277.974 244.137 278.307C244.219 278.637 244.33 278.917 244.471 279.146C244.614 279.372 244.785 279.545 244.981 279.666C245.177 279.787 245.391 279.847 245.623 279.847ZM245.623 273.387C245.924 273.387 246.196 273.434 246.438 273.529C246.68 273.624 246.892 273.755 247.075 273.922C247.262 274.085 247.42 274.281 247.551 274.51C247.685 274.739 247.795 274.988 247.88 275.256C247.965 275.521 248.027 275.802 248.066 276.1C248.105 276.397 248.125 276.698 248.125 277.002C248.125 277.306 248.105 277.607 248.066 277.905C248.027 278.199 247.965 278.48 247.88 278.749C247.795 279.014 247.685 279.26 247.551 279.489C247.42 279.715 247.262 279.911 247.075 280.078C246.892 280.245 246.68 280.376 246.438 280.47C246.196 280.562 245.924 280.608 245.623 280.608C245.322 280.608 245.051 280.562 244.809 280.47C244.567 280.376 244.353 280.245 244.166 280.078C243.983 279.911 243.825 279.715 243.691 279.489C243.56 279.26 243.452 279.014 243.367 278.749C243.282 278.48 243.22 278.199 243.18 277.905C243.141 277.607 243.122 277.306 243.122 277.002C243.122 276.698 243.141 276.397 243.18 276.1C243.22 275.802 243.282 275.521 243.367 275.256C243.452 274.988 243.56 274.739 243.691 274.51C243.825 274.281 243.983 274.085 244.166 273.922C244.353 273.755 244.567 273.624 244.809 273.529C245.051 273.434 245.322 273.387 245.623 273.387ZM254.576 273.475H255.38L251.098 280.51H250.293L254.576 273.475ZM250.946 276.693C250.714 276.693 250.496 276.651 250.293 276.566C250.094 276.481 249.917 276.365 249.764 276.217C249.613 276.067 249.494 275.89 249.405 275.688C249.32 275.485 249.278 275.267 249.278 275.035C249.278 274.803 249.32 274.587 249.405 274.388C249.494 274.185 249.613 274.01 249.764 273.863C249.917 273.716 250.094 273.6 250.293 273.515C250.496 273.43 250.714 273.387 250.946 273.387C251.181 273.387 251.4 273.43 251.603 273.515C251.806 273.6 251.982 273.716 252.133 273.863C252.287 274.01 252.406 274.185 252.491 274.388C252.579 274.587 252.623 274.803 252.623 275.035C252.623 275.267 252.579 275.485 252.491 275.688C252.406 275.89 252.287 276.067 252.133 276.217C251.982 276.365 251.806 276.481 251.603 276.566C251.4 276.651 251.181 276.693 250.946 276.693ZM250.946 274.098C250.812 274.098 250.689 274.121 250.578 274.167C250.47 274.213 250.377 274.278 250.298 274.363C250.22 274.445 250.159 274.543 250.117 274.658C250.074 274.772 250.053 274.898 250.053 275.035C250.053 275.169 250.074 275.295 250.117 275.413C250.159 275.527 250.22 275.627 250.298 275.712C250.377 275.794 250.47 275.859 250.578 275.908C250.689 275.954 250.812 275.977 250.946 275.977C251.083 275.977 251.207 275.954 251.319 275.908C251.433 275.859 251.529 275.794 251.608 275.712C251.686 275.627 251.747 275.527 251.789 275.413C251.832 275.295 251.853 275.169 251.853 275.035C251.853 274.898 251.832 274.772 251.789 274.658C251.747 274.543 251.686 274.445 251.608 274.363C251.529 274.278 251.433 274.213 251.319 274.167C251.207 274.121 251.083 274.098 250.946 274.098ZM254.777 280.608C254.545 280.608 254.327 280.565 254.124 280.48C253.922 280.395 253.745 280.279 253.595 280.132C253.444 279.982 253.325 279.807 253.237 279.607C253.152 279.404 253.109 279.187 253.109 278.955C253.109 278.722 253.152 278.507 253.237 278.307C253.325 278.104 253.444 277.929 253.595 277.782C253.745 277.635 253.922 277.519 254.124 277.434C254.327 277.349 254.545 277.306 254.777 277.306C255.009 277.306 255.227 277.349 255.429 277.434C255.635 277.519 255.814 277.635 255.964 277.782C256.118 277.929 256.237 278.104 256.322 278.307C256.41 278.507 256.455 278.722 256.455 278.955C256.455 279.187 256.41 279.404 256.322 279.607C256.237 279.807 256.118 279.982 255.964 280.132C255.814 280.279 255.635 280.395 255.429 280.48C255.227 280.565 255.009 280.608 254.777 280.608ZM254.777 278.018C254.64 278.018 254.515 278.041 254.404 278.086C254.296 278.132 254.203 278.198 254.124 278.283C254.046 278.364 253.985 278.463 253.943 278.577C253.9 278.691 253.879 278.817 253.879 278.955C253.879 279.089 253.9 279.215 253.943 279.332C253.985 279.447 254.046 279.547 254.124 279.632C254.203 279.713 254.296 279.779 254.404 279.828C254.515 279.874 254.64 279.897 254.777 279.897C254.914 279.897 255.039 279.874 255.15 279.828C255.261 279.779 255.356 279.713 255.434 279.632C255.513 279.547 255.573 279.447 255.616 279.332C255.658 279.215 255.679 279.089 255.679 278.955C255.679 278.817 255.658 278.691 255.616 278.577C255.573 278.463 255.513 278.364 255.434 278.283C255.356 278.198 255.261 278.132 255.15 278.086C255.039 278.041 254.914 278.018 254.777 278.018Z" fill="#0B0C0C"/>
<path d="M334.063 274.26H330.335V273.475H334.946V274.26L332.331 280.51H331.37L334.063 274.26ZM336.005 276.934L336.373 273.475H340.391V274.231H337.07L336.859 276.232C337.049 276.049 337.276 275.912 337.541 275.82C337.806 275.725 338.077 275.678 338.355 275.678C338.689 275.678 338.996 275.74 339.277 275.864C339.562 275.985 339.807 276.154 340.013 276.37C340.222 276.585 340.384 276.84 340.499 277.135C340.616 277.429 340.675 277.746 340.675 278.086C340.675 278.466 340.613 278.811 340.489 279.121C340.368 279.432 340.196 279.699 339.974 279.921C339.751 280.14 339.487 280.31 339.179 280.431C338.872 280.549 338.533 280.608 338.164 280.608C337.873 280.608 337.596 280.575 337.335 280.51C337.076 280.441 336.842 280.34 336.633 280.206C336.424 280.068 336.244 279.9 336.094 279.7C335.946 279.498 335.842 279.262 335.78 278.994L336.638 278.812C336.674 278.953 336.735 279.087 336.82 279.215C336.905 279.339 337.013 279.45 337.143 279.548C337.274 279.643 337.425 279.718 337.595 279.774C337.765 279.829 337.954 279.857 338.164 279.857C338.415 279.857 338.641 279.815 338.841 279.73C339.04 279.645 339.209 279.527 339.346 279.377C339.483 279.223 339.588 279.041 339.66 278.832C339.735 278.623 339.773 278.395 339.773 278.15C339.773 277.895 339.735 277.663 339.66 277.454C339.588 277.244 339.482 277.064 339.341 276.914C339.204 276.76 339.035 276.643 338.836 276.561C338.636 276.476 338.409 276.433 338.154 276.433C338.033 276.433 337.909 276.448 337.781 276.477C337.657 276.507 337.536 276.548 337.418 276.6C337.304 276.652 337.196 276.716 337.094 276.791C336.993 276.867 336.906 276.95 336.834 277.042L336.005 276.934ZM347.003 273.475H347.808L343.525 280.51H342.721L347.003 273.475ZM343.373 276.693C343.141 276.693 342.924 276.651 342.721 276.566C342.521 276.481 342.345 276.365 342.191 276.217C342.041 276.067 341.921 275.89 341.833 275.688C341.748 275.485 341.705 275.267 341.705 275.035C341.705 274.803 341.748 274.587 341.833 274.388C341.921 274.185 342.041 274.01 342.191 273.863C342.345 273.716 342.521 273.6 342.721 273.515C342.924 273.43 343.141 273.387 343.373 273.387C343.609 273.387 343.828 273.43 344.031 273.515C344.233 273.6 344.41 273.716 344.56 273.863C344.714 274.01 344.833 274.185 344.918 274.388C345.007 274.587 345.051 274.803 345.051 275.035C345.051 275.267 345.007 275.485 344.918 275.688C344.833 275.89 344.714 276.067 344.56 276.217C344.41 276.365 344.233 276.481 344.031 276.566C343.828 276.651 343.609 276.693 343.373 276.693ZM343.373 274.098C343.239 274.098 343.117 274.121 343.005 274.167C342.897 274.213 342.804 274.278 342.726 274.363C342.647 274.445 342.587 274.543 342.544 274.658C342.502 274.772 342.48 274.898 342.48 275.035C342.48 275.169 342.502 275.295 342.544 275.413C342.587 275.527 342.647 275.627 342.726 275.712C342.804 275.794 342.897 275.859 343.005 275.908C343.117 275.954 343.239 275.977 343.373 275.977C343.511 275.977 343.635 275.954 343.746 275.908C343.861 275.859 343.957 275.794 344.035 275.712C344.114 275.627 344.174 275.527 344.217 275.413C344.26 275.295 344.281 275.169 344.281 275.035C344.281 274.898 344.26 274.772 344.217 274.658C344.174 274.543 344.114 274.445 344.035 274.363C343.957 274.278 343.861 274.213 343.746 274.167C343.635 274.121 343.511 274.098 343.373 274.098ZM347.204 280.608C346.972 280.608 346.755 280.565 346.552 280.48C346.349 280.395 346.173 280.279 346.022 280.132C345.872 279.982 345.752 279.807 345.664 279.607C345.579 279.404 345.537 279.187 345.537 278.955C345.537 278.722 345.579 278.507 345.664 278.307C345.752 278.104 345.872 277.929 346.022 277.782C346.173 277.635 346.349 277.519 346.552 277.434C346.755 277.349 346.972 277.306 347.204 277.306C347.437 277.306 347.654 277.349 347.857 277.434C348.063 277.519 348.241 277.635 348.392 277.782C348.545 277.929 348.665 278.104 348.75 278.307C348.838 278.507 348.882 278.722 348.882 278.955C348.882 279.187 348.838 279.404 348.75 279.607C348.665 279.807 348.545 279.982 348.392 280.132C348.241 280.279 348.063 280.395 347.857 280.48C347.654 280.565 347.437 280.608 347.204 280.608ZM347.204 278.018C347.067 278.018 346.943 278.041 346.832 278.086C346.724 278.132 346.63 278.198 346.552 278.283C346.473 278.364 346.413 278.463 346.37 278.577C346.328 278.691 346.307 278.817 346.307 278.955C346.307 279.089 346.328 279.215 346.37 279.332C346.413 279.447 346.473 279.547 346.552 279.632C346.63 279.713 346.724 279.779 346.832 279.828C346.943 279.874 347.067 279.897 347.204 279.897C347.342 279.897 347.466 279.874 347.577 279.828C347.688 279.779 347.783 279.713 347.862 279.632C347.94 279.547 348.001 279.447 348.043 279.332C348.086 279.215 348.107 279.089 348.107 278.955C348.107 278.817 348.086 278.691 348.043 278.577C348.001 278.463 347.94 278.364 347.862 278.283C347.783 278.198 347.688 278.132 347.577 278.086C347.466 278.041 347.342 278.018 347.204 278.018Z" fill="#0B0C0C"/>
<path d="M424.313 274.613C424.542 274.613 424.728 274.595 424.872 274.559C425.016 274.52 425.127 274.46 425.206 274.378C425.284 274.296 425.337 274.191 425.363 274.064C425.392 273.933 425.407 273.775 425.407 273.588V273.475H426.241V280.51H425.378V275.344H424.009V274.613H424.313ZM430.563 279.847C430.792 279.847 431.004 279.787 431.2 279.666C431.4 279.545 431.57 279.372 431.711 279.146C431.854 278.917 431.967 278.637 432.049 278.307C432.131 277.974 432.172 277.596 432.172 277.174V276.821C432.172 276.399 432.131 276.023 432.049 275.693C431.967 275.362 431.854 275.083 431.711 274.854C431.57 274.625 431.4 274.451 431.2 274.334C431.004 274.213 430.792 274.152 430.563 274.152C430.33 274.152 430.116 274.213 429.92 274.334C429.724 274.451 429.554 274.625 429.41 274.854C429.269 275.083 429.158 275.362 429.076 275.693C428.995 276.023 428.954 276.399 428.954 276.821V277.174C428.954 277.596 428.995 277.974 429.076 278.307C429.158 278.637 429.269 278.917 429.41 279.146C429.554 279.372 429.724 279.545 429.92 279.666C430.116 279.787 430.33 279.847 430.563 279.847ZM430.563 273.387C430.864 273.387 431.135 273.434 431.377 273.529C431.619 273.624 431.832 273.755 432.015 273.922C432.201 274.085 432.36 274.281 432.49 274.51C432.625 274.739 432.734 274.988 432.819 275.256C432.904 275.521 432.966 275.802 433.006 276.1C433.045 276.397 433.064 276.698 433.064 277.002C433.064 277.306 433.045 277.607 433.006 277.905C432.966 278.199 432.904 278.48 432.819 278.749C432.734 279.014 432.625 279.26 432.49 279.489C432.36 279.715 432.201 279.911 432.015 280.078C431.832 280.245 431.619 280.376 431.377 280.47C431.135 280.562 430.864 280.608 430.563 280.608C430.262 280.608 429.99 280.562 429.748 280.47C429.506 280.376 429.292 280.245 429.106 280.078C428.923 279.911 428.764 279.715 428.63 279.489C428.499 279.26 428.391 279.014 428.306 278.749C428.221 278.48 428.159 278.199 428.12 277.905C428.08 277.607 428.061 277.306 428.061 277.002C428.061 276.698 428.08 276.397 428.12 276.1C428.159 275.802 428.221 275.521 428.306 275.256C428.391 274.988 428.499 274.739 428.63 274.51C428.764 274.281 428.923 274.085 429.106 273.922C429.292 273.755 429.506 273.624 429.748 273.529C429.99 273.434 430.262 273.387 430.563 273.387ZM436.871 279.847C437.1 279.847 437.313 279.787 437.509 279.666C437.708 279.545 437.878 279.372 438.019 279.146C438.163 278.917 438.276 278.637 438.357 278.307C438.439 277.974 438.48 277.596 438.48 277.174V276.821C438.48 276.399 438.439 276.023 438.357 275.693C438.276 275.362 438.163 275.083 438.019 274.854C437.878 274.625 437.708 274.451 437.509 274.334C437.313 274.213 437.1 274.152 436.871 274.152C436.639 274.152 436.425 274.213 436.228 274.334C436.032 274.451 435.862 274.625 435.718 274.854C435.578 275.083 435.466 275.362 435.385 275.693C435.303 276.023 435.262 276.399 435.262 276.821V277.174C435.262 277.596 435.303 277.974 435.385 278.307C435.466 278.637 435.578 278.917 435.718 279.146C435.862 279.372 436.032 279.545 436.228 279.666C436.425 279.787 436.639 279.847 436.871 279.847ZM436.871 273.387C437.172 273.387 437.443 273.434 437.685 273.529C437.927 273.624 438.14 273.755 438.323 273.922C438.509 274.085 438.668 274.281 438.799 274.51C438.933 274.739 439.043 274.988 439.128 275.256C439.213 275.521 439.275 275.802 439.314 276.1C439.353 276.397 439.373 276.698 439.373 277.002C439.373 277.306 439.353 277.607 439.314 277.905C439.275 278.199 439.213 278.48 439.128 278.749C439.043 279.014 438.933 279.26 438.799 279.489C438.668 279.715 438.509 279.911 438.323 280.078C438.14 280.245 437.927 280.376 437.685 280.47C437.443 280.562 437.172 280.608 436.871 280.608C436.57 280.608 436.299 280.562 436.057 280.47C435.815 280.376 435.601 280.245 435.414 280.078C435.231 279.911 435.072 279.715 434.938 279.489C434.807 279.26 434.7 279.014 434.615 278.749C434.53 278.48 434.467 278.199 434.428 277.905C434.389 277.607 434.369 277.306 434.369 277.002C434.369 276.698 434.389 276.397 434.428 276.1C434.467 275.802 434.53 275.521 434.615 275.256C434.7 274.988 434.807 274.739 434.938 274.51C435.072 274.281 435.231 274.085 435.414 273.922C435.601 273.755 435.815 273.624 436.057 273.529C436.299 273.434 436.57 273.387 436.871 273.387ZM445.823 273.475H446.628L442.346 280.51H441.541L445.823 273.475ZM442.193 276.693C441.961 276.693 441.744 276.651 441.541 276.566C441.342 276.481 441.165 276.365 441.011 276.217C440.861 276.067 440.741 275.89 440.653 275.688C440.568 275.485 440.526 275.267 440.526 275.035C440.526 274.803 440.568 274.587 440.653 274.388C440.741 274.185 440.861 274.01 441.011 273.863C441.165 273.716 441.342 273.6 441.541 273.515C441.744 273.43 441.961 273.387 442.193 273.387C442.429 273.387 442.648 273.43 442.851 273.515C443.054 273.6 443.23 273.716 443.381 273.863C443.534 274.01 443.654 274.185 443.739 274.388C443.827 274.587 443.871 274.803 443.871 275.035C443.871 275.267 443.827 275.485 443.739 275.688C443.654 275.89 443.534 276.067 443.381 276.217C443.23 276.365 443.054 276.481 442.851 276.566C442.648 276.651 442.429 276.693 442.193 276.693ZM442.193 274.098C442.059 274.098 441.937 274.121 441.826 274.167C441.718 274.213 441.624 274.278 441.546 274.363C441.467 274.445 441.407 274.543 441.364 274.658C441.322 274.772 441.301 274.898 441.301 275.035C441.301 275.169 441.322 275.295 441.364 275.413C441.407 275.527 441.467 275.627 441.546 275.712C441.624 275.794 441.718 275.859 441.826 275.908C441.937 275.954 442.059 275.977 442.193 275.977C442.331 275.977 442.455 275.954 442.566 275.908C442.681 275.859 442.777 275.794 442.856 275.712C442.934 275.627 442.995 275.527 443.037 275.413C443.08 275.295 443.101 275.169 443.101 275.035C443.101 274.898 443.08 274.772 443.037 274.658C442.995 274.543 442.934 274.445 442.856 274.363C442.777 274.278 442.681 274.213 442.566 274.167C442.455 274.121 442.331 274.098 442.193 274.098ZM446.025 280.608C445.792 280.608 445.575 280.565 445.372 280.48C445.169 280.395 444.993 280.279 444.842 280.132C444.692 279.982 444.573 279.807 444.484 279.607C444.399 279.404 444.357 279.187 444.357 278.955C444.357 278.722 444.399 278.507 444.484 278.307C444.573 278.104 444.692 277.929 444.842 277.782C444.993 277.635 445.169 277.519 445.372 277.434C445.575 277.349 445.792 277.306 446.025 277.306C446.257 277.306 446.474 277.349 446.677 277.434C446.883 277.519 447.061 277.635 447.212 277.782C447.365 277.929 447.485 278.104 447.57 278.307C447.658 278.507 447.702 278.722 447.702 278.955C447.702 279.187 447.658 279.404 447.57 279.607C447.485 279.807 447.365 279.982 447.212 280.132C447.061 280.279 446.883 280.395 446.677 280.48C446.474 280.565 446.257 280.608 446.025 280.608ZM446.025 278.018C445.887 278.018 445.763 278.041 445.652 278.086C445.544 278.132 445.451 278.198 445.372 278.283C445.294 278.364 445.233 278.463 445.191 278.577C445.148 278.691 445.127 278.817 445.127 278.955C445.127 279.089 445.148 279.215 445.191 279.332C445.233 279.447 445.294 279.547 445.372 279.632C445.451 279.713 445.544 279.779 445.652 279.828C445.763 279.874 445.887 279.897 446.025 279.897C446.162 279.897 446.286 279.874 446.397 279.828C446.509 279.779 446.603 279.713 446.682 279.632C446.76 279.547 446.821 279.447 446.863 279.332C446.906 279.215 446.927 279.089 446.927 278.955C446.927 278.817 446.906 278.691 446.863 278.577C446.821 278.463 446.76 278.364 446.682 278.283C446.603 278.198 446.509 278.132 446.397 278.086C446.286 278.041 446.162 278.018 446.025 278.018Z" fill="#0B0C0C"/>
<path d="M305.219 41.4095H306.136L303.953 48.4439H302.707L300.51 41.4095H301.461L303.311 47.6983H303.394L305.219 41.4095ZM307.166 46.1923C307.183 46.4278 307.23 46.6452 307.309 46.8447C307.387 47.0442 307.493 47.2175 307.627 47.3647C307.765 47.5086 307.925 47.6214 308.108 47.7032C308.295 47.7817 308.501 47.8209 308.726 47.8209C309.004 47.8209 309.248 47.7751 309.457 47.6836C309.67 47.5887 309.864 47.471 310.041 47.3304L310.463 47.9239C310.237 48.1038 309.975 48.2526 309.678 48.3703C309.384 48.4848 309.053 48.542 308.687 48.542C308.324 48.542 307.995 48.4782 307.701 48.3507C307.407 48.2199 307.155 48.04 306.946 47.8111C306.74 47.5789 306.581 47.3042 306.47 46.987C306.359 46.6665 306.303 46.3182 306.303 45.9421C306.303 45.5595 306.357 45.2096 306.465 44.8924C306.576 44.5719 306.731 44.2972 306.931 44.0682C307.13 43.8361 307.369 43.6562 307.647 43.5287C307.925 43.3978 308.234 43.3324 308.574 43.3324C308.904 43.3324 309.202 43.3978 309.467 43.5287C309.732 43.6562 309.958 43.8361 310.144 44.0682C310.33 44.2972 310.473 44.5719 310.571 44.8924C310.672 45.2096 310.723 45.5562 310.723 45.9323V46.1923H307.166ZM308.545 44.0535C308.335 44.0535 308.149 44.0944 307.986 44.1762C307.822 44.2579 307.681 44.3675 307.564 44.5048C307.449 44.6422 307.358 44.8008 307.289 44.9807C307.224 45.1573 307.186 45.3404 307.176 45.5301H309.83C309.823 45.3371 309.789 45.1524 309.727 44.9758C309.668 44.7959 309.583 44.6389 309.472 44.5048C309.364 44.3675 309.231 44.2579 309.075 44.1762C308.921 44.0944 308.744 44.0535 308.545 44.0535ZM314.436 44.1664H314.304C314.091 44.1664 313.888 44.1909 313.695 44.2399C313.503 44.289 313.332 44.3773 313.185 44.5048C313.038 44.6324 312.92 44.8073 312.832 45.0297C312.744 45.2488 312.7 45.5301 312.7 45.8735V48.4439H311.876V43.4305H312.7V44.2252C312.762 44.0781 312.845 43.9489 312.95 43.8377C313.054 43.7265 313.172 43.6349 313.303 43.563C313.437 43.4878 313.579 43.4322 313.73 43.3962C313.883 43.3602 314.039 43.3422 314.196 43.3422H314.436V44.1664ZM314.853 43.4305H315.785L317.021 47.5707L318.199 43.4305H319.121L317.296 49.1993C317.24 49.3759 317.169 49.5198 317.08 49.631C316.992 49.7455 316.891 49.8354 316.776 49.9008C316.665 49.9695 316.541 50.0169 316.403 50.0431C316.266 50.0692 316.12 50.0823 315.967 50.0823C315.829 50.0823 315.687 50.0741 315.54 50.0578C315.393 50.0447 315.237 50.0251 315.074 49.9989L315.197 49.2778C315.262 49.2909 315.332 49.3024 315.407 49.3122C315.47 49.322 315.54 49.3302 315.618 49.3367C315.697 49.3432 315.777 49.3465 315.859 49.3465C316.039 49.3465 316.178 49.3073 316.276 49.2288C316.377 49.1503 316.449 49.0227 316.492 48.8461L316.541 48.6156L314.853 43.4305ZM324.752 47.7915C325.007 47.7915 325.233 47.7588 325.429 47.6934C325.629 47.628 325.8 47.5413 325.944 47.4334C326.091 47.3255 326.216 47.2012 326.317 47.0606C326.419 46.9199 326.499 46.7744 326.558 46.624C326.62 46.4703 326.664 46.3182 326.69 46.1678C326.719 46.0141 326.734 45.8718 326.734 45.741V45.4516H324.762V44.7256H327.504V48.4439H326.724V47.4972C326.603 47.6901 326.466 47.8536 326.312 47.9877C326.159 48.1218 325.995 48.2297 325.822 48.3115C325.648 48.3932 325.465 48.4521 325.272 48.4881C325.083 48.524 324.89 48.542 324.693 48.542C324.213 48.542 323.786 48.4488 323.413 48.2624C323.04 48.076 322.725 47.8209 322.466 47.4972C322.211 47.1734 322.017 46.7924 321.883 46.3542C321.749 45.916 321.682 45.4434 321.682 44.9365C321.682 44.4329 321.755 43.962 321.902 43.5237C322.049 43.0823 322.259 42.6996 322.53 42.3759C322.802 42.0488 323.129 41.7921 323.511 41.6057C323.897 41.416 324.329 41.3212 324.806 41.3212C325.101 41.3212 325.379 41.3572 325.64 41.4291C325.905 41.4978 326.149 41.5975 326.371 41.7284C326.593 41.8559 326.793 42.0096 326.97 42.1895C327.146 42.3661 327.295 42.5623 327.416 42.7781L326.685 43.1607C326.6 42.9972 326.499 42.8501 326.381 42.7193C326.263 42.5852 326.127 42.4707 325.974 42.3759C325.82 42.281 325.647 42.2075 325.454 42.1551C325.264 42.1028 325.055 42.0766 324.826 42.0766C324.46 42.0766 324.137 42.1551 323.86 42.3121C323.582 42.4658 323.348 42.6718 323.158 42.9302C322.972 43.1885 322.831 43.4878 322.736 43.8279C322.641 44.1647 322.594 44.5146 322.594 44.8776V45.0003C322.594 45.3633 322.636 45.7132 322.721 46.05C322.81 46.3869 322.942 46.6845 323.119 46.9428C323.299 47.1979 323.524 47.4039 323.796 47.5609C324.067 47.7146 324.386 47.7915 324.752 47.7915ZM330.953 43.3324C331.299 43.3324 331.615 43.3978 331.9 43.5287C332.184 43.6562 332.426 43.8361 332.626 44.0682C332.828 44.2972 332.985 44.5719 333.096 44.8924C333.208 45.2096 333.263 45.5595 333.263 45.9421C333.263 46.3182 333.208 46.6665 333.096 46.987C332.985 47.3042 332.828 47.5789 332.626 47.8111C332.426 48.04 332.184 48.2199 331.9 48.3507C331.615 48.4782 331.299 48.542 330.953 48.542C330.606 48.542 330.291 48.4782 330.006 48.3507C329.725 48.2199 329.483 48.04 329.28 47.8111C329.077 47.5789 328.92 47.3042 328.809 46.987C328.698 46.6665 328.642 46.3182 328.642 45.9421C328.642 45.5595 328.698 45.2096 328.809 44.8924C328.92 44.5719 329.077 44.2972 329.28 44.0682C329.483 43.8361 329.725 43.6562 330.006 43.5287C330.291 43.3978 330.606 43.3324 330.953 43.3324ZM330.953 47.8209C331.192 47.8209 331.401 47.7719 331.581 47.6737C331.764 47.5724 331.916 47.4367 332.037 47.2666C332.161 47.0965 332.254 46.9003 332.316 46.6779C332.379 46.4523 332.41 46.2168 332.41 45.9716V45.9127C332.41 45.6609 332.379 45.4222 332.316 45.1965C332.254 44.9708 332.161 44.7746 332.037 44.6078C331.916 44.4378 331.764 44.3037 331.581 44.2056C331.401 44.1042 331.192 44.0535 330.953 44.0535C330.714 44.0535 330.503 44.1042 330.32 44.2056C330.14 44.3037 329.988 44.4378 329.864 44.6078C329.743 44.7746 329.651 44.9708 329.589 45.1965C329.527 45.4222 329.496 45.6609 329.496 45.9127V45.9716C329.496 46.2168 329.527 46.4523 329.589 46.6779C329.651 46.9003 329.743 47.0965 329.864 47.2666C329.988 47.4367 330.14 47.5724 330.32 47.6737C330.503 47.7719 330.714 47.8209 330.953 47.8209ZM336.476 43.3324C336.823 43.3324 337.139 43.3978 337.423 43.5287C337.708 43.6562 337.95 43.8361 338.149 44.0682C338.352 44.2972 338.509 44.5719 338.62 44.8924C338.731 45.2096 338.787 45.5595 338.787 45.9421C338.787 46.3182 338.731 46.6665 338.62 46.987C338.509 47.3042 338.352 47.5789 338.149 47.8111C337.95 48.04 337.708 48.2199 337.423 48.3507C337.139 48.4782 336.823 48.542 336.476 48.542C336.13 48.542 335.814 48.4782 335.53 48.3507C335.248 48.2199 335.006 48.04 334.804 47.8111C334.601 47.5789 334.444 47.3042 334.333 46.987C334.221 46.6665 334.166 46.3182 334.166 45.9421C334.166 45.5595 334.221 45.2096 334.333 44.8924C334.444 44.5719 334.601 44.2972 334.804 44.0682C335.006 43.8361 335.248 43.6562 335.53 43.5287C335.814 43.3978 336.13 43.3324 336.476 43.3324ZM336.476 47.8209C336.715 47.8209 336.924 47.7719 337.104 47.6737C337.287 47.5724 337.439 47.4367 337.56 47.2666C337.685 47.0965 337.778 46.9003 337.84 46.6779C337.902 46.4523 337.933 46.2168 337.933 45.9716V45.9127C337.933 45.6609 337.902 45.4222 337.84 45.1965C337.778 44.9708 337.685 44.7746 337.56 44.6078C337.439 44.4378 337.287 44.3037 337.104 44.2056C336.924 44.1042 336.715 44.0535 336.476 44.0535C336.238 44.0535 336.027 44.1042 335.844 44.2056C335.664 44.3037 335.512 44.4378 335.387 44.6078C335.266 44.7746 335.175 44.9708 335.113 45.1965C335.05 45.4222 335.019 45.6609 335.019 45.9127V45.9716C335.019 46.2168 335.05 46.4523 335.113 46.6779C335.175 46.9003 335.266 47.0965 335.387 47.2666C335.512 47.4367 335.664 47.5724 335.844 47.6737C336.027 47.7719 336.238 47.8209 336.476 47.8209ZM343.295 47.87C343.148 48.076 342.947 48.2395 342.692 48.3605C342.44 48.4815 342.152 48.542 341.828 48.542C341.504 48.542 341.212 48.4782 340.95 48.3507C340.688 48.2199 340.464 48.04 340.278 47.8111C340.092 47.5789 339.948 47.3042 339.846 46.987C339.748 46.6698 339.699 46.3215 339.699 45.9421C339.699 45.5628 339.748 45.2145 339.846 44.8973C339.948 44.5768 340.092 44.3004 340.278 44.0682C340.464 43.8361 340.688 43.6562 340.95 43.5287C341.212 43.3978 341.504 43.3324 341.828 43.3324C342.152 43.3324 342.44 43.3929 342.692 43.5139C342.947 43.6349 343.148 43.7984 343.295 44.0045V41.4095H344.119V48.4439H343.295V47.87ZM340.553 45.9617C340.553 46.2234 340.584 46.467 340.646 46.6927C340.708 46.9183 340.8 47.1145 340.921 47.2813C341.042 47.4448 341.19 47.574 341.367 47.6688C341.544 47.7637 341.748 47.8111 341.98 47.8111C342.199 47.8111 342.391 47.7735 342.554 47.6983C342.721 47.6231 342.86 47.52 342.971 47.3892C343.082 47.2584 343.166 47.1047 343.221 46.9281C343.277 46.7483 343.305 46.5537 343.305 46.3444V45.5301C343.305 45.3208 343.277 45.1278 343.221 44.9512C343.166 44.7714 343.082 44.616 342.971 44.4852C342.86 44.3544 342.721 44.2514 342.554 44.1762C342.391 44.101 342.199 44.0633 341.98 44.0633C341.748 44.0633 341.544 44.1108 341.367 44.2056C341.19 44.3004 341.042 44.4313 340.921 44.598C340.8 44.7616 340.708 44.9561 340.646 45.1818C340.584 45.4074 340.553 45.6511 340.553 45.9127V45.9617Z" fill="#0B0C0C"/>
<circle cx="291.955" cy="44.4671" r="5.02317" fill="#106165"/>
<path d="M247.024 46.7915C247.279 46.7915 247.504 46.7588 247.701 46.6934C247.9 46.628 248.072 46.5413 248.216 46.4334C248.363 46.3255 248.487 46.2012 248.588 46.0606C248.69 45.9199 248.77 45.7744 248.829 45.624C248.891 45.4703 248.935 45.3182 248.961 45.1678C248.991 45.0141 249.005 44.8718 249.005 44.741V44.4516H247.033V43.7256H249.776V47.4439H248.996V46.4972C248.875 46.6901 248.737 46.8536 248.583 46.9877C248.43 47.1218 248.266 47.2297 248.093 47.3115C247.92 47.3932 247.736 47.4521 247.544 47.4881C247.354 47.524 247.161 47.542 246.965 47.542C246.484 47.542 246.057 47.4488 245.684 47.2624C245.312 47.076 244.996 46.8209 244.738 46.4972C244.483 46.1734 244.288 45.7924 244.154 45.3542C244.02 44.916 243.953 44.4434 243.953 43.9365C243.953 43.4329 244.026 42.962 244.173 42.5237C244.321 42.0823 244.53 41.6996 244.801 41.3759C245.073 41.0488 245.4 40.7921 245.782 40.6057C246.168 40.416 246.6 40.3212 247.078 40.3212C247.372 40.3212 247.65 40.3572 247.911 40.4291C248.176 40.4978 248.42 40.5975 248.642 40.7284C248.865 40.8559 249.064 41.0096 249.241 41.1895C249.417 41.3661 249.566 41.5623 249.687 41.7781L248.956 42.1607C248.871 41.9972 248.77 41.8501 248.652 41.7193C248.534 41.5852 248.399 41.4707 248.245 41.3759C248.091 41.281 247.918 41.2075 247.725 41.1551C247.535 41.1028 247.326 41.0766 247.097 41.0766C246.731 41.0766 246.409 41.1551 246.131 41.3121C245.853 41.4658 245.619 41.6718 245.429 41.9302C245.243 42.1885 245.102 42.4878 245.007 42.8279C244.913 43.1647 244.865 43.5146 244.865 43.8776V44.0003C244.865 44.3633 244.908 44.7132 244.993 45.05C245.081 45.3869 245.213 45.6845 245.39 45.9428C245.57 46.1979 245.796 46.4039 246.067 46.5609C246.338 46.7146 246.657 46.7915 247.024 46.7915ZM253.224 42.3324C253.571 42.3324 253.886 42.3978 254.171 42.5287C254.455 42.6562 254.697 42.8361 254.897 43.0682C255.1 43.2972 255.257 43.5719 255.368 43.8924C255.479 44.2096 255.534 44.5595 255.534 44.9421C255.534 45.3182 255.479 45.6665 255.368 45.987C255.257 46.3042 255.1 46.5789 254.897 46.8111C254.697 47.04 254.455 47.2199 254.171 47.3507C253.886 47.4782 253.571 47.542 253.224 47.542C252.877 47.542 252.562 47.4782 252.277 47.3507C251.996 47.2199 251.754 47.04 251.551 46.8111C251.349 46.5789 251.192 46.3042 251.08 45.987C250.969 45.6665 250.914 45.3182 250.914 44.9421C250.914 44.5595 250.969 44.2096 251.08 43.8924C251.192 43.5719 251.349 43.2972 251.551 43.0682C251.754 42.8361 251.996 42.6562 252.277 42.5287C252.562 42.3978 252.877 42.3324 253.224 42.3324ZM253.224 46.8209C253.463 46.8209 253.672 46.7719 253.852 46.6737C254.035 46.5724 254.187 46.4367 254.308 46.2666C254.432 46.0965 254.526 45.9003 254.588 45.6779C254.65 45.4523 254.681 45.2168 254.681 44.9716V44.9127C254.681 44.6609 254.65 44.4222 254.588 44.1965C254.526 43.9708 254.432 43.7746 254.308 43.6078C254.187 43.4378 254.035 43.3037 253.852 43.2056C253.672 43.1042 253.463 43.0535 253.224 43.0535C252.985 43.0535 252.774 43.1042 252.591 43.2056C252.411 43.3037 252.259 43.4378 252.135 43.6078C252.014 43.7746 251.922 43.9708 251.86 44.1965C251.798 44.4222 251.767 44.6609 251.767 44.9127V44.9716C251.767 45.2168 251.798 45.4523 251.86 45.6779C251.922 45.9003 252.014 46.0965 252.135 46.2666C252.259 46.4367 252.411 46.5724 252.591 46.6737C252.774 46.7719 252.985 46.8209 253.224 46.8209ZM258.748 42.3324C259.094 42.3324 259.41 42.3978 259.694 42.5287C259.979 42.6562 260.221 42.8361 260.42 43.0682C260.623 43.2972 260.78 43.5719 260.891 43.8924C261.002 44.2096 261.058 44.5595 261.058 44.9421C261.058 45.3182 261.002 45.6665 260.891 45.987C260.78 46.3042 260.623 46.5789 260.42 46.8111C260.221 47.04 259.979 47.2199 259.694 47.3507C259.41 47.4782 259.094 47.542 258.748 47.542C258.401 47.542 258.085 47.4782 257.801 47.3507C257.52 47.2199 257.278 47.04 257.075 46.8111C256.872 46.5789 256.715 46.3042 256.604 45.987C256.493 45.6665 256.437 45.3182 256.437 44.9421C256.437 44.5595 256.493 44.2096 256.604 43.8924C256.715 43.5719 256.872 43.2972 257.075 43.0682C257.278 42.8361 257.52 42.6562 257.801 42.5287C258.085 42.3978 258.401 42.3324 258.748 42.3324ZM258.748 46.8209C258.986 46.8209 259.196 46.7719 259.375 46.6737C259.559 46.5724 259.711 46.4367 259.832 46.2666C259.956 46.0965 260.049 45.9003 260.111 45.6779C260.173 45.4523 260.204 45.2168 260.204 44.9716V44.9127C260.204 44.6609 260.173 44.4222 260.111 44.1965C260.049 43.9708 259.956 43.7746 259.832 43.6078C259.711 43.4378 259.559 43.3037 259.375 43.2056C259.196 43.1042 258.986 43.0535 258.748 43.0535C258.509 43.0535 258.298 43.1042 258.115 43.2056C257.935 43.3037 257.783 43.4378 257.659 43.6078C257.538 43.7746 257.446 43.9708 257.384 44.1965C257.322 44.4222 257.291 44.6609 257.291 44.9127V44.9716C257.291 45.2168 257.322 45.4523 257.384 45.6779C257.446 45.9003 257.538 46.0965 257.659 46.2666C257.783 46.4367 257.935 46.5724 258.115 46.6737C258.298 46.7719 258.509 46.8209 258.748 46.8209ZM265.566 46.87C265.419 47.076 265.218 47.2395 264.963 47.3605C264.711 47.4815 264.423 47.542 264.099 47.542C263.776 47.542 263.483 47.4782 263.221 47.3507C262.96 47.2199 262.736 47.04 262.549 46.8111C262.363 46.5789 262.219 46.3042 262.118 45.987C262.019 45.6698 261.97 45.3215 261.97 44.9421C261.97 44.5628 262.019 44.2145 262.118 43.8973C262.219 43.5768 262.363 43.3004 262.549 43.0682C262.736 42.8361 262.96 42.6562 263.221 42.5287C263.483 42.3978 263.776 42.3324 264.099 42.3324C264.423 42.3324 264.711 42.3929 264.963 42.5139C265.218 42.6349 265.419 42.7984 265.566 43.0045V40.4095H266.39V47.4439H265.566V46.87ZM262.824 44.9617C262.824 45.2234 262.855 45.467 262.917 45.6927C262.979 45.9183 263.071 46.1145 263.192 46.2813C263.313 46.4448 263.462 46.574 263.638 46.6688C263.815 46.7637 264.019 46.8111 264.251 46.8111C264.471 46.8111 264.662 46.7735 264.825 46.6983C264.992 46.6231 265.131 46.52 265.242 46.3892C265.354 46.2584 265.437 46.1047 265.493 45.9281C265.548 45.7483 265.576 45.5537 265.576 45.3444V44.5301C265.576 44.3208 265.548 44.1278 265.493 43.9512C265.437 43.7714 265.354 43.616 265.242 43.4852C265.131 43.3544 264.992 43.2514 264.825 43.1762C264.662 43.101 264.471 43.0633 264.251 43.0633C264.019 43.0633 263.815 43.1108 263.638 43.2056C263.462 43.3004 263.313 43.4313 263.192 43.598C263.071 43.7616 262.979 43.9561 262.917 44.1818C262.855 44.4074 262.824 44.6511 262.824 44.9127V44.9617Z" fill="#0B0C0C"/>
<circle cx="235.027" cy="44.4671" r="5.02317" fill="#8AC0C3"/>
<path d="M116.42 41.4095C116.698 41.4095 116.96 41.452 117.205 41.537C117.45 41.6188 117.664 41.7365 117.848 41.8902C118.031 42.0439 118.175 42.2303 118.279 42.4495C118.387 42.6653 118.441 42.9057 118.441 43.1706C118.441 43.3439 118.412 43.5123 118.353 43.6758C118.297 43.8393 118.22 43.9914 118.122 44.132C118.024 44.2694 117.908 44.392 117.774 44.4999C117.64 44.6046 117.494 44.6863 117.337 44.7452C117.514 44.7714 117.692 44.8286 117.872 44.9169C118.055 45.0019 118.219 45.118 118.363 45.2652C118.506 45.4091 118.624 45.5808 118.716 45.7802C118.807 45.9797 118.853 46.2038 118.853 46.4523C118.853 46.7957 118.788 47.0933 118.657 47.3451C118.529 47.5969 118.356 47.8046 118.137 47.9681C117.918 48.1283 117.661 48.2477 117.367 48.3262C117.076 48.4047 116.767 48.4439 116.44 48.4439H113.761V41.4095H116.42ZM117.96 46.4425C117.96 46.2299 117.919 46.0451 117.838 45.8882C117.759 45.7279 117.65 45.5971 117.509 45.4957C117.372 45.3911 117.208 45.3142 117.019 45.2652C116.832 45.2129 116.633 45.1867 116.42 45.1867H114.625V47.7228H116.449C116.656 47.7228 116.85 47.6983 117.033 47.6492C117.216 47.6002 117.377 47.5249 117.514 47.4236C117.651 47.3189 117.759 47.1865 117.838 47.0262C117.919 46.8627 117.96 46.6681 117.96 46.4425ZM117.568 43.2883C117.568 43.1313 117.542 42.9841 117.489 42.8468C117.44 42.7062 117.359 42.5835 117.244 42.4789C117.133 42.3742 116.989 42.2908 116.812 42.2287C116.636 42.1666 116.422 42.1355 116.17 42.1355H114.625V44.4754H116.17C116.422 44.4754 116.636 44.4443 116.812 44.3822C116.989 44.3168 117.133 44.2301 117.244 44.1222C117.359 44.0143 117.44 43.8884 117.489 43.7445C117.542 43.6006 117.568 43.4485 117.568 43.2883ZM122.964 47.9435C122.817 48.1136 122.617 48.2559 122.365 48.3703C122.117 48.4848 121.824 48.542 121.487 48.542C121.239 48.542 121.008 48.5077 120.796 48.439C120.583 48.367 120.398 48.2657 120.241 48.1349C120.084 48.004 119.962 47.8454 119.873 47.659C119.785 47.4726 119.741 47.2617 119.741 47.0262C119.741 46.83 119.772 46.6518 119.834 46.4915C119.9 46.328 119.99 46.1858 120.104 46.0648C120.222 45.9438 120.362 45.8457 120.526 45.7704C120.689 45.6919 120.873 45.638 121.075 45.6086L122.846 45.3682V45.0493C122.846 44.8597 122.817 44.7011 122.758 44.5735C122.699 44.4427 122.619 44.3397 122.518 44.2645C122.419 44.1892 122.302 44.1353 122.164 44.1026C122.03 44.0699 121.885 44.0535 121.728 44.0535C121.446 44.0535 121.183 44.0928 120.938 44.1713C120.696 44.2497 120.477 44.3413 120.281 44.446L119.972 43.7935C120.259 43.63 120.56 43.5123 120.874 43.4404C121.191 43.3684 121.504 43.3324 121.811 43.3324C122.423 43.3324 122.885 43.4714 123.199 43.7494C123.513 44.0241 123.67 44.4263 123.67 44.9561V47.2666C123.67 47.4334 123.703 47.574 123.768 47.6885C123.834 47.7997 123.938 47.888 124.082 47.9534L123.616 48.542C123.459 48.5028 123.324 48.4341 123.209 48.336C123.098 48.2346 123.019 48.1136 122.974 47.973L122.964 47.9435ZM121.497 46.2119C121.36 46.2315 121.234 46.2593 121.119 46.2953C121.008 46.3313 120.913 46.3803 120.835 46.4425C120.756 46.5013 120.694 46.5749 120.649 46.6632C120.606 46.7515 120.585 46.8594 120.585 46.987C120.585 47.1341 120.613 47.265 120.668 47.3794C120.724 47.4939 120.799 47.5904 120.894 47.6688C120.989 47.7473 121.098 47.8078 121.222 47.8503C121.35 47.8896 121.482 47.9092 121.62 47.9092C121.774 47.9092 121.924 47.888 122.071 47.8454C122.218 47.8029 122.349 47.7424 122.464 47.6639C122.578 47.5822 122.67 47.4841 122.738 47.3696C122.81 47.2551 122.846 47.1243 122.846 46.9772V46.0108L121.497 46.2119ZM128.468 47.87C128.321 48.076 128.12 48.2395 127.864 48.3605C127.613 48.4815 127.325 48.542 127.001 48.542C126.677 48.542 126.385 48.4782 126.123 48.3507C125.861 48.2199 125.637 48.04 125.451 47.8111C125.265 47.5789 125.121 47.3042 125.019 46.987C124.921 46.6698 124.872 46.3215 124.872 45.9421C124.872 45.5628 124.921 45.2145 125.019 44.8973C125.121 44.5768 125.265 44.3004 125.451 44.0682C125.637 43.8361 125.861 43.6562 126.123 43.5287C126.385 43.3978 126.677 43.3324 127.001 43.3324C127.325 43.3324 127.613 43.3929 127.864 43.5139C128.12 43.6349 128.321 43.7984 128.468 44.0045V41.4095H129.292V48.4439H128.468V47.87ZM125.726 45.9617C125.726 46.2234 125.757 46.467 125.819 46.6927C125.881 46.9183 125.973 47.1145 126.094 47.2813C126.215 47.4448 126.363 47.574 126.54 47.6688C126.717 47.7637 126.921 47.8111 127.153 47.8111C127.372 47.8111 127.564 47.7735 127.727 47.6983C127.894 47.6231 128.033 47.52 128.144 47.3892C128.255 47.2584 128.339 47.1047 128.394 46.9281C128.45 46.7483 128.478 46.5537 128.478 46.3444V45.5301C128.478 45.3208 128.45 45.1278 128.394 44.9512C128.339 44.7714 128.255 44.616 128.144 44.4852C128.033 44.3544 127.894 44.2514 127.727 44.1762C127.564 44.101 127.372 44.0633 127.153 44.0633C126.921 44.0633 126.717 44.1108 126.54 44.2056C126.363 44.3004 126.215 44.4313 126.094 44.598C125.973 44.7616 125.881 44.9561 125.819 45.1818C125.757 45.4074 125.726 45.6511 125.726 45.9127V45.9617Z" fill="#0B0C0C"/>
<circle cx="104.424" cy="44.467" r="5.02317" fill="#D7689D"/>
<path d="M47.3614 40.4095H48.2787L46.0958 47.4439H44.8498L42.6522 40.4095H43.6039L45.4532 46.6983H45.5366L47.3614 40.4095ZM49.3089 45.1923C49.3252 45.4277 49.3727 45.6452 49.4511 45.8447C49.5296 46.0442 49.6359 46.2175 49.77 46.3647C49.9073 46.5086 50.0676 46.6214 50.2507 46.7032C50.4371 46.7816 50.6432 46.8209 50.8688 46.8209C51.1468 46.8209 51.3904 46.7751 51.5997 46.6835C51.8123 46.5887 52.0069 46.471 52.1835 46.3303L52.6053 46.9239C52.3797 47.1038 52.1181 47.2526 51.8205 47.3703C51.5261 47.4848 51.1958 47.542 50.8296 47.542C50.4666 47.542 50.1379 47.4782 49.8436 47.3507C49.5493 47.2199 49.2974 47.04 49.0881 46.8111C48.8821 46.5789 48.7235 46.3042 48.6123 45.987C48.5011 45.6665 48.4455 45.3182 48.4455 44.9421C48.4455 44.5595 48.4995 44.2096 48.6074 43.8923C48.7186 43.5719 48.8739 43.2971 49.0734 43.0682C49.2729 42.836 49.5116 42.6562 49.7896 42.5286C50.0676 42.3978 50.3766 42.3324 50.7167 42.3324C51.047 42.3324 51.3446 42.3978 51.6095 42.5286C51.8744 42.6562 52.1001 42.836 52.2865 43.0682C52.4729 43.2971 52.6152 43.5719 52.7133 43.8923C52.8146 44.2096 52.8653 44.5562 52.8653 44.9323V45.1923H49.3089ZM50.6873 43.0535C50.478 43.0535 50.2916 43.0944 50.1281 43.1761C49.9646 43.2579 49.824 43.3675 49.7062 43.5048C49.5918 43.6422 49.5002 43.8008 49.4315 43.9806C49.3661 44.1572 49.3285 44.3404 49.3187 44.53H51.9725C51.966 44.3371 51.9317 44.1523 51.8695 43.9757C51.8107 43.7959 51.7256 43.6389 51.6144 43.5048C51.5065 43.3675 51.3741 43.2579 51.2171 43.1761C51.0634 43.0944 50.8868 43.0535 50.6873 43.0535ZM56.5787 43.1663H56.4463C56.2337 43.1663 56.031 43.1909 55.838 43.2399C55.6451 43.289 55.475 43.3773 55.3279 43.5048C55.1807 43.6324 55.063 43.8073 54.9747 44.0297C54.8864 44.2488 54.8422 44.53 54.8422 44.8734V47.4439H54.0181V42.4305H54.8422V43.2252C54.9044 43.078 54.9878 42.9489 55.0924 42.8377C55.197 42.7265 55.3148 42.6349 55.4456 42.563C55.5797 42.4877 55.7219 42.4322 55.8724 42.3962C56.0261 42.3602 56.1814 42.3422 56.3384 42.3422H56.5787V43.1663ZM56.9957 42.4305H57.9277L59.1639 46.5707L60.3412 42.4305H61.2634L59.4386 48.1993C59.383 48.3759 59.3111 48.5198 59.2228 48.631C59.1345 48.7455 59.0331 48.8354 58.9186 48.9008C58.8075 48.9695 58.6832 49.0169 58.5458 49.0431C58.4085 49.0692 58.2629 49.0823 58.1092 49.0823C57.9719 49.0823 57.8296 49.0741 57.6825 49.0578C57.5353 49.0447 57.38 49.0251 57.2165 48.9989L57.3391 48.2778C57.4045 48.2909 57.4748 48.3023 57.55 48.3121C57.6122 48.322 57.6825 48.3301 57.761 48.3367C57.8394 48.3432 57.9196 48.3465 58.0013 48.3465C58.1812 48.3465 58.3202 48.3072 58.4183 48.2287C58.5197 48.1503 58.5916 48.0227 58.6341 47.8461L58.6832 47.6156L56.9957 42.4305ZM64.8493 47.4439H64.0252V40.4095H64.8493V43.0045C64.9965 42.7984 65.196 42.6349 65.4478 42.5139C65.6996 42.3929 65.989 42.3324 66.316 42.3324C66.6398 42.3324 66.9325 42.3978 67.1941 42.5286C67.4557 42.6562 67.6798 42.836 67.8662 43.0682C68.0526 43.3004 68.1948 43.5768 68.2929 43.8972C68.3943 44.2145 68.445 44.5627 68.445 44.9421C68.445 45.3215 68.3943 45.6697 68.2929 45.987C68.1948 46.3042 68.0526 46.5789 67.8662 46.8111C67.6798 47.04 67.4557 47.2199 67.1941 47.3507C66.9325 47.4782 66.6398 47.542 66.316 47.542C65.989 47.542 65.6996 47.4815 65.4478 47.3605C65.196 47.2395 64.9965 47.076 64.8493 46.8699V47.4439ZM67.5915 44.9127C67.5915 44.651 67.5604 44.4074 67.4983 44.1818C67.4361 43.9561 67.3446 43.7615 67.2236 43.598C67.1026 43.4312 66.9521 43.3004 66.7723 43.2056C66.5957 43.1107 66.3929 43.0633 66.164 43.0633C65.9449 43.0633 65.7519 43.1009 65.5851 43.1761C65.4216 43.2514 65.2843 43.3544 65.1731 43.4852C65.0619 43.616 64.9769 43.7713 64.918 43.9512C64.8624 44.1278 64.8346 44.3207 64.8346 44.53V45.3443C64.8346 45.5536 64.8624 45.7482 64.918 45.9281C64.9769 46.1047 65.0619 46.2584 65.1731 46.3892C65.2843 46.52 65.4216 46.623 65.5851 46.6983C65.7519 46.7735 65.9449 46.8111 66.164 46.8111C66.3929 46.8111 66.5957 46.7637 66.7723 46.6688C66.9521 46.574 67.1026 46.4448 67.2236 46.2813C67.3446 46.1145 67.4361 45.9183 67.4983 45.6926C67.5604 45.467 67.5915 45.2233 67.5915 44.9617V44.9127ZM72.5165 46.9435C72.3694 47.1136 72.1699 47.2558 71.9181 47.3703C71.6695 47.4848 71.3768 47.542 71.04 47.542C70.7914 47.542 70.5609 47.5076 70.3483 47.439C70.1357 47.367 69.951 47.2656 69.794 47.1348C69.637 47.004 69.5144 46.8454 69.4261 46.659C69.3378 46.4726 69.2936 46.2617 69.2936 46.0262C69.2936 45.83 69.3247 45.6518 69.3869 45.4915C69.4523 45.328 69.5422 45.1857 69.6567 45.0647C69.7744 44.9437 69.915 44.8456 70.0785 44.7704C70.242 44.6919 70.4252 44.638 70.6279 44.6085L72.3988 44.3682V44.0493C72.3988 43.8596 72.3694 43.701 72.3105 43.5735C72.2516 43.4427 72.1715 43.3397 72.0701 43.2644C71.972 43.1892 71.8543 43.1353 71.7169 43.1026C71.5829 43.0699 71.4373 43.0535 71.2804 43.0535C70.9991 43.0535 70.7358 43.0928 70.4906 43.1712C70.2486 43.2497 70.0295 43.3413 69.8332 43.4459L69.5242 42.7935C69.812 42.63 70.1129 42.5123 70.4268 42.4403C70.744 42.3684 71.0563 42.3324 71.3637 42.3324C71.9753 42.3324 72.438 42.4714 72.752 42.7494C73.0659 43.0241 73.2229 43.4263 73.2229 43.9561V46.2666C73.2229 46.4334 73.2556 46.574 73.321 46.6884C73.3864 46.7996 73.4911 46.8879 73.635 46.9533L73.1689 47.542C73.012 47.5027 72.8763 47.4341 72.7618 47.336C72.6506 47.2346 72.5721 47.1136 72.5263 46.973L72.5165 46.9435ZM71.0498 45.2119C70.9124 45.2315 70.7865 45.2593 70.6721 45.2953C70.5609 45.3313 70.466 45.3803 70.3876 45.4425C70.3091 45.5013 70.2469 45.5749 70.2012 45.6632C70.1586 45.7515 70.1374 45.8594 70.1374 45.987C70.1374 46.1341 70.1652 46.2649 70.2208 46.3794C70.2764 46.4939 70.3516 46.5903 70.4464 46.6688C70.5413 46.7473 70.6508 46.8078 70.7751 46.8503C70.9026 46.8896 71.0351 46.9092 71.1724 46.9092C71.3261 46.9092 71.4766 46.8879 71.6237 46.8454C71.7709 46.8029 71.9017 46.7424 72.0162 46.6639C72.1306 46.5822 72.2222 46.484 72.2909 46.3696C72.3628 46.2551 72.3988 46.1243 72.3988 45.9772V45.0108L71.0498 45.2119ZM78.0204 46.8699C77.8733 47.076 77.6721 47.2395 77.4171 47.3605C77.1652 47.4815 76.8775 47.542 76.5537 47.542C76.2299 47.542 75.9372 47.4782 75.6756 47.3507C75.414 47.2199 75.19 47.04 75.0036 46.8111C74.8172 46.5789 74.6733 46.3042 74.5719 45.987C74.4738 45.6697 74.4247 45.3215 74.4247 44.9421C74.4247 44.5627 74.4738 44.2145 74.5719 43.8972C74.6733 43.5768 74.8172 43.3004 75.0036 43.0682C75.19 42.836 75.414 42.6562 75.6756 42.5286C75.9372 42.3978 76.2299 42.3324 76.5537 42.3324C76.8775 42.3324 77.1652 42.3929 77.4171 42.5139C77.6721 42.6349 77.8733 42.7984 78.0204 43.0045V40.4095H78.8445V47.4439H78.0204V46.8699ZM75.2783 44.9617C75.2783 45.2233 75.3094 45.467 75.3715 45.6926C75.4336 45.9183 75.5252 46.1145 75.6462 46.2813C75.7672 46.4448 75.916 46.574 76.0926 46.6688C76.2692 46.7637 76.4736 46.8111 76.7058 46.8111C76.9249 46.8111 77.1162 46.7735 77.2797 46.6983C77.4465 46.623 77.5855 46.52 77.6967 46.3892C77.8079 46.2584 77.8912 46.1047 77.9468 45.9281C78.0024 45.7482 78.0302 45.5536 78.0302 45.3443V44.53C78.0302 44.3207 78.0024 44.1278 77.9468 43.9512C77.8912 43.7713 77.8079 43.616 77.6967 43.4852C77.5855 43.3544 77.4465 43.2514 77.2797 43.1761C77.1162 43.1009 76.9249 43.0633 76.7058 43.0633C76.4736 43.0633 76.2692 43.1107 76.0926 43.2056C75.916 43.3004 75.7672 43.4312 75.6462 43.598C75.5252 43.7615 75.4336 43.9561 75.3715 44.1818C75.3094 44.4074 75.2783 44.651 75.2783 44.9127V44.9617Z" fill="#0B0C0C"/>
<circle cx="34.0993" cy="44.467" r="5.02317" fill="#651B3E"/>
<path d="M167.804 44.9267C167.804 45.4532 167.739 45.934 167.608 46.3689C167.477 46.8006 167.278 47.1701 167.009 47.4775C166.741 47.7849 166.404 48.0237 165.999 48.1937C165.597 48.3605 165.123 48.4439 164.576 48.4439H162.32V41.4095H164.576C165.123 41.4095 165.597 41.4945 165.999 41.6646C166.404 41.8314 166.741 42.0685 167.009 42.3759C167.278 42.6833 167.477 43.0545 167.608 43.4894C167.739 43.9211 167.804 44.4002 167.804 44.9267ZM166.877 44.7893C166.877 44.4231 166.831 44.0797 166.74 43.7592C166.648 43.4387 166.507 43.1607 166.318 42.9253C166.131 42.6865 165.891 42.4985 165.597 42.3612C165.306 42.2238 164.959 42.1551 164.557 42.1551H163.183V47.6983H164.557C164.959 47.6983 165.306 47.6312 165.597 47.4972C165.891 47.3598 166.131 47.1734 166.318 46.9379C166.507 46.6992 166.648 46.4196 166.74 46.0991C166.831 45.7786 166.877 45.4352 166.877 45.069V44.7893ZM171.15 43.3324C171.496 43.3324 171.812 43.3978 172.096 43.5287C172.381 43.6562 172.623 43.8361 172.822 44.0682C173.025 44.2972 173.182 44.5719 173.293 44.8924C173.405 45.2096 173.46 45.5595 173.46 45.9421C173.46 46.3182 173.405 46.6665 173.293 46.987C173.182 47.3042 173.025 47.5789 172.822 47.8111C172.623 48.04 172.381 48.2199 172.096 48.3507C171.812 48.4782 171.496 48.542 171.15 48.542C170.803 48.542 170.487 48.4782 170.203 48.3507C169.922 48.2199 169.68 48.04 169.477 47.8111C169.274 47.5789 169.117 47.3042 169.006 46.987C168.895 46.6665 168.839 46.3182 168.839 45.9421C168.839 45.5595 168.895 45.2096 169.006 44.8924C169.117 44.5719 169.274 44.2972 169.477 44.0682C169.68 43.8361 169.922 43.6562 170.203 43.5287C170.487 43.3978 170.803 43.3324 171.15 43.3324ZM171.15 47.8209C171.388 47.8209 171.598 47.7719 171.778 47.6737C171.961 47.5724 172.113 47.4367 172.234 47.2666C172.358 47.0965 172.451 46.9003 172.513 46.6779C172.576 46.4523 172.607 46.2168 172.607 45.9716V45.9127C172.607 45.6609 172.576 45.4222 172.513 45.1965C172.451 44.9708 172.358 44.7746 172.234 44.6078C172.113 44.4378 171.961 44.3037 171.778 44.2056C171.598 44.1042 171.388 44.0535 171.15 44.0535C170.911 44.0535 170.7 44.1042 170.517 44.2056C170.337 44.3037 170.185 44.4378 170.061 44.6078C169.94 44.7746 169.848 44.9708 169.786 45.1965C169.724 45.4222 169.693 45.6609 169.693 45.9127V45.9716C169.693 46.2168 169.724 46.4523 169.786 46.6779C169.848 46.9003 169.94 47.0965 170.061 47.2666C170.185 47.4367 170.337 47.5724 170.517 47.6737C170.7 47.7719 170.911 47.8209 171.15 47.8209ZM174.667 43.4305H175.491V44.0045C175.661 43.7723 175.87 43.6022 176.119 43.4943C176.371 43.3864 176.65 43.3324 176.958 43.3324C177.236 43.3324 177.479 43.3782 177.689 43.4698C177.898 43.5614 178.073 43.6856 178.214 43.8426C178.354 43.9996 178.459 44.1811 178.527 44.3871C178.599 44.5931 178.635 44.8106 178.635 45.0395V48.4439H177.811V45.2995C177.811 45.0804 177.783 44.894 177.728 44.7403C177.676 44.5833 177.602 44.4574 177.507 44.3626C177.416 44.2645 177.306 44.1942 177.178 44.1516C177.054 44.1059 176.92 44.083 176.776 44.083C176.619 44.083 176.464 44.1124 176.31 44.1713C176.16 44.2269 176.022 44.3119 175.898 44.4263C175.777 44.5408 175.679 44.6847 175.604 44.858C175.529 45.0314 175.491 45.2357 175.491 45.4712V48.4439H174.667V43.4305ZM180.495 41.3212C180.586 41.3212 180.673 41.3392 180.755 41.3752C180.84 41.4111 180.912 41.4618 180.97 41.5272C181.033 41.5894 181.082 41.6662 181.118 41.7578C181.154 41.8494 181.171 41.9491 181.171 42.057C181.171 42.1747 181.15 42.2957 181.108 42.42C181.065 42.5443 181 42.662 180.912 42.7732C180.823 42.8844 180.712 42.9858 180.578 43.0773C180.444 43.1689 180.285 43.2392 180.102 43.2883L179.994 43.3226L179.891 42.9891L179.955 42.9694C180.105 42.9171 180.238 42.8435 180.352 42.7487C180.467 42.6538 180.545 42.5492 180.588 42.4347H180.485C180.406 42.4347 180.333 42.4217 180.264 42.3955C180.199 42.3661 180.14 42.3268 180.087 42.2778C180.038 42.2287 179.999 42.1715 179.97 42.1061C179.94 42.0374 179.926 41.9638 179.926 41.8853C179.926 41.8068 179.94 41.7333 179.97 41.6646C179.999 41.5959 180.038 41.537 180.087 41.488C180.14 41.4357 180.2 41.3948 180.269 41.3654C180.341 41.3359 180.416 41.3212 180.495 41.3212ZM183.958 47.1979C183.958 47.2829 183.963 47.3631 183.972 47.4383C183.986 47.5102 184.013 47.574 184.056 47.6296C184.102 47.6852 184.167 47.7293 184.252 47.762C184.337 47.7947 184.453 47.8111 184.6 47.8111C184.64 47.8111 184.685 47.8095 184.738 47.8062C184.793 47.8029 184.851 47.7997 184.909 47.7964C184.968 47.7898 185.026 47.7833 185.081 47.7768C185.137 47.767 185.184 47.7588 185.223 47.7522L185.312 48.4733C185.217 48.4864 185.119 48.4979 185.017 48.5077C184.932 48.5175 184.837 48.5257 184.733 48.5322C184.628 48.5387 184.524 48.542 184.419 48.542C184.219 48.542 184.04 48.5208 183.879 48.4782C183.722 48.439 183.588 48.3736 183.477 48.282C183.366 48.1905 183.281 48.0711 183.222 47.9239C183.163 47.7735 183.134 47.592 183.134 47.3794V44.1565H182.187V43.4305H183.134V41.7921L183.958 41.5027V43.4305H185.351V44.1565H183.958V47.1979ZM189.207 45.8931L191.566 43.4305H192.601L190.693 45.4222L192.689 48.4439H191.684L190.109 45.9716L189.207 46.8987V48.4439H188.382V41.4095H189.207V45.8931ZM193.621 43.4305H194.446V44.0045C194.616 43.7723 194.825 43.6022 195.074 43.4943C195.325 43.3864 195.605 43.3324 195.912 43.3324C196.19 43.3324 196.434 43.3782 196.643 43.4698C196.853 43.5614 197.028 43.6856 197.168 43.8426C197.309 43.9996 197.413 44.1811 197.482 44.3871C197.554 44.5931 197.59 44.8106 197.59 45.0395V48.4439H196.766V45.2995C196.766 45.0804 196.738 44.894 196.682 44.7403C196.63 44.5833 196.557 44.4574 196.462 44.3626C196.37 44.2645 196.261 44.1942 196.133 44.1516C196.009 44.1059 195.875 44.083 195.731 44.083C195.574 44.083 195.419 44.1124 195.265 44.1713C195.114 44.2269 194.977 44.3119 194.853 44.4263C194.732 44.5408 194.634 44.6847 194.558 44.858C194.483 45.0314 194.446 45.2357 194.446 45.4712V48.4439H193.621V43.4305ZM201.063 43.3324C201.41 43.3324 201.725 43.3978 202.01 43.5287C202.294 43.6562 202.536 43.8361 202.736 44.0682C202.939 44.2972 203.096 44.5719 203.207 44.8924C203.318 45.2096 203.374 45.5595 203.374 45.9421C203.374 46.3182 203.318 46.6665 203.207 46.987C203.096 47.3042 202.939 47.5789 202.736 47.8111C202.536 48.04 202.294 48.2199 202.01 48.3507C201.725 48.4782 201.41 48.542 201.063 48.542C200.716 48.542 200.401 48.4782 200.116 48.3507C199.835 48.2199 199.593 48.04 199.39 47.8111C199.188 47.5789 199.031 47.3042 198.919 46.987C198.808 46.6665 198.753 46.3182 198.753 45.9421C198.753 45.5595 198.808 45.2096 198.919 44.8924C199.031 44.5719 199.188 44.2972 199.39 44.0682C199.593 43.8361 199.835 43.6562 200.116 43.5287C200.401 43.3978 200.716 43.3324 201.063 43.3324ZM201.063 47.8209C201.302 47.8209 201.511 47.7719 201.691 47.6737C201.874 47.5724 202.026 47.4367 202.147 47.2666C202.271 47.0965 202.365 46.9003 202.427 46.6779C202.489 46.4523 202.52 46.2168 202.52 45.9716V45.9127C202.52 45.6609 202.489 45.4222 202.427 45.1965C202.365 44.9708 202.271 44.7746 202.147 44.6078C202.026 44.4378 201.874 44.3037 201.691 44.2056C201.511 44.1042 201.302 44.0535 201.063 44.0535C200.824 44.0535 200.613 44.1042 200.43 44.2056C200.25 44.3037 200.098 44.4378 199.974 44.6078C199.853 44.7746 199.761 44.9708 199.699 45.1965C199.637 45.4222 199.606 45.6609 199.606 45.9127V45.9716C199.606 46.2168 199.637 46.4523 199.699 46.6779C199.761 46.9003 199.853 47.0965 199.974 47.2666C200.098 47.4367 200.25 47.5724 200.43 47.6737C200.613 47.7719 200.824 47.8209 201.063 47.8209ZM208.868 47.4677L209.775 43.4305H210.648L209.422 48.4439H208.367L207.352 44.4263L206.317 48.4439H205.301L204.085 43.4305H204.973L205.846 47.4677L206.901 43.4305H207.833L208.868 47.4677Z" fill="#0B0C0C"/>
<circle cx="152.98" cy="44.4671" r="5.02317" fill="#CECECE"/>
<path d="M151.725 261.58C150.492 261.58 149.492 262.579 149.492 263.812C149.492 265.045 150.492 266.045 151.725 266.045C152.958 266.045 153.957 265.045 153.957 263.812C153.957 262.579 152.958 261.58 151.725 261.58ZM151.725 64.5597L151.306 64.5597L151.306 263.812L151.725 263.812L152.143 263.812L152.143 64.5597L151.725 64.5597Z" fill="#CECECE"/>
<path d="M245.49 261.58C244.257 261.58 243.258 262.579 243.258 263.812C243.258 265.045 244.257 266.045 245.49 266.045C246.723 266.045 247.723 265.045 247.723 263.812C247.723 262.579 246.723 261.58 245.49 261.58ZM245.49 64.5597L245.072 64.5597L245.072 263.812L245.49 263.812L245.909 263.812L245.909 64.5597L245.49 64.5597Z" fill="#CECECE"/>
<path d="M337.582 261.58C336.349 261.58 335.35 262.579 335.35 263.812C335.35 265.045 336.349 266.045 337.582 266.045C338.815 266.045 339.815 265.045 339.815 263.812C339.815 262.579 338.815 261.58 337.582 261.58ZM337.582 64.5597L337.163 64.5597L337.163 263.812L337.582 263.812L338.001 263.812L338.001 64.5597L337.582 64.5597Z" fill="#CECECE"/>
<path d="M68.6299 217.18L68.6299 250.166L59.7393 250.165L59.7393 217.18L68.6299 217.18Z" fill="#651B3E" stroke="white" stroke-width="0.502317"/>
<path d="M72.3584 217.18L72.3584 250.165L69.1318 250.165L69.1318 217.18L72.3584 217.18Z" fill="#D7689D" stroke="white" stroke-width="0.502317"/>
<path d="M105.846 217.18L105.846 250.166L72.8603 250.165L72.8604 217.18L105.846 217.18Z" fill="#CECECE" stroke="white" stroke-width="0.502317"/>
<path d="M204.636 217.18L204.636 250.166L106.349 250.165L106.349 217.18L204.636 217.18Z" fill="#8AC0C3" stroke="white" stroke-width="0.502317"/>
<path d="M435.701 217.18L435.701 250.166L205.138 250.165L205.138 217.18L435.701 217.18Z" fill="#106165" stroke="white" stroke-width="0.502317"/>
<path d="M68.6299 71.5083L68.6299 104.494L59.7393 104.494L59.7393 71.5083L68.6299 71.5083Z" fill="#651B3E" stroke="white" stroke-width="0.502317"/>
<path d="M72.3584 71.5083L72.3584 104.493L69.1318 104.493L69.1318 71.5083L72.3584 71.5083Z" fill="#D7689D" stroke="white" stroke-width="0.502317"/>
<path d="M87.4277 71.5083L87.4277 104.494L72.8603 104.494L72.8604 71.5083L87.4277 71.5083Z" fill="#CECECE" stroke="white" stroke-width="0.502317"/>
<path d="M279.982 71.5083L279.982 104.494L84.581 104.494L84.5811 71.5083L279.982 71.5083Z" fill="#8AC0C3" stroke="white" stroke-width="0.502317"/>
<path d="M435.701 71.5083L435.701 104.494L280.485 104.494L280.485 71.5083L435.701 71.5083Z" fill="#106165" stroke="white" stroke-width="0.502317"/>
<path d="M74.0312 120.066L74.0312 153.051L59.4639 153.051L59.4639 120.066L74.0312 120.066Z" fill="#651B3E" stroke="white" stroke-width="0.502317"/>
<path d="M80.7275 120.066L80.7275 153.05L74.5322 153.05L74.5322 120.066L80.7275 120.066Z" fill="#D7689D" stroke="white" stroke-width="0.502317"/>
<path d="M84.0762 120.066L84.0762 153.051L81.2295 153.051L81.2295 120.066L84.0762 120.066Z" fill="#CECECE" stroke="white" stroke-width="0.502317"/>
<path d="M204.633 120.066L204.633 153.051L84.5791 153.051L84.5791 120.066L204.633 120.066Z" fill="#8AC0C3" stroke="white" stroke-width="0.502317"/>
<path d="M435.699 120.066L435.699 153.051L205.136 153.051L205.136 120.066L435.699 120.066Z" fill="#106165" stroke="white" stroke-width="0.502317"/>
<path d="M68.6299 168.623L68.6299 201.608L59.7393 201.608L59.7393 168.623L68.6299 168.623Z" fill="#651B3E" stroke="white" stroke-width="0.502317"/>
<path d="M72.3584 168.623L72.3584 201.607L69.1318 201.607L69.1318 168.623L72.3584 168.623Z" fill="#D7689D" stroke="white" stroke-width="0.502317"/>
<path d="M84.0791 168.623L84.0791 201.608L72.8603 201.608L72.8604 168.623L84.0791 168.623Z" fill="#CECECE" stroke="white" stroke-width="0.502317"/>
<path d="M151.055 168.623L151.055 201.608L84.581 201.608L84.5811 168.623L151.055 168.623Z" fill="#8AC0C3" stroke="white" stroke-width="0.502317"/>
<path d="M435.7 168.623L435.7 201.608L151.556 201.608L151.556 168.623L435.7 168.623Z" fill="#106165" stroke="white" stroke-width="0.502317"/>
<path d="M435.951 261.58C434.718 261.58 433.719 262.579 433.719 263.812C433.719 265.045 434.718 266.045 435.951 266.045C437.184 266.045 438.184 265.045 438.184 263.812C438.184 262.579 437.184 261.58 435.951 261.58ZM435.951 64.5597L435.533 64.5597L435.533 263.812L435.951 263.812L436.37 263.812L436.37 64.5597L435.951 64.5597Z" fill="#CECECE"/>
<path d="M59.6328 261.58C58.3998 261.58 57.4003 262.579 57.4003 263.812C57.4003 265.045 58.3998 266.045 59.6328 266.045C60.8658 266.045 61.8653 265.045 61.8653 263.812C61.8653 262.579 60.8658 261.58 59.6328 261.58ZM59.6328 64.5597L59.2142 64.5597L59.2142 263.812L59.6328 263.812L60.0514 263.812L60.0514 64.5597L59.6328 64.5597Z" fill="#CECECE"/>
</g>
<defs>
<clipPath id="clip0_1710_36603">
<rect width="480" height="320" fill="white"/>
</clipPath>
</defs>
</svg>
