<svg width="480" height="320" viewBox="0 0 480 320" fill="none" xmlns="http://www.w3.org/2000/svg">
<g clip-path="url(#clip0_1144_21796)">
<rect width="480" height="320" fill="white"/>
<path d="M480 0H0V320H480V0Z" fill="#1D70B8"/>
<circle cx="240.082" cy="160.082" r="127.082" fill="#F4F8FB"/>
<rect x="156.262" y="101.179" width="167.646" height="44.6763" rx="22.3381" fill="#0F385C"/>
<path d="M194.221 176.125L196.47 163.746H201.484L197.243 182.134H191.611L188.864 170.184L185.946 182.134H180.4L176.142 163.746H181.31L183.491 176.125L186.684 163.746H191.217L194.221 176.125ZM208.901 182.134H204.162V163.746H208.901V182.134ZM203.664 158.921C203.664 158.532 203.739 158.166 203.887 157.822C204.036 157.468 204.236 157.164 204.488 156.912C204.751 156.649 205.055 156.443 205.398 156.294C205.742 156.146 206.114 156.071 206.514 156.071C206.903 156.071 207.27 156.146 207.613 156.294C207.968 156.443 208.271 156.649 208.523 156.912C208.786 157.164 208.992 157.468 209.141 157.822C209.29 158.166 209.364 158.532 209.364 158.921C209.364 159.322 209.29 159.694 209.141 160.037C208.992 160.381 208.786 160.684 208.523 160.947C208.271 161.199 207.968 161.399 207.613 161.548C207.27 161.697 206.903 161.771 206.514 161.771C206.114 161.771 205.742 161.697 205.398 161.548C205.055 161.399 204.751 161.199 204.488 160.947C204.236 160.684 204.036 160.381 203.887 160.037C203.739 159.694 203.664 159.322 203.664 158.921ZM219.769 176.657C219.769 176.874 219.797 177.08 219.854 177.275C219.912 177.469 220.009 177.641 220.146 177.79C220.295 177.927 220.501 178.036 220.764 178.116C221.028 178.196 221.365 178.236 221.777 178.236C221.949 178.236 222.144 178.231 222.361 178.219C222.579 178.196 222.796 178.173 223.014 178.15C223.231 178.128 223.431 178.099 223.614 178.065C223.809 178.03 223.969 178.002 224.095 177.979L224.524 182.168C224.078 182.225 223.614 182.277 223.134 182.323C222.722 182.368 222.264 182.403 221.76 182.426C221.257 182.46 220.747 182.477 220.232 182.477C218.595 182.477 217.319 182.105 216.404 181.361C215.488 180.617 215.03 179.432 215.03 177.807V167.866H211.716V163.746H215.03V158.543L219.769 157.273V163.746H224.593V167.866H219.769V176.657ZM227.581 157.513H232.319V165.325C232.571 165.073 232.851 164.833 233.16 164.604C233.481 164.364 233.83 164.158 234.208 163.986C234.585 163.803 235.003 163.66 235.461 163.557C235.93 163.442 236.445 163.385 237.006 163.385C238.002 163.385 238.895 163.551 239.685 163.883C240.474 164.204 241.138 164.65 241.676 165.222C242.226 165.794 242.643 166.464 242.93 167.231C243.216 167.998 243.359 168.828 243.359 169.72V182.134H238.62V171.437C238.62 170.785 238.546 170.236 238.397 169.789C238.248 169.331 238.042 168.965 237.779 168.69C237.527 168.404 237.224 168.198 236.869 168.072C236.526 167.935 236.148 167.866 235.736 167.866C235.255 167.866 234.803 167.952 234.379 168.124C233.967 168.295 233.607 168.559 233.298 168.914C232.989 169.257 232.748 169.692 232.577 170.218C232.405 170.745 232.319 171.363 232.319 172.073V182.134H227.581V157.513ZM259.738 176.657C259.738 176.874 259.767 177.08 259.824 177.275C259.881 177.469 259.978 177.641 260.116 177.79C260.265 177.927 260.471 178.036 260.734 178.116C260.997 178.196 261.335 178.236 261.747 178.236C261.919 178.236 262.113 178.231 262.331 178.219C262.548 178.196 262.766 178.173 262.983 178.15C263.2 178.128 263.401 178.099 263.584 178.065C263.779 178.03 263.939 178.002 264.065 177.979L264.494 182.168C264.047 182.225 263.584 182.277 263.103 182.323C262.691 182.368 262.233 182.403 261.73 182.426C261.226 182.46 260.717 182.477 260.202 182.477C258.565 182.477 257.289 182.105 256.373 181.361C255.457 180.617 254.999 179.432 254.999 177.807V167.866H251.686V163.746H254.999V158.543L259.738 157.273V163.746H264.563V167.866H259.738V176.657ZM267.55 157.513H272.289V165.325C272.54 165.073 272.821 164.833 273.13 164.604C273.45 164.364 273.799 164.158 274.177 163.986C274.555 163.803 274.973 163.66 275.431 163.557C275.9 163.442 276.415 163.385 276.976 163.385C277.972 163.385 278.864 163.551 279.654 163.883C280.444 164.204 281.108 164.65 281.646 165.222C282.195 165.794 282.613 166.464 282.899 167.231C283.185 167.998 283.328 168.828 283.328 169.72V182.134H278.59V171.437C278.59 170.785 278.515 170.236 278.366 169.789C278.218 169.331 278.012 168.965 277.748 168.69C277.497 168.404 277.193 168.198 276.838 168.072C276.495 167.935 276.117 167.866 275.705 167.866C275.225 167.866 274.772 167.952 274.349 168.124C273.937 168.295 273.576 168.559 273.267 168.914C272.958 169.257 272.718 169.692 272.546 170.218C272.374 170.745 272.289 171.363 272.289 172.073V182.134H267.55V157.513ZM291.26 174.579C291.34 175.129 291.512 175.632 291.775 176.09C292.05 176.548 292.394 176.943 292.806 177.275C293.218 177.595 293.693 177.847 294.231 178.03C294.769 178.213 295.341 178.305 295.948 178.305C296.646 178.305 297.401 178.173 298.214 177.91C299.026 177.635 299.77 177.241 300.446 176.725L302.729 180.056C301.871 180.777 300.818 181.361 299.57 181.807C298.323 182.254 296.995 182.477 295.587 182.477C294.316 182.477 293.12 182.26 291.999 181.825C290.877 181.39 289.893 180.76 289.046 179.936C288.21 179.112 287.546 178.11 287.054 176.931C286.573 175.753 286.333 174.425 286.333 172.948C286.333 171.598 286.545 170.339 286.968 169.171C287.403 168.004 288.004 166.991 288.771 166.132C289.549 165.274 290.476 164.604 291.552 164.123C292.628 163.631 293.819 163.385 295.123 163.385C296.337 163.385 297.464 163.608 298.506 164.055C299.547 164.49 300.452 165.108 301.218 165.909C301.985 166.699 302.586 167.649 303.021 168.759C303.456 169.869 303.674 171.094 303.674 172.433V174.579H291.26ZM295.106 167.506C294.088 167.506 293.223 167.849 292.514 168.536C291.815 169.211 291.409 170.03 291.295 170.991H298.712C298.689 170.018 298.334 169.194 297.647 168.519C296.96 167.843 296.113 167.506 295.106 167.506ZM191.131 207.034C191.131 207.629 191.211 208.23 191.371 208.837C191.531 209.432 191.777 209.97 192.109 210.451C192.441 210.931 192.865 211.326 193.38 211.635C193.906 211.933 194.53 212.082 195.251 212.082C195.721 212.082 196.144 212.019 196.522 211.893C196.911 211.767 197.254 211.595 197.552 211.378C197.861 211.149 198.13 210.886 198.359 210.588C198.599 210.279 198.805 209.947 198.977 209.592L203.132 211.738C202.834 212.46 202.422 213.112 201.896 213.696C201.381 214.279 200.78 214.777 200.093 215.189C199.406 215.601 198.645 215.916 197.809 216.134C196.974 216.363 196.087 216.477 195.148 216.477C193.855 216.477 192.664 216.237 191.577 215.756C190.49 215.264 189.551 214.594 188.761 213.747C187.972 212.9 187.354 211.899 186.907 210.743C186.461 209.575 186.238 208.31 186.238 206.948C186.238 205.598 186.461 204.339 186.907 203.171C187.354 202.004 187.972 200.991 188.761 200.132C189.551 199.274 190.49 198.604 191.577 198.123C192.664 197.631 193.855 197.385 195.148 197.385C196.087 197.385 196.974 197.5 197.809 197.728C198.645 197.946 199.406 198.266 200.093 198.69C200.78 199.102 201.381 199.6 201.896 200.184C202.422 200.767 202.834 201.42 203.132 202.141L198.977 204.287C198.805 203.932 198.599 203.606 198.359 203.308C198.13 202.999 197.861 202.736 197.552 202.519C197.254 202.29 196.911 202.112 196.522 201.986C196.144 201.849 195.721 201.78 195.251 201.78C194.53 201.78 193.906 201.935 193.38 202.244C192.865 202.542 192.441 202.936 192.109 203.429C191.777 203.909 191.531 204.453 191.371 205.06C191.211 205.666 191.131 206.273 191.131 206.88V207.034ZM214.137 197.385C215.499 197.385 216.735 197.631 217.846 198.123C218.956 198.604 219.906 199.274 220.696 200.132C221.486 200.991 222.092 202.004 222.516 203.171C222.951 204.339 223.168 205.598 223.168 206.948C223.168 208.31 222.951 209.575 222.516 210.743C222.081 211.899 221.468 212.9 220.679 213.747C219.889 214.594 218.939 215.264 217.829 215.756C216.718 216.237 215.488 216.477 214.137 216.477C212.775 216.477 211.539 216.237 210.429 215.756C209.318 215.264 208.368 214.594 207.579 213.747C206.789 212.9 206.176 211.899 205.742 210.743C205.307 209.575 205.089 208.31 205.089 206.948C205.089 205.598 205.301 204.339 205.724 203.171C206.159 202.004 206.772 200.991 207.561 200.132C208.351 199.274 209.301 198.604 210.412 198.123C211.533 197.631 212.775 197.385 214.137 197.385ZM214.137 212.082C214.813 212.082 215.408 211.956 215.923 211.704C216.449 211.452 216.89 211.103 217.245 210.657C217.6 210.21 217.869 209.678 218.052 209.06C218.235 208.431 218.326 207.744 218.326 207V206.88C218.326 206.136 218.235 205.455 218.052 204.836C217.869 204.207 217.6 203.669 217.245 203.223C216.89 202.765 216.449 202.41 215.923 202.158C215.408 201.906 214.813 201.78 214.137 201.78C213.462 201.78 212.861 201.906 212.334 202.158C211.819 202.41 211.384 202.765 211.03 203.223C210.675 203.669 210.406 204.207 210.223 204.836C210.04 205.455 209.948 206.136 209.948 206.88V207C209.948 207.744 210.04 208.431 210.223 209.06C210.406 209.678 210.675 210.21 211.03 210.657C211.384 211.103 211.819 211.452 212.334 211.704C212.861 211.956 213.462 212.082 214.137 212.082ZM227.615 210.262C228.29 210.869 229.097 211.389 230.036 211.824C230.974 212.259 231.924 212.477 232.886 212.477C233.584 212.477 234.133 212.345 234.534 212.082C234.935 211.807 235.135 211.458 235.135 211.034C235.135 210.313 234.362 209.753 232.817 209.352L231.478 208.991C230.814 208.831 230.144 208.614 229.469 208.339C228.794 208.053 228.17 207.681 227.598 207.223C227.037 206.765 226.579 206.21 226.224 205.558C225.881 204.894 225.709 204.081 225.709 203.12C225.709 202.353 225.875 201.626 226.207 200.939C226.55 200.241 227.031 199.629 227.649 199.102C228.279 198.575 229.04 198.158 229.933 197.849C230.825 197.54 231.821 197.385 232.92 197.385C234.488 197.385 235.885 197.631 237.109 198.123C238.345 198.616 239.318 199.171 240.028 199.789L237.556 202.948C236.972 202.524 236.279 202.164 235.478 201.866C234.688 201.557 233.893 201.403 233.092 201.403C232.348 201.403 231.77 201.54 231.358 201.815C230.946 202.078 230.74 202.398 230.74 202.776C230.74 203.177 230.917 203.503 231.272 203.755C231.638 203.995 232.165 204.207 232.851 204.39L234.843 204.957C236.743 205.495 238.105 206.221 238.929 207.137C239.753 208.053 240.165 209.209 240.165 210.605C240.165 211.384 240.005 212.128 239.685 212.837C239.364 213.535 238.895 214.159 238.277 214.709C237.659 215.258 236.892 215.693 235.976 216.013C235.06 216.323 234.019 216.477 232.851 216.477C231.959 216.477 231.117 216.397 230.328 216.237C229.549 216.076 228.822 215.859 228.147 215.584C227.483 215.298 226.882 214.978 226.344 214.623C225.806 214.268 225.349 213.913 224.971 213.558L227.615 210.262ZM250.02 210.657C250.02 210.874 250.049 211.08 250.106 211.275C250.163 211.469 250.261 211.641 250.398 211.79C250.547 211.927 250.753 212.036 251.016 212.116C251.279 212.196 251.617 212.236 252.029 212.236C252.201 212.236 252.395 212.231 252.613 212.219C252.83 212.196 253.048 212.173 253.265 212.15C253.483 212.128 253.683 212.099 253.866 212.065C254.061 212.03 254.221 212.002 254.347 211.979L254.776 216.168C254.33 216.225 253.866 216.277 253.386 216.323C252.973 216.368 252.516 216.403 252.012 216.426C251.508 216.46 250.999 216.477 250.484 216.477C248.847 216.477 247.571 216.105 246.655 215.361C245.74 214.617 245.282 213.432 245.282 211.807V201.866H241.968V197.746H245.282V192.543L250.02 191.273V197.746H254.845V201.866H250.02V210.657ZM272.271 197.385C273.634 197.385 274.87 197.631 275.98 198.123C277.09 198.604 278.04 199.274 278.83 200.132C279.62 200.991 280.226 202.004 280.65 203.171C281.085 204.339 281.302 205.598 281.302 206.948C281.302 208.31 281.085 209.575 280.65 210.743C280.215 211.899 279.603 212.9 278.813 213.747C278.023 214.594 277.073 215.264 275.963 215.756C274.853 216.237 273.622 216.477 272.271 216.477C270.909 216.477 269.673 216.237 268.563 215.756C267.453 215.264 266.503 214.594 265.713 213.747C264.923 212.9 264.311 211.899 263.876 210.743C263.441 209.575 263.223 208.31 263.223 206.948C263.223 205.598 263.435 204.339 263.859 203.171C264.294 202.004 264.906 200.991 265.696 200.132C266.485 199.274 267.436 198.604 268.546 198.123C269.667 197.631 270.909 197.385 272.271 197.385ZM272.271 212.082C272.947 212.082 273.542 211.956 274.057 211.704C274.584 211.452 275.024 211.103 275.379 210.657C275.734 210.21 276.003 209.678 276.186 209.06C276.369 208.431 276.461 207.744 276.461 207V206.88C276.461 206.136 276.369 205.455 276.186 204.836C276.003 204.207 275.734 203.669 275.379 203.223C275.024 202.765 274.584 202.41 274.057 202.158C273.542 201.906 272.947 201.78 272.271 201.78C271.596 201.78 270.995 201.906 270.469 202.158C269.954 202.41 269.519 202.765 269.164 203.223C268.809 203.669 268.54 204.207 268.357 204.836C268.174 205.455 268.082 206.136 268.082 206.88V207C268.082 207.744 268.174 208.431 268.357 209.06C268.54 209.678 268.809 210.21 269.164 210.657C269.519 211.103 269.954 211.452 270.469 211.704C270.995 211.956 271.596 212.082 272.271 212.082ZM290.797 197.746H294.316V201.866H290.797V216.134H286.058V201.866H283.139V197.746H286.058V195.497C286.058 194.695 286.196 194.003 286.47 193.419C286.745 192.824 287.123 192.337 287.603 191.96C288.096 191.571 288.679 191.284 289.355 191.101C290.041 190.907 290.797 190.809 291.621 190.809C292.033 190.809 292.434 190.821 292.823 190.844C293.212 190.867 293.572 190.89 293.904 190.912C294.236 190.935 294.528 190.964 294.78 190.998C295.043 191.033 295.244 191.055 295.381 191.067L294.986 195.102C294.849 195.079 294.677 195.056 294.471 195.033C294.276 195.01 294.07 194.993 293.853 194.981C293.635 194.959 293.424 194.947 293.218 194.947C293.012 194.936 292.828 194.93 292.668 194.93C291.993 194.93 291.512 195.062 291.226 195.325C290.94 195.577 290.797 195.903 290.797 196.303V197.746ZM199.303 226.513H204.042V246.137C204.042 246.527 204.151 246.824 204.368 247.03C204.597 247.236 204.958 247.339 205.45 247.339C205.679 247.339 205.873 247.328 206.033 247.305C206.205 247.271 206.423 247.225 206.686 247.168L207.064 251.202C206.743 251.248 206.4 251.294 206.033 251.34C205.724 251.374 205.364 251.403 204.952 251.426C204.551 251.46 204.133 251.477 203.698 251.477C203.023 251.477 202.416 251.391 201.879 251.22C201.341 251.048 200.877 250.796 200.488 250.464C200.11 250.121 199.818 249.697 199.612 249.194C199.406 248.69 199.303 248.106 199.303 247.442V226.513ZM214.412 251.134H209.673V232.746H214.412V251.134ZM209.175 227.921C209.175 227.532 209.25 227.166 209.399 226.822C209.547 226.468 209.748 226.164 209.999 225.912C210.263 225.649 210.566 225.443 210.909 225.294C211.253 225.146 211.625 225.071 212.025 225.071C212.415 225.071 212.781 225.146 213.124 225.294C213.479 225.443 213.782 225.649 214.034 225.912C214.297 226.164 214.503 226.468 214.652 226.822C214.801 227.166 214.875 227.532 214.875 227.921C214.875 228.322 214.801 228.694 214.652 229.037C214.503 229.381 214.297 229.684 214.034 229.947C213.782 230.199 213.479 230.399 213.124 230.548C212.781 230.697 212.415 230.771 212.025 230.771C211.625 230.771 211.253 230.697 210.909 230.548C210.566 230.399 210.263 230.199 209.999 229.947C209.748 229.684 209.547 229.381 209.399 229.037C209.25 228.694 209.175 228.322 209.175 227.921ZM222.395 251.134L216.764 232.746H222.052L225.349 245.399L228.731 232.746H233.933L228.336 251.134H222.395ZM241.024 251.134H236.285V232.746H241.024V251.134ZM235.787 227.921C235.787 227.532 235.862 227.166 236.011 226.822C236.159 226.468 236.36 226.164 236.611 225.912C236.875 225.649 237.178 225.443 237.521 225.294C237.865 225.146 238.237 225.071 238.637 225.071C239.027 225.071 239.393 225.146 239.736 225.294C240.091 225.443 240.394 225.649 240.646 225.912C240.909 226.164 241.115 226.468 241.264 226.822C241.413 227.166 241.487 227.532 241.487 227.921C241.487 228.322 241.413 228.694 241.264 229.037C241.115 229.381 240.909 229.684 240.646 229.947C240.394 230.199 240.091 230.399 239.736 230.548C239.393 230.697 239.027 230.771 238.637 230.771C238.237 230.771 237.865 230.697 237.521 230.548C237.178 230.399 236.875 230.199 236.611 229.947C236.36 229.684 236.159 229.381 236.011 229.037C235.862 228.694 235.787 228.322 235.787 227.921ZM245.11 232.746H249.849V234.325C250.101 234.073 250.381 233.833 250.69 233.604C251.01 233.364 251.36 233.158 251.737 232.986C252.115 232.803 252.533 232.66 252.991 232.557C253.46 232.442 253.975 232.385 254.536 232.385C255.532 232.385 256.424 232.551 257.214 232.883C258.004 233.204 258.668 233.65 259.206 234.222C259.755 234.794 260.173 235.464 260.459 236.231C260.745 236.998 260.888 237.828 260.888 238.72V251.134H256.15V240.437C256.15 239.785 256.075 239.236 255.927 238.789C255.778 238.331 255.572 237.965 255.308 237.69C255.057 237.404 254.753 237.198 254.399 237.072C254.055 236.935 253.677 236.866 253.265 236.866C252.785 236.866 252.333 236.952 251.909 237.124C251.497 237.295 251.136 237.559 250.827 237.914C250.518 238.257 250.278 238.692 250.106 239.218C249.935 239.745 249.849 240.363 249.849 241.073V251.134H245.11V232.746ZM276.031 247.872C275.608 248.387 275.013 248.799 274.246 249.108C273.49 249.405 272.666 249.554 271.774 249.554C270.537 249.554 269.439 249.337 268.477 248.902C267.516 248.467 266.703 247.872 266.039 247.116C265.387 246.349 264.883 245.445 264.528 244.403C264.185 243.362 264.013 242.217 264.013 240.97C264.013 239.756 264.185 238.623 264.528 237.57C264.883 236.506 265.387 235.596 266.039 234.84C266.703 234.073 267.516 233.472 268.477 233.038C269.439 232.603 270.537 232.385 271.774 232.385C272.666 232.385 273.49 232.54 274.246 232.849C275.013 233.158 275.608 233.57 276.031 234.085V232.746H280.787V250.962C280.787 252.084 280.576 253.045 280.152 253.846C279.729 254.659 279.145 255.323 278.401 255.838C277.668 256.353 276.816 256.725 275.843 256.954C274.87 257.194 273.834 257.315 272.735 257.315C271.396 257.315 269.999 257.154 268.546 256.834C267.092 256.525 265.839 256.136 264.786 255.666L266.125 251.838C266.445 251.975 266.84 252.124 267.31 252.284C267.779 252.456 268.283 252.604 268.82 252.73C269.358 252.856 269.919 252.959 270.503 253.039C271.098 253.131 271.676 253.177 272.237 253.177C272.729 253.177 273.204 253.125 273.662 253.022C274.12 252.931 274.521 252.77 274.864 252.542C275.219 252.324 275.499 252.032 275.705 251.666C275.923 251.311 276.031 250.853 276.031 250.292V247.872ZM268.889 241.038C268.889 241.645 268.952 242.217 269.078 242.755C269.215 243.282 269.427 243.734 269.713 244.112C270.011 244.478 270.389 244.77 270.846 244.987C271.304 245.193 271.859 245.296 272.512 245.296C273.805 245.296 274.727 244.89 275.276 244.077C275.825 243.253 276.1 242.24 276.1 241.038V240.901C276.1 240.294 276.037 239.728 275.911 239.201C275.785 238.675 275.579 238.223 275.293 237.845C275.007 237.467 274.635 237.175 274.177 236.969C273.731 236.752 273.176 236.643 272.512 236.643C271.23 236.643 270.303 237.049 269.73 237.862C269.17 238.675 268.889 239.688 268.889 240.901V241.038Z" fill="#1D70B8"/>
<path d="M180.383 128.013C181.058 128.62 181.865 129.141 182.804 129.576C183.742 130.011 184.692 130.228 185.654 130.228C186.352 130.228 186.901 130.096 187.302 129.833C187.703 129.558 187.903 129.209 187.903 128.786C187.903 128.065 187.13 127.504 185.585 127.103L184.246 126.743C183.582 126.583 182.912 126.365 182.237 126.09C181.562 125.804 180.938 125.432 180.366 124.974C179.805 124.517 179.347 123.961 178.992 123.309C178.649 122.645 178.477 121.832 178.477 120.871C178.477 120.104 178.643 119.377 178.975 118.691C179.318 117.992 179.799 117.38 180.417 116.853C181.047 116.327 181.808 115.909 182.701 115.6C183.594 115.291 184.589 115.137 185.688 115.137C187.256 115.137 188.653 115.383 189.877 115.875C191.114 116.367 192.086 116.922 192.796 117.54L190.324 120.699C189.74 120.276 189.048 119.915 188.246 119.618C187.457 119.309 186.661 119.154 185.86 119.154C185.116 119.154 184.538 119.291 184.126 119.566C183.714 119.829 183.508 120.15 183.508 120.528C183.508 120.928 183.685 121.254 184.04 121.506C184.406 121.747 184.933 121.958 185.619 122.141L187.611 122.708C189.511 123.246 190.873 123.973 191.697 124.889C192.521 125.804 192.933 126.96 192.933 128.357C192.933 129.135 192.773 129.879 192.453 130.589C192.132 131.287 191.663 131.911 191.045 132.46C190.427 133.009 189.66 133.444 188.744 133.765C187.829 134.074 186.787 134.228 185.619 134.228C184.727 134.228 183.885 134.148 183.096 133.988C182.317 133.828 181.59 133.61 180.915 133.336C180.251 133.05 179.65 132.729 179.112 132.374C178.574 132.019 178.117 131.665 177.739 131.31L180.383 128.013ZM211.648 133.885H206.909V132.306C206.646 132.557 206.36 132.803 206.051 133.044C205.742 133.273 205.398 133.479 205.02 133.662C204.643 133.834 204.219 133.971 203.75 134.074C203.292 134.177 202.783 134.228 202.222 134.228C201.226 134.228 200.333 134.068 199.544 133.748C198.754 133.416 198.084 132.969 197.535 132.409C196.997 131.836 196.585 131.167 196.299 130.4C196.012 129.633 195.869 128.803 195.869 127.91V115.497H200.608V126.176C200.608 126.829 200.677 127.384 200.814 127.842C200.963 128.299 201.163 128.671 201.415 128.958C201.678 129.232 201.987 129.438 202.342 129.576C202.697 129.702 203.08 129.765 203.492 129.765C203.973 129.765 204.42 129.679 204.832 129.507C205.255 129.335 205.621 129.078 205.93 128.734C206.239 128.38 206.48 127.939 206.652 127.412C206.823 126.886 206.909 126.268 206.909 125.558V115.497H211.648V133.885ZM220.49 139.688H215.751V115.497H220.49V117.077C221.005 116.539 221.64 116.081 222.395 115.703C223.151 115.325 224.067 115.137 225.143 115.137C226.356 115.137 227.455 115.383 228.439 115.875C229.435 116.356 230.288 117.025 230.997 117.884C231.707 118.731 232.256 119.738 232.645 120.905C233.035 122.073 233.229 123.338 233.229 124.7C233.229 126.062 233.029 127.327 232.628 128.494C232.228 129.661 231.667 130.669 230.946 131.516C230.225 132.363 229.36 133.027 228.353 133.507C227.346 133.988 226.236 134.228 225.022 134.228C224.484 134.228 223.992 134.177 223.546 134.074C223.111 133.982 222.71 133.851 222.344 133.679C221.978 133.507 221.64 133.307 221.331 133.078C221.022 132.838 220.742 132.58 220.49 132.306V139.688ZM220.352 126.399C220.352 126.892 220.438 127.349 220.61 127.773C220.793 128.185 221.051 128.546 221.383 128.855C221.714 129.164 222.109 129.404 222.567 129.576C223.036 129.747 223.563 129.833 224.147 129.833C224.822 129.833 225.417 129.713 225.932 129.473C226.459 129.221 226.899 128.872 227.254 128.425C227.609 127.979 227.878 127.452 228.061 126.846C228.244 126.228 228.336 125.552 228.336 124.82V124.597C228.336 123.864 228.244 123.189 228.061 122.571C227.878 121.953 227.609 121.42 227.254 120.974C226.899 120.516 226.459 120.161 225.932 119.91C225.417 119.658 224.822 119.532 224.147 119.532C223.563 119.532 223.036 119.618 222.567 119.789C222.109 119.961 221.714 120.201 221.383 120.51C221.051 120.819 220.793 121.186 220.61 121.609C220.438 122.033 220.352 122.491 220.352 122.983V126.399ZM241.127 139.688H236.388V115.497H241.127V117.077C241.642 116.539 242.277 116.081 243.033 115.703C243.788 115.325 244.704 115.137 245.78 115.137C246.993 115.137 248.092 115.383 249.076 115.875C250.072 116.356 250.925 117.025 251.634 117.884C252.344 118.731 252.893 119.738 253.283 120.905C253.672 122.073 253.866 123.338 253.866 124.7C253.866 126.062 253.666 127.327 253.265 128.494C252.865 129.661 252.304 130.669 251.583 131.516C250.862 132.363 249.998 133.027 248.99 133.507C247.983 133.988 246.873 134.228 245.659 134.228C245.122 134.228 244.629 134.177 244.183 134.074C243.748 133.982 243.347 133.851 242.981 133.679C242.615 133.507 242.277 133.307 241.968 133.078C241.659 132.838 241.379 132.58 241.127 132.306V139.688ZM240.99 126.399C240.99 126.892 241.075 127.349 241.247 127.773C241.43 128.185 241.688 128.546 242.02 128.855C242.352 129.164 242.746 129.404 243.204 129.576C243.674 129.747 244.2 129.833 244.784 129.833C245.459 129.833 246.054 129.713 246.569 129.473C247.096 129.221 247.537 128.872 247.891 128.425C248.246 127.979 248.515 127.452 248.698 126.846C248.882 126.228 248.973 125.552 248.973 124.82V124.597C248.973 123.864 248.882 123.189 248.698 122.571C248.515 121.953 248.246 121.42 247.891 120.974C247.537 120.516 247.096 120.161 246.569 119.91C246.054 119.658 245.459 119.532 244.784 119.532C244.2 119.532 243.674 119.618 243.204 119.789C242.746 119.961 242.352 120.201 242.02 120.51C241.688 120.819 241.43 121.186 241.247 121.609C241.075 122.033 240.99 122.491 240.99 122.983V126.399ZM265.112 115.137C266.474 115.137 267.71 115.383 268.82 115.875C269.931 116.356 270.881 117.025 271.671 117.884C272.46 118.742 273.067 119.755 273.49 120.922C273.925 122.09 274.143 123.349 274.143 124.7C274.143 126.062 273.925 127.327 273.49 128.494C273.055 129.65 272.443 130.652 271.653 131.499C270.864 132.346 269.914 133.015 268.803 133.507C267.693 133.988 266.463 134.228 265.112 134.228C263.75 134.228 262.514 133.988 261.403 133.507C260.293 133.015 259.343 132.346 258.553 131.499C257.764 130.652 257.151 129.65 256.716 128.494C256.281 127.327 256.064 126.062 256.064 124.7C256.064 123.349 256.276 122.09 256.699 120.922C257.134 119.755 257.746 118.742 258.536 117.884C259.326 117.025 260.276 116.356 261.386 115.875C262.508 115.383 263.75 115.137 265.112 115.137ZM265.112 129.833C265.787 129.833 266.382 129.707 266.898 129.455C267.424 129.204 267.865 128.855 268.22 128.408C268.574 127.962 268.843 127.43 269.026 126.811C269.21 126.182 269.301 125.495 269.301 124.751V124.631C269.301 123.887 269.21 123.206 269.026 122.588C268.843 121.958 268.574 121.42 268.22 120.974C267.865 120.516 267.424 120.161 266.898 119.91C266.382 119.658 265.787 119.532 265.112 119.532C264.437 119.532 263.836 119.658 263.309 119.91C262.794 120.161 262.359 120.516 262.004 120.974C261.65 121.42 261.381 121.958 261.197 122.588C261.014 123.206 260.923 123.887 260.923 124.631V124.751C260.923 125.495 261.014 126.182 261.197 126.811C261.381 127.43 261.65 127.962 262.004 128.408C262.359 128.855 262.794 129.204 263.309 129.455C263.836 129.707 264.437 129.833 265.112 129.833ZM287.621 120.098H287.123C286.447 120.098 285.801 120.167 285.183 120.304C284.576 120.442 284.038 120.694 283.569 121.06C283.099 121.415 282.722 121.907 282.435 122.536C282.161 123.166 282.023 123.973 282.023 124.957V133.885H277.285V115.497H282.023V117.575C282.218 117.265 282.47 116.968 282.779 116.682C283.088 116.396 283.448 116.144 283.861 115.926C284.273 115.697 284.736 115.514 285.251 115.377C285.766 115.24 286.321 115.171 286.917 115.171H287.621V120.098ZM297.355 128.408C297.355 128.626 297.384 128.832 297.441 129.026C297.498 129.221 297.596 129.393 297.733 129.541C297.882 129.679 298.088 129.787 298.351 129.868C298.614 129.948 298.952 129.988 299.364 129.988C299.536 129.988 299.73 129.982 299.948 129.971C300.165 129.948 300.383 129.925 300.6 129.902C300.818 129.879 301.018 129.85 301.201 129.816C301.396 129.782 301.556 129.753 301.682 129.73L302.111 133.919C301.665 133.977 301.201 134.028 300.72 134.074C300.308 134.12 299.851 134.154 299.347 134.177C298.843 134.211 298.334 134.228 297.819 134.228C296.182 134.228 294.906 133.856 293.99 133.112C293.075 132.368 292.617 131.184 292.617 129.558V119.618H289.303V115.497H292.617V110.295L297.355 109.024V115.497H302.18V119.618H297.355V128.408Z" fill="white"/>
<path d="M216.81 78.6649C216.81 79.718 216.942 80.7309 217.205 81.7038C217.468 82.6768 217.869 83.5352 218.407 84.2792C218.945 85.0232 219.632 85.6241 220.467 86.0819C221.303 86.5283 222.298 86.7515 223.455 86.7515C224.565 86.7515 225.486 86.5741 226.219 86.2193C226.963 85.8645 227.552 85.4238 227.987 84.8973C228.434 84.3593 228.743 83.7813 228.914 83.1632C229.097 82.5451 229.189 81.9728 229.189 81.4463V81.2059H222.888V77.4116H234.031V90.9064H229.67V88.022C229.361 88.5028 228.977 88.9434 228.519 89.3441C228.062 89.7332 227.546 90.0709 226.974 90.357C226.402 90.6317 225.772 90.8492 225.086 91.0094C224.41 91.1697 223.689 91.2498 222.922 91.2498C221.125 91.2498 219.529 90.9236 218.132 90.2712C216.736 89.6188 215.557 88.7202 214.595 87.5756C213.645 86.431 212.918 85.0919 212.415 83.5581C211.923 82.0243 211.677 80.3704 211.677 78.5963C211.677 76.8336 211.951 75.1853 212.501 73.6516C213.062 72.1064 213.851 70.7672 214.87 69.634C215.9 68.4894 217.136 67.5909 218.579 66.9385C220.032 66.2746 221.657 65.9427 223.455 65.9427C224.622 65.9427 225.727 66.0801 226.768 66.3548C227.821 66.618 228.777 67.0015 229.635 67.5051C230.505 67.9973 231.272 68.5982 231.936 69.3078C232.6 70.006 233.138 70.7844 233.55 71.6428L229.189 74.098C228.926 73.5715 228.617 73.085 228.262 72.6386C227.907 72.1808 227.495 71.7916 227.026 71.4711C226.568 71.1392 226.041 70.8817 225.446 70.6985C224.851 70.5039 224.187 70.4066 223.455 70.4066C222.298 70.4066 221.303 70.6356 220.467 71.0934C219.632 71.5398 218.945 72.135 218.407 72.879C217.869 73.623 217.468 74.4871 217.205 75.4715C216.942 76.4444 216.81 77.4517 216.81 78.4932V78.6649ZM241.86 83.3521C241.94 83.9015 242.111 84.4051 242.375 84.8629C242.649 85.3208 242.993 85.7157 243.405 86.0476C243.817 86.3681 244.292 86.6199 244.83 86.803C245.368 86.9862 245.94 87.0777 246.547 87.0777C247.245 87.0777 248 86.9461 248.813 86.6829C249.626 86.4082 250.37 86.0133 251.045 85.4982L253.329 88.829C252.47 89.5501 251.417 90.1338 250.169 90.5802C248.922 91.0266 247.594 91.2498 246.186 91.2498C244.916 91.2498 243.72 91.0323 242.598 90.5974C241.476 90.1624 240.492 89.5329 239.645 88.7088C238.809 87.8847 238.145 86.8832 237.653 85.7042C237.173 84.5253 236.932 83.1976 236.932 81.721C236.932 80.3704 237.144 79.1113 237.567 77.9438C238.002 76.7763 238.603 75.7634 239.37 74.9049C240.149 74.0465 241.076 73.3769 242.152 72.8961C243.227 72.404 244.418 72.1579 245.723 72.1579C246.936 72.1579 248.063 72.3811 249.105 72.8275C250.147 73.2624 251.051 73.8805 251.818 74.6817C252.585 75.4715 253.186 76.4215 253.62 77.5318C254.055 78.642 254.273 79.8668 254.273 81.2059V83.3521H241.86ZM245.706 76.2784C244.687 76.2784 243.823 76.6218 243.113 77.3086C242.415 77.9839 242.008 78.8023 241.894 79.7637H249.311C249.288 78.7908 248.933 77.9667 248.247 77.2914C247.56 76.6161 246.713 76.2784 245.706 76.2784ZM264.076 85.4295C264.076 85.647 264.105 85.853 264.162 86.0476C264.219 86.2422 264.317 86.4139 264.454 86.5627C264.603 86.7 264.809 86.8088 265.072 86.8889C265.335 86.969 265.673 87.0091 266.085 87.0091C266.257 87.0091 266.451 87.0033 266.669 86.9919C266.886 86.969 267.104 86.9461 267.321 86.9232C267.539 86.9003 267.739 86.8717 267.922 86.8374C268.117 86.803 268.277 86.7744 268.403 86.7515L268.832 90.9408C268.386 90.998 267.922 91.0495 267.442 91.0953C267.029 91.1411 266.572 91.1754 266.068 91.1983C265.564 91.2326 265.055 91.2498 264.54 91.2498C262.903 91.2498 261.627 90.8778 260.711 90.1338C259.796 89.3898 259.338 88.2052 259.338 86.5798V76.639H256.024V72.5184H259.338V67.3162L264.076 66.0457V72.5184H268.901V76.639H264.076V85.4295Z" fill="#1D70B8"/>
<circle cx="33.309" cy="28.809" r="10.809" fill="#11E0F1"/>
<path d="M56.9897 23.2244C57.4578 23.2244 57.8984 23.296 58.3115 23.4392C58.7245 23.5769 59.0852 23.7752 59.3937 24.034C59.7021 24.2929 59.9444 24.6068 60.1206 24.9758C60.3024 25.3393 60.3932 25.7441 60.3932 26.1902C60.3932 26.4821 60.3437 26.7657 60.2445 27.0411C60.1509 27.3164 60.0215 27.5725 59.8563 27.8093C59.691 28.0406 59.4955 28.2472 59.2697 28.4289C59.0439 28.6051 58.7989 28.7428 58.5345 28.842C58.8319 28.886 59.1321 28.9824 59.435 29.1311C59.7434 29.2743 60.0187 29.4698 60.2611 29.7176C60.5034 29.96 60.7017 30.2491 60.8559 30.585C61.0101 30.921 61.0872 31.2983 61.0872 31.7168C61.0872 32.2951 60.977 32.7963 60.7567 33.2203C60.5419 33.6444 60.25 33.9941 59.8811 34.2695C59.5121 34.5393 59.0797 34.7404 58.5841 34.8725C58.0939 35.0047 57.5735 35.0708 57.0227 35.0708H52.5122V23.2244H56.9897ZM59.5837 31.7003C59.5837 31.3423 59.5148 31.0311 59.3771 30.7668C59.245 30.4969 59.0605 30.2766 58.8236 30.1059C58.5923 29.9297 58.317 29.8002 57.9975 29.7176C57.6836 29.6295 57.3477 29.5855 56.9897 29.5855H53.9661V33.8564H57.0393C57.3862 33.8564 57.7139 33.8151 58.0223 33.7325C58.3307 33.6499 58.6006 33.5232 58.8319 33.3525C59.0632 33.1763 59.245 32.9532 59.3771 32.6834C59.5148 32.408 59.5837 32.0803 59.5837 31.7003ZM58.9228 26.3884C58.9228 26.1241 58.8787 25.8762 58.7906 25.6449C58.708 25.4081 58.5703 25.2016 58.3775 25.0254C58.1903 24.8491 57.948 24.7087 57.6506 24.604C57.3532 24.4994 56.9924 24.4471 56.5684 24.4471H53.9661V28.3876H56.5684C56.9924 28.3876 57.3532 28.3353 57.6506 28.2306C57.948 28.1205 58.1903 27.9746 58.3775 27.7928C58.5703 27.6111 58.708 27.399 58.7906 27.1567C58.8787 26.9144 58.9228 26.6583 58.9228 26.3884ZM64.152 31.279C64.1796 31.6755 64.2594 32.0417 64.3916 32.3777C64.5238 32.7136 64.7028 33.0055 64.9286 33.2534C65.1599 33.4957 65.4297 33.6857 65.7381 33.8234C66.0521 33.9556 66.399 34.0216 66.779 34.0216C67.2472 34.0216 67.6575 33.9445 68.0099 33.7903C68.3679 33.6306 68.6956 33.4324 68.993 33.1955L69.7034 34.1951C69.3234 34.498 68.8829 34.7486 68.3817 34.9469C67.886 35.1396 67.3298 35.236 66.7129 35.236C66.1016 35.236 65.5481 35.1286 65.0525 34.9138C64.5568 34.6935 64.1327 34.3906 63.7803 34.0051C63.4333 33.6141 63.1662 33.1515 62.9789 32.6173C62.7917 32.0775 62.6981 31.491 62.6981 30.8577C62.6981 30.2133 62.7889 29.624 62.9707 29.0898C63.1579 28.5501 63.4195 28.0875 63.7555 27.7019C64.0914 27.3109 64.4935 27.008 64.9616 26.7932C65.4297 26.5729 65.9502 26.4628 66.5229 26.4628C67.0792 26.4628 67.5804 26.5729 68.0265 26.7932C68.4726 27.008 68.8526 27.3109 69.1665 27.7019C69.4804 28.0875 69.72 28.5501 69.8852 29.0898C70.0559 29.624 70.1413 30.2078 70.1413 30.8411V31.279H64.152ZM66.4734 27.6772C66.1209 27.6772 65.807 27.746 65.5316 27.8837C65.2562 28.0214 65.0194 28.2059 64.8212 28.4372C64.6284 28.6685 64.4742 28.9356 64.3585 29.2385C64.2484 29.5359 64.1851 29.8443 64.1685 30.1637H68.6378C68.6268 29.8388 68.5689 29.5276 68.4643 29.2302C68.3652 28.9273 68.222 28.663 68.0347 28.4372C67.853 28.2059 67.6299 28.0214 67.3656 27.8837C67.1067 27.746 66.8093 27.6772 66.4734 27.6772ZM72.0826 26.628H73.4705V27.5945C73.7569 27.2035 74.1093 26.9171 74.5279 26.7354C74.952 26.5537 75.4229 26.4628 75.9405 26.4628C76.4087 26.4628 76.819 26.5399 77.1714 26.6941C77.5239 26.8483 77.8186 27.0576 78.0554 27.3219C78.2922 27.5863 78.4684 27.8919 78.5841 28.2389C78.7052 28.5859 78.7658 28.9521 78.7658 29.3376V35.0708H77.378V29.7755C77.378 29.4065 77.3312 29.0926 77.2375 28.8337C77.1494 28.5694 77.0255 28.3573 76.8658 28.1976C76.7116 28.0324 76.5271 27.914 76.3123 27.8424C76.103 27.7653 75.8772 27.7267 75.6349 27.7267C75.3705 27.7267 75.1089 27.7763 74.8501 27.8754C74.5967 27.969 74.3654 28.1122 74.1562 28.305C73.9524 28.4978 73.7872 28.7401 73.6605 29.032C73.5338 29.3239 73.4705 29.6681 73.4705 30.0646V35.0708H72.0826V26.628ZM82.1776 31.279C82.2052 31.6755 82.285 32.0417 82.4172 32.3777C82.5494 32.7136 82.7284 33.0055 82.9542 33.2534C83.1855 33.4957 83.4554 33.6857 83.7638 33.8234C84.0777 33.9556 84.4246 34.0216 84.8047 34.0216C85.2728 34.0216 85.6831 33.9445 86.0356 33.7903C86.3935 33.6306 86.7212 33.4324 87.0186 33.1955L87.7291 34.1951C87.3491 34.498 86.9085 34.7486 86.4073 34.9469C85.9116 35.1396 85.3554 35.236 84.7386 35.236C84.1272 35.236 83.5738 35.1286 83.0781 34.9138C82.5824 34.6935 82.1584 34.3906 81.8059 34.0051C81.4589 33.6141 81.1918 33.1515 81.0046 32.6173C80.8173 32.0775 80.7237 31.491 80.7237 30.8577C80.7237 30.2133 80.8146 29.624 80.9963 29.0898C81.1836 28.5501 81.4452 28.0875 81.7811 27.7019C82.1171 27.3109 82.5191 27.008 82.9872 26.7932C83.4554 26.5729 83.9758 26.4628 84.5486 26.4628C85.1048 26.4628 85.606 26.5729 86.0521 26.7932C86.4982 27.008 86.8782 27.3109 87.1921 27.7019C87.506 28.0875 87.7456 28.5501 87.9108 29.0898C88.0815 29.624 88.1669 30.2078 88.1669 30.8411V31.279H82.1776ZM84.499 27.6772C84.1465 27.6772 83.8326 27.746 83.5572 27.8837C83.2819 28.0214 83.0451 28.2059 82.8468 28.4372C82.654 28.6685 82.4998 28.9356 82.3842 29.2385C82.274 29.5359 82.2107 29.8443 82.1942 30.1637H86.6634C86.6524 29.8388 86.5946 29.5276 86.4899 29.2302C86.3908 28.9273 86.2476 28.663 86.0603 28.4372C85.8786 28.2059 85.6555 28.0214 85.3912 27.8837C85.1323 27.746 84.8349 27.6772 84.499 27.6772ZM92.0826 26.628H93.7596V27.8506H92.0826V35.0708H90.6948V27.8506H89.2904V26.628H90.6948V25.0584C90.6948 24.6949 90.7526 24.3865 90.8683 24.1332C90.9839 23.8798 91.1436 23.6761 91.3474 23.5218C91.5567 23.3621 91.8018 23.2492 92.0826 23.1831C92.369 23.1115 92.6802 23.0757 93.0161 23.0757C93.3576 23.0757 93.6412 23.0923 93.867 23.1253C94.0928 23.1529 94.2608 23.1749 94.371 23.1914L94.2636 24.381C94.181 24.3755 94.0846 24.3672 93.9744 24.3562C93.8698 24.3452 93.7596 24.3369 93.644 24.3314C93.5338 24.3259 93.4264 24.3204 93.3218 24.3149C93.2172 24.3094 93.1318 24.3066 93.0657 24.3066C92.8674 24.3066 92.705 24.3369 92.5783 24.3975C92.4516 24.4526 92.3498 24.5269 92.2727 24.6206C92.2011 24.7142 92.1515 24.8216 92.124 24.9427C92.0964 25.0639 92.0826 25.1906 92.0826 25.3228V26.628ZM96.8988 35.0708H95.511V26.628H96.8988V35.0708ZM95.2549 24.191C95.2549 24.0588 95.2797 23.9349 95.3292 23.8192C95.3843 23.7036 95.4532 23.6017 95.5358 23.5136C95.6239 23.4255 95.7258 23.3566 95.8414 23.3071C95.9626 23.252 96.0893 23.2244 96.2214 23.2244C96.3536 23.2244 96.4775 23.252 96.5932 23.3071C96.7088 23.3566 96.808 23.4255 96.8906 23.5136C96.9787 23.6017 97.0475 23.7036 97.0971 23.8192C97.1522 23.9349 97.1797 24.0588 97.1797 24.191C97.1797 24.3232 97.1522 24.4498 97.0971 24.571C97.0475 24.6867 96.9787 24.7885 96.8906 24.8767C96.808 24.9593 96.7088 25.0281 96.5932 25.0832C96.4775 25.1328 96.3536 25.1575 96.2214 25.1575C96.0893 25.1575 95.9626 25.1328 95.8414 25.0832C95.7258 25.0281 95.6239 24.9593 95.5358 24.8767C95.4532 24.7885 95.3843 24.6867 95.3292 24.571C95.2797 24.4498 95.2549 24.3232 95.2549 24.191ZM101.624 32.9725C101.624 33.1157 101.632 33.2506 101.649 33.3773C101.671 33.4984 101.718 33.6058 101.789 33.6995C101.866 33.7931 101.977 33.8674 102.12 33.9225C102.263 33.9776 102.459 34.0051 102.706 34.0051C102.772 34.0051 102.85 34.0024 102.938 33.9969C103.031 33.9914 103.128 33.9858 103.227 33.9803C103.326 33.9693 103.422 33.9583 103.516 33.9473C103.61 33.9308 103.689 33.917 103.756 33.906L103.904 35.1204C103.745 35.1424 103.579 35.1617 103.409 35.1782C103.265 35.1947 103.106 35.2085 102.929 35.2195C102.753 35.2305 102.577 35.236 102.401 35.236C102.065 35.236 101.762 35.2002 101.492 35.1286C101.228 35.0625 101.002 34.9524 100.815 34.7982C100.627 34.644 100.484 34.443 100.385 34.1951C100.286 33.9418 100.236 33.6361 100.236 33.2782V27.8506H98.6419V26.628H100.236V23.8688L101.624 23.3814V26.628H103.97V27.8506H101.624V32.9725ZM111.339 32.7329C111.339 33.1295 111.251 33.4847 111.075 33.7986C110.904 34.107 110.676 34.3686 110.389 34.5834C110.103 34.7982 109.772 34.9607 109.398 35.0708C109.029 35.1809 108.649 35.236 108.258 35.236C107.641 35.236 107.046 35.1314 106.473 34.9221C105.906 34.7073 105.402 34.4017 104.962 34.0051L105.722 33.0221C105.854 33.1377 106.005 33.2589 106.176 33.3855C106.352 33.5122 106.548 33.6306 106.763 33.7408C106.977 33.8454 107.209 33.9335 107.456 34.0051C107.704 34.0712 107.966 34.1043 108.241 34.1043C108.467 34.1043 108.682 34.0767 108.886 34.0216C109.095 33.9611 109.277 33.8757 109.431 33.7656C109.585 33.6499 109.706 33.515 109.794 33.3608C109.888 33.201 109.935 33.0221 109.935 32.8238C109.935 32.6035 109.885 32.419 109.786 32.2703C109.692 32.1216 109.563 31.9949 109.398 31.8903C109.233 31.7857 109.04 31.6948 108.82 31.6177C108.599 31.5406 108.368 31.4635 108.126 31.3864L107.597 31.2129C107.3 31.1138 107.013 31.0009 106.738 30.8742C106.462 30.7475 106.217 30.5933 106.003 30.4116C105.793 30.2243 105.625 30.004 105.499 29.7507C105.377 29.4973 105.317 29.1944 105.317 28.842C105.317 28.5556 105.377 28.272 105.499 27.9911C105.62 27.7047 105.804 27.4486 106.052 27.2228C106.305 26.997 106.625 26.8153 107.01 26.6776C107.396 26.5344 107.85 26.4628 108.373 26.4628C108.952 26.4628 109.486 26.5592 109.976 26.7519C110.472 26.9447 110.89 27.1842 111.232 27.4706L110.505 28.4702C110.384 28.3546 110.24 28.2444 110.075 28.1398C109.91 28.0351 109.734 27.9443 109.547 27.8672C109.359 27.7846 109.164 27.7185 108.96 27.6689C108.756 27.6193 108.555 27.5945 108.357 27.5945C108.054 27.5945 107.798 27.6303 107.589 27.7019C107.379 27.768 107.211 27.8561 107.085 27.9663C106.958 28.0764 106.864 28.2004 106.804 28.338C106.749 28.4757 106.721 28.6107 106.721 28.7428C106.721 28.9356 106.763 29.0981 106.845 29.2302C106.928 29.3569 107.035 29.4671 107.167 29.5607C107.305 29.6543 107.459 29.7342 107.63 29.8002C107.806 29.8663 107.988 29.9324 108.175 29.9985L108.869 30.2298C109.2 30.34 109.502 30.4584 109.778 30.585C110.053 30.7062 110.296 30.8466 110.505 31.0064C110.769 31.2156 110.973 31.458 111.116 31.7333C111.265 32.0087 111.339 32.3419 111.339 32.7329Z" fill="white"/>
<path d="M0 320L480 0" stroke="#CA3535" stroke-width="7.5"/>
</g>
<defs>
<clipPath id="clip0_1144_21796">
<rect width="480" height="320" fill="white"/>
</clipPath>
</defs>
</svg>
