<svg width="480" height="320" viewBox="0 0 480 320" fill="none" xmlns="http://www.w3.org/2000/svg">
<g clip-path="url(#clip0_1144_21826)">
<rect width="480" height="320" fill="white"/>
<path d="M480 0H0V320H480V0Z" fill="white"/>
<g clip-path="url(#clip1_1144_21826)">
<rect width="532.62" height="334.436" transform="translate(-26.3711 -14.0929)" fill="#F3F9F7"/>
<circle cx="165.532" cy="89.2968" r="69.8753" fill="#11875A"/>
<path d="M192.994 109.351H199.221V134.388H211.418V140.143H192.994V109.351ZM219.138 130.695C219.238 131.382 219.452 132.012 219.782 132.585C220.125 133.157 220.555 133.651 221.07 134.066C221.585 134.467 222.179 134.782 222.852 135.011C223.525 135.24 224.241 135.354 224.999 135.354C225.873 135.354 226.817 135.19 227.834 134.861C228.85 134.517 229.781 134.023 230.625 133.379L233.481 137.545C232.408 138.447 231.091 139.177 229.53 139.735C227.97 140.293 226.309 140.572 224.549 140.572C222.96 140.572 221.464 140.3 220.061 139.756C218.658 139.212 217.427 138.425 216.368 137.394C215.323 136.364 214.492 135.111 213.877 133.637C213.276 132.162 212.975 130.502 212.975 128.655C212.975 126.966 213.24 125.391 213.769 123.931C214.313 122.471 215.065 121.204 216.024 120.13C216.997 119.057 218.157 118.219 219.503 117.618C220.848 117.003 222.337 116.695 223.969 116.695C225.486 116.695 226.896 116.974 228.199 117.532C229.502 118.076 230.632 118.849 231.592 119.851C232.551 120.839 233.302 122.027 233.846 123.416C234.39 124.804 234.662 126.336 234.662 128.011V130.695H219.138ZM223.947 121.848C222.673 121.848 221.593 122.278 220.705 123.137C219.832 123.981 219.324 125.005 219.18 126.207H228.457C228.428 124.99 227.984 123.96 227.125 123.115C226.266 122.271 225.207 121.848 223.947 121.848ZM245.431 130.802C244.701 130.917 244.114 131.175 243.67 131.575C243.226 131.962 243.005 132.491 243.005 133.164C243.005 133.909 243.277 134.553 243.821 135.097C244.365 135.626 245.166 135.891 246.225 135.891C247.342 135.891 248.222 135.569 248.867 134.925C249.511 134.281 249.833 133.429 249.833 132.37V130.051L245.431 130.802ZM250.799 137.974C250.556 138.246 250.255 138.54 249.897 138.855C249.554 139.155 249.139 139.434 248.652 139.692C248.179 139.935 247.621 140.143 246.977 140.315C246.333 140.486 245.61 140.572 244.808 140.572C243.663 140.572 242.604 140.393 241.63 140.035C240.671 139.663 239.827 139.148 239.097 138.489C238.367 137.831 237.794 137.072 237.379 136.213C236.964 135.34 236.756 134.395 236.756 133.379C236.756 131.532 237.329 130.022 238.474 128.848C239.619 127.674 241.201 126.937 243.219 126.637L249.833 125.67V125.241C249.833 124.21 249.518 123.394 248.888 122.793C248.258 122.192 247.235 121.891 245.818 121.891C245.231 121.891 244.637 121.963 244.035 122.106C243.434 122.235 242.854 122.385 242.296 122.557C241.752 122.729 241.244 122.929 240.771 123.158C240.299 123.373 239.884 123.566 239.526 123.738L237.207 119.207C238.524 118.477 239.984 117.876 241.587 117.403C243.205 116.931 244.88 116.695 246.612 116.695C247.671 116.695 248.738 116.809 249.811 117.038C250.899 117.253 251.88 117.654 252.753 118.241C253.641 118.828 254.364 119.629 254.922 120.646C255.48 121.648 255.759 122.929 255.759 124.489V133.937C255.759 134.61 255.931 135.111 256.275 135.44C256.632 135.755 257.119 136.049 257.735 136.321L255.051 140.572C253.963 140.458 253.09 140.179 252.431 139.735C251.773 139.277 251.229 138.69 250.799 137.974ZM273.206 122.9H272.583C271.739 122.9 270.93 122.986 270.157 123.158C269.398 123.33 268.726 123.645 268.139 124.103C267.552 124.547 267.079 125.162 266.721 125.95C266.378 126.737 266.206 127.746 266.206 128.977V140.143H260.28V117.146H266.206V119.744C266.449 119.357 266.764 118.985 267.151 118.627C267.537 118.27 267.988 117.955 268.504 117.683C269.019 117.396 269.599 117.167 270.243 116.996C270.887 116.824 271.581 116.738 272.326 116.738H273.206V122.9ZM276.46 117.146H282.386V119.121C282.701 118.806 283.052 118.506 283.438 118.219C283.839 117.919 284.276 117.661 284.748 117.446C285.22 117.217 285.743 117.038 286.315 116.91C286.902 116.766 287.547 116.695 288.248 116.695C289.493 116.695 290.61 116.902 291.598 117.318C292.585 117.718 293.416 118.277 294.089 118.992C294.776 119.708 295.298 120.546 295.656 121.505C296.014 122.464 296.193 123.502 296.193 124.618V140.143H290.266V126.765C290.266 125.95 290.173 125.262 289.987 124.704C289.801 124.132 289.544 123.673 289.214 123.33C288.899 122.972 288.52 122.714 288.076 122.557C287.647 122.385 287.174 122.299 286.659 122.299C286.058 122.299 285.492 122.407 284.963 122.621C284.447 122.836 283.996 123.165 283.61 123.609C283.223 124.038 282.923 124.582 282.708 125.241C282.493 125.899 282.386 126.672 282.386 127.56V140.143H276.46V117.146ZM192.329 152.351H198.255V162.121C198.57 161.806 198.921 161.506 199.307 161.219C199.708 160.919 200.145 160.661 200.617 160.446C201.089 160.217 201.612 160.038 202.185 159.91C202.771 159.766 203.416 159.695 204.117 159.695C205.362 159.695 206.479 159.902 207.467 160.318C208.455 160.718 209.285 161.277 209.958 161.992C210.645 162.708 211.167 163.546 211.525 164.505C211.883 165.464 212.062 166.502 212.062 167.618V183.143H206.135V169.765C206.135 168.95 206.042 168.262 205.856 167.704C205.67 167.132 205.413 166.673 205.083 166.33C204.768 165.972 204.389 165.714 203.945 165.557C203.516 165.385 203.043 165.299 202.528 165.299C201.927 165.299 201.361 165.407 200.832 165.621C200.316 165.836 199.866 166.165 199.479 166.609C199.092 167.038 198.792 167.582 198.577 168.241C198.362 168.899 198.255 169.672 198.255 170.56V183.143H192.329V152.351ZM226.696 159.695C228.399 159.695 229.945 160.003 231.334 160.618C232.722 161.219 233.911 162.057 234.898 163.13C235.886 164.204 236.645 165.471 237.174 166.931C237.718 168.391 237.99 169.966 237.99 171.655C237.99 173.359 237.718 174.94 237.174 176.4C236.63 177.846 235.865 179.099 234.877 180.158C233.889 181.217 232.701 182.055 231.312 182.67C229.924 183.272 228.385 183.572 226.696 183.572C224.992 183.572 223.446 183.272 222.058 182.67C220.669 182.055 219.481 181.217 218.493 180.158C217.506 179.099 216.74 177.846 216.196 176.4C215.652 174.94 215.38 173.359 215.38 171.655C215.38 169.966 215.645 168.391 216.174 166.931C216.718 165.471 217.484 164.204 218.472 163.13C219.46 162.057 220.648 161.219 222.036 160.618C223.439 160.003 224.992 159.695 226.696 159.695ZM226.696 178.075C227.54 178.075 228.285 177.918 228.929 177.603C229.587 177.288 230.139 176.851 230.582 176.293C231.026 175.735 231.363 175.069 231.592 174.296C231.821 173.509 231.935 172.65 231.935 171.719V171.569C231.935 170.639 231.821 169.787 231.592 169.014C231.363 168.227 231.026 167.554 230.582 166.996C230.139 166.423 229.587 165.979 228.929 165.664C228.285 165.349 227.54 165.192 226.696 165.192C225.851 165.192 225.1 165.349 224.441 165.664C223.797 165.979 223.253 166.423 222.809 166.996C222.366 167.554 222.029 168.227 221.8 169.014C221.571 169.787 221.457 170.639 221.457 171.569V171.719C221.457 172.65 221.571 173.509 221.8 174.296C222.029 175.069 222.366 175.735 222.809 176.293C223.253 176.851 223.797 177.288 224.441 177.603C225.1 177.918 225.851 178.075 226.696 178.075ZM262.33 175.627L265.143 160.146H271.413L266.109 183.143H259.066L255.63 168.198L251.98 183.143H245.044L239.719 160.146H246.183L248.91 175.627L252.903 160.146H258.572L262.33 175.627ZM289.408 176.293C289.408 176.565 289.443 176.823 289.515 177.066C289.586 177.309 289.708 177.524 289.88 177.71C290.066 177.882 290.324 178.018 290.653 178.118C290.982 178.218 291.404 178.269 291.92 178.269C292.135 178.269 292.378 178.261 292.65 178.247C292.922 178.218 293.194 178.19 293.466 178.161C293.738 178.133 293.988 178.097 294.217 178.054C294.461 178.011 294.661 177.975 294.819 177.947L295.355 183.186C294.797 183.257 294.217 183.322 293.616 183.379C293.101 183.436 292.528 183.479 291.898 183.508C291.268 183.551 290.631 183.572 289.987 183.572C287.94 183.572 286.344 183.107 285.199 182.177C284.054 181.246 283.481 179.765 283.481 177.732V165.299H279.337V160.146H283.481V153.64L289.408 152.051V160.146H295.441V165.299H289.408V176.293ZM308.851 159.695C310.555 159.695 312.101 160.003 313.489 160.618C314.878 161.219 316.066 162.057 317.054 163.13C318.042 164.204 318.8 165.471 319.33 166.931C319.874 168.391 320.146 169.966 320.146 171.655C320.146 173.359 319.874 174.94 319.33 176.4C318.786 177.846 318.02 179.099 317.032 180.158C316.045 181.217 314.856 182.055 313.468 182.67C312.079 183.272 310.54 183.572 308.851 183.572C307.148 183.572 305.602 183.272 304.213 182.67C302.825 182.055 301.637 181.217 300.649 180.158C299.661 179.099 298.895 177.846 298.351 176.4C297.807 174.94 297.535 173.359 297.535 171.655C297.535 169.966 297.8 168.391 298.33 166.931C298.874 165.471 299.64 164.204 300.627 163.13C301.615 162.057 302.803 161.219 304.192 160.618C305.595 160.003 307.148 159.695 308.851 159.695ZM308.851 178.075C309.696 178.075 310.44 177.918 311.084 177.603C311.743 177.288 312.294 176.851 312.738 176.293C313.182 175.735 313.518 175.069 313.747 174.296C313.976 173.509 314.091 172.65 314.091 171.719V171.569C314.091 170.639 313.976 169.787 313.747 169.014C313.518 168.227 313.182 167.554 312.738 166.996C312.294 166.423 311.743 165.979 311.084 165.664C310.44 165.349 309.696 165.192 308.851 165.192C308.007 165.192 307.255 165.349 306.597 165.664C305.953 165.979 305.409 166.423 304.965 166.996C304.521 167.554 304.185 168.227 303.956 169.014C303.727 169.787 303.612 170.639 303.612 171.569V171.719C303.612 172.65 303.727 173.509 303.956 174.296C304.185 175.069 304.521 175.735 304.965 176.293C305.409 176.851 305.953 177.288 306.597 177.603C307.255 177.918 308.007 178.075 308.851 178.075ZM200.81 218.293C200.81 218.565 200.846 218.823 200.918 219.066C200.989 219.309 201.111 219.524 201.283 219.71C201.469 219.882 201.726 220.018 202.056 220.118C202.385 220.218 202.807 220.269 203.323 220.269C203.537 220.269 203.781 220.261 204.053 220.247C204.325 220.218 204.597 220.19 204.869 220.161C205.141 220.133 205.391 220.097 205.62 220.054C205.863 220.011 206.064 219.975 206.221 219.947L206.758 225.186C206.2 225.257 205.62 225.322 205.019 225.379C204.504 225.436 203.931 225.479 203.301 225.508C202.671 225.551 202.034 225.572 201.39 225.572C199.343 225.572 197.747 225.107 196.602 224.177C195.456 223.246 194.884 221.765 194.884 219.732V207.299H190.74V202.146H194.884V195.64L200.81 194.051V202.146H206.844V207.299H200.81V218.293ZM217.57 215.802C216.84 215.917 216.253 216.175 215.809 216.575C215.366 216.962 215.144 217.491 215.144 218.164C215.144 218.909 215.416 219.553 215.96 220.097C216.504 220.626 217.305 220.891 218.364 220.891C219.481 220.891 220.361 220.569 221.006 219.925C221.65 219.281 221.972 218.429 221.972 217.37V215.051L217.57 215.802ZM222.938 222.974C222.695 223.246 222.394 223.54 222.036 223.855C221.693 224.155 221.278 224.434 220.791 224.692C220.318 224.935 219.76 225.143 219.116 225.315C218.472 225.486 217.749 225.572 216.947 225.572C215.802 225.572 214.743 225.393 213.769 225.035C212.81 224.663 211.966 224.148 211.236 223.489C210.506 222.831 209.933 222.072 209.518 221.213C209.103 220.34 208.895 219.395 208.895 218.379C208.895 216.532 209.468 215.022 210.613 213.848C211.758 212.674 213.34 211.937 215.358 211.637L221.972 210.67V210.241C221.972 209.21 221.657 208.394 221.027 207.793C220.397 207.192 219.374 206.891 217.957 206.891C217.37 206.891 216.776 206.963 216.174 207.106C215.573 207.235 214.993 207.385 214.435 207.557C213.891 207.729 213.383 207.929 212.91 208.158C212.438 208.373 212.023 208.566 211.665 208.738L209.346 204.207C210.663 203.477 212.123 202.876 213.726 202.403C215.344 201.931 217.019 201.695 218.751 201.695C219.81 201.695 220.877 201.809 221.95 202.038C223.038 202.253 224.019 202.654 224.892 203.241C225.78 203.828 226.503 204.629 227.061 205.646C227.619 206.648 227.898 207.929 227.898 209.489V218.937C227.898 219.61 228.07 220.111 228.414 220.44C228.771 220.755 229.258 221.049 229.874 221.321L227.19 225.572C226.102 225.458 225.229 225.179 224.57 224.735C223.912 224.277 223.368 223.69 222.938 222.974ZM237.744 213.097L230.744 202.146H237.594L241.115 208.351L244.808 202.146H251.722L244.594 213.14L252.517 225.143H245.517L240.986 218.1L236.863 225.143H229.949L237.744 213.097ZM264.328 227.827C265 227.827 265.494 227.705 265.809 227.462C266.138 227.219 266.396 226.825 266.582 226.281L266.797 225.572L258.831 202.146H265.423L269.996 218.014L273.797 202.146H280.303L272.552 227.999C272.294 228.858 271.936 229.595 271.478 230.21C271.02 230.826 270.476 231.327 269.846 231.713C269.216 232.114 268.515 232.408 267.742 232.594C266.983 232.78 266.167 232.873 265.294 232.873C264.936 232.873 264.521 232.859 264.049 232.83C263.59 232.801 263.111 232.758 262.61 232.701C262.123 232.658 261.636 232.601 261.15 232.529C260.677 232.458 260.241 232.372 259.84 232.272L260.956 227.419C261.3 227.505 261.658 227.576 262.03 227.634C262.359 227.691 262.717 227.734 263.104 227.762C263.505 227.805 263.913 227.827 264.328 227.827ZM292.79 201.695C294.493 201.695 296.039 202.003 297.428 202.618C298.816 203.219 300.005 204.057 300.992 205.13C301.98 206.204 302.739 207.471 303.268 208.931C303.812 210.391 304.084 211.966 304.084 213.655C304.084 215.359 303.812 216.94 303.268 218.4C302.724 219.846 301.959 221.099 300.971 222.158C299.983 223.217 298.795 224.055 297.406 224.67C296.018 225.272 294.479 225.572 292.79 225.572C291.086 225.572 289.54 225.272 288.152 224.67C286.763 224.055 285.575 223.217 284.587 222.158C283.6 221.099 282.834 219.846 282.29 218.4C281.746 216.94 281.474 215.359 281.474 213.655C281.474 211.966 281.739 210.391 282.268 208.931C282.812 207.471 283.578 206.204 284.566 205.13C285.554 204.057 286.742 203.219 288.13 202.618C289.533 202.003 291.086 201.695 292.79 201.695ZM292.79 220.075C293.634 220.075 294.379 219.918 295.023 219.603C295.682 219.288 296.233 218.851 296.676 218.293C297.12 217.735 297.457 217.069 297.686 216.296C297.915 215.509 298.029 214.65 298.029 213.719V213.569C298.029 212.639 297.915 211.787 297.686 211.014C297.457 210.227 297.12 209.554 296.676 208.996C296.233 208.423 295.682 207.979 295.023 207.664C294.379 207.349 293.634 207.192 292.79 207.192C291.945 207.192 291.194 207.349 290.535 207.664C289.891 207.979 289.347 208.423 288.903 208.996C288.46 209.554 288.123 210.227 287.894 211.014C287.665 211.787 287.551 212.639 287.551 213.569V213.719C287.551 214.65 287.665 215.509 287.894 216.296C288.123 217.069 288.46 217.735 288.903 218.293C289.347 218.851 289.891 219.288 290.535 219.603C291.194 219.918 291.945 220.075 292.79 220.075ZM327.136 225.143H321.209V223.167C320.88 223.482 320.522 223.79 320.136 224.091C319.749 224.377 319.32 224.635 318.847 224.864C318.375 225.078 317.845 225.25 317.258 225.379C316.686 225.508 316.049 225.572 315.347 225.572C314.102 225.572 312.985 225.372 311.997 224.971C311.01 224.556 310.172 223.998 309.485 223.296C308.812 222.58 308.297 221.743 307.939 220.784C307.581 219.825 307.402 218.787 307.402 217.67V202.146H313.329V215.502C313.329 216.318 313.415 217.012 313.586 217.585C313.773 218.157 314.023 218.622 314.338 218.98C314.667 219.324 315.054 219.581 315.497 219.753C315.941 219.911 316.421 219.989 316.936 219.989C317.537 219.989 318.096 219.882 318.611 219.667C319.141 219.453 319.599 219.131 319.985 218.701C320.372 218.257 320.672 217.706 320.887 217.048C321.102 216.389 321.209 215.616 321.209 214.729V202.146H327.136V225.143ZM344.754 207.9H344.131C343.287 207.9 342.478 207.986 341.705 208.158C340.946 208.33 340.274 208.645 339.687 209.103C339.1 209.547 338.627 210.162 338.269 210.95C337.926 211.737 337.754 212.746 337.754 213.977V225.143H331.828V202.146H337.754V204.744C337.997 204.357 338.312 203.985 338.699 203.627C339.085 203.27 339.536 202.955 340.052 202.683C340.567 202.396 341.147 202.167 341.791 201.996C342.435 201.824 343.129 201.738 343.874 201.738H344.754V207.9ZM197.203 268.143L190.16 245.146H196.773L200.896 260.971L205.126 245.146H211.632L204.632 268.143H197.203ZM219.095 258.695C219.195 259.382 219.409 260.012 219.739 260.585C220.082 261.157 220.512 261.651 221.027 262.066C221.542 262.467 222.136 262.782 222.809 263.011C223.482 263.24 224.198 263.354 224.957 263.354C225.83 263.354 226.775 263.19 227.791 262.861C228.807 262.517 229.738 262.023 230.582 261.379L233.438 265.545C232.365 266.447 231.048 267.177 229.487 267.735C227.927 268.293 226.266 268.572 224.506 268.572C222.917 268.572 221.421 268.3 220.018 267.756C218.615 267.212 217.384 266.425 216.325 265.394C215.28 264.364 214.449 263.111 213.834 261.637C213.233 260.162 212.932 258.502 212.932 256.655C212.932 254.966 213.197 253.391 213.726 251.931C214.27 250.471 215.022 249.204 215.981 248.13C216.954 247.057 218.114 246.219 219.46 245.618C220.805 245.003 222.294 244.695 223.926 244.695C225.443 244.695 226.853 244.974 228.156 245.532C229.459 246.076 230.589 246.849 231.549 247.851C232.508 248.839 233.259 250.027 233.803 251.416C234.347 252.804 234.619 254.336 234.619 256.011V258.695H219.095ZM223.904 249.848C222.63 249.848 221.55 250.278 220.662 251.137C219.789 251.981 219.281 253.005 219.138 254.207H228.414C228.385 252.99 227.941 251.96 227.082 251.115C226.223 250.271 225.164 249.848 223.904 249.848ZM237.959 237.351H243.885V247.121C244.2 246.806 244.551 246.506 244.937 246.219C245.338 245.919 245.775 245.661 246.247 245.446C246.719 245.217 247.242 245.038 247.814 244.91C248.401 244.766 249.046 244.695 249.747 244.695C250.992 244.695 252.109 244.902 253.097 245.318C254.084 245.718 254.915 246.277 255.587 246.992C256.275 247.708 256.797 248.546 257.155 249.505C257.513 250.464 257.692 251.502 257.692 252.618V268.143H251.765V254.765C251.765 253.95 251.672 253.262 251.486 252.704C251.3 252.132 251.042 251.673 250.713 251.33C250.398 250.972 250.019 250.714 249.575 250.557C249.146 250.385 248.673 250.299 248.158 250.299C247.557 250.299 246.991 250.407 246.462 250.621C245.946 250.836 245.495 251.165 245.109 251.609C244.722 252.038 244.422 252.582 244.207 253.241C243.992 253.899 243.885 254.672 243.885 255.56V268.143H237.959V237.351ZM268.139 268.143H262.212V245.146H268.139V268.143ZM261.589 239.112C261.589 238.625 261.683 238.167 261.869 237.738C262.055 237.294 262.305 236.915 262.62 236.6C262.949 236.271 263.329 236.013 263.758 235.827C264.188 235.641 264.653 235.548 265.154 235.548C265.641 235.548 266.099 235.641 266.528 235.827C266.972 236.013 267.351 236.271 267.666 236.6C267.995 236.915 268.253 237.294 268.439 237.738C268.625 238.167 268.718 238.625 268.718 239.112C268.718 239.613 268.625 240.078 268.439 240.508C268.253 240.937 267.995 241.317 267.666 241.646C267.351 241.961 266.972 242.211 266.528 242.397C266.099 242.583 265.641 242.676 265.154 242.676C264.653 242.676 264.188 242.583 263.758 242.397C263.329 242.211 262.949 241.961 262.62 241.646C262.305 241.317 262.055 240.937 261.869 240.508C261.683 240.078 261.589 239.613 261.589 239.112ZM277.726 256.762C277.726 257.507 277.827 258.258 278.027 259.017C278.228 259.761 278.535 260.434 278.95 261.035C279.366 261.637 279.895 262.131 280.539 262.517C281.198 262.889 281.978 263.075 282.88 263.075C283.467 263.075 283.996 262.997 284.469 262.839C284.956 262.682 285.385 262.467 285.757 262.195C286.144 261.909 286.48 261.579 286.766 261.207C287.067 260.821 287.325 260.406 287.539 259.962L292.736 262.646C292.364 263.548 291.848 264.364 291.19 265.094C290.546 265.824 289.794 266.447 288.935 266.962C288.076 267.477 287.124 267.871 286.079 268.143C285.034 268.429 283.925 268.572 282.751 268.572C281.133 268.572 279.645 268.272 278.285 267.67C276.925 267.055 275.751 266.217 274.763 265.158C273.776 264.099 273.003 262.846 272.444 261.4C271.886 259.94 271.607 258.359 271.607 256.655C271.607 254.966 271.886 253.391 272.444 251.931C273.003 250.471 273.776 249.204 274.763 248.13C275.751 247.057 276.925 246.219 278.285 245.618C279.645 245.003 281.133 244.695 282.751 244.695C283.925 244.695 285.034 244.838 286.079 245.124C287.124 245.396 288.076 245.797 288.935 246.327C289.794 246.842 290.546 247.465 291.19 248.195C291.848 248.925 292.364 249.741 292.736 250.643L287.539 253.327C287.325 252.883 287.067 252.475 286.766 252.103C286.48 251.716 286.144 251.387 285.757 251.115C285.385 250.829 284.956 250.607 284.469 250.45C283.996 250.278 283.467 250.192 282.88 250.192C281.978 250.192 281.198 250.385 280.539 250.772C279.895 251.144 279.366 251.638 278.95 252.253C278.535 252.854 278.228 253.534 278.027 254.293C277.827 255.052 277.726 255.81 277.726 256.569V256.762ZM295.86 237.351H301.787V261.894C301.787 262.381 301.923 262.753 302.195 263.011C302.481 263.269 302.932 263.397 303.548 263.397C303.834 263.397 304.077 263.383 304.278 263.354C304.492 263.312 304.764 263.254 305.094 263.183L305.566 268.229C305.165 268.286 304.736 268.343 304.278 268.401C303.891 268.443 303.44 268.479 302.925 268.508C302.424 268.551 301.901 268.572 301.357 268.572C300.513 268.572 299.754 268.465 299.081 268.25C298.409 268.035 297.829 267.721 297.342 267.305C296.87 266.876 296.505 266.346 296.247 265.716C295.989 265.087 295.86 264.357 295.86 263.526V237.351ZM313.35 258.695C313.45 259.382 313.665 260.012 313.994 260.585C314.338 261.157 314.767 261.651 315.283 262.066C315.798 262.467 316.392 262.782 317.065 263.011C317.738 263.24 318.454 263.354 319.212 263.354C320.085 263.354 321.03 263.19 322.047 262.861C323.063 262.517 323.993 262.023 324.838 261.379L327.694 265.545C326.62 266.447 325.303 267.177 323.743 267.735C322.183 268.293 320.522 268.572 318.761 268.572C317.172 268.572 315.676 268.3 314.274 267.756C312.871 267.212 311.64 266.425 310.58 265.394C309.535 264.364 308.705 263.111 308.089 261.637C307.488 260.162 307.188 258.502 307.188 256.655C307.188 254.966 307.452 253.391 307.982 251.931C308.526 250.471 309.278 249.204 310.237 248.13C311.21 247.057 312.37 246.219 313.715 245.618C315.061 245.003 316.55 244.695 318.182 244.695C319.699 244.695 321.109 244.974 322.412 245.532C323.714 246.076 324.845 246.849 325.804 247.851C326.763 248.839 327.515 250.027 328.059 251.416C328.603 252.804 328.875 254.336 328.875 256.011V258.695H313.35ZM318.16 249.848C316.886 249.848 315.805 250.278 314.918 251.137C314.044 251.981 313.536 253.005 313.393 254.207H322.669C322.641 252.99 322.197 251.96 321.338 251.115C320.479 250.271 319.42 249.848 318.16 249.848Z" fill="#09442D"/>
<path d="M-20.25 332.125L513.75 -22.3749" stroke="#CA3535" stroke-width="7.42983"/>
</g>
</g>
<defs>
<clipPath id="clip0_1144_21826">
<rect width="480" height="320" fill="white"/>
</clipPath>
<clipPath id="clip1_1144_21826">
<rect width="532.62" height="334.436" fill="white" transform="translate(-26.3711 -14.0929)"/>
</clipPath>
</defs>
</svg>
