<svg width="480" height="321" viewBox="0 0 480 321" fill="none" xmlns="http://www.w3.org/2000/svg">
<g clip-path="url(#clip0_1144_21851)">
<rect width="480" height="320" transform="translate(0 0.75)" fill="white"/>
<path d="M480 0.75H0V320.75H480V0.75Z" fill="#DDD6EC"/>
<ellipse cx="239.877" cy="160.73" rx="175.018" ry="62.3624" fill="#54319F"/>
<path d="M128.265 160.568C128.265 157.907 128.663 155.419 129.457 153.103C130.27 150.77 131.427 148.749 132.931 147.038C134.434 145.31 136.257 143.953 138.4 142.968C140.542 141.966 142.953 141.465 145.631 141.465C147.567 141.465 149.355 141.716 150.997 142.217C152.656 142.718 154.142 143.426 155.455 144.342C156.785 145.258 157.926 146.364 158.876 147.66C159.827 148.956 160.578 150.407 161.131 152.014L153.9 154.425C153.692 153.734 153.364 153.025 152.915 152.3C152.465 151.557 151.895 150.891 151.204 150.304C150.513 149.699 149.701 149.206 148.768 148.826C147.852 148.446 146.824 148.256 145.683 148.256C143.972 148.256 142.504 148.61 141.277 149.319C140.067 150.01 139.074 150.934 138.296 152.092C137.518 153.233 136.94 154.537 136.559 156.006C136.197 157.458 136.015 158.944 136.015 160.464V160.672C136.015 162.21 136.197 163.713 136.559 165.182C136.94 166.633 137.518 167.929 138.296 169.07C139.074 170.21 140.067 171.135 141.277 171.843C142.504 172.534 143.972 172.88 145.683 172.88C146.824 172.88 147.852 172.69 148.768 172.31C149.701 171.929 150.513 171.446 151.204 170.858C151.895 170.253 152.465 169.588 152.915 168.862C153.364 168.136 153.692 167.428 153.9 166.737L161.131 169.121C160.578 170.728 159.827 172.18 158.876 173.476C157.926 174.772 156.785 175.886 155.455 176.82C154.142 177.735 152.656 178.444 150.997 178.945C149.355 179.429 147.567 179.671 145.631 179.671C142.953 179.671 140.542 179.178 138.4 178.193C136.257 177.208 134.434 175.852 132.931 174.124C131.427 172.396 130.27 170.374 129.457 168.059C128.663 165.743 128.265 163.246 128.265 160.568ZM165.24 141.984H172.394V153.777C172.774 153.397 173.197 153.034 173.664 152.688C174.148 152.325 174.675 152.014 175.245 151.755C175.815 151.479 176.446 151.263 177.137 151.107C177.846 150.934 178.623 150.848 179.47 150.848C180.973 150.848 182.321 151.099 183.513 151.6C184.706 152.084 185.708 152.757 186.52 153.621C187.35 154.485 187.98 155.496 188.412 156.654C188.844 157.812 189.06 159.065 189.06 160.412V179.152H181.906V163.004C181.906 162.019 181.794 161.19 181.569 160.516C181.345 159.825 181.034 159.272 180.636 158.857C180.256 158.425 179.798 158.114 179.263 157.924C178.744 157.717 178.174 157.613 177.552 157.613C176.826 157.613 176.144 157.743 175.504 158.002C174.882 158.261 174.338 158.659 173.871 159.194C173.405 159.713 173.042 160.369 172.783 161.164C172.523 161.959 172.394 162.892 172.394 163.963V179.152H165.24V141.984ZM201.671 179.152H194.517V151.392H201.671V179.152ZM193.765 144.109C193.765 143.521 193.877 142.968 194.102 142.45C194.327 141.914 194.629 141.456 195.009 141.076C195.407 140.679 195.865 140.368 196.383 140.143C196.901 139.919 197.463 139.806 198.068 139.806C198.655 139.806 199.208 139.919 199.727 140.143C200.262 140.368 200.72 140.679 201.1 141.076C201.498 141.456 201.809 141.914 202.034 142.45C202.258 142.968 202.371 143.521 202.371 144.109C202.371 144.714 202.258 145.275 202.034 145.794C201.809 146.312 201.498 146.77 201.1 147.167C200.72 147.548 200.262 147.85 199.727 148.075C199.208 148.299 198.655 148.412 198.068 148.412C197.463 148.412 196.901 148.299 196.383 148.075C195.865 147.85 195.407 147.548 195.009 147.167C194.629 146.77 194.327 146.312 194.102 145.794C193.877 145.275 193.765 144.714 193.765 144.109ZM207.205 141.984H214.359V171.61C214.359 172.197 214.523 172.647 214.851 172.958C215.197 173.269 215.741 173.424 216.484 173.424C216.83 173.424 217.124 173.407 217.366 173.372C217.625 173.32 217.953 173.251 218.351 173.165L218.921 179.256C218.437 179.325 217.919 179.394 217.366 179.463C216.899 179.515 216.355 179.558 215.733 179.593C215.128 179.645 214.497 179.671 213.84 179.671C212.821 179.671 211.905 179.541 211.093 179.282C210.281 179.023 209.581 178.643 208.994 178.141C208.423 177.623 207.983 176.984 207.672 176.223C207.361 175.463 207.205 174.582 207.205 173.58V141.984ZM240.162 179.152V176.768C239.782 177.182 239.359 177.571 238.892 177.934C238.443 178.28 237.933 178.582 237.363 178.841C236.81 179.101 236.197 179.299 235.523 179.437C234.866 179.593 234.132 179.671 233.32 179.671C231.488 179.671 229.812 179.308 228.291 178.582C226.771 177.856 225.466 176.854 224.377 175.575C223.289 174.297 222.442 172.776 221.837 171.014C221.25 169.251 220.956 167.342 220.956 165.285C220.956 163.229 221.25 161.32 221.837 159.557C222.425 157.795 223.246 156.274 224.3 154.995C225.371 153.699 226.658 152.688 228.162 151.963C229.665 151.22 231.332 150.848 233.164 150.848C234.788 150.848 236.162 151.133 237.285 151.703C238.426 152.256 239.385 152.948 240.162 153.777V141.984H247.316V179.152H240.162ZM240.37 162.693C240.37 161.95 240.232 161.259 239.955 160.62C239.696 159.98 239.316 159.427 238.815 158.961C238.314 158.494 237.709 158.131 237 157.872C236.309 157.613 235.523 157.483 234.642 157.483C233.622 157.483 232.715 157.674 231.92 158.054C231.142 158.434 230.486 158.97 229.95 159.661C229.414 160.335 229.008 161.138 228.732 162.071C228.455 163.004 228.317 164.024 228.317 165.13V165.467C228.317 166.573 228.455 167.592 228.732 168.525C229.008 169.441 229.414 170.236 229.95 170.91C230.486 171.584 231.142 172.111 231.92 172.491C232.715 172.854 233.622 173.035 234.642 173.035C235.523 173.035 236.309 172.906 237 172.647C237.709 172.387 238.314 172.024 238.815 171.558C239.316 171.091 239.696 170.547 239.955 169.925C240.232 169.286 240.37 168.594 240.37 167.851V162.693ZM258.89 165.415C258.89 166.313 259.011 167.221 259.253 168.136C259.495 169.035 259.866 169.847 260.367 170.573C260.868 171.299 261.508 171.895 262.285 172.361C263.08 172.811 264.022 173.035 265.111 173.035C265.819 173.035 266.459 172.94 267.029 172.75C267.616 172.56 268.135 172.301 268.584 171.973C269.05 171.627 269.457 171.23 269.802 170.78C270.165 170.314 270.476 169.813 270.735 169.277L277.008 172.517C276.559 173.606 275.936 174.59 275.142 175.472C274.364 176.353 273.457 177.105 272.42 177.727C271.383 178.349 270.234 178.824 268.973 179.152C267.711 179.498 266.372 179.671 264.955 179.671C263.003 179.671 261.205 179.308 259.564 178.582C257.922 177.839 256.505 176.828 255.313 175.55C254.121 174.271 253.188 172.759 252.514 171.014C251.84 169.251 251.503 167.342 251.503 165.285C251.503 163.246 251.84 161.346 252.514 159.583C253.188 157.82 254.121 156.291 255.313 154.995C256.505 153.699 257.922 152.688 259.564 151.963C261.205 151.22 263.003 150.848 264.955 150.848C266.372 150.848 267.711 151.021 268.973 151.366C270.234 151.695 271.383 152.179 272.42 152.818C273.457 153.44 274.364 154.192 275.142 155.073C275.936 155.954 276.559 156.939 277.008 158.028L270.735 161.268C270.476 160.732 270.165 160.24 269.802 159.79C269.457 159.324 269.05 158.926 268.584 158.598C268.135 158.252 267.616 157.985 267.029 157.795C266.459 157.587 265.819 157.483 265.111 157.483C264.022 157.483 263.08 157.717 262.285 158.183C261.508 158.633 260.868 159.229 260.367 159.972C259.866 160.698 259.495 161.518 259.253 162.434C259.011 163.35 258.89 164.266 258.89 165.182V165.415ZM289.852 167.877C288.97 168.016 288.262 168.327 287.726 168.81C287.19 169.277 286.923 169.916 286.923 170.728C286.923 171.627 287.251 172.405 287.908 173.061C288.564 173.701 289.532 174.02 290.811 174.02C292.158 174.02 293.221 173.631 293.999 172.854C294.776 172.076 295.165 171.048 295.165 169.769V166.97L289.852 167.877ZM296.331 176.534C296.038 176.863 295.675 177.217 295.243 177.597C294.828 177.96 294.327 178.297 293.739 178.608C293.169 178.902 292.495 179.152 291.718 179.36C290.94 179.567 290.068 179.671 289.1 179.671C287.717 179.671 286.439 179.455 285.264 179.023C284.106 178.573 283.087 177.951 282.205 177.157C281.324 176.362 280.633 175.446 280.132 174.409C279.631 173.355 279.38 172.215 279.38 170.988C279.38 168.759 280.071 166.936 281.454 165.519C282.836 164.102 284.745 163.212 287.182 162.849L295.165 161.682V161.164C295.165 159.92 294.785 158.935 294.025 158.209C293.264 157.483 292.029 157.121 290.318 157.121C289.61 157.121 288.893 157.207 288.167 157.38C287.441 157.535 286.741 157.717 286.067 157.924C285.411 158.131 284.797 158.373 284.227 158.65C283.657 158.909 283.156 159.142 282.724 159.35L279.924 153.881C281.514 152.999 283.277 152.274 285.212 151.703C287.165 151.133 289.186 150.848 291.277 150.848C292.556 150.848 293.843 150.986 295.139 151.263C296.452 151.522 297.636 152.006 298.69 152.714C299.762 153.423 300.634 154.39 301.308 155.617C301.982 156.827 302.319 158.373 302.319 160.257V171.662C302.319 172.474 302.526 173.078 302.941 173.476C303.373 173.856 303.96 174.21 304.704 174.539L301.464 179.671C300.15 179.532 299.096 179.196 298.301 178.66C297.506 178.107 296.85 177.398 296.331 176.534ZM323.379 158.339H322.627C321.608 158.339 320.632 158.443 319.699 158.65C318.783 158.857 317.971 159.237 317.262 159.79C316.554 160.326 315.983 161.069 315.551 162.019C315.137 162.97 314.929 164.188 314.929 165.674V179.152H307.776V151.392H314.929V154.529C315.223 154.062 315.603 153.613 316.07 153.181C316.536 152.749 317.081 152.369 317.703 152.04C318.325 151.695 319.025 151.418 319.802 151.211C320.58 151.004 321.418 150.9 322.316 150.9H323.379V158.339ZM333.294 167.748C333.415 168.577 333.674 169.337 334.072 170.029C334.486 170.72 335.005 171.316 335.627 171.817C336.249 172.301 336.966 172.681 337.778 172.958C338.59 173.234 339.454 173.372 340.37 173.372C341.424 173.372 342.565 173.174 343.791 172.776C345.018 172.361 346.141 171.765 347.161 170.988L350.608 176.016C349.312 177.105 347.723 177.986 345.839 178.66C343.956 179.334 341.951 179.671 339.826 179.671C337.908 179.671 336.102 179.342 334.409 178.686C332.715 178.029 331.229 177.079 329.95 175.835C328.689 174.59 327.687 173.078 326.944 171.299C326.218 169.519 325.855 167.514 325.855 165.285C325.855 163.246 326.175 161.346 326.814 159.583C327.471 157.82 328.378 156.291 329.536 154.995C330.711 153.699 332.11 152.688 333.735 151.963C335.359 151.22 337.156 150.848 339.126 150.848C340.958 150.848 342.66 151.185 344.232 151.859C345.805 152.516 347.17 153.449 348.327 154.658C349.485 155.851 350.392 157.285 351.049 158.961C351.706 160.637 352.034 162.486 352.034 164.508V167.748H333.294ZM339.1 157.069C337.562 157.069 336.257 157.587 335.186 158.624C334.132 159.643 333.519 160.879 333.346 162.33H344.543C344.509 160.862 343.973 159.618 342.936 158.598C341.899 157.579 340.621 157.069 339.1 157.069Z" fill="white"/>
<path d="M0 321L484 1" stroke="#CA3535" stroke-width="7.11021"/>
</g>
<defs>
<clipPath id="clip0_1144_21851">
<rect width="480" height="320" fill="white" transform="translate(0 0.75)"/>
</clipPath>
</defs>
</svg>
