<svg width="212" height="135" viewBox="0 0 212 135" fill="none" xmlns="http://www.w3.org/2000/svg">
<rect width="211.094" height="134.233" fill="#1D70B8"/>
<path d="M117.828 71.1959C120.081 71.1959 121.907 69.3695 121.907 67.1164C121.907 64.8633 120.081 63.0368 117.828 63.0368C115.575 63.0368 113.748 64.8633 113.748 67.1164C113.748 69.3695 115.575 71.1959 117.828 71.1959Z" fill="#00FFE0"/>
<path d="M44.085 67.1839C44.085 68.2173 44.2142 69.2117 44.4727 70.1666C44.7307 71.1214 45.1238 71.9639 45.6523 72.6941C46.1803 73.4246 46.8541 74.0115 47.6743 74.4552C48.4946 74.8989 49.4721 75.1211 50.6068 75.1211C51.7415 75.1211 52.6038 74.947 53.3286 74.5988C54.053 74.2506 54.6316 73.8152 55.0642 73.2925C55.4964 72.7702 55.7997 72.2059 55.9742 71.5993C56.1483 70.9926 56.2351 70.4308 56.2351 69.9139V69.678H50.0508V65.9541H60.9872V79.199H56.7072V76.3678C56.4039 76.8399 56.0273 77.2696 55.5783 77.6573C55.1288 78.0446 54.6234 78.3763 54.0612 78.6512C53.4994 78.9266 52.8841 79.1431 52.2161 79.3003C51.5477 79.4575 50.8369 79.5361 50.0845 79.5361C48.3205 79.5361 46.7536 79.2159 45.3831 78.5755C44.0125 77.9351 42.8581 77.0535 41.9201 75.9299C40.9821 74.8067 40.2688 73.4921 39.7799 71.9866C39.2914 70.4814 39.0469 68.8582 39.0469 67.1164C39.0469 65.3746 39.3193 63.7661 39.8643 62.2552C40.4092 60.7443 41.1842 59.4298 42.1901 58.3119C43.1956 57.1941 44.4085 56.3125 45.8297 55.6663C47.2508 55.0201 48.8432 54.6971 50.6072 54.6971C51.7531 54.6971 52.84 54.8292 53.8677 55.093C54.8959 55.3572 55.8339 55.7334 56.6821 56.2219C57.53 56.7105 58.2798 57.3007 58.9318 57.9913C59.5829 58.6819 60.1114 59.4491 60.5159 60.2916L56.2355 62.701C55.9771 62.1845 55.6737 61.7041 55.3256 61.2601C54.9769 60.8168 54.5757 60.4344 54.1209 60.1142C53.6657 59.794 53.1463 59.5413 52.5622 59.3561C51.9778 59.1709 51.3263 59.0779 50.6076 59.0779C49.4729 59.0779 48.4954 59.3001 47.6752 59.7438C46.8549 60.1875 46.1811 60.7744 45.6531 61.5049C45.125 62.2351 44.732 63.0805 44.4735 64.0411C44.215 65.0017 44.0858 65.9936 44.0858 67.0151V67.1839H44.085Z" fill="white"/>
<path d="M76.5512 54.6967C78.3485 54.6967 79.9607 55.0197 81.3876 55.6659C82.8141 56.3121 84.025 57.1937 85.0194 58.3115C86.0133 59.4294 86.7719 60.7439 87.2942 62.2548C87.8164 63.7657 88.0774 65.3865 88.0774 67.116C88.0774 68.8454 87.8164 70.481 87.2942 71.9862C86.7719 73.4917 86.0133 74.8063 85.0194 75.9295C84.0254 77.0527 82.8146 77.9347 81.3876 78.5751C79.9611 79.2155 78.3485 79.5357 76.5512 79.5357C74.7538 79.5357 73.1273 79.2155 71.7065 78.5751C70.2853 77.9347 69.0778 77.0531 68.0838 75.9295C67.0894 74.8063 66.3313 73.4917 65.809 71.9862C65.2867 70.481 65.0254 68.8578 65.0254 67.116C65.0254 65.3742 65.2867 63.7657 65.809 62.2548C66.3313 60.7439 67.0894 59.4294 68.0838 58.3115C69.0778 57.1937 70.2853 56.3121 71.7065 55.6659C73.1277 55.0197 74.7423 54.6967 76.5512 54.6967ZM76.5512 75.1207C77.6073 75.1207 78.537 74.9215 79.34 74.5223C80.143 74.1239 80.8205 73.5703 81.3703 72.8628C81.921 72.1549 82.3367 71.3182 82.6174 70.3518C82.8981 69.3858 83.0389 68.3297 83.0389 67.1839V67.0489C83.0389 65.9142 82.8981 64.8609 82.6174 63.8892C82.3367 62.9175 81.921 62.0775 81.3703 61.37C80.82 60.6625 80.143 60.1093 79.34 59.7101C78.537 59.3117 77.6073 59.112 76.5512 59.112C75.4951 59.112 74.5629 59.3117 73.7537 59.7101C72.9449 60.1093 72.2683 60.6625 71.7234 61.37C71.1785 62.0775 70.7656 62.9179 70.485 63.8892C70.2043 64.8609 70.0635 65.9142 70.0635 67.0489V67.1839C70.0635 68.3297 70.2043 69.3858 70.485 70.3518C70.7656 71.3182 71.1785 72.1545 71.7234 72.8628C72.2683 73.5703 72.9449 74.1239 73.7537 74.5223C74.5629 74.9215 75.4951 75.1207 76.5512 75.1207Z" fill="white"/>
<path d="M96.6919 79.1986L89.8672 55.0341H95.344L100.012 73.1995H100.18L104.747 55.0341H110.156L103.331 79.1986H96.6924H96.6919Z" fill="white"/>
<path d="M137.835 75.1207C138.543 75.1207 139.203 75.017 139.815 74.8092C140.427 74.6013 140.956 74.2869 141.399 73.8654C141.842 73.444 142.194 72.911 142.452 72.2644C142.71 71.6186 142.84 70.8576 142.84 69.9814V55H147.642V70.7053C147.642 72.0537 147.398 73.2728 146.91 74.3622C146.422 75.4521 145.743 76.3789 144.873 77.1428C144.003 77.9071 142.967 78.4965 141.767 78.9122C140.566 79.3275 139.252 79.5357 137.827 79.5357C136.402 79.5357 135.088 79.3275 133.888 78.9122C132.686 78.4965 131.648 77.9067 130.772 77.1428C129.896 76.3789 129.215 75.4525 128.726 74.3622C128.238 73.2728 127.994 72.0533 127.994 70.7053V55H132.831V69.981C132.831 70.8572 132.96 71.6182 133.218 72.264C133.476 72.9106 133.827 73.4436 134.271 73.865C134.715 74.2865 135.243 74.6009 135.855 74.8088C136.468 75.0166 137.128 75.1203 137.835 75.1203V75.1207Z" fill="white"/>
<path d="M151.977 55.0337H156.864V65.4981L165.492 55.0337H171.508L163.115 64.6387L172.047 79.1982H166.368L159.981 68.3626L156.864 71.8507V79.1982H151.977V55.0337Z" fill="white"/>
</svg>
