<svg width="257" height="193" viewBox="0 0 257 193" fill="none" xmlns="http://www.w3.org/2000/svg">
<rect x="0.5" y="0.5" width="256" height="191.85" fill="#1D70B8" stroke="white"/>
<path d="M142.828 101.184C145.457 101.184 147.588 99.0534 147.588 96.4247C147.588 93.796 145.457 91.665 142.828 91.665C140.199 91.665 138.068 93.796 138.068 96.4247C138.068 99.0534 140.199 101.184 142.828 101.184Z" fill="#00FFE0"/>
<path d="M56.7926 96.5034C56.7926 97.7092 56.9433 98.8693 57.2449 99.9834C57.546 101.097 58.0046 102.08 58.6211 102.932C59.2372 103.785 60.0233 104.469 60.9803 104.987C61.9373 105.505 63.0778 105.764 64.4017 105.764C65.7256 105.764 66.7316 105.561 67.5772 105.155C68.4223 104.748 69.0975 104.24 69.6021 103.63C70.1063 103.021 70.4602 102.363 70.6638 101.655C70.867 100.947 70.9683 100.292 70.9683 99.6886V99.4134H63.7529V95.0686H76.5126V110.522H71.5191V107.218C71.1652 107.769 70.7258 108.271 70.2019 108.723C69.6775 109.175 69.0878 109.562 68.4319 109.883C67.7764 110.204 67.0586 110.456 66.2792 110.64C65.4994 110.823 64.6701 110.915 63.7923 110.915C61.7342 110.915 59.9061 110.541 58.3071 109.794C56.708 109.047 55.3611 108.018 54.2668 106.708C53.1724 105.397 52.3402 103.863 51.7698 102.107C51.1993 100.351 50.9141 98.4569 50.9141 96.4247C50.9141 94.3925 51.2319 92.5159 51.8677 90.7532C52.5035 88.9904 53.4077 87.4567 54.5813 86.1525C55.7544 84.8483 57.1695 83.8197 58.8276 83.0658C60.4852 82.3119 62.3436 81.9349 64.4012 81.9349C65.738 81.9349 67.0062 82.0891 68.2053 82.3969C69.4048 82.7052 70.4991 83.1441 71.4888 83.714C72.478 84.284 73.3529 84.9726 74.1135 85.7784C74.8732 86.5841 75.4898 87.4792 75.9618 88.4622L70.9678 91.2732C70.6662 90.6706 70.3123 90.1102 69.9061 89.5921C69.4994 89.0749 69.0312 88.6288 68.5006 88.2552C67.9695 87.8816 67.3635 87.5868 66.6821 87.3707C66.0002 87.1546 65.2401 87.0461 64.4017 87.0461C63.0778 87.0461 61.9373 87.3054 60.9803 87.823C60.0233 88.3407 59.2372 89.0254 58.6211 89.8778C58.005 90.7296 57.5465 91.7159 57.2449 92.8367C56.9433 93.9575 56.7926 95.1147 56.7926 96.3066V96.5034Z" fill="white"/>
<path d="M94.6719 81.9349C96.7689 81.9349 98.6498 82.3119 100.315 83.0658C101.979 83.8197 103.392 84.8483 104.552 86.1525C105.711 87.4567 106.596 88.9904 107.206 90.7532C107.815 92.5159 108.12 94.4069 108.12 96.4247C108.12 98.4425 107.815 100.351 107.206 102.107C106.596 103.863 105.711 105.397 104.552 106.708C103.392 108.018 101.979 109.047 100.315 109.794C98.6503 110.541 96.7689 110.915 94.6719 110.915C92.5749 110.915 90.6772 110.541 89.0195 109.794C87.3614 109.047 85.9526 108.018 84.7929 106.708C83.6328 105.397 82.7483 103.863 82.1389 102.107C81.5295 100.351 81.2246 98.4569 81.2246 96.4247C81.2246 94.3925 81.5295 92.5159 82.1389 90.7532C82.7483 88.9904 83.6328 87.4567 84.7929 86.1525C85.9526 84.8483 87.3614 83.8197 89.0195 83.0658C90.6772 82.3119 92.561 81.9349 94.6719 81.9349ZM94.6719 105.764C95.904 105.764 96.9888 105.532 97.9256 105.066C98.8625 104.601 99.6529 103.955 100.294 103.13C100.937 102.304 101.422 101.327 101.749 100.2C102.077 99.0729 102.241 97.8408 102.241 96.5039V96.3464C102.241 95.0225 102.077 93.7937 101.749 92.66C101.422 91.5263 100.937 90.5462 100.294 89.7208C99.6524 88.8953 98.8625 88.2499 97.9256 87.7841C96.9888 87.3193 95.904 87.0864 94.6719 87.0864C93.4397 87.0864 92.3521 87.3193 91.408 87.7841C90.4644 88.2499 89.675 88.8953 89.0392 89.7208C88.4035 90.5462 87.9218 91.5267 87.5943 92.66C87.2669 93.7937 87.1026 95.0225 87.1026 96.3464V96.5039C87.1026 97.8408 87.2669 99.0729 87.5943 100.2C87.9218 101.327 88.4035 102.303 89.0392 103.13C89.675 103.955 90.4644 104.601 91.408 105.066C92.3521 105.532 93.4397 105.764 94.6719 105.764Z" fill="white"/>
<path d="M118.172 110.522L110.209 82.3282H116.599L122.045 103.522H122.242L127.57 82.3282H133.88L125.918 110.521H118.172L118.172 110.522Z" fill="white"/>
<path d="M166.171 105.764C166.997 105.764 167.767 105.643 168.481 105.4C169.196 105.158 169.812 104.791 170.329 104.299C170.846 103.808 171.257 103.186 171.558 102.431C171.859 101.678 172.01 100.79 172.01 99.7678V82.2888H177.613V100.612C177.613 102.186 177.329 103.608 176.759 104.879C176.19 106.15 175.397 107.232 174.382 108.123C173.367 109.015 172.159 109.702 170.758 110.187C169.357 110.672 167.825 110.915 166.162 110.915C164.499 110.915 162.966 110.672 161.565 110.187C160.164 109.702 158.953 109.014 157.931 108.123C156.909 107.232 156.114 106.151 155.544 104.879C154.974 103.608 154.689 102.185 154.689 100.612V82.2888H160.332V99.7673C160.332 100.79 160.483 101.678 160.784 102.431C161.086 103.185 161.495 103.807 162.013 104.299C162.53 104.791 163.147 105.157 163.861 105.4C164.576 105.642 165.346 105.763 166.171 105.763V105.764Z" fill="white"/>
<path d="M182.672 82.3282H188.374V94.5371L198.44 82.3282H205.459L195.668 93.5344L206.088 110.521H199.463L192.011 97.8792L188.374 101.949V110.521H182.672V82.3282Z" fill="white"/>
</svg>
