<svg width="138" height="138" viewBox="0 0 138 138" fill="none" xmlns="http://www.w3.org/2000/svg">
<rect width="137.28" height="137.28" rx="30.41" fill="#1D70B8"/>
<path d="M77.1454 45.7858C78.7057 45.7858 79.9705 44.521 79.9705 42.9607C79.9705 41.4005 78.7057 40.1356 77.1454 40.1356C75.5852 40.1356 74.3203 41.4005 74.3203 42.9607C74.3203 44.521 75.5852 45.7858 77.1454 45.7858Z" fill="#00FFE0"/>
<path d="M26.0788 43.0075C26.0788 43.7232 26.1683 44.4118 26.3472 45.0731C26.526 45.7343 26.7981 46.3177 27.1641 46.8234C27.5298 47.3293 27.9964 47.7357 28.5644 48.043C29.1324 48.3502 29.8094 48.5041 30.5952 48.5041C31.381 48.5041 31.9781 48.3836 32.48 48.1424C32.9816 47.9013 33.3824 47.5998 33.6819 47.2378C33.9812 46.8761 34.1912 46.4853 34.3121 46.0652C34.4326 45.6451 34.4928 45.2561 34.4928 44.8981V44.7348H30.2101V42.1559H37.7836V51.3281H34.8197V49.3674C34.6096 49.6944 34.3489 49.9919 34.0379 50.2604C33.7267 50.5286 33.3767 50.7583 32.9873 50.9487C32.5983 51.1394 32.1722 51.2893 31.7096 51.3982C31.2467 51.5071 30.7545 51.5615 30.2335 51.5615C29.0119 51.5615 27.9268 51.3398 26.9777 50.8963C26.0286 50.4528 25.2291 49.8423 24.5796 49.0642C23.93 48.2864 23.4361 47.376 23.0975 46.3334C22.7591 45.2911 22.5898 44.167 22.5898 42.9608C22.5898 41.7546 22.7785 40.6407 23.1559 39.5944C23.5333 38.5481 24.0699 37.6378 24.7665 36.8637C25.4628 36.0896 26.3028 35.4791 27.287 35.0316C28.2711 34.5841 29.3739 34.3604 30.5954 34.3604C31.3889 34.3604 32.1417 34.4518 32.8534 34.6345C33.5653 34.8175 34.2149 35.078 34.8023 35.4163C35.3895 35.7547 35.9088 36.1634 36.3602 36.6416C36.8111 37.1199 37.1771 37.6512 37.4573 38.2346L34.4931 39.9031C34.3141 39.5454 34.104 39.2128 33.8629 38.9053C33.6215 38.5983 33.3436 38.3335 33.0286 38.1118C32.7134 37.89 32.3537 37.715 31.9493 37.5868C31.5446 37.4585 31.0934 37.3941 30.5957 37.3941C29.8099 37.3941 29.133 37.548 28.565 37.8553C27.9969 38.1625 27.5304 38.5689 27.1647 39.0748C26.799 39.5805 26.5268 40.1659 26.3478 40.8311C26.1688 41.4964 26.0793 42.1833 26.0793 42.8907V43.0075H26.0788Z" fill="white"/>
<path d="M48.5617 34.36C49.8064 34.36 50.9228 34.5837 51.911 35.0312C52.8989 35.4787 53.7374 36.0892 54.426 36.8633C55.1143 37.6374 55.6396 38.5478 56.0013 39.5941C56.363 40.6404 56.5437 41.7628 56.5437 42.9604C56.5437 44.1581 56.363 45.2907 56.0013 46.3331C55.6396 47.3757 55.1143 48.286 54.426 49.0638C53.7377 49.8416 52.8991 50.4524 51.911 50.8959C50.9231 51.3394 49.8064 51.5612 48.5617 51.5612C47.3171 51.5612 46.1907 51.3394 45.2068 50.8959C44.2226 50.4524 43.3864 49.8419 42.698 49.0638C42.0094 48.286 41.4844 47.3757 41.1228 46.3331C40.7611 45.2907 40.5801 44.1666 40.5801 42.9604C40.5801 41.7542 40.7611 40.6404 41.1228 39.5941C41.4844 38.5478 42.0094 37.6374 42.698 36.8633C43.3864 36.0892 44.2226 35.4787 45.2068 35.0312C46.191 34.5837 47.3091 34.36 48.5617 34.36ZM48.5617 48.5038C49.2931 48.5038 49.937 48.3658 50.493 48.0893C51.0491 47.8134 51.5182 47.4301 51.899 46.9401C52.2804 46.4499 52.5682 45.8705 52.7626 45.2012C52.957 44.5323 53.0545 43.801 53.0545 43.0075V42.914C53.0545 42.1282 52.957 41.3988 52.7626 40.7259C52.5682 40.053 52.2804 39.4712 51.899 38.9813C51.5179 38.4913 51.0491 38.1083 50.493 37.8318C49.937 37.5559 49.2931 37.4177 48.5617 37.4177C47.8304 37.4177 47.1848 37.5559 46.6245 37.8318C46.0644 38.1083 45.5958 38.4913 45.2185 38.9813C44.8411 39.4712 44.5552 40.0532 44.3608 40.7259C44.1665 41.3988 44.069 42.1282 44.069 42.914V43.0075C44.069 43.801 44.1665 44.5323 44.3608 45.2012C44.5552 45.8705 44.8411 46.4496 45.2185 46.9401C45.5958 47.4301 46.0644 47.8134 46.6245 48.0893C47.1848 48.3658 47.8304 48.5038 48.5617 48.5038Z" fill="white"/>
<path d="M62.5094 51.3277L57.7832 34.5937H61.5759L64.8086 47.1733H64.9252L68.0878 34.5937H71.8335L67.1073 51.3277H62.5097H62.5094Z" fill="white"/>
<path d="M91.0016 48.5038C91.4916 48.5038 91.9487 48.432 92.3725 48.288C92.7966 48.1441 93.1623 47.9263 93.4696 47.6345C93.7765 47.3426 94.0199 46.9735 94.1989 46.5258C94.3776 46.0786 94.4671 45.5516 94.4671 44.9448V34.5701H97.793V45.4461C97.793 46.3798 97.624 47.2241 97.286 47.9785C96.9479 48.7332 96.4777 49.3751 95.8751 49.9041C95.2726 50.4334 94.5555 50.8415 93.7241 51.1294C92.8924 51.417 91.9829 51.5612 90.9959 51.5612C90.0089 51.5612 89.0991 51.417 88.2677 51.1294C87.4357 50.8415 86.7169 50.4331 86.1104 49.9041C85.5039 49.3751 85.0319 48.7335 84.6936 47.9785C84.3555 47.2241 84.1865 46.3795 84.1865 45.4461V34.5701H87.5358V44.9445C87.5358 45.5513 87.6253 46.0783 87.804 46.5255C87.983 46.9732 88.2261 47.3423 88.5333 47.6342C88.8406 47.9261 89.2063 48.1438 89.6304 48.2877C90.0545 48.4317 90.5117 48.5035 91.0016 48.5035V48.5038Z" fill="white"/>
<path d="M100.794 34.5934H104.178V41.84L110.153 34.5934H114.319L108.508 41.2449L114.693 51.3274H110.76L106.337 43.8237L104.178 46.2393V51.3274H100.794V34.5934Z" fill="white"/>
<path d="M60.4837 72.7981V78.7795H59.6438V71.7776H60.8206L64.512 77.759V71.7776H65.3518V78.7795H64.1702L60.4837 72.7981ZM67.5101 76.5383C67.5263 76.7727 67.5735 76.9892 67.6517 77.1877C67.7298 77.3863 67.8356 77.5588 67.969 77.7053C68.1058 77.8486 68.2653 77.9609 68.4476 78.0422C68.6331 78.1204 68.8382 78.1594 69.0628 78.1594C69.3395 78.1594 69.582 78.1139 69.7903 78.0227C70.0019 77.9283 70.1956 77.8111 70.3714 77.6711L70.7913 78.262C70.5667 78.441 70.3063 78.5891 70.0101 78.7063C69.7171 78.8202 69.3883 78.8772 69.0237 78.8772C68.6624 78.8772 68.3352 78.8137 68.0423 78.6868C67.7493 78.5566 67.4987 78.3775 67.2903 78.1497C67.0852 77.9185 66.9274 77.6451 66.8167 77.3293C66.706 77.0103 66.6507 76.6637 66.6507 76.2893C66.6507 75.9084 66.7044 75.5601 66.8118 75.2444C66.9225 74.9254 67.0771 74.6519 67.2757 74.4241C67.4742 74.193 67.7119 74.0139 67.9886 73.887C68.2653 73.7568 68.5729 73.6917 68.9114 73.6917C69.2402 73.6917 69.5364 73.7568 69.8001 73.887C70.0638 74.0139 70.2884 74.193 70.4739 74.4241C70.6595 74.6519 70.8011 74.9254 70.8987 75.2444C70.9996 75.5601 71.0501 75.9052 71.0501 76.2795V76.5383H67.5101ZM68.8821 74.4094C68.6738 74.4094 68.4882 74.4501 68.3255 74.5315C68.1627 74.6129 68.0227 74.7219 67.9056 74.8586C67.7916 74.9954 67.7005 75.1532 67.6321 75.3323C67.567 75.5081 67.5296 75.6903 67.5198 75.8792H70.1614C70.1549 75.6871 70.1207 75.5032 70.0589 75.3274C70.0003 75.1484 69.9157 74.9921 69.805 74.8586C69.6976 74.7219 69.5657 74.6129 69.4095 74.5315C69.2565 74.4501 69.0807 74.4094 68.8821 74.4094ZM76.514 77.8079L77.4173 73.7893H78.2864L77.0657 78.7795H76.0159L75.0052 74.7805L73.9749 78.7795H72.9642L71.7532 73.7893H72.637L73.5061 77.8079L74.556 73.7893H75.4837L76.514 77.8079ZM57.3001 87.3977C57.3001 87.6321 57.248 87.842 57.1438 88.0276C57.0429 88.2099 56.9078 88.3645 56.7386 88.4915C56.5693 88.6184 56.374 88.7144 56.1526 88.7795C55.9345 88.8446 55.7099 88.8772 55.4788 88.8772C55.1142 88.8772 54.7627 88.8153 54.4241 88.6917C54.0888 88.5647 53.791 88.384 53.5306 88.1497L53.9798 87.5686C54.0579 87.637 54.1474 87.7086 54.2483 87.7834C54.3525 87.8583 54.4681 87.9283 54.595 87.9934C54.722 88.0553 54.8587 88.1073 55.0052 88.1497C55.1517 88.1887 55.3063 88.2083 55.469 88.2083C55.6025 88.2083 55.7295 88.192 55.8499 88.1594C55.9736 88.1236 56.081 88.0732 56.1722 88.0081C56.2633 87.9397 56.3349 87.8599 56.387 87.7688C56.4423 87.6744 56.47 87.5686 56.47 87.4514C56.47 87.3212 56.4407 87.2122 56.3821 87.1243C56.3268 87.0364 56.2503 86.9615 56.1526 86.8997C56.055 86.8378 55.941 86.7841 55.8108 86.7385C55.6806 86.693 55.5439 86.6474 55.4007 86.6018L55.0882 86.4993C54.9124 86.4407 54.7431 86.3739 54.5804 86.2991C54.4176 86.2242 54.2727 86.1331 54.1458 86.0256C54.0221 85.915 53.9228 85.7847 53.8479 85.635C53.7763 85.4853 53.7405 85.3062 53.7405 85.0979C53.7405 84.9286 53.7763 84.761 53.8479 84.595C53.9196 84.4257 54.0286 84.2743 54.1751 84.1409C54.3248 84.0074 54.5136 83.9 54.7415 83.8186C54.9694 83.734 55.2379 83.6917 55.5472 83.6917C55.889 83.6917 56.2047 83.7486 56.4944 83.8625C56.7874 83.9765 57.0348 84.1181 57.2366 84.2874L56.8069 84.8782C56.7353 84.8098 56.6507 84.7447 56.553 84.6829C56.4554 84.621 56.3512 84.5673 56.2405 84.5217C56.1298 84.4729 56.0143 84.4338 55.8938 84.4045C55.7734 84.3752 55.6546 84.3606 55.5374 84.3606C55.3584 84.3606 55.207 84.3818 55.0833 84.4241C54.9596 84.4631 54.8603 84.5152 54.7854 84.5803C54.7106 84.6454 54.6552 84.7187 54.6194 84.8C54.5869 84.8814 54.5706 84.9612 54.5706 85.0393C54.5706 85.1532 54.595 85.2493 54.6438 85.3274C54.6927 85.4023 54.7561 85.4674 54.8343 85.5227C54.9157 85.578 55.0068 85.6252 55.1077 85.6643C55.2119 85.7034 55.3193 85.7424 55.43 85.7815L55.8401 85.9182C56.0354 85.9833 56.2145 86.0533 56.3772 86.1282C56.54 86.1998 56.6832 86.2828 56.8069 86.3772C56.9632 86.5009 57.0836 86.6441 57.1683 86.8069C57.2561 86.9696 57.3001 87.1666 57.3001 87.3977ZM57.969 83.7893H58.8968L60.1272 87.9104L61.2991 83.7893H62.2171L60.4007 89.5315C60.3453 89.7073 60.2737 89.8505 60.1858 89.9612C60.0979 90.0751 59.997 90.1646 59.8831 90.2297C59.7724 90.2981 59.6487 90.3453 59.512 90.3713C59.3753 90.3974 59.2304 90.4104 59.0774 90.4104C58.9407 90.4104 58.7991 90.4023 58.6526 90.386C58.5061 90.373 58.3515 90.3534 58.1888 90.3274L58.3108 89.6096C58.3759 89.6226 58.4459 89.634 58.5208 89.6438C58.5826 89.6536 58.6526 89.6617 58.7308 89.6682C58.8089 89.6747 58.8886 89.678 58.97 89.678C59.149 89.678 59.2874 89.6389 59.3851 89.5608C59.486 89.4827 59.5576 89.3557 59.5999 89.1799L59.6487 88.9504L57.969 83.7893ZM66.929 88.7795H66.1087V85.6399C66.1087 85.4185 66.081 85.2314 66.0257 85.0784C65.9736 84.9254 65.902 84.8017 65.8108 84.7073C65.7229 84.6129 65.6171 84.5445 65.4935 84.5022C65.373 84.4599 65.2444 84.4387 65.1077 84.4387C64.971 84.4387 64.8359 84.4664 64.7024 84.5217C64.5722 84.5738 64.455 84.6568 64.3509 84.7708C64.25 84.8847 64.167 85.0295 64.1018 85.2053C64.04 85.3778 64.0091 85.5862 64.0091 85.8303V88.7795H63.1888V83.7893H64.0091V84.3606C64.1751 84.1295 64.3671 83.9602 64.5852 83.8528C64.8066 83.7454 65.0507 83.6917 65.3177 83.6917C65.4283 83.6917 65.5488 83.7079 65.679 83.7405C65.8092 83.7698 65.9362 83.817 66.0599 83.8821C66.1868 83.9472 66.3024 84.0334 66.4065 84.1409C66.514 84.245 66.6002 84.372 66.6653 84.5217C66.7565 84.3687 66.8606 84.2402 66.9778 84.136C67.0983 84.0286 67.2236 83.9423 67.3538 83.8772C67.4873 83.8121 67.624 83.7649 67.764 83.7356C67.9072 83.7063 68.0488 83.6917 68.1888 83.6917C68.4589 83.6917 68.6982 83.7372 68.9065 83.8284C69.1149 83.9195 69.2907 84.0416 69.4339 84.1946C69.5771 84.3476 69.6845 84.525 69.7561 84.7268C69.831 84.9286 69.8685 85.1402 69.8685 85.3616V88.7795H69.0481V85.6399C69.0481 85.4185 69.0205 85.2314 68.9651 85.0784C68.9098 84.9254 68.8349 84.8017 68.7405 84.7073C68.6461 84.6129 68.5371 84.5445 68.4134 84.5022C68.2897 84.4599 68.1611 84.4387 68.0276 84.4387C67.8909 84.4387 67.7558 84.4664 67.6224 84.5217C67.4921 84.5738 67.375 84.6568 67.2708 84.7708C67.1699 84.8847 67.0869 85.0295 67.0218 85.2053C66.9599 85.3778 66.929 85.5862 66.929 85.8303V88.7795ZM72.1536 88.7795H71.3333V81.7776H72.1536V84.3606C72.3001 84.1555 72.4987 83.9928 72.7493 83.8723C73 83.7519 73.288 83.6917 73.6136 83.6917C73.9358 83.6917 74.2272 83.7568 74.4876 83.887C74.748 84.0139 74.971 84.193 75.1565 84.4241C75.3421 84.6552 75.4837 84.9303 75.5813 85.2493C75.6823 85.565 75.7327 85.9117 75.7327 86.2893C75.7327 86.6669 75.6823 87.0136 75.5813 87.3293C75.4837 87.6451 75.3421 87.9185 75.1565 88.1497C74.971 88.3775 74.748 88.5566 74.4876 88.6868C74.2272 88.8137 73.9358 88.8772 73.6136 88.8772C73.288 88.8772 73 88.817 72.7493 88.6965C72.4987 88.5761 72.3001 88.4133 72.1536 88.2083V88.7795ZM74.8831 86.26C74.8831 85.9996 74.8522 85.7571 74.7903 85.5325C74.7285 85.3079 74.6373 85.1142 74.5169 84.9514C74.3964 84.7854 74.2467 84.6552 74.0677 84.5608C73.8919 84.4664 73.6901 84.4192 73.4622 84.4192C73.2441 84.4192 73.052 84.4566 72.886 84.5315C72.7233 84.6064 72.5865 84.7089 72.4759 84.8391C72.3652 84.9693 72.2806 85.1239 72.222 85.303C72.1666 85.4788 72.139 85.6708 72.139 85.8792V86.6897C72.139 86.898 72.1666 87.0917 72.222 87.2708C72.2806 87.4465 72.3652 87.5995 72.4759 87.7297C72.5865 87.8599 72.7233 87.9625 72.886 88.0374C73.052 88.1122 73.2441 88.1497 73.4622 88.1497C73.6901 88.1497 73.8919 88.1025 74.0677 88.0081C74.2467 87.9137 74.3964 87.7851 74.5169 87.6223C74.6373 87.4563 74.7285 87.261 74.7903 87.0364C74.8522 86.8118 74.8831 86.5693 74.8831 86.3088V86.26ZM78.9456 83.6917C79.2907 83.6917 79.6048 83.7568 79.888 83.887C80.1712 84.0139 80.4121 84.193 80.6106 84.4241C80.8125 84.6519 80.9687 84.9254 81.0794 85.2444C81.1901 85.5601 81.2454 85.9084 81.2454 86.2893C81.2454 86.6637 81.1901 87.0103 81.0794 87.3293C80.9687 87.6451 80.8125 87.9185 80.6106 88.1497C80.4121 88.3775 80.1712 88.5566 79.888 88.6868C79.6048 88.8137 79.2907 88.8772 78.9456 88.8772C78.6005 88.8772 78.2864 88.8137 78.0032 88.6868C77.7233 88.5566 77.4824 88.3775 77.2806 88.1497C77.0787 87.9185 76.9225 87.6451 76.8118 87.3293C76.7011 87.0103 76.6458 86.6637 76.6458 86.2893C76.6458 85.9084 76.7011 85.5601 76.8118 85.2444C76.9225 84.9254 77.0787 84.6519 77.2806 84.4241C77.4824 84.193 77.7233 84.0139 78.0032 83.887C78.2864 83.7568 78.6005 83.6917 78.9456 83.6917ZM78.9456 88.1594C79.1832 88.1594 79.3916 88.1106 79.5706 88.0129C79.7529 87.912 79.9043 87.7769 80.0247 87.6077C80.1484 87.4384 80.2412 87.2431 80.303 87.0217C80.3649 86.7971 80.3958 86.5627 80.3958 86.3186V86.26C80.3958 86.0094 80.3649 85.7717 80.303 85.5471C80.2412 85.3225 80.1484 85.1272 80.0247 84.9612C79.9043 84.7919 79.7529 84.6584 79.5706 84.5608C79.3916 84.4599 79.1832 84.4094 78.9456 84.4094C78.708 84.4094 78.498 84.4599 78.3157 84.5608C78.1367 84.6584 77.9853 84.7919 77.8616 84.9612C77.7412 85.1272 77.65 85.3225 77.5882 85.5471C77.5263 85.7717 77.4954 86.0094 77.4954 86.26V86.3186C77.4954 86.5627 77.5263 86.7971 77.5882 87.0217C77.65 87.2431 77.7412 87.4384 77.8616 87.6077C77.9853 87.7769 78.1367 87.912 78.3157 88.0129C78.498 88.1106 78.708 88.1594 78.9456 88.1594ZM82.4124 81.7776H83.2327V87.6614C83.2327 87.7428 83.2392 87.8144 83.2522 87.8762C83.2685 87.9381 83.2946 87.9902 83.3304 88.0325C83.3662 88.0748 83.415 88.1073 83.4768 88.1301C83.542 88.1497 83.6217 88.1594 83.7161 88.1594C83.8203 88.1594 83.9147 88.1562 83.9993 88.1497C84.0839 88.1431 84.1588 88.1366 84.2239 88.1301L84.3069 88.8186C84.2125 88.8284 84.1181 88.8381 84.0237 88.8479C83.9423 88.8544 83.8528 88.8609 83.7552 88.8674C83.6575 88.8739 83.5647 88.8772 83.4768 88.8772C83.3304 88.8772 83.192 88.8593 83.0618 88.8235C82.9316 88.7909 82.8177 88.7356 82.72 88.6575C82.6256 88.5793 82.5507 88.4784 82.4954 88.3547C82.4401 88.231 82.4124 88.0797 82.4124 87.9006V81.7776ZM48.0569 96.011C48.0569 95.6822 48.1041 95.3762 48.1985 95.093C48.2929 94.8098 48.428 94.5657 48.6038 94.3606C48.7796 94.1523 48.9912 93.9895 49.2386 93.8723C49.4892 93.7519 49.7692 93.6917 50.0784 93.6917C50.3518 93.6917 50.6123 93.7454 50.8597 93.8528C51.1071 93.9569 51.317 94.1262 51.4895 94.3606V93.7893H52.3099V98.7795C52.3099 99.0888 52.2464 99.3476 52.1194 99.5559C51.9957 99.7675 51.833 99.9368 51.6311 100.064C51.4293 100.191 51.1998 100.282 50.9427 100.337C50.6888 100.392 50.43 100.42 50.1663 100.42C50.0198 100.42 49.8668 100.412 49.7073 100.396C49.5511 100.379 49.3932 100.355 49.2337 100.323C49.0742 100.29 48.9163 100.248 48.7601 100.196C48.6071 100.147 48.4606 100.088 48.3206 100.02L48.6185 99.3313C48.7161 99.3769 48.8186 99.4208 48.9261 99.4631C49.0335 99.5087 49.149 99.5494 49.2727 99.5852C49.3997 99.621 49.5348 99.6503 49.678 99.6731C49.8212 99.6959 49.9775 99.7073 50.1468 99.7073C50.3551 99.7073 50.5423 99.6861 50.7083 99.6438C50.8776 99.6015 51.0192 99.5347 51.1331 99.4436C51.247 99.3557 51.3349 99.2418 51.3968 99.1018C51.4586 98.9651 51.4895 98.8007 51.4895 98.6086V97.6614C51.317 97.8958 51.1071 98.0667 50.8597 98.1741C50.6123 98.2782 50.3518 98.3303 50.0784 98.3303C49.7692 98.3303 49.4892 98.2717 49.2386 98.1545C48.9912 98.0341 48.7796 97.8697 48.6038 97.6614C48.428 97.453 48.2929 97.2089 48.1985 96.929C48.1041 96.6458 48.0569 96.3398 48.0569 96.011ZM51.5091 95.9915C51.5091 95.7668 51.4847 95.5601 51.4358 95.3713C51.387 95.1793 51.3105 95.0133 51.2063 94.8733C51.1022 94.7301 50.9687 94.6194 50.806 94.5413C50.6464 94.4599 50.4544 94.4192 50.2298 94.4192C50.0019 94.4192 49.805 94.4599 49.639 94.5413C49.4729 94.6226 49.3346 94.7349 49.2239 94.8782C49.1165 95.0181 49.0367 95.1842 48.9847 95.3762C48.9326 95.5683 48.9065 95.7734 48.9065 95.9915V96.0305C48.9065 96.2486 48.9326 96.4537 48.9847 96.6458C49.0367 96.8346 49.1165 97.0006 49.2239 97.1438C49.3346 97.2838 49.4729 97.3944 49.639 97.4758C49.805 97.5572 50.0019 97.5979 50.2298 97.5979C50.4544 97.5979 50.6464 97.5588 50.806 97.4807C50.9687 97.3993 51.1022 97.2887 51.2063 97.1487C51.3105 97.0087 51.387 96.8427 51.4358 96.6506C51.4847 96.4586 51.5091 96.2519 51.5091 96.0305V95.9915ZM55.806 93.6917C56.151 93.6917 56.4651 93.7568 56.7483 93.887C57.0315 94.0139 57.2724 94.193 57.471 94.4241C57.6728 94.6519 57.8291 94.9254 57.9397 95.2444C58.0504 95.5601 58.1058 95.9084 58.1058 96.2893C58.1058 96.6637 58.0504 97.0103 57.9397 97.3293C57.8291 97.6451 57.6728 97.9185 57.471 98.1497C57.2724 98.3775 57.0315 98.5566 56.7483 98.6868C56.4651 98.8137 56.151 98.8772 55.806 98.8772C55.4609 98.8772 55.1468 98.8137 54.8636 98.6868C54.5836 98.5566 54.3427 98.3775 54.1409 98.1497C53.9391 97.9185 53.7828 97.6451 53.6722 97.3293C53.5615 97.0103 53.5061 96.6637 53.5061 96.2893C53.5061 95.9084 53.5615 95.5601 53.6722 95.2444C53.7828 94.9254 53.9391 94.6519 54.1409 94.4241C54.3427 94.193 54.5836 94.0139 54.8636 93.887C55.1468 93.7568 55.4609 93.6917 55.806 93.6917ZM55.806 98.1594C56.0436 98.1594 56.2519 98.1106 56.431 98.0129C56.6132 97.912 56.7646 97.7769 56.8851 97.6077C57.0087 97.4384 57.1015 97.2431 57.1634 97.0217C57.2252 96.7971 57.2561 96.5627 57.2561 96.3186V96.26C57.2561 96.0094 57.2252 95.7717 57.1634 95.5471C57.1015 95.3225 57.0087 95.1272 56.8851 94.9612C56.7646 94.7919 56.6132 94.6584 56.431 94.5608C56.2519 94.4599 56.0436 94.4094 55.806 94.4094C55.5683 94.4094 55.3584 94.4599 55.1761 94.5608C54.997 94.6584 54.8457 94.7919 54.722 94.9612C54.6015 95.1272 54.5104 95.3225 54.4485 95.5471C54.3867 95.7717 54.3558 96.0094 54.3558 96.26V96.3186C54.3558 96.5627 54.3867 96.7971 54.4485 97.0217C54.5104 97.2431 54.6015 97.4384 54.722 97.6077C54.8457 97.7769 54.997 97.912 55.1761 98.0129C55.3584 98.1106 55.5683 98.1594 55.806 98.1594ZM59.8636 96.5383C59.8798 96.7727 59.927 96.9892 60.0052 97.1877C60.0833 97.3863 60.1891 97.5588 60.3226 97.7053C60.4593 97.8486 60.6188 97.9609 60.8011 98.0422C60.9866 98.1204 61.1917 98.1594 61.4163 98.1594C61.693 98.1594 61.9355 98.1139 62.1438 98.0227C62.3554 97.9283 62.5491 97.8111 62.7249 97.6711L63.1448 98.262C62.9202 98.441 62.6598 98.5891 62.3636 98.7063C62.0706 98.8202 61.7418 98.8772 61.3772 98.8772C61.0159 98.8772 60.6888 98.8137 60.3958 98.6868C60.1028 98.5566 59.8522 98.3775 59.6438 98.1497C59.4388 97.9185 59.2809 97.6451 59.1702 97.3293C59.0595 97.0103 59.0042 96.6637 59.0042 96.2893C59.0042 95.9084 59.0579 95.5601 59.1653 95.2444C59.276 94.9254 59.4306 94.6519 59.6292 94.4241C59.8278 94.193 60.0654 94.0139 60.3421 93.887C60.6188 93.7568 60.9264 93.6917 61.2649 93.6917C61.5937 93.6917 61.8899 93.7568 62.1536 93.887C62.4173 94.0139 62.6419 94.193 62.8274 94.4241C63.013 94.6519 63.1546 94.9254 63.2522 95.2444C63.3532 95.5601 63.4036 95.9052 63.4036 96.2795V96.5383H59.8636ZM61.2356 94.4094C61.0273 94.4094 60.8418 94.4501 60.679 94.5315C60.5162 94.6129 60.3763 94.7219 60.2591 94.8586C60.1451 94.9954 60.054 95.1532 59.9856 95.3323C59.9205 95.5081 59.8831 95.6903 59.8733 95.8792H62.5149C62.5084 95.6871 62.4742 95.5032 62.4124 95.3274C62.3538 95.1484 62.2692 94.9921 62.1585 94.8586C62.0511 94.7219 61.9192 94.6129 61.763 94.5315C61.61 94.4501 61.4342 94.4094 61.2356 94.4094ZM67.8909 97.3977C67.8909 97.6321 67.8388 97.842 67.7347 98.0276C67.6337 98.2099 67.4987 98.3645 67.3294 98.4915C67.1601 98.6184 66.9648 98.7144 66.7435 98.7795C66.5254 98.8446 66.3007 98.8772 66.0696 98.8772C65.705 98.8772 65.3535 98.8153 65.0149 98.6917C64.6796 98.5647 64.3818 98.384 64.1214 98.1497L64.5706 97.5686C64.6487 97.637 64.7382 97.7086 64.8392 97.7834C64.9433 97.8583 65.0589 97.9283 65.1858 97.9934C65.3128 98.0553 65.4495 98.1073 65.596 98.1497C65.7425 98.1887 65.8971 98.2083 66.0599 98.2083C66.1933 98.2083 66.3203 98.192 66.4407 98.1594C66.5644 98.1236 66.6718 98.0732 66.763 98.0081C66.8541 97.9397 66.9257 97.8599 66.9778 97.7688C67.0332 97.6744 67.0608 97.5686 67.0608 97.4514C67.0608 97.3212 67.0315 97.2122 66.9729 97.1243C66.9176 97.0364 66.8411 96.9615 66.7435 96.8997C66.6458 96.8378 66.5319 96.7841 66.4017 96.7385C66.2714 96.693 66.1347 96.6474 65.9915 96.6018L65.679 96.4993C65.5032 96.4407 65.3339 96.3739 65.1712 96.2991C65.0084 96.2242 64.8636 96.1331 64.7366 96.0256C64.6129 95.915 64.5136 95.7847 64.4388 95.635C64.3671 95.4853 64.3313 95.3062 64.3313 95.0979C64.3313 94.9286 64.3671 94.761 64.4388 94.595C64.5104 94.4257 64.6194 94.2743 64.7659 94.1409C64.9157 94.0074 65.1045 93.9 65.3323 93.8186C65.5602 93.734 65.8287 93.6917 66.138 93.6917C66.4798 93.6917 66.7955 93.7486 67.0852 93.8625C67.3782 93.9765 67.6256 94.1181 67.8274 94.2874L67.3977 94.8782C67.3261 94.8098 67.2415 94.7447 67.1438 94.6829C67.0462 94.621 66.942 94.5673 66.8313 94.5217C66.7207 94.4729 66.6051 94.4338 66.4847 94.4045C66.3642 94.3752 66.2454 94.3606 66.1282 94.3606C65.9492 94.3606 65.7978 94.3818 65.6741 94.4241C65.5504 94.4631 65.4511 94.5152 65.3763 94.5803C65.3014 94.6454 65.2461 94.7187 65.2102 94.8C65.1777 94.8814 65.1614 94.9612 65.1614 95.0393C65.1614 95.1532 65.1858 95.2493 65.2347 95.3274C65.2835 95.4023 65.347 95.4674 65.4251 95.5227C65.5065 95.578 65.5976 95.6252 65.6985 95.6643C65.8027 95.7034 65.9101 95.7424 66.0208 95.7815L66.431 95.9182C66.6263 95.9833 66.8053 96.0533 66.9681 96.1282C67.1308 96.1998 67.274 96.2828 67.3977 96.3772C67.554 96.5009 67.6744 96.6441 67.7591 96.8069C67.847 96.9696 67.8909 97.1666 67.8909 97.3977ZM71.1526 91.7776H71.9729V94.3606C72.1422 94.1295 72.3505 93.9602 72.5979 93.8528C72.8486 93.7454 73.1269 93.6917 73.4329 93.6917C73.7096 93.6917 73.9521 93.7372 74.1604 93.8284C74.3688 93.9195 74.5429 94.0432 74.6829 94.1995C74.8229 94.3557 74.927 94.5364 74.9954 94.7415C75.067 94.9465 75.1028 95.163 75.1028 95.3909V98.7795H74.2825V95.6497C74.2825 95.4316 74.2548 95.246 74.1995 95.093C74.1474 94.9368 74.0742 94.8114 73.9798 94.717C73.8886 94.6194 73.7796 94.5494 73.6526 94.5071C73.5289 94.4615 73.3955 94.4387 73.2522 94.4387C73.096 94.4387 72.9414 94.468 72.7884 94.5266C72.6354 94.5819 72.4987 94.6666 72.3782 94.7805C72.2578 94.8944 72.1601 95.0377 72.0852 95.2102C72.0104 95.3827 71.9729 95.5862 71.9729 95.8206V98.7795H71.1526V91.7776ZM77.1194 96.5383C77.1357 96.7727 77.1829 96.9892 77.261 97.1877C77.3392 97.3863 77.4449 97.5588 77.5784 97.7053C77.7151 97.8486 77.8746 97.9609 78.0569 98.0422C78.2425 98.1204 78.4476 98.1594 78.6722 98.1594C78.9489 98.1594 79.1914 98.1139 79.3997 98.0227C79.6113 97.9283 79.805 97.8111 79.9808 97.6711L80.4007 98.262C80.1761 98.441 79.9157 98.5891 79.6194 98.7063C79.3265 98.8202 78.9977 98.8772 78.6331 98.8772C78.2718 98.8772 77.9446 98.8137 77.6517 98.6868C77.3587 98.5566 77.108 98.3775 76.8997 98.1497C76.6946 97.9185 76.5367 97.6451 76.4261 97.3293C76.3154 97.0103 76.2601 96.6637 76.2601 96.2893C76.2601 95.9084 76.3138 95.5601 76.4212 95.2444C76.5319 94.9254 76.6865 94.6519 76.8851 94.4241C77.0836 94.193 77.3212 94.0139 77.5979 93.887C77.8746 93.7568 78.1823 93.6917 78.5208 93.6917C78.8496 93.6917 79.1458 93.7568 79.4095 93.887C79.6731 94.0139 79.8977 94.193 80.0833 94.4241C80.2688 94.6519 80.4104 94.9254 80.5081 95.2444C80.609 95.5601 80.6595 95.9052 80.6595 96.2795V96.5383H77.1194ZM78.4915 94.4094C78.2832 94.4094 78.0976 94.4501 77.9349 94.5315C77.7721 94.6129 77.6321 94.7219 77.5149 94.8586C77.401 94.9954 77.3099 95.1532 77.2415 95.3323C77.1764 95.5081 77.139 95.6903 77.1292 95.8792H79.7708C79.7643 95.6871 79.7301 95.5032 79.6683 95.3274C79.6097 95.1484 79.525 94.9921 79.4143 94.8586C79.3069 94.7219 79.1751 94.6129 79.0188 94.5315C78.8658 94.4501 78.6901 94.4094 78.4915 94.4094ZM84.3558 94.5217H84.2239C84.0123 94.5217 83.8105 94.5461 83.6185 94.595C83.4264 94.6438 83.2571 94.7317 83.1106 94.8586C82.9642 94.9856 82.847 95.1597 82.7591 95.3811C82.6712 95.5992 82.6272 95.8792 82.6272 96.2209V98.7795H81.8069V93.7893H82.6272V94.5803C82.6891 94.4338 82.7721 94.3053 82.8763 94.1946C82.9804 94.0839 83.0976 93.9928 83.2278 93.9211C83.3613 93.8463 83.5029 93.7909 83.6526 93.7551C83.8056 93.7193 83.9602 93.7014 84.1165 93.7014H84.3558V94.5217ZM85.7522 96.5383C85.7685 96.7727 85.8157 96.9892 85.8938 97.1877C85.972 97.3863 86.0778 97.5588 86.2112 97.7053C86.3479 97.8486 86.5074 97.9609 86.6897 98.0422C86.8753 98.1204 87.0804 98.1594 87.305 98.1594C87.5817 98.1594 87.8242 98.1139 88.0325 98.0227C88.2441 97.9283 88.4378 97.8111 88.6136 97.6711L89.0335 98.262C88.8089 98.441 88.5485 98.5891 88.2522 98.7063C87.9593 98.8202 87.6305 98.8772 87.2659 98.8772C86.9046 98.8772 86.5774 98.8137 86.2845 98.6868C85.9915 98.5566 85.7408 98.3775 85.5325 98.1497C85.3274 97.9185 85.1696 97.6451 85.0589 97.3293C84.9482 97.0103 84.8929 96.6637 84.8929 96.2893C84.8929 95.9084 84.9466 95.5601 85.054 95.2444C85.1647 94.9254 85.3193 94.6519 85.5179 94.4241C85.7164 94.193 85.9541 94.0139 86.2308 93.887C86.5074 93.7568 86.8151 93.6917 87.1536 93.6917C87.4824 93.6917 87.7786 93.7568 88.0423 93.887C88.306 94.0139 88.5306 94.193 88.7161 94.4241C88.9017 94.6519 89.0433 94.9254 89.1409 95.2444C89.2418 95.5601 89.2923 95.9052 89.2923 96.2795V96.5383H85.7522ZM87.1243 94.4094C86.916 94.4094 86.7304 94.4501 86.5677 94.5315C86.4049 94.6129 86.2649 94.7219 86.1477 94.8586C86.0338 94.9954 85.9427 95.1532 85.8743 95.3323C85.8092 95.5081 85.7718 95.6903 85.762 95.8792H88.4036C88.3971 95.6871 88.3629 95.5032 88.3011 95.3274C88.2425 95.1484 88.1578 94.9921 88.0472 94.8586C87.9397 94.7219 87.8079 94.6129 87.6517 94.5315C87.4987 94.4501 87.3229 94.4094 87.1243 94.4094Z" fill="white"/>
<rect x="44.7813" y="63.5" width="47.717" height="45.6033" stroke="white" stroke-width="1.00001" stroke-dasharray="2 2"/>
</svg>
