<svg width="480" height="320" viewBox="0 0 480 320" fill="none" xmlns="http://www.w3.org/2000/svg">
<g clip-path="url(#clip0_1318_24518)">
<rect width="480" height="320" fill="white"/>
<path d="M480 0H0V320H480V0Z" fill="#1D70B8"/>
<rect x="156.181" y="76.1806" width="167.639" height="167.639" rx="19.7443" fill="#1D70B8"/>
<rect x="156.181" y="76.1806" width="167.639" height="167.639" rx="19.7443" stroke="white" stroke-width="2.36111"/>
<path d="M250.535 131.699C252.467 131.699 254.033 130.132 254.033 128.2C254.033 126.268 252.467 124.702 250.535 124.702C248.602 124.702 247.036 126.268 247.036 128.2C247.036 130.132 248.602 131.699 250.535 131.699Z" fill="#00FFE0"/>
<path d="M187.296 128.258C187.296 129.144 187.407 129.997 187.629 130.816C187.85 131.635 188.187 132.357 188.64 132.983C189.093 133.61 189.671 134.113 190.374 134.494C191.078 134.874 191.916 135.065 192.889 135.065C193.862 135.065 194.601 134.915 195.223 134.617C195.844 134.318 196.34 133.945 196.711 133.497C197.082 133.049 197.342 132.565 197.492 132.045C197.641 131.524 197.716 131.043 197.716 130.599V130.397H192.412V127.204H201.791V138.562H198.12V136.134C197.86 136.539 197.537 136.907 197.152 137.24C196.767 137.572 196.333 137.856 195.851 138.092C195.37 138.328 194.842 138.514 194.269 138.649C193.696 138.783 193.086 138.851 192.441 138.851C190.928 138.851 189.585 138.576 188.409 138.027C187.234 137.478 186.244 136.722 185.44 135.758C184.635 134.795 184.024 133.668 183.604 132.377C183.185 131.086 182.976 129.694 182.976 128.2C182.976 126.707 183.209 125.327 183.677 124.032C184.144 122.736 184.808 121.609 185.671 120.65C186.533 119.691 187.574 118.935 188.792 118.381C190.011 117.827 191.377 117.55 192.889 117.55C193.872 117.55 194.804 117.663 195.685 117.889C196.567 118.116 197.371 118.439 198.099 118.858C198.826 119.277 199.469 119.783 200.028 120.375C200.587 120.967 201.04 121.625 201.387 122.348L197.716 124.414C197.494 123.971 197.234 123.559 196.936 123.178C196.637 122.798 196.292 122.47 195.902 122.195C195.512 121.921 195.067 121.704 194.566 121.545C194.065 121.387 193.506 121.307 192.89 121.307C191.917 121.307 191.078 121.497 190.375 121.878C189.671 122.258 189.094 122.762 188.641 123.388C188.188 124.014 187.851 124.739 187.629 125.563C187.408 126.387 187.297 127.237 187.297 128.113V128.258H187.296Z" fill="white"/>
<path d="M215.139 117.549C216.68 117.549 218.063 117.827 219.287 118.381C220.51 118.935 221.548 119.691 222.401 120.649C223.253 121.608 223.904 122.735 224.352 124.031C224.8 125.327 225.023 126.717 225.023 128.2C225.023 129.683 224.8 131.085 224.352 132.376C223.904 133.667 223.253 134.795 222.401 135.758C221.549 136.721 220.51 137.477 219.287 138.027C218.063 138.576 216.68 138.85 215.139 138.85C213.598 138.85 212.203 138.576 210.984 138.027C209.766 137.477 208.73 136.721 207.878 135.758C207.025 134.795 206.375 133.667 205.927 132.376C205.479 131.085 205.255 129.693 205.255 128.2C205.255 126.706 205.479 125.327 205.927 124.031C206.375 122.735 207.025 121.608 207.878 120.649C208.73 119.691 209.766 118.935 210.984 118.381C212.203 117.827 213.588 117.549 215.139 117.549ZM215.139 135.064C216.045 135.064 216.842 134.893 217.531 134.551C218.219 134.209 218.8 133.735 219.272 133.128C219.744 132.521 220.1 131.803 220.341 130.975C220.582 130.146 220.703 129.241 220.703 128.258V128.142C220.703 127.169 220.582 126.266 220.341 125.433C220.1 124.599 219.744 123.879 219.272 123.272C218.8 122.666 218.219 122.191 217.531 121.849C216.842 121.507 216.045 121.336 215.139 121.336C214.233 121.336 213.434 121.507 212.74 121.849C212.046 122.191 211.466 122.666 210.999 123.272C210.532 123.879 210.178 124.6 209.937 125.433C209.696 126.266 209.575 127.169 209.575 128.142V128.258C209.575 129.241 209.696 130.146 209.937 130.975C210.178 131.803 210.532 132.521 210.999 133.128C211.466 133.735 212.046 134.209 212.74 134.551C213.434 134.893 214.233 135.064 215.139 135.064Z" fill="white"/>
<path d="M232.411 138.561L226.559 117.839H231.255L235.259 133.417H235.403L239.319 117.839H243.958L238.105 138.561H232.412H232.411Z" fill="white"/>
<path d="M267.693 135.064C268.3 135.064 268.866 134.975 269.391 134.797C269.916 134.619 270.369 134.349 270.75 133.988C271.13 133.626 271.431 133.169 271.653 132.615C271.874 132.061 271.985 131.408 271.985 130.657V117.81H276.104V131.278C276.104 132.434 275.894 133.48 275.476 134.414C275.057 135.348 274.475 136.143 273.728 136.798C272.982 137.454 272.094 137.959 271.065 138.316C270.035 138.672 268.909 138.85 267.686 138.85C266.464 138.85 265.337 138.672 264.308 138.316C263.278 137.959 262.387 137.453 261.636 136.798C260.885 136.143 260.301 135.349 259.882 134.414C259.463 133.48 259.254 132.434 259.254 131.278V117.81H263.401V130.657C263.401 131.408 263.512 132.061 263.734 132.615C263.955 133.169 264.256 133.626 264.637 133.987C265.017 134.349 265.47 134.619 265.995 134.797C266.52 134.975 267.087 135.064 267.693 135.064V135.064Z" fill="white"/>
<path d="M279.82 117.839H284.011V126.812L291.41 117.839H296.569L289.373 126.075L297.032 138.561H292.162L286.685 129.269L284.011 132.26V138.561H279.82V117.839Z" fill="white"/>
<path d="M228.811 172.919C230.743 172.919 232.309 171.353 232.309 169.421C232.309 167.489 230.743 165.922 228.811 165.922C226.879 165.922 225.312 167.489 225.312 169.421C225.312 171.353 226.879 172.919 228.811 172.919Z" fill="white"/>
<path d="M219.399 178.556C221.331 178.556 222.897 176.99 222.897 175.058C222.897 173.126 221.331 171.559 219.399 171.559C217.467 171.559 215.9 173.126 215.9 175.058C215.9 176.99 217.467 178.556 219.399 178.556Z" fill="white"/>
<path d="M213.172 187.827C215.104 187.827 216.671 186.26 216.671 184.328C216.671 182.396 215.104 180.83 213.172 180.83C211.24 180.83 209.674 182.396 209.674 184.328C209.674 186.26 211.24 187.827 213.172 187.827Z" fill="white"/>
<path d="M240.002 185.377C241.934 185.377 243.501 183.811 243.501 181.879C243.501 179.946 241.934 178.38 240.002 178.38C238.07 178.38 236.504 179.946 236.504 181.879C236.504 183.811 238.07 185.377 240.002 185.377Z" fill="white"/>
<path d="M251.181 172.919C253.113 172.919 254.679 171.353 254.679 169.421C254.679 167.489 253.113 165.922 251.181 165.922C249.249 165.922 247.683 167.489 247.683 169.421C247.683 171.353 249.249 172.919 251.181 172.919Z" fill="white"/>
<path d="M260.594 178.556C262.526 178.556 264.093 176.99 264.093 175.058C264.093 173.126 262.526 171.559 260.594 171.559C258.662 171.559 257.096 173.126 257.096 175.058C257.096 176.99 258.662 178.556 260.594 178.556Z" fill="white"/>
<path d="M266.821 187.827C268.753 187.827 270.319 186.26 270.319 184.328C270.319 182.396 268.753 180.83 266.821 180.83C264.889 180.83 263.322 182.396 263.322 184.328C263.322 186.26 264.889 187.827 266.821 187.827Z" fill="white"/>
<path d="M240.002 185.377C241.934 185.377 243.501 183.811 243.501 181.879C243.501 179.946 241.934 178.38 240.002 178.38C238.07 178.38 236.504 179.946 236.504 181.879C236.504 183.811 238.07 185.377 240.002 185.377Z" fill="white"/>
<path d="M241.411 161.928C241.588 161.795 241.746 161.638 241.879 161.461L246.329 163.797V157.238L241.885 158.649C241.755 158.475 241.602 158.32 241.43 158.188L243.218 152.555H236.783L238.572 158.188C238.4 158.319 238.247 158.474 238.117 158.649L233.673 157.238V163.797L238.123 161.461C238.256 161.638 238.413 161.795 238.59 161.928L236.055 169.573C235.163 172.264 237.166 175.039 240.001 175.039C242.835 175.039 244.839 172.264 243.947 169.573L241.411 161.928Z" fill="white"/>
<path d="M245.087 188.846C245.087 188.846 241.838 192.461 241.129 194.668C243.255 194.6 245.166 194.186 247.269 191.991L246.556 200.159C244.621 197.443 242.351 196.273 241.092 196.507C241.22 199.434 241.526 202.97 246.652 203.436C250.228 203.747 253.1 201.99 253.398 199.816C253.753 197.319 251.503 195.668 249.806 198.296C248.48 193.946 252.144 192.5 254.497 195.193C252.685 190.901 252.734 187.851 256.764 184.767C259.655 188.611 259.245 191.788 255.661 195.365C257.994 194.074 261.618 195.433 259.483 199.793C258.369 197.081 255.975 197.687 255.473 200.02C255.139 201.669 256.139 203.608 258.313 204.006C260.097 204.333 262.845 203.114 265.047 198.37C263.809 198.402 262.721 199.027 261.316 199.995L263.626 192.294C264.208 194.455 264.952 195.874 265.741 196.641C266.27 195.086 266.194 193.958 265.721 191.534L270.496 193.234C267.96 196.694 265.502 201.55 263.487 210.03C256.383 209.016 248.43 208.446 240.002 208.446C231.576 208.446 223.622 209.016 216.518 210.03C214.503 201.549 212.045 196.693 209.509 193.234L214.284 191.534C213.81 193.958 213.735 195.086 214.264 196.641C215.053 195.874 215.797 194.455 216.379 192.294L218.689 199.995C217.283 199.027 216.196 198.402 214.958 198.37C217.16 203.114 219.908 204.332 221.692 204.006C223.866 203.608 224.866 201.669 224.532 200.02C224.03 197.687 221.637 197.081 220.521 199.793C218.387 195.433 222.011 194.074 224.344 195.365C220.76 191.788 220.349 188.611 223.241 184.767C227.271 187.85 227.319 190.9 225.508 195.193C227.861 192.501 231.525 193.946 230.199 198.296C228.502 195.668 226.252 197.319 226.607 199.816C226.905 201.991 229.777 203.747 233.353 203.436C238.479 202.97 238.785 199.434 238.913 196.507C237.654 196.273 235.384 197.443 233.449 200.159L232.736 191.991C234.839 194.186 236.75 194.6 238.876 194.668C238.167 192.461 234.918 188.846 234.918 188.846H245.09H245.087Z" fill="white"/>
</g>
<defs>
<clipPath id="clip0_1318_24518">
<rect width="480" height="320" fill="white"/>
</clipPath>
</defs>
</svg>
