<svg width="138" height="138" viewBox="0 0 138 138" fill="none" xmlns="http://www.w3.org/2000/svg">
<rect width="137.28" height="137.28" rx="30.41" fill="#1D70B8"/>
<path d="M77.1454 45.7858C78.7057 45.7858 79.9705 44.521 79.9705 42.9607C79.9705 41.4005 78.7057 40.1356 77.1454 40.1356C75.5852 40.1356 74.3203 41.4005 74.3203 42.9607C74.3203 44.521 75.5852 45.7858 77.1454 45.7858Z" fill="#00FFE0"/>
<path d="M26.0788 43.0075C26.0788 43.7232 26.1683 44.4118 26.3472 45.0731C26.526 45.7343 26.7981 46.3177 27.1641 46.8234C27.5298 47.3293 27.9964 47.7357 28.5644 48.043C29.1324 48.3502 29.8094 48.5041 30.5952 48.5041C31.381 48.5041 31.9781 48.3836 32.48 48.1424C32.9816 47.9013 33.3824 47.5998 33.6819 47.2378C33.9812 46.8761 34.1912 46.4853 34.3121 46.0652C34.4326 45.6451 34.4928 45.2561 34.4928 44.8981V44.7348H30.2101V42.1559H37.7836V51.3281H34.8197V49.3674C34.6096 49.6944 34.3489 49.9919 34.0379 50.2604C33.7267 50.5286 33.3767 50.7583 32.9873 50.9487C32.5983 51.1394 32.1722 51.2893 31.7096 51.3982C31.2467 51.5071 30.7545 51.5615 30.2335 51.5615C29.0119 51.5615 27.9268 51.3398 26.9777 50.8963C26.0286 50.4528 25.2291 49.8423 24.5796 49.0642C23.93 48.2864 23.4361 47.376 23.0975 46.3334C22.7591 45.2911 22.5898 44.167 22.5898 42.9608C22.5898 41.7546 22.7785 40.6407 23.1559 39.5944C23.5333 38.5481 24.0699 37.6378 24.7665 36.8637C25.4628 36.0896 26.3028 35.4791 27.287 35.0316C28.2711 34.5841 29.3739 34.3604 30.5954 34.3604C31.3889 34.3604 32.1417 34.4518 32.8534 34.6345C33.5653 34.8175 34.2149 35.078 34.8023 35.4163C35.3895 35.7547 35.9088 36.1634 36.3602 36.6416C36.8111 37.1199 37.1771 37.6512 37.4573 38.2346L34.4931 39.9031C34.3141 39.5454 34.104 39.2128 33.8629 38.9053C33.6215 38.5983 33.3436 38.3335 33.0286 38.1118C32.7134 37.89 32.3537 37.715 31.9493 37.5868C31.5446 37.4585 31.0934 37.3941 30.5957 37.3941C29.8099 37.3941 29.133 37.548 28.565 37.8553C27.9969 38.1625 27.5304 38.5689 27.1647 39.0748C26.799 39.5805 26.5268 40.1659 26.3478 40.8311C26.1688 41.4964 26.0793 42.1833 26.0793 42.8907V43.0075H26.0788Z" fill="white"/>
<path d="M48.5617 34.36C49.8064 34.36 50.9228 34.5837 51.911 35.0312C52.8989 35.4787 53.7374 36.0892 54.426 36.8633C55.1143 37.6374 55.6396 38.5478 56.0013 39.5941C56.363 40.6404 56.5437 41.7628 56.5437 42.9604C56.5437 44.1581 56.363 45.2907 56.0013 46.3331C55.6396 47.3757 55.1143 48.286 54.426 49.0638C53.7377 49.8416 52.8991 50.4524 51.911 50.8959C50.9231 51.3394 49.8064 51.5612 48.5617 51.5612C47.3171 51.5612 46.1907 51.3394 45.2068 50.8959C44.2226 50.4524 43.3864 49.8419 42.698 49.0638C42.0094 48.286 41.4844 47.3757 41.1228 46.3331C40.7611 45.2907 40.5801 44.1666 40.5801 42.9604C40.5801 41.7542 40.7611 40.6404 41.1228 39.5941C41.4844 38.5478 42.0094 37.6374 42.698 36.8633C43.3864 36.0892 44.2226 35.4787 45.2068 35.0312C46.191 34.5837 47.3091 34.36 48.5617 34.36ZM48.5617 48.5038C49.2931 48.5038 49.937 48.3658 50.493 48.0893C51.0491 47.8134 51.5182 47.4301 51.899 46.9401C52.2804 46.4499 52.5682 45.8705 52.7626 45.2012C52.957 44.5323 53.0545 43.801 53.0545 43.0075V42.914C53.0545 42.1282 52.957 41.3988 52.7626 40.7259C52.5682 40.053 52.2804 39.4712 51.899 38.9813C51.5179 38.4913 51.0491 38.1083 50.493 37.8318C49.937 37.5559 49.2931 37.4177 48.5617 37.4177C47.8304 37.4177 47.1848 37.5559 46.6245 37.8318C46.0644 38.1083 45.5958 38.4913 45.2185 38.9813C44.8411 39.4712 44.5552 40.0532 44.3608 40.7259C44.1665 41.3988 44.069 42.1282 44.069 42.914V43.0075C44.069 43.801 44.1665 44.5323 44.3608 45.2012C44.5552 45.8705 44.8411 46.4496 45.2185 46.9401C45.5958 47.4301 46.0644 47.8134 46.6245 48.0893C47.1848 48.3658 47.8304 48.5038 48.5617 48.5038Z" fill="white"/>
<path d="M62.5094 51.3277L57.7832 34.5937H61.5759L64.8086 47.1733H64.9252L68.0878 34.5937H71.8335L67.1073 51.3277H62.5097H62.5094Z" fill="white"/>
<path d="M91.0016 48.5038C91.4916 48.5038 91.9487 48.432 92.3725 48.288C92.7966 48.1441 93.1623 47.9263 93.4696 47.6345C93.7765 47.3426 94.0199 46.9735 94.1989 46.5258C94.3776 46.0786 94.4671 45.5516 94.4671 44.9448V34.5701H97.793V45.4461C97.793 46.3798 97.624 47.2241 97.286 47.9785C96.9479 48.7332 96.4777 49.3751 95.8751 49.9041C95.2726 50.4334 94.5555 50.8415 93.7241 51.1294C92.8924 51.417 91.9829 51.5612 90.9959 51.5612C90.0089 51.5612 89.0991 51.417 88.2677 51.1294C87.4357 50.8415 86.7169 50.4331 86.1104 49.9041C85.5039 49.3751 85.0319 48.7335 84.6936 47.9785C84.3555 47.2241 84.1865 46.3795 84.1865 45.4461V34.5701H87.5358V44.9445C87.5358 45.5513 87.6253 46.0783 87.804 46.5255C87.983 46.9732 88.2261 47.3423 88.5333 47.6342C88.8406 47.9261 89.2063 48.1438 89.6304 48.2877C90.0545 48.4317 90.5117 48.5035 91.0016 48.5035V48.5038Z" fill="white"/>
<path d="M100.794 34.5934H104.178V41.84L110.153 34.5934H114.319L108.508 41.2449L114.693 51.3274H110.76L106.337 43.8237L104.178 46.2393V51.3274H100.794V34.5934Z" fill="white"/>
<path d="M59.6034 79.0727C61.1637 79.0727 62.4285 77.8079 62.4285 76.2476C62.4285 74.6874 61.1637 73.4225 59.6034 73.4225C58.0432 73.4225 56.7783 74.6874 56.7783 76.2476C56.7783 77.8079 58.0432 79.0727 59.6034 79.0727Z" fill="white"/>
<path d="M52.0028 83.625C53.5631 83.625 54.8279 82.3601 54.8279 80.7999C54.8279 79.2396 53.5631 77.9748 52.0028 77.9748C50.4426 77.9748 49.1777 79.2396 49.1777 80.7999C49.1777 82.3601 50.4426 83.625 52.0028 83.625Z" fill="white"/>
<path d="M46.9745 91.111C48.5347 91.111 49.7996 89.8462 49.7996 88.2859C49.7996 86.7256 48.5347 85.4608 46.9745 85.4608C45.4142 85.4608 44.1494 86.7256 44.1494 88.2859C44.1494 89.8462 45.4142 91.111 46.9745 91.111Z" fill="white"/>
<path d="M68.6405 89.1329C70.2008 89.1329 71.4656 87.8681 71.4656 86.3078C71.4656 84.7476 70.2008 83.4827 68.6405 83.4827C67.0803 83.4827 65.8154 84.7476 65.8154 86.3078C65.8154 87.8681 67.0803 89.1329 68.6405 89.1329Z" fill="white"/>
<path d="M77.6679 79.0727C79.2281 79.0727 80.4929 77.8079 80.4929 76.2476C80.4929 74.6874 79.2281 73.4225 77.6679 73.4225C76.1076 73.4225 74.8428 74.6874 74.8428 76.2476C74.8428 77.8079 76.1076 79.0727 77.6679 79.0727Z" fill="white"/>
<path d="M85.2684 83.625C86.8287 83.625 88.0935 82.3601 88.0935 80.7999C88.0935 79.2396 86.8287 77.9748 85.2684 77.9748C83.7082 77.9748 82.4434 79.2396 82.4434 80.7999C82.4434 82.3601 83.7082 83.625 85.2684 83.625Z" fill="white"/>
<path d="M90.2968 91.111C91.857 91.111 93.1218 89.8462 93.1218 88.2859C93.1218 86.7256 91.857 85.4608 90.2968 85.4608C88.7365 85.4608 87.4717 86.7256 87.4717 88.2859C87.4717 89.8462 88.7365 91.111 90.2968 91.111Z" fill="white"/>
<path d="M68.6405 89.1329C70.2008 89.1329 71.4656 87.8681 71.4656 86.3078C71.4656 84.7476 70.2008 83.4827 68.6405 83.4827C67.0803 83.4827 65.8154 84.7476 65.8154 86.3078C65.8154 87.8681 67.0803 89.1329 68.6405 89.1329Z" fill="white"/>
<path d="M69.7784 70.1973C69.9213 70.0899 70.0482 69.963 70.1556 69.8201L73.7494 71.7067V66.4098L70.1608 67.5488C70.0562 67.4088 69.9322 67.2836 69.7933 67.1768L71.2376 62.6279H66.0412L67.4854 67.1768C67.3466 67.2831 67.2231 67.4082 67.1179 67.5488L63.5293 66.4098V71.7067L67.1231 69.8201C67.2305 69.963 67.3574 70.0899 67.5003 70.1973L65.4531 76.3704C64.7324 78.5434 66.3504 80.7844 68.6394 80.7844C70.9284 80.7844 72.5464 78.5434 71.8257 76.3704L69.7784 70.1973Z" fill="white"/>
<path d="M72.747 91.9339C72.747 91.9339 70.123 94.8538 69.5504 96.6353C71.2678 96.581 72.811 96.2466 74.509 94.4737L73.9334 101.07C72.3703 98.8768 70.5374 97.9315 69.5212 98.1207C69.6241 100.485 69.8716 103.34 74.0106 103.716C76.8986 103.967 79.2173 102.548 79.4585 100.793C79.7448 98.7768 77.9279 97.4429 76.5579 99.5655C75.4869 96.0529 78.4457 94.8853 80.346 97.0599C78.8829 93.5936 78.9218 91.1309 82.1761 88.6407C84.5108 91.7447 84.1799 94.3103 81.2856 97.1988C83.17 96.1563 86.0962 97.2531 84.3725 100.774C83.4723 98.5842 81.5394 99.0734 81.1342 100.958C80.8638 102.289 81.6714 103.855 83.4272 104.176C84.868 104.44 87.0867 103.456 88.8653 99.625C87.8651 99.6507 86.9872 100.156 85.8522 100.937L87.7177 94.7184C88.1875 96.4638 88.7887 97.6097 89.4254 98.2293C89.8529 96.9731 89.7918 96.062 89.4094 94.1045L93.2655 95.4774C91.2172 98.2716 89.2328 102.193 87.6056 109.041C81.8686 108.222 75.4463 107.762 68.6411 107.762C61.8364 107.762 55.4135 108.223 49.6765 109.041C48.0493 102.192 46.065 98.271 44.0166 95.4774L47.8727 94.1045C47.4898 96.062 47.4292 96.9731 47.8567 98.2293C48.4934 97.6097 49.0947 96.4638 49.5645 94.7184L51.4299 100.937C50.2949 100.155 49.417 99.6507 48.4168 99.625C50.1954 103.456 52.4141 104.44 53.855 104.176C55.6107 103.855 56.4177 102.289 56.1479 100.958C55.7427 99.0734 53.8104 98.5842 52.9096 100.774C51.1859 97.2531 54.1121 96.1558 55.9965 97.1988C53.1022 94.3103 52.7708 91.7441 55.106 88.6407C58.3603 91.1303 58.3992 93.593 56.9361 97.0599C58.8364 94.8858 61.7953 96.0529 60.7242 99.5655C59.3542 97.4429 57.5373 98.7768 57.8237 100.793C58.0649 102.549 60.3836 103.967 63.2715 103.716C67.4106 103.34 67.658 100.485 67.7609 98.1207C66.7447 97.9315 64.9118 98.8763 63.3487 101.07L62.7731 94.4737C64.4712 96.2466 66.0149 96.5804 67.7318 96.6353C67.1591 94.8538 64.5352 91.9339 64.5352 91.9339H72.7492H72.747Z" fill="white"/>
</svg>
