<svg width="257" height="193" viewBox="0 0 257 193" fill="none" xmlns="http://www.w3.org/2000/svg">
<rect x="0.5" y="0.5" width="256" height="191.85" fill="#1D70B8" stroke="white"/>
<rect x="79" y="46.9247" width="99" height="99" rx="17.2246" fill="#1D70B8"/>
<rect x="79" y="46.9247" width="99" height="99" rx="17.2246" stroke="white"/>
<path d="M134.697 79.7768C135.833 79.7768 136.754 78.8555 136.754 77.7189C136.754 76.5823 135.833 75.661 134.697 75.661C133.56 75.661 132.639 76.5823 132.639 77.7189C132.639 78.8555 133.56 79.7768 134.697 79.7768Z" fill="#00FFE0"/>
<path d="M97.4965 77.7531C97.4965 78.2744 97.5617 78.7761 97.6921 79.2577C97.8223 79.7394 98.0206 80.1644 98.2871 80.5327C98.5535 80.9012 98.8934 81.1973 99.3072 81.4211C99.721 81.6449 100.214 81.757 100.786 81.757C101.359 81.757 101.794 81.6692 102.159 81.4936C102.525 81.3179 102.817 81.0983 103.035 80.8346C103.253 80.5711 103.406 80.2865 103.494 79.9804C103.582 79.6744 103.626 79.391 103.626 79.1302V79.0113H100.506V77.1328H106.023V83.8141H103.864V82.3859C103.711 82.6241 103.521 82.8408 103.294 83.0364C103.068 83.2318 102.813 83.3991 102.529 83.5378C102.246 83.6767 101.935 83.7859 101.598 83.8652C101.261 83.9445 100.903 83.9842 100.523 83.9842C99.6331 83.9842 98.8427 83.8226 98.1514 83.4996C97.46 83.1765 96.8776 82.7318 96.4045 82.165C95.9313 81.5984 95.5715 80.9353 95.3248 80.1758C95.0784 79.4166 94.9551 78.5977 94.9551 77.7191C94.9551 76.8404 95.0925 76.0291 95.3674 75.2669C95.6423 74.5047 96.0332 73.8416 96.5407 73.2777C97.0479 72.7138 97.6597 72.2691 98.3766 71.9431C99.0935 71.6172 99.8968 71.4542 100.787 71.4542C101.365 71.4542 101.913 71.5208 102.431 71.6539C102.95 71.7872 103.423 71.977 103.851 72.2234C104.279 72.4698 104.657 72.7676 104.986 73.116C105.314 73.4643 105.581 73.8513 105.785 74.2763L103.626 75.4917C103.495 75.2312 103.342 74.9889 103.167 74.7649C102.991 74.5413 102.789 74.3484 102.559 74.1869C102.329 74.0253 102.067 73.8978 101.773 73.8044C101.478 73.711 101.149 73.6641 100.787 73.6641C100.214 73.6641 99.7214 73.7762 99.3076 74C98.8938 74.2238 98.5539 74.5199 98.2876 74.8884C98.0212 75.2567 97.8229 75.6832 97.6925 76.1677C97.5621 76.6523 97.497 77.1527 97.497 77.668V77.7531H97.4965Z" fill="white"/>
<path d="M113.875 71.4538C114.781 71.4538 115.595 71.6168 116.314 71.9427C117.034 72.2687 117.645 72.7134 118.146 73.2773C118.648 73.8412 119.03 74.5043 119.294 75.2665C119.557 76.0287 119.689 76.8463 119.689 77.7187C119.689 78.5911 119.557 79.4162 119.294 80.1754C119.03 80.9349 118.648 81.598 118.146 82.1646C117.645 82.7312 117.034 83.1762 116.314 83.4992C115.595 83.8223 114.781 83.9838 113.875 83.9838C112.968 83.9838 112.148 83.8223 111.431 83.4992C110.714 83.1762 110.105 82.7314 109.603 82.1646C109.102 81.598 108.719 80.9349 108.456 80.1754C108.192 79.4162 108.061 78.5973 108.061 77.7187C108.061 76.84 108.192 76.0287 108.456 75.2665C108.719 74.5043 109.102 73.8412 109.603 73.2773C110.105 72.7134 110.714 72.2687 111.431 71.9427C112.148 71.6168 112.962 71.4538 113.875 71.4538ZM113.875 81.7567C114.407 81.7567 114.876 81.6562 115.282 81.4548C115.687 81.2538 116.028 80.9746 116.306 80.6177C116.583 80.2606 116.793 79.8385 116.935 79.351C117.076 78.8637 117.147 78.331 117.147 77.7529V77.6848C117.147 77.1124 117.076 76.5811 116.935 76.091C116.793 75.6008 116.583 75.177 116.306 74.8201C116.028 74.4632 115.687 74.1842 115.282 73.9828C114.876 73.7818 114.407 73.6811 113.875 73.6811C113.342 73.6811 112.872 73.7818 112.464 73.9828C112.056 74.1842 111.714 74.4632 111.439 74.8201C111.164 75.177 110.956 75.601 110.815 76.091C110.673 76.5811 110.602 77.1124 110.602 77.6848V77.7529C110.602 78.331 110.673 78.8637 110.815 79.351C110.956 79.8385 111.164 80.2604 111.439 80.6177C111.714 80.9746 112.056 81.2538 112.464 81.4548C112.872 81.6562 113.342 81.7567 113.875 81.7567Z" fill="white"/>
<path d="M124.035 83.8137L120.592 71.624H123.355L125.709 80.7875H125.794L128.098 71.624H130.827L127.384 83.8137H124.035H124.035Z" fill="white"/>
<path d="M144.789 81.7567C145.145 81.7567 145.478 81.7044 145.787 81.5995C146.096 81.4947 146.363 81.3361 146.586 81.1234C146.81 80.9108 146.987 80.642 147.118 80.3158C147.248 79.9901 147.313 79.6062 147.313 79.1642V71.6068H149.736V79.5294C149.736 80.2095 149.613 80.8245 149.366 81.374C149.12 81.9238 148.778 82.3914 148.339 82.7767C147.9 83.1623 147.377 83.4596 146.772 83.6693C146.166 83.8788 145.503 83.9838 144.784 83.9838C144.065 83.9838 143.403 83.8788 142.797 83.6693C142.191 83.4596 141.667 83.1621 141.226 82.7767C140.784 82.3914 140.44 81.924 140.194 81.374C139.947 80.8245 139.824 80.2093 139.824 79.5294V71.6068H142.264V79.1639C142.264 79.606 142.329 79.9899 142.459 80.3156C142.59 80.6418 142.767 80.9106 142.991 81.1232C143.214 81.3358 143.481 81.4945 143.79 81.5993C144.099 81.7042 144.432 81.7565 144.789 81.7565V81.7567Z" fill="white"/>
<path d="M151.922 71.6238H154.387V76.9025L158.739 71.6238H161.774L157.541 76.469L162.046 83.8135H159.182L155.96 78.3476L154.387 80.1071V83.8135H151.922V71.6238Z" fill="white"/>
<path d="M121.919 104.024C123.056 104.024 123.977 103.103 123.977 101.966C123.977 100.83 123.056 99.9085 121.919 99.9085C120.783 99.9085 119.861 100.83 119.861 101.966C119.861 103.103 120.783 104.024 121.919 104.024Z" fill="white"/>
<path d="M116.382 107.34C117.519 107.34 118.44 106.419 118.44 105.282C118.44 104.146 117.519 103.224 116.382 103.224C115.246 103.224 114.324 104.146 114.324 105.282C114.324 106.419 115.246 107.34 116.382 107.34Z" fill="white"/>
<path d="M112.72 112.793C113.857 112.793 114.778 111.872 114.778 110.735C114.778 109.599 113.857 108.678 112.72 108.678C111.583 108.678 110.662 109.599 110.662 110.735C110.662 111.872 111.583 112.793 112.72 112.793Z" fill="white"/>
<path d="M128.501 111.352C129.638 111.352 130.559 110.431 130.559 109.295C130.559 108.158 129.638 107.237 128.501 107.237C127.365 107.237 126.443 108.158 126.443 109.295C126.443 110.431 127.365 111.352 128.501 111.352Z" fill="white"/>
<path d="M135.075 104.024C136.212 104.024 137.133 103.103 137.133 101.966C137.133 100.83 136.212 99.9085 135.075 99.9085C133.939 99.9085 133.018 100.83 133.018 101.966C133.018 103.103 133.939 104.024 135.075 104.024Z" fill="white"/>
<path d="M140.613 107.34C141.749 107.34 142.67 106.419 142.67 105.282C142.67 104.146 141.749 103.224 140.613 103.224C139.476 103.224 138.555 104.146 138.555 105.282C138.555 106.419 139.476 107.34 140.613 107.34Z" fill="white"/>
<path d="M144.275 112.793C145.411 112.793 146.333 111.872 146.333 110.735C146.333 109.599 145.411 108.678 144.275 108.678C143.138 108.678 142.217 109.599 142.217 110.735C142.217 111.872 143.138 112.793 144.275 112.793Z" fill="white"/>
<path d="M128.501 111.352C129.638 111.352 130.559 110.431 130.559 109.295C130.559 108.158 129.638 107.237 128.501 107.237C127.365 107.237 126.443 108.158 126.443 109.295C126.443 110.431 127.365 111.352 128.501 111.352Z" fill="white"/>
<path d="M129.329 97.5591C129.434 97.4808 129.526 97.3884 129.604 97.2843L132.222 98.6586V94.8001L129.608 95.6298C129.532 95.5278 129.441 95.4367 129.34 95.3588L130.392 92.0453H126.607L127.659 95.3588C127.558 95.4362 127.468 95.5274 127.391 95.6298L124.777 94.8001V98.6586L127.395 97.2843C127.473 97.3884 127.566 97.4808 127.67 97.5591L126.179 102.056C125.654 103.639 126.832 105.271 128.5 105.271C130.167 105.271 131.346 103.639 130.821 102.056L129.329 97.5591Z" fill="white"/>
<path d="M131.493 113.393C131.493 113.393 129.581 115.52 129.164 116.818C130.415 116.778 131.539 116.534 132.776 115.243L132.357 120.048C131.218 118.45 129.883 117.762 129.143 117.9C129.218 119.621 129.398 121.701 132.413 121.975C134.517 122.158 136.206 121.125 136.382 119.846C136.59 118.377 135.267 117.406 134.269 118.952C133.489 116.393 135.644 115.543 137.028 117.127C135.962 114.602 135.991 112.808 138.361 110.994C140.062 113.255 139.821 115.124 137.713 117.228C139.085 116.469 141.217 117.268 139.961 119.833C139.306 118.237 137.897 118.594 137.602 119.966C137.405 120.936 137.994 122.077 139.273 122.311C140.322 122.503 141.938 121.786 143.234 118.995C142.505 119.014 141.866 119.382 141.039 119.951L142.398 115.421C142.74 116.693 143.178 117.527 143.642 117.979C143.953 117.064 143.909 116.4 143.63 114.974L146.439 115.974C144.947 118.009 143.502 120.866 142.316 125.854C138.137 125.258 133.459 124.923 128.502 124.923C123.545 124.923 118.866 125.258 114.687 125.854C113.502 120.865 112.057 118.009 110.564 115.974L113.373 114.974C113.094 116.4 113.05 117.064 113.362 117.979C113.826 117.527 114.264 116.693 114.606 115.421L115.965 119.951C115.138 119.382 114.498 119.014 113.77 118.995C115.065 121.786 116.682 122.502 117.731 122.311C119.01 122.077 119.598 120.936 119.401 119.966C119.106 118.594 117.699 118.237 117.042 119.833C115.787 117.268 117.918 116.468 119.291 117.228C117.183 115.124 116.941 113.255 118.642 110.994C121.013 112.807 121.041 114.601 119.975 117.127C121.36 115.543 123.515 116.393 122.735 118.952C121.737 117.406 120.413 118.377 120.622 119.846C120.798 121.125 122.487 122.159 124.59 121.975C127.606 121.701 127.786 119.621 127.861 117.9C127.12 117.762 125.785 118.45 124.647 120.048L124.227 115.243C125.464 116.534 126.589 116.778 127.839 116.818C127.422 115.52 125.511 113.393 125.511 113.393H131.494H131.493Z" fill="white"/>
</svg>
