<svg width="137" height="137" viewBox="0 0 137 137" fill="none" xmlns="http://www.w3.org/2000/svg">
<rect width="137" height="137" rx="30.41" fill="#1D70B8"/>
<path d="M76.9893 45.6924C78.5463 45.6924 79.8086 44.4302 79.8086 42.8731C79.8086 41.316 78.5463 40.0537 76.9893 40.0537C75.4322 40.0537 74.1699 41.316 74.1699 42.8731C74.1699 44.4302 75.4322 45.6924 76.9893 45.6924Z" fill="#00FFE0"/>
<path d="M26.0248 42.9198C26.0248 43.634 26.1141 44.3212 26.2927 44.9811C26.471 45.641 26.7427 46.2233 27.1079 46.7279C27.4728 47.2327 27.9385 47.6383 28.5053 47.945C29.0722 48.2516 29.7478 48.4052 30.532 48.4052C31.3161 48.4052 31.912 48.2849 32.4129 48.0442C32.9135 47.8036 33.3135 47.5027 33.6124 47.1414C33.9111 46.7805 34.1207 46.3905 34.2413 45.9713C34.3616 45.552 34.4216 45.1637 34.4216 44.8065V44.6435H30.1477V42.0699H37.7057V51.2234H34.7479V49.2667C34.5383 49.593 34.278 49.89 33.9677 50.1579C33.6571 50.4255 33.3078 50.6548 32.9192 50.8448C32.531 51.0351 32.1057 51.1847 31.6441 51.2934C31.1822 51.402 30.691 51.4563 30.171 51.4563C28.9519 51.4563 27.8691 51.2351 26.9219 50.7925C25.9747 50.3499 25.1769 49.7406 24.5286 48.9641C23.8804 48.1879 23.3875 47.2794 23.0496 46.2389C22.7119 45.1987 22.543 44.0769 22.543 42.8732C22.543 41.6694 22.7313 40.5578 23.1079 39.5137C23.4845 38.4695 24.0201 37.561 24.7152 36.7885C25.4101 36.0159 26.2483 35.4067 27.2305 34.9601C28.2127 34.5135 29.3131 34.2903 30.5322 34.2903C31.3241 34.2903 32.0753 34.3816 32.7856 34.5639C33.4961 34.7465 34.1443 35.0065 34.7305 35.3441C35.3165 35.6817 35.8347 36.0896 36.2853 36.5669C36.7352 37.0442 37.1005 37.5744 37.3801 38.1566L34.4219 39.8217C34.2433 39.4647 34.0337 39.1328 33.793 38.8259C33.5521 38.5196 33.2748 38.2553 32.9605 38.034C32.6459 37.8127 32.2869 37.6381 31.8833 37.5101C31.4794 37.3821 31.0292 37.3178 30.5325 37.3178C29.7483 37.3178 29.0728 37.4714 28.5059 37.778C27.939 38.0847 27.4734 38.4903 27.1085 38.9951C26.7435 39.4997 26.4719 40.084 26.2933 40.7478C26.1146 41.4117 26.0253 42.0972 26.0253 42.8032V42.9198H26.0248Z" fill="white"/>
<path d="M48.4615 34.2899C49.7036 34.2899 50.8178 34.5132 51.8039 34.9597C52.7898 35.4063 53.6266 36.0156 54.3138 36.7881C55.0007 37.5606 55.5249 38.4691 55.8859 39.5133C56.2468 40.5575 56.4271 41.6776 56.4271 42.8728C56.4271 44.068 56.2468 45.1983 55.8859 46.2385C55.5249 47.279 55.0007 48.1875 54.3138 48.9637C53.6269 49.74 52.79 50.3495 51.8039 50.7921C50.818 51.2347 49.7036 51.456 48.4615 51.456C47.2193 51.456 46.0952 51.2347 45.1134 50.7921C44.1312 50.3495 43.2967 49.7402 42.6097 48.9637C41.9225 48.1875 41.3986 47.279 41.0377 46.2385C40.6767 45.1983 40.4961 44.0765 40.4961 42.8728C40.4961 41.669 40.6767 40.5575 41.0377 39.5133C41.3986 38.4691 41.9225 37.5606 42.6097 36.7881C43.2967 36.0156 44.1312 35.4063 45.1134 34.9597C46.0955 34.5132 47.2114 34.2899 48.4615 34.2899ZM48.4615 48.4048C49.1913 48.4048 49.8339 48.2671 50.3888 47.9912C50.9438 47.7159 51.4119 47.3333 51.7919 46.8444C52.1725 46.3552 52.4598 45.7769 52.6538 45.109C52.8478 44.4415 52.9451 43.7116 52.9451 42.9197V42.8264C52.9451 42.0422 52.8478 41.3144 52.6538 40.6428C52.4598 39.9712 52.1725 39.3907 51.7919 38.9018C51.4117 38.4128 50.9438 38.0305 50.3888 37.7546C49.8339 37.4793 49.1913 37.3413 48.4615 37.3413C47.7316 37.3413 47.0874 37.4793 46.5282 37.7546C45.9692 38.0305 45.5016 38.4128 45.125 38.9018C44.7484 39.3907 44.4631 39.9715 44.2692 40.6428C44.0752 41.3144 43.9779 42.0422 43.9779 42.8264V42.9197C43.9779 43.7116 44.0752 44.4415 44.2692 45.109C44.4631 45.7769 44.7484 46.3549 45.125 46.8444C45.5016 47.3333 45.9692 47.7159 46.5282 47.9912C47.0874 48.2671 47.7316 48.4048 48.4615 48.4048Z" fill="white"/>
<path d="M62.3806 51.223L57.6641 34.5231H61.4491L64.6752 47.077H64.7915L67.9476 34.5231H71.6857L66.9691 51.223H62.3809H62.3806Z" fill="white"/>
<path d="M90.8149 48.4048C91.3038 48.4048 91.76 48.3332 92.183 48.1895C92.6062 48.0459 92.9712 47.8286 93.2778 47.5373C93.5841 47.246 93.827 46.8777 94.0057 46.4308C94.184 45.9846 94.2733 45.4586 94.2733 44.8531V34.4995H97.5924V45.3534C97.5924 46.2852 97.4237 47.1277 97.0864 47.8806C96.7491 48.6338 96.2797 49.2744 95.6784 49.8023C95.0771 50.3305 94.3615 50.7378 93.5318 51.0251C92.7018 51.3121 91.7942 51.456 90.8092 51.456C89.8242 51.456 88.9162 51.3121 88.0865 51.0251C87.2563 50.7378 86.5389 50.3302 85.9336 49.8023C85.3283 49.2744 84.8573 48.6341 84.5197 47.8806C84.1823 47.1277 84.0137 46.2849 84.0137 45.3534V34.4995H87.3561V44.8528C87.3561 45.4584 87.4454 45.9843 87.6237 46.4306C87.8024 46.8774 88.045 47.2458 88.3516 47.537C88.6582 47.8283 89.0232 48.0456 89.4464 48.1892C89.8697 48.3329 90.3259 48.4046 90.8149 48.4046V48.4048Z" fill="white"/>
<path d="M100.588 34.5228H103.965V41.7547L109.928 34.5228H114.086L108.286 41.1607L114.458 51.2227H110.534L106.12 43.7343L103.965 46.1449V51.2227H100.588V34.5228Z" fill="white"/>
<path d="M68.5018 87.4213C61.6284 87.4213 56.041 81.8341 56.041 74.9608C56.041 68.0874 61.6284 62.5002 68.5018 62.5002C75.3751 62.5002 80.9623 68.0874 80.9623 74.9608C80.9623 81.8341 75.3751 87.4213 68.5018 87.4213ZM68.5018 68.2018C64.7864 68.2018 61.7568 71.2313 61.7568 74.9466C61.7568 78.6617 64.7864 81.6911 68.5018 81.6911C72.2171 81.6911 75.2463 78.6617 75.2463 74.9466C75.2463 71.2313 72.2171 68.2018 68.5018 68.2018Z" fill="white"/>
<path d="M57.798 109.008H52.082V94.6187H84.9198V100.335H57.798V109.008Z" fill="#00FFE0"/>
</svg>
