<svg width="480" height="320" viewBox="0 0 480 320" fill="none" xmlns="http://www.w3.org/2000/svg">
<g clip-path="url(#clip0_1275_1123)">
<rect width="480" height="320" fill="white"/>
<path d="M480 0H0V320H480V0Z" fill="#1D70B8"/>
<path d="M225.239 139.64C227.765 139.64 229.813 137.591 229.813 135.063C229.813 132.536 227.765 130.487 225.239 130.487C222.712 130.487 220.664 132.536 220.664 135.063C220.664 137.591 222.712 139.64 225.239 139.64Z" fill="white"/>
<path d="M212.932 147.014C215.459 147.014 217.507 144.965 217.507 142.438C217.507 139.91 215.459 137.861 212.932 137.861C210.406 137.861 208.357 139.91 208.357 142.438C208.357 144.965 210.406 147.014 212.932 147.014Z" fill="white"/>
<path d="M204.79 159.141C207.316 159.141 209.364 157.092 209.364 154.564C209.364 152.037 207.316 149.988 204.79 149.988C202.263 149.988 200.215 152.037 200.215 154.564C200.215 157.092 202.263 159.141 204.79 159.141Z" fill="white"/>
<path d="M239.871 155.936C242.398 155.936 244.446 153.887 244.446 151.359C244.446 148.832 242.398 146.783 239.871 146.783C237.345 146.783 235.297 148.832 235.297 151.359C235.297 153.887 237.345 155.936 239.871 155.936Z" fill="white"/>
<path d="M254.489 139.64C257.016 139.64 259.063 137.591 259.063 135.063C259.063 132.536 257.016 130.487 254.489 130.487C251.962 130.487 249.914 132.536 249.914 135.063C249.914 137.591 251.962 139.64 254.489 139.64Z" fill="white"/>
<path d="M266.797 147.014C269.324 147.014 271.372 144.965 271.372 142.438C271.372 139.91 269.324 137.861 266.797 137.861C264.27 137.861 262.223 139.91 262.223 142.438C262.223 144.965 264.27 147.014 266.797 147.014Z" fill="white"/>
<path d="M274.94 159.141C277.466 159.141 279.515 157.092 279.515 154.564C279.515 152.037 277.466 149.988 274.94 149.988C272.413 149.988 270.365 152.037 270.365 154.564C270.365 157.092 272.413 159.141 274.94 159.141Z" fill="white"/>
<path d="M239.871 155.936C242.398 155.936 244.446 153.887 244.446 151.359C244.446 148.832 242.398 146.783 239.871 146.783C237.345 146.783 235.297 148.832 235.297 151.359C235.297 153.887 237.345 155.936 239.871 155.936Z" fill="white"/>
<path d="M241.717 125.262C241.948 125.088 242.154 124.882 242.328 124.651L248.147 127.707V119.126L242.336 120.972C242.167 120.745 241.966 120.542 241.741 120.369L244.08 113H235.665L238.004 120.369C237.779 120.541 237.579 120.744 237.409 120.972L231.598 119.126V127.707L237.417 124.651C237.591 124.882 237.797 125.088 238.028 125.262L234.713 135.262C233.546 138.782 236.166 142.413 239.872 142.413C243.579 142.413 246.199 138.782 245.032 135.262L241.717 125.262Z" fill="white"/>
<path d="M246.523 160.475C246.523 160.475 242.274 165.205 241.347 168.091C244.128 168.003 246.626 167.461 249.376 164.589L248.444 175.275C245.913 171.722 242.945 170.19 241.299 170.497C241.466 174.326 241.867 178.952 248.569 179.561C253.245 179.968 257 177.67 257.391 174.826C257.854 171.56 254.912 169.399 252.694 172.837C250.959 167.147 255.751 165.256 258.828 168.779C256.459 163.163 256.522 159.174 261.791 155.14C265.572 160.168 265.036 164.324 260.35 169.004C263.401 167.315 268.139 169.092 265.348 174.796C263.89 171.248 260.76 172.041 260.104 175.093C259.666 177.249 260.974 179.786 263.817 180.307C266.15 180.734 269.743 179.14 272.623 172.934C271.004 172.975 269.582 173.794 267.744 175.06L270.764 164.985C271.525 167.813 272.499 169.669 273.53 170.673C274.222 168.638 274.123 167.162 273.504 163.991L279.748 166.215C276.431 170.741 273.218 177.094 270.584 188.188C261.293 186.861 250.894 186.115 239.874 186.115C228.855 186.115 218.455 186.861 209.165 188.188C206.53 177.093 203.317 170.741 200 166.215L206.244 163.991C205.624 167.162 205.526 168.638 206.218 170.673C207.249 169.669 208.223 167.813 208.984 164.985L212.004 175.06C210.166 173.793 208.745 172.975 207.125 172.934C210.005 179.14 213.598 180.734 215.931 180.307C218.774 179.786 220.081 177.249 219.644 175.093C218.988 172.041 215.859 171.248 214.4 174.796C211.609 169.092 216.348 167.314 219.399 169.004C214.712 164.324 214.176 160.167 217.957 155.14C223.227 159.173 223.29 163.162 220.92 168.779C223.998 165.257 228.789 167.147 227.054 172.837C224.836 169.399 221.894 171.56 222.358 174.826C222.748 177.67 226.503 179.968 231.179 179.561C237.882 178.952 238.282 174.326 238.449 170.497C236.803 170.19 233.835 171.721 231.304 175.275L230.372 164.589C233.122 167.461 235.622 168.002 238.402 168.091C237.474 165.205 233.226 160.475 233.226 160.475H246.526H246.523Z" fill="white"/>
</g>
<defs>
<clipPath id="clip0_1275_1123">
<rect width="480" height="320" fill="white"/>
</clipPath>
</defs>
</svg>
