<svg width="212" height="135" viewBox="0 0 212 135" fill="none" xmlns="http://www.w3.org/2000/svg">
<rect x="0.90625" y="0.465454" width="211.094" height="134.233" fill="#0B4144"/>
<path d="M118.734 71.6614C120.987 71.6614 122.813 69.8349 122.813 67.5818C122.813 65.3288 120.987 63.5023 118.734 63.5023C116.481 63.5023 114.654 65.3288 114.654 67.5818C114.654 69.8349 116.481 71.6614 118.734 71.6614Z" fill="#00FFE0"/>
<path d="M44.9912 67.6493C44.9912 68.6828 45.1205 69.6772 45.3789 70.632C45.637 71.5869 46.0301 72.4294 46.5585 73.1595C47.0866 73.8901 47.7603 74.477 48.5806 74.9206C49.4009 75.3643 50.3784 75.5866 51.5131 75.5866C52.6478 75.5866 53.51 75.4125 54.2348 75.0643C54.9592 74.7161 55.5379 74.2806 55.9705 73.7579C56.4026 73.2357 56.7059 72.6714 56.8804 72.0647C57.0545 71.4581 57.1414 70.8962 57.1414 70.3793V70.1435H50.957V66.4195H61.8934V79.6645H57.6135V76.8332C57.3101 77.3053 56.9335 77.735 56.4845 78.1227C56.0351 78.51 55.5297 78.8417 54.9674 79.1167C54.4056 79.392 53.7903 79.6085 53.1223 79.7657C52.4539 79.9229 51.7431 80.0016 50.9908 80.0016C49.2268 80.0016 47.6599 79.6814 46.2893 79.0409C44.9188 78.4005 43.7643 77.5189 42.8263 76.3953C41.8884 75.2721 41.1751 73.9576 40.6861 72.452C40.1976 70.9469 39.9531 69.3236 39.9531 67.5818C39.9531 65.84 40.2256 64.2316 40.7705 62.7207C41.3154 61.2098 42.0904 59.8952 43.0963 58.7774C44.1018 57.6595 45.3147 56.7779 46.7359 56.1318C48.1571 55.4856 49.7495 55.1625 51.5135 55.1625C52.6593 55.1625 53.7463 55.2946 54.774 55.5584C55.8021 55.8227 56.7401 56.1989 57.5884 56.6874C58.4362 57.1759 59.1861 57.7661 59.838 58.4568C60.4891 59.1474 61.0176 59.9146 61.4222 60.7571L57.1418 63.1664C56.8833 62.6499 56.58 62.1696 56.2318 61.7255C55.8832 61.2822 55.4819 60.8999 55.0271 60.5797C54.5719 60.2595 54.0525 60.0068 53.4685 59.8215C52.884 59.6363 52.2325 59.5433 51.5139 59.5433C50.3792 59.5433 49.4017 59.7656 48.5814 60.2093C47.7611 60.6529 47.0874 61.2398 46.5593 61.9704C46.0313 62.7005 45.6382 63.5459 45.3798 64.5065C45.1213 65.4671 44.9921 66.459 44.9921 67.4806V67.6493H44.9912Z" fill="white"/>
<path d="M77.4574 55.1621C79.2548 55.1621 80.8669 55.4852 82.2939 56.1314C83.7204 56.7775 84.9313 57.6591 85.9256 58.777C86.9196 59.8948 87.6781 61.2094 88.2004 62.7203C88.7227 64.2312 88.9836 65.852 88.9836 67.5814C88.9836 69.3109 88.7227 70.9465 88.2004 72.4516C87.6781 73.9572 86.9196 75.2717 85.9256 76.3949C84.9317 77.5181 83.7208 78.4001 82.2939 79.0405C80.8673 79.681 79.2548 80.0012 77.4574 80.0012C75.6601 80.0012 74.0335 79.681 72.6128 79.0405C71.1916 78.4001 69.984 77.5185 68.9901 76.3949C67.9957 75.2717 67.2376 73.9572 66.7153 72.4516C66.193 70.9465 65.9316 69.3232 65.9316 67.5814C65.9316 65.8396 66.193 64.2312 66.7153 62.7203C67.2376 61.2094 67.9957 59.8948 68.9901 58.777C69.984 57.6591 71.1916 56.7775 72.6128 56.1314C74.0339 55.4852 75.6486 55.1621 77.4574 55.1621ZM77.4574 75.5862C78.5135 75.5862 79.4433 75.387 80.2463 74.9878C81.0493 74.5893 81.7267 74.0358 82.2766 73.3283C82.8273 72.6204 83.243 71.7836 83.5237 70.8172C83.8043 69.8513 83.9451 68.7952 83.9451 67.6493V67.5143C83.9451 66.3796 83.8043 65.3264 83.5237 64.3547C83.243 63.3829 82.8273 62.5429 82.2766 61.8354C81.7263 61.1279 81.0493 60.5748 80.2463 60.1755C79.4433 59.7771 78.5135 59.5775 77.4574 59.5775C76.4013 59.5775 75.4691 59.7771 74.6599 60.1755C73.8512 60.5748 73.1746 61.1279 72.6296 61.8354C72.0847 62.5429 71.6719 63.3834 71.3912 64.3547C71.1105 65.3264 70.9698 66.3796 70.9698 67.5143V67.6493C70.9698 68.7952 71.1105 69.8513 71.3912 70.8172C71.6719 71.7836 72.0847 72.62 72.6296 73.3283C73.1746 74.0358 73.8512 74.5893 74.6599 74.9878C75.4691 75.387 76.4013 75.5862 77.4574 75.5862Z" fill="white"/>
<path d="M97.5982 79.6641L90.7734 55.4996H96.2503L100.918 73.6649H101.087L105.654 55.4996H111.063L104.238 79.6641H97.5986H97.5982Z" fill="white"/>
<path d="M138.742 75.5862C139.449 75.5862 140.109 75.4825 140.721 75.2746C141.334 75.0668 141.862 74.7523 142.305 74.3309C142.749 73.9094 143.1 73.3764 143.359 72.7298C143.617 72.0841 143.746 71.3231 143.746 70.4468V55.4654H148.549V71.1708C148.549 72.5191 148.305 73.7382 147.816 74.8277C147.328 75.9175 146.649 76.8444 145.779 77.6083C144.909 78.3726 143.874 78.9619 142.673 79.3776C141.472 79.7929 140.159 80.0012 138.733 80.0012C137.308 80.0012 135.994 79.7929 134.794 79.3776C133.592 78.9619 132.554 78.3722 131.679 77.6083C130.803 76.8444 130.121 75.9179 129.633 74.8277C129.144 73.7382 128.9 72.5187 128.9 71.1708V55.4654H133.737V70.4464C133.737 71.3227 133.866 72.0837 134.124 72.7294C134.383 73.376 134.734 73.909 135.177 74.3305C135.621 74.7519 136.149 75.0664 136.762 75.2742C137.374 75.4821 138.034 75.5858 138.742 75.5858V75.5862Z" fill="white"/>
<path d="M152.883 55.4992H157.77V65.9635L166.398 55.4992H172.414L164.022 65.1041L172.953 79.6637H167.274L160.888 68.8281L157.77 72.3162V79.6637H152.883V55.4992Z" fill="white"/>
</svg>
