<svg width="212" height="135" viewBox="0 0 212 135" fill="none" xmlns="http://www.w3.org/2000/svg">
<rect x="0.90625" y="0.232666" width="211.094" height="134.233" fill="#2A1950"/>
<path d="M118.734 71.4286C120.987 71.4286 122.813 69.6021 122.813 67.349C122.813 65.096 120.987 63.2695 118.734 63.2695C116.481 63.2695 114.654 65.096 114.654 67.349C114.654 69.6021 116.481 71.4286 118.734 71.4286Z" fill="#BA4AFF"/>
<path d="M44.9912 67.4165C44.9912 68.45 45.1205 69.4444 45.3789 70.3992C45.637 71.3541 46.0301 72.1966 46.5585 72.9267C47.0866 73.6573 47.7603 74.2442 48.5806 74.6879C49.4009 75.1315 50.3784 75.3538 51.5131 75.3538C52.6478 75.3538 53.51 75.1797 54.2348 74.8315C54.9592 74.4833 55.5379 74.0479 55.9705 73.5252C56.4026 73.0029 56.7059 72.4386 56.8804 71.8319C57.0545 71.2253 57.1414 70.6635 57.1414 70.1465V69.9107H50.957V66.1867H61.8934V79.4317H57.6135V76.6005C57.3101 77.0725 56.9335 77.5022 56.4845 77.8899C56.0351 78.2772 55.5297 78.6089 54.9674 78.8839C54.4056 79.1592 53.7903 79.3757 53.1223 79.5329C52.4539 79.6902 51.7431 79.7688 50.9908 79.7688C49.2268 79.7688 47.6599 79.4486 46.2893 78.8082C44.9188 78.1677 43.7643 77.2861 42.8263 76.1625C41.8884 75.0393 41.1751 73.7248 40.6861 72.2192C40.1976 70.7141 39.9531 69.0908 39.9531 67.349C39.9531 65.6072 40.2256 63.9988 40.7705 62.4879C41.3154 60.977 42.0904 59.6624 43.0963 58.5446C44.1018 57.4268 45.3147 56.5452 46.7359 55.899C48.1571 55.2528 49.7495 54.9297 51.5135 54.9297C52.6593 54.9297 53.7463 55.0618 54.774 55.3257C55.8021 55.5899 56.7401 55.9661 57.5884 56.4546C58.4362 56.9432 59.1861 57.5334 59.838 58.224C60.4891 58.9146 61.0176 59.6818 61.4222 60.5243L57.1418 62.9336C56.8833 62.4171 56.58 61.9368 56.2318 61.4927C55.8832 61.0495 55.4819 60.6671 55.0271 60.3469C54.5719 60.0267 54.0525 59.774 53.4685 59.5888C52.884 59.4036 52.2325 59.3105 51.5139 59.3105C50.3792 59.3105 49.4017 59.5328 48.5814 59.9765C47.7611 60.4201 47.0874 61.0071 46.5593 61.7376C46.0313 62.4677 45.6382 63.3131 45.3798 64.2737C45.1213 65.2344 44.9921 66.2263 44.9921 67.2478V67.4165H44.9912Z" fill="white"/>
<path d="M77.4574 54.9293C79.2548 54.9293 80.8669 55.2524 82.2939 55.8986C83.7204 56.5448 84.9313 57.4264 85.9256 58.5442C86.9196 59.662 87.6781 60.9766 88.2004 62.4875C88.7227 63.9984 88.9836 65.6192 88.9836 67.3486C88.9836 69.0781 88.7227 70.7137 88.2004 72.2188C87.6781 73.7244 86.9196 75.039 85.9256 76.1621C84.9317 77.2853 83.7208 78.1673 82.2939 78.8078C80.8673 79.4482 79.2548 79.7684 77.4574 79.7684C75.6601 79.7684 74.0335 79.4482 72.6128 78.8078C71.1916 78.1673 69.984 77.2857 68.9901 76.1621C67.9957 75.039 67.2376 73.7244 66.7153 72.2188C66.193 70.7137 65.9316 69.0904 65.9316 67.3486C65.9316 65.6069 66.193 63.9984 66.7153 62.4875C67.2376 60.9766 67.9957 59.662 68.9901 58.5442C69.984 57.4264 71.1916 56.5448 72.6128 55.8986C74.0339 55.2524 75.6486 54.9293 77.4574 54.9293ZM77.4574 75.3534C78.5135 75.3534 79.4433 75.1542 80.2463 74.755C81.0493 74.3566 81.7267 73.803 82.2766 73.0955C82.8273 72.3876 83.243 71.5508 83.5237 70.5845C83.8043 69.6185 83.9451 68.5624 83.9451 67.4166V67.2816C83.9451 66.1468 83.8043 65.0936 83.5237 64.1219C83.243 63.1502 82.8273 62.3101 82.2766 61.6026C81.7263 60.8951 81.0493 60.342 80.2463 59.9427C79.4433 59.5443 78.5135 59.3447 77.4574 59.3447C76.4013 59.3447 75.4691 59.5443 74.6599 59.9427C73.8512 60.342 73.1746 60.8951 72.6296 61.6026C72.0847 62.3101 71.6719 63.1506 71.3912 64.1219C71.1105 65.0936 70.9698 66.1468 70.9698 67.2816V67.4166C70.9698 68.5624 71.1105 69.6185 71.3912 70.5845C71.6719 71.5508 72.0847 72.3872 72.6296 73.0955C73.1746 73.803 73.8512 74.3566 74.6599 74.755C75.4691 75.1542 76.4013 75.3534 77.4574 75.3534Z" fill="white"/>
<path d="M97.5982 79.4313L90.7734 55.2668H96.2503L100.918 73.4322H101.087L105.654 55.2668H111.063L104.238 79.4313H97.5986H97.5982Z" fill="white"/>
<path d="M138.742 75.3534C139.449 75.3534 140.109 75.2497 140.721 75.0418C141.334 74.834 141.862 74.5196 142.305 74.0981C142.749 73.6766 143.1 73.1437 143.359 72.4971C143.617 71.8513 143.746 71.0903 143.746 70.2141V55.2327H148.549V70.938C148.549 72.2863 148.305 73.5054 147.816 74.5949C147.328 75.6847 146.649 76.6116 145.779 77.3755C144.909 78.1398 143.874 78.7292 142.673 79.1449C141.472 79.5601 140.159 79.7684 138.733 79.7684C137.308 79.7684 135.994 79.5601 134.794 79.1449C133.592 78.7292 132.554 78.1394 131.679 77.3755C130.803 76.6116 130.121 75.6851 129.633 74.5949C129.144 73.5054 128.9 72.2859 128.9 70.938V55.2327H133.737V70.2136C133.737 71.0899 133.866 71.8509 134.124 72.4967C134.383 73.1432 134.734 73.6762 135.177 74.0977C135.621 74.5191 136.149 74.8336 136.762 75.0414C137.374 75.2493 138.034 75.353 138.742 75.353V75.3534Z" fill="white"/>
<path d="M152.883 55.2664H157.77V65.7307L166.398 55.2664H172.414L164.022 64.8714L172.953 79.4309H167.274L160.888 68.5953L157.77 72.0834V79.4309H152.883V55.2664Z" fill="white"/>
</svg>
