<svg width="212" height="135" viewBox="0 0 212 135" fill="none" xmlns="http://www.w3.org/2000/svg">
<rect y="0.465454" width="211.094" height="134.233" fill="#651B1B"/>
<path d="M117.828 71.6614C120.081 71.6614 121.907 69.8349 121.907 67.5818C121.907 65.3288 120.081 63.5023 117.828 63.5023C115.575 63.5023 113.748 65.3288 113.748 67.5818C113.748 69.8349 115.575 71.6614 117.828 71.6614Z" fill="#FF5E5E"/>
<path d="M44.085 67.6493C44.085 68.6828 44.2142 69.6772 44.4727 70.632C44.7307 71.5869 45.1238 72.4294 45.6523 73.1595C46.1803 73.8901 46.8541 74.477 47.6743 74.9206C48.4946 75.3643 49.4721 75.5866 50.6068 75.5866C51.7415 75.5866 52.6038 75.4125 53.3286 75.0643C54.053 74.7161 54.6316 74.2806 55.0642 73.7579C55.4964 73.2357 55.7997 72.6714 55.9742 72.0647C56.1483 71.4581 56.2351 70.8962 56.2351 70.3793V70.1435H50.0508V66.4195H60.9872V79.6645H56.7072V76.8332C56.4039 77.3053 56.0273 77.735 55.5783 78.1227C55.1288 78.51 54.6234 78.8417 54.0612 79.1167C53.4994 79.392 52.8841 79.6085 52.2161 79.7657C51.5477 79.9229 50.8369 80.0016 50.0845 80.0016C48.3205 80.0016 46.7536 79.6814 45.3831 79.0409C44.0125 78.4005 42.8581 77.5189 41.9201 76.3953C40.9821 75.2721 40.2688 73.9576 39.7799 72.452C39.2914 70.9469 39.0469 69.3236 39.0469 67.5818C39.0469 65.84 39.3193 64.2316 39.8643 62.7207C40.4092 61.2098 41.1842 59.8952 42.1901 58.7774C43.1956 57.6595 44.4085 56.7779 45.8297 56.1318C47.2508 55.4856 48.8432 55.1625 50.6072 55.1625C51.7531 55.1625 52.84 55.2946 53.8677 55.5584C54.8959 55.8227 55.8339 56.1989 56.6821 56.6874C57.53 57.1759 58.2798 57.7661 58.9318 58.4568C59.5829 59.1474 60.1114 59.9146 60.5159 60.7571L56.2355 63.1664C55.9771 62.6499 55.6737 62.1696 55.3256 61.7255C54.9769 61.2822 54.5757 60.8999 54.1209 60.5797C53.6657 60.2595 53.1463 60.0068 52.5622 59.8215C51.9778 59.6363 51.3263 59.5433 50.6076 59.5433C49.4729 59.5433 48.4954 59.7656 47.6752 60.2093C46.8549 60.6529 46.1811 61.2398 45.6531 61.9704C45.125 62.7005 44.732 63.5459 44.4735 64.5065C44.215 65.4671 44.0858 66.459 44.0858 67.4806V67.6493H44.085Z" fill="white"/>
<path d="M76.5512 55.1621C78.3485 55.1621 79.9607 55.4852 81.3876 56.1314C82.8141 56.7775 84.025 57.6591 85.0194 58.777C86.0133 59.8948 86.7719 61.2094 87.2942 62.7203C87.8164 64.2312 88.0774 65.852 88.0774 67.5814C88.0774 69.3109 87.8164 70.9465 87.2942 72.4516C86.7719 73.9572 86.0133 75.2717 85.0194 76.3949C84.0254 77.5181 82.8146 78.4001 81.3876 79.0405C79.9611 79.681 78.3485 80.0012 76.5512 80.0012C74.7538 80.0012 73.1273 79.681 71.7065 79.0405C70.2853 78.4001 69.0778 77.5185 68.0838 76.3949C67.0894 75.2717 66.3313 73.9572 65.809 72.4516C65.2867 70.9465 65.0254 69.3232 65.0254 67.5814C65.0254 65.8396 65.2867 64.2312 65.809 62.7203C66.3313 61.2094 67.0894 59.8948 68.0838 58.777C69.0778 57.6591 70.2853 56.7775 71.7065 56.1314C73.1277 55.4852 74.7423 55.1621 76.5512 55.1621ZM76.5512 75.5862C77.6073 75.5862 78.537 75.387 79.34 74.9878C80.143 74.5893 80.8205 74.0358 81.3703 73.3283C81.921 72.6204 82.3367 71.7836 82.6174 70.8172C82.8981 69.8513 83.0389 68.7952 83.0389 67.6493V67.5143C83.0389 66.3796 82.8981 65.3264 82.6174 64.3547C82.3367 63.3829 81.921 62.5429 81.3703 61.8354C80.82 61.1279 80.143 60.5748 79.34 60.1755C78.537 59.7771 77.6073 59.5775 76.5512 59.5775C75.4951 59.5775 74.5629 59.7771 73.7537 60.1755C72.9449 60.5748 72.2683 61.1279 71.7234 61.8354C71.1785 62.5429 70.7656 63.3834 70.485 64.3547C70.2043 65.3264 70.0635 66.3796 70.0635 67.5143V67.6493C70.0635 68.7952 70.2043 69.8513 70.485 70.8172C70.7656 71.7836 71.1785 72.62 71.7234 73.3283C72.2683 74.0358 72.9449 74.5893 73.7537 74.9878C74.5629 75.387 75.4951 75.5862 76.5512 75.5862Z" fill="white"/>
<path d="M96.6919 79.6641L89.8672 55.4996H95.344L100.012 73.6649H100.18L104.747 55.4996H110.156L103.331 79.6641H96.6924H96.6919Z" fill="white"/>
<path d="M137.835 75.5862C138.543 75.5862 139.203 75.4825 139.815 75.2746C140.427 75.0668 140.956 74.7523 141.399 74.3309C141.842 73.9094 142.194 73.3764 142.452 72.7298C142.71 72.0841 142.84 71.3231 142.84 70.4468V55.4654H147.642V71.1708C147.642 72.5191 147.398 73.7382 146.91 74.8277C146.422 75.9175 145.743 76.8444 144.873 77.6083C144.003 78.3726 142.967 78.9619 141.767 79.3776C140.566 79.7929 139.252 80.0012 137.827 80.0012C136.402 80.0012 135.088 79.7929 133.888 79.3776C132.686 78.9619 131.648 78.3722 130.772 77.6083C129.896 76.8444 129.215 75.9179 128.726 74.8277C128.238 73.7382 127.994 72.5187 127.994 71.1708V55.4654H132.831V70.4464C132.831 71.3227 132.96 72.0837 133.218 72.7294C133.476 73.376 133.827 73.909 134.271 74.3305C134.715 74.7519 135.243 75.0664 135.855 75.2742C136.468 75.4821 137.128 75.5858 137.835 75.5858V75.5862Z" fill="white"/>
<path d="M151.977 55.4992H156.864V65.9635L165.492 55.4992H171.508L163.115 65.1041L172.047 79.6637H166.368L159.981 68.8281L156.864 72.3162V79.6637H151.977V55.4992Z" fill="white"/>
</svg>
