<svg width="212" height="135" viewBox="0 0 212 135" fill="none" xmlns="http://www.w3.org/2000/svg">
<rect x="0.90625" width="211.094" height="134.233" fill="#11875A"/>
<path d="M118.734 71.1959C120.987 71.1959 122.813 69.3695 122.813 67.1164C122.813 64.8633 120.987 63.0368 118.734 63.0368C116.481 63.0368 114.654 64.8633 114.654 67.1164C114.654 69.3695 116.481 71.1959 118.734 71.1959Z" fill="#66F39E"/>
<path d="M44.9912 67.1839C44.9912 68.2173 45.1205 69.2117 45.3789 70.1666C45.637 71.1214 46.0301 71.9639 46.5585 72.6941C47.0866 73.4246 47.7603 74.0115 48.5806 74.4552C49.4009 74.8989 50.3784 75.1211 51.5131 75.1211C52.6478 75.1211 53.51 74.947 54.2348 74.5988C54.9592 74.2506 55.5379 73.8152 55.9705 73.2925C56.4026 72.7702 56.7059 72.2059 56.8804 71.5993C57.0545 70.9926 57.1414 70.4308 57.1414 69.9139V69.678H50.957V65.9541H61.8934V79.199H57.6135V76.3678C57.3101 76.8399 56.9335 77.2696 56.4845 77.6573C56.0351 78.0446 55.5297 78.3763 54.9674 78.6512C54.4056 78.9266 53.7903 79.1431 53.1223 79.3003C52.4539 79.4575 51.7431 79.5361 50.9908 79.5361C49.2268 79.5361 47.6599 79.2159 46.2893 78.5755C44.9188 77.9351 43.7643 77.0535 42.8263 75.9299C41.8884 74.8067 41.1751 73.4921 40.6861 71.9866C40.1976 70.4814 39.9531 68.8582 39.9531 67.1164C39.9531 65.3746 40.2256 63.7661 40.7705 62.2552C41.3154 60.7443 42.0904 59.4298 43.0963 58.3119C44.1018 57.1941 45.3147 56.3125 46.7359 55.6663C48.1571 55.0201 49.7495 54.6971 51.5135 54.6971C52.6593 54.6971 53.7463 54.8292 54.774 55.093C55.8021 55.3572 56.7401 55.7334 57.5884 56.2219C58.4362 56.7105 59.1861 57.3007 59.838 57.9913C60.4891 58.6819 61.0176 59.4491 61.4222 60.2916L57.1418 62.701C56.8833 62.1845 56.58 61.7041 56.2318 61.2601C55.8832 60.8168 55.4819 60.4344 55.0271 60.1142C54.5719 59.794 54.0525 59.5413 53.4685 59.3561C52.884 59.1709 52.2325 59.0779 51.5139 59.0779C50.3792 59.0779 49.4017 59.3001 48.5814 59.7438C47.7611 60.1875 47.0874 60.7744 46.5593 61.5049C46.0313 62.2351 45.6382 63.0805 45.3798 64.0411C45.1213 65.0017 44.9921 65.9936 44.9921 67.0151V67.1839H44.9912Z" fill="white"/>
<path d="M77.4574 54.6967C79.2548 54.6967 80.8669 55.0197 82.2939 55.6659C83.7204 56.3121 84.9313 57.1937 85.9256 58.3115C86.9196 59.4294 87.6781 60.7439 88.2004 62.2548C88.7227 63.7657 88.9836 65.3865 88.9836 67.116C88.9836 68.8454 88.7227 70.481 88.2004 71.9862C87.6781 73.4917 86.9196 74.8063 85.9256 75.9295C84.9317 77.0527 83.7208 77.9347 82.2939 78.5751C80.8673 79.2155 79.2548 79.5357 77.4574 79.5357C75.6601 79.5357 74.0335 79.2155 72.6128 78.5751C71.1916 77.9347 69.984 77.0531 68.9901 75.9295C67.9957 74.8063 67.2376 73.4917 66.7153 71.9862C66.193 70.481 65.9316 68.8578 65.9316 67.116C65.9316 65.3742 66.193 63.7657 66.7153 62.2548C67.2376 60.7439 67.9957 59.4294 68.9901 58.3115C69.984 57.1937 71.1916 56.3121 72.6128 55.6659C74.0339 55.0197 75.6486 54.6967 77.4574 54.6967ZM77.4574 75.1207C78.5135 75.1207 79.4433 74.9215 80.2463 74.5223C81.0493 74.1239 81.7267 73.5703 82.2766 72.8628C82.8273 72.1549 83.243 71.3182 83.5237 70.3518C83.8043 69.3858 83.9451 68.3297 83.9451 67.1839V67.0489C83.9451 65.9142 83.8043 64.8609 83.5237 63.8892C83.243 62.9175 82.8273 62.0775 82.2766 61.37C81.7263 60.6625 81.0493 60.1093 80.2463 59.7101C79.4433 59.3117 78.5135 59.112 77.4574 59.112C76.4013 59.112 75.4691 59.3117 74.6599 59.7101C73.8512 60.1093 73.1746 60.6625 72.6296 61.37C72.0847 62.0775 71.6719 62.9179 71.3912 63.8892C71.1105 64.8609 70.9698 65.9142 70.9698 67.0489V67.1839C70.9698 68.3297 71.1105 69.3858 71.3912 70.3518C71.6719 71.3182 72.0847 72.1545 72.6296 72.8628C73.1746 73.5703 73.8512 74.1239 74.6599 74.5223C75.4691 74.9215 76.4013 75.1207 77.4574 75.1207Z" fill="white"/>
<path d="M97.5982 79.1986L90.7734 55.0341H96.2503L100.918 73.1995H101.087L105.654 55.0341H111.063L104.238 79.1986H97.5986H97.5982Z" fill="white"/>
<path d="M138.742 75.1207C139.449 75.1207 140.109 75.017 140.721 74.8092C141.334 74.6013 141.862 74.2869 142.305 73.8654C142.749 73.444 143.1 72.911 143.359 72.2644C143.617 71.6186 143.746 70.8576 143.746 69.9814V55H148.549V70.7053C148.549 72.0537 148.305 73.2728 147.816 74.3622C147.328 75.4521 146.649 76.3789 145.779 77.1428C144.909 77.9071 143.874 78.4965 142.673 78.9122C141.472 79.3275 140.159 79.5357 138.733 79.5357C137.308 79.5357 135.994 79.3275 134.794 78.9122C133.592 78.4965 132.554 77.9067 131.679 77.1428C130.803 76.3789 130.121 75.4525 129.633 74.3622C129.144 73.2728 128.9 72.0533 128.9 70.7053V55H133.737V69.981C133.737 70.8572 133.866 71.6182 134.124 72.264C134.383 72.9106 134.734 73.4436 135.177 73.865C135.621 74.2865 136.149 74.6009 136.762 74.8088C137.374 75.0166 138.034 75.1203 138.742 75.1203V75.1207Z" fill="white"/>
<path d="M152.883 55.0337H157.77V65.4981L166.398 55.0337H172.414L164.022 64.6387L172.953 79.1982H167.274L160.888 68.3626L157.77 71.8507V79.1982H152.883V55.0337Z" fill="white"/>
</svg>
