<svg width="216" height="136" viewBox="0 0 216 136" fill="none" xmlns="http://www.w3.org/2000/svg">
<g clip-path="url(#clip0_184_1678)">
<rect width="215" height="135" transform="translate(0.0605469 0.0550537)" fill="#F47738"/>
<path d="M119.841 71.6346C122.094 71.6346 123.921 69.8081 123.921 67.555C123.921 65.302 122.094 63.4755 119.841 63.4755C117.588 63.4755 115.762 65.302 115.762 67.555C115.762 69.8081 117.588 71.6346 119.841 71.6346Z" fill="#FABB9C"/>
<path d="M46.0987 67.6225C46.0987 68.656 46.2279 69.6504 46.4864 70.6052C46.7444 71.5601 47.1375 72.4026 47.6659 73.1327C48.194 73.8633 48.8677 74.4502 49.688 74.8939C50.5083 75.3375 51.4858 75.5598 52.6205 75.5598C53.7552 75.5598 54.6175 75.3857 55.3423 75.0375C56.0666 74.6893 56.6453 74.2539 57.0779 73.7311C57.51 73.2089 57.8134 72.6446 57.9879 72.0379C58.162 71.4313 58.2488 70.8695 58.2488 70.3525V70.1167H52.0645V66.3927H63.0009V79.6377H58.7209V76.8064C58.4176 77.2785 58.041 77.7082 57.5919 78.0959C57.1425 78.4832 56.6371 78.8149 56.0749 79.0899C55.5131 79.3652 54.8978 79.5817 54.2298 79.7389C53.5614 79.8962 52.8506 79.9748 52.0982 79.9748C50.3342 79.9748 48.7673 79.6546 47.3968 79.0141C46.0262 78.3737 44.8717 77.4921 43.9338 76.3685C42.9958 75.2453 42.2825 73.9308 41.7936 72.4252C41.305 70.9201 41.0605 69.2968 41.0605 67.555C41.0605 65.8132 41.333 64.2048 41.8779 62.6939C42.4229 61.183 43.1979 59.8684 44.2038 58.7506C45.2092 57.6327 46.4222 56.7511 47.8433 56.105C49.2645 55.4588 50.8569 55.1357 52.6209 55.1357C53.7667 55.1357 54.8537 55.2678 55.8814 55.5316C56.9095 55.7959 57.8475 56.1721 58.6958 56.6606C59.5436 57.1491 60.2935 57.7393 60.9455 58.43C61.5966 59.1206 62.125 59.8878 62.5296 60.7303L58.2492 63.1396C57.9907 62.6231 57.6874 62.1428 57.3392 61.6987C56.9906 61.2554 56.5893 60.8731 56.1345 60.5529C55.6793 60.2327 55.1599 59.98 54.5759 59.7948C53.9915 59.6095 53.3399 59.5165 52.6213 59.5165C51.4866 59.5165 50.5091 59.7388 49.6888 60.1825C48.8686 60.6261 48.1948 61.213 47.6668 61.9436C47.1387 62.6737 46.7457 63.5191 46.4872 64.4797C46.2287 65.4403 46.0995 66.4322 46.0995 67.4538V67.6225H46.0987Z" fill="white"/>
<path d="M78.5649 55.1353C80.3622 55.1353 81.9744 55.4584 83.4013 56.1046C84.8278 56.7508 86.0387 57.6323 87.033 58.7502C88.027 59.868 88.7855 61.1826 89.3078 62.6935C89.8301 64.2044 90.0911 65.8252 90.0911 67.5546C90.0911 69.2841 89.8301 70.9197 89.3078 72.4248C88.7855 73.9304 88.027 75.2449 87.033 76.3681C86.0391 77.4913 84.8282 78.3733 83.4013 79.0138C81.9748 79.6542 80.3622 79.9744 78.5649 79.9744C76.7675 79.9744 75.1409 79.6542 73.7202 79.0138C72.299 78.3733 71.0914 77.4917 70.0975 76.3681C69.1031 75.2449 68.345 73.9304 67.8227 72.4248C67.3004 70.9197 67.0391 69.2964 67.0391 67.5546C67.0391 65.8128 67.3004 64.2044 67.8227 62.6935C68.345 61.1826 69.1031 59.868 70.0975 58.7502C71.0914 57.6323 72.299 56.7508 73.7202 56.1046C75.1414 55.4584 76.756 55.1353 78.5649 55.1353ZM78.5649 75.5594C79.621 75.5594 80.5507 75.3602 81.3537 74.961C82.1567 74.5626 82.8341 74.009 83.384 73.3015C83.9347 72.5936 84.3504 71.7568 84.6311 70.7905C84.9118 69.8245 85.0525 68.7684 85.0525 67.6225V67.4876C85.0525 66.3528 84.9118 65.2996 84.6311 64.3279C84.3504 63.3561 83.9347 62.5161 83.384 61.8086C82.8337 61.1011 82.1567 60.548 81.3537 60.1487C80.5507 59.7503 79.621 59.5507 78.5649 59.5507C77.5087 59.5507 76.5765 59.7503 75.7674 60.1487C74.9586 60.548 74.282 61.1011 73.7371 61.8086C73.1921 62.5161 72.7793 63.3566 72.4986 64.3279C72.2179 65.2996 72.0772 66.3528 72.0772 67.4876V67.6225C72.0772 68.7684 72.2179 69.8245 72.4986 70.7905C72.7793 71.7568 73.1921 72.5932 73.7371 73.3015C74.282 74.009 74.9586 74.5626 75.7674 74.961C76.5765 75.3602 77.5087 75.5594 78.5649 75.5594Z" fill="white"/>
<path d="M98.7056 79.6373L91.8809 55.4728H97.3577L102.026 73.6381H102.194L106.761 55.4728H112.17L105.345 79.6373H98.706H98.7056Z" fill="white"/>
<path d="M139.849 75.5594C140.557 75.5594 141.217 75.4557 141.829 75.2478C142.441 75.04 142.969 74.7255 143.413 74.3041C143.856 73.8826 144.208 73.3496 144.466 72.7031C144.724 72.0573 144.853 71.2963 144.853 70.42V55.4387H149.656V71.144C149.656 72.4923 149.412 73.7114 148.924 74.8009C148.436 75.8907 147.757 76.8176 146.887 77.5815C146.016 78.3458 144.981 78.9351 143.78 79.3508C142.579 79.7661 141.266 79.9744 139.841 79.9744C138.416 79.9744 137.102 79.7661 135.901 79.3508C134.7 78.9351 133.662 78.3454 132.786 77.5815C131.91 76.8176 131.229 75.8911 130.74 74.8009C130.252 73.7114 130.008 72.4919 130.008 71.144V55.4387H134.844V70.4196C134.844 71.2959 134.973 72.0569 135.232 72.7026C135.49 73.3492 135.841 73.8822 136.285 74.3037C136.728 74.7251 137.256 75.0396 137.869 75.2474C138.481 75.4553 139.142 75.559 139.849 75.559V75.5594Z" fill="white"/>
<path d="M153.99 55.4724H158.877V65.9367L167.505 55.4724H173.521L165.129 65.0773L174.06 79.6369H168.382L161.995 68.8013L158.877 72.2894V79.6369H153.99V55.4724Z" fill="white"/>
<path d="M0.0605469 135.055L215.061 0.0550537" stroke="#CA3535" stroke-width="3"/>
</g>
<defs>
<clipPath id="clip0_184_1678">
<rect width="215" height="135" fill="white" transform="translate(0.0605469 0.0550537)"/>
</clipPath>
</defs>
</svg>
