<svg width="215" height="136" viewBox="0 0 215 136" fill="none" xmlns="http://www.w3.org/2000/svg">
<g clip-path="url(#clip0_184_1677)">
<rect width="215" height="135" transform="translate(0 0.583008)" fill="#09442D"/>
<path d="M119.781 72.1625C122.034 72.1625 123.86 70.3361 123.86 68.083C123.86 65.8299 122.034 64.0034 119.781 64.0034C117.528 64.0034 115.701 65.8299 115.701 68.083C115.701 70.3361 117.528 72.1625 119.781 72.1625Z" fill="#37A3FF"/>
<path d="M46.0381 68.1505C46.0381 69.184 46.1673 70.1783 46.4258 71.1332C46.6839 72.088 47.0769 72.9305 47.6054 73.6607C48.1334 74.3912 48.8072 74.9781 49.6275 75.4218C50.4477 75.8655 51.4252 76.0877 52.5599 76.0877C53.6947 76.0877 54.5569 75.9136 55.2817 75.5654C56.0061 75.2173 56.5848 74.7818 57.0173 74.2591C57.4495 73.7368 57.7528 73.1725 57.9273 72.5659C58.1014 71.9592 58.1883 71.3974 58.1883 70.8805V70.6446H52.0039V66.9207H62.9403V80.1656H58.6603V77.3344C58.357 77.8065 57.9804 78.2362 57.5314 78.6239C57.0819 79.0112 56.5765 79.3429 56.0143 79.6178C55.4525 79.8932 54.8372 80.1097 54.1692 80.2669C53.5008 80.4241 52.79 80.5027 52.0377 80.5027C50.2736 80.5027 48.7068 80.1825 47.3362 79.5421C45.9657 78.9017 44.8112 78.0201 43.8732 76.8965C42.9352 75.7733 42.222 74.4587 41.733 72.9532C41.2445 71.448 41 69.8248 41 68.083C41 66.3412 41.2725 64.7328 41.8174 63.2219C42.3623 61.711 43.1373 60.3964 44.1432 59.2785C45.1487 58.1607 46.3616 57.2791 47.7828 56.6329C49.204 55.9868 50.7963 55.6637 52.5604 55.6637C53.7062 55.6637 54.7932 55.7958 55.8209 56.0596C56.849 56.3238 57.787 56.7 58.6352 57.1886C59.4831 57.6771 60.233 58.2673 60.8849 58.9579C61.536 59.6485 62.0645 60.4157 62.4691 61.2582L58.1887 63.6676C57.9302 63.1511 57.6269 62.6708 57.2787 62.2267C56.9301 61.7834 56.5288 61.401 56.074 61.0808C55.6188 60.7606 55.0994 60.5079 54.5153 60.3227C53.9309 60.1375 53.2794 60.0445 52.5608 60.0445C51.4261 60.0445 50.4486 60.2667 49.6283 60.7104C48.808 61.1541 48.1343 61.741 47.6062 62.4716C47.0782 63.2017 46.6851 64.0471 46.4266 65.0077C46.1682 65.9683 46.0389 66.9602 46.0389 67.9817V68.1505H46.0381Z" fill="white"/>
<path d="M78.5043 55.6633C80.3017 55.6633 81.9138 55.9864 83.3407 56.6325C84.7673 57.2787 85.9781 58.1603 86.9725 59.2781C87.9665 60.396 88.725 61.7106 89.2473 63.2215C89.7696 64.7324 90.0305 66.3531 90.0305 68.0826C90.0305 69.812 89.7696 71.4476 89.2473 72.9528C88.725 74.4583 87.9665 75.7729 86.9725 76.8961C85.9785 78.0193 84.7677 78.9013 83.3407 79.5417C81.9142 80.1821 80.3017 80.5023 78.5043 80.5023C76.707 80.5023 75.0804 80.1821 73.6596 79.5417C72.2385 78.9013 71.0309 78.0197 70.0369 76.8961C69.0426 75.7729 68.2844 74.4583 67.7622 72.9528C67.2399 71.4476 66.9785 69.8244 66.9785 68.0826C66.9785 66.3408 67.2399 64.7324 67.7622 63.2215C68.2844 61.7106 69.0426 60.396 70.0369 59.2781C71.0309 58.1603 72.2385 57.2787 73.6596 56.6325C75.0808 55.9864 76.6954 55.6633 78.5043 55.6633ZM78.5043 76.0873C79.5604 76.0873 80.4902 75.8881 81.2932 75.4889C82.0961 75.0905 82.7736 74.5369 83.3235 73.8294C83.8741 73.1215 84.2898 72.2848 84.5705 71.3184C84.8512 70.3524 84.992 69.2963 84.992 68.1505V68.0155C84.992 66.8808 84.8512 65.8276 84.5705 64.8558C84.2898 63.8841 83.8741 63.0441 83.3235 62.3366C82.7732 61.6291 82.0961 61.0759 81.2932 60.6767C80.4902 60.2783 79.5604 60.0787 78.5043 60.0787C77.4482 60.0787 76.516 60.2783 75.7068 60.6767C74.8981 61.0759 74.2214 61.6291 73.6765 62.3366C73.1316 63.0441 72.7188 63.8845 72.4381 64.8558C72.1574 65.8276 72.0166 66.8808 72.0166 68.0155V68.1505C72.0166 69.2963 72.1574 70.3524 72.4381 71.3184C72.7188 72.2848 73.1316 73.1211 73.6765 73.8294C74.2214 74.5369 74.8981 75.0905 75.7068 75.4889C76.516 75.8881 77.4482 76.0873 78.5043 76.0873Z" fill="white"/>
<path d="M98.6451 80.1652L91.8203 56.0008H97.2972L101.965 74.1661H102.134L106.7 56.0008H112.109L105.285 80.1652H98.6455H98.6451Z" fill="white"/>
<path d="M139.788 76.0874C140.496 76.0874 141.156 75.9836 141.768 75.7758C142.381 75.5679 142.909 75.2535 143.352 74.832C143.796 74.4106 144.147 73.8776 144.406 73.231C144.664 72.5853 144.793 71.8242 144.793 70.948V55.9666H149.596V71.672C149.596 73.0203 149.351 74.2394 148.863 75.3288C148.375 76.4187 147.696 77.3455 146.826 78.1094C145.956 78.8737 144.92 79.4631 143.72 79.8788C142.519 80.2941 141.206 80.5023 139.78 80.5023C138.355 80.5023 137.041 80.2941 135.841 79.8788C134.639 79.4631 133.601 78.8733 132.725 78.1094C131.85 77.3455 131.168 76.4191 130.679 75.3288C130.191 74.2394 129.947 73.0199 129.947 71.672V55.9666H134.784V70.9476C134.784 71.8238 134.913 72.5848 135.171 73.2306C135.429 73.8772 135.781 74.4102 136.224 74.8316C136.668 75.2531 137.196 75.5675 137.808 75.7754C138.421 75.9832 139.081 76.0869 139.788 76.0869V76.0874Z" fill="white"/>
<path d="M153.93 56.0003H158.817V66.4647L167.445 56.0003H173.461L165.069 65.6053L174 80.1648H168.321L161.934 69.3292L158.817 72.8174V80.1648H153.93V56.0003Z" fill="white"/>
<path d="M0 135.583L215 0.583008" stroke="#CA3535" stroke-width="3"/>
</g>
<defs>
<clipPath id="clip0_184_1677">
<rect width="215" height="135" fill="white" transform="translate(0 0.583008)"/>
</clipPath>
</defs>
</svg>
