<svg width="216" height="135" viewBox="0 0 216 135" fill="none" xmlns="http://www.w3.org/2000/svg">
<g clip-path="url(#clip0_184_1679)">
<rect width="215" height="135" transform="translate(0.5)" fill="#1D70B8"/>
<path d="M120.281 71.5795C122.534 71.5795 124.36 69.7531 124.36 67.5C124.36 65.2469 122.534 63.4204 120.281 63.4204C118.028 63.4204 116.201 65.2469 116.201 67.5C116.201 69.7531 118.028 71.5795 120.281 71.5795Z" fill="#D2E2F1"/>
<path d="M46.5381 67.5675C46.5381 68.6009 46.6673 69.5953 46.9258 70.5502C47.1839 71.505 47.5769 72.3475 48.1054 73.0777C48.6334 73.8082 49.3072 74.3951 50.1275 74.8388C50.9477 75.2825 51.9252 75.5047 53.0599 75.5047C54.1947 75.5047 55.0569 75.3306 55.7817 74.9824C56.5061 74.6342 57.0848 74.1988 57.5173 73.6761C57.9495 73.1538 58.2528 72.5895 58.4273 71.9829C58.6014 71.3762 58.6883 70.8144 58.6883 70.2975V70.0616H52.5039V66.3377H63.4403V79.5826H59.1603V76.7514C58.857 77.2235 58.4804 77.6532 58.0314 78.0409C57.5819 78.4282 57.0765 78.7599 56.5143 79.0348C55.9525 79.3102 55.3372 79.5267 54.6692 79.6839C54.0008 79.8411 53.29 79.9197 52.5377 79.9197C50.7736 79.9197 49.2068 79.5995 47.8362 78.9591C46.4657 78.3187 45.3112 77.4371 44.3732 76.3135C43.4352 75.1903 42.722 73.8757 42.233 72.3702C41.7445 70.865 41.5 69.2418 41.5 67.5C41.5 65.7582 41.7725 64.1497 42.3174 62.6388C42.8623 61.128 43.6373 59.8134 44.6432 58.6955C45.6487 57.5777 46.8616 56.6961 48.2828 56.0499C49.704 55.4037 51.2963 55.0807 53.0604 55.0807C54.2062 55.0807 55.2932 55.2128 56.3209 55.4766C57.349 55.7408 58.287 56.117 59.1352 56.6055C59.9831 57.0941 60.733 57.6843 61.3849 58.3749C62.036 59.0655 62.5645 59.8327 62.9691 60.6752L58.6887 63.0846C58.4302 62.5681 58.1269 62.0877 57.7787 61.6437C57.4301 61.2004 57.0288 60.818 56.574 60.4978C56.1188 60.1776 55.5994 59.9249 55.0153 59.7397C54.4309 59.5545 53.7794 59.4615 53.0608 59.4615C51.9261 59.4615 50.9486 59.6837 50.1283 60.1274C49.308 60.5711 48.6343 61.158 48.1062 61.8885C47.5782 62.6187 47.1851 63.4641 46.9266 64.4247C46.6682 65.3853 46.5389 66.3772 46.5389 67.3987V67.5675H46.5381Z" fill="white"/>
<path d="M79.0043 55.0803C80.8017 55.0803 82.4138 55.4033 83.8407 56.0495C85.2673 56.6957 86.4781 57.5773 87.4725 58.6951C88.4665 59.813 89.225 61.1276 89.7473 62.6385C90.2696 64.1494 90.5305 65.7701 90.5305 67.4996C90.5305 69.229 90.2696 70.8646 89.7473 72.3698C89.225 73.8753 88.4665 75.1899 87.4725 76.3131C86.4785 77.4363 85.2677 78.3183 83.8407 78.9587C82.4142 79.5991 80.8017 79.9193 79.0043 79.9193C77.207 79.9193 75.5804 79.5991 74.1596 78.9587C72.7385 78.3183 71.5309 77.4367 70.5369 76.3131C69.5426 75.1899 68.7844 73.8753 68.2622 72.3698C67.7399 70.8646 67.4785 69.2414 67.4785 67.4996C67.4785 65.7578 67.7399 64.1494 68.2622 62.6385C68.7844 61.1276 69.5426 59.813 70.5369 58.6951C71.5309 57.5773 72.7385 56.6957 74.1596 56.0495C75.5808 55.4033 77.1954 55.0803 79.0043 55.0803ZM79.0043 75.5043C80.0604 75.5043 80.9902 75.3051 81.7932 74.9059C82.5961 74.5075 83.2736 73.9539 83.8235 73.2464C84.3741 72.5385 84.7898 71.7018 85.0705 70.7354C85.3512 69.7694 85.492 68.7133 85.492 67.5675V67.4325C85.492 66.2978 85.3512 65.2446 85.0705 64.2728C84.7898 63.3011 84.3741 62.4611 83.8235 61.7536C83.2732 61.0461 82.5961 60.4929 81.7932 60.0937C80.9902 59.6953 80.0604 59.4957 79.0043 59.4957C77.9482 59.4957 77.016 59.6953 76.2068 60.0937C75.3981 60.4929 74.7214 61.0461 74.1765 61.7536C73.6316 62.4611 73.2188 63.3015 72.9381 64.2728C72.6574 65.2446 72.5166 66.2978 72.5166 67.4325V67.5675C72.5166 68.7133 72.6574 69.7694 72.9381 70.7354C73.2188 71.7018 73.6316 72.5381 74.1765 73.2464C74.7214 73.9539 75.3981 74.5075 76.2068 74.9059C77.016 75.3051 77.9482 75.5043 79.0043 75.5043Z" fill="white"/>
<path d="M99.1451 79.5822L92.3203 55.4178H97.7972L102.465 73.5831H102.634L107.2 55.4178H112.609L105.785 79.5822H99.1455H99.1451Z" fill="white"/>
<path d="M140.288 75.5043C140.996 75.5043 141.656 75.4006 142.268 75.1928C142.881 74.9849 143.409 74.6705 143.852 74.249C144.296 73.8276 144.647 73.2946 144.906 72.648C145.164 72.0022 145.293 71.2412 145.293 70.365V55.3836H150.096V71.089C150.096 72.4373 149.851 73.6564 149.363 74.7458C148.875 75.8357 148.196 76.7625 147.326 77.5264C146.456 78.2907 145.42 78.8801 144.22 79.2958C143.019 79.7111 141.706 79.9193 140.28 79.9193C138.855 79.9193 137.541 79.7111 136.341 79.2958C135.139 78.8801 134.101 78.2903 133.225 77.5264C132.35 76.7625 131.668 75.8361 131.179 74.7458C130.691 73.6564 130.447 72.4369 130.447 71.089V55.3836H135.284V70.3646C135.284 71.2408 135.413 72.0018 135.671 72.6476C135.929 73.2942 136.281 73.8272 136.724 74.2486C137.168 74.6701 137.696 74.9845 138.308 75.1924C138.921 75.4002 139.581 75.5039 140.288 75.5039V75.5043Z" fill="white"/>
<path d="M154.43 55.4173H159.317V65.8817L167.945 55.4173H173.961L165.569 65.0223L174.5 79.5818H168.821L162.434 68.7462L159.317 72.2343V79.5818H154.43V55.4173Z" fill="white"/>
<path d="M0.5 135L215.5 0" stroke="#CA3535" stroke-width="3"/>
</g>
<defs>
<clipPath id="clip0_184_1679">
<rect width="215" height="135" fill="white" transform="translate(0.5)"/>
</clipPath>
</defs>
</svg>
