<svg width="215" height="136" viewBox="0 0 215 136" fill="none" xmlns="http://www.w3.org/2000/svg">
<g clip-path="url(#clip0_184_1681)">
<rect width="215" height="135" transform="translate(0 0.0550537)" fill="#FFDD00"/>
<path d="M119.781 71.6346C122.034 71.6346 123.86 69.8081 123.86 67.555C123.86 65.302 122.034 63.4755 119.781 63.4755C117.528 63.4755 115.701 65.302 115.701 67.555C115.701 69.8081 117.528 71.6346 119.781 71.6346Z" fill="#BA4AFF"/>
<path d="M46.0381 67.6225C46.0381 68.656 46.1673 69.6504 46.4258 70.6052C46.6839 71.5601 47.0769 72.4026 47.6054 73.1327C48.1334 73.8633 48.8072 74.4502 49.6275 74.8939C50.4477 75.3375 51.4252 75.5598 52.5599 75.5598C53.6947 75.5598 54.5569 75.3857 55.2817 75.0375C56.0061 74.6893 56.5848 74.2539 57.0173 73.7311C57.4495 73.2089 57.7528 72.6446 57.9273 72.0379C58.1014 71.4313 58.1883 70.8695 58.1883 70.3525V70.1167H52.0039V66.3927H62.9403V79.6377H58.6603V76.8064C58.357 77.2785 57.9804 77.7082 57.5314 78.0959C57.0819 78.4832 56.5765 78.8149 56.0143 79.0899C55.4525 79.3652 54.8372 79.5817 54.1692 79.7389C53.5008 79.8962 52.79 79.9748 52.0377 79.9748C50.2736 79.9748 48.7068 79.6546 47.3362 79.0141C45.9657 78.3737 44.8112 77.4921 43.8732 76.3685C42.9352 75.2453 42.222 73.9308 41.733 72.4252C41.2445 70.9201 41 69.2968 41 67.555C41 65.8132 41.2725 64.2048 41.8174 62.6939C42.3623 61.183 43.1373 59.8684 44.1432 58.7506C45.1487 57.6327 46.3616 56.7511 47.7828 56.105C49.204 55.4588 50.7963 55.1357 52.5604 55.1357C53.7062 55.1357 54.7932 55.2678 55.8209 55.5316C56.849 55.7959 57.787 56.1721 58.6352 56.6606C59.4831 57.1491 60.233 57.7393 60.8849 58.43C61.536 59.1206 62.0645 59.8878 62.4691 60.7303L58.1887 63.1396C57.9302 62.6231 57.6269 62.1428 57.2787 61.6987C56.9301 61.2554 56.5288 60.8731 56.074 60.5529C55.6188 60.2327 55.0994 59.98 54.5153 59.7948C53.9309 59.6095 53.2794 59.5165 52.5608 59.5165C51.4261 59.5165 50.4486 59.7388 49.6283 60.1825C48.808 60.6261 48.1343 61.213 47.6062 61.9436C47.0782 62.6737 46.6851 63.5191 46.4266 64.4797C46.1682 65.4403 46.0389 66.4322 46.0389 67.4538V67.6225H46.0381Z" fill="#0B0C0C"/>
<path d="M78.5043 55.1353C80.3017 55.1353 81.9138 55.4584 83.3407 56.1046C84.7673 56.7508 85.9781 57.6323 86.9725 58.7502C87.9665 59.868 88.725 61.1826 89.2473 62.6935C89.7696 64.2044 90.0305 65.8252 90.0305 67.5546C90.0305 69.2841 89.7696 70.9197 89.2473 72.4248C88.725 73.9304 87.9665 75.2449 86.9725 76.3681C85.9785 77.4913 84.7677 78.3733 83.3407 79.0138C81.9142 79.6542 80.3017 79.9744 78.5043 79.9744C76.707 79.9744 75.0804 79.6542 73.6596 79.0138C72.2385 78.3733 71.0309 77.4917 70.0369 76.3681C69.0426 75.2449 68.2844 73.9304 67.7622 72.4248C67.2399 70.9197 66.9785 69.2964 66.9785 67.5546C66.9785 65.8128 67.2399 64.2044 67.7622 62.6935C68.2844 61.1826 69.0426 59.868 70.0369 58.7502C71.0309 57.6323 72.2385 56.7508 73.6596 56.1046C75.0808 55.4584 76.6954 55.1353 78.5043 55.1353ZM78.5043 75.5594C79.5604 75.5594 80.4902 75.3602 81.2932 74.961C82.0961 74.5626 82.7736 74.009 83.3235 73.3015C83.8741 72.5936 84.2898 71.7568 84.5705 70.7905C84.8512 69.8245 84.992 68.7684 84.992 67.6225V67.4876C84.992 66.3528 84.8512 65.2996 84.5705 64.3279C84.2898 63.3561 83.8741 62.5161 83.3235 61.8086C82.7732 61.1011 82.0961 60.548 81.2932 60.1487C80.4902 59.7503 79.5604 59.5507 78.5043 59.5507C77.4482 59.5507 76.516 59.7503 75.7068 60.1487C74.8981 60.548 74.2214 61.1011 73.6765 61.8086C73.1316 62.5161 72.7188 63.3566 72.4381 64.3279C72.1574 65.2996 72.0166 66.3528 72.0166 67.4876V67.6225C72.0166 68.7684 72.1574 69.8245 72.4381 70.7905C72.7188 71.7568 73.1316 72.5932 73.6765 73.3015C74.2214 74.009 74.8981 74.5626 75.7068 74.961C76.516 75.3602 77.4482 75.5594 78.5043 75.5594Z" fill="#0B0C0C"/>
<path d="M98.6451 79.6373L91.8203 55.4728H97.2972L101.965 73.6381H102.134L106.7 55.4728H112.109L105.285 79.6373H98.6455H98.6451Z" fill="#0B0C0C"/>
<path d="M139.788 75.5594C140.496 75.5594 141.156 75.4557 141.768 75.2478C142.381 75.04 142.909 74.7255 143.352 74.3041C143.796 73.8826 144.147 73.3496 144.406 72.7031C144.664 72.0573 144.793 71.2963 144.793 70.42V55.4387H149.596V71.144C149.596 72.4923 149.351 73.7114 148.863 74.8009C148.375 75.8907 147.696 76.8176 146.826 77.5815C145.956 78.3458 144.92 78.9351 143.72 79.3508C142.519 79.7661 141.206 79.9744 139.78 79.9744C138.355 79.9744 137.041 79.7661 135.841 79.3508C134.639 78.9351 133.601 78.3454 132.725 77.5815C131.85 76.8176 131.168 75.8911 130.679 74.8009C130.191 73.7114 129.947 72.4919 129.947 71.144V55.4387H134.784V70.4196C134.784 71.2959 134.913 72.0569 135.171 72.7026C135.429 73.3492 135.781 73.8822 136.224 74.3037C136.668 74.7251 137.196 75.0396 137.808 75.2474C138.421 75.4553 139.081 75.559 139.788 75.559V75.5594Z" fill="#0B0C0C"/>
<path d="M153.93 55.4724H158.817V65.9367L167.445 55.4724H173.461L165.069 65.0773L174 79.6369H168.321L161.934 68.8013L158.817 72.2894V79.6369H153.93V55.4724Z" fill="#0B0C0C"/>
<path d="M0 135.055L215 0.0550537" stroke="#CA3535" stroke-width="3"/>
</g>
<defs>
<clipPath id="clip0_184_1681">
<rect width="215" height="135" fill="white" transform="translate(0 0.0550537)"/>
</clipPath>
</defs>
</svg>
