<svg width="215" height="135" viewBox="0 0 215 135" fill="none" xmlns="http://www.w3.org/2000/svg">
<g clip-path="url(#clip0_184_1675)">
<rect width="215" height="135" fill="#1D70B8"/>
<path d="M119.781 71.5795C122.034 71.5795 123.86 69.7531 123.86 67.5C123.86 65.2469 122.034 63.4204 119.781 63.4204C117.528 63.4204 115.701 65.2469 115.701 67.5C115.701 69.7531 117.528 71.5795 119.781 71.5795Z" fill="#16548A"/>
<path d="M46.0381 67.5675C46.0381 68.6009 46.1673 69.5953 46.4258 70.5502C46.6839 71.505 47.0769 72.3475 47.6054 73.0777C48.1334 73.8082 48.8072 74.3951 49.6275 74.8388C50.4477 75.2825 51.4252 75.5047 52.5599 75.5047C53.6947 75.5047 54.5569 75.3306 55.2817 74.9824C56.0061 74.6342 56.5848 74.1988 57.0173 73.6761C57.4495 73.1538 57.7528 72.5895 57.9273 71.9829C58.1014 71.3762 58.1883 70.8144 58.1883 70.2975V70.0616H52.0039V66.3377H62.9403V79.5826H58.6603V76.7514C58.357 77.2235 57.9804 77.6532 57.5314 78.0409C57.0819 78.4282 56.5765 78.7599 56.0143 79.0348C55.4525 79.3102 54.8372 79.5267 54.1692 79.6839C53.5008 79.8411 52.79 79.9197 52.0377 79.9197C50.2736 79.9197 48.7068 79.5995 47.3362 78.9591C45.9657 78.3187 44.8112 77.4371 43.8732 76.3135C42.9352 75.1903 42.222 73.8757 41.733 72.3702C41.2445 70.865 41 69.2418 41 67.5C41 65.7582 41.2725 64.1497 41.8174 62.6388C42.3623 61.128 43.1373 59.8134 44.1432 58.6955C45.1487 57.5777 46.3616 56.6961 47.7828 56.0499C49.204 55.4037 50.7963 55.0807 52.5604 55.0807C53.7062 55.0807 54.7932 55.2128 55.8209 55.4766C56.849 55.7408 57.787 56.117 58.6352 56.6055C59.4831 57.0941 60.233 57.6843 60.8849 58.3749C61.536 59.0655 62.0645 59.8327 62.4691 60.6752L58.1887 63.0846C57.9302 62.5681 57.6269 62.0877 57.2787 61.6437C56.9301 61.2004 56.5288 60.818 56.074 60.4978C55.6188 60.1776 55.0994 59.9249 54.5153 59.7397C53.9309 59.5545 53.2794 59.4615 52.5608 59.4615C51.4261 59.4615 50.4486 59.6837 49.6283 60.1274C48.808 60.5711 48.1343 61.158 47.6062 61.8885C47.0782 62.6187 46.6851 63.4641 46.4266 64.4247C46.1682 65.3853 46.0389 66.3772 46.0389 67.3987V67.5675H46.0381Z" fill="white"/>
<path d="M78.5043 55.0803C80.3017 55.0803 81.9138 55.4033 83.3407 56.0495C84.7673 56.6957 85.9781 57.5773 86.9725 58.6951C87.9665 59.813 88.725 61.1276 89.2473 62.6385C89.7696 64.1494 90.0305 65.7701 90.0305 67.4996C90.0305 69.229 89.7696 70.8646 89.2473 72.3698C88.725 73.8753 87.9665 75.1899 86.9725 76.3131C85.9785 77.4363 84.7677 78.3183 83.3407 78.9587C81.9142 79.5991 80.3017 79.9193 78.5043 79.9193C76.707 79.9193 75.0804 79.5991 73.6596 78.9587C72.2385 78.3183 71.0309 77.4367 70.0369 76.3131C69.0426 75.1899 68.2844 73.8753 67.7622 72.3698C67.2399 70.8646 66.9785 69.2414 66.9785 67.4996C66.9785 65.7578 67.2399 64.1494 67.7622 62.6385C68.2844 61.1276 69.0426 59.813 70.0369 58.6951C71.0309 57.5773 72.2385 56.6957 73.6596 56.0495C75.0808 55.4033 76.6954 55.0803 78.5043 55.0803ZM78.5043 75.5043C79.5604 75.5043 80.4902 75.3051 81.2932 74.9059C82.0961 74.5075 82.7736 73.9539 83.3235 73.2464C83.8741 72.5385 84.2898 71.7018 84.5705 70.7354C84.8512 69.7694 84.992 68.7133 84.992 67.5675V67.4325C84.992 66.2978 84.8512 65.2446 84.5705 64.2728C84.2898 63.3011 83.8741 62.4611 83.3235 61.7536C82.7732 61.0461 82.0961 60.4929 81.2932 60.0937C80.4902 59.6953 79.5604 59.4957 78.5043 59.4957C77.4482 59.4957 76.516 59.6953 75.7068 60.0937C74.8981 60.4929 74.2214 61.0461 73.6765 61.7536C73.1316 62.4611 72.7188 63.3015 72.4381 64.2728C72.1574 65.2446 72.0166 66.2978 72.0166 67.4325V67.5675C72.0166 68.7133 72.1574 69.7694 72.4381 70.7354C72.7188 71.7018 73.1316 72.5381 73.6765 73.2464C74.2214 73.9539 74.8981 74.5075 75.7068 74.9059C76.516 75.3051 77.4482 75.5043 78.5043 75.5043Z" fill="white"/>
<path d="M98.6451 79.5822L91.8203 55.4178H97.2972L101.965 73.5831H102.134L106.7 55.4178H112.109L105.285 79.5822H98.6455H98.6451Z" fill="white"/>
<path d="M139.788 75.5043C140.496 75.5043 141.156 75.4006 141.768 75.1928C142.381 74.9849 142.909 74.6705 143.352 74.249C143.796 73.8276 144.147 73.2946 144.406 72.648C144.664 72.0022 144.793 71.2412 144.793 70.365V55.3836H149.596V71.089C149.596 72.4373 149.351 73.6564 148.863 74.7458C148.375 75.8357 147.696 76.7625 146.826 77.5264C145.956 78.2907 144.92 78.8801 143.72 79.2958C142.519 79.7111 141.206 79.9193 139.78 79.9193C138.355 79.9193 137.041 79.7111 135.841 79.2958C134.639 78.8801 133.601 78.2903 132.725 77.5264C131.85 76.7625 131.168 75.8361 130.679 74.7458C130.191 73.6564 129.947 72.4369 129.947 71.089V55.3836H134.784V70.3646C134.784 71.2408 134.913 72.0018 135.171 72.6476C135.429 73.2942 135.781 73.8272 136.224 74.2486C136.668 74.6701 137.196 74.9845 137.808 75.1924C138.421 75.4002 139.081 75.5039 139.788 75.5039V75.5043Z" fill="white"/>
<path d="M153.93 55.4173H158.817V65.8817L167.445 55.4173H173.461L165.069 65.0223L174 79.5818H168.321L161.934 68.7462L158.817 72.2343V79.5818H153.93V55.4173Z" fill="white"/>
<path d="M0 135L215 0" stroke="#CA3535" stroke-width="3"/>
</g>
<defs>
<clipPath id="clip0_184_1675">
<rect width="215" height="135" fill="white"/>
</clipPath>
</defs>
</svg>
