<svg width="216" height="136" viewBox="0 0 216 136" fill="none" xmlns="http://www.w3.org/2000/svg">
<g clip-path="url(#clip0_184_1680)">
<rect width="215" height="135" transform="translate(0.5 0.0552979)" fill="#CA357C"/>
<path d="M120.281 71.6348C122.534 71.6348 124.36 69.8083 124.36 67.5553C124.36 65.3022 122.534 63.4757 120.281 63.4757C118.028 63.4757 116.201 65.3022 116.201 67.5553C116.201 69.8083 118.028 71.6348 120.281 71.6348Z" fill="#D2E2F1"/>
<path d="M46.5381 67.6228C46.5381 68.6562 46.6673 69.6506 46.9258 70.6055C47.1839 71.5603 47.5769 72.4028 48.1054 73.133C48.6334 73.8635 49.3072 74.4504 50.1275 74.8941C50.9477 75.3378 51.9252 75.56 53.0599 75.56C54.1947 75.56 55.0569 75.3859 55.7817 75.0377C56.5061 74.6895 57.0848 74.2541 57.5173 73.7314C57.9495 73.2091 58.2528 72.6448 58.4273 72.0382C58.6014 71.4315 58.6883 70.8697 58.6883 70.3528V70.1169H52.5039V66.393H63.4403V79.6379H59.1603V76.8067C58.857 77.2788 58.4804 77.7085 58.0314 78.0962C57.5819 78.4835 57.0765 78.8152 56.5143 79.0901C55.9525 79.3655 55.3372 79.582 54.6692 79.7392C54.0008 79.8964 53.29 79.975 52.5377 79.975C50.7736 79.975 49.2068 79.6548 47.8362 79.0144C46.4657 78.374 45.3112 77.4924 44.3732 76.3688C43.4352 75.2456 42.722 73.931 42.233 72.4255C41.7445 70.9203 41.5 69.2971 41.5 67.5553C41.5 65.8135 41.7725 64.205 42.3174 62.6941C42.8623 61.1832 43.6373 59.8687 44.6432 58.7508C45.6487 57.633 46.8616 56.7514 48.2828 56.1052C49.704 55.459 51.2963 55.136 53.0604 55.136C54.2062 55.136 55.2932 55.2681 56.3209 55.5319C57.349 55.7961 58.287 56.1723 59.1352 56.6608C59.9831 57.1494 60.733 57.7396 61.3849 58.4302C62.036 59.1208 62.5645 59.888 62.9691 60.7305L58.6887 63.1399C58.4302 62.6234 58.1269 62.143 57.7787 61.699C57.4301 61.2557 57.0288 60.8733 56.574 60.5531C56.1188 60.2329 55.5994 59.9802 55.0153 59.795C54.4309 59.6098 53.7794 59.5168 53.0608 59.5168C51.9261 59.5168 50.9486 59.739 50.1283 60.1827C49.308 60.6264 48.6343 61.2133 48.1062 61.9438C47.5782 62.674 47.1851 63.5194 46.9266 64.48C46.6682 65.4406 46.5389 66.4325 46.5389 67.454V67.6228H46.5381Z" fill="white"/>
<path d="M79.0043 55.1356C80.8017 55.1356 82.4138 55.4586 83.8407 56.1048C85.2673 56.751 86.4781 57.6326 87.4725 58.7504C88.4665 59.8683 89.225 61.1829 89.7473 62.6938C90.2696 64.2046 90.5305 65.8254 90.5305 67.5549C90.5305 69.2843 90.2696 70.9199 89.7473 72.4251C89.225 73.9306 88.4665 75.2452 87.4725 76.3684C86.4785 77.4916 85.2677 78.3736 83.8407 79.014C82.4142 79.6544 80.8017 79.9746 79.0043 79.9746C77.207 79.9746 75.5804 79.6544 74.1596 79.014C72.7385 78.3736 71.5309 77.492 70.5369 76.3684C69.5426 75.2452 68.7844 73.9306 68.2622 72.4251C67.7399 70.9199 67.4785 69.2967 67.4785 67.5549C67.4785 65.8131 67.7399 64.2046 68.2622 62.6938C68.7844 61.1829 69.5426 59.8683 70.5369 58.7504C71.5309 57.6326 72.7385 56.751 74.1596 56.1048C75.5808 55.4586 77.1954 55.1356 79.0043 55.1356ZM79.0043 75.5596C80.0604 75.5596 80.9902 75.3604 81.7932 74.9612C82.5961 74.5628 83.2736 74.0092 83.8235 73.3017C84.3741 72.5938 84.7898 71.7571 85.0705 70.7907C85.3512 69.8247 85.492 68.7686 85.492 67.6228V67.4878C85.492 66.3531 85.3512 65.2999 85.0705 64.3281C84.7898 63.3564 84.3741 62.5164 83.8235 61.8089C83.2732 61.1014 82.5961 60.5482 81.7932 60.149C80.9902 59.7506 80.0604 59.551 79.0043 59.551C77.9482 59.551 77.016 59.7506 76.2068 60.149C75.3981 60.5482 74.7214 61.1014 74.1765 61.8089C73.6316 62.5164 73.2188 63.3568 72.9381 64.3281C72.6574 65.2999 72.5166 66.3531 72.5166 67.4878V67.6228C72.5166 68.7686 72.6574 69.8247 72.9381 70.7907C73.2188 71.7571 73.6316 72.5934 74.1765 73.3017C74.7214 74.0092 75.3981 74.5628 76.2068 74.9612C77.016 75.3604 77.9482 75.5596 79.0043 75.5596Z" fill="white"/>
<path d="M99.1451 79.6375L92.3203 55.4731H97.7972L102.465 73.6384H102.634L107.2 55.4731H112.609L105.785 79.6375H99.1455H99.1451Z" fill="white"/>
<path d="M140.288 75.5596C140.996 75.5596 141.656 75.4559 142.268 75.2481C142.881 75.0402 143.409 74.7258 143.852 74.3043C144.296 73.8829 144.647 73.3499 144.906 72.7033C145.164 72.0575 145.293 71.2965 145.293 70.4203V55.4389H150.096V71.1442C150.096 72.4926 149.851 73.7117 149.363 74.8011C148.875 75.891 148.196 76.8178 147.326 77.5817C146.456 78.346 145.42 78.9354 144.22 79.3511C143.019 79.7664 141.706 79.9746 140.28 79.9746C138.855 79.9746 137.541 79.7664 136.341 79.3511C135.139 78.9354 134.101 78.3456 133.225 77.5817C132.35 76.8178 131.668 75.8914 131.179 74.8011C130.691 73.7117 130.447 72.4922 130.447 71.1442V55.4389H135.284V70.4199C135.284 71.2961 135.413 72.0571 135.671 72.7029C135.929 73.3495 136.281 73.8825 136.724 74.3039C137.168 74.7254 137.696 75.0398 138.308 75.2477C138.921 75.4555 139.581 75.5592 140.288 75.5592V75.5596Z" fill="white"/>
<path d="M154.43 55.4726H159.317V65.937L167.945 55.4726H173.961L165.569 65.0776L174.5 79.6371H168.821L162.434 68.8015L159.317 72.2896V79.6371H154.43V55.4726Z" fill="white"/>
<path d="M0.5 135.055L215.5 0.0552979" stroke="#CA3535" stroke-width="3"/>
</g>
<defs>
<clipPath id="clip0_184_1680">
<rect width="215" height="135" fill="white" transform="translate(0.5 0.0552979)"/>
</clipPath>
</defs>
</svg>
