<svg width="300" height="301" viewBox="0 0 300 301" fill="none" xmlns="http://www.w3.org/2000/svg">
<circle cx="149.041" cy="151.236" r="148.041" fill="#16548A" stroke="#00FFE0" stroke-width="2"/>
<mask id="mask0_2074_16658" style="mask-type:alpha" maskUnits="userSpaceOnUse" x="186" y="2" width="114" height="299">
<rect x="186" y="2.19434" width="113.035" height="298.591" fill="#1D70B8"/>
</mask>
<g mask="url(#mask0_2074_16658)">
<circle cx="149.041" cy="151.236" r="148.041" fill="#1D70B8" stroke="#00FFE0" stroke-width="2"/>
</g>
<path d="M0.949219 234.478L299.036 234.478" stroke="#00FFE0" stroke-width="2"/>
<path d="M0.949219 66.2598L299.036 66.2598" stroke="#00FFE0" stroke-width="2"/>
<path d="M246.547 0L246.547 300.785" stroke="#00FFE0" stroke-width="2"/>
<path d="M51.7578 0L51.7578 300.785" stroke="#00FFE0" stroke-width="2"/>
<path fill-rule="evenodd" clip-rule="evenodd" d="M164.436 72.6075C166.858 69.9146 170.81 69.9148 173.232 72.6075H173.231L243.727 150.958L244.027 151.292L243.727 151.627L173.343 229.865C170.921 232.555 166.969 232.556 164.547 229.865C162.153 227.204 162.154 222.907 164.547 220.245L220.319 158.236H60.876C57.1096 158.236 54.0589 155.171 54.0586 151.394C54.0588 147.616 57.1095 144.55 60.876 144.55H220.5L164.436 82.2276C162.041 79.5654 162.041 75.2697 164.436 72.6075Z" fill="#00FFE0"/>
</svg>
