<svg width="164" height="61" viewBox="0 0 164 61" fill="none" xmlns="http://www.w3.org/2000/svg">
<rect x="0.5" y="0.5" width="162.696" height="59.691" rx="29.8455" stroke="white"/>
<circle cx="133.267" cy="30.3454" r="26.8576" fill="#FF52EE"/>
<path d="M135.393 15.8239C135.806 15.3653 136.474 15.3653 136.887 15.8239L149.959 30.3587L136.907 44.8729C136.495 45.331 135.826 45.3311 135.414 44.8729C135.002 44.4144 135.002 43.6709 135.414 43.2123L146.97 30.3587L135.393 17.4845C134.981 17.0259 134.981 16.2825 135.393 15.8239Z" fill="#98285D"/>
<path d="M116.083 31.5225C115.434 31.5224 114.909 30.9966 114.909 30.3481C114.909 29.6996 115.434 29.1739 116.083 29.1738L147.594 29.1738C148.242 29.1738 148.768 29.6995 148.768 30.3481C148.768 30.9967 148.242 31.5225 147.594 31.5225L116.083 31.5225Z" fill="#98285D"/>
</svg>
