<svg width="533" height="319" viewBox="0 0 533 319" fill="none" xmlns="http://www.w3.org/2000/svg">
<circle cx="67.2616" cy="251.912" r="66.5001" transform="rotate(90 67.2616 251.912)" fill="#2A1950"/>
<circle cx="67.2616" cy="118.912" r="66.5001" transform="rotate(90 67.2616 118.912)" fill="#54319F"/>
<circle cx="200.32" cy="251.912" r="66.5001" transform="rotate(90 200.32 251.912)" fill="#7F65B7"/>
<circle cx="200.32" cy="118.912" r="66.5001" transform="rotate(90 200.32 118.912)" fill="#2A1950"/>
<circle cx="333.32" cy="251.912" r="66.5001" transform="rotate(90 333.32 251.912)" fill="#2A1950"/>
<circle cx="333.32" cy="118.912" r="66.5001" transform="rotate(90 333.32 118.912)" fill="#2A1950"/>
<circle cx="466.32" cy="251.912" r="66.5001" transform="rotate(90 466.32 251.912)" fill="#2A1950"/>
<circle cx="466.32" cy="118.912" r="66.5001" transform="rotate(90 466.32 118.912)" fill="#BA4AFF"/>
<path d="M244.733 35.9848L254.505 45.7574C255.055 46.3067 255.055 47.1972 254.505 47.7465L250.918 51.334C250.369 51.8833 249.478 51.8833 248.929 51.334L239.156 41.5614C238.607 41.0121 238.607 40.1216 239.156 39.5723L242.744 35.9848C243.293 35.4355 244.184 35.4355 244.733 35.9848Z" fill="white"/>
<path d="M256.889 35.2581L255.236 33.6047C254.069 32.4378 252.173 32.4378 251.006 33.6047L242.14 42.4708L248.023 48.3541L256.889 39.488C258.056 38.3211 258.056 36.425 256.889 35.2581Z" fill="white"/>
<path fill-rule="evenodd" clip-rule="evenodd" d="M251.09 47.9316L242.562 39.4036L226.528 55.6936C226.528 55.6937 226.528 55.6936 226.528 55.6936C226.07 56.1584 225.758 56.7447 225.628 57.3812L225.051 60.2151C225.051 60.2152 225.051 60.2149 225.051 60.2151C224.998 60.4746 224.874 60.7116 224.695 60.8996L224.691 60.9037L222.329 63.4397C221.401 64.4215 221.421 65.967 222.379 66.9244L223.569 68.1148C224.526 69.0716 226.07 69.0939 227.054 68.164L229.59 65.8022L229.594 65.7983C229.782 65.6191 230.019 65.4955 230.278 65.4424C230.278 65.4423 230.278 65.4424 230.278 65.4424L233.111 64.8656L233.114 64.865C233.75 64.7337 234.336 64.4226 234.8 63.9658C234.8 63.9657 234.8 63.9658 234.8 63.9658L251.09 47.9316ZM248.302 47.9206L233.422 62.5663C233.23 62.7554 232.986 62.8862 232.718 62.9417C232.717 62.9418 232.717 62.9419 232.717 62.942L229.885 63.5185C229.27 63.6442 228.701 63.9381 228.244 64.3726L225.709 66.7329L225.706 66.7362C225.495 66.9362 225.163 66.932 224.958 66.7262L223.767 65.5358C223.562 65.3306 223.558 64.9979 223.757 64.7879L223.761 64.7845L226.121 62.25C226.555 61.7925 226.849 61.2231 226.975 60.6087L227.552 57.7746C227.552 57.7746 227.552 57.7747 227.552 57.7746C227.606 57.5099 227.736 57.2655 227.927 57.0714L242.573 42.1918L248.302 47.9206Z" fill="white"/>
<rect x="162.508" y="4.24805" width="132.997" height="8.85816" rx="4.42908" fill="url(#paint0_linear_1157_15980)"/>
<circle cx="239.516" cy="8.67643" r="6.39652" fill="#BA4AFF" stroke="white" stroke-width="3.52856"/>
<defs>
<linearGradient id="paint0_linear_1157_15980" x1="162.508" y1="8.67712" x2="295.504" y2="8.67712" gradientUnits="userSpaceOnUse">
<stop stop-color="#F6F5FA"/>
<stop offset="0.18" stop-color="#AA98CF"/>
<stop offset="0.365" stop-color="#A96DE9"/>
<stop offset="0.58" stop-color="#BA4AFF"/>
<stop offset="0.795" stop-color="#5C1C98"/>
<stop offset="1" stop-color="#1B0B3F"/>
</linearGradient>
</defs>
</svg>
