<svg width="533" height="319" viewBox="0 0 533 319" fill="none" xmlns="http://www.w3.org/2000/svg">
<circle cx="67.2616" cy="251.912" r="66.5001" transform="rotate(90 67.2616 251.912)" fill="#2A1950"/>
<circle cx="67.2616" cy="118.912" r="66.5001" transform="rotate(90 67.2616 118.912)" fill="#54319F"/>
<circle cx="200.328" cy="251.912" r="66.5001" transform="rotate(90 200.328 251.912)" fill="#7F65B7"/>
<circle cx="200.328" cy="118.912" r="66.5001" transform="rotate(90 200.328 118.912)" fill="#2A1950"/>
<circle cx="333.328" cy="251.912" r="66.5001" transform="rotate(90 333.328 251.912)" fill="#2A1950"/>
<circle cx="333.328" cy="118.912" r="66.5001" transform="rotate(90 333.328 118.912)" fill="#2A1950"/>
<circle cx="466.328" cy="251.912" r="66.5001" transform="rotate(90 466.328 251.912)" fill="#2A1950"/>
<circle cx="466.328" cy="118.912" r="66.5001" transform="rotate(90 466.328 118.912)" fill="#BA4AFF"/>
<path d="M106.901 35.9848L116.673 45.7574C117.223 46.3067 117.223 47.1972 116.673 47.7465L113.086 51.334C112.537 51.8833 111.646 51.8833 111.097 51.334L101.324 41.5614C100.775 41.0121 100.775 40.1216 101.324 39.5723L104.912 35.9848C105.461 35.4355 106.351 35.4355 106.901 35.9848Z" fill="white"/>
<path d="M119.057 35.2581L117.404 33.6047C116.237 32.4378 114.34 32.4378 113.174 33.6047L104.307 42.4708L110.191 48.3541L119.057 39.488C120.224 38.3211 120.224 36.425 119.057 35.2581Z" fill="white"/>
<path fill-rule="evenodd" clip-rule="evenodd" d="M113.258 47.9316L104.73 39.4036L88.6958 55.6936C88.6958 55.6936 88.6957 55.6937 88.6958 55.6936C88.2382 56.1584 87.9261 56.7447 87.796 57.3812L87.2191 60.2151C87.2191 60.2152 87.2191 60.2149 87.2191 60.2151C87.1659 60.4746 87.0423 60.7116 86.8631 60.8996L86.8592 60.9037L84.4975 63.4397C83.5694 64.4215 83.5892 65.967 84.5467 66.9244L85.737 68.1148C86.6939 69.0716 88.2381 69.0939 89.2217 68.164L91.7577 65.8022L91.7618 65.7983C91.9499 65.6191 92.1866 65.4955 92.4462 65.4424C92.4463 65.4423 92.4462 65.4424 92.4462 65.4424L95.2794 64.8656L95.2822 64.865C95.9178 64.7337 96.5037 64.4226 96.9677 63.9658C96.9677 63.9657 96.9677 63.9658 96.9677 63.9658L113.258 47.9316ZM110.47 47.9206L95.5902 62.5663C95.398 62.7554 95.1536 62.8862 94.8858 62.9417C94.8854 62.9418 94.8851 62.9419 94.8847 62.942L92.0527 63.5185C91.4384 63.6442 90.869 63.9381 90.4115 64.3726L87.8769 66.7329L87.8735 66.7362C87.6628 66.9362 87.3314 66.932 87.1256 66.7262L85.9352 65.5358C85.73 65.3306 85.7259 64.9979 85.9253 64.7879L85.9285 64.7845L88.2888 62.25C88.7233 61.7925 89.0173 61.2231 89.143 60.6087L89.7199 57.7746C89.7199 57.7747 89.7199 57.7746 89.7199 57.7746C89.774 57.5099 89.9039 57.2655 90.095 57.0714L104.741 42.1918L110.47 47.9206Z" fill="white"/>
<rect x="24.6758" y="4.24805" width="132.997" height="8.85816" rx="4.42908" fill="url(#paint0_linear_1157_15980)"/>
<circle cx="101.684" cy="8.67643" r="6.39652" fill="#BA4AFF" stroke="white" stroke-width="3.52856"/>
<defs>
<linearGradient id="paint0_linear_1157_15980" x1="24.6758" y1="8.67712" x2="157.672" y2="8.67712" gradientUnits="userSpaceOnUse">
<stop stop-color="#F6F5FA"/>
<stop offset="0.18" stop-color="#AA98CF"/>
<stop offset="0.365" stop-color="#A96DE9"/>
<stop offset="0.58" stop-color="#BA4AFF"/>
<stop offset="0.795" stop-color="#5C1C98"/>
<stop offset="1" stop-color="#1B0B3F"/>
</linearGradient>
</defs>
</svg>
