<svg width="459" height="369" viewBox="0 0 459 369" fill="none" xmlns="http://www.w3.org/2000/svg">
<mask id="mask0_2030_17005" style="mask-type:alpha" maskUnits="userSpaceOnUse" x="0" y="0" width="459" height="369">
<rect width="459" height="369" fill="#D9D9D9"/>
</mask>
<g mask="url(#mask0_2030_17005)">
<path d="M217.807 171.855C257.268 171.855 289.259 203.85 289.259 243.315C289.259 282.779 257.268 314.774 217.807 314.774C178.347 314.774 146.355 282.779 146.355 243.315C146.355 203.85 178.347 171.855 217.807 171.855Z" fill="#F3F9F9"/>
<circle cx="78.4173" cy="292.808" r="74.8704" fill="#F3F9F9" stroke="#00FFE0" stroke-width="2"/>
<circle cx="217.799" cy="243.315" r="70.4596" fill="#8AC0C3" stroke="#00FFE0" stroke-width="2"/>
<circle cx="325.679" cy="336.479" r="69.8429" fill="#106165" stroke="#00FFE0" stroke-width="2"/>
<circle cx="401.832" cy="236.238" r="53.6401" fill="#0B4144" stroke="#00FFE0" stroke-width="2"/>
<circle cx="101.848" cy="117.638" r="97.8007" fill="#00FFE0" stroke="#00FFE0" stroke-width="3"/>
<path d="M81.7931 117.416C81.7931 118.484 81.7105 119.526 81.5452 120.55C81.38 121.573 81.1257 122.546 80.7761 123.461C80.4265 124.383 79.9879 125.228 79.4476 126.004C78.9073 126.779 78.259 127.447 77.5026 128.006C76.7462 128.566 75.8754 129.011 74.8901 129.329C73.9049 129.646 72.7989 129.805 71.5657 129.805C70.5551 129.805 69.6207 129.685 68.7626 129.437C67.9045 129.189 67.129 128.852 66.4362 128.42C65.7433 127.987 65.1458 127.485 64.6373 126.894C64.1288 126.309 63.7347 125.673 63.4487 124.987L67.8727 123.251C68.2668 124.001 68.8007 124.561 69.4618 124.942C70.1228 125.324 70.8856 125.514 71.731 125.514C72.5764 125.514 73.2819 125.355 73.9112 125.025C74.5405 124.701 75.0554 124.256 75.4685 123.696C75.8817 123.137 76.1932 122.482 76.4029 121.738C76.6127 120.995 76.7144 120.206 76.7017 119.367C76.4283 119.641 76.1042 119.907 75.7292 120.162C75.3541 120.416 74.941 120.639 74.4833 120.829C74.0256 121.02 73.5298 121.179 72.9959 121.293C72.462 121.408 71.9026 121.465 71.3242 121.465C70.1673 121.465 69.0931 121.274 68.1015 120.893C67.1099 120.511 66.2391 119.984 65.5081 119.31C64.7771 118.636 64.1987 117.829 63.7855 116.894C63.366 115.96 63.1562 114.936 63.1562 113.824C63.1562 112.635 63.366 111.529 63.7919 110.505C64.2178 109.482 64.8153 108.598 65.5908 107.855C66.3662 107.111 67.3006 106.532 68.3875 106.106C69.4745 105.687 70.6949 105.471 72.0361 105.471C73.5108 105.471 74.8456 105.731 76.047 106.253C77.2483 106.774 78.2717 107.524 79.1234 108.503C79.9752 109.482 80.6363 110.677 81.1003 112.082C81.5643 113.493 81.7995 115.082 81.7995 116.85V117.396L81.7931 117.416ZM76.4665 113.557C76.4665 112.997 76.3648 112.476 76.1678 111.987C75.9707 111.504 75.6847 111.084 75.316 110.722C74.9473 110.366 74.5024 110.086 73.9875 109.882C73.4726 109.679 72.9006 109.577 72.2713 109.577C71.642 109.577 71.0382 109.679 70.5233 109.882C70.0084 110.086 69.5635 110.366 69.2012 110.722C68.8389 111.078 68.5592 111.504 68.3685 111.987C68.1778 112.47 68.0824 112.991 68.0824 113.557C68.0824 114.123 68.1778 114.625 68.3685 115.108C68.5592 115.591 68.8389 116.017 69.2012 116.373C69.5635 116.729 70.0021 117.009 70.5233 117.212C71.0382 117.416 71.623 117.517 72.2713 117.517C72.9197 117.517 73.4726 117.416 73.9875 117.212C74.5024 117.009 74.9473 116.729 75.316 116.373C75.6847 116.017 75.9707 115.597 76.1678 115.108C76.3648 114.625 76.4665 114.11 76.4665 113.557Z" fill="#0B4144"/>
<path d="M95.7512 110.35H83.8203V105.812H100.684V110.414L91.5242 129.472H85.9115L95.7449 110.344L95.7512 110.35Z" fill="#0B4144"/>
<path d="M106.997 122.251C107.175 122.81 107.423 123.3 107.741 123.713C108.059 124.126 108.434 124.469 108.854 124.736C109.279 125.01 109.737 125.207 110.239 125.328C110.741 125.455 111.256 125.518 111.797 125.518C112.547 125.518 113.182 125.429 113.703 125.245C114.225 125.061 114.651 124.825 114.975 124.533C115.299 124.241 115.534 123.91 115.674 123.541C115.82 123.173 115.89 122.797 115.89 122.41C115.89 121.475 115.502 120.738 114.727 120.191C113.951 119.644 112.763 119.377 111.155 119.377H109.832V115.385H110.837C112.286 115.385 113.424 115.15 114.244 114.673C115.064 114.203 115.471 113.478 115.471 112.512C115.471 112.092 115.375 111.717 115.191 111.38C115.006 111.043 114.746 110.764 114.422 110.528C114.098 110.293 113.71 110.122 113.265 109.994C112.82 109.867 112.337 109.804 111.822 109.804C111.231 109.804 110.684 109.886 110.195 110.052C109.705 110.217 109.267 110.446 108.885 110.725C108.504 111.012 108.167 111.348 107.887 111.73C107.608 112.118 107.385 112.525 107.22 112.95L102.993 111.253C103.247 110.331 103.667 109.511 104.245 108.793C104.83 108.081 105.51 107.477 106.298 106.988C107.086 106.498 107.951 106.123 108.898 105.862C109.845 105.608 110.805 105.475 111.784 105.475C113.004 105.475 114.136 105.621 115.184 105.92C116.233 106.218 117.142 106.651 117.918 107.216C118.693 107.782 119.303 108.481 119.742 109.302C120.181 110.122 120.403 111.069 120.403 112.124C120.403 112.753 120.301 113.338 120.098 113.879C119.895 114.419 119.621 114.915 119.272 115.347C118.922 115.786 118.515 116.154 118.045 116.46C117.568 116.771 117.066 117.006 116.526 117.172C117.13 117.305 117.695 117.528 118.223 117.833C118.75 118.144 119.214 118.526 119.609 118.99C120.003 119.454 120.314 119.988 120.543 120.592C120.772 121.196 120.88 121.857 120.88 122.569C120.88 123.656 120.645 124.647 120.181 125.537C119.717 126.427 119.075 127.19 118.261 127.813C117.447 128.436 116.488 128.926 115.382 129.275C114.276 129.625 113.081 129.797 111.79 129.797C110.659 129.797 109.565 129.65 108.523 129.358C107.481 129.066 106.54 128.646 105.701 128.106C104.862 127.565 104.163 126.898 103.59 126.109C103.018 125.321 102.631 124.438 102.434 123.446L106.985 122.244L106.997 122.251Z" fill="#0B4144"/>
<path d="M128.797 118.735L134.69 111.806H140.366L133.978 119.034L140.544 129.479H135.065L130.66 122.283L128.797 124.31V129.472H124.246V105.812H128.797V118.735Z" fill="#0B4144"/>
<path d="M178.859 244.384L180.181 231.46H195.36V235.802H184.205L183.728 240.188C183.995 239.966 184.3 239.769 184.65 239.597C184.999 239.425 185.381 239.273 185.787 239.152C186.194 239.031 186.607 238.936 187.033 238.872C187.459 238.809 187.879 238.771 188.298 238.771C189.487 238.771 190.586 238.961 191.597 239.349C192.608 239.737 193.485 240.277 194.222 240.983C194.96 241.688 195.538 242.534 195.958 243.526C196.377 244.517 196.587 245.611 196.587 246.812C196.587 248.122 196.345 249.304 195.869 250.366C195.385 251.427 194.731 252.336 193.885 253.087C193.046 253.837 192.055 254.422 190.911 254.835C189.773 255.248 188.546 255.451 187.237 255.451C186.181 255.451 185.164 255.312 184.192 255.038C183.219 254.765 182.329 254.364 181.529 253.849C180.728 253.334 180.028 252.692 179.437 251.936C178.846 251.179 178.414 250.315 178.141 249.342L182.692 247.855C183.035 248.878 183.569 249.679 184.294 250.258C185.018 250.836 185.984 251.122 187.179 251.122C187.891 251.122 188.527 251.001 189.08 250.76C189.633 250.518 190.091 250.2 190.459 249.813C190.828 249.425 191.108 248.98 191.298 248.478C191.489 247.976 191.584 247.461 191.584 246.933C191.584 246.405 191.483 245.909 191.286 245.42C191.089 244.93 190.796 244.498 190.421 244.117C190.046 243.735 189.582 243.43 189.035 243.201C188.489 242.973 187.872 242.852 187.179 242.852C186.753 242.852 186.34 242.909 185.959 243.023C185.578 243.138 185.222 243.29 184.904 243.468C184.586 243.646 184.313 243.856 184.077 244.098C183.842 244.339 183.664 244.568 183.531 244.797L178.859 244.371V244.384Z" fill="#0B4144"/>
<path d="M218.053 243.327C218.053 244.293 217.983 245.265 217.85 246.244C217.716 247.223 217.494 248.164 217.189 249.067C216.884 249.97 216.49 250.815 216.006 251.597C215.523 252.379 214.926 253.066 214.227 253.644C213.528 254.223 212.707 254.674 211.779 255.004C210.851 255.335 209.784 255.5 208.589 255.5C207.394 255.5 206.338 255.335 205.404 255.004C204.47 254.674 203.65 254.223 202.957 253.644C202.264 253.066 201.667 252.385 201.183 251.603C200.7 250.822 200.306 249.982 200.001 249.08C199.696 248.177 199.48 247.236 199.34 246.257C199.2 245.278 199.137 244.299 199.137 243.32C199.137 242.341 199.207 241.381 199.34 240.402C199.474 239.423 199.696 238.483 200.001 237.58C200.306 236.677 200.7 235.832 201.183 235.05C201.667 234.268 202.258 233.581 202.957 233.003C203.656 232.424 204.47 231.967 205.398 231.636C206.326 231.305 207.394 231.134 208.589 231.134C209.784 231.134 210.851 231.299 211.779 231.636C212.707 231.973 213.528 232.431 214.227 233.003C214.926 233.575 215.523 234.261 216.006 235.05C216.49 235.838 216.884 236.683 217.189 237.58C217.494 238.476 217.71 239.423 217.85 240.402C217.99 241.381 218.053 242.354 218.053 243.32V243.327ZM204.095 243.644C204.095 244.642 204.171 245.602 204.323 246.505C204.476 247.408 204.73 248.215 205.074 248.908C205.417 249.601 205.881 250.154 206.453 250.561C207.025 250.968 207.737 251.171 208.582 251.171C209.428 251.171 210.14 250.968 210.712 250.561C211.284 250.154 211.741 249.601 212.091 248.908C212.441 248.215 212.682 247.414 212.835 246.505C212.987 245.596 213.057 244.642 213.057 243.644V243.002C213.057 242.004 212.981 241.044 212.835 240.129C212.688 239.214 212.441 238.413 212.091 237.72C211.741 237.027 211.284 236.474 210.712 236.067C210.14 235.66 209.428 235.457 208.582 235.457C207.737 235.457 207.025 235.66 206.453 236.067C205.881 236.474 205.423 237.027 205.074 237.72C204.724 238.413 204.476 239.214 204.323 240.129C204.171 241.044 204.095 241.998 204.095 243.002V243.644Z" fill="#0B4144"/>
<path d="M223.908 247.905C224.086 248.464 224.333 248.954 224.651 249.367C224.969 249.78 225.344 250.117 225.764 250.391C226.183 250.664 226.647 250.861 227.149 250.982C227.652 251.103 228.166 251.173 228.707 251.173C229.457 251.173 230.092 251.084 230.614 250.899C231.135 250.715 231.561 250.48 231.885 250.187C232.209 249.895 232.444 249.564 232.584 249.196C232.724 248.827 232.8 248.452 232.8 248.064C232.8 247.13 232.412 246.392 231.637 245.845C230.861 245.299 229.673 245.032 228.065 245.032H226.743V241.04H227.747C229.196 241.04 230.334 240.804 231.154 240.328C231.974 239.851 232.381 239.132 232.381 238.166C232.381 237.747 232.285 237.372 232.101 237.035C231.917 236.698 231.656 236.418 231.332 236.183C231.008 235.948 230.62 235.77 230.175 235.649C229.73 235.528 229.247 235.458 228.732 235.458C228.141 235.458 227.594 235.541 227.105 235.706C226.615 235.871 226.177 236.094 225.795 236.38C225.414 236.666 225.077 237.003 224.797 237.384C224.518 237.766 224.295 238.179 224.13 238.605L219.903 236.907C220.157 235.986 220.577 235.166 221.155 234.447C221.734 233.729 222.42 233.131 223.208 232.642C223.997 232.152 224.861 231.777 225.808 231.517C226.755 231.256 227.715 231.129 228.694 231.129C229.914 231.129 231.046 231.275 232.095 231.574C233.143 231.873 234.052 232.305 234.828 232.871C235.603 233.436 236.214 234.136 236.652 234.956C237.091 235.776 237.313 236.723 237.313 237.778C237.313 238.408 237.212 238.993 237.008 239.533C236.805 240.073 236.531 240.569 236.182 241.001C235.832 241.434 235.425 241.809 234.955 242.114C234.485 242.419 233.976 242.661 233.436 242.826C234.04 242.959 234.605 243.175 235.133 243.487C235.661 243.798 236.125 244.18 236.519 244.644C236.913 245.108 237.224 245.642 237.453 246.246C237.682 246.85 237.79 247.511 237.79 248.223C237.79 249.31 237.555 250.302 237.091 251.192C236.627 252.082 235.985 252.844 235.171 253.467C234.358 254.09 233.398 254.58 232.292 254.93C231.186 255.279 229.991 255.451 228.7 255.451C227.569 255.451 226.476 255.305 225.433 255.012C224.391 254.72 223.45 254.3 222.611 253.76C221.772 253.22 221.073 252.552 220.501 251.764C219.929 250.976 219.541 250.092 219.344 249.1L223.895 247.899L223.908 247.905Z" fill="#0B4144"/>
<path d="M245.707 244.391L251.6 237.461H257.276L250.888 244.689L257.454 255.134H251.975L247.57 247.938L245.707 249.966V255.128H241.156V231.467H245.707V244.391Z" fill="#0B4144"/>
<path d="M40.6958 293.851L41.948 281.575H56.3705V285.701H45.7745L45.3232 289.871C45.5711 289.661 45.8635 289.477 46.2004 289.305C46.5372 289.134 46.8932 289 47.281 288.879C47.6687 288.765 48.0628 288.676 48.4633 288.612C48.8637 288.549 49.2642 288.517 49.6646 288.517C50.7961 288.517 51.8385 288.701 52.7983 289.064C53.7581 289.432 54.5908 289.947 55.29 290.615C55.9892 291.282 56.5358 292.09 56.9363 293.031C57.3367 293.971 57.5338 295.014 57.5338 296.152C57.5338 297.398 57.3049 298.523 56.8536 299.527C56.4023 300.538 55.7731 301.396 54.9722 302.115C54.1713 302.833 53.2305 303.386 52.1499 303.774C51.0693 304.168 49.8998 304.359 48.6603 304.359C47.656 304.359 46.6898 304.225 45.7682 303.965C44.8465 303.704 43.9947 303.329 43.232 302.833C42.4692 302.344 41.8082 301.733 41.2488 301.015C40.6894 300.297 40.2762 299.477 40.0156 298.555L44.3443 297.144C44.6685 298.116 45.177 298.879 45.8635 299.426C46.5564 299.972 47.4717 300.252 48.6094 300.252C49.2896 300.252 49.8871 300.138 50.4146 299.909C50.9359 299.68 51.3745 299.381 51.7241 299.006C52.0737 298.637 52.3407 298.212 52.525 297.735C52.7093 297.258 52.7983 296.768 52.7983 296.266C52.7983 295.764 52.703 295.294 52.5123 294.83C52.3216 294.366 52.0482 293.952 51.6923 293.59C51.33 293.228 50.8914 292.942 50.3765 292.719C49.8553 292.497 49.2705 292.388 48.6158 292.388C48.209 292.388 47.8213 292.446 47.459 292.554C47.0903 292.662 46.7597 292.802 46.4546 292.98C46.1495 293.151 45.8889 293.348 45.6728 293.577C45.4503 293.8 45.2787 294.022 45.1579 294.245L40.7212 293.838L40.6958 293.851Z" fill="#0B4144"/>
<path d="M59.8516 293.05C59.8516 292.039 59.9342 291.041 60.0931 290.062C60.252 289.083 60.5062 288.162 60.8431 287.291C61.18 286.42 61.6123 285.612 62.1398 284.875C62.6611 284.138 63.2903 283.502 64.0213 282.968C64.7523 282.434 65.5914 282.014 66.5385 281.716C67.4856 281.41 68.5407 281.258 69.7103 281.258C70.6638 281.258 71.5472 281.372 72.3672 281.614C73.1872 281.849 73.9245 282.173 74.5792 282.586C75.2339 283 75.7997 283.483 76.2828 284.042C76.7658 284.602 77.1409 285.206 77.4142 285.854L73.2127 287.481C72.844 286.769 72.3481 286.235 71.7189 285.873C71.0832 285.511 70.3713 285.333 69.5768 285.333C68.7822 285.333 68.1212 285.485 67.5237 285.797C66.9325 286.108 66.424 286.528 66.0108 287.062C65.5977 287.596 65.2799 288.219 65.0638 288.924C64.8413 289.636 64.7269 290.386 64.7015 291.181C64.9621 290.92 65.2735 290.666 65.6295 290.418C65.9854 290.17 66.3795 289.961 66.8118 289.783C67.244 289.605 67.7143 289.458 68.2229 289.35C68.7314 289.242 69.2589 289.185 69.8119 289.185C70.9052 289.185 71.9287 289.363 72.8758 289.719C73.8229 290.075 74.6428 290.571 75.3357 291.213C76.0285 291.855 76.5751 292.624 76.9756 293.508C77.376 294.398 77.5731 295.37 77.5731 296.438C77.5731 297.57 77.3697 298.612 76.9692 299.579C76.5688 300.545 75.9967 301.384 75.2594 302.09C74.5221 302.795 73.6385 303.348 72.6024 303.749C71.5727 304.149 70.4158 304.353 69.1382 304.353C67.7398 304.353 66.4685 304.105 65.3307 303.609C64.193 303.113 63.2141 302.401 62.4068 301.467C61.5996 300.539 60.9702 299.401 60.5253 298.066C60.0804 296.731 59.8579 295.218 59.8579 293.533V293.031L59.8516 293.05ZM64.9176 296.705C64.9176 297.239 65.0129 297.735 65.1972 298.193C65.3879 298.651 65.6549 299.051 66.0045 299.394C66.3541 299.731 66.7736 300.005 67.263 300.202C67.7525 300.399 68.2992 300.501 68.8903 300.501C69.4814 300.501 70.0599 300.399 70.5557 300.202C71.0451 300.005 71.4646 299.731 71.8015 299.394C72.1384 299.057 72.399 298.657 72.577 298.193C72.755 297.735 72.8439 297.239 72.8439 296.705C72.8439 296.171 72.755 295.695 72.577 295.237C72.399 294.786 72.1384 294.385 71.8015 294.048C71.4646 293.711 71.0451 293.438 70.5557 293.241C70.0662 293.044 69.5069 292.942 68.8903 292.942C68.2737 292.942 67.7525 293.044 67.263 293.241C66.7736 293.438 66.3541 293.711 66.0045 294.048C65.6549 294.385 65.3815 294.786 65.1972 295.237C65.0065 295.695 64.9176 296.178 64.9176 296.705Z" fill="#0B4144"/>
<path d="M90.7532 304.054V298.974H79.5469V294.13L89.5009 281.575H95.298V294.868H98.5714V298.974H95.298V304.054H90.7532ZM90.7532 294.868V286.044L83.7612 294.868H90.7532Z" fill="#0B4144"/>
<path d="M105.649 293.851L111.249 287.265H116.639L110.575 294.13L116.811 304.054H111.605L107.422 297.22L105.649 299.146V304.054H101.32V281.575H105.649V293.851Z" fill="#0B4144"/>
<path d="M297.004 348.319V342.973H285.207V337.874L295.682 324.658H301.784V338.65H305.236V342.973H301.784V348.319H296.998H297.004ZM297.004 338.65V329.362L289.644 338.65H297.004Z" fill="white"/>
<path d="M326.028 336.255C326.028 337.323 325.945 338.366 325.78 339.389C325.614 340.413 325.36 341.386 325.011 342.301C324.661 343.216 324.222 344.068 323.682 344.844C323.142 345.619 322.493 346.287 321.737 346.846C320.981 347.406 320.11 347.844 319.125 348.168C318.139 348.486 317.033 348.645 315.8 348.645C314.79 348.645 313.855 348.524 312.997 348.277C312.139 348.029 311.363 347.692 310.671 347.259C309.978 346.827 309.38 346.319 308.872 345.734C308.363 345.143 307.969 344.507 307.683 343.827L312.107 342.091C312.501 342.841 313.035 343.401 313.696 343.782C314.357 344.164 315.12 344.354 315.965 344.354C316.811 344.354 317.516 344.189 318.146 343.865C318.775 343.541 319.29 343.096 319.703 342.536C320.116 341.977 320.428 341.322 320.637 340.578C320.847 339.834 320.949 339.046 320.936 338.207C320.663 338.48 320.339 338.747 319.964 339.002C319.589 339.256 319.175 339.478 318.718 339.669C318.26 339.86 317.764 340.019 317.23 340.133C316.696 340.248 316.137 340.305 315.559 340.305C314.402 340.305 313.327 340.114 312.336 339.733C311.344 339.351 310.474 338.824 309.743 338.15C309.012 337.476 308.433 336.669 308.02 335.734C307.6 334.8 307.391 333.776 307.391 332.664C307.391 331.475 307.6 330.369 308.026 329.345C308.452 328.322 309.05 327.438 309.825 326.694C310.601 325.951 311.535 325.366 312.622 324.946C313.709 324.527 314.929 324.311 316.271 324.311C317.745 324.311 319.08 324.571 320.281 325.092C321.483 325.614 322.506 326.364 323.358 327.343C324.21 328.322 324.871 329.517 325.335 330.922C325.799 332.327 326.034 333.916 326.034 335.69V336.236L326.028 336.255ZM320.701 332.39C320.701 331.831 320.599 331.303 320.402 330.82C320.205 330.337 319.919 329.911 319.55 329.555C319.182 329.199 318.737 328.919 318.222 328.716C317.707 328.513 317.135 328.411 316.506 328.411C315.876 328.411 315.273 328.513 314.758 328.716C314.243 328.919 313.798 329.199 313.436 329.555C313.073 329.911 312.794 330.331 312.603 330.82C312.412 331.303 312.317 331.825 312.317 332.39C312.317 332.956 312.412 333.458 312.603 333.941C312.794 334.425 313.073 334.844 313.436 335.206C313.798 335.562 314.236 335.842 314.758 336.046C315.273 336.249 315.857 336.351 316.506 336.351C317.154 336.351 317.707 336.249 318.222 336.046C318.737 335.842 319.182 335.562 319.55 335.206C319.919 334.851 320.205 334.425 320.402 333.941C320.599 333.458 320.701 332.937 320.701 332.39Z" fill="white"/>
<path d="M329.027 337.572L330.349 324.648H345.528V328.99H334.373L333.896 333.377C334.163 333.154 334.468 332.957 334.818 332.785C335.167 332.607 335.549 332.461 335.955 332.34C336.362 332.22 336.775 332.124 337.201 332.061C337.627 331.997 338.047 331.959 338.466 331.959C339.655 331.959 340.754 332.15 341.765 332.537C342.776 332.919 343.653 333.466 344.39 334.171C345.128 334.877 345.706 335.722 346.126 336.714C346.545 337.706 346.755 338.799 346.755 340.001C346.755 341.31 346.513 342.493 346.037 343.554C345.553 344.616 344.899 345.525 344.053 346.275C343.214 347.025 342.223 347.61 341.079 348.023C339.941 348.436 338.714 348.64 337.405 348.64C336.349 348.64 335.332 348.5 334.36 348.227C333.387 347.953 332.497 347.553 331.697 347.038C330.896 346.517 330.196 345.881 329.605 345.124C329.014 344.368 328.582 343.503 328.309 342.531L332.86 341.043C333.203 342.067 333.737 342.868 334.462 343.446C335.186 344.025 336.152 344.311 337.347 344.311C338.059 344.311 338.695 344.19 339.248 343.948C339.795 343.707 340.259 343.389 340.627 343.001C340.996 342.607 341.276 342.162 341.466 341.666C341.657 341.164 341.752 340.649 341.752 340.121C341.752 339.594 341.651 339.098 341.454 338.608C341.257 338.119 340.964 337.687 340.589 337.305C340.214 336.924 339.75 336.619 339.203 336.39C338.657 336.161 338.04 336.04 337.347 336.04C336.921 336.04 336.508 336.097 336.127 336.212C335.746 336.326 335.39 336.479 335.072 336.657C334.754 336.835 334.481 337.045 334.245 337.286C334.017 337.521 333.832 337.757 333.699 337.985L329.027 337.56V337.572Z" fill="white"/>
<path d="M354.407 337.572L360.299 330.643H365.975L359.587 337.871L366.153 348.316H360.674L356.269 341.119L354.407 343.147V348.309H349.855V324.648H354.407V337.572Z" fill="white"/>
<path d="M370.424 228.507C369.775 228.507 369.21 228.609 368.726 228.819C368.243 229.029 367.843 229.321 367.525 229.696C367.207 230.071 366.972 230.51 366.813 231.006C366.654 231.502 366.584 232.048 366.584 232.633L361.684 232.188C361.696 230.891 361.925 229.741 362.376 228.73C362.828 227.719 363.444 226.874 364.226 226.187C365.008 225.501 365.93 224.979 366.991 224.617C368.053 224.255 369.209 224.083 370.462 224.083C371.714 224.083 372.966 224.28 374.053 224.668C375.14 225.056 376.062 225.609 376.831 226.308C377.6 227.007 378.197 227.859 378.623 228.838C379.049 229.817 379.259 230.904 379.259 232.08C379.259 233.364 379.005 234.572 378.49 235.685C377.975 236.797 377.301 237.833 376.449 238.787C375.598 239.74 374.632 240.605 373.532 241.393C372.432 242.181 371.301 242.887 370.131 243.516L369.686 243.745H379.551V248.068H362.294V243.777C363.184 243.294 364.093 242.779 365.027 242.226C365.961 241.673 366.858 241.101 367.735 240.503C368.612 239.906 369.438 239.283 370.22 238.628C371.002 237.973 371.682 237.306 372.261 236.606C372.839 235.907 373.297 235.189 373.64 234.445C373.983 233.701 374.148 232.932 374.148 232.144C374.148 231.692 374.072 231.247 373.92 230.809C373.767 230.37 373.538 229.976 373.233 229.639C372.928 229.302 372.547 229.022 372.076 228.813C371.606 228.603 371.059 228.501 370.436 228.501L370.424 228.507Z" fill="white"/>
<path d="M391.913 224.083C392.65 224.083 393.375 224.14 394.093 224.255C394.812 224.369 395.485 224.547 396.121 224.789C396.757 225.03 397.348 225.335 397.894 225.704C398.441 226.073 398.912 226.505 399.306 227.007C399.7 227.509 400.011 228.075 400.227 228.717C400.443 229.359 400.558 230.065 400.558 230.847C400.558 231.266 400.501 231.705 400.393 232.156C400.284 232.608 400.1 233.059 399.84 233.504C399.579 233.949 399.248 234.362 398.835 234.75C398.422 235.138 397.92 235.468 397.322 235.729C398.003 236.002 398.594 236.339 399.09 236.746C399.585 237.153 399.992 237.592 400.31 238.081C400.628 238.571 400.863 239.086 401.009 239.626C401.155 240.166 401.232 240.707 401.232 241.241C401.232 242.487 400.971 243.555 400.45 244.457C399.929 245.36 399.229 246.104 398.365 246.682C397.5 247.261 396.502 247.699 395.377 247.979C394.252 248.259 393.102 248.399 391.913 248.399C390.724 248.399 389.574 248.259 388.455 247.979C387.337 247.699 386.345 247.267 385.474 246.682C384.603 246.097 383.904 245.354 383.377 244.457C382.849 243.561 382.582 242.48 382.582 241.241C382.582 240.7 382.658 240.16 382.811 239.626C382.963 239.092 383.205 238.571 383.529 238.081C383.853 237.592 384.26 237.147 384.749 236.746C385.239 236.346 385.817 236.009 386.491 235.729C385.9 235.462 385.398 235.138 384.991 234.75C384.584 234.362 384.254 233.943 383.993 233.504C383.733 233.065 383.548 232.614 383.434 232.156C383.319 231.699 383.262 231.26 383.262 230.847C383.262 229.715 383.504 228.724 383.987 227.878C384.47 227.033 385.118 226.327 385.925 225.768C386.733 225.208 387.654 224.789 388.69 224.503C389.727 224.217 390.794 224.083 391.907 224.083H391.913ZM391.913 244.362C392.542 244.362 393.114 244.286 393.636 244.133C394.157 243.98 394.608 243.758 394.983 243.472C395.358 243.186 395.651 242.843 395.86 242.448C396.07 242.054 396.172 241.609 396.172 241.113C396.172 240.618 396.07 240.185 395.86 239.785C395.651 239.384 395.358 239.035 394.983 238.742C394.608 238.45 394.163 238.227 393.636 238.068C393.108 237.91 392.536 237.827 391.913 237.827C391.29 237.827 390.712 237.91 390.197 238.068C389.682 238.227 389.231 238.456 388.849 238.742C388.468 239.028 388.176 239.378 387.966 239.785C387.756 240.192 387.654 240.63 387.654 241.113C387.654 241.597 387.756 242.054 387.966 242.448C388.176 242.843 388.468 243.186 388.849 243.472C389.231 243.758 389.676 243.98 390.197 244.133C390.718 244.286 391.284 244.362 391.913 244.362ZM391.913 233.917C392.472 233.917 392.981 233.854 393.439 233.727C393.896 233.599 394.284 233.415 394.608 233.167C394.932 232.919 395.18 232.614 395.358 232.258C395.536 231.902 395.625 231.483 395.625 231.012C395.625 230.542 395.536 230.16 395.352 229.811C395.168 229.461 394.913 229.156 394.583 228.914C394.252 228.673 393.858 228.476 393.401 228.342C392.943 228.209 392.447 228.145 391.907 228.145C391.366 228.145 390.871 228.209 390.413 228.342C389.955 228.476 389.561 228.666 389.231 228.914C388.9 229.162 388.646 229.461 388.462 229.811C388.277 230.16 388.188 230.561 388.188 231.012C388.188 231.464 388.277 231.902 388.455 232.258C388.633 232.614 388.881 232.919 389.205 233.167C389.529 233.415 389.917 233.599 390.375 233.727C390.833 233.854 391.341 233.917 391.9 233.917H391.913Z" fill="white"/>
<path d="M422.465 236.014C422.465 237.082 422.382 238.125 422.217 239.148C422.052 240.172 421.798 241.144 421.448 242.06C421.098 242.975 420.66 243.827 420.119 244.603C419.579 245.378 418.931 246.046 418.174 246.605C417.418 247.164 416.547 247.603 415.562 247.927C414.577 248.251 413.471 248.404 412.238 248.404C411.227 248.404 410.293 248.283 409.434 248.035C408.576 247.787 407.801 247.45 407.108 247.018C406.415 246.586 405.818 246.077 405.309 245.492C404.801 244.908 404.407 244.272 404.121 243.585L408.545 241.85C408.939 242.6 409.473 243.159 410.134 243.541C410.795 243.922 411.557 244.113 412.403 244.113C413.248 244.113 413.954 243.948 414.583 243.624C415.212 243.299 415.727 242.854 416.14 242.295C416.554 241.735 416.865 241.081 417.075 240.337C417.285 239.593 417.386 238.805 417.374 237.966C417.1 238.239 416.776 238.506 416.401 238.76C416.026 239.015 415.613 239.237 415.155 239.428C414.698 239.619 414.202 239.778 413.668 239.892C413.134 240.006 412.574 240.064 411.996 240.064C410.839 240.064 409.765 239.873 408.773 239.491C407.782 239.11 406.911 238.582 406.18 237.909C405.449 237.235 404.871 236.427 404.457 235.493C404.044 234.558 403.828 233.535 403.828 232.422C403.828 231.234 404.038 230.128 404.464 229.104C404.89 228.081 405.487 227.197 406.263 226.453C407.038 225.709 407.972 225.125 409.059 224.705C410.146 224.285 411.367 224.069 412.708 224.069C414.183 224.069 415.518 224.33 416.719 224.851C417.92 225.373 418.944 226.123 419.795 227.102C420.647 228.081 421.308 229.276 421.772 230.681C422.236 232.086 422.471 233.681 422.471 235.448V235.995L422.465 236.014ZM417.132 232.155C417.132 231.596 417.03 231.075 416.833 230.585C416.636 230.096 416.35 229.683 415.981 229.32C415.613 228.958 415.168 228.685 414.653 228.481C414.138 228.278 413.566 228.176 412.937 228.176C412.308 228.176 411.704 228.278 411.189 228.481C410.674 228.685 410.229 228.964 409.867 229.32C409.504 229.676 409.225 230.096 409.034 230.585C408.843 231.075 408.748 231.59 408.748 232.155C408.748 232.721 408.843 233.223 409.034 233.707C409.225 234.19 409.504 234.609 409.867 234.972C410.229 235.334 410.668 235.607 411.189 235.811C411.71 236.014 412.288 236.116 412.937 236.116C413.585 236.116 414.138 236.014 414.653 235.811C415.168 235.607 415.613 235.328 415.981 234.972C416.35 234.616 416.636 234.196 416.833 233.707C417.03 233.217 417.132 232.709 417.132 232.155Z" fill="white"/>
<path d="M430.227 237.336L436.119 230.407H441.796L435.407 237.635L441.974 248.079H436.494L432.089 240.883L430.227 242.911V248.073H425.676V224.412H430.227V237.336Z" fill="white"/>
</g>
</svg>
