<svg width="587" height="283" viewBox="0 0 587 283" fill="none" xmlns="http://www.w3.org/2000/svg">
<path d="M10.4453 282.414L10.4453 33.4141" stroke="#CECECE" stroke-width="1.10545" stroke-miterlimit="10" stroke-dasharray="2.21 2.21"/>
<path d="M154.576 282.414L154.576 33.4141" stroke="#CECECE" stroke-width="1.10545" stroke-miterlimit="10" stroke-dasharray="2.21 2.21"/>
<path d="M442.576 282.414L442.576 33.4141" stroke="#CECECE" stroke-width="1.10545" stroke-miterlimit="10" stroke-dasharray="2.21 2.21"/>
<path d="M298.576 282.414L298.576 33.4141" stroke="#CECECE" stroke-width="1.10545" stroke-miterlimit="10" stroke-dasharray="2.21 2.21"/>
<path d="M11.5391 219.166H586.576" stroke="#CECECE" stroke-width="1.10545" stroke-miterlimit="10"/>
<path d="M11.5391 157.166H586.576" stroke="#CECECE" stroke-width="1.10545" stroke-miterlimit="10"/>
<path d="M11.5391 95.166H586.576" stroke="#CECECE" stroke-width="1.10545" stroke-miterlimit="10"/>
<path d="M11.5391 33.166H586.576" stroke="#CECECE" stroke-width="1.10545" stroke-miterlimit="10"/>
<path d="M10.5762 232.104L101.731 133.296L199.492 119.161L296.302 42.329L392.12 10.5762L586.575 66.8714" stroke="#1D70B8" stroke-width="21.1469" stroke-linecap="round" stroke-linejoin="round"/>
<path d="M586.576 142.207L490.576 92.7646L391.243 64.5118L294.577 64.5117L197.244 24.7009L96.5769 10.5744L10.577 43.9642" stroke="white" stroke-width="21.1469" stroke-linecap="round" stroke-linejoin="round"/>
<path d="M586.576 101.767L489.236 160.347L394.545 154.014L295.354 216.145L199.494 186.846L100.815 252.442L10.577 271.926" stroke="#CA357C" stroke-width="21.1469" stroke-linecap="round" stroke-linejoin="round"/>
</svg>
