<svg width="355" height="355" viewBox="0 0 355 355" fill="none" xmlns="http://www.w3.org/2000/svg">
<path d="M242.564 333.02C155.636 368.937 57.0524 327.861 21.7077 242.079C-13.8281 156.487 26.8661 56.7578 113.795 21.222C199.004 -13.7406 297.97 28.0999 333.314 113.882C368.659 199.283 327.774 298.057 242.564 333.02Z" fill="#00FFE0"/>
<g clip-path="url(#clip0_461_53)">
<path d="M84.0226 8.81531H270.886" stroke="#FF5E5E" stroke-width="1.92355" stroke-miterlimit="10"/>
<path d="M183.759 2.51538H171.16V15.1146H183.759V2.51538Z" fill="white"/>
<path d="M182.797 3.47724V14.1529H172.121V3.47724H182.797ZM184.721 1.5537H170.198V16.0765H184.721V1.5537Z" fill="#FF5E5E"/>
<path d="M84.0236 16.0765C88.0339 16.0765 91.285 12.8254 91.285 8.81509C91.285 4.80473 88.0339 1.5537 84.0236 1.5537C80.0132 1.5537 76.7622 4.80473 76.7622 8.81509C76.7622 12.8254 80.0132 16.0765 84.0236 16.0765Z" fill="white" stroke="#FF5E5E" stroke-width="1.92355" stroke-miterlimit="10"/>
<path d="M270.886 16.0765C274.896 16.0765 278.147 12.8254 278.147 8.81509C278.147 4.80473 274.896 1.5537 270.886 1.5537C266.876 1.5537 263.625 4.80473 263.625 8.81509C263.625 12.8254 266.876 16.0765 270.886 16.0765Z" fill="white" stroke="#FF5E5E" stroke-width="1.92355" stroke-miterlimit="10"/>
</g>
<g clip-path="url(#clip1_461_53)">
<path d="M84.0226 346.03H270.886" stroke="#FF5E5E" stroke-width="1.92355" stroke-miterlimit="10"/>
<path d="M183.759 339.73H171.16V352.329H183.759V339.73Z" fill="white"/>
<path d="M182.797 340.692V351.367H172.121V340.692H182.797ZM184.721 338.768H170.198V353.291H184.721V338.768Z" fill="#FF5E5E"/>
<path d="M84.0236 353.291C88.0339 353.291 91.285 350.04 91.285 346.03C91.285 342.019 88.0339 338.768 84.0236 338.768C80.0132 338.768 76.7622 342.019 76.7622 346.03C76.7622 350.04 80.0132 353.291 84.0236 353.291Z" fill="white" stroke="#FF5E5E" stroke-width="1.92355" stroke-miterlimit="10"/>
<path d="M270.886 353.291C274.896 353.291 278.147 350.04 278.147 346.03C278.147 342.019 274.896 338.768 270.886 338.768C266.876 338.768 263.625 342.019 263.625 346.03C263.625 350.04 266.876 353.291 270.886 353.291Z" fill="white" stroke="#FF5E5E" stroke-width="1.92355" stroke-miterlimit="10"/>
</g>
<g clip-path="url(#clip2_461_53)">
<path d="M346.062 83.9907L346.062 270.854" stroke="#FF5E5E" stroke-width="1.92355" stroke-miterlimit="10"/>
<path d="M352.361 183.727L352.361 171.128L339.762 171.128L339.762 183.727L352.361 183.727Z" fill="white"/>
<path d="M351.399 182.765L340.724 182.765L340.724 172.089L351.399 172.089L351.399 182.765ZM353.323 184.688L353.323 170.166L338.8 170.166L338.8 184.688L353.323 184.688Z" fill="#FF5E5E"/>
<path d="M338.8 83.9913C338.8 88.0017 342.051 91.2527 346.061 91.2527C350.072 91.2527 353.323 88.0017 353.323 83.9913C353.323 79.981 350.072 76.7299 346.061 76.7299C342.051 76.7299 338.8 79.981 338.8 83.9913Z" fill="white" stroke="#FF5E5E" stroke-width="1.92355" stroke-miterlimit="10"/>
<path d="M338.8 270.854C338.8 274.864 342.051 278.115 346.061 278.115C350.072 278.115 353.323 274.864 353.323 270.854C353.323 266.844 350.072 263.593 346.061 263.593C342.051 263.593 338.8 266.844 338.8 270.854Z" fill="white" stroke="#FF5E5E" stroke-width="1.92355" stroke-miterlimit="10"/>
</g>
<g clip-path="url(#clip3_461_53)">
<path d="M8.84818 83.9907L8.84817 270.854" stroke="#FF5E5E" stroke-width="1.92355" stroke-miterlimit="10"/>
<path d="M15.1474 183.727L15.1474 171.128L2.54819 171.128L2.54819 183.727L15.1474 183.727Z" fill="white"/>
<path d="M14.1859 182.765L3.51017 182.765L3.51017 172.089L14.1859 172.089L14.1859 182.765ZM16.1094 184.688L16.1094 170.166L1.58662 170.166L1.58662 184.688L16.1094 184.688Z" fill="#FF5E5E"/>
<path d="M1.58662 83.9913C1.58662 88.0017 4.83765 91.2527 8.84801 91.2527C12.8584 91.2527 16.1094 88.0017 16.1094 83.9913C16.1094 79.981 12.8584 76.7299 8.84801 76.7299C4.83766 76.7299 1.58662 79.981 1.58662 83.9913Z" fill="white" stroke="#FF5E5E" stroke-width="1.92355" stroke-miterlimit="10"/>
<path d="M1.58662 270.854C1.58662 274.864 4.83765 278.115 8.84801 278.115C12.8584 278.115 16.1094 274.864 16.1094 270.854C16.1094 266.844 12.8584 263.593 8.84801 263.593C4.83766 263.593 1.58662 266.844 1.58662 270.854Z" fill="white" stroke="#FF5E5E" stroke-width="1.92355" stroke-miterlimit="10"/>
</g>
<defs>
<clipPath id="clip0_461_53">
<rect width="203.309" height="16.4463" fill="white" transform="translate(75.7998 0.591995)"/>
</clipPath>
<clipPath id="clip1_461_53">
<rect width="203.309" height="16.4463" fill="white" transform="translate(75.7998 337.806)"/>
</clipPath>
<clipPath id="clip2_461_53">
<rect width="203.309" height="16.4463" fill="white" transform="translate(354.285 75.768) rotate(90)"/>
</clipPath>
<clipPath id="clip3_461_53">
<rect width="203.309" height="16.4463" fill="white" transform="translate(17.0713 75.768) rotate(90)"/>
</clipPath>
</defs>
</svg>
