<svg width="734" height="223" viewBox="0 0 734 223" fill="none" xmlns="http://www.w3.org/2000/svg">
<path d="M697.26 147.352C716.984 147.352 732.973 131.363 732.973 111.639C732.973 91.9151 716.984 75.9258 697.26 75.9258C677.536 75.9258 661.547 91.9151 661.547 111.639C661.547 131.363 677.536 147.352 697.26 147.352Z" fill="#00FFE0"/>
<path d="M47.6681 111.941C47.6681 121.012 48.8025 129.741 51.0713 138.122C53.3364 146.503 56.7865 153.899 61.4251 160.307C66.0602 166.72 71.9742 171.872 79.1742 175.766C86.3743 179.661 94.9544 181.611 104.915 181.611C114.875 181.611 122.443 180.083 128.805 177.027C135.163 173.971 140.243 170.148 144.04 165.56C147.833 160.976 150.496 156.023 152.027 150.698C153.556 145.373 154.318 140.441 154.318 135.904V133.834H100.034V101.146H196.03V220.345H158.462V192.554C155.799 196.698 152.493 200.47 148.552 203.873C144.607 207.272 140.171 210.184 135.236 212.597C130.304 215.014 124.904 216.914 119.04 218.294C113.173 219.675 106.934 220.365 100.33 220.365C84.8461 220.365 71.0927 217.554 59.0625 211.933C47.0323 206.311 36.8987 198.573 28.6654 188.71C20.4321 178.851 14.1714 167.312 9.87951 154.097C5.59126 140.886 3.44531 126.637 3.44531 111.348C3.44531 96.0596 5.8369 81.9413 10.6201 68.6791C15.4033 55.417 22.2059 43.8781 31.0353 34.0661C39.8611 24.254 50.5077 16.5157 62.9822 10.8438C75.4568 5.17188 89.4342 2.33594 104.918 2.33594C114.976 2.33594 124.517 3.4956 133.538 5.81133C142.562 8.13067 150.796 11.4327 158.241 15.7209C165.683 20.0091 172.266 25.1897 177.988 31.2518C183.703 37.3139 188.342 44.0479 191.893 51.4431L154.322 72.5917C152.053 68.0577 149.39 63.8418 146.334 59.9437C143.274 56.0528 139.752 52.6966 135.76 49.886C131.764 47.0753 127.205 44.8571 122.078 43.2314C116.948 41.6057 111.23 40.7893 104.922 40.7893C94.9616 40.7893 86.3815 42.7401 79.1815 46.6346C71.9814 50.529 66.0674 55.6807 61.4324 62.0932C56.7973 68.5021 53.3472 75.9225 51.0785 84.3545C48.8097 92.7865 47.6753 101.493 47.6753 110.46V111.941H47.6681Z" fill="white"/>
<path d="M332.646 2.33203C348.423 2.33203 362.573 5.16798 375.099 10.8399C387.62 16.5118 398.249 24.2501 406.977 34.0622C415.701 43.8742 422.36 55.4131 426.944 68.6752C431.529 81.9374 433.819 96.1641 433.819 111.345C433.819 126.525 431.529 140.882 426.944 154.093C422.36 167.309 415.701 178.847 406.977 188.706C398.252 198.565 387.624 206.307 375.099 211.929C362.577 217.55 348.423 220.361 332.646 220.361C316.869 220.361 302.592 217.55 290.121 211.929C277.647 206.307 267.047 198.569 258.322 188.706C249.594 178.847 242.94 167.309 238.355 154.093C233.771 140.882 231.477 126.633 231.477 111.345C231.477 96.0557 233.771 81.9374 238.355 68.6752C242.94 55.4131 249.594 43.8742 258.322 34.0622C267.047 24.2501 277.647 16.5118 290.121 10.8399C302.596 5.16798 316.768 2.33203 332.646 2.33203ZM332.646 181.607C341.916 181.607 350.077 179.859 357.125 176.355C364.174 172.858 370.12 167.999 374.947 161.788C379.78 155.575 383.429 148.23 385.893 139.747C388.357 131.268 389.593 121.998 389.593 111.941V110.756C389.593 100.796 388.357 91.5507 385.893 83.0211C383.429 74.4916 379.78 67.1182 374.947 60.908C370.117 54.6978 364.174 49.8423 357.125 46.338C350.077 42.841 341.916 41.0888 332.646 41.0888C323.376 41.0888 315.193 42.841 308.091 46.338C300.992 49.8423 295.052 54.6978 290.269 60.908C285.486 67.1182 281.863 74.4952 279.399 83.0211C276.935 91.5507 275.699 100.796 275.699 110.756V111.941C275.699 121.998 276.935 131.268 279.399 139.747C281.863 148.23 285.486 155.571 290.269 161.788C295.052 167.999 300.992 172.858 308.091 176.355C315.193 179.859 323.376 181.607 332.646 181.607Z" fill="white"/>
<path d="M508.625 220.361L447.047 2.33203H496.463L538.582 166.233H540.101L581.306 2.33203H630.109L568.532 220.361H508.628H508.625Z" fill="white"/>
<path d="M2.32422 74.877H732.973" stroke="#CFE7DE" stroke-width="2"/>
<path d="M2.32422 148.342H732.973" stroke="#CFE7DE" stroke-width="2"/>
<path d="M2.32422 221.365H732.973" stroke="#CFE7DE" stroke-width="2"/>
<path d="M2.32422 111.822H732.973" stroke="#CFE7DE" stroke-width="2"/>
<rect opacity="0.2" x="432.348" y="1.41992" width="15.7189" height="218.941" fill="#CFE7DE"/>
<rect opacity="0.2" x="195.441" y="2.91406" width="35.4246" height="217.451" fill="#CFE7DE"/>
<rect opacity="0.2" x="630.109" y="1.41992" width="31.4379" height="218.941" fill="#CFE7DE"/>
<path d="M732.973 1.1582L732.973 221.365" stroke="#CFE7DE" stroke-width="2"/>
<path d="M697.262 1.1582L697.262 221.365" stroke="#CFE7DE" stroke-width="2"/>
<path d="M1.44531 0.25L1.44532 222.379" stroke="#CFE7DE" stroke-width="2"/>
<path d="M2.32422 1.1582H732.973" stroke="#CFE7DE" stroke-width="2"/>
</svg>
