<svg width="774" height="480" viewBox="0 0 774 480" fill="none" xmlns="http://www.w3.org/2000/svg">
<path d="M584.533 329.902C573.328 331.659 564.321 335.614 557.51 341.765C550.7 347.697 547.294 355.826 547.294 366.151C547.294 377.575 551.468 387.462 559.817 395.81C568.165 403.939 580.468 408.003 596.726 408.003C613.862 408.003 627.373 403.06 637.26 393.174C647.146 383.288 652.089 370.216 652.089 353.958V318.367L584.533 329.902ZM666.918 439.969C663.184 444.143 658.57 448.647 653.078 453.48C647.805 458.094 641.434 462.378 633.964 466.332C626.714 470.067 618.146 473.253 608.26 475.889C598.373 478.526 587.279 479.844 574.976 479.844C557.4 479.844 541.143 477.097 526.204 471.605C511.484 465.893 498.522 457.984 487.317 447.878C476.113 437.772 467.325 426.128 460.954 412.946C454.583 399.545 451.397 385.045 451.397 369.447C451.397 341.106 460.185 317.928 477.761 299.913C495.336 281.898 519.613 270.584 550.59 265.97L652.089 251.141V244.55C652.089 228.732 647.256 216.209 637.589 206.982C627.923 197.755 612.214 193.141 590.464 193.141C581.457 193.141 572.34 194.24 563.112 196.437C553.885 198.414 544.987 200.721 536.419 203.357C528.071 205.993 520.272 209.069 513.022 212.584C505.772 215.88 499.401 218.845 493.908 221.482L458.318 151.948C478.53 140.744 500.939 131.516 525.544 124.267C550.37 117.017 576.074 113.392 602.658 113.392C618.915 113.392 635.282 115.149 651.759 118.664C668.456 121.96 683.505 128.111 696.907 137.119C710.528 146.126 721.623 158.429 730.191 174.028C738.759 189.406 743.043 209.069 743.043 233.016V378.015C743.043 388.341 745.679 396.03 750.952 401.083C756.444 405.916 763.914 410.42 773.361 414.594L732.168 479.844C715.471 478.086 702.07 473.802 691.964 466.992C681.858 459.961 673.509 450.954 666.918 439.969Z" fill="#E59ABE"/>
<path d="M303.879 385.594H128.892L102.199 473.253H0.699219L155.255 0.687851H280.811L437.674 473.253H330.902L303.879 385.594ZM154.596 301.231H278.175L216.88 101.528H215.561L154.596 301.231Z" fill="#E59ABE"/>
</svg>
