<svg width="200" height="216" viewBox="0 0 200 216" fill="none" xmlns="http://www.w3.org/2000/svg">
<path d="M196.107 0.5C197.488 0.5 198.607 1.61929 198.607 3V212.221C198.607 213.601 197.488 214.721 196.107 214.721H0.5V0.5H196.107Z" fill="#98285D" stroke="#FF52EE"/>
<rect x="39.334" y="47.5688" width="120.083" height="120.083" rx="60.0415" fill="#651B3E"/>
<path d="M105.918 76.6095C106.827 75.5995 108.301 75.5996 109.21 76.6095L138.027 108.622L109.255 140.588C108.346 141.597 106.872 141.598 105.964 140.588C105.055 139.578 105.055 137.941 105.964 136.931L131.439 108.622L105.918 80.2669C105.009 79.2569 105.009 77.6196 105.918 76.6095Z" fill="white" stroke="white" stroke-linecap="round"/>
<path d="M63.3469 111.184C61.9179 111.183 60.7592 110.025 60.7592 108.597C60.7592 107.169 61.9179 106.011 63.3469 106.011L132.811 106.011C134.24 106.011 135.398 107.169 135.398 108.597C135.398 110.026 134.24 111.184 132.811 111.184L63.3469 111.184Z" fill="white" stroke="white" stroke-linecap="round"/>
<rect x="37.2314" y="46.7617" width="122.719" height="122.719" stroke="#FF52EE"/>
<path d="M38.4785 142.958L160.301 142.958" stroke="#FF52EE" stroke-dasharray="1 1"/>
<path d="M38.4785 73.1323L160.301 73.1323" stroke="#FF52EE" stroke-dasharray="1 1"/>
<path d="M60.4688 46.3145L60.4688 169.239" stroke="#FF52EE" stroke-dasharray="1 1"/>
<path d="M138.847 46.3145L138.847 169.239" stroke="#FF52EE" stroke-dasharray="1 1"/>
</svg>
