<svg width="200" height="216" viewBox="0 0 200 216" fill="none" xmlns="http://www.w3.org/2000/svg">
<path d="M0 0H196.107C197.764 0 199.107 1.34315 199.107 3V212.22C199.107 213.877 197.764 215.22 196.107 215.22H0V0Z" fill="#1D70B8"/>
<rect x="40.2969" y="52.917" width="120.083" height="120.083" rx="60.0415" fill="#00FFE0"/>
<path d="M106.882 81.9587C107.791 80.9487 109.265 80.9487 110.174 81.9587L138.991 113.971L110.219 145.937C109.31 146.946 107.836 146.947 106.927 145.937C106.019 144.928 106.019 143.29 106.927 142.28L132.402 113.971L106.882 85.616C105.973 84.606 105.973 82.9688 106.882 81.9587Z" fill="#1D70B8" stroke="#1D70B8" stroke-linecap="round"/>
<path d="M64.3108 116.532C62.8818 116.532 61.7231 115.374 61.7231 113.946C61.7231 112.517 62.8818 111.36 64.3108 111.359L133.775 111.359C135.204 111.359 136.362 112.517 136.362 113.946C136.362 115.374 135.204 116.532 133.775 116.532L64.3108 116.532Z" fill="#1D70B8" stroke="#1D70B8" stroke-linecap="round"/>
<rect x="38.1943" y="52.1104" width="122.719" height="122.719" stroke="#0F385C"/>
<path d="M39.4414 148.307L161.264 148.307" stroke="#0F385C" stroke-dasharray="1 1"/>
<path d="M39.4414 77.9243L161.264 77.9243" stroke="#0F385C" stroke-dasharray="1 1"/>
<path d="M61.4316 51.6631L61.4316 174.588" stroke="#0F385C" stroke-dasharray="1 1"/>
<path d="M139.81 51.6631L139.81 174.588" stroke="#0F385C" stroke-dasharray="1 1"/>
</svg>
