<svg width="200" height="216" viewBox="0 0 200 216" fill="none" xmlns="http://www.w3.org/2000/svg">
<path d="M0 0H196.107C197.764 0 199.107 1.34315 199.107 3V212.22C199.107 213.877 197.764 215.22 196.107 215.22H0V0Z" fill="#54319F"/>
<circle cx="122.118" cy="121.695" r="44.6268" fill="#BA4AFF" stroke="#54319F"/>
<circle cx="76.9901" cy="121.696" r="44.6268" stroke="white"/>
<mask id="path-4-inside-1_1623_15051" fill="white">
<path d="M99.5547 82.6089C113.043 90.4116 122.118 104.994 122.118 121.697C122.118 138.4 113.043 152.981 99.5547 160.784C86.0667 152.981 76.9912 138.399 76.9912 121.696C76.9913 104.993 86.0669 90.4116 99.5547 82.6089Z"/>
</mask>
<path d="M99.5547 82.6089C113.043 90.4116 122.118 104.994 122.118 121.697C122.118 138.4 113.043 152.981 99.5547 160.784C86.0667 152.981 76.9912 138.399 76.9912 121.696C76.9913 104.993 86.0669 90.4116 99.5547 82.6089Z" fill="#BA4AFF"/>
<path d="M99.5547 82.6089L100.055 81.7433L99.5547 81.4536L99.0539 81.7433L99.5547 82.6089ZM122.118 121.697L123.118 121.697V121.697H122.118ZM99.5547 160.784L99.0539 161.649L99.5547 161.939L100.055 161.649L99.5547 160.784ZM76.9912 121.696L75.9912 121.696V121.696H76.9912ZM99.5547 82.6089L99.0539 83.4745C112.246 91.1059 121.118 105.365 121.118 121.697H122.118H123.118C123.118 104.622 113.84 89.7174 100.055 81.7433L99.5547 82.6089ZM122.118 121.697L121.118 121.697C121.118 138.028 112.246 152.287 99.0539 159.918L99.5547 160.784L100.055 161.649C113.84 153.675 123.118 138.771 123.118 121.697L122.118 121.697ZM99.5547 160.784L100.055 159.918C86.8637 152.287 77.9912 138.027 77.9912 121.696H76.9912H75.9912C75.9912 138.77 85.2698 153.675 99.0539 161.649L99.5547 160.784ZM76.9912 121.696L77.9912 121.696C77.9913 105.365 86.8638 91.1059 100.055 83.4745L99.5547 82.6089L99.0539 81.7433C85.2699 89.7174 75.9914 104.622 75.9912 121.696L76.9912 121.696Z" fill="#54319F" mask="url(#path-4-inside-1_1623_15051)"/>
<path d="M173.313 50.9827L169.722 47.3919C167.394 45.0642 163.527 45.1102 161.096 47.5418L141.571 67.0659L153.639 79.1337L173.163 59.6095C175.595 57.178 175.641 53.3106 173.313 50.9827Z" stroke="white"/>
<path fill-rule="evenodd" clip-rule="evenodd" d="M153.63 78.8857L138.301 93.9737L130.637 101.518L122.972 109.062C122.576 109.451 122.073 109.721 121.521 109.835L121.519 109.836L115.684 111.024C114.418 111.283 113.245 111.888 112.302 112.783L109.691 115.215L107.08 117.647L107.073 117.653C106.639 118.065 105.956 118.057 105.532 117.633L103.079 115.18C102.656 114.757 102.648 114.072 103.059 113.639L103.065 113.632L105.497 111.021L107.929 108.41C108.824 107.467 109.429 106.294 109.688 105.028L110.877 99.189C110.989 98.6436 111.256 98.14 111.65 97.7401L141.826 67.0821L147.728 72.9839L153.63 78.8857Z" stroke="white" stroke-miterlimit="10"/>
<path d="M167.008 73.8133L146.873 53.678C145.884 52.6888 144.5 52.6607 143.773 53.3873L137.433 59.7278C136.706 60.4545 136.734 61.8383 137.723 62.8276L157.858 82.9629C158.848 83.9522 160.232 83.981 160.959 83.2543L167.299 76.9138C168.026 76.1871 167.997 74.8026 167.008 73.8133Z" fill="#54319F" stroke="white"/>
</svg>
