<svg width="75" height="50" fill="none" xmlns="http://www.w3.org/2000/svg">
  <circle cx="49.82" cy="24.77" r="24" fill="#1D70B8" stroke="#F2F7FA"/>
  <circle cx="25.31" cy="24.77" r="24" stroke="#1D70B8"/>
  <mask id="a" fill="#fff">
    <path d="M37.57 3.54a24.5 24.5 0 0 1 0 42.45 24.5 24.5 0 0 1 0-42.45Z"/>
  </mask>
  <path d="M37.57 3.54a24.5 24.5 0 0 1 0 42.45 24.5 24.5 0 0 1 0-42.45Z" fill="#1D70B8"/>
  <path d="m37.57 3.54.5-.86-.5-.3-.5.3.5.86Zm12.25 21.23h1-1ZM37.57 45.99l-.5.87.5.29.5-.3-.5-.86ZM25.32 24.77h-1 1ZM37.57 3.54l-.5.87a23.5 23.5 0 0 1 11.75 20.36h2a25.5 25.5 0 0 0-12.75-22.1l-.5.87Zm12.25 21.23h-1c0 8.7-4.73 16.29-11.75 20.36l.5.86.5.87a25.5 25.5 0 0 0 12.75-22.1h-1ZM37.57 45.99l.5-.86a23.5 23.5 0 0 1-11.75-20.36h-2a25.5 25.5 0 0 0 12.75 22.09l.5-.87ZM25.32 24.77h1c0-8.7 4.72-16.3 11.75-20.36l-.5-.87-.5-.86a25.5 25.5 0 0 0-12.75 22.09h1Z" fill="#F2F7FA" mask="url(#a)"/>
</svg>