<svg width="154" height="131" viewBox="0 0 154 131" fill="none" xmlns="http://www.w3.org/2000/svg">
<circle cx="91.243" cy="85.7025" r="44.6268" fill="#BA4AFF" stroke="#54319F"/>
<circle cx="46.1151" cy="85.703" r="44.6268" stroke="white"/>
<mask id="path-3-inside-1_1187_17576" fill="white">
<path d="M68.6797 46.6162C82.1678 54.419 91.2432 69.0011 91.2432 85.7041C91.2431 102.407 82.1676 116.988 68.6797 124.791C55.1917 116.988 46.1162 102.406 46.1162 85.7031C46.1163 69.0004 55.1919 54.4189 68.6797 46.6162Z"/>
</mask>
<path d="M68.6797 46.6162C82.1678 54.419 91.2432 69.0011 91.2432 85.7041C91.2431 102.407 82.1676 116.988 68.6797 124.791C55.1917 116.988 46.1162 102.406 46.1162 85.7031C46.1163 69.0004 55.1919 54.4189 68.6797 46.6162Z" fill="#BA4AFF"/>
<path d="M68.6797 46.6162L69.1804 45.7506L68.6797 45.4609L68.1789 45.7506L68.6797 46.6162ZM91.2432 85.7041L92.2432 85.7041V85.7041H91.2432ZM68.6797 124.791L68.1789 125.657L68.6797 125.946L69.1804 125.657L68.6797 124.791ZM46.1162 85.7031L45.1162 85.7031V85.7031H46.1162ZM68.6797 46.6162L68.1789 47.4818C81.3708 55.1132 90.2432 69.3725 90.2432 85.7041H91.2432H92.2432C92.2432 68.6296 82.9647 53.7247 69.1804 45.7506L68.6797 46.6162ZM91.2432 85.7041L90.2432 85.7041C90.2431 102.035 81.3706 116.294 68.1789 123.925L68.6797 124.791L69.1804 125.657C82.9645 117.683 92.2431 102.778 92.2432 85.7041L91.2432 85.7041ZM68.6797 124.791L69.1804 123.925C55.9887 116.294 47.1162 102.035 47.1162 85.7031H46.1162H45.1162C45.1162 102.778 54.3948 117.682 68.1789 125.657L68.6797 124.791ZM46.1162 85.7031L47.1162 85.7031C47.1163 69.3719 55.9888 55.1132 69.1804 47.4818L68.6797 46.6162L68.1789 45.7506C54.3949 53.7247 45.1164 68.6289 45.1162 85.7031L46.1162 85.7031Z" fill="#54319F" mask="url(#path-3-inside-1_1187_17576)"/>
<path d="M142.438 14.99L138.847 11.3992C136.519 9.07157 132.652 9.11754 130.221 11.5491L110.696 31.0732L122.764 43.141L142.288 23.6169C144.72 21.1854 144.766 17.3179 142.438 14.99Z" stroke="white"/>
<path fill-rule="evenodd" clip-rule="evenodd" d="M122.755 42.8931L107.426 57.981L99.7616 65.525L92.0972 73.069C91.7014 73.4588 91.1977 73.7281 90.646 73.8426L90.6438 73.8431L84.8087 75.0309C83.5429 75.2899 82.3697 75.8956 81.427 76.7907L78.816 79.2223L76.2049 81.654L76.1979 81.6606C75.7637 82.0728 75.0809 82.0642 74.6569 81.6402L72.2042 79.1875C71.7813 78.7646 71.773 78.0792 72.1838 77.6464L72.1904 77.6394L74.622 75.0284L77.0535 72.4174C77.9487 71.4747 78.5544 70.3015 78.8134 69.0356L80.0021 63.1963C80.1137 62.6509 80.3812 62.1474 80.7751 61.7474L110.951 31.0894L116.853 36.9913L122.755 42.8931Z" stroke="white" stroke-miterlimit="10"/>
<path d="M136.133 37.8207L115.998 17.6854C115.009 16.6962 113.625 16.668 112.898 17.3947L106.558 23.7351C105.831 24.4618 105.859 25.8457 106.848 26.8349L126.983 46.9702C127.973 47.9595 129.357 47.9883 130.084 47.2616L136.424 40.9211C137.151 40.1944 137.122 38.8099 136.133 37.8207Z" fill="#54319F" stroke="white"/>
</svg>
