<svg width="200" height="216" viewBox="0 0 200 216" fill="none" xmlns="http://www.w3.org/2000/svg">
<path d="M0 0H196.107C197.764 0 199.107 1.34315 199.107 3V212.22C199.107 213.877 197.764 215.22 196.107 215.22H0V0Z" fill="#0F385C"/>
<path d="M45.7842 99.5099C45.7842 98.3303 46.7404 97.374 47.92 97.374H64.6344C65.814 97.374 66.7703 98.3303 66.7703 99.5099V168.415H45.7842V99.5099Z" fill="#1D70B8"/>
<path d="M74.6416 64.8312C74.6416 63.6516 75.5979 62.6953 76.7774 62.6953H93.4918C94.6714 62.6953 95.6277 63.6516 95.6277 64.8312V168.214H74.6416V64.8312Z" fill="#11E0F1"/>
<path d="M103.49 125.118C103.49 123.939 104.446 122.982 105.626 122.982H122.34C123.52 122.982 124.476 123.939 124.476 125.118V168.415H103.49V125.118Z" fill="#1D70B8"/>
<path d="M132.339 85.3727C132.339 84.1931 133.295 83.2368 134.475 83.2368H151.189C152.369 83.2368 153.325 84.1931 153.325 85.3727V168.415H132.339V85.3727Z" fill="#1D70B8"/>
<path d="M33.6123 51.7427H165.497V178.4H33.6123V51.7427Z" stroke="white"/>
<path d="M33.7217 111.693H57.1268L84.8692 77.9771L113.943 137.953L143.017 98.0909H165.028" stroke="white"/>
</svg>
