<svg width="200" height="216" viewBox="0 0 200 216" fill="none" xmlns="http://www.w3.org/2000/svg">
<path d="M0 0H196.107C197.764 0 199.107 1.34315 199.107 3V212.22C199.107 213.877 197.764 215.22 196.107 215.22H0V0Z" fill="#158187"/>
<path d="M19.8633 44.9033L179.246 44.9033" stroke="white" stroke-dasharray="1 1"/>
<path d="M17.249 168.864L181.857 168.864" stroke="white" stroke-dasharray="1 1"/>
<path d="M160.954 189.915L160.954 25.3062" stroke="white"/>
<path d="M19.8633 44.9033L179.246 44.9033" stroke="white" stroke-dasharray="1 1"/>
<path d="M19.8633 75.8936L179.246 75.8936" stroke="white" stroke-dasharray="1 1"/>
<path d="M19.8633 106.884L179.246 106.884" stroke="white" stroke-dasharray="1 1"/>
<path d="M19.8633 137.874L179.246 137.874" stroke="white" stroke-dasharray="1 1"/>
<path d="M17.249 168.864L181.857 168.864" stroke="white" stroke-dasharray="1 1"/>
<path d="M38.1514 189.915L38.1514 25.3062" stroke="white"/>
<path d="M45.1094 111.148C45.1094 109.492 46.4525 108.148 48.1094 108.148H72.5992C73.7038 108.148 74.5992 109.044 74.5992 110.148V163.136H45.1094V111.148Z" fill="#0B4144"/>
<path d="M84.6973 82.4658C84.6973 80.809 86.0404 79.4658 87.6973 79.4658H112.259C113.363 79.4658 114.259 80.3613 114.259 81.4658V163.136H84.6973V82.4658Z" fill="#0B4144"/>
<path d="M124.437 55.0835C124.437 53.4266 125.78 52.0835 127.437 52.0835H151.998C153.102 52.0835 153.998 52.9789 153.998 54.0835V163.137H124.437V55.0835Z" fill="#0B4144"/>
<path d="M45.1094 139.08H74.5988V163.136H45.1094L45.1094 139.08Z" fill="#00FFE0"/>
<path d="M124.432 111.586H153.921V163.137H124.432V111.586Z" fill="#00FFE0"/>
<path d="M84.7715 128.769H114.261V163.136H84.7715V128.769Z" fill="#00FFE0"/>
</svg>
