<svg width="62" height="61" fill="none" xmlns="http://www.w3.org/2000/svg">
  <path
    d="M20.58 5.05C34.51-.66 50.7 6.17 56.48 20.2a27.48 27.48 0 0 1-14.83 35.84A27.59 27.59 0 0 1 5.52 41.18 27.66 27.66 0 0 1 20.58 5.04Z"
    fill="#1D70B8"
    stroke="#fff"
    stroke-width="2"
  />
  <path
    d="M2.42 14.76v31.68M1.18 14.76a1.23 1.23 0 1 0 2.47 0 1.23 1.23 0 0 0-2.47 0ZM1.18 46.43a1.23 1.23 0 1 0 2.47 0 1.23 1.23 0 0 0-2.47 0Z"
    stroke="#1D70B8"
    stroke-miterlimit="10"
  />
  <path stroke="#1D70B8" d="M1.17 29.36h2.48v2.48H1.17z" />
  <path
    d="M59.58 14.76v31.68M58.35 14.76a1.23 1.23 0 1 0 2.46 0 1.23 1.23 0 0 0-2.46 0ZM58.35 46.43a1.23 1.23 0 1 0 2.46 0 1.23 1.23 0 0 0-2.46 0Z"
    stroke="#1D70B8"
    stroke-miterlimit="10"
  />
  <path stroke="#1D70B8" d="M58.33 29.36h2.48v2.48h-2.48z" />
  <path
    d="M46.83 59.19H15.16M46.83 57.95a1.23 1.23 0 1 0 0 2.47 1.23 1.23 0 0 0 0-2.47ZM15.16 57.95a1.23 1.23 0 1 0 0 2.47 1.23 1.23 0 0 0 0-2.47Z"
    stroke="#1D70B8"
    stroke-miterlimit="10"
  />
  <path stroke="#1D70B8" d="M32.23 57.93v2.48h-2.48v-2.48z" />
  <path
    d="M46.83 2.04H15.16M46.83.8a1.23 1.23 0 1 0 0 2.47 1.23 1.23 0 0 0 0-2.46ZM15.16.8a1.23 1.23 0 1 0 0 2.47 1.23 1.23 0 0 0 0-2.46Z"
    stroke="#1D70B8"
    stroke-miterlimit="10"
  />
  <path stroke="#1D70B8" d="M32.23.79v2.48h-2.48V.79z" />
</svg>
