<svg fill="none" height="216" viewBox="0 0 200 216" width="200" xmlns="http://www.w3.org/2000/svg"><path d="m0 0h196.107c1.657 0 3 1.34315 3 3v209.22c0 1.657-1.343 3-3 3h-196.107z" fill="#106165"/><g stroke="#00ffe0"><path d="m41.6232 78.4194c0 1.334 1.0814 2.4154 2.4154 2.4154 1.3341 0 2.4155-1.0814 2.4155-2.4154 0-1.3341-1.0814-2.4155-2.4155-2.4155-1.334 0-2.4154 1.0814-2.4154 2.4155z" stroke-miterlimit="10"/><path d="m80.2471 60.7173c26.5979-10.9134 57.5109 2.147 68.5519 28.9424l.001.0009c11.037 26.6684-1.734 57.5124-28.334 68.4264l-.003.001c-27.1559 11.221-57.9402-1.612-68.9757-28.395l-.001-.003c-11.0969-26.729 1.6137-57.8756 28.7598-68.9727z" fill="#50a1a5" stroke-width="2"/><path d="m153.806 78.4194c0 1.334 1.081 2.4154 2.415 2.4154s2.416-1.0814 2.416-2.4154c0-1.3341-1.082-2.4155-2.416-2.4155s-2.415 1.0814-2.415 2.4155z" stroke-miterlimit="10"/><path d="m131.206 53.4458h-62.1589" stroke-miterlimit="10"/><path d="m131.206 51.0294c-1.334 0-2.416 1.0815-2.416 2.4155s1.082 2.4155 2.416 2.4155 2.415-1.0815 2.415-2.4155-1.081-2.4155-2.415-2.4155z" stroke-miterlimit="10"/><path d="m69.0484 51.0294c-1.334 0-2.4155 1.0815-2.4155 2.4155s1.0815 2.4155 2.4155 2.4155 2.4155-1.0815 2.4155-2.4155-1.0815-2.4155-2.4155-2.4155z" stroke-miterlimit="10"/><path d="m102.56 50.9966h4.86473v4.86473h-4.86473z" transform="matrix(0 1 -1 0 153.5566 -51.5634)"/><path d="m131.206 165.602h-62.1589" stroke-miterlimit="10"/><path d="m131.206 163.186c-1.334 0-2.416 1.081-2.416 2.415s1.082 2.416 2.416 2.416 2.415-1.082 2.415-2.416-1.081-2.415-2.415-2.415z" stroke-miterlimit="10"/><path d="m69.0484 163.186c-1.334 0-2.4155 1.081-2.4155 2.415s1.0815 2.416 2.4155 2.416 2.4155-1.082 2.4155-2.416-1.0815-2.415-2.4155-2.415z" stroke-miterlimit="10"/><path d="m102.56 163.151h4.86473v4.86473h-4.86473z" transform="matrix(0 1 -1 0 265.711 60.591)"/><path d="m153.771 107.067h4.86473v4.86473h-4.86473z"/><path d="m44.04 78.4194v62.1586" stroke-miterlimit="10"/><path d="m41.6232 140.579c0 1.334 1.0814 2.415 2.4154 2.415 1.3341 0 2.4155-1.081 2.4155-2.415s-1.0814-2.416-2.4155-2.416c-1.334 0-2.4154 1.082-2.4154 2.416z" stroke-miterlimit="10"/><path d="m153.806 140.579c0 1.334 1.081 2.415 2.415 2.415s2.416-1.081 2.416-2.415-1.082-2.416-2.416-2.416-2.415 1.082-2.415 2.416z" stroke-miterlimit="10"/><path d="m156.222 78.4194v62.1586" stroke-miterlimit="10"/><path d="m41.5918 107.067h4.86473v4.86473h-4.86473z"/></g></svg>