<svg width="62" height="61" viewBox="0 0 62 61" fill="none" xmlns="http://www.w3.org/2000/svg">
<path d="M20.583 5.04883C34.5077 -0.66467 50.7026 6.17285 56.4863 20.21L56.4873 20.2119C62.2674 34.1788 55.5764 50.3324 41.6494 56.0469L41.6475 56.0479C27.4204 61.9263 11.2982 55.2017 5.51953 41.1768L5.51855 41.1738C-0.293124 27.1752 6.3647 10.8607 20.582 5.04883H20.583Z" fill="#1D70B8" stroke="white" stroke-width="2"/>
<path d="M2.41602 14.7629L2.41601 46.4354" stroke="#1D70B8" stroke-miterlimit="10"/>
<path d="M1.18494 14.7628C1.18494 15.4425 1.73598 15.9935 2.41571 15.9935C3.09545 15.9935 3.64648 15.4425 3.64648 14.7628C3.64648 14.083 3.09545 13.532 2.41571 13.532C1.73598 13.532 1.18494 14.083 1.18494 14.7628Z" stroke="#1D70B8" stroke-miterlimit="10"/>
<path d="M1.18494 46.4349C1.18494 47.1146 1.73598 47.6656 2.41571 47.6656C3.09545 47.6656 3.64648 47.1146 3.64648 46.4349C3.64648 45.7551 3.09545 45.2041 2.41571 45.2041C1.73598 45.2041 1.18494 45.7551 1.18494 46.4349Z" stroke="#1D70B8" stroke-miterlimit="10"/>
<rect x="1.16797" y="29.3594" width="2.47877" height="2.47877" stroke="#1D70B8"/>
<path d="M59.5762 14.7629L59.5762 46.4354" stroke="#1D70B8" stroke-miterlimit="10"/>
<path d="M58.3451 14.7628C58.3451 15.4425 58.8961 15.9935 59.5759 15.9935C60.2556 15.9935 60.8066 15.4425 60.8066 14.7628C60.8066 14.083 60.2556 13.532 59.5759 13.532C58.8961 13.532 58.3451 14.083 58.3451 14.7628Z" stroke="#1D70B8" stroke-miterlimit="10"/>
<path d="M58.3451 46.4349C58.3451 47.1146 58.8961 47.6656 59.5759 47.6656C60.2556 47.6656 60.8066 47.1146 60.8066 46.4349C60.8066 45.7551 60.2556 45.2041 59.5759 45.2041C58.8961 45.2041 58.3451 45.7551 58.3451 46.4349Z" stroke="#1D70B8" stroke-miterlimit="10"/>
<rect x="58.3281" y="29.3594" width="2.47877" height="2.47877" stroke="#1D70B8"/>
<path d="M46.8301 59.1855L15.1577 59.1855" stroke="#1D70B8" stroke-miterlimit="10"/>
<path d="M46.8298 57.9547C46.15 57.9547 45.599 58.5058 45.599 59.1855C45.599 59.8652 46.15 60.4163 46.8298 60.4163C47.5095 60.4163 48.0605 59.8652 48.0605 59.1855C48.0605 58.5058 47.5095 57.9547 46.8298 57.9547Z" stroke="#1D70B8" stroke-miterlimit="10"/>
<path d="M15.1579 57.9547C14.4782 57.9547 13.9271 58.5058 13.9271 59.1855C13.9271 59.8652 14.4782 60.4163 15.1579 60.4163C15.8376 60.4163 16.3887 59.8652 16.3887 59.1855C16.3887 58.5058 15.8376 57.9547 15.1579 57.9547Z" stroke="#1D70B8" stroke-miterlimit="10"/>
<rect x="32.2334" y="57.9377" width="2.47877" height="2.47877" transform="rotate(90 32.2334 57.9377)" stroke="#1D70B8"/>
<path d="M46.8301 2.03784L15.1577 2.03784" stroke="#1D70B8" stroke-miterlimit="10"/>
<path d="M46.8298 0.80701C46.15 0.80701 45.599 1.35805 45.599 2.03778C45.599 2.71752 46.15 3.26855 46.8298 3.26855C47.5095 3.26855 48.0605 2.71752 48.0605 2.03778C48.0605 1.35805 47.5095 0.80701 46.8298 0.80701Z" stroke="#1D70B8" stroke-miterlimit="10"/>
<path d="M15.1579 0.80701C14.4782 0.80701 13.9271 1.35805 13.9271 2.03778C13.9271 2.71752 14.4782 3.26855 15.1579 3.26855C15.8376 3.26855 16.3887 2.71752 16.3887 2.03778C16.3887 1.35805 15.8376 0.80701 15.1579 0.80701Z" stroke="#1D70B8" stroke-miterlimit="10"/>
<rect x="32.2334" y="0.790039" width="2.47877" height="2.47877" transform="rotate(90 32.2334 0.790039)" stroke="#1D70B8"/>
</svg>
