<svg width="119" height="119" viewBox="0 0 119 119" fill="none" xmlns="http://www.w3.org/2000/svg">
<path d="M39.5801 10.5039C66.1778 -0.409514 97.0914 12.6509 108.132 39.4463L108.133 39.4473C119.17 66.1155 106.399 96.9594 79.7988 107.874L79.7959 107.875C52.6401 119.095 21.8558 106.263 10.8203 79.4795L10.8193 79.4766C-0.277606 52.7481 12.433 21.601 39.5791 10.5039H39.5801Z" fill="#50A1A5" stroke="#00FFE0" stroke-width="2"/>
<path d="M3.37305 28.2061L3.37304 90.365" stroke="#00FFE0" stroke-miterlimit="10"/>
<path d="M0.956188 28.206C0.956188 29.54 2.03763 30.6214 3.37165 30.6214C4.70567 30.6214 5.78711 29.54 5.78711 28.206C5.78711 26.872 4.70567 25.7905 3.37165 25.7905C2.03763 25.7905 0.956188 26.872 0.956188 28.206Z" stroke="#00FFE0" stroke-miterlimit="10"/>
<path d="M0.956188 90.3652C0.956188 91.6992 2.03763 92.7806 3.37165 92.7806C4.70567 92.7806 5.78711 91.6992 5.78711 90.3652C5.78711 89.0311 4.70567 87.9497 3.37165 87.9497C2.03763 87.9497 0.956188 89.0311 0.956188 90.3652Z" stroke="#00FFE0" stroke-miterlimit="10"/>
<rect x="0.924805" y="56.8535" width="4.86473" height="4.86473" stroke="#00FFE0"/>
<path d="M115.555 28.2061L115.555 90.365" stroke="#00FFE0" stroke-miterlimit="10"/>
<path d="M113.139 28.206C113.139 29.54 114.22 30.6214 115.554 30.6214C116.888 30.6214 117.97 29.54 117.97 28.206C117.97 26.872 116.888 25.7905 115.554 25.7905C114.22 25.7905 113.139 26.872 113.139 28.206Z" stroke="#00FFE0" stroke-miterlimit="10"/>
<path d="M113.139 90.3652C113.139 91.6992 114.22 92.7806 115.554 92.7806C116.888 92.7806 117.97 91.6992 117.97 90.3652C117.97 89.0311 116.888 87.9497 115.554 87.9497C114.22 87.9497 113.139 89.0311 113.139 90.3652Z" stroke="#00FFE0" stroke-miterlimit="10"/>
<rect x="113.104" y="56.8535" width="4.86473" height="4.86473" stroke="#00FFE0"/>
<path d="M90.5391 115.388L28.3801 115.388" stroke="#00FFE0" stroke-miterlimit="10"/>
<path d="M90.5386 112.972C89.2046 112.972 88.1232 114.054 88.1232 115.388C88.1232 116.722 89.2046 117.803 90.5386 117.803C91.8727 117.803 92.9541 116.722 92.9541 115.388C92.9541 114.054 91.8727 112.972 90.5386 112.972Z" stroke="#00FFE0" stroke-miterlimit="10"/>
<path d="M28.3814 112.972C27.0474 112.972 25.966 114.054 25.966 115.388C25.966 116.722 27.0474 117.803 28.3814 117.803C29.7154 117.803 30.7969 116.722 30.7969 115.388C30.7969 114.054 29.7154 112.972 28.3814 112.972Z" stroke="#00FFE0" stroke-miterlimit="10"/>
<rect x="61.8926" y="112.938" width="4.86473" height="4.86473" transform="rotate(90 61.8926 112.938)" stroke="#00FFE0"/>
<path d="M90.5391 3.23242L28.3801 3.23242" stroke="#00FFE0" stroke-miterlimit="10"/>
<path d="M90.5386 0.816051C89.2046 0.816051 88.1232 1.89749 88.1232 3.23151C88.1232 4.56553 89.2046 5.64697 90.5386 5.64697C91.8727 5.64697 92.9541 4.56553 92.9541 3.23151C92.9541 1.89749 91.8727 0.816051 90.5386 0.816051Z" stroke="#00FFE0" stroke-miterlimit="10"/>
<path d="M28.3814 0.816051C27.0474 0.816051 25.966 1.89749 25.966 3.23151C25.966 4.56553 27.0474 5.64697 28.3814 5.64697C29.7154 5.64697 30.7969 4.56553 30.7969 3.23151C30.7969 1.89749 29.7154 0.816051 28.3814 0.816051Z" stroke="#00FFE0" stroke-miterlimit="10"/>
<rect x="61.8926" y="0.783203" width="4.86473" height="4.86473" transform="rotate(90 61.8926 0.783203)" stroke="#00FFE0"/>
</svg>
