<svg width="842" height="459" viewBox="0 0 842 459" fill="none" xmlns="http://www.w3.org/2000/svg">
<path d="M703.741 348.186C741.774 348.186 772.605 317.355 772.605 279.322C772.605 241.29 741.774 210.459 703.741 210.459C665.709 210.459 634.878 241.29 634.878 279.322C634.878 317.355 665.709 348.186 703.741 348.186Z" fill="#00FFE0"/>
<path d="M6.98781 69.6804C37.3276 69.6804 64.5411 75.1342 88.6282 86.0418C112.715 96.9494 133.148 111.831 149.933 130.7C166.711 149.57 179.516 171.76 188.332 197.264C197.148 222.769 201.553 250.128 201.553 279.322C201.553 308.515 197.148 336.124 188.332 361.531C179.516 386.945 166.711 409.136 149.933 428.096C133.155 447.055 112.715 461.944 88.6282 472.754C64.548 483.564 37.3276 488.97 6.98781 488.97C-23.352 488.97 -50.8086 483.564 -74.7915 472.754C-98.7813 461.944 -119.165 447.062 -135.944 428.096C-152.729 409.136 -165.526 386.945 -174.343 361.531C-183.159 336.124 -187.571 308.723 -187.571 279.322C-187.571 249.92 -183.159 222.769 -174.343 197.264C-165.526 171.76 -152.729 149.57 -135.944 130.7C-119.165 111.831 -98.7813 96.9494 -74.7915 86.0418C-50.8017 75.1342 -23.5466 69.6804 6.98781 69.6804ZM6.98781 414.437C24.8152 414.437 40.5096 411.074 54.0642 404.335C67.6189 397.61 79.0544 388.265 88.3363 376.323C97.6321 364.373 104.649 350.249 109.387 333.936C114.126 317.63 116.502 299.803 116.502 280.461V278.182C116.502 259.028 114.126 241.249 109.387 224.846C104.649 208.443 97.6321 194.263 88.3363 182.32C79.0475 170.378 67.6189 161.04 54.0642 154.301C40.5096 147.576 24.8152 144.206 6.98781 144.206C-10.8395 144.206 -26.5757 147.576 -40.2345 154.301C-53.8864 161.04 -65.3081 170.378 -74.5066 182.32C-83.7052 194.263 -90.6735 208.45 -95.4117 224.846C-100.15 241.249 -102.526 259.028 -102.526 278.182V280.461C-102.526 299.803 -100.15 317.63 -95.4117 333.936C-90.6735 350.249 -83.7052 364.366 -74.5066 376.323C-65.3081 388.265 -53.8864 397.61 -40.2345 404.335C-26.5757 411.074 -10.8395 414.437 6.98781 414.437Z" fill="white"/>
<path d="M346.985 483.273L231.782 75.371H324.232L403.031 382.006H405.873L482.962 75.371H574.267L459.063 483.273H346.992H346.985Z" fill="white"/>
</svg>
