<svg width="289" height="417" viewBox="0 0 289 417" fill="none" xmlns="http://www.w3.org/2000/svg">
<path d="M0.702074 385.702C0.537533 385.867 0.537533 386.133 0.702074 386.298L3.38341 388.979C3.54795 389.144 3.81472 389.144 3.97926 388.979C4.1438 388.815 4.1438 388.548 3.97926 388.383L1.59585 386L3.97926 383.617C4.1438 383.452 4.1438 383.185 3.97926 383.021C3.81472 382.856 3.54795 382.856 3.38341 383.021L0.702074 385.702ZM288.632 386.298C288.796 386.133 288.796 385.867 288.632 385.702L285.95 383.021C285.786 382.856 285.519 382.856 285.354 383.021C285.19 383.185 285.19 383.452 285.354 383.617L287.738 386L285.354 388.383C285.19 388.548 285.19 388.815 285.354 388.979C285.519 389.144 285.786 389.144 285.95 388.979L288.632 386.298ZM1 386L1 386.421L288.334 386.421L288.334 386L288.334 385.579L1 385.579L1 386Z" fill="#0B0C0C"/>
<path d="M252.029 405.748H253.728V414.15H252.029V405.748ZM255.304 407.875H256.922V408.414C257.008 408.328 257.103 408.246 257.209 408.168C257.318 408.086 257.437 408.015 257.566 407.957C257.695 407.894 257.838 407.845 257.994 407.81C258.154 407.771 258.33 407.752 258.521 407.752C258.861 407.752 259.166 407.808 259.435 407.922C259.705 408.031 259.931 408.183 260.115 408.379C260.302 408.574 260.445 408.802 260.543 409.064C260.64 409.326 260.689 409.609 260.689 409.914V414.15H259.072V410.5C259.072 410.277 259.047 410.09 258.996 409.937C258.945 409.781 258.875 409.656 258.785 409.562C258.699 409.465 258.595 409.394 258.474 409.351C258.357 409.304 258.228 409.281 258.088 409.281C257.924 409.281 257.769 409.31 257.625 409.369C257.484 409.427 257.361 409.517 257.256 409.638C257.15 409.756 257.068 409.904 257.01 410.084C256.951 410.263 256.922 410.474 256.922 410.717V414.15H255.304V407.875ZM262.488 412.146C262.718 412.353 262.994 412.531 263.314 412.679C263.635 412.828 263.959 412.902 264.287 412.902C264.525 412.902 264.713 412.857 264.849 412.767C264.986 412.674 265.054 412.554 265.054 412.41C265.054 412.164 264.791 411.972 264.263 411.836L263.806 411.713C263.58 411.658 263.351 411.584 263.121 411.49C262.89 411.392 262.677 411.265 262.482 411.109C262.291 410.953 262.135 410.763 262.013 410.541C261.896 410.314 261.838 410.037 261.838 409.709C261.838 409.447 261.894 409.199 262.008 408.965C262.125 408.726 262.289 408.517 262.5 408.338C262.715 408.158 262.974 408.015 263.279 407.91C263.584 407.804 263.924 407.752 264.299 407.752C264.834 407.752 265.31 407.836 265.728 408.004C266.15 408.172 266.482 408.361 266.724 408.572L265.881 409.65C265.681 409.506 265.445 409.383 265.172 409.281C264.902 409.176 264.631 409.123 264.357 409.123C264.103 409.123 263.906 409.17 263.765 409.263C263.625 409.353 263.554 409.463 263.554 409.592C263.554 409.728 263.615 409.84 263.736 409.926C263.861 410.008 264.041 410.08 264.275 410.142L264.955 410.336C265.603 410.519 266.068 410.767 266.349 411.08C266.631 411.392 266.771 411.787 266.771 412.263C266.771 412.529 266.717 412.783 266.607 413.025C266.498 413.263 266.338 413.476 266.127 413.664C265.916 413.851 265.654 414 265.342 414.109C265.029 414.215 264.674 414.267 264.275 414.267C263.97 414.267 263.683 414.24 263.414 414.185C263.148 414.131 262.9 414.056 262.67 413.963C262.443 413.865 262.238 413.756 262.054 413.635C261.871 413.513 261.715 413.392 261.586 413.271L262.488 412.146ZM269.437 416.131H267.82V407.875H269.437V408.414C269.613 408.23 269.83 408.074 270.088 407.945C270.345 407.816 270.658 407.752 271.025 407.752C271.439 407.752 271.814 407.836 272.15 408.004C272.49 408.168 272.781 408.396 273.023 408.689C273.265 408.978 273.453 409.322 273.586 409.72C273.718 410.119 273.785 410.551 273.785 411.015C273.785 411.48 273.717 411.912 273.58 412.31C273.443 412.709 273.252 413.052 273.006 413.342C272.76 413.631 272.465 413.857 272.121 414.021C271.777 414.185 271.398 414.267 270.984 414.267C270.801 414.267 270.633 414.25 270.48 414.215C270.332 414.183 270.195 414.138 270.07 414.08C269.945 414.021 269.83 413.953 269.724 413.875C269.619 413.793 269.523 413.705 269.437 413.611V416.131ZM269.39 411.595C269.39 411.763 269.42 411.92 269.478 412.064C269.541 412.205 269.629 412.328 269.742 412.433C269.855 412.539 269.99 412.621 270.146 412.679C270.306 412.738 270.486 412.767 270.685 412.767C270.916 412.767 271.119 412.726 271.295 412.644C271.474 412.558 271.625 412.439 271.746 412.287C271.867 412.135 271.959 411.955 272.021 411.748C272.084 411.537 272.115 411.306 272.115 411.056V410.98C272.115 410.73 272.084 410.5 272.021 410.289C271.959 410.078 271.867 409.896 271.746 409.744C271.625 409.588 271.474 409.467 271.295 409.381C271.119 409.295 270.916 409.252 270.685 409.252C270.486 409.252 270.306 409.281 270.146 409.34C269.99 409.398 269.855 409.48 269.742 409.586C269.629 409.691 269.541 409.816 269.478 409.961C269.42 410.105 269.39 410.261 269.39 410.429V411.595ZM276.48 414.15H274.863V407.875H276.48V414.15ZM274.693 406.228C274.693 406.095 274.718 405.97 274.769 405.853C274.82 405.732 274.888 405.629 274.974 405.543C275.064 405.453 275.168 405.383 275.285 405.332C275.402 405.281 275.529 405.256 275.666 405.256C275.799 405.256 275.924 405.281 276.041 405.332C276.162 405.383 276.265 405.453 276.351 405.543C276.441 405.629 276.511 405.732 276.562 405.853C276.613 405.97 276.638 406.095 276.638 406.228C276.638 406.365 276.613 406.492 276.562 406.609C276.511 406.726 276.441 406.83 276.351 406.92C276.265 407.006 276.162 407.074 276.041 407.125C275.924 407.176 275.799 407.201 275.666 407.201C275.529 407.201 275.402 407.176 275.285 407.125C275.168 407.074 275.064 407.006 274.974 406.92C274.888 406.83 274.82 406.726 274.769 406.609C274.718 406.492 274.693 406.365 274.693 406.228ZM281.402 409.445H281.232C281.002 409.445 280.781 409.469 280.57 409.515C280.363 409.562 280.179 409.648 280.019 409.773C279.859 409.894 279.73 410.062 279.633 410.277C279.539 410.492 279.492 410.767 279.492 411.103V414.15H277.875V407.875H279.492V408.584C279.558 408.478 279.644 408.377 279.75 408.279C279.855 408.181 279.978 408.095 280.119 408.021C280.26 407.943 280.418 407.881 280.593 407.834C280.769 407.787 280.959 407.763 281.162 407.763H281.402V409.445ZM283.763 411.572C283.791 411.76 283.849 411.931 283.939 412.088C284.033 412.244 284.15 412.379 284.291 412.492C284.431 412.601 284.593 412.687 284.777 412.75C284.961 412.812 285.156 412.844 285.363 412.844C285.601 412.844 285.859 412.799 286.136 412.709C286.414 412.615 286.668 412.48 286.898 412.304L287.677 413.441C287.385 413.687 287.025 413.886 286.599 414.039C286.174 414.191 285.72 414.267 285.24 414.267C284.806 414.267 284.398 414.193 284.015 414.045C283.633 413.896 283.297 413.681 283.008 413.4C282.722 413.119 282.496 412.777 282.328 412.375C282.164 411.972 282.082 411.519 282.082 411.015C282.082 410.554 282.154 410.125 282.299 409.726C282.447 409.328 282.652 408.982 282.914 408.689C283.179 408.396 283.496 408.168 283.863 408.004C284.23 407.836 284.636 407.752 285.082 407.752C285.496 407.752 285.881 407.828 286.236 407.98C286.592 408.129 286.9 408.34 287.162 408.613C287.424 408.883 287.629 409.207 287.777 409.586C287.926 409.965 288 410.383 288 410.84V411.572H283.763ZM285.076 409.158C284.728 409.158 284.433 409.275 284.191 409.51C283.953 409.74 283.814 410.019 283.775 410.347H286.306C286.299 410.015 286.177 409.734 285.943 409.504C285.709 409.273 285.42 409.158 285.076 409.158Z" fill="#0B0C0C"/>
<path d="M1.87891 405.74H3.57812V414.143H1.87891V405.74ZM5.1543 407.867H6.77148V408.406C6.85742 408.321 6.95312 408.239 7.05859 408.16C7.16797 408.078 7.28711 408.008 7.41602 407.949C7.54492 407.887 7.6875 407.838 7.84375 407.803C8.00391 407.764 8.17969 407.744 8.37109 407.744C8.71094 407.744 9.01562 407.801 9.28516 407.914C9.55469 408.024 9.78125 408.176 9.96484 408.371C10.1523 408.567 10.2949 408.795 10.3926 409.057C10.4902 409.319 10.5391 409.602 10.5391 409.906V414.143H8.92188V410.492C8.92188 410.27 8.89648 410.082 8.8457 409.93C8.79492 409.774 8.72461 409.649 8.63477 409.555C8.54883 409.457 8.44531 409.387 8.32422 409.344C8.20703 409.297 8.07812 409.274 7.9375 409.274C7.77344 409.274 7.61914 409.303 7.47461 409.362C7.33398 409.42 7.21094 409.51 7.10547 409.631C7 409.748 6.91797 409.897 6.85938 410.076C6.80078 410.256 6.77148 410.467 6.77148 410.709V414.143H5.1543V407.867ZM14.0605 407.867H15.2617V409.274H14.0605V414.143H12.4434V409.274H11.4473V407.867H12.4434V407.1C12.4434 406.826 12.4902 406.59 12.584 406.391C12.6777 406.188 12.8066 406.022 12.9707 405.893C13.1387 405.76 13.3379 405.662 13.5684 405.6C13.8027 405.533 14.0605 405.5 14.3418 405.5C14.4824 405.5 14.6191 405.504 14.752 405.512C14.8848 405.52 15.0078 405.528 15.1211 405.535C15.2344 405.543 15.334 405.553 15.4199 405.565C15.5098 405.576 15.5781 405.584 15.625 405.588L15.4902 406.965C15.4434 406.957 15.3848 406.949 15.3145 406.942C15.248 406.934 15.1777 406.928 15.1035 406.924C15.0293 406.916 14.957 406.912 14.8867 406.912C14.8164 406.908 14.7539 406.906 14.6992 406.906C14.4688 406.906 14.3047 406.951 14.207 407.041C14.1094 407.127 14.0605 407.239 14.0605 407.375V407.867ZM18.9531 407.744C19.418 407.744 19.8398 407.828 20.2188 407.996C20.5977 408.16 20.9219 408.389 21.1914 408.682C21.4609 408.975 21.668 409.321 21.8125 409.719C21.9609 410.117 22.0352 410.547 22.0352 411.008C22.0352 411.473 21.9609 411.905 21.8125 412.303C21.6641 412.698 21.4551 413.039 21.1855 413.328C20.916 413.617 20.5918 413.846 20.2129 414.014C19.834 414.178 19.4141 414.26 18.9531 414.26C18.4883 414.26 18.0664 414.178 17.6875 414.014C17.3086 413.846 16.9844 413.617 16.7148 413.328C16.4453 413.039 16.2363 412.698 16.0879 412.303C15.9395 411.905 15.8652 411.473 15.8652 411.008C15.8652 410.547 15.9375 410.117 16.082 409.719C16.2305 409.321 16.4395 408.975 16.709 408.682C16.9785 408.389 17.3027 408.16 17.6816 407.996C18.0645 407.828 18.4883 407.744 18.9531 407.744ZM18.9531 412.76C19.1836 412.76 19.3867 412.717 19.5625 412.631C19.7422 412.545 19.8926 412.426 20.0137 412.274C20.1348 412.121 20.2266 411.94 20.2891 411.729C20.3516 411.514 20.3828 411.28 20.3828 411.026V410.985C20.3828 410.731 20.3516 410.498 20.2891 410.287C20.2266 410.073 20.1348 409.889 20.0137 409.737C19.8926 409.58 19.7422 409.459 19.5625 409.373C19.3867 409.287 19.1836 409.244 18.9531 409.244C18.7227 409.244 18.5176 409.287 18.3379 409.373C18.1621 409.459 18.0137 409.58 17.8926 409.737C17.7715 409.889 17.6797 410.073 17.6172 410.287C17.5547 410.498 17.5234 410.731 17.5234 410.985V411.026C17.5234 411.28 17.5547 411.514 17.6172 411.729C17.6797 411.94 17.7715 412.121 17.8926 412.274C18.0137 412.426 18.1621 412.545 18.3379 412.631C18.5176 412.717 18.7227 412.76 18.9531 412.76ZM26.6348 409.438H26.4648C26.2344 409.438 26.0137 409.461 25.8027 409.508C25.5957 409.555 25.4121 409.641 25.252 409.766C25.0918 409.887 24.9629 410.055 24.8652 410.27C24.7715 410.485 24.7246 410.76 24.7246 411.096V414.143H23.1074V407.867H24.7246V408.576C24.791 408.471 24.877 408.369 24.9824 408.272C25.0879 408.174 25.2109 408.088 25.3516 408.014C25.4922 407.936 25.6504 407.873 25.8262 407.826C26.002 407.78 26.1914 407.756 26.3945 407.756H26.6348V409.438ZM32.9336 414.143H31.3105V410.492C31.3105 410.27 31.2852 410.082 31.2344 409.93C31.1875 409.774 31.1211 409.649 31.0352 409.555C30.9492 409.457 30.8496 409.389 30.7363 409.35C30.623 409.307 30.5 409.285 30.3672 409.285C30.2109 409.285 30.0645 409.313 29.9277 409.367C29.7949 409.422 29.6777 409.508 29.5762 409.625C29.4785 409.742 29.4004 409.893 29.3418 410.076C29.2871 410.256 29.2598 410.471 29.2598 410.721V414.143H27.6426V407.867H29.2598V408.418C29.4668 408.188 29.707 408.018 29.9805 407.908C30.2578 407.799 30.5547 407.744 30.8711 407.744C31.1953 407.744 31.498 407.811 31.7793 407.944C32.0645 408.076 32.3008 408.295 32.4883 408.6C32.5977 408.444 32.7227 408.311 32.8633 408.201C33.0078 408.092 33.1621 408.004 33.3262 407.938C33.4902 407.871 33.6602 407.823 33.8359 407.791C34.0156 407.76 34.1992 407.744 34.3867 407.744C34.7383 407.744 35.0508 407.803 35.3242 407.92C35.6016 408.033 35.8359 408.188 36.0273 408.383C36.2188 408.578 36.3652 408.803 36.4668 409.057C36.5684 409.311 36.6191 409.578 36.6191 409.86V414.143H34.9844V410.492C34.9844 410.27 34.959 410.082 34.9082 409.93C34.8613 409.774 34.7949 409.649 34.709 409.555C34.623 409.457 34.5215 409.389 34.4043 409.35C34.291 409.307 34.168 409.285 34.0352 409.285C33.8789 409.285 33.7344 409.313 33.6016 409.367C33.4688 409.422 33.3516 409.508 33.25 409.625C33.1523 409.742 33.0742 409.893 33.0156 410.076C32.9609 410.256 32.9336 410.471 32.9336 410.721V414.143Z" fill="#0B0C0C"/>
<rect x="1" width="106" height="111.165" fill="#1D70B8"/>
<rect x="1" y="125.037" width="197" height="111.165" fill="#11875A"/>
<rect x="1" y="250.073" width="287.334" height="111.165" fill="#CA357C"/>
<path d="M47.6406 56.5312H47.6719L49.1953 48.7969H51.6562L49.1562 60H46.375L44.6797 51.9688L43.0156 60H40.25L37.75 48.7969H40.2188L41.6875 56.5312H41.7188L43.4297 48.7969H45.9766L47.6406 56.5312ZM54.1641 56.5625C54.2005 56.8125 54.2786 57.0417 54.3984 57.25C54.5234 57.4583 54.6797 57.638 54.8672 57.7891C55.0547 57.9349 55.2708 58.0495 55.5156 58.1328C55.7604 58.2161 56.0208 58.2578 56.2969 58.2578C56.6146 58.2578 56.9583 58.1979 57.3281 58.0781C57.6979 57.9531 58.0365 57.7734 58.3438 57.5391L59.3828 59.0547C58.9922 59.3828 58.513 59.6484 57.9453 59.8516C57.3776 60.0547 56.7734 60.1562 56.1328 60.1562C55.5547 60.1562 55.0104 60.0573 54.5 59.8594C53.9896 59.6615 53.5417 59.375 53.1562 59C52.776 58.625 52.474 58.1693 52.25 57.6328C52.0312 57.0964 51.9219 56.4922 51.9219 55.8203C51.9219 55.2057 52.0182 54.6328 52.2109 54.1016C52.4089 53.5703 52.6823 53.1094 53.0312 52.7188C53.3854 52.3281 53.8073 52.0234 54.2969 51.8047C54.7865 51.5807 55.3281 51.4688 55.9219 51.4688C56.474 51.4688 56.987 51.5703 57.4609 51.7734C57.9349 51.9714 58.3464 52.2526 58.6953 52.6172C59.0443 52.9766 59.3177 53.4089 59.5156 53.9141C59.7135 54.4193 59.8125 54.9766 59.8125 55.5859V56.5625H54.1641ZM55.9141 53.3438C55.4505 53.3438 55.0573 53.5 54.7344 53.8125C54.4167 54.1198 54.2318 54.4922 54.1797 54.9297H57.5547C57.5443 54.487 57.3828 54.112 57.0703 53.8047C56.7578 53.4974 56.3724 53.3438 55.9141 53.3438ZM69.1406 55.8203C69.1406 56.4401 69.0495 57.0156 68.8672 57.5469C68.6849 58.0781 68.4297 58.5365 68.1016 58.9219C67.7734 59.3073 67.3802 59.6094 66.9219 59.8281C66.4635 60.0469 65.9583 60.1562 65.4062 60.1562C65.1615 60.1562 64.9375 60.1328 64.7344 60.0859C64.5365 60.0443 64.3542 59.9844 64.1875 59.9062C64.0208 59.8281 63.8672 59.737 63.7266 59.6328C63.5859 59.5234 63.4583 59.4062 63.3438 59.2812V60H61.1875V48.7969H63.3438V52.3516C63.5781 52.1068 63.8672 51.8984 64.2109 51.7266C64.5547 51.5547 64.9714 51.4688 65.4609 51.4688C66.013 51.4688 66.513 51.5807 66.9609 51.8047C67.4141 52.0234 67.8021 52.3281 68.125 52.7188C68.4479 53.1042 68.6979 53.5625 68.875 54.0938C69.0521 54.625 69.1406 55.2005 69.1406 55.8203ZM63.2812 56.5938C63.2812 56.8177 63.3203 57.026 63.3984 57.2188C63.4818 57.4062 63.599 57.5703 63.75 57.7109C63.901 57.8516 64.0807 57.9609 64.2891 58.0391C64.5026 58.1172 64.7422 58.1562 65.0078 58.1562C65.3151 58.1562 65.5859 58.1016 65.8203 57.9922C66.0599 57.8776 66.2604 57.7188 66.4219 57.5156C66.5833 57.3125 66.7057 57.0729 66.7891 56.7969C66.8724 56.5156 66.9141 56.2083 66.9141 55.875V55.7734C66.9141 55.4401 66.8724 55.1328 66.7891 54.8516C66.7057 54.5703 66.5833 54.3281 66.4219 54.125C66.2604 53.9167 66.0599 53.7552 65.8203 53.6406C65.5859 53.526 65.3151 53.4688 65.0078 53.4688C64.7422 53.4688 64.5026 53.5078 64.2891 53.5859C64.0807 53.6641 63.901 53.7734 63.75 53.9141C63.599 54.0547 63.4818 54.2214 63.3984 54.4141C63.3203 54.6068 63.2812 54.8151 63.2812 55.0391V56.5938Z" fill="white"/>
<path d="M92.625 182.922H88.4766L87.8438 185H85.4375L89.1016 173.797H92.0781L95.7969 185H93.2656L92.625 182.922ZM89.0859 180.922H92.0156L90.5625 176.188H90.5312L89.0859 180.922ZM99.0234 187.641H96.8672V176.633H99.0234V177.352C99.2578 177.107 99.5469 176.898 99.8906 176.727C100.234 176.555 100.651 176.469 101.141 176.469C101.693 176.469 102.193 176.581 102.641 176.805C103.094 177.023 103.482 177.328 103.805 177.719C104.128 178.104 104.378 178.562 104.555 179.094C104.732 179.625 104.82 180.201 104.82 180.82C104.82 181.44 104.729 182.016 104.547 182.547C104.365 183.078 104.109 183.536 103.781 183.922C103.453 184.307 103.06 184.609 102.602 184.828C102.143 185.047 101.638 185.156 101.086 185.156C100.841 185.156 100.617 185.133 100.414 185.086C100.216 185.044 100.034 184.984 99.8672 184.906C99.7005 184.828 99.5469 184.737 99.4062 184.633C99.2656 184.523 99.138 184.406 99.0234 184.281V187.641ZM98.9609 181.594C98.9609 181.818 99 182.026 99.0781 182.219C99.1615 182.406 99.2786 182.57 99.4297 182.711C99.5807 182.852 99.7604 182.961 99.9688 183.039C100.182 183.117 100.422 183.156 100.688 183.156C100.995 183.156 101.266 183.102 101.5 182.992C101.74 182.878 101.94 182.719 102.102 182.516C102.263 182.312 102.385 182.073 102.469 181.797C102.552 181.516 102.594 181.208 102.594 180.875V180.773C102.594 180.44 102.552 180.133 102.469 179.852C102.385 179.57 102.263 179.328 102.102 179.125C101.94 178.917 101.74 178.755 101.5 178.641C101.266 178.526 100.995 178.469 100.688 178.469C100.422 178.469 100.182 178.508 99.9688 178.586C99.7604 178.664 99.5807 178.773 99.4297 178.914C99.2786 179.055 99.1615 179.221 99.0781 179.414C99 179.607 98.9609 179.815 98.9609 180.039V181.594ZM108.414 187.641H106.258V176.633H108.414V177.352C108.648 177.107 108.938 176.898 109.281 176.727C109.625 176.555 110.042 176.469 110.531 176.469C111.083 176.469 111.583 176.581 112.031 176.805C112.484 177.023 112.872 177.328 113.195 177.719C113.518 178.104 113.768 178.562 113.945 179.094C114.122 179.625 114.211 180.201 114.211 180.82C114.211 181.44 114.12 182.016 113.938 182.547C113.755 183.078 113.5 183.536 113.172 183.922C112.844 184.307 112.451 184.609 111.992 184.828C111.534 185.047 111.029 185.156 110.477 185.156C110.232 185.156 110.008 185.133 109.805 185.086C109.607 185.044 109.424 184.984 109.258 184.906C109.091 184.828 108.938 184.737 108.797 184.633C108.656 184.523 108.529 184.406 108.414 184.281V187.641ZM108.352 181.594C108.352 181.818 108.391 182.026 108.469 182.219C108.552 182.406 108.669 182.57 108.82 182.711C108.971 182.852 109.151 182.961 109.359 183.039C109.573 183.117 109.812 183.156 110.078 183.156C110.385 183.156 110.656 183.102 110.891 182.992C111.13 182.878 111.331 182.719 111.492 182.516C111.654 182.312 111.776 182.073 111.859 181.797C111.943 181.516 111.984 181.208 111.984 180.875V180.773C111.984 180.44 111.943 180.133 111.859 179.852C111.776 179.57 111.654 179.328 111.492 179.125C111.331 178.917 111.13 178.755 110.891 178.641C110.656 178.526 110.385 178.469 110.078 178.469C109.812 178.469 109.573 178.508 109.359 178.586C109.151 178.664 108.971 178.773 108.82 178.914C108.669 179.055 108.552 179.221 108.469 179.414C108.391 179.607 108.352 179.815 108.352 180.039V181.594Z" fill="white"/>
<path d="M123.922 306.852C124.068 307.018 124.245 307.182 124.453 307.344C124.661 307.505 124.891 307.651 125.141 307.781C125.396 307.906 125.672 308.008 125.969 308.086C126.266 308.159 126.586 308.195 126.93 308.195C127.57 308.195 128.06 308.062 128.398 307.797C128.742 307.526 128.914 307.198 128.914 306.812C128.914 306.411 128.763 306.107 128.461 305.898C128.164 305.69 127.69 305.526 127.039 305.406L126.688 305.344C126.219 305.26 125.753 305.151 125.289 305.016C124.826 304.88 124.406 304.685 124.031 304.43C123.656 304.174 123.352 303.849 123.117 303.453C122.883 303.052 122.766 302.547 122.766 301.938C122.766 301.583 122.844 301.214 123 300.828C123.156 300.438 123.404 300.081 123.742 299.758C124.086 299.43 124.526 299.161 125.062 298.953C125.604 298.745 126.258 298.641 127.023 298.641C127.93 298.641 128.737 298.792 129.445 299.094C130.159 299.391 130.734 299.784 131.172 300.273L129.664 301.68C129.357 301.341 128.961 301.076 128.477 300.883C127.997 300.69 127.503 300.594 126.992 300.594C126.404 300.594 125.943 300.706 125.609 300.93C125.281 301.154 125.117 301.445 125.117 301.805C125.117 302.039 125.169 302.234 125.273 302.391C125.383 302.547 125.534 302.677 125.727 302.781C125.919 302.88 126.151 302.964 126.422 303.031C126.693 303.099 126.995 303.167 127.328 303.234L127.508 303.266C127.956 303.349 128.401 303.456 128.844 303.586C129.286 303.711 129.688 303.898 130.047 304.148C130.411 304.393 130.706 304.716 130.93 305.117C131.154 305.513 131.266 306.021 131.266 306.641C131.266 307.203 131.148 307.701 130.914 308.133C130.68 308.565 130.37 308.935 129.984 309.242C129.599 309.544 129.154 309.773 128.648 309.93C128.143 310.081 127.617 310.156 127.07 310.156C126.518 310.156 126.005 310.109 125.531 310.016C125.062 309.922 124.635 309.789 124.25 309.617C123.87 309.445 123.529 309.253 123.227 309.039C122.93 308.826 122.669 308.596 122.445 308.352L123.922 306.852ZM136.625 301.469C137.245 301.469 137.807 301.581 138.312 301.805C138.818 302.023 139.25 302.328 139.609 302.719C139.969 303.109 140.245 303.57 140.438 304.102C140.635 304.633 140.734 305.206 140.734 305.82C140.734 306.44 140.635 307.016 140.438 307.547C140.24 308.073 139.961 308.529 139.602 308.914C139.242 309.299 138.81 309.604 138.305 309.828C137.799 310.047 137.24 310.156 136.625 310.156C136.005 310.156 135.443 310.047 134.938 309.828C134.432 309.604 134 309.299 133.641 308.914C133.281 308.529 133.003 308.073 132.805 307.547C132.607 307.016 132.508 306.44 132.508 305.82C132.508 305.206 132.604 304.633 132.797 304.102C132.995 303.57 133.273 303.109 133.633 302.719C133.992 302.328 134.424 302.023 134.93 301.805C135.44 301.581 136.005 301.469 136.625 301.469ZM136.625 308.156C136.932 308.156 137.203 308.099 137.438 307.984C137.677 307.87 137.878 307.711 138.039 307.508C138.201 307.305 138.323 307.062 138.406 306.781C138.49 306.495 138.531 306.182 138.531 305.844V305.789C138.531 305.451 138.49 305.141 138.406 304.859C138.323 304.573 138.201 304.328 138.039 304.125C137.878 303.917 137.677 303.755 137.438 303.641C137.203 303.526 136.932 303.469 136.625 303.469C136.318 303.469 136.044 303.526 135.805 303.641C135.57 303.755 135.372 303.917 135.211 304.125C135.049 304.328 134.927 304.573 134.844 304.859C134.76 305.141 134.719 305.451 134.719 305.789V305.844C134.719 306.182 134.76 306.495 134.844 306.781C134.927 307.062 135.049 307.305 135.211 307.508C135.372 307.711 135.57 307.87 135.805 307.984C136.044 308.099 136.318 308.156 136.625 308.156ZM143.953 305.859C143.953 306.13 143.99 306.404 144.062 306.68C144.135 306.951 144.247 307.195 144.398 307.414C144.549 307.633 144.742 307.812 144.977 307.953C145.216 308.089 145.5 308.156 145.828 308.156C146.042 308.156 146.234 308.128 146.406 308.07C146.583 308.013 146.74 307.935 146.875 307.836C147.016 307.732 147.138 307.612 147.242 307.477C147.352 307.336 147.445 307.185 147.523 307.023L149.414 308C149.279 308.328 149.091 308.625 148.852 308.891C148.617 309.156 148.344 309.383 148.031 309.57C147.719 309.758 147.372 309.901 146.992 310C146.612 310.104 146.208 310.156 145.781 310.156C145.193 310.156 144.651 310.047 144.156 309.828C143.661 309.604 143.234 309.299 142.875 308.914C142.516 308.529 142.234 308.073 142.031 307.547C141.828 307.016 141.727 306.44 141.727 305.82C141.727 305.206 141.828 304.633 142.031 304.102C142.234 303.57 142.516 303.109 142.875 302.719C143.234 302.328 143.661 302.023 144.156 301.805C144.651 301.581 145.193 301.469 145.781 301.469C146.208 301.469 146.612 301.521 146.992 301.625C147.372 301.724 147.719 301.87 148.031 302.062C148.344 302.25 148.617 302.477 148.852 302.742C149.091 303.008 149.279 303.305 149.414 303.633L147.523 304.609C147.445 304.448 147.352 304.299 147.242 304.164C147.138 304.023 147.016 303.904 146.875 303.805C146.74 303.701 146.583 303.62 146.406 303.562C146.234 303.5 146.042 303.469 145.828 303.469C145.5 303.469 145.216 303.539 144.977 303.68C144.742 303.815 144.549 303.995 144.398 304.219C144.247 304.438 144.135 304.685 144.062 304.961C143.99 305.237 143.953 305.513 143.953 305.789V305.859ZM152.898 310H150.742V301.633H152.898V310ZM150.516 299.438C150.516 299.26 150.549 299.094 150.617 298.938C150.685 298.776 150.776 298.638 150.891 298.523C151.01 298.404 151.148 298.31 151.305 298.242C151.461 298.174 151.63 298.141 151.812 298.141C151.99 298.141 152.156 298.174 152.312 298.242C152.474 298.31 152.612 298.404 152.727 298.523C152.846 298.638 152.94 298.776 153.008 298.938C153.076 299.094 153.109 299.26 153.109 299.438C153.109 299.62 153.076 299.789 153.008 299.945C152.94 300.102 152.846 300.24 152.727 300.359C152.612 300.474 152.474 300.565 152.312 300.633C152.156 300.701 151.99 300.734 151.812 300.734C151.63 300.734 151.461 300.701 151.305 300.633C151.148 300.565 151.01 300.474 150.891 300.359C150.776 300.24 150.685 300.102 150.617 299.945C150.549 299.789 150.516 299.62 150.516 299.438ZM157.461 306.602C157.195 306.643 156.982 306.737 156.82 306.883C156.659 307.023 156.578 307.216 156.578 307.461C156.578 307.732 156.677 307.966 156.875 308.164C157.073 308.357 157.365 308.453 157.75 308.453C158.156 308.453 158.477 308.336 158.711 308.102C158.945 307.867 159.062 307.557 159.062 307.172V306.328L157.461 306.602ZM159.414 309.211C159.326 309.31 159.216 309.417 159.086 309.531C158.961 309.641 158.81 309.742 158.633 309.836C158.461 309.924 158.258 310 158.023 310.062C157.789 310.125 157.526 310.156 157.234 310.156C156.818 310.156 156.432 310.091 156.078 309.961C155.729 309.826 155.422 309.638 155.156 309.398C154.891 309.159 154.682 308.883 154.531 308.57C154.38 308.253 154.305 307.909 154.305 307.539C154.305 306.867 154.513 306.318 154.93 305.891C155.346 305.464 155.922 305.195 156.656 305.086L159.062 304.734V304.578C159.062 304.203 158.948 303.906 158.719 303.688C158.49 303.469 158.117 303.359 157.602 303.359C157.388 303.359 157.172 303.385 156.953 303.438C156.734 303.484 156.523 303.539 156.32 303.602C156.122 303.664 155.938 303.737 155.766 303.82C155.594 303.898 155.443 303.969 155.312 304.031L154.469 302.383C154.948 302.117 155.479 301.898 156.062 301.727C156.651 301.555 157.26 301.469 157.891 301.469C158.276 301.469 158.664 301.51 159.055 301.594C159.451 301.672 159.807 301.818 160.125 302.031C160.448 302.245 160.711 302.536 160.914 302.906C161.117 303.271 161.219 303.737 161.219 304.305V307.742C161.219 307.987 161.281 308.169 161.406 308.289C161.536 308.404 161.714 308.51 161.938 308.609L160.961 310.156C160.565 310.115 160.247 310.013 160.008 309.852C159.768 309.685 159.57 309.471 159.414 309.211ZM162.992 298.797H165.148V307.727C165.148 307.904 165.198 308.039 165.297 308.133C165.401 308.227 165.565 308.273 165.789 308.273C165.893 308.273 165.982 308.268 166.055 308.258C166.133 308.242 166.232 308.221 166.352 308.195L166.523 310.031C166.378 310.052 166.221 310.073 166.055 310.094C165.914 310.109 165.75 310.122 165.562 310.133C165.38 310.148 165.19 310.156 164.992 310.156C164.685 310.156 164.409 310.117 164.164 310.039C163.919 309.961 163.708 309.846 163.531 309.695C163.359 309.539 163.227 309.346 163.133 309.117C163.039 308.888 162.992 308.622 162.992 308.32V298.797Z" fill="white"/>
</svg>
