<svg width="200" height="216" viewBox="0 0 200 216" fill="none" xmlns="http://www.w3.org/2000/svg">
<path d="M0 0H196.107C197.764 0 199.107 1.34315 199.107 3V212.22C199.107 213.877 197.764 215.22 196.107 215.22H0V0Z" fill="#0F7A52"/>
<rect x="35.5996" y="48.603" width="131.884" height="126.658" stroke="#66F39E"/>
<path d="M25.6123 69.4033L177.47 69.4033" stroke="#66F39E" stroke-dasharray="1 1"/>
<path d="M146.684 38.6167L146.684 185.247" stroke="#66F39E" stroke-dasharray="1 1"/>
<path d="M56.3994 38.6167L56.3994 185.247" stroke="#66F39E" stroke-dasharray="1 1"/>
<path d="M25.6123 154.46L177.47 154.46" stroke="#66F39E" stroke-dasharray="1 1"/>
<path d="M50.0164 68.6007C44.6536 70.8166 38.5718 68.2825 36.3913 62.9904C34.199 57.7101 36.7095 51.5576 42.0724 49.3653C47.3291 47.2084 53.4345 49.7896 55.615 55.0817C57.7955 60.3502 55.2732 66.4438 50.0164 68.6007Z" fill="#66F39E"/>
<path d="M50.0164 174.458C44.6536 176.674 38.5718 174.139 36.3913 168.847C34.199 163.567 36.7095 157.414 42.0724 155.222C47.3291 153.065 53.4345 155.647 55.615 160.939C57.7955 166.207 55.2732 172.301 50.0164 174.458Z" fill="#66F39E"/>
<path d="M160.87 68.6007C155.507 70.8166 149.425 68.2825 147.245 62.9904C145.053 57.7101 147.563 51.5576 152.926 49.3653C158.183 47.2084 164.288 49.7896 166.468 55.0817C168.649 60.3502 166.127 66.4438 160.87 68.6007Z" fill="#66F39E"/>
<path d="M160.87 174.458C155.507 176.674 149.425 174.139 147.245 168.847C145.053 163.567 147.563 157.414 152.926 155.222C158.183 153.065 164.288 155.647 166.468 160.939C168.649 166.207 166.127 172.301 160.87 174.458Z" fill="#66F39E"/>
<path d="M84.98 99.5401C87.8393 99.5401 90.1573 97.2221 90.1573 94.3628C90.1573 91.5035 87.8393 89.1855 84.98 89.1855C82.1207 89.1855 79.8027 91.5035 79.8027 94.3628C79.8027 97.2221 82.1207 99.5401 84.98 99.5401Z" fill="white"/>
<path d="M71.0523 107.882C73.9116 107.882 76.2295 105.564 76.2295 102.705C76.2295 99.8453 73.9116 97.5273 71.0523 97.5273C68.1929 97.5273 65.875 99.8453 65.875 102.705C65.875 105.564 68.1929 107.882 71.0523 107.882Z" fill="white"/>
<path d="M61.8364 121.601C64.6958 121.601 67.0137 119.283 67.0137 116.424C67.0137 113.565 64.6958 111.247 61.8364 111.247C58.9771 111.247 56.6592 113.565 56.6592 116.424C56.6592 119.283 58.9771 121.601 61.8364 121.601Z" fill="white"/>
<path d="M101.541 117.976C104.4 117.976 106.718 115.658 106.718 112.799C106.718 109.94 104.4 107.622 101.541 107.622C98.6812 107.622 96.3633 109.94 96.3633 112.799C96.3633 115.658 98.6812 117.976 101.541 117.976Z" fill="white"/>
<path d="M118.084 99.5401C120.944 99.5401 123.262 97.2221 123.262 94.3628C123.262 91.5035 120.944 89.1855 118.084 89.1855C115.225 89.1855 112.907 91.5035 112.907 94.3628C112.907 97.2221 115.225 99.5401 118.084 99.5401Z" fill="white"/>
<path d="M132.014 107.882C134.873 107.882 137.191 105.564 137.191 102.705C137.191 99.8453 134.873 97.5273 132.014 97.5273C129.155 97.5273 126.837 99.8453 126.837 102.705C126.837 105.564 129.155 107.882 132.014 107.882Z" fill="white"/>
<path d="M141.229 121.601C144.088 121.601 146.406 119.283 146.406 116.424C146.406 113.565 144.088 111.247 141.229 111.247C138.37 111.247 136.052 113.565 136.052 116.424C136.052 119.283 138.37 121.601 141.229 121.601Z" fill="white"/>
<path d="M101.541 117.976C104.4 117.976 106.718 115.658 106.718 112.799C106.718 109.94 104.4 107.622 101.541 107.622C98.6812 107.622 96.3633 109.94 96.3633 112.799C96.3633 115.658 98.6812 117.976 101.541 117.976Z" fill="white"/>
<path d="M103.628 83.275C103.89 83.0781 104.122 82.8456 104.319 82.5837L110.905 86.0412V76.3339L104.329 78.4214C104.137 78.1648 103.91 77.9354 103.655 77.7395L106.302 69.4033H96.7791L99.4258 77.7395C99.1713 77.9343 98.9451 78.1637 98.7524 78.4214L92.1758 76.3339V86.0412L98.7618 82.5837C98.9587 82.8456 99.1912 83.0781 99.4531 83.275L95.7013 94.5879C94.3805 98.5701 97.3457 102.677 101.541 102.677C105.735 102.677 108.7 98.5701 107.38 94.5879L103.628 83.275Z" fill="white"/>
<path d="M109.066 123.109C109.066 123.109 104.258 128.46 103.208 131.725C106.356 131.626 109.184 131.013 112.296 127.764L111.241 139.852C108.376 135.833 105.017 134.101 103.155 134.447C103.343 138.779 103.797 144.012 111.382 144.701C116.675 145.161 120.924 142.561 121.366 139.345C121.891 135.65 118.561 133.205 116.05 137.095C114.088 130.658 119.51 128.518 122.993 132.503C120.311 126.151 120.382 121.638 126.346 117.074C130.625 122.763 130.018 127.464 124.714 132.758C128.168 130.847 133.53 132.857 130.371 139.31C128.722 135.297 125.18 136.193 124.437 139.647C123.941 142.086 125.421 144.956 128.639 145.544C131.28 146.028 135.346 144.225 138.605 137.204C136.772 137.251 135.163 138.177 133.083 139.609L136.502 128.212C137.363 131.411 138.465 133.511 139.631 134.646C140.415 132.344 140.303 130.675 139.602 127.087L146.669 129.603C142.915 134.724 139.278 141.91 136.297 154.46C125.783 152.959 114.013 152.116 101.542 152.116C89.0717 152.116 77.3011 152.96 66.7874 154.46C63.8054 141.909 60.1689 134.723 56.415 129.603L63.4818 127.087C62.78 130.675 62.669 132.344 63.4525 134.646C64.6193 133.511 65.7211 131.411 66.5821 128.212L70.0008 139.609C67.9206 138.176 66.3119 137.251 64.4789 137.204C67.7384 144.225 71.8044 146.027 74.4449 145.544C77.6624 144.956 79.1414 142.086 78.647 139.647C77.9044 136.193 74.3632 135.297 72.7125 139.31C69.5535 132.857 74.9162 130.846 78.3694 132.758C73.0654 127.464 72.458 122.762 76.7376 117.074C82.7015 121.637 82.7727 126.15 80.0914 132.503C83.5739 128.519 88.9963 130.658 87.0335 137.095C84.5229 133.205 81.1932 135.65 81.718 139.345C82.16 142.563 86.4092 145.162 91.7017 144.701C99.2869 144.012 99.7404 138.779 99.929 134.447C98.0667 134.101 94.7077 135.832 91.8431 139.852L90.7884 127.764C93.9002 131.013 96.7292 131.625 99.8756 131.725C98.8261 128.46 94.0175 123.109 94.0175 123.109H109.071H109.066Z" fill="white"/>
</svg>
