<svg xmlns="http://www.w3.org/2000/svg" version="1.1" width="97" height="58">
  <path
    fill="#1d70b8"
    d="M64.05 8.63h7.84v16.78L85.73 8.63h9.65l-13.46 15.4 14.32 23.35h-9.11L76.89 30l-5 5.59v11.78h-7.84V8.63ZM43.45 40.84c1.13 0 2.19-.16 3.16-.49a6.95 6.95 0 0 0 2.54-1.51 7.09 7.09 0 0 0 1.7-2.57c.41-1.04.62-2.27.62-3.68V8.58h7.73v25.19c0 2.16-.4 4.12-1.19 5.86a12.53 12.53 0 0 1-3.27 4.46 14.62 14.62 0 0 1-4.97 2.84c-1.93.67-4.04 1-6.32 1s-4.4-.33-6.32-1a14.95 14.95 0 0 1-5-2.84 12.98 12.98 0 0 1-3.3-4.46 14.39 14.39 0 0 1-1.16-5.86V8.58h7.76V32.6c0 1.41.21 2.63.62 3.68a7.26 7.26 0 0 0 1.68 2.57 7.15 7.15 0 0 0 2.54 1.51c.99.32 2.05.49 3.19.49ZM0 29.81a5.82 5.82 0 0 1 1.85-4.31 6.06 6.06 0 0 1 1.98-1.33 6.02 6.02 0 0 1 4.83 0 6.22 6.22 0 0 1 3.31 3.28 5.92 5.92 0 0 1 0 4.79 6.22 6.22 0 0 1-10.12 1.98A6.13 6.13 0 0 1 0 29.81ZM15.69 49.45l9.35-9.35v5.86l-3.49 3.49h1.41l2.08-2.08v2.08h1V8.57h-1v1.2l-.1-.1-9.64 9.64v-5.86l4.88-4.88h-1.41l-3.47 3.47V8.57h-1v40.85l-.03.03h1.41Zm-.39-28.72 9.74-9.74v5.91l-.03-.03-9.71 9.71v-5.86Zm0 7.28 9.74-9.74v5.86l-9.74 9.74v-5.86Zm0 7.27 9.74-9.74v5.86l-9.74 9.74v-5.86Zm0 7.28 9.74-9.74v5.86l-9.74 9.74v-5.86Z"
  />
</svg>
