<svg width="97" height="58" viewBox="0 0 97 58" fill="none" xmlns="http://www.w3.org/2000/svg">
<line x1="14.7314" y1="12.7417" x2="23.3998" y2="4.07332" stroke="#1D70B8"/>
<line x1="14.4033" y1="19.8708" x2="24.8666" y2="9.40747" stroke="#1D70B8"/>
<line x1="14.5927" y1="27.1413" x2="25.1974" y2="16.5366" stroke="#1D70B8"/>
<line x1="14.625" y1="34.5612" x2="25.3791" y2="23.8071" stroke="#1D70B8"/>
<line x1="14.5839" y1="42.0324" x2="25.3893" y2="31.2271" stroke="#1D70B8"/>
<line x1="14.6005" y1="49.5883" x2="25.4906" y2="38.6983" stroke="#1D70B8"/>
<line x1="14.6298" y1="57.0244" x2="25.4" y2="46.2542" stroke="#1D70B8"/>
<path d="M64.0459 8.62891H71.8827V25.4104L85.7186 8.62891H95.3659L81.9083 24.0322L96.2307 47.3803H87.1238L76.882 30.0043L71.8827 35.5982V47.3803H64.0459V8.62891Z" fill="#1D70B8"/>
<path d="M43.4457 40.841C44.5807 40.841 45.6346 40.6789 46.6074 40.3546C47.5983 40.0123 48.445 39.5079 49.1476 38.8413C49.8682 38.1567 50.4357 37.301 50.8501 36.2741C51.2644 35.2292 51.4716 34.0041 51.4716 32.5989V8.5752H59.2003V33.7609C59.2003 35.9228 58.8039 37.8775 58.0113 39.625C57.2366 41.3725 56.1466 42.8588 54.7414 44.0838C53.3542 45.3089 51.6968 46.2547 49.7691 46.9213C47.8415 47.5879 45.7337 47.9211 43.4457 47.9211C41.1577 47.9211 39.0499 47.5879 37.1222 46.9213C35.1946 46.2547 33.5281 45.3089 32.1229 44.0838C30.7177 42.8588 29.6187 41.3725 28.8261 39.625C28.0514 37.8775 27.6641 35.9228 27.6641 33.7609V8.5752H35.4198V32.5989C35.4198 34.0041 35.6269 35.2292 36.0413 36.2741C36.4557 37.301 37.0141 38.1567 37.7167 38.8413C38.4374 39.5079 39.2841 40.0123 40.2569 40.3546C41.2478 40.6789 42.3107 40.841 43.4457 40.841Z" fill="#1D70B8"/>
<path d="M-0.000976562 29.8135C-0.000976562 28.9695 0.158707 28.1825 0.478074 27.4525C0.820253 26.6997 1.27649 26.0496 1.84679 25.5021C2.41709 24.9318 3.07864 24.4869 3.83143 24.1676C4.60704 23.8254 5.41686 23.6543 6.2609 23.6543C7.10494 23.6543 7.90336 23.8254 8.65616 24.1676C9.40895 24.4869 10.0705 24.9318 10.6408 25.5021C11.2111 26.0496 11.6559 26.6997 11.9753 27.4525C12.3175 28.1825 12.4886 28.9695 12.4886 29.8135C12.4886 30.6804 12.3175 31.4902 11.9753 32.243C11.6559 32.9958 11.2111 33.6573 10.6408 34.2276C10.0705 34.7979 9.40895 35.2428 8.65616 35.5621C7.90336 35.8815 7.10494 36.0412 6.2609 36.0412C5.41686 36.0412 4.60704 35.8815 3.83143 35.5621C3.07864 35.2428 2.41709 34.7979 1.84679 34.2276C1.27649 33.6573 0.820253 32.9958 0.478074 32.243C0.158707 31.4902 -0.000976562 30.6804 -0.000976562 29.8135Z" fill="#1D70B8"/>
<line x1="25.5391" y1="2.75366" x2="25.5391" y2="52.4009" stroke="#1D70B8"/>
<line x1="14.8018" y1="1.75366" x2="14.8018" y2="51.4009" stroke="#1D70B8"/>
<rect x="13.6943" y="0.278564" width="14.8082" height="8.29626" fill="#F2F7FA"/>
<rect x="13.6943" y="49.4475" width="13.2124" height="8.29626" fill="#F2F7FA"/>
</svg>
