<svg width="153" height="148" viewBox="0 0 153 148" fill="none" xmlns="http://www.w3.org/2000/svg">
<rect x="10.7246" y="10.3896" width="131.884" height="126.658" stroke="#66F39E"/>
<path d="M0.737305 31.1899L152.595 31.19" stroke="#66F39E" stroke-dasharray="1 1"/>
<path d="M121.809 0.40332L121.809 147.034" stroke="#66F39E" stroke-dasharray="1 1"/>
<path d="M31.5244 0.40332L31.5244 147.034" stroke="#66F39E" stroke-dasharray="1 1"/>
<path d="M0.737305 116.247L152.595 116.247" stroke="#66F39E" stroke-dasharray="1 1"/>
<path d="M25.1414 30.3874C19.7786 32.6032 13.6968 30.0691 11.5163 24.777C9.32402 19.4967 11.8345 13.3442 17.1974 11.1519C22.4541 8.99499 28.5595 11.5762 30.74 16.8683C32.9205 22.1369 30.3982 28.2304 25.1414 30.3874Z" fill="#66F39E"/>
<path d="M25.1414 136.244C19.7786 138.46 13.6968 135.926 11.5163 130.634C9.32402 125.354 11.8345 119.201 17.1974 117.009C22.4541 114.852 28.5595 117.433 30.74 122.725C32.9205 127.994 30.3982 134.087 25.1414 136.244Z" fill="#66F39E"/>
<path d="M135.995 30.3874C130.632 32.6032 124.55 30.0691 122.37 24.777C120.178 19.4967 122.688 13.3442 128.051 11.1519C133.308 8.99499 139.413 11.5762 141.593 16.8683C143.774 22.1369 141.252 28.2304 135.995 30.3874Z" fill="#66F39E"/>
<path d="M135.995 136.244C130.632 138.46 124.55 135.926 122.37 130.634C120.178 125.354 122.688 119.201 128.051 117.009C133.308 114.852 139.413 117.433 141.593 122.725C143.774 127.994 141.252 134.087 135.995 136.244Z" fill="#66F39E"/>
<path d="M60.105 61.3267C62.9643 61.3267 65.2823 59.0088 65.2823 56.1494C65.2823 53.2901 62.9643 50.9722 60.105 50.9722C57.2457 50.9722 54.9277 53.2901 54.9277 56.1494C54.9277 59.0088 57.2457 61.3267 60.105 61.3267Z" fill="white"/>
<path d="M46.1773 69.6685C49.0366 69.6685 51.3545 67.3506 51.3545 64.4912C51.3545 61.6319 49.0366 59.314 46.1773 59.314C43.3179 59.314 41 61.6319 41 64.4912C41 67.3506 43.3179 69.6685 46.1773 69.6685Z" fill="white"/>
<path d="M36.9614 83.3877C39.8208 83.3877 42.1387 81.0698 42.1387 78.2105C42.1387 75.3511 39.8208 73.0332 36.9614 73.0332C34.1021 73.0332 31.7842 75.3511 31.7842 78.2105C31.7842 81.0698 34.1021 83.3877 36.9614 83.3877Z" fill="white"/>
<path d="M76.6655 79.7627C79.5249 79.7627 81.8428 77.4448 81.8428 74.5855C81.8428 71.7261 79.5249 69.4082 76.6655 69.4082C73.8062 69.4082 71.4883 71.7261 71.4883 74.5855C71.4883 77.4448 73.8062 79.7627 76.6655 79.7627Z" fill="white"/>
<path d="M93.2095 61.3267C96.0688 61.3267 98.3867 59.0088 98.3867 56.1494C98.3867 53.2901 96.0688 50.9722 93.2095 50.9722C90.3502 50.9722 88.0322 53.2901 88.0322 56.1494C88.0322 59.0088 90.3502 61.3267 93.2095 61.3267Z" fill="white"/>
<path d="M107.139 69.6685C109.998 69.6685 112.316 67.3506 112.316 64.4912C112.316 61.6319 109.998 59.314 107.139 59.314C104.28 59.314 101.962 61.6319 101.962 64.4912C101.962 67.3506 104.28 69.6685 107.139 69.6685Z" fill="white"/>
<path d="M116.354 83.3877C119.213 83.3877 121.531 81.0698 121.531 78.2105C121.531 75.3511 119.213 73.0332 116.354 73.0332C113.495 73.0332 111.177 75.3511 111.177 78.2105C111.177 81.0698 113.495 83.3877 116.354 83.3877Z" fill="white"/>
<path d="M76.6655 79.7627C79.5249 79.7627 81.8428 77.4448 81.8428 74.5855C81.8428 71.7261 79.5249 69.4082 76.6655 69.4082C73.8062 69.4082 71.4883 71.7261 71.4883 74.5855C71.4883 77.4448 73.8062 79.7627 76.6655 79.7627Z" fill="white"/>
<path d="M78.753 45.0616C79.0148 44.8647 79.2473 44.6322 79.4443 44.3703L86.0303 47.8278V38.1205L79.4537 40.208C79.262 39.9514 79.0347 39.722 78.7802 39.5261L81.427 31.1899H71.9041L74.5508 39.5261C74.2963 39.721 74.0701 39.9503 73.8774 40.208L67.3008 38.1205V47.8278L73.8868 44.3703C74.0837 44.6322 74.3162 44.8647 74.5781 45.0616L70.8263 56.3745C69.5055 60.3567 72.4707 64.4635 76.6655 64.4635C80.8603 64.4635 83.8255 60.3567 82.5047 56.3745L78.753 45.0616Z" fill="white"/>
<path d="M84.1914 84.8959C84.1914 84.8959 79.3828 90.247 78.3334 93.5118C81.4808 93.4123 84.3087 92.7995 87.4205 89.5505L86.3658 101.638C83.5012 97.6196 80.1422 95.8873 78.2799 96.2339C78.4685 100.566 78.922 105.799 86.5072 106.488C91.7997 106.948 96.049 104.348 96.491 101.132C97.0157 97.4363 93.686 94.9917 91.1754 98.8817C89.2126 92.4445 94.635 90.3047 98.1176 94.29C95.4362 87.9375 95.5075 83.4243 101.471 78.8608C105.75 84.5492 105.143 89.251 99.8395 94.5445C103.293 92.6341 108.655 94.644 105.496 101.097C103.847 97.0834 100.305 97.9799 99.5619 101.433C99.0665 103.873 100.546 106.742 103.764 107.331C106.405 107.815 110.471 106.011 113.73 98.9907C111.897 99.0378 110.288 99.9637 108.208 101.395L111.627 89.9988C112.488 93.1975 113.59 95.2976 114.756 96.4329C115.54 94.1308 115.428 92.4612 114.727 88.8739L121.794 91.3898C118.04 96.5105 114.403 103.697 111.422 116.246C100.908 114.746 89.1383 113.902 76.667 113.902C64.1967 113.902 52.4261 114.747 41.9124 116.246C38.9304 103.696 35.2939 96.5094 31.54 91.3898L38.6068 88.8739C37.905 92.4612 37.794 94.1308 38.5775 96.4329C39.7443 95.2976 40.8461 93.1975 41.7071 89.9988L45.1258 101.395C43.0456 99.9627 41.4369 99.0378 39.6039 98.9907C42.8634 106.011 46.9294 107.814 49.5699 107.331C52.7874 106.742 54.2664 103.873 53.772 101.433C53.0294 97.9799 49.4882 97.0834 47.8375 101.097C44.6785 94.644 50.0412 92.633 53.4944 94.5445C48.1904 89.251 47.583 84.5482 51.8626 78.8608C57.8265 83.4233 57.8977 87.9365 55.2164 94.29C58.6989 90.3057 64.1213 92.4445 62.1585 98.8817C59.6479 94.9917 56.3182 97.4363 56.843 101.132C57.285 104.349 61.5342 106.949 66.8267 106.488C74.4119 105.799 74.8654 100.566 75.054 96.2339C73.1917 95.8873 69.8327 97.6186 66.9681 101.638L65.9134 89.5505C69.0252 92.7995 71.8542 93.4112 75.0006 93.5118C73.9511 90.247 69.1425 84.8959 69.1425 84.8959H84.1956H84.1914Z" fill="white"/>
</svg>
