<svg width="61" height="43" fill="none" xmlns="http://www.w3.org/2000/svg">
  <path
    d="m47.1 2.28 12.97 39.08h-7.99l-2.18-7.08-.11-.36H34.21l-.1.36-2.16 7.08H24.4L37.18 2.28h9.92Zm-5.65 7.9-5.17 16.94-.2.65h11.84l-.2-.65-5.2-16.93-.1-.36h-.86l-.1.36Z"
    stroke="#1D70B8"
  />
  <path
    d="m25.55 1.28.12.35 13.3 40.07.22.66H29.07l-.1-.36-2.2-7.08H12.69L10.52 42l-.1.36H.75l.21-.66 13.1-40.07.12-.35h11.37ZM15.16 26.77h9.13l-4.58-14.91-4.55 14.9Z"
    fill="#1D70B8"
    stroke="#1D70B8"
  />
</svg>
