<svg width="168" height="95" viewBox="0 0 168 95" fill="none" xmlns="http://www.w3.org/2000/svg">
<line x1="0.444336" y1="94.3296" x2="167.329" y2="94.3296" stroke="#FF52EE"/>
<line x1="0.444336" y1="1.26855" x2="167.329" y2="1.26855" stroke="#FF52EE"/>
<path d="M120.654 22.4189C123.644 22.419 126.653 22.742 129.68 23.3877H129.679C132.77 23.9987 135.564 25.14 138.055 26.8135L138.527 27.1367C140.86 28.788 142.771 30.977 144.264 33.6934L144.556 34.2441C145.969 37.0446 146.662 40.5229 146.662 44.6543V71.001C146.662 72.7982 147.121 74.0407 147.945 74.8311C148.891 75.6597 150.195 76.449 151.873 77.1904L152.402 77.4238L152.094 77.9141L144.608 89.7705L144.442 90.0332L144.134 90C141.048 89.6752 138.526 88.8792 136.602 87.582L136.595 87.5781V87.5771C134.874 86.3798 133.427 84.877 132.253 83.0742C131.649 83.7099 130.947 84.3824 130.146 85.0879L130.145 85.0889C129.152 85.9572 127.961 86.7572 126.576 87.4902L126.571 87.4922C125.215 88.1907 123.623 88.7815 121.801 89.2676C119.955 89.7598 117.894 90.0029 115.624 90.0029C112.378 90.0029 109.365 89.4958 106.59 88.4756L106.581 88.4727C103.853 87.4138 101.444 85.9452 99.3613 84.0664C97.279 82.1882 95.6427 80.0205 94.4561 77.5654L94.4551 77.5625C93.264 75.0571 92.67 72.3488 92.6699 69.4443C92.6699 64.1823 94.3062 59.8397 97.6025 56.4609C100.889 53.092 105.41 50.9979 111.119 50.1475H111.121L129.136 47.5146V46.75C129.136 43.9855 128.295 41.8511 126.655 40.2861C125.035 38.74 122.338 37.9092 118.438 37.9092C116.843 37.9092 115.225 38.1035 113.584 38.4941L113.573 38.4971C111.91 38.8534 110.308 39.2687 108.766 39.7432C107.271 40.2153 105.878 40.7648 104.585 41.3916L104.574 41.3975C103.259 41.9952 102.104 42.5326 101.11 43.0098L100.671 43.2207L100.449 42.7871L93.9824 30.1523L93.7617 29.7217L94.1846 29.4873C97.8924 27.4319 101.999 25.7416 106.501 24.415H106.502C111.06 23.0841 115.778 22.4189 120.654 22.4189ZM117.444 62.752L117.438 62.7529C115.476 63.0608 113.936 63.7466 112.786 64.7852L112.779 64.791C111.667 65.7597 111.095 67.0911 111.095 68.8457C111.095 70.7817 111.795 72.4505 113.219 73.876L113.487 74.123C114.874 75.3187 116.88 75.9502 119.576 75.9502C122.589 75.9502 124.906 75.0836 126.588 73.4014C128.275 71.7142 129.136 69.4743 129.136 66.6299V60.7559L117.444 62.752Z" stroke="white"/>
<path d="M67.4724 74.7059H35.6772L30.8271 90.6334H12.3848L40.4675 4.76855H63.2809L91.7828 90.6334H72.3824L67.4724 74.7059ZM40.3477 59.3772H62.8019L51.6646 23.0912H51.4251L40.3477 59.3772Z" fill="#CA357C"/>
</svg>
