<svg width="480" height="320" viewBox="0 0 480 320" fill="none" xmlns="http://www.w3.org/2000/svg">
<g clip-path="url(#clip0_1812_16900)">
<rect width="480" height="320" fill="#98285D"/>
<path d="M240.213 45.0668C372.88 45.0668 480.427 154.643 480.427 289.813C480.427 424.982 372.88 534.558 240.213 534.558C107.547 534.558 2.58567e-06 424.982 5.77526e-06 289.813C8.96485e-06 154.643 107.547 45.0668 240.213 45.0668Z" fill="#FF52EE"/>
<path d="M158.838 203.896H110.837V185.638H178.689V204.161L141.842 280.844H119.269L158.838 203.896ZM222.871 184.31C225.837 184.31 228.758 184.554 231.635 185.041C234.512 185.483 237.234 186.191 239.801 187.165C242.368 188.139 244.736 189.378 246.905 190.883C249.118 192.344 251.021 194.092 252.614 196.128C254.208 198.12 255.447 200.399 256.332 202.966C257.218 205.533 257.66 208.388 257.66 211.531C257.66 213.213 257.439 214.983 256.996 216.842C256.554 218.657 255.801 220.449 254.739 222.22C253.721 223.99 252.371 225.672 250.689 227.266C249.051 228.815 247.038 230.12 244.647 231.183C247.392 232.289 249.76 233.661 251.751 235.299C253.743 236.892 255.381 238.685 256.664 240.677C257.948 242.624 258.877 244.682 259.453 246.851C260.072 249.02 260.382 251.189 260.382 253.357C260.382 258.359 259.32 262.674 257.195 266.304C255.115 269.933 252.327 272.921 248.83 275.267C245.334 277.612 241.328 279.361 236.813 280.512C232.299 281.618 227.651 282.171 222.871 282.171C218.091 282.171 213.443 281.618 208.929 280.512C204.458 279.361 200.475 277.612 196.978 275.267C193.482 272.921 190.671 269.933 188.547 266.304C186.422 262.674 185.36 258.359 185.36 253.357C185.36 251.189 185.67 249.02 186.289 246.851C186.909 244.682 187.861 242.624 189.144 240.677C190.472 238.685 192.11 236.892 194.057 235.299C196.049 233.661 198.395 232.289 201.095 231.183C198.705 230.12 196.691 228.815 195.053 227.266C193.415 225.672 192.065 223.99 191.003 222.22C189.985 220.449 189.233 218.657 188.746 216.842C188.303 214.983 188.082 213.213 188.082 211.531C188.082 206.972 189.056 202.988 191.003 199.58C192.951 196.172 195.54 193.339 198.771 191.082C202.046 188.825 205.764 187.143 209.925 186.036C214.085 184.886 218.401 184.31 222.871 184.31ZM222.871 223.88C225.128 223.88 227.164 223.636 228.979 223.149C230.838 222.618 232.409 221.866 233.693 220.892C235.021 219.874 236.039 218.657 236.747 217.24C237.455 215.78 237.809 214.098 237.809 212.195C237.809 210.38 237.433 208.764 236.68 207.348C235.972 205.932 234.954 204.737 233.626 203.763C232.299 202.745 230.705 201.97 228.846 201.439C227.032 200.908 225.04 200.643 222.871 200.643C220.702 200.643 218.688 200.908 216.829 201.439C215.015 201.97 213.443 202.745 212.116 203.763C210.788 204.737 209.748 205.932 208.995 207.348C208.287 208.764 207.933 210.38 207.933 212.195C207.933 214.098 208.287 215.78 208.995 217.24C209.703 218.657 210.699 219.874 211.983 220.892C213.311 221.866 214.882 222.618 216.697 223.149C218.556 223.636 220.614 223.88 222.871 223.88ZM222.871 265.905C225.394 265.905 227.695 265.596 229.776 264.976C231.9 264.356 233.715 263.471 235.22 262.32C236.725 261.169 237.898 259.797 238.739 258.204C239.58 256.611 240 254.818 240 252.826C240 250.879 239.58 249.108 238.739 247.515C237.898 245.877 236.725 244.483 235.22 243.332C233.715 242.137 231.9 241.23 229.776 240.61C227.695 239.946 225.394 239.614 222.871 239.614C220.348 239.614 218.047 239.946 215.966 240.61C213.886 241.23 212.071 242.137 210.522 243.332C209.017 244.483 207.844 245.877 207.003 247.515C206.163 249.108 205.742 250.879 205.742 252.826C205.742 254.818 206.163 256.611 207.003 258.204C207.844 259.797 209.017 261.169 210.522 262.32C212.071 263.471 213.886 264.356 215.966 264.976C218.047 265.596 220.348 265.905 222.871 265.905ZM314.257 207.282C314.257 210.468 313.66 213.478 312.465 216.311C311.27 219.099 309.632 221.534 307.552 223.614C305.516 225.65 303.103 227.266 300.315 228.461C297.526 229.656 294.517 230.253 291.286 230.253C288.01 230.253 284.956 229.656 282.124 228.461C279.335 227.266 276.901 225.65 274.821 223.614C272.74 221.534 271.103 219.099 269.908 216.311C268.713 213.478 268.115 210.468 268.115 207.282C268.115 204.095 268.713 201.107 269.908 198.319C271.103 195.53 272.74 193.096 274.821 191.016C276.901 188.935 279.335 187.298 282.124 186.103C284.956 184.908 288.01 184.31 291.286 184.31C294.517 184.31 297.526 184.908 300.315 186.103C303.103 187.298 305.516 188.935 307.552 191.016C309.632 193.096 311.27 195.53 312.465 198.319C313.66 201.107 314.257 204.095 314.257 207.282ZM281.991 207.282C281.991 208.654 282.212 209.937 282.655 211.132C283.097 212.283 283.717 213.301 284.514 214.186C285.31 215.072 286.262 215.78 287.369 216.311C288.519 216.798 289.759 217.041 291.086 217.041C292.459 217.041 293.72 216.798 294.871 216.311C296.022 215.78 296.995 215.072 297.792 214.186C298.633 213.301 299.275 212.283 299.717 211.132C300.16 209.937 300.381 208.654 300.381 207.282C300.381 205.91 300.16 204.648 299.717 203.497C299.275 202.302 298.633 201.262 297.792 200.377C296.995 199.492 296.022 198.806 294.871 198.319C293.72 197.788 292.459 197.522 291.086 197.522C289.759 197.522 288.519 197.788 287.369 198.319C286.262 198.806 285.31 199.492 284.514 200.377C283.717 201.262 283.097 202.302 282.655 203.497C282.212 204.648 281.991 205.91 281.991 207.282ZM340.216 185.638H355.951L296.796 280.844H280.929L340.216 185.638ZM368.897 259.2C368.897 262.387 368.3 265.396 367.105 268.229C365.91 271.018 364.272 273.452 362.192 275.532C360.156 277.568 357.744 279.184 354.955 280.379C352.167 281.574 349.157 282.171 345.926 282.171C342.651 282.171 339.597 281.574 336.764 280.379C333.975 279.184 331.541 277.568 329.461 275.532C327.381 273.452 325.743 271.018 324.548 268.229C323.397 265.396 322.822 262.387 322.822 259.2C322.822 256.013 323.397 253.025 324.548 250.237C325.743 247.449 327.381 245.014 329.461 242.934C331.541 240.854 333.975 239.216 336.764 238.021C339.597 236.826 342.651 236.228 345.926 236.228C349.157 236.228 352.167 236.826 354.955 238.021C357.744 239.216 360.156 240.854 362.192 242.934C364.272 245.014 365.91 247.449 367.105 250.237C368.3 253.025 368.897 256.013 368.897 259.2ZM336.697 259.2C336.697 260.572 336.919 261.856 337.361 263.051C337.804 264.246 338.424 265.286 339.22 266.171C340.017 267.056 340.969 267.764 342.075 268.296C343.182 268.782 344.421 269.026 345.793 269.026C347.165 269.026 348.427 268.782 349.577 268.296C350.728 267.764 351.702 267.056 352.499 266.171C353.295 265.286 353.915 264.246 354.358 263.051C354.8 261.856 355.022 260.572 355.022 259.2C355.022 257.828 354.8 256.566 354.358 255.416C353.915 254.22 353.295 253.18 352.499 252.295C351.702 251.41 350.728 250.724 349.577 250.237C348.427 249.706 347.165 249.44 345.793 249.44C344.421 249.44 343.182 249.706 342.075 250.237C340.969 250.724 340.017 251.41 339.22 252.295C338.424 253.18 337.804 254.22 337.361 255.416C336.919 256.566 336.697 257.828 336.697 259.2Z" fill="white"/>
</g>
<defs>
<clipPath id="clip0_1812_16900">
<rect width="480" height="320" fill="white"/>
</clipPath>
</defs>
</svg>
