<svg width="480" height="320" viewBox="0 0 480 320" fill="none" xmlns="http://www.w3.org/2000/svg">
<rect width="480" height="320" fill="#F4F8FB"/>
<path d="M25.6816 299.739L25.6817 29.5297" stroke="#CECECE" stroke-width="0.993417" stroke-miterlimit="10" stroke-dasharray="1.99 1.99"/>
<path d="M132.967 299.739L132.967 29.5297" stroke="#CECECE" stroke-width="0.993417" stroke-miterlimit="10" stroke-dasharray="1.99 1.99"/>
<path d="M333.643 299.739L333.643 29.5297" stroke="#CECECE" stroke-width="0.993417" stroke-miterlimit="10" stroke-dasharray="1.99 1.99"/>
<path d="M457.559 299.739L457.559 29.5297" stroke="#CECECE" stroke-width="0.993417" stroke-miterlimit="10" stroke-dasharray="1.99 1.99"/>
<path d="M225.09 299.739L225.09 29.5297" stroke="#CECECE" stroke-width="0.993417" stroke-miterlimit="10" stroke-dasharray="1.99 1.99"/>
<path d="M26.416 218.03H457.559" stroke="#CECECE" stroke-width="0.993417" stroke-miterlimit="10"/>
<path d="M26.416 154.452H457.559" stroke="#CECECE" stroke-width="0.993417" stroke-miterlimit="10"/>
<path d="M26.416 90.8733H457.559" stroke="#CECECE" stroke-width="0.993417" stroke-miterlimit="10"/>
<path d="M26.416 29.2815H457.559" stroke="#CECECE" stroke-width="0.993417" stroke-miterlimit="10"/>
<path d="M160.789 180.529C160.789 178.334 162.568 176.555 164.763 176.555H174.697C176.892 176.555 178.671 178.334 178.671 180.529V279.871H160.789V180.529Z" fill="#1D70B8"/>
<path d="M184.635 112.977C184.635 110.782 186.414 109.003 188.608 109.003H196.556C198.75 109.003 200.529 110.782 200.529 112.977V279.871H184.635V112.977Z" fill="#1D70B8"/>
<path d="M206.486 59.3328C206.486 57.1382 208.265 55.3591 210.46 55.3591H218.407C220.602 55.3591 222.381 57.1382 222.381 59.3328V279.871H206.486V59.3328Z" fill="#1D70B8"/>
<path d="M228.338 73.2403C228.338 71.0457 230.117 69.2666 232.312 69.2666H240.259C242.453 69.2666 244.233 71.0457 244.233 73.2403V279.871H228.338V73.2403Z" fill="#1D70B8"/>
<path d="M93.2324 250.068C93.2324 247.874 95.0115 246.094 97.2061 246.094H105.153C107.348 246.094 109.127 247.874 109.127 250.068V279.871H93.2324V250.068Z" fill="#1D70B8"/>
<path d="M115.09 230.2C115.09 228.005 116.869 226.226 119.064 226.226H127.011C129.205 226.226 130.985 228.005 130.985 230.2V279.871H115.09V230.2Z" fill="#1D70B8"/>
<path d="M136.949 212.319C136.949 210.124 138.728 208.345 140.923 208.345H150.857C153.052 208.345 154.831 210.124 154.831 212.319V279.871H136.949V212.319Z" fill="#1D70B8"/>
<path d="M25.6816 273.91C25.6816 271.716 27.4607 269.937 29.6553 269.937H37.6026C39.7972 269.937 41.5763 271.716 41.5763 273.91V279.871H25.6816V273.91Z" fill="#1D70B8"/>
<path d="M47.5352 267.95C47.5352 265.756 49.3142 263.977 51.5088 263.977H61.443C63.6376 263.977 65.4167 265.756 65.4167 267.95V279.871H47.5352V267.95Z" fill="#1D70B8"/>
<path d="M71.3809 261.99C71.3809 259.795 73.1599 258.016 75.3545 258.016H83.3019C85.4965 258.016 87.2755 259.795 87.2755 261.99V279.871H71.3809V261.99Z" fill="#1D70B8"/>
<path d="M250.191 103.043C250.191 100.848 251.97 99.0693 254.165 99.0693H262.112C264.307 99.0693 266.086 100.848 266.086 103.043V279.871H250.191V103.043Z" fill="#1D70B8"/>
<path d="M233.118 289.465V297.812H231.389V292.294H229.876V290.769H230.248C230.497 290.769 230.698 290.747 230.854 290.705C231.013 290.658 231.137 290.588 231.226 290.495C231.315 290.402 231.375 290.284 231.406 290.14C231.438 289.992 231.453 289.816 231.453 289.61V289.465H233.118ZM237.495 290.908C237.266 290.908 237.066 290.945 236.896 291.019C236.725 291.093 236.583 291.195 236.471 291.327C236.358 291.459 236.275 291.615 236.22 291.793C236.166 291.968 236.139 292.158 236.139 292.363L234.41 292.206C234.414 291.748 234.495 291.343 234.655 290.99C234.814 290.633 235.031 290.334 235.306 290.093C235.582 289.849 235.906 289.665 236.279 289.54C236.655 289.412 237.064 289.348 237.507 289.348C237.968 289.348 238.39 289.418 238.77 289.558C239.154 289.694 239.482 289.886 239.754 290.134C240.025 290.382 240.235 290.681 240.382 291.031C240.534 291.376 240.609 291.756 240.609 292.171C240.609 292.625 240.518 293.05 240.336 293.446C240.157 293.838 239.918 294.203 239.62 294.54C239.321 294.874 238.977 295.181 238.589 295.46C238.201 295.736 237.802 295.984 237.39 296.205L237.233 296.287H240.714V297.812H234.625V296.298C234.94 296.128 235.26 295.945 235.586 295.751C235.916 295.557 236.234 295.355 236.54 295.146C236.851 294.932 237.144 294.711 237.419 294.482C237.695 294.253 237.934 294.017 238.135 293.772C238.341 293.524 238.504 293.27 238.624 293.01C238.745 292.746 238.805 292.474 238.805 292.195C238.805 292.036 238.778 291.878 238.723 291.723C238.669 291.568 238.587 291.43 238.479 291.31C238.374 291.19 238.238 291.093 238.071 291.019C237.908 290.945 237.716 290.908 237.495 290.908ZM242.029 296.811C242.029 296.663 242.059 296.523 242.117 296.391C242.179 296.256 242.26 296.137 242.361 296.036C242.462 295.936 242.58 295.856 242.716 295.798C242.852 295.736 242.996 295.705 243.147 295.705C243.298 295.705 243.442 295.736 243.578 295.798C243.717 295.856 243.838 295.936 243.939 296.036C244.04 296.137 244.119 296.256 244.177 296.391C244.239 296.523 244.27 296.663 244.27 296.811C244.27 296.966 244.239 297.111 244.177 297.247C244.119 297.383 244.04 297.501 243.939 297.602C243.838 297.703 243.717 297.783 243.578 297.841C243.442 297.899 243.298 297.928 243.147 297.928C242.996 297.928 242.852 297.899 242.716 297.841C242.58 297.783 242.462 297.703 242.361 297.602C242.26 297.501 242.179 297.383 242.117 297.247C242.059 297.111 242.029 296.966 242.029 296.811ZM242.029 292.695C242.029 292.54 242.059 292.395 242.117 292.259C242.179 292.123 242.26 292.005 242.361 291.904C242.462 291.803 242.58 291.723 242.716 291.665C242.852 291.607 242.996 291.578 243.147 291.578C243.298 291.578 243.442 291.607 243.578 291.665C243.717 291.723 243.838 291.803 243.939 291.904C244.04 292.005 244.119 292.123 244.177 292.259C244.239 292.395 244.27 292.54 244.27 292.695C244.27 292.847 244.239 292.99 244.177 293.126C244.119 293.262 244.04 293.382 243.939 293.487C243.838 293.588 243.717 293.669 243.578 293.731C243.442 293.79 243.298 293.819 243.147 293.819C242.996 293.819 242.852 293.79 242.716 293.731C242.58 293.669 242.462 293.588 242.361 293.487C242.26 293.382 242.179 293.262 242.117 293.126C242.059 292.99 242.029 292.847 242.029 292.695ZM247.245 293.76C247.245 294.114 247.272 294.451 247.326 294.773C247.381 295.092 247.468 295.373 247.588 295.617C247.713 295.862 247.875 296.056 248.077 296.199C248.279 296.343 248.529 296.415 248.828 296.415C249.127 296.415 249.377 296.343 249.579 296.199C249.781 296.056 249.942 295.862 250.062 295.617C250.186 295.373 250.274 295.092 250.324 294.773C250.378 294.451 250.406 294.114 250.406 293.76V293.533C250.406 293.18 250.378 292.843 250.324 292.521C250.274 292.199 250.186 291.915 250.062 291.671C249.942 291.426 249.781 291.232 249.579 291.089C249.377 290.945 249.127 290.873 248.828 290.873C248.529 290.873 248.279 290.945 248.077 291.089C247.875 291.232 247.713 291.426 247.588 291.671C247.468 291.915 247.381 292.199 247.326 292.521C247.272 292.843 247.245 293.18 247.245 293.533V293.76ZM252.169 293.65C252.169 293.991 252.144 294.335 252.094 294.68C252.047 295.026 251.969 295.357 251.861 295.676C251.756 295.994 251.618 296.293 251.448 296.572C251.277 296.847 251.067 297.088 250.819 297.294C250.571 297.496 250.281 297.655 249.952 297.771C249.626 297.887 249.251 297.946 248.828 297.946C248.409 297.946 248.035 297.887 247.705 297.771C247.375 297.655 247.086 297.496 246.837 297.294C246.593 297.088 246.385 296.847 246.215 296.572C246.044 296.296 245.904 296 245.796 295.681C245.691 295.363 245.613 295.031 245.563 294.686C245.516 294.341 245.493 293.995 245.493 293.65C245.493 293.308 245.516 292.965 245.563 292.62C245.613 292.274 245.691 291.942 245.796 291.624C245.904 291.306 246.044 291.009 246.215 290.734C246.385 290.454 246.593 290.214 246.837 290.012C247.086 289.806 247.373 289.645 247.699 289.529C248.029 289.408 248.405 289.348 248.828 289.348C249.251 289.348 249.626 289.408 249.952 289.529C250.281 289.645 250.571 289.806 250.819 290.012C251.067 290.214 251.277 290.454 251.448 290.734C251.618 291.009 251.756 291.306 251.861 291.624C251.969 291.942 252.047 292.274 252.094 292.62C252.144 292.965 252.169 293.308 252.169 293.65ZM254.928 293.76C254.928 294.114 254.956 294.451 255.01 294.773C255.064 295.092 255.151 295.373 255.272 295.617C255.396 295.862 255.559 296.056 255.761 296.199C255.963 296.343 256.213 296.415 256.512 296.415C256.81 296.415 257.061 296.343 257.263 296.199C257.464 296.056 257.625 295.862 257.746 295.617C257.87 295.373 257.957 295.092 258.008 294.773C258.062 294.451 258.089 294.114 258.089 293.76V293.533C258.089 293.18 258.062 292.843 258.008 292.521C257.957 292.199 257.87 291.915 257.746 291.671C257.625 291.426 257.464 291.232 257.263 291.089C257.061 290.945 256.81 290.873 256.512 290.873C256.213 290.873 255.963 290.945 255.761 291.089C255.559 291.232 255.396 291.426 255.272 291.671C255.151 291.915 255.064 292.199 255.01 292.521C254.956 292.843 254.928 293.18 254.928 293.533V293.76ZM259.853 293.65C259.853 293.991 259.828 294.335 259.777 294.68C259.731 295.026 259.653 295.357 259.544 295.676C259.439 295.994 259.302 296.293 259.131 296.572C258.96 296.847 258.751 297.088 258.502 297.294C258.254 297.496 257.965 297.655 257.635 297.771C257.309 297.887 256.935 297.946 256.512 297.946C256.093 297.946 255.718 297.887 255.388 297.771C255.058 297.655 254.769 297.496 254.521 297.294C254.276 297.088 254.069 296.847 253.898 296.572C253.727 296.296 253.588 296 253.479 295.681C253.374 295.363 253.297 295.031 253.246 294.686C253.2 294.341 253.176 293.995 253.176 293.65C253.176 293.308 253.2 292.965 253.246 292.62C253.297 292.274 253.374 291.942 253.479 291.624C253.588 291.306 253.727 291.009 253.898 290.734C254.069 290.454 254.276 290.214 254.521 290.012C254.769 289.806 255.056 289.645 255.382 289.529C255.712 289.408 256.089 289.348 256.512 289.348C256.935 289.348 257.309 289.408 257.635 289.529C257.965 289.645 258.254 289.806 258.502 290.012C258.751 290.214 258.96 290.454 259.131 290.734C259.302 291.009 259.439 291.306 259.544 291.624C259.653 291.942 259.731 292.274 259.777 292.62C259.828 292.965 259.853 293.308 259.853 293.65Z" fill="#0B0C0C"/>
<path d="M340.368 289.465V297.812H338.639V292.294H337.126V290.769H337.498C337.747 290.769 337.948 290.747 338.104 290.705C338.263 290.658 338.387 290.588 338.476 290.495C338.565 290.402 338.626 290.284 338.657 290.14C338.688 289.992 338.703 289.816 338.703 289.61V289.465H340.368ZM343.22 295.262C343.282 295.46 343.37 295.633 343.482 295.78C343.595 295.924 343.725 296.044 343.872 296.141C344.023 296.234 344.186 296.304 344.361 296.351C344.54 296.393 344.724 296.415 344.914 296.415C345.178 296.415 345.401 296.384 345.583 296.322C345.77 296.256 345.919 296.172 346.032 296.071C346.148 295.967 346.231 295.85 346.282 295.722C346.332 295.59 346.358 295.456 346.358 295.32C346.358 294.991 346.22 294.731 345.944 294.54C345.673 294.346 345.254 294.249 344.687 294.249H344.221V292.841H344.576C345.089 292.841 345.488 292.757 345.775 292.591C346.067 292.424 346.212 292.169 346.212 291.828C346.212 291.681 346.179 291.549 346.113 291.432C346.047 291.312 345.956 291.211 345.84 291.129C345.727 291.048 345.591 290.986 345.432 290.943C345.277 290.897 345.108 290.873 344.926 290.873C344.716 290.873 344.524 290.902 344.349 290.961C344.179 291.019 344.025 291.098 343.89 291.199C343.754 291.3 343.635 291.419 343.534 291.554C343.437 291.69 343.36 291.834 343.302 291.985L341.812 291.386C341.901 291.06 342.048 290.771 342.254 290.518C342.46 290.266 342.7 290.055 342.976 289.884C343.255 289.709 343.562 289.577 343.895 289.488C344.229 289.395 344.569 289.348 344.914 289.348C345.345 289.348 345.744 289.401 346.113 289.505C346.482 289.61 346.802 289.764 347.074 289.965C347.349 290.163 347.564 290.408 347.72 290.699C347.875 290.99 347.952 291.322 347.952 291.694C347.952 291.915 347.916 292.123 347.842 292.317C347.772 292.507 347.675 292.68 347.551 292.835C347.431 292.986 347.287 293.116 347.12 293.225C346.953 293.334 346.775 293.417 346.585 293.475C346.798 293.522 346.998 293.599 347.184 293.708C347.37 293.817 347.533 293.953 347.673 294.116C347.813 294.279 347.921 294.467 347.999 294.68C348.081 294.894 348.121 295.126 348.121 295.379C348.121 295.763 348.038 296.112 347.871 296.426C347.708 296.741 347.483 297.008 347.196 297.23C346.909 297.451 346.569 297.624 346.177 297.748C345.789 297.868 345.368 297.928 344.914 297.928C344.514 297.928 344.13 297.878 343.761 297.777C343.393 297.672 343.061 297.525 342.766 297.334C342.471 297.14 342.223 296.906 342.021 296.63C341.819 296.351 341.683 296.036 341.614 295.687L343.22 295.262ZM349.326 296.811C349.326 296.663 349.355 296.523 349.413 296.391C349.476 296.256 349.557 296.137 349.658 296.036C349.759 295.936 349.877 295.856 350.013 295.798C350.149 295.736 350.292 295.705 350.444 295.705C350.595 295.705 350.739 295.736 350.875 295.798C351.014 295.856 351.135 295.936 351.235 296.036C351.336 296.137 351.416 296.256 351.474 296.391C351.536 296.523 351.567 296.663 351.567 296.811C351.567 296.966 351.536 297.111 351.474 297.247C351.416 297.383 351.336 297.501 351.235 297.602C351.135 297.703 351.014 297.783 350.875 297.841C350.739 297.899 350.595 297.928 350.444 297.928C350.292 297.928 350.149 297.899 350.013 297.841C349.877 297.783 349.759 297.703 349.658 297.602C349.557 297.501 349.476 297.383 349.413 297.247C349.355 297.111 349.326 296.966 349.326 296.811ZM349.326 292.695C349.326 292.54 349.355 292.395 349.413 292.259C349.476 292.123 349.557 292.005 349.658 291.904C349.759 291.803 349.877 291.723 350.013 291.665C350.149 291.607 350.292 291.578 350.444 291.578C350.595 291.578 350.739 291.607 350.875 291.665C351.014 291.723 351.135 291.803 351.235 291.904C351.336 292.005 351.416 292.123 351.474 292.259C351.536 292.395 351.567 292.54 351.567 292.695C351.567 292.847 351.536 292.99 351.474 293.126C351.416 293.262 351.336 293.382 351.235 293.487C351.135 293.588 351.014 293.669 350.875 293.731C350.739 293.79 350.595 293.819 350.444 293.819C350.292 293.819 350.149 293.79 350.013 293.731C349.877 293.669 349.759 293.588 349.658 293.487C349.557 293.382 349.476 293.262 349.413 293.126C349.355 292.99 349.326 292.847 349.326 292.695ZM354.542 293.76C354.542 294.114 354.569 294.451 354.623 294.773C354.677 295.092 354.765 295.373 354.885 295.617C355.009 295.862 355.172 296.056 355.374 296.199C355.576 296.343 355.826 296.415 356.125 296.415C356.424 296.415 356.674 296.343 356.876 296.199C357.078 296.056 357.239 295.862 357.359 295.617C357.483 295.373 357.57 295.092 357.621 294.773C357.675 294.451 357.702 294.114 357.702 293.76V293.533C357.702 293.18 357.675 292.843 357.621 292.521C357.57 292.199 357.483 291.915 357.359 291.671C357.239 291.426 357.078 291.232 356.876 291.089C356.674 290.945 356.424 290.873 356.125 290.873C355.826 290.873 355.576 290.945 355.374 291.089C355.172 291.232 355.009 291.426 354.885 291.671C354.765 291.915 354.677 292.199 354.623 292.521C354.569 292.843 354.542 293.18 354.542 293.533V293.76ZM359.466 293.65C359.466 293.991 359.441 294.335 359.39 294.68C359.344 295.026 359.266 295.357 359.158 295.676C359.053 295.994 358.915 296.293 358.744 296.572C358.573 296.847 358.364 297.088 358.116 297.294C357.867 297.496 357.578 297.655 357.248 297.771C356.922 297.887 356.548 297.946 356.125 297.946C355.706 297.946 355.331 297.887 355.001 297.771C354.672 297.655 354.383 297.496 354.134 297.294C353.89 297.088 353.682 296.847 353.511 296.572C353.341 296.296 353.201 296 353.092 295.681C352.987 295.363 352.91 295.031 352.859 294.686C352.813 294.341 352.79 293.995 352.79 293.65C352.79 293.308 352.813 292.965 352.859 292.62C352.91 292.274 352.987 291.942 353.092 291.624C353.201 291.306 353.341 291.009 353.511 290.734C353.682 290.454 353.89 290.214 354.134 290.012C354.383 289.806 354.67 289.645 354.996 289.529C355.325 289.408 355.702 289.348 356.125 289.348C356.548 289.348 356.922 289.408 357.248 289.529C357.578 289.645 357.867 289.806 358.116 290.012C358.364 290.214 358.573 290.454 358.744 290.734C358.915 291.009 359.053 291.306 359.158 291.624C359.266 291.942 359.344 292.274 359.39 292.62C359.441 292.965 359.466 293.308 359.466 293.65ZM362.225 293.76C362.225 294.114 362.252 294.451 362.307 294.773C362.361 295.092 362.448 295.373 362.569 295.617C362.693 295.862 362.856 296.056 363.057 296.199C363.259 296.343 363.51 296.415 363.808 296.415C364.107 296.415 364.357 296.343 364.559 296.199C364.761 296.056 364.922 295.862 365.042 295.617C365.167 295.373 365.254 295.092 365.304 294.773C365.359 294.451 365.386 294.114 365.386 293.76V293.533C365.386 293.18 365.359 292.843 365.304 292.521C365.254 292.199 365.167 291.915 365.042 291.671C364.922 291.426 364.761 291.232 364.559 291.089C364.357 290.945 364.107 290.873 363.808 290.873C363.51 290.873 363.259 290.945 363.057 291.089C362.856 291.232 362.693 291.426 362.569 291.671C362.448 291.915 362.361 292.199 362.307 292.521C362.252 292.843 362.225 293.18 362.225 293.533V293.76ZM367.149 293.65C367.149 293.991 367.124 294.335 367.074 294.68C367.027 295.026 366.95 295.357 366.841 295.676C366.736 295.994 366.598 296.293 366.428 296.572C366.257 296.847 366.047 297.088 365.799 297.294C365.551 297.496 365.262 297.655 364.932 297.771C364.606 297.887 364.231 297.946 363.808 297.946C363.389 297.946 363.015 297.887 362.685 297.771C362.355 297.655 362.066 297.496 361.818 297.294C361.573 297.088 361.366 296.847 361.195 296.572C361.024 296.296 360.884 296 360.776 295.681C360.671 295.363 360.593 295.031 360.543 294.686C360.496 294.341 360.473 293.995 360.473 293.65C360.473 293.308 360.496 292.965 360.543 292.62C360.593 292.274 360.671 291.942 360.776 291.624C360.884 291.306 361.024 291.009 361.195 290.734C361.366 290.454 361.573 290.214 361.818 290.012C362.066 289.806 362.353 289.645 362.679 289.529C363.009 289.408 363.385 289.348 363.808 289.348C364.231 289.348 364.606 289.408 364.932 289.529C365.262 289.645 365.551 289.806 365.799 290.012C366.047 290.214 366.257 290.454 366.428 290.734C366.598 291.009 366.736 291.306 366.841 291.624C366.95 291.942 367.027 292.274 367.074 292.62C367.124 292.965 367.149 293.308 367.149 293.65Z" fill="#0B0C0C"/>
<path d="M139.208 289.465V297.812H137.479V292.294H135.966V290.769H136.338C136.586 290.769 136.788 290.747 136.943 290.705C137.103 290.658 137.227 290.588 137.316 290.495C137.405 290.402 137.465 290.284 137.496 290.14C137.527 289.992 137.543 289.816 137.543 289.61V289.465H139.208ZM143.608 289.465V297.812H141.879V292.294H140.366V290.769H140.739C140.987 290.769 141.189 290.747 141.344 290.705C141.503 290.658 141.627 290.588 141.716 290.495C141.806 290.402 141.866 290.284 141.897 290.14C141.928 289.992 141.943 289.816 141.943 289.61V289.465H143.608ZM145.186 296.811C145.186 296.663 145.215 296.523 145.273 296.391C145.335 296.256 145.417 296.137 145.517 296.036C145.618 295.936 145.737 295.856 145.873 295.798C146.008 295.736 146.152 295.705 146.303 295.705C146.455 295.705 146.598 295.736 146.734 295.798C146.874 295.856 146.994 295.936 147.095 296.036C147.196 296.137 147.275 296.256 147.334 296.391C147.396 296.523 147.427 296.663 147.427 296.811C147.427 296.966 147.396 297.111 147.334 297.247C147.275 297.383 147.196 297.501 147.095 297.602C146.994 297.703 146.874 297.783 146.734 297.841C146.598 297.899 146.455 297.928 146.303 297.928C146.152 297.928 146.008 297.899 145.873 297.841C145.737 297.783 145.618 297.703 145.517 297.602C145.417 297.501 145.335 297.383 145.273 297.247C145.215 297.111 145.186 296.966 145.186 296.811ZM145.186 292.695C145.186 292.54 145.215 292.395 145.273 292.259C145.335 292.123 145.417 292.005 145.517 291.904C145.618 291.803 145.737 291.723 145.873 291.665C146.008 291.607 146.152 291.578 146.303 291.578C146.455 291.578 146.598 291.607 146.734 291.665C146.874 291.723 146.994 291.803 147.095 291.904C147.196 292.005 147.275 292.123 147.334 292.259C147.396 292.395 147.427 292.54 147.427 292.695C147.427 292.847 147.396 292.99 147.334 293.126C147.275 293.262 147.196 293.382 147.095 293.487C146.994 293.588 146.874 293.669 146.734 293.731C146.598 293.79 146.455 293.819 146.303 293.819C146.152 293.819 146.008 293.79 145.873 293.731C145.737 293.669 145.618 293.588 145.517 293.487C145.417 293.382 145.335 293.262 145.273 293.126C145.215 292.99 145.186 292.847 145.186 292.695ZM150.401 293.76C150.401 294.114 150.428 294.451 150.483 294.773C150.537 295.092 150.624 295.373 150.745 295.617C150.869 295.862 151.032 296.056 151.233 296.199C151.435 296.343 151.686 296.415 151.984 296.415C152.283 296.415 152.533 296.343 152.735 296.199C152.937 296.056 153.098 295.862 153.218 295.617C153.343 295.373 153.43 295.092 153.48 294.773C153.535 294.451 153.562 294.114 153.562 293.76V293.533C153.562 293.18 153.535 292.843 153.48 292.521C153.43 292.199 153.343 291.915 153.218 291.671C153.098 291.426 152.937 291.232 152.735 291.089C152.533 290.945 152.283 290.873 151.984 290.873C151.686 290.873 151.435 290.945 151.233 291.089C151.032 291.232 150.869 291.426 150.745 291.671C150.624 291.915 150.537 292.199 150.483 292.521C150.428 292.843 150.401 293.18 150.401 293.533V293.76ZM155.326 293.65C155.326 293.991 155.3 294.335 155.25 294.68C155.203 295.026 155.126 295.357 155.017 295.676C154.912 295.994 154.774 296.293 154.604 296.572C154.433 296.847 154.223 297.088 153.975 297.294C153.727 297.496 153.438 297.655 153.108 297.771C152.782 297.887 152.407 297.946 151.984 297.946C151.565 297.946 151.191 297.887 150.861 297.771C150.531 297.655 150.242 297.496 149.994 297.294C149.749 297.088 149.542 296.847 149.371 296.572C149.2 296.296 149.06 296 148.952 295.681C148.847 295.363 148.769 295.031 148.719 294.686C148.672 294.341 148.649 293.995 148.649 293.65C148.649 293.308 148.672 292.965 148.719 292.62C148.769 292.274 148.847 291.942 148.952 291.624C149.06 291.306 149.2 291.009 149.371 290.734C149.542 290.454 149.749 290.214 149.994 290.012C150.242 289.806 150.529 289.645 150.855 289.529C151.185 289.408 151.561 289.348 151.984 289.348C152.407 289.348 152.782 289.408 153.108 289.529C153.438 289.645 153.727 289.806 153.975 290.012C154.223 290.214 154.433 290.454 154.604 290.734C154.774 291.009 154.912 291.306 155.017 291.624C155.126 291.942 155.203 292.274 155.25 292.62C155.3 292.965 155.326 293.308 155.326 293.65ZM158.085 293.76C158.085 294.114 158.112 294.451 158.166 294.773C158.22 295.092 158.308 295.373 158.428 295.617C158.552 295.862 158.715 296.056 158.917 296.199C159.119 296.343 159.369 296.415 159.668 296.415C159.967 296.415 160.217 296.343 160.419 296.199C160.62 296.056 160.782 295.862 160.902 295.617C161.026 295.373 161.113 295.092 161.164 294.773C161.218 294.451 161.245 294.114 161.245 293.76V293.533C161.245 293.18 161.218 292.843 161.164 292.521C161.113 292.199 161.026 291.915 160.902 291.671C160.782 291.426 160.62 291.232 160.419 291.089C160.217 290.945 159.967 290.873 159.668 290.873C159.369 290.873 159.119 290.945 158.917 291.089C158.715 291.232 158.552 291.426 158.428 291.671C158.308 291.915 158.22 292.199 158.166 292.521C158.112 292.843 158.085 293.18 158.085 293.533V293.76ZM163.009 293.65C163.009 293.991 162.984 294.335 162.933 294.68C162.887 295.026 162.809 295.357 162.7 295.676C162.596 295.994 162.458 296.293 162.287 296.572C162.116 296.847 161.907 297.088 161.659 297.294C161.41 297.496 161.121 297.655 160.791 297.771C160.465 297.887 160.091 297.946 159.668 297.946C159.249 297.946 158.874 297.887 158.544 297.771C158.215 297.655 157.925 297.496 157.677 297.294C157.433 297.088 157.225 296.847 157.054 296.572C156.884 296.296 156.744 296 156.635 295.681C156.53 295.363 156.453 295.031 156.402 294.686C156.356 294.341 156.333 293.995 156.333 293.65C156.333 293.308 156.356 292.965 156.402 292.62C156.453 292.274 156.53 291.942 156.635 291.624C156.744 291.306 156.884 291.009 157.054 290.734C157.225 290.454 157.433 290.214 157.677 290.012C157.925 289.806 158.213 289.645 158.539 289.529C158.868 289.408 159.245 289.348 159.668 289.348C160.091 289.348 160.465 289.408 160.791 289.529C161.121 289.645 161.41 289.806 161.659 290.012C161.907 290.214 162.116 290.454 162.287 290.734C162.458 291.009 162.596 291.306 162.7 291.624C162.809 291.942 162.887 292.274 162.933 292.62C162.984 292.965 163.009 293.308 163.009 293.65Z" fill="#0B0C0C"/>
<path d="M34.2576 289.465V297.812H32.5289V292.294H31.0154V290.769H31.388C31.6363 290.769 31.8381 290.747 31.9933 290.705C32.1524 290.658 32.2766 290.588 32.3659 290.495C32.4551 290.402 32.5153 290.284 32.5463 290.14C32.5774 289.992 32.5929 289.816 32.5929 289.61V289.465H34.2576ZM37.3718 293.76C37.3718 294.114 37.3989 294.451 37.4533 294.773C37.5076 295.092 37.5949 295.373 37.7152 295.617C37.8394 295.862 38.0024 296.056 38.2041 296.199C38.4059 296.343 38.6562 296.415 38.955 296.415C39.2538 296.415 39.5041 296.343 39.7059 296.199C39.9077 296.056 40.0687 295.862 40.189 295.617C40.3132 295.373 40.4005 295.092 40.451 294.773C40.5053 294.451 40.5325 294.114 40.5325 293.76V293.533C40.5325 293.18 40.5053 292.843 40.451 292.521C40.4005 292.199 40.3132 291.915 40.189 291.671C40.0687 291.426 39.9077 291.232 39.7059 291.089C39.5041 290.945 39.2538 290.873 38.955 290.873C38.6562 290.873 38.4059 290.945 38.2041 291.089C38.0024 291.232 37.8394 291.426 37.7152 291.671C37.5949 291.915 37.5076 292.199 37.4533 292.521C37.3989 292.843 37.3718 293.18 37.3718 293.533V293.76ZM42.2962 293.65C42.2962 293.991 42.2709 294.335 42.2205 294.68C42.1739 295.026 42.0963 295.357 41.9877 295.676C41.8829 295.994 41.7451 296.293 41.5744 296.572C41.4036 296.847 41.1941 297.088 40.9457 297.294C40.6974 297.496 40.4083 297.655 40.0784 297.771C39.7525 297.887 39.378 297.946 38.955 297.946C38.5359 297.946 38.1615 297.887 37.8316 297.771C37.5018 297.655 37.2127 297.496 36.9643 297.294C36.7198 297.088 36.5122 296.847 36.3415 296.572C36.1707 296.296 36.031 296 35.9224 295.681C35.8176 295.363 35.74 295.031 35.6896 294.686C35.643 294.341 35.6197 293.995 35.6197 293.65C35.6197 293.308 35.643 292.965 35.6896 292.62C35.74 292.274 35.8176 291.942 35.9224 291.624C36.031 291.306 36.1707 291.009 36.3415 290.734C36.5122 290.454 36.7198 290.214 36.9643 290.012C37.2127 289.806 37.4998 289.645 37.8258 289.529C38.1556 289.408 38.532 289.348 38.955 289.348C39.378 289.348 39.7525 289.408 40.0784 289.529C40.4083 289.645 40.6974 289.806 40.9457 290.012C41.1941 290.214 41.4036 290.454 41.5744 290.734C41.7451 291.009 41.8829 291.306 41.9877 291.624C42.0963 291.942 42.1739 292.274 42.2205 292.62C42.2709 292.965 42.2962 293.308 42.2962 293.65ZM43.5185 296.811C43.5185 296.663 43.5476 296.523 43.6058 296.391C43.6679 296.256 43.7494 296.137 43.8503 296.036C43.9512 295.936 44.0696 295.856 44.2054 295.798C44.3412 295.736 44.4848 295.705 44.6361 295.705C44.7875 295.705 44.9311 295.736 45.0669 295.798C45.2066 295.856 45.3269 295.936 45.4278 296.036C45.5287 296.137 45.6082 296.256 45.6664 296.391C45.7285 296.523 45.7595 296.663 45.7595 296.811C45.7595 296.966 45.7285 297.111 45.6664 297.247C45.6082 297.383 45.5287 297.501 45.4278 297.602C45.3269 297.703 45.2066 297.783 45.0669 297.841C44.9311 297.899 44.7875 297.928 44.6361 297.928C44.4848 297.928 44.3412 297.899 44.2054 297.841C44.0696 297.783 43.9512 297.703 43.8503 297.602C43.7494 297.501 43.6679 297.383 43.6058 297.247C43.5476 297.111 43.5185 296.966 43.5185 296.811ZM43.5185 292.695C43.5185 292.54 43.5476 292.395 43.6058 292.259C43.6679 292.123 43.7494 292.005 43.8503 291.904C43.9512 291.803 44.0696 291.723 44.2054 291.665C44.3412 291.607 44.4848 291.578 44.6361 291.578C44.7875 291.578 44.9311 291.607 45.0669 291.665C45.2066 291.723 45.3269 291.803 45.4278 291.904C45.5287 292.005 45.6082 292.123 45.6664 292.259C45.7285 292.395 45.7595 292.54 45.7595 292.695C45.7595 292.847 45.7285 292.99 45.6664 293.126C45.6082 293.262 45.5287 293.382 45.4278 293.487C45.3269 293.588 45.2066 293.669 45.0669 293.731C44.9311 293.79 44.7875 293.819 44.6361 293.819C44.4848 293.819 44.3412 293.79 44.2054 293.731C44.0696 293.669 43.9512 293.588 43.8503 293.487C43.7494 293.382 43.6679 293.262 43.6058 293.126C43.5476 292.99 43.5185 292.847 43.5185 292.695ZM48.734 293.76C48.734 294.114 48.7611 294.451 48.8155 294.773C48.8698 295.092 48.9571 295.373 49.0774 295.617C49.2016 295.862 49.3646 296.056 49.5664 296.199C49.7681 296.343 50.0184 296.415 50.3172 296.415C50.616 296.415 50.8663 296.343 51.0681 296.199C51.2699 296.056 51.431 295.862 51.5512 295.617C51.6754 295.373 51.7627 295.092 51.8132 294.773C51.8675 294.451 51.8947 294.114 51.8947 293.76V293.533C51.8947 293.18 51.8675 292.843 51.8132 292.521C51.7627 292.199 51.6754 291.915 51.5512 291.671C51.431 291.426 51.2699 291.232 51.0681 291.089C50.8663 290.945 50.616 290.873 50.3172 290.873C50.0184 290.873 49.7681 290.945 49.5664 291.089C49.3646 291.232 49.2016 291.426 49.0774 291.671C48.9571 291.915 48.8698 292.199 48.8155 292.521C48.7611 292.843 48.734 293.18 48.734 293.533V293.76ZM53.6584 293.65C53.6584 293.991 53.6332 294.335 53.5827 294.68C53.5361 295.026 53.4585 295.357 53.3499 295.676C53.2451 295.994 53.1073 296.293 52.9366 296.572C52.7659 296.847 52.5563 297.088 52.308 297.294C52.0596 297.496 51.7705 297.655 51.4407 297.771C51.1147 297.887 50.7402 297.946 50.3172 297.946C49.8981 297.946 49.5237 297.887 49.1938 297.771C48.864 297.655 48.5749 297.496 48.3265 297.294C48.082 297.088 47.8744 296.847 47.7037 296.572C47.533 296.296 47.3933 296 47.2846 295.681C47.1798 295.363 47.1022 295.031 47.0518 294.686C47.0052 294.341 46.9819 293.995 46.9819 293.65C46.9819 293.308 47.0052 292.965 47.0518 292.62C47.1022 292.274 47.1798 291.942 47.2846 291.624C47.3933 291.306 47.533 291.009 47.7037 290.734C47.8744 290.454 48.082 290.214 48.3265 290.012C48.5749 289.806 48.862 289.645 49.188 289.529C49.5178 289.408 49.8943 289.348 50.3172 289.348C50.7402 289.348 51.1147 289.408 51.4407 289.529C51.7705 289.645 52.0596 289.806 52.308 290.012C52.5563 290.214 52.7659 290.454 52.9366 290.734C53.1073 291.009 53.2451 291.306 53.3499 291.624C53.4585 291.942 53.5361 292.274 53.5827 292.62C53.6332 292.965 53.6584 293.308 53.6584 293.65ZM56.4174 293.76C56.4174 294.114 56.4446 294.451 56.4989 294.773C56.5533 295.092 56.6406 295.373 56.7609 295.617C56.885 295.862 57.048 296.056 57.2498 296.199C57.4516 296.343 57.7019 296.415 58.0007 296.415C58.2995 296.415 58.5498 296.343 58.7516 296.199C58.9534 296.056 59.1144 295.862 59.2347 295.617C59.3589 295.373 59.4462 295.092 59.4966 294.773C59.551 294.451 59.5781 294.114 59.5781 293.76V293.533C59.5781 293.18 59.551 292.843 59.4966 292.521C59.4462 292.199 59.3589 291.915 59.2347 291.671C59.1144 291.426 58.9534 291.232 58.7516 291.089C58.5498 290.945 58.2995 290.873 58.0007 290.873C57.7019 290.873 57.4516 290.945 57.2498 291.089C57.048 291.232 56.885 291.426 56.7609 291.671C56.6406 291.915 56.5533 292.199 56.4989 292.521C56.4446 292.843 56.4174 293.18 56.4174 293.533V293.76ZM61.3418 293.65C61.3418 293.991 61.3166 294.335 61.2662 294.68C61.2196 295.026 61.142 295.357 61.0333 295.676C60.9286 295.994 60.7908 296.293 60.6201 296.572C60.4493 296.847 60.2398 297.088 59.9914 297.294C59.7431 297.496 59.454 297.655 59.1241 297.771C58.7981 297.887 58.4237 297.946 58.0007 297.946C57.5816 297.946 57.2071 297.887 56.8773 297.771C56.5474 297.655 56.2583 297.496 56.01 297.294C55.7655 297.088 55.5579 296.847 55.3872 296.572C55.2164 296.296 55.0767 296 54.9681 295.681C54.8633 295.363 54.7857 295.031 54.7352 294.686C54.6887 294.341 54.6654 293.995 54.6654 293.65C54.6654 293.308 54.6887 292.965 54.7352 292.62C54.7857 292.274 54.8633 291.942 54.9681 291.624C55.0767 291.306 55.2164 291.009 55.3872 290.734C55.5579 290.454 55.7655 290.214 56.01 290.012C56.2583 289.806 56.5455 289.645 56.8715 289.529C57.2013 289.408 57.5777 289.348 58.0007 289.348C58.4237 289.348 58.7981 289.408 59.1241 289.529C59.454 289.645 59.7431 289.806 59.9914 290.012C60.2398 290.214 60.4493 290.454 60.6201 290.734C60.7908 291.009 60.9286 291.306 61.0333 291.624C61.142 291.942 61.2196 292.274 61.2662 292.62C61.3166 292.965 61.3418 293.308 61.3418 293.65Z" fill="#0B0C0C"/>
<path d="M26.416 279.623H457.559" stroke="#CECECE" stroke-width="0.993417" stroke-miterlimit="10"/>
<path d="M272.049 140.793C272.049 138.598 273.828 136.819 276.022 136.819H283.97C286.164 136.819 287.944 138.598 287.944 140.793V279.871H272.049V140.793Z" fill="#1D70B8"/>
<path d="M293.914 154.701C293.914 152.506 295.693 150.727 297.888 150.727H305.835C308.03 150.727 309.809 152.506 309.809 154.701V279.872H293.914V154.701Z" fill="#1D70B8"/>
<path d="M315.76 182.516C315.76 180.321 317.539 178.542 319.733 178.542H327.681C329.875 178.542 331.654 180.321 331.654 182.516V279.871H315.76V182.516Z" fill="#1D70B8"/>
<path d="M337.625 174.569C337.625 172.375 339.404 170.595 341.599 170.595H349.546C351.741 170.595 353.52 172.375 353.52 174.569V279.871H337.625V174.569Z" fill="#1D70B8"/>
<path d="M359.482 166.621C359.482 164.427 361.261 162.648 363.456 162.648H371.403C373.598 162.648 375.377 164.427 375.377 166.621V279.871H359.482V166.621Z" fill="#1D70B8"/>
</svg>
