<svg width="480" height="320" viewBox="0 0 480 320" fill="none" xmlns="http://www.w3.org/2000/svg">
<g clip-path="url(#clip0_1813_17576)">
<rect width="480" height="320" fill="#09442D"/>
<circle cx="194.139" cy="37.4153" r="13.6206" transform="rotate(90 194.139 37.4153)" fill="#66F39E"/>
<circle cx="221.381" cy="37.4153" r="13.6206" transform="rotate(90 221.381 37.4153)" fill="#66F39E"/>
<circle cx="248.622" cy="37.4153" r="13.6206" transform="rotate(90 248.622 37.4153)" fill="#66F39E"/>
<circle cx="275.864" cy="37.4153" r="13.6206" transform="rotate(90 275.864 37.4153)" fill="#66F39E"/>
<circle cx="303.104" cy="37.4153" r="13.6206" transform="rotate(90 303.104 37.4153)" fill="#66F39E"/>
<circle cx="330.346" cy="37.4153" r="13.6206" transform="rotate(90 330.346 37.4153)" fill="#4DA583"/>
<circle cx="357.586" cy="37.4153" r="13.6206" transform="rotate(90 357.586 37.4153)" fill="#4DA583"/>
<circle cx="384.829" cy="37.4153" r="13.6206" transform="rotate(90 384.829 37.4153)" fill="#4DA583"/>
<circle cx="412.07" cy="37.4153" r="13.6206" fill="#4DA583"/>
<circle cx="439.311" cy="37.4153" r="13.6206" transform="rotate(-180 439.311 37.4153)" fill="#4DA583"/>
<circle cx="194.139" cy="64.6565" r="13.6206" transform="rotate(90 194.139 64.6565)" fill="#66F39E"/>
<circle cx="221.381" cy="64.6565" r="13.6206" transform="rotate(90 221.381 64.6565)" fill="#66F39E"/>
<circle cx="248.622" cy="64.6565" r="13.6206" transform="rotate(90 248.622 64.6565)" fill="#66F39E"/>
<circle cx="275.864" cy="64.6565" r="13.6206" transform="rotate(90 275.864 64.6565)" fill="#66F39E"/>
<circle cx="303.104" cy="64.6565" r="13.6206" transform="rotate(90 303.104 64.6565)" fill="#66F39E"/>
<circle cx="330.346" cy="64.6565" r="13.6206" transform="rotate(90 330.346 64.6565)" fill="#4DA583"/>
<circle cx="357.586" cy="64.6565" r="13.6206" transform="rotate(90 357.586 64.6565)" fill="#4DA583"/>
<circle cx="384.829" cy="64.6565" r="13.6206" transform="rotate(90 384.829 64.6565)" fill="#4DA583"/>
<circle cx="412.07" cy="64.6565" r="13.6206" fill="#4DA583"/>
<circle cx="439.311" cy="64.6565" r="13.6206" transform="rotate(-180 439.311 64.6565)" fill="#4DA583"/>
<circle cx="194.139" cy="91.8977" r="13.6206" transform="rotate(90 194.139 91.8977)" fill="#66F39E"/>
<circle cx="221.381" cy="91.8977" r="13.6206" transform="rotate(90 221.381 91.8977)" fill="#66F39E"/>
<circle cx="248.622" cy="91.8977" r="13.6206" transform="rotate(90 248.622 91.8977)" fill="#66F39E"/>
<circle cx="275.864" cy="91.8977" r="13.6206" transform="rotate(90 275.864 91.8977)" fill="#66F39E"/>
<circle cx="303.104" cy="91.8977" r="13.6206" transform="rotate(90 303.104 91.8977)" fill="#66F39E"/>
<circle cx="330.346" cy="91.8977" r="13.6206" transform="rotate(90 330.346 91.8977)" fill="#4DA583"/>
<circle cx="357.586" cy="91.8977" r="13.6206" transform="rotate(90 357.586 91.8977)" fill="#4DA583"/>
<circle cx="384.829" cy="91.8977" r="13.6206" transform="rotate(90 384.829 91.8977)" fill="#4DA583"/>
<circle cx="412.07" cy="91.8977" r="13.6206" fill="#4DA583"/>
<circle cx="439.311" cy="91.8977" r="13.6206" transform="rotate(-180 439.311 91.8977)" fill="#4DA583"/>
<circle cx="194.139" cy="119.139" r="13.6206" transform="rotate(90 194.139 119.139)" fill="#66F39E"/>
<circle cx="221.381" cy="119.139" r="13.6206" transform="rotate(90 221.381 119.139)" fill="#66F39E"/>
<circle cx="248.622" cy="119.139" r="13.6206" transform="rotate(90 248.622 119.139)" fill="#66F39E"/>
<circle cx="275.864" cy="119.139" r="13.6206" transform="rotate(90 275.864 119.139)" fill="#66F39E"/>
<circle cx="303.104" cy="119.139" r="13.6206" transform="rotate(90 303.104 119.139)" fill="#66F39E"/>
<circle cx="330.346" cy="119.139" r="13.6206" transform="rotate(90 330.346 119.139)" fill="#4DA583"/>
<circle cx="357.586" cy="119.139" r="13.6206" transform="rotate(90 357.586 119.139)" fill="#4DA583"/>
<circle cx="384.829" cy="119.139" r="13.6206" transform="rotate(90 384.829 119.139)" fill="#4DA583"/>
<circle cx="412.07" cy="119.139" r="13.6206" fill="#4DA583"/>
<circle cx="439.311" cy="119.139" r="13.6206" transform="rotate(-180 439.311 119.139)" fill="#4DA583"/>
<circle cx="194.139" cy="146.38" r="13.6206" transform="rotate(90 194.139 146.38)" fill="#66F39E"/>
<circle cx="221.381" cy="146.38" r="13.6206" transform="rotate(90 221.381 146.38)" fill="#66F39E"/>
<circle cx="248.622" cy="146.38" r="13.6206" transform="rotate(90 248.622 146.38)" fill="#66F39E"/>
<circle cx="275.864" cy="146.38" r="13.6206" transform="rotate(90 275.864 146.38)" fill="#66F39E"/>
<circle cx="303.104" cy="146.38" r="13.6206" transform="rotate(90 303.104 146.38)" fill="#66F39E"/>
<circle cx="330.346" cy="146.38" r="13.6206" transform="rotate(90 330.346 146.38)" fill="#4DA583"/>
<circle cx="357.586" cy="146.38" r="13.6206" transform="rotate(90 357.586 146.38)" fill="#4DA583"/>
<circle cx="384.829" cy="146.38" r="13.6206" transform="rotate(90 384.829 146.38)" fill="#4DA583"/>
<circle cx="412.07" cy="146.38" r="13.6206" fill="#4DA583"/>
<circle cx="439.311" cy="146.38" r="13.6206" transform="rotate(-180 439.311 146.38)" fill="#4DA583"/>
<circle cx="194.139" cy="173.621" r="13.6206" transform="rotate(90 194.139 173.621)" fill="#66F39E"/>
<circle cx="221.381" cy="173.621" r="13.6206" transform="rotate(90 221.381 173.621)" fill="#66F39E"/>
<circle cx="248.622" cy="173.621" r="13.6206" transform="rotate(90 248.622 173.621)" fill="#66F39E"/>
<circle cx="275.864" cy="173.621" r="13.6206" transform="rotate(90 275.864 173.621)" fill="#66F39E"/>
<circle cx="303.104" cy="173.621" r="13.6206" transform="rotate(90 303.104 173.621)" fill="#66F39E"/>
<circle cx="330.346" cy="173.621" r="13.6206" transform="rotate(90 330.346 173.621)" fill="#4DA583"/>
<circle cx="357.586" cy="173.621" r="13.6206" transform="rotate(90 357.586 173.621)" fill="#4DA583"/>
<circle cx="384.829" cy="173.621" r="13.6206" transform="rotate(90 384.829 173.621)" fill="#4DA583"/>
<circle cx="412.07" cy="173.621" r="13.6206" fill="#4DA583"/>
<circle cx="439.311" cy="173.621" r="13.6206" transform="rotate(-180 439.311 173.621)" fill="#4DA583"/>
<circle cx="194.139" cy="200.862" r="13.6206" transform="rotate(90 194.139 200.862)" fill="#66F39E"/>
<circle cx="221.381" cy="200.862" r="13.6206" transform="rotate(90 221.381 200.862)" fill="#66F39E"/>
<circle cx="248.622" cy="200.862" r="13.6206" transform="rotate(90 248.622 200.862)" fill="#66F39E"/>
<circle cx="275.864" cy="200.862" r="13.6206" transform="rotate(90 275.864 200.862)" fill="#66F39E"/>
<circle cx="303.104" cy="200.862" r="13.6206" transform="rotate(90 303.104 200.862)" fill="#66F39E"/>
<circle cx="330.346" cy="200.862" r="13.6206" transform="rotate(90 330.346 200.862)" fill="#4DA583"/>
<circle cx="357.586" cy="200.862" r="13.6206" transform="rotate(90 357.586 200.862)" fill="#4DA583"/>
<circle cx="384.829" cy="200.862" r="13.6206" transform="rotate(90 384.829 200.862)" fill="#4DA583"/>
<circle cx="412.07" cy="200.862" r="13.6206" fill="#4DA583"/>
<circle cx="439.311" cy="200.862" r="13.6206" transform="rotate(-180 439.311 200.862)" fill="#4DA583"/>
<circle cx="194.139" cy="228.104" r="13.6206" transform="rotate(90 194.139 228.104)" fill="#66F39E"/>
<circle cx="221.381" cy="228.104" r="13.6206" transform="rotate(90 221.381 228.104)" fill="#66F39E"/>
<circle cx="248.622" cy="228.104" r="13.6206" transform="rotate(90 248.622 228.104)" fill="#66F39E"/>
<circle cx="275.864" cy="228.104" r="13.6206" transform="rotate(90 275.864 228.104)" fill="#66F39E"/>
<circle cx="303.104" cy="228.104" r="13.6206" transform="rotate(90 303.104 228.104)" fill="#66F39E"/>
<circle cx="330.346" cy="228.104" r="13.6206" transform="rotate(90 330.346 228.104)" fill="#4DA583"/>
<circle cx="357.586" cy="228.104" r="13.6206" transform="rotate(90 357.586 228.104)" fill="#4DA583"/>
<circle cx="384.829" cy="228.104" r="13.6206" transform="rotate(90 384.829 228.104)" fill="#4DA583"/>
<circle cx="412.07" cy="228.104" r="13.6206" fill="#4DA583"/>
<circle cx="439.311" cy="228.104" r="13.6206" transform="rotate(-180 439.311 228.104)" fill="#4DA583"/>
<circle cx="194.14" cy="255.345" r="13.6206" fill="#66F39E"/>
<circle cx="221.381" cy="255.345" r="13.6206" transform="rotate(90 221.381 255.345)" fill="#66F39E"/>
<circle cx="248.623" cy="255.345" r="13.6206" fill="#66F39E"/>
<circle cx="275.863" cy="255.345" r="13.6206" fill="#66F39E"/>
<circle cx="303.105" cy="255.345" r="13.6206" fill="#66F39E"/>
<circle cx="330.345" cy="255.345" r="13.6206" fill="#4DA583"/>
<circle cx="357.587" cy="255.345" r="13.6206" fill="#4DA583"/>
<circle cx="384.828" cy="255.345" r="13.6206" fill="#4DA583"/>
<circle cx="412.07" cy="255.345" r="13.6206" fill="#4DA583"/>
<circle cx="439.31" cy="255.345" r="13.6206" fill="#4DA583"/>
<circle cx="194.14" cy="282.586" r="13.6206" fill="#66F39E"/>
<circle cx="221.381" cy="282.586" r="13.6206" transform="rotate(90 221.381 282.586)" fill="#66F39E"/>
<circle cx="248.623" cy="282.586" r="13.6206" fill="#66F39E"/>
<circle cx="275.863" cy="282.586" r="13.6206" fill="#66F39E"/>
<circle cx="303.105" cy="282.586" r="13.6206" fill="#4DA583"/>
<circle cx="330.345" cy="282.586" r="13.6206" fill="#4DA583"/>
<circle cx="357.587" cy="282.586" r="13.6206" fill="#4DA583"/>
<circle cx="384.828" cy="282.586" r="13.6206" fill="#4DA583"/>
<circle cx="412.07" cy="282.586" r="13.6206" fill="#4DA583"/>
<circle cx="439.31" cy="282.586" r="13.6206" fill="#4DA583"/>
<path d="M46.8808 298.104V286.958H22.2835V276.328L44.1287 248.772H56.8918V277.945H64.0817V286.958H56.8918V298.104H46.8808ZM46.8808 277.945V258.576L31.5376 277.945H46.8808ZM106.653 272.956C106.653 275.181 106.481 277.36 106.137 279.493C105.793 281.626 105.254 283.655 104.52 285.582C103.809 287.485 102.892 289.251 101.768 290.88C100.644 292.485 99.2911 293.873 97.7086 295.042C96.1261 296.212 94.3028 297.129 92.2387 297.794C90.1975 298.459 87.8926 298.792 85.3239 298.792C83.214 298.792 81.2645 298.54 79.4756 298.035C77.6867 297.508 76.0698 296.797 74.625 295.902C73.1801 295.008 71.9301 293.953 70.8751 292.737C69.8202 291.499 68.9945 290.169 68.3982 288.747L77.6179 285.134C78.4436 286.694 79.5444 287.875 80.9205 288.678C82.3195 289.458 83.902 289.848 85.668 289.848C87.388 289.848 88.9017 289.515 90.209 288.85C91.5163 288.162 92.5942 287.233 93.4428 286.063C94.3143 284.894 94.9679 283.541 95.4037 282.004C95.8394 280.444 96.0458 278.793 96.0229 277.05C95.4495 277.623 94.773 278.174 93.9932 278.701C93.2134 279.229 92.3419 279.699 91.3787 280.112C90.4383 280.502 89.4063 280.823 88.2825 281.075C87.1816 281.304 86.0234 281.419 84.8079 281.419C82.3998 281.419 80.1522 281.029 78.0651 280.249C76.001 279.447 74.2007 278.346 72.664 276.947C71.1504 275.525 69.9578 273.839 69.0863 271.89C68.2147 269.94 67.779 267.807 67.779 265.491C67.779 263.014 68.2147 260.709 69.0863 258.576C69.9807 256.443 71.2306 254.609 72.8361 253.072C74.4644 251.512 76.4138 250.297 78.6844 249.425C80.9549 248.531 83.4892 248.084 86.2872 248.084C89.3604 248.084 92.147 248.634 94.6468 249.735C97.1467 250.813 99.2796 252.372 101.046 254.414C102.834 256.455 104.211 258.943 105.174 261.879C106.16 264.814 106.653 268.129 106.653 271.821V272.956ZM95.5413 264.906C95.5413 263.737 95.3349 262.647 94.9221 261.638C94.5092 260.629 93.9129 259.757 93.1332 259.023C92.3763 258.267 91.4589 257.682 90.381 257.269C89.3031 256.833 88.1105 256.615 86.8032 256.615C85.4501 256.615 84.2345 256.833 83.1566 257.269C82.0787 257.682 81.1613 258.267 80.4045 259.023C79.6476 259.757 79.0628 260.629 78.65 261.638C78.2601 262.647 78.0651 263.737 78.0651 264.906C78.0651 266.053 78.2601 267.131 78.65 268.14C79.0628 269.149 79.6476 270.032 80.4045 270.789C81.1613 271.523 82.0787 272.108 83.1566 272.543C84.2345 272.956 85.4501 273.163 86.8032 273.163C88.1105 273.163 89.3031 272.956 90.381 272.543C91.4589 272.108 92.3763 271.523 93.1332 270.789C93.9129 270.032 94.5092 269.149 94.9221 268.14C95.3349 267.131 95.5413 266.053 95.5413 264.906ZM134.363 259.987C134.363 261.638 134.053 263.198 133.434 264.665C132.815 266.11 131.966 267.372 130.888 268.45C129.833 269.505 128.583 270.342 127.138 270.961C125.694 271.58 124.134 271.89 122.46 271.89C120.763 271.89 119.18 271.58 117.712 270.961C116.267 270.342 115.006 269.505 113.928 268.45C112.85 267.372 112.002 266.11 111.382 264.665C110.763 263.198 110.454 261.638 110.454 259.987C110.454 258.335 110.763 256.787 111.382 255.342C112.002 253.898 112.85 252.636 113.928 251.558C115.006 250.48 116.267 249.632 117.712 249.013C119.18 248.393 120.763 248.084 122.46 248.084C124.134 248.084 125.694 248.393 127.138 249.013C128.583 249.632 129.833 250.48 130.888 251.558C131.966 252.636 132.815 253.898 133.434 255.342C134.053 256.787 134.363 258.335 134.363 259.987ZM117.644 259.987C117.644 260.698 117.758 261.363 117.988 261.982C118.217 262.578 118.538 263.106 118.951 263.565C119.364 264.023 119.857 264.39 120.43 264.665C121.026 264.918 121.669 265.044 122.357 265.044C123.068 265.044 123.721 264.918 124.317 264.665C124.914 264.39 125.418 264.023 125.831 263.565C126.267 263.106 126.599 262.578 126.829 261.982C127.058 261.363 127.173 260.698 127.173 259.987C127.173 259.276 127.058 258.622 126.829 258.026C126.599 257.407 126.267 256.868 125.831 256.409C125.418 255.95 124.914 255.595 124.317 255.342C123.721 255.067 123.068 254.93 122.357 254.93C121.669 254.93 121.026 255.067 120.43 255.342C119.857 255.595 119.364 255.95 118.951 256.409C118.538 256.868 118.217 257.407 117.988 258.026C117.758 258.622 117.644 259.276 117.644 259.987ZM147.814 248.772H155.967L125.315 298.104H117.093L147.814 248.772ZM162.676 286.889C162.676 288.54 162.366 290.1 161.747 291.568C161.127 293.013 160.279 294.274 159.201 295.352C158.146 296.407 156.896 297.244 155.451 297.863C154.006 298.482 152.447 298.792 150.773 298.792C149.075 298.792 147.493 298.482 146.025 297.863C144.58 297.244 143.319 296.407 142.241 295.352C141.163 294.274 140.314 293.013 139.695 291.568C139.099 290.1 138.801 288.54 138.801 286.889C138.801 285.238 139.099 283.69 139.695 282.245C140.314 280.8 141.163 279.538 142.241 278.461C143.319 277.383 144.58 276.534 146.025 275.915C147.493 275.296 149.075 274.986 150.773 274.986C152.447 274.986 154.006 275.296 155.451 275.915C156.896 276.534 158.146 277.383 159.201 278.461C160.279 279.538 161.127 280.8 161.747 282.245C162.366 283.69 162.676 285.238 162.676 286.889ZM145.991 286.889C145.991 287.6 146.105 288.265 146.335 288.884C146.564 289.504 146.885 290.042 147.298 290.501C147.711 290.96 148.204 291.327 148.777 291.602C149.351 291.854 149.993 291.98 150.704 291.98C151.415 291.98 152.068 291.854 152.665 291.602C153.261 291.327 153.765 290.96 154.178 290.501C154.591 290.042 154.912 289.504 155.142 288.884C155.371 288.265 155.486 287.6 155.486 286.889C155.486 286.178 155.371 285.524 155.142 284.928C154.912 284.309 154.591 283.77 154.178 283.311C153.765 282.853 153.261 282.497 152.665 282.245C152.068 281.97 151.415 281.832 150.704 281.832C149.993 281.832 149.351 281.97 148.777 282.245C148.204 282.497 147.711 282.853 147.298 283.311C146.885 283.77 146.564 284.309 146.335 284.928C146.105 285.524 145.991 286.178 145.991 286.889Z" fill="#66F39E"/>
</g>
<defs>
<clipPath id="clip0_1813_17576">
<rect width="480" height="320" fill="white"/>
</clipPath>
</defs>
</svg>
