<svg width="480" height="320" viewBox="0 0 480 320" fill="none" xmlns="http://www.w3.org/2000/svg">
<rect width="480" height="320" fill="#0F385C"/>
<path d="M234.192 35.2888C303.2 35.2888 359.137 91.127 359.137 160C359.137 228.873 303.201 284.712 234.192 284.712C165.184 284.712 109.248 228.873 109.248 160C109.248 91.127 165.184 35.2889 234.192 35.2888Z" fill="#00FFE0" stroke="#0F385C" stroke-width="3.69515"/>
<path d="M236.033 35.3025C304.189 36.2886 359.13 91.7427 359.13 160C359.13 188.773 349.368 215.266 332.97 236.368L236.033 159.11L236.033 35.3025Z" fill="#F3F9F9" stroke="#0F385C" stroke-width="3.69515"/>
<path d="M152.744 181.121C152.744 180.246 152.812 179.389 152.947 178.55C153.092 177.702 153.308 176.904 153.597 176.155C153.894 175.397 154.269 174.702 154.72 174.071C155.171 173.43 155.712 172.88 156.344 172.42C156.975 171.96 157.697 171.599 158.509 171.337C159.33 171.076 160.246 170.945 161.256 170.945C162.077 170.945 162.839 171.049 163.543 171.256C164.256 171.455 164.892 171.734 165.451 172.095C166.019 172.447 166.511 172.867 166.926 173.354C167.341 173.832 167.666 174.351 167.9 174.91L164.274 176.317C163.958 175.704 163.525 175.244 162.974 174.937C162.433 174.621 161.82 174.463 161.134 174.463C160.467 174.463 159.876 174.599 159.361 174.869C158.847 175.131 158.41 175.492 158.049 175.952C157.697 176.412 157.426 176.949 157.237 177.562C157.047 178.176 156.944 178.825 156.926 179.511C157.151 179.285 157.417 179.069 157.724 178.861C158.031 178.645 158.369 178.46 158.739 178.306C159.118 178.153 159.524 178.031 159.957 177.941C160.399 177.842 160.859 177.792 161.337 177.792C162.284 177.792 163.164 177.946 163.976 178.252C164.797 178.559 165.505 178.992 166.1 179.551C166.705 180.102 167.178 180.76 167.521 181.527C167.864 182.294 168.035 183.137 168.035 184.058C168.035 185.032 167.86 185.939 167.508 186.778C167.165 187.607 166.673 188.329 166.033 188.943C165.401 189.547 164.639 190.025 163.746 190.377C162.853 190.72 161.856 190.891 160.755 190.891C159.546 190.891 158.45 190.679 157.467 190.255C156.484 189.822 155.64 189.204 154.936 188.401C154.242 187.598 153.701 186.62 153.313 185.465C152.934 184.31 152.744 183.007 152.744 181.554V181.121ZM157.115 184.274C157.115 184.734 157.196 185.163 157.359 185.56C157.521 185.957 157.751 186.304 158.049 186.602C158.356 186.89 158.721 187.12 159.145 187.292C159.569 187.463 160.038 187.549 160.552 187.549C161.085 187.549 161.563 187.463 161.987 187.292C162.411 187.12 162.767 186.89 163.056 186.602C163.353 186.304 163.579 185.957 163.732 185.56C163.886 185.163 163.962 184.734 163.962 184.274C163.962 183.823 163.886 183.404 163.732 183.016C163.579 182.619 163.353 182.276 163.056 181.987C162.767 181.689 162.411 181.455 161.987 181.283C161.563 181.112 161.085 181.026 160.552 181.026C160.038 181.026 159.569 181.112 159.145 181.283C158.721 181.455 158.356 181.689 158.049 181.987C157.751 182.276 157.521 182.619 157.359 183.016C157.196 183.404 157.115 183.823 157.115 184.274ZM173.969 181.202C173.969 182.023 174.032 182.808 174.158 183.557C174.285 184.297 174.488 184.951 174.767 185.519C175.056 186.087 175.435 186.538 175.904 186.872C176.373 187.206 176.955 187.373 177.65 187.373C178.344 187.373 178.926 187.206 179.395 186.872C179.864 186.538 180.239 186.087 180.518 185.519C180.807 184.951 181.01 184.297 181.127 183.557C181.254 182.808 181.317 182.023 181.317 181.202V180.675C181.317 179.854 181.254 179.069 181.127 178.32C181.01 177.571 180.807 176.913 180.518 176.344C180.239 175.776 179.864 175.325 179.395 174.991C178.926 174.657 178.344 174.49 177.65 174.49C176.955 174.49 176.373 174.657 175.904 174.991C175.435 175.325 175.056 175.776 174.767 176.344C174.488 176.913 174.285 177.571 174.158 178.32C174.032 179.069 173.969 179.854 173.969 180.675V181.202ZM185.417 180.945C185.417 181.739 185.358 182.537 185.241 183.34C185.133 184.143 184.952 184.915 184.7 185.654C184.456 186.394 184.136 187.089 183.739 187.738C183.342 188.379 182.855 188.938 182.278 189.416C181.7 189.885 181.028 190.255 180.261 190.526C179.504 190.797 178.633 190.932 177.65 190.932C176.675 190.932 175.805 190.797 175.038 190.526C174.271 190.255 173.599 189.885 173.022 189.416C172.453 188.938 171.971 188.379 171.574 187.738C171.177 187.098 170.852 186.408 170.599 185.668C170.356 184.928 170.175 184.157 170.058 183.354C169.95 182.551 169.896 181.748 169.896 180.945C169.896 180.151 169.95 179.353 170.058 178.55C170.175 177.747 170.356 176.976 170.599 176.236C170.852 175.496 171.177 174.806 171.574 174.166C171.971 173.516 172.453 172.957 173.022 172.488C173.599 172.01 174.267 171.635 175.024 171.365C175.791 171.085 176.666 170.945 177.65 170.945C178.633 170.945 179.504 171.085 180.261 171.365C181.028 171.635 181.7 172.01 182.278 172.488C182.855 172.957 183.342 173.516 183.739 174.166C184.136 174.806 184.456 175.496 184.7 176.236C184.952 176.976 185.133 177.747 185.241 178.55C185.358 179.353 185.417 180.151 185.417 180.945ZM196.466 175.627C196.466 176.277 196.344 176.89 196.1 177.467C195.857 178.036 195.523 178.532 195.099 178.956C194.684 179.371 194.192 179.7 193.624 179.944C193.055 180.187 192.442 180.309 191.783 180.309C191.116 180.309 190.493 180.187 189.916 179.944C189.348 179.7 188.852 179.371 188.428 178.956C188.004 178.532 187.67 178.036 187.426 177.467C187.183 176.89 187.061 176.277 187.061 175.627C187.061 174.978 187.183 174.369 187.426 173.8C187.67 173.232 188.004 172.736 188.428 172.312C188.852 171.888 189.348 171.554 189.916 171.31C190.493 171.067 191.116 170.945 191.783 170.945C192.442 170.945 193.055 171.067 193.624 171.31C194.192 171.554 194.684 171.888 195.099 172.312C195.523 172.736 195.857 173.232 196.1 173.8C196.344 174.369 196.466 174.978 196.466 175.627ZM189.889 175.627C189.889 175.907 189.934 176.168 190.024 176.412C190.115 176.647 190.241 176.854 190.403 177.034C190.566 177.215 190.76 177.359 190.985 177.467C191.22 177.567 191.472 177.616 191.743 177.616C192.023 177.616 192.28 177.567 192.514 177.467C192.749 177.359 192.947 177.215 193.11 177.034C193.281 176.854 193.412 176.647 193.502 176.412C193.592 176.168 193.637 175.907 193.637 175.627C193.637 175.347 193.592 175.09 193.502 174.856C193.412 174.612 193.281 174.4 193.11 174.22C192.947 174.039 192.749 173.9 192.514 173.8C192.28 173.692 192.023 173.638 191.743 173.638C191.472 173.638 191.22 173.692 190.985 173.8C190.76 173.9 190.566 174.039 190.403 174.22C190.241 174.4 190.115 174.612 190.024 174.856C189.934 175.09 189.889 175.347 189.889 175.627ZM201.757 171.216H204.964L192.907 190.621H189.672L201.757 171.216ZM207.602 186.209C207.602 186.859 207.481 187.472 207.237 188.05C206.993 188.618 206.66 189.114 206.236 189.538C205.821 189.953 205.329 190.282 204.761 190.526C204.192 190.769 203.579 190.891 202.92 190.891C202.253 190.891 201.63 190.769 201.053 190.526C200.485 190.282 199.988 189.953 199.564 189.538C199.14 189.114 198.807 188.618 198.563 188.05C198.328 187.472 198.211 186.859 198.211 186.209C198.211 185.56 198.328 184.951 198.563 184.382C198.807 183.814 199.14 183.318 199.564 182.894C199.988 182.47 200.485 182.136 201.053 181.892C201.63 181.649 202.253 181.527 202.92 181.527C203.579 181.527 204.192 181.649 204.761 181.892C205.329 182.136 205.821 182.47 206.236 182.894C206.66 183.318 206.993 183.814 207.237 184.382C207.481 184.951 207.602 185.56 207.602 186.209ZM201.039 186.209C201.039 186.489 201.084 186.75 201.175 186.994C201.265 187.238 201.391 187.45 201.554 187.63C201.716 187.81 201.91 187.955 202.135 188.063C202.361 188.162 202.614 188.212 202.893 188.212C203.173 188.212 203.43 188.162 203.665 188.063C203.899 187.955 204.098 187.81 204.26 187.63C204.422 187.45 204.549 187.238 204.639 186.994C204.729 186.75 204.774 186.489 204.774 186.209C204.774 185.929 204.729 185.672 204.639 185.438C204.549 185.194 204.422 184.982 204.26 184.802C204.098 184.621 203.899 184.482 203.665 184.382C203.43 184.274 203.173 184.22 202.893 184.22C202.614 184.22 202.361 184.274 202.135 184.382C201.91 184.482 201.716 184.621 201.554 184.802C201.391 184.982 201.265 185.194 201.175 185.438C201.084 185.672 201.039 185.929 201.039 186.209Z" fill="#0F385C"/>
<path d="M280.26 151.819V147.434H270.585V143.253L279.178 132.414H284.198V143.889H287.026V147.434H284.198V151.819H280.26ZM280.26 143.889V136.271L274.225 143.889H280.26ZM292.716 142.401C292.716 143.221 292.779 144.006 292.905 144.755C293.032 145.495 293.235 146.149 293.514 146.717C293.803 147.286 294.182 147.737 294.651 148.07C295.12 148.404 295.702 148.571 296.397 148.571C297.091 148.571 297.673 148.404 298.142 148.07C298.611 147.737 298.986 147.286 299.265 146.717C299.554 146.149 299.757 145.495 299.874 144.755C300.001 144.006 300.064 143.221 300.064 142.401V141.873C300.064 141.052 300.001 140.267 299.874 139.518C299.757 138.769 299.554 138.111 299.265 137.543C298.986 136.974 298.611 136.523 298.142 136.189C297.673 135.856 297.091 135.689 296.397 135.689C295.702 135.689 295.12 135.856 294.651 136.189C294.182 136.523 293.803 136.974 293.514 137.543C293.235 138.111 293.032 138.769 292.905 139.518C292.779 140.267 292.716 141.052 292.716 141.873V142.401ZM304.164 142.143C304.164 142.937 304.105 143.736 303.988 144.539C303.88 145.342 303.699 146.113 303.447 146.853C303.203 147.592 302.883 148.287 302.486 148.937C302.089 149.577 301.602 150.136 301.025 150.614C300.447 151.084 299.775 151.453 299.008 151.724C298.251 151.995 297.38 152.13 296.397 152.13C295.422 152.13 294.552 151.995 293.785 151.724C293.018 151.453 292.346 151.084 291.769 150.614C291.2 150.136 290.718 149.577 290.321 148.937C289.924 148.296 289.599 147.606 289.346 146.866C289.103 146.126 288.922 145.355 288.805 144.552C288.697 143.749 288.643 142.946 288.643 142.143C288.643 141.35 288.697 140.551 288.805 139.748C288.922 138.945 289.103 138.174 289.346 137.434C289.599 136.695 289.924 136.004 290.321 135.364C290.718 134.714 291.2 134.155 291.769 133.686C292.346 133.208 293.014 132.833 293.771 132.563C294.538 132.283 295.413 132.143 296.397 132.143C297.38 132.143 298.251 132.283 299.008 132.563C299.775 132.833 300.447 133.208 301.025 133.686C301.602 134.155 302.089 134.714 302.486 135.364C302.883 136.004 303.203 136.695 303.447 137.434C303.699 138.174 303.88 138.945 303.988 139.748C304.105 140.551 304.164 141.35 304.164 142.143ZM315.213 136.825C315.213 137.475 315.091 138.088 314.847 138.666C314.604 139.234 314.27 139.73 313.846 140.154C313.431 140.569 312.939 140.898 312.371 141.142C311.803 141.386 311.189 141.507 310.531 141.507C309.863 141.507 309.24 141.386 308.663 141.142C308.095 140.898 307.599 140.569 307.175 140.154C306.751 139.73 306.417 139.234 306.173 138.666C305.93 138.088 305.808 137.475 305.808 136.825C305.808 136.176 305.93 135.567 306.173 134.999C306.417 134.43 306.751 133.934 307.175 133.51C307.599 133.086 308.095 132.752 308.663 132.509C309.24 132.265 309.863 132.143 310.531 132.143C311.189 132.143 311.803 132.265 312.371 132.509C312.939 132.752 313.431 133.086 313.846 133.51C314.27 133.934 314.604 134.43 314.847 134.999C315.091 135.567 315.213 136.176 315.213 136.825ZM308.636 136.825C308.636 137.105 308.681 137.367 308.771 137.61C308.862 137.845 308.988 138.052 309.15 138.233C309.313 138.413 309.507 138.557 309.732 138.666C309.967 138.765 310.219 138.815 310.49 138.815C310.77 138.815 311.027 138.765 311.261 138.666C311.496 138.557 311.694 138.413 311.857 138.233C312.028 138.052 312.159 137.845 312.249 137.61C312.339 137.367 312.384 137.105 312.384 136.825C312.384 136.546 312.339 136.289 312.249 136.054C312.159 135.81 312.028 135.598 311.857 135.418C311.694 135.238 311.496 135.098 311.261 134.999C311.027 134.89 310.77 134.836 310.49 134.836C310.219 134.836 309.967 134.89 309.732 134.999C309.507 135.098 309.313 135.238 309.15 135.418C308.988 135.598 308.862 135.81 308.771 136.054C308.681 136.289 308.636 136.546 308.636 136.825ZM320.504 132.414H323.711L311.654 151.819H308.42L320.504 132.414ZM326.349 147.407C326.349 148.057 326.228 148.67 325.984 149.248C325.741 149.816 325.407 150.312 324.983 150.736C324.568 151.151 324.076 151.481 323.508 151.724C322.939 151.968 322.326 152.089 321.667 152.089C321 152.089 320.377 151.968 319.8 151.724C319.232 151.481 318.735 151.151 318.311 150.736C317.887 150.312 317.554 149.816 317.31 149.248C317.076 148.67 316.958 148.057 316.958 147.407C316.958 146.758 317.076 146.149 317.31 145.581C317.554 145.012 317.887 144.516 318.311 144.092C318.735 143.668 319.232 143.334 319.8 143.091C320.377 142.847 321 142.725 321.667 142.725C322.326 142.725 322.939 142.847 323.508 143.091C324.076 143.334 324.568 143.668 324.983 144.092C325.407 144.516 325.741 145.012 325.984 145.581C326.228 146.149 326.349 146.758 326.349 147.407ZM319.786 147.407C319.786 147.687 319.832 147.949 319.922 148.192C320.012 148.436 320.138 148.648 320.301 148.828C320.463 149.009 320.657 149.153 320.883 149.261C321.108 149.361 321.361 149.41 321.64 149.41C321.92 149.41 322.177 149.361 322.412 149.261C322.646 149.153 322.845 149.009 323.007 148.828C323.169 148.648 323.296 148.436 323.386 148.192C323.476 147.949 323.521 147.687 323.521 147.407C323.521 147.128 323.476 146.871 323.386 146.636C323.296 146.392 323.169 146.18 323.007 146C322.845 145.82 322.646 145.68 322.412 145.581C322.177 145.472 321.92 145.418 321.64 145.418C321.361 145.418 321.108 145.472 320.883 145.581C320.657 145.68 320.463 145.82 320.301 146C320.138 146.18 320.012 146.392 319.922 146.636C319.832 146.871 319.786 147.128 319.786 147.407Z" fill="#0F385C"/>
</svg>
