<svg width="480" height="320" viewBox="0 0 480 320" fill="none" xmlns="http://www.w3.org/2000/svg">
<rect width="480" height="320" fill="#0F385C"/>
<rect x="11.3789" y="217.805" width="460.26" height="92.3762" rx="9.23762" fill="#11E0F1"/>
<rect x="11.3789" y="158.685" width="460.26" height="52.6544" rx="9.23762" fill="#BA4AFF"/>
<rect x="11.3789" y="9.9585" width="460.26" height="142.259" rx="9.23762" fill="#1D70B8"/>
<circle cx="32.1295" cy="241.58" r="5.50844" transform="rotate(-90 32.1295 241.58)" fill="#0F385C"/>
<path d="M48.2519 234.699H56.9269V236.834H53.7442V246.08H51.4346V236.834H48.2519V234.699ZM60.1372 246.08H57.9466V237.58H60.1372V246.08ZM57.7164 235.35C57.7164 235.17 57.7508 235 57.8196 234.842C57.8884 234.678 57.981 234.537 58.0974 234.421C58.2191 234.299 58.3593 234.204 58.518 234.135C58.6768 234.067 58.8488 234.032 59.0339 234.032C59.2138 234.032 59.3832 234.067 59.5419 234.135C59.7059 234.204 59.8462 234.299 59.9626 234.421C60.0843 234.537 60.1795 234.678 60.2483 234.842C60.3171 235 60.3515 235.17 60.3515 235.35C60.3515 235.535 60.3171 235.707 60.2483 235.866C60.1795 236.024 60.0843 236.165 59.9626 236.286C59.8462 236.403 59.7059 236.495 59.5419 236.564C59.3832 236.633 59.2138 236.667 59.0339 236.667C58.8488 236.667 58.6768 236.633 58.518 236.564C58.3593 236.495 58.2191 236.403 58.0974 236.286C57.981 236.165 57.8884 236.024 57.8196 235.866C57.7508 235.707 57.7164 235.535 57.7164 235.35ZM64.9824 243.548C64.9824 243.649 64.9956 243.744 65.0221 243.834C65.0486 243.924 65.0935 244.004 65.157 244.072C65.2258 244.136 65.3211 244.186 65.4428 244.223C65.5645 244.26 65.7206 244.279 65.911 244.279C65.9904 244.279 66.0804 244.276 66.1809 244.271C66.2814 244.26 66.382 244.25 66.4825 244.239C66.583 244.228 66.6756 244.215 66.7603 244.199C66.8502 244.183 66.9243 244.17 66.9825 244.16L67.1809 246.096C66.9746 246.123 66.7603 246.146 66.5381 246.168C66.3476 246.189 66.1359 246.205 65.9031 246.215C65.6703 246.231 65.4348 246.239 65.1967 246.239C64.4401 246.239 63.8501 246.067 63.4268 245.723C63.0035 245.379 62.7918 244.832 62.7918 244.08V239.485H61.26V237.58H62.7918V235.175L64.9824 234.588V237.58H67.2127V239.485H64.9824V243.548ZM68.3832 234.699H70.5737V243.771C70.5737 243.951 70.624 244.088 70.7245 244.183C70.8304 244.279 70.997 244.326 71.2246 244.326C71.3304 244.326 71.4203 244.321 71.4944 244.31C71.5738 244.295 71.6743 244.273 71.796 244.247L71.9706 246.112C71.8225 246.133 71.6637 246.154 71.4944 246.176C71.3516 246.191 71.1849 246.205 70.9944 246.215C70.8092 246.231 70.6161 246.239 70.415 246.239C70.1028 246.239 69.8224 246.199 69.5737 246.12C69.325 246.041 69.1107 245.924 68.9308 245.771C68.7562 245.612 68.6213 245.416 68.526 245.183C68.4308 244.951 68.3832 244.681 68.3832 244.374V234.699ZM74.8317 242.588C74.8687 242.842 74.9481 243.075 75.0698 243.287C75.1968 243.498 75.3555 243.681 75.546 243.834C75.7365 243.982 75.956 244.099 76.2047 244.183C76.4534 244.268 76.718 244.31 76.9984 244.31C77.3212 244.31 77.6704 244.25 78.0461 244.128C78.4218 244.001 78.7657 243.818 79.0779 243.58L80.1335 245.12C79.7367 245.453 79.2499 245.723 78.6731 245.93C78.0964 246.136 77.4826 246.239 76.8318 246.239C76.2444 246.239 75.6915 246.139 75.1729 245.937C74.6544 245.736 74.1994 245.445 73.8078 245.064C73.4215 244.683 73.1146 244.22 72.8871 243.675C72.6649 243.13 72.5538 242.517 72.5538 241.834C72.5538 241.21 72.6517 240.628 72.8474 240.088C73.0485 239.548 73.3263 239.08 73.6808 238.683C74.0406 238.286 74.4692 237.977 74.9666 237.755C75.464 237.527 76.0143 237.413 76.6175 237.413C77.1783 237.413 77.6995 237.516 78.181 237.723C78.6625 237.924 79.0805 238.21 79.4351 238.58C79.7896 238.945 80.0674 239.384 80.2684 239.897C80.4695 240.411 80.57 240.977 80.57 241.596V242.588H74.8317ZM76.6095 239.318C76.1386 239.318 75.7391 239.477 75.411 239.794C75.0883 240.106 74.9004 240.485 74.8475 240.929H78.2763C78.2657 240.48 78.1017 240.099 77.7842 239.786C77.4667 239.474 77.0752 239.318 76.6095 239.318ZM88.4271 234.699V246.08H86.0698V238.556H84.0063V236.477H84.5142C84.8529 236.477 85.128 236.448 85.3397 236.389C85.5566 236.326 85.7259 236.231 85.8476 236.104C85.9693 235.977 86.0513 235.815 86.0937 235.62C86.136 235.418 86.1572 235.178 86.1572 234.897V234.699H88.4271Z" fill="#0F385C"/>
<ellipse cx="32.1295" cy="182.137" rx="5.63655" ry="5.50844" transform="rotate(-90 32.1295 182.137)" fill="white"/>
<path d="M48.2519 175.255H56.9269V177.39H53.7442V186.636H51.4346V177.39H48.2519V175.255ZM60.1372 186.636H57.9466V178.136H60.1372V186.636ZM57.7164 175.906C57.7164 175.726 57.7508 175.557 57.8196 175.398C57.8884 175.234 57.981 175.094 58.0974 174.977C58.2191 174.855 58.3593 174.76 58.518 174.691C58.6768 174.623 58.8488 174.588 59.0339 174.588C59.2138 174.588 59.3832 174.623 59.5419 174.691C59.7059 174.76 59.8462 174.855 59.9626 174.977C60.0843 175.094 60.1795 175.234 60.2483 175.398C60.3171 175.557 60.3515 175.726 60.3515 175.906C60.3515 176.091 60.3171 176.263 60.2483 176.422C60.1795 176.58 60.0843 176.721 59.9626 176.842C59.8462 176.959 59.7059 177.051 59.5419 177.12C59.3832 177.189 59.2138 177.223 59.0339 177.223C58.8488 177.223 58.6768 177.189 58.518 177.12C58.3593 177.051 58.2191 176.959 58.0974 176.842C57.981 176.721 57.8884 176.58 57.8196 176.422C57.7508 176.263 57.7164 176.091 57.7164 175.906ZM64.9824 184.105C64.9824 184.205 64.9956 184.3 65.0221 184.39C65.0486 184.48 65.0935 184.56 65.157 184.628C65.2258 184.692 65.3211 184.742 65.4428 184.779C65.5645 184.816 65.7206 184.835 65.911 184.835C65.9904 184.835 66.0804 184.832 66.1809 184.827C66.2814 184.816 66.382 184.806 66.4825 184.795C66.583 184.785 66.6756 184.771 66.7603 184.755C66.8502 184.74 66.9243 184.726 66.9825 184.716L67.1809 186.652C66.9746 186.679 66.7603 186.703 66.5381 186.724C66.3476 186.745 66.1359 186.761 65.9031 186.771C65.6703 186.787 65.4348 186.795 65.1967 186.795C64.4401 186.795 63.8501 186.623 63.4268 186.279C63.0035 185.935 62.7918 185.388 62.7918 184.636V180.041H61.26V178.136H62.7918V175.731L64.9824 175.144V178.136H67.2127V180.041H64.9824V184.105ZM68.3832 175.255H70.5737V184.327C70.5737 184.507 70.624 184.644 70.7245 184.74C70.8304 184.835 70.997 184.882 71.2246 184.882C71.3304 184.882 71.4203 184.877 71.4944 184.867C71.5738 184.851 71.6743 184.83 71.796 184.803L71.9706 186.668C71.8225 186.689 71.6637 186.711 71.4944 186.732C71.3516 186.748 71.1849 186.761 70.9944 186.771C70.8092 186.787 70.6161 186.795 70.415 186.795C70.1028 186.795 69.8224 186.756 69.5737 186.676C69.325 186.597 69.1107 186.48 68.9308 186.327C68.7562 186.168 68.6213 185.972 68.526 185.74C68.4308 185.507 68.3832 185.237 68.3832 184.93V175.255ZM74.8317 183.144C74.8687 183.398 74.9481 183.631 75.0698 183.843C75.1968 184.054 75.3555 184.237 75.546 184.39C75.7365 184.538 75.956 184.655 76.2047 184.74C76.4534 184.824 76.718 184.867 76.9984 184.867C77.3212 184.867 77.6704 184.806 78.0461 184.684C78.4218 184.557 78.7657 184.374 79.0779 184.136L80.1335 185.676C79.7367 186.009 79.2499 186.279 78.6731 186.486C78.0964 186.692 77.4826 186.795 76.8318 186.795C76.2444 186.795 75.6915 186.695 75.1729 186.494C74.6544 186.293 74.1994 186.002 73.8078 185.621C73.4215 185.24 73.1146 184.777 72.8871 184.232C72.6649 183.687 72.5538 183.073 72.5538 182.39C72.5538 181.766 72.6517 181.184 72.8474 180.644C73.0485 180.104 73.3263 179.636 73.6808 179.239C74.0406 178.842 74.4692 178.533 74.9666 178.311C75.464 178.083 76.0143 177.969 76.6175 177.969C77.1783 177.969 77.6995 178.073 78.181 178.279C78.6625 178.48 79.0805 178.766 79.4351 179.136C79.7896 179.501 80.0674 179.94 80.2684 180.454C80.4695 180.967 80.57 181.533 80.57 182.152V183.144H74.8317ZM76.6095 179.874C76.1386 179.874 75.7391 180.033 75.411 180.35C75.0883 180.663 74.9004 181.041 74.8475 181.485H78.2763C78.2657 181.036 78.1017 180.655 77.7842 180.343C77.4667 180.03 77.0752 179.874 76.6095 179.874ZM88.3954 177.223C88.0832 177.223 87.8107 177.274 87.5779 177.374C87.345 177.475 87.1519 177.615 86.9985 177.795C86.845 177.975 86.7313 178.186 86.6572 178.43C86.5831 178.668 86.5461 178.927 86.5461 179.208L84.1888 178.993C84.1941 178.369 84.3052 177.816 84.5222 177.334C84.7391 176.848 85.0354 176.44 85.4111 176.112C85.7868 175.779 86.2286 175.527 86.7365 175.358C87.2498 175.184 87.808 175.096 88.4112 175.096C89.0409 175.096 89.615 175.191 90.1335 175.382C90.6574 175.567 91.1045 175.829 91.4749 176.168C91.8453 176.506 92.131 176.914 92.3321 177.39C92.5384 177.861 92.6416 178.379 92.6416 178.946C92.6416 179.565 92.5172 180.144 92.2686 180.684C92.0252 181.218 91.6997 181.716 91.2923 182.176C90.8849 182.631 90.4166 183.049 89.8875 183.43C89.3584 183.806 88.8134 184.144 88.2525 184.446L88.0382 184.557H92.7845V186.636H84.4825V184.573C84.9111 184.34 85.3476 184.091 85.7921 183.827C86.2418 183.562 86.6757 183.287 87.0937 183.001C87.517 182.71 87.9165 182.409 88.2922 182.097C88.6679 181.784 88.9933 181.462 89.2684 181.128C89.5489 180.79 89.7711 180.443 89.9351 180.089C90.0991 179.729 90.1812 179.358 90.1812 178.977C90.1812 178.76 90.1441 178.546 90.07 178.334C89.996 178.123 89.8848 177.935 89.7367 177.771C89.5938 177.607 89.4086 177.475 89.1811 177.374C88.9589 177.274 88.697 177.223 88.3954 177.223Z" fill="white"/>
<ellipse cx="31.8131" cy="30.5754" rx="5.63655" ry="5.50844" transform="rotate(-90 31.8131 30.5754)" fill="white"/>
<path d="M44.957 23.6939H53.632V25.829H50.4493V35.0754H48.1397V25.829H44.957V23.6939ZM56.8423 35.0754H54.6517V26.575H56.8423V35.0754ZM54.4215 24.3448C54.4215 24.1649 54.4559 23.9955 54.5247 23.8368C54.5935 23.6728 54.6861 23.5326 54.8025 23.4161C54.9242 23.2945 55.0644 23.1992 55.2231 23.1304C55.3819 23.0616 55.5538 23.0272 55.739 23.0272C55.9189 23.0272 56.0882 23.0616 56.247 23.1304C56.411 23.1992 56.5512 23.2945 56.6676 23.4161C56.7893 23.5326 56.8846 23.6728 56.9534 23.8368C57.0222 23.9955 57.0565 24.1649 57.0565 24.3448C57.0565 24.53 57.0222 24.7019 56.9534 24.8607C56.8846 25.0194 56.7893 25.1596 56.6676 25.2813C56.5512 25.3977 56.411 25.4903 56.247 25.5591C56.0882 25.6279 55.9189 25.6623 55.739 25.6623C55.5538 25.6623 55.3819 25.6279 55.2231 25.5591C55.0644 25.4903 54.9242 25.3977 54.8025 25.2813C54.6861 25.1596 54.5935 25.0194 54.5247 24.8607C54.4559 24.7019 54.4215 24.53 54.4215 24.3448ZM61.6875 32.5436C61.6875 32.6441 61.7007 32.7393 61.7272 32.8293C61.7536 32.9193 61.7986 32.9986 61.8621 33.0674C61.9309 33.1309 62.0261 33.1812 62.1478 33.2182C62.2695 33.2552 62.4256 33.2738 62.6161 33.2738C62.6955 33.2738 62.7854 33.2711 62.886 33.2658C62.9865 33.2552 63.087 33.2447 63.1876 33.2341C63.2881 33.2235 63.3807 33.2103 63.4654 33.1944C63.5553 33.1785 63.6294 33.1653 63.6876 33.1547L63.886 35.0913C63.6797 35.1178 63.4654 35.1416 63.2431 35.1627C63.0526 35.1839 62.841 35.1998 62.6082 35.2104C62.3754 35.2262 62.1399 35.2342 61.9018 35.2342C61.1451 35.2342 60.5552 35.0622 60.1319 34.7183C59.7086 34.3743 59.4969 33.8267 59.4969 33.0753V28.4799H57.9651V26.575H59.4969V24.1702L61.6875 23.5828V26.575H63.9178V28.4799H61.6875V32.5436ZM65.0882 23.6939H67.2788V32.7658C67.2788 32.9457 67.3291 33.0833 67.4296 33.1785C67.5354 33.2738 67.7021 33.3214 67.9296 33.3214C68.0355 33.3214 68.1254 33.3161 68.1995 33.3055C68.2789 33.2896 68.3794 33.2685 68.5011 33.242L68.6757 35.1072C68.5276 35.1284 68.3688 35.1495 68.1995 35.1707C68.0566 35.1866 67.89 35.1998 67.6995 35.2104C67.5143 35.2262 67.3211 35.2342 67.1201 35.2342C66.8079 35.2342 66.5275 35.1945 66.2788 35.1151C66.0301 35.0358 65.8158 34.9193 65.6359 34.7659C65.4613 34.6072 65.3263 34.4114 65.2311 34.1786C65.1359 33.9458 65.0882 33.6759 65.0882 33.369V23.6939ZM71.5367 31.5832C71.5738 31.8372 71.6531 32.07 71.7748 32.2817C71.9018 32.4933 72.0606 32.6759 72.2511 32.8293C72.4415 32.9775 72.6611 33.0939 72.9098 33.1785C73.1585 33.2632 73.4231 33.3055 73.7035 33.3055C74.0263 33.3055 74.3755 33.2447 74.7512 33.123C75.1269 32.996 75.4708 32.8134 75.783 32.5753L76.8386 34.1151C76.4417 34.4484 75.9549 34.7183 75.3782 34.9246C74.8014 35.131 74.1877 35.2342 73.5368 35.2342C72.9495 35.2342 72.3966 35.1336 71.878 34.9326C71.3595 34.7315 70.9044 34.4405 70.5129 34.0595C70.1266 33.6785 69.8197 33.2156 69.5922 32.6706C69.37 32.1256 69.2588 31.5118 69.2588 30.8292C69.2588 30.2048 69.3567 29.6228 69.5525 29.0831C69.7536 28.5434 70.0314 28.0751 70.3859 27.6783C70.7457 27.2814 71.1743 26.9719 71.6717 26.7496C72.169 26.5221 72.7193 26.4084 73.3225 26.4084C73.8834 26.4084 74.4046 26.5115 74.8861 26.7179C75.3676 26.919 75.7856 27.2047 76.1401 27.5751C76.4946 27.9402 76.7724 28.3794 76.9735 28.8926C77.1746 29.4059 77.2751 29.972 77.2751 30.5911V31.5832H71.5367ZM73.3146 28.3132C72.8437 28.3132 72.4442 28.4719 72.1161 28.7894C71.7934 29.1016 71.6055 29.4799 71.5526 29.9244H74.9813C74.9708 29.4746 74.8067 29.0937 74.4893 28.7815C74.1718 28.4693 73.7802 28.3132 73.3146 28.3132ZM83.021 31.5991C83.1056 31.8689 83.2247 32.1044 83.3781 32.3055C83.5316 32.5012 83.7088 32.6653 83.9099 32.7976C84.1163 32.9245 84.3385 33.0198 84.5766 33.0833C84.82 33.1415 85.0713 33.1706 85.3306 33.1706C85.6904 33.1706 85.9947 33.1283 86.2433 33.0436C86.4973 32.9536 86.701 32.8399 86.8545 32.7023C87.0132 32.5594 87.127 32.4007 87.1958 32.2261C87.2646 32.0462 87.299 31.8636 87.299 31.6785C87.299 31.2287 87.1111 30.8742 86.7354 30.6149C86.365 30.3503 85.7936 30.2181 85.0211 30.2181H84.3861V28.2973H84.8703C85.5687 28.2973 86.1137 28.1836 86.5053 27.956C86.9021 27.7285 87.1005 27.3819 87.1005 26.9163C87.1005 26.7152 87.0556 26.5353 86.9656 26.3766C86.8757 26.2126 86.7513 26.075 86.5926 25.9639C86.4391 25.8528 86.2539 25.7681 86.037 25.7099C85.8253 25.6464 85.5952 25.6147 85.3465 25.6147C85.0607 25.6147 84.7988 25.6544 84.5607 25.7337C84.3279 25.8131 84.1189 25.9216 83.9337 26.0591C83.7485 26.1967 83.5871 26.3581 83.4496 26.5433C83.3173 26.7285 83.2115 26.9243 83.1321 27.1306L81.1002 26.3131C81.2219 25.8686 81.423 25.4744 81.7034 25.1305C81.9839 24.7866 82.3119 24.4982 82.6876 24.2654C83.0686 24.0273 83.4866 23.8474 83.9416 23.7257C84.3967 23.5987 84.8597 23.5352 85.3306 23.5352C85.9179 23.5352 86.4629 23.6066 86.9656 23.7495C87.4683 23.8924 87.9048 24.1014 88.2752 24.3765C88.6509 24.6464 88.9445 24.9797 89.1562 25.3766C89.3678 25.7734 89.4737 26.2258 89.4737 26.7338C89.4737 27.0354 89.4234 27.3185 89.3229 27.583C89.2276 27.8423 89.0953 28.0777 88.926 28.2894C88.762 28.4958 88.5662 28.673 88.3387 28.8212C88.1112 28.9693 87.8678 29.0831 87.6085 29.1625C87.8995 29.226 88.172 29.3318 88.426 29.4799C88.68 29.6281 88.9022 29.8133 89.0927 30.0355C89.2832 30.2577 89.4313 30.5144 89.5372 30.8054C89.6483 31.0964 89.7038 31.4139 89.7038 31.7578C89.7038 32.2817 89.5901 32.7579 89.3625 33.1865C89.1403 33.6151 88.8334 33.9801 88.4419 34.2818C88.0503 34.5834 87.5873 34.8188 87.0529 34.9881C86.5238 35.1522 85.9497 35.2342 85.3306 35.2342C84.7856 35.2342 84.2618 35.1654 83.7591 35.0278C83.2564 34.885 82.804 34.6839 82.4019 34.4246C81.9998 34.1601 81.6611 33.8399 81.386 33.4643C81.1108 33.0833 80.9256 32.6547 80.8304 32.1785L83.021 31.5991Z" fill="white"/>
</svg>
