<svg width="480" height="320" viewBox="0 0 480 320" fill="none" xmlns="http://www.w3.org/2000/svg">
<mask id="mask0_1812_17513" style="mask-type:alpha" maskUnits="userSpaceOnUse" x="0" y="0" width="478" height="320">
<rect width="477.689" height="320" fill="#F4F8FB"/>
</mask>
<g mask="url(#mask0_1812_17513)">
<rect width="897.512" height="1237.53" transform="translate(-218.857 -667.556)" fill="#F4F8FB"/>
<path fill-rule="evenodd" clip-rule="evenodd" d="M275.563 43.1892C272.954 45.737 270.517 47.7973 268.226 47.5413C268.006 50.016 265.995 48.48 265.045 50.5158C264.118 52.4663 262.875 52.4663 260.243 52.954C258.634 56.5868 263.948 57.2086 263.923 61.3656C261.449 62.1336 261.973 62.67 261.839 64.9009C260.194 65.1447 258.61 69.4237 257.062 66.8149C254.539 63.0601 255.307 57.5255 251.151 61.1218C249.262 60.939 245.313 59.2566 247.641 62.219C244.35 62.0361 241.644 63.4015 239.183 65.9981C237.464 70.9963 244.143 68.4606 245.24 71.1548C242.351 73.8246 240.938 80.6392 245.41 78.7619C243.509 81.2122 242.961 82.1021 242.205 85.8325C243.022 87.3076 244.643 87.271 243.802 89.0874C244.606 90.7941 244.996 93.915 245.094 94.7805C243.217 96.9139 238.732 91.4768 238.549 95.0609C241.913 96.8895 238.5 99.8397 240.145 101.571C242.498 102.278 243.375 102.997 243.326 105.923C244.74 106.301 247.629 109.19 247.799 106.167C251.76 106.374 254.868 104.582 257.22 108.885C259.524 110.019 259.292 113.603 259.304 115.956C260.877 117.346 257.086 117.065 260.255 118.674C257.635 117.711 255.733 118.248 255.636 120.832C253.064 120.503 256.66 123.344 254.186 125.184C255.051 126.684 255.014 128.232 256.745 128.72C252.942 131.426 256.855 133.62 258.183 135.51C258.378 137.192 260.669 131.414 261.693 135.754C264.301 136.863 267.555 135.144 269.53 133.316C271.455 132.718 274.137 131.036 274.953 133.596C277.634 134.181 272.845 142.361 276.55 142.008C277.244 147.14 282.863 142.873 279.085 142.544C277.439 139.63 280.803 135.23 282.936 138.228C284.886 141.654 286.483 135.461 286.288 139.85C285.788 142.678 290.675 140.24 289.968 143.629C295.343 144.921 291.833 139.435 293.003 136.022C294.892 133.194 292.004 128.768 290.115 127.318C288.006 122.003 288.945 119.747 291.553 117.845C289.712 116.102 287.567 118.053 287.896 113.493C285.471 111.872 289.493 108.934 286.3 108.617C284.52 106.532 282.302 106.776 279.584 106.142C276.684 104.545 277.001 100.742 275.441 98.2915C274.222 97.3528 271.09 95.9264 271.76 93.659C273.454 90.8795 276.879 91.1233 276.087 93.9394C277.708 99.9616 282.083 95.9021 285.179 98.8157C285.703 95.6826 288.116 96.4141 288.542 95.0365C286.178 92.6349 285.495 89.5385 282.132 87.9659C279.438 88.2341 277.379 85.2474 275.099 84.4306C276.501 78.8838 278.439 78.2498 279.426 74.6657C276.964 70.4234 281.632 68.5947 279.426 65.4373C276.184 63.438 281.303 60.4269 282.29 58.3667C285.63 56.148 283.533 52.0275 280.694 50.7597C280.364 48.1386 282.644 44.2863 278.951 43.9694C278 43.3477 277.037 42.9575 275.587 43.1526L275.563 43.1892ZM286.58 108.641C286.385 107.861 287.043 108.958 286.58 108.641V108.641ZM254.332 121.113C253.735 120.796 254.344 121.844 254.332 121.113V121.113ZM260.097 53.2222C259.585 53.3685 260.182 52.3566 260.097 53.2222V53.2222ZM255.928 120.832C255.843 121.698 256.44 120.686 255.928 120.832V120.832Z" fill="#D76868" stroke="white" stroke-width="0.713856" stroke-miterlimit="10"/>
<path fill-rule="evenodd" clip-rule="evenodd" d="M345.205 -34.7469C342.036 -31.8577 336.076 -34.0154 338.173 -26.3353C334.114 -20.8494 329.324 -26.128 325.887 -24.9577C323.17 -22.6414 321.439 -22.4952 318.209 -22.5195C316.271 -27.1276 311.762 -19.5572 309.751 -24.7139C306.339 -26.9204 303.999 -22.8609 300.159 -21.7027C297.368 -21.9953 293.261 -22.7268 292.822 -20.0814C297.064 -18.3869 289.069 -10.1093 295.211 -11.3771C298.307 -13.4374 300.671 -10.5116 299.038 -7.8784C302.146 -7.67116 297.637 -3.02647 301.281 -2.96552C303.621 -1.39291 304.559 -1.45388 304.145 1.63039C306.753 4.61713 302.085 7.60387 303.024 9.51782C298.368 11.6756 297.368 18.2342 292.506 16.5885C291.969 18.7828 292.506 20.1116 293.773 21.7208C294.675 22.9765 295.431 25.8656 297.6 26.8775C297.161 32.6071 302.621 29.2059 302.402 32.0342C301 34.8624 303.999 40.202 305.266 37.1909C306.765 35.8011 311.543 35.8743 308.947 40.202C310.568 42.8474 312.335 39.7022 313.249 43.4569C314.455 44.7735 310.689 46.59 314.2 46.9923C317.636 48.1504 312.371 51.6126 316.905 50.491C319.891 51.2347 323.182 49.5279 321.707 55.6477C321.146 58.5369 321.256 61.5603 321.536 63.8156C324.364 65.0346 322.902 70.2888 326.485 66.2537C329.946 64.7299 331.823 60.1339 335.284 64.0593C339.269 61.1945 338.502 74.8969 341.67 68.4115C342.304 64.7177 343.742 60.7922 345.497 64.0593C347.13 63.5717 350.543 64.5714 349.653 60.8044C350.421 57.2935 354.09 58.0859 355.564 59.7073C360.135 53.9166 363.243 67.8263 366.753 65.1565C365.4 62.9744 370.263 60.5728 367.374 59.183C366.058 56.5986 367.008 53.6241 368.495 52.9292C369.812 51.9052 368.812 47.3214 371.055 47.7969C372.798 45.3099 376.332 49.9181 376.174 43.1644C377.929 41.2382 377.088 35.1185 374.577 37.7151C373.017 36.0937 370.263 34.5333 369.3 36.0937C368.958 38.2149 363.145 39.5437 363.559 36.0937C365.534 35.021 361.512 32.7047 363.876 30.937C365.01 25.0001 367.606 32.7412 370.263 34.2285C374.869 33.3386 379.013 30.364 373.943 27.6821C372.724 25.6096 368.081 25.4512 371.384 21.7086C369.397 20.4651 366.606 17.2224 365.96 12.2364C370.921 10.615 371.164 5.67772 367.398 3.53215C364.79 -1.28321 360.622 -3.34345 355.759 -1.34416C354.565 -0.234802 350.226 -4.00175 353.346 -4.35529C352.871 -5.19645 350.58 -4.83071 352.249 -7.6102C350.482 -7.06162 353.212 -9.56073 351.603 -10.0484C354.248 -11.2674 348.105 -13.7543 351.433 -16.0218C355.235 -18.1796 346.57 -20.8616 349.349 -22.8121C350.835 -26.128 348.227 -25.421 347.118 -27.408C346.923 -32.7842 351.433 -35.3686 345.205 -34.7591V-34.7469ZM351.274 -7.06164C351.421 -6.15952 351.555 -7.40298 351.274 -7.06164V-7.06164Z" fill="#5694CA" stroke="white" stroke-width="0.713856" stroke-miterlimit="10"/>
<path fill-rule="evenodd" clip-rule="evenodd" d="M14.7963 179.214C12.4319 182.384 8.78781 179.897 5.85059 181.933C2.06025 180.397 -0.316345 184.163 -4.6917 183.274C-7.10485 185.651 -10.0908 182.128 -12.5161 184.09C-15.1974 185.09 -20.9256 185.846 -21.9372 187.626C-19.2681 190.381 -22.5222 195.135 -24.8256 193.88C-23.2412 195.489 -21.3522 199.024 -22.7415 202.291C-20.6818 202.949 -18.0615 207.96 -21.3034 204.449C-24.07 199.914 -21.1571 208.338 -24.655 208.801C-26.4344 212.41 -30.2369 218.066 -35.6726 215.055C-38.2076 211.702 -44.0942 210.215 -47.3361 212.044C-48.104 215.226 -47.7018 219.968 -49.079 223.186C-47.9333 227.831 -39.9748 220.98 -41.5714 226.965C-40.8401 229.733 -37.1473 232.524 -39.658 234.853C-39.0364 241.619 -42.193 242.923 -44.1308 244.362C-41.1083 243.837 -38.8414 249.409 -37.4154 247.336C-37.0498 244.739 -34.2345 247.653 -35.0267 248.957C-34.9535 251.249 -33.0766 255.772 -33.5885 257.662C-30.7122 259.515 -32.2723 267.902 -28.165 266.646C-28.165 269.365 -30.31 275.497 -27.2144 274.497C-27.0925 275.253 -24.655 272.754 -26.4222 276.119C-23.1072 277.106 -27.0072 282.945 -24.3381 279.934C-23.1803 280.373 -20.8037 282.031 -20.6575 281.556C-20.56 285.225 -19.2681 284.786 -17.9518 285.908C-19.7068 287.663 -22.315 284.871 -21.3034 289.687C-24.2894 292.259 -21.6812 291.394 -20.6575 291.308C-18.1712 295.526 -21.7056 300.305 -18.4271 302.975C-18.1102 308.095 -15.4412 304.048 -13.4546 306.51C-13.8446 311.021 -12.3821 313.349 -8.83548 312.484C-5.24014 313.252 -11.1633 313.276 -7.71422 314.922C-4.42356 316.763 -2.16886 312.581 1.06086 313.581C1.47523 315.58 6.17966 315.178 5.69215 317.652C7.86155 316.994 9.8847 322.37 8.42218 323.102C10.3113 324.467 14.5647 329.563 15.6007 326.076C17.2826 324.869 17.051 319.81 17.6848 321.2C18.2332 324.37 14.5891 325.906 18.477 326.613C20.6707 330.087 22.1576 326.978 25.0217 326.076C28.0077 325.967 27.057 326.625 25.9723 323.102C26.1064 314.666 30.7986 310.96 33.4799 310.338C33.5165 308.497 32.6511 304.755 31.5664 303.267C33.3458 303.048 32.9315 309.96 35.7224 309.521C38.489 308.924 37.1606 305.181 38.9034 303.267C44.205 303.06 42.9131 292.137 40.5 286.152C36.149 282.287 42.1819 277.655 42.5841 274.241C44.5219 272.242 47.13 269.743 44.0222 269.328C43.0715 265.049 44.2172 261.27 44.1928 266.354C45.7772 266.549 44.0709 271.035 45.4603 269.072C49.336 272.681 50.9813 269.206 55.2104 267.451C58.0258 265.342 58.9033 259.466 63.8149 259.844C67.654 258.661 72.9799 261.16 75.32 256.833C79.2444 258.076 84.2291 257.308 85.716 254.114C85.3991 251.761 88.056 249.348 85.2163 247.885C86.2035 245.13 93.833 244.252 89.3723 242.435C85.0457 241.887 84.485 239.412 83.4613 235.121C80.6825 235.023 78.4644 236.413 77.8672 233.207C75.515 231.817 78.9519 225.405 74.2109 227.758C70.5912 229.428 67.788 230.403 65.7527 226.697C67.788 224.454 67.7271 219.626 63.5102 222.345C58.5498 224.161 55.9904 218.554 52.651 217.188C49.3604 219.346 48.8972 215.116 49.2994 211.739C46.3988 211.081 45.1313 209.496 42.1087 210.398C39.0375 207.448 37.6603 213.129 35.8931 213.653C32.0418 214.031 27.8614 213.677 31.0911 207.96C30.8352 204.169 26.3502 207.277 24.2295 203.888C20.4026 202.803 17.7335 199.731 13.8578 197.915C11.7494 197.573 9.50688 189.771 11.7738 188.93C14.1504 189.015 19.0498 190.686 20.232 187.589C19.257 185.882 20.951 180.945 19.9151 180.518C17.8798 180.616 16.3929 180.055 14.7963 179.177V179.214ZM43.8516 267.195C43.7662 268.06 44.3634 267.049 43.8516 267.195V267.195ZM44.01 267.475C43.9369 268.268 44.4975 267.329 44.01 267.475V267.475ZM44.01 268.536C44.1806 269.475 44.3147 268.146 44.01 268.536V268.536ZM-0.694164 313.617C-1.24261 313.91 -0.462601 314.142 -0.694164 313.617V313.617ZM-5.49607 315.531C-5.98357 315.787 -5.30106 315.982 -5.49607 315.531V315.531ZM-13.9665 306.022C-14.4418 305.303 -14.3565 307.229 -13.9665 306.022V306.022ZM-18.2687 304.669C-18.5734 305.059 -18.4393 303.731 -18.2687 304.669V304.669ZM-48.9205 224.552C-49.213 224.942 -49.1033 223.698 -48.9205 224.552V224.552ZM-49.079 222.918C-49.3715 223.308 -49.2618 222.065 -49.079 222.918V222.918ZM-10.2858 183.286C-10.7733 183.432 -10.2127 182.493 -10.2858 183.286V183.286ZM-59.7919 185.48C-60.2306 186.931 -59.6091 193.977 -58.5 190.356C-58.6219 187.943 -58.5244 186.309 -59.7919 185.48ZM-58.1953 191.161C-58.2806 192.027 -57.6834 191.015 -58.1953 191.161V191.161ZM44.4975 265C44.4122 265.866 45.0094 264.854 44.4975 265V265ZM44.6559 265.561C44.5828 266.354 45.1434 265.415 44.6559 265.561V265.561ZM44.9728 266.914C44.4731 267.231 45.2044 267.414 44.9728 266.914V266.914ZM45.3019 267.475C45.4481 268.292 45.57 267.134 45.3019 267.475V267.475ZM-16.0262 306.547C-16.0262 307.4 -14.8562 306.364 -16.0262 306.547V306.547ZM-15.234 309.802C-14.844 310.618 -13.7836 309.424 -15.234 309.802V309.802ZM-11.8824 313.337C-12.4796 314.495 -10.9683 313.239 -11.8824 313.337V313.337ZM18.1479 320.944C17.3801 321.651 18.5866 321.554 18.1479 320.944V320.944ZM16.8804 323.126C16.8073 323.882 17.3313 323.004 16.8804 323.126V323.126ZM18.1479 323.382C17.9529 324.162 18.611 323.065 18.1479 323.382V323.382Z" fill="#1D70B8" stroke="white" stroke-width="0.713856" stroke-miterlimit="10"/>
<path fill-rule="evenodd" clip-rule="evenodd" d="M138.234 202.839C134.516 204.107 137.783 206.472 137.588 208.813C134.382 210.763 131.75 216.139 136.32 216.42C136.43 217.7 131.153 220.418 129.934 218.858C127.703 218.626 127.496 223.673 125.607 219.675C123.986 217.005 123.158 214.396 120.513 215.079C119.221 214.067 119.355 218.699 116.662 216.956C113.871 216.298 116.576 220.845 114.102 222.93C115.382 223.698 113.078 226.343 113.481 228.659C115.638 233.426 110.47 229.342 109.325 231.341C106.095 233.731 103.316 233.243 99.5867 234.876C97.5757 234.681 97.137 234.34 94.7848 236.254C91.6891 234.925 85.8269 237.156 85.0469 240.85C86.8385 242.532 91.2869 241.277 90.4704 244.385C88.4594 245.324 82.9262 247.018 86.7897 249.798C85.7294 251.371 84.8031 256.381 87.4357 253.894C90.2632 250.822 96.8201 255.272 100.208 255.515C109.154 260.05 121.171 267.987 127.85 278.044C126.497 280.458 127.192 287.09 128.8 281.579C132.956 278.142 128.142 276.203 126.07 274.265C127.862 270.949 127.704 270.961 128.484 268.011C133.188 264.366 139.964 269.242 145.083 269.108C148.337 268.462 149.605 269.23 152.591 269.645C154.26 270.352 157.466 272.985 160.269 272.619C160.842 277.776 165.558 270.827 168.252 272.9C171.823 272.57 167.496 267.914 171.603 266.67C172.152 265.5 167.923 264.963 170.653 260.94C170.275 256.6 178.282 253.248 183.279 254.711C187.447 257.503 187.325 251.98 191.262 251.992C194.65 249.676 189.092 249.383 187.264 250.371C188.885 243.642 184.278 248.25 183.584 247.36C182.328 244.458 180.646 239.972 183.267 238.131C181.548 235.779 182.731 233.109 179.269 234.876C177.124 234.145 178.428 228.464 180.707 228.647C182.645 225.014 179.489 223.015 177.843 225.356C174.345 227.111 172.371 218.358 169.214 216.688C167.959 214.359 164.864 219.809 162.353 218.565C160.098 221.759 155.406 223.856 155.162 217.505C149.946 215.786 150.117 207.923 145.912 204.985C144.023 204.022 141.086 203.522 138.234 202.827V202.839ZM182.633 237.315C182.56 236.522 183.121 237.461 182.633 237.315V237.315ZM182.316 244.105C182.231 244.946 182.779 243.983 182.316 244.105V244.105ZM182.804 245.202C182.718 244.361 183.267 245.324 182.804 245.202V245.202ZM144.62 269.096C144.425 269.584 145.156 269.34 144.62 269.096V269.096ZM128.337 270.449C128.508 269.51 128.642 270.839 128.337 270.449V270.449ZM128.508 275.886C128.276 275.386 129.008 275.569 128.508 275.886V275.886ZM129.459 276.423C128.91 276.13 129.69 275.898 129.459 276.423V276.423ZM129.605 276.423C129.775 275.484 129.909 276.813 129.605 276.423V276.423ZM128.02 271.546C128.167 272.363 128.289 271.205 128.02 271.546V271.546ZM128.654 271.79C128.423 272.314 129.203 272.083 128.654 271.79V271.79ZM129.129 272.071C129.044 272.936 129.641 271.924 129.129 272.071V272.071Z" fill="#1D70B8" stroke="white" stroke-width="0.713856" stroke-miterlimit="10"/>
<path fill-rule="evenodd" clip-rule="evenodd" d="M343.912 193.318C341.865 195.22 333.516 192.221 337.526 198.475C336.831 199.109 334.479 199.011 334.345 199.852C331.542 200.169 330.725 201.937 332.895 204.729C333.577 207.484 336.661 205.265 333.87 207.983C334.065 209.459 331.31 211.531 332.749 214.237C332.419 220.723 328.568 215.322 326.838 216.115C325.473 217.992 323.498 217.395 325.241 220.747C324.571 222.905 323.133 224.831 322.852 229.976C321.56 232.377 319.915 230.792 319.488 229.976C318.172 234.206 317.148 232.45 314.394 232.133C312.736 236.522 317.343 240.533 320.61 240.021C324.327 239.119 325.338 244.422 327.154 241.642C332.176 244.422 336.393 245.507 341.524 246.519C344.741 250.383 349.263 249.432 353.029 252.248C357.416 253.662 358.452 246.202 362.279 244.361C366.13 236.997 374.333 238.887 380.329 235.949C386.996 235.352 391.566 231.951 395.99 226.965C398.72 222.966 404.485 226.94 407.154 223.99C406.045 218.297 404.119 222.795 402.681 222.076C400 218.175 400.036 214.506 395.819 214.225C393.102 216.468 391.273 213.03 389.433 212.031C386.252 210.921 382.584 215.993 379.695 212.031C377.928 209.666 372.517 211.348 373.626 207.155C370.737 205.631 368.19 205.009 367.386 202.522C365.935 200.876 362.316 203.765 364.351 199.267C360.512 199.328 362.438 195.659 358.282 197.353C357.197 198.548 354.893 197.56 352.712 197.109C349.823 198.56 345.972 197.841 347.288 194.098C346.265 193.574 345.387 193.05 343.925 193.281L343.912 193.318ZM369.165 204.997C369.092 204.241 369.616 205.119 369.165 204.997V204.997ZM357.66 249.542C357.124 249.786 357.855 250.029 357.66 249.542V249.542ZM357.331 249.798C356.831 250.115 357.563 250.298 357.331 249.798V249.798ZM338.66 246.007C338.428 246.531 339.208 246.299 338.66 246.007V246.007Z" fill="#CA3535" stroke="white" stroke-width="0.713856" stroke-miterlimit="10"/>
<path fill-rule="evenodd" clip-rule="evenodd" d="M351.271 57.8542C349.236 60.78 350.955 62.9622 348.237 63.5474C346.677 64.7177 345.056 63.8278 343.118 62.4502C343.081 67.5947 339.413 69.6062 340.254 73.8729C343.898 72.1297 343.849 79.822 344.556 83.1014C342.838 91.1107 349.395 84.9543 349.187 86.8805C349.2 89.0992 351.832 90.7572 348.541 90.9522C347.81 93.3172 347.664 96.8769 348.371 97.4987C346.616 100.461 343.459 102.521 339.279 102.095C337 103.789 334.855 104.167 333.855 108.068C331.393 110.884 333.648 118.15 333.356 122.173C336.732 121.783 336.732 126.513 339.12 127.329C342.216 128.719 344.178 124.245 348.541 125.172C351.174 124.16 355.659 123.867 356.049 127.61C356.817 128.902 358.109 134.351 360.68 133.864C362.74 136.57 361.911 137.155 359.559 137.362C357.292 136.631 356.415 140.934 355.403 139.276C354.111 138.984 354.623 141.788 353.319 142.531C349.785 143.946 356.488 149.809 358.767 148.261C361.546 145.274 363.167 152.711 367.225 150.138C372.685 152.101 371.698 141.142 376.963 142.824C380.973 141.288 387.712 144.323 391.162 141.203C392.1 137.399 395.988 140.788 395.793 140.386C398.462 141.568 397.645 140.459 399.144 141.203C400.522 139.715 398.962 143.056 402.35 142.019C403.191 140.057 404.409 143.092 405.08 140.678C405.714 139.532 406.018 142.641 408.114 140.678C405.592 138.764 409.662 138.74 410.345 138.484C407.883 140.325 412.575 139.13 413.075 139.301C414.696 137.07 406.469 137.558 411.625 136.863C414.927 137.314 414.623 136.655 412.27 135.522C412.429 134.461 416.963 136.546 417.694 132.511C414.513 133.693 414.123 132.401 417.072 131.45C416.646 131.06 416.792 129.158 418.657 128.439C417.401 127.793 421.192 125.611 419.473 125.464C421.436 124.477 422.081 125.013 419.79 124.087C421.618 123.124 423.044 123.721 423.946 122.465C427.188 122.392 423.593 118.418 421.557 120.844C417.389 120.734 413.806 127.915 410.199 125.196C413.05 124.526 416.28 121.441 415.622 120.844C418.194 114.615 416.158 104.435 410.199 107.263C407.785 110.348 406.871 106.02 410.199 105.106C413.757 102.424 417.426 105.398 418.998 101.034C420.229 96.5356 420.777 107.324 423.776 104.289C430.125 104.069 433.83 100.193 438.62 96.9379C440.509 94.0365 445.591 89.599 440.704 87.1731C438.181 85.2104 442.91 80.8095 442.947 78.7615C437.462 78.7615 430.406 77.6887 425.067 78.7615C423.325 78.1397 421.777 76.5793 419.303 77.6643C417.523 75.9454 415.707 76.6037 414.671 74.6897C411.308 74.9701 407.859 75.4943 404.934 76.5671C402.728 75.1286 399.108 78.3226 399.169 73.5925C398.108 71.6664 395.976 70.6789 396.634 66.8023C394.391 68.3505 391.6 64.8761 394.074 64.3641C393.928 63.1572 393.794 61.2433 393.745 60.012C390.187 57.8421 387.018 59.5732 383.374 60.5484C381.009 61.1824 379.864 63.2182 376.683 63.267C375.366 61.5359 373.063 59.5 371.734 60.8288C369.443 61.609 365.238 62.5477 366.616 65.9855C362.24 65.4369 360.01 54.3555 355.427 60.012C354.611 58.2809 352.807 58.5247 351.284 57.8542H351.271ZM372.514 61.1092C372.283 60.585 373.063 60.8166 372.514 61.1092V61.1092ZM442.947 80.1024C443.008 80.7973 444.117 80.1877 442.947 80.1024V80.1024ZM440.863 87.1731C440.972 86.0881 441.655 87.2218 440.863 87.1731V87.1731ZM420.424 100.754C420.119 101.144 420.253 99.8149 420.424 100.754V100.754ZM418.657 128.158C419.485 127.378 420.083 128.488 418.657 128.158V128.158ZM420.729 100.754C421.082 101.973 421.228 100.9 420.729 100.754V100.754ZM421.375 101.278C421.289 102.143 421.887 101.131 421.375 101.278V101.278ZM417.865 102.911C417.633 103.436 418.413 103.204 417.865 102.911V102.911ZM422.813 122.173C422.264 122.465 423.044 122.697 422.813 122.173V122.173ZM420.899 122.465C420.192 123.075 422.045 122.648 420.899 122.465V122.465ZM421.375 122.465C421.46 123.087 422.447 122.319 421.375 122.465V122.465ZM338.487 125.72C338.401 126.586 338.999 125.574 338.487 125.72V125.72ZM416.426 129.536C417.584 129.865 414.184 130.877 416.426 129.78V129.536ZM415.305 130.633C415.232 131.426 415.793 130.487 415.305 130.633V130.633ZM415.622 131.157C414.769 132.389 417.621 130.877 415.622 131.157V131.157ZM412.441 132.791C412.612 133.73 412.746 132.401 412.441 132.791V132.791ZM413.562 134.132C413.477 134.973 414.025 134.01 413.562 134.132V134.132ZM414.342 134.132C414.111 134.656 414.891 134.425 414.342 134.132V134.132ZM412.6 134.412C412.514 135.253 413.063 134.29 412.6 134.412V134.412ZM407.798 137.667C407.785 138.533 408.651 137.448 407.798 137.667V137.667ZM408.76 137.948C408.675 138.813 409.272 137.801 408.76 137.948V137.948ZM408.127 138.228C408.054 138.984 408.578 138.106 408.127 138.228V138.228ZM406.201 139.289C406.189 140.154 407.054 139.069 406.201 139.289V139.289ZM399.339 139.581C399.51 140.52 399.644 139.191 399.339 139.581V139.581ZM404.763 139.581C404.909 140.471 405.75 139.423 404.763 139.581V139.581ZM399.815 139.862C399.534 141.251 400.717 139.435 399.815 139.862V139.862ZM408.127 139.862C408.054 140.617 408.578 139.74 408.127 139.862V139.862ZM400.765 140.922C400.68 141.788 401.277 140.776 400.765 140.922V140.922ZM401.582 141.203C401.728 142.105 401.862 140.861 401.582 141.203V141.203Z" fill="#D76868" stroke="white" stroke-width="0.713856" stroke-miterlimit="10"/>
<path fill-rule="evenodd" clip-rule="evenodd" d="M184.88 55.1353C182.15 56.9273 181.601 59.4751 179.761 60.8283C178.311 59.5849 175.105 60.4138 177.372 63.2665C179.432 64.193 181.601 67.9477 178.64 70.0567C175.727 67.8746 173.704 63.3762 170.486 66.5214C166.586 63.62 163.917 70.7882 161.394 70.0567C159.432 69.2278 155.447 68.1062 153.887 71.1539C150.608 68.2159 158.957 65.6315 154.033 64.644C150.876 61.9743 149.962 67.1553 150.377 69.24C153.74 71.7878 149.511 72.824 148.134 71.6781C145.684 72.4705 144.697 77.42 140.627 75.7499C138.543 75.0794 138.494 74.3479 138.067 70.3371C136.263 69.3131 134.606 66.8872 132.497 70.3371C131.437 73.5068 128 71.7147 128.817 68.9596C126.257 69.9227 126.257 65.8631 124.344 69.8129C125.672 71.6903 126.014 72.2267 123.869 74.1285C123.271 78.0783 124.685 76.6885 126.574 78.4806C125.429 82.8327 131.559 85.9901 126.574 86.6484C124.198 88.4892 122.711 87.2214 120.517 91.2443C118.262 89.6961 116.739 91.7563 115.886 92.3415C114.119 92.244 110.523 95.377 110.121 97.7542C107.818 99.1805 109.438 101.753 108.537 104.825C111.742 108.141 105.551 110.128 109.158 112.956C108.658 115.248 107.793 112.688 109.329 115.967C109.256 117.491 111.279 118.942 108.208 118.405C107.586 121.148 111.059 117.869 108.378 121.941C110.864 122.087 110.791 131.047 106.635 130.889C105.136 133.924 107.33 134.18 108.22 134.424C106.513 135.911 106.343 142.702 108.39 137.143C110.474 135.85 110.024 143.421 113.814 140.678C116.715 140.41 116.056 140.422 116.544 142.555C120.054 144.664 123.162 141.641 122.601 148.005C121.638 150.979 119.615 149.48 121.504 152.357C123.917 153.161 124.088 153.649 125.502 154.514C129.524 155.685 135.825 148.529 139.225 153.454C141.602 154.673 141.224 148.614 141.138 146.103C141.321 144.079 136.568 143.689 140.042 142.031C141.955 140.3 145.794 139.715 143.393 137.155C143.271 135.728 143.332 132.291 142.918 131.705C144.953 130.913 146.148 128.902 148.341 128.17C149.901 130.182 151.047 128.268 153.119 129.548C155.898 125.671 158.53 119.393 161.577 118.698C164.405 121.636 166.879 122.099 169.731 123.05C167.634 116.138 172.266 119.966 174.679 121.136C178.104 121.88 171.461 115.943 176.275 116.784C176.409 119.868 181.419 121.965 180.748 118.125C181.516 116.686 180.834 111.42 182.186 115.967C183.698 121.173 189.84 119.954 191.291 115.431C192.156 115.504 196.824 118.344 194.155 114.577C191.473 112.944 191.888 111.018 191.766 107.824C191.656 104.093 187.707 101.521 191.595 100.753C193.582 98.5222 191.924 94.2067 192.546 91.2443C192.217 90.4397 194.313 86.0754 195.105 86.0876C198.225 86.0998 193.631 81.0284 197.969 80.1141C196.214 76.5788 191.802 76.018 194.313 71.1661C195.507 69.9105 197.116 67.4235 197.665 66.2898C196.031 65.2292 191.778 67.9843 191.754 64.0954C190.401 62.535 190.888 60.4017 188.89 61.1209C188.256 57.8782 188.743 57.4881 186.647 57.3052C186.159 56.6591 185.794 55.184 184.904 55.1474L184.88 55.1353ZM193.18 116.479C192.668 116.333 193.265 117.345 193.18 116.479V116.479ZM169.706 123.026C169.633 123.818 170.194 122.879 169.706 123.026V123.026ZM141.443 149.09C141.589 148.187 141.723 149.431 141.443 149.09V149.09ZM107.257 136.033C106.404 137.386 106.782 135.107 107.257 136.033V136.033ZM112.205 93.9628C111.742 94.0847 112.29 93.1217 112.205 93.9628V93.9628ZM108.208 134.948C108.013 135.728 108.671 134.631 108.208 134.948V134.948Z" fill="#5694CA" stroke="white" stroke-width="0.713856" stroke-miterlimit="10"/>
<path fill-rule="evenodd" clip-rule="evenodd" d="M242.356 159.379C239.674 160.817 239.857 164.938 236.286 162.67C231.643 162.109 228.62 161.183 225.122 161.293C221.064 161.683 218.139 161.329 214.58 161.573C213.8 163.804 211.533 163.816 213.459 166.169C210.522 168.4 206.865 165.364 205.305 166.986C205.183 170.57 206.512 173.349 204.513 174.337C204.074 176.787 206.439 178.116 203.721 178.933C200.15 175.812 197.712 179.957 195.884 183.285C192.362 182.029 190.424 185.174 193.496 188.161C193.959 190.599 195.116 193.415 194.312 196.048C198.907 196.158 195.592 201.156 197.018 204.753C194.641 210.97 200.918 209.763 199.102 213.457C198.907 213.798 197.895 213.603 197.188 215.078C198.663 216.931 199.419 219.552 196.859 220.491C194.154 224.258 191.387 219.808 188.56 217.772C185.391 216.505 182.1 216.846 179.931 214.274C178.115 210.287 176.092 220.345 175.933 213.713C174.105 214.444 170.802 215.603 169.547 216.151C169.9 218.516 173.654 221.186 174.97 224.563C176.457 228.22 180.211 221.93 181.21 225.66C181.393 230.5 177.664 228.281 178.346 233.267C177.481 237.192 183.002 232.17 182.173 235.705C183.721 238.155 182.161 238.704 181.698 242.215C183.27 244.507 182.819 250.456 186.475 246.031C188.365 247.213 186.317 252.199 189.839 249.81C192.728 249.31 192.265 250.822 192.07 252.004C196.506 252.358 200.296 255.247 203.733 256.076C203.599 251.87 209.705 249.603 212.338 248.469C216.201 247.408 218.151 245.628 221.442 244.397C222.319 242.544 226.183 239.96 223.038 240.325C223.136 239.618 220.04 234.023 223.355 236.51C227.219 241.203 231.557 240.021 234.214 244.677C237.176 246.555 238.931 246.323 241.893 245.738C244.586 246.786 247.95 243.495 249.229 246.835C246.804 243.422 253.629 247.018 255.64 246.019C252.91 241.228 256.31 235.973 255.64 233.255C253.008 231.499 253.861 226.599 256.115 225.124C254.056 221.393 256.981 220.845 257.383 216.139C259.516 214.066 257.566 211.141 260.588 209.629C262.758 207.532 263.001 203.4 265.536 205.277C267.072 205.582 269.9 201.949 270.314 201.498C269.424 198.816 273.093 199.035 269.839 197.962C268.047 195.476 266.828 191.062 263.928 193.086C265.536 189.453 263.282 186.747 262.977 183.858C264.976 178.908 267.755 178.957 271.435 181.383C274.653 176.129 270.728 165.998 266.317 165.645C263.27 162.536 259.065 164.413 255.628 162.109C251.314 163.072 250.022 162.634 245.707 162.926C244.501 161.195 243.83 160.744 242.356 159.391V159.379ZM182.32 244.385C181.808 244.531 182.405 243.519 182.32 244.385V244.385ZM269.522 199.584C269.437 200.425 269.985 199.462 269.522 199.584V199.584Z" fill="#D76868" stroke="white" stroke-width="0.713856" stroke-miterlimit="10"/>
<path fill-rule="evenodd" clip-rule="evenodd" d="M323.961 68.4356C327.251 66.1559 330.018 62.7303 333.223 62.4621C335.673 64.437 338.903 63.7056 339.134 68.9842C340.487 71.6417 340.219 74.7504 342.327 74.1409C344.765 77.8712 344.07 83.5034 345.045 87.7214C346.788 87.441 350.603 84.6615 349.043 88.27C352.431 90.0742 347.995 91.1226 348.08 92.6099C347.202 97.5228 349.433 96.645 347.117 99.132C345.362 101.911 339.256 102.472 336.416 103.472C334.881 106.093 331.602 109.153 333.065 115.967C330.481 118.357 324.96 113.676 321.401 116.236C319.585 117.784 317.611 119.186 316.453 119.222C314.905 120.015 312.772 120.685 311.98 122.209C308.592 123.55 305.314 123.136 302.242 126.013C299.086 126.598 296.843 125.866 294.576 126.013C291.091 121.283 292.955 127.524 291.7 128.451C288.458 127.475 288.799 121.465 289.299 119.491C291.883 120.356 291.59 115.309 288.495 117.052C287.971 115.772 288.056 113.59 286.74 111.627C288.885 108.348 286.24 109.397 283.546 106.739C280.865 107.775 276.295 104.252 276.514 100.766C276.392 97.0108 271.371 97.5471 271.566 93.707C273.211 91.3542 276.977 90.6959 275.88 93.9752C277.635 99.5464 281.462 96.2915 284.668 98.5956C286.703 95.938 287.3 95.2065 290.262 99.1441C293.028 97.2789 290.213 95.5966 292.98 93.7192C295.039 93.0975 293.93 91.1714 296.49 92.9025C299.293 91.3176 302.059 98.0226 304.473 93.7192C306.264 92.6343 303.741 89.6841 303.997 87.1972C301.596 85.3076 301.523 81.5772 300 79.8705C299.732 74.9454 303.339 71.6539 301.913 78.2369C303.997 79.3585 306.13 74.9211 303.193 73.897C305.265 73.19 309.214 74.531 309.421 70.9103C310.835 71.6174 312.053 76.4083 313.418 72.2635C315.21 69.8009 318.476 70.7884 315.649 65.7414C316.989 62.3036 319.853 62.4499 320.914 60.0361C322.571 61.1943 320.012 64.693 323.144 64.9246C323.778 65.6805 323.473 67.6919 323.948 68.46L323.961 68.4356Z" fill="#D76868" stroke="white" stroke-width="0.713856" stroke-miterlimit="10"/>
<path fill-rule="evenodd" clip-rule="evenodd" d="M378.735 142.3C375.322 142.373 372.032 144.068 371.081 149.334C367.254 150.773 362.538 150.955 360.222 147.176C357.309 152.613 351.922 140.947 351.593 148.517C349.107 151.565 345.195 153.199 347.766 158.306C345.658 157.941 347.9 166.011 343.915 165.34C345.39 168.181 339.515 167.84 341.526 172.411C338.711 172.631 336.846 171.948 338.662 177.044C338.711 182.091 335.993 184.736 338.491 188.954C336.663 196.695 342.745 193.318 346.328 193.587C348.363 193.708 345.999 199.048 349.509 197.939C351.922 195.379 356.054 199.341 357.333 197.378C358.601 197.926 362.501 195.671 361.965 198.755C365.158 198.451 363.074 201.584 364.524 202.291C366.706 200.645 368.132 203.217 368.997 204.973C369.874 205.692 374.945 206.082 373.775 209.886C377.662 209.24 379.649 213.799 383.366 213.665C386.108 211.97 389.777 210.654 392.166 214.481C394.957 214.555 400.014 213.835 400.465 218.297C402.038 222.832 404.231 222.125 405.414 221.272C408.692 222.491 404.512 227.001 408.619 226.148C411.459 226.38 418.954 230.269 416.602 221.552C414.871 210.849 421.647 206.753 426.498 204.717C430.983 203.754 434.761 204.4 437.04 200.365C441.111 200.401 444.914 197.646 446.132 196.829C448.692 195.257 454.066 193.026 452.519 184.346C452.701 178.311 449.277 171.899 451.568 168.047C456.406 170.095 457.576 157.88 454.603 157.477C450.715 157.819 444.365 160.038 437.845 159.916C433.896 160.098 427.4 160.598 423.146 161.537C420.112 161.342 415.602 166.474 415.493 160.72C412.434 152.796 405.17 153.711 399.527 151.211C396.638 151.516 396.309 148.895 395.371 146.055C391.556 146.323 391.337 140.349 387.217 142.519C384.378 142.544 381.526 142.58 378.759 142.276L378.735 142.3ZM444.999 198.243C445.352 199.024 445.572 197.951 444.999 198.243V198.243ZM393.604 215.067C393.409 215.518 394.091 215.323 393.604 215.067V215.067ZM421.221 161.037C421.404 161.891 421.513 160.647 421.221 161.037V161.037ZM434.627 203.364C434.798 204.302 434.932 202.973 434.627 203.364V203.364Z" fill="#CA3535" stroke="white" stroke-width="0.713856" stroke-miterlimit="10"/>
<path fill-rule="evenodd" clip-rule="evenodd" d="M267.756 -68.9419C266.074 -67.2596 263.905 -65.4554 264.404 -63.7853C261.394 -60.5181 262.162 -57.0925 258.018 -55.9344C256.312 -54.1546 254.63 -54.947 255.459 -52.3991C253.838 -49.5099 251.705 -50.2779 251.303 -46.4256C248.195 -47.1692 244.27 -43.7558 243.32 -46.962C239.931 -46.5231 238.896 -43.7071 235.02 -43.7071C233.131 -40.6472 229.328 -43.2804 227.683 -45.621C226.793 -46.9376 227.427 -50.9362 227.208 -51.8749C227.695 -54.3252 225.94 -54.4349 223.698 -54.0326C220.456 -52.1675 219.627 -51.7286 216.812 -48.3395C216.873 -45.5479 213.887 -43.829 212.668 -42.6099C210.974 -41.3786 210.06 -35.6246 207.074 -38.8307C204.709 -38.3919 200.87 -37.5629 204.039 -33.674C203.71 -29.4073 198.335 -31.3456 200.358 -27.7006C201.199 -26.0548 206.196 -22.9462 202.918 -20.0935C200.797 -19.5815 203.673 -16.0949 203.247 -13.864C206.087 -10.9382 208.768 -8.42695 213.143 -6.79339C218.737 -2.47785 225.501 -0.441971 229.426 8.12815C232.058 13.358 233.874 16.1131 237.25 14.1016C239.103 12.1999 243.307 6.21417 245.404 10.8467C247.951 8.64014 245.233 6.04351 248.755 4.87319C252.168 2.28875 254.13 2.99583 257.701 5.15359C259.505 5.53151 260.041 1.74017 258.652 0.801483C260.772 0.959961 259.712 -7.0128 262.649 -3.27023C265.367 -3.17271 271.51 -1.40506 273.521 -4.08704C271.107 -6.85434 270.62 -12.072 267.28 -14.4126C262.869 -12.5718 267.146 -18.9354 266.33 -20.6421C265.867 -22.3976 270.011 -25.7988 267.122 -29.0903C265.538 -30.5288 264.051 -33.0767 267.293 -34.503C270.047 -35.4905 274.349 -33.7228 277.189 -37.5141C279.054 -37.8189 275.946 -42.5611 276.714 -45.365C274.13 -48.7296 272.753 -54.9348 269.681 -56.5074C270.973 -58.2872 267.549 -58.5432 269.852 -61.3837C271.083 -64.5167 269.401 -65.5529 268.731 -67.3572C268.914 -69.1858 268.402 -68.4543 267.78 -68.9785L267.756 -68.9419Z" fill="#D76868" stroke="white" stroke-width="0.713856" stroke-miterlimit="10"/>
<path fill-rule="evenodd" clip-rule="evenodd" d="M352.228 -5.14716C350.717 -5.61041 352.728 -7.08551 351.424 -8.13392C353.069 -9.04823 350.887 -9.92594 352.386 -11.1206C349.4 -12.1812 351.07 -16.5333 352.069 -17.0941C353.69 -18.8252 345.976 -21.495 349.669 -23.0676C350.802 -27.4075 347.17 -24.3964 347.268 -27.9561C347.609 -36.3555 351.801 -34.8805 355.567 -38.8181C359.26 -39.4398 352.703 -40.9149 356.043 -42.8898C355.458 -43.2311 359.102 -49.4484 354.288 -47.2297C349.644 -49.3387 354.324 -51.2649 354.288 -52.3864C356.055 -53.8615 353.69 -51.3989 355.726 -51.8378C357.456 -48.0343 358.919 -49.5338 357.798 -51.0211C359.553 -49.1437 362.953 -49.3509 362.429 -46.4007C362.575 -45.1207 363.721 -51.5209 364.342 -43.6822C366.268 -40.2688 363.282 -45.4255 364.026 -47.2175C364.245 -52.484 363.916 -44.5356 365.147 -49.3875C366.585 -51.911 365.61 -52.2401 366.585 -51.5575C366.646 -57.6041 370.924 -53.4348 370.741 -56.1777C371.716 -58.945 368.937 -57.5675 371.545 -58.0795C374.3 -61.7489 377.529 -71.2699 383.038 -69.4779C385.951 -68.1369 388.51 -69.1 387.511 -69.7461C391.801 -71.8795 395.238 -69.2219 399.333 -69.4779C403.148 -67.125 404.83 -72.6962 408.437 -70.0265C408.827 -70.1606 412.849 -68.5636 414.031 -69.2097C414.897 -69.7339 417.115 -69.5144 421.38 -67.5761C433.154 -62.5413 442.258 -66.5155 451.24 -57.7991C456.018 -55.2025 457.054 -51.9597 462.099 -48.5707C467.681 -42.9629 472.995 -40.3541 477.59 -30.9184C478.796 -26.4932 480.064 -23.2505 480.466 -21.6901C482.355 -16.4724 479.503 -9.63338 480.783 -5.1228C477.529 -5.82986 474.36 -9.40176 472.154 -5.39099C470.46 -4.53764 473.117 0.0948639 475.189 -0.770683C476.493 4.1422 470.399 6.61692 467.998 2.76464C465.451 4.08124 465.061 6.45847 462.404 4.39823C460.893 5.2272 457.955 3.04504 455.859 5.75139C455.64 4.66641 452.191 2.99628 453.787 5.48319C457.163 7.75068 451.35 7.37276 450.594 9.28671C447.572 10.4083 449.424 12.3344 446.438 14.1752C444.366 16.7597 441.807 13.9192 440.052 18.2469C436.786 20.5266 433.775 20.0756 430.314 18.7955C425.488 17.101 420.978 16.8084 415.299 17.9787C412.483 14.5166 409.607 16.4549 406.353 14.4434C403.684 13.6998 400.466 16.1745 397.724 16.077C397.005 14.1143 390.241 15.6137 390.863 11.7371C392.057 10.0547 397.017 5.43443 392.142 6.58035C390.241 3.44733 387.109 7.78724 386.39 6.58035C381.295 5.78796 375.75 7.05581 371.216 7.66535C369.278 9.87188 370.509 4.11782 367.865 4.4104C365.451 0.155823 364.038 -0.81945 360.832 -2.11167C358.017 -2.11167 352.776 0.253357 352.204 -3.46483C353.3 -3.5014 354.251 -5.06182 352.204 -5.09839L352.228 -5.14716Z" fill="#1D70B8" stroke="white" stroke-width="0.713856" stroke-miterlimit="10"/>
<path fill-rule="evenodd" clip-rule="evenodd" d="M231.507 73.8609C229.179 72.6296 223.768 75.7505 226.559 70.0574C225.925 68.2166 226.205 67.4486 223.682 63.8157C224.609 60.768 225.084 60.0244 222.878 59.1954C224.255 56.1599 231.69 58.9516 227.509 55.1237C225.12 51.9419 222.5 49.7841 222.244 45.6149C225.218 42.6525 230.641 43.7619 226.875 38.8246C225.218 36.74 227.741 36.6303 229.91 35.5697C232.799 33.607 230.885 30.5958 230.544 29.0476C233.566 25.7073 230.885 25.5245 228.789 24.7077C225.73 23.2692 232.311 20.4044 232.616 20.9042C235.553 21.3187 235.638 18.4173 232.933 14.3821C235.407 14.3699 237.406 15.2233 238.527 12.2121C241.427 9.48141 243.865 8.01853 245.717 10.5786C247.887 8.51835 245.169 6.2387 248.435 5.15372C251.336 3.62987 253.798 1.48428 255.468 4.33692C258.405 6.84822 261.049 2.65462 258.661 1.3502C261.086 -0.466223 258.868 -2.90441 261.537 -4.62331C263.755 -1.74628 266.485 -3.68462 270.958 -2.18515C272.201 -3.78214 275.845 -4.14784 275.589 -7.07363C277.966 -10.1701 279.233 -10.4139 282.292 -12.2303C284.401 -13.4494 284.949 -14.0224 286.765 -12.7789C287.423 -15.2293 288.703 -12.8642 287.887 -15.7657C288.021 -18.5573 291.933 -24.1529 294.431 -17.3992C292.591 -15.0342 291.555 -9.92627 295.711 -11.4257C298.916 -13.7542 300.233 -9.85314 299.221 -7.89042C301.939 -6.98831 297.637 -2.68495 301.451 -3.00191C302.95 -1.66093 305.23 -1.05139 303.852 1.0698C307.155 3.75177 302.731 6.29963 303.219 8.94503C301.854 10.0422 298.015 13.8092 296.357 16.2717C294.041 16.4302 291.494 16.2961 292.53 19.807C293.773 21.3918 296.881 24.6833 293.164 25.2319C290.239 24.6102 289.568 27.536 288.849 30.3886C290.775 34.7041 285.278 36.0086 284.377 31.7418C281.403 30.5105 277.868 32.3391 279.904 37.4471C280.379 39.7999 277.698 43.8838 274.956 43.4205C272.725 46.9071 269.959 46.9559 268.411 47.7604C267.253 49.9426 266.339 48.2359 265.059 50.479C264.17 52.4173 262.865 52.4051 260.269 52.9172C258.734 55.6723 262.67 56.6963 263.779 60.2438C264.413 62.877 260.148 61.3897 262.183 64.3155C260.733 64.5593 258.417 70.3987 256.113 65.6687C254.943 61.5848 255.126 58.3177 251.958 60.7802C250.8 61.3532 246.656 59.8171 247.009 60.7802C248.764 63.1087 242.89 61.4019 242.695 63.7669C240.574 62.6698 236.223 69.1431 239.977 68.9236C238.502 71.7275 234.176 74.9093 231.519 73.8121L231.507 73.8609Z" fill="#1D70B8" stroke="white" stroke-width="0.713856" stroke-miterlimit="10"/>
<path fill-rule="evenodd" clip-rule="evenodd" d="M231.505 73.8608C234.771 75.0677 238.635 71.0936 240.451 68.7042C241.755 70.228 244.107 69.4112 245.24 71.1423C242.169 74.0437 241.048 80.4561 245.399 78.7493C243.071 81.541 243.034 82.1628 242.364 85.8078C242.291 87.1732 245.265 87.2341 243.485 89.0627C244.972 90.6719 244.655 94 245.399 94.4876C243.473 97.3769 238.635 91.0742 238.537 95.3044C241.682 97.2062 239.037 98.6934 239.658 101.278C241.645 102.546 244.034 102.497 243.168 105.898C244.643 105.813 247.873 109.86 247.641 105.898C251.712 107.544 251.371 104.435 255.149 106.447C257.306 109.336 260.097 110.055 259.146 115.956C261.426 117.284 256.636 117.004 260.268 118.674C256.441 116.699 255.661 120.503 255.795 120.576C252.248 120.82 256.892 121.917 254.198 124.916C254.954 127.22 255.064 127.732 256.758 128.988C252.151 131.755 258.659 134.571 258.513 136.314C259.183 139.13 260.524 140.081 260.743 142.556C257.855 142.69 256.502 150.029 253.881 147.713C256.307 144.421 252.151 143.263 250.688 144.994C250.298 146.201 247.312 149.822 246.532 144.445C243.863 143.751 240.768 145.86 240.146 141.19C235.978 142.812 240.256 133.839 236.319 137.936C232.37 138.935 231.749 137.204 227.69 137.119C225.314 135.217 222.133 132.121 220.658 136.57C218.696 133.9 217.294 138.033 215.064 136.57C214.113 137.277 211.091 137.241 209.957 138.472C208.214 135.29 205.119 135.583 202.608 135.485C201.109 139.045 198.732 141.581 197.343 136.302C196.673 135.546 195.015 130.536 192.553 132.498C191.456 129.792 191.761 126.744 193.675 125.708C193.65 124.062 194.54 122.746 192.236 121.088C191.115 121.624 190.786 113.444 193.041 116.468C195.32 118.016 195.551 114.785 192.882 113.213C190.274 111.859 193.443 107.129 189.848 102.619C190.567 101.132 194.028 98.6813 192.407 94.2072C192.87 91.6472 192.078 89.526 193.528 88.502C194.186 84.5522 197.075 87.1975 196.405 83.8817C194.906 83.9548 195.759 81.602 198.001 79.8099C196.795 76.2502 192.419 77.4693 194.174 73.0197C196.344 74.6167 199.512 79.9318 199.61 74.9214C200.804 75.5797 204.631 73.2879 203.278 72.2029C206.752 73.5439 207.215 66.0222 207.91 62.1577C208.166 60.0853 208.629 57.5496 210.311 57.001C213.394 58.4639 211.066 52.271 214.942 54.5629C215.978 56.8547 219.208 58.4273 219.573 55.916C218.903 53.6363 215.295 54.2459 218.61 52.1125C221.304 53.0024 220.682 47.9189 222.437 47.4922C223.741 51.2104 227.556 54.2093 228.824 57.5374C227.386 56.5621 220.487 58.6712 224.351 59.7074C225.167 60.7436 222.62 63.7059 225.155 65.6808C226.447 69.0333 226.532 68.6188 225.96 73.5561C227.227 74.0071 229.969 72.8734 231.554 73.8243L231.505 73.8608Z" fill="#5694CA" stroke="white" stroke-width="0.713856" stroke-miterlimit="10"/>
<path fill-rule="evenodd" clip-rule="evenodd" d="M104.547 142.543C102.024 144.603 97.4412 143.274 95.6009 147.992C91.5302 150.443 89.9458 158.696 84.0958 158.037C82.4261 160.427 79.4035 167.51 78.8186 168.083C78.8795 171.533 75.5035 176.263 75.3085 176.787C76.3445 177.311 73.8094 177.335 76.2591 178.408C81.902 177.506 74.882 181.407 72.1154 181.383C76.1129 180.578 75.6741 181.749 73.066 183.577C66.0581 183.358 59.8546 189.307 53.578 187.649C49.7998 188.746 45.6073 186.771 43.6817 183.87C40.3666 183.797 34.8091 178.506 30.7506 182.492C28.179 184.235 22.8652 179.53 20.2083 181.956C19.538 185.418 21.5246 190.648 16.6983 189.27C14.0414 190.453 9.31261 185.991 11.1042 193.622C12.8958 199.291 18.173 199.462 21.0005 202.851C25.4002 203.302 27.1187 207.032 30.5922 206.386C31.7256 208.434 27.6184 215.529 33.7975 213.701C38.1363 215.59 38.0875 206.63 42.402 210.726C45.132 209.153 47.5086 211.299 49.288 212.347C47.9717 218.894 51.7621 217.053 54.2361 217.504C56.7346 223.246 62.28 222.575 67.6547 222.1C65.205 227.001 65.8387 227.269 68.6053 229.707C70.4335 230.012 75.7351 225.294 77.0635 228.89C76.0154 232.048 78.587 234.144 78.977 235.4C81.5973 234.912 84.437 234.583 84.4005 238.692C85.6436 241.313 87.7521 235.522 90.6405 236.253C92.3346 235.863 96.6246 236.327 97.6484 234.34C99.5497 236.058 103.096 232.986 105.485 233.242C108.349 231.072 111.591 230.67 114.089 230.804C113.054 228.281 113.626 226.208 114.589 223.734C112.907 223.112 116.966 220.101 114.906 217.504C116.32 216.139 118.599 218.577 119.684 215.59C118.977 214.322 123.206 214.651 123.84 216.687C125.046 220.003 127.91 223.38 128.788 218.845C130.872 220.162 134.65 218.431 136.612 216.687C134.333 215.858 132.115 214.078 135.174 211.238C137.526 209.336 138.513 207.52 136.125 204.984C136.941 203.558 139.208 202.266 136.295 201.485C133.553 199.023 136.039 196.743 136.466 195.756C139.72 190.66 142.73 185.345 144.12 179.493C146.423 176.531 143.73 171.581 142.036 171.325C142.243 169.753 143.108 167.766 140.293 166.449C142.097 164.182 133.858 165.766 138.209 163.475C140.342 163.011 141.585 161.39 140.768 157.745C141.585 157.391 142.925 154.124 140.768 153.149C139.306 154.77 137.088 149.76 134.528 152.052C130.811 152.71 126.241 156.245 124.315 153.673C123.072 152.393 120.805 152.21 120.634 154.77C118.416 156.05 117.66 157.221 115.369 157.208C111.859 157.245 112.383 155.441 112.164 151.515C113.492 149.662 111.896 147.602 110.421 145.262C108.044 146.493 106.984 143.518 104.51 142.543H104.547ZM142.535 168.643C142.718 169.497 142.828 168.253 142.535 168.643V168.643ZM42.7432 183.845C42.1948 183.553 42.9748 183.321 42.7432 183.845V183.845ZM73.7363 183.029C73.4316 183.419 73.5657 182.09 73.7363 183.029V183.029ZM81.7192 163.194C81.1708 163.487 81.9508 163.718 81.7192 163.194V163.194ZM72.2738 165.352C70.7138 166.278 73.8094 165.974 72.2738 165.352V165.352ZM78.8307 178.116C81.4023 180.444 81.5364 179.042 78.8307 178.116V178.116ZM78.9892 178.932C78.977 179.713 79.5985 178.847 78.9892 178.932V178.932ZM79.4645 179.213C79.4279 180.078 80.2689 178.993 79.4645 179.213V179.213ZM79.952 179.493C80.1836 180.749 80.7564 179.542 79.952 179.493V179.493Z" fill="#1D70B8" stroke="white" stroke-width="0.713856" stroke-miterlimit="10"/>
<path fill-rule="evenodd" clip-rule="evenodd" d="M168.91 -104.514C166.266 -102.308 165.266 -97.8702 161.72 -99.6379C160.294 -95.1273 155.943 -96.0416 153.737 -98.0165C153.932 -92.8232 149.593 -93.0548 147.996 -88.7881C145.583 -85.7526 143.523 -83.8752 140.318 -83.6314C137.442 -84.0093 136.637 -78.8038 133.456 -79.2793C133.115 -76.707 134.419 -73.5131 133.773 -71.9648C134.639 -68.4661 133.956 -68.076 132.652 -65.1746C130.275 -69.3072 132.579 -62.7852 129.617 -64.8942C127.631 -62.4073 124.608 -55.8364 128.179 -54.3248C129.593 -55.3122 135.138 -58.7622 133.603 -53.764C133.103 -51.3624 132.116 -48.2416 130.897 -46.9737C133.786 -46.5471 135.077 -42.3534 133.456 -41.817C136.028 -38.8547 141.537 -35.1365 138.405 -29.6141C139.014 -23.9698 146.826 -29.2727 145.096 -23.1042C147.168 -22.0924 144.218 -14.0587 140.793 -15.7532C136.759 -18.4108 138.929 -12.547 140.964 -12.7786C143.475 -12.6323 144.206 -8.87758 142.061 -7.90231C144.633 -7.82917 143.792 -4.09879 142.39 -2.98943C139.087 -1.27054 139.282 1.77718 141.269 5.42223C140.647 9.59148 147.667 7.99448 149.727 10.2985C153.395 12.3344 150.117 5.14183 151.165 3.50827C148.386 -1.20956 151.08 -2.53837 153.408 -3.28201C152.92 -3.76963 155.991 -10.8647 152.457 -8.15831C150.166 -7.98764 150.751 -11.7302 148.606 -12.5104C150.446 -12.3885 148.252 -17.1917 150.69 -15.7653C151.848 -17.6549 154.468 -21.812 157.405 -19.0203C158.258 -14.3269 161.659 -18.9106 162.829 -17.9597C165.303 -21.3122 169.227 -19.3494 169.69 -23.6528C172.042 -22.8604 173.395 -23.2017 173.371 -20.6417C172.725 -18.557 176.369 -17.1795 175.114 -14.1318C177.039 -10.5599 179.648 -19.8736 182.938 -14.4122C184.559 -12.5714 188.52 -13.7417 190.616 -13.315C192.115 -13.1931 197.161 -14.3512 195.881 -18.1913C196.576 -21.3853 194.76 -23.2383 198.124 -24.9816C200.293 -25.8837 201.073 -29.9432 198.441 -29.0777C196.296 -28.651 194.334 -28.8217 194.139 -32.5764C191.116 -32.4423 190.458 -34.0027 191.274 -35.8314C192.14 -38.3061 193.407 -41.7561 195.747 -40.9881C198.063 -40.4029 199.014 -41.4025 200.22 -44.5234C196.698 -45.7425 200.83 -47.3516 199.745 -48.5951C196.844 -51.6306 191.725 -52.9838 189.373 -52.4108C186.704 -52.3499 184.193 -56.8483 181.39 -55.1294C179.782 -54.6417 179.574 -58.3355 178.977 -59.2011C176.113 -62.4194 180.903 -63.48 179.794 -65.7109C179.696 -67.759 181.305 -69.295 182.353 -70.0631C184.328 -70.892 186.143 -72.3915 186.009 -75.7561C186.326 -78.7794 183.182 -78.3528 184.096 -80.9128C182.122 -84.3263 185.558 -86.9107 181.866 -89.6171C180.038 -92.0796 182.353 -94.7616 179.782 -96.6511C176.564 -101.381 172.627 -99.7963 168.922 -103.722V-104.539L168.91 -104.514ZM186.789 -53.2032C186.753 -54.0566 187.606 -52.996 186.789 -53.2032V-53.2032ZM188.703 -52.1182C188.471 -52.6424 189.251 -52.4108 188.703 -52.1182V-52.1182ZM197.003 -51.0211C196.917 -51.8866 197.515 -50.8748 197.003 -51.0211V-51.0211ZM198.441 -29.0533C198.611 -28.1146 198.745 -29.4434 198.441 -29.0533V-29.0533ZM172.896 -19.7883C172.432 -19.4714 173.091 -20.5685 172.896 -19.7883V-19.7883ZM162.987 -17.3502C162.914 -16.5578 163.475 -17.4965 162.987 -17.3502V-17.3502ZM151.336 -16.2895C151.104 -15.7897 151.835 -15.9726 151.336 -16.2895V-16.2895ZM140.964 -12.7542C140.452 -12.9005 141.049 -11.8887 140.964 -12.7542V-12.7542Z" fill="#CA3535" stroke="white" stroke-width="0.713856" stroke-miterlimit="10"/>
<path fill-rule="evenodd" clip-rule="evenodd" d="M457.465 65.7175C455.576 68.241 452.956 72.9345 450.433 74.9459C448.495 76.2991 445.46 80.4561 445.326 80.1026C442.986 73.8609 435.442 80.1392 429.032 78.2009C425.911 79.4931 423.242 77.9692 421.841 77.3841C419.891 78.0912 418.075 76.5673 415.771 76.0309C415.381 73.8 412.14 75.2629 409.544 75.2141C407.569 76.0919 405.497 76.5917 402.682 76.0309C401.219 77.8473 399.148 75.3116 398.855 73.5927C398.051 71.2521 396.064 70.6182 396.454 66.5343C393.919 68.3141 392.92 65.5834 393.102 64.3643C395.747 64.9495 392.798 61.4142 393.907 60.829C393.078 58.2446 387.776 58.9395 385.607 59.744C383.572 60.4999 381.122 61.3776 379.221 62.7308C375.577 65.047 375.54 59.8903 372.834 60.5608C372.834 60.8778 369.483 62.3773 368.362 61.1094C368.276 59.3783 365.229 56.7695 367.557 54.0509C368.142 53.3926 369.885 51.7835 369.471 48.3457C370.958 48.9064 372.31 44.9079 374.102 47.5289C376.54 47.7117 375.674 42.3966 377.454 39.1172C375.747 35.972 374.212 38.1664 372.189 36.1305C370.555 35.5332 369.093 34.4847 369.154 36.9473C367.557 38.3127 363.109 39.1782 363.718 36.1305C364.998 34.18 361.561 32.9609 363.877 30.7056C364.9 25.5977 367.472 31.7906 370.104 34.5091C373.712 32.839 377.015 31.9613 376.332 30.4374C375.235 28.5844 373.919 26.707 371.226 25.8171C368.191 24.9394 373.688 20.1972 369.471 20.6604C368.496 18.7465 363.17 11.3588 368.666 10.347C371.262 5.75109 375.491 7.89667 379.05 6.27529C382.109 6.27529 386.363 6.44597 387.996 6.54349C389.702 3.94686 393.529 6.62884 394.382 7.36029C389.007 11.237 390.909 15.4306 396.454 14.9673C397.99 17.1495 402.658 14.9673 405.241 13.8824C408.861 16.6131 412.213 14.2481 415.296 17.9541C419.769 17.4786 423.645 16.4546 427.277 17.9541C431.627 18.8806 434.321 20.8189 437.977 19.3072C440.683 18.0882 442.682 13.9189 445.802 15.2355C447.922 12.773 448.605 11.4442 449.312 10.0788C451.055 8.12829 454.162 8.00638 454.906 6.27529C451.761 5.49508 454.418 2.5937 454.906 4.92214C456.588 7.4822 459.488 1.58186 461.134 4.92214C463.011 2.73999 465.375 8.07955 466.399 3.02038C468.775 2.25236 471.335 6.64102 473.102 3.83714C475.893 3.8859 476.466 -1.88031 473.419 -1.05134C470.713 -3.92836 471.335 -5.42786 474.223 -7.29304C476.795 -7.67096 480 -5.3303 481.414 -3.22129C483.059 -0.271125 483.693 3.30074 481.255 5.4707C478.915 9.66432 480.695 15.8573 477.429 19.3194C476.1 24.854 474.979 26.8533 472.322 29.6328C470.859 36.0574 471.323 45.4321 468.812 51.3568C468.556 58.2446 465.716 61.2069 461.621 61.9506C459.854 62.9502 457.819 63.5232 457.465 65.7541V65.7175Z" fill="#1D70B8" stroke="white" stroke-width="0.713856" stroke-miterlimit="10"/>
<path fill-rule="evenodd" clip-rule="evenodd" d="M319.327 190.624C316.743 192.574 313.501 193.355 311.819 194.964C307.346 197.829 301.813 196.512 298.242 199.852C297.133 200.34 294.281 199.682 292.173 201.206C290.259 201.998 289.028 200.511 288.504 202.559C285.53 201.876 283.324 202.998 280.521 202.01C276.487 204.204 274.44 203.863 271.259 202.278C270.259 201.523 269.638 199.194 269.979 199.292C273.477 199.218 267.688 196.927 267.749 194.671C266.822 189.356 263.142 196.707 264.239 190.331C264.555 185.662 261.338 185.223 264.397 180.823C266.298 177.238 270.515 182.688 272.063 180.274C273.44 175.312 272.197 170.607 268.87 166.974C271.466 161.707 278.535 158.245 282.13 159.099C281.642 157.782 284.604 146.554 287.566 151.223C290.088 152.223 290.296 151.869 288.845 148.505C290.344 145.274 293.928 148.566 295.39 149.59C295.548 153.418 300.533 152.077 301.459 155.015C302.739 155.783 305.652 155.636 306.895 158.27C310.698 157.758 303.958 165.877 307.37 167.498C309.247 164.779 311.368 158.05 313.598 160.976C315.024 162 316.28 165.304 315.195 166.681C316.609 166.328 318.766 164.207 319.985 167.23C320.899 168.486 320.996 171.777 323.336 172.387C325.749 173.984 326.603 169.534 328.126 168.315C330.393 168.485 331.246 164.353 333.562 166.681C335.597 168.693 334.841 174.886 337.072 170.485C338.315 173.496 339.704 180.042 337.876 181.883C336.182 185.175 339.399 189.198 338.193 190.575C339.582 197.134 332.416 193.233 329.735 194.647C327.09 192.83 321.91 196.671 322.702 191.392C321.472 191.294 320.216 191.806 319.351 190.575L319.327 190.624Z" fill="#D76868" stroke="white" stroke-width="0.713856" stroke-miterlimit="10"/>
<path fill-rule="evenodd" clip-rule="evenodd" d="M193.498 72.2393C194.863 70.2278 197.727 67.3996 197.654 65.9977C195.753 65.3515 193.961 67.7287 191.426 64.9127C192.108 63.5229 190.146 61.6455 190.146 60.8409C188.525 64.3275 188.477 57.2081 188.233 57.3056C186.197 59.439 185.6 53.9166 185.356 54.5871C182.297 54.3311 184.028 52.7219 182.797 51.6003C180.201 52.4171 180.372 48.4429 178.166 50.2472C179.165 52.0636 176.557 50.2106 176.094 48.894C173.766 47.9553 175.619 53.1852 173.864 51.0639C172.474 48.9915 169.683 49.6498 170.987 46.9922C167.099 46.4924 171.097 47.2726 171.146 43.1887C171.926 41.5307 173.437 37.5931 171.146 35.0453C169.866 31.6562 172.462 31.961 174.18 30.4249C175.96 29.7423 176.082 27.231 176.898 23.9029C175.972 22.0743 174.071 18.0026 177.215 18.478C180.274 17.649 183.516 20.6845 184.881 20.9161C183.248 17.5881 186.149 20.2334 187.441 19.8312C188.696 15.9667 189.183 19.4167 190.158 20.3798C192.182 20.6845 193.376 18.2585 195.753 19.2948C199.031 18.8315 197.763 14.1503 201.98 16.308C203.187 17.6856 203.114 20.27 205.332 17.1248C206.331 17.9416 211.072 17.4539 210.926 16.8566C214.095 15.8326 213.303 11.9681 213.961 8.71317C211.267 5.79958 209.403 4.92184 206.612 6.54322C205.003 3.88563 202.285 6.42133 199.75 5.45826C198.263 4.50738 196.837 6.00682 194.96 8.17678C192.645 10.1395 190.548 4.54395 188.891 1.65474C186.758 -1.61239 185.6 -3.79457 188.416 -4.05057C186.648 -4.73326 186.234 -8.3661 185.064 -10.024C185.734 -10.9262 181.213 -13.9007 185.698 -13.279C189.354 -13.5715 191.316 -12.6329 193.998 -14.0958C197.495 -15.4977 195.497 -20.1546 196.069 -21.4224C195.253 -23.824 199.372 -26.0305 200.859 -26.5791C203.577 -26.2987 205.149 -20.0571 202.139 -19.2525C203.577 -17.18 201.785 -13.1327 204.698 -13.279C206.709 -8.15883 213.546 -7.53712 217.629 -3.77017C224.113 -0.966291 229.293 6.50665 232.961 14.6988C236.386 19.2704 234.899 21.1722 231.998 21.2209C231.877 20.331 225.076 24.0492 229.281 25.2926C232.693 24.8781 232.059 27.1091 230.402 29.6325C232.157 31.2052 232.157 35.1306 228.001 36.4228C227.16 37.8857 225.198 36.4716 226.88 38.861C227.27 39.3608 229.658 44.0177 227.038 43.2009C224.016 42.8961 221.066 46.5046 220.969 50.5276C221.054 52.0026 214.582 53.0388 218.251 54.3311C219.981 54.4042 219.823 58.5734 217.13 57.0496C216.776 55.6477 211.499 51.9417 212.181 56.501C211.097 57.7323 207.964 56.6717 208.513 60.0363C207.392 61.1823 207.538 69.6305 205.161 72.2515C202.261 70.9105 203.979 73.2146 202.602 74.4214C199.397 75.2138 200.201 74.0801 198.933 77.14C197.776 77.6886 195.265 73.4949 193.498 72.2515V72.2393Z" fill="#1D70B8" stroke="white" stroke-width="0.713856" stroke-miterlimit="10"/>
<path fill-rule="evenodd" clip-rule="evenodd" d="M255.616 246.275C253.129 241.107 255.993 236.023 255.774 233.243C252.374 231.464 254.75 226.404 255.932 224.551C254.287 221.431 257.285 219.139 258.004 214.506C258.833 213.433 258.76 209.996 261.356 208.533C262.965 206.521 262.94 203.449 265.512 205.546C268.534 203.913 270.363 200.072 273.653 203.376C275.75 205.205 279.381 201.035 282.599 202.291C284.281 202.486 288.217 202.791 289.144 201.743C290.033 201.243 292.837 201.377 295.213 200.109C297.395 200.206 298.455 199.89 300.478 198.475C303.854 196.354 310.704 197.464 312.775 193.855C315.7 194.123 317.87 189.186 322.038 191.417C323.123 192.904 322.672 195.245 325.865 194.404C329.265 194.501 333.555 193.745 336.407 195.22C335.578 197.354 339.393 198.89 335.932 199.292C334.469 198.354 334.981 200.414 332.263 200.645C330.131 201.95 333.665 204.997 333.86 206.351C336.822 205.388 332.702 208.911 333.543 209.606C330.972 210.739 334.372 216.774 330.825 217.481C328.814 217.676 327.291 213.775 325.877 217.481C322.842 216.823 326.669 223.381 324.122 222.906C323.817 226.136 321.965 234.328 320.125 230.513C319.076 228.209 318.26 235.097 316.931 232.683C314.518 230.562 312.678 234.536 315.176 237.023C317.151 240.619 312.654 238.498 312.3 239.193C306.426 239.948 302.501 242.764 296.334 242.996C295.298 242.326 288.754 242.996 286.28 243.264C282.282 245.446 272.41 245.361 271.594 248.97C269.254 249.725 269.899 255.114 266.487 253.31C263.72 249.067 258.516 246.702 255.628 246.251L255.616 246.275Z" fill="#CA3535" stroke="white" stroke-width="0.713856" stroke-miterlimit="10"/>
<path fill-rule="evenodd" clip-rule="evenodd" d="M134.25 49.43C132.495 50.1493 129.534 50.5394 129.144 47.2601C130.009 45.5656 131.801 42.1644 132.337 40.738C130.972 38.946 135.14 38.3608 131.216 38.0195C127.011 38.2999 123.367 34.8011 129.619 32.3142C127.767 29.0958 121.904 30.0102 123.867 34.4842C120.832 35.4716 117.748 34.7524 114.287 36.3859C108.912 36.52 116.944 31.1561 114.762 30.1443C112.02 31.79 107.901 26.1335 112.361 27.1575C113.848 27.7549 117.322 25.6215 118.114 25.8043C117.736 21.0621 123.355 21.5619 122.904 24.1707C126.938 24.6584 123.672 20.0503 125.622 18.7459C127.681 18.112 132.057 20.0868 131.216 15.7591C132.91 17.0879 135.774 15.4178 137.443 15.4909C134.116 14.345 134.128 12.3823 135.53 8.1643C137.029 10.3464 141.465 6.36007 141.124 6.53074C142.038 9.00547 147.645 8.70069 149.911 10.0661C153.616 11.1876 155.311 8.43249 158.053 7.6279C158.76 10.127 161.002 9.88317 161.087 8.17646C163.354 7.09148 161.709 11.2242 164.439 9.26146C165.792 10.9194 167.766 12.3823 164.439 12.7968C161.124 12.2604 166.133 18.2826 167.474 15.7835C169.314 15.0521 171.922 15.6982 173.385 13.3454C176.017 13.7964 180.344 12.4554 177.382 16.6003C176.127 19.2945 174.092 19.9528 176.907 23.3906C176.566 26.8771 175.53 30.193 174.031 30.7172C171.532 31.8632 170.338 32.0216 171.154 35.0571C173.446 37.605 171.934 41.5426 171.154 43.2006C171.106 47.2845 167.108 46.5043 170.996 47.0041C169.314 49.4788 173.872 49.8445 174.031 51.6244C176.09 50.7832 173.738 47.6258 176.907 49.4544C177.48 52.5021 178.808 50.4297 178.82 49.4544C180.32 51.3074 182.33 51.1855 183.452 52.4412C181.282 54.794 188.863 54.1357 184.085 55.6961C182.477 57.0615 181.38 59.6947 180.259 60.3164C178.784 60.2067 174.859 60.5115 177.382 62.4864C178.199 65.595 181.916 65.022 179.296 70.3616C175.7 68.3867 173.97 63.2544 170.192 66.5581C167.303 63.5835 163.537 70.8249 161.404 70.0934C159.601 68.9597 155.03 68.4964 153.897 71.1784C150.789 67.9966 159.04 65.5341 154.214 64.6563C151.35 62.7668 150.24 65.4365 150.387 68.1917C149.546 69.0816 153.86 72.7754 150.387 71.4466C148.181 72.0196 145.829 71.9952 144.317 76.0669C141.112 75.0916 137.578 76.3595 138.565 72.2634C138.321 69.0694 134.762 70.4469 136.334 64.9367C136.091 62.2547 138.479 58.1708 136.018 56.2447C135.14 53.4043 138.089 49.6983 134.263 49.4544L134.25 49.43Z" fill="#1D70B8" stroke="white" stroke-width="0.713856" stroke-miterlimit="10"/>
<path fill-rule="evenodd" clip-rule="evenodd" d="M295.538 149.078C293.003 148.517 290.224 147.347 292.186 144.457C294.721 141.556 290.992 137.496 293.783 134.144C292.259 130.596 291.625 126.439 292.503 124.099C295.343 127.719 297.463 125.318 300.961 126.269C304.691 124.586 307.53 122.868 311.345 122.465C313.222 121.856 313.502 119.344 316.135 119.747C316.829 117.906 319.474 119.698 320.924 115.943C324.751 115.212 329.834 115.797 333.222 117.577C332.21 123.867 334.94 121.136 336.256 123.818C336.244 126.561 339.255 125.367 338.657 126.805C342.119 129.341 344.325 124.16 349.2 124.903C351.881 124.294 354.964 123.818 356.232 127.342C355.269 127.488 358.06 131.937 359.267 133.583C362.033 133.864 363.191 138.106 359.584 137.387C356.768 136.972 356.134 141.702 354.952 139.02C354.404 141.507 353.599 141.958 351.918 144.445C353.551 146.042 350.784 150.333 348.407 151.504C347.067 153.357 346.555 155.551 347.445 158.294C345.787 158.306 347.92 165.45 344.568 164.816C344.861 167.303 342.07 167.303 341.217 170.241C343.033 173.093 337.244 174.118 337.219 170.509C335.635 172.521 335.086 172.642 334.66 168.607C333.587 165.072 329.955 165.547 329.553 168.339C326.299 167.522 326.494 174.264 323.325 172.411C320.973 171.801 320.888 168.498 319.974 167.254C318.755 164.231 316.586 166.364 315.184 166.706C315.964 165.767 315.55 161.646 313.587 161.549C311.211 156.673 309.505 166.803 306.397 167.522C305.897 162.597 310.37 158.16 305.921 157.477C304.715 153.942 301.01 157.319 300.973 153.674C299.352 152.698 295.294 153.296 295.538 149.053V149.078Z" fill="#CA3535" stroke="white" stroke-width="0.713856" stroke-miterlimit="10"/>
<path fill-rule="evenodd" clip-rule="evenodd" d="M169.055 -23.6165C169.762 -18.6426 163.108 -20.8857 162.669 -17.3626C160.085 -17.9477 158.184 -15.473 156.453 -19.8007C152.261 -20.3127 151.249 -15.3267 149.421 -15.2048C150.237 -12.1937 146.983 -12.5838 150.042 -11.1331C150.42 -8.69496 152.005 -7.76845 154.198 -8.41456C154.259 -5.80573 153.114 -3.05064 152.931 -2.72149C148.044 -3.05064 150.92 1.47214 151.164 4.62955C150.006 12.6998 156.599 8.9207 157.708 7.6041C159 9.66434 160.755 10.3592 161.06 8.1405C163.156 7.76258 162.206 11.0663 164.424 9.23766C165.764 10.92 167.739 12.3585 164.424 12.773C161.267 12.0294 165.643 18.2832 167.434 15.7476C169.421 15.138 171.944 15.3697 173.357 13.3094C176.221 13.602 180.195 12.6267 177.184 17.1251C175.929 20.4532 182.169 17.2836 183.4 20.0996C185.557 23.7447 183.546 16.6862 185.813 19.5632C187.276 22.1477 189.542 14.5285 189.323 20.0996C191.797 21.8064 192.87 17.564 195.38 19.5632C198.708 19.1244 197.891 14.2603 201.304 16.3083C203.278 16.4302 203.156 20.7092 204.96 17.4055C206.361 18.1004 209.615 16.8081 211.029 17.4055C211.712 16.0523 214.381 14.3578 213.26 11.9562C215.392 8.28679 211.639 6.87266 210.249 5.70234C207.909 6.12902 206.142 6.72639 204.009 4.88558C202.205 6.66544 199.902 5.01967 198.415 5.44635C197.087 3.91031 195.648 9.14016 193.796 8.4209C190.566 7.55536 188.957 0.50909 186.288 -2.96528C188.238 -3.62358 188.519 -4.24533 186.605 -5.68384C186.678 -8.31704 184.497 -9.67022 184.862 -11.1331C183.388 -14.7416 178.305 -18.5939 176.38 -12.4741C174.15 -14.3637 175.917 -18.6914 172.724 -19.7886C173.65 -20.9955 173.37 -23.2386 171.432 -23.3239C170.469 -22.5193 170.213 -23.1654 169.043 -23.6043L169.055 -23.6165ZM203.071 18.7465C202.608 18.4295 203.266 19.5267 203.071 18.7465V18.7465Z" fill="#5694CA" stroke="white" stroke-width="0.713856" stroke-miterlimit="10"/>
<path fill-rule="evenodd" clip-rule="evenodd" d="M294.737 25.0122C291.045 24.2686 287.791 28.511 289.143 32.6193C286.694 38.9585 284.317 27.9258 280.844 32.3389C277.078 32.4852 282.391 40.1166 278.601 41.2869C275.981 44.9685 283.33 43.725 280.844 47.5408C280.173 49.5035 280.673 52.734 283.074 52.1367C286.816 57.7079 278.43 60.3167 278.296 64.3762C282.928 67.8262 276.31 70.6788 279.735 75.226C277.663 78.3225 276.359 79.4684 275.262 84.7348C277.663 85.576 279.905 87.9654 282.452 88.514C285.706 89.6112 287.267 93.6829 288.522 95.865C285.889 96.5965 292.653 101.4 291.532 96.4014C291.13 93.951 294.786 94.0486 294.567 91.7689C296.943 92.7929 299.881 93.2562 302.879 95.5846C304.5 93.0733 305.999 93.1343 304.317 89.6111C304.488 86.344 301.307 85.0518 301.112 81.7237C297.626 80.0901 303.22 69.3257 302.062 77.652C302.83 80.7119 306.584 74.4458 303.184 74.1166C304.89 72.6659 309.399 74.8969 309.253 70.8617C311.118 71.837 311.946 76.4451 314.031 71.4225C316.31 70.5326 317.626 69.3135 315.798 65.6928C317.87 61.6577 322.013 61.2066 321.867 55.4038C322.611 50.369 320.856 50.5519 317.87 50.7713C315.578 50.2471 313.58 51.1858 315.786 48.3332C314.091 46.5167 311.032 46.3582 313.701 43.981C312.324 40.531 311.081 42.0915 309.07 40.4457C310.618 36.2521 308.717 36.8251 306.681 36.374C304.914 36.9592 303.915 39.2145 302.525 36.6544C301.441 32.7412 303.695 29.5472 300.441 31.2051C299.162 29.9129 297.236 29.7788 297.09 26.0484C296.163 26.2313 295.615 24.8659 294.701 24.9878L294.737 25.0122Z" fill="#5694CA" stroke="white" stroke-width="0.713856" stroke-miterlimit="10"/>
<path fill-rule="evenodd" clip-rule="evenodd" d="M272.705 131.694C270.353 133.608 268.939 133.34 266.635 135.51C263.991 136.034 262.053 136.851 259.774 133.889C257.019 136.705 260.079 139.46 260.724 141.74C258.787 142.544 256.41 149.883 253.692 147.713C256.434 145.519 252.437 142.788 250.987 144.739C250.146 145.616 247.586 149.932 246.831 145.275C245.015 142.325 240.505 147.018 240.286 141.203C236.142 142.946 240.115 133.621 236.142 137.948C232.279 138.765 231.413 137.461 227.343 136.851C225.112 135.096 221.846 132.243 220.652 136.571C218.653 133.925 217.288 138.07 215.057 136.571C214.107 137.29 211.084 137.253 209.939 138.485C207.903 135.449 202.699 133.34 200.835 138.241C199.262 144.799 203.955 147.164 205.807 150.968C206.307 155.271 202.699 152.577 201.956 155.064C203.516 156.722 204.393 159.843 207.075 161.294C208.342 161.757 208.171 163.976 208.671 165.365C205.941 168.523 216.398 167.243 212.498 164.024C214.363 161.379 216.861 160.513 219.53 161.867C223.016 161.013 227.538 161.172 229.427 161.867C232.656 161.074 237.056 164.67 240.14 162.403C241.212 157.161 244.259 161.123 245.563 162.403C248.098 163.976 250.852 161.952 252.742 162.683C257.458 161.294 260.505 164.756 264.576 164.024C267.184 166.816 270.158 167.596 272.4 162.11C275.471 160.001 280.797 158.892 281.821 158.855C282.467 155.089 285.112 147.542 287.732 150.968C290.73 153.223 289.341 150.48 289.17 148.53C290.365 146.226 291.827 147.396 292.68 143.934C292.315 142.995 288.914 144.69 289.329 141.496C285.148 143.702 286.989 136.278 285.331 138.777C283.662 140.569 279.871 133.755 278.616 140.118C278.726 142.703 279.92 142.3 280.554 143.934C278.201 146.348 275.666 141.764 275.106 139.862C276.361 136.095 275.52 133.072 274.314 132.792C274.009 131.926 273.68 131.426 272.717 131.694H272.705Z" fill="#5694CA" stroke="white" stroke-width="0.713856" stroke-miterlimit="10"/>
<path fill-rule="evenodd" clip-rule="evenodd" d="M98.8011 139.849C102.019 138.435 108.234 140.921 109.027 136.594C110.221 139.922 111.306 141.921 115.096 140.666C117.814 139.654 114.608 143.14 118.131 143.104C120.69 143.421 123.761 143.652 122.287 148.529C120.958 151.332 120.008 149.443 121.653 152.6C123.932 153.539 120.3 151.223 121.336 153.417C120.629 156.367 117.887 156.002 116.863 156.952C115.559 157.623 111.793 157.318 112.39 154.234C112.585 152.649 111.44 150.954 112.866 149.894C112.098 145.908 109.112 144.786 108.076 145.274C106.016 142.567 103.688 142.262 103.603 143.64C99.8005 142.701 96.778 146.261 94.3405 149.065C90.0017 155.526 79.0938 160.5 72.3053 164.815C70.7574 154.709 83.1157 155.307 86.8329 149.065C90.7817 145.786 94.9011 143.165 98.8133 139.837L98.8011 139.849Z" fill="#1D70B8" stroke="white" stroke-width="0.713856" stroke-miterlimit="10"/>
<path fill-rule="evenodd" clip-rule="evenodd" d="M80.4295 79.2978C77.7726 75.1651 72.8854 71.7883 73.8848 65.9977C74.3479 62.3527 69.8385 62.121 71.1669 57.0375C74.2748 55.0991 70.9841 53.2583 69.5704 52.9658C69.546 51.4419 78.2114 48.6136 73.8848 48.3454C72.1541 50.1497 70.131 46.2242 73.251 45.3587C72.7513 42.8474 73.6167 41.1651 75.3229 40.4702C74.1651 36.7642 77.2729 37.7395 77.8823 36.1303C76.5051 33.302 83.1839 34.07 84.4271 33.1435C87.9858 30.9248 77.4679 33.5824 81.0755 29.0718C80.4173 25.695 82.7817 24.1224 84.5855 23.3666C85.4508 19.9166 87.7665 21.5135 87.1449 19.2948C88.2905 17.7466 91.0449 19.1241 87.9493 17.1248C88.8512 13.4554 90.9718 19.7946 91.1424 16.0399C92.9949 14.6136 96.6025 14.0894 97.5287 16.3081C99.1375 17.5272 98.3209 19.3558 99.4422 19.8434C103.647 17.8563 105.304 23.0496 101.039 23.0984C103.525 24.5613 104.988 27.999 108.388 26.0851C106.426 25.0976 111.142 19.9531 110.618 23.6469C112.836 24.0736 112.873 25.317 113.336 27.1822C113.117 27.17 107.718 26.9018 111.581 29.6204C113.531 30.7663 116.944 29.9983 114.14 32.6071C111.069 34.6918 112.739 37.8736 115.895 36.1425C119.028 33.8018 121.831 36.8008 124.195 33.4239C120.929 29.2303 131.569 29.9374 128.668 33.1557C124.268 33.7287 125.914 39.2999 129.472 37.2275C130.935 37.9955 135.103 38.4343 131.703 39.946C133.385 42.2013 129.862 43.7617 129.789 46.4681C127.766 47.6871 132.154 52.5391 133.787 48.9062C137.199 49.5645 135.883 52.5756 136.017 55.4283C137.175 57.6592 137.638 60.841 136.176 63.5717C137.931 69.0941 132.8 68.3383 132.02 71.1788C129.887 73.9948 128.619 70.0084 128.668 69.277C125.804 69.1673 126.072 66.0221 124.354 70.362C127.279 72.1662 123.951 72.0199 124.037 75.5187C122.318 77.9447 128.51 77.6277 126.267 80.4072C127.839 83.784 130.289 86.5392 126.584 86.3807C124.573 89.404 122.842 86.1125 121.148 90.7206C119.15 91.5252 116.09 89.7697 116.517 92.6223C114.494 91.5861 112.166 94.0243 111.252 95.8773C109.534 94.6216 107.181 94.8411 106.304 93.4391C104.817 93.7439 103.293 94.7192 101.831 92.8905C100.381 91.1473 100.137 89.5137 100.551 88.002C96.8219 87.2096 95.1156 81.6628 93.2021 83.6621C94.0187 82.6991 94.7378 81.7482 92.5684 81.4922C90.1674 79.6636 86.9255 85.9662 83.6227 84.2107C84.8536 80.3096 81.6605 83.589 80.588 80.4072C81.1851 80.2974 80.3198 79.5538 80.4295 79.3222V79.2978Z" fill="#1D70B8" stroke="white" stroke-width="0.713856" stroke-miterlimit="10"/>
<path fill-rule="evenodd" clip-rule="evenodd" d="M227.187 274.79C226.87 275.643 223.141 275.094 221.118 271.254C217.096 267.097 212.245 266.414 209.296 262.562C207.017 260.441 200.862 264.037 200.996 262.562C202.946 261.368 204.457 258.637 205.944 256.321C210.953 256.613 214.098 253.041 217.12 252.517C219.85 252.627 220.557 249.384 224.152 247.629C226.809 247.47 228.772 250.067 231.818 251.7C231.087 252.444 233.464 252.419 236.608 251.968C238.607 252.298 235.974 253.236 239.484 251.152C237.595 252.2 240.045 252.541 240.118 253.87C242.361 257.235 241.617 255.711 242.678 257.674C244.981 259.356 244.445 260.039 243.153 260.929C242.909 262.001 235.268 262.769 235.645 267.17C235.268 274.521 232.403 271.681 229.418 274.229C228.089 274.826 228.016 274.448 227.187 274.777V274.79ZM242.678 256.601C242.962 256.601 242.962 256.601 242.678 256.601V256.601ZM200.192 262.843C200.362 261.941 200.484 263.221 200.192 262.843V262.843Z" fill="#1D70B8"/>
<path d="M241.873 251.712H242.032M200.033 262.843H200.192M200.192 262.843C200.362 261.941 200.484 263.221 200.192 262.843ZM227.187 274.79C226.87 275.643 223.141 275.094 221.118 271.254C217.096 267.097 212.245 266.414 209.296 262.562C207.017 260.441 200.862 264.037 200.996 262.562C202.946 261.368 204.457 258.637 205.944 256.321C210.953 256.613 214.098 253.041 217.12 252.517C219.85 252.627 220.557 249.384 224.152 247.629C226.809 247.47 228.772 250.067 231.818 251.7C231.087 252.444 233.464 252.419 236.608 251.968C238.607 252.298 235.974 253.236 239.484 251.152C237.595 252.2 240.045 252.541 240.118 253.87C242.361 257.235 241.617 255.711 242.678 257.674C244.981 259.356 244.445 260.039 243.153 260.929C242.909 262.001 235.268 262.769 235.645 267.17C235.268 274.521 232.403 271.681 229.418 274.229C228.089 274.826 228.016 274.448 227.187 274.777V274.79ZM242.678 256.601C242.962 256.601 242.962 256.601 242.678 256.601Z" stroke="white" stroke-width="0.713856" stroke-miterlimit="10"/>
<path fill-rule="evenodd" clip-rule="evenodd" d="M133.762 -71.9531C131.703 -70.9169 128.4 -70.2343 128.644 -67.6011C126.145 -65.5774 123.561 -67.5523 121.611 -67.8814C121.611 -61.3594 117.931 -68.9664 116.042 -65.9675C115.444 -69.0395 114.555 -69.71 112.678 -71.3802C111.191 -71.624 107.949 -69.3443 106.462 -70.8438C102.355 -69.5272 105.207 -65.7115 104.378 -61.335C99.8078 -61.9811 98.5281 -53.4719 96.2246 -61.0911C94.7743 -64.4558 91.6177 -64.8947 89.6921 -64.5899C87.2667 -61.1521 84.1467 -66.6136 83.1473 -67.0647C80.1736 -66.3942 79.0157 -60.4694 76.2613 -61.9079C73.2754 -62.871 72.02 -60.2012 71.1669 -56.9951C68.2784 -57.117 69.6069 -55.6419 69.0828 -54.3131C73.0438 -52.5942 66.3406 -51.5214 68.4369 -48.8638C66.6331 -46.8036 68.4369 -43.6949 67.7909 -43.4145C70.07 -39.9645 72.3857 -42.2564 74.2016 -42.3539C73.251 -36.9778 80.2954 -40.6107 80.4173 -37.4776C78.577 -35.3077 83.2326 -36.2342 82.0139 -33.9423C85.6214 -35.8563 84.683 -28.5418 83.2814 -32.5647C81.1364 -32.2478 79.1742 -32.5647 78.8085 -29.066C76.5782 -26.7619 79.0279 -20.8128 74.6647 -20.8982C76.7976 -19.4596 75.3107 -18.8989 73.8482 -16.5461C73.7507 -12.4744 66.8769 -13.2668 71.7641 -7.31765C71.5691 -5.48904 68.3516 -4.28214 71.6178 -4.5991C74.0919 -4.53814 74.4088 -6.25706 74.0066 -7.31765C75.7129 -7.22013 79.6861 -14.242 81.5142 -9.23161C81.4776 -6.4765 81.7214 -1.78305 78.7842 -3.78233C79.101 0.228432 77.7848 -0.490829 74.9573 -0.283592C70.716 -0.490829 66.2187 2.64221 62.9768 4.87312C59.028 9.3959 65.7312 11.8828 67.925 14.1015C68.6928 16.7104 72.8366 16.686 74.1651 19.5508C77.9189 23.8664 82.8548 19.2338 86.1455 21.1722C87.1936 20.1482 87.1327 18.1001 89.4971 18.1976C86.2673 16.5153 89.814 14.772 90.6183 17.3809C91.2399 14.2356 96.7243 14.004 97.48 16.2837C99.0887 17.5028 98.2722 19.307 99.3934 19.819C103.001 18.0879 105.365 22.1109 101.624 23.0739C101.453 24.293 107.486 28.3282 107.864 26.0485C107.559 23.8176 110.021 20.9771 111.215 23.6103C113.007 25.1586 113.482 28.8889 116.639 26.0485C119.296 27.4139 117.48 21.989 120.49 21.9768C122.903 22.2694 123.086 25.7437 125.109 23.0739C123.403 17.9904 127.449 18.7828 131.179 18.1976C130.167 14.2722 134.043 17.1858 136.127 15.4791C139.734 16.4666 133.543 13.9918 134.689 12.2242C134.323 4.51958 140.307 11.4927 141.233 5.43389C139.247 1.77666 139.052 -1.25884 142.355 -2.97774C143.732 -4.11148 144.207 -6.74469 142.83 -7.89062C140.917 -7.76871 145.438 -10.7189 142.355 -11.9623C141.38 -13.5471 137.017 -13.0107 138.991 -16.8386C141.916 -12.7913 147.205 -19.1183 145.402 -22.8121C145.231 -22.8365 145.67 -28.5418 142.513 -26.3474C139.21 -25.9817 137.748 -29.9559 139.162 -32.8573C140.271 -37.246 133.056 -39.9645 133.738 -42.6221C136.541 -44.5483 127.888 -47.2912 132.471 -49.1686C133.519 -53.8376 135.201 -58.2995 130.387 -55.6785C128.717 -53.5695 125.572 -54.7641 126.535 -58.9334C127.656 -62.5297 129.619 -65.1141 131.508 -65.1873C129.875 -68.7957 134.555 -62.7857 133.421 -67.9058C135.249 -69.7954 133.909 -68.5763 133.738 -71.9775L133.762 -71.9531ZM70.0578 -12.4744C69.3631 -12.2793 70.0578 -13.3033 70.0578 -12.4744V-12.4744ZM79.7835 -32.3087C79.3326 -32.1868 79.8567 -33.0646 79.7835 -32.3087V-32.3087ZM78.6867 -38.5382C77.8701 -38.7455 78.6745 -37.7702 78.6867 -38.5382V-38.5382ZM77.0779 -39.099C76.566 -39.2453 77.1632 -38.2335 77.0779 -39.099V-39.099ZM115.408 -68.942C115.323 -69.8076 115.92 -68.7957 115.408 -68.942V-68.942ZM117.48 -66.5039C116.968 -66.3576 117.565 -67.3694 117.48 -66.5039V-66.5039Z" fill="#5694CA" stroke="white" stroke-width="0.713856" stroke-miterlimit="10"/>
<path fill-rule="evenodd" clip-rule="evenodd" d="M181.04 113.761C181.247 116.76 181.125 117.857 180.564 119.735C177.749 122.526 175.47 113.505 174.495 118.113C177.334 121.929 174.47 121.259 171.935 120.027C169.437 115.76 168.937 122.234 169.23 123.038C166.622 122.209 163.148 120.332 160.601 118.406C157.517 121.685 155.336 127.707 151.996 129.548C150.254 128.658 148.998 128.805 147.365 128.732C145.257 130.121 144.501 130.67 142.563 131.986C144.135 133.474 142.563 138.252 144.33 139.057C141.954 140.934 135.836 143.495 141.296 145.287C140.54 148.858 141.893 149.736 140.979 153.454C143.489 155.417 140.467 157.221 140.808 159.391C142.295 163.853 137.152 162.415 136.981 165.121C140.016 164.316 140.345 165.767 141.6 167.84C144.014 168.644 140.747 170.777 142.551 172.435C146.634 172.24 144.306 180.298 143.026 183.041C141.71 187.637 137.773 193.842 135.689 197.146C133.739 203.168 142.466 203.888 145.439 204.461C148.157 206.85 149.937 210.605 151.35 214.25C153.666 216.712 155.567 217.883 156.774 221.564C159.857 222.82 162.051 216.895 165.878 218.029C168.023 214.823 170.448 216.773 173.386 214.494C175.994 213.092 176.201 215.347 176.737 215.871C178.858 209.873 180.406 217.322 183.124 215.871C186.439 217.102 190.595 218.431 193.349 221.845C195.762 222.052 198.87 219.979 198.614 217.212C195.884 216.261 198.236 213.47 198.614 213.433C200.613 212.97 198.139 209.788 196.53 208.52C197.334 203.473 196.116 200.816 197.005 197.378C193.654 196.634 194.836 194.379 194.141 190.624C193.971 187.333 191.301 186.272 191.899 183.553C195.579 184.151 197.615 181.615 198.931 178.397C201.186 176.934 206.268 180.737 204.696 176.775C204.293 175.617 204.488 173.24 205.817 172.423C204.805 170.217 204.988 163.487 208.047 166.974C209.583 164.67 207.755 162.744 207.572 161.561C204.549 159.757 203.014 156.819 201.978 154.247C204.476 153.844 206.67 153.93 205.329 149.09C202.136 148.663 200.71 141.544 200.064 139.862C196.81 138.655 196.42 130.06 192.557 132.511C191.143 129.17 192.191 126.61 193.678 125.72C193.788 124.197 194.251 122.551 192.24 121.124C190.497 120.393 192.008 115.541 191.594 115.151C189.912 119.186 186.743 119.783 183.44 118.93C182.478 117.199 182.1 114.31 181.052 113.773L181.04 113.761ZM142.709 168.888C142.307 169.022 142.417 168.205 142.709 168.888V168.888Z" fill="#5694CA" stroke="white" stroke-width="0.713856" stroke-miterlimit="10"/>
</g>
</svg>
