<svg width="480" height="320" viewBox="0 0 480 320" fill="none" xmlns="http://www.w3.org/2000/svg">
<g clip-path="url(#clip0_1812_17516)">
<ellipse cx="446.216" cy="239.802" rx="33.2731" ry="32.5169" transform="rotate(-90 446.216 239.802)" fill="#FF52EE"/>
<g clip-path="url(#clip1_1812_17516)">
<rect width="480" height="320" fill="#D2E2F1"/>
<path fill-rule="evenodd" clip-rule="evenodd" d="M280.212 -216.616C281.397 -216.318 283.681 -216.943 285.03 -216.846C286.604 -216.725 288.026 -215.736 289.387 -215.93C291.162 -216.185 292.754 -218.424 293.744 -219.365C294.753 -220.324 297.062 -222.017 296.953 -223.94C296.703 -228.195 290.341 -226.374 290.068 -231.271C289.916 -234.166 293.228 -235.028 292.59 -237.91C292.231 -239.537 290.408 -239.409 289.156 -239.282C286.774 -239.045 283.997 -238.766 282.278 -237.91C278.923 -236.235 279.628 -231.642 278.377 -227.606C277.872 -225.961 276.669 -224.729 276.541 -223.255C276.28 -220.087 278.389 -217.077 280.212 -216.616ZM152.975 -180.671C155.028 -181.824 157.617 -184.379 160.084 -185.247C161.111 -185.611 163.615 -185.696 165.359 -186.388C167.315 -187.171 169.551 -189.088 170.627 -191.194C171.569 -193.051 171.332 -194.999 172.237 -197.378C172.985 -199.357 174.589 -201.978 175.907 -203.787C177.293 -205.692 179.511 -207.027 180.72 -209.285C182.191 -212.028 183.406 -217.744 179.578 -217.757C176.005 -217.769 172.693 -214.595 169.722 -213.405C167.789 -212.635 165.468 -212.38 163.523 -211.573C161.312 -210.656 159.543 -209.066 157.568 -208.368C153.491 -206.93 150.653 -207.106 149.316 -203.331C148.666 -201.493 148.211 -195.764 148.405 -194.174C148.618 -192.353 151.474 -190.727 151.382 -188.682C151.261 -185.909 145.263 -184.853 145.427 -181.588C145.622 -177.206 151.942 -180.083 152.975 -180.671ZM384.753 173.972C379.661 168.777 376.556 163.661 366.645 163.212C364.415 163.109 361.802 163.431 359.304 163.212C356.661 162.981 354.06 162.769 352.201 163.437C349.041 164.584 348.366 169.881 344.866 170.312C341.427 170.725 335.739 165.409 335.691 162.071C335.624 157.143 343.918 155.117 346.233 151.075C347.127 149.515 347.753 146.96 347.382 144.666C346.963 142.075 344.398 139.945 343.712 137.111C343.219 135.078 343.633 132.796 343.031 130.696C342.29 128.154 340.163 127.322 338.674 125.435C337.076 123.408 335.466 121.515 334.317 117.649C336.517 117.03 340.37 118.049 341.421 116.271C340.485 108.212 334.153 103.418 334.317 94.297C334.354 92.2337 335.423 90.3585 335.229 88.107C335.095 86.4624 333.922 84.0714 333.163 81.6986C332.494 79.5988 331.158 77.7054 330.416 75.9759C328.617 71.8007 327.779 67.3342 325.597 64.0693C323.805 61.3809 320.931 58.8139 318.263 56.9751C314.55 54.4081 309.324 52.9941 306.572 48.9585C304.269 45.5783 302.895 41.573 302.446 37.7376C301.947 33.5018 302.197 29.0049 301.066 24.0044C300.538 21.6619 299.268 19.4772 299 17.1287C298.739 14.8165 298.836 12.4983 298.545 10.0345C297.749 3.27406 300.295 -4.47557 298.089 -10.1133C296.005 -15.4173 291.605 -18.5911 289.375 -22.6996C287.619 -25.9341 286.951 -31.323 284.101 -33.9204C283.001 -34.9217 280.394 -36.0262 279.057 -36.9001C274.506 -39.8737 269.468 -46.1972 265.3 -46.2882C260.748 -46.3853 260.669 -42.1676 254.988 -42.6228C251.81 -42.8777 246.566 -45.1958 246.505 -46.974C246.438 -48.8492 249.792 -49.4135 251.324 -50.4088C253.651 -51.9259 256.039 -55.1666 259.114 -55.9009C263.44 -56.9386 271.079 -53.9286 271.492 -59.3357C271.79 -63.1529 265.045 -64.2573 267.591 -70.5565C268.466 -72.7048 275.909 -75.3083 277.909 -77.1956C280.315 -79.4592 281.548 -83.9682 283.408 -86.3531C285.978 -89.6423 290.372 -91.3415 292.577 -95.0555C293.525 -96.6455 294.255 -99.085 295.561 -101.239C296.831 -103.345 298.63 -105.22 299.456 -107.193C300.283 -109.159 300.489 -111.386 301.291 -113.377C302.434 -116.174 304.506 -119.063 306.566 -121.163C309.956 -124.622 314.301 -127.589 311.84 -134.21C310.746 -137.141 306.912 -142.026 304.275 -142.682C300.276 -143.677 295.585 -143.277 291.435 -144.284C287.601 -145.212 283.9 -147.318 280.43 -147.719C277.975 -148.004 275.745 -146.966 273.096 -147.488C270.088 -148.083 267.864 -151.378 264.151 -151.839C261.867 -152.125 259.952 -151.196 257.959 -150.699C256.1 -150.231 253.967 -150.073 252.004 -149.552C249.574 -148.914 242.063 -146.268 241.23 -150.013C240.234 -154.449 247.909 -155.863 247.878 -159.856C247.86 -162.362 244.506 -162.217 244.208 -164.662C243.606 -169.651 251.931 -174.014 255.674 -176.108C258.142 -177.497 260.724 -178.632 263.009 -180.228C265.093 -181.685 267.214 -184.058 269.201 -185.265C273.74 -188.033 279.811 -188.997 281.123 -194.192C281.494 -195.655 280.935 -197.384 281.123 -198.999C281.433 -201.687 283.718 -202.834 283.183 -205.407C282.812 -207.209 279.513 -208.581 276.766 -208.611C274.767 -208.635 273.005 -207.513 271.267 -207.464C269.651 -207.422 267.876 -208.12 266.223 -208.15C263.562 -208.205 261.016 -207.009 258.889 -207.009C256.738 -207.009 254.654 -208.18 252.466 -208.381C249.805 -208.623 247.283 -207.907 244.901 -208.15C242.154 -208.429 239.596 -210.238 236.88 -210.899C235.494 -211.233 234.109 -211.026 232.979 -211.36C229.32 -212.422 228.804 -216.555 224.034 -216.397C220.157 -216.264 218.553 -211.949 216.93 -208.156C216.268 -206.609 214.457 -204.588 213.953 -203.119C213.29 -201.207 213.74 -199.278 212.573 -198.082C210.811 -196.274 207.633 -197.36 206.612 -195.794C205.427 -193.962 207.25 -191.407 206.157 -188.925C204.899 -186.078 201.642 -187.486 201.344 -184.804C200.973 -181.466 204.577 -182.025 204.777 -178.165C202.334 -176.702 200.256 -176.083 198.129 -176.102C196.373 -176.12 194.939 -177.236 193.317 -177.243C190.947 -177.255 187.915 -176.187 186.663 -174.269C184.287 -170.61 185.989 -165.973 184.603 -160.991C183.74 -157.908 181.121 -157.932 180.246 -155.493C179.28 -152.792 179.76 -150.838 180.246 -149.084C180.793 -147.1 183.017 -146.135 182.993 -144.278C182.968 -142.148 179.62 -140.327 177.263 -140.843C173.963 -141.571 174.583 -146.359 173.367 -150.692C172.918 -152.282 171.241 -154.267 171.071 -155.729C170.821 -157.926 171.933 -160.851 171.532 -163.515C171.125 -166.228 169.412 -168.831 167.175 -168.783C162.958 -168.68 164.951 -163.315 162.132 -162.144C160.807 -161.592 159.598 -162.751 157.775 -162.605C156.62 -162.508 154.901 -161.215 153.643 -160.542C152.142 -159.735 150.945 -159.261 150.665 -157.568C149.827 -152.458 155.314 -151.991 157.088 -148.635C159.063 -144.897 158.699 -139.714 162.357 -137.645C164.635 -136.364 167.923 -136.862 169.922 -135.357C170.973 -134.113 169.703 -130.557 171.064 -129.634C174.473 -128.767 175.877 -131.631 178.861 -131.922C177.633 -125.538 170.815 -123.96 172.438 -115.44C171.259 -110.973 163.706 -112.861 159.829 -111.089C158.717 -109.663 160.169 -107.745 159.604 -106.276C157.252 -104.759 153.819 -104.777 152.95 -102.156C151.893 -98.9515 155.496 -96.3299 155.016 -92.3125C154.822 -90.6497 153.771 -89.8062 152.725 -88.8777C152.069 -88.2951 149.936 -87.2391 150.204 -85.6734C150.471 -84.0895 153.436 -83.8893 153.874 -83.8407C155.642 -83.6587 157.344 -83.9075 159.148 -84.0713C162.089 -84.3444 167.248 -84.0228 169.229 -84.9816C172.334 -86.4927 171.891 -91.5175 174.504 -92.0819C176.199 -92.4521 177.943 -91.2201 178.174 -90.4798C178.873 -88.1737 174.771 -84.2291 173.361 -82.4632C171.642 -80.3209 168.61 -77.2502 168.543 -74.4526C168.494 -72.1344 170.439 -71.1452 170.384 -69.1911C170.262 -65.6956 165.966 -63.7658 165.109 -60.0336C164.119 -55.7552 165.431 -51.0945 164.879 -46.98C164.55 -44.5222 161.98 -42.465 160.753 -39.8858C159.215 -36.6513 158.456 -33.0223 157.313 -30.7283C156.013 -28.1128 152.956 -25.2423 153.643 -22.7117C154.36 -20.084 159.173 -19.5924 161.439 -22.032C162.849 -23.5492 162.697 -26.098 163.499 -28.2159C164.976 -32.0877 167.115 -34.8671 169.697 -36.6877C171.593 -32.47 170.42 -24.1803 176.576 -25.2362C180.094 -25.8492 180.003 -29.5085 179.553 -33.4774C179.098 -37.507 179.049 -41.1238 175.652 -41.488C172.93 -41.7914 172.292 -39.5521 170.153 -39.6552C170.183 -42.8777 171.8 -43.5088 173.361 -45.3779C174.54 -46.7919 175.549 -49.7291 177.487 -49.9597C181.018 -50.3784 181.771 -45.8756 182.987 -44.0064C184.014 -42.4347 186.505 -40.8568 188.261 -38.7449C189.227 -37.5798 189.896 -35.7896 191.008 -34.3938C192.989 -31.9238 195.79 -29.0777 194.447 -24.3199C193.748 -21.8318 190.99 -20.9943 188.948 -18.8278C186.578 -16.3154 185.247 -12.3829 183.448 -9.89481C182.142 -8.09244 179.845 -6.76341 178.174 -4.85788C176.776 -3.26184 175.98 -1.11354 174.735 0.179077C172.845 2.13316 170.153 2.85532 169.466 4.9854C168.287 8.61443 171.04 16.0667 173.823 16.6614C175.373 16.9952 176.813 14.1368 179.323 14.1429C182.689 14.1551 184.816 17.4867 186.201 19.4105C187.593 21.3463 189.167 25.5276 192.624 25.1331C196.197 24.7266 194.532 19.7139 196.75 17.5778C202.219 18.9735 202.948 25.4123 210.963 23.3004C212.549 22.8817 214.372 21.9896 216.238 21.2371C218.152 20.4603 220.309 20.2054 221.737 19.6289C224.028 18.7126 225.134 16.1516 227.467 15.739C230.366 15.2292 233.167 16.6189 233.422 18.0268C233.89 20.5331 230.603 22.2991 229.296 24.2107C228.318 25.6429 227.862 27.506 226.774 29.0171C225.778 30.4007 224.581 31.5416 223.566 33.1437C222.004 35.5954 218.225 40.2804 218.522 42.987C218.802 45.5358 220.333 47.6477 221.5 50.9976C222.509 53.8801 222.721 57.1875 223.566 59.9305C224.313 62.3458 225.845 63.9601 226.319 65.6471C226.957 67.9229 226.428 71.1635 228.379 71.6004C230.973 72.183 231.733 68.4448 235.032 67.935C237.7 67.5223 240.72 68.3598 241.224 70.4535C241.729 72.5714 240.349 73.5121 239.158 75.4904C238.289 76.9287 238.022 79.0709 237.098 80.2968C235.652 82.1962 232.96 82.7242 231.824 84.4173C231.058 85.5582 230.165 88.1252 230.214 90.14C230.274 92.1305 231.709 93.8176 231.593 95.8627C231.399 99.2733 227.412 100.766 226.55 104.104C226.051 106.046 226.543 108.309 226.094 110.051C225.48 112.436 223.11 112.794 221.968 114.863C220.953 116.684 221.81 117.94 220.588 119.439C217.775 119.542 216.76 116.478 214.166 116.01C212.154 115.64 209.626 116.866 206.831 116.921C203.519 116.994 200.262 114.718 197.662 114.633C194.988 114.542 192.126 116.89 189.641 116.466C187.842 116.156 187.848 114.894 186.432 113.261C185.344 112.017 183.631 111.119 182.993 110.288C180.793 107.393 180.659 103.012 174.51 103.873C171.885 104.243 167.577 107.709 167.4 110.057C167.212 112.642 169.782 114.56 171.301 117.157C172.748 119.627 175.13 121.715 174.735 124.937C174.103 130.217 166.999 131.146 163.274 133.179C160.09 134.92 157.022 139.89 164.186 139.362C167.759 139.095 175.355 133.124 179.092 137.53C180.24 138.895 179.784 141.456 180.003 144.399C180.155 146.445 180.781 147.604 180.69 148.981C180.501 151.876 178.478 153.126 178.168 155.62C177.919 157.617 178.563 159.674 178.399 161.567C177.84 167.909 173.519 173.941 168.081 176.678C165.097 178.183 161.306 179.567 157.769 180.344C155.533 180.835 153.017 180.726 150.659 181.485C147.852 182.395 145.336 184.707 142.638 185.15C140.815 185.447 138.488 184.756 136.908 184.919C135.395 185.077 127.836 188.275 127.508 189.956C126.973 192.705 130.151 193.07 130.26 195.679C130.376 198.386 127.575 199.466 127.508 201.396C127.441 203.392 129.404 204.812 130.485 206.208C131.615 207.652 132.557 209.509 134.386 209.874C136.884 210.365 140.275 209.418 142.407 208.733C144.686 207.992 146.041 206.178 148.138 205.759C152.47 204.873 155.745 206.797 158.225 209.188C158.765 209.704 160.904 211.136 161.202 212.617C161.536 214.279 159.343 215.184 159.823 217.429C160.807 222.041 170.736 217.86 173.355 218.115C177.026 218.467 177.803 223.57 179.086 225.895C180.283 228.079 183.959 232.503 186.42 233.905C188.565 235.131 193.396 236.6 196.732 235.738C200.299 234.815 201.411 231.387 204.753 230.021C206.144 229.451 217.319 227.691 218.048 230.021C218.765 232.297 213.388 234.627 211.856 235.738C209.45 237.486 206.746 239.44 205.433 241.23C204.109 243.051 204.261 246.279 201.538 247.645C199.217 248.804 192.199 248.755 189.385 247.875C187.489 247.28 185.484 245.672 182.962 244.671C178.49 242.887 173.355 241.631 167.145 241.236C163.979 241.042 160.254 240.544 157.969 241.922C154.19 244.222 155.764 250.369 150.866 251.541C148.338 252.147 146.169 250.897 144.443 251.31C140.104 252.354 140.603 258.495 138.713 262.07C137.692 263.999 135.34 265.868 133.214 267.562C130.898 269.406 128.632 271.348 126.791 272.143C124.196 273.26 121.322 273.564 119.225 275.348C117.682 276.665 116.904 278.661 115.555 280.154C114.455 281.38 112.669 282.606 111.198 284.05C108.3 286.884 103.906 290.483 99.0511 291.144C97.1066 291.411 93.4364 291.017 91.9416 291.375C89.043 292.067 83.6045 297.043 87.8156 298.93C91.0544 300.381 92.0145 297.273 94.9191 297.322C97.769 297.377 100.06 299.731 100.88 300.988C101.907 302.541 101.84 306.255 104.55 306.71C108.798 307.426 109.74 301.892 111.66 299.841C113.927 297.413 118.223 296.6 121.747 294.804C123.801 293.76 125.235 290.786 127.939 290.452C129.24 290.295 131.093 290.98 133.208 291.138C135.845 291.338 138.847 290.756 140.542 290.914C144.905 291.314 149.28 294.415 152.464 296.406C153.771 297.225 155.357 297.468 156.596 298.238C159.519 300.059 159.762 303.415 164.386 303.045C166.471 302.881 172.705 298.208 173.556 296.63C174.455 294.98 174.218 292.849 174.935 290.914C176.91 285.537 179.019 284.226 184.336 281.981C185.727 281.386 186.973 280.488 188.237 280.148C190.121 279.644 192.612 279.772 194.885 279.693C198.366 279.565 200.834 279.001 203.367 279.693C206.169 280.457 208.387 282.205 210.24 283.813C212.081 285.403 213.771 287.964 216.201 288.62C217.696 289.026 219.865 288.571 221.7 288.85C226.227 289.542 230.323 293.129 234.078 292.746C237.111 292.431 237.98 288.523 240.732 287.479C242.659 286.745 247.495 286.708 249.671 287.479C254.496 289.184 257.273 297.34 263.884 297.322C266.381 297.316 269.705 295.593 269.845 292.746C270.027 289.02 265.707 289.858 265.713 285.877C267.518 285.452 269.207 286.568 270.987 287.018C272.829 287.479 274.828 287.558 276.718 288.159C278.747 288.808 280.461 290.665 282.448 290.908C284.654 291.175 286.859 289.973 289.096 289.761C293.513 289.354 299.237 289.263 303.309 289.761C305.405 290.022 307.155 291.375 309.27 292.055C310.503 292.449 312.29 292.71 313.851 293.195C317.443 294.306 319.958 296.606 323.027 296.4C325.142 296.254 327.524 293.978 329.906 293.195C331.972 292.516 335.223 292.607 338.152 291.818C340.989 291.059 343.001 289.032 345.03 288.844C346.756 288.686 348.561 289.688 350.305 289.299C353.088 288.686 353.957 284.159 356.497 282.66C360.173 280.488 366.578 281.058 369.331 278.309C372.357 275.287 371.348 268.587 372.308 264.8C369.118 260.923 362.033 264.03 357.408 262.737C354.972 262.057 353.671 259.794 351.909 258.61C350.043 257.372 344.708 255.321 345.03 252.894C345.322 250.721 350.457 251.219 352.371 250.375C354.139 249.592 355.701 248.027 356.497 246.024C357.56 243.342 356.564 238.918 358.788 237.552C360.495 236.509 363.691 237.577 365.666 237.097C369.634 236.126 370.102 232.843 372.545 229.772C376.161 225.233 381.982 223.073 384.698 219.013C386.545 216.252 386.618 212.75 387.9 209.625C388.763 207.543 390.331 205.541 391.34 203.441C392.5 201.032 393.017 198.289 394.086 196.571V189.477C392.19 182.85 389.547 178.869 384.753 173.972ZM128.905 -143.125C130.345 -143.483 132.187 -149.964 133.031 -152.968C133.481 -154.558 133.688 -156.816 134.18 -158.005C135.164 -160.408 137.139 -162.793 138.537 -165.099C140.53 -168.407 144.65 -176.593 137.619 -175.859C135.59 -175.647 131.427 -175.349 130.51 -172.879C129.938 -171.332 131.002 -168.929 130.971 -167.387C130.886 -163.218 126.712 -155.377 125.697 -150.213C125.022 -146.772 125.66 -142.312 128.905 -143.125ZM141.058 -43.9882C143.714 -42.823 147.202 -43.8851 148.618 -45.5964C149.809 -47.0286 149.584 -49.1586 150.453 -50.8578C151.176 -52.2658 153.078 -53.1639 154.585 -54.5233C156.001 -55.8098 157.21 -57.5455 158.255 -58.8745C160.771 -62.0787 163.803 -64.6032 164.21 -68.7238C157.884 -70.1682 155.94 -61.8906 151.376 -61.3929C146.795 -60.8953 142.225 -61.0228 139.454 -59.5602C137.935 -58.7592 135.371 -54.6386 136.021 -52.466C136.525 -50.7608 139.545 -51.0399 140.378 -48.8006C140.961 -47.2106 140.05 -46.003 141.058 -43.9882ZM89.9363 32.2516C90.7263 30.9105 90.7749 29.3266 91.5405 28.131C92.9867 25.8796 95.7273 24.1622 97.9634 24.4656C102.478 25.0846 101.16 31.9361 102.776 35.911C103.688 38.1624 106.258 39.3883 106.677 41.4031C107.03 43.1326 106.41 45.8271 106.902 46.9012C107.674 48.564 111.818 49.7838 114.698 49.6442C116.236 49.5714 117.415 48.5398 119.055 48.7339C122.671 49.1405 122.975 53.0973 126.845 53.3097C133.207 53.6738 133.548 45.2263 137.619 43.9215C139.272 43.3997 142.122 44.401 144.498 43.9215C148.466 43.1266 152.573 37.0822 153.442 32.4762C154.135 28.7804 153.777 21.7893 150.921 19.4286C148.952 17.7901 146.643 18.8521 144.042 16.4551C145.142 13.5482 148.399 13.6696 148.855 10.5018C149.389 6.79385 145.719 4.20862 144.498 1.57484C143.1 -1.44125 141.958 -5.92595 141.745 -8.96025C141.575 -11.4302 142.371 -14.0639 141.745 -15.8299C141.004 -17.9418 138.822 -18.4758 136.246 -19.4953C133.742 -20.4845 131.518 -21.856 129.598 -22.2383C125.247 -23.1244 121.632 -20.879 117.22 -20.8608C115.579 -20.8547 113.957 -21.4798 112.632 -21.322C109.308 -20.9275 108.111 -16.5945 105.067 -16.285C102.089 -15.9756 100.819 -17.6869 98.1883 -17.4259C93.7585 -16.989 91.9233 -11.7761 89.9424 -8.72359C88.3807 -6.32649 86.0534 -3.12225 83.0637 -2.08452C80.1591 -1.07713 74.8361 -1.95709 72.9766 -0.476349C72.2778 1.57484 73.8213 2.80678 73.4324 5.24635C70.8194 9.24556 60.945 6.89093 60.3678 12.7957C59.991 16.5825 64.1535 20.9822 65.4113 23.792C65.9764 25.0482 66.3775 27.0387 67.0155 27.9126C67.7994 28.9807 69.5555 29.4176 71.1476 30.6617C73.1407 32.2274 74.435 34.6184 76.1911 35.468C82.0368 38.2899 87.2869 36.7424 89.9363 32.2516Z" fill="#0F385C"/>
<circle cx="6.74228" cy="6.74228" r="6.74228" transform="matrix(1 0 0 -1 220.473 194.683)" fill="#00FFE0"/>
<circle cx="6.74228" cy="6.74228" r="6.74228" transform="matrix(1 0 0 -1 287.887 248.621)" fill="#00FFE0"/>
<path d="M226.289 186.728L296.007 243.283" stroke="#00FFE0" stroke-width="2.92525" stroke-linecap="round" stroke-linejoin="round" stroke-dasharray="0.49 7.31"/>
</g>
</g>
<defs>
<clipPath id="clip0_1812_17516">
<rect width="480" height="320" fill="white"/>
</clipPath>
<clipPath id="clip1_1812_17516">
<rect width="480" height="320" fill="white"/>
</clipPath>
</defs>
</svg>
