<svg width="480" height="320" viewBox="0 0 480 320" fill="none" xmlns="http://www.w3.org/2000/svg">
<g clip-path="url(#clip0_1144_2262)">
<rect width="480" height="320" fill="white"/>
<path d="M480 0H0V320H480V0Z" fill="#651B3E"/>
<rect x="438.432" y="50.4999" width="269.512" height="290.872" transform="rotate(90 438.432 50.4999)" fill="white"/>
<path d="M226.224 76.3179C227.354 76.3179 228.27 75.4019 228.27 74.2719C228.27 73.1419 227.354 72.2259 226.224 72.2259C225.094 72.2259 224.178 73.1419 224.178 74.2719C224.178 75.4019 225.094 76.3179 226.224 76.3179Z" fill="#0B0C0C"/>
<path d="M189.236 74.3067C189.236 74.825 189.301 75.3237 189.431 75.8026C189.56 76.2814 189.757 76.704 190.022 77.0702C190.287 77.4365 190.625 77.7309 191.036 77.9534C191.448 78.1759 191.938 78.2874 192.507 78.2874C193.077 78.2874 193.509 78.2001 193.873 78.0255C194.236 77.8508 194.526 77.6324 194.743 77.3703C194.96 77.1083 195.112 76.8253 195.2 76.5211C195.287 76.2168 195.33 75.9351 195.33 75.6758V75.5575H192.228V73.6899H197.714V80.3326H195.567V78.9126C195.415 79.1494 195.226 79.3649 195.001 79.5593C194.776 79.7536 194.522 79.9199 194.24 80.0578C193.958 80.1959 193.65 80.3045 193.315 80.3833C192.979 80.4622 192.623 80.5016 192.245 80.5016C191.361 80.5016 190.575 80.341 189.887 80.0198C189.2 79.6987 188.621 79.2565 188.15 78.693C187.68 78.1297 187.322 77.4704 187.077 76.7153C186.832 75.9605 186.709 75.1464 186.709 74.2728C186.709 73.3992 186.846 72.5926 187.119 71.8348C187.392 71.0771 187.781 70.4178 188.286 69.8571C188.79 69.2965 189.398 68.8544 190.111 68.5303C190.824 68.2062 191.623 68.0442 192.508 68.0442C193.082 68.0442 193.628 68.1104 194.143 68.2428C194.659 68.3753 195.129 68.5639 195.555 68.809C195.98 69.054 196.356 69.35 196.683 69.6963C197.01 70.0427 197.275 70.4275 197.478 70.85L195.331 72.0584C195.201 71.7993 195.049 71.5584 194.874 71.3357C194.699 71.1134 194.498 70.9216 194.27 70.761C194.042 70.6004 193.781 70.4737 193.488 70.3808C193.195 70.2879 192.868 70.2413 192.508 70.2413C191.939 70.2413 191.448 70.3527 191.037 70.5753C190.625 70.7978 190.287 71.0921 190.023 71.4585C189.758 71.8247 189.561 72.2487 189.431 72.7305C189.301 73.2122 189.236 73.7097 189.236 74.222V74.3067H189.236Z" fill="#0B0C0C"/>
<path d="M205.521 68.0442C206.423 68.0442 207.232 68.2062 207.947 68.5303C208.663 68.8544 209.27 69.2965 209.769 69.8571C210.268 70.4178 210.648 71.0771 210.91 71.8348C211.172 72.5926 211.303 73.4054 211.303 74.2728C211.303 75.1402 211.172 75.9605 210.91 76.7153C210.648 77.4704 210.268 78.1297 209.769 78.693C209.27 79.2563 208.663 79.6987 207.947 80.0198C207.232 80.341 206.423 80.5016 205.521 80.5016C204.62 80.5016 203.804 80.341 203.091 80.0198C202.379 79.6987 201.773 79.2565 201.274 78.693C200.776 78.1297 200.395 77.4704 200.133 76.7153C199.871 75.9605 199.74 75.1464 199.74 74.2728C199.74 73.3992 199.871 72.5926 200.133 71.8348C200.395 71.0771 200.776 70.4178 201.274 69.8571C201.773 69.2965 202.379 68.8544 203.091 68.5303C203.804 68.2062 204.614 68.0442 205.521 68.0442ZM205.521 78.2874C206.051 78.2874 206.518 78.1875 206.92 77.9873C207.323 77.7875 207.663 77.5098 207.939 77.155C208.215 76.8 208.423 76.3803 208.564 75.8956C208.705 75.4112 208.776 74.8815 208.776 74.3069V74.2392C208.776 73.6701 208.705 73.1418 208.564 72.6545C208.423 72.1672 208.215 71.7459 207.939 71.391C207.663 71.0362 207.323 70.7588 206.92 70.5585C206.518 70.3587 206.051 70.2586 205.521 70.2586C204.992 70.2586 204.524 70.3587 204.118 70.5585C203.713 70.7588 203.373 71.0362 203.1 71.391C202.827 71.7459 202.62 72.1674 202.479 72.6545C202.338 73.1418 202.267 73.6701 202.267 74.2392V74.3069C202.267 74.8815 202.338 75.4112 202.479 75.8956C202.62 76.3803 202.827 76.7998 203.1 77.155C203.373 77.5098 203.713 77.7875 204.118 77.9873C204.524 78.1875 204.992 78.2874 205.521 78.2874Z" fill="#0B0C0C"/>
<path d="M215.626 80.3342L212.203 68.2151H214.95L217.292 77.3255H217.376L219.667 68.2151H222.38L218.957 80.3342H215.627H215.626Z" fill="#0B0C0C"/>
<path d="M236.26 78.2876C236.615 78.2876 236.947 78.2355 237.253 78.1313C237.561 78.0271 237.826 77.8694 238.048 77.658C238.27 77.4466 238.447 77.1793 238.576 76.855C238.706 76.5312 238.771 76.1495 238.771 75.71V68.1965H241.18V76.0731C241.18 76.7493 241.057 77.3607 240.812 77.9071C240.568 78.4537 240.227 78.9186 239.79 79.3017C239.354 79.685 238.835 79.9806 238.232 80.1891C237.63 80.3973 236.971 80.5018 236.256 80.5018C235.541 80.5018 234.882 80.3973 234.28 80.1891C233.678 79.9806 233.157 79.6848 232.718 79.3017C232.278 78.9186 231.937 78.4539 231.691 77.9071C231.447 77.3607 231.324 76.7491 231.324 76.0731V68.1965H233.75V75.7098C233.75 76.1493 233.815 76.5309 233.944 76.8548C234.074 77.1791 234.25 77.4464 234.473 77.6578C234.695 77.8691 234.96 78.0268 235.267 78.1311C235.574 78.2353 235.906 78.2873 236.26 78.2873V78.2876Z" fill="#0B0C0C"/>
<path d="M243.355 68.2125H245.807V73.4606L250.134 68.2125H253.152L248.943 73.0296L253.422 80.3316H250.574L247.371 74.8973L245.807 76.6466V80.3316H243.355V68.2125Z" fill="#0B0C0C"/>
<path d="M168.411 70.1402C168.975 70.1402 169.432 69.6834 169.432 69.1199C169.432 68.5564 168.975 68.0996 168.411 68.0996C167.847 68.0996 167.391 68.5564 167.391 69.1199C167.391 69.6834 167.847 70.1402 168.411 70.1402Z" fill="#0B0C0C"/>
<path d="M165.669 71.7848C166.232 71.7848 166.689 71.328 166.689 70.7645C166.689 70.201 166.232 69.7441 165.669 69.7441C165.105 69.7441 164.648 70.201 164.648 70.7645C164.648 71.328 165.105 71.7848 165.669 71.7848Z" fill="#0B0C0C"/>
<path d="M163.851 74.488C164.414 74.488 164.871 74.0311 164.871 73.4676C164.871 72.9041 164.414 72.4473 163.851 72.4473C163.287 72.4473 162.83 72.9041 162.83 73.4676C162.83 74.0311 163.287 74.488 163.851 74.488Z" fill="#0B0C0C"/>
<path d="M171.677 73.7726C172.24 73.7726 172.697 73.3158 172.697 72.7522C172.697 72.1887 172.24 71.7319 171.677 71.7319C171.113 71.7319 170.656 72.1887 170.656 72.7522C170.656 73.3158 171.113 73.7726 171.677 73.7726Z" fill="#0B0C0C"/>
<path d="M174.936 70.1402C175.5 70.1402 175.957 69.6834 175.957 69.1199C175.957 68.5564 175.5 68.0996 174.936 68.0996C174.373 68.0996 173.916 68.5564 173.916 69.1199C173.916 69.6834 174.373 70.1402 174.936 70.1402Z" fill="#0B0C0C"/>
<path d="M177.683 71.7848C178.246 71.7848 178.703 71.328 178.703 70.7645C178.703 70.201 178.246 69.7441 177.683 69.7441C177.119 69.7441 176.662 70.201 176.662 70.7645C176.662 71.328 177.119 71.7848 177.683 71.7848Z" fill="#0B0C0C"/>
<path d="M179.499 74.488C180.063 74.488 180.519 74.0311 180.519 73.4676C180.519 72.9041 180.063 72.4473 179.499 72.4473C178.935 72.4473 178.479 72.9041 178.479 73.4676C178.479 74.0311 178.935 74.488 179.499 74.488Z" fill="#0B0C0C"/>
<path d="M171.677 73.7726C172.24 73.7726 172.697 73.3158 172.697 72.7522C172.697 72.1887 172.24 71.7319 171.677 71.7319C171.113 71.7319 170.656 72.1887 170.656 72.7522C170.656 73.3158 171.113 73.7726 171.677 73.7726Z" fill="#0B0C0C"/>
<path d="M172.089 66.9334C172.141 66.8946 172.187 66.8487 172.226 66.7971L173.524 67.4785V65.5654L172.227 65.9768C172.19 65.9263 172.145 65.8811 172.095 65.8425L172.616 64.1996H170.739L171.261 65.8425C171.211 65.8808 171.166 65.9261 171.128 65.9768L169.832 65.5654V67.4785L171.13 66.7971C171.169 66.8487 171.215 66.8946 171.266 66.9334L170.527 69.1629C170.267 69.9477 170.851 70.757 171.678 70.757C172.505 70.757 173.089 69.9477 172.829 69.1629L172.089 66.9334Z" fill="#0B0C0C"/>
<path d="M173.159 74.7839C173.159 74.7839 172.211 75.8385 172.004 76.4819C172.625 76.4623 173.182 76.3415 173.795 75.7012L173.588 78.0835C173.023 77.2915 172.361 76.95 171.994 77.0184C172.031 77.8721 172.12 78.9034 173.615 79.0392C174.659 79.1298 175.496 78.6175 175.583 77.9836C175.687 77.2553 175.03 76.7736 174.536 77.5402C174.149 76.2716 175.217 75.8498 175.904 76.6353C175.375 75.3833 175.389 74.4939 176.565 73.5945C177.408 74.7156 177.289 75.6422 176.243 76.6854C176.924 76.3089 177.981 76.705 177.358 77.9768C177.033 77.1858 176.335 77.3625 176.189 78.043C176.091 78.5238 176.383 79.0893 177.017 79.2054C177.537 79.3007 178.339 78.9453 178.981 77.5617C178.62 77.5709 178.303 77.7534 177.893 78.0356L178.567 75.7896C178.736 76.42 178.953 76.8338 179.183 77.0576C179.338 76.6039 179.316 76.2749 179.178 75.5679L180.57 76.0637C179.831 77.0729 179.114 78.4891 178.526 80.9624C176.454 80.6666 174.134 80.5004 171.676 80.5004C169.218 80.5004 166.898 80.6668 164.826 80.9624C164.238 78.4889 163.521 77.0727 162.781 76.0637L164.174 75.5679C164.036 76.2749 164.014 76.6039 164.168 77.0576C164.398 76.8338 164.616 76.42 164.785 75.7896L165.459 78.0356C165.049 77.7532 164.732 77.5709 164.371 77.5617C165.013 78.9453 165.815 79.3005 166.335 79.2054C166.969 79.0893 167.261 78.5238 167.163 78.043C167.017 77.3625 166.319 77.1858 165.994 77.9768C165.371 76.705 166.428 76.3087 167.109 76.6854C166.063 75.6422 165.943 74.7154 166.787 73.5945C167.962 74.4937 167.976 75.3831 167.448 76.6353C168.134 75.8501 169.203 76.2716 168.816 77.5402C168.321 76.7736 167.665 77.2553 167.769 77.9836C167.856 78.6177 168.693 79.13 169.736 79.0392C171.231 78.9034 171.321 77.8721 171.358 77.0184C170.991 76.95 170.329 77.2913 169.764 78.0835L169.556 75.7012C170.17 76.3415 170.727 76.4621 171.347 76.4819C171.141 75.8385 170.193 74.7839 170.193 74.7839H173.16H173.159Z" fill="#0B0C0C"/>
<path d="M226.24 76.3216C227.371 76.3216 228.289 75.4046 228.289 74.2733C228.289 73.1421 227.371 72.225 226.24 72.225C225.109 72.225 224.191 73.1421 224.191 74.2733C224.191 75.4046 225.109 76.3216 226.24 76.3216Z" fill="#0B0C0C"/>
<path d="M189.246 74.3067C189.246 74.824 189.312 75.3247 189.44 75.8047C189.568 76.2847 189.767 76.7068 190.032 77.0709C190.297 77.4392 190.636 77.733 191.046 77.9523C191.456 78.1757 191.948 78.2875 192.515 78.2875C193.082 78.2875 193.517 78.2006 193.881 78.0268C194.245 77.853 194.535 77.6337 194.75 77.373C194.965 77.1123 195.118 76.8268 195.205 76.5247C195.292 76.2185 195.338 75.9371 195.338 75.6805V75.5605H192.234V73.6943H197.721V80.3399H195.573V78.9206C195.42 79.1564 195.234 79.3716 195.006 79.5661C194.783 79.7606 194.526 79.9261 194.245 80.0668C193.964 80.2034 193.653 80.3151 193.318 80.3937C192.983 80.4723 192.627 80.5137 192.25 80.5137C191.365 80.5137 190.578 80.3523 189.891 80.0337C189.204 79.7109 188.625 79.2682 188.153 78.7054C187.681 78.1426 187.325 77.4806 187.081 76.7275C186.837 75.9743 186.713 75.1592 186.713 74.2861C186.713 73.4129 186.849 72.606 187.123 71.8488C187.396 71.0915 187.785 70.4295 188.29 69.8708C188.795 69.3122 189.403 68.8695 190.115 68.5426C190.827 68.2157 191.625 68.0584 192.511 68.0584C193.086 68.0584 193.632 68.1246 194.146 68.257C194.663 68.3894 195.131 68.5798 195.557 68.8239C195.983 69.0681 196.36 69.366 196.687 69.7136C197.014 70.0612 197.279 70.446 197.481 70.8681L195.333 72.0764C195.205 71.8157 195.052 71.5757 194.878 71.3522C194.704 71.1288 194.502 70.9384 194.274 70.7771C194.046 70.6157 193.786 70.4915 193.492 70.3964C193.198 70.3053 192.871 70.2557 192.511 70.2557C191.94 70.2557 191.451 70.3674 191.042 70.5908C190.632 70.8143 190.293 71.1081 190.028 71.4722C189.763 71.8364 189.564 72.2626 189.436 72.7426C189.308 73.2226 189.242 73.7233 189.242 74.2364V74.3192L189.246 74.3067Z" fill="#0B0C0C"/>
<path d="M205.53 68.0415C206.432 68.0415 207.239 68.2029 207.955 68.5256C208.671 68.8484 209.279 69.2912 209.776 69.8539C210.272 70.4167 210.653 71.0746 210.918 71.8319C211.183 72.5891 211.311 73.4043 211.311 74.2691C211.311 75.134 211.179 75.9574 210.918 76.7105C210.657 77.4678 210.276 78.1257 209.776 78.6885C209.275 79.2513 208.671 79.694 207.955 80.0168C207.239 80.3395 206.432 80.4968 205.53 80.4968C204.627 80.4968 203.812 80.3354 203.1 80.0168C202.388 79.6982 201.78 79.2513 201.283 78.6885C200.783 78.1257 200.406 77.4637 200.141 76.7105C199.88 75.9574 199.748 75.1423 199.748 74.2691C199.748 73.396 199.88 72.5891 200.141 71.8319C200.402 71.0746 200.783 70.4126 201.283 69.8539C201.784 69.2953 202.388 68.8525 203.1 68.5256C203.812 68.1987 204.623 68.0415 205.53 68.0415ZM205.53 78.2871C206.059 78.2871 206.527 78.1878 206.928 77.985C207.33 77.7864 207.669 77.5092 207.946 77.1533C208.224 76.7974 208.431 76.3795 208.571 75.8954C208.712 75.4112 208.782 74.8816 208.782 74.3064V74.2402C208.782 73.6691 208.712 73.1436 208.571 72.6553C208.431 72.1671 208.224 71.745 207.946 71.3933C207.669 71.0374 207.33 70.7601 206.928 70.5615C206.527 70.3629 206.059 70.2595 205.53 70.2595C205 70.2595 204.532 70.3588 204.127 70.5615C203.721 70.7601 203.382 71.0374 203.109 71.3933C202.835 71.7491 202.628 72.1712 202.488 72.6553C202.347 73.1395 202.277 73.6691 202.277 74.2402V74.3064C202.277 74.8816 202.347 75.4112 202.488 75.8954C202.628 76.3795 202.835 76.8016 203.109 77.1533C203.382 77.5092 203.721 77.7864 204.127 77.985C204.532 78.1837 205 78.2871 205.53 78.2871Z" fill="#0B0C0C"/>
<path d="M215.635 80.3327L212.213 68.2126H214.961L217.303 77.3244H217.386L219.679 68.2126H222.394L218.971 80.3327H215.64H215.635Z" fill="#0B0C0C"/>
<path d="M236.281 78.2881C236.637 78.2881 236.968 78.2343 237.275 78.1309C237.581 78.0274 237.846 77.8702 238.069 77.6592C238.293 77.4481 238.467 77.1791 238.599 76.8564C238.727 76.5336 238.794 76.1488 238.794 75.7102V68.1956H241.202V76.0743C241.202 76.7488 241.078 77.3612 240.834 77.9074C240.59 78.4536 240.246 78.9171 239.812 79.3019C239.377 79.6868 238.856 79.9806 238.251 80.1916C237.647 80.3985 236.989 80.5061 236.273 80.5061C235.557 80.5061 234.899 80.4026 234.295 80.1916C233.691 79.9847 233.173 79.6868 232.731 79.3019C232.292 78.9171 231.948 78.4536 231.704 77.9074C231.46 77.3612 231.336 76.7488 231.336 76.0743V68.1956H233.761V75.7102C233.761 76.1488 233.827 76.5295 233.956 76.8564C234.084 77.1791 234.262 77.4481 234.485 77.6592C234.709 77.8702 234.974 78.0274 235.28 78.1309C235.586 78.2343 235.917 78.2881 236.273 78.2881H236.281Z" fill="#0B0C0C"/>
<path d="M243.373 68.2126H245.823V73.4637L250.152 68.2126H253.169L248.96 73.0292L253.442 80.3327H250.595L247.392 74.8954L245.827 76.6458V80.3327H243.377V68.2126H243.373Z" fill="#0B0C0C"/>
<path d="M167.468 68.7372C167.683 68.2158 168.283 67.9634 168.805 68.1744C169.334 68.3896 169.583 68.9979 169.363 69.5192C169.148 70.0406 168.548 70.2889 168.023 70.0737C167.505 69.8627 167.257 69.2627 167.472 68.7413L167.468 68.7372Z" fill="#0B0C0C"/>
<path d="M165.274 71.7103C164.757 71.4993 164.509 70.8951 164.724 70.3779C164.939 69.8565 165.543 69.5999 166.061 69.8151C166.586 70.0303 166.835 70.6386 166.619 71.1558C166.404 71.6772 165.804 71.9255 165.279 71.7103H165.274Z" fill="#0B0C0C"/>
<path d="M162.907 73.0811C163.122 72.5597 163.722 72.3073 164.244 72.5183C164.774 72.7335 165.022 73.3418 164.803 73.859C164.587 74.3804 163.987 74.6287 163.462 74.4135C162.944 74.2025 162.692 73.6025 162.911 73.0811H162.907Z" fill="#0B0C0C"/>
<path d="M171.132 66.8028C171.17 66.8525 171.215 66.898 171.265 66.9352L170.52 69.1821C170.52 69.1821 170.52 69.1863 170.52 69.1904C170.487 69.3021 170.466 69.4221 170.466 69.5463C170.466 70.1546 170.917 70.6552 171.501 70.7421C171.509 70.7421 171.517 70.7421 171.525 70.7421C171.575 70.7463 171.625 70.7546 171.679 70.7546C171.732 70.7546 171.782 70.7546 171.832 70.7421C171.84 70.7421 171.848 70.7421 171.857 70.7421C172.44 70.6552 172.891 70.1546 172.891 69.5463C172.891 69.4221 172.875 69.3021 172.837 69.1904V69.178L172.092 66.9311C172.142 66.8938 172.188 66.8483 172.225 66.7987L173.524 67.4773V65.5697L172.229 65.9793C172.192 65.9255 172.15 65.8842 172.105 65.8469L172.626 64.2H170.752L171.273 65.8428C171.223 65.8842 171.182 65.9255 171.149 65.9752L169.854 65.5655V67.4773L171.153 66.7945" fill="#0B0C0C"/>
<path d="M175.905 68.7372C175.69 68.2158 175.09 67.9634 174.568 68.1744C174.038 68.3896 173.79 68.9979 174.009 69.5192C174.225 70.0406 174.825 70.2889 175.35 70.0737C175.868 69.8627 176.116 69.2627 175.901 68.7413L175.905 68.7372Z" fill="#0B0C0C"/>
<path d="M178.1 71.7103C178.618 71.4993 178.866 70.8951 178.651 70.3779C178.435 69.8565 177.831 69.5999 177.314 69.8151C176.788 70.0303 176.54 70.6386 176.755 71.1558C176.97 71.6772 177.57 71.9255 178.096 71.7103H178.1Z" fill="#0B0C0C"/>
<path d="M180.471 73.0811C180.256 72.5597 179.656 72.3073 179.135 72.5183C178.605 72.7335 178.361 73.3418 178.576 73.859C178.791 74.3804 179.391 74.6287 179.917 74.4135C180.434 74.2025 180.687 73.6025 180.467 73.0811H180.471Z" fill="#0B0C0C"/>
<path d="M171.681 80.5057C174.14 80.5057 176.461 80.6712 178.535 80.9691C179.122 78.4988 179.838 77.0795 180.579 76.0698L179.189 75.5732C179.329 76.2808 179.35 76.6077 179.193 77.0629C178.961 76.8395 178.746 76.4257 178.576 75.7967L177.901 78.0436C178.311 77.7622 178.63 77.576 178.99 77.5677C178.348 78.9498 177.546 79.3057 177.024 79.2105C176.391 79.0946 176.097 78.5277 176.196 78.0477C176.341 77.3691 177.041 77.1912 177.368 77.9815C177.992 76.7112 176.933 76.3139 176.254 76.6905C177.301 75.6477 177.417 74.7208 176.573 73.5994C175.398 74.4974 175.381 75.387 175.911 76.6408C175.224 75.8546 174.156 76.2767 174.541 77.547C175.038 76.7815 175.691 77.2615 175.588 77.9898C175.501 78.6229 174.665 79.136 173.622 79.045C172.128 78.9084 172.037 77.8781 172 77.0257C172.368 76.9595 173.03 77.2988 173.593 78.0891L173.8 75.7057C173.188 76.347 172.629 76.467 172.008 76.4877C172.215 75.8422 173.163 74.7912 173.163 74.7912H170.191C170.191 74.7912 171.139 75.8463 171.346 76.4877C170.725 76.467 170.167 76.347 169.554 75.7057L169.761 78.0891C170.324 77.2988 170.986 76.9553 171.354 77.0257C171.317 77.8781 171.226 78.9084 169.732 79.045C168.689 79.136 167.853 78.6229 167.766 77.9898C167.663 77.2615 168.321 76.7815 168.813 77.547C169.198 76.2767 168.13 75.8588 167.443 76.6408C167.973 75.387 167.957 74.5015 166.781 73.5994C165.937 74.7208 166.057 75.6477 167.104 76.6905C166.425 76.3139 165.366 76.7112 165.991 77.9815C166.318 77.1912 167.013 77.3691 167.162 78.0477C167.261 78.5277 166.967 79.0946 166.334 79.2105C165.813 79.3057 165.014 78.9498 164.368 77.5677C164.729 77.576 165.047 77.7581 165.457 78.0436L164.782 75.7967C164.613 76.4257 164.397 76.8395 164.166 77.0629C164.013 76.6077 164.033 76.2808 164.17 75.5732L162.779 76.0698C163.52 77.0795 164.236 78.4946 164.824 80.9691C166.897 80.6754 169.219 80.5057 171.677 80.5057" fill="#0B0C0C"/>
<path d="M171.682 73.7802C172.247 73.7802 172.705 73.3226 172.705 72.7581C172.705 72.1936 172.247 71.736 171.682 71.736C171.118 71.736 170.66 72.1936 170.66 72.7581C170.66 73.3226 171.118 73.7802 171.682 73.7802Z" fill="#0B0C0C"/>
<line x1="155.309" y1="66.2985" x2="44.564" y2="66.2985" stroke="#E59ABE" stroke-width="0.911742"/>
<line x1="155.309" y1="80.1801" x2="44.564" y2="80.1801" stroke="#E59ABE" stroke-width="0.911742"/>
<path d="M49.5732 92.6404H50.8641V101.172H49.8052V93.8778L46.8901 97.8578H46.8782L43.9452 93.8838V101.172H42.922V92.6404H44.2546L46.9079 96.2694L49.5732 92.6404ZM53.8863 101.172H52.8869V95.0915H53.8863V101.172ZM52.7024 93.3365C52.7024 93.2413 52.7203 93.152 52.756 93.0688C52.7956 92.9855 52.8452 92.9121 52.9047 92.8486C52.9682 92.7852 53.0415 92.7356 53.1248 92.6999C53.2121 92.6602 53.3033 92.6404 53.3985 92.6404C53.4937 92.6404 53.5829 92.6602 53.6662 92.6999C53.7495 92.7356 53.8209 92.7852 53.8804 92.8486C53.9438 92.9121 53.9934 92.9855 54.0291 93.0688C54.0688 93.152 54.0886 93.2413 54.0886 93.3365C54.0886 93.4317 54.0688 93.5229 54.0291 93.6101C53.9934 93.6934 53.9438 93.7668 53.8804 93.8302C53.8209 93.8897 53.7495 93.9393 53.6662 93.979C53.5829 94.0147 53.4937 94.0325 53.3985 94.0325C53.3033 94.0325 53.2121 94.0147 53.1248 93.979C53.0415 93.9393 52.9682 93.8897 52.9047 93.8302C52.8452 93.7668 52.7956 93.6934 52.756 93.6101C52.7203 93.5229 52.7024 93.4317 52.7024 93.3365ZM55.7187 95.0915H56.7181V95.7875C56.9244 95.5059 57.1782 95.2997 57.4796 95.1688C57.785 95.0379 58.1241 94.9725 58.4969 94.9725C58.8341 94.9725 59.1295 95.028 59.3834 95.1391C59.6372 95.2501 59.8494 95.4008 60.0199 95.5912C60.1905 95.7816 60.3174 96.0017 60.4007 96.2516C60.4879 96.5014 60.5316 96.7652 60.5316 97.0428V101.172H59.5321V97.3581C59.5321 97.0924 59.4984 96.8663 59.431 96.6799C59.3675 96.4895 59.2783 96.3368 59.1633 96.2218C59.0522 96.1028 58.9193 96.0176 58.7647 95.966C58.6139 95.9105 58.4513 95.8827 58.2768 95.8827C58.0865 95.8827 57.8981 95.9184 57.7117 95.9898C57.5292 96.0572 57.3626 96.1603 57.2119 96.2992C57.0652 96.438 56.9462 96.6125 56.855 96.8227C56.7638 97.0329 56.7181 97.2808 56.7181 97.5663V101.172H55.7187V95.0915ZM63.3098 101.172H62.3104V95.0915H63.3098V101.172ZM62.1259 93.3365C62.1259 93.2413 62.1438 93.152 62.1795 93.0688C62.2192 92.9855 62.2687 92.9121 62.3282 92.8486C62.3917 92.7852 62.4651 92.7356 62.5483 92.6999C62.6356 92.6602 62.7268 92.6404 62.822 92.6404C62.9172 92.6404 63.0064 92.6602 63.0897 92.6999C63.173 92.7356 63.2444 92.7852 63.3039 92.8486C63.3673 92.9121 63.4169 92.9855 63.4526 93.0688C63.4923 93.152 63.5121 93.2413 63.5121 93.3365C63.5121 93.4317 63.4923 93.5229 63.4526 93.6101C63.4169 93.6934 63.3673 93.7668 63.3039 93.8302C63.2444 93.8897 63.173 93.9393 63.0897 93.979C63.0064 94.0147 62.9172 94.0325 62.822 94.0325C62.7268 94.0325 62.6356 94.0147 62.5483 93.979C62.4651 93.9393 62.3917 93.8897 62.3282 93.8302C62.2687 93.7668 62.2192 93.6934 62.1795 93.6101C62.1438 93.5229 62.1259 93.4317 62.1259 93.3365ZM69.6993 101.172H68.6998V97.3462C68.6998 97.0765 68.6661 96.8485 68.5987 96.6621C68.5352 96.4757 68.4479 96.3249 68.3369 96.2099C68.2298 96.0949 68.1009 96.0116 67.9502 95.9601C67.8035 95.9085 67.6468 95.8827 67.4802 95.8827C67.3136 95.8827 67.149 95.9164 66.9864 95.9839C66.8278 96.0473 66.685 96.1484 66.5581 96.2873C66.4351 96.4261 66.334 96.6026 66.2547 96.8167C66.1793 97.0269 66.1416 97.2808 66.1416 97.5782V101.172H65.1422V95.0915H66.1416V95.7875C66.3439 95.5059 66.5779 95.2997 66.8436 95.1688C67.1133 95.0379 67.4108 94.9725 67.736 94.9725C67.8709 94.9725 68.0176 94.9923 68.1763 95.032C68.3349 95.0677 68.4896 95.1252 68.6403 95.2045C68.795 95.2838 68.9358 95.3889 69.0627 95.5198C69.1936 95.6467 69.2987 95.8014 69.378 95.9839C69.4891 95.7974 69.616 95.6408 69.7587 95.5139C69.9055 95.383 70.0582 95.2779 70.2168 95.1986C70.3794 95.1192 70.546 95.0617 70.7166 95.026C70.8911 94.9903 71.0636 94.9725 71.2341 94.9725C71.5633 94.9725 71.8548 95.028 72.1087 95.1391C72.3625 95.2501 72.5767 95.3988 72.7512 95.5853C72.9257 95.7717 73.0566 95.9878 73.1438 96.2337C73.2351 96.4796 73.2807 96.7374 73.2807 97.0071V101.172H72.2812V97.3462C72.2812 97.0765 72.2475 96.8485 72.1801 96.6621C72.1126 96.4757 72.0214 96.3249 71.9064 96.2099C71.7914 96.0949 71.6585 96.0116 71.5078 95.9601C71.3571 95.9085 71.2004 95.8827 71.0378 95.8827C70.8712 95.8827 70.7067 95.9164 70.544 95.9839C70.3854 96.0473 70.2426 96.1484 70.1157 96.2873C69.9927 96.4261 69.8916 96.6026 69.8123 96.8167C69.7369 97.0269 69.6993 97.2808 69.6993 97.5782V101.172ZM79.8248 101.172H78.8253V100.475C78.6191 100.757 78.3633 100.963 78.0579 101.094C77.7564 101.225 77.4193 101.291 77.0465 101.291C76.7094 101.291 76.4139 101.235 76.1601 101.124C75.9062 101.013 75.6941 100.862 75.5235 100.672C75.353 100.481 75.2241 100.261 75.1368 100.011C75.0535 99.7616 75.0119 99.4978 75.0119 99.2202V95.0915H76.0113V98.9049C76.0113 99.1746 76.0431 99.4026 76.1065 99.5891C76.174 99.7755 76.2632 99.9282 76.3742 100.047C76.4893 100.162 76.6221 100.247 76.7728 100.303C76.9275 100.355 77.0921 100.38 77.2666 100.38C77.4729 100.38 77.6692 100.347 77.8556 100.279C78.046 100.208 78.2125 100.103 78.3553 99.9639C78.4981 99.825 78.6111 99.6505 78.6944 99.4403C78.7817 99.2301 78.8253 98.9822 78.8253 98.6967V95.0915H79.8248V101.172ZM86.2142 101.172H85.2147V97.3462C85.2147 97.0765 85.181 96.8485 85.1136 96.6621C85.0501 96.4757 84.9629 96.3249 84.8518 96.2099C84.7447 96.0949 84.6158 96.0116 84.4651 95.9601C84.3184 95.9085 84.1617 95.8827 83.9951 95.8827C83.8286 95.8827 83.664 95.9164 83.5014 95.9839C83.3427 96.0473 83.1999 96.1484 83.073 96.2873C82.9501 96.4261 82.8489 96.6026 82.7696 96.8167C82.6943 97.0269 82.6566 97.2808 82.6566 97.5782V101.172H81.6571V95.0915H82.6566V95.7875C82.8588 95.5059 83.0929 95.2997 83.3586 95.1688C83.6283 95.0379 83.9257 94.9725 84.251 94.9725C84.3858 94.9725 84.5326 94.9923 84.6912 95.032C84.8498 95.0677 85.0045 95.1252 85.1552 95.2045C85.3099 95.2838 85.4507 95.3889 85.5776 95.5198C85.7085 95.6467 85.8136 95.8014 85.8929 95.9839C86.004 95.7974 86.1309 95.6408 86.2737 95.5139C86.4204 95.383 86.5731 95.2779 86.7318 95.1986C86.8944 95.1192 87.061 95.0617 87.2315 95.026C87.406 94.9903 87.5785 94.9725 87.7491 94.9725C88.0783 94.9725 88.3698 95.028 88.6236 95.1391C88.8774 95.2501 89.0916 95.3988 89.2661 95.5853C89.4406 95.7717 89.5715 95.9878 89.6588 96.2337C89.75 96.4796 89.7956 96.7374 89.7956 97.0071V101.172H88.7961V97.3462C88.7961 97.0765 88.7624 96.8485 88.695 96.6621C88.6276 96.4757 88.5364 96.3249 88.4213 96.2099C88.3063 96.0949 88.1735 96.0116 88.0227 95.9601C87.872 95.9085 87.7154 95.8827 87.5528 95.8827C87.3862 95.8827 87.2216 95.9164 87.059 95.9839C86.9003 96.0473 86.7575 96.1484 86.6306 96.2873C86.5077 96.4261 86.4065 96.6026 86.3272 96.8167C86.2519 97.0269 86.2142 97.2808 86.2142 97.5782V101.172ZM98.0888 99.4879C98.0888 99.7735 98.0253 100.029 97.8984 100.255C97.7754 100.477 97.6108 100.666 97.4046 100.821C97.1984 100.975 96.9604 101.092 96.6907 101.172C96.425 101.251 96.1513 101.291 95.8697 101.291C95.4255 101.291 94.9972 101.215 94.5847 101.064C94.1762 100.91 93.8133 100.69 93.496 100.404L94.0433 99.6961C94.1385 99.7794 94.2476 99.8667 94.3705 99.9579C94.4974 100.049 94.6382 100.134 94.7929 100.214C94.9476 100.289 95.1142 100.353 95.2926 100.404C95.4711 100.452 95.6595 100.475 95.8578 100.475C96.0204 100.475 96.1751 100.456 96.3218 100.416C96.4726 100.372 96.6034 100.311 96.7145 100.232C96.8255 100.148 96.9128 100.051 96.9763 99.9401C97.0437 99.825 97.0774 99.6961 97.0774 99.5534C97.0774 99.3947 97.0417 99.2619 96.9703 99.1548C96.9029 99.0477 96.8097 98.9565 96.6907 98.8811C96.5717 98.8057 96.4329 98.7403 96.2743 98.6848C96.1156 98.6293 95.949 98.5737 95.7745 98.5182L95.3938 98.3933C95.1796 98.3219 94.9734 98.2406 94.7751 98.1494C94.5768 98.0581 94.4003 97.9471 94.2456 97.8162C94.0949 97.6814 93.9739 97.5227 93.8827 97.3403C93.7954 97.1578 93.7518 96.9397 93.7518 96.6859C93.7518 96.4796 93.7954 96.2754 93.8827 96.0731C93.9699 95.8669 94.1028 95.6824 94.2813 95.5198C94.4637 95.3572 94.6938 95.2263 94.9714 95.1272C95.249 95.0241 95.5762 94.9725 95.953 94.9725C96.3694 94.9725 96.7542 95.0419 97.1071 95.1807C97.4641 95.3195 97.7655 95.4921 98.0114 95.6983L97.4879 96.4181C97.4006 96.3349 97.2975 96.2555 97.1785 96.1802C97.0595 96.1048 96.9326 96.0394 96.7978 95.9839C96.6629 95.9244 96.5221 95.8768 96.3754 95.8411C96.2286 95.8054 96.0839 95.7875 95.9411 95.7875C95.723 95.7875 95.5385 95.8133 95.3878 95.8649C95.2371 95.9125 95.1161 95.9759 95.0249 96.0552C94.9337 96.1346 94.8663 96.2238 94.8227 96.323C94.783 96.4221 94.7632 96.5193 94.7632 96.6145C94.7632 96.7533 94.7929 96.8703 94.8524 96.9655C94.9119 97.0567 94.9892 97.136 95.0844 97.2034C95.1836 97.2709 95.2946 97.3284 95.4176 97.376C95.5445 97.4236 95.6754 97.4711 95.8102 97.5187L96.3099 97.6853C96.5479 97.7646 96.7661 97.8499 96.9644 97.9411C97.1627 98.0284 97.3372 98.1295 97.4879 98.2445C97.6783 98.3953 97.825 98.5698 97.9281 98.7681C98.0352 98.9664 98.0888 99.2063 98.0888 99.4879ZM100.623 101.172H99.6236V95.0915H100.623V101.172ZM99.4392 93.3365C99.4392 93.2413 99.4571 93.152 99.4928 93.0688C99.5324 92.9855 99.582 92.9121 99.6415 92.8486C99.7049 92.7852 99.7783 92.7356 99.8616 92.6999C99.9489 92.6602 100.04 92.6404 100.135 92.6404C100.23 92.6404 100.32 92.6602 100.403 92.6999C100.486 92.7356 100.558 92.7852 100.617 92.8486C100.681 92.9121 100.73 92.9855 100.766 93.0688C100.806 93.152 100.825 93.2413 100.825 93.3365C100.825 93.4317 100.806 93.5229 100.766 93.6101C100.73 93.6934 100.681 93.7668 100.617 93.8302C100.558 93.8897 100.486 93.9393 100.403 93.979C100.32 94.0147 100.23 94.0325 100.135 94.0325C100.04 94.0325 99.9489 94.0147 99.8616 93.979C99.7783 93.9393 99.7049 93.8897 99.6415 93.8302C99.582 93.7668 99.5324 93.6934 99.4928 93.6101C99.4571 93.5229 99.4392 93.4317 99.4392 93.3365ZM102.015 100.267L105.329 95.972H102.212V95.0915H106.435V96.0195L103.134 100.309H106.596V101.172H102.015V100.267ZM108.607 98.4409C108.627 98.7264 108.684 98.9902 108.779 99.2321C108.875 99.474 109.004 99.6842 109.166 99.8627C109.333 100.037 109.527 100.174 109.749 100.273C109.975 100.368 110.225 100.416 110.499 100.416C110.836 100.416 111.131 100.36 111.385 100.249C111.643 100.134 111.879 99.9916 112.093 99.8211L112.605 100.541C112.331 100.759 112.014 100.94 111.653 101.082C111.296 101.221 110.895 101.291 110.451 101.291C110.011 101.291 109.612 101.213 109.255 101.059C108.898 100.9 108.593 100.682 108.339 100.404C108.089 100.123 107.897 99.7893 107.762 99.4046C107.627 99.016 107.56 98.5936 107.56 98.1375C107.56 97.6734 107.625 97.249 107.756 96.8643C107.891 96.4757 108.079 96.1425 108.321 95.8649C108.563 95.5833 108.853 95.3651 109.19 95.2105C109.527 95.0518 109.902 94.9725 110.314 94.9725C110.715 94.9725 111.076 95.0518 111.397 95.2105C111.718 95.3651 111.992 95.5833 112.218 95.8649C112.444 96.1425 112.617 96.4757 112.736 96.8643C112.859 97.249 112.92 97.6695 112.92 98.1256V98.4409H108.607ZM110.279 95.847C110.025 95.847 109.799 95.8966 109.6 95.9958C109.402 96.0949 109.232 96.2278 109.089 96.3943C108.95 96.5609 108.839 96.7533 108.756 96.9714C108.676 97.1856 108.631 97.4077 108.619 97.6377H111.837C111.829 97.4037 111.788 97.1796 111.712 96.9655C111.641 96.7473 111.538 96.557 111.403 96.3943C111.272 96.2278 111.112 96.0949 110.921 95.9958C110.735 95.8966 110.521 95.847 110.279 95.847ZM114.318 100.6C114.318 100.505 114.336 100.416 114.372 100.333C114.411 100.245 114.461 100.172 114.52 100.113C114.584 100.049 114.657 99.9996 114.741 99.9639C114.824 99.9242 114.913 99.9044 115.008 99.9044C115.103 99.9044 115.193 99.9242 115.276 99.9639C115.363 99.9996 115.437 100.049 115.496 100.113C115.56 100.172 115.609 100.245 115.645 100.333C115.684 100.416 115.704 100.505 115.704 100.6C115.704 100.696 115.684 100.785 115.645 100.868C115.609 100.951 115.56 101.025 115.496 101.088C115.437 101.148 115.363 101.195 115.276 101.231C115.193 101.271 115.103 101.291 115.008 101.291C114.913 101.291 114.824 101.271 114.741 101.231C114.657 101.195 114.584 101.148 114.52 101.088C114.461 101.025 114.411 100.951 114.372 100.868C114.336 100.785 114.318 100.696 114.318 100.6ZM114.318 95.7875C114.318 95.6923 114.336 95.6031 114.372 95.5198C114.411 95.4326 114.461 95.3592 114.52 95.2997C114.584 95.2362 114.657 95.1867 114.741 95.151C114.824 95.1113 114.913 95.0915 115.008 95.0915C115.103 95.0915 115.193 95.1113 115.276 95.151C115.363 95.1867 115.437 95.2362 115.496 95.2997C115.56 95.3592 115.609 95.4326 115.645 95.5198C115.684 95.6031 115.704 95.6923 115.704 95.7875C115.704 95.8827 115.684 95.972 115.645 96.0552C115.609 96.1385 115.56 96.2119 115.496 96.2754C115.437 96.3388 115.363 96.3904 115.276 96.43C115.193 96.4657 115.103 96.4836 115.008 96.4836C114.913 96.4836 114.824 96.4657 114.741 96.43C114.657 96.3904 114.584 96.3388 114.52 96.2754C114.461 96.2119 114.411 96.1385 114.372 96.0552C114.336 95.972 114.318 95.8827 114.318 95.7875ZM43.1443 115.764C43.6649 115.764 44.0888 115.723 44.416 115.641C44.7432 115.552 44.996 115.414 45.1745 115.228C45.353 115.042 45.472 114.804 45.5314 114.514C45.5984 114.217 45.6318 113.856 45.6318 113.432V113.176H47.5281V129.172H45.5649V117.426H42.4527V115.764H43.1443ZM57.3554 127.666C57.876 127.666 58.3594 127.528 58.8056 127.253C59.2592 126.978 59.6459 126.584 59.9657 126.071C60.2929 125.55 60.5494 124.914 60.7353 124.163C60.9212 123.405 61.0142 122.546 61.0142 121.586V120.783C61.0142 119.824 60.9212 118.969 60.7353 118.218C60.5494 117.467 60.2929 116.831 59.9657 116.31C59.6459 115.79 59.2592 115.395 58.8056 115.128C58.3594 114.853 57.876 114.715 57.3554 114.715C56.8275 114.715 56.3404 114.853 55.8942 115.128C55.448 115.395 55.0613 115.79 54.7341 116.31C54.4143 116.831 54.1615 117.467 53.9756 118.218C53.7897 118.969 53.6967 119.824 53.6967 120.783V121.586C53.6967 122.546 53.7897 123.405 53.9756 124.163C54.1615 124.914 54.4143 125.55 54.7341 126.071C55.0613 126.584 55.448 126.978 55.8942 127.253C56.3404 127.528 56.8275 127.666 57.3554 127.666ZM57.3554 112.975C58.0396 112.975 58.6568 113.083 59.2071 113.298C59.7574 113.514 60.2408 113.811 60.6572 114.191C61.0811 114.563 61.4418 115.009 61.7393 115.529C62.0441 116.05 62.2933 116.615 62.4866 117.225C62.68 117.827 62.8213 118.467 62.9105 119.143C62.9997 119.82 63.0444 120.504 63.0444 121.196C63.0444 121.888 62.9997 122.572 62.9105 123.248C62.8213 123.918 62.68 124.557 62.4866 125.167C62.2933 125.769 62.0441 126.331 61.7393 126.851C61.4418 127.364 61.0811 127.811 60.6572 128.19C60.2408 128.569 59.7574 128.867 59.2071 129.082C58.6568 129.291 58.0396 129.395 57.3554 129.395C56.6713 129.395 56.0541 129.291 55.5038 129.082C54.9535 128.867 54.4664 128.569 54.0425 128.19C53.6261 127.811 53.2654 127.364 52.9605 126.851C52.663 126.331 52.4176 125.769 52.2243 125.167C52.0309 124.557 51.8896 123.918 51.8004 123.248C51.7112 122.572 51.6665 121.888 51.6665 121.196C51.6665 120.504 51.7112 119.82 51.8004 119.143C51.8896 118.467 52.0309 117.827 52.2243 117.225C52.4176 116.615 52.663 116.05 52.9605 115.529C53.2654 115.009 53.6261 114.563 54.0425 114.191C54.4664 113.811 54.9535 113.514 55.5038 113.298C56.0541 113.083 56.6713 112.975 57.3554 112.975ZM74.7903 129.172H72.9163V121.999C72.9163 121.493 72.8531 121.066 72.7266 120.716C72.6077 120.367 72.4441 120.084 72.2358 119.869C72.0351 119.653 71.7934 119.497 71.5108 119.4C71.2356 119.303 70.9419 119.255 70.6296 119.255C70.3172 119.255 70.0086 119.318 69.7037 119.445C69.4063 119.564 69.1385 119.753 68.9006 120.014C68.67 120.274 68.4804 120.605 68.3317 121.006C68.1904 121.4 68.1198 121.876 68.1198 122.434V129.172H66.2458V117.771H68.1198V119.077C68.499 118.549 68.9378 118.162 69.436 117.916C69.9417 117.671 70.4994 117.548 71.1092 117.548C71.3621 117.548 71.6372 117.586 71.9347 117.66C72.2321 117.727 72.5221 117.835 72.8047 117.983C73.0948 118.132 73.3587 118.329 73.5967 118.575C73.8421 118.813 74.0392 119.103 74.1879 119.445C74.3961 119.095 74.6341 118.801 74.9018 118.563C75.177 118.318 75.4633 118.121 75.7607 117.972C76.0656 117.823 76.378 117.716 76.6977 117.649C77.0249 117.582 77.3484 117.548 77.6682 117.548C78.2854 117.548 78.832 117.652 79.3079 117.861C79.7839 118.069 80.1854 118.348 80.5126 118.697C80.8398 119.047 81.0852 119.452 81.2489 119.913C81.4199 120.374 81.5054 120.858 81.5054 121.363V129.172H79.6314V121.999C79.6314 121.493 79.5682 121.066 79.4418 120.716C79.3154 120.367 79.1443 120.084 78.9287 119.869C78.713 119.653 78.4639 119.497 78.1813 119.4C77.8987 119.303 77.605 119.255 77.3001 119.255C76.9877 119.255 76.6791 119.318 76.3742 119.445C76.0768 119.564 75.8091 119.753 75.5711 120.014C75.3406 120.274 75.1509 120.605 75.0022 121.006C74.8609 121.4 74.7903 121.876 74.7903 122.434V129.172ZM93.3963 129.172H91.5223V121.999C91.5223 121.493 91.4591 121.066 91.3327 120.716C91.2137 120.367 91.0501 120.084 90.8419 119.869C90.6411 119.653 90.3994 119.497 90.1169 119.4C89.8417 119.303 89.548 119.255 89.2356 119.255C88.9233 119.255 88.6147 119.318 88.3098 119.445C88.0123 119.564 87.7446 119.753 87.5066 120.014C87.2761 120.274 87.0865 120.605 86.9378 121.006C86.7965 121.4 86.7258 121.876 86.7258 122.434V129.172H84.8518V117.771H86.7258V119.077C87.1051 118.549 87.5438 118.162 88.0421 117.916C88.5478 117.671 89.1055 117.548 89.7153 117.548C89.9681 117.548 90.2433 117.586 90.5407 117.66C90.8382 117.727 91.1282 117.835 91.4108 117.983C91.7008 118.132 91.9648 118.329 92.2028 118.575C92.4482 118.813 92.6453 119.103 92.794 119.445C93.0022 119.095 93.2402 118.801 93.5079 118.563C93.783 118.318 94.0693 118.121 94.3668 117.972C94.6717 117.823 94.984 117.716 95.3038 117.649C95.631 117.582 95.9545 117.548 96.2743 117.548C96.8915 117.548 97.4381 117.652 97.914 117.861C98.3899 118.069 98.7915 118.348 99.1187 118.697C99.4459 119.047 99.6913 119.452 99.8549 119.913C100.026 120.374 100.111 120.858 100.111 121.363V129.172H98.2375V121.999C98.2375 121.493 98.1743 121.066 98.0479 120.716C97.9214 120.367 97.7504 120.084 97.5347 119.869C97.3191 119.653 97.07 119.497 96.7874 119.4C96.5048 119.303 96.211 119.255 95.9061 119.255C95.5938 119.255 95.2852 119.318 94.9803 119.445C94.6828 119.564 94.4151 119.753 94.1772 120.014C93.9466 120.274 93.757 120.605 93.6083 121.006C93.467 121.4 93.3963 121.876 93.3963 122.434V129.172Z" fill="white"/>
<path d="M268.04 253.956H235.25L230.248 270.382H211.229L240.19 181.831H263.717L293.111 270.382H273.104L268.04 253.956ZM240.067 238.148H263.223L251.738 200.727H251.491L240.067 238.148ZM341.647 270.382V250.375H297.495V231.294L336.707 181.831H359.617V234.196H372.523V250.375H359.617V270.382H341.647ZM341.647 234.196V199.43L314.106 234.196H341.647Z" fill="#F4D7E5"/>
<circle cx="154.919" cy="73.1291" r="7.41905" fill="#FF52EE"/>
<path d="M49.2671 67.0153C49.0614 66.8095 48.7277 66.8095 48.5219 67.0153L45.1685 70.3687C44.9627 70.5745 44.9627 70.9081 45.1685 71.1139C45.3743 71.3197 45.7079 71.3197 45.9137 71.1139L48.8945 68.1331L51.8754 71.1139C52.0811 71.3197 52.4148 71.3197 52.6206 71.1139C52.8264 70.9081 52.8264 70.5745 52.6206 70.3687L49.2671 67.0153ZM48.5219 79.3573C48.7277 79.5631 49.0614 79.5631 49.2671 79.3573L52.6206 76.0039C52.8264 75.7981 52.8264 75.4644 52.6206 75.2587C52.4148 75.0529 52.0811 75.0529 51.8754 75.2587L48.8945 78.2395L45.9137 75.2587C45.7079 75.0529 45.3743 75.0529 45.1685 75.2587C44.9627 75.4645 44.9627 75.7981 45.1685 76.0039L48.5219 79.3573ZM48.8945 67.3879L48.3676 67.3879L48.3676 78.9847L48.8945 78.9847L49.4215 78.9847L49.4215 67.3879L48.8945 67.3879Z" fill="#FF52EE"/>
</g>
<defs>
<clipPath id="clip0_1144_2262">
<rect width="480" height="320" fill="white"/>
</clipPath>
</defs>
</svg>
