<svg width="359" height="379" viewBox="0 0 359 379" fill="none" xmlns="http://www.w3.org/2000/svg">
<path d="M5.35355 14.3935C5.15829 14.1983 4.84171 14.1983 4.64645 14.3935L1.46447 17.5755C1.2692 17.7708 1.2692 18.0873 1.46447 18.2826C1.65973 18.4779 1.97631 18.4779 2.17157 18.2826L5 15.4542L7.82843 18.2826C8.02369 18.4779 8.34027 18.4779 8.53553 18.2826C8.7308 18.0873 8.7308 17.7708 8.53553 17.5755L5.35355 14.3935ZM4.64645 29.1006C4.84171 29.2959 5.15829 29.2959 5.35355 29.1006L8.53553 25.9186C8.7308 25.7234 8.7308 25.4068 8.53553 25.2115C8.34027 25.0163 8.02369 25.0163 7.82843 25.2115L5 28.04L2.17157 25.2115C1.97631 25.0163 1.65973 25.0163 1.46447 25.2115C1.2692 25.4068 1.2692 25.7234 1.46447 25.9186L4.64645 29.1006ZM5 14.7471L4.5 14.7471L4.5 28.7471L5 28.7471L5.5 28.7471L5.5 14.7471L5 14.7471Z" fill="#FF52EE"/>
<rect x="359" y="0.74707" width="378" height="276" transform="rotate(90 359 0.74707)" fill="white"/>
<path d="M156.196 25.2466C157.268 25.2466 158.138 24.3773 158.138 23.305C158.138 22.2328 157.268 21.3635 156.196 21.3635C155.124 21.3635 154.255 22.2328 154.255 23.305C154.255 24.3773 155.124 25.2466 156.196 25.2466Z" fill="#0B0C0C"/>
<path d="M121.101 23.3372C121.101 23.829 121.162 24.3023 121.285 24.7567C121.408 25.2111 121.595 25.6121 121.847 25.9596C122.098 26.3073 122.419 26.5866 122.809 26.7977C123.199 27.0089 123.665 27.1147 124.205 27.1147C124.745 27.1147 125.155 27.0318 125.5 26.8661C125.845 26.7004 126.12 26.4932 126.326 26.2444C126.532 25.9958 126.676 25.7273 126.759 25.4386C126.842 25.1498 126.883 24.8825 126.883 24.6364V24.5242H123.94V22.7519H129.145V29.0554H127.108V27.708C126.964 27.9326 126.784 28.1371 126.571 28.3217C126.357 28.506 126.116 28.6638 125.849 28.7947C125.581 28.9257 125.288 29.0288 124.97 29.1036C124.652 29.1784 124.314 29.2158 123.956 29.2158C123.117 29.2158 122.371 29.0634 121.719 28.7586C121.066 28.4539 120.517 28.0343 120.07 27.4996C119.624 26.965 119.285 26.3394 119.052 25.6229C118.819 24.9066 118.703 24.134 118.703 23.3051C118.703 22.4761 118.833 21.7107 119.092 20.9916C119.351 20.2725 119.72 19.6469 120.199 19.1149C120.677 18.5829 121.255 18.1633 121.931 17.8558C122.607 17.5483 123.365 17.3945 124.205 17.3945C124.75 17.3945 125.267 17.4574 125.757 17.583C126.246 17.7087 126.692 17.8877 127.096 18.1203C127.499 18.3528 127.856 18.6336 128.167 18.9623C128.476 19.291 128.728 19.6561 128.921 20.0571L126.883 21.2037C126.76 20.9579 126.616 20.7293 126.45 20.518C126.284 20.307 126.093 20.125 125.877 19.9726C125.66 19.8203 125.413 19.7 125.135 19.6118C124.857 19.5237 124.547 19.4794 124.205 19.4794C123.665 19.4794 123.2 19.5852 122.809 19.7964C122.419 20.0075 122.098 20.2868 121.847 20.6345C121.596 20.982 121.409 21.3843 121.286 21.8415C121.163 22.2987 121.101 22.7707 121.101 23.2569V23.3372H121.101Z" fill="#0B0C0C"/>
<path d="M136.552 17.3943C137.408 17.3943 138.175 17.548 138.854 17.8556C139.533 18.1631 140.109 18.5827 140.583 19.1147C141.056 19.6467 141.417 20.2723 141.665 20.9913C141.914 21.7104 142.038 22.4818 142.038 23.3048C142.038 24.1279 141.914 24.9063 141.665 25.6226C141.417 26.3391 141.056 26.9648 140.583 27.4993C140.109 28.0339 139.533 28.4536 138.854 28.7584C138.175 29.0632 137.408 29.2156 136.552 29.2156C135.697 29.2156 134.923 29.0632 134.247 28.7584C133.57 28.4536 132.996 28.0341 132.523 27.4993C132.049 26.9648 131.689 26.3391 131.44 25.6226C131.191 24.9063 131.067 24.1338 131.067 23.3048C131.067 22.4759 131.191 21.7104 131.44 20.9913C131.689 20.2723 132.049 19.6467 132.523 19.1147C132.996 18.5827 133.57 18.1631 134.247 17.8556C134.923 17.548 135.692 17.3943 136.552 17.3943ZM136.552 27.1144C137.055 27.1144 137.497 27.0196 137.88 26.8296C138.262 26.64 138.584 26.3766 138.846 26.0398C139.108 25.7029 139.306 25.3047 139.439 24.8448C139.573 24.3851 139.64 23.8825 139.64 23.3372V23.2729C139.64 22.7329 139.573 22.2316 139.439 21.7692C139.306 21.3067 139.108 20.9069 138.846 20.5702C138.584 20.2335 138.262 19.9702 137.88 19.7802C137.497 19.5906 137.055 19.4956 136.552 19.4956C136.05 19.4956 135.606 19.5906 135.221 19.7802C134.836 19.9702 134.514 20.2335 134.255 20.5702C133.995 20.9069 133.799 21.3069 133.665 21.7692C133.532 22.2316 133.465 22.7329 133.465 23.2729V23.3372C133.465 23.8825 133.532 24.3851 133.665 24.8448C133.799 25.3047 133.995 25.7027 134.255 26.0398C134.514 26.3766 134.836 26.64 135.221 26.8296C135.606 27.0196 136.05 27.1144 136.552 27.1144Z" fill="#0B0C0C"/>
<path d="M146.138 29.0552L142.89 17.5549H145.497L147.718 26.2001H147.798L149.972 17.5549H152.546L149.298 29.0552H146.138H146.138Z" fill="#0B0C0C"/>
<path d="M165.718 27.1146C166.055 27.1146 166.369 27.0652 166.66 26.9663C166.952 26.8674 167.203 26.7177 167.414 26.5172C167.625 26.3166 167.793 26.0629 167.916 25.7552C168.038 25.4479 168.1 25.0857 168.1 24.6687V17.5388H170.386V25.0132C170.386 25.6549 170.269 26.2351 170.037 26.7536C169.805 27.2723 169.482 27.7134 169.068 28.0769C168.653 28.4407 168.161 28.7212 167.589 28.919C167.018 29.1166 166.393 29.2158 165.714 29.2158C165.036 29.2158 164.411 29.1166 163.839 28.919C163.268 28.7212 162.774 28.4405 162.357 28.0769C161.94 27.7134 161.616 27.2725 161.383 26.7536C161.151 26.2351 161.035 25.6547 161.035 25.0132V17.5388H163.336V24.6685C163.336 25.0855 163.398 25.4477 163.521 25.755C163.644 26.0627 163.811 26.3164 164.022 26.517C164.233 26.7176 164.484 26.8672 164.776 26.9661C165.067 27.065 165.382 27.1144 165.718 27.1144V27.1146Z" fill="#0B0C0C"/>
<path d="M172.449 17.5547H174.774V22.5348L178.88 17.5547H181.744L177.75 22.1258L182 29.0549H179.298L176.258 23.8981L174.774 25.5582V29.0549H172.449V17.5547Z" fill="#0B0C0C"/>
<path d="M101.342 19.383C101.877 19.383 102.31 18.9495 102.31 18.4147C102.31 17.88 101.877 17.4465 101.342 17.4465C100.807 17.4465 100.374 17.88 100.374 18.4147C100.374 18.9495 100.807 19.383 101.342 19.383Z" fill="#0B0C0C"/>
<path d="M98.7374 20.9433C99.2721 20.9433 99.7056 20.5098 99.7056 19.975C99.7056 19.4403 99.2721 19.0068 98.7374 19.0068C98.2027 19.0068 97.7692 19.4403 97.7692 19.975C97.7692 20.5098 98.2027 20.9433 98.7374 20.9433Z" fill="#0B0C0C"/>
<path d="M97.0137 23.5087C97.5484 23.5087 97.9819 23.0752 97.9819 22.5405C97.9819 22.0057 97.5484 21.5723 97.0137 21.5723C96.4789 21.5723 96.0455 22.0057 96.0455 22.5405C96.0455 23.0752 96.4789 23.5087 97.0137 23.5087Z" fill="#0B0C0C"/>
<path d="M104.439 22.8307C104.974 22.8307 105.408 22.3972 105.408 21.8625C105.408 21.3278 104.974 20.8943 104.439 20.8943C103.905 20.8943 103.471 21.3278 103.471 21.8625C103.471 22.3972 103.905 22.8307 104.439 22.8307Z" fill="#0B0C0C"/>
<path d="M107.533 19.383C108.068 19.383 108.501 18.9495 108.501 18.4147C108.501 17.88 108.068 17.4465 107.533 17.4465C106.998 17.4465 106.565 17.88 106.565 18.4147C106.565 18.9495 106.998 19.383 107.533 19.383Z" fill="#0B0C0C"/>
<path d="M110.138 20.9433C110.673 20.9433 111.106 20.5098 111.106 19.975C111.106 19.4403 110.673 19.0068 110.138 19.0068C109.603 19.0068 109.17 19.4403 109.17 19.975C109.17 20.5098 109.603 20.9433 110.138 20.9433Z" fill="#0B0C0C"/>
<path d="M111.861 23.5087C112.396 23.5087 112.829 23.0752 112.829 22.5405C112.829 22.0057 112.396 21.5723 111.861 21.5723C111.326 21.5723 110.893 22.0057 110.893 22.5405C110.893 23.0752 111.326 23.5087 111.861 23.5087Z" fill="#0B0C0C"/>
<path d="M104.439 22.8307C104.974 22.8307 105.408 22.3972 105.408 21.8625C105.408 21.3278 104.974 20.8943 104.439 20.8943C103.905 20.8943 103.471 21.3278 103.471 21.8625C103.471 22.3972 103.905 22.8307 104.439 22.8307Z" fill="#0B0C0C"/>
<path d="M104.83 16.3412C104.879 16.3044 104.922 16.2609 104.959 16.212L106.191 16.8586V15.0432L104.961 15.4336C104.925 15.3856 104.882 15.3427 104.835 15.306L105.33 13.7471H103.549L104.044 15.306C103.996 15.3425 103.954 15.3854 103.918 15.4336L102.688 15.0432V16.8586L103.92 16.212C103.956 16.2609 104 16.3044 104.049 16.3412L103.347 18.4569C103.1 19.2016 103.655 19.9696 104.439 19.9696C105.224 19.9696 105.778 19.2016 105.531 18.4569L104.83 16.3412Z" fill="#0B0C0C"/>
<path d="M105.847 23.7907C105.847 23.7907 104.947 24.7915 104.751 25.402C105.34 25.3834 105.868 25.2688 106.45 24.6612L106.253 26.9218C105.717 26.1702 105.089 25.8463 104.741 25.9111C104.776 26.7212 104.861 27.6998 106.28 27.8287C107.269 27.9147 108.064 27.4285 108.147 26.827C108.245 26.136 107.622 25.6788 107.153 26.4063C106.786 25.2024 107.8 24.8022 108.451 25.5476C107.949 24.3596 107.963 23.5155 109.078 22.6621C109.878 23.7259 109.765 24.6052 108.773 25.5952C109.419 25.2379 110.422 25.6138 109.831 26.8205C109.522 26.07 108.86 26.2376 108.721 26.8834C108.628 27.3396 108.905 27.8763 109.507 27.9864C110.001 28.0769 110.761 27.7396 111.371 26.4266C111.028 26.4355 110.727 26.6086 110.338 26.8764L110.977 24.7451C111.138 25.3433 111.344 25.736 111.563 25.9483C111.709 25.5178 111.688 25.2056 111.557 24.5347L112.879 25.0052C112.177 25.9628 111.497 27.3067 110.939 29.6537C108.973 29.373 106.772 29.2153 104.439 29.2153C102.107 29.2153 99.906 29.3732 97.9398 29.6537C97.3821 27.3065 96.7021 25.9626 96 25.0052L97.3216 24.5347C97.1904 25.2056 97.1696 25.5178 97.3161 25.9483C97.5343 25.736 97.7404 25.3433 97.9014 24.7451L98.5408 26.8764C98.1517 26.6084 97.8509 26.4355 97.5081 26.4266C98.1177 27.7396 98.878 28.0767 99.3719 27.9864C99.9736 27.8763 100.25 27.3396 100.158 26.8834C100.019 26.2376 99.3566 26.07 99.0479 26.8205C98.4571 25.6138 99.46 25.2377 100.106 25.5952C99.1139 24.6052 99.0003 23.7257 99.8006 22.6621C100.916 23.5153 100.929 24.3594 100.428 25.5476C101.079 24.8024 102.093 25.2024 101.726 26.4063C101.257 25.6788 100.634 26.136 100.732 26.827C100.815 27.4287 101.609 27.9149 102.599 27.8287C104.018 27.6998 104.102 26.7212 104.138 25.9111C103.789 25.8463 103.161 26.17 102.626 26.9218L102.428 24.6612C103.01 25.2688 103.539 25.3832 104.128 25.402C103.931 24.7915 103.032 23.7907 103.032 23.7907H105.847H105.847Z" fill="#0B0C0C"/>
<path d="M156.212 25.2482C157.285 25.2482 158.155 24.378 158.155 23.3045C158.155 22.2311 157.285 21.3608 156.212 21.3608C155.138 21.3608 154.268 22.2311 154.268 23.3045C154.268 24.378 155.138 25.2482 156.212 25.2482Z" fill="#1D70B8"/>
<path d="M121.111 23.3365C121.111 23.8273 121.174 24.3024 121.296 24.7579C121.418 25.2134 121.606 25.614 121.857 25.9595C122.109 26.309 122.431 26.5878 122.819 26.7959C123.208 27.0079 123.675 27.1139 124.213 27.1139C124.751 27.1139 125.164 27.0315 125.509 26.8666C125.855 26.7016 126.13 26.4935 126.334 26.2461C126.538 25.9988 126.683 25.7278 126.766 25.4412C126.848 25.1506 126.891 24.8836 126.891 24.6401V24.5263H123.946V22.7553H129.153V29.0616H127.115V27.7147C126.97 27.9385 126.793 28.1427 126.577 28.3273C126.365 28.5118 126.122 28.6689 125.855 28.8024C125.588 28.932 125.293 29.038 124.975 29.1126C124.657 29.1872 124.319 29.2265 123.962 29.2265C123.122 29.2265 122.376 29.0733 121.724 28.771C121.072 28.4647 120.522 28.0446 120.075 27.5105C119.627 26.9765 119.289 26.3482 119.058 25.6336C118.826 24.9189 118.708 24.1454 118.708 23.3169C118.708 22.4883 118.838 21.7226 119.097 21.004C119.356 20.2855 119.725 19.6572 120.204 19.1271C120.683 18.597 121.261 18.1769 121.936 17.8666C122.611 17.5564 123.369 17.4072 124.209 17.4072C124.755 17.4072 125.274 17.4701 125.761 17.5957C126.251 17.7214 126.695 17.902 127.1 18.1337C127.504 18.3653 127.861 18.6481 128.172 18.9779C128.482 19.3077 128.733 19.6729 128.925 20.0734L126.887 21.22C126.766 20.9726 126.62 20.7449 126.456 20.5328C126.291 20.3208 126.098 20.1402 125.882 19.987C125.666 19.8339 125.419 19.7161 125.14 19.6258C124.861 19.5394 124.551 19.4923 124.209 19.4923C123.668 19.4923 123.204 19.5983 122.816 19.8103C122.427 20.0224 122.105 20.3012 121.854 20.6467C121.602 20.9923 121.414 21.3967 121.292 21.8522C121.17 22.3077 121.107 22.7828 121.107 23.2697V23.3483L121.111 23.3365Z" fill="#0B0C0C"/>
<path d="M136.563 17.3914C137.419 17.3914 138.184 17.5445 138.864 17.8508C139.543 18.1571 140.12 18.5772 140.591 19.1112C141.063 19.6453 141.424 20.2696 141.675 20.9882C141.926 21.7068 142.048 22.4803 142.048 23.301C142.048 24.1217 141.922 24.9031 141.675 25.6177C141.428 26.3363 141.066 26.9606 140.591 27.4947C140.116 28.0287 139.543 28.4488 138.864 28.7551C138.184 29.0614 137.419 29.2106 136.563 29.2106C135.707 29.2106 134.933 29.0575 134.258 28.7551C133.582 28.4528 133.005 28.0287 132.534 27.4947C132.059 26.9606 131.701 26.3324 131.45 25.6177C131.203 24.9031 131.077 24.1295 131.077 23.301C131.077 22.4725 131.203 21.7068 131.45 20.9882C131.697 20.2696 132.059 19.6413 132.534 19.1112C133.009 18.5811 133.582 18.161 134.258 17.8508C134.933 17.5406 135.703 17.3914 136.563 17.3914ZM136.563 27.1138C137.065 27.1138 137.509 27.0195 137.89 26.8271C138.271 26.6386 138.593 26.3756 138.856 26.0379C139.119 25.7002 139.315 25.3036 139.449 24.8442C139.582 24.3847 139.649 23.8821 139.649 23.3363V23.2735C139.649 22.7316 139.582 22.2329 139.449 21.7696C139.315 21.3062 139.119 20.9057 138.856 20.572C138.593 20.2343 138.271 19.9712 137.89 19.7827C137.509 19.5942 137.065 19.496 136.563 19.496C136.06 19.496 135.616 19.5903 135.231 19.7827C134.847 19.9712 134.525 20.2343 134.265 20.572C134.006 20.9096 133.81 21.3102 133.676 21.7696C133.543 22.229 133.476 22.7316 133.476 23.2735V23.3363C133.476 23.8821 133.543 24.3847 133.676 24.8442C133.81 25.3036 134.006 25.7041 134.265 26.0379C134.525 26.3756 134.847 26.6386 135.231 26.8271C135.616 27.0156 136.06 27.1138 136.563 27.1138Z" fill="#0B0C0C"/>
<path d="M146.152 29.0537L142.904 17.5525H145.512L147.734 26.199H147.813L149.988 17.5525H152.564L149.317 29.0537H146.156H146.152Z" fill="#0B0C0C"/>
<path d="M165.738 27.114C166.076 27.114 166.39 27.0629 166.68 26.9648C166.971 26.8666 167.222 26.7174 167.434 26.5171C167.646 26.3169 167.811 26.0616 167.937 25.7554C168.059 25.4491 168.121 25.0839 168.121 24.6677V17.5369H170.407V25.0132C170.407 25.6533 170.289 26.2344 170.057 26.7527C169.826 27.2711 169.5 27.7108 169.087 28.076C168.675 28.4412 168.18 28.72 167.607 28.9203C167.034 29.1166 166.409 29.2187 165.73 29.2187C165.051 29.2187 164.426 29.1205 163.853 28.9203C163.28 28.7239 162.789 28.4412 162.369 28.076C161.953 27.7108 161.627 27.2711 161.395 26.7527C161.163 26.2344 161.046 25.6533 161.046 25.0132V17.5369H163.347V24.6677C163.347 25.0839 163.409 25.4452 163.531 25.7554C163.653 26.0616 163.822 26.3169 164.034 26.5171C164.246 26.7174 164.497 26.8666 164.788 26.9648C165.078 27.0629 165.392 27.114 165.73 27.114H165.738Z" fill="#0B0C0C"/>
<path d="M172.468 17.5525H174.793V22.5354L178.9 17.5525H181.762L177.769 22.1231L182.022 29.0537H179.32L176.281 23.894L174.797 25.555V29.0537H172.472V17.5525H172.468Z" fill="#0B0C0C"/>
<path d="M100.449 18.0506C100.653 17.5558 101.223 17.3163 101.717 17.5165C102.22 17.7207 102.455 18.298 102.247 18.7927C102.043 19.2875 101.474 19.5231 100.975 19.3189C100.484 19.1186 100.249 18.5493 100.453 18.0545L100.449 18.0506Z" fill="#0B0C0C"/>
<path d="M98.368 20.874C97.8771 20.6737 97.6415 20.1004 97.8457 19.6096C98.0499 19.1148 98.6232 18.8714 99.114 19.0756C99.6127 19.2797 99.8483 19.857 99.6441 20.3478C99.4399 20.8425 98.8706 21.0781 98.3719 20.874H98.368Z" fill="#0B0C0C"/>
<path d="M96.1218 22.1736C96.3259 21.6789 96.8953 21.4393 97.3901 21.6396C97.8927 21.8438 98.1283 22.421 97.9202 22.9118C97.716 23.4066 97.1466 23.6422 96.6479 23.438C96.1571 23.2377 95.9176 22.6684 96.1257 22.1736H96.1218Z" fill="#0B0C0C"/>
<path d="M103.924 16.2169C103.959 16.2641 104.002 16.3073 104.05 16.3426L103.343 18.4748C103.343 18.4748 103.343 18.4787 103.343 18.4826C103.311 18.5886 103.292 18.7025 103.292 18.8203C103.292 19.3975 103.72 19.8727 104.273 19.9551C104.281 19.9551 104.289 19.9551 104.297 19.9551C104.344 19.9591 104.391 19.9669 104.442 19.9669C104.493 19.9669 104.54 19.9669 104.588 19.9551C104.595 19.9551 104.603 19.9551 104.611 19.9551C105.165 19.8727 105.593 19.3975 105.593 18.8203C105.593 18.7025 105.577 18.5886 105.542 18.4826V18.4708L104.835 16.3387C104.882 16.3033 104.925 16.2601 104.961 16.213L106.194 16.857V15.0468L104.965 15.4355C104.929 15.3845 104.89 15.3452 104.847 15.3099L105.341 13.7471H103.563L104.057 15.306C104.01 15.3452 103.971 15.3845 103.94 15.4316L102.711 15.0429V16.857L103.944 16.2091" fill="#0B0C0C"/>
<path d="M108.455 18.0506C108.251 17.5558 107.682 17.3163 107.187 17.5165C106.684 17.7207 106.449 18.298 106.657 18.7927C106.861 19.2875 107.43 19.5231 107.929 19.3189C108.42 19.1186 108.656 18.5493 108.451 18.0545L108.455 18.0506Z" fill="#0B0C0C"/>
<path d="M110.537 20.874C111.027 20.6737 111.263 20.1004 111.059 19.6096C110.855 19.1148 110.281 18.8714 109.791 19.0756C109.292 19.2797 109.056 19.857 109.26 20.3478C109.465 20.8425 110.034 21.0781 110.533 20.874H110.537Z" fill="#0B0C0C"/>
<path d="M112.787 22.1736C112.582 21.6789 112.013 21.4393 111.518 21.6396C111.016 21.8438 110.784 22.421 110.988 22.9118C111.192 23.4066 111.762 23.6422 112.26 23.438C112.751 23.2377 112.991 22.6684 112.783 22.1736H112.787Z" fill="#0B0C0C"/>
<path d="M104.446 29.2181C106.779 29.2181 108.982 29.3752 110.949 29.6579C111.507 27.3137 112.186 25.9669 112.889 25.0088L111.569 24.5376C111.703 25.209 111.723 25.5192 111.573 25.9512C111.353 25.7391 111.149 25.3465 110.988 24.7496L110.348 26.8818C110.737 26.6148 111.039 26.4381 111.381 26.4302C110.772 27.7417 110.011 28.0794 109.516 27.9891C108.915 27.8792 108.636 27.3412 108.73 26.8857C108.868 26.2417 109.532 26.0729 109.842 26.8229C110.435 25.6174 109.429 25.2404 108.785 25.5978C109.779 24.6082 109.889 23.7287 109.088 22.6646C107.973 23.5166 107.957 24.3609 108.46 25.5506C107.808 24.8046 106.795 25.2051 107.16 26.4106C107.631 25.6842 108.251 26.1396 108.153 26.8307C108.071 27.4315 107.278 27.9184 106.288 27.832C104.871 27.7025 104.784 26.7247 104.749 25.9158C105.098 25.853 105.727 26.175 106.261 26.925L106.457 24.6632C105.876 25.2719 105.346 25.3857 104.757 25.4054C104.953 24.7928 105.852 23.7954 105.852 23.7954H103.033C103.033 23.7954 103.932 24.7967 104.128 25.4054C103.539 25.3857 103.009 25.2719 102.428 24.6632L102.625 26.925C103.159 26.175 103.787 25.8491 104.136 25.9158C104.101 26.7247 104.015 27.7025 102.597 27.832C101.608 27.9184 100.814 27.4315 100.732 26.8307C100.634 26.1396 101.258 25.6842 101.725 26.4106C102.09 25.2051 101.077 24.8085 100.426 25.5506C100.928 24.3609 100.912 23.5206 99.7973 22.6646C98.9963 23.7287 99.1102 24.6082 100.104 25.5978C99.4596 25.2404 98.4544 25.6174 99.0473 26.8229C99.3575 26.0729 100.017 26.2417 100.159 26.8857C100.253 27.3412 99.974 27.8792 99.3732 27.9891C98.8785 28.0794 98.1206 27.7417 97.5081 26.4302C97.8497 26.4381 98.1521 26.6108 98.5408 26.8818L97.9007 24.7496C97.7398 25.3465 97.5356 25.7391 97.3157 25.9512C97.1704 25.5192 97.19 25.209 97.3196 24.5376L96.0002 25.0088C96.7031 25.9669 97.3824 27.3098 97.94 29.6579C99.9073 29.3791 102.11 29.2181 104.443 29.2181" fill="#0B0C0C"/>
<path d="M104.446 22.8372C104.982 22.8372 105.416 22.403 105.416 21.8673C105.416 21.3317 104.982 20.8975 104.446 20.8975C103.911 20.8975 103.476 21.3317 103.476 21.8673C103.476 22.403 103.911 22.8372 104.446 22.8372Z" fill="#0B0C0C"/>
<path d="M156.196 25.2466C157.268 25.2466 158.138 24.3773 158.138 23.305C158.138 22.2328 157.268 21.3635 156.196 21.3635C155.124 21.3635 154.254 22.2328 154.254 23.305C154.254 24.3773 155.124 25.2466 156.196 25.2466Z" fill="#0B0C0C"/>
<path d="M121.101 23.3372C121.101 23.829 121.162 24.3023 121.285 24.7567C121.408 25.2111 121.595 25.6121 121.847 25.9596C122.098 26.3073 122.419 26.5866 122.809 26.7977C123.199 27.0089 123.665 27.1147 124.205 27.1147C124.745 27.1147 125.155 27.0318 125.5 26.8661C125.845 26.7004 126.12 26.4932 126.326 26.2444C126.532 25.9958 126.676 25.7273 126.759 25.4386C126.842 25.1498 126.883 24.8825 126.883 24.6364V24.5242H123.94V22.7519H129.145V29.0554H127.108V27.708C126.963 27.9326 126.784 28.1371 126.571 28.3217C126.357 28.506 126.116 28.6638 125.849 28.7947C125.581 28.9257 125.288 29.0288 124.97 29.1036C124.652 29.1784 124.314 29.2158 123.956 29.2158C123.116 29.2158 122.371 29.0634 121.719 28.7586C121.066 28.4539 120.517 28.0343 120.07 27.4996C119.624 26.965 119.285 26.3394 119.052 25.6229C118.819 24.9066 118.703 24.134 118.703 23.3051C118.703 22.4761 118.833 21.7107 119.092 20.9916C119.351 20.2725 119.72 19.6469 120.199 19.1149C120.677 18.5829 121.255 18.1633 121.931 17.8558C122.607 17.5483 123.365 17.3945 124.205 17.3945C124.75 17.3945 125.267 17.4574 125.756 17.583C126.246 17.7087 126.692 17.8877 127.096 18.1203C127.499 18.3528 127.856 18.6336 128.167 18.9623C128.476 19.291 128.728 19.6561 128.92 20.0571L126.883 21.2037C126.76 20.9579 126.616 20.7293 126.45 20.518C126.284 20.307 126.093 20.125 125.877 19.9726C125.66 19.8203 125.413 19.7 125.135 19.6118C124.857 19.5237 124.547 19.4794 124.205 19.4794C123.665 19.4794 123.2 19.5852 122.809 19.7964C122.419 20.0075 122.098 20.2868 121.847 20.6345C121.596 20.982 121.409 21.3843 121.286 21.8415C121.163 22.2987 121.101 22.7707 121.101 23.2569V23.3372H121.101Z" fill="#0B0C0C"/>
<path d="M136.552 17.3943C137.408 17.3943 138.175 17.548 138.854 17.8556C139.533 18.1631 140.109 18.5827 140.582 19.1147C141.056 19.6467 141.417 20.2723 141.665 20.9913C141.914 21.7104 142.038 22.4818 142.038 23.3048C142.038 24.1279 141.914 24.9063 141.665 25.6226C141.417 26.3391 141.056 26.9648 140.582 27.4993C140.109 28.0339 139.533 28.4536 138.854 28.7584C138.175 29.0632 137.408 29.2156 136.552 29.2156C135.697 29.2156 134.923 29.0632 134.247 28.7584C133.57 28.4536 132.996 28.0341 132.523 27.4993C132.049 26.9648 131.689 26.3391 131.44 25.6226C131.191 24.9063 131.067 24.1338 131.067 23.3048C131.067 22.4759 131.191 21.7104 131.44 20.9913C131.689 20.2723 132.049 19.6467 132.523 19.1147C132.996 18.5827 133.57 18.1631 134.247 17.8556C134.923 17.548 135.691 17.3943 136.552 17.3943ZM136.552 27.1144C137.055 27.1144 137.497 27.0196 137.88 26.8296C138.262 26.64 138.584 26.3766 138.846 26.0398C139.108 25.7029 139.306 25.3047 139.439 24.8448C139.573 24.3851 139.64 23.8825 139.64 23.3372V23.2729C139.64 22.7329 139.573 22.2316 139.439 21.7692C139.306 21.3067 139.108 20.9069 138.846 20.5702C138.584 20.2335 138.262 19.9702 137.88 19.7802C137.497 19.5906 137.055 19.4956 136.552 19.4956C136.05 19.4956 135.606 19.5906 135.221 19.7802C134.836 19.9702 134.514 20.2335 134.255 20.5702C133.995 20.9069 133.799 21.3069 133.665 21.7692C133.532 22.2316 133.465 22.7329 133.465 23.2729V23.3372C133.465 23.8825 133.532 24.3851 133.665 24.8448C133.799 25.3047 133.995 25.7027 134.255 26.0398C134.514 26.3766 134.836 26.64 135.221 26.8296C135.606 27.0196 136.05 27.1144 136.552 27.1144Z" fill="#0B0C0C"/>
<path d="M146.138 29.0552L142.89 17.5549H145.497L147.718 26.2001H147.798L149.972 17.5549H152.546L149.298 29.0552H146.138H146.138Z" fill="#0B0C0C"/>
<path d="M165.718 27.1146C166.055 27.1146 166.369 27.0652 166.66 26.9663C166.952 26.8674 167.203 26.7177 167.414 26.5172C167.625 26.3166 167.793 26.0629 167.916 25.7552C168.038 25.4479 168.1 25.0857 168.1 24.6687V17.5388H170.386V25.0132C170.386 25.6549 170.269 26.2351 170.037 26.7536C169.805 27.2723 169.482 27.7134 169.068 28.0769C168.653 28.4407 168.161 28.7212 167.589 28.919C167.018 29.1166 166.393 29.2158 165.714 29.2158C165.036 29.2158 164.411 29.1166 163.839 28.919C163.268 28.7212 162.774 28.4405 162.357 28.0769C161.94 27.7134 161.616 27.2725 161.383 26.7536C161.151 26.2351 161.035 25.6547 161.035 25.0132V17.5388H163.336V24.6685C163.336 25.0855 163.398 25.4477 163.521 25.755C163.644 26.0627 163.811 26.3164 164.022 26.517C164.233 26.7176 164.484 26.8672 164.776 26.9661C165.067 27.065 165.382 27.1144 165.718 27.1144V27.1146Z" fill="#0B0C0C"/>
<path d="M172.448 17.5547H174.774V22.5348L178.88 17.5547H181.744L177.75 22.1258L182 29.0549H179.298L176.258 23.8981L174.774 25.5582V29.0549H172.448V17.5547Z" fill="#0B0C0C"/>
<path d="M101.342 19.383C101.877 19.383 102.31 18.9495 102.31 18.4147C102.31 17.88 101.877 17.4465 101.342 17.4465C100.807 17.4465 100.374 17.88 100.374 18.4147C100.374 18.9495 100.807 19.383 101.342 19.383Z" fill="#0B0C0C"/>
<path d="M98.7374 20.9433C99.2721 20.9433 99.7056 20.5098 99.7056 19.975C99.7056 19.4403 99.2721 19.0068 98.7374 19.0068C98.2026 19.0068 97.7691 19.4403 97.7691 19.975C97.7691 20.5098 98.2026 20.9433 98.7374 20.9433Z" fill="#0B0C0C"/>
<path d="M97.0136 23.5087C97.5484 23.5087 97.9818 23.0752 97.9818 22.5405C97.9818 22.0057 97.5484 21.5723 97.0136 21.5723C96.4789 21.5723 96.0454 22.0057 96.0454 22.5405C96.0454 23.0752 96.4789 23.5087 97.0136 23.5087Z" fill="#0B0C0C"/>
<path d="M104.439 22.8307C104.974 22.8307 105.408 22.3972 105.408 21.8625C105.408 21.3278 104.974 20.8943 104.439 20.8943C103.905 20.8943 103.471 21.3278 103.471 21.8625C103.471 22.3972 103.905 22.8307 104.439 22.8307Z" fill="#0B0C0C"/>
<path d="M107.533 19.383C108.068 19.383 108.501 18.9495 108.501 18.4147C108.501 17.88 108.068 17.4465 107.533 17.4465C106.998 17.4465 106.565 17.88 106.565 18.4147C106.565 18.9495 106.998 19.383 107.533 19.383Z" fill="#0B0C0C"/>
<path d="M110.138 20.9433C110.673 20.9433 111.106 20.5098 111.106 19.975C111.106 19.4403 110.673 19.0068 110.138 19.0068C109.603 19.0068 109.17 19.4403 109.17 19.975C109.17 20.5098 109.603 20.9433 110.138 20.9433Z" fill="#0B0C0C"/>
<path d="M111.861 23.5087C112.396 23.5087 112.829 23.0752 112.829 22.5405C112.829 22.0057 112.396 21.5723 111.861 21.5723C111.326 21.5723 110.893 22.0057 110.893 22.5405C110.893 23.0752 111.326 23.5087 111.861 23.5087Z" fill="#0B0C0C"/>
<path d="M104.439 22.8307C104.974 22.8307 105.408 22.3972 105.408 21.8625C105.408 21.3278 104.974 20.8943 104.439 20.8943C103.905 20.8943 103.471 21.3278 103.471 21.8625C103.471 22.3972 103.905 22.8307 104.439 22.8307Z" fill="#0B0C0C"/>
<path d="M104.83 16.3412C104.879 16.3044 104.922 16.2609 104.959 16.212L106.191 16.8586V15.0432L104.961 15.4336C104.925 15.3856 104.882 15.3427 104.835 15.306L105.33 13.7471H103.549L104.044 15.306C103.996 15.3425 103.954 15.3854 103.918 15.4336L102.688 15.0432V16.8586L103.92 16.212C103.956 16.2609 104 16.3044 104.049 16.3412L103.347 18.4569C103.1 19.2016 103.655 19.9696 104.439 19.9696C105.224 19.9696 105.778 19.2016 105.531 18.4569L104.83 16.3412Z" fill="#0B0C0C"/>
<path d="M105.846 23.7907C105.846 23.7907 104.947 24.7915 104.751 25.402C105.34 25.3834 105.868 25.2688 106.45 24.6612L106.253 26.9218C105.717 26.1702 105.089 25.8463 104.741 25.9111C104.776 26.7212 104.861 27.6998 106.28 27.8287C107.269 27.9147 108.064 27.4285 108.147 26.827C108.245 26.136 107.622 25.6788 107.153 26.4063C106.786 25.2024 107.8 24.8022 108.451 25.5476C107.949 24.3596 107.963 23.5155 109.078 22.6621C109.878 23.7259 109.765 24.6052 108.773 25.5952C109.419 25.2379 110.422 25.6138 109.831 26.8205C109.522 26.07 108.86 26.2376 108.721 26.8834C108.628 27.3396 108.905 27.8763 109.507 27.9864C110.001 28.0769 110.761 27.7396 111.371 26.4266C111.028 26.4355 110.727 26.6086 110.338 26.8764L110.977 24.7451C111.138 25.3433 111.344 25.736 111.563 25.9483C111.709 25.5178 111.688 25.2056 111.557 24.5347L112.879 25.0052C112.177 25.9628 111.497 27.3067 110.939 29.6537C108.973 29.373 106.772 29.2153 104.439 29.2153C102.107 29.2153 99.906 29.3732 97.9398 29.6537C97.3821 27.3065 96.702 25.9626 96 25.0052L97.3216 24.5347C97.1903 25.2056 97.1696 25.5178 97.3161 25.9483C97.5343 25.736 97.7404 25.3433 97.9014 24.7451L98.5407 26.8764C98.1517 26.6084 97.8508 26.4355 97.5081 26.4266C98.1176 27.7396 98.878 28.0767 99.3718 27.9864C99.9735 27.8763 100.25 27.3396 100.158 26.8834C100.019 26.2376 99.3565 26.07 99.0478 26.8205C98.4571 25.6138 99.46 25.2377 100.106 25.5952C99.1138 24.6052 99.0002 23.7257 99.8006 22.6621C100.916 23.5153 100.929 24.3594 100.428 25.5476C101.079 24.8024 102.093 25.2024 101.726 26.4063C101.257 25.6788 100.634 26.136 100.732 26.827C100.815 27.4287 101.609 27.9149 102.599 27.8287C104.018 27.6998 104.102 26.7212 104.138 25.9111C103.789 25.8463 103.161 26.17 102.625 26.9218L102.428 24.6612C103.01 25.2688 103.539 25.3832 104.128 25.402C103.931 24.7915 103.032 23.7907 103.032 23.7907H105.847H105.846Z" fill="#0B0C0C"/>
<path d="M7.70508 40.3447H8.97656V48.7471H7.93359V41.5635L5.0625 45.4834H5.05078L2.16211 41.5693V48.7471H1.1543V40.3447H2.4668L5.08008 43.9189L7.70508 40.3447ZM11.9531 48.7471H10.9688V42.7588H11.9531V48.7471ZM10.7871 41.0303C10.7871 40.9365 10.8047 40.8486 10.8398 40.7666C10.8789 40.6846 10.9277 40.6123 10.9863 40.5498C11.0488 40.4873 11.1211 40.4385 11.2031 40.4033C11.2891 40.3643 11.3789 40.3447 11.4727 40.3447C11.5664 40.3447 11.6543 40.3643 11.7363 40.4033C11.8184 40.4385 11.8887 40.4873 11.9473 40.5498C12.0098 40.6123 12.0586 40.6846 12.0938 40.7666C12.1328 40.8486 12.1523 40.9365 12.1523 41.0303C12.1523 41.124 12.1328 41.2139 12.0938 41.2998C12.0586 41.3818 12.0098 41.4541 11.9473 41.5166C11.8887 41.5752 11.8184 41.624 11.7363 41.6631C11.6543 41.6982 11.5664 41.7158 11.4727 41.7158C11.3789 41.7158 11.2891 41.6982 11.2031 41.6631C11.1211 41.624 11.0488 41.5752 10.9863 41.5166C10.9277 41.4541 10.8789 41.3818 10.8398 41.2998C10.8047 41.2139 10.7871 41.124 10.7871 41.0303ZM13.7578 42.7588H14.7422V43.4443C14.9453 43.167 15.1953 42.9639 15.4922 42.835C15.793 42.7061 16.127 42.6416 16.4941 42.6416C16.8262 42.6416 17.1172 42.6963 17.3672 42.8057C17.6172 42.915 17.8262 43.0635 17.9941 43.251C18.1621 43.4385 18.2871 43.6553 18.3691 43.9014C18.4551 44.1475 18.498 44.4072 18.498 44.6807V48.7471H17.5137V44.9912C17.5137 44.7295 17.4805 44.5068 17.4141 44.3232C17.3516 44.1357 17.2637 43.9854 17.1504 43.8721C17.041 43.7549 16.9102 43.6709 16.7578 43.6201C16.6094 43.5654 16.4492 43.5381 16.2773 43.5381C16.0898 43.5381 15.9043 43.5732 15.7207 43.6436C15.541 43.71 15.377 43.8115 15.2285 43.9482C15.084 44.085 14.9668 44.2568 14.877 44.4639C14.7871 44.6709 14.7422 44.915 14.7422 45.1963V48.7471H13.7578V42.7588ZM21.2344 48.7471H20.25V42.7588H21.2344V48.7471ZM20.0684 41.0303C20.0684 40.9365 20.0859 40.8486 20.1211 40.7666C20.1602 40.6846 20.209 40.6123 20.2676 40.5498C20.3301 40.4873 20.4023 40.4385 20.4844 40.4033C20.5703 40.3643 20.6602 40.3447 20.7539 40.3447C20.8477 40.3447 20.9355 40.3643 21.0176 40.4033C21.0996 40.4385 21.1699 40.4873 21.2285 40.5498C21.291 40.6123 21.3398 40.6846 21.375 40.7666C21.4141 40.8486 21.4336 40.9365 21.4336 41.0303C21.4336 41.124 21.4141 41.2139 21.375 41.2998C21.3398 41.3818 21.291 41.4541 21.2285 41.5166C21.1699 41.5752 21.0996 41.624 21.0176 41.6631C20.9355 41.6982 20.8477 41.7158 20.7539 41.7158C20.6602 41.7158 20.5703 41.6982 20.4844 41.6631C20.4023 41.624 20.3301 41.5752 20.2676 41.5166C20.209 41.4541 20.1602 41.3818 20.1211 41.2998C20.0859 41.2139 20.0684 41.124 20.0684 41.0303ZM27.5273 48.7471H26.543V44.9795C26.543 44.7139 26.5098 44.4893 26.4434 44.3057C26.3809 44.1221 26.2949 43.9736 26.1855 43.8604C26.0801 43.7471 25.9531 43.665 25.8047 43.6143C25.6602 43.5635 25.5059 43.5381 25.3418 43.5381C25.1777 43.5381 25.0156 43.5713 24.8555 43.6377C24.6992 43.7002 24.5586 43.7998 24.4336 43.9365C24.3125 44.0732 24.2129 44.2471 24.1348 44.458C24.0605 44.665 24.0234 44.915 24.0234 45.208V48.7471H23.0391V42.7588H24.0234V43.4443C24.2227 43.167 24.4531 42.9639 24.7148 42.835C24.9805 42.7061 25.2734 42.6416 25.5938 42.6416C25.7266 42.6416 25.8711 42.6611 26.0273 42.7002C26.1836 42.7354 26.3359 42.792 26.4844 42.8701C26.6367 42.9482 26.7754 43.0518 26.9004 43.1807C27.0293 43.3057 27.1328 43.458 27.2109 43.6377C27.3203 43.4541 27.4453 43.2998 27.5859 43.1748C27.7305 43.0459 27.8809 42.9424 28.0371 42.8643C28.1973 42.7861 28.3613 42.7295 28.5293 42.6943C28.7012 42.6592 28.8711 42.6416 29.0391 42.6416C29.3633 42.6416 29.6504 42.6963 29.9004 42.8057C30.1504 42.915 30.3613 43.0615 30.5332 43.2451C30.7051 43.4287 30.834 43.6416 30.9199 43.8838C31.0098 44.126 31.0547 44.3799 31.0547 44.6455V48.7471H30.0703V44.9795C30.0703 44.7139 30.0371 44.4893 29.9707 44.3057C29.9043 44.1221 29.8145 43.9736 29.7012 43.8604C29.5879 43.7471 29.457 43.665 29.3086 43.6143C29.1602 43.5635 29.0059 43.5381 28.8457 43.5381C28.6816 43.5381 28.5195 43.5713 28.3594 43.6377C28.2031 43.7002 28.0625 43.7998 27.9375 43.9365C27.8164 44.0732 27.7168 44.2471 27.6387 44.458C27.5645 44.665 27.5273 44.915 27.5273 45.208V48.7471ZM37.5 48.7471H36.5156V48.0615C36.3125 48.3389 36.0605 48.542 35.7598 48.6709C35.4629 48.7998 35.1309 48.8643 34.7637 48.8643C34.4316 48.8643 34.1406 48.8096 33.8906 48.7002C33.6406 48.5908 33.4316 48.4424 33.2637 48.2549C33.0957 48.0674 32.9688 47.8506 32.8828 47.6045C32.8008 47.3584 32.7598 47.0986 32.7598 46.8252V42.7588H33.7441V46.5146C33.7441 46.7803 33.7754 47.0049 33.8379 47.1885C33.9043 47.3721 33.9922 47.5225 34.1016 47.6396C34.2148 47.7529 34.3457 47.8369 34.4941 47.8916C34.6465 47.9424 34.8086 47.9678 34.9805 47.9678C35.1836 47.9678 35.377 47.9346 35.5605 47.8682C35.748 47.7979 35.9121 47.6943 36.0527 47.5576C36.1934 47.4209 36.3047 47.249 36.3867 47.042C36.4727 46.835 36.5156 46.5908 36.5156 46.3096V42.7588H37.5V48.7471ZM43.793 48.7471H42.8086V44.9795C42.8086 44.7139 42.7754 44.4893 42.709 44.3057C42.6465 44.1221 42.5605 43.9736 42.4512 43.8604C42.3457 43.7471 42.2188 43.665 42.0703 43.6143C41.9258 43.5635 41.7715 43.5381 41.6074 43.5381C41.4434 43.5381 41.2812 43.5713 41.1211 43.6377C40.9648 43.7002 40.8242 43.7998 40.6992 43.9365C40.5781 44.0732 40.4785 44.2471 40.4004 44.458C40.3262 44.665 40.2891 44.915 40.2891 45.208V48.7471H39.3047V42.7588H40.2891V43.4443C40.4883 43.167 40.7188 42.9639 40.9805 42.835C41.2461 42.7061 41.5391 42.6416 41.8594 42.6416C41.9922 42.6416 42.1367 42.6611 42.293 42.7002C42.4492 42.7354 42.6016 42.792 42.75 42.8701C42.9023 42.9482 43.041 43.0518 43.166 43.1807C43.2949 43.3057 43.3984 43.458 43.4766 43.6377C43.5859 43.4541 43.7109 43.2998 43.8516 43.1748C43.9961 43.0459 44.1465 42.9424 44.3027 42.8643C44.4629 42.7861 44.627 42.7295 44.7949 42.6943C44.9668 42.6592 45.1367 42.6416 45.3047 42.6416C45.6289 42.6416 45.916 42.6963 46.166 42.8057C46.416 42.915 46.627 43.0615 46.7988 43.2451C46.9707 43.4287 47.0996 43.6416 47.1855 43.8838C47.2754 44.126 47.3203 44.3799 47.3203 44.6455V48.7471H46.3359V44.9795C46.3359 44.7139 46.3027 44.4893 46.2363 44.3057C46.1699 44.1221 46.0801 43.9736 45.9668 43.8604C45.8535 43.7471 45.7227 43.665 45.5742 43.6143C45.4258 43.5635 45.2715 43.5381 45.1113 43.5381C44.9473 43.5381 44.7852 43.5713 44.625 43.6377C44.4688 43.7002 44.3281 43.7998 44.2031 43.9365C44.082 44.0732 43.9824 44.2471 43.9043 44.458C43.8301 44.665 43.793 44.915 43.793 45.208V48.7471ZM55.4883 47.0889C55.4883 47.3701 55.4258 47.6221 55.3008 47.8447C55.1797 48.0635 55.0176 48.249 54.8145 48.4014C54.6113 48.5537 54.377 48.6689 54.1113 48.7471C53.8496 48.8252 53.5801 48.8643 53.3027 48.8643C52.8652 48.8643 52.4434 48.79 52.0371 48.6416C51.6348 48.4893 51.2773 48.2725 50.9648 47.9912L51.5039 47.2939C51.5977 47.376 51.7051 47.4619 51.8262 47.5518C51.9512 47.6416 52.0898 47.7256 52.2422 47.8037C52.3945 47.8779 52.5586 47.9404 52.7344 47.9912C52.9102 48.0381 53.0957 48.0615 53.291 48.0615C53.4512 48.0615 53.6035 48.042 53.748 48.0029C53.8965 47.96 54.0254 47.8994 54.1348 47.8213C54.2441 47.7393 54.3301 47.6436 54.3926 47.5342C54.459 47.4209 54.4922 47.2939 54.4922 47.1533C54.4922 46.9971 54.457 46.8662 54.3867 46.7607C54.3203 46.6553 54.2285 46.5654 54.1113 46.4912C53.9941 46.417 53.8574 46.3525 53.7012 46.2979C53.5449 46.2432 53.3809 46.1885 53.209 46.1338L52.834 46.0107C52.623 45.9404 52.4199 45.8604 52.2246 45.7705C52.0293 45.6807 51.8555 45.5713 51.7031 45.4424C51.5547 45.3096 51.4355 45.1533 51.3457 44.9736C51.2598 44.7939 51.2168 44.5791 51.2168 44.3291C51.2168 44.126 51.2598 43.9248 51.3457 43.7256C51.4316 43.5225 51.5625 43.3408 51.7383 43.1807C51.918 43.0205 52.1445 42.8916 52.418 42.7939C52.6914 42.6924 53.0137 42.6416 53.3848 42.6416C53.7949 42.6416 54.1738 42.71 54.5215 42.8467C54.873 42.9834 55.1699 43.1533 55.4121 43.3564L54.8965 44.0654C54.8105 43.9834 54.709 43.9053 54.5918 43.8311C54.4746 43.7568 54.3496 43.6924 54.2168 43.6377C54.084 43.5791 53.9453 43.5322 53.8008 43.4971C53.6562 43.4619 53.5137 43.4443 53.373 43.4443C53.1582 43.4443 52.9766 43.4697 52.8281 43.5205C52.6797 43.5674 52.5605 43.6299 52.4707 43.708C52.3809 43.7861 52.3145 43.874 52.2715 43.9717C52.2324 44.0693 52.2129 44.165 52.2129 44.2588C52.2129 44.3955 52.2422 44.5107 52.3008 44.6045C52.3594 44.6943 52.4355 44.7725 52.5293 44.8389C52.627 44.9053 52.7363 44.9619 52.8574 45.0088C52.9824 45.0557 53.1113 45.1025 53.2441 45.1494L53.7363 45.3135C53.9707 45.3916 54.1855 45.4756 54.3809 45.5654C54.5762 45.6514 54.748 45.751 54.8965 45.8643C55.084 46.0127 55.2285 46.1846 55.3301 46.3799C55.4355 46.5752 55.4883 46.8115 55.4883 47.0889ZM57.9844 48.7471H57V42.7588H57.9844V48.7471ZM56.8184 41.0303C56.8184 40.9365 56.8359 40.8486 56.8711 40.7666C56.9102 40.6846 56.959 40.6123 57.0176 40.5498C57.0801 40.4873 57.1523 40.4385 57.2344 40.4033C57.3203 40.3643 57.4102 40.3447 57.5039 40.3447C57.5977 40.3447 57.6855 40.3643 57.7676 40.4033C57.8496 40.4385 57.9199 40.4873 57.9785 40.5498C58.041 40.6123 58.0898 40.6846 58.125 40.7666C58.1641 40.8486 58.1836 40.9365 58.1836 41.0303C58.1836 41.124 58.1641 41.2139 58.125 41.2998C58.0898 41.3818 58.041 41.4541 57.9785 41.5166C57.9199 41.5752 57.8496 41.624 57.7676 41.6631C57.6855 41.6982 57.5977 41.7158 57.5039 41.7158C57.4102 41.7158 57.3203 41.6982 57.2344 41.6631C57.1523 41.624 57.0801 41.5752 57.0176 41.5166C56.959 41.4541 56.9102 41.3818 56.8711 41.2998C56.8359 41.2139 56.8184 41.124 56.8184 41.0303ZM59.3555 47.8564L62.6191 43.626H59.5488V42.7588H63.709V43.6729L60.457 47.8975H63.8672V48.7471H59.3555V47.8564ZM65.8477 46.0576C65.8672 46.3389 65.9238 46.5986 66.0176 46.8369C66.1113 47.0752 66.2383 47.2822 66.3984 47.458C66.5625 47.6299 66.7539 47.7646 66.9727 47.8623C67.1953 47.9561 67.4414 48.0029 67.7109 48.0029C68.043 48.0029 68.334 47.9482 68.584 47.8389C68.8379 47.7256 69.0703 47.585 69.2812 47.417L69.7852 48.126C69.5156 48.3408 69.2031 48.5186 68.8477 48.6592C68.4961 48.7959 68.1016 48.8643 67.6641 48.8643C67.2305 48.8643 66.8379 48.7881 66.4863 48.6357C66.1348 48.4795 65.834 48.2646 65.584 47.9912C65.3379 47.7139 65.1484 47.3857 65.0156 47.0068C64.8828 46.624 64.8164 46.208 64.8164 45.7588C64.8164 45.3018 64.8809 44.8838 65.0098 44.5049C65.1426 44.1221 65.3281 43.7939 65.5664 43.5205C65.8047 43.2432 66.0898 43.0283 66.4219 42.876C66.7539 42.7197 67.123 42.6416 67.5293 42.6416C67.9238 42.6416 68.2793 42.7197 68.5957 42.876C68.9121 43.0283 69.1816 43.2432 69.4043 43.5205C69.627 43.7939 69.7969 44.1221 69.9141 44.5049C70.0352 44.8838 70.0957 45.2979 70.0957 45.7471V46.0576H65.8477ZM67.4941 43.5029C67.2441 43.5029 67.0215 43.5518 66.8262 43.6494C66.6309 43.7471 66.4629 43.8779 66.3223 44.042C66.1855 44.2061 66.0762 44.3955 65.9941 44.6104C65.916 44.8213 65.8711 45.04 65.8594 45.2666H69.0293C69.0215 45.0361 68.9805 44.8154 68.9062 44.6045C68.8359 44.3896 68.7344 44.2021 68.6016 44.042C68.4727 43.8779 68.3145 43.7471 68.127 43.6494C67.9434 43.5518 67.7324 43.5029 67.4941 43.5029ZM71.4727 48.1846C71.4727 48.0908 71.4902 48.0029 71.5254 47.9209C71.5645 47.835 71.6133 47.7627 71.6719 47.7041C71.7344 47.6416 71.8066 47.5928 71.8887 47.5576C71.9707 47.5186 72.0586 47.499 72.1523 47.499C72.2461 47.499 72.334 47.5186 72.416 47.5576C72.502 47.5928 72.5742 47.6416 72.6328 47.7041C72.6953 47.7627 72.7441 47.835 72.7793 47.9209C72.8184 48.0029 72.8379 48.0908 72.8379 48.1846C72.8379 48.2783 72.8184 48.3662 72.7793 48.4482C72.7441 48.5303 72.6953 48.6025 72.6328 48.665C72.5742 48.7236 72.502 48.7705 72.416 48.8057C72.334 48.8447 72.2461 48.8643 72.1523 48.8643C72.0586 48.8643 71.9707 48.8447 71.8887 48.8057C71.8066 48.7705 71.7344 48.7236 71.6719 48.665C71.6133 48.6025 71.5645 48.5303 71.5254 48.4482C71.4902 48.3662 71.4727 48.2783 71.4727 48.1846ZM71.4727 43.4443C71.4727 43.3506 71.4902 43.2627 71.5254 43.1807C71.5645 43.0947 71.6133 43.0225 71.6719 42.9639C71.7344 42.9014 71.8066 42.8525 71.8887 42.8174C71.9707 42.7783 72.0586 42.7588 72.1523 42.7588C72.2461 42.7588 72.334 42.7783 72.416 42.8174C72.502 42.8525 72.5742 42.9014 72.6328 42.9639C72.6953 43.0225 72.7441 43.0947 72.7793 43.1807C72.8184 43.2627 72.8379 43.3506 72.8379 43.4443C72.8379 43.5381 72.8184 43.626 72.7793 43.708C72.7441 43.79 72.6953 43.8623 72.6328 43.9248C72.5742 43.9873 72.502 44.0381 72.416 44.0771C72.334 44.1123 72.2461 44.1299 72.1523 44.1299C72.0586 44.1299 71.9707 44.1123 71.8887 44.0771C71.8066 44.0381 71.7344 43.9873 71.6719 43.9248C71.6133 43.8623 71.5645 43.79 71.5254 43.708C71.4902 43.626 71.4727 43.5381 71.4727 43.4443ZM1.34277 62.835C1.84408 62.835 2.25228 62.7956 2.56738 62.7168C2.88249 62.6309 3.12598 62.4984 3.29785 62.3193C3.46973 62.1403 3.58431 61.9111 3.6416 61.6318C3.70605 61.3454 3.73828 60.998 3.73828 60.5898V60.3428H5.56445V75.7471H3.67383V64.4355H0.676758V62.835H1.34277ZM15.0283 74.2969C15.5296 74.2969 15.9951 74.1644 16.4248 73.8994C16.8617 73.6344 17.234 73.2549 17.542 72.7607C17.8571 72.2594 18.1042 71.6471 18.2832 70.9238C18.4622 70.1934 18.5518 69.3662 18.5518 68.4424V67.6689C18.5518 66.7451 18.4622 65.9215 18.2832 65.1982C18.1042 64.4749 17.8571 63.8626 17.542 63.3613C17.234 62.86 16.8617 62.4805 16.4248 62.2227C15.9951 61.9577 15.5296 61.8252 15.0283 61.8252C14.5199 61.8252 14.0508 61.9577 13.6211 62.2227C13.1914 62.4805 12.819 62.86 12.5039 63.3613C12.196 63.8626 11.9525 64.4749 11.7734 65.1982C11.5944 65.9215 11.5049 66.7451 11.5049 67.6689V68.4424C11.5049 69.3662 11.5944 70.1934 11.7734 70.9238C11.9525 71.6471 12.196 72.2594 12.5039 72.7607C12.819 73.2549 13.1914 73.6344 13.6211 73.8994C14.0508 74.1644 14.5199 74.2969 15.0283 74.2969ZM15.0283 60.1494C15.6872 60.1494 16.2816 60.2533 16.8115 60.4609C17.3415 60.6686 17.807 60.9551 18.208 61.3203C18.6162 61.6784 18.9635 62.1081 19.25 62.6094C19.5436 63.1107 19.7835 63.6549 19.9697 64.2422C20.1559 64.8223 20.292 65.4382 20.3779 66.0898C20.4639 66.7415 20.5068 67.4004 20.5068 68.0664C20.5068 68.7324 20.4639 69.3913 20.3779 70.043C20.292 70.6875 20.1559 71.3034 19.9697 71.8906C19.7835 72.4707 19.5436 73.0114 19.25 73.5127C18.9635 74.0068 18.6162 74.4365 18.208 74.8018C17.807 75.167 17.3415 75.4535 16.8115 75.6611C16.2816 75.8617 15.6872 75.9619 15.0283 75.9619C14.3695 75.9619 13.7751 75.8617 13.2451 75.6611C12.7152 75.4535 12.2461 75.167 11.8379 74.8018C11.4368 74.4365 11.0895 74.0068 10.7959 73.5127C10.5094 73.0114 10.2731 72.4707 10.0869 71.8906C9.90072 71.3034 9.76465 70.6875 9.67871 70.043C9.59277 69.3913 9.5498 68.7324 9.5498 68.0664C9.5498 67.4004 9.59277 66.7415 9.67871 66.0898C9.76465 65.4382 9.90072 64.8223 10.0869 64.2422C10.2731 63.6549 10.5094 63.1107 10.7959 62.6094C11.0895 62.1081 11.4368 61.6784 11.8379 61.3203C12.2461 60.9551 12.7152 60.6686 13.2451 60.4609C13.7751 60.2533 14.3695 60.1494 15.0283 60.1494ZM31.8184 75.7471H30.0137V68.8398C30.0137 68.3529 29.9528 67.9411 29.8311 67.6045C29.7165 67.2679 29.5589 66.9958 29.3584 66.7881C29.165 66.5804 28.9323 66.43 28.6602 66.3369C28.3952 66.2438 28.1123 66.1973 27.8115 66.1973C27.5107 66.1973 27.2135 66.2581 26.9199 66.3799C26.6335 66.4945 26.3757 66.6771 26.1465 66.9277C25.9245 67.1784 25.7419 67.4971 25.5986 67.8838C25.4626 68.2633 25.3945 68.7217 25.3945 69.2588V75.7471H23.5898V64.7686H25.3945V66.0254C25.7598 65.5169 26.1823 65.1445 26.6621 64.9082C27.1491 64.6719 27.6862 64.5537 28.2734 64.5537C28.5169 64.5537 28.7819 64.5895 29.0684 64.6611C29.3548 64.7256 29.6341 64.8294 29.9062 64.9727C30.1855 65.1159 30.4398 65.3057 30.6689 65.542C30.9053 65.7712 31.0951 66.0505 31.2383 66.3799C31.4388 66.0433 31.668 65.7604 31.9258 65.5312C32.1908 65.2949 32.4665 65.1051 32.7529 64.9619C33.0465 64.8187 33.3473 64.7148 33.6553 64.6504C33.9704 64.5859 34.2819 64.5537 34.5898 64.5537C35.1842 64.5537 35.7106 64.654 36.1689 64.8545C36.6273 65.055 37.014 65.3236 37.3291 65.6602C37.6442 65.9967 37.8805 66.387 38.0381 66.8311C38.2028 67.2751 38.2852 67.7406 38.2852 68.2275V75.7471H36.4805V68.8398C36.4805 68.3529 36.4196 67.9411 36.2979 67.6045C36.1761 67.2679 36.0114 66.9958 35.8037 66.7881C35.596 66.5804 35.3561 66.43 35.084 66.3369C34.8118 66.2438 34.529 66.1973 34.2354 66.1973C33.9346 66.1973 33.6374 66.2581 33.3438 66.3799C33.0573 66.4945 32.7995 66.6771 32.5703 66.9277C32.3483 67.1784 32.1657 67.4971 32.0225 67.8838C31.8864 68.2633 31.8184 68.7217 31.8184 69.2588V75.7471ZM49.7363 75.7471H47.9316V68.8398C47.9316 68.3529 47.8708 67.9411 47.749 67.6045C47.6344 67.2679 47.4769 66.9958 47.2764 66.7881C47.083 66.5804 46.8503 66.43 46.5781 66.3369C46.3132 66.2438 46.0303 66.1973 45.7295 66.1973C45.4287 66.1973 45.1315 66.2581 44.8379 66.3799C44.5514 66.4945 44.2936 66.6771 44.0645 66.9277C43.8424 67.1784 43.6598 67.4971 43.5166 67.8838C43.3805 68.2633 43.3125 68.7217 43.3125 69.2588V75.7471H41.5078V64.7686H43.3125V66.0254C43.6777 65.5169 44.1003 65.1445 44.5801 64.9082C45.0671 64.6719 45.6042 64.5537 46.1914 64.5537C46.4349 64.5537 46.6999 64.5895 46.9863 64.6611C47.2728 64.7256 47.5521 64.8294 47.8242 64.9727C48.1035 65.1159 48.3577 65.3057 48.5869 65.542C48.8232 65.7712 49.013 66.0505 49.1562 66.3799C49.3568 66.0433 49.5859 65.7604 49.8438 65.5312C50.1087 65.2949 50.3844 65.1051 50.6709 64.9619C50.9645 64.8187 51.2653 64.7148 51.5732 64.6504C51.8883 64.5859 52.1999 64.5537 52.5078 64.5537C53.1022 64.5537 53.6286 64.654 54.0869 64.8545C54.5452 65.055 54.932 65.3236 55.2471 65.6602C55.5622 65.9967 55.7985 66.387 55.9561 66.8311C56.1208 67.2751 56.2031 67.7406 56.2031 68.2275V75.7471H54.3984V68.8398C54.3984 68.3529 54.3376 67.9411 54.2158 67.6045C54.0941 67.2679 53.9294 66.9958 53.7217 66.7881C53.514 66.5804 53.2741 66.43 53.002 66.3369C52.7298 66.2438 52.4469 66.1973 52.1533 66.1973C51.8525 66.1973 51.5553 66.2581 51.2617 66.3799C50.9753 66.4945 50.7174 66.6771 50.4883 66.9277C50.2663 67.1784 50.0837 67.4971 49.9404 67.8838C49.8044 68.2633 49.7363 68.7217 49.7363 69.2588V75.7471Z" fill="white"/>
<rect x="1" y="29.7471" width="83" height="1" fill="#E59ABE"/>
<rect x="1" y="12.7471" width="83" height="1" fill="#E59ABE"/>
<path d="M197.078 218.161H165.965L161.219 233.747H143.172L170.652 149.724H192.977L220.867 233.747H201.883L197.078 218.161ZM170.535 203.161H192.508L181.609 167.653H181.375L170.535 203.161ZM266.922 233.747V214.763H225.027V196.657L262.234 149.724H283.973V199.411H296.219V214.763H283.973V233.747H266.922ZM266.922 199.411V166.423L240.789 199.411H266.922Z" fill="#F4D7E5"/>
<circle cx="84" cy="21.7471" r="8" fill="#FF52EE"/>
</svg>
